G04 DipTrace 4.2.0.1*
G04 TopMask.gbr*
%MOIN*%
G04 #@! TF.FileFunction,Soldermask,Top*
G04 #@! TF.Part,Single*
%ADD29C,0.15748*%
%ADD35R,0.071024X0.078898*%
%ADD37C,0.108031*%
%ADD39R,0.078898X0.071024*%
%ADD41C,0.067087*%
%ADD43R,0.067087X0.067087*%
%ADD45C,0.067087*%
%ADD47C,0.072992*%
%ADD49C,0.082835*%
%ADD51R,0.082835X0.082835*%
%ADD53C,0.178031*%
%ADD55C,0.073031*%
%FSLAX26Y26*%
G04*
G70*
G90*
G75*
G01*
G04 TopMask*
%LPD*%
D55*
X585605Y1495621D3*
Y1395621D3*
Y1295621D3*
Y1195621D3*
Y1095621D3*
Y995621D3*
Y895621D3*
X685605D3*
Y995621D3*
Y1095621D3*
Y1195621D3*
Y1295621D3*
Y1395621D3*
Y1495621D3*
Y1595621D3*
X585605D3*
D29*
X529753Y532815D3*
X3016614D3*
D53*
X2853709Y2426125D3*
Y1426125D3*
D51*
X1702531Y2025457D3*
D49*
Y1925457D3*
Y1825457D3*
D51*
X2972438Y1825472D3*
D49*
Y1925472D3*
Y2025472D3*
D53*
X1804559Y2425457D3*
Y1425457D3*
D47*
X1246508Y1904924D3*
Y2104924D3*
X2553238Y807420D3*
Y1007420D3*
X1535597Y805454D3*
Y1005454D3*
D45*
X905512Y905512D3*
Y1102362D3*
Y1338583D3*
Y1496063D3*
D51*
X1062992Y2598425D3*
D49*
Y2498425D3*
Y2398425D3*
D43*
X1338583Y2362205D3*
D41*
Y2637795D3*
D39*
X657764Y2446022D3*
Y2556259D3*
D37*
X603675Y1985875D3*
Y2185875D3*
D39*
X1888950Y853451D3*
Y963688D3*
X2215560Y829879D3*
Y940115D3*
D35*
X1157039Y1683007D3*
X1267276D3*
D51*
X1929134Y1825472D3*
D49*
Y1925472D3*
Y2025472D3*
M02*
