G04 DipTrace 3.3.1.1*
G04 Top.gbr*
%MOIN*%
G04 #@! TF.FileFunction,Copper,L1,Top*
G04 #@! TF.Part,Single*
G04 #@! TA.AperFunction,Conductor*
%ADD14C,0.03937*%
G04 #@! TA.AperFunction,ComponentPad*
%ADD16C,0.065*%
%ADD17C,0.17*%
%ADD18R,0.074803X0.074803*%
%ADD19C,0.074803*%
%ADD20C,0.064961*%
%ADD21C,0.059055*%
%ADD22R,0.059055X0.059055*%
%ADD23C,0.059055*%
%ADD24R,0.070866X0.062992*%
G04 #@! TA.AperFunction,ComponentPad*
%ADD25C,0.1*%
%ADD26R,0.062992X0.070866*%
%FSLAX26Y26*%
G04*
G70*
G90*
G75*
G01*
G04 Top*
%LPD*%
X603990Y1986190D2*
D14*
X964642D1*
X1045593Y1905239D1*
X1246823D1*
X603990Y1986190D2*
X590554D1*
X468339Y2108406D1*
Y2354295D1*
X560381Y2446337D1*
X658079D1*
X1246823Y1905239D2*
X1157354D1*
Y1683322D1*
X1535912Y805769D2*
X1889265D1*
Y853766D1*
X2215875Y830194D2*
X2219243D1*
Y807735D1*
X2553552D1*
X1535912Y1005769D2*
X1542450D1*
Y1000851D1*
X1399977D1*
X1296287Y1104541D1*
X896965D1*
X905827Y1095678D1*
Y1102677D1*
X1535912Y1005769D2*
Y999795D1*
X1889265D1*
Y964003D1*
X905827Y1338898D2*
X1503022D1*
X1609793Y1232127D1*
X2333724D1*
X2553552Y1012299D1*
Y1007735D1*
X2215875D1*
Y940430D1*
X1246823Y2105239D2*
X1301164D1*
X1387563Y2018840D1*
Y1825772D1*
X1702846D1*
X2972753D1*
Y1826440D1*
X905827Y1496378D2*
X1206773D1*
X1387563Y1677168D1*
Y1825772D1*
X1267591Y1683322D2*
X1387563Y1677168D1*
X1063307Y2398740D2*
X1067686D1*
Y2356976D1*
X1126799Y2297864D1*
X1286012D1*
X1338898Y2350749D1*
Y2362520D1*
X603990Y2186190D2*
X667029D1*
X974031Y2493192D1*
X1063307D1*
Y2498740D1*
Y2598740D2*
X658079D1*
Y2556573D1*
X1063307Y2598740D2*
X1140079D1*
X1179449Y2638110D1*
X1338898D1*
D16*
X585920Y1495936D3*
Y1395936D3*
Y1295936D3*
Y1195936D3*
Y1095936D3*
Y995936D3*
Y895936D3*
X685920D3*
Y995936D3*
Y1095936D3*
Y1195936D3*
Y1295936D3*
Y1395936D3*
Y1495936D3*
Y1595936D3*
X585920D3*
D17*
X2854024Y2426440D3*
Y1426440D3*
D18*
X1702846Y2025772D3*
D19*
Y1925772D3*
Y1825772D3*
D18*
X2972753Y1826440D3*
D19*
Y1926440D3*
Y2026440D3*
D17*
X1804874Y2425772D3*
Y1425772D3*
D20*
X1246823Y1905239D3*
Y2105239D3*
X2553552Y807735D3*
Y1007735D3*
X1535912Y805769D3*
Y1005769D3*
D21*
X905827Y905827D3*
Y1102677D3*
Y1338898D3*
Y1496378D3*
D18*
X1063307Y2598740D3*
D19*
Y2498740D3*
Y2398740D3*
D22*
X1338898Y2362520D3*
D23*
Y2638110D3*
D24*
X658079Y2446337D3*
Y2556573D3*
D25*
X603990Y1986190D3*
Y2186190D3*
D24*
X1889265Y853766D3*
Y964003D3*
X2215875Y830194D3*
Y940430D3*
D26*
X1157354Y1683322D3*
X1267591D3*
M02*
