G04 DipTrace 3.3.1.1*
G04 TopSilk.gbr*
%MOIN*%
G04 #@! TF.FileFunction,Legend,Top*
G04 #@! TF.Part,Single*
%ADD10C,0.009843*%
%ADD15C,0.001312*%
%ADD55C,0.00772*%
%ADD56C,0.009264*%
%ADD57C,0.012351*%
%ADD58C,0.006176*%
%FSLAX26Y26*%
G04*
G70*
G90*
G75*
G01*
G04 TopSilk*
%LPD*%
X1809146Y2122622D2*
D10*
X1631980D1*
Y1728921D1*
X1809146D1*
Y2122622D1*
X1773713D2*
Y1728921D1*
X2866454Y1729589D2*
X3043619D1*
Y2123290D1*
X2866454D1*
Y1729589D1*
X2901887D2*
Y2123290D1*
X1296035Y1926546D2*
X1288949D1*
X1204697D2*
X1197610D1*
X1204697Y2083932D2*
X1197610D1*
X1296035D2*
X1288949D1*
X1197610Y1926546D2*
Y2083932D1*
X1296035Y1926546D2*
Y2083932D1*
X2602765Y829042D2*
X2595678D1*
X2511427D2*
X2504340D1*
X2511427Y986428D2*
X2504340D1*
X2602765D2*
X2595678D1*
X2504340Y829042D2*
Y986428D1*
X2602765Y829042D2*
Y986428D1*
X1585125Y827076D2*
X1578038D1*
X1493786D2*
X1486699D1*
X1493786Y984462D2*
X1486699D1*
X1585125D2*
X1578038D1*
X1486699Y827076D2*
Y984462D1*
X1585125Y827076D2*
Y984462D1*
X1169606Y2695591D2*
X992441D1*
Y2301890D1*
X1169606D1*
Y2695591D1*
X1134173D2*
Y2301890D1*
X1377078Y2423146D2*
X1304566Y2422844D1*
X1301344Y2423681D2*
Y2581165D1*
X1375867Y2457648D2*
X1302593D1*
X1377260Y2584043D2*
X1303736Y2583843D1*
X1377512Y2425354D2*
X1377260Y2584043D1*
X689543Y2489676D2*
Y2513235D1*
X626614Y2489676D2*
Y2513235D1*
X403990Y1886190D2*
X803990D1*
Y2286190D1*
X403990D1*
Y1886190D1*
X1920730Y904554D2*
X1857801D1*
X1920730Y897105D2*
X1857801D1*
X1920730D2*
Y920664D1*
X1857801Y897105D2*
Y920664D1*
X2247340Y880982D2*
X2184411D1*
X2247340Y873533D2*
X2184411D1*
X2247340D2*
Y897092D1*
X2184411Y873533D2*
Y897092D1*
X1208142Y1651857D2*
Y1714786D1*
X1200693Y1651857D2*
Y1714786D1*
Y1651857D2*
X1224252D1*
X1200693Y1714786D2*
X1224252D1*
X585870Y1770635D2*
Y1795936D1*
X685970Y1770635D2*
X585870D1*
X685970D2*
Y1795936D1*
X585870Y695936D2*
Y721236D1*
X685970D2*
X585870D1*
X685970Y695936D2*
Y721236D1*
X810920Y695936D2*
X460920D1*
X810920Y1795936D2*
X460920D1*
X810920Y695936D2*
Y1795936D1*
X491020Y1326236D2*
X460920D1*
X491020Y1165635D2*
Y1326236D1*
Y1165635D2*
X460920D1*
Y695936D2*
Y1165635D1*
Y1326236D2*
Y1795936D1*
X1346933Y901776D2*
D15*
G02X1346933Y901776I196850J0D01*
G01*
X2356702Y904184D2*
G02X2356702Y904184I196850J0D01*
G01*
X1056409Y2004453D2*
G02X1056409Y2004453I196850J0D01*
G01*
X1558757Y1735614D2*
D55*
X1608997D1*
Y1764299D1*
Y1817985D2*
X1558757D1*
X1608997Y1798861D1*
X1558757Y1779738D1*
X1608997D1*
X1568374Y1833424D2*
X1565942Y1838232D1*
X1558813Y1845417D1*
X1608997D1*
X1568374Y1860857D2*
X1565942Y1865665D1*
X1558813Y1872850D1*
X1608997D1*
X1568374Y1888289D2*
X1565942Y1893098D1*
X1558813Y1900283D1*
X1608997D1*
Y1925284D2*
X1558813Y1949215D1*
Y1915722D1*
Y2018064D2*
Y2044317D1*
X1577936Y2030002D1*
Y2037187D1*
X1580312Y2041941D1*
X1582689Y2044317D1*
X1589874Y2046749D1*
X1594627D1*
X1601812Y2044317D1*
X1606621Y2039564D1*
X1608997Y2032379D1*
Y2025194D1*
X1606621Y2018064D1*
X1604189Y2015688D1*
X1599436Y2013256D1*
X1604189Y2064565D2*
X1606621Y2062188D1*
X1608997Y2064565D1*
X1606621Y2066997D1*
X1604189Y2064565D1*
X1558813Y2087244D2*
Y2113497D1*
X1577936Y2099183D1*
Y2106368D1*
X1580312Y2111121D1*
X1582689Y2113497D1*
X1589874Y2115929D1*
X1594627D1*
X1601812Y2113497D1*
X1606621Y2108744D1*
X1608997Y2101559D1*
Y2094374D1*
X1606621Y2087244D1*
X1604189Y2084868D1*
X1599436Y2082436D1*
X2793231Y1737296D2*
X2843471D1*
Y1765981D1*
Y1819667D2*
X2793231D1*
X2843471Y1800543D1*
X2793231Y1781420D1*
X2843471D1*
Y1844667D2*
X2793286Y1868599D1*
Y1835106D1*
Y1895977D2*
X2795663Y1888847D1*
X2800416Y1886415D1*
X2805225D1*
X2809978Y1888847D1*
X2812410Y1893600D1*
X2814786Y1903162D1*
X2817163Y1910347D1*
X2821971Y1915100D1*
X2826724Y1917476D1*
X2833909D1*
X2838663Y1915100D1*
X2841094Y1912723D1*
X2843471Y1905538D1*
Y1895977D1*
X2841094Y1888847D1*
X2838663Y1886415D1*
X2833909Y1884038D1*
X2826724D1*
X2821971Y1886415D1*
X2817163Y1891223D1*
X2814786Y1898353D1*
X2812410Y1907915D1*
X2809978Y1912723D1*
X2805225Y1915100D1*
X2800416D1*
X2795663Y1912723D1*
X2793286Y1905538D1*
Y1895977D1*
Y1947286D2*
X2795663Y1940101D1*
X2802848Y1935292D1*
X2814786Y1932916D1*
X2821971D1*
X2833909Y1935292D1*
X2841094Y1940101D1*
X2843471Y1947286D1*
Y1952039D1*
X2841094Y1959224D1*
X2833909Y1963977D1*
X2821971Y1966409D1*
X2814786D1*
X2802848Y1963977D1*
X2795663Y1959224D1*
X2793286Y1952039D1*
Y1947286D1*
X2802848Y1963977D2*
X2833909Y1935292D1*
X2793286Y2010533D2*
Y1986657D1*
X2814786Y1984280D1*
X2812410Y1986657D1*
X2809978Y1993842D1*
Y2000972D1*
X2812410Y2008157D1*
X2817163Y2012965D1*
X2824348Y2015342D1*
X2829101D1*
X2836286Y2012965D1*
X2841094Y2008157D1*
X2843471Y2000972D1*
Y1993842D1*
X2841094Y1986657D1*
X2838663Y1984280D1*
X2833909Y1981848D1*
X2805169Y2066651D2*
X2800416Y2064274D1*
X2795608Y2059466D1*
X2793231Y2054713D1*
Y2045151D1*
X2795608Y2040342D1*
X2800416Y2035589D1*
X2805169Y2033157D1*
X2812354Y2030781D1*
X2824348D1*
X2831478Y2033157D1*
X2836286Y2035589D1*
X2841039Y2040342D1*
X2843471Y2045151D1*
Y2054713D1*
X2841039Y2059466D1*
X2836286Y2064274D1*
X2831478Y2066651D1*
X2793231Y2098837D2*
X2843471D1*
X2793231Y2082090D2*
Y2115583D1*
X1136325Y2009458D2*
X1131572Y2007081D1*
X1126764Y2002273D1*
X1124387Y1997519D1*
Y1987958D1*
X1126764Y1983149D1*
X1131572Y1978396D1*
X1136325Y1975964D1*
X1143510Y1973588D1*
X1155504D1*
X1162634Y1975964D1*
X1167442Y1978396D1*
X1172195Y1983149D1*
X1174627Y1987958D1*
Y1997519D1*
X1172195Y2002272D1*
X1167442Y2007081D1*
X1162634Y2009457D1*
X1134004Y2024897D2*
X1131572Y2029705D1*
X1124442Y2036890D1*
X1174627D1*
X1322611Y1830548D2*
X1320179Y1835357D1*
X1313049Y1842542D1*
X1363234D1*
X1313049Y1872351D2*
X1315426Y1865166D1*
X1322611Y1860358D1*
X1334549Y1857981D1*
X1341734D1*
X1353673Y1860357D1*
X1360858Y1865166D1*
X1363234Y1872351D1*
Y1877104D1*
X1360858Y1884289D1*
X1353673Y1889042D1*
X1341734Y1891474D1*
X1334549D1*
X1322611Y1889042D1*
X1315426Y1884289D1*
X1313049Y1877104D1*
Y1872351D1*
X1322611Y1889042D2*
X1353673Y1860357D1*
X1329741Y1906913D2*
X1353673D1*
X1360802Y1909290D1*
X1363234Y1914098D1*
Y1921283D1*
X1360802Y1926037D1*
X1353673Y1933222D1*
X1329741D2*
X1363234D1*
X1312994Y1979778D2*
Y1948661D1*
X1363234D1*
X1336926D2*
Y1967784D1*
X1313049Y2072503D2*
Y2048626D1*
X1334549Y2046250D1*
X1332173Y2048626D1*
X1329741Y2055811D1*
Y2062941D1*
X1332173Y2070126D1*
X1336926Y2074935D1*
X1344111Y2077311D1*
X1348864D1*
X1356049Y2074935D1*
X1360858Y2070126D1*
X1363234Y2062941D1*
Y2055811D1*
X1360858Y2048626D1*
X1358426Y2046250D1*
X1353673Y2043818D1*
X1313049Y2107121D2*
X1315426Y2099936D1*
X1322611Y2095127D1*
X1334549Y2092751D1*
X1341734D1*
X1353673Y2095127D1*
X1360858Y2099936D1*
X1363234Y2107121D1*
Y2111874D1*
X1360858Y2119059D1*
X1353673Y2123812D1*
X1341734Y2126244D1*
X1334549D1*
X1322611Y2123812D1*
X1315426Y2119059D1*
X1313049Y2111874D1*
Y2107121D1*
X1322611Y2123812D2*
X1353673Y2095127D1*
X1312994Y2141683D2*
X1363234Y2160806D1*
X1312994Y2179930D1*
X2443055Y901204D2*
X2438302Y898827D1*
X2433493Y894019D1*
X2431117Y889265D1*
Y879704D1*
X2433493Y874895D1*
X2438302Y870142D1*
X2443055Y867710D1*
X2450240Y865334D1*
X2462234D1*
X2469363Y867710D1*
X2474172Y870142D1*
X2478925Y874895D1*
X2481357Y879704D1*
Y889265D1*
X2478925Y894019D1*
X2474172Y898827D1*
X2469363Y901204D1*
X2443110Y919075D2*
X2440734D1*
X2435925Y921451D1*
X2433549Y923828D1*
X2431172Y928636D1*
Y938198D1*
X2433549Y942951D1*
X2435925Y945328D1*
X2440734Y947760D1*
X2445487D1*
X2450295Y945328D1*
X2457425Y940575D1*
X2481357Y916643D1*
Y950136D1*
X2629341Y733044D2*
X2626909Y737853D1*
X2619779Y745038D1*
X2669964D1*
X2619779Y774847D2*
X2622156Y767662D1*
X2629341Y762854D1*
X2641279Y760477D1*
X2648464D1*
X2660402Y762854D1*
X2667587Y767662D1*
X2669964Y774847D1*
Y779600D1*
X2667587Y786785D1*
X2660402Y791538D1*
X2648464Y793970D1*
X2641279D1*
X2629341Y791538D1*
X2622156Y786785D1*
X2619779Y779600D1*
Y774847D1*
X2629341Y791538D2*
X2660402Y762854D1*
X2636471Y809410D2*
X2660402Y809409D1*
X2667532Y811786D1*
X2669964Y816595D1*
Y823780D1*
X2667532Y828533D1*
X2660402Y835718D1*
X2636471D2*
X2669964D1*
X2619724Y882274D2*
Y851157D1*
X2669964D1*
X2643656D2*
Y870280D1*
X2619779Y974999D2*
Y951122D1*
X2641279Y948746D1*
X2638902Y951122D1*
X2636470Y958307D1*
Y965437D1*
X2638902Y972622D1*
X2643656Y977431D1*
X2650841Y979807D1*
X2655594D1*
X2662779Y977431D1*
X2667587Y972622D1*
X2669964Y965437D1*
Y958307D1*
X2667587Y951122D1*
X2665155Y948746D1*
X2660402Y946314D1*
X2619779Y1009617D2*
X2622156Y1002432D1*
X2629341Y997623D1*
X2641279Y995247D1*
X2648464D1*
X2660402Y997623D1*
X2667587Y1002432D1*
X2669964Y1009617D1*
Y1014370D1*
X2667587Y1021555D1*
X2660402Y1026308D1*
X2648464Y1028740D1*
X2641279D1*
X2629341Y1026308D1*
X2622156Y1021555D1*
X2619779Y1014370D1*
Y1009617D1*
X2629341Y1026308D2*
X2660402Y997623D1*
X2619724Y1044179D2*
X2669964Y1063302D1*
X2619724Y1082426D1*
X1425415Y899238D2*
X1420661Y896861D1*
X1415853Y892053D1*
X1413476Y887300D1*
Y877738D1*
X1415853Y872930D1*
X1420661Y868176D1*
X1425415Y865744D1*
X1432600Y863368D1*
X1444593D1*
X1451723Y865744D1*
X1456531Y868176D1*
X1461285Y872930D1*
X1463716Y877738D1*
Y887300D1*
X1461285Y892053D1*
X1456531Y896861D1*
X1451723Y899238D1*
X1413532Y919485D2*
Y945738D1*
X1432655Y931424D1*
Y938609D1*
X1435032Y943362D1*
X1437408Y945738D1*
X1444593Y948170D1*
X1449346D1*
X1456531Y945738D1*
X1461340Y940985D1*
X1463716Y933800D1*
Y926615D1*
X1461340Y919485D1*
X1458908Y917109D1*
X1454155Y914677D1*
X1611700Y731078D2*
X1609268Y735887D1*
X1602139Y743072D1*
X1652323D1*
X1602139Y772881D2*
X1604515Y765696D1*
X1611700Y760888D1*
X1623639Y758511D1*
X1630824D1*
X1642762Y760888D1*
X1649947Y765696D1*
X1652323Y772881D1*
Y777634D1*
X1649947Y784819D1*
X1642762Y789573D1*
X1630824Y792004D1*
X1623639D1*
X1611700Y789573D1*
X1604515Y784819D1*
X1602139Y777634D1*
Y772881D1*
X1611700Y789573D2*
X1642762Y760888D1*
X1618830Y807444D2*
X1642762D1*
X1649892Y809820D1*
X1652323Y814629D1*
Y821814D1*
X1649892Y826567D1*
X1642762Y833752D1*
X1618830D2*
X1652323D1*
X1602083Y880308D2*
Y849191D1*
X1652323D1*
X1626015D2*
Y868314D1*
X1602139Y973033D2*
Y949157D1*
X1623639Y946780D1*
X1621262Y949157D1*
X1618830Y956342D1*
Y963471D1*
X1621262Y970656D1*
X1626015Y975465D1*
X1633200Y977841D1*
X1637953D1*
X1645138Y975465D1*
X1649947Y970656D1*
X1652323Y963471D1*
Y956342D1*
X1649947Y949157D1*
X1647515Y946780D1*
X1642762Y944348D1*
X1602139Y1007651D2*
X1604515Y1000466D1*
X1611700Y995657D1*
X1623639Y993281D1*
X1630824D1*
X1642762Y995657D1*
X1649947Y1000466D1*
X1652323Y1007651D1*
Y1012404D1*
X1649947Y1019589D1*
X1642762Y1024342D1*
X1630824Y1026774D1*
X1623639D1*
X1611700Y1024342D1*
X1604515Y1019589D1*
X1602139Y1012404D1*
Y1007651D1*
X1611700Y1024342D2*
X1642762Y995657D1*
X1602083Y1042213D2*
X1652323Y1061337D1*
X1602083Y1080460D1*
X919218Y2343035D2*
Y2311918D1*
X969458D1*
X943150D2*
Y2331041D1*
X919218Y2372844D2*
X921539Y2368091D1*
X926348Y2363282D1*
X931156Y2360906D1*
X938341Y2358474D1*
X950279D1*
X957464Y2360906D1*
X962218Y2363282D1*
X967026Y2368091D1*
X969403Y2372844D1*
Y2382405D1*
X967026Y2387214D1*
X962218Y2391967D1*
X957464Y2394344D1*
X950279Y2396776D1*
X938341D1*
X931156Y2394344D1*
X926348Y2391967D1*
X921539Y2387214D1*
X919218Y2382406D1*
Y2372844D1*
X959841Y2380029D2*
X974211Y2394344D1*
X945526Y2412215D2*
Y2433770D1*
X943150Y2440900D1*
X940718Y2443332D1*
X935965Y2445708D1*
X928780D1*
X924026Y2443332D1*
X921595Y2440900D1*
X919218Y2433770D1*
Y2412215D1*
X969458D1*
Y2485079D2*
X919273D1*
X952711Y2461147D1*
Y2497017D1*
X969458Y2522018D2*
X919273Y2545950D1*
Y2512457D1*
X935965Y2561389D2*
X986205D1*
X943150D2*
X938396Y2566198D1*
X935965Y2570951D1*
Y2578136D1*
X938396Y2582944D1*
X943150Y2587697D1*
X950335Y2590129D1*
X955143D1*
X962273Y2587697D1*
X967081Y2582944D1*
X969458Y2578136D1*
Y2570951D1*
X967081Y2566198D1*
X962273Y2561389D1*
X919273Y2619939D2*
X921650Y2612754D1*
X928835Y2607945D1*
X940773Y2605569D1*
X947958D1*
X959896Y2607945D1*
X967081Y2612754D1*
X969458Y2619939D1*
Y2624692D1*
X967081Y2631877D1*
X959896Y2636630D1*
X947958Y2639062D1*
X940773D1*
X928835Y2636630D1*
X921650Y2631877D1*
X919273Y2624692D1*
Y2619939D1*
X928835Y2636630D2*
X959896Y2607945D1*
X926403Y2683186D2*
X921650Y2680809D1*
X919273Y2673624D1*
Y2668871D1*
X921650Y2661686D1*
X928835Y2656878D1*
X940773Y2654501D1*
X952711D1*
X962273Y2656878D1*
X967081Y2661686D1*
X969458Y2668871D1*
Y2671248D1*
X967081Y2678378D1*
X962273Y2683186D1*
X955088Y2685563D1*
X952711D1*
X945526Y2683186D1*
X940773Y2678378D1*
X938396Y2671248D1*
Y2668871D1*
X940773Y2661686D1*
X945526Y2656878D1*
X952711Y2654501D1*
X1228121Y2469852D2*
X1278361D1*
Y2486599D1*
X1275929Y2493784D1*
X1271176Y2498592D1*
X1266367Y2500969D1*
X1259238Y2503345D1*
X1247244D1*
X1240059Y2500969D1*
X1235306Y2498592D1*
X1230497Y2493784D1*
X1228121Y2486599D1*
Y2469852D1*
X1237738Y2518785D2*
X1235306Y2523593D1*
X1228176Y2530778D1*
X1278361D1*
X1404087Y2394242D2*
X1401656Y2399051D1*
X1394526Y2406236D1*
X1444711D1*
X1394526Y2436045D2*
X1396902Y2428860D1*
X1404087Y2424052D1*
X1416026Y2421675D1*
X1423211D1*
X1435149Y2424052D1*
X1442334Y2428860D1*
X1444711Y2436045D1*
Y2440798D1*
X1442334Y2447983D1*
X1435149Y2452737D1*
X1423211Y2455168D1*
X1416026D1*
X1404087Y2452737D1*
X1396902Y2447983D1*
X1394526Y2440798D1*
Y2436045D1*
X1404087Y2452737D2*
X1435149Y2424052D1*
X1394471Y2470608D2*
X1444711Y2489731D1*
X1394471Y2508854D1*
Y2572894D2*
Y2606388D1*
X1444711Y2572894D1*
Y2606388D1*
X573354Y2470992D2*
Y2492492D1*
X570922Y2499677D1*
X568546Y2502109D1*
X563793Y2504486D1*
X558984D1*
X554231Y2502109D1*
X551799Y2499677D1*
X549423Y2492492D1*
Y2470992D1*
X599663D1*
X573354Y2487739D2*
X599663Y2504486D1*
X559040Y2519925D2*
X556608Y2524733D1*
X549478Y2531918D1*
X599663D1*
X720087Y2422060D2*
X717656Y2426868D1*
X710526Y2434053D1*
X760711D1*
X710526Y2463863D2*
X712902Y2456678D1*
X720087Y2451869D1*
X732026Y2449493D1*
X739211D1*
X751149Y2451869D1*
X758334Y2456678D1*
X760711Y2463863D1*
Y2468616D1*
X758334Y2475801D1*
X751149Y2480554D1*
X739211Y2482986D1*
X732026D1*
X720087Y2480554D1*
X712902Y2475801D1*
X710526Y2468616D1*
Y2463863D1*
X720087Y2480554D2*
X751149Y2451869D1*
X710526Y2512795D2*
X712902Y2505610D1*
X720087Y2500802D1*
X732026Y2498425D1*
X739211D1*
X751149Y2500802D1*
X758334Y2505610D1*
X760711Y2512795D1*
Y2517548D1*
X758334Y2524733D1*
X751149Y2529487D1*
X739211Y2531918D1*
X732026D1*
X720087Y2529487D1*
X712902Y2524733D1*
X710526Y2517548D1*
Y2512795D1*
X720087Y2529487D2*
X751149Y2500802D1*
X710471Y2547358D2*
X760711D1*
X710471Y2580851D2*
X743964Y2547358D1*
X731970Y2559296D2*
X760711Y2580851D1*
X561588Y2359413D2*
Y2323543D1*
X563965Y2316358D1*
X568773Y2311605D1*
X575958Y2309173D1*
X580712D1*
X587897Y2311605D1*
X592705Y2316358D1*
X595082Y2323543D1*
Y2359413D1*
X634453Y2309173D2*
Y2359358D1*
X610521Y2325920D1*
X646391D1*
X1882734Y1056784D2*
X1880357Y1061537D1*
X1875549Y1066345D1*
X1870796Y1068722D1*
X1861234D1*
X1856425Y1066345D1*
X1851672Y1061537D1*
X1849240Y1056784D1*
X1846864Y1049599D1*
Y1037605D1*
X1849240Y1030475D1*
X1851672Y1025667D1*
X1856425Y1020914D1*
X1861234Y1018482D1*
X1870796D1*
X1875549Y1020914D1*
X1880357Y1025667D1*
X1882734Y1030475D1*
X1926858Y1068666D2*
X1902981D1*
X1900605Y1047167D1*
X1902981Y1049543D1*
X1910166Y1051975D1*
X1917296D1*
X1924481Y1049543D1*
X1929290Y1044790D1*
X1931666Y1037605D1*
Y1032852D1*
X1929290Y1025667D1*
X1924481Y1020858D1*
X1917296Y1018482D1*
X1910166D1*
X1902981Y1020858D1*
X1900605Y1023290D1*
X1898173Y1028043D1*
X1818897Y805256D2*
X1811711Y802880D1*
X1806903Y795695D1*
X1804526Y783757D1*
Y776571D1*
X1806903Y764633D1*
X1811711Y757448D1*
X1818897Y755072D1*
X1823650D1*
X1830835Y757448D1*
X1835588Y764633D1*
X1838020Y776571D1*
Y783757D1*
X1835588Y795695D1*
X1830835Y802880D1*
X1823650Y805256D1*
X1818897D1*
X1835588Y795695D2*
X1806903Y764633D1*
X1855836Y759880D2*
X1853459Y757448D1*
X1855836Y755072D1*
X1858267Y757448D1*
X1855836Y759880D1*
X1873707Y795695D2*
X1878515Y798127D1*
X1885700Y805256D1*
Y755072D1*
X1901139Y788565D2*
Y764633D1*
X1903516Y757504D1*
X1908324Y755072D1*
X1915510D1*
X1920263Y757504D1*
X1927448Y764633D1*
Y788565D2*
Y755072D1*
X1974004Y805312D2*
X1942887D1*
Y755072D1*
Y781380D2*
X1962010D1*
X2208156Y1033211D2*
X2205779Y1037965D1*
X2200971Y1042773D1*
X2196217Y1045150D1*
X2186656D1*
X2181847Y1042773D1*
X2177094Y1037965D1*
X2174662Y1033211D1*
X2172286Y1026026D1*
Y1014033D1*
X2174662Y1006903D1*
X2177094Y1002095D1*
X2181847Y997341D1*
X2186656Y994910D1*
X2196217D1*
X2200971Y997341D1*
X2205779Y1002095D1*
X2208156Y1006903D1*
X2247527Y994910D2*
Y1045094D1*
X2223595Y1011656D1*
X2259465D1*
X2145507Y781684D2*
X2138322Y779308D1*
X2133513Y772123D1*
X2131137Y760184D1*
Y752999D1*
X2133513Y741061D1*
X2138322Y733876D1*
X2145507Y731499D1*
X2150260D1*
X2157445Y733876D1*
X2162198Y741061D1*
X2164630Y752999D1*
Y760184D1*
X2162198Y772123D1*
X2157445Y779308D1*
X2150260Y781684D1*
X2145507D1*
X2162198Y772123D2*
X2133513Y741061D1*
X2182446Y736308D2*
X2180069Y733876D1*
X2182446Y731499D1*
X2184878Y733876D1*
X2182446Y736308D1*
X2200317Y772123D2*
X2205125Y774554D1*
X2212310Y781684D1*
Y731499D1*
X2227750Y764993D2*
Y741061D1*
X2230126Y733931D1*
X2234935Y731499D1*
X2242120D1*
X2246873Y733931D1*
X2254058Y741061D1*
Y764993D2*
Y731499D1*
X2300614Y781739D2*
X2269497D1*
Y731499D1*
Y757808D2*
X2288620D1*
X1064573Y1678006D2*
X1059820Y1675630D1*
X1055012Y1670821D1*
X1052635Y1666068D1*
Y1656506D1*
X1055012Y1651698D1*
X1059820Y1646945D1*
X1064573Y1644513D1*
X1071758Y1642136D1*
X1083752D1*
X1090882Y1644513D1*
X1095690Y1646945D1*
X1100443Y1651698D1*
X1102875Y1656506D1*
Y1666068D1*
X1100443Y1670821D1*
X1095690Y1675630D1*
X1090882Y1678006D1*
X1059820Y1722130D2*
X1055067Y1719754D1*
X1052691Y1712569D1*
Y1707816D1*
X1055067Y1700630D1*
X1062252Y1695822D1*
X1074190Y1693445D1*
X1086129D1*
X1095690Y1695822D1*
X1100499Y1700630D1*
X1102875Y1707815D1*
Y1710192D1*
X1100499Y1717322D1*
X1095690Y1722130D1*
X1088505Y1724507D1*
X1086129D1*
X1078944Y1722130D1*
X1074190Y1717322D1*
X1071814Y1710192D1*
Y1707815D1*
X1074190Y1700630D1*
X1078944Y1695822D1*
X1086129Y1693445D1*
X1316101Y1612953D2*
X1318477Y1605768D1*
X1325662Y1600960D1*
X1337600Y1598583D1*
X1344785D1*
X1356724Y1600960D1*
X1363909Y1605768D1*
X1366285Y1612953D1*
Y1617706D1*
X1363909Y1624891D1*
X1356724Y1629644D1*
X1344786Y1632076D1*
X1337600D1*
X1325662Y1629644D1*
X1318477Y1624891D1*
X1316101Y1617706D1*
Y1612953D1*
X1325662Y1629644D2*
X1356724Y1600960D1*
X1361477Y1649892D2*
X1363909Y1647515D1*
X1366285Y1649892D1*
X1363909Y1652324D1*
X1361477Y1649892D1*
X1325662Y1667763D2*
X1323230Y1672572D1*
X1316101Y1679757D1*
X1366285D1*
X1332792Y1695196D2*
X1356724D1*
X1363853Y1697572D1*
X1366285Y1702381D1*
Y1709566D1*
X1363853Y1714319D1*
X1356724Y1721504D1*
X1332792D2*
X1366285D1*
X1316045Y1768060D2*
Y1736943D1*
X1366285D1*
X1339977D2*
Y1756067D1*
X2676459Y1789118D2*
D56*
Y1728830D1*
X2694986Y1769022D2*
Y1728830D1*
Y1757548D2*
X2703608Y1766170D1*
X2709378Y1769022D1*
X2717934D1*
X2723704Y1766170D1*
X2726556Y1757548D1*
Y1728830D1*
X2628935Y2140846D2*
X2623165Y2137995D1*
X2617461Y2132224D1*
X2614543Y2126521D1*
X2611691Y2117899D1*
Y2103506D1*
X2614543Y2094951D1*
X2617461Y2089180D1*
X2623165Y2083477D1*
X2628935Y2080558D1*
X2640409D1*
X2646113Y2083477D1*
X2651883Y2089180D1*
X2654735Y2094951D1*
X2657587Y2103506D1*
Y2117899D1*
X2654735Y2126521D1*
X2651883Y2132224D1*
X2646113Y2137995D1*
X2640409Y2140846D1*
X2628935D1*
X2676114Y2120750D2*
Y2092032D1*
X2678966Y2083477D1*
X2684736Y2080558D1*
X2693358D1*
X2699062Y2083477D1*
X2707684Y2092032D1*
Y2120750D2*
Y2080558D1*
X2734833Y2140846D2*
Y2092032D1*
X2737685Y2083477D1*
X2743455Y2080558D1*
X2749159D1*
X2726211Y2120750D2*
X2746307D1*
X2630848Y1952387D2*
X2627996Y1958091D1*
X2622226Y1963861D1*
X2616522Y1966713D1*
X2605048D1*
X2599278Y1963861D1*
X2593574Y1958091D1*
X2590656Y1952387D1*
X2587804Y1943765D1*
Y1929372D1*
X2590656Y1920817D1*
X2593574Y1915047D1*
X2599278Y1909343D1*
X2605048Y1906425D1*
X2616522D1*
X2622226Y1909343D1*
X2627996Y1915047D1*
X2630848Y1920817D1*
Y1929372D1*
X2616522D1*
X2649375Y1946617D2*
Y1906425D1*
Y1935143D2*
X2657997Y1943765D1*
X2663767Y1946617D1*
X2672323D1*
X2678093Y1943765D1*
X2680945Y1935143D1*
Y1906425D1*
X2733894Y1966713D2*
Y1906425D1*
Y1937995D2*
X2728190Y1943765D1*
X2722420Y1946617D1*
X2713798D1*
X2708094Y1943765D1*
X2702324Y1937995D1*
X2699472Y1929372D1*
Y1923669D1*
X2702324Y1915047D1*
X2708094Y1909343D1*
X2713798Y1906425D1*
X2722420D1*
X2728190Y1909343D1*
X2733894Y1915047D1*
X1847356Y1823522D2*
Y1763234D1*
X1865883Y1803426D2*
Y1763234D1*
Y1791952D2*
X1874505Y1800574D1*
X1880275Y1803426D1*
X1888831D1*
X1894601Y1800574D1*
X1897453Y1791952D1*
Y1763234D1*
X1857532Y1948207D2*
X1851762Y1945355D1*
X1846058Y1939585D1*
X1843140Y1933881D1*
X1840288Y1925259D1*
Y1910867D1*
X1843140Y1902311D1*
X1846058Y1896541D1*
X1851762Y1890838D1*
X1857532Y1887919D1*
X1869006D1*
X1874710Y1890838D1*
X1880480Y1896541D1*
X1883332Y1902311D1*
X1886184Y1910867D1*
Y1925259D1*
X1883332Y1933881D1*
X1880480Y1939585D1*
X1874710Y1945355D1*
X1869006Y1948207D1*
X1857532D1*
X1904711Y1928111D2*
Y1899393D1*
X1907563Y1890838D1*
X1913333Y1887919D1*
X1921955D1*
X1927659Y1890838D1*
X1936281Y1899393D1*
Y1928111D2*
Y1887919D1*
X1963430Y1948207D2*
Y1899393D1*
X1966282Y1890838D1*
X1972052Y1887919D1*
X1977756D1*
X1954808Y1928111D2*
X1974904D1*
X1893953Y2100683D2*
X1891101Y2106387D1*
X1885331Y2112157D1*
X1879627Y2115009D1*
X1868153D1*
X1862383Y2112157D1*
X1856679Y2106387D1*
X1853761Y2100683D1*
X1850909Y2092061D1*
Y2077669D1*
X1853761Y2069113D1*
X1856679Y2063343D1*
X1862383Y2057639D1*
X1868153Y2054721D1*
X1879627D1*
X1885331Y2057639D1*
X1891101Y2063343D1*
X1893953Y2069113D1*
Y2077669D1*
X1879627D1*
X1912480Y2094913D2*
Y2054721D1*
Y2083439D2*
X1921102Y2092061D1*
X1926872Y2094913D1*
X1935428D1*
X1941198Y2092061D1*
X1944050Y2083439D1*
Y2054721D1*
X1996999Y2115009D2*
Y2054721D1*
Y2086291D2*
X1991295Y2092061D1*
X1985525Y2094913D1*
X1976903D1*
X1971199Y2092061D1*
X1965429Y2086291D1*
X1962577Y2077669D1*
Y2071965D1*
X1965429Y2063343D1*
X1971199Y2057639D1*
X1976903Y2054721D1*
X1985525D1*
X1991295Y2057639D1*
X1996999Y2063343D1*
X1385642Y2235862D2*
Y2184196D1*
X1359842Y2209996D2*
X1411508D1*
X1447060Y1141858D2*
Y1090192D1*
X1421260Y1115992D2*
X1472926D1*
X1873485Y2709535D2*
D57*
Y2629151D1*
X1846690Y2709535D2*
X1900279D1*
X1963273Y2629151D2*
Y2709447D1*
X1924982Y2655946D1*
X1982374D1*
X2007077Y2694148D2*
X2014770Y2698039D1*
X2026267Y2709447D1*
Y2629151D1*
X2128731Y2667442D2*
X2163219D1*
X2174627Y2671245D1*
X2178518Y2675136D1*
X2182320Y2682741D1*
Y2694237D1*
X2178518Y2701842D1*
X2174627Y2705733D1*
X2163219Y2709535D1*
X2128731D1*
Y2629151D1*
X2226124Y2682741D2*
X2218519Y2678938D1*
X2210826Y2671245D1*
X2207023Y2659749D1*
Y2652144D1*
X2210826Y2640647D1*
X2218519Y2633042D1*
X2226124Y2629151D1*
X2237620D1*
X2245314Y2633042D1*
X2252919Y2640647D1*
X2256810Y2652144D1*
Y2659749D1*
X2252919Y2671245D1*
X2245314Y2678938D1*
X2237620Y2682741D1*
X2226124D1*
X2281513D2*
X2296811Y2629151D1*
X2312110Y2682741D1*
X2327408Y2629151D1*
X2342707Y2682741D1*
X2367410Y2659749D2*
X2413306D1*
Y2667442D1*
X2409503Y2675136D1*
X2405701Y2678938D1*
X2398007Y2682741D1*
X2386511D1*
X2378906Y2678938D1*
X2371212Y2671245D1*
X2367410Y2659749D1*
Y2652144D1*
X2371212Y2640647D1*
X2378906Y2633042D1*
X2386511Y2629151D1*
X2398007D1*
X2405701Y2633042D1*
X2413306Y2640647D1*
X2438008Y2682741D2*
Y2629151D1*
Y2659749D2*
X2441899Y2671245D1*
X2449504Y2678938D1*
X2457198Y2682741D1*
X2468694D1*
X2624748Y2698039D2*
X2617143Y2705733D1*
X2605647Y2709535D1*
X2590348D1*
X2578852Y2705733D1*
X2571158Y2698039D1*
Y2690434D1*
X2575049Y2682741D1*
X2578852Y2678938D1*
X2586457Y2675136D1*
X2609449Y2667442D1*
X2617143Y2663640D1*
X2620945Y2659749D1*
X2624748Y2652144D1*
Y2640647D1*
X2617143Y2633042D1*
X2605647Y2629151D1*
X2590348D1*
X2578852Y2633042D1*
X2571158Y2640647D1*
X2649451Y2682741D2*
Y2644450D1*
X2653253Y2633042D1*
X2660947Y2629151D1*
X2672443D1*
X2680048Y2633042D1*
X2691544Y2644450D1*
Y2682741D2*
Y2629151D1*
X2716247Y2682741D2*
Y2602357D1*
Y2671245D2*
X2723940Y2678850D1*
X2731545Y2682741D1*
X2743041D1*
X2750735Y2678850D1*
X2758340Y2671245D1*
X2762231Y2659749D1*
Y2652055D1*
X2758340Y2640647D1*
X2750735Y2632954D1*
X2743041Y2629151D1*
X2731545D1*
X2723940Y2632954D1*
X2716247Y2640647D1*
X2786934Y2682741D2*
Y2602357D1*
Y2671245D2*
X2794627Y2678850D1*
X2802232Y2682741D1*
X2813728D1*
X2821422Y2678850D1*
X2829027Y2671245D1*
X2832918Y2659749D1*
Y2652055D1*
X2829027Y2640647D1*
X2821422Y2632954D1*
X2813728Y2629151D1*
X2802232D1*
X2794627Y2632954D1*
X2786934Y2640647D1*
X2857621Y2709535D2*
Y2629151D1*
X2886214Y2682741D2*
X2909118Y2629151D1*
X2901513Y2613853D1*
X2893820Y2606159D1*
X2886214Y2602357D1*
X2882324D1*
X2932110Y2682741D2*
X2909118Y2629151D1*
X1016615Y976040D2*
D56*
X1013763Y981744D1*
X1007993Y987514D1*
X1002289Y990366D1*
X990816D1*
X985045Y987514D1*
X979342Y981744D1*
X976423Y976040D1*
X973571Y967418D1*
Y953026D1*
X976423Y944470D1*
X979342Y938700D1*
X985045Y932996D1*
X990816Y930078D1*
X1002289D1*
X1007993Y932996D1*
X1013763Y938700D1*
X1016615Y944470D1*
Y953026D1*
X1002289D1*
X1035142Y970270D2*
Y930078D1*
Y958796D2*
X1043764Y967418D1*
X1049535Y970270D1*
X1058090D1*
X1063860Y967418D1*
X1066712Y958796D1*
Y930078D1*
X1119661Y990366D2*
Y930078D1*
Y961648D2*
X1113958Y967418D1*
X1108187Y970270D1*
X1099565D1*
X1093862Y967418D1*
X1088091Y961648D1*
X1085239Y953026D1*
Y947322D1*
X1088091Y938700D1*
X1093862Y932996D1*
X1099565Y930078D1*
X1108187D1*
X1113958Y932996D1*
X1119661Y938700D1*
X1015492Y1137682D2*
Y1086016D1*
X989692Y1111816D2*
X1041358D1*
X1065655Y1141960D2*
X1097159D1*
X1079981Y1119012D1*
X1088603D1*
X1094307Y1116160D1*
X1097159Y1113308D1*
X1100077Y1104686D1*
Y1098982D1*
X1097159Y1090360D1*
X1091455Y1084590D1*
X1082833Y1081738D1*
X1074211D1*
X1065655Y1084590D1*
X1062803Y1087508D1*
X1059885Y1093212D1*
X1121456Y1087508D2*
X1118604Y1084590D1*
X1121456Y1081738D1*
X1124374Y1084590D1*
X1121456Y1087508D1*
X1148672Y1141960D2*
X1180175D1*
X1162998Y1119012D1*
X1171620D1*
X1177323Y1116160D1*
X1180175Y1113308D1*
X1183094Y1104686D1*
Y1098982D1*
X1180175Y1090360D1*
X1174471Y1084590D1*
X1165849Y1081738D1*
X1157227D1*
X1148672Y1084590D1*
X1145820Y1087508D1*
X1142902Y1093212D1*
X1041281Y1362165D2*
D55*
Y1319110D1*
X1019781Y1340610D2*
X1062836D1*
X1106960Y1365730D2*
X1083084D1*
X1080707Y1344230D1*
X1083084Y1346607D1*
X1090269Y1349039D1*
X1097399D1*
X1104584Y1346607D1*
X1109392Y1341854D1*
X1111769Y1334669D1*
Y1329915D1*
X1109392Y1322730D1*
X1104584Y1317922D1*
X1097399Y1315545D1*
X1090269D1*
X1083084Y1317922D1*
X1080707Y1320354D1*
X1078275Y1325107D1*
X988121Y1487999D2*
Y1444944D1*
X966621Y1466443D2*
X1009676D1*
X1025115Y1482002D2*
X1029924Y1484434D1*
X1037109Y1491563D1*
Y1441379D1*
X1054980Y1479625D2*
Y1482002D1*
X1057356Y1486810D1*
X1059733Y1489187D1*
X1064541Y1491563D1*
X1074103D1*
X1078856Y1489187D1*
X1081233Y1486810D1*
X1083665Y1482002D1*
Y1477249D1*
X1081233Y1472440D1*
X1076480Y1465310D1*
X1052548Y1441379D1*
X1086041D1*
X1556940Y2669520D2*
D56*
X1579888Y2609232D1*
X1602836Y2669520D1*
X1638607Y2669453D2*
X1629985Y2666601D1*
X1624215Y2657979D1*
X1621363Y2643653D1*
Y2635031D1*
X1624215Y2620705D1*
X1629985Y2612083D1*
X1638607Y2609232D1*
X1644311D1*
X1652933Y2612083D1*
X1658637Y2620705D1*
X1661555Y2635031D1*
Y2643653D1*
X1658637Y2657979D1*
X1652933Y2666601D1*
X1644311Y2669453D1*
X1638607D1*
X1658637Y2657979D2*
X1624215Y2620705D1*
X1680082Y2657979D2*
X1685852Y2660897D1*
X1694475Y2669453D1*
Y2609232D1*
X1730246Y2669453D2*
X1721624Y2666601D1*
X1715854Y2657979D1*
X1713002Y2643653D1*
Y2635031D1*
X1715854Y2620705D1*
X1721624Y2612083D1*
X1730246Y2609232D1*
X1735950D1*
X1744572Y2612083D1*
X1750275Y2620705D1*
X1753194Y2635031D1*
Y2643653D1*
X1750275Y2657979D1*
X1744572Y2666601D1*
X1735950Y2669453D1*
X1730246D1*
X1750275Y2657979D2*
X1715854Y2620705D1*
X2142468Y2366737D2*
X2133846Y2363885D1*
X2128076Y2355263D1*
X2125224Y2340937D1*
Y2332315D1*
X2128076Y2317989D1*
X2133846Y2309367D1*
X2142468Y2306515D1*
X2148172D1*
X2156794Y2309367D1*
X2162497Y2317989D1*
X2165416Y2332315D1*
Y2340937D1*
X2162497Y2355263D1*
X2156794Y2363885D1*
X2148172Y2366737D1*
X2142468D1*
X2162497Y2355263D2*
X2128076Y2317989D1*
X2218365Y2358181D2*
X2215513Y2363885D1*
X2206891Y2366737D1*
X2201187D1*
X2192565Y2363885D1*
X2186795Y2355263D1*
X2183943Y2340937D1*
Y2326611D1*
X2186795Y2315137D1*
X2192565Y2309367D1*
X2201187Y2306515D1*
X2204039D1*
X2212594Y2309367D1*
X2218365Y2315137D1*
X2221217Y2323759D1*
Y2326611D1*
X2218365Y2335233D1*
X2212594Y2340937D1*
X2204039Y2343789D1*
X2201187D1*
X2192565Y2340937D1*
X2186795Y2335233D1*
X2183943Y2326611D1*
X2239744Y2336626D2*
X2272905D1*
X2308677Y2366737D2*
X2300054Y2363885D1*
X2294284Y2355263D1*
X2291432Y2340937D1*
Y2332315D1*
X2294284Y2317989D1*
X2300054Y2309367D1*
X2308677Y2306515D1*
X2314380D1*
X2323002Y2309367D1*
X2328706Y2317989D1*
X2331624Y2332315D1*
Y2340937D1*
X2328706Y2355263D1*
X2323002Y2363885D1*
X2314380Y2366737D1*
X2308677D1*
X2328706Y2355263D2*
X2294284Y2317989D1*
X2350152Y2355263D2*
X2355922Y2358181D1*
X2364544Y2366737D1*
Y2306515D1*
X2383071Y2336626D2*
X2416233D1*
X2437678Y2352411D2*
Y2355263D1*
X2440530Y2361033D1*
X2443382Y2363885D1*
X2449152Y2366737D1*
X2460626D1*
X2466330Y2363885D1*
X2469181Y2361033D1*
X2472100Y2355263D1*
Y2349559D1*
X2469181Y2343789D1*
X2463478Y2335233D1*
X2434760Y2306515D1*
X2474952D1*
X2496397Y2352411D2*
Y2355263D1*
X2499249Y2361033D1*
X2502101Y2363885D1*
X2507871Y2366737D1*
X2519345D1*
X2525049Y2363885D1*
X2527901Y2361033D1*
X2530819Y2355263D1*
Y2349559D1*
X2527901Y2343789D1*
X2522197Y2335233D1*
X2493479Y2306515D1*
X2533671D1*
X2212854Y2483809D2*
X2189840Y2544097D1*
X2166892Y2483809D1*
X2175514Y2503905D2*
X2204232D1*
X2274425Y2529771D2*
X2271573Y2535475D1*
X2265803Y2541245D1*
X2260099Y2544097D1*
X2248625D1*
X2242855Y2541245D1*
X2237151Y2535475D1*
X2234233Y2529771D1*
X2231381Y2521149D1*
Y2506757D1*
X2234233Y2498201D1*
X2237151Y2492431D1*
X2242855Y2486727D1*
X2248625Y2483809D1*
X2260099D1*
X2265803Y2486727D1*
X2271573Y2492431D1*
X2274425Y2498201D1*
X2307278Y2544031D2*
X2298722Y2541179D1*
X2295804Y2535475D1*
Y2529705D1*
X2298722Y2524001D1*
X2304426Y2521083D1*
X2315900Y2518231D1*
X2324522Y2515379D1*
X2330226Y2509609D1*
X2333078Y2503905D1*
Y2495283D1*
X2330226Y2489579D1*
X2327374Y2486661D1*
X2318752Y2483809D1*
X2307278D1*
X2298722Y2486661D1*
X2295804Y2489579D1*
X2292952Y2495283D1*
Y2503905D1*
X2295804Y2509609D1*
X2301574Y2515379D1*
X2310130Y2518231D1*
X2321604Y2521083D1*
X2327374Y2524001D1*
X2330226Y2529705D1*
Y2535475D1*
X2327374Y2541179D1*
X2318752Y2544031D1*
X2307278D1*
X2394649Y2529771D2*
X2391797Y2535475D1*
X2386027Y2541245D1*
X2380323Y2544097D1*
X2368849D1*
X2363079Y2541245D1*
X2357375Y2535475D1*
X2354457Y2529771D1*
X2351605Y2521149D1*
Y2506757D1*
X2354457Y2498201D1*
X2357375Y2492431D1*
X2363079Y2486727D1*
X2368849Y2483809D1*
X2380323D1*
X2386027Y2486727D1*
X2391797Y2492431D1*
X2394649Y2498201D1*
Y2506757D1*
X2380323D1*
X2413176Y2544097D2*
X2436124Y2515379D1*
Y2483809D1*
X2459071Y2544097D2*
X2436124Y2515379D1*
X871271Y1988591D2*
X868420Y1994295D1*
X862649Y2000065D1*
X856946Y2002917D1*
X845472D1*
X839702Y2000065D1*
X833998Y1994295D1*
X831079Y1988591D1*
X828228Y1979969D1*
Y1965577D1*
X831079Y1957021D1*
X833998Y1951251D1*
X839702Y1945548D1*
X845472Y1942629D1*
X856946D1*
X862649Y1945548D1*
X868420Y1951251D1*
X871271Y1957021D1*
Y1965577D1*
X856946D1*
X889799Y1982821D2*
Y1942629D1*
Y1971347D2*
X898421Y1979969D1*
X904191Y1982821D1*
X912746D1*
X918517Y1979969D1*
X921369Y1971347D1*
Y1942629D1*
X974318Y2002917D2*
Y1942629D1*
Y1974199D2*
X968614Y1979969D1*
X962844Y1982821D1*
X954221D1*
X948518Y1979969D1*
X942748Y1974199D1*
X939896Y1965577D1*
Y1959873D1*
X942748Y1951251D1*
X948518Y1945548D1*
X954221Y1942629D1*
X962844D1*
X968614Y1945548D1*
X974318Y1951251D1*
X857151Y2226066D2*
D55*
Y2183011D1*
X835651Y2204510D2*
X878706D1*
X894145Y2220069D2*
X898954Y2222501D1*
X906139Y2229630D1*
Y2179446D1*
X924010Y2217692D2*
Y2220069D1*
X926387Y2224877D1*
X928763Y2227254D1*
X933572Y2229630D1*
X943133D1*
X947886Y2227254D1*
X950263Y2224877D1*
X952695Y2220069D1*
Y2215316D1*
X950263Y2210507D1*
X945510Y2203377D1*
X921578Y2179446D1*
X955071D1*
X2629550Y1131659D2*
D56*
X2681216D1*
X2655416Y1105859D2*
Y1157525D1*
X845466Y2523139D2*
D58*
Y2482947D1*
X858863D1*
X864611Y2484893D1*
X868458Y2488695D1*
X870359Y2492542D1*
X872260Y2498246D1*
Y2507840D1*
X870359Y2513589D1*
X868458Y2517391D1*
X864611Y2521238D1*
X858863Y2523139D1*
X845466D1*
X878311Y2642224D2*
X876410Y2646026D1*
X872563Y2649873D1*
X868761Y2651774D1*
X861111D1*
X857265Y2649873D1*
X853462Y2646026D1*
X851517Y2642224D1*
X849615Y2636476D1*
Y2626881D1*
X851517Y2621177D1*
X853462Y2617330D1*
X857265Y2613528D1*
X861111Y2611582D1*
X868761D1*
X872563Y2613528D1*
X876410Y2617330D1*
X878311Y2621177D1*
Y2626881D1*
X868761D1*
X871095Y2407504D2*
X867293Y2411351D1*
X861545Y2413252D1*
X853895D1*
X848147Y2411351D1*
X844300Y2407504D1*
Y2403701D1*
X846246Y2399855D1*
X848147Y2397953D1*
X851950Y2396052D1*
X863446Y2392205D1*
X867293Y2390304D1*
X869194Y2388359D1*
X871095Y2384556D1*
Y2378808D1*
X867293Y2375005D1*
X861545Y2373060D1*
X853895D1*
X848147Y2375005D1*
X844300Y2378808D1*
M02*
