M48
INCH
T01C0.0197
T02C0.0354
%
T01
X+012231Y+012695
X+015153Y+012695
X+009197Y+012723
X+006136Y+012723
T02
X+030135Y+014168
X+030135Y+013381
X+032890Y+010231
X+032890Y+009444
X+032924Y+005499
X+031924Y+005499
X+030924Y+005499
X+029924Y+005499
X+030135Y+006294
X+026920Y+005484
X+025920Y+005484
X+024920Y+005484
X+023925Y+005487
X+024131Y+006280
X+020926Y+005490
X+019926Y+005490
X+018926Y+005490
X+017925Y+005487
X+018137Y+006285
X+014931Y+005486
X+013931Y+005486
X+012931Y+005486
X+011925Y+005487
X+012141Y+006282
X+008925Y+005487
X+007925Y+005487
X+006925Y+005487
X+005925Y+005487
X+006136Y+006282
X+008892Y+009432
X+008892Y+010219
X+006136Y+013369
X+006136Y+014156
X+008892Y+017306
X+008925Y+018487
X+007925Y+018487
X+006925Y+018487
X+005925Y+018487
X+011925Y+018487
X+012931Y+018486
X+013931Y+018486
X+014931Y+018486
X+014897Y+017305
X+017925Y+018487
X+018926Y+018490
X+019926Y+018490
X+020926Y+018490
X+020893Y+017309
X+023925Y+018487
X+024920Y+018484
X+025920Y+018484
X+026920Y+018484
X+026887Y+017304
X+029924Y+018499
X+030924Y+018499
X+031924Y+018499
X+032924Y+018499
X+032890Y+017318
X+026887Y+010217
X+026887Y+009430
X+024131Y+013367
X+024131Y+014154
X+020893Y+010222
X+020893Y+009435
X+018137Y+013372
X+018137Y+014159
X+014897Y+010219
X+014897Y+009431
X+012141Y+013368
X+012141Y+014156
T00
M30
