%TF.GenerationSoftware,KiCad,Pcbnew,9.0.7*%
%TF.CreationDate,2026-01-03T11:49:46-05:00*%
%TF.ProjectId,T41-RF-board-Attenuator-daughterboard,5434312d-5246-42d6-926f-6172642d4174,rev?*%
%TF.SameCoordinates,Original*%
%TF.FileFunction,Legend,Bot*%
%TF.FilePolarity,Positive*%
%FSLAX46Y46*%
G04 Gerber Fmt 4.6, Leading zero omitted, Abs format (unit mm)*
G04 Created by KiCad (PCBNEW 9.0.7) date 2026-01-03 11:49:46*
%MOMM*%
%LPD*%
G01*
G04 APERTURE LIST*
%ADD10C,0.200000*%
%ADD11R,1.700000X1.700000*%
%ADD12C,1.700000*%
G04 APERTURE END LIST*
D10*
X88443275Y-62202816D02*
X88443275Y-62774244D01*
X89443275Y-62488530D02*
X88443275Y-62488530D01*
X88776608Y-63536149D02*
X89443275Y-63536149D01*
X88395656Y-63298054D02*
X89109941Y-63059959D01*
X89109941Y-63059959D02*
X89109941Y-63679006D01*
X89443275Y-64583768D02*
X89443275Y-64012340D01*
X89443275Y-64298054D02*
X88443275Y-64298054D01*
X88443275Y-64298054D02*
X88586132Y-64202816D01*
X88586132Y-64202816D02*
X88681370Y-64107578D01*
X88681370Y-64107578D02*
X88728989Y-64012340D01*
X89157560Y-65726626D02*
X89157560Y-66202816D01*
X89443275Y-65631388D02*
X88443275Y-65964721D01*
X88443275Y-65964721D02*
X89443275Y-66298054D01*
X88776608Y-66488531D02*
X88776608Y-66869483D01*
X88443275Y-66631388D02*
X89300417Y-66631388D01*
X89300417Y-66631388D02*
X89395656Y-66679007D01*
X89395656Y-66679007D02*
X89443275Y-66774245D01*
X89443275Y-66774245D02*
X89443275Y-66869483D01*
X88776608Y-67059960D02*
X88776608Y-67440912D01*
X88443275Y-67202817D02*
X89300417Y-67202817D01*
X89300417Y-67202817D02*
X89395656Y-67250436D01*
X89395656Y-67250436D02*
X89443275Y-67345674D01*
X89443275Y-67345674D02*
X89443275Y-67440912D01*
X89348036Y-67774246D02*
X89395656Y-67821865D01*
X89395656Y-67821865D02*
X89443275Y-67774246D01*
X89443275Y-67774246D02*
X89395656Y-67726627D01*
X89395656Y-67726627D02*
X89348036Y-67774246D01*
X89348036Y-67774246D02*
X89443275Y-67774246D01*
X88919465Y-69345674D02*
X88967084Y-69488531D01*
X88967084Y-69488531D02*
X89014703Y-69536150D01*
X89014703Y-69536150D02*
X89109941Y-69583769D01*
X89109941Y-69583769D02*
X89252798Y-69583769D01*
X89252798Y-69583769D02*
X89348036Y-69536150D01*
X89348036Y-69536150D02*
X89395656Y-69488531D01*
X89395656Y-69488531D02*
X89443275Y-69393293D01*
X89443275Y-69393293D02*
X89443275Y-69012341D01*
X89443275Y-69012341D02*
X88443275Y-69012341D01*
X88443275Y-69012341D02*
X88443275Y-69345674D01*
X88443275Y-69345674D02*
X88490894Y-69440912D01*
X88490894Y-69440912D02*
X88538513Y-69488531D01*
X88538513Y-69488531D02*
X88633751Y-69536150D01*
X88633751Y-69536150D02*
X88728989Y-69536150D01*
X88728989Y-69536150D02*
X88824227Y-69488531D01*
X88824227Y-69488531D02*
X88871846Y-69440912D01*
X88871846Y-69440912D02*
X88919465Y-69345674D01*
X88919465Y-69345674D02*
X88919465Y-69012341D01*
X89443275Y-70012341D02*
X88776608Y-70012341D01*
X88967084Y-70012341D02*
X88871846Y-70059960D01*
X88871846Y-70059960D02*
X88824227Y-70107579D01*
X88824227Y-70107579D02*
X88776608Y-70202817D01*
X88776608Y-70202817D02*
X88776608Y-70298055D01*
X89443275Y-71059960D02*
X88443275Y-71059960D01*
X89395656Y-71059960D02*
X89443275Y-70964722D01*
X89443275Y-70964722D02*
X89443275Y-70774246D01*
X89443275Y-70774246D02*
X89395656Y-70679008D01*
X89395656Y-70679008D02*
X89348036Y-70631389D01*
X89348036Y-70631389D02*
X89252798Y-70583770D01*
X89252798Y-70583770D02*
X88967084Y-70583770D01*
X88967084Y-70583770D02*
X88871846Y-70631389D01*
X88871846Y-70631389D02*
X88824227Y-70679008D01*
X88824227Y-70679008D02*
X88776608Y-70774246D01*
X88776608Y-70774246D02*
X88776608Y-70964722D01*
X88776608Y-70964722D02*
X88824227Y-71059960D01*
X90053219Y-62202816D02*
X91053219Y-62536149D01*
X91053219Y-62536149D02*
X90053219Y-62869482D01*
X91053219Y-63726625D02*
X91053219Y-63155197D01*
X91053219Y-63440911D02*
X90053219Y-63440911D01*
X90053219Y-63440911D02*
X90196076Y-63345673D01*
X90196076Y-63345673D02*
X90291314Y-63250435D01*
X90291314Y-63250435D02*
X90338933Y-63155197D01*
X90148457Y-64869483D02*
X90100838Y-64917102D01*
X90100838Y-64917102D02*
X90053219Y-65012340D01*
X90053219Y-65012340D02*
X90053219Y-65250435D01*
X90053219Y-65250435D02*
X90100838Y-65345673D01*
X90100838Y-65345673D02*
X90148457Y-65393292D01*
X90148457Y-65393292D02*
X90243695Y-65440911D01*
X90243695Y-65440911D02*
X90338933Y-65440911D01*
X90338933Y-65440911D02*
X90481790Y-65393292D01*
X90481790Y-65393292D02*
X91053219Y-64821864D01*
X91053219Y-64821864D02*
X91053219Y-65440911D01*
X90053219Y-65774245D02*
X90053219Y-66440911D01*
X90053219Y-66440911D02*
X91053219Y-66012340D01*
X91053219Y-66821864D02*
X90053219Y-66821864D01*
X90053219Y-66821864D02*
X90053219Y-67059959D01*
X90053219Y-67059959D02*
X90100838Y-67202816D01*
X90100838Y-67202816D02*
X90196076Y-67298054D01*
X90196076Y-67298054D02*
X90291314Y-67345673D01*
X90291314Y-67345673D02*
X90481790Y-67393292D01*
X90481790Y-67393292D02*
X90624647Y-67393292D01*
X90624647Y-67393292D02*
X90815123Y-67345673D01*
X90815123Y-67345673D02*
X90910361Y-67298054D01*
X90910361Y-67298054D02*
X91005600Y-67202816D01*
X91005600Y-67202816D02*
X91053219Y-67059959D01*
X91053219Y-67059959D02*
X91053219Y-66821864D01*
X90529409Y-67821864D02*
X90529409Y-68155197D01*
X91053219Y-68298054D02*
X91053219Y-67821864D01*
X91053219Y-67821864D02*
X90053219Y-67821864D01*
X90053219Y-67821864D02*
X90053219Y-68298054D01*
X90957980Y-69298054D02*
X91005600Y-69250435D01*
X91005600Y-69250435D02*
X91053219Y-69107578D01*
X91053219Y-69107578D02*
X91053219Y-69012340D01*
X91053219Y-69012340D02*
X91005600Y-68869483D01*
X91005600Y-68869483D02*
X90910361Y-68774245D01*
X90910361Y-68774245D02*
X90815123Y-68726626D01*
X90815123Y-68726626D02*
X90624647Y-68679007D01*
X90624647Y-68679007D02*
X90481790Y-68679007D01*
X90481790Y-68679007D02*
X90291314Y-68726626D01*
X90291314Y-68726626D02*
X90196076Y-68774245D01*
X90196076Y-68774245D02*
X90100838Y-68869483D01*
X90100838Y-68869483D02*
X90053219Y-69012340D01*
X90053219Y-69012340D02*
X90053219Y-69107578D01*
X90053219Y-69107578D02*
X90100838Y-69250435D01*
X90100838Y-69250435D02*
X90148457Y-69298054D01*
X90148457Y-69679007D02*
X90100838Y-69726626D01*
X90100838Y-69726626D02*
X90053219Y-69821864D01*
X90053219Y-69821864D02*
X90053219Y-70059959D01*
X90053219Y-70059959D02*
X90100838Y-70155197D01*
X90100838Y-70155197D02*
X90148457Y-70202816D01*
X90148457Y-70202816D02*
X90243695Y-70250435D01*
X90243695Y-70250435D02*
X90338933Y-70250435D01*
X90338933Y-70250435D02*
X90481790Y-70202816D01*
X90481790Y-70202816D02*
X91053219Y-69631388D01*
X91053219Y-69631388D02*
X91053219Y-70250435D01*
X90053219Y-71155197D02*
X90053219Y-70679007D01*
X90053219Y-70679007D02*
X90529409Y-70631388D01*
X90529409Y-70631388D02*
X90481790Y-70679007D01*
X90481790Y-70679007D02*
X90434171Y-70774245D01*
X90434171Y-70774245D02*
X90434171Y-71012340D01*
X90434171Y-71012340D02*
X90481790Y-71107578D01*
X90481790Y-71107578D02*
X90529409Y-71155197D01*
X90529409Y-71155197D02*
X90624647Y-71202816D01*
X90624647Y-71202816D02*
X90862742Y-71202816D01*
X90862742Y-71202816D02*
X90957980Y-71155197D01*
X90957980Y-71155197D02*
X91005600Y-71107578D01*
X91005600Y-71107578D02*
X91053219Y-71012340D01*
X91053219Y-71012340D02*
X91053219Y-70774245D01*
X91053219Y-70774245D02*
X91005600Y-70679007D01*
X91005600Y-70679007D02*
X90957980Y-70631388D01*
X91260898Y-74035219D02*
X91594231Y-73559028D01*
X91832326Y-74035219D02*
X91832326Y-73035219D01*
X91832326Y-73035219D02*
X91451374Y-73035219D01*
X91451374Y-73035219D02*
X91356136Y-73082838D01*
X91356136Y-73082838D02*
X91308517Y-73130457D01*
X91308517Y-73130457D02*
X91260898Y-73225695D01*
X91260898Y-73225695D02*
X91260898Y-73368552D01*
X91260898Y-73368552D02*
X91308517Y-73463790D01*
X91308517Y-73463790D02*
X91356136Y-73511409D01*
X91356136Y-73511409D02*
X91451374Y-73559028D01*
X91451374Y-73559028D02*
X91832326Y-73559028D01*
X90498993Y-73511409D02*
X90832326Y-73511409D01*
X90832326Y-74035219D02*
X90832326Y-73035219D01*
X90832326Y-73035219D02*
X90356136Y-73035219D01*
X87498517Y-68256838D02*
X87593755Y-68209219D01*
X87593755Y-68209219D02*
X87736612Y-68209219D01*
X87736612Y-68209219D02*
X87879469Y-68256838D01*
X87879469Y-68256838D02*
X87974707Y-68352076D01*
X87974707Y-68352076D02*
X88022326Y-68447314D01*
X88022326Y-68447314D02*
X88069945Y-68637790D01*
X88069945Y-68637790D02*
X88069945Y-68780647D01*
X88069945Y-68780647D02*
X88022326Y-68971123D01*
X88022326Y-68971123D02*
X87974707Y-69066361D01*
X87974707Y-69066361D02*
X87879469Y-69161600D01*
X87879469Y-69161600D02*
X87736612Y-69209219D01*
X87736612Y-69209219D02*
X87641374Y-69209219D01*
X87641374Y-69209219D02*
X87498517Y-69161600D01*
X87498517Y-69161600D02*
X87450898Y-69113980D01*
X87450898Y-69113980D02*
X87450898Y-68780647D01*
X87450898Y-68780647D02*
X87641374Y-68780647D01*
X87022326Y-69209219D02*
X87022326Y-68209219D01*
X87022326Y-68209219D02*
X86450898Y-69209219D01*
X86450898Y-69209219D02*
X86450898Y-68209219D01*
X85974707Y-69209219D02*
X85974707Y-68209219D01*
X85974707Y-68209219D02*
X85736612Y-68209219D01*
X85736612Y-68209219D02*
X85593755Y-68256838D01*
X85593755Y-68256838D02*
X85498517Y-68352076D01*
X85498517Y-68352076D02*
X85450898Y-68447314D01*
X85450898Y-68447314D02*
X85403279Y-68637790D01*
X85403279Y-68637790D02*
X85403279Y-68780647D01*
X85403279Y-68780647D02*
X85450898Y-68971123D01*
X85450898Y-68971123D02*
X85498517Y-69066361D01*
X85498517Y-69066361D02*
X85593755Y-69161600D01*
X85593755Y-69161600D02*
X85736612Y-69209219D01*
X85736612Y-69209219D02*
X85974707Y-69209219D01*
X91562517Y-75622838D02*
X91657755Y-75575219D01*
X91657755Y-75575219D02*
X91800612Y-75575219D01*
X91800612Y-75575219D02*
X91943469Y-75622838D01*
X91943469Y-75622838D02*
X92038707Y-75718076D01*
X92038707Y-75718076D02*
X92086326Y-75813314D01*
X92086326Y-75813314D02*
X92133945Y-76003790D01*
X92133945Y-76003790D02*
X92133945Y-76146647D01*
X92133945Y-76146647D02*
X92086326Y-76337123D01*
X92086326Y-76337123D02*
X92038707Y-76432361D01*
X92038707Y-76432361D02*
X91943469Y-76527600D01*
X91943469Y-76527600D02*
X91800612Y-76575219D01*
X91800612Y-76575219D02*
X91705374Y-76575219D01*
X91705374Y-76575219D02*
X91562517Y-76527600D01*
X91562517Y-76527600D02*
X91514898Y-76479980D01*
X91514898Y-76479980D02*
X91514898Y-76146647D01*
X91514898Y-76146647D02*
X91705374Y-76146647D01*
X91086326Y-76575219D02*
X91086326Y-75575219D01*
X91086326Y-75575219D02*
X90514898Y-76575219D01*
X90514898Y-76575219D02*
X90514898Y-75575219D01*
X90038707Y-76575219D02*
X90038707Y-75575219D01*
X90038707Y-75575219D02*
X89800612Y-75575219D01*
X89800612Y-75575219D02*
X89657755Y-75622838D01*
X89657755Y-75622838D02*
X89562517Y-75718076D01*
X89562517Y-75718076D02*
X89514898Y-75813314D01*
X89514898Y-75813314D02*
X89467279Y-76003790D01*
X89467279Y-76003790D02*
X89467279Y-76146647D01*
X89467279Y-76146647D02*
X89514898Y-76337123D01*
X89514898Y-76337123D02*
X89562517Y-76432361D01*
X89562517Y-76432361D02*
X89657755Y-76527600D01*
X89657755Y-76527600D02*
X89800612Y-76575219D01*
X89800612Y-76575219D02*
X90038707Y-76575219D01*
X91657755Y-68288552D02*
X91657755Y-68955219D01*
X91895850Y-67907600D02*
X92133945Y-68621885D01*
X92133945Y-68621885D02*
X91514898Y-68621885D01*
X92133945Y-65510457D02*
X92086326Y-65462838D01*
X92086326Y-65462838D02*
X91991088Y-65415219D01*
X91991088Y-65415219D02*
X91752993Y-65415219D01*
X91752993Y-65415219D02*
X91657755Y-65462838D01*
X91657755Y-65462838D02*
X91610136Y-65510457D01*
X91610136Y-65510457D02*
X91562517Y-65605695D01*
X91562517Y-65605695D02*
X91562517Y-65700933D01*
X91562517Y-65700933D02*
X91610136Y-65843790D01*
X91610136Y-65843790D02*
X92181564Y-66415219D01*
X92181564Y-66415219D02*
X91562517Y-66415219D01*
X87863564Y-70749219D02*
X87244517Y-70749219D01*
X87244517Y-70749219D02*
X87577850Y-71130171D01*
X87577850Y-71130171D02*
X87434993Y-71130171D01*
X87434993Y-71130171D02*
X87339755Y-71177790D01*
X87339755Y-71177790D02*
X87292136Y-71225409D01*
X87292136Y-71225409D02*
X87244517Y-71320647D01*
X87244517Y-71320647D02*
X87244517Y-71558742D01*
X87244517Y-71558742D02*
X87292136Y-71653980D01*
X87292136Y-71653980D02*
X87339755Y-71701600D01*
X87339755Y-71701600D02*
X87434993Y-71749219D01*
X87434993Y-71749219D02*
X87720707Y-71749219D01*
X87720707Y-71749219D02*
X87815945Y-71701600D01*
X87815945Y-71701600D02*
X87863564Y-71653980D01*
X86958802Y-70749219D02*
X86625469Y-71749219D01*
X86625469Y-71749219D02*
X86292136Y-70749219D01*
X86054040Y-70749219D02*
X85434993Y-70749219D01*
X85434993Y-70749219D02*
X85768326Y-71130171D01*
X85768326Y-71130171D02*
X85625469Y-71130171D01*
X85625469Y-71130171D02*
X85530231Y-71177790D01*
X85530231Y-71177790D02*
X85482612Y-71225409D01*
X85482612Y-71225409D02*
X85434993Y-71320647D01*
X85434993Y-71320647D02*
X85434993Y-71558742D01*
X85434993Y-71558742D02*
X85482612Y-71653980D01*
X85482612Y-71653980D02*
X85530231Y-71701600D01*
X85530231Y-71701600D02*
X85625469Y-71749219D01*
X85625469Y-71749219D02*
X85911183Y-71749219D01*
X85911183Y-71749219D02*
X86006421Y-71701600D01*
X86006421Y-71701600D02*
X86054040Y-71653980D01*
X91943469Y-70923790D02*
X92038707Y-70876171D01*
X92038707Y-70876171D02*
X92086326Y-70828552D01*
X92086326Y-70828552D02*
X92133945Y-70733314D01*
X92133945Y-70733314D02*
X92133945Y-70685695D01*
X92133945Y-70685695D02*
X92086326Y-70590457D01*
X92086326Y-70590457D02*
X92038707Y-70542838D01*
X92038707Y-70542838D02*
X91943469Y-70495219D01*
X91943469Y-70495219D02*
X91752993Y-70495219D01*
X91752993Y-70495219D02*
X91657755Y-70542838D01*
X91657755Y-70542838D02*
X91610136Y-70590457D01*
X91610136Y-70590457D02*
X91562517Y-70685695D01*
X91562517Y-70685695D02*
X91562517Y-70733314D01*
X91562517Y-70733314D02*
X91610136Y-70828552D01*
X91610136Y-70828552D02*
X91657755Y-70876171D01*
X91657755Y-70876171D02*
X91752993Y-70923790D01*
X91752993Y-70923790D02*
X91943469Y-70923790D01*
X91943469Y-70923790D02*
X92038707Y-70971409D01*
X92038707Y-70971409D02*
X92086326Y-71019028D01*
X92086326Y-71019028D02*
X92133945Y-71114266D01*
X92133945Y-71114266D02*
X92133945Y-71304742D01*
X92133945Y-71304742D02*
X92086326Y-71399980D01*
X92086326Y-71399980D02*
X92038707Y-71447600D01*
X92038707Y-71447600D02*
X91943469Y-71495219D01*
X91943469Y-71495219D02*
X91752993Y-71495219D01*
X91752993Y-71495219D02*
X91657755Y-71447600D01*
X91657755Y-71447600D02*
X91610136Y-71399980D01*
X91610136Y-71399980D02*
X91562517Y-71304742D01*
X91562517Y-71304742D02*
X91562517Y-71114266D01*
X91562517Y-71114266D02*
X91610136Y-71019028D01*
X91610136Y-71019028D02*
X91657755Y-70971409D01*
X91657755Y-70971409D02*
X91752993Y-70923790D01*
X86180898Y-66669219D02*
X86514231Y-66193028D01*
X86752326Y-66669219D02*
X86752326Y-65669219D01*
X86752326Y-65669219D02*
X86371374Y-65669219D01*
X86371374Y-65669219D02*
X86276136Y-65716838D01*
X86276136Y-65716838D02*
X86228517Y-65764457D01*
X86228517Y-65764457D02*
X86180898Y-65859695D01*
X86180898Y-65859695D02*
X86180898Y-66002552D01*
X86180898Y-66002552D02*
X86228517Y-66097790D01*
X86228517Y-66097790D02*
X86276136Y-66145409D01*
X86276136Y-66145409D02*
X86371374Y-66193028D01*
X86371374Y-66193028D02*
X86752326Y-66193028D01*
X85418993Y-66145409D02*
X85752326Y-66145409D01*
X85752326Y-66669219D02*
X85752326Y-65669219D01*
X85752326Y-65669219D02*
X85276136Y-65669219D01*
X86482517Y-76829219D02*
X87053945Y-76829219D01*
X86768231Y-76829219D02*
X86768231Y-75829219D01*
X86768231Y-75829219D02*
X86863469Y-75972076D01*
X86863469Y-75972076D02*
X86958707Y-76067314D01*
X86958707Y-76067314D02*
X87053945Y-76114933D01*
X85625374Y-75829219D02*
X85815850Y-75829219D01*
X85815850Y-75829219D02*
X85911088Y-75876838D01*
X85911088Y-75876838D02*
X85958707Y-75924457D01*
X85958707Y-75924457D02*
X86053945Y-76067314D01*
X86053945Y-76067314D02*
X86101564Y-76257790D01*
X86101564Y-76257790D02*
X86101564Y-76638742D01*
X86101564Y-76638742D02*
X86053945Y-76733980D01*
X86053945Y-76733980D02*
X86006326Y-76781600D01*
X86006326Y-76781600D02*
X85911088Y-76829219D01*
X85911088Y-76829219D02*
X85720612Y-76829219D01*
X85720612Y-76829219D02*
X85625374Y-76781600D01*
X85625374Y-76781600D02*
X85577755Y-76733980D01*
X85577755Y-76733980D02*
X85530136Y-76638742D01*
X85530136Y-76638742D02*
X85530136Y-76400647D01*
X85530136Y-76400647D02*
X85577755Y-76305409D01*
X85577755Y-76305409D02*
X85625374Y-76257790D01*
X85625374Y-76257790D02*
X85720612Y-76210171D01*
X85720612Y-76210171D02*
X85911088Y-76210171D01*
X85911088Y-76210171D02*
X86006326Y-76257790D01*
X86006326Y-76257790D02*
X86053945Y-76305409D01*
X86053945Y-76305409D02*
X86101564Y-76400647D01*
X87069850Y-63129219D02*
X86974612Y-63129219D01*
X86974612Y-63129219D02*
X86879374Y-63176838D01*
X86879374Y-63176838D02*
X86831755Y-63224457D01*
X86831755Y-63224457D02*
X86784136Y-63319695D01*
X86784136Y-63319695D02*
X86736517Y-63510171D01*
X86736517Y-63510171D02*
X86736517Y-63748266D01*
X86736517Y-63748266D02*
X86784136Y-63938742D01*
X86784136Y-63938742D02*
X86831755Y-64033980D01*
X86831755Y-64033980D02*
X86879374Y-64081600D01*
X86879374Y-64081600D02*
X86974612Y-64129219D01*
X86974612Y-64129219D02*
X87069850Y-64129219D01*
X87069850Y-64129219D02*
X87165088Y-64081600D01*
X87165088Y-64081600D02*
X87212707Y-64033980D01*
X87212707Y-64033980D02*
X87260326Y-63938742D01*
X87260326Y-63938742D02*
X87307945Y-63748266D01*
X87307945Y-63748266D02*
X87307945Y-63510171D01*
X87307945Y-63510171D02*
X87260326Y-63319695D01*
X87260326Y-63319695D02*
X87212707Y-63224457D01*
X87212707Y-63224457D02*
X87165088Y-63176838D01*
X87165088Y-63176838D02*
X87069850Y-63129219D01*
X86307945Y-64033980D02*
X86260326Y-64081600D01*
X86260326Y-64081600D02*
X86307945Y-64129219D01*
X86307945Y-64129219D02*
X86355564Y-64081600D01*
X86355564Y-64081600D02*
X86307945Y-64033980D01*
X86307945Y-64033980D02*
X86307945Y-64129219D01*
X85355565Y-63129219D02*
X85831755Y-63129219D01*
X85831755Y-63129219D02*
X85879374Y-63605409D01*
X85879374Y-63605409D02*
X85831755Y-63557790D01*
X85831755Y-63557790D02*
X85736517Y-63510171D01*
X85736517Y-63510171D02*
X85498422Y-63510171D01*
X85498422Y-63510171D02*
X85403184Y-63557790D01*
X85403184Y-63557790D02*
X85355565Y-63605409D01*
X85355565Y-63605409D02*
X85307946Y-63700647D01*
X85307946Y-63700647D02*
X85307946Y-63938742D01*
X85307946Y-63938742D02*
X85355565Y-64033980D01*
X85355565Y-64033980D02*
X85403184Y-64081600D01*
X85403184Y-64081600D02*
X85498422Y-64129219D01*
X85498422Y-64129219D02*
X85736517Y-64129219D01*
X85736517Y-64129219D02*
X85831755Y-64081600D01*
X85831755Y-64081600D02*
X85879374Y-64033980D01*
X91562517Y-63875219D02*
X92133945Y-63875219D01*
X91848231Y-63875219D02*
X91848231Y-62875219D01*
X91848231Y-62875219D02*
X91943469Y-63018076D01*
X91943469Y-63018076D02*
X92038707Y-63113314D01*
X92038707Y-63113314D02*
X92133945Y-63160933D01*
X87498517Y-73082838D02*
X87593755Y-73035219D01*
X87593755Y-73035219D02*
X87736612Y-73035219D01*
X87736612Y-73035219D02*
X87879469Y-73082838D01*
X87879469Y-73082838D02*
X87974707Y-73178076D01*
X87974707Y-73178076D02*
X88022326Y-73273314D01*
X88022326Y-73273314D02*
X88069945Y-73463790D01*
X88069945Y-73463790D02*
X88069945Y-73606647D01*
X88069945Y-73606647D02*
X88022326Y-73797123D01*
X88022326Y-73797123D02*
X87974707Y-73892361D01*
X87974707Y-73892361D02*
X87879469Y-73987600D01*
X87879469Y-73987600D02*
X87736612Y-74035219D01*
X87736612Y-74035219D02*
X87641374Y-74035219D01*
X87641374Y-74035219D02*
X87498517Y-73987600D01*
X87498517Y-73987600D02*
X87450898Y-73939980D01*
X87450898Y-73939980D02*
X87450898Y-73606647D01*
X87450898Y-73606647D02*
X87641374Y-73606647D01*
X87022326Y-74035219D02*
X87022326Y-73035219D01*
X87022326Y-73035219D02*
X86450898Y-74035219D01*
X86450898Y-74035219D02*
X86450898Y-73035219D01*
X85974707Y-74035219D02*
X85974707Y-73035219D01*
X85974707Y-73035219D02*
X85736612Y-73035219D01*
X85736612Y-73035219D02*
X85593755Y-73082838D01*
X85593755Y-73082838D02*
X85498517Y-73178076D01*
X85498517Y-73178076D02*
X85450898Y-73273314D01*
X85450898Y-73273314D02*
X85403279Y-73463790D01*
X85403279Y-73463790D02*
X85403279Y-73606647D01*
X85403279Y-73606647D02*
X85450898Y-73797123D01*
X85450898Y-73797123D02*
X85498517Y-73892361D01*
X85498517Y-73892361D02*
X85593755Y-73987600D01*
X85593755Y-73987600D02*
X85736612Y-74035219D01*
X85736612Y-74035219D02*
X85974707Y-74035219D01*
%LPC*%
D11*
%TO.C,J1*%
X83820000Y-63500000D03*
D12*
X83820000Y-66040000D03*
X83820000Y-68580000D03*
X83820000Y-71120000D03*
X83820000Y-73660000D03*
X83820000Y-76200000D03*
%TD*%
D11*
%TO.C,J2*%
X93980000Y-63500000D03*
D12*
X93980000Y-66040000D03*
X93980000Y-68579999D03*
X93980000Y-71120000D03*
X93980000Y-73660000D03*
X93980000Y-76200000D03*
%TD*%
%LPD*%
M02*
