G04 DipTrace 3.3.1.1*
G04 BottomMask.gbr*
%MOIN*%
G04 #@! TF.FileFunction,Soldermask,Bot*
G04 #@! TF.Part,Single*
%AMOUTLINE1*
4,1,8,
-0.023685,-0.031184,
-0.011499,-0.04337,
0.011499,-0.04337,
0.023685,-0.031184,
0.023685,0.031184,
0.011499,0.04337,
-0.011499,0.04337,
-0.023685,0.031184,
-0.023685,-0.031184,
0*%
%AMOUTLINE4*
4,1,8,
-0.031184,0.023685,
-0.04337,0.011499,
-0.04337,-0.011499,
-0.031184,-0.023685,
0.031184,-0.023685,
0.04337,-0.011499,
0.04337,0.011499,
0.031184,0.023685,
-0.031184,0.023685,
0*%
%AMOUTLINE7*
4,1,8,
0.031184,-0.023685,
0.04337,-0.011499,
0.04337,0.011499,
0.031184,0.023685,
-0.031184,0.023685,
-0.04337,0.011499,
-0.04337,-0.011499,
-0.031184,-0.023685,
0.031184,-0.023685,
0*%
%ADD37R,0.059055X0.059055*%
%ADD45C,0.15748*%
%ADD46C,0.19685*%
%ADD52C,0.067055*%
%ADD54C,0.08674*%
%ADD56C,0.082803*%
%ADD58O,0.08674X0.04737*%
%ADD60O,0.04737X0.08674*%
%ADD64C,0.106425*%
%ADD68C,0.12611*%
%ADD74C,0.074929*%
%ADD76C,0.088*%
%ADD78C,0.08674*%
%ADD80C,0.128*%
%ADD94OUTLINE1*%
%ADD97OUTLINE4*%
%ADD100OUTLINE7*%
%FSLAX26Y26*%
G04*
G70*
G90*
G75*
G01*
G04 BotMask*
%LPD*%
D45*
X3896723Y2713566D3*
Y633490D3*
X1352727Y1730448D3*
X2097967Y1731396D3*
D46*
X571165Y565052D3*
X4156257Y565123D3*
X4174606Y4172951D3*
X549282Y4173214D3*
D80*
X689234Y3878016D3*
Y3678016D3*
X489234D3*
Y3878016D3*
X589234Y3778016D3*
D78*
X1049836Y4220201D3*
X949836D3*
X849836D3*
D80*
X4228361Y3176285D3*
Y2976285D3*
X4028361D3*
Y3176285D3*
X4128361Y3076285D3*
D78*
X4233227Y973825D3*
D52*
X4244000Y3781008D3*
D76*
X1467971Y4115406D3*
X1667971D3*
D74*
X1795345Y3811322D3*
X1913455D3*
D68*
X3234341Y2013869D3*
D74*
X1893753Y1480370D3*
D68*
X3234341Y1383948D3*
X4234042Y2197975D3*
X4233283Y1187226D3*
D74*
X2883307Y4254942D3*
X2405189Y3950476D3*
X2883307Y4097462D3*
X2405189Y3792996D3*
X1893753Y1913441D3*
X1539423Y1480370D3*
Y1913441D3*
X1899297Y1697829D3*
X2562669Y3950476D3*
Y3792996D3*
D68*
X4233661Y2799563D3*
D64*
X805335Y1422404D3*
D74*
X2720150Y3950476D3*
Y3792996D3*
X2886622Y3953151D3*
Y3795671D3*
X1006151Y2068614D3*
Y2501685D3*
X651820Y2068614D3*
Y2501685D3*
X1011694Y2286073D3*
D64*
X2517140Y1525354D3*
D74*
X2401874Y4252268D3*
Y4094787D3*
X2559354Y4252268D3*
Y4094787D3*
X2716835Y4252268D3*
Y4094787D3*
D64*
X2871471Y1525354D3*
X2517140Y1879685D3*
X2871471D3*
X1159665Y1422404D3*
X805335Y1776735D3*
X1159665D3*
D94*
X1228553Y3727857D3*
D60*
X1306234Y3728290D3*
X1385317D3*
D94*
X1092495Y3351338D3*
D60*
X1170176Y3351772D3*
X1249259D3*
D94*
X1177069Y2814439D3*
D60*
X1254750Y2814873D3*
X1333832D3*
D94*
X760490Y2878919D3*
D60*
X838171Y2879352D3*
X917253D3*
D97*
X3806429Y4061413D3*
D58*
Y4011413D3*
Y3961413D3*
D56*
X3049164Y3442850D3*
X3149164D3*
X3249164D3*
D100*
X3099784Y3991166D3*
D58*
X3099351Y4068847D3*
Y4147929D3*
D56*
X3836810Y3700038D3*
X3736810D3*
X3636810D3*
D54*
X833259Y3334261D3*
X733259D3*
X633259D3*
X2096996Y2785197D3*
X1996996D3*
X1896996D3*
X2113693Y638765D3*
X2013693D3*
X1913693D3*
X3512546Y2962436D3*
X3412546D3*
X3312546D3*
D37*
X2913690Y2526022D3*
Y2626022D3*
D54*
X3626304Y648332D3*
X3526304D3*
X3426304D3*
D37*
X2846501Y1228274D3*
Y1328274D3*
D56*
X1919201Y3531524D3*
X2019201D3*
X2119201D3*
X3371808Y4147533D3*
Y4047533D3*
Y3947533D3*
D52*
X3844000Y4231008D3*
X3944000D3*
X4244000Y3681008D3*
M02*
