G04 DipTrace 3.3.1.1*
G04 Bottom.gbr*
%MOIN*%
G04 #@! TF.FileFunction,Copper,L2,Bot*
G04 #@! TF.Part,Single*
%AMOUTLINE0*
4,1,8,
-0.029528,0.019685,
-0.03937,0.009843,
-0.03937,-0.009843,
-0.029528,-0.019685,
0.029528,-0.019685,
0.03937,-0.009843,
0.03937,0.009843,
0.029528,0.019685,
-0.029528,0.019685,
0*%
%AMOUTLINE3*
4,1,8,
0.019685,0.029528,
0.009843,0.03937,
-0.009843,0.03937,
-0.019685,0.029528,
-0.019685,-0.029528,
-0.009843,-0.03937,
0.009843,-0.03937,
0.019685,-0.029528,
0.019685,0.029528,
0*%
G04 #@! TA.AperFunction,Conductor*
%ADD14C,0.027559*%
G04 #@! TA.AperFunction,ComponentPad*
%ADD15C,0.059055*%
G04 #@! TA.AperFunction,Conductor*
%ADD16C,0.011811*%
G04 #@! TA.AperFunction,CopperBalancing*
%ADD17C,0.04*%
%ADD18C,0.012992*%
G04 #@! TA.AperFunction,ComponentPad*
%ADD22R,0.059055X0.059055*%
%ADD23C,0.059055*%
%ADD24O,0.07874X0.03937*%
%ADD26C,0.098425*%
%ADD27C,0.12*%
%ADD28C,0.065*%
%ADD29O,0.03937X0.07874*%
%ADD62OUTLINE0*%
%ADD65OUTLINE3*%
%FSLAX26Y26*%
G04*
G70*
G90*
G75*
G01*
G04 Bottom*
%LPD*%
X2805235Y984146D2*
D14*
X2705235D1*
X1505235D2*
X1605235D1*
X2805235D2*
X2875202Y914178D1*
X2906566D1*
X3079748D1*
Y1031702D1*
X3020984Y1090466D1*
X2105235Y984146D2*
X2205235D1*
X3405235D2*
X3305235D1*
X2105235D2*
X2055264Y1034117D1*
X1852684D1*
X1804887Y1081913D1*
X3956906Y1668815D2*
X3804693D1*
Y2192025D1*
X3631480Y2365238D1*
X3444539D1*
X3408495Y2329193D1*
Y2280886D1*
X3405235Y2284146D1*
X2105235D2*
Y2288955D1*
X2205235D1*
Y2284146D1*
X3804693Y2192025D2*
X3905235Y2292567D1*
Y2284146D1*
X3435392Y2599778D2*
X3121346D1*
Y2597210D1*
X2105235Y2284146D2*
X2014369Y2375012D1*
X1696101D1*
X1605235Y2284146D1*
X4005235Y984146D2*
X3905235D1*
X3305235Y2284146D2*
X3405235D1*
X2705235D2*
X2805235D1*
X2205235D2*
Y2310829D1*
X2256579Y2362173D1*
X2417429D1*
Y2369978D1*
X2432172D1*
X2644609D1*
X2700348Y2314239D1*
Y2289033D1*
X2705235Y2284146D1*
X3905235D2*
X4005235D1*
X1605235D2*
X1505819D1*
Y2284320D1*
X3405235Y2284146D2*
Y2325353D1*
X3360164Y2370424D1*
X2962248D1*
X2752375D1*
X2704150Y2322198D1*
Y2284146D1*
X2805235D1*
X3435392Y2599778D2*
X3441491D1*
X3956906Y1668815D2*
X4156906D1*
Y1468815D1*
X3956906Y1668815D2*
Y1468815D1*
X3435392Y2599778D2*
Y2601547D1*
X2240450Y2890957D2*
X2254155D1*
X2329916Y2815196D1*
Y2591974D1*
X2428925Y2492965D1*
X2550875D1*
Y2495748D1*
X2778406D1*
X2980528D1*
Y2520000D1*
X3044136D1*
X3121346Y2597210D1*
X2419766Y3204907D2*
Y3404907D1*
X2619766D1*
Y3204907D1*
X2428925Y2492965D2*
X2432172Y2489718D1*
Y2369978D1*
X3435392Y2599778D2*
X3692886D1*
X3826007Y2732899D1*
X3985138Y2892030D1*
X3988845D1*
X4188845Y3092030D2*
X3988845D1*
Y2892030D1*
X4188845Y3092030D2*
Y2892030D1*
X3988845D2*
X4188845D1*
X3905235Y984146D2*
X3907870D1*
X3804693Y1087323D1*
Y1668815D1*
X3079748Y914178D2*
X3232024D1*
X3305235Y987390D1*
Y984146D1*
X3405235D2*
X3411289D1*
Y960121D1*
X3485059Y886350D1*
X3803480D1*
X3905235Y988105D1*
Y984146D1*
X1505235Y990276D2*
Y984146D1*
X1605235D2*
X1689117Y900264D1*
X1736018D1*
X2009787D1*
X2105235D1*
Y984146D1*
Y900264D2*
X2201583D1*
X2325992D1*
X2480820D1*
X2609591D1*
X2629324Y919997D1*
Y915816D1*
X2697654Y984146D1*
X2705235D1*
X2398142Y1090466D2*
X2480820Y1007787D1*
Y900264D1*
X4049252Y2032387D2*
X4059538D1*
X4156906Y1935020D1*
Y1668815D1*
X1968819Y3307402D2*
Y3299458D1*
X2078986Y3189291D1*
X2289259D1*
X2318644Y3204907D1*
X2419766D1*
X4089256Y2619740D2*
X3921176D1*
X3826007Y2714909D1*
Y2732899D1*
X2694209Y841054D2*
X2504448D1*
X2506568Y838933D1*
X2440033D1*
X2283945D1*
X2263602Y818591D1*
Y752854D1*
X651496Y2111873D2*
X670883D1*
X726497Y2167487D1*
Y2265441D1*
X680066Y2311873D1*
X651496D1*
Y2111873D2*
X551496D1*
Y2311873D2*
X651496D1*
X551496Y2511873D2*
X651496D1*
X560846Y896051D2*
Y911560D1*
X457470Y1014937D1*
Y1618146D1*
D15*
X472756D1*
Y1681982D1*
Y1908189D1*
D14*
X463743D1*
Y2111873D1*
Y2270140D1*
X469211Y2275609D1*
Y2511873D1*
X551496D1*
X651496Y2111873D2*
X917479D1*
Y2115190D1*
X1522227Y839043D2*
X1538709D1*
X1635867D1*
Y752854D1*
X1636432D1*
X1635867Y839043D2*
X1788496D1*
X1786486Y841054D1*
X2143627D1*
X2205039D1*
X2263602D1*
Y752854D1*
X2801139Y761856D2*
Y752854D1*
Y810699D1*
X2831049Y840609D1*
X3209556D1*
X3383493Y752854D2*
X3297311D1*
X3209556Y840609D1*
X2694209Y841054D2*
X2756239D1*
X2810143D1*
Y819703D1*
X2801139Y810699D1*
X551496Y2111873D2*
X463743D1*
X1131832Y2572448D2*
Y2155454D1*
X1091568Y2115190D1*
X917479D1*
X1142047Y3071181D2*
X1131832Y2572448D1*
X1968819Y3307402D2*
D15*
X1378268D1*
D14*
X1254793Y3183927D1*
X1142047Y3071181D1*
X1538709Y839043D2*
X1393606Y984146D1*
X1131474Y1246278D1*
Y1539816D1*
X472756D1*
Y1618146D1*
X1505235Y984146D2*
X1393606D1*
X560846Y896051D2*
X512126D1*
Y839043D1*
X1522227D1*
X1130811Y2046379D2*
X1131832Y2155454D1*
X1254512Y3184207D2*
X1254793Y3183927D1*
X2553659Y2494302D2*
Y2495748D1*
X2980528Y2528617D2*
Y2520000D1*
X2778406Y2491520D2*
Y2495748D1*
X2032331Y2391573D2*
Y2375012D1*
X2014369D1*
X2962248Y2430819D2*
Y2370424D1*
X1736018Y902606D2*
Y900264D1*
X2009787Y897608D2*
Y900264D1*
X2205039Y826764D2*
Y841054D1*
X2325992Y897608D2*
Y900264D1*
X2201583Y897608D2*
Y900264D1*
X2440033Y826764D2*
Y838933D1*
X2605911Y902791D2*
X2629324Y919997D1*
X2906566Y911430D2*
Y914178D1*
X2756239Y835403D2*
Y841054D1*
X3089722Y909703D2*
Y914178D1*
X3079748D1*
X589007Y1681982D2*
D16*
X472756D1*
X2405235Y984146D2*
X2305235D1*
Y1213850D1*
X2350669Y1259285D1*
Y2054782D1*
X2397829Y2101942D1*
X2905235Y984146D2*
Y2009348D1*
X2997829Y2101942D1*
X3505235Y984146D2*
Y2009348D1*
X3597829Y2101942D1*
X4205235Y2284146D2*
X4105235D1*
X1705235Y984146D2*
X1708214D1*
X1685714Y1006646D1*
Y1215759D1*
X1734816D1*
Y2038929D1*
X1797829Y2101942D1*
X2519766Y3304907D2*
D14*
Y3142815D1*
X2582088Y3080493D1*
X2589428D1*
X2716850Y2953071D1*
Y2677480D1*
X2633665Y2594295D1*
X2640450Y2587510D1*
Y2590957D1*
X1066867Y2673642D2*
D16*
X1068932D1*
Y2288692D1*
X1064568Y1484619D2*
Y1155386D1*
X805234Y896051D1*
X660846D1*
D17*
X3020984Y1090466D3*
X1804887Y1081913D3*
X2398142Y1090466D3*
X2694209Y841054D3*
X1522227Y839043D3*
X2143627Y841054D3*
X3209556Y840609D3*
X2694209Y841054D3*
X1131832Y2572448D3*
D3*
X1522227Y839043D3*
X1066867Y2673642D3*
X1068932Y2288692D3*
X1064568Y1484619D3*
X1130811Y2046379D3*
X1119824Y1732598D3*
X839676Y2724894D3*
X987831D3*
Y2950831D3*
X1061909Y2936046D3*
X1254512Y3184207D3*
X1349497Y2988972D3*
X1691572Y3091609D3*
X1695276Y3452789D3*
X1691572Y3280508D3*
X2869411Y3239765D3*
Y3432367D3*
Y3321251D3*
X3154612Y3328659D3*
X3428699Y3321251D3*
X3706492Y3317547D3*
X3869463Y3136056D3*
X3954652Y3217542D3*
X4099105Y3221245D3*
X4250965D3*
X4236150Y3450887D3*
X2139495Y2974316D3*
X2334423Y2973325D3*
X2545692Y2974316D3*
X2543469Y2813818D3*
X2373089Y2676773D3*
X2128631Y2624919D3*
X2291604Y2524913D3*
X2553659Y2494302D3*
X1266944Y2395383D3*
X2793551Y2901409D3*
X2884227Y3013828D3*
X2987016Y3072110D3*
X3221261Y3081379D3*
X3353701Y3073971D3*
X3551888Y3077694D3*
X3654638Y3080497D3*
X3754643Y2969381D3*
X3847240Y2873080D3*
X3947245Y2776778D3*
X4025028Y2684181D3*
X4251638Y2795971D3*
X4226812Y2526199D3*
X4035190Y2526841D3*
X3847424Y2523138D3*
X3653841Y2524913D3*
X3273135D3*
X2980528Y2528617D3*
X2778406Y2491520D3*
X1371159Y2553765D3*
X1299243Y2518657D3*
X1884175Y2510097D3*
X2017514D3*
X1988526Y2974370D3*
X2013811Y2802706D3*
X2017514Y2665661D3*
X1846151Y2697047D3*
X1350812Y2269681D3*
X1467990Y2418846D3*
X1347109Y2150820D3*
X1343406Y1921178D3*
Y1717463D3*
X1436003Y1580420D3*
X1753014Y2339240D3*
X1821209Y2395277D3*
X2032331Y2391573D3*
X2338000Y2424404D3*
X2487909Y2422827D3*
X2663739Y2414037D3*
X2962248Y2430819D3*
X3191650Y2425244D3*
X3534427Y2447230D3*
X3654638Y2391573D3*
X3858352D3*
X4110190Y2446010D3*
X4232445Y2391573D3*
X4239853Y2169339D3*
X4225037Y1958217D3*
X4232445Y1791542D3*
X4221333Y1317442D3*
X4247261Y1095209D3*
X4232445Y869272D3*
X4239853Y680373D3*
X4025028Y480362D3*
X3743530Y487770D3*
X3480554Y491474D3*
X3143500Y472954D3*
X3201091Y558264D3*
X3510185Y598887D3*
X3619631Y781154D3*
X3755387Y941117D3*
X3748971Y1141383D3*
X487804Y1404786D3*
X509386Y1482154D3*
X662164D3*
X955793D3*
X1176730Y1543381D3*
X1333304Y1396572D3*
X1328589Y1232253D3*
X1398963Y1087801D3*
X1410382Y895841D3*
X1736018Y902606D3*
X838050Y504249D3*
X1290268Y785570D3*
X1310071Y983419D3*
X1190198Y1117433D3*
X1014202Y1292318D3*
X910050Y1395224D3*
X1009286Y1401659D3*
X709549Y1053558D3*
X791525Y989949D3*
X873551Y811088D3*
X943385Y717412D3*
X903849Y608861D3*
X986472Y570056D3*
X948374Y477301D3*
X724854Y476657D3*
X711354Y657353D3*
X480398Y661853D3*
X1783373Y618857D3*
X1897474Y628056D3*
X1904386Y776655D3*
X1831814Y812941D3*
X1940672Y949445D3*
X1962978Y1083749D3*
X2040576Y1130559D3*
X2084715Y1065685D3*
X2009787Y897608D3*
X1837568Y701513D3*
X2217188Y597436D3*
X2205039Y826764D3*
X2325992Y897608D3*
X2201583D3*
X2049529Y564123D3*
X2177051Y548765D3*
X2384740Y584858D3*
X2446945Y648790D3*
X2440033Y826764D3*
X2526428Y942219D3*
X2548891Y1041022D3*
X2593816Y1080764D3*
X2605911Y902791D3*
X2756239Y899336D3*
X2906566Y911430D3*
X2756239Y835403D3*
X2780577Y592591D3*
X2691142Y549160D3*
X2468980Y587622D3*
X2603877Y546409D3*
X2778701Y520927D3*
X2975657Y533593D3*
X2969348Y603445D3*
X2967042Y679892D3*
X2984320Y797390D3*
X3089722Y909703D3*
X3186484Y1001281D3*
X3164106Y1128631D3*
X3278063Y1058942D3*
X3290157Y894152D3*
X3414567Y895879D3*
X3557982Y935936D3*
X3357546Y605593D3*
X3306209Y518392D3*
X3580408Y682228D3*
X4038337Y1084220D3*
X4043521Y1282928D3*
X4003778Y1357227D3*
X3893193Y1381419D3*
X3855180Y1535201D3*
X3875915Y1761555D3*
X3993411Y1796113D3*
X4010690Y1953352D3*
X4135098Y2124413D3*
X3848268Y1853134D3*
X3739411Y1728726D3*
X3604727Y1535710D3*
X1653395Y1334526D3*
X1656455Y1613084D3*
X1628906Y2011024D3*
X2238059Y2029390D3*
X2253365Y1778382D3*
X2247243Y1343710D3*
X2850273Y1349832D3*
X2859457Y1659000D3*
X2862518Y2038573D3*
X3431877Y2017146D3*
X3434938Y1659000D3*
X3441060Y1340648D3*
X1334350Y2726130D3*
X1246272Y2684459D3*
X1132373Y2679671D3*
X1402387Y2614055D3*
X1579929Y2736497D3*
X1595234Y2862001D3*
X1668699Y2935467D3*
X1794203Y2923223D3*
X1846241Y2855879D3*
X3594114Y1095764D3*
X3327801Y823328D3*
X1263720Y1464009D3*
X1858487Y3125255D3*
X2026845Y3131377D3*
X2204387D3*
X2357441Y3116071D3*
X2724130Y3070751D3*
X2749259Y3272185D3*
X2755381Y3440545D3*
X2290097Y3452789D3*
X2060517D3*
X1855425D3*
X2794425Y2689810D3*
X1514105Y3004890D3*
X2133667Y2779289D3*
X2238273Y1605316D3*
X2553563D3*
X3153534Y1596133D3*
X3303526Y1522667D3*
X3707588Y1332881D3*
X3724117Y1953972D3*
X3730852Y2149268D3*
X3673610Y2240182D3*
X3872273Y2095394D3*
X3980024Y2189675D3*
X3656774Y2812602D3*
X1244775Y2381391D2*
X4267661D1*
X1244775Y2341522D2*
X1444293D1*
X1866576D2*
X2043882D1*
X2466595D2*
X2643865D1*
X3066579D2*
X3243885D1*
X3666598D2*
X3843868D1*
X1244775Y2301654D2*
X1422547D1*
X1888465D2*
X2022028D1*
X2488449D2*
X2622012D1*
X3088468D2*
X3222031D1*
X3688452D2*
X3822015D1*
X1244775Y2261785D2*
X1423875D1*
X1887209D2*
X2023248D1*
X2487229D2*
X2623268D1*
X3087212D2*
X3223251D1*
X3687232D2*
X3823235D1*
X1244775Y2221916D2*
X1449963D1*
X1861301D2*
X2049193D1*
X2461284D2*
X2649176D1*
X3061268D2*
X3249196D1*
X3661287D2*
X3849179D1*
X1244775Y2182047D2*
X1481002D1*
X1514660D2*
X1780994D1*
X1814687D2*
X2080986D1*
X2114679D2*
X2380978D1*
X2414671D2*
X2681005D1*
X2714663D2*
X2980997D1*
X3014654D2*
X3280989D1*
X3314682D2*
X3580981D1*
X3614674D2*
X4267661D1*
X1244775Y2142178D2*
X1423372D1*
X1572290D2*
X1723400D1*
X1872281D2*
X2023392D1*
X2172273D2*
X2323384D1*
X2472265D2*
X2623375D1*
X2772293D2*
X2923367D1*
X3072284D2*
X3223395D1*
X3372276D2*
X3523387D1*
X3672268D2*
X4267661D1*
X1244775Y2102310D2*
X1412715D1*
X1582947D2*
X1712707D1*
X1882939D2*
X2012698D1*
X2182967D2*
X2312690D1*
X2482958D2*
X2612718D1*
X2782950D2*
X2912710D1*
X3082942D2*
X3212701D1*
X3382970D2*
X3512693D1*
X3682962D2*
X4004127D1*
X4094410D2*
X4267661D1*
X1244775Y2062441D2*
X1422978D1*
X1572684D2*
X1678329D1*
X1872676D2*
X2022961D1*
X2172704D2*
X2289688D1*
X2472696D2*
X2622981D1*
X2772687D2*
X2872986D1*
X3072679D2*
X3222964D1*
X3372707D2*
X3473005D1*
X3672699D2*
X3969894D1*
X4128607D2*
X4267661D1*
X1244775Y2022572D2*
X1477019D1*
X1518607D2*
X1673306D1*
X1818634D2*
X2077039D1*
X2118626D2*
X2289150D1*
X2418618D2*
X2677022D1*
X2718610D2*
X2845283D1*
X3018638D2*
X3277042D1*
X3318629D2*
X3445267D1*
X3618621D2*
X3964726D1*
X4133775D2*
X4267661D1*
X1244775Y1982703D2*
X1486134D1*
X1509528D2*
X1673306D1*
X1809520D2*
X2086117D1*
X2109517D2*
X2289150D1*
X2412159D2*
X2686137D1*
X2709531D2*
X2843740D1*
X3009559D2*
X3286120D1*
X3309515D2*
X3443724D1*
X3609542D2*
X3981125D1*
X4117375D2*
X4267661D1*
X1244775Y1942835D2*
X1423767D1*
X1571895D2*
X1673306D1*
X1871887D2*
X2023751D1*
X2171914D2*
X2289150D1*
X2471906D2*
X2623770D1*
X2771898D2*
X2843740D1*
X3071890D2*
X3223754D1*
X3371882D2*
X3443724D1*
X3671909D2*
X3994869D1*
X4107794D2*
X4267661D1*
X1244775Y1902966D2*
X1412715D1*
X1582947D2*
X1673306D1*
X1882939D2*
X2012698D1*
X2182967D2*
X2289150D1*
X2482958D2*
X2612718D1*
X2782950D2*
X2843740D1*
X3082942D2*
X3212701D1*
X3382934D2*
X3443724D1*
X3682962D2*
X3969248D1*
X4133416D2*
X4267661D1*
X457404Y1863097D2*
X1422619D1*
X1573043D2*
X1673306D1*
X1873035D2*
X2022602D1*
X2173063D2*
X2289150D1*
X2473054D2*
X2622622D1*
X2773046D2*
X2843740D1*
X3073038D2*
X3222605D1*
X3373066D2*
X3443724D1*
X3673057D2*
X3968207D1*
X4134456D2*
X4267661D1*
X457404Y1823228D2*
X533301D1*
X644719D2*
X1474184D1*
X1521478D2*
X1673306D1*
X1821469D2*
X2074204D1*
X2121461D2*
X2289150D1*
X2421489D2*
X2674187D1*
X2721481D2*
X2843740D1*
X3021472D2*
X3274171D1*
X3321464D2*
X3443724D1*
X3621456D2*
X3990312D1*
X4112352D2*
X4267661D1*
X457404Y1783360D2*
X507106D1*
X670915D2*
X1673306D1*
X1796315D2*
X2289150D1*
X2412159D2*
X2843740D1*
X2966749D2*
X3443724D1*
X3566733D2*
X4267661D1*
X457404Y1743491D2*
X503876D1*
X674144D2*
X1424162D1*
X1571500D2*
X1673306D1*
X1871528D2*
X2024145D1*
X2171520D2*
X2289150D1*
X2471511D2*
X2624165D1*
X2771503D2*
X2843740D1*
X3071495D2*
X3224148D1*
X3371523D2*
X3443724D1*
X3671514D2*
X3869956D1*
X4043849D2*
X4069975D1*
X4243831D2*
X4267661D1*
X457404Y1703622D2*
X503876D1*
X674144D2*
X1412715D1*
X1582947D2*
X1673306D1*
X1882939D2*
X2012734D1*
X2182931D2*
X2289150D1*
X2482923D2*
X2612718D1*
X2782950D2*
X2843740D1*
X3082942D2*
X3212701D1*
X3382934D2*
X3443724D1*
X3682926D2*
X3846883D1*
X457404Y1663753D2*
X503876D1*
X674144D2*
X1422260D1*
X1573402D2*
X1673306D1*
X1873394D2*
X2022244D1*
X2173421D2*
X2289150D1*
X2473413D2*
X2622263D1*
X2773405D2*
X2843740D1*
X3073397D2*
X3222247D1*
X3373389D2*
X3443724D1*
X3673416D2*
X3841428D1*
X457404Y1623885D2*
X503876D1*
X674144D2*
X1471708D1*
X1523918D2*
X1673306D1*
X1823945D2*
X2071728D1*
X2123937D2*
X2289150D1*
X2423929D2*
X2671711D1*
X2723921D2*
X2843740D1*
X3023948D2*
X3271731D1*
X3323940D2*
X3443724D1*
X3623932D2*
X3850758D1*
X457404Y1584016D2*
X1673306D1*
X1796315D2*
X2289150D1*
X2412159D2*
X2843740D1*
X2966749D2*
X3262616D1*
X3344430D2*
X3443724D1*
X3566733D2*
X3880363D1*
X4233461D2*
X4267661D1*
X457404Y1544147D2*
X1020788D1*
X1108343D2*
X1673306D1*
X1796315D2*
X2289150D1*
X2412159D2*
X2843740D1*
X2966749D2*
X3231218D1*
X3375829D2*
X3443724D1*
X3566733D2*
X3870566D1*
X4243257D2*
X4267661D1*
X457404Y1504278D2*
X991721D1*
X1137409D2*
X1673306D1*
X1796315D2*
X2289150D1*
X2412159D2*
X2843740D1*
X2966749D2*
X3230321D1*
X3376726D2*
X3443724D1*
X3566733D2*
X3847098D1*
X457404Y1464409D2*
X991865D1*
X1137266D2*
X1442068D1*
X1553594D2*
X1673306D1*
X1853586D2*
X2042052D1*
X2153577D2*
X2289150D1*
X2453605D2*
X2642071D1*
X2753597D2*
X2843740D1*
X3053589D2*
X3242055D1*
X3353581D2*
X3443724D1*
X3653608D2*
X3841392D1*
X457404Y1424541D2*
X1003061D1*
X1126070D2*
X1415908D1*
X1579753D2*
X1673306D1*
X1879745D2*
X2015928D1*
X2179737D2*
X2289150D1*
X2479729D2*
X2615912D1*
X2779757D2*
X2843740D1*
X3079748D2*
X3215895D1*
X3379740D2*
X3443724D1*
X3679732D2*
X3850471D1*
X457404Y1384672D2*
X1003061D1*
X1126070D2*
X1414545D1*
X1581081D2*
X1673306D1*
X1881109D2*
X2014564D1*
X2181101D2*
X2289150D1*
X2481092D2*
X2614548D1*
X2781084D2*
X2843740D1*
X3081112D2*
X3214567D1*
X3381104D2*
X3443724D1*
X3681096D2*
X3879609D1*
X4034232D2*
X4079592D1*
X4234214D2*
X4267661D1*
X457404Y1344803D2*
X488302D1*
X733389D2*
X1003061D1*
X1126070D2*
X1436255D1*
X1559407D2*
X1673306D1*
X1859435D2*
X2036238D1*
X2159427D2*
X2289150D1*
X2459418D2*
X2636222D1*
X2759410D2*
X2843740D1*
X3059438D2*
X3236241D1*
X3359430D2*
X3443724D1*
X3659421D2*
X4267661D1*
X748460Y1304934D2*
X1003061D1*
X1126070D2*
X1673306D1*
X1796315D2*
X2289150D1*
X2412159D2*
X2843740D1*
X2966749D2*
X3443724D1*
X3566733D2*
X4267661D1*
X457404Y1265066D2*
X478649D1*
X743042D2*
X1003061D1*
X1126070D2*
X1358996D1*
X1529264D2*
X1652134D1*
X1907950D2*
X1958657D1*
X2128925D2*
X2271136D1*
X2507611D2*
X2558317D1*
X2728586D2*
X2843740D1*
X3107272D2*
X3158014D1*
X3328246D2*
X3443724D1*
X3706932D2*
X4267661D1*
X457404Y1225197D2*
X477968D1*
X743724D2*
X1003061D1*
X1126070D2*
X1358996D1*
X1529264D2*
X1625006D1*
X1925964D2*
X1958657D1*
X2128925D2*
X2244869D1*
X2525625D2*
X2558317D1*
X2728586D2*
X2843740D1*
X3125285D2*
X3158014D1*
X3328246D2*
X3443724D1*
X3724982D2*
X4267661D1*
X748245Y1185328D2*
X1003061D1*
X1126070D2*
X1358996D1*
X1529264D2*
X1624216D1*
X1922053D2*
X1958657D1*
X2128925D2*
X2243721D1*
X2521713D2*
X2558317D1*
X2728586D2*
X2843740D1*
X3121374D2*
X3158014D1*
X3328246D2*
X3443724D1*
X3721035D2*
X4267661D1*
X457404Y1145459D2*
X488805D1*
X732887D2*
X969330D1*
X1125208D2*
X1358996D1*
X1529264D2*
X1624216D1*
X1747225D2*
X1792728D1*
X1890762D2*
X1958657D1*
X2128925D2*
X2243721D1*
X2366730D2*
X2392425D1*
X2490458D2*
X2558317D1*
X2728586D2*
X2843740D1*
X2966749D2*
X2992085D1*
X3090119D2*
X3158014D1*
X3328246D2*
X3443724D1*
X3566733D2*
X3591746D1*
X3689780D2*
X4267661D1*
X748389Y1105591D2*
X929462D1*
X1100090D2*
X1624216D1*
X1747225D2*
X2243721D1*
X2366730D2*
X2843740D1*
X2966749D2*
X3443724D1*
X3566733D2*
X4267661D1*
X457404Y1065722D2*
X478398D1*
X743293D2*
X889595D1*
X1060222D2*
X1624216D1*
X1747225D2*
X2243721D1*
X2366730D2*
X2843740D1*
X2966749D2*
X3443724D1*
X3566733D2*
X4267661D1*
X457404Y1025853D2*
X478219D1*
X743473D2*
X849728D1*
X1020355D2*
X1431662D1*
X1878812D2*
X2031645D1*
X2478832D2*
X2631665D1*
X3078815D2*
X3231648D1*
X3678835D2*
X3831632D1*
X748353Y985984D2*
X809825D1*
X980488D2*
X1420143D1*
X1890331D2*
X2020126D1*
X2490351D2*
X2620146D1*
X3090334D2*
X3220129D1*
X3690354D2*
X3820113D1*
X457404Y946115D2*
X489163D1*
X940620D2*
X1429580D1*
X1880894D2*
X2029564D1*
X2480913D2*
X2629583D1*
X3080897D2*
X3229567D1*
X3680880D2*
X3829586D1*
X900753Y906247D2*
X1478562D1*
X1531884D2*
X1578571D1*
X1631893D2*
X1678581D1*
X1731902D2*
X1778590D1*
X1831912D2*
X2078582D1*
X2131903D2*
X2178591D1*
X2231877D2*
X2278564D1*
X2331886D2*
X2378574D1*
X2431895D2*
X2678565D1*
X2731887D2*
X2778575D1*
X2831896D2*
X2878584D1*
X2931905D2*
X2978593D1*
X3031879D2*
X3278585D1*
X3331907D2*
X3378558D1*
X3431880D2*
X3478567D1*
X3531889D2*
X3578577D1*
X3631898D2*
X3878568D1*
X3931890D2*
X3978578D1*
X4031899D2*
X4078587D1*
X4131909D2*
X4178560D1*
X4231882D2*
X4267661D1*
X457404Y866378D2*
X478147D1*
X860886D2*
X4267661D1*
X457404Y826509D2*
X509546D1*
X712146D2*
X1585856D1*
X1788958D2*
X2213040D1*
X2416142D2*
X2750585D1*
X2953687D2*
X3332913D1*
X3536016D2*
X4267661D1*
X457404Y786640D2*
X1562567D1*
X1811529D2*
X2189715D1*
X2438713D2*
X2727260D1*
X2976258D2*
X3309625D1*
X3558587D2*
X4267661D1*
X457404Y746772D2*
X1561132D1*
X1811709D2*
X2188316D1*
X2438893D2*
X2725861D1*
X2976438D2*
X3308225D1*
X3558766D2*
X4267661D1*
X457404Y706903D2*
X1566156D1*
X1809018D2*
X2193339D1*
X2436201D2*
X2730884D1*
X2973746D2*
X3313213D1*
X3556111D2*
X4267661D1*
X457404Y667034D2*
X1605843D1*
X1772739D2*
X2232991D1*
X2399922D2*
X2770536D1*
X2937468D2*
X3352901D1*
X3519796D2*
X4267661D1*
X598500Y627165D2*
X4135463D1*
X635246Y587297D2*
X4094735D1*
X649348Y547428D2*
X4078946D1*
X649169Y507559D2*
X4077690D1*
X634708Y467690D2*
X4090500D1*
X1372180Y1294080D2*
X1525248D1*
Y1131825D1*
X1362993D1*
Y1294080D1*
X1372180D1*
X1922636Y1206588D2*
X1921887Y1200262D1*
X1920645Y1194014D1*
X1918915Y1187883D1*
X1916711Y1181907D1*
X1914044Y1176122D1*
X1910931Y1170564D1*
X1907392Y1165267D1*
X1903448Y1160265D1*
X1899124Y1155587D1*
X1894447Y1151263D1*
X1889444Y1147319D1*
X1884148Y1143780D1*
X1878590Y1140668D1*
X1872805Y1138001D1*
X1866828Y1135796D1*
X1860697Y1134067D1*
X1854450Y1132824D1*
X1848124Y1132075D1*
X1841759Y1131825D1*
X1835393Y1132075D1*
X1829067Y1132824D1*
X1822820Y1134067D1*
X1816689Y1135796D1*
X1810712Y1138001D1*
X1804927Y1140668D1*
X1799369Y1143780D1*
X1794073Y1147319D1*
X1789070Y1151263D1*
X1784393Y1155587D1*
X1780069Y1160265D1*
X1776125Y1165267D1*
X1771893Y1171801D1*
X1764863Y1166727D1*
X1756823Y1162630D1*
X1748241Y1159842D1*
X1743795Y1158959D1*
X1743219Y1151454D1*
Y1055823D1*
X1752920Y1049779D1*
X1755168Y1048008D1*
X1762846Y1053318D1*
X1768404Y1056431D1*
X1774189Y1059098D1*
X1780165Y1061303D1*
X1786296Y1063032D1*
X1792544Y1064274D1*
X1798870Y1065023D1*
X1805235Y1065273D1*
X1811600Y1065023D1*
X1817926Y1064274D1*
X1824174Y1063032D1*
X1830305Y1061303D1*
X1836281Y1059098D1*
X1842066Y1056431D1*
X1847624Y1053318D1*
X1852920Y1049779D1*
X1857923Y1045836D1*
X1862601Y1041512D1*
X1866925Y1036834D1*
X1870868Y1031831D1*
X1874408Y1026535D1*
X1877520Y1020977D1*
X1880187Y1015192D1*
X1882392Y1009215D1*
X1884121Y1003085D1*
X1885364Y996837D1*
X1886112Y990511D1*
X1886362Y984146D1*
X1886112Y977780D1*
X1885364Y971455D1*
X1884121Y965207D1*
X1882392Y959076D1*
X1880187Y953099D1*
X1877520Y947315D1*
X1874408Y941757D1*
X1870868Y936460D1*
X1866925Y931458D1*
X1862601Y926780D1*
X1857923Y922456D1*
X1852920Y918512D1*
X1847624Y914973D1*
X1842066Y911860D1*
X1836281Y909194D1*
X1830305Y906989D1*
X1824174Y905260D1*
X1817926Y904017D1*
X1811600Y903268D1*
X1805235Y903018D1*
X1798870Y903268D1*
X1792544Y904017D1*
X1786296Y905260D1*
X1780165Y906989D1*
X1774189Y909194D1*
X1768404Y911860D1*
X1762846Y914973D1*
X1755302Y920284D1*
X1747624Y914973D1*
X1742066Y911860D1*
X1736281Y909194D1*
X1730305Y906989D1*
X1724174Y905260D1*
X1717926Y904017D1*
X1711600Y903268D1*
X1705235Y903018D1*
X1698870Y903268D1*
X1692544Y904017D1*
X1686296Y905260D1*
X1680165Y906989D1*
X1674189Y909194D1*
X1668404Y911860D1*
X1662846Y914973D1*
X1655302Y920284D1*
X1647756Y915054D1*
X1639677Y910692D1*
X1631157Y907271D1*
X1622305Y904834D1*
X1613234Y903413D1*
X1604061Y903027D1*
X1594903Y903679D1*
X1585877Y905362D1*
X1577099Y908053D1*
X1568681Y911720D1*
X1560732Y916314D1*
X1555237Y920262D1*
X1547756Y915054D1*
X1539677Y910692D1*
X1531157Y907271D1*
X1522305Y904834D1*
X1513234Y903413D1*
X1504061Y903027D1*
X1494903Y903679D1*
X1485877Y905362D1*
X1477099Y908053D1*
X1468681Y911720D1*
X1460732Y916314D1*
X1453352Y921777D1*
X1446637Y928039D1*
X1440673Y935019D1*
X1435536Y942628D1*
X1431291Y950770D1*
X1427993Y959339D1*
X1425685Y968225D1*
X1424395Y977316D1*
X1424141Y986493D1*
X1424926Y995641D1*
X1426739Y1004642D1*
X1429558Y1013380D1*
X1433346Y1021744D1*
X1438054Y1029626D1*
X1443623Y1036925D1*
X1449982Y1043549D1*
X1457048Y1049412D1*
X1464731Y1054439D1*
X1472933Y1058565D1*
X1481548Y1061738D1*
X1490467Y1063918D1*
X1499575Y1065076D1*
X1508756Y1065197D1*
X1517892Y1064280D1*
X1526865Y1062337D1*
X1535561Y1059392D1*
X1543869Y1055483D1*
X1551682Y1050661D1*
X1555228Y1048033D1*
X1563149Y1053503D1*
X1571256Y1057814D1*
X1579797Y1061182D1*
X1588665Y1063563D1*
X1597744Y1064927D1*
X1606920Y1065256D1*
X1616074Y1064546D1*
X1625089Y1062806D1*
X1628209Y1061948D1*
X1628386Y1220270D1*
X1629797Y1229183D1*
X1632586Y1237765D1*
X1636682Y1245805D1*
X1641986Y1253105D1*
X1648367Y1259486D1*
X1655667Y1264790D1*
X1663707Y1268887D1*
X1672290Y1271675D1*
X1676736Y1272558D1*
X1677311Y1280063D1*
X1677488Y2043441D1*
X1678900Y2052354D1*
X1681688Y2060936D1*
X1685785Y2068976D1*
X1691089Y2076276D1*
X1707145Y2092583D1*
X1716711Y2102149D1*
X1716952Y2108307D1*
X1717701Y2114633D1*
X1718943Y2120881D1*
X1720673Y2127012D1*
X1722877Y2132988D1*
X1725544Y2138773D1*
X1728657Y2144331D1*
X1732196Y2149628D1*
X1736140Y2154630D1*
X1740464Y2159308D1*
X1745141Y2163632D1*
X1750144Y2167576D1*
X1755440Y2171115D1*
X1760998Y2174227D1*
X1766783Y2176894D1*
X1772760Y2179099D1*
X1778891Y2180828D1*
X1785138Y2182071D1*
X1791464Y2182820D1*
X1797829Y2183070D1*
X1804195Y2182820D1*
X1810521Y2182071D1*
X1816768Y2180828D1*
X1822899Y2179099D1*
X1828876Y2176894D1*
X1834661Y2174227D1*
X1840218Y2171115D1*
X1845515Y2167576D1*
X1850518Y2163632D1*
X1855195Y2159308D1*
X1859519Y2154630D1*
X1863463Y2149628D1*
X1867002Y2144331D1*
X1870115Y2138773D1*
X1872781Y2132988D1*
X1874986Y2127012D1*
X1876715Y2120881D1*
X1877958Y2114633D1*
X1878707Y2108307D1*
X1878957Y2101942D1*
X1878707Y2095577D1*
X1877958Y2089251D1*
X1876715Y2083003D1*
X1874986Y2076872D1*
X1872781Y2070896D1*
X1870115Y2065111D1*
X1867002Y2059553D1*
X1863463Y2054257D1*
X1859519Y2049254D1*
X1855195Y2044576D1*
X1850518Y2040252D1*
X1845515Y2036309D1*
X1840218Y2032770D1*
X1834661Y2029657D1*
X1828876Y2026990D1*
X1822899Y2024785D1*
X1816768Y2023056D1*
X1810521Y2021814D1*
X1804195Y2021065D1*
X1798053Y2020823D1*
X1792337Y2015124D1*
X1792322Y1982914D1*
X1804195Y1982820D1*
X1810521Y1982071D1*
X1816768Y1980828D1*
X1822899Y1979099D1*
X1828876Y1976894D1*
X1834661Y1974227D1*
X1840218Y1971115D1*
X1845515Y1967576D1*
X1850518Y1963632D1*
X1855195Y1959308D1*
X1859519Y1954630D1*
X1863463Y1949628D1*
X1867002Y1944331D1*
X1870115Y1938773D1*
X1872781Y1932988D1*
X1874986Y1927012D1*
X1876715Y1920881D1*
X1877958Y1914633D1*
X1878707Y1908307D1*
X1878957Y1901942D1*
X1878707Y1895577D1*
X1877958Y1889251D1*
X1876715Y1883003D1*
X1874986Y1876872D1*
X1872781Y1870896D1*
X1870115Y1865111D1*
X1867002Y1859553D1*
X1863463Y1854257D1*
X1859519Y1849254D1*
X1855195Y1844576D1*
X1850518Y1840252D1*
X1845515Y1836309D1*
X1840218Y1832770D1*
X1834661Y1829657D1*
X1828876Y1826990D1*
X1822899Y1824785D1*
X1816768Y1823056D1*
X1810521Y1821814D1*
X1804195Y1821065D1*
X1797829Y1820815D1*
X1792334Y1821031D1*
X1792322Y1782895D1*
X1804195Y1782820D1*
X1810521Y1782071D1*
X1816768Y1780828D1*
X1822899Y1779099D1*
X1828876Y1776894D1*
X1834661Y1774227D1*
X1840218Y1771115D1*
X1845515Y1767576D1*
X1850518Y1763632D1*
X1855195Y1759308D1*
X1859519Y1754630D1*
X1863463Y1749628D1*
X1867002Y1744331D1*
X1870115Y1738773D1*
X1872781Y1732988D1*
X1874986Y1727012D1*
X1876715Y1720881D1*
X1877958Y1714633D1*
X1878707Y1708307D1*
X1878957Y1701942D1*
X1878707Y1695577D1*
X1877958Y1689251D1*
X1876715Y1683003D1*
X1874986Y1676872D1*
X1872781Y1670896D1*
X1870115Y1665111D1*
X1867002Y1659553D1*
X1863463Y1654257D1*
X1859519Y1649254D1*
X1855195Y1644576D1*
X1850518Y1640252D1*
X1845515Y1636309D1*
X1840218Y1632770D1*
X1834661Y1629657D1*
X1828876Y1626990D1*
X1822899Y1624785D1*
X1816768Y1623056D1*
X1810521Y1621814D1*
X1804195Y1621065D1*
X1797829Y1620815D1*
X1792334Y1621031D1*
X1792322Y1482904D1*
X1804195Y1482820D1*
X1810521Y1482071D1*
X1816768Y1480828D1*
X1822899Y1479099D1*
X1828876Y1476894D1*
X1834661Y1474227D1*
X1840218Y1471115D1*
X1845515Y1467576D1*
X1850518Y1463632D1*
X1855195Y1459308D1*
X1859519Y1454630D1*
X1863463Y1449628D1*
X1867002Y1444331D1*
X1870115Y1438773D1*
X1872781Y1432988D1*
X1874986Y1427012D1*
X1876715Y1420881D1*
X1877958Y1414633D1*
X1878707Y1408307D1*
X1878957Y1401942D1*
X1878707Y1395577D1*
X1877958Y1389251D1*
X1876715Y1383003D1*
X1874986Y1376872D1*
X1872781Y1370896D1*
X1870115Y1365111D1*
X1867002Y1359553D1*
X1863463Y1354257D1*
X1859519Y1349254D1*
X1855195Y1344576D1*
X1850518Y1340252D1*
X1845515Y1336309D1*
X1840218Y1332770D1*
X1834661Y1329657D1*
X1828876Y1326990D1*
X1822899Y1324785D1*
X1816768Y1323056D1*
X1810521Y1321814D1*
X1804195Y1321065D1*
X1797829Y1320815D1*
X1792334Y1321031D1*
X1792322Y1277287D1*
X1799369Y1282125D1*
X1804927Y1285238D1*
X1810712Y1287905D1*
X1816689Y1290110D1*
X1822820Y1291839D1*
X1829067Y1293082D1*
X1835393Y1293830D1*
X1841759Y1294080D1*
X1848124Y1293830D1*
X1854450Y1293082D1*
X1860697Y1291839D1*
X1866828Y1290110D1*
X1872805Y1287905D1*
X1878590Y1285238D1*
X1884148Y1282125D1*
X1889444Y1278586D1*
X1894447Y1274643D1*
X1899124Y1270319D1*
X1903448Y1265641D1*
X1907392Y1260638D1*
X1910931Y1255342D1*
X1914044Y1249784D1*
X1916711Y1243999D1*
X1918915Y1238023D1*
X1920645Y1231892D1*
X1921887Y1225644D1*
X1922636Y1219318D1*
X1922886Y1212953D1*
X1922636Y1206588D1*
X1971850Y1294080D2*
X2124919D1*
Y1131825D1*
X1962664D1*
Y1294080D1*
X1971850D1*
X2522307Y1206588D2*
X2521558Y1200262D1*
X2520315Y1194014D1*
X2518586Y1187883D1*
X2516381Y1181907D1*
X2513714Y1176122D1*
X2510602Y1170564D1*
X2507063Y1165267D1*
X2503119Y1160265D1*
X2498795Y1155587D1*
X2494117Y1151263D1*
X2489115Y1147319D1*
X2483818Y1143780D1*
X2478260Y1140668D1*
X2472475Y1138001D1*
X2466499Y1135796D1*
X2460368Y1134067D1*
X2454120Y1132824D1*
X2447794Y1132075D1*
X2441429Y1131825D1*
X2435064Y1132075D1*
X2428738Y1132824D1*
X2422490Y1134067D1*
X2416359Y1135796D1*
X2410383Y1138001D1*
X2404598Y1140668D1*
X2399040Y1143780D1*
X2393744Y1147319D1*
X2388741Y1151263D1*
X2384063Y1155587D1*
X2379739Y1160265D1*
X2375796Y1165267D1*
X2372257Y1170564D1*
X2369144Y1176122D1*
X2366477Y1181907D1*
X2363468Y1190733D1*
X2362741Y1186291D1*
X2362846Y1053318D1*
X2368404Y1056431D1*
X2374189Y1059098D1*
X2380165Y1061303D1*
X2386296Y1063032D1*
X2392544Y1064274D1*
X2398870Y1065023D1*
X2405235Y1065273D1*
X2411600Y1065023D1*
X2417926Y1064274D1*
X2424174Y1063032D1*
X2430305Y1061303D1*
X2436281Y1059098D1*
X2442066Y1056431D1*
X2447624Y1053318D1*
X2452920Y1049779D1*
X2457923Y1045836D1*
X2462601Y1041512D1*
X2466925Y1036834D1*
X2470868Y1031831D1*
X2474408Y1026535D1*
X2477520Y1020977D1*
X2480187Y1015192D1*
X2482392Y1009215D1*
X2484121Y1003085D1*
X2485364Y996837D1*
X2486112Y990511D1*
X2486362Y984146D1*
X2486112Y977780D1*
X2485364Y971455D1*
X2484121Y965207D1*
X2482392Y959076D1*
X2480187Y953099D1*
X2477520Y947315D1*
X2474408Y941757D1*
X2470868Y936460D1*
X2466925Y931458D1*
X2462601Y926780D1*
X2457923Y922456D1*
X2452920Y918512D1*
X2447624Y914973D1*
X2442066Y911860D1*
X2436281Y909194D1*
X2430305Y906989D1*
X2424174Y905260D1*
X2417926Y904017D1*
X2411600Y903268D1*
X2405235Y903018D1*
X2398870Y903268D1*
X2392544Y904017D1*
X2386296Y905260D1*
X2380165Y906989D1*
X2374189Y909194D1*
X2368404Y911860D1*
X2362846Y914973D1*
X2355302Y920284D1*
X2347624Y914973D1*
X2342066Y911860D1*
X2336281Y909194D1*
X2330305Y906989D1*
X2324174Y905260D1*
X2317926Y904017D1*
X2311600Y903268D1*
X2305235Y903018D1*
X2298870Y903268D1*
X2292544Y904017D1*
X2286296Y905260D1*
X2280165Y906989D1*
X2274189Y909194D1*
X2268404Y911860D1*
X2262846Y914973D1*
X2255302Y920284D1*
X2247756Y915054D1*
X2239677Y910692D1*
X2231157Y907271D1*
X2222305Y904834D1*
X2213234Y903413D1*
X2204061Y903027D1*
X2194903Y903679D1*
X2185877Y905362D1*
X2177099Y908053D1*
X2168681Y911720D1*
X2160732Y916314D1*
X2155237Y920262D1*
X2147756Y915054D1*
X2139677Y910692D1*
X2131157Y907271D1*
X2122305Y904834D1*
X2113234Y903413D1*
X2104061Y903027D1*
X2094903Y903679D1*
X2085877Y905362D1*
X2077099Y908053D1*
X2068681Y911720D1*
X2060732Y916314D1*
X2053352Y921777D1*
X2046637Y928039D1*
X2040673Y935019D1*
X2035536Y942628D1*
X2031291Y950770D1*
X2027993Y959339D1*
X2025685Y968225D1*
X2024395Y977316D1*
X2024141Y986493D1*
X2024926Y995641D1*
X2026739Y1004642D1*
X2029558Y1013380D1*
X2033346Y1021744D1*
X2038054Y1029626D1*
X2043623Y1036925D1*
X2049982Y1043549D1*
X2057048Y1049412D1*
X2064731Y1054439D1*
X2072933Y1058565D1*
X2081548Y1061738D1*
X2090467Y1063918D1*
X2099575Y1065076D1*
X2108756Y1065197D1*
X2117892Y1064280D1*
X2126865Y1062337D1*
X2135561Y1059392D1*
X2143869Y1055483D1*
X2151682Y1050661D1*
X2155228Y1048033D1*
X2163149Y1053503D1*
X2171256Y1057814D1*
X2179797Y1061182D1*
X2188665Y1063563D1*
X2197744Y1064927D1*
X2206920Y1065256D1*
X2216074Y1064546D1*
X2225089Y1062806D1*
X2233850Y1060059D1*
X2242244Y1056340D1*
X2247725Y1053250D1*
X2247907Y1218362D1*
X2249318Y1227275D1*
X2252107Y1235857D1*
X2256203Y1243897D1*
X2261507Y1251197D1*
X2277564Y1267504D1*
X2293169Y1283109D1*
X2293341Y2059294D1*
X2294753Y2068207D1*
X2297541Y2076789D1*
X2301638Y2084829D1*
X2306942Y2092129D1*
X2316680Y2102118D1*
X2316952Y2108307D1*
X2317701Y2114633D1*
X2318943Y2120881D1*
X2320673Y2127012D1*
X2322877Y2132988D1*
X2325544Y2138773D1*
X2328657Y2144331D1*
X2332196Y2149628D1*
X2336140Y2154630D1*
X2340464Y2159308D1*
X2345141Y2163632D1*
X2350144Y2167576D1*
X2355440Y2171115D1*
X2360998Y2174227D1*
X2366783Y2176894D1*
X2372760Y2179099D1*
X2378891Y2180828D1*
X2385138Y2182071D1*
X2391464Y2182820D1*
X2397829Y2183070D1*
X2404195Y2182820D1*
X2410521Y2182071D1*
X2416768Y2180828D1*
X2422899Y2179099D1*
X2428876Y2176894D1*
X2434661Y2174227D1*
X2440218Y2171115D1*
X2445515Y2167576D1*
X2450518Y2163632D1*
X2455195Y2159308D1*
X2459519Y2154630D1*
X2463463Y2149628D1*
X2467002Y2144331D1*
X2470115Y2138773D1*
X2472781Y2132988D1*
X2474986Y2127012D1*
X2476715Y2120881D1*
X2477958Y2114633D1*
X2478707Y2108307D1*
X2478957Y2101942D1*
X2478707Y2095577D1*
X2477958Y2089251D1*
X2476715Y2083003D1*
X2474986Y2076872D1*
X2472781Y2070896D1*
X2470115Y2065111D1*
X2467002Y2059553D1*
X2463463Y2054257D1*
X2459519Y2049254D1*
X2455195Y2044576D1*
X2450518Y2040252D1*
X2445515Y2036309D1*
X2440218Y2032770D1*
X2434661Y2029657D1*
X2428876Y2026990D1*
X2422899Y2024785D1*
X2416768Y2023056D1*
X2408173Y2021536D1*
X2408175Y1982404D1*
X2416768Y1980828D1*
X2422899Y1979099D1*
X2428876Y1976894D1*
X2434661Y1974227D1*
X2440218Y1971115D1*
X2445515Y1967576D1*
X2450518Y1963632D1*
X2455195Y1959308D1*
X2459519Y1954630D1*
X2463463Y1949628D1*
X2467002Y1944331D1*
X2470115Y1938773D1*
X2472781Y1932988D1*
X2474986Y1927012D1*
X2476715Y1920881D1*
X2477958Y1914633D1*
X2478707Y1908307D1*
X2478957Y1901942D1*
X2478707Y1895577D1*
X2477958Y1889251D1*
X2476715Y1883003D1*
X2474986Y1876872D1*
X2472781Y1870896D1*
X2470115Y1865111D1*
X2467002Y1859553D1*
X2463463Y1854257D1*
X2459519Y1849254D1*
X2455195Y1844576D1*
X2450518Y1840252D1*
X2445515Y1836309D1*
X2440218Y1832770D1*
X2434661Y1829657D1*
X2428876Y1826990D1*
X2422899Y1824785D1*
X2416768Y1823056D1*
X2408173Y1821536D1*
X2408175Y1782385D1*
X2416768Y1780828D1*
X2422899Y1779099D1*
X2428876Y1776894D1*
X2434661Y1774227D1*
X2440218Y1771115D1*
X2445515Y1767576D1*
X2450518Y1763632D1*
X2455195Y1759308D1*
X2459519Y1754630D1*
X2463463Y1749628D1*
X2467002Y1744331D1*
X2470115Y1738773D1*
X2472781Y1732988D1*
X2474986Y1727012D1*
X2476715Y1720881D1*
X2477958Y1714633D1*
X2478707Y1708307D1*
X2478957Y1701942D1*
X2478707Y1695577D1*
X2477958Y1689251D1*
X2476715Y1683003D1*
X2474986Y1676872D1*
X2472781Y1670896D1*
X2470115Y1665111D1*
X2467002Y1659553D1*
X2463463Y1654257D1*
X2459519Y1649254D1*
X2455195Y1644576D1*
X2450518Y1640252D1*
X2445515Y1636309D1*
X2440218Y1632770D1*
X2434661Y1629657D1*
X2428876Y1626990D1*
X2422899Y1624785D1*
X2416768Y1623056D1*
X2408173Y1621536D1*
X2408175Y1482393D1*
X2416768Y1480828D1*
X2422899Y1479099D1*
X2428876Y1476894D1*
X2434661Y1474227D1*
X2440218Y1471115D1*
X2445515Y1467576D1*
X2450518Y1463632D1*
X2455195Y1459308D1*
X2459519Y1454630D1*
X2463463Y1449628D1*
X2467002Y1444331D1*
X2470115Y1438773D1*
X2472781Y1432988D1*
X2474986Y1427012D1*
X2476715Y1420881D1*
X2477958Y1414633D1*
X2478707Y1408307D1*
X2478957Y1401942D1*
X2478707Y1395577D1*
X2477958Y1389251D1*
X2476715Y1383003D1*
X2474986Y1376872D1*
X2472781Y1370896D1*
X2470115Y1365111D1*
X2467002Y1359553D1*
X2463463Y1354257D1*
X2459519Y1349254D1*
X2455195Y1344576D1*
X2450518Y1340252D1*
X2445515Y1336309D1*
X2440218Y1332770D1*
X2434661Y1329657D1*
X2428876Y1326990D1*
X2422899Y1324785D1*
X2416768Y1323056D1*
X2408173Y1321536D1*
X2408175Y1286968D1*
X2416359Y1290110D1*
X2422490Y1291839D1*
X2428738Y1293082D1*
X2435064Y1293830D1*
X2441429Y1294080D1*
X2447794Y1293830D1*
X2454120Y1293082D1*
X2460368Y1291839D1*
X2466499Y1290110D1*
X2472475Y1287905D1*
X2478260Y1285238D1*
X2483818Y1282125D1*
X2489115Y1278586D1*
X2494117Y1274643D1*
X2498795Y1270319D1*
X2503119Y1265641D1*
X2507063Y1260638D1*
X2510602Y1255342D1*
X2513714Y1249784D1*
X2516381Y1243999D1*
X2518586Y1238023D1*
X2520315Y1231892D1*
X2521558Y1225644D1*
X2522307Y1219318D1*
X2522557Y1212953D1*
X2522307Y1206588D1*
X2571521Y1294080D2*
X2724590D1*
Y1131825D1*
X2562334D1*
Y1294080D1*
X2571521D1*
X3121977Y1206588D2*
X3121228Y1200262D1*
X3119986Y1194014D1*
X3118257Y1187883D1*
X3116052Y1181907D1*
X3113385Y1176122D1*
X3110272Y1170564D1*
X3106733Y1165267D1*
X3102790Y1160265D1*
X3098466Y1155587D1*
X3093788Y1151263D1*
X3088785Y1147319D1*
X3083489Y1143780D1*
X3077931Y1140668D1*
X3072146Y1138001D1*
X3066170Y1135796D1*
X3060039Y1134067D1*
X3053791Y1132824D1*
X3047465Y1132075D1*
X3041100Y1131825D1*
X3034735Y1132075D1*
X3028409Y1132824D1*
X3022161Y1134067D1*
X3016030Y1135796D1*
X3010054Y1138001D1*
X3004269Y1140668D1*
X2998711Y1143780D1*
X2993414Y1147319D1*
X2988412Y1151263D1*
X2983734Y1155587D1*
X2979410Y1160265D1*
X2975466Y1165267D1*
X2971927Y1170564D1*
X2968815Y1176122D1*
X2966148Y1181907D1*
X2962734Y1192170D1*
X2962846Y1053318D1*
X2968404Y1056431D1*
X2974189Y1059098D1*
X2980165Y1061303D1*
X2986296Y1063032D1*
X2992544Y1064274D1*
X2998870Y1065023D1*
X3005235Y1065273D1*
X3011600Y1065023D1*
X3017926Y1064274D1*
X3024174Y1063032D1*
X3030305Y1061303D1*
X3036281Y1059098D1*
X3042066Y1056431D1*
X3047624Y1053318D1*
X3052920Y1049779D1*
X3057923Y1045836D1*
X3062601Y1041512D1*
X3066925Y1036834D1*
X3070868Y1031831D1*
X3074408Y1026535D1*
X3077520Y1020977D1*
X3080187Y1015192D1*
X3082392Y1009215D1*
X3084121Y1003085D1*
X3085364Y996837D1*
X3086112Y990511D1*
X3086362Y984146D1*
X3086112Y977780D1*
X3085364Y971455D1*
X3084121Y965207D1*
X3082392Y959076D1*
X3080187Y953099D1*
X3077520Y947315D1*
X3074408Y941757D1*
X3070868Y936460D1*
X3066925Y931458D1*
X3062601Y926780D1*
X3057923Y922456D1*
X3052920Y918512D1*
X3047624Y914973D1*
X3042066Y911860D1*
X3036281Y909194D1*
X3030305Y906989D1*
X3024174Y905260D1*
X3017926Y904017D1*
X3011600Y903268D1*
X3005235Y903018D1*
X2998870Y903268D1*
X2992544Y904017D1*
X2986296Y905260D1*
X2980165Y906989D1*
X2974189Y909194D1*
X2968404Y911860D1*
X2962846Y914973D1*
X2955302Y920284D1*
X2947624Y914973D1*
X2942066Y911860D1*
X2936281Y909194D1*
X2930305Y906989D1*
X2924174Y905260D1*
X2917926Y904017D1*
X2911600Y903268D1*
X2905235Y903018D1*
X2898870Y903268D1*
X2892544Y904017D1*
X2886296Y905260D1*
X2880165Y906989D1*
X2874189Y909194D1*
X2868404Y911860D1*
X2862846Y914973D1*
X2855302Y920284D1*
X2847756Y915054D1*
X2839677Y910692D1*
X2831157Y907271D1*
X2822305Y904834D1*
X2813234Y903413D1*
X2804061Y903027D1*
X2794903Y903679D1*
X2785877Y905362D1*
X2777099Y908053D1*
X2768681Y911720D1*
X2760732Y916314D1*
X2755237Y920262D1*
X2747756Y915054D1*
X2739677Y910692D1*
X2731157Y907271D1*
X2722305Y904834D1*
X2713234Y903413D1*
X2704061Y903027D1*
X2694903Y903679D1*
X2685877Y905362D1*
X2677099Y908053D1*
X2668681Y911720D1*
X2660732Y916314D1*
X2653352Y921777D1*
X2646637Y928039D1*
X2640673Y935019D1*
X2635536Y942628D1*
X2631291Y950770D1*
X2627993Y959339D1*
X2625685Y968225D1*
X2624395Y977316D1*
X2624141Y986493D1*
X2624926Y995641D1*
X2626739Y1004642D1*
X2629558Y1013380D1*
X2633346Y1021744D1*
X2638054Y1029626D1*
X2643623Y1036925D1*
X2649982Y1043549D1*
X2657048Y1049412D1*
X2664731Y1054439D1*
X2672933Y1058565D1*
X2681548Y1061738D1*
X2690467Y1063918D1*
X2699575Y1065076D1*
X2708756Y1065197D1*
X2717892Y1064280D1*
X2726865Y1062337D1*
X2735561Y1059392D1*
X2743869Y1055483D1*
X2751682Y1050661D1*
X2755228Y1048033D1*
X2763149Y1053503D1*
X2771256Y1057814D1*
X2779797Y1061182D1*
X2788665Y1063563D1*
X2797744Y1064927D1*
X2806920Y1065256D1*
X2816074Y1064546D1*
X2825089Y1062806D1*
X2833850Y1060059D1*
X2842244Y1056340D1*
X2847725Y1053250D1*
X2847907Y2013860D1*
X2849318Y2022772D1*
X2852107Y2031354D1*
X2856203Y2039394D1*
X2861507Y2046695D1*
X2877564Y2063002D1*
X2916716Y2102154D1*
X2916952Y2108307D1*
X2917701Y2114633D1*
X2918943Y2120881D1*
X2920673Y2127012D1*
X2922877Y2132988D1*
X2925544Y2138773D1*
X2928657Y2144331D1*
X2932196Y2149628D1*
X2936140Y2154630D1*
X2940464Y2159308D1*
X2945141Y2163632D1*
X2950144Y2167576D1*
X2955440Y2171115D1*
X2960998Y2174227D1*
X2966783Y2176894D1*
X2972760Y2179099D1*
X2978891Y2180828D1*
X2985138Y2182071D1*
X2991464Y2182820D1*
X2997829Y2183070D1*
X3004195Y2182820D1*
X3010521Y2182071D1*
X3016768Y2180828D1*
X3022899Y2179099D1*
X3028876Y2176894D1*
X3034661Y2174227D1*
X3040218Y2171115D1*
X3045515Y2167576D1*
X3050518Y2163632D1*
X3055195Y2159308D1*
X3059519Y2154630D1*
X3063463Y2149628D1*
X3067002Y2144331D1*
X3070115Y2138773D1*
X3072781Y2132988D1*
X3074986Y2127012D1*
X3076715Y2120881D1*
X3077958Y2114633D1*
X3078707Y2108307D1*
X3078957Y2101942D1*
X3078707Y2095577D1*
X3077958Y2089251D1*
X3076715Y2083003D1*
X3074986Y2076872D1*
X3072781Y2070896D1*
X3070115Y2065111D1*
X3067002Y2059553D1*
X3063463Y2054257D1*
X3059519Y2049254D1*
X3055195Y2044576D1*
X3050518Y2040252D1*
X3045515Y2036309D1*
X3040218Y2032770D1*
X3034661Y2029657D1*
X3028876Y2026990D1*
X3022899Y2024785D1*
X3016768Y2023056D1*
X3010521Y2021814D1*
X3004195Y2021065D1*
X2998053Y2020823D1*
X2962751Y1985538D1*
X2962741Y1975078D1*
X2972760Y1979099D1*
X2978891Y1980828D1*
X2985138Y1982071D1*
X2991464Y1982820D1*
X2997829Y1983070D1*
X3004195Y1982820D1*
X3010521Y1982071D1*
X3016768Y1980828D1*
X3022899Y1979099D1*
X3028876Y1976894D1*
X3034661Y1974227D1*
X3040218Y1971115D1*
X3045515Y1967576D1*
X3050518Y1963632D1*
X3055195Y1959308D1*
X3059519Y1954630D1*
X3063463Y1949628D1*
X3067002Y1944331D1*
X3070115Y1938773D1*
X3072781Y1932988D1*
X3074986Y1927012D1*
X3076715Y1920881D1*
X3077958Y1914633D1*
X3078707Y1908307D1*
X3078957Y1901942D1*
X3078707Y1895577D1*
X3077958Y1889251D1*
X3076715Y1883003D1*
X3074986Y1876872D1*
X3072781Y1870896D1*
X3070115Y1865111D1*
X3067002Y1859553D1*
X3063463Y1854257D1*
X3059519Y1849254D1*
X3055195Y1844576D1*
X3050518Y1840252D1*
X3045515Y1836309D1*
X3040218Y1832770D1*
X3034661Y1829657D1*
X3028876Y1826990D1*
X3022899Y1824785D1*
X3016768Y1823056D1*
X3010521Y1821814D1*
X3004195Y1821065D1*
X2997829Y1820815D1*
X2991464Y1821065D1*
X2985138Y1821814D1*
X2978891Y1823056D1*
X2972760Y1824785D1*
X2962738Y1828855D1*
X2962741Y1775060D1*
X2972760Y1779099D1*
X2978891Y1780828D1*
X2985138Y1782071D1*
X2991464Y1782820D1*
X2997829Y1783070D1*
X3004195Y1782820D1*
X3010521Y1782071D1*
X3016768Y1780828D1*
X3022899Y1779099D1*
X3028876Y1776894D1*
X3034661Y1774227D1*
X3040218Y1771115D1*
X3045515Y1767576D1*
X3050518Y1763632D1*
X3055195Y1759308D1*
X3059519Y1754630D1*
X3063463Y1749628D1*
X3067002Y1744331D1*
X3070115Y1738773D1*
X3072781Y1732988D1*
X3074986Y1727012D1*
X3076715Y1720881D1*
X3077958Y1714633D1*
X3078707Y1708307D1*
X3078957Y1701942D1*
X3078707Y1695577D1*
X3077958Y1689251D1*
X3076715Y1683003D1*
X3074986Y1676872D1*
X3072781Y1670896D1*
X3070115Y1665111D1*
X3067002Y1659553D1*
X3063463Y1654257D1*
X3059519Y1649254D1*
X3055195Y1644576D1*
X3050518Y1640252D1*
X3045515Y1636309D1*
X3040218Y1632770D1*
X3034661Y1629657D1*
X3028876Y1626990D1*
X3022899Y1624785D1*
X3016768Y1623056D1*
X3010521Y1621814D1*
X3004195Y1621065D1*
X2997829Y1620815D1*
X2991464Y1621065D1*
X2985138Y1621814D1*
X2978891Y1623056D1*
X2972760Y1624785D1*
X2962738Y1628855D1*
X2962741Y1475068D1*
X2972760Y1479099D1*
X2978891Y1480828D1*
X2985138Y1482071D1*
X2991464Y1482820D1*
X2997829Y1483070D1*
X3004195Y1482820D1*
X3010521Y1482071D1*
X3016768Y1480828D1*
X3022899Y1479099D1*
X3028876Y1476894D1*
X3034661Y1474227D1*
X3040218Y1471115D1*
X3045515Y1467576D1*
X3050518Y1463632D1*
X3055195Y1459308D1*
X3059519Y1454630D1*
X3063463Y1449628D1*
X3067002Y1444331D1*
X3070115Y1438773D1*
X3072781Y1432988D1*
X3074986Y1427012D1*
X3076715Y1420881D1*
X3077958Y1414633D1*
X3078707Y1408307D1*
X3078957Y1401942D1*
X3078707Y1395577D1*
X3077958Y1389251D1*
X3076715Y1383003D1*
X3074986Y1376872D1*
X3072781Y1370896D1*
X3070115Y1365111D1*
X3067002Y1359553D1*
X3063463Y1354257D1*
X3059519Y1349254D1*
X3055195Y1344576D1*
X3050518Y1340252D1*
X3045515Y1336309D1*
X3040218Y1332770D1*
X3034661Y1329657D1*
X3028876Y1326990D1*
X3022899Y1324785D1*
X3016768Y1323056D1*
X3010521Y1321814D1*
X3004195Y1321065D1*
X2997829Y1320815D1*
X2991464Y1321065D1*
X2985138Y1321814D1*
X2978891Y1323056D1*
X2972760Y1324785D1*
X2962738Y1328855D1*
X2962741Y1233998D1*
X2966148Y1243999D1*
X2968815Y1249784D1*
X2971927Y1255342D1*
X2975466Y1260638D1*
X2979410Y1265641D1*
X2983734Y1270319D1*
X2988412Y1274643D1*
X2993414Y1278586D1*
X2998711Y1282125D1*
X3004269Y1285238D1*
X3010054Y1287905D1*
X3016030Y1290110D1*
X3022161Y1291839D1*
X3028409Y1293082D1*
X3034735Y1293830D1*
X3041100Y1294080D1*
X3047465Y1293830D1*
X3053791Y1293082D1*
X3060039Y1291839D1*
X3066170Y1290110D1*
X3072146Y1287905D1*
X3077931Y1285238D1*
X3083489Y1282125D1*
X3088785Y1278586D1*
X3093788Y1274643D1*
X3098466Y1270319D1*
X3102790Y1265641D1*
X3106733Y1260638D1*
X3110272Y1255342D1*
X3113385Y1249784D1*
X3116052Y1243999D1*
X3118257Y1238023D1*
X3119986Y1231892D1*
X3121228Y1225644D1*
X3121977Y1219318D1*
X3122227Y1212953D1*
X3121977Y1206588D1*
X3171191Y1294080D2*
X3324260D1*
Y1131825D1*
X3162005D1*
Y1294080D1*
X3171191D1*
X3721648Y1206588D2*
X3720899Y1200262D1*
X3719656Y1194014D1*
X3717927Y1187883D1*
X3715722Y1181907D1*
X3713056Y1176122D1*
X3709943Y1170564D1*
X3706404Y1165267D1*
X3702460Y1160265D1*
X3698136Y1155587D1*
X3693458Y1151263D1*
X3688456Y1147319D1*
X3683159Y1143780D1*
X3677601Y1140668D1*
X3671817Y1138001D1*
X3665840Y1135796D1*
X3659709Y1134067D1*
X3653461Y1132824D1*
X3647136Y1132075D1*
X3640770Y1131825D1*
X3634405Y1132075D1*
X3628079Y1132824D1*
X3621831Y1134067D1*
X3615701Y1135796D1*
X3609724Y1138001D1*
X3603939Y1140668D1*
X3598381Y1143780D1*
X3593085Y1147319D1*
X3588082Y1151263D1*
X3583404Y1155587D1*
X3579080Y1160265D1*
X3575137Y1165267D1*
X3571598Y1170564D1*
X3568485Y1176122D1*
X3565818Y1181907D1*
X3562742Y1190972D1*
X3562846Y1053318D1*
X3568404Y1056431D1*
X3574189Y1059098D1*
X3580165Y1061303D1*
X3586296Y1063032D1*
X3592544Y1064274D1*
X3598870Y1065023D1*
X3605235Y1065273D1*
X3611600Y1065023D1*
X3617926Y1064274D1*
X3624174Y1063032D1*
X3630305Y1061303D1*
X3636281Y1059098D1*
X3642066Y1056431D1*
X3647624Y1053318D1*
X3652920Y1049779D1*
X3657923Y1045836D1*
X3662601Y1041512D1*
X3666925Y1036834D1*
X3670868Y1031831D1*
X3674408Y1026535D1*
X3677520Y1020977D1*
X3680187Y1015192D1*
X3682392Y1009215D1*
X3684121Y1003085D1*
X3685364Y996837D1*
X3686112Y990511D1*
X3686362Y984146D1*
X3686112Y977780D1*
X3685364Y971455D1*
X3684121Y965207D1*
X3682392Y959076D1*
X3680187Y953099D1*
X3677520Y947315D1*
X3674408Y941757D1*
X3670868Y936460D1*
X3666925Y931458D1*
X3662601Y926780D1*
X3657923Y922456D1*
X3652920Y918512D1*
X3647624Y914973D1*
X3642066Y911860D1*
X3636281Y909194D1*
X3630305Y906989D1*
X3624174Y905260D1*
X3617926Y904017D1*
X3611600Y903268D1*
X3605235Y903018D1*
X3598870Y903268D1*
X3592544Y904017D1*
X3586296Y905260D1*
X3580165Y906989D1*
X3574189Y909194D1*
X3568404Y911860D1*
X3562846Y914973D1*
X3555302Y920284D1*
X3547624Y914973D1*
X3542066Y911860D1*
X3536281Y909194D1*
X3530305Y906989D1*
X3524174Y905260D1*
X3517926Y904017D1*
X3511600Y903268D1*
X3505235Y903018D1*
X3498870Y903268D1*
X3492544Y904017D1*
X3486296Y905260D1*
X3480165Y906989D1*
X3474189Y909194D1*
X3468404Y911860D1*
X3462846Y914973D1*
X3455302Y920284D1*
X3447756Y915054D1*
X3439677Y910692D1*
X3431157Y907271D1*
X3422305Y904834D1*
X3413234Y903413D1*
X3404061Y903027D1*
X3394903Y903679D1*
X3385877Y905362D1*
X3377099Y908053D1*
X3368681Y911720D1*
X3360732Y916314D1*
X3355237Y920262D1*
X3347756Y915054D1*
X3339677Y910692D1*
X3331157Y907271D1*
X3322305Y904834D1*
X3313234Y903413D1*
X3304061Y903027D1*
X3294903Y903679D1*
X3285877Y905362D1*
X3277099Y908053D1*
X3268681Y911720D1*
X3260732Y916314D1*
X3253352Y921777D1*
X3246637Y928039D1*
X3240673Y935019D1*
X3235536Y942628D1*
X3231291Y950770D1*
X3227993Y959339D1*
X3225685Y968225D1*
X3224395Y977316D1*
X3224141Y986493D1*
X3224926Y995641D1*
X3226739Y1004642D1*
X3229558Y1013380D1*
X3233346Y1021744D1*
X3238054Y1029626D1*
X3243623Y1036925D1*
X3249982Y1043549D1*
X3257048Y1049412D1*
X3264731Y1054439D1*
X3272933Y1058565D1*
X3281548Y1061738D1*
X3290467Y1063918D1*
X3299575Y1065076D1*
X3308756Y1065197D1*
X3317892Y1064280D1*
X3326865Y1062337D1*
X3335561Y1059392D1*
X3343869Y1055483D1*
X3351682Y1050661D1*
X3355228Y1048033D1*
X3363149Y1053503D1*
X3371256Y1057814D1*
X3379797Y1061182D1*
X3388665Y1063563D1*
X3397744Y1064927D1*
X3406920Y1065256D1*
X3416074Y1064546D1*
X3425089Y1062806D1*
X3433850Y1060059D1*
X3442244Y1056340D1*
X3447725Y1053250D1*
X3447907Y2013860D1*
X3449318Y2022772D1*
X3452107Y2031354D1*
X3456203Y2039394D1*
X3461507Y2046695D1*
X3477564Y2063002D1*
X3516716Y2102154D1*
X3516952Y2108307D1*
X3517701Y2114633D1*
X3518943Y2120881D1*
X3520673Y2127012D1*
X3522877Y2132988D1*
X3525544Y2138773D1*
X3528657Y2144331D1*
X3532196Y2149628D1*
X3536140Y2154630D1*
X3540464Y2159308D1*
X3545141Y2163632D1*
X3550144Y2167576D1*
X3555440Y2171115D1*
X3560998Y2174227D1*
X3566783Y2176894D1*
X3572760Y2179099D1*
X3578891Y2180828D1*
X3585138Y2182071D1*
X3591464Y2182820D1*
X3597829Y2183070D1*
X3604195Y2182820D1*
X3610521Y2182071D1*
X3616768Y2180828D1*
X3622899Y2179099D1*
X3628876Y2176894D1*
X3634661Y2174227D1*
X3640218Y2171115D1*
X3645515Y2167576D1*
X3650518Y2163632D1*
X3655195Y2159308D1*
X3659519Y2154630D1*
X3663463Y2149628D1*
X3667002Y2144331D1*
X3670115Y2138773D1*
X3672781Y2132988D1*
X3674986Y2127012D1*
X3676715Y2120881D1*
X3677958Y2114633D1*
X3678707Y2108307D1*
X3678957Y2101942D1*
X3678707Y2095577D1*
X3677958Y2089251D1*
X3676715Y2083003D1*
X3674986Y2076872D1*
X3672781Y2070896D1*
X3670115Y2065111D1*
X3667002Y2059553D1*
X3663463Y2054257D1*
X3659519Y2049254D1*
X3655195Y2044576D1*
X3650518Y2040252D1*
X3645515Y2036309D1*
X3640218Y2032770D1*
X3634661Y2029657D1*
X3628876Y2026990D1*
X3622899Y2024785D1*
X3616768Y2023056D1*
X3610521Y2021814D1*
X3604195Y2021065D1*
X3598053Y2020823D1*
X3562751Y1985538D1*
X3562741Y1975078D1*
X3572760Y1979099D1*
X3578891Y1980828D1*
X3585138Y1982071D1*
X3591464Y1982820D1*
X3597829Y1983070D1*
X3604195Y1982820D1*
X3610521Y1982071D1*
X3616768Y1980828D1*
X3622899Y1979099D1*
X3628876Y1976894D1*
X3634661Y1974227D1*
X3640218Y1971115D1*
X3645515Y1967576D1*
X3650518Y1963632D1*
X3655195Y1959308D1*
X3659519Y1954630D1*
X3663463Y1949628D1*
X3667002Y1944331D1*
X3670115Y1938773D1*
X3672781Y1932988D1*
X3674986Y1927012D1*
X3676715Y1920881D1*
X3677958Y1914633D1*
X3678707Y1908307D1*
X3678957Y1901942D1*
X3678707Y1895577D1*
X3677958Y1889251D1*
X3676715Y1883003D1*
X3674986Y1876872D1*
X3672781Y1870896D1*
X3670115Y1865111D1*
X3667002Y1859553D1*
X3663463Y1854257D1*
X3659519Y1849254D1*
X3655195Y1844576D1*
X3650518Y1840252D1*
X3645515Y1836309D1*
X3640218Y1832770D1*
X3634661Y1829657D1*
X3628876Y1826990D1*
X3622899Y1824785D1*
X3616768Y1823056D1*
X3610521Y1821814D1*
X3604195Y1821065D1*
X3597829Y1820815D1*
X3591464Y1821065D1*
X3585138Y1821814D1*
X3578891Y1823056D1*
X3572760Y1824785D1*
X3562738Y1828855D1*
X3562741Y1775060D1*
X3572760Y1779099D1*
X3578891Y1780828D1*
X3585138Y1782071D1*
X3591464Y1782820D1*
X3597829Y1783070D1*
X3604195Y1782820D1*
X3610521Y1782071D1*
X3616768Y1780828D1*
X3622899Y1779099D1*
X3628876Y1776894D1*
X3634661Y1774227D1*
X3640218Y1771115D1*
X3645515Y1767576D1*
X3650518Y1763632D1*
X3655195Y1759308D1*
X3659519Y1754630D1*
X3663463Y1749628D1*
X3667002Y1744331D1*
X3670115Y1738773D1*
X3672781Y1732988D1*
X3674986Y1727012D1*
X3676715Y1720881D1*
X3677958Y1714633D1*
X3678707Y1708307D1*
X3678957Y1701942D1*
X3678707Y1695577D1*
X3677958Y1689251D1*
X3676715Y1683003D1*
X3674986Y1676872D1*
X3672781Y1670896D1*
X3670115Y1665111D1*
X3667002Y1659553D1*
X3663463Y1654257D1*
X3659519Y1649254D1*
X3655195Y1644576D1*
X3650518Y1640252D1*
X3645515Y1636309D1*
X3640218Y1632770D1*
X3634661Y1629657D1*
X3628876Y1626990D1*
X3622899Y1624785D1*
X3616768Y1623056D1*
X3610521Y1621814D1*
X3604195Y1621065D1*
X3597829Y1620815D1*
X3591464Y1621065D1*
X3585138Y1621814D1*
X3578891Y1623056D1*
X3572760Y1624785D1*
X3562738Y1628855D1*
X3562741Y1475068D1*
X3572760Y1479099D1*
X3578891Y1480828D1*
X3585138Y1482071D1*
X3591464Y1482820D1*
X3597829Y1483070D1*
X3604195Y1482820D1*
X3610521Y1482071D1*
X3616768Y1480828D1*
X3622899Y1479099D1*
X3628876Y1476894D1*
X3634661Y1474227D1*
X3640218Y1471115D1*
X3645515Y1467576D1*
X3650518Y1463632D1*
X3655195Y1459308D1*
X3659519Y1454630D1*
X3663463Y1449628D1*
X3667002Y1444331D1*
X3670115Y1438773D1*
X3672781Y1432988D1*
X3674986Y1427012D1*
X3676715Y1420881D1*
X3677958Y1414633D1*
X3678707Y1408307D1*
X3678957Y1401942D1*
X3678707Y1395577D1*
X3677958Y1389251D1*
X3676715Y1383003D1*
X3674986Y1376872D1*
X3672781Y1370896D1*
X3670115Y1365111D1*
X3667002Y1359553D1*
X3663463Y1354257D1*
X3659519Y1349254D1*
X3655195Y1344576D1*
X3650518Y1340252D1*
X3645515Y1336309D1*
X3640218Y1332770D1*
X3634661Y1329657D1*
X3628876Y1326990D1*
X3622899Y1324785D1*
X3616768Y1323056D1*
X3610521Y1321814D1*
X3604195Y1321065D1*
X3597829Y1320815D1*
X3591464Y1321065D1*
X3585138Y1321814D1*
X3578891Y1323056D1*
X3572760Y1324785D1*
X3562738Y1328855D1*
X3562741Y1235146D1*
X3565818Y1243999D1*
X3568485Y1249784D1*
X3571598Y1255342D1*
X3575137Y1260638D1*
X3579080Y1265641D1*
X3583404Y1270319D1*
X3588082Y1274643D1*
X3593085Y1278586D1*
X3598381Y1282125D1*
X3603939Y1285238D1*
X3609724Y1287905D1*
X3615701Y1290110D1*
X3621831Y1291839D1*
X3628079Y1293082D1*
X3634405Y1293830D1*
X3640770Y1294080D1*
X3647136Y1293830D1*
X3653461Y1293082D1*
X3659709Y1291839D1*
X3665840Y1290110D1*
X3671817Y1287905D1*
X3677601Y1285238D1*
X3683159Y1282125D1*
X3688456Y1278586D1*
X3693458Y1274643D1*
X3698136Y1270319D1*
X3702460Y1265641D1*
X3706404Y1260638D1*
X3709943Y1255342D1*
X3713056Y1249784D1*
X3715722Y1243999D1*
X3717927Y1238023D1*
X3719656Y1231892D1*
X3720899Y1225644D1*
X3721648Y1219318D1*
X3721898Y1212953D1*
X3721648Y1206588D1*
X4103450Y453389D2*
X4097783Y461896D1*
X4093352Y469941D1*
X4089549Y478300D1*
X4086396Y486926D1*
X4083911Y495768D1*
X4082109Y504773D1*
X4081000Y513890D1*
X4080590Y523065D1*
X4080883Y532245D1*
X4081876Y541375D1*
X4083564Y550403D1*
X4085937Y559275D1*
X4088980Y567940D1*
X4092676Y576347D1*
X4097004Y584448D1*
X4101939Y592194D1*
X4107450Y599541D1*
X4113507Y606445D1*
X4120073Y612866D1*
X4127111Y618766D1*
X4134579Y624112D1*
X4142433Y628872D1*
X4150628Y633018D1*
X4159116Y636525D1*
X4167847Y639374D1*
X4176770Y641548D1*
X4185834Y643033D1*
X4194984Y643822D1*
X4204167Y643910D1*
X4213331Y643295D1*
X4222421Y641983D1*
X4231384Y639980D1*
X4240168Y637298D1*
X4248721Y633952D1*
X4256993Y629964D1*
X4264937Y625354D1*
X4271648Y620741D1*
X4271653Y937595D1*
X4266925Y931458D1*
X4262601Y926780D1*
X4257923Y922456D1*
X4252920Y918512D1*
X4247624Y914973D1*
X4242066Y911860D1*
X4236281Y909194D1*
X4230305Y906989D1*
X4224174Y905260D1*
X4217926Y904017D1*
X4211600Y903268D1*
X4205235Y903018D1*
X4198870Y903268D1*
X4192544Y904017D1*
X4186296Y905260D1*
X4180165Y906989D1*
X4174189Y909194D1*
X4168404Y911860D1*
X4162846Y914973D1*
X4155302Y920284D1*
X4147624Y914973D1*
X4142066Y911860D1*
X4136281Y909194D1*
X4130305Y906989D1*
X4124174Y905260D1*
X4117926Y904017D1*
X4111600Y903268D1*
X4105235Y903018D1*
X4098870Y903268D1*
X4092544Y904017D1*
X4086296Y905260D1*
X4080165Y906989D1*
X4074189Y909194D1*
X4068404Y911860D1*
X4062846Y914973D1*
X4055302Y920284D1*
X4047756Y915054D1*
X4039677Y910692D1*
X4031157Y907271D1*
X4022305Y904834D1*
X4013234Y903413D1*
X4004061Y903027D1*
X3994903Y903679D1*
X3985877Y905362D1*
X3977099Y908053D1*
X3968681Y911720D1*
X3960732Y916314D1*
X3955237Y920262D1*
X3947756Y915054D1*
X3939677Y910692D1*
X3931157Y907271D1*
X3922305Y904834D1*
X3913234Y903413D1*
X3904061Y903027D1*
X3894903Y903679D1*
X3885877Y905362D1*
X3877099Y908053D1*
X3868681Y911720D1*
X3860732Y916314D1*
X3853352Y921777D1*
X3846637Y928039D1*
X3840673Y935019D1*
X3835536Y942628D1*
X3831291Y950770D1*
X3827993Y959339D1*
X3825685Y968225D1*
X3824395Y977316D1*
X3824141Y986493D1*
X3824926Y995641D1*
X3826739Y1004642D1*
X3829558Y1013380D1*
X3833346Y1021744D1*
X3838054Y1029626D1*
X3843623Y1036925D1*
X3849982Y1043549D1*
X3857048Y1049412D1*
X3864731Y1054439D1*
X3872933Y1058565D1*
X3881548Y1061738D1*
X3890467Y1063918D1*
X3899575Y1065076D1*
X3908756Y1065197D1*
X3917892Y1064280D1*
X3926865Y1062337D1*
X3935561Y1059392D1*
X3943869Y1055483D1*
X3951682Y1050661D1*
X3955228Y1048033D1*
X3963149Y1053503D1*
X3971256Y1057814D1*
X3979797Y1061182D1*
X3988665Y1063563D1*
X3997744Y1064927D1*
X4006920Y1065256D1*
X4016074Y1064546D1*
X4025089Y1062806D1*
X4033850Y1060059D1*
X4042244Y1056340D1*
X4050164Y1051696D1*
X4055228Y1048033D1*
X4062846Y1053318D1*
X4068404Y1056431D1*
X4074189Y1059098D1*
X4080165Y1061303D1*
X4086296Y1063032D1*
X4092544Y1064274D1*
X4098870Y1065023D1*
X4105235Y1065273D1*
X4111600Y1065023D1*
X4117926Y1064274D1*
X4124174Y1063032D1*
X4130305Y1061303D1*
X4136281Y1059098D1*
X4142066Y1056431D1*
X4147624Y1053318D1*
X4155168Y1048008D1*
X4162846Y1053318D1*
X4168404Y1056431D1*
X4174189Y1059098D1*
X4180165Y1061303D1*
X4186296Y1063032D1*
X4192544Y1064274D1*
X4198870Y1065023D1*
X4205235Y1065273D1*
X4211600Y1065023D1*
X4217926Y1064274D1*
X4224174Y1063032D1*
X4230305Y1061303D1*
X4236281Y1059098D1*
X4242066Y1056431D1*
X4247624Y1053318D1*
X4252920Y1049779D1*
X4257923Y1045836D1*
X4262601Y1041512D1*
X4266925Y1036834D1*
X4271656Y1030652D1*
X4271653Y2237535D1*
X4266925Y2231458D1*
X4262601Y2226780D1*
X4257923Y2222456D1*
X4252920Y2218512D1*
X4247624Y2214973D1*
X4242066Y2211860D1*
X4236281Y2209194D1*
X4230305Y2206989D1*
X4224174Y2205260D1*
X4217926Y2204017D1*
X4211600Y2203268D1*
X4205235Y2203018D1*
X4198870Y2203268D1*
X4192544Y2204017D1*
X4186296Y2205260D1*
X4180165Y2206989D1*
X4174189Y2209194D1*
X4168404Y2211860D1*
X4162846Y2214973D1*
X4155302Y2220284D1*
X4147624Y2214973D1*
X4142066Y2211860D1*
X4136281Y2209194D1*
X4130305Y2206989D1*
X4124174Y2205260D1*
X4117926Y2204017D1*
X4111600Y2203268D1*
X4105235Y2203018D1*
X4098870Y2203268D1*
X4092544Y2204017D1*
X4086296Y2205260D1*
X4080165Y2206989D1*
X4074189Y2209194D1*
X4068404Y2211860D1*
X4062846Y2214973D1*
X4055302Y2220284D1*
X4047756Y2215054D1*
X4039677Y2210692D1*
X4031157Y2207271D1*
X4022305Y2204834D1*
X4013234Y2203413D1*
X4004061Y2203027D1*
X3994903Y2203679D1*
X3985877Y2205362D1*
X3977099Y2208053D1*
X3968681Y2211720D1*
X3960732Y2216314D1*
X3955237Y2220262D1*
X3947756Y2215054D1*
X3939677Y2210692D1*
X3931157Y2207271D1*
X3922305Y2204834D1*
X3913234Y2203413D1*
X3904061Y2203027D1*
X3894903Y2203679D1*
X3885877Y2205362D1*
X3877099Y2208053D1*
X3868681Y2211720D1*
X3860732Y2216314D1*
X3853352Y2221777D1*
X3846637Y2228039D1*
X3840673Y2235019D1*
X3835536Y2242628D1*
X3831291Y2250770D1*
X3827993Y2259339D1*
X3825685Y2268225D1*
X3824395Y2277316D1*
X3824141Y2286493D1*
X3824926Y2295641D1*
X3826739Y2304642D1*
X3829558Y2313380D1*
X3833346Y2321744D1*
X3838054Y2329626D1*
X3843623Y2336925D1*
X3849982Y2343549D1*
X3857048Y2349412D1*
X3864731Y2354439D1*
X3872933Y2358565D1*
X3881548Y2361738D1*
X3890467Y2363918D1*
X3899575Y2365076D1*
X3908756Y2365197D1*
X3917892Y2364280D1*
X3926865Y2362337D1*
X3935561Y2359392D1*
X3943869Y2355483D1*
X3951682Y2350661D1*
X3955228Y2348033D1*
X3963149Y2353503D1*
X3971256Y2357814D1*
X3979797Y2361182D1*
X3988665Y2363563D1*
X3997744Y2364927D1*
X4006920Y2365256D1*
X4016074Y2364546D1*
X4025089Y2362806D1*
X4033850Y2360059D1*
X4042244Y2356340D1*
X4050164Y2351696D1*
X4055228Y2348033D1*
X4062846Y2353318D1*
X4068404Y2356431D1*
X4074189Y2359098D1*
X4080165Y2361303D1*
X4086296Y2363032D1*
X4092544Y2364274D1*
X4098870Y2365023D1*
X4105235Y2365273D1*
X4111600Y2365023D1*
X4117926Y2364274D1*
X4124174Y2363032D1*
X4130305Y2361303D1*
X4136281Y2359098D1*
X4142066Y2356431D1*
X4147624Y2353318D1*
X4155168Y2348008D1*
X4162846Y2353318D1*
X4168404Y2356431D1*
X4174189Y2359098D1*
X4180165Y2361303D1*
X4186296Y2363032D1*
X4192544Y2364274D1*
X4198870Y2365023D1*
X4205235Y2365273D1*
X4211600Y2365023D1*
X4217926Y2364274D1*
X4224174Y2363032D1*
X4230305Y2361303D1*
X4236281Y2359098D1*
X4242066Y2356431D1*
X4247624Y2353318D1*
X4252920Y2349779D1*
X4257923Y2345836D1*
X4262601Y2341512D1*
X4266925Y2336834D1*
X4271656Y2330652D1*
X4271653Y2421262D1*
X1363649Y2419817D1*
X1240752Y2421057D1*
X1240726Y1888510D1*
X1239809Y1883898D1*
X1237840Y1879629D1*
X1234930Y1875937D1*
X1231237Y1873026D1*
X1226968Y1871058D1*
X1222357Y1870140D1*
X954383Y1870079D1*
X453404D1*
X453386Y623044D1*
X460649Y628228D1*
X468504Y632988D1*
X476699Y637133D1*
X485187Y640641D1*
X493918Y643490D1*
X502841Y645663D1*
X511904Y647149D1*
X521055Y647938D1*
X530238Y648025D1*
X539402Y647411D1*
X548492Y646098D1*
X557455Y644095D1*
X566238Y641413D1*
X574792Y638068D1*
X583064Y634079D1*
X591008Y629470D1*
X598576Y624267D1*
X605725Y618502D1*
X612413Y612207D1*
X618600Y605419D1*
X624250Y598179D1*
X629331Y590528D1*
X633812Y582512D1*
X637668Y574176D1*
X640876Y565571D1*
X643418Y556745D1*
X645277Y547751D1*
X646444Y538642D1*
X646921Y527944D1*
X646570Y518766D1*
X645519Y509642D1*
X643774Y500626D1*
X641345Y491768D1*
X638247Y483123D1*
X634497Y474739D1*
X630118Y466666D1*
X625134Y458952D1*
X620901Y453382D1*
X4103441Y453386D1*
X1555413Y2220123D2*
X1548340Y2215229D1*
X1540261Y2210867D1*
X1531741Y2207446D1*
X1522889Y2205009D1*
X1513818Y2203588D1*
X1504645Y2203201D1*
X1495487Y2203853D1*
X1486461Y2205536D1*
X1477683Y2208228D1*
X1469265Y2211894D1*
X1461316Y2216488D1*
X1453936Y2221951D1*
X1447221Y2228213D1*
X1441257Y2235193D1*
X1436120Y2242803D1*
X1431875Y2250944D1*
X1428577Y2259513D1*
X1426269Y2268400D1*
X1424979Y2277490D1*
X1424725Y2286668D1*
X1425510Y2295816D1*
X1427323Y2304816D1*
X1430142Y2313555D1*
X1433930Y2321918D1*
X1438638Y2329800D1*
X1444207Y2337100D1*
X1450566Y2343724D1*
X1457632Y2349586D1*
X1465315Y2354613D1*
X1473517Y2358740D1*
X1482132Y2361913D1*
X1491051Y2364092D1*
X1500159Y2365250D1*
X1509340Y2365371D1*
X1518475Y2364454D1*
X1527449Y2362511D1*
X1536145Y2359566D1*
X1544453Y2355658D1*
X1552266Y2350836D1*
X1555631Y2348350D1*
X1563149Y2353503D1*
X1571256Y2357814D1*
X1579797Y2361182D1*
X1588665Y2363563D1*
X1597744Y2364927D1*
X1606920Y2365256D1*
X1616074Y2364546D1*
X1625089Y2362806D1*
X1633850Y2360059D1*
X1642244Y2356340D1*
X1650164Y2351696D1*
X1655228Y2348033D1*
X1662846Y2353318D1*
X1668404Y2356431D1*
X1674189Y2359098D1*
X1680165Y2361303D1*
X1686296Y2363032D1*
X1692544Y2364274D1*
X1698870Y2365023D1*
X1705235Y2365273D1*
X1711600Y2365023D1*
X1717926Y2364274D1*
X1724174Y2363032D1*
X1730305Y2361303D1*
X1736281Y2359098D1*
X1742066Y2356431D1*
X1747624Y2353318D1*
X1755168Y2348008D1*
X1762846Y2353318D1*
X1768404Y2356431D1*
X1774189Y2359098D1*
X1780165Y2361303D1*
X1786296Y2363032D1*
X1792544Y2364274D1*
X1798870Y2365023D1*
X1805235Y2365273D1*
X1811600Y2365023D1*
X1817926Y2364274D1*
X1824174Y2363032D1*
X1830305Y2361303D1*
X1836281Y2359098D1*
X1842066Y2356431D1*
X1847624Y2353318D1*
X1852920Y2349779D1*
X1857923Y2345836D1*
X1862601Y2341512D1*
X1866925Y2336834D1*
X1870868Y2331831D1*
X1874408Y2326535D1*
X1877520Y2320977D1*
X1880187Y2315192D1*
X1882392Y2309215D1*
X1884121Y2303085D1*
X1885364Y2296837D1*
X1886112Y2290511D1*
X1886362Y2284146D1*
X1886112Y2277780D1*
X1885364Y2271455D1*
X1884121Y2265207D1*
X1882392Y2259076D1*
X1880187Y2253099D1*
X1877520Y2247315D1*
X1874408Y2241757D1*
X1870868Y2236460D1*
X1866925Y2231458D1*
X1862601Y2226780D1*
X1857923Y2222456D1*
X1852920Y2218512D1*
X1847624Y2214973D1*
X1842066Y2211860D1*
X1836281Y2209194D1*
X1830305Y2206989D1*
X1824174Y2205260D1*
X1817926Y2204017D1*
X1811600Y2203268D1*
X1805235Y2203018D1*
X1798870Y2203268D1*
X1792544Y2204017D1*
X1786296Y2205260D1*
X1780165Y2206989D1*
X1774189Y2209194D1*
X1768404Y2211860D1*
X1762846Y2214973D1*
X1755302Y2220284D1*
X1747624Y2214973D1*
X1742066Y2211860D1*
X1736281Y2209194D1*
X1730305Y2206989D1*
X1724174Y2205260D1*
X1717926Y2204017D1*
X1711600Y2203268D1*
X1705235Y2203018D1*
X1698870Y2203268D1*
X1692544Y2204017D1*
X1686296Y2205260D1*
X1680165Y2206989D1*
X1674189Y2209194D1*
X1668404Y2211860D1*
X1662846Y2214973D1*
X1655302Y2220284D1*
X1647756Y2215054D1*
X1639677Y2210692D1*
X1631157Y2207271D1*
X1622305Y2204834D1*
X1613234Y2203413D1*
X1604061Y2203027D1*
X1594903Y2203679D1*
X1585877Y2205362D1*
X1577099Y2208053D1*
X1568681Y2211720D1*
X1560732Y2216314D1*
X1555419Y2220121D1*
X2155240Y2220262D2*
X2147756Y2215054D1*
X2139677Y2210692D1*
X2131157Y2207271D1*
X2122305Y2204834D1*
X2113234Y2203413D1*
X2104061Y2203027D1*
X2094903Y2203679D1*
X2085877Y2205362D1*
X2077099Y2208053D1*
X2068681Y2211720D1*
X2060732Y2216314D1*
X2053352Y2221777D1*
X2046637Y2228039D1*
X2040673Y2235019D1*
X2035536Y2242628D1*
X2031291Y2250770D1*
X2027993Y2259339D1*
X2025685Y2268225D1*
X2024395Y2277316D1*
X2024141Y2286493D1*
X2024926Y2295641D1*
X2026739Y2304642D1*
X2029558Y2313380D1*
X2033346Y2321744D1*
X2038054Y2329626D1*
X2043623Y2336925D1*
X2049982Y2343549D1*
X2057048Y2349412D1*
X2064731Y2354439D1*
X2072933Y2358565D1*
X2081548Y2361738D1*
X2090467Y2363918D1*
X2099575Y2365076D1*
X2108756Y2365197D1*
X2117892Y2364280D1*
X2126865Y2362337D1*
X2135561Y2359392D1*
X2143869Y2355483D1*
X2151682Y2350661D1*
X2155228Y2348033D1*
X2163149Y2353503D1*
X2171256Y2357814D1*
X2179797Y2361182D1*
X2188665Y2363563D1*
X2197744Y2364927D1*
X2206920Y2365256D1*
X2216074Y2364546D1*
X2225089Y2362806D1*
X2233850Y2360059D1*
X2242244Y2356340D1*
X2250164Y2351696D1*
X2255228Y2348033D1*
X2262846Y2353318D1*
X2268404Y2356431D1*
X2274189Y2359098D1*
X2280165Y2361303D1*
X2286296Y2363032D1*
X2292544Y2364274D1*
X2298870Y2365023D1*
X2305235Y2365273D1*
X2311600Y2365023D1*
X2317926Y2364274D1*
X2324174Y2363032D1*
X2330305Y2361303D1*
X2336281Y2359098D1*
X2342066Y2356431D1*
X2347624Y2353318D1*
X2355168Y2348008D1*
X2362846Y2353318D1*
X2368404Y2356431D1*
X2374189Y2359098D1*
X2380165Y2361303D1*
X2386296Y2363032D1*
X2392544Y2364274D1*
X2398870Y2365023D1*
X2405235Y2365273D1*
X2411600Y2365023D1*
X2417926Y2364274D1*
X2424174Y2363032D1*
X2430305Y2361303D1*
X2436281Y2359098D1*
X2442066Y2356431D1*
X2447624Y2353318D1*
X2452920Y2349779D1*
X2457923Y2345836D1*
X2462601Y2341512D1*
X2466925Y2336834D1*
X2470868Y2331831D1*
X2474408Y2326535D1*
X2477520Y2320977D1*
X2480187Y2315192D1*
X2482392Y2309215D1*
X2484121Y2303085D1*
X2485364Y2296837D1*
X2486112Y2290511D1*
X2486362Y2284146D1*
X2486112Y2277780D1*
X2485364Y2271455D1*
X2484121Y2265207D1*
X2482392Y2259076D1*
X2480187Y2253099D1*
X2477520Y2247315D1*
X2474408Y2241757D1*
X2470868Y2236460D1*
X2466925Y2231458D1*
X2462601Y2226780D1*
X2457923Y2222456D1*
X2452920Y2218512D1*
X2447624Y2214973D1*
X2442066Y2211860D1*
X2436281Y2209194D1*
X2430305Y2206989D1*
X2424174Y2205260D1*
X2417926Y2204017D1*
X2411600Y2203268D1*
X2405235Y2203018D1*
X2398870Y2203268D1*
X2392544Y2204017D1*
X2386296Y2205260D1*
X2380165Y2206989D1*
X2374189Y2209194D1*
X2368404Y2211860D1*
X2362846Y2214973D1*
X2355302Y2220284D1*
X2347624Y2214973D1*
X2342066Y2211860D1*
X2336281Y2209194D1*
X2330305Y2206989D1*
X2324174Y2205260D1*
X2317926Y2204017D1*
X2311600Y2203268D1*
X2305235Y2203018D1*
X2298870Y2203268D1*
X2292544Y2204017D1*
X2286296Y2205260D1*
X2280165Y2206989D1*
X2274189Y2209194D1*
X2268404Y2211860D1*
X2262846Y2214973D1*
X2255302Y2220284D1*
X2247756Y2215054D1*
X2239677Y2210692D1*
X2231157Y2207271D1*
X2222305Y2204834D1*
X2213234Y2203413D1*
X2204061Y2203027D1*
X2194903Y2203679D1*
X2185877Y2205362D1*
X2177099Y2208053D1*
X2168681Y2211720D1*
X2160732Y2216314D1*
X2155237Y2220262D1*
X2755240D2*
X2747756Y2215054D1*
X2739677Y2210692D1*
X2731157Y2207271D1*
X2722305Y2204834D1*
X2713234Y2203413D1*
X2704061Y2203027D1*
X2694903Y2203679D1*
X2685877Y2205362D1*
X2677099Y2208053D1*
X2668681Y2211720D1*
X2660732Y2216314D1*
X2653352Y2221777D1*
X2646637Y2228039D1*
X2640673Y2235019D1*
X2635536Y2242628D1*
X2631291Y2250770D1*
X2627993Y2259339D1*
X2625685Y2268225D1*
X2624395Y2277316D1*
X2624141Y2286493D1*
X2624926Y2295641D1*
X2626739Y2304642D1*
X2629558Y2313380D1*
X2633346Y2321744D1*
X2638054Y2329626D1*
X2643623Y2336925D1*
X2649982Y2343549D1*
X2657048Y2349412D1*
X2664731Y2354439D1*
X2672933Y2358565D1*
X2681548Y2361738D1*
X2690467Y2363918D1*
X2699575Y2365076D1*
X2708756Y2365197D1*
X2717892Y2364280D1*
X2726865Y2362337D1*
X2735561Y2359392D1*
X2743869Y2355483D1*
X2751682Y2350661D1*
X2755228Y2348033D1*
X2763149Y2353503D1*
X2771256Y2357814D1*
X2779797Y2361182D1*
X2788665Y2363563D1*
X2797744Y2364927D1*
X2806920Y2365256D1*
X2816074Y2364546D1*
X2825089Y2362806D1*
X2833850Y2360059D1*
X2842244Y2356340D1*
X2850164Y2351696D1*
X2855228Y2348033D1*
X2862846Y2353318D1*
X2868404Y2356431D1*
X2874189Y2359098D1*
X2880165Y2361303D1*
X2886296Y2363032D1*
X2892544Y2364274D1*
X2898870Y2365023D1*
X2905235Y2365273D1*
X2911600Y2365023D1*
X2917926Y2364274D1*
X2924174Y2363032D1*
X2930305Y2361303D1*
X2936281Y2359098D1*
X2942066Y2356431D1*
X2947624Y2353318D1*
X2955168Y2348008D1*
X2962846Y2353318D1*
X2968404Y2356431D1*
X2974189Y2359098D1*
X2980165Y2361303D1*
X2986296Y2363032D1*
X2992544Y2364274D1*
X2998870Y2365023D1*
X3005235Y2365273D1*
X3011600Y2365023D1*
X3017926Y2364274D1*
X3024174Y2363032D1*
X3030305Y2361303D1*
X3036281Y2359098D1*
X3042066Y2356431D1*
X3047624Y2353318D1*
X3052920Y2349779D1*
X3057923Y2345836D1*
X3062601Y2341512D1*
X3066925Y2336834D1*
X3070868Y2331831D1*
X3074408Y2326535D1*
X3077520Y2320977D1*
X3080187Y2315192D1*
X3082392Y2309215D1*
X3084121Y2303085D1*
X3085364Y2296837D1*
X3086112Y2290511D1*
X3086362Y2284146D1*
X3086112Y2277780D1*
X3085364Y2271455D1*
X3084121Y2265207D1*
X3082392Y2259076D1*
X3080187Y2253099D1*
X3077520Y2247315D1*
X3074408Y2241757D1*
X3070868Y2236460D1*
X3066925Y2231458D1*
X3062601Y2226780D1*
X3057923Y2222456D1*
X3052920Y2218512D1*
X3047624Y2214973D1*
X3042066Y2211860D1*
X3036281Y2209194D1*
X3030305Y2206989D1*
X3024174Y2205260D1*
X3017926Y2204017D1*
X3011600Y2203268D1*
X3005235Y2203018D1*
X2998870Y2203268D1*
X2992544Y2204017D1*
X2986296Y2205260D1*
X2980165Y2206989D1*
X2974189Y2209194D1*
X2968404Y2211860D1*
X2962846Y2214973D1*
X2955302Y2220284D1*
X2947624Y2214973D1*
X2942066Y2211860D1*
X2936281Y2209194D1*
X2930305Y2206989D1*
X2924174Y2205260D1*
X2917926Y2204017D1*
X2911600Y2203268D1*
X2905235Y2203018D1*
X2898870Y2203268D1*
X2892544Y2204017D1*
X2886296Y2205260D1*
X2880165Y2206989D1*
X2874189Y2209194D1*
X2868404Y2211860D1*
X2862846Y2214973D1*
X2855302Y2220284D1*
X2847756Y2215054D1*
X2839677Y2210692D1*
X2831157Y2207271D1*
X2822305Y2204834D1*
X2813234Y2203413D1*
X2804061Y2203027D1*
X2794903Y2203679D1*
X2785877Y2205362D1*
X2777099Y2208053D1*
X2768681Y2211720D1*
X2760732Y2216314D1*
X2755237Y2220262D1*
X3355240D2*
X3347756Y2215054D1*
X3339677Y2210692D1*
X3331157Y2207271D1*
X3322305Y2204834D1*
X3313234Y2203413D1*
X3304061Y2203027D1*
X3294903Y2203679D1*
X3285877Y2205362D1*
X3277099Y2208053D1*
X3268681Y2211720D1*
X3260732Y2216314D1*
X3253352Y2221777D1*
X3246637Y2228039D1*
X3240673Y2235019D1*
X3235536Y2242628D1*
X3231291Y2250770D1*
X3227993Y2259339D1*
X3225685Y2268225D1*
X3224395Y2277316D1*
X3224141Y2286493D1*
X3224926Y2295641D1*
X3226739Y2304642D1*
X3229558Y2313380D1*
X3233346Y2321744D1*
X3238054Y2329626D1*
X3243623Y2336925D1*
X3249982Y2343549D1*
X3257048Y2349412D1*
X3264731Y2354439D1*
X3272933Y2358565D1*
X3281548Y2361738D1*
X3290467Y2363918D1*
X3299575Y2365076D1*
X3308756Y2365197D1*
X3317892Y2364280D1*
X3326865Y2362337D1*
X3335561Y2359392D1*
X3343869Y2355483D1*
X3351682Y2350661D1*
X3355228Y2348033D1*
X3363149Y2353503D1*
X3371256Y2357814D1*
X3379797Y2361182D1*
X3388665Y2363563D1*
X3397744Y2364927D1*
X3406920Y2365256D1*
X3416074Y2364546D1*
X3425089Y2362806D1*
X3433850Y2360059D1*
X3442244Y2356340D1*
X3450164Y2351696D1*
X3455228Y2348033D1*
X3462846Y2353318D1*
X3468404Y2356431D1*
X3474189Y2359098D1*
X3480165Y2361303D1*
X3486296Y2363032D1*
X3492544Y2364274D1*
X3498870Y2365023D1*
X3505235Y2365273D1*
X3511600Y2365023D1*
X3517926Y2364274D1*
X3524174Y2363032D1*
X3530305Y2361303D1*
X3536281Y2359098D1*
X3542066Y2356431D1*
X3547624Y2353318D1*
X3555168Y2348008D1*
X3562846Y2353318D1*
X3568404Y2356431D1*
X3574189Y2359098D1*
X3580165Y2361303D1*
X3586296Y2363032D1*
X3592544Y2364274D1*
X3598870Y2365023D1*
X3605235Y2365273D1*
X3611600Y2365023D1*
X3617926Y2364274D1*
X3624174Y2363032D1*
X3630305Y2361303D1*
X3636281Y2359098D1*
X3642066Y2356431D1*
X3647624Y2353318D1*
X3652920Y2349779D1*
X3657923Y2345836D1*
X3662601Y2341512D1*
X3666925Y2336834D1*
X3670868Y2331831D1*
X3674408Y2326535D1*
X3677520Y2320977D1*
X3680187Y2315192D1*
X3682392Y2309215D1*
X3684121Y2303085D1*
X3685364Y2296837D1*
X3686112Y2290511D1*
X3686362Y2284146D1*
X3686112Y2277780D1*
X3685364Y2271455D1*
X3684121Y2265207D1*
X3682392Y2259076D1*
X3680187Y2253099D1*
X3677520Y2247315D1*
X3674408Y2241757D1*
X3670868Y2236460D1*
X3666925Y2231458D1*
X3662601Y2226780D1*
X3657923Y2222456D1*
X3652920Y2218512D1*
X3647624Y2214973D1*
X3642066Y2211860D1*
X3636281Y2209194D1*
X3630305Y2206989D1*
X3624174Y2205260D1*
X3617926Y2204017D1*
X3611600Y2203268D1*
X3605235Y2203018D1*
X3598870Y2203268D1*
X3592544Y2204017D1*
X3586296Y2205260D1*
X3580165Y2206989D1*
X3574189Y2209194D1*
X3568404Y2211860D1*
X3562846Y2214973D1*
X3555302Y2220284D1*
X3547624Y2214973D1*
X3542066Y2211860D1*
X3536281Y2209194D1*
X3530305Y2206989D1*
X3524174Y2205260D1*
X3517926Y2204017D1*
X3511600Y2203268D1*
X3505235Y2203018D1*
X3498870Y2203268D1*
X3492544Y2204017D1*
X3486296Y2205260D1*
X3480165Y2206989D1*
X3474189Y2209194D1*
X3468404Y2211860D1*
X3462846Y2214973D1*
X3455302Y2220284D1*
X3447756Y2215054D1*
X3439677Y2210692D1*
X3431157Y2207271D1*
X3422305Y2204834D1*
X3413234Y2203413D1*
X3404061Y2203027D1*
X3394903Y2203679D1*
X3385877Y2205362D1*
X3377099Y2208053D1*
X3368681Y2211720D1*
X3360732Y2216314D1*
X3355237Y2220262D1*
X4268490Y1666978D2*
X4267765Y1655983D1*
X4265959Y1645112D1*
X4263090Y1634473D1*
X4259186Y1624169D1*
X4254285Y1614300D1*
X4248434Y1604962D1*
X4241691Y1596247D1*
X4234121Y1588240D1*
X4225798Y1581018D1*
X4216804Y1574652D1*
X4207226Y1569204D1*
X4206448Y1568819D1*
X4215785Y1563619D1*
X4224848Y1557350D1*
X4233248Y1550218D1*
X4240903Y1542293D1*
X4247740Y1533651D1*
X4253691Y1524377D1*
X4258699Y1514561D1*
X4262714Y1504300D1*
X4265697Y1493692D1*
X4267620Y1482842D1*
X4268464Y1471855D1*
X4268264Y1461471D1*
X4266997Y1450525D1*
X4264656Y1439757D1*
X4261265Y1429273D1*
X4256857Y1419174D1*
X4251474Y1409559D1*
X4245170Y1400522D1*
X4238005Y1392150D1*
X4230049Y1384526D1*
X4221380Y1377724D1*
X4212083Y1371810D1*
X4202247Y1366841D1*
X4191970Y1362867D1*
X4181350Y1359925D1*
X4170493Y1358045D1*
X4159503Y1357245D1*
X4148487Y1357533D1*
X4137554Y1358906D1*
X4126809Y1361350D1*
X4116358Y1364842D1*
X4106302Y1369347D1*
X4096740Y1374822D1*
X4087764Y1381214D1*
X4079462Y1388459D1*
X4071915Y1396488D1*
X4065196Y1405223D1*
X4059372Y1414577D1*
X4056857Y1419174D1*
X4051474Y1409559D1*
X4045170Y1400522D1*
X4038005Y1392150D1*
X4030049Y1384526D1*
X4021380Y1377724D1*
X4012083Y1371810D1*
X4002247Y1366841D1*
X3991970Y1362867D1*
X3981350Y1359925D1*
X3970493Y1358045D1*
X3959503Y1357245D1*
X3948487Y1357533D1*
X3937554Y1358906D1*
X3926809Y1361350D1*
X3916358Y1364842D1*
X3906302Y1369347D1*
X3896740Y1374822D1*
X3887764Y1381214D1*
X3879462Y1388459D1*
X3871915Y1396488D1*
X3865196Y1405223D1*
X3859372Y1414577D1*
X3854499Y1424460D1*
X3850624Y1434775D1*
X3847785Y1445422D1*
X3846010Y1456297D1*
X3845316Y1467295D1*
X3845710Y1478307D1*
X3847188Y1489226D1*
X3849736Y1499947D1*
X3853328Y1510364D1*
X3857931Y1520376D1*
X3863498Y1529885D1*
X3869976Y1538799D1*
X3877301Y1547031D1*
X3885403Y1554500D1*
X3894201Y1561134D1*
X3903611Y1566867D1*
X3907364Y1568812D1*
X3898295Y1573845D1*
X3889215Y1580088D1*
X3880795Y1587195D1*
X3873117Y1595099D1*
X3866256Y1603722D1*
X3860278Y1612978D1*
X3855243Y1622780D1*
X3851198Y1633030D1*
X3848185Y1643629D1*
X3846231Y1654473D1*
X3845356Y1665458D1*
X3845569Y1676475D1*
X3846867Y1687417D1*
X3849238Y1698178D1*
X3852658Y1708653D1*
X3857095Y1718740D1*
X3862505Y1728339D1*
X3868835Y1737359D1*
X3876024Y1745710D1*
X3884002Y1753311D1*
X3892690Y1760089D1*
X3902004Y1765977D1*
X3911854Y1770917D1*
X3922142Y1774863D1*
X3932770Y1777774D1*
X3943633Y1779623D1*
X3954625Y1780392D1*
X3965640Y1780073D1*
X3976569Y1778669D1*
X3987307Y1776194D1*
X3997748Y1772673D1*
X4007791Y1768139D1*
X4017338Y1762636D1*
X4026296Y1756219D1*
X4034577Y1748950D1*
X4042101Y1740900D1*
X4048795Y1732147D1*
X4054593Y1722776D1*
X4056903Y1718356D1*
X4061538Y1726777D1*
X4067719Y1735899D1*
X4074769Y1744368D1*
X4082621Y1752100D1*
X4091196Y1759019D1*
X4100412Y1765060D1*
X4110179Y1770162D1*
X4120401Y1774276D1*
X4130979Y1777362D1*
X4141810Y1779389D1*
X4152789Y1780339D1*
X4163807Y1780201D1*
X4174758Y1778978D1*
X4185535Y1776680D1*
X4196033Y1773331D1*
X4206149Y1768963D1*
X4215785Y1763619D1*
X4224848Y1757350D1*
X4233248Y1750218D1*
X4240903Y1742293D1*
X4247740Y1733651D1*
X4253691Y1724377D1*
X4258699Y1714561D1*
X4262714Y1704300D1*
X4265697Y1693692D1*
X4267620Y1682842D1*
X4268464Y1671855D1*
X4268490Y1666978D1*
X610840Y828428D2*
X604375Y824092D1*
X596271Y819776D1*
X587745Y816369D1*
X578898Y813911D1*
X569836Y812433D1*
X560667Y811951D1*
X551500Y812472D1*
X542444Y813989D1*
X533608Y816484D1*
X525097Y819928D1*
X517011Y824279D1*
X509448Y829485D1*
X502498Y835485D1*
X496243Y842207D1*
X490758Y849571D1*
X486109Y857488D1*
X482350Y865865D1*
X479528Y874603D1*
X477674Y883595D1*
X476812Y892736D1*
X476951Y901917D1*
X478091Y911028D1*
X480217Y919960D1*
X483304Y928608D1*
X487315Y936867D1*
X492203Y944640D1*
X493226Y946052D1*
X489139Y952108D1*
X485913Y957869D1*
X483148Y963866D1*
X480863Y970062D1*
X479070Y976417D1*
X477782Y982894D1*
X477006Y989451D1*
X476746Y996050D1*
X477006Y1002648D1*
X477782Y1009206D1*
X479070Y1015683D1*
X480863Y1022038D1*
X483148Y1028234D1*
X485913Y1034230D1*
X489139Y1039992D1*
X493239Y1046030D1*
X489139Y1052108D1*
X485913Y1057869D1*
X483148Y1063866D1*
X480863Y1070062D1*
X479070Y1076417D1*
X477782Y1082894D1*
X477006Y1089451D1*
X476746Y1096050D1*
X477006Y1102648D1*
X477782Y1109206D1*
X479070Y1115683D1*
X480863Y1122038D1*
X483148Y1128234D1*
X485913Y1134230D1*
X489139Y1139992D1*
X493239Y1146030D1*
X489139Y1152109D1*
X485913Y1157871D1*
X483148Y1163868D1*
X480863Y1170063D1*
X479070Y1176418D1*
X477782Y1182895D1*
X477006Y1189453D1*
X476746Y1196051D1*
X477006Y1202650D1*
X477782Y1209207D1*
X479070Y1215684D1*
X480863Y1222040D1*
X483148Y1228235D1*
X485913Y1234232D1*
X489139Y1239993D1*
X493239Y1246031D1*
X489139Y1252108D1*
X485913Y1257869D1*
X483148Y1263866D1*
X480863Y1270062D1*
X479070Y1276417D1*
X477782Y1282894D1*
X477006Y1289451D1*
X476746Y1296050D1*
X477006Y1302648D1*
X477782Y1309206D1*
X479070Y1315683D1*
X480863Y1322038D1*
X483148Y1328234D1*
X485913Y1334230D1*
X489139Y1339992D1*
X492808Y1345483D1*
X496896Y1350668D1*
X501379Y1355518D1*
X506228Y1360000D1*
X511414Y1364088D1*
X516904Y1367757D1*
X522666Y1370984D1*
X528663Y1373748D1*
X534858Y1376034D1*
X541214Y1377826D1*
X547690Y1379114D1*
X554248Y1379891D1*
X560846Y1380150D1*
X567445Y1379891D1*
X574003Y1379114D1*
X580479Y1377826D1*
X586835Y1376034D1*
X593030Y1373748D1*
X599027Y1370984D1*
X604789Y1367757D1*
X610826Y1363657D1*
X616904Y1367757D1*
X622666Y1370984D1*
X628663Y1373748D1*
X634858Y1376034D1*
X641214Y1377826D1*
X647690Y1379114D1*
X654248Y1379891D1*
X660846Y1380150D1*
X667445Y1379891D1*
X674003Y1379114D1*
X680479Y1377826D1*
X686835Y1376034D1*
X693030Y1373748D1*
X699027Y1370984D1*
X704789Y1367757D1*
X710279Y1364088D1*
X715465Y1360000D1*
X720314Y1355518D1*
X724797Y1350668D1*
X728885Y1345483D1*
X732553Y1339992D1*
X735780Y1334230D1*
X738545Y1328234D1*
X740830Y1322038D1*
X742623Y1315683D1*
X743911Y1309206D1*
X744687Y1302648D1*
X744946Y1296050D1*
X744687Y1289451D1*
X743911Y1282894D1*
X742623Y1276417D1*
X740830Y1270062D1*
X738545Y1263866D1*
X735780Y1257869D1*
X732553Y1252108D1*
X728454Y1246070D1*
X732553Y1239993D1*
X735780Y1234232D1*
X738545Y1228235D1*
X740830Y1222040D1*
X742623Y1215684D1*
X743911Y1209207D1*
X744687Y1202650D1*
X744946Y1196051D1*
X744687Y1189453D1*
X743911Y1182895D1*
X742623Y1176418D1*
X740830Y1170063D1*
X738545Y1163868D1*
X735780Y1157871D1*
X732553Y1152109D1*
X728454Y1146071D1*
X732553Y1139992D1*
X735780Y1134230D1*
X738545Y1128234D1*
X740830Y1122038D1*
X742623Y1115683D1*
X743911Y1109206D1*
X744687Y1102648D1*
X744946Y1096050D1*
X744687Y1089451D1*
X743911Y1082894D1*
X742623Y1076417D1*
X740830Y1070062D1*
X738545Y1063866D1*
X735780Y1057869D1*
X732553Y1052108D1*
X728454Y1046070D1*
X732553Y1039992D1*
X735780Y1034230D1*
X738545Y1028234D1*
X740830Y1022038D1*
X742623Y1015683D1*
X743911Y1009206D1*
X744687Y1002648D1*
X744946Y996050D1*
X744687Y989451D1*
X743911Y982894D1*
X742623Y976417D1*
X740830Y970062D1*
X738545Y963866D1*
X733373Y953571D1*
X781381Y953557D1*
X1007070Y1179213D1*
X1007063Y1441993D1*
X1003519Y1447209D1*
X998418Y1457219D1*
X994947Y1467905D1*
X993189Y1479002D1*
Y1490237D1*
X994947Y1501334D1*
X998418Y1512020D1*
X1003519Y1522030D1*
X1010123Y1531120D1*
X1018068Y1539064D1*
X1027157Y1545668D1*
X1037168Y1550769D1*
X1047854Y1554241D1*
X1058951Y1555999D1*
X1070186D1*
X1081283Y1554241D1*
X1091968Y1550769D1*
X1101979Y1545668D1*
X1111069Y1539064D1*
X1119013Y1531120D1*
X1125617Y1522030D1*
X1130718Y1512020D1*
X1134190Y1501334D1*
X1135948Y1490237D1*
Y1479002D1*
X1134190Y1467905D1*
X1130718Y1457219D1*
X1125617Y1447209D1*
X1122072Y1441999D1*
X1121897Y1150874D1*
X1120485Y1141961D1*
X1117696Y1133379D1*
X1113600Y1125339D1*
X1108296Y1118039D1*
X1092239Y1101732D1*
X842580Y852324D1*
X835280Y847020D1*
X827240Y842923D1*
X818658Y840134D1*
X809745Y838723D1*
X786861Y838546D1*
X722233D1*
X715465Y832101D1*
X710279Y828013D1*
X704789Y824344D1*
X699027Y821118D1*
X693030Y818353D1*
X686835Y816067D1*
X680479Y814275D1*
X674003Y812987D1*
X667445Y812210D1*
X660846Y811951D1*
X654248Y812210D1*
X647690Y812987D1*
X641214Y814275D1*
X634858Y816067D1*
X628663Y818353D1*
X622666Y821118D1*
X616904Y824344D1*
X610867Y828444D1*
X3529846Y828688D2*
X3542415Y815893D1*
X3547175Y809343D1*
X3550851Y802128D1*
X3553353Y794428D1*
X3554620Y786430D1*
X3554779Y754823D1*
X3554620Y719278D1*
X3553353Y711281D1*
X3550851Y703580D1*
X3547175Y696366D1*
X3542415Y689815D1*
X3529823Y676997D1*
X3523666Y671739D1*
X3516762Y667508D1*
X3509281Y664410D1*
X3501408Y662519D1*
X3493320Y661885D1*
X3469602Y662043D1*
X3461605Y663310D1*
X3457691Y664415D1*
X3450135Y663854D1*
X3439086Y662104D1*
X3427900D1*
X3416852Y663854D1*
X3408573Y666440D1*
X3401567Y664214D1*
X3394375Y662720D1*
X3387067Y661974D1*
X3379721Y661984D1*
X3372416Y662750D1*
X3365228Y664264D1*
X3358233Y666510D1*
X3351507Y669463D1*
X3345121Y673093D1*
X3339142Y677361D1*
X3333635Y682222D1*
X3328656Y687623D1*
X3324260Y693509D1*
X3320493Y699815D1*
X3317395Y706476D1*
X3314999Y713420D1*
X3313330Y720573D1*
X3312406Y727861D1*
X3312209Y740518D1*
X3312437Y778244D1*
X3313401Y785526D1*
X3315110Y792670D1*
X3317545Y799601D1*
X3320680Y806244D1*
X3324482Y812529D1*
X3328911Y818390D1*
X3333919Y823764D1*
X3339454Y828593D1*
X3345456Y832828D1*
X3351863Y836422D1*
X3358605Y839338D1*
X3365611Y841545D1*
X3372808Y843019D1*
X3380118Y843744D1*
X3387464Y843714D1*
X3394767Y842927D1*
X3401951Y841393D1*
X3408488Y839294D1*
X3416852Y841855D1*
X3427900Y843605D1*
X3439086D1*
X3450135Y841855D1*
X3455206Y840424D1*
X3461605Y842399D1*
X3469602Y843665D1*
X3493336Y843824D1*
X3501408Y843189D1*
X3509281Y841299D1*
X3516762Y838200D1*
X3523666Y833970D1*
X3529833Y828700D1*
X2947492Y828688D2*
X2960061Y815893D1*
X2964820Y809343D1*
X2968496Y802128D1*
X2970999Y794428D1*
X2972265Y786430D1*
X2972424Y754823D1*
X2972265Y719278D1*
X2970998Y711281D1*
X2968496Y703580D1*
X2964820Y696366D1*
X2960061Y689815D1*
X2947468Y676998D1*
X2941311Y671739D1*
X2934408Y667508D1*
X2926927Y664410D1*
X2919054Y662520D1*
X2910966Y661885D1*
X2887248Y662043D1*
X2879251Y663310D1*
X2875336Y664415D1*
X2867780Y663854D1*
X2856732Y662104D1*
X2845546D1*
X2834498Y663854D1*
X2826218Y666440D1*
X2819213Y664214D1*
X2812021Y662720D1*
X2804713Y661974D1*
X2797367Y661984D1*
X2790061Y662750D1*
X2782873Y664264D1*
X2775879Y666510D1*
X2769153Y669463D1*
X2762767Y673093D1*
X2756788Y677361D1*
X2751280Y682222D1*
X2746302Y687623D1*
X2741906Y693509D1*
X2738139Y699815D1*
X2735041Y706476D1*
X2732645Y713420D1*
X2730976Y720573D1*
X2730052Y727861D1*
X2729854Y740518D1*
X2730083Y778244D1*
X2731047Y785526D1*
X2732756Y792670D1*
X2735190Y799601D1*
X2738325Y806244D1*
X2742128Y812529D1*
X2746556Y818390D1*
X2751565Y823764D1*
X2757099Y828593D1*
X2763102Y832828D1*
X2769508Y836422D1*
X2776251Y839338D1*
X2783257Y841545D1*
X2790454Y843019D1*
X2797763Y843744D1*
X2805109Y843714D1*
X2812413Y842927D1*
X2819597Y841393D1*
X2826133Y839294D1*
X2834498Y841855D1*
X2845546Y843605D1*
X2856732D1*
X2867780Y841855D1*
X2872852Y840424D1*
X2879251Y842399D1*
X2887248Y843665D1*
X2910982Y843825D1*
X2919054Y843189D1*
X2926927Y841299D1*
X2934408Y838200D1*
X2941311Y833970D1*
X2947479Y828700D1*
X2409955Y828688D2*
X2422524Y815893D1*
X2427284Y809343D1*
X2430960Y802128D1*
X2433462Y794428D1*
X2434728Y786430D1*
X2434888Y754823D1*
X2434728Y719278D1*
X2433462Y711281D1*
X2430960Y703580D1*
X2427284Y696366D1*
X2422524Y689815D1*
X2409932Y676997D1*
X2403775Y671739D1*
X2396871Y667508D1*
X2389390Y664410D1*
X2381517Y662519D1*
X2373429Y661885D1*
X2349711Y662043D1*
X2341714Y663310D1*
X2337800Y664415D1*
X2330244Y663854D1*
X2319195Y662104D1*
X2308009D1*
X2296961Y663854D1*
X2288682Y666440D1*
X2281676Y664214D1*
X2274484Y662720D1*
X2267176Y661974D1*
X2259830Y661984D1*
X2252525Y662750D1*
X2245336Y664264D1*
X2238342Y666510D1*
X2231616Y669463D1*
X2225230Y673093D1*
X2219251Y677361D1*
X2213743Y682222D1*
X2208765Y687623D1*
X2204369Y693509D1*
X2200602Y699815D1*
X2197504Y706476D1*
X2195108Y713420D1*
X2193439Y720573D1*
X2192515Y727861D1*
X2192318Y740518D1*
X2192546Y778244D1*
X2193510Y785526D1*
X2195219Y792670D1*
X2197654Y799601D1*
X2200789Y806244D1*
X2204591Y812529D1*
X2209020Y818390D1*
X2214028Y823764D1*
X2219563Y828593D1*
X2225565Y832828D1*
X2231972Y836422D1*
X2238714Y839338D1*
X2245720Y841545D1*
X2252917Y843019D1*
X2260227Y843744D1*
X2267572Y843714D1*
X2274876Y842927D1*
X2282060Y841393D1*
X2288597Y839294D1*
X2296961Y841855D1*
X2308009Y843605D1*
X2319195D1*
X2330244Y841855D1*
X2335315Y840424D1*
X2341714Y842399D1*
X2349711Y843665D1*
X2373445Y843824D1*
X2381517Y843189D1*
X2389390Y841299D1*
X2396871Y838200D1*
X2403775Y833970D1*
X2409942Y828700D1*
X1746258Y843824D2*
X1754346Y843189D1*
X1762220Y841299D1*
X1769700Y838200D1*
X1776604Y833970D1*
X1782761Y828711D1*
X1795354Y815894D1*
X1800113Y809343D1*
X1803789Y802128D1*
X1806291Y794428D1*
X1807558Y786430D1*
X1807717Y754823D1*
X1807558Y719278D1*
X1806291Y711281D1*
X1803789Y703580D1*
X1800113Y696366D1*
X1795354Y689815D1*
X1782761Y676998D1*
X1776604Y671739D1*
X1769700Y667508D1*
X1762220Y664410D1*
X1754346Y662519D1*
X1746258Y661885D1*
X1722541Y662043D1*
X1714543Y663310D1*
X1710629Y664415D1*
X1703073Y663854D1*
X1692025Y662104D1*
X1680839D1*
X1669791Y663854D1*
X1661511Y666440D1*
X1654506Y664214D1*
X1647313Y662720D1*
X1640006Y661974D1*
X1632660Y661984D1*
X1625354Y662750D1*
X1618166Y664264D1*
X1611172Y666510D1*
X1604446Y669463D1*
X1598060Y673093D1*
X1592081Y677361D1*
X1586573Y682222D1*
X1581595Y687623D1*
X1577198Y693509D1*
X1573431Y699815D1*
X1570333Y706476D1*
X1567937Y713420D1*
X1566268Y720573D1*
X1565345Y727861D1*
X1565147Y740518D1*
X1565375Y778244D1*
X1566340Y785526D1*
X1568048Y792670D1*
X1570483Y799601D1*
X1573618Y806244D1*
X1577420Y812529D1*
X1581849Y818390D1*
X1586857Y823764D1*
X1592392Y828593D1*
X1598395Y832828D1*
X1604801Y836422D1*
X1611543Y839338D1*
X1618550Y841545D1*
X1625746Y843019D1*
X1633056Y843744D1*
X1640402Y843714D1*
X1647705Y842927D1*
X1654889Y841393D1*
X1661426Y839294D1*
X1669791Y841855D1*
X1680839Y843605D1*
X1692025D1*
X1703073Y841855D1*
X1708144Y840424D1*
X1714543Y842399D1*
X1722541Y843665D1*
X1746146Y843824D1*
X1578707Y2095577D2*
X1577958Y2089251D1*
X1576715Y2083003D1*
X1574986Y2076872D1*
X1572781Y2070896D1*
X1570115Y2065111D1*
X1567002Y2059553D1*
X1563463Y2054257D1*
X1559519Y2049254D1*
X1555195Y2044576D1*
X1550518Y2040252D1*
X1545515Y2036309D1*
X1540218Y2032770D1*
X1534661Y2029657D1*
X1528876Y2026990D1*
X1522899Y2024785D1*
X1516768Y2023056D1*
X1510521Y2021814D1*
X1504195Y2021065D1*
X1497829Y2020815D1*
X1491464Y2021065D1*
X1485138Y2021814D1*
X1478891Y2023056D1*
X1472760Y2024785D1*
X1466783Y2026990D1*
X1460998Y2029657D1*
X1455440Y2032770D1*
X1450144Y2036309D1*
X1445141Y2040252D1*
X1440464Y2044576D1*
X1436140Y2049254D1*
X1432196Y2054257D1*
X1428657Y2059553D1*
X1425544Y2065111D1*
X1422877Y2070896D1*
X1420673Y2076872D1*
X1418943Y2083003D1*
X1417701Y2089251D1*
X1416952Y2095577D1*
X1416702Y2101942D1*
X1416952Y2108307D1*
X1417701Y2114633D1*
X1418943Y2120881D1*
X1420673Y2127012D1*
X1422877Y2132988D1*
X1425544Y2138773D1*
X1428657Y2144331D1*
X1432196Y2149628D1*
X1436140Y2154630D1*
X1440464Y2159308D1*
X1445141Y2163632D1*
X1450144Y2167576D1*
X1455440Y2171115D1*
X1460998Y2174227D1*
X1466783Y2176894D1*
X1472760Y2179099D1*
X1478891Y2180828D1*
X1485138Y2182071D1*
X1491464Y2182820D1*
X1497829Y2183070D1*
X1504195Y2182820D1*
X1510521Y2182071D1*
X1516768Y2180828D1*
X1522899Y2179099D1*
X1528876Y2176894D1*
X1534661Y2174227D1*
X1540218Y2171115D1*
X1545515Y2167576D1*
X1550518Y2163632D1*
X1555195Y2159308D1*
X1559519Y2154630D1*
X1563463Y2149628D1*
X1567002Y2144331D1*
X1570115Y2138773D1*
X1572781Y2132988D1*
X1574986Y2127012D1*
X1576715Y2120881D1*
X1577958Y2114633D1*
X1578707Y2108307D1*
X1578957Y2101942D1*
X1578707Y2095577D1*
Y1895577D2*
X1577958Y1889251D1*
X1576715Y1883003D1*
X1574986Y1876872D1*
X1572781Y1870896D1*
X1570115Y1865111D1*
X1567002Y1859553D1*
X1563463Y1854257D1*
X1559519Y1849254D1*
X1555195Y1844576D1*
X1550518Y1840252D1*
X1545515Y1836309D1*
X1540218Y1832770D1*
X1534661Y1829657D1*
X1528876Y1826990D1*
X1522899Y1824785D1*
X1516768Y1823056D1*
X1510521Y1821814D1*
X1504195Y1821065D1*
X1497829Y1820815D1*
X1491464Y1821065D1*
X1485138Y1821814D1*
X1478891Y1823056D1*
X1472760Y1824785D1*
X1466783Y1826990D1*
X1460998Y1829657D1*
X1455440Y1832770D1*
X1450144Y1836309D1*
X1445141Y1840252D1*
X1440464Y1844576D1*
X1436140Y1849254D1*
X1432196Y1854257D1*
X1428657Y1859553D1*
X1425544Y1865111D1*
X1422877Y1870896D1*
X1420673Y1876872D1*
X1418943Y1883003D1*
X1417701Y1889251D1*
X1416952Y1895577D1*
X1416702Y1901942D1*
X1416952Y1908307D1*
X1417701Y1914633D1*
X1418943Y1920881D1*
X1420673Y1927012D1*
X1422877Y1932988D1*
X1425544Y1938773D1*
X1428657Y1944331D1*
X1432196Y1949628D1*
X1436140Y1954630D1*
X1440464Y1959308D1*
X1445141Y1963632D1*
X1450144Y1967576D1*
X1455440Y1971115D1*
X1460998Y1974227D1*
X1466783Y1976894D1*
X1472760Y1979099D1*
X1478891Y1980828D1*
X1485138Y1982071D1*
X1491464Y1982820D1*
X1497829Y1983070D1*
X1504195Y1982820D1*
X1510521Y1982071D1*
X1516768Y1980828D1*
X1522899Y1979099D1*
X1528876Y1976894D1*
X1534661Y1974227D1*
X1540218Y1971115D1*
X1545515Y1967576D1*
X1550518Y1963632D1*
X1555195Y1959308D1*
X1559519Y1954630D1*
X1563463Y1949628D1*
X1567002Y1944331D1*
X1570115Y1938773D1*
X1572781Y1932988D1*
X1574986Y1927012D1*
X1576715Y1920881D1*
X1577958Y1914633D1*
X1578707Y1908307D1*
X1578957Y1901942D1*
X1578707Y1895577D1*
Y1695577D2*
X1577958Y1689251D1*
X1576715Y1683003D1*
X1574986Y1676872D1*
X1572781Y1670896D1*
X1570115Y1665111D1*
X1567002Y1659553D1*
X1563463Y1654257D1*
X1559519Y1649254D1*
X1555195Y1644576D1*
X1550518Y1640252D1*
X1545515Y1636309D1*
X1540218Y1632770D1*
X1534661Y1629657D1*
X1528876Y1626990D1*
X1522899Y1624785D1*
X1516768Y1623056D1*
X1510521Y1621814D1*
X1504195Y1621065D1*
X1497829Y1620815D1*
X1491464Y1621065D1*
X1485138Y1621814D1*
X1478891Y1623056D1*
X1472760Y1624785D1*
X1466783Y1626990D1*
X1460998Y1629657D1*
X1455440Y1632770D1*
X1450144Y1636309D1*
X1445141Y1640252D1*
X1440464Y1644576D1*
X1436140Y1649254D1*
X1432196Y1654257D1*
X1428657Y1659553D1*
X1425544Y1665111D1*
X1422877Y1670896D1*
X1420673Y1676872D1*
X1418943Y1683003D1*
X1417701Y1689251D1*
X1416952Y1695577D1*
X1416702Y1701942D1*
X1416952Y1708307D1*
X1417701Y1714633D1*
X1418943Y1720881D1*
X1420673Y1727012D1*
X1422877Y1732988D1*
X1425544Y1738773D1*
X1428657Y1744331D1*
X1432196Y1749628D1*
X1436140Y1754630D1*
X1440464Y1759308D1*
X1445141Y1763632D1*
X1450144Y1767576D1*
X1455440Y1771115D1*
X1460998Y1774227D1*
X1466783Y1776894D1*
X1472760Y1779099D1*
X1478891Y1780828D1*
X1485138Y1782071D1*
X1491464Y1782820D1*
X1497829Y1783070D1*
X1504195Y1782820D1*
X1510521Y1782071D1*
X1516768Y1780828D1*
X1522899Y1779099D1*
X1528876Y1776894D1*
X1534661Y1774227D1*
X1540218Y1771115D1*
X1545515Y1767576D1*
X1550518Y1763632D1*
X1555195Y1759308D1*
X1559519Y1754630D1*
X1563463Y1749628D1*
X1567002Y1744331D1*
X1570115Y1738773D1*
X1572781Y1732988D1*
X1574986Y1727012D1*
X1576715Y1720881D1*
X1577958Y1714633D1*
X1578707Y1708307D1*
X1578957Y1701942D1*
X1578707Y1695577D1*
Y1395577D2*
X1577958Y1389251D1*
X1576715Y1383003D1*
X1574986Y1376872D1*
X1572781Y1370896D1*
X1570115Y1365111D1*
X1567002Y1359553D1*
X1563463Y1354257D1*
X1559519Y1349254D1*
X1555195Y1344576D1*
X1550518Y1340252D1*
X1545515Y1336309D1*
X1540218Y1332770D1*
X1534661Y1329657D1*
X1528876Y1326990D1*
X1522899Y1324785D1*
X1516768Y1323056D1*
X1510521Y1321814D1*
X1504195Y1321065D1*
X1497829Y1320815D1*
X1491464Y1321065D1*
X1485138Y1321814D1*
X1478891Y1323056D1*
X1472760Y1324785D1*
X1466783Y1326990D1*
X1460998Y1329657D1*
X1455440Y1332770D1*
X1450144Y1336309D1*
X1445141Y1340252D1*
X1440464Y1344576D1*
X1436140Y1349254D1*
X1432196Y1354257D1*
X1428657Y1359553D1*
X1425544Y1365111D1*
X1422877Y1370896D1*
X1420673Y1376872D1*
X1418943Y1383003D1*
X1417701Y1389251D1*
X1416952Y1395577D1*
X1416702Y1401942D1*
X1416952Y1408307D1*
X1417701Y1414633D1*
X1418943Y1420881D1*
X1420673Y1427012D1*
X1422877Y1432988D1*
X1425544Y1438773D1*
X1428657Y1444331D1*
X1432196Y1449628D1*
X1436140Y1454630D1*
X1440464Y1459308D1*
X1445141Y1463632D1*
X1450144Y1467576D1*
X1455440Y1471115D1*
X1460998Y1474227D1*
X1466783Y1476894D1*
X1472760Y1479099D1*
X1478891Y1480828D1*
X1485138Y1482071D1*
X1491464Y1482820D1*
X1497829Y1483070D1*
X1504195Y1482820D1*
X1510521Y1482071D1*
X1516768Y1480828D1*
X1522899Y1479099D1*
X1528876Y1476894D1*
X1534661Y1474227D1*
X1540218Y1471115D1*
X1545515Y1467576D1*
X1550518Y1463632D1*
X1555195Y1459308D1*
X1559519Y1454630D1*
X1563463Y1449628D1*
X1567002Y1444331D1*
X1570115Y1438773D1*
X1572781Y1432988D1*
X1574986Y1427012D1*
X1576715Y1420881D1*
X1577958Y1414633D1*
X1578707Y1408307D1*
X1578957Y1401942D1*
X1578707Y1395577D1*
X2178707Y2095577D2*
X2177958Y2089251D1*
X2176715Y2083003D1*
X2174986Y2076872D1*
X2172781Y2070896D1*
X2170115Y2065111D1*
X2167002Y2059553D1*
X2163463Y2054257D1*
X2159519Y2049254D1*
X2155195Y2044576D1*
X2150518Y2040252D1*
X2145515Y2036309D1*
X2140218Y2032770D1*
X2134661Y2029657D1*
X2128876Y2026990D1*
X2122899Y2024785D1*
X2116768Y2023056D1*
X2110521Y2021814D1*
X2104195Y2021065D1*
X2097829Y2020815D1*
X2091464Y2021065D1*
X2085138Y2021814D1*
X2078891Y2023056D1*
X2072760Y2024785D1*
X2066783Y2026990D1*
X2060998Y2029657D1*
X2055440Y2032770D1*
X2050144Y2036309D1*
X2045141Y2040252D1*
X2040464Y2044576D1*
X2036140Y2049254D1*
X2032196Y2054257D1*
X2028657Y2059553D1*
X2025544Y2065111D1*
X2022877Y2070896D1*
X2020673Y2076872D1*
X2018943Y2083003D1*
X2017701Y2089251D1*
X2016952Y2095577D1*
X2016702Y2101942D1*
X2016952Y2108307D1*
X2017701Y2114633D1*
X2018943Y2120881D1*
X2020673Y2127012D1*
X2022877Y2132988D1*
X2025544Y2138773D1*
X2028657Y2144331D1*
X2032196Y2149628D1*
X2036140Y2154630D1*
X2040464Y2159308D1*
X2045141Y2163632D1*
X2050144Y2167576D1*
X2055440Y2171115D1*
X2060998Y2174227D1*
X2066783Y2176894D1*
X2072760Y2179099D1*
X2078891Y2180828D1*
X2085138Y2182071D1*
X2091464Y2182820D1*
X2097829Y2183070D1*
X2104195Y2182820D1*
X2110521Y2182071D1*
X2116768Y2180828D1*
X2122899Y2179099D1*
X2128876Y2176894D1*
X2134661Y2174227D1*
X2140218Y2171115D1*
X2145515Y2167576D1*
X2150518Y2163632D1*
X2155195Y2159308D1*
X2159519Y2154630D1*
X2163463Y2149628D1*
X2167002Y2144331D1*
X2170115Y2138773D1*
X2172781Y2132988D1*
X2174986Y2127012D1*
X2176715Y2120881D1*
X2177958Y2114633D1*
X2178707Y2108307D1*
X2178957Y2101942D1*
X2178707Y2095577D1*
Y1895577D2*
X2177958Y1889251D1*
X2176715Y1883003D1*
X2174986Y1876872D1*
X2172781Y1870896D1*
X2170115Y1865111D1*
X2167002Y1859553D1*
X2163463Y1854257D1*
X2159519Y1849254D1*
X2155195Y1844576D1*
X2150518Y1840252D1*
X2145515Y1836309D1*
X2140218Y1832770D1*
X2134661Y1829657D1*
X2128876Y1826990D1*
X2122899Y1824785D1*
X2116768Y1823056D1*
X2110521Y1821814D1*
X2104195Y1821065D1*
X2097829Y1820815D1*
X2091464Y1821065D1*
X2085138Y1821814D1*
X2078891Y1823056D1*
X2072760Y1824785D1*
X2066783Y1826990D1*
X2060998Y1829657D1*
X2055440Y1832770D1*
X2050144Y1836309D1*
X2045141Y1840252D1*
X2040464Y1844576D1*
X2036140Y1849254D1*
X2032196Y1854257D1*
X2028657Y1859553D1*
X2025544Y1865111D1*
X2022877Y1870896D1*
X2020673Y1876872D1*
X2018943Y1883003D1*
X2017701Y1889251D1*
X2016952Y1895577D1*
X2016702Y1901942D1*
X2016952Y1908307D1*
X2017701Y1914633D1*
X2018943Y1920881D1*
X2020673Y1927012D1*
X2022877Y1932988D1*
X2025544Y1938773D1*
X2028657Y1944331D1*
X2032196Y1949628D1*
X2036140Y1954630D1*
X2040464Y1959308D1*
X2045141Y1963632D1*
X2050144Y1967576D1*
X2055440Y1971115D1*
X2060998Y1974227D1*
X2066783Y1976894D1*
X2072760Y1979099D1*
X2078891Y1980828D1*
X2085138Y1982071D1*
X2091464Y1982820D1*
X2097829Y1983070D1*
X2104195Y1982820D1*
X2110521Y1982071D1*
X2116768Y1980828D1*
X2122899Y1979099D1*
X2128876Y1976894D1*
X2134661Y1974227D1*
X2140218Y1971115D1*
X2145515Y1967576D1*
X2150518Y1963632D1*
X2155195Y1959308D1*
X2159519Y1954630D1*
X2163463Y1949628D1*
X2167002Y1944331D1*
X2170115Y1938773D1*
X2172781Y1932988D1*
X2174986Y1927012D1*
X2176715Y1920881D1*
X2177958Y1914633D1*
X2178707Y1908307D1*
X2178957Y1901942D1*
X2178707Y1895577D1*
Y1695577D2*
X2177958Y1689251D1*
X2176715Y1683003D1*
X2174986Y1676872D1*
X2172781Y1670896D1*
X2170115Y1665111D1*
X2167002Y1659553D1*
X2163463Y1654257D1*
X2159519Y1649254D1*
X2155195Y1644576D1*
X2150518Y1640252D1*
X2145515Y1636309D1*
X2140218Y1632770D1*
X2134661Y1629657D1*
X2128876Y1626990D1*
X2122899Y1624785D1*
X2116768Y1623056D1*
X2110521Y1621814D1*
X2104195Y1621065D1*
X2097829Y1620815D1*
X2091464Y1621065D1*
X2085138Y1621814D1*
X2078891Y1623056D1*
X2072760Y1624785D1*
X2066783Y1626990D1*
X2060998Y1629657D1*
X2055440Y1632770D1*
X2050144Y1636309D1*
X2045141Y1640252D1*
X2040464Y1644576D1*
X2036140Y1649254D1*
X2032196Y1654257D1*
X2028657Y1659553D1*
X2025544Y1665111D1*
X2022877Y1670896D1*
X2020673Y1676872D1*
X2018943Y1683003D1*
X2017701Y1689251D1*
X2016952Y1695577D1*
X2016702Y1701942D1*
X2016952Y1708307D1*
X2017701Y1714633D1*
X2018943Y1720881D1*
X2020673Y1727012D1*
X2022877Y1732988D1*
X2025544Y1738773D1*
X2028657Y1744331D1*
X2032196Y1749628D1*
X2036140Y1754630D1*
X2040464Y1759308D1*
X2045141Y1763632D1*
X2050144Y1767576D1*
X2055440Y1771115D1*
X2060998Y1774227D1*
X2066783Y1776894D1*
X2072760Y1779099D1*
X2078891Y1780828D1*
X2085138Y1782071D1*
X2091464Y1782820D1*
X2097829Y1783070D1*
X2104195Y1782820D1*
X2110521Y1782071D1*
X2116768Y1780828D1*
X2122899Y1779099D1*
X2128876Y1776894D1*
X2134661Y1774227D1*
X2140218Y1771115D1*
X2145515Y1767576D1*
X2150518Y1763632D1*
X2155195Y1759308D1*
X2159519Y1754630D1*
X2163463Y1749628D1*
X2167002Y1744331D1*
X2170115Y1738773D1*
X2172781Y1732988D1*
X2174986Y1727012D1*
X2176715Y1720881D1*
X2177958Y1714633D1*
X2178707Y1708307D1*
X2178957Y1701942D1*
X2178707Y1695577D1*
Y1395577D2*
X2177958Y1389251D1*
X2176715Y1383003D1*
X2174986Y1376872D1*
X2172781Y1370896D1*
X2170115Y1365111D1*
X2167002Y1359553D1*
X2163463Y1354257D1*
X2159519Y1349254D1*
X2155195Y1344576D1*
X2150518Y1340252D1*
X2145515Y1336309D1*
X2140218Y1332770D1*
X2134661Y1329657D1*
X2128876Y1326990D1*
X2122899Y1324785D1*
X2116768Y1323056D1*
X2110521Y1321814D1*
X2104195Y1321065D1*
X2097829Y1320815D1*
X2091464Y1321065D1*
X2085138Y1321814D1*
X2078891Y1323056D1*
X2072760Y1324785D1*
X2066783Y1326990D1*
X2060998Y1329657D1*
X2055440Y1332770D1*
X2050144Y1336309D1*
X2045141Y1340252D1*
X2040464Y1344576D1*
X2036140Y1349254D1*
X2032196Y1354257D1*
X2028657Y1359553D1*
X2025544Y1365111D1*
X2022877Y1370896D1*
X2020673Y1376872D1*
X2018943Y1383003D1*
X2017701Y1389251D1*
X2016952Y1395577D1*
X2016702Y1401942D1*
X2016952Y1408307D1*
X2017701Y1414633D1*
X2018943Y1420881D1*
X2020673Y1427012D1*
X2022877Y1432988D1*
X2025544Y1438773D1*
X2028657Y1444331D1*
X2032196Y1449628D1*
X2036140Y1454630D1*
X2040464Y1459308D1*
X2045141Y1463632D1*
X2050144Y1467576D1*
X2055440Y1471115D1*
X2060998Y1474227D1*
X2066783Y1476894D1*
X2072760Y1479099D1*
X2078891Y1480828D1*
X2085138Y1482071D1*
X2091464Y1482820D1*
X2097829Y1483070D1*
X2104195Y1482820D1*
X2110521Y1482071D1*
X2116768Y1480828D1*
X2122899Y1479099D1*
X2128876Y1476894D1*
X2134661Y1474227D1*
X2140218Y1471115D1*
X2145515Y1467576D1*
X2150518Y1463632D1*
X2155195Y1459308D1*
X2159519Y1454630D1*
X2163463Y1449628D1*
X2167002Y1444331D1*
X2170115Y1438773D1*
X2172781Y1432988D1*
X2174986Y1427012D1*
X2176715Y1420881D1*
X2177958Y1414633D1*
X2178707Y1408307D1*
X2178957Y1401942D1*
X2178707Y1395577D1*
X2778707Y2095577D2*
X2777958Y2089251D1*
X2776715Y2083003D1*
X2774986Y2076872D1*
X2772781Y2070896D1*
X2770115Y2065111D1*
X2767002Y2059553D1*
X2763463Y2054257D1*
X2759519Y2049254D1*
X2755195Y2044576D1*
X2750518Y2040252D1*
X2745515Y2036309D1*
X2740218Y2032770D1*
X2734661Y2029657D1*
X2728876Y2026990D1*
X2722899Y2024785D1*
X2716768Y2023056D1*
X2710521Y2021814D1*
X2704195Y2021065D1*
X2697829Y2020815D1*
X2691464Y2021065D1*
X2685138Y2021814D1*
X2678891Y2023056D1*
X2672760Y2024785D1*
X2666783Y2026990D1*
X2660998Y2029657D1*
X2655440Y2032770D1*
X2650144Y2036309D1*
X2645141Y2040252D1*
X2640464Y2044576D1*
X2636140Y2049254D1*
X2632196Y2054257D1*
X2628657Y2059553D1*
X2625544Y2065111D1*
X2622877Y2070896D1*
X2620673Y2076872D1*
X2618943Y2083003D1*
X2617701Y2089251D1*
X2616952Y2095577D1*
X2616702Y2101942D1*
X2616952Y2108307D1*
X2617701Y2114633D1*
X2618943Y2120881D1*
X2620673Y2127012D1*
X2622877Y2132988D1*
X2625544Y2138773D1*
X2628657Y2144331D1*
X2632196Y2149628D1*
X2636140Y2154630D1*
X2640464Y2159308D1*
X2645141Y2163632D1*
X2650144Y2167576D1*
X2655440Y2171115D1*
X2660998Y2174227D1*
X2666783Y2176894D1*
X2672760Y2179099D1*
X2678891Y2180828D1*
X2685138Y2182071D1*
X2691464Y2182820D1*
X2697829Y2183070D1*
X2704195Y2182820D1*
X2710521Y2182071D1*
X2716768Y2180828D1*
X2722899Y2179099D1*
X2728876Y2176894D1*
X2734661Y2174227D1*
X2740218Y2171115D1*
X2745515Y2167576D1*
X2750518Y2163632D1*
X2755195Y2159308D1*
X2759519Y2154630D1*
X2763463Y2149628D1*
X2767002Y2144331D1*
X2770115Y2138773D1*
X2772781Y2132988D1*
X2774986Y2127012D1*
X2776715Y2120881D1*
X2777958Y2114633D1*
X2778707Y2108307D1*
X2778957Y2101942D1*
X2778707Y2095577D1*
Y1895577D2*
X2777958Y1889251D1*
X2776715Y1883003D1*
X2774986Y1876872D1*
X2772781Y1870896D1*
X2770115Y1865111D1*
X2767002Y1859553D1*
X2763463Y1854257D1*
X2759519Y1849254D1*
X2755195Y1844576D1*
X2750518Y1840252D1*
X2745515Y1836309D1*
X2740218Y1832770D1*
X2734661Y1829657D1*
X2728876Y1826990D1*
X2722899Y1824785D1*
X2716768Y1823056D1*
X2710521Y1821814D1*
X2704195Y1821065D1*
X2697829Y1820815D1*
X2691464Y1821065D1*
X2685138Y1821814D1*
X2678891Y1823056D1*
X2672760Y1824785D1*
X2666783Y1826990D1*
X2660998Y1829657D1*
X2655440Y1832770D1*
X2650144Y1836309D1*
X2645141Y1840252D1*
X2640464Y1844576D1*
X2636140Y1849254D1*
X2632196Y1854257D1*
X2628657Y1859553D1*
X2625544Y1865111D1*
X2622877Y1870896D1*
X2620673Y1876872D1*
X2618943Y1883003D1*
X2617701Y1889251D1*
X2616952Y1895577D1*
X2616702Y1901942D1*
X2616952Y1908307D1*
X2617701Y1914633D1*
X2618943Y1920881D1*
X2620673Y1927012D1*
X2622877Y1932988D1*
X2625544Y1938773D1*
X2628657Y1944331D1*
X2632196Y1949628D1*
X2636140Y1954630D1*
X2640464Y1959308D1*
X2645141Y1963632D1*
X2650144Y1967576D1*
X2655440Y1971115D1*
X2660998Y1974227D1*
X2666783Y1976894D1*
X2672760Y1979099D1*
X2678891Y1980828D1*
X2685138Y1982071D1*
X2691464Y1982820D1*
X2697829Y1983070D1*
X2704195Y1982820D1*
X2710521Y1982071D1*
X2716768Y1980828D1*
X2722899Y1979099D1*
X2728876Y1976894D1*
X2734661Y1974227D1*
X2740218Y1971115D1*
X2745515Y1967576D1*
X2750518Y1963632D1*
X2755195Y1959308D1*
X2759519Y1954630D1*
X2763463Y1949628D1*
X2767002Y1944331D1*
X2770115Y1938773D1*
X2772781Y1932988D1*
X2774986Y1927012D1*
X2776715Y1920881D1*
X2777958Y1914633D1*
X2778707Y1908307D1*
X2778957Y1901942D1*
X2778707Y1895577D1*
Y1695577D2*
X2777958Y1689251D1*
X2776715Y1683003D1*
X2774986Y1676872D1*
X2772781Y1670896D1*
X2770115Y1665111D1*
X2767002Y1659553D1*
X2763463Y1654257D1*
X2759519Y1649254D1*
X2755195Y1644576D1*
X2750518Y1640252D1*
X2745515Y1636309D1*
X2740218Y1632770D1*
X2734661Y1629657D1*
X2728876Y1626990D1*
X2722899Y1624785D1*
X2716768Y1623056D1*
X2710521Y1621814D1*
X2704195Y1621065D1*
X2697829Y1620815D1*
X2691464Y1621065D1*
X2685138Y1621814D1*
X2678891Y1623056D1*
X2672760Y1624785D1*
X2666783Y1626990D1*
X2660998Y1629657D1*
X2655440Y1632770D1*
X2650144Y1636309D1*
X2645141Y1640252D1*
X2640464Y1644576D1*
X2636140Y1649254D1*
X2632196Y1654257D1*
X2628657Y1659553D1*
X2625544Y1665111D1*
X2622877Y1670896D1*
X2620673Y1676872D1*
X2618943Y1683003D1*
X2617701Y1689251D1*
X2616952Y1695577D1*
X2616702Y1701942D1*
X2616952Y1708307D1*
X2617701Y1714633D1*
X2618943Y1720881D1*
X2620673Y1727012D1*
X2622877Y1732988D1*
X2625544Y1738773D1*
X2628657Y1744331D1*
X2632196Y1749628D1*
X2636140Y1754630D1*
X2640464Y1759308D1*
X2645141Y1763632D1*
X2650144Y1767576D1*
X2655440Y1771115D1*
X2660998Y1774227D1*
X2666783Y1776894D1*
X2672760Y1779099D1*
X2678891Y1780828D1*
X2685138Y1782071D1*
X2691464Y1782820D1*
X2697829Y1783070D1*
X2704195Y1782820D1*
X2710521Y1782071D1*
X2716768Y1780828D1*
X2722899Y1779099D1*
X2728876Y1776894D1*
X2734661Y1774227D1*
X2740218Y1771115D1*
X2745515Y1767576D1*
X2750518Y1763632D1*
X2755195Y1759308D1*
X2759519Y1754630D1*
X2763463Y1749628D1*
X2767002Y1744331D1*
X2770115Y1738773D1*
X2772781Y1732988D1*
X2774986Y1727012D1*
X2776715Y1720881D1*
X2777958Y1714633D1*
X2778707Y1708307D1*
X2778957Y1701942D1*
X2778707Y1695577D1*
Y1395577D2*
X2777958Y1389251D1*
X2776715Y1383003D1*
X2774986Y1376872D1*
X2772781Y1370896D1*
X2770115Y1365111D1*
X2767002Y1359553D1*
X2763463Y1354257D1*
X2759519Y1349254D1*
X2755195Y1344576D1*
X2750518Y1340252D1*
X2745515Y1336309D1*
X2740218Y1332770D1*
X2734661Y1329657D1*
X2728876Y1326990D1*
X2722899Y1324785D1*
X2716768Y1323056D1*
X2710521Y1321814D1*
X2704195Y1321065D1*
X2697829Y1320815D1*
X2691464Y1321065D1*
X2685138Y1321814D1*
X2678891Y1323056D1*
X2672760Y1324785D1*
X2666783Y1326990D1*
X2660998Y1329657D1*
X2655440Y1332770D1*
X2650144Y1336309D1*
X2645141Y1340252D1*
X2640464Y1344576D1*
X2636140Y1349254D1*
X2632196Y1354257D1*
X2628657Y1359553D1*
X2625544Y1365111D1*
X2622877Y1370896D1*
X2620673Y1376872D1*
X2618943Y1383003D1*
X2617701Y1389251D1*
X2616952Y1395577D1*
X2616702Y1401942D1*
X2616952Y1408307D1*
X2617701Y1414633D1*
X2618943Y1420881D1*
X2620673Y1427012D1*
X2622877Y1432988D1*
X2625544Y1438773D1*
X2628657Y1444331D1*
X2632196Y1449628D1*
X2636140Y1454630D1*
X2640464Y1459308D1*
X2645141Y1463632D1*
X2650144Y1467576D1*
X2655440Y1471115D1*
X2660998Y1474227D1*
X2666783Y1476894D1*
X2672760Y1479099D1*
X2678891Y1480828D1*
X2685138Y1482071D1*
X2691464Y1482820D1*
X2697829Y1483070D1*
X2704195Y1482820D1*
X2710521Y1482071D1*
X2716768Y1480828D1*
X2722899Y1479099D1*
X2728876Y1476894D1*
X2734661Y1474227D1*
X2740218Y1471115D1*
X2745515Y1467576D1*
X2750518Y1463632D1*
X2755195Y1459308D1*
X2759519Y1454630D1*
X2763463Y1449628D1*
X2767002Y1444331D1*
X2770115Y1438773D1*
X2772781Y1432988D1*
X2774986Y1427012D1*
X2776715Y1420881D1*
X2777958Y1414633D1*
X2778707Y1408307D1*
X2778957Y1401942D1*
X2778707Y1395577D1*
X3378707Y2095577D2*
X3377958Y2089251D1*
X3376715Y2083003D1*
X3374986Y2076872D1*
X3372781Y2070896D1*
X3370115Y2065111D1*
X3367002Y2059553D1*
X3363463Y2054257D1*
X3359519Y2049254D1*
X3355195Y2044576D1*
X3350518Y2040252D1*
X3345515Y2036309D1*
X3340218Y2032770D1*
X3334661Y2029657D1*
X3328876Y2026990D1*
X3322899Y2024785D1*
X3316768Y2023056D1*
X3310521Y2021814D1*
X3304195Y2021065D1*
X3297829Y2020815D1*
X3291464Y2021065D1*
X3285138Y2021814D1*
X3278891Y2023056D1*
X3272760Y2024785D1*
X3266783Y2026990D1*
X3260998Y2029657D1*
X3255440Y2032770D1*
X3250144Y2036309D1*
X3245141Y2040252D1*
X3240464Y2044576D1*
X3236140Y2049254D1*
X3232196Y2054257D1*
X3228657Y2059553D1*
X3225544Y2065111D1*
X3222877Y2070896D1*
X3220673Y2076872D1*
X3218943Y2083003D1*
X3217701Y2089251D1*
X3216952Y2095577D1*
X3216702Y2101942D1*
X3216952Y2108307D1*
X3217701Y2114633D1*
X3218943Y2120881D1*
X3220673Y2127012D1*
X3222877Y2132988D1*
X3225544Y2138773D1*
X3228657Y2144331D1*
X3232196Y2149628D1*
X3236140Y2154630D1*
X3240464Y2159308D1*
X3245141Y2163632D1*
X3250144Y2167576D1*
X3255440Y2171115D1*
X3260998Y2174227D1*
X3266783Y2176894D1*
X3272760Y2179099D1*
X3278891Y2180828D1*
X3285138Y2182071D1*
X3291464Y2182820D1*
X3297829Y2183070D1*
X3304195Y2182820D1*
X3310521Y2182071D1*
X3316768Y2180828D1*
X3322899Y2179099D1*
X3328876Y2176894D1*
X3334661Y2174227D1*
X3340218Y2171115D1*
X3345515Y2167576D1*
X3350518Y2163632D1*
X3355195Y2159308D1*
X3359519Y2154630D1*
X3363463Y2149628D1*
X3367002Y2144331D1*
X3370115Y2138773D1*
X3372781Y2132988D1*
X3374986Y2127012D1*
X3376715Y2120881D1*
X3377958Y2114633D1*
X3378707Y2108307D1*
X3378957Y2101942D1*
X3378707Y2095577D1*
Y1895577D2*
X3377958Y1889251D1*
X3376715Y1883003D1*
X3374986Y1876872D1*
X3372781Y1870896D1*
X3370115Y1865111D1*
X3367002Y1859553D1*
X3363463Y1854257D1*
X3359519Y1849254D1*
X3355195Y1844576D1*
X3350518Y1840252D1*
X3345515Y1836309D1*
X3340218Y1832770D1*
X3334661Y1829657D1*
X3328876Y1826990D1*
X3322899Y1824785D1*
X3316768Y1823056D1*
X3310521Y1821814D1*
X3304195Y1821065D1*
X3297829Y1820815D1*
X3291464Y1821065D1*
X3285138Y1821814D1*
X3278891Y1823056D1*
X3272760Y1824785D1*
X3266783Y1826990D1*
X3260998Y1829657D1*
X3255440Y1832770D1*
X3250144Y1836309D1*
X3245141Y1840252D1*
X3240464Y1844576D1*
X3236140Y1849254D1*
X3232196Y1854257D1*
X3228657Y1859553D1*
X3225544Y1865111D1*
X3222877Y1870896D1*
X3220673Y1876872D1*
X3218943Y1883003D1*
X3217701Y1889251D1*
X3216952Y1895577D1*
X3216702Y1901942D1*
X3216952Y1908307D1*
X3217701Y1914633D1*
X3218943Y1920881D1*
X3220673Y1927012D1*
X3222877Y1932988D1*
X3225544Y1938773D1*
X3228657Y1944331D1*
X3232196Y1949628D1*
X3236140Y1954630D1*
X3240464Y1959308D1*
X3245141Y1963632D1*
X3250144Y1967576D1*
X3255440Y1971115D1*
X3260998Y1974227D1*
X3266783Y1976894D1*
X3272760Y1979099D1*
X3278891Y1980828D1*
X3285138Y1982071D1*
X3291464Y1982820D1*
X3297829Y1983070D1*
X3304195Y1982820D1*
X3310521Y1982071D1*
X3316768Y1980828D1*
X3322899Y1979099D1*
X3328876Y1976894D1*
X3334661Y1974227D1*
X3340218Y1971115D1*
X3345515Y1967576D1*
X3350518Y1963632D1*
X3355195Y1959308D1*
X3359519Y1954630D1*
X3363463Y1949628D1*
X3367002Y1944331D1*
X3370115Y1938773D1*
X3372781Y1932988D1*
X3374986Y1927012D1*
X3376715Y1920881D1*
X3377958Y1914633D1*
X3378707Y1908307D1*
X3378957Y1901942D1*
X3378707Y1895577D1*
Y1695577D2*
X3377958Y1689251D1*
X3376715Y1683003D1*
X3374986Y1676872D1*
X3372781Y1670896D1*
X3370115Y1665111D1*
X3367002Y1659553D1*
X3363463Y1654257D1*
X3359519Y1649254D1*
X3355195Y1644576D1*
X3350518Y1640252D1*
X3345515Y1636309D1*
X3340218Y1632770D1*
X3334661Y1629657D1*
X3328876Y1626990D1*
X3322899Y1624785D1*
X3316768Y1623056D1*
X3310521Y1621814D1*
X3304195Y1621065D1*
X3297829Y1620815D1*
X3291464Y1621065D1*
X3285138Y1621814D1*
X3278891Y1623056D1*
X3272760Y1624785D1*
X3266783Y1626990D1*
X3260998Y1629657D1*
X3255440Y1632770D1*
X3250144Y1636309D1*
X3245141Y1640252D1*
X3240464Y1644576D1*
X3236140Y1649254D1*
X3232196Y1654257D1*
X3228657Y1659553D1*
X3225544Y1665111D1*
X3222877Y1670896D1*
X3220673Y1676872D1*
X3218943Y1683003D1*
X3217701Y1689251D1*
X3216952Y1695577D1*
X3216702Y1701942D1*
X3216952Y1708307D1*
X3217701Y1714633D1*
X3218943Y1720881D1*
X3220673Y1727012D1*
X3222877Y1732988D1*
X3225544Y1738773D1*
X3228657Y1744331D1*
X3232196Y1749628D1*
X3236140Y1754630D1*
X3240464Y1759308D1*
X3245141Y1763632D1*
X3250144Y1767576D1*
X3255440Y1771115D1*
X3260998Y1774227D1*
X3266783Y1776894D1*
X3272760Y1779099D1*
X3278891Y1780828D1*
X3285138Y1782071D1*
X3291464Y1782820D1*
X3297829Y1783070D1*
X3304195Y1782820D1*
X3310521Y1782071D1*
X3316768Y1780828D1*
X3322899Y1779099D1*
X3328876Y1776894D1*
X3334661Y1774227D1*
X3340218Y1771115D1*
X3345515Y1767576D1*
X3350518Y1763632D1*
X3355195Y1759308D1*
X3359519Y1754630D1*
X3363463Y1749628D1*
X3367002Y1744331D1*
X3370115Y1738773D1*
X3372781Y1732988D1*
X3374986Y1727012D1*
X3376715Y1720881D1*
X3377958Y1714633D1*
X3378707Y1708307D1*
X3378957Y1701942D1*
X3378707Y1695577D1*
Y1395577D2*
X3377958Y1389251D1*
X3376715Y1383003D1*
X3374986Y1376872D1*
X3372781Y1370896D1*
X3370115Y1365111D1*
X3367002Y1359553D1*
X3363463Y1354257D1*
X3359519Y1349254D1*
X3355195Y1344576D1*
X3350518Y1340252D1*
X3345515Y1336309D1*
X3340218Y1332770D1*
X3334661Y1329657D1*
X3328876Y1326990D1*
X3322899Y1324785D1*
X3316768Y1323056D1*
X3310521Y1321814D1*
X3304195Y1321065D1*
X3297829Y1320815D1*
X3291464Y1321065D1*
X3285138Y1321814D1*
X3278891Y1323056D1*
X3272760Y1324785D1*
X3266783Y1326990D1*
X3260998Y1329657D1*
X3255440Y1332770D1*
X3250144Y1336309D1*
X3245141Y1340252D1*
X3240464Y1344576D1*
X3236140Y1349254D1*
X3232196Y1354257D1*
X3228657Y1359553D1*
X3225544Y1365111D1*
X3222877Y1370896D1*
X3220673Y1376872D1*
X3218943Y1383003D1*
X3217701Y1389251D1*
X3216952Y1395577D1*
X3216702Y1401942D1*
X3216952Y1408307D1*
X3217701Y1414633D1*
X3218943Y1420881D1*
X3220673Y1427012D1*
X3222877Y1432988D1*
X3225544Y1438773D1*
X3228657Y1444331D1*
X3232196Y1449628D1*
X3236140Y1454630D1*
X3240464Y1459308D1*
X3245141Y1463632D1*
X3254509Y1470493D1*
X3249081Y1476166D1*
X3242477Y1485256D1*
X3237376Y1495267D1*
X3233905Y1505952D1*
X3232147Y1517049D1*
Y1528284D1*
X3233905Y1539381D1*
X3237376Y1550067D1*
X3242477Y1560078D1*
X3249081Y1569167D1*
X3257026Y1577112D1*
X3266115Y1583716D1*
X3276126Y1588816D1*
X3286812Y1592288D1*
X3297909Y1594046D1*
X3309144D1*
X3320241Y1592288D1*
X3330926Y1588816D1*
X3340937Y1583716D1*
X3350027Y1577112D1*
X3357971Y1569167D1*
X3364575Y1560078D1*
X3369676Y1550067D1*
X3373148Y1539381D1*
X3374906Y1528284D1*
Y1517049D1*
X3373148Y1505952D1*
X3369676Y1495267D1*
X3364575Y1485256D1*
X3357971Y1476166D1*
X3350027Y1468222D1*
X3347423Y1466169D1*
X3355195Y1459308D1*
X3359519Y1454630D1*
X3363463Y1449628D1*
X3367002Y1444331D1*
X3370115Y1438773D1*
X3372781Y1432988D1*
X3374986Y1427012D1*
X3376715Y1420881D1*
X3377958Y1414633D1*
X3378707Y1408307D1*
X3378957Y1401942D1*
X3378707Y1395577D1*
X4130359Y2030550D2*
X4129632Y2021397D1*
X4127875Y2012386D1*
X4125112Y2003630D1*
X4121377Y1995243D1*
X4116718Y1987331D1*
X4111195Y1979996D1*
X4104878Y1973333D1*
X4097849Y1967426D1*
X4090198Y1962351D1*
X4082022Y1958173D1*
X4079394Y1957073D1*
X4088163Y1953241D1*
X4093721Y1950128D1*
X4099018Y1946589D1*
X4104020Y1942645D1*
X4108698Y1938321D1*
X4113022Y1933644D1*
X4116966Y1928641D1*
X4120505Y1923344D1*
X4123617Y1917787D1*
X4126284Y1912002D1*
X4128489Y1906025D1*
X4130218Y1899894D1*
X4131461Y1893647D1*
X4132209Y1887321D1*
X4132460Y1880955D1*
X4132209Y1874590D1*
X4131461Y1868264D1*
X4130218Y1862017D1*
X4128489Y1855886D1*
X4126284Y1849909D1*
X4123617Y1844124D1*
X4120505Y1838566D1*
X4116966Y1833270D1*
X4113022Y1828267D1*
X4108698Y1823590D1*
X4104020Y1819266D1*
X4099018Y1815322D1*
X4093721Y1811783D1*
X4088163Y1808670D1*
X4082378Y1806003D1*
X4076402Y1803798D1*
X4070271Y1802069D1*
X4064023Y1800827D1*
X4057697Y1800078D1*
X4051332Y1799828D1*
X4044967Y1800078D1*
X4038641Y1800827D1*
X4032393Y1802069D1*
X4026262Y1803798D1*
X4020286Y1806003D1*
X4014501Y1808670D1*
X4008943Y1811783D1*
X4003646Y1815322D1*
X3998644Y1819266D1*
X3993966Y1823590D1*
X3989642Y1828267D1*
X3985698Y1833270D1*
X3982159Y1838566D1*
X3979047Y1844124D1*
X3976380Y1849909D1*
X3974175Y1855886D1*
X3972446Y1862017D1*
X3971203Y1868264D1*
X3970455Y1874590D1*
X3970204Y1880955D1*
X3970455Y1887321D1*
X3971203Y1893647D1*
X3972446Y1899894D1*
X3974175Y1906025D1*
X3976380Y1912002D1*
X3979047Y1917787D1*
X3982159Y1923344D1*
X3985698Y1928641D1*
X3989642Y1933644D1*
X3993966Y1938321D1*
X3998644Y1942645D1*
X4003646Y1946589D1*
X4008943Y1950128D1*
X4014501Y1953241D1*
X4021116Y1956295D1*
X4012698Y1959961D1*
X4004749Y1964555D1*
X3997369Y1970018D1*
X3990654Y1976280D1*
X3984690Y1983260D1*
X3979553Y1990870D1*
X3975308Y1999011D1*
X3972010Y2007580D1*
X3969702Y2016467D1*
X3968412Y2025557D1*
X3968158Y2034735D1*
X3968943Y2043883D1*
X3970756Y2052883D1*
X3973575Y2061621D1*
X3977363Y2069985D1*
X3982071Y2077867D1*
X3987640Y2085167D1*
X3993999Y2091790D1*
X4001065Y2097653D1*
X4008748Y2102680D1*
X4016950Y2106806D1*
X4025565Y2109980D1*
X4034484Y2112159D1*
X4043592Y2113317D1*
X4052773Y2113438D1*
X4061909Y2112521D1*
X4070882Y2110578D1*
X4079578Y2107633D1*
X4087886Y2103725D1*
X4095700Y2098903D1*
X4102918Y2093228D1*
X4109449Y2086775D1*
X4115209Y2079625D1*
X4120124Y2071870D1*
X4124131Y2063609D1*
X4127179Y2054949D1*
X4129229Y2045999D1*
X4130255Y2036875D1*
X4130359Y2030550D1*
X670101Y1763109D2*
X670134Y1600854D1*
X507879D1*
Y1760722D1*
X508129Y1767087D1*
X508878Y1773413D1*
X510121Y1779661D1*
X511850Y1785792D1*
X514054Y1791768D1*
X516721Y1797553D1*
X519834Y1803111D1*
X523373Y1808407D1*
X527317Y1813410D1*
X531641Y1818088D1*
X536318Y1822412D1*
X541321Y1826355D1*
X546618Y1829894D1*
X552175Y1833007D1*
X557960Y1835674D1*
X563937Y1837879D1*
X570068Y1839608D1*
X576315Y1840851D1*
X582641Y1841599D1*
X589007Y1841849D1*
X595372Y1841599D1*
X601698Y1840851D1*
X607945Y1839608D1*
X614076Y1837879D1*
X620053Y1835674D1*
X625838Y1833007D1*
X631396Y1829894D1*
X636692Y1826355D1*
X641695Y1822412D1*
X646372Y1818088D1*
X650696Y1813410D1*
X654640Y1808407D1*
X658179Y1803111D1*
X661292Y1797553D1*
X663959Y1791768D1*
X666163Y1785792D1*
X667893Y1779661D1*
X669135Y1773413D1*
X670039Y1763134D1*
X507879Y1760890D2*
X507915Y1763109D1*
X3905235Y2365237D2*
D18*
Y2203054D1*
X3824143Y2284146D2*
X3905235D1*
X4005235Y2365237D2*
Y2203054D1*
X1505819Y2365412D2*
Y2203229D1*
X1424727Y2284320D2*
X1505819D1*
X1605235Y2365237D2*
Y2203054D1*
X2105235Y2365237D2*
Y2203054D1*
X2024143Y2284146D2*
X2105235D1*
X2205235Y2365237D2*
Y2203054D1*
X2705235Y2365237D2*
Y2203054D1*
X2624143Y2284146D2*
X2705235D1*
X2805235Y2365237D2*
Y2203054D1*
X3305235Y2365237D2*
Y2203054D1*
X3224143Y2284146D2*
X3305235D1*
X3405235Y2365237D2*
Y2203054D1*
X3905235Y1065237D2*
Y903054D1*
X3824143Y984146D2*
X3905235D1*
X4005235Y1065237D2*
Y903054D1*
X1505235Y1065237D2*
Y903054D1*
X1424143Y984146D2*
X1505235D1*
X1605235Y1065237D2*
Y903054D1*
X2105235Y1065237D2*
Y903054D1*
X2024143Y984146D2*
X2105235D1*
X2205235Y1065237D2*
Y903054D1*
X2705235Y1065237D2*
Y903054D1*
X2624143Y984146D2*
X2705235D1*
X2805235Y1065237D2*
Y903054D1*
X3305235Y1065237D2*
Y903054D1*
X3224143Y984146D2*
X3305235D1*
X3405235Y1065237D2*
Y903054D1*
X4156906Y1780379D2*
Y1668815D1*
X4268470D1*
X4156906Y1468815D2*
Y1357251D1*
Y1468815D2*
X4268470D1*
X3956906D2*
Y1357251D1*
X3845341Y1468815D2*
X3956906D1*
Y1780379D2*
Y1668815D1*
X3845341D2*
X3956906D1*
X560846Y896051D2*
Y811987D1*
X476782Y896051D2*
X560846D1*
X3383493Y843789D2*
Y661920D1*
X3312244Y752854D2*
X3383493D1*
X2801139Y843789D2*
Y661920D1*
X2729890Y752854D2*
X2801139D1*
X2263602Y843789D2*
Y661920D1*
X2192353Y752854D2*
X2263602D1*
X1636432Y843789D2*
Y661920D1*
X1565183Y752854D2*
X1636432D1*
X4049252Y2113479D2*
Y2032387D1*
X3968160D2*
X4130344D1*
X589007Y1681982D2*
Y1600890D1*
X507915Y1681982D2*
X670098D1*
X2858953Y3444383D2*
D17*
X4267661D1*
X2858953Y3404514D2*
X4267661D1*
X2858953Y3364646D2*
X4267661D1*
X2858953Y3324777D2*
X4267661D1*
X2858953Y3284908D2*
X4267661D1*
X2858953Y3245039D2*
X4267661D1*
X2858953Y3205171D2*
X4267661D1*
X2858953Y3165302D2*
X3900673D1*
X4077006D2*
X4100656D1*
X2858953Y3125433D2*
X3878353D1*
X2858953Y3085564D2*
X3873437D1*
X2858953Y3045696D2*
X3081329D1*
X3161385D2*
X3389252D1*
X3481508D2*
X3883305D1*
X2110947Y3005827D2*
X2567647D1*
X2760559D2*
X3032383D1*
X3210295D2*
X3344863D1*
X3525932D2*
X3913986D1*
X2110947Y2965958D2*
X2205540D1*
X2275368D2*
X2405523D1*
X2475387D2*
X2605541D1*
X2784960D2*
X3017563D1*
X3225115D2*
X3331263D1*
X3539497D2*
X3901247D1*
X2110947Y2926089D2*
X2163340D1*
X2317568D2*
X2363323D1*
X2517587D2*
X2563341D1*
X2786216D2*
X3019788D1*
X3222890D2*
X3334564D1*
X3536231D2*
X3878568D1*
X2110947Y2886220D2*
X2155446D1*
X2325427D2*
X2355464D1*
X2525445D2*
X2555447D1*
X2786216D2*
X3040565D1*
X3202149D2*
X3356848D1*
X3513911D2*
X3873401D1*
X2110947Y2846352D2*
X2168687D1*
X2312221D2*
X2368669D1*
X2512204D2*
X2568688D1*
X2786216D2*
X3883018D1*
X2110947Y2806483D2*
X2647454D1*
X2786216D2*
X3913161D1*
X2110947Y2766614D2*
X2647454D1*
X2786216D2*
X4000323D1*
X4170592D2*
X4267661D1*
X2110947Y2726745D2*
X2647454D1*
X2786216D2*
X4010515D1*
X4160401D2*
X4267661D1*
X2110947Y2686877D2*
X2629799D1*
X2786216D2*
X3071282D1*
X3171432D2*
X3380639D1*
X3490156D2*
X4039724D1*
X4138798D2*
X4267661D1*
X2110947Y2647008D2*
X2177801D1*
X2303107D2*
X2377784D1*
X2503089D2*
X2577803D1*
X2778680D2*
X3029692D1*
X3212986D2*
X3342315D1*
X3528444D2*
X4008864D1*
X4169659D2*
X4267661D1*
X2110947Y2607139D2*
X2156953D1*
X2323956D2*
X2356935D1*
X2523938D2*
X2556954D1*
X2742975D2*
X3017025D1*
X3225653D2*
X3330832D1*
X3539927D2*
X4005096D1*
X4173391D2*
X4267661D1*
X2110947Y2567270D2*
X2158855D1*
X2322054D2*
X2358873D1*
X2522036D2*
X2558856D1*
X2722055D2*
X3021080D1*
X3221599D2*
X3335964D1*
X3534832D2*
X4023397D1*
X4155126D2*
X4267661D1*
X2110947Y2527402D2*
X2186019D1*
X2294889D2*
X2386037D1*
X2494872D2*
X2586020D1*
X2694890D2*
X3044620D1*
X3198094D2*
X3361226D1*
X3509569D2*
X4267661D1*
X2651486Y2810632D2*
X2640450Y2809829D1*
X2634085Y2810079D1*
X2627759Y2810828D1*
X2621511Y2812071D1*
X2615380Y2813800D1*
X2609404Y2816005D1*
X2603619Y2818672D1*
X2598061Y2821784D1*
X2592765Y2825323D1*
X2587762Y2829267D1*
X2583084Y2833591D1*
X2578760Y2838269D1*
X2574817Y2843271D1*
X2571278Y2848568D1*
X2568165Y2854126D1*
X2565498Y2859911D1*
X2563293Y2865887D1*
X2561564Y2872018D1*
X2560321Y2878266D1*
X2559573Y2884591D1*
X2559323Y2890957D1*
X2559573Y2897322D1*
X2560321Y2903648D1*
X2561564Y2909896D1*
X2563293Y2916026D1*
X2565498Y2922003D1*
X2568165Y2927788D1*
X2571278Y2933346D1*
X2574817Y2938642D1*
X2578760Y2943645D1*
X2583084Y2948323D1*
X2587762Y2952647D1*
X2592765Y2956590D1*
X2598061Y2960129D1*
X2603619Y2963242D1*
X2610968Y2966486D1*
X2565648Y3011813D1*
X2106906Y3011811D1*
X2106929Y2500617D1*
X3092440Y2500630D1*
X3084024Y2503560D1*
X3075657Y2507345D1*
X3067670Y2511875D1*
X3060127Y2517114D1*
X3053093Y2523017D1*
X3046624Y2529536D1*
X3040776Y2536616D1*
X3035597Y2544199D1*
X3031129Y2552222D1*
X3027409Y2560618D1*
X3024469Y2569318D1*
X3022333Y2578249D1*
X3021018Y2587338D1*
X3020536Y2596508D1*
X3020891Y2605685D1*
X3022079Y2614791D1*
X3024090Y2623751D1*
X3026909Y2632491D1*
X3030511Y2640938D1*
X3034867Y2649022D1*
X3039941Y2656677D1*
X3045690Y2663838D1*
X3052067Y2670446D1*
X3059018Y2676446D1*
X3066487Y2681789D1*
X3074411Y2686430D1*
X3082725Y2690331D1*
X3091359Y2693459D1*
X3100241Y2695789D1*
X3109299Y2697300D1*
X3118457Y2697981D1*
X3127639Y2697826D1*
X3136769Y2696836D1*
X3145770Y2695019D1*
X3154569Y2692391D1*
X3163093Y2688973D1*
X3171270Y2684793D1*
X3179032Y2679887D1*
X3186316Y2674295D1*
X3193061Y2668063D1*
X3199211Y2661243D1*
X3204715Y2653892D1*
X3209527Y2646071D1*
X3213607Y2637844D1*
X3216922Y2629280D1*
X3219444Y2620450D1*
X3221152Y2611427D1*
X3222031Y2602286D1*
X3222092Y2593536D1*
X3221340Y2584384D1*
X3219758Y2575338D1*
X3217359Y2566474D1*
X3214164Y2557864D1*
X3210199Y2549581D1*
X3205496Y2541694D1*
X3200095Y2534267D1*
X3194041Y2527362D1*
X3187383Y2521037D1*
X3180178Y2515344D1*
X3172484Y2510330D1*
X3164366Y2506037D1*
X3155891Y2502501D1*
X3150244Y2500631D1*
X3417120Y2500630D1*
X3406747Y2503121D1*
X3398070Y2506129D1*
X3389703Y2509913D1*
X3381716Y2514444D1*
X3374173Y2519682D1*
X3367139Y2525585D1*
X3360670Y2532104D1*
X3354822Y2539184D1*
X3349643Y2546767D1*
X3345175Y2554790D1*
X3341455Y2563186D1*
X3338515Y2571886D1*
X3336379Y2580817D1*
X3335064Y2589906D1*
X3334582Y2599077D1*
X3334937Y2608253D1*
X3336125Y2617359D1*
X3338136Y2626319D1*
X3340955Y2635059D1*
X3344557Y2643506D1*
X3348913Y2651590D1*
X3353987Y2659245D1*
X3359736Y2666406D1*
X3366112Y2673014D1*
X3373064Y2679014D1*
X3380533Y2684357D1*
X3388457Y2688998D1*
X3396770Y2692899D1*
X3405404Y2696027D1*
X3414287Y2698357D1*
X3423345Y2699868D1*
X3432503Y2700549D1*
X3441685Y2700394D1*
X3450815Y2699404D1*
X3459816Y2697587D1*
X3468615Y2694959D1*
X3477139Y2691541D1*
X3485316Y2687362D1*
X3493078Y2682455D1*
X3500362Y2676863D1*
X3507107Y2670631D1*
X3513257Y2663811D1*
X3518761Y2656460D1*
X3523573Y2648639D1*
X3527653Y2640412D1*
X3530968Y2631848D1*
X3533490Y2623018D1*
X3535198Y2613995D1*
X3536077Y2604854D1*
X3536138Y2596104D1*
X3535386Y2586952D1*
X3533804Y2577906D1*
X3531405Y2569042D1*
X3528210Y2560433D1*
X3524245Y2552150D1*
X3519542Y2544262D1*
X3514141Y2536835D1*
X3508087Y2529930D1*
X3501429Y2523605D1*
X3494223Y2517912D1*
X3486530Y2512898D1*
X3478412Y2508605D1*
X3469937Y2505069D1*
X3461175Y2502318D1*
X3453620Y2500630D1*
X4271666D1*
X4271653Y2817188D1*
X4264724Y2810195D1*
X4256283Y2803111D1*
X4247186Y2796894D1*
X4237519Y2791604D1*
X4227378Y2787294D1*
X4216861Y2784004D1*
X4206072Y2781768D1*
X4195114Y2780606D1*
X4184095Y2780531D1*
X4173122Y2781543D1*
X4164785Y2783058D1*
X4166332Y2772458D1*
X4166582Y2766093D1*
X4166332Y2759728D1*
X4165583Y2753402D1*
X4164340Y2747154D1*
X4162611Y2741023D1*
X4160406Y2735047D1*
X4157739Y2729262D1*
X4154627Y2723704D1*
X4151088Y2718408D1*
X4147144Y2713405D1*
X4142820Y2708727D1*
X4138142Y2704403D1*
X4133140Y2700460D1*
X4127843Y2696921D1*
X4122307Y2693820D1*
X4129496Y2690185D1*
X4137198Y2685187D1*
X4144286Y2679351D1*
X4150669Y2672751D1*
X4156265Y2665472D1*
X4161003Y2657608D1*
X4164823Y2649259D1*
X4167674Y2640531D1*
X4169521Y2631537D1*
X4170340Y2622393D1*
X4170196Y2614233D1*
X4169056Y2605122D1*
X4166893Y2596199D1*
X4163736Y2587578D1*
X4159625Y2579368D1*
X4154612Y2571675D1*
X4148763Y2564599D1*
X4142151Y2558228D1*
X4134862Y2552645D1*
X4126989Y2547922D1*
X4118632Y2544118D1*
X4109900Y2541283D1*
X4100902Y2539453D1*
X4091756Y2538651D1*
X4082578Y2538888D1*
X4073485Y2540160D1*
X4064594Y2542452D1*
X4056019Y2545734D1*
X4047870Y2549963D1*
X4040250Y2555086D1*
X4033259Y2561037D1*
X4026985Y2567740D1*
X4021508Y2575110D1*
X4016899Y2583050D1*
X4013217Y2591461D1*
X4010508Y2600234D1*
X4008809Y2609257D1*
X4008139Y2618414D1*
X4008509Y2627588D1*
X4009913Y2636661D1*
X4012333Y2645518D1*
X4015738Y2654045D1*
X4020085Y2662132D1*
X4025318Y2669676D1*
X4031370Y2676581D1*
X4038163Y2682757D1*
X4045610Y2688127D1*
X4052393Y2692005D1*
X4043065Y2696921D1*
X4037768Y2700460D1*
X4032766Y2704403D1*
X4028088Y2708727D1*
X4023764Y2713405D1*
X4019820Y2718408D1*
X4016281Y2723704D1*
X4013169Y2729262D1*
X4010502Y2735047D1*
X4008297Y2741023D1*
X4006568Y2747154D1*
X4005325Y2753402D1*
X4004577Y2759728D1*
X4004327Y2766093D1*
X4004577Y2772458D1*
X4005913Y2781737D1*
X3995114Y2780606D1*
X3984095Y2780531D1*
X3973122Y2781543D1*
X3962303Y2783632D1*
X3951743Y2786778D1*
X3941544Y2790950D1*
X3931806Y2796108D1*
X3922625Y2802200D1*
X3914089Y2809169D1*
X3906281Y2816945D1*
X3899279Y2825453D1*
X3893150Y2834611D1*
X3887954Y2844328D1*
X3883741Y2854510D1*
X3880554Y2865058D1*
X3878422Y2875869D1*
X3877366Y2886837D1*
X3877397Y2897856D1*
X3878515Y2908819D1*
X3880709Y2919617D1*
X3883956Y2930147D1*
X3888227Y2940305D1*
X3893478Y2949992D1*
X3899659Y2959115D1*
X3906709Y2967583D1*
X3914560Y2975315D1*
X3923136Y2982235D1*
X3932352Y2988275D1*
X3939304Y2992028D1*
X3930235Y2997060D1*
X3921155Y3003303D1*
X3912735Y3010411D1*
X3905056Y3018314D1*
X3898195Y3026937D1*
X3892218Y3036194D1*
X3887182Y3045995D1*
X3883138Y3056245D1*
X3880124Y3066844D1*
X3878170Y3077689D1*
X3877296Y3088673D1*
X3877508Y3099690D1*
X3878806Y3110633D1*
X3881177Y3121394D1*
X3884598Y3131868D1*
X3889035Y3141955D1*
X3894445Y3151554D1*
X3900775Y3160574D1*
X3907964Y3168925D1*
X3915941Y3176526D1*
X3924630Y3183304D1*
X3933944Y3189192D1*
X3943793Y3194133D1*
X3954082Y3198078D1*
X3964710Y3200989D1*
X3975572Y3202838D1*
X3986565Y3203607D1*
X3997579Y3203288D1*
X4008509Y3201884D1*
X4019246Y3199410D1*
X4029688Y3195888D1*
X4039731Y3191354D1*
X4049278Y3185852D1*
X4058236Y3179435D1*
X4066517Y3172165D1*
X4074041Y3164115D1*
X4080735Y3155362D1*
X4086532Y3145991D1*
X4088843Y3141571D1*
X4093478Y3149992D1*
X4099659Y3159115D1*
X4106709Y3167583D1*
X4114560Y3175315D1*
X4123136Y3182235D1*
X4132352Y3188275D1*
X4142119Y3193377D1*
X4152341Y3197491D1*
X4162919Y3200577D1*
X4173750Y3202605D1*
X4184728Y3203554D1*
X4195747Y3203417D1*
X4206698Y3202193D1*
X4217474Y3199895D1*
X4227972Y3196546D1*
X4238089Y3192178D1*
X4247725Y3186834D1*
X4256787Y3180565D1*
X4265187Y3173433D1*
X4271655Y3166843D1*
X4271653Y3484275D1*
X2854958Y3484252D1*
X2854899Y3030242D1*
X2853982Y3025631D1*
X2852014Y3021361D1*
X2849103Y3017669D1*
X2845411Y3014758D1*
X2841141Y3012790D1*
X2836530Y3011873D1*
X2750597Y3011811D1*
X2766565Y2995531D1*
X2772596Y2987232D1*
X2777253Y2978091D1*
X2780424Y2968333D1*
X2782028Y2958200D1*
X2782230Y2934698D1*
X2782028Y2672351D1*
X2780424Y2662218D1*
X2777253Y2652461D1*
X2772596Y2643320D1*
X2766565Y2635020D1*
X2750089Y2618259D1*
X2721544Y2589713D1*
X2720579Y2578266D1*
X2719336Y2572018D1*
X2717607Y2565887D1*
X2715402Y2559911D1*
X2712735Y2554126D1*
X2709623Y2548568D1*
X2706084Y2543271D1*
X2702140Y2538269D1*
X2697816Y2533591D1*
X2693138Y2529267D1*
X2688136Y2525323D1*
X2682839Y2521784D1*
X2677281Y2518672D1*
X2671496Y2516005D1*
X2665520Y2513800D1*
X2659389Y2512071D1*
X2653141Y2510828D1*
X2646815Y2510079D1*
X2640450Y2509829D1*
X2634085Y2510079D1*
X2627759Y2510828D1*
X2621511Y2512071D1*
X2615380Y2513800D1*
X2609404Y2516005D1*
X2603619Y2518672D1*
X2598061Y2521784D1*
X2592765Y2525323D1*
X2587762Y2529267D1*
X2583084Y2533591D1*
X2578760Y2538269D1*
X2574817Y2543271D1*
X2571278Y2548568D1*
X2568165Y2554126D1*
X2565498Y2559911D1*
X2563293Y2565887D1*
X2561564Y2572018D1*
X2560321Y2578266D1*
X2559573Y2584591D1*
X2559323Y2590957D1*
X2559573Y2597322D1*
X2560321Y2603648D1*
X2561564Y2609896D1*
X2563293Y2616026D1*
X2565498Y2622003D1*
X2568165Y2627788D1*
X2571278Y2633346D1*
X2574817Y2638642D1*
X2578760Y2643645D1*
X2583084Y2648323D1*
X2587762Y2652647D1*
X2592765Y2656590D1*
X2598061Y2660129D1*
X2603619Y2663242D1*
X2609404Y2665909D1*
X2614797Y2667898D1*
X2651453Y2704544D1*
X2651471Y2810575D1*
X2521328Y2884591D2*
X2520579Y2878266D1*
X2519336Y2872018D1*
X2517607Y2865887D1*
X2515402Y2859911D1*
X2512735Y2854126D1*
X2509623Y2848568D1*
X2506084Y2843271D1*
X2502140Y2838269D1*
X2497816Y2833591D1*
X2493138Y2829267D1*
X2488136Y2825323D1*
X2482839Y2821784D1*
X2477281Y2818672D1*
X2471496Y2816005D1*
X2465520Y2813800D1*
X2459389Y2812071D1*
X2453141Y2810828D1*
X2446815Y2810079D1*
X2440450Y2809829D1*
X2434085Y2810079D1*
X2427759Y2810828D1*
X2421511Y2812071D1*
X2415380Y2813800D1*
X2409404Y2816005D1*
X2403619Y2818672D1*
X2398061Y2821784D1*
X2392765Y2825323D1*
X2387762Y2829267D1*
X2383084Y2833591D1*
X2378760Y2838269D1*
X2374817Y2843271D1*
X2371278Y2848568D1*
X2368165Y2854126D1*
X2365498Y2859911D1*
X2363293Y2865887D1*
X2361564Y2872018D1*
X2360321Y2878266D1*
X2359573Y2884591D1*
X2359323Y2890957D1*
X2359573Y2897322D1*
X2360321Y2903648D1*
X2361564Y2909896D1*
X2363293Y2916026D1*
X2365498Y2922003D1*
X2368165Y2927788D1*
X2371278Y2933346D1*
X2374817Y2938642D1*
X2378760Y2943645D1*
X2383084Y2948323D1*
X2387762Y2952647D1*
X2392765Y2956590D1*
X2398061Y2960129D1*
X2403619Y2963242D1*
X2409404Y2965909D1*
X2415380Y2968114D1*
X2421511Y2969843D1*
X2427759Y2971085D1*
X2434085Y2971834D1*
X2440450Y2972084D1*
X2446815Y2971834D1*
X2453141Y2971085D1*
X2459389Y2969843D1*
X2465520Y2968114D1*
X2471496Y2965909D1*
X2477281Y2963242D1*
X2482839Y2960129D1*
X2488136Y2956590D1*
X2493138Y2952647D1*
X2497816Y2948323D1*
X2502140Y2943645D1*
X2506084Y2938642D1*
X2509623Y2933346D1*
X2512735Y2927788D1*
X2515402Y2922003D1*
X2517607Y2916026D1*
X2519336Y2909896D1*
X2520579Y2903648D1*
X2521328Y2897322D1*
X2521578Y2890957D1*
X2521328Y2884591D1*
Y2584591D2*
X2520579Y2578266D1*
X2519336Y2572018D1*
X2517607Y2565887D1*
X2515402Y2559911D1*
X2512735Y2554126D1*
X2509623Y2548568D1*
X2506084Y2543271D1*
X2502140Y2538269D1*
X2497816Y2533591D1*
X2493138Y2529267D1*
X2488136Y2525323D1*
X2482839Y2521784D1*
X2477281Y2518672D1*
X2471496Y2516005D1*
X2465520Y2513800D1*
X2459389Y2512071D1*
X2453141Y2510828D1*
X2446815Y2510079D1*
X2440450Y2509829D1*
X2434085Y2510079D1*
X2427759Y2510828D1*
X2421511Y2512071D1*
X2415380Y2513800D1*
X2409404Y2516005D1*
X2403619Y2518672D1*
X2398061Y2521784D1*
X2392765Y2525323D1*
X2387762Y2529267D1*
X2383084Y2533591D1*
X2378760Y2538269D1*
X2374817Y2543271D1*
X2371278Y2548568D1*
X2368165Y2554126D1*
X2365498Y2559911D1*
X2363293Y2565887D1*
X2361564Y2572018D1*
X2360321Y2578266D1*
X2359573Y2584591D1*
X2359323Y2590957D1*
X2359573Y2597322D1*
X2360321Y2603648D1*
X2361564Y2609896D1*
X2363293Y2616026D1*
X2365498Y2622003D1*
X2368165Y2627788D1*
X2371278Y2633346D1*
X2374817Y2638642D1*
X2378760Y2643645D1*
X2383084Y2648323D1*
X2387762Y2652647D1*
X2392765Y2656590D1*
X2398061Y2660129D1*
X2403619Y2663242D1*
X2409404Y2665909D1*
X2415380Y2668114D1*
X2421511Y2669843D1*
X2427759Y2671085D1*
X2434085Y2671834D1*
X2440450Y2672084D1*
X2446815Y2671834D1*
X2453141Y2671085D1*
X2459389Y2669843D1*
X2465520Y2668114D1*
X2471496Y2665909D1*
X2477281Y2663242D1*
X2482839Y2660129D1*
X2488136Y2656590D1*
X2493138Y2652647D1*
X2497816Y2648323D1*
X2502140Y2643645D1*
X2506084Y2638642D1*
X2509623Y2633346D1*
X2512735Y2627788D1*
X2515402Y2622003D1*
X2517607Y2616026D1*
X2519336Y2609896D1*
X2520579Y2603648D1*
X2521328Y2597322D1*
X2521578Y2590957D1*
X2521328Y2584591D1*
X2321557Y2889120D2*
X2320830Y2879967D1*
X2319073Y2870955D1*
X2316310Y2862199D1*
X2312575Y2853812D1*
X2307916Y2845900D1*
X2302393Y2838566D1*
X2296076Y2831902D1*
X2289048Y2825995D1*
X2281396Y2820920D1*
X2273220Y2816742D1*
X2264625Y2813515D1*
X2255720Y2811279D1*
X2246619Y2810064D1*
X2237440Y2809885D1*
X2228298Y2810744D1*
X2219313Y2812631D1*
X2210598Y2815521D1*
X2202266Y2819377D1*
X2194422Y2824150D1*
X2187169Y2829779D1*
X2180597Y2836191D1*
X2174792Y2843304D1*
X2169829Y2851028D1*
X2165769Y2859264D1*
X2162666Y2867905D1*
X2160560Y2876842D1*
X2159477Y2885959D1*
X2159431Y2895140D1*
X2160422Y2904268D1*
X2162439Y2913225D1*
X2165454Y2921897D1*
X2169431Y2930173D1*
X2174317Y2937946D1*
X2180050Y2945118D1*
X2186556Y2951596D1*
X2193753Y2957297D1*
X2201548Y2962149D1*
X2209841Y2966088D1*
X2218527Y2969066D1*
X2227493Y2971043D1*
X2236625Y2971994D1*
X2245806Y2971907D1*
X2254918Y2970784D1*
X2263845Y2968638D1*
X2272473Y2965497D1*
X2280690Y2961401D1*
X2288392Y2956403D1*
X2295480Y2950567D1*
X2301863Y2943967D1*
X2307459Y2936689D1*
X2312198Y2928825D1*
X2316017Y2920475D1*
X2318868Y2911748D1*
X2320715Y2902754D1*
X2321534Y2893609D1*
X2321557Y2889120D1*
X2321328Y2584591D2*
X2320579Y2578266D1*
X2319336Y2572018D1*
X2317607Y2565887D1*
X2315402Y2559911D1*
X2312735Y2554126D1*
X2309623Y2548568D1*
X2306084Y2543271D1*
X2302140Y2538269D1*
X2297816Y2533591D1*
X2293138Y2529267D1*
X2288136Y2525323D1*
X2282839Y2521784D1*
X2277281Y2518672D1*
X2271496Y2516005D1*
X2265520Y2513800D1*
X2259389Y2512071D1*
X2253141Y2510828D1*
X2246815Y2510079D1*
X2240450Y2509829D1*
X2234085Y2510079D1*
X2227759Y2510828D1*
X2221511Y2512071D1*
X2215380Y2513800D1*
X2209404Y2516005D1*
X2203619Y2518672D1*
X2198061Y2521784D1*
X2192765Y2525323D1*
X2187762Y2529267D1*
X2183084Y2533591D1*
X2178760Y2538269D1*
X2174817Y2543271D1*
X2171278Y2548568D1*
X2168165Y2554126D1*
X2165498Y2559911D1*
X2163293Y2565887D1*
X2161564Y2572018D1*
X2160321Y2578266D1*
X2159573Y2584591D1*
X2159323Y2590957D1*
X2159573Y2597322D1*
X2160321Y2603648D1*
X2161564Y2609896D1*
X2163293Y2616026D1*
X2165498Y2622003D1*
X2168165Y2627788D1*
X2171278Y2633346D1*
X2174817Y2638642D1*
X2178760Y2643645D1*
X2183084Y2648323D1*
X2187762Y2652647D1*
X2192765Y2656590D1*
X2198061Y2660129D1*
X2203619Y2663242D1*
X2209404Y2665909D1*
X2215380Y2668114D1*
X2221511Y2669843D1*
X2227759Y2671085D1*
X2234085Y2671834D1*
X2240450Y2672084D1*
X2246815Y2671834D1*
X2253141Y2671085D1*
X2259389Y2669843D1*
X2265520Y2668114D1*
X2271496Y2665909D1*
X2277281Y2663242D1*
X2282839Y2660129D1*
X2288136Y2656590D1*
X2293138Y2652647D1*
X2297816Y2648323D1*
X2302140Y2643645D1*
X2306084Y2638642D1*
X2309623Y2633346D1*
X2312735Y2627788D1*
X2315402Y2622003D1*
X2317607Y2616026D1*
X2319336Y2609896D1*
X2320579Y2603648D1*
X2321328Y2597322D1*
X2321578Y2590957D1*
X2321328Y2584591D1*
X3221848Y2943631D2*
X3220918Y2935770D1*
X3219374Y2928006D1*
X3217225Y2920388D1*
X3214485Y2912961D1*
X3211171Y2905773D1*
X3207303Y2898866D1*
X3202906Y2892285D1*
X3198005Y2886068D1*
X3192632Y2880255D1*
X3186819Y2874882D1*
X3180603Y2869982D1*
X3174021Y2865584D1*
X3167114Y2861716D1*
X3159926Y2858402D1*
X3152499Y2855662D1*
X3144881Y2853514D1*
X3137117Y2851969D1*
X3129256Y2851039D1*
X3121346Y2850728D1*
X3113437Y2851039D1*
X3105576Y2851969D1*
X3097812Y2853514D1*
X3090194Y2855662D1*
X3082767Y2858402D1*
X3075578Y2861716D1*
X3068672Y2865584D1*
X3062090Y2869982D1*
X3055874Y2874882D1*
X3050061Y2880255D1*
X3044688Y2886068D1*
X3039787Y2892285D1*
X3035390Y2898866D1*
X3031522Y2905773D1*
X3028208Y2912961D1*
X3025468Y2920388D1*
X3023319Y2928006D1*
X3021775Y2935770D1*
X3020845Y2943631D1*
X3020534Y2951541D1*
X3020845Y2959450D1*
X3021775Y2967311D1*
X3023319Y2975075D1*
X3025468Y2982693D1*
X3028208Y2990120D1*
X3031522Y2997309D1*
X3035390Y3004215D1*
X3039787Y3010797D1*
X3044688Y3017013D1*
X3050061Y3022826D1*
X3055874Y3028199D1*
X3062090Y3033100D1*
X3068672Y3037498D1*
X3075578Y3041365D1*
X3082767Y3044679D1*
X3090194Y3047419D1*
X3097812Y3049568D1*
X3105576Y3051112D1*
X3113437Y3052043D1*
X3121346Y3052353D1*
X3129256Y3052043D1*
X3137117Y3051112D1*
X3144881Y3049568D1*
X3152499Y3047419D1*
X3159926Y3044679D1*
X3167114Y3041365D1*
X3174021Y3037498D1*
X3180603Y3033100D1*
X3186819Y3028199D1*
X3192632Y3022826D1*
X3198005Y3017013D1*
X3202906Y3010797D1*
X3207303Y3004215D1*
X3211171Y2997309D1*
X3214485Y2990120D1*
X3217225Y2982693D1*
X3219374Y2975075D1*
X3220918Y2967311D1*
X3221848Y2959450D1*
X3222159Y2951541D1*
X3221848Y2943631D1*
X3535894Y2946199D2*
X3534964Y2938338D1*
X3533420Y2930575D1*
X3531271Y2922956D1*
X3528531Y2915530D1*
X3525217Y2908341D1*
X3521349Y2901434D1*
X3516951Y2894853D1*
X3512051Y2888636D1*
X3506678Y2882824D1*
X3500865Y2877450D1*
X3494649Y2872550D1*
X3488067Y2868152D1*
X3481160Y2864284D1*
X3473972Y2860970D1*
X3466545Y2858230D1*
X3458927Y2856082D1*
X3451163Y2854537D1*
X3443302Y2853607D1*
X3435392Y2853296D1*
X3427483Y2853607D1*
X3419622Y2854537D1*
X3411858Y2856082D1*
X3404240Y2858230D1*
X3396813Y2860970D1*
X3389624Y2864284D1*
X3382718Y2868152D1*
X3376136Y2872550D1*
X3369920Y2877450D1*
X3364107Y2882824D1*
X3358734Y2888636D1*
X3353833Y2894853D1*
X3349436Y2901434D1*
X3345568Y2908341D1*
X3342254Y2915530D1*
X3339514Y2922956D1*
X3337365Y2930575D1*
X3335821Y2938338D1*
X3334891Y2946199D1*
X3334580Y2954109D1*
X3334891Y2962019D1*
X3335821Y2969879D1*
X3337365Y2977643D1*
X3339514Y2985262D1*
X3342254Y2992688D1*
X3345568Y2999877D1*
X3349436Y3006783D1*
X3353833Y3013365D1*
X3358734Y3019581D1*
X3364107Y3025394D1*
X3369920Y3030767D1*
X3376136Y3035668D1*
X3382718Y3040066D1*
X3389624Y3043934D1*
X3396813Y3047248D1*
X3404240Y3049987D1*
X3411858Y3052136D1*
X3419622Y3053680D1*
X3427483Y3054611D1*
X3435392Y3054922D1*
X3443302Y3054611D1*
X3451163Y3053680D1*
X3458927Y3052136D1*
X3466545Y3049987D1*
X3473972Y3047248D1*
X3481160Y3043934D1*
X3488067Y3040066D1*
X3494649Y3035668D1*
X3500865Y3030767D1*
X3506678Y3025394D1*
X3512051Y3019581D1*
X3516951Y3013365D1*
X3521349Y3006783D1*
X3525217Y2999877D1*
X3528531Y2992688D1*
X3531271Y2985262D1*
X3533420Y2977643D1*
X3534964Y2969879D1*
X3535894Y2962019D1*
X3536205Y2954109D1*
X3535894Y2946199D1*
X2240450Y2972048D2*
D18*
Y2809865D1*
X2159358Y2890957D2*
X2321542D1*
X3121346Y2697987D2*
Y2597210D1*
X3020570D2*
X3222123D1*
X3435392Y2700555D2*
Y2599778D1*
X3334616D2*
X3536169D1*
X4188845Y3203594D2*
Y3092030D1*
Y2892030D2*
Y2780466D1*
X3988845Y2892030D2*
Y2780466D1*
X3877281Y2892030D2*
X3988845D1*
Y3203594D2*
Y3092030D1*
X3877281D2*
X3988845D1*
X4089256Y2619740D2*
Y2538648D1*
X4008164Y2619740D2*
X4170348D1*
X1835357Y3444383D2*
D17*
X2311398D1*
X2728155D2*
X2771577D1*
X1835357Y3404514D2*
X2304150D1*
X2735368D2*
X2771577D1*
X1835357Y3364646D2*
X1907342D1*
X2030315D2*
X2104167D1*
X2227140D2*
X2311685D1*
X2727868D2*
X2771577D1*
X1835357Y3324777D2*
X1885561D1*
X2052061D2*
X2082421D1*
X2248922D2*
X2338096D1*
X2701457D2*
X2771577D1*
X1835357Y3284908D2*
X1886888D1*
X2050769D2*
X2083713D1*
X2247630D2*
X2337953D1*
X2701565D2*
X2771577D1*
X1835357Y3245039D2*
X1912940D1*
X2024717D2*
X2109765D1*
X2221542D2*
X2311650D1*
X2727904D2*
X2771577D1*
X1835357Y3205171D2*
X2304150D1*
X2735368D2*
X2771577D1*
X1835357Y3165302D2*
X2311434D1*
X2728119D2*
X2771577D1*
X1835357Y3125433D2*
X2337414D1*
X2702103D2*
X2771577D1*
X2731351Y3203070D2*
X2730626Y3192074D1*
X2728820Y3181204D1*
X2725951Y3170565D1*
X2722047Y3160261D1*
X2717145Y3150392D1*
X2711295Y3141054D1*
X2704552Y3132339D1*
X2696982Y3124332D1*
X2688659Y3117110D1*
X2679665Y3110744D1*
X2670087Y3105296D1*
X2661119Y3101255D1*
X2671207Y3091175D1*
X2775583Y3091181D1*
X2775591Y3484244D1*
X2698237Y3484252D1*
X2704962Y3476992D1*
X2711656Y3468238D1*
X2717453Y3458868D1*
X2722299Y3448971D1*
X2726145Y3438645D1*
X2728953Y3427990D1*
X2730697Y3417109D1*
X2731360Y3406110D1*
X2730989Y3395731D1*
X2729541Y3384807D1*
X2727024Y3374079D1*
X2723461Y3363652D1*
X2718887Y3353627D1*
X2713347Y3344102D1*
X2706894Y3335170D1*
X2699592Y3326917D1*
X2691512Y3319425D1*
X2682733Y3312767D1*
X2673339Y3307006D1*
X2669309Y3304910D1*
X2678646Y3299710D1*
X2687709Y3293442D1*
X2696108Y3286310D1*
X2703764Y3278384D1*
X2710601Y3269743D1*
X2716552Y3260469D1*
X2721560Y3250653D1*
X2725575Y3240392D1*
X2728558Y3229784D1*
X2730481Y3218934D1*
X2731325Y3207947D1*
X2731351Y3203070D1*
X2467228Y3103905D2*
X2458299Y3100170D1*
X2447783Y3096881D1*
X2436993Y3094644D1*
X2426035Y3093483D1*
X2415016Y3093408D1*
X2404044Y3094420D1*
X2393224Y3096509D1*
X2382664Y3099655D1*
X2372465Y3103827D1*
X2362727Y3108984D1*
X2353546Y3115077D1*
X2345010Y3122045D1*
X2337203Y3129822D1*
X2330200Y3138330D1*
X2324071Y3147487D1*
X2318875Y3157204D1*
X2314663Y3167386D1*
X2311475Y3177934D1*
X2309343Y3188745D1*
X2308287Y3199714D1*
X2308319Y3210733D1*
X2309436Y3221695D1*
X2311630Y3232494D1*
X2314878Y3243023D1*
X2319148Y3253182D1*
X2324399Y3262869D1*
X2330580Y3271991D1*
X2337630Y3280460D1*
X2345482Y3288191D1*
X2354057Y3295111D1*
X2363273Y3301152D1*
X2370225Y3304904D1*
X2361156Y3309936D1*
X2352076Y3316179D1*
X2343656Y3323287D1*
X2335978Y3331191D1*
X2329117Y3339813D1*
X2323139Y3349070D1*
X2318104Y3358872D1*
X2314059Y3369122D1*
X2311046Y3379721D1*
X2309092Y3390565D1*
X2308217Y3401550D1*
X2308430Y3412567D1*
X2309728Y3423509D1*
X2312099Y3434270D1*
X2315519Y3444745D1*
X2319956Y3454831D1*
X2325366Y3464431D1*
X2331696Y3473450D1*
X2338885Y3481802D1*
X2341293Y3484255D1*
X1831347Y3484252D1*
X1831339Y3091189D1*
X2478964Y3091181D1*
X2470039Y3100370D1*
X2049926Y3305564D2*
X2049199Y3296412D1*
X2047442Y3287400D1*
X2044679Y3278644D1*
X2040943Y3270257D1*
X2036285Y3262345D1*
X2030762Y3255011D1*
X2024445Y3248347D1*
X2017416Y3242440D1*
X2009765Y3237365D1*
X2001589Y3233187D1*
X1992994Y3229960D1*
X1984089Y3227724D1*
X1974988Y3226509D1*
X1965808Y3226330D1*
X1956667Y3227189D1*
X1947682Y3229076D1*
X1938967Y3231966D1*
X1930634Y3235822D1*
X1922791Y3240595D1*
X1915537Y3246224D1*
X1908966Y3252636D1*
X1903161Y3259749D1*
X1898197Y3267473D1*
X1894138Y3275709D1*
X1891035Y3284350D1*
X1888929Y3293286D1*
X1887845Y3302404D1*
X1887799Y3311585D1*
X1888791Y3320713D1*
X1890807Y3329670D1*
X1893823Y3338342D1*
X1897799Y3346618D1*
X1902685Y3354391D1*
X1908418Y3361563D1*
X1914925Y3368041D1*
X1922122Y3373742D1*
X1929917Y3378594D1*
X1938210Y3382533D1*
X1946895Y3385511D1*
X1955861Y3387488D1*
X1964993Y3388439D1*
X1974174Y3388352D1*
X1983287Y3387229D1*
X1992214Y3385083D1*
X2000841Y3381942D1*
X2009059Y3377846D1*
X2016761Y3372848D1*
X2023849Y3367012D1*
X2030232Y3360412D1*
X2035828Y3353134D1*
X2040566Y3345269D1*
X2044386Y3336920D1*
X2047237Y3328193D1*
X2049084Y3319199D1*
X2049903Y3310054D1*
X2049926Y3305564D1*
X2246547Y3301036D2*
X2245798Y3294710D1*
X2244555Y3288463D1*
X2242826Y3282332D1*
X2240621Y3276355D1*
X2237954Y3270570D1*
X2234842Y3265013D1*
X2231303Y3259716D1*
X2227359Y3254713D1*
X2223035Y3250036D1*
X2218357Y3245712D1*
X2213355Y3241768D1*
X2208058Y3238229D1*
X2202500Y3235116D1*
X2196715Y3232449D1*
X2190739Y3230245D1*
X2184608Y3228516D1*
X2178360Y3227273D1*
X2172034Y3226524D1*
X2165669Y3226274D1*
X2159304Y3226524D1*
X2152978Y3227273D1*
X2146730Y3228516D1*
X2140599Y3230245D1*
X2134623Y3232449D1*
X2128838Y3235116D1*
X2123280Y3238229D1*
X2117984Y3241768D1*
X2112981Y3245712D1*
X2108303Y3250036D1*
X2103979Y3254713D1*
X2100036Y3259716D1*
X2096497Y3265013D1*
X2093384Y3270570D1*
X2090717Y3276355D1*
X2088512Y3282332D1*
X2086783Y3288463D1*
X2085541Y3294710D1*
X2084792Y3301036D1*
X2084542Y3307402D1*
X2084792Y3313767D1*
X2085541Y3320093D1*
X2086783Y3326340D1*
X2088512Y3332471D1*
X2090717Y3338448D1*
X2093384Y3344233D1*
X2096497Y3349791D1*
X2100036Y3355087D1*
X2103979Y3360090D1*
X2108303Y3364767D1*
X2112981Y3369091D1*
X2117984Y3373035D1*
X2123280Y3376574D1*
X2128838Y3379687D1*
X2134623Y3382354D1*
X2140599Y3384558D1*
X2146730Y3386288D1*
X2152978Y3387530D1*
X2159304Y3388279D1*
X2165669Y3388529D1*
X2172034Y3388279D1*
X2178360Y3387530D1*
X2184608Y3386288D1*
X2190739Y3384558D1*
X2196715Y3382354D1*
X2202500Y3379687D1*
X2208058Y3376574D1*
X2213355Y3373035D1*
X2218357Y3369091D1*
X2223035Y3364767D1*
X2227359Y3360090D1*
X2231303Y3355087D1*
X2234842Y3349791D1*
X2237954Y3344233D1*
X2240621Y3338448D1*
X2242826Y3332471D1*
X2244555Y3326340D1*
X2245798Y3320093D1*
X2246547Y3313767D1*
X2246797Y3307402D1*
X2246547Y3301036D1*
X2619766Y3204907D2*
D18*
X2731331D1*
X2419766D2*
Y3093343D1*
X2308202Y3204907D2*
X2419766D1*
X2308202Y3404907D2*
X2419766D1*
X2619766D2*
X2731331D1*
X1968819Y3388493D2*
Y3226310D1*
X1887727Y3307402D2*
X2049911D1*
X457404Y3444383D2*
D17*
X1747981D1*
X457404Y3404514D2*
X1747981D1*
X457404Y3364646D2*
X1747981D1*
X457404Y3324777D2*
X1747981D1*
X457404Y3284908D2*
X1747981D1*
X457404Y3245039D2*
X1747981D1*
X457404Y3205171D2*
X1747981D1*
X457404Y3165302D2*
X1747981D1*
X457404Y3125433D2*
X1077736D1*
X1206379D2*
X1235196D1*
X1363838D2*
X1747981D1*
X457404Y3085564D2*
X1058215D1*
X1383359D2*
X1695841D1*
X457404Y3045696D2*
X1061014D1*
X1380560D2*
X1654754D1*
X457404Y3005827D2*
X1089972D1*
X1194106D2*
X1247468D1*
X1351602D2*
X1647182D1*
X1817091D2*
X2023571D1*
X457404Y2965958D2*
X1660746D1*
X1803527D2*
X1905512D1*
X1975377D2*
X2023571D1*
X457404Y2926089D2*
X1376938D1*
X1531633D2*
X1863312D1*
X457404Y2886220D2*
X508182D1*
X694814D2*
X1359319D1*
X1549252D2*
X1855454D1*
X732205Y2846352D2*
X1361939D1*
X1546668D2*
X1868695D1*
X739418Y2806483D2*
X1362405D1*
X1546166D2*
X2023571D1*
X726392Y2766614D2*
X1360109D1*
X1548462D2*
X2023571D1*
X738269Y2726745D2*
X1014831D1*
X1118893D2*
X1380311D1*
X1528260D2*
X2023571D1*
X735793Y2686877D2*
X992511D1*
X1141249D2*
X1647003D1*
X1817271D2*
X2023571D1*
X731918Y2647008D2*
X996422D1*
X1137337D2*
X1647003D1*
X1817271D2*
X1877810D1*
X2003115D2*
X2023571D1*
X739453Y2607139D2*
X1007439D1*
X1130448D2*
X1647003D1*
X1817271D2*
X1856961D1*
X726786Y2567270D2*
X1007439D1*
X1130448D2*
X1647003D1*
X1817271D2*
X1858863D1*
X738162Y2527402D2*
X1007439D1*
X1130448D2*
X1886027D1*
X1994862D2*
X2023571D1*
X736009Y2487533D2*
X1007439D1*
X1130448D2*
X1158655D1*
X731595Y2447664D2*
X1007439D1*
X1130448D2*
X1157435D1*
X739489Y2407795D2*
X1007439D1*
X1130448D2*
X1157435D1*
X727217Y2367927D2*
X1007439D1*
X1130448D2*
X1157435D1*
X738018Y2328058D2*
X1005142D1*
X1132744D2*
X1157435D1*
X736188Y2288189D2*
X993336D1*
X731272Y2248320D2*
X1005788D1*
X1132062D2*
X1157435D1*
X739525Y2208451D2*
X1157435D1*
X727612Y2168583D2*
X852383D1*
X982569D2*
X1157435D1*
X737910Y2128714D2*
X833472D1*
X1001480D2*
X1157435D1*
X736367Y2088845D2*
X836738D1*
X998214D2*
X1157435D1*
X457404Y2048976D2*
X491675D1*
X711320D2*
X866593D1*
X968359D2*
X1157435D1*
X457404Y2009108D2*
X1157435D1*
X457404Y1969239D2*
X1157435D1*
X1660199Y2694629D2*
X1813268D1*
Y2532374D1*
X1651013D1*
Y2694629D1*
X1660199D1*
X1813018Y3004774D2*
X1812269Y2998448D1*
X1811026Y2992200D1*
X1809297Y2986069D1*
X1807093Y2980093D1*
X1804426Y2974308D1*
X1801313Y2968750D1*
X1797774Y2963454D1*
X1793830Y2958451D1*
X1789506Y2953773D1*
X1784829Y2949449D1*
X1779826Y2945506D1*
X1774529Y2941966D1*
X1768972Y2938854D1*
X1763187Y2936187D1*
X1757210Y2933982D1*
X1751079Y2932253D1*
X1744832Y2931010D1*
X1738506Y2930262D1*
X1732140Y2930012D1*
X1725775Y2930262D1*
X1719449Y2931010D1*
X1713202Y2932253D1*
X1707071Y2933982D1*
X1701094Y2936187D1*
X1695309Y2938854D1*
X1689751Y2941966D1*
X1684455Y2945506D1*
X1679452Y2949449D1*
X1674775Y2953773D1*
X1670451Y2958451D1*
X1666507Y2963454D1*
X1662968Y2968750D1*
X1659855Y2974308D1*
X1657188Y2980093D1*
X1654984Y2986069D1*
X1653254Y2992200D1*
X1652012Y2998448D1*
X1651263Y3004774D1*
X1651013Y3011139D1*
X1651263Y3017504D1*
X1652012Y3023830D1*
X1653254Y3030078D1*
X1654984Y3036209D1*
X1657188Y3042185D1*
X1659855Y3047970D1*
X1662968Y3053528D1*
X1666507Y3058825D1*
X1670451Y3063827D1*
X1674775Y3068505D1*
X1679452Y3072829D1*
X1684455Y3076773D1*
X1689751Y3080312D1*
X1695309Y3083424D1*
X1701094Y3086091D1*
X1707071Y3088296D1*
X1713202Y3090025D1*
X1719449Y3091268D1*
X1725775Y3092017D1*
X1732140Y3092267D1*
X1738506Y3092017D1*
X1744832Y3091268D1*
X1751965Y3089775D1*
X1751968Y3484275D1*
X453404Y3484252D1*
X453386Y1949426D1*
X1161440Y1949449D1*
X1161479Y2482199D1*
X1162396Y2486810D1*
X1164365Y2491080D1*
X1167275Y2494772D1*
X1170967Y2497683D1*
X1175237Y2499651D1*
X1179848Y2500568D1*
X1447822Y2500630D1*
X2027531D1*
X2027559Y3011824D1*
X1813271Y3011811D1*
X1813018Y3004774D1*
X1378459Y2923611D2*
X1391254Y2936181D1*
X1397804Y2940940D1*
X1405019Y2944616D1*
X1412719Y2947118D1*
X1420717Y2948385D1*
X1452324Y2948544D1*
X1487869Y2948385D1*
X1495866Y2947118D1*
X1503567Y2944616D1*
X1510781Y2940940D1*
X1517332Y2936181D1*
X1530149Y2923588D1*
X1535408Y2917431D1*
X1539639Y2910527D1*
X1542737Y2903046D1*
X1544628Y2895173D1*
X1545262Y2887085D1*
X1545104Y2863368D1*
X1543837Y2855370D1*
X1542732Y2851456D1*
X1543293Y2843900D1*
X1545043Y2832851D1*
Y2821666D1*
X1543293Y2810617D1*
X1540707Y2802338D1*
X1543008Y2795044D1*
X1544472Y2787846D1*
X1545187Y2780535D1*
X1545050Y2771752D1*
X1544106Y2764467D1*
X1542417Y2757318D1*
X1540002Y2750381D1*
X1536885Y2743729D1*
X1533100Y2737433D1*
X1528688Y2731560D1*
X1523695Y2726172D1*
X1518173Y2721327D1*
X1512183Y2717076D1*
X1505786Y2713464D1*
X1499052Y2710529D1*
X1492052Y2708303D1*
X1484859Y2706809D1*
X1477552Y2706063D1*
X1434608Y2705973D1*
X1427173Y2706362D1*
X1419916Y2707504D1*
X1412816Y2709386D1*
X1405947Y2711989D1*
X1399382Y2715285D1*
X1393191Y2719239D1*
X1387440Y2723810D1*
X1382190Y2728948D1*
X1377496Y2734599D1*
X1373410Y2740702D1*
X1369972Y2747195D1*
X1367222Y2754006D1*
X1365186Y2761064D1*
X1363888Y2768294D1*
X1363341Y2775620D1*
X1363551Y2782963D1*
X1364515Y2790245D1*
X1366224Y2797389D1*
X1367853Y2802254D1*
X1365292Y2810617D1*
X1363542Y2821666D1*
Y2832851D1*
X1365292Y2843900D1*
X1366722Y2848971D1*
X1364748Y2855370D1*
X1363482Y2863368D1*
X1363323Y2887101D1*
X1363958Y2895173D1*
X1365848Y2903046D1*
X1368947Y2910527D1*
X1373177Y2917431D1*
X1378447Y2923599D1*
X2021328Y2884591D2*
X2020579Y2878266D1*
X2019336Y2872018D1*
X2017607Y2865887D1*
X2015402Y2859911D1*
X2012735Y2854126D1*
X2009623Y2848568D1*
X2006084Y2843271D1*
X2002140Y2838269D1*
X1997816Y2833591D1*
X1993138Y2829267D1*
X1988136Y2825323D1*
X1982839Y2821784D1*
X1977281Y2818672D1*
X1971496Y2816005D1*
X1965520Y2813800D1*
X1959389Y2812071D1*
X1953141Y2810828D1*
X1946815Y2810079D1*
X1940450Y2809829D1*
X1934085Y2810079D1*
X1927759Y2810828D1*
X1921511Y2812071D1*
X1915380Y2813800D1*
X1909404Y2816005D1*
X1903619Y2818672D1*
X1898061Y2821784D1*
X1892765Y2825323D1*
X1887762Y2829267D1*
X1883084Y2833591D1*
X1878760Y2838269D1*
X1874817Y2843271D1*
X1871278Y2848568D1*
X1868165Y2854126D1*
X1865498Y2859911D1*
X1863293Y2865887D1*
X1861564Y2872018D1*
X1860321Y2878266D1*
X1859573Y2884591D1*
X1859323Y2890957D1*
X1859573Y2897322D1*
X1860321Y2903648D1*
X1861564Y2909896D1*
X1863293Y2916026D1*
X1865498Y2922003D1*
X1868165Y2927788D1*
X1871278Y2933346D1*
X1874817Y2938642D1*
X1878760Y2943645D1*
X1883084Y2948323D1*
X1887762Y2952647D1*
X1892765Y2956590D1*
X1898061Y2960129D1*
X1903619Y2963242D1*
X1909404Y2965909D1*
X1915380Y2968114D1*
X1921511Y2969843D1*
X1927759Y2971085D1*
X1934085Y2971834D1*
X1940450Y2972084D1*
X1946815Y2971834D1*
X1953141Y2971085D1*
X1959389Y2969843D1*
X1965520Y2968114D1*
X1971496Y2965909D1*
X1977281Y2963242D1*
X1982839Y2960129D1*
X1988136Y2956590D1*
X1993138Y2952647D1*
X1997816Y2948323D1*
X2002140Y2943645D1*
X2006084Y2938642D1*
X2009623Y2933346D1*
X2012735Y2927788D1*
X2015402Y2922003D1*
X2017607Y2916026D1*
X2019336Y2909896D1*
X2020579Y2903648D1*
X2021328Y2897322D1*
X2021578Y2890957D1*
X2021328Y2884591D1*
Y2584591D2*
X2020579Y2578266D1*
X2019336Y2572018D1*
X2017607Y2565887D1*
X2015402Y2559911D1*
X2012735Y2554126D1*
X2009623Y2548568D1*
X2006084Y2543271D1*
X2002140Y2538269D1*
X1997816Y2533591D1*
X1993138Y2529267D1*
X1988136Y2525323D1*
X1982839Y2521784D1*
X1977281Y2518672D1*
X1971496Y2516005D1*
X1965520Y2513800D1*
X1959389Y2512071D1*
X1953141Y2510828D1*
X1946815Y2510079D1*
X1940450Y2509829D1*
X1934085Y2510079D1*
X1927759Y2510828D1*
X1921511Y2512071D1*
X1915380Y2513800D1*
X1909404Y2516005D1*
X1903619Y2518672D1*
X1898061Y2521784D1*
X1892765Y2525323D1*
X1887762Y2529267D1*
X1883084Y2533591D1*
X1878760Y2538269D1*
X1874817Y2543271D1*
X1871278Y2548568D1*
X1868165Y2554126D1*
X1865498Y2559911D1*
X1863293Y2565887D1*
X1861564Y2572018D1*
X1860321Y2578266D1*
X1859573Y2584591D1*
X1859323Y2590957D1*
X1859573Y2597322D1*
X1860321Y2603648D1*
X1861564Y2609896D1*
X1863293Y2616026D1*
X1865498Y2622003D1*
X1868165Y2627788D1*
X1871278Y2633346D1*
X1874817Y2638642D1*
X1878760Y2643645D1*
X1883084Y2648323D1*
X1887762Y2652647D1*
X1892765Y2656590D1*
X1898061Y2660129D1*
X1903619Y2663242D1*
X1909404Y2665909D1*
X1915380Y2668114D1*
X1921511Y2669843D1*
X1927759Y2671085D1*
X1934085Y2671834D1*
X1940450Y2672084D1*
X1946815Y2671834D1*
X1953141Y2671085D1*
X1959389Y2669843D1*
X1965520Y2668114D1*
X1971496Y2665909D1*
X1977281Y2663242D1*
X1982839Y2660129D1*
X1988136Y2656590D1*
X1993138Y2652647D1*
X1997816Y2648323D1*
X2002140Y2643645D1*
X2006084Y2638642D1*
X2009623Y2633346D1*
X2012735Y2627788D1*
X2015402Y2622003D1*
X2017607Y2616026D1*
X2019336Y2609896D1*
X2020579Y2603648D1*
X2021328Y2597322D1*
X2021578Y2590957D1*
X2021328Y2584591D1*
X483889Y2661893D2*
X479789Y2667931D1*
X476562Y2673692D1*
X473798Y2679689D1*
X471512Y2685884D1*
X469720Y2692240D1*
X468431Y2698717D1*
X467655Y2705274D1*
X467396Y2711873D1*
X467655Y2718471D1*
X468431Y2725029D1*
X469720Y2731505D1*
X471512Y2737861D1*
X473798Y2744056D1*
X476562Y2750053D1*
X479789Y2755815D1*
X483889Y2761852D1*
X479789Y2767931D1*
X476562Y2773692D1*
X473798Y2779689D1*
X471512Y2785884D1*
X469720Y2792240D1*
X468431Y2798717D1*
X467655Y2805274D1*
X467396Y2811873D1*
X467655Y2818471D1*
X468431Y2825029D1*
X469720Y2831505D1*
X471512Y2837861D1*
X473798Y2844056D1*
X476562Y2850053D1*
X479789Y2855815D1*
X483458Y2861305D1*
X487546Y2866491D1*
X492028Y2871340D1*
X496877Y2875823D1*
X502063Y2879911D1*
X507554Y2883580D1*
X513315Y2886806D1*
X519312Y2889571D1*
X525508Y2891857D1*
X531863Y2893649D1*
X538340Y2894937D1*
X544898Y2895713D1*
X551496Y2895973D1*
X558094Y2895713D1*
X564652Y2894937D1*
X571129Y2893649D1*
X577484Y2891857D1*
X583680Y2889571D1*
X589677Y2886806D1*
X595438Y2883580D1*
X601476Y2879480D1*
X607554Y2883580D1*
X613315Y2886806D1*
X619312Y2889571D1*
X625508Y2891857D1*
X631863Y2893649D1*
X638340Y2894937D1*
X644898Y2895713D1*
X651496Y2895973D1*
X658094Y2895713D1*
X664652Y2894937D1*
X671129Y2893649D1*
X677484Y2891857D1*
X683680Y2889571D1*
X689677Y2886806D1*
X695438Y2883580D1*
X700929Y2879911D1*
X706115Y2875823D1*
X710964Y2871340D1*
X715446Y2866491D1*
X719534Y2861305D1*
X723203Y2855815D1*
X726430Y2850053D1*
X729194Y2844056D1*
X731480Y2837861D1*
X733272Y2831505D1*
X734561Y2825029D1*
X735337Y2818471D1*
X735596Y2811873D1*
X735337Y2805274D1*
X734561Y2798717D1*
X733272Y2792240D1*
X731480Y2785884D1*
X729194Y2779689D1*
X726430Y2773692D1*
X723203Y2767931D1*
X719103Y2761893D1*
X723203Y2755815D1*
X726430Y2750053D1*
X729194Y2744056D1*
X731480Y2737861D1*
X733272Y2731505D1*
X734561Y2725029D1*
X735337Y2718471D1*
X735596Y2711873D1*
X735337Y2705274D1*
X734561Y2698717D1*
X733272Y2692240D1*
X731480Y2685884D1*
X729194Y2679689D1*
X726430Y2673692D1*
X723203Y2667931D1*
X719103Y2661893D1*
X723203Y2655815D1*
X726430Y2650053D1*
X729194Y2644056D1*
X731480Y2637861D1*
X733272Y2631505D1*
X734561Y2625029D1*
X735337Y2618471D1*
X735596Y2611873D1*
X735337Y2605274D1*
X734561Y2598717D1*
X733272Y2592240D1*
X731480Y2585884D1*
X729194Y2579689D1*
X726430Y2573692D1*
X723203Y2567931D1*
X719103Y2561893D1*
X723732Y2554940D1*
X727996Y2546808D1*
X731349Y2538260D1*
X733750Y2529398D1*
X735170Y2520327D1*
X735596Y2511873D1*
X735095Y2502705D1*
X733597Y2493646D1*
X731121Y2484804D1*
X727695Y2476285D1*
X723362Y2468191D1*
X719116Y2461873D1*
X723203Y2455815D1*
X726430Y2450053D1*
X729194Y2444056D1*
X731480Y2437861D1*
X733272Y2431505D1*
X734561Y2425029D1*
X735337Y2418471D1*
X735596Y2411873D1*
X735337Y2405274D1*
X734561Y2398717D1*
X733272Y2392240D1*
X731480Y2385884D1*
X729194Y2379689D1*
X726430Y2373692D1*
X723203Y2367931D1*
X719103Y2361893D1*
X723732Y2354940D1*
X727996Y2346808D1*
X731349Y2338260D1*
X733750Y2329398D1*
X735170Y2320327D1*
X735596Y2311873D1*
X735095Y2302705D1*
X733597Y2293646D1*
X731121Y2284804D1*
X727695Y2276285D1*
X723362Y2268191D1*
X719116Y2261873D1*
X723203Y2255815D1*
X726430Y2250053D1*
X729194Y2244056D1*
X731480Y2237861D1*
X733272Y2231505D1*
X734561Y2225029D1*
X735337Y2218471D1*
X735596Y2211873D1*
X735337Y2205274D1*
X734561Y2198717D1*
X733272Y2192240D1*
X731480Y2185884D1*
X729194Y2179689D1*
X726430Y2173692D1*
X723203Y2167931D1*
X719103Y2161893D1*
X723732Y2154940D1*
X727996Y2146808D1*
X731349Y2138260D1*
X733750Y2129398D1*
X735170Y2120327D1*
X735596Y2111873D1*
X735095Y2102705D1*
X733597Y2093646D1*
X731121Y2084804D1*
X727695Y2076285D1*
X723362Y2068191D1*
X718172Y2060617D1*
X712187Y2053653D1*
X705478Y2047384D1*
X698126Y2041884D1*
X690219Y2037218D1*
X681849Y2033441D1*
X673118Y2030600D1*
X664129Y2028727D1*
X654990Y2027845D1*
X645809Y2027965D1*
X636696Y2029085D1*
X627759Y2031192D1*
X619105Y2034261D1*
X610837Y2038254D1*
X603054Y2043125D1*
X601501Y2044247D1*
X593442Y2038980D1*
X585246Y2034842D1*
X576647Y2031622D1*
X567749Y2029358D1*
X558657Y2028078D1*
X549479Y2027797D1*
X540326Y2028518D1*
X531306Y2030232D1*
X522526Y2032920D1*
X514092Y2036549D1*
X506103Y2041075D1*
X498656Y2046445D1*
X491838Y2052596D1*
X485732Y2059453D1*
X480409Y2066934D1*
X475934Y2074951D1*
X472359Y2083409D1*
X469728Y2092206D1*
X468071Y2101237D1*
X467409Y2110394D1*
X467749Y2119570D1*
X469087Y2128654D1*
X471408Y2137537D1*
X474683Y2146115D1*
X478874Y2154285D1*
X483875Y2161873D1*
X479789Y2167931D1*
X476562Y2173692D1*
X473798Y2179689D1*
X471512Y2185884D1*
X469720Y2192240D1*
X468431Y2198717D1*
X467655Y2205274D1*
X467396Y2211873D1*
X467655Y2218471D1*
X468431Y2225029D1*
X469720Y2231505D1*
X471512Y2237861D1*
X473798Y2244056D1*
X476562Y2250053D1*
X479789Y2255815D1*
X483889Y2261852D1*
X479445Y2268498D1*
X475145Y2276611D1*
X471756Y2285144D1*
X469318Y2293996D1*
X467859Y2303062D1*
X467397Y2312232D1*
X467937Y2321398D1*
X469474Y2330450D1*
X471988Y2339281D1*
X475449Y2347785D1*
X479817Y2355861D1*
X483875Y2361873D1*
X479789Y2367931D1*
X476562Y2373692D1*
X473798Y2379689D1*
X471512Y2385884D1*
X469720Y2392240D1*
X468431Y2398717D1*
X467655Y2405274D1*
X467396Y2411873D1*
X467655Y2418471D1*
X468431Y2425029D1*
X469720Y2431505D1*
X471512Y2437861D1*
X473798Y2444056D1*
X476562Y2450053D1*
X479789Y2455815D1*
X483889Y2461852D1*
X479445Y2468498D1*
X475145Y2476611D1*
X471756Y2485144D1*
X469318Y2493996D1*
X467859Y2503062D1*
X467397Y2512232D1*
X467937Y2521398D1*
X469474Y2530450D1*
X471988Y2539281D1*
X475449Y2547785D1*
X479817Y2555861D1*
X483875Y2561873D1*
X479789Y2567931D1*
X476562Y2573692D1*
X473798Y2579689D1*
X471512Y2585884D1*
X469720Y2592240D1*
X468431Y2598717D1*
X467655Y2605274D1*
X467396Y2611873D1*
X467655Y2618471D1*
X468431Y2625029D1*
X469720Y2631505D1*
X471512Y2637861D1*
X473798Y2644056D1*
X476562Y2650053D1*
X479789Y2655815D1*
X483889Y2661852D1*
X998586Y2113353D2*
X997859Y2104201D1*
X996102Y2095189D1*
X993339Y2086433D1*
X989604Y2078046D1*
X984945Y2070134D1*
X979422Y2062800D1*
X973105Y2056136D1*
X966076Y2050229D1*
X958425Y2045154D1*
X950249Y2040976D1*
X941654Y2037748D1*
X932749Y2035513D1*
X923648Y2034298D1*
X914468Y2034119D1*
X905327Y2034978D1*
X896342Y2036865D1*
X887627Y2039755D1*
X879295Y2043611D1*
X871451Y2048384D1*
X864197Y2054012D1*
X857626Y2060424D1*
X851821Y2067538D1*
X846857Y2075262D1*
X842798Y2083497D1*
X839695Y2092139D1*
X837589Y2101075D1*
X836506Y2110192D1*
X836459Y2119374D1*
X837451Y2128502D1*
X839468Y2137459D1*
X842483Y2146131D1*
X846460Y2154407D1*
X851345Y2162180D1*
X857078Y2169352D1*
X863585Y2175830D1*
X870782Y2181531D1*
X878577Y2186382D1*
X886870Y2190322D1*
X895555Y2193299D1*
X904521Y2195276D1*
X913653Y2196228D1*
X922835Y2196141D1*
X931947Y2195017D1*
X940874Y2192871D1*
X949502Y2189730D1*
X957719Y2185635D1*
X965421Y2180637D1*
X972509Y2174801D1*
X978892Y2168201D1*
X984488Y2160922D1*
X989227Y2153058D1*
X993046Y2144709D1*
X995897Y2135981D1*
X997744Y2126988D1*
X998563Y2117843D1*
X998586Y2113353D1*
X1380405Y3064816D2*
X1379656Y3058490D1*
X1378414Y3052242D1*
X1376684Y3046111D1*
X1374480Y3040135D1*
X1371813Y3034350D1*
X1368700Y3028792D1*
X1365161Y3023496D1*
X1361217Y3018493D1*
X1356893Y3013815D1*
X1352216Y3009491D1*
X1347213Y3005548D1*
X1341917Y3002008D1*
X1336359Y2998896D1*
X1330574Y2996229D1*
X1324597Y2994024D1*
X1318466Y2992295D1*
X1312219Y2991052D1*
X1305893Y2990304D1*
X1299528Y2990054D1*
X1293162Y2990304D1*
X1286836Y2991052D1*
X1280589Y2992295D1*
X1274458Y2994024D1*
X1268481Y2996229D1*
X1262696Y2998896D1*
X1257139Y3002008D1*
X1251842Y3005548D1*
X1246839Y3009491D1*
X1242162Y3013815D1*
X1237838Y3018493D1*
X1233894Y3023496D1*
X1230355Y3028792D1*
X1227242Y3034350D1*
X1224575Y3040135D1*
X1222371Y3046111D1*
X1220797Y3051691D1*
X1218539Y3044149D1*
X1214994Y3035679D1*
X1210516Y3027664D1*
X1205160Y3020206D1*
X1198997Y3013402D1*
X1192103Y3007337D1*
X1184569Y3002090D1*
X1176490Y2997728D1*
X1167970Y2994306D1*
X1159117Y2991870D1*
X1150047Y2990449D1*
X1140873Y2990062D1*
X1131715Y2990714D1*
X1122689Y2992397D1*
X1113911Y2995089D1*
X1105493Y2998755D1*
X1097544Y3003349D1*
X1090165Y3008812D1*
X1083450Y3015074D1*
X1077485Y3022054D1*
X1072348Y3029664D1*
X1068103Y3037805D1*
X1064806Y3046374D1*
X1062497Y3055261D1*
X1061208Y3064351D1*
X1060954Y3073529D1*
X1061738Y3082677D1*
X1063551Y3091677D1*
X1066370Y3100415D1*
X1070158Y3108779D1*
X1074867Y3116661D1*
X1080436Y3123961D1*
X1086794Y3130584D1*
X1093860Y3136447D1*
X1101543Y3141474D1*
X1109745Y3145600D1*
X1118360Y3148774D1*
X1127279Y3150953D1*
X1136388Y3152111D1*
X1145568Y3152232D1*
X1154704Y3151315D1*
X1163677Y3149372D1*
X1172374Y3146427D1*
X1180682Y3142519D1*
X1188495Y3137697D1*
X1195713Y3132022D1*
X1202244Y3125569D1*
X1208004Y3118419D1*
X1212919Y3110664D1*
X1216926Y3102403D1*
X1219975Y3093743D1*
X1220784Y3090713D1*
X1224575Y3102227D1*
X1227242Y3108012D1*
X1230355Y3113570D1*
X1233894Y3118867D1*
X1237838Y3123869D1*
X1242162Y3128547D1*
X1246839Y3132871D1*
X1251842Y3136815D1*
X1257139Y3140354D1*
X1262696Y3143466D1*
X1268481Y3146133D1*
X1274458Y3148338D1*
X1280589Y3150067D1*
X1286836Y3151310D1*
X1293162Y3152059D1*
X1299528Y3152309D1*
X1305893Y3152059D1*
X1312219Y3151310D1*
X1318466Y3150067D1*
X1324597Y3148338D1*
X1330574Y3146133D1*
X1336359Y3143466D1*
X1341917Y3140354D1*
X1347213Y3136815D1*
X1352216Y3132871D1*
X1356893Y3128547D1*
X1361217Y3123869D1*
X1365161Y3118867D1*
X1368700Y3113570D1*
X1371813Y3108012D1*
X1374480Y3102227D1*
X1376684Y3096251D1*
X1378414Y3090120D1*
X1379656Y3083872D1*
X1380405Y3077546D1*
X1380655Y3071181D1*
X1380405Y3064816D1*
X1126437Y2633918D2*
Y2331342D1*
X1129981Y2326102D1*
X1135082Y2316092D1*
X1138553Y2305406D1*
X1140311Y2294309D1*
Y2283074D1*
X1138553Y2271977D1*
X1135082Y2261291D1*
X1129981Y2251281D1*
X1123377Y2242191D1*
X1115432Y2234247D1*
X1106343Y2227643D1*
X1096332Y2222542D1*
X1085646Y2219070D1*
X1074549Y2217312D1*
X1063314D1*
X1052217Y2219070D1*
X1041532Y2222542D1*
X1031521Y2227643D1*
X1022431Y2234247D1*
X1014487Y2242191D1*
X1007883Y2251281D1*
X1002782Y2261291D1*
X999310Y2271977D1*
X997552Y2283074D1*
Y2294309D1*
X999310Y2305406D1*
X1002782Y2316092D1*
X1007883Y2326102D1*
X1011428Y2331312D1*
X1011426Y2628335D1*
X1005818Y2636231D1*
X1000718Y2646242D1*
X997246Y2656927D1*
X995488Y2668024D1*
Y2679259D1*
X997246Y2690356D1*
X1000718Y2701042D1*
X1005818Y2711053D1*
X1012422Y2720142D1*
X1020367Y2728087D1*
X1029457Y2734691D1*
X1039467Y2739792D1*
X1050153Y2743263D1*
X1061250Y2745021D1*
X1072485D1*
X1083582Y2743263D1*
X1094268Y2739792D1*
X1104278Y2734691D1*
X1113368Y2728087D1*
X1121313Y2720142D1*
X1127916Y2711053D1*
X1133017Y2701042D1*
X1136489Y2690356D1*
X1138247Y2679259D1*
Y2668024D1*
X1136489Y2656927D1*
X1133017Y2646242D1*
X1127916Y2636231D1*
X1126440Y2634021D1*
X1454293Y2777259D2*
D18*
Y2706009D1*
X1363358Y2777259D2*
X1545227D1*
X467432Y2511873D2*
X551496D1*
X467432Y2311873D2*
X551496D1*
Y2111873D2*
Y2027809D1*
X467432Y2111873D2*
X551496D1*
X651496D2*
Y2027809D1*
Y2111873D2*
X735560D1*
X651496Y2311873D2*
X735560D1*
X651496Y2511873D2*
X735560D1*
X917479Y2196282D2*
Y2034099D1*
X836387Y2115190D2*
X998571D1*
X1142047Y3152273D2*
Y2990089D1*
X1060956Y3071181D2*
X1142047D1*
D22*
X1732140Y2613501D3*
D23*
Y3011139D3*
D22*
X1444121Y1212953D3*
D23*
X1841759D3*
D22*
X2043791D3*
D23*
X2441429D3*
D22*
X2643462D3*
D23*
X3041100D3*
D22*
X3243133D3*
D23*
X3640770D3*
D62*
X1454293Y2877259D3*
D24*
Y2827259D3*
Y2777259D3*
D15*
X2640450Y2890957D3*
Y2590957D3*
X2440450Y2890957D3*
Y2590957D3*
X2240450Y2890957D3*
Y2590957D3*
X1940450Y2890957D3*
Y2590957D3*
D26*
X3121346Y2597210D3*
Y2951541D3*
X3435392Y2599778D3*
Y2954109D3*
D15*
X3905235Y2284146D3*
X4005235D3*
X4105235D3*
X4205235D3*
X1505819Y2284320D3*
X1605235Y2284146D3*
X1705235D3*
X1805235D3*
X2105235D3*
X2205235D3*
X2305235D3*
X2405235D3*
X2705235D3*
X2805235D3*
X2905235D3*
X3005235D3*
X3305235D3*
X3405235D3*
X3505235D3*
X3605235D3*
X3905235Y984146D3*
X4005235D3*
X4105235D3*
X4205235D3*
X1505235D3*
X1605235D3*
X1705235D3*
X1805235D3*
X2105235D3*
X2205235D3*
X2305235D3*
X2405235D3*
X2705235D3*
X2805235D3*
X2905235D3*
X3005235D3*
X3305235D3*
X3405235D3*
X3505235D3*
X3605235D3*
D27*
X2619766Y3204907D3*
X2419766D3*
Y3404907D3*
X2619766D3*
X2519766Y3304907D3*
X4156906Y1668815D3*
Y1468815D3*
X3956906D3*
Y1668815D3*
X4056906Y1568815D3*
X4188845Y3092030D3*
Y2892030D3*
X3988845D3*
Y3092030D3*
X4088845Y2992030D3*
D28*
X560846Y896051D3*
X660846D3*
X551496Y2711873D3*
Y2611873D3*
X560846Y996050D3*
X551496Y2511873D3*
X660846Y1096050D3*
X551496Y2411873D3*
X660846Y1296050D3*
X551496Y2311873D3*
X560846Y1196051D3*
X551496Y2211873D3*
Y2111873D3*
X651496D3*
X660846Y996050D3*
X651496Y2211873D3*
X560846Y1096050D3*
X651496Y2311873D3*
X660846Y1196051D3*
X651496Y2411873D3*
X560846Y1296050D3*
X651496Y2511873D3*
Y2611873D3*
Y2711873D3*
Y2811873D3*
X551496D3*
D65*
X3483493Y752854D3*
D29*
X3433493D3*
X3383493D3*
D65*
X2901139D3*
D29*
X2851139D3*
X2801139D3*
D65*
X2363602D3*
D29*
X2313602D3*
X2263602D3*
D65*
X1736432D3*
D29*
X1686432D3*
X1636432D3*
D15*
X1497829Y2101942D3*
X1797829D3*
X1497829Y1901942D3*
X1797829D3*
X1497829Y1701942D3*
X1797829D3*
X1497829Y1401942D3*
X1797829D3*
X2097829Y2101942D3*
X2397829D3*
X2097829Y1901942D3*
X2397829D3*
X2097829Y1701942D3*
X2397829D3*
X2097829Y1401942D3*
X2397829D3*
X2697829Y2101942D3*
X2997829D3*
X2697829Y1901942D3*
X2997829D3*
X2697829Y1701942D3*
X2997829D3*
X2697829Y1401942D3*
X2997829D3*
X3297829Y2101942D3*
X3597829D3*
X3297829Y1901942D3*
X3597829D3*
X3297829Y1701942D3*
X3597829D3*
X3297829Y1401942D3*
X3597829D3*
X917479Y2115190D3*
X4049252Y2032387D3*
X4051332Y1880955D3*
X1968819Y3307402D3*
X2165669D3*
X4085454Y2766093D3*
X4089256Y2619740D3*
X1299528Y3071181D3*
X1142047D3*
D22*
X589007Y1681982D3*
D23*
Y1760722D3*
M02*
