G04 DipTrace 3.3.1.1*
G04 BottomMask.gbr*
%MOIN*%
G04 #@! TF.FileFunction,Soldermask,Bot*
G04 #@! TF.Part,Single*
%AMOUTLINE1*
4,1,8,
-0.031191,0.023701,
-0.043386,0.011506,
-0.043386,-0.011506,
-0.031191,-0.023701,
0.031191,-0.023701,
0.043386,-0.011506,
0.043386,0.011506,
0.031191,0.023701,
-0.031191,0.023701,
0*%
%AMOUTLINE4*
4,1,8,
0.023701,0.031191,
0.011506,0.043386,
-0.011506,0.043386,
-0.023701,0.031191,
-0.023701,-0.031191,
-0.011506,-0.043386,
0.011506,-0.043386,
0.023701,-0.031191,
0.023701,0.031191,
0*%
%ADD31C,0.125*%
%ADD38O,0.047402X0.086772*%
%ADD40C,0.073031*%
%ADD42C,0.128031*%
%ADD44C,0.106457*%
%ADD46C,0.067087*%
%ADD48O,0.086772X0.047402*%
%ADD50C,0.067087*%
%ADD52R,0.067087X0.067087*%
%ADD63OUTLINE1*%
%ADD66OUTLINE4*%
%FSLAX26Y26*%
G04*
G70*
G90*
G75*
G01*
G04 BotMask*
%LPD*%
D52*
X1732140Y2613501D3*
D50*
Y3011139D3*
D52*
X1444121Y1212953D3*
D50*
X1841759D3*
D52*
X2043791D3*
D50*
X2441429D3*
D52*
X2643462D3*
D50*
X3041100D3*
D52*
X3243133D3*
D50*
X3640770D3*
D31*
X4200719Y523828D3*
X526790Y527944D3*
D63*
X1454293Y2877259D3*
D48*
Y2827259D3*
Y2777259D3*
D46*
X2640450Y2890957D3*
Y2590957D3*
X2440450Y2890957D3*
Y2590957D3*
X2240450Y2890957D3*
Y2590957D3*
X1940450Y2890957D3*
Y2590957D3*
D44*
X3121346Y2597210D3*
Y2951541D3*
X3435392Y2599778D3*
Y2954109D3*
D46*
X3905235Y2284146D3*
X4005235D3*
X4105235D3*
X4205235D3*
X1505819Y2284320D3*
X1605235Y2284146D3*
X1705235D3*
X1805235D3*
X2105235D3*
X2205235D3*
X2305235D3*
X2405235D3*
X2705235D3*
X2805235D3*
X2905235D3*
X3005235D3*
X3305235D3*
X3405235D3*
X3505235D3*
X3605235D3*
X3905235Y984146D3*
X4005235D3*
X4105235D3*
X4205235D3*
X1505235D3*
X1605235D3*
X1705235D3*
X1805235D3*
X2105235D3*
X2205235D3*
X2305235D3*
X2405235D3*
X2705235D3*
X2805235D3*
X2905235D3*
X3005235D3*
X3305235D3*
X3405235D3*
X3505235D3*
X3605235D3*
D42*
X2619766Y3204907D3*
X2419766D3*
Y3404907D3*
X2619766D3*
X2519766Y3304907D3*
X4156906Y1668815D3*
Y1468815D3*
X3956906D3*
Y1668815D3*
X4056906Y1568815D3*
X4188845Y3092030D3*
Y2892030D3*
X3988845D3*
Y3092030D3*
X4088845Y2992030D3*
D40*
X560846Y896051D3*
X660846D3*
X551496Y2711873D3*
Y2611873D3*
X560846Y996050D3*
X551496Y2511873D3*
X660846Y1096050D3*
X551496Y2411873D3*
X660846Y1296050D3*
X551496Y2311873D3*
X560846Y1196051D3*
X551496Y2211873D3*
Y2111873D3*
X651496D3*
X660846Y996050D3*
X651496Y2211873D3*
X560846Y1096050D3*
X651496Y2311873D3*
X660846Y1196051D3*
X651496Y2411873D3*
X560846Y1296050D3*
X651496Y2511873D3*
Y2611873D3*
Y2711873D3*
Y2811873D3*
X551496D3*
D66*
X3483493Y752854D3*
D38*
X3433493D3*
X3383493D3*
D66*
X2901139D3*
D38*
X2851139D3*
X2801139D3*
D66*
X2363602D3*
D38*
X2313602D3*
X2263602D3*
D66*
X1736432D3*
D38*
X1686432D3*
X1636432D3*
D46*
X1497829Y2101942D3*
X1797829D3*
X1497829Y1901942D3*
X1797829D3*
X1497829Y1701942D3*
X1797829D3*
X1497829Y1401942D3*
X1797829D3*
X2097829Y2101942D3*
X2397829D3*
X2097829Y1901942D3*
X2397829D3*
X2097829Y1701942D3*
X2397829D3*
X2097829Y1401942D3*
X2397829D3*
X2697829Y2101942D3*
X2997829D3*
X2697829Y1901942D3*
X2997829D3*
X2697829Y1701942D3*
X2997829D3*
X2697829Y1401942D3*
X2997829D3*
X3297829Y2101942D3*
X3597829D3*
X3297829Y1901942D3*
X3597829D3*
X3297829Y1701942D3*
X3597829D3*
X3297829Y1401942D3*
X3597829D3*
X917479Y2115190D3*
X4049252Y2032387D3*
X4051332Y1880955D3*
X1968819Y3307402D3*
X2165669D3*
X4085454Y2766093D3*
X4089256Y2619740D3*
X1299528Y3071181D3*
X1142047D3*
D52*
X589007Y1681982D3*
D50*
Y1760722D3*
M02*
