G04 DipTrace 3.3.1.1*
G04 Top.gbr*
%MOIN*%
G04 #@! TF.FileFunction,Copper,L1,Top*
G04 #@! TF.Part,Single*
%AMOUTLINE0*
4,1,8,
-0.029528,0.019685,
-0.03937,0.009843,
-0.03937,-0.009843,
-0.029528,-0.019685,
0.029528,-0.019685,
0.03937,-0.009843,
0.03937,0.009843,
0.029528,0.019685,
-0.029528,0.019685,
0*%
%AMOUTLINE3*
4,1,8,
0.019685,0.029528,
0.009843,0.03937,
-0.009843,0.03937,
-0.019685,0.029528,
-0.019685,-0.029528,
-0.009843,-0.03937,
0.009843,-0.03937,
0.019685,-0.029528,
0.019685,0.029528,
0*%
G04 #@! TA.AperFunction,Conductor*
%ADD14C,0.027559*%
G04 #@! TA.AperFunction,ComponentPad*
%ADD15C,0.059055*%
G04 #@! TA.AperFunction,Conductor*
%ADD16C,0.011811*%
G04 #@! TA.AperFunction,CopperBalancing*
%ADD17C,0.04*%
%ADD18C,0.012992*%
%ADD20R,0.070866X0.062992*%
%ADD21R,0.062992X0.070866*%
G04 #@! TA.AperFunction,ComponentPad*
%ADD22R,0.059055X0.059055*%
%ADD23C,0.059055*%
%ADD24O,0.07874X0.03937*%
%ADD26C,0.098425*%
%ADD27C,0.12*%
%ADD28C,0.065*%
%ADD29O,0.03937X0.07874*%
%ADD62OUTLINE0*%
%ADD65OUTLINE3*%
%FSLAX26Y26*%
G04*
G70*
G90*
G75*
G01*
G04 Top*
%LPD*%
X651496Y2411873D2*
D14*
X551496D1*
X1444121Y1212953D2*
Y1128026D1*
X1481681Y1090466D1*
X1578304D1*
X3243133Y1212953D2*
Y1347245D1*
X3297829Y1401942D1*
X2643462Y1212953D2*
Y1133273D1*
X2690448Y1086287D1*
X2777646D1*
Y1090466D1*
X2043791Y1212953D2*
Y1347904D1*
X2097829Y1401942D1*
X1444121Y1212953D2*
Y1348234D1*
X1497829Y1401942D1*
X551496Y2611873D2*
X651496D1*
X3243133Y1212953D2*
X3304542D1*
X3377316Y1140178D1*
Y1090466D1*
X2043791Y1212953D2*
X2097102Y1159642D1*
Y1134672D1*
X2141308Y1090466D1*
X2177975D1*
X2643462Y1212953D2*
X2697829Y1267320D1*
Y1401942D1*
X651496Y2611873D2*
X966810D1*
X1024724D1*
X1208092Y2428505D1*
Y2259643D1*
Y1691680D1*
X1497829Y1401942D1*
X966810Y2611873D2*
Y2491794D1*
X985320D1*
X1732140Y2613501D2*
X1725302Y2606663D1*
X1609605D1*
X1732140Y2613501D2*
X1736946D1*
Y2591278D1*
X1732140Y2613501D2*
X1797794D1*
X1809129Y2602167D1*
X1820339Y2590957D1*
X1940450D1*
X1208092Y2259643D2*
X1463676Y2515227D1*
X1636988D1*
X1734562Y2612801D1*
X1809129D1*
Y2602167D1*
X1497829Y1401942D2*
X1510568D1*
X1605033Y1496407D1*
X2097829D1*
Y1401942D1*
Y1496407D2*
X2697829D1*
Y1401942D1*
Y1496407D2*
X3201049D1*
X3288609Y1408846D1*
Y1401942D1*
X3297829D1*
X551496Y2211873D2*
X651496D1*
X3020984Y1090466D2*
X2887882D1*
X3405235Y984146D2*
X3391719Y997661D1*
X3408517D1*
X3501322Y1090466D1*
X3487552D1*
X1804887Y1081913D2*
X1688541D1*
Y1090466D1*
X2288211D2*
X2398142D1*
X1505819Y2297706D2*
Y2284320D1*
X2694209Y765316D2*
Y841054D1*
X651496Y2511873D2*
X657171Y2506198D1*
X676820D1*
X801461Y2381558D1*
X985320D1*
X1516156Y728584D2*
X1522227D1*
Y839043D1*
X2143627Y841054D2*
Y765316D1*
X2147488D1*
X3209556Y840609D2*
X3245950Y804215D1*
Y762256D1*
X1143213Y2771203D2*
X1204736D1*
Y2768348D1*
X1499369Y2606663D2*
X1402387D1*
X1131832D1*
Y2572448D1*
Y2606663D2*
Y2681399D1*
Y2777259D1*
X1454293D1*
X1143213Y2771203D2*
X1131832Y2777259D1*
X1132373Y2679671D2*
X1131832Y2681399D1*
X1402387Y2614055D2*
Y2606663D1*
X3100434Y765441D2*
D16*
X3245950D1*
Y762256D1*
X2541143Y769146D2*
X2694209D1*
Y765316D1*
X1992963Y758033D2*
X2147488D1*
Y765316D1*
X1379008Y732735D2*
X1516156D1*
Y728584D1*
X1305003Y2780833D2*
D14*
X1454293Y2777259D1*
X2405235Y2284146D2*
X2305235D1*
Y2243499D1*
X2163678Y2101942D1*
X2097829D1*
X3005235Y2284146D2*
X2905235D1*
Y2243920D1*
X2763257Y2101942D1*
X2697829D1*
X2905235Y984146D2*
D16*
X3005235D1*
X3505235D2*
X3605235D1*
X1497829Y1901942D2*
D14*
X1797829D1*
X2097829D2*
X2397829D1*
Y1701942D2*
X2697829D1*
X2997829D2*
X3297829D1*
X2397829Y1401942D2*
D16*
Y1309211D1*
X2441429Y1265612D1*
Y1212953D1*
Y1130262D1*
X2479982Y1091710D1*
Y967593D1*
X2363602Y851214D1*
Y752854D1*
X551496Y2811873D2*
X651496D1*
X551496Y2711873D2*
X651496D1*
X2313602Y752854D2*
Y686077D1*
X2282605Y655080D1*
X2147488D1*
X2043933D1*
X1992963Y604110D1*
X1941297Y552445D1*
X1318134D1*
X1161539Y709039D1*
Y889332D1*
X754822Y1296050D1*
X660846D1*
X1992963Y647797D2*
Y604110D1*
X2997829Y1401942D2*
Y1337759D1*
X3041100Y1294488D1*
Y1212953D1*
X3035505Y1207358D1*
X3053610D1*
X3084049Y1176920D1*
Y974756D1*
X2901139Y791848D1*
Y752854D1*
X2851139D2*
Y686077D1*
X2820142Y655080D1*
X2694209D1*
X560846Y1196051D2*
X550846Y1206051D1*
X534196D1*
X575667Y1247522D1*
X727455D1*
X1103315Y871663D1*
Y689070D1*
X1287080Y505304D1*
X2465268D1*
X2541143Y581180D1*
X2615043Y655080D1*
X2694209D1*
X2541143Y658909D2*
Y581180D1*
X3597829Y1401942D2*
Y1328748D1*
X3640770Y1285807D1*
Y1212953D1*
X3625201Y1197383D1*
X3654806D1*
X3683504Y1168684D1*
Y947064D1*
X3489294Y752854D1*
X3483493D1*
X1797829Y1401942D2*
X1843262Y1356509D1*
Y1302760D1*
X1841759Y1301256D1*
Y1212953D1*
X1884336Y1170375D1*
Y962286D1*
X1736432Y814382D1*
Y752854D1*
X1686432D2*
Y686077D1*
X1604210Y603856D1*
X1516156D1*
Y618348D1*
X1440686D1*
Y620210D1*
X1399864D1*
X1333163D1*
X1214323Y739050D1*
Y919904D1*
X750096Y1384131D1*
X605593D1*
X560846Y1339385D1*
Y1296050D1*
X1379008Y622499D2*
X1399864D1*
Y620210D1*
X3433493Y752854D2*
Y686076D1*
X3399437Y652020D1*
X3245950D1*
X3182476D1*
X3100434Y569979D1*
X2988621Y458164D1*
X1256026D1*
X1043598Y670592D1*
Y847895D1*
X699627Y1191866D1*
X660846D1*
Y1196051D1*
X3100434Y655205D2*
Y569979D1*
X1732140Y3011139D2*
D14*
X1640958D1*
X1507077Y2877259D1*
X1454293D1*
X1732140Y3011139D2*
X1820268D1*
X1940450Y2890957D1*
X2440450Y2590957D2*
X2435885D1*
X2640218Y2795290D1*
Y2887283D1*
X2963507Y3210572D1*
X3017573D1*
X2640218Y2887283D2*
X2640450Y2890957D1*
X3564661Y3208482D2*
X3652554D1*
X3869005Y2992030D1*
X4088845D1*
X4085454Y2766093D2*
D16*
X4088845D1*
Y2992030D1*
X3351202Y3204301D2*
D14*
X3454425D1*
X3435392D1*
Y2954109D1*
X3454425Y3204301D2*
Y3208482D1*
X3127810Y3210572D2*
Y3166077D1*
X3121346Y3159614D1*
Y2951541D1*
X3240966Y3204301D2*
X3209748D1*
Y3210572D1*
X3127810D1*
X4105235Y2284146D2*
Y2209348D1*
X3597829Y1701942D1*
X1805235Y2284146D2*
X1705235D1*
Y2237895D1*
X1569282Y2101942D1*
X1497829D1*
X3605235Y2284146D2*
X3505235D1*
Y2247795D1*
X3359382Y2101942D1*
X3297829D1*
X4205235Y984146D2*
X4105235D1*
Y1323307D1*
X4056906Y1371636D1*
Y1568815D1*
X4051332Y1880955D2*
D16*
X4052448D1*
Y1573240D1*
X4056906D1*
Y1568815D1*
X1705235Y984146D2*
X1805235D1*
X2165669Y3307402D2*
X2519766D1*
Y3304907D1*
X1497829Y1701942D2*
X1414042D1*
Y2289915D1*
X1570066Y2445938D1*
X2108814D1*
X2240450Y2577575D1*
Y2590957D1*
X2697829Y1901942D2*
D14*
X2997829D1*
X3297829D2*
X3597829D1*
X1797829Y1701942D2*
X2097829D1*
X1454293Y2827259D2*
D16*
X1456245D1*
Y2830073D1*
X1382534D1*
X1336538Y2876070D1*
X1305003D1*
X1143213D1*
Y2881440D1*
Y2876070D2*
Y2874227D1*
X1118281D1*
X1066867Y2822814D1*
Y2673642D1*
X1068932Y2288692D2*
X1064568D1*
Y1760722D1*
Y1484619D1*
X1299528Y3071181D2*
Y3031811D1*
X1149156Y2881440D1*
X1143213D1*
X589007Y1760722D2*
X1064568D1*
X1305003Y2891070D2*
Y2876070D1*
D17*
X3020984Y1090466D3*
X1804887Y1081913D3*
X2398142Y1090466D3*
X2694209Y841054D3*
X1522227Y839043D3*
X2143627Y841054D3*
X3209556Y840609D3*
X2694209Y841054D3*
X1131832Y2572448D3*
D3*
X1522227Y839043D3*
X1066867Y2673642D3*
X1068932Y2288692D3*
X1064568Y1484619D3*
X1130811Y2046379D3*
X1119824Y1732598D3*
X839676Y2724894D3*
X987831D3*
Y2950831D3*
X1061909Y2936046D3*
X1254512Y3184207D3*
X1349497Y2988972D3*
X1691572Y3091609D3*
X1695276Y3452789D3*
X1691572Y3280508D3*
X2869411Y3239765D3*
Y3432367D3*
Y3321251D3*
X3154612Y3328659D3*
X3428699Y3321251D3*
X3706492Y3317547D3*
X3869463Y3136056D3*
X3954652Y3217542D3*
X4099105Y3221245D3*
X4250965D3*
X4236150Y3450887D3*
X2139495Y2974316D3*
X2334423Y2973325D3*
X2545692Y2974316D3*
X2543469Y2813818D3*
X2373089Y2676773D3*
X2128631Y2624919D3*
X2291604Y2524913D3*
X2553659Y2494302D3*
X1266944Y2395383D3*
X2793551Y2901409D3*
X2884227Y3013828D3*
X2987016Y3072110D3*
X3221261Y3081379D3*
X3353701Y3073971D3*
X3551888Y3077694D3*
X3654638Y3080497D3*
X3754643Y2969381D3*
X3847240Y2873080D3*
X3947245Y2776778D3*
X4025028Y2684181D3*
X4251638Y2795971D3*
X4226812Y2526199D3*
X4035190Y2526841D3*
X3847424Y2523138D3*
X3653841Y2524913D3*
X3273135D3*
X2980528Y2528617D3*
X2778406Y2491520D3*
X1371159Y2553765D3*
X1299243Y2518657D3*
X1884175Y2510097D3*
X2017514D3*
X1988526Y2974370D3*
X2013811Y2802706D3*
X2017514Y2665661D3*
X1846151Y2697047D3*
X1350812Y2269681D3*
X1467990Y2418846D3*
X1347109Y2150820D3*
X1343406Y1921178D3*
Y1717463D3*
X1436003Y1580420D3*
X1753014Y2339240D3*
X1821209Y2395277D3*
X2032331Y2391573D3*
X2338000Y2424404D3*
X2487909Y2422827D3*
X2663739Y2414037D3*
X2962248Y2430819D3*
X3191650Y2425244D3*
X3534427Y2447230D3*
X3654638Y2391573D3*
X3858352D3*
X4110190Y2446010D3*
X4232445Y2391573D3*
X4239853Y2169339D3*
X4225037Y1958217D3*
X4232445Y1791542D3*
X4221333Y1317442D3*
X4247261Y1095209D3*
X4232445Y869272D3*
X4239853Y680373D3*
X4025028Y480362D3*
X3743530Y487770D3*
X3480554Y491474D3*
X3143500Y472954D3*
X3201091Y558264D3*
X3510185Y598887D3*
X3619631Y781154D3*
X3755387Y941117D3*
X3748971Y1141383D3*
X487804Y1404786D3*
X509386Y1482154D3*
X662164D3*
X955793D3*
X1176730Y1543381D3*
X1333304Y1396572D3*
X1328589Y1232253D3*
X1398963Y1087801D3*
X1410382Y895841D3*
X1736018Y902606D3*
X838050Y504249D3*
X1290268Y785570D3*
X1310071Y983419D3*
X1190198Y1117433D3*
X1014202Y1292318D3*
X910050Y1395224D3*
X1009286Y1401659D3*
X709549Y1053558D3*
X791525Y989949D3*
X873551Y811088D3*
X943385Y717412D3*
X903849Y608861D3*
X986472Y570056D3*
X948374Y477301D3*
X724854Y476657D3*
X711354Y657353D3*
X480398Y661853D3*
X1783373Y618857D3*
X1897474Y628056D3*
X1904386Y776655D3*
X1831814Y812941D3*
X1940672Y949445D3*
X1962978Y1083749D3*
X2040576Y1130559D3*
X2084715Y1065685D3*
X2009787Y897608D3*
X1837568Y701513D3*
X2217188Y597436D3*
X2205039Y826764D3*
X2325992Y897608D3*
X2201583D3*
X2049529Y564123D3*
X2177051Y548765D3*
X2384740Y584858D3*
X2446945Y648790D3*
X2440033Y826764D3*
X2526428Y942219D3*
X2548891Y1041022D3*
X2593816Y1080764D3*
X2605911Y902791D3*
X2756239Y899336D3*
X2906566Y911430D3*
X2756239Y835403D3*
X2780577Y592591D3*
X2691142Y549160D3*
X2468980Y587622D3*
X2603877Y546409D3*
X2778701Y520927D3*
X2975657Y533593D3*
X2969348Y603445D3*
X2967042Y679892D3*
X2984320Y797390D3*
X3089722Y909703D3*
X3186484Y1001281D3*
X3164106Y1128631D3*
X3278063Y1058942D3*
X3290157Y894152D3*
X3414567Y895879D3*
X3557982Y935936D3*
X3357546Y605593D3*
X3306209Y518392D3*
X3580408Y682228D3*
X4038337Y1084220D3*
X4043521Y1282928D3*
X4003778Y1357227D3*
X3893193Y1381419D3*
X3855180Y1535201D3*
X3875915Y1761555D3*
X3993411Y1796113D3*
X4010690Y1953352D3*
X4135098Y2124413D3*
X3848268Y1853134D3*
X3739411Y1728726D3*
X3604727Y1535710D3*
X1653395Y1334526D3*
X1656455Y1613084D3*
X1628906Y2011024D3*
X2238059Y2029390D3*
X2253365Y1778382D3*
X2247243Y1343710D3*
X2850273Y1349832D3*
X2859457Y1659000D3*
X2862518Y2038573D3*
X3431877Y2017146D3*
X3434938Y1659000D3*
X3441060Y1340648D3*
X1334350Y2726130D3*
X1246272Y2684459D3*
X1132373Y2679671D3*
X1402387Y2614055D3*
X1579929Y2736497D3*
X1595234Y2862001D3*
X1668699Y2935467D3*
X1794203Y2923223D3*
X1846241Y2855879D3*
X3594114Y1095764D3*
X3327801Y823328D3*
X1263720Y1464009D3*
X1858487Y3125255D3*
X2026845Y3131377D3*
X2204387D3*
X2357441Y3116071D3*
X2724130Y3070751D3*
X2749259Y3272185D3*
X2755381Y3440545D3*
X2290097Y3452789D3*
X2060517D3*
X1855425D3*
X2794425Y2689810D3*
X1514105Y3004890D3*
X2133667Y2779289D3*
X2238273Y1605316D3*
X2553563D3*
X3153534Y1596133D3*
X3303526Y1522667D3*
X3707588Y1332881D3*
X3724117Y1953972D3*
X3730852Y2149268D3*
X3673610Y2240182D3*
X3872273Y2095394D3*
X3980024Y2189675D3*
X3656774Y2812602D3*
X2858953Y3444383D2*
X4267661D1*
X2858953Y3404514D2*
X4267661D1*
X2858953Y3364646D2*
X4267661D1*
X2858953Y3324777D2*
X4267661D1*
X2858953Y3284908D2*
X2930472D1*
X3651742D2*
X4267661D1*
X2858953Y3245039D2*
X2901514D1*
X3712458D2*
X4267661D1*
X3752326Y3205171D2*
X4267661D1*
X3792193Y3165302D2*
X3900673D1*
X4077006D2*
X4100656D1*
X3832060Y3125433D2*
X3878353D1*
X2934956Y3085564D2*
X3051976D1*
X3190738D2*
X3365999D1*
X3504761D2*
X3679016D1*
X2895088Y3045696D2*
X3051976D1*
X3190738D2*
X3365999D1*
X3504761D2*
X3718884D1*
X2110947Y3005827D2*
X2662310D1*
X2855221D2*
X3032383D1*
X3210295D2*
X3344863D1*
X3525932D2*
X3758751D1*
X2110947Y2965958D2*
X2205540D1*
X2275368D2*
X2405523D1*
X2475387D2*
X2605541D1*
X2815354D2*
X3017563D1*
X3225115D2*
X3331263D1*
X3539497D2*
X3798618D1*
X2110947Y2926089D2*
X2163340D1*
X2317568D2*
X2363323D1*
X2517587D2*
X2563341D1*
X2775486D2*
X3019788D1*
X3222890D2*
X3334564D1*
X3536231D2*
X3878568D1*
X2110947Y2886220D2*
X2155446D1*
X2325427D2*
X2355464D1*
X2525445D2*
X2555447D1*
X2735619D2*
X3040565D1*
X3202149D2*
X3356848D1*
X3513911D2*
X3873401D1*
X2110947Y2846352D2*
X2168687D1*
X2312221D2*
X2368669D1*
X2512204D2*
X2568688D1*
X2712223D2*
X3883018D1*
X2110947Y2806483D2*
X2554944D1*
X2709603D2*
X3913161D1*
X2110947Y2766614D2*
X2515077D1*
X2702964D2*
X4000323D1*
X4170592D2*
X4267661D1*
X2110947Y2726745D2*
X2475210D1*
X2668121D2*
X4010515D1*
X4160401D2*
X4267661D1*
X2110947Y2686877D2*
X2435342D1*
X2628254D2*
X3071282D1*
X3171432D2*
X3380639D1*
X3490156D2*
X4039724D1*
X4138798D2*
X4267661D1*
X2110947Y2647008D2*
X2177801D1*
X2303107D2*
X2377784D1*
X2703108D2*
X3029692D1*
X3212986D2*
X3342315D1*
X3528444D2*
X4008864D1*
X4169659D2*
X4267661D1*
X2110947Y2607139D2*
X2156953D1*
X2323956D2*
X2356935D1*
X2723957D2*
X3017025D1*
X3225653D2*
X3330832D1*
X3539927D2*
X4005096D1*
X4173391D2*
X4267661D1*
X2110947Y2567270D2*
X2144824D1*
X2322054D2*
X2358873D1*
X2522036D2*
X2558856D1*
X2722055D2*
X3021080D1*
X3221599D2*
X3335964D1*
X3534832D2*
X4023397D1*
X4155126D2*
X4267661D1*
X2294889Y2527402D2*
X2386037D1*
X2494872D2*
X2586020D1*
X2694890D2*
X3044620D1*
X3198094D2*
X3361226D1*
X3509569D2*
X4267661D1*
X3380516Y3295515D2*
X3647758D1*
Y3273877D1*
X3657683Y3273660D1*
X3667816Y3272055D1*
X3677574Y3268885D1*
X3686715Y3264227D1*
X3695014Y3258197D1*
X3711776Y3241721D1*
X3878559Y3074938D1*
X3877467Y3085003D1*
X3877317Y3096021D1*
X3878254Y3107000D1*
X3880269Y3117833D1*
X3883343Y3128415D1*
X3887445Y3138642D1*
X3892536Y3148415D1*
X3898566Y3157637D1*
X3905476Y3166221D1*
X3913199Y3174081D1*
X3921660Y3181141D1*
X3930775Y3187332D1*
X3940456Y3192594D1*
X3950610Y3196876D1*
X3961136Y3200135D1*
X3971932Y3202341D1*
X3982893Y3203471D1*
X3993912Y3203515D1*
X4004882Y3202472D1*
X4015695Y3200352D1*
X4026246Y3197176D1*
X4036433Y3192975D1*
X4046156Y3187790D1*
X4055321Y3181672D1*
X4063837Y3174679D1*
X4071622Y3166881D1*
X4078600Y3158353D1*
X4084703Y3149178D1*
X4088843Y3141571D1*
X4093478Y3149992D1*
X4099659Y3159115D1*
X4106709Y3167583D1*
X4114560Y3175315D1*
X4123136Y3182235D1*
X4132352Y3188275D1*
X4142119Y3193377D1*
X4152341Y3197491D1*
X4162919Y3200577D1*
X4173750Y3202605D1*
X4184728Y3203554D1*
X4195747Y3203417D1*
X4206698Y3202193D1*
X4217474Y3199895D1*
X4227972Y3196546D1*
X4238089Y3192178D1*
X4247725Y3186834D1*
X4256787Y3180565D1*
X4265187Y3173433D1*
X4271655Y3166843D1*
X4271653Y3484275D1*
X2854958Y3484252D1*
X2854961Y3194464D1*
X2921046Y3260287D1*
X2929346Y3266317D1*
X2933843Y3268834D1*
X2934478Y3270521D1*
Y3297605D1*
X3210906D1*
Y3291325D1*
X3371345Y3291334D1*
X3371329Y3295515D1*
X3380516D1*
X3647147Y3121449D2*
X3500740D1*
X3500865Y3030767D1*
X3506678Y3025394D1*
X3512051Y3019581D1*
X3516951Y3013365D1*
X3521349Y3006783D1*
X3525217Y2999877D1*
X3528531Y2992688D1*
X3531271Y2985262D1*
X3533420Y2977643D1*
X3534964Y2969879D1*
X3535894Y2962019D1*
X3536205Y2954109D1*
X3535894Y2946199D1*
X3534964Y2938338D1*
X3533420Y2930575D1*
X3531271Y2922956D1*
X3528531Y2915530D1*
X3525217Y2908341D1*
X3521349Y2901434D1*
X3516951Y2894853D1*
X3512051Y2888636D1*
X3506678Y2882824D1*
X3500865Y2877450D1*
X3494649Y2872550D1*
X3488067Y2868152D1*
X3481160Y2864284D1*
X3473972Y2860970D1*
X3466545Y2858230D1*
X3458927Y2856082D1*
X3451163Y2854537D1*
X3443302Y2853607D1*
X3435392Y2853296D1*
X3427483Y2853607D1*
X3419622Y2854537D1*
X3411858Y2856082D1*
X3404240Y2858230D1*
X3396813Y2860970D1*
X3389624Y2864284D1*
X3382718Y2868152D1*
X3376136Y2872550D1*
X3369920Y2877450D1*
X3364107Y2882824D1*
X3358734Y2888636D1*
X3353833Y2894853D1*
X3349436Y2901434D1*
X3345568Y2908341D1*
X3342254Y2915530D1*
X3339514Y2922956D1*
X3337365Y2930575D1*
X3335821Y2938338D1*
X3334891Y2946199D1*
X3334580Y2954109D1*
X3334891Y2962019D1*
X3335821Y2969879D1*
X3337365Y2977643D1*
X3339514Y2985262D1*
X3342254Y2992688D1*
X3345568Y2999877D1*
X3349436Y3006783D1*
X3353833Y3013365D1*
X3358734Y3019581D1*
X3364107Y3025394D1*
X3369993Y3030825D1*
X3369994Y3117267D1*
X3186733D1*
X3186819Y3028199D1*
X3192632Y3022826D1*
X3198005Y3017013D1*
X3202906Y3010797D1*
X3207303Y3004215D1*
X3211171Y2997309D1*
X3214485Y2990120D1*
X3217225Y2982693D1*
X3219374Y2975075D1*
X3220918Y2967311D1*
X3221848Y2959450D1*
X3222159Y2951541D1*
X3221848Y2943631D1*
X3220918Y2935770D1*
X3219374Y2928006D1*
X3217225Y2920388D1*
X3214485Y2912961D1*
X3211171Y2905773D1*
X3207303Y2898866D1*
X3202906Y2892285D1*
X3198005Y2886068D1*
X3192632Y2880255D1*
X3186819Y2874882D1*
X3180603Y2869982D1*
X3174021Y2865584D1*
X3167114Y2861716D1*
X3159926Y2858402D1*
X3152499Y2855662D1*
X3144881Y2853514D1*
X3137117Y2851969D1*
X3129256Y2851039D1*
X3121346Y2850728D1*
X3113437Y2851039D1*
X3105576Y2851969D1*
X3097812Y2853514D1*
X3090194Y2855662D1*
X3082767Y2858402D1*
X3075578Y2861716D1*
X3068672Y2865584D1*
X3062090Y2869982D1*
X3055874Y2874882D1*
X3050061Y2880255D1*
X3044688Y2886068D1*
X3039787Y2892285D1*
X3035390Y2898866D1*
X3031522Y2905773D1*
X3028208Y2912961D1*
X3025468Y2920388D1*
X3023319Y2928006D1*
X3021775Y2935770D1*
X3020845Y2943631D1*
X3020534Y2951541D1*
X3020845Y2959450D1*
X3021775Y2967311D1*
X3023319Y2975075D1*
X3025468Y2982693D1*
X3028208Y2990120D1*
X3031522Y2997309D1*
X3035390Y3004215D1*
X3039787Y3010797D1*
X3044688Y3017013D1*
X3050061Y3022826D1*
X3055947Y3028257D1*
X3055967Y3123534D1*
X2968939Y3123539D1*
X2719890Y2874495D1*
X2717607Y2865887D1*
X2715402Y2859911D1*
X2712735Y2854126D1*
X2709623Y2848568D1*
X2705606Y2842665D1*
X2705396Y2790160D1*
X2703791Y2780027D1*
X2700621Y2770270D1*
X2695963Y2761129D1*
X2689933Y2752829D1*
X2673457Y2736068D1*
X2596599Y2659211D1*
X2603619Y2663242D1*
X2609404Y2665909D1*
X2615380Y2668114D1*
X2621511Y2669843D1*
X2627759Y2671085D1*
X2634085Y2671834D1*
X2640450Y2672084D1*
X2646815Y2671834D1*
X2653141Y2671085D1*
X2659389Y2669843D1*
X2665520Y2668114D1*
X2671496Y2665909D1*
X2677281Y2663242D1*
X2682839Y2660129D1*
X2688136Y2656590D1*
X2693138Y2652647D1*
X2697816Y2648323D1*
X2702140Y2643645D1*
X2706084Y2638642D1*
X2709623Y2633346D1*
X2712735Y2627788D1*
X2715402Y2622003D1*
X2717607Y2616026D1*
X2719336Y2609896D1*
X2720579Y2603648D1*
X2721328Y2597322D1*
X2721578Y2590957D1*
X2721328Y2584591D1*
X2720579Y2578266D1*
X2719336Y2572018D1*
X2717607Y2565887D1*
X2715402Y2559911D1*
X2712735Y2554126D1*
X2709623Y2548568D1*
X2706084Y2543271D1*
X2702140Y2538269D1*
X2697816Y2533591D1*
X2693138Y2529267D1*
X2688136Y2525323D1*
X2682839Y2521784D1*
X2677281Y2518672D1*
X2671496Y2516005D1*
X2665520Y2513800D1*
X2659389Y2512071D1*
X2653141Y2510828D1*
X2646815Y2510079D1*
X2640450Y2509829D1*
X2634085Y2510079D1*
X2627759Y2510828D1*
X2621511Y2512071D1*
X2615380Y2513800D1*
X2609404Y2516005D1*
X2603619Y2518672D1*
X2598061Y2521784D1*
X2592765Y2525323D1*
X2587762Y2529267D1*
X2583084Y2533591D1*
X2578760Y2538269D1*
X2574817Y2543271D1*
X2571278Y2548568D1*
X2568165Y2554126D1*
X2565498Y2559911D1*
X2563293Y2565887D1*
X2561564Y2572018D1*
X2560321Y2578266D1*
X2559573Y2584591D1*
X2559323Y2590957D1*
X2559573Y2597322D1*
X2560321Y2603648D1*
X2561564Y2609896D1*
X2563293Y2616026D1*
X2565498Y2622003D1*
X2568165Y2627788D1*
X2572370Y2634980D1*
X2521289Y2583901D1*
X2519336Y2572018D1*
X2517607Y2565887D1*
X2515402Y2559911D1*
X2512735Y2554126D1*
X2509623Y2548568D1*
X2506084Y2543271D1*
X2502140Y2538269D1*
X2497816Y2533591D1*
X2493138Y2529267D1*
X2488136Y2525323D1*
X2482839Y2521784D1*
X2477281Y2518672D1*
X2471496Y2516005D1*
X2465520Y2513800D1*
X2459389Y2512071D1*
X2453141Y2510828D1*
X2446815Y2510079D1*
X2440450Y2509829D1*
X2434085Y2510079D1*
X2427759Y2510828D1*
X2421511Y2512071D1*
X2415380Y2513800D1*
X2409404Y2516005D1*
X2403619Y2518672D1*
X2398061Y2521784D1*
X2392765Y2525323D1*
X2387762Y2529267D1*
X2383084Y2533591D1*
X2378760Y2538269D1*
X2374817Y2543271D1*
X2371278Y2548568D1*
X2368165Y2554126D1*
X2365498Y2559911D1*
X2363293Y2565887D1*
X2361564Y2572018D1*
X2360321Y2578266D1*
X2359573Y2584591D1*
X2359323Y2590957D1*
X2359573Y2597322D1*
X2360321Y2603648D1*
X2361564Y2609896D1*
X2363293Y2616026D1*
X2365498Y2622003D1*
X2368165Y2627788D1*
X2371278Y2633346D1*
X2374817Y2638642D1*
X2378760Y2643645D1*
X2383084Y2648323D1*
X2387762Y2652647D1*
X2392765Y2656590D1*
X2398061Y2660129D1*
X2403619Y2663242D1*
X2409404Y2665909D1*
X2415380Y2668114D1*
X2422512Y2670042D1*
X2574859Y2822392D1*
X2574817Y2843271D1*
X2571278Y2848568D1*
X2568165Y2854126D1*
X2565498Y2859911D1*
X2563293Y2865887D1*
X2561564Y2872018D1*
X2560321Y2878266D1*
X2559573Y2884591D1*
X2559323Y2890957D1*
X2559573Y2897322D1*
X2560321Y2903648D1*
X2561564Y2909896D1*
X2563293Y2916026D1*
X2565498Y2922003D1*
X2568165Y2927788D1*
X2571278Y2933346D1*
X2574817Y2938642D1*
X2578760Y2943645D1*
X2583084Y2948323D1*
X2587762Y2952647D1*
X2592765Y2956590D1*
X2598061Y2960129D1*
X2603619Y2963242D1*
X2609404Y2965909D1*
X2615380Y2968114D1*
X2621511Y2969843D1*
X2632083Y2971597D1*
X2672266Y3011792D1*
X2106906Y3011811D1*
X2106929Y2525378D1*
X2160233Y2578683D1*
X2159323Y2590957D1*
X2159573Y2597322D1*
X2160321Y2603648D1*
X2161564Y2609896D1*
X2163293Y2616026D1*
X2165498Y2622003D1*
X2168165Y2627788D1*
X2171278Y2633346D1*
X2174817Y2638642D1*
X2178760Y2643645D1*
X2183084Y2648323D1*
X2187762Y2652647D1*
X2192765Y2656590D1*
X2198061Y2660129D1*
X2203619Y2663242D1*
X2209404Y2665909D1*
X2215380Y2668114D1*
X2221511Y2669843D1*
X2227759Y2671085D1*
X2234085Y2671834D1*
X2240450Y2672084D1*
X2246815Y2671834D1*
X2253141Y2671085D1*
X2259389Y2669843D1*
X2265520Y2668114D1*
X2271496Y2665909D1*
X2277281Y2663242D1*
X2282839Y2660129D1*
X2288136Y2656590D1*
X2293138Y2652647D1*
X2297816Y2648323D1*
X2302140Y2643645D1*
X2306084Y2638642D1*
X2309623Y2633346D1*
X2312735Y2627788D1*
X2315402Y2622003D1*
X2317607Y2616026D1*
X2319336Y2609896D1*
X2320579Y2603648D1*
X2321328Y2597322D1*
X2321578Y2590957D1*
X2321328Y2584591D1*
X2320579Y2578266D1*
X2319336Y2572018D1*
X2317607Y2565887D1*
X2315402Y2559911D1*
X2312735Y2554126D1*
X2309623Y2548568D1*
X2306084Y2543271D1*
X2302140Y2538269D1*
X2297816Y2533591D1*
X2293138Y2529267D1*
X2288136Y2525323D1*
X2282839Y2521784D1*
X2277281Y2518672D1*
X2271496Y2516005D1*
X2265520Y2513800D1*
X2255509Y2511299D1*
X2244853Y2500653D1*
X3092440Y2500630D1*
X3084024Y2503560D1*
X3075657Y2507345D1*
X3067670Y2511875D1*
X3060127Y2517114D1*
X3053093Y2523017D1*
X3046624Y2529536D1*
X3040776Y2536616D1*
X3035597Y2544199D1*
X3031129Y2552222D1*
X3027409Y2560618D1*
X3024469Y2569318D1*
X3022333Y2578249D1*
X3021018Y2587338D1*
X3020536Y2596508D1*
X3020891Y2605685D1*
X3022079Y2614791D1*
X3024090Y2623751D1*
X3026909Y2632491D1*
X3030511Y2640938D1*
X3034867Y2649022D1*
X3039941Y2656677D1*
X3045690Y2663838D1*
X3052067Y2670446D1*
X3059018Y2676446D1*
X3066487Y2681789D1*
X3074411Y2686430D1*
X3082725Y2690331D1*
X3091359Y2693459D1*
X3100241Y2695789D1*
X3109299Y2697300D1*
X3118457Y2697981D1*
X3127639Y2697826D1*
X3136769Y2696836D1*
X3145770Y2695019D1*
X3154569Y2692391D1*
X3163093Y2688973D1*
X3171270Y2684793D1*
X3179032Y2679887D1*
X3186316Y2674295D1*
X3193061Y2668063D1*
X3199211Y2661243D1*
X3204715Y2653892D1*
X3209527Y2646071D1*
X3213607Y2637844D1*
X3216922Y2629280D1*
X3219444Y2620450D1*
X3221152Y2611427D1*
X3222031Y2602286D1*
X3222092Y2593536D1*
X3221340Y2584384D1*
X3219758Y2575338D1*
X3217359Y2566474D1*
X3214164Y2557864D1*
X3210199Y2549581D1*
X3205496Y2541694D1*
X3200095Y2534267D1*
X3194041Y2527362D1*
X3187383Y2521037D1*
X3180178Y2515344D1*
X3172484Y2510330D1*
X3164366Y2506037D1*
X3155891Y2502501D1*
X3150244Y2500631D1*
X3417120Y2500630D1*
X3406747Y2503121D1*
X3398070Y2506129D1*
X3389703Y2509913D1*
X3381716Y2514444D1*
X3374173Y2519682D1*
X3367139Y2525585D1*
X3360670Y2532104D1*
X3354822Y2539184D1*
X3349643Y2546767D1*
X3345175Y2554790D1*
X3341455Y2563186D1*
X3338515Y2571886D1*
X3336379Y2580817D1*
X3335064Y2589906D1*
X3334582Y2599077D1*
X3334937Y2608253D1*
X3336125Y2617359D1*
X3338136Y2626319D1*
X3340955Y2635059D1*
X3344557Y2643506D1*
X3348913Y2651590D1*
X3353987Y2659245D1*
X3359736Y2666406D1*
X3366112Y2673014D1*
X3373064Y2679014D1*
X3380533Y2684357D1*
X3388457Y2688998D1*
X3396770Y2692899D1*
X3405404Y2696027D1*
X3414287Y2698357D1*
X3423345Y2699868D1*
X3432503Y2700549D1*
X3441685Y2700394D1*
X3450815Y2699404D1*
X3459816Y2697587D1*
X3468615Y2694959D1*
X3477139Y2691541D1*
X3485316Y2687362D1*
X3493078Y2682455D1*
X3500362Y2676863D1*
X3507107Y2670631D1*
X3513257Y2663811D1*
X3518761Y2656460D1*
X3523573Y2648639D1*
X3527653Y2640412D1*
X3530968Y2631848D1*
X3533490Y2623018D1*
X3535198Y2613995D1*
X3536077Y2604854D1*
X3536138Y2596104D1*
X3535386Y2586952D1*
X3533804Y2577906D1*
X3531405Y2569042D1*
X3528210Y2560433D1*
X3524245Y2552150D1*
X3519542Y2544262D1*
X3514141Y2536835D1*
X3508087Y2529930D1*
X3501429Y2523605D1*
X3494223Y2517912D1*
X3486530Y2512898D1*
X3478412Y2508605D1*
X3469937Y2505069D1*
X3461175Y2502318D1*
X3453620Y2500630D1*
X4271666D1*
X4271653Y2817188D1*
X4264724Y2810195D1*
X4256283Y2803111D1*
X4247186Y2796894D1*
X4237519Y2791604D1*
X4227378Y2787294D1*
X4216861Y2784004D1*
X4206072Y2781768D1*
X4195114Y2780606D1*
X4184095Y2780531D1*
X4173122Y2781543D1*
X4164785Y2783058D1*
X4166332Y2772458D1*
X4166582Y2766093D1*
X4166332Y2759728D1*
X4165583Y2753402D1*
X4164340Y2747154D1*
X4162611Y2741023D1*
X4160406Y2735047D1*
X4157739Y2729262D1*
X4154627Y2723704D1*
X4151088Y2718408D1*
X4147144Y2713405D1*
X4142820Y2708727D1*
X4138142Y2704403D1*
X4133140Y2700460D1*
X4127843Y2696921D1*
X4122307Y2693820D1*
X4129496Y2690185D1*
X4137198Y2685187D1*
X4144286Y2679351D1*
X4150669Y2672751D1*
X4156265Y2665472D1*
X4161003Y2657608D1*
X4164823Y2649259D1*
X4167674Y2640531D1*
X4169521Y2631537D1*
X4170340Y2622393D1*
X4170196Y2614233D1*
X4169056Y2605122D1*
X4166893Y2596199D1*
X4163736Y2587578D1*
X4159625Y2579368D1*
X4154612Y2571675D1*
X4148763Y2564599D1*
X4142151Y2558228D1*
X4134862Y2552645D1*
X4126989Y2547922D1*
X4118632Y2544118D1*
X4109900Y2541283D1*
X4100902Y2539453D1*
X4091756Y2538651D1*
X4082578Y2538888D1*
X4073485Y2540160D1*
X4064594Y2542452D1*
X4056019Y2545734D1*
X4047870Y2549963D1*
X4040250Y2555086D1*
X4033259Y2561037D1*
X4026985Y2567740D1*
X4021508Y2575110D1*
X4016899Y2583050D1*
X4013217Y2591461D1*
X4010508Y2600234D1*
X4008809Y2609257D1*
X4008139Y2618414D1*
X4008509Y2627588D1*
X4009913Y2636661D1*
X4012333Y2645518D1*
X4015738Y2654045D1*
X4020085Y2662132D1*
X4025318Y2669676D1*
X4031370Y2676581D1*
X4038163Y2682757D1*
X4045610Y2688127D1*
X4052393Y2692005D1*
X4043065Y2696921D1*
X4037768Y2700460D1*
X4032766Y2704403D1*
X4028088Y2708727D1*
X4023764Y2713405D1*
X4019820Y2718408D1*
X4016281Y2723704D1*
X4013169Y2729262D1*
X4010502Y2735047D1*
X4008297Y2741023D1*
X4006568Y2747154D1*
X4005325Y2753402D1*
X4004577Y2759728D1*
X4004327Y2766093D1*
X4004577Y2772458D1*
X4005913Y2781737D1*
X3995114Y2780606D1*
X3984095Y2780531D1*
X3973122Y2781543D1*
X3962303Y2783632D1*
X3951743Y2786778D1*
X3941544Y2790950D1*
X3931806Y2796108D1*
X3922625Y2802200D1*
X3914089Y2809169D1*
X3906281Y2816945D1*
X3899279Y2825453D1*
X3893150Y2834611D1*
X3887954Y2844328D1*
X3883741Y2854510D1*
X3880554Y2865058D1*
X3878422Y2875869D1*
X3877366Y2886837D1*
X3877397Y2897856D1*
X3878515Y2908819D1*
X3880709Y2919617D1*
X3882752Y2926653D1*
X3863876Y2926852D1*
X3853743Y2928457D1*
X3843986Y2931627D1*
X3834844Y2936285D1*
X3826545Y2942315D1*
X3809783Y2958791D1*
X3647111Y3121464D1*
X2521328Y2884591D2*
X2520579Y2878266D1*
X2519336Y2872018D1*
X2517607Y2865887D1*
X2515402Y2859911D1*
X2512735Y2854126D1*
X2509623Y2848568D1*
X2506084Y2843271D1*
X2502140Y2838269D1*
X2497816Y2833591D1*
X2493138Y2829267D1*
X2488136Y2825323D1*
X2482839Y2821784D1*
X2477281Y2818672D1*
X2471496Y2816005D1*
X2465520Y2813800D1*
X2459389Y2812071D1*
X2453141Y2810828D1*
X2446815Y2810079D1*
X2440450Y2809829D1*
X2434085Y2810079D1*
X2427759Y2810828D1*
X2421511Y2812071D1*
X2415380Y2813800D1*
X2409404Y2816005D1*
X2403619Y2818672D1*
X2398061Y2821784D1*
X2392765Y2825323D1*
X2387762Y2829267D1*
X2383084Y2833591D1*
X2378760Y2838269D1*
X2374817Y2843271D1*
X2371278Y2848568D1*
X2368165Y2854126D1*
X2365498Y2859911D1*
X2363293Y2865887D1*
X2361564Y2872018D1*
X2360321Y2878266D1*
X2359573Y2884591D1*
X2359323Y2890957D1*
X2359573Y2897322D1*
X2360321Y2903648D1*
X2361564Y2909896D1*
X2363293Y2916026D1*
X2365498Y2922003D1*
X2368165Y2927788D1*
X2371278Y2933346D1*
X2374817Y2938642D1*
X2378760Y2943645D1*
X2383084Y2948323D1*
X2387762Y2952647D1*
X2392765Y2956590D1*
X2398061Y2960129D1*
X2403619Y2963242D1*
X2409404Y2965909D1*
X2415380Y2968114D1*
X2421511Y2969843D1*
X2427759Y2971085D1*
X2434085Y2971834D1*
X2440450Y2972084D1*
X2446815Y2971834D1*
X2453141Y2971085D1*
X2459389Y2969843D1*
X2465520Y2968114D1*
X2471496Y2965909D1*
X2477281Y2963242D1*
X2482839Y2960129D1*
X2488136Y2956590D1*
X2493138Y2952647D1*
X2497816Y2948323D1*
X2502140Y2943645D1*
X2506084Y2938642D1*
X2509623Y2933346D1*
X2512735Y2927788D1*
X2515402Y2922003D1*
X2517607Y2916026D1*
X2519336Y2909896D1*
X2520579Y2903648D1*
X2521328Y2897322D1*
X2521578Y2890957D1*
X2521328Y2884591D1*
X2321557Y2889120D2*
X2320830Y2879967D1*
X2319073Y2870955D1*
X2316310Y2862199D1*
X2312575Y2853812D1*
X2307916Y2845900D1*
X2302393Y2838566D1*
X2296076Y2831902D1*
X2289048Y2825995D1*
X2281396Y2820920D1*
X2273220Y2816742D1*
X2264625Y2813515D1*
X2255720Y2811279D1*
X2246619Y2810064D1*
X2237440Y2809885D1*
X2228298Y2810744D1*
X2219313Y2812631D1*
X2210598Y2815521D1*
X2202266Y2819377D1*
X2194422Y2824150D1*
X2187169Y2829779D1*
X2180597Y2836191D1*
X2174792Y2843304D1*
X2169829Y2851028D1*
X2165769Y2859264D1*
X2162666Y2867905D1*
X2160560Y2876842D1*
X2159477Y2885959D1*
X2159431Y2895140D1*
X2160422Y2904268D1*
X2162439Y2913225D1*
X2165454Y2921897D1*
X2169431Y2930173D1*
X2174317Y2937946D1*
X2180050Y2945118D1*
X2186556Y2951596D1*
X2193753Y2957297D1*
X2201548Y2962149D1*
X2209841Y2966088D1*
X2218527Y2969066D1*
X2227493Y2971043D1*
X2236625Y2971994D1*
X2245806Y2971907D1*
X2254918Y2970784D1*
X2263845Y2968638D1*
X2272473Y2965497D1*
X2280690Y2961401D1*
X2288392Y2956403D1*
X2295480Y2950567D1*
X2301863Y2943967D1*
X2307459Y2936689D1*
X2312198Y2928825D1*
X2316017Y2920475D1*
X2318868Y2911748D1*
X2320715Y2902754D1*
X2321534Y2893609D1*
X2321557Y2889120D1*
X2240450Y2972048D2*
D18*
Y2809865D1*
X2159358Y2890957D2*
X2321542D1*
X3121346Y2697987D2*
Y2597210D1*
X3020570D2*
X3222123D1*
X3435392Y2700555D2*
Y2599778D1*
X3334616D2*
X3536169D1*
X4188845Y3203594D2*
Y3092030D1*
Y2892030D2*
Y2780466D1*
X3988845Y2892030D2*
Y2780466D1*
X3877281Y2892030D2*
X3988845D1*
Y3203594D2*
Y3092030D1*
X3877281D2*
X3988845D1*
X4089256Y2619740D2*
Y2538648D1*
X4008164Y2619740D2*
X4170348D1*
X1835357Y3444383D2*
D17*
X2311398D1*
X2728155D2*
X2771577D1*
X1835357Y3404514D2*
X2304150D1*
X2735368D2*
X2771577D1*
X1835357Y3364646D2*
X1907342D1*
X2030315D2*
X2104167D1*
X2727868D2*
X2771577D1*
X1835357Y3324777D2*
X1885561D1*
X2052061D2*
X2082421D1*
X2701457D2*
X2771577D1*
X1835357Y3284908D2*
X1886888D1*
X2050769D2*
X2083713D1*
X2701565D2*
X2771577D1*
X1835357Y3245039D2*
X1912940D1*
X2024717D2*
X2109765D1*
X2221542D2*
X2311650D1*
X2727904D2*
X2771577D1*
X1835357Y3205171D2*
X2304150D1*
X2735368D2*
X2771577D1*
X1835357Y3165302D2*
X2311434D1*
X2728119D2*
X2771577D1*
X1835357Y3125433D2*
X2337414D1*
X2502121D2*
X2537433D1*
X2702103D2*
X2771577D1*
X2731351Y3203070D2*
X2730626Y3192074D1*
X2728820Y3181204D1*
X2725951Y3170565D1*
X2722047Y3160261D1*
X2717145Y3150392D1*
X2711295Y3141054D1*
X2704552Y3132339D1*
X2696982Y3124332D1*
X2688659Y3117110D1*
X2679665Y3110744D1*
X2670087Y3105296D1*
X2660018Y3100819D1*
X2649557Y3097357D1*
X2638806Y3094943D1*
X2627869Y3093601D1*
X2616852Y3093345D1*
X2605865Y3094176D1*
X2595012Y3096087D1*
X2584402Y3099058D1*
X2574135Y3103062D1*
X2564314Y3108058D1*
X2555034Y3113999D1*
X2546384Y3120826D1*
X2538450Y3128473D1*
X2531309Y3136864D1*
X2525030Y3145920D1*
X2519768Y3155364D1*
X2515298Y3147216D1*
X2509143Y3138076D1*
X2502117Y3129588D1*
X2494287Y3121834D1*
X2485732Y3114889D1*
X2476533Y3108823D1*
X2466781Y3103693D1*
X2456570Y3099550D1*
X2446001Y3096434D1*
X2435175Y3094376D1*
X2424200Y3093395D1*
X2413181Y3093501D1*
X2402227Y3094694D1*
X2391443Y3096961D1*
X2380936Y3100280D1*
X2370807Y3104619D1*
X2361156Y3109936D1*
X2352076Y3116179D1*
X2343656Y3123287D1*
X2335978Y3131191D1*
X2329117Y3139813D1*
X2323139Y3149070D1*
X2318104Y3158872D1*
X2314059Y3169122D1*
X2311046Y3179721D1*
X2309092Y3190565D1*
X2308217Y3201550D1*
X2308430Y3212567D1*
X2309728Y3223509D1*
X2312099Y3234270D1*
X2315519Y3244745D1*
X2317640Y3249902D1*
X2222897Y3249896D1*
X2218357Y3245712D1*
X2213355Y3241768D1*
X2208058Y3238229D1*
X2202500Y3235116D1*
X2196715Y3232449D1*
X2190739Y3230245D1*
X2184608Y3228516D1*
X2178360Y3227273D1*
X2172034Y3226524D1*
X2165669Y3226274D1*
X2159304Y3226524D1*
X2152978Y3227273D1*
X2146730Y3228516D1*
X2140599Y3230245D1*
X2134623Y3232449D1*
X2128838Y3235116D1*
X2123280Y3238229D1*
X2117984Y3241768D1*
X2112981Y3245712D1*
X2108303Y3250036D1*
X2103979Y3254713D1*
X2100036Y3259716D1*
X2096497Y3265013D1*
X2093384Y3270570D1*
X2090717Y3276355D1*
X2088512Y3282332D1*
X2086783Y3288463D1*
X2085541Y3294710D1*
X2084792Y3301036D1*
X2084542Y3307402D1*
X2084792Y3313767D1*
X2085541Y3320093D1*
X2086783Y3326340D1*
X2088512Y3332471D1*
X2090717Y3338448D1*
X2093384Y3344233D1*
X2096497Y3349791D1*
X2100036Y3355087D1*
X2103979Y3360090D1*
X2108303Y3364767D1*
X2112981Y3369091D1*
X2117984Y3373035D1*
X2123280Y3376574D1*
X2128838Y3379687D1*
X2134623Y3382354D1*
X2140599Y3384558D1*
X2146730Y3386288D1*
X2152978Y3387530D1*
X2159304Y3388279D1*
X2165669Y3388529D1*
X2172034Y3388279D1*
X2178360Y3387530D1*
X2184608Y3386288D1*
X2190739Y3384558D1*
X2196715Y3382354D1*
X2202500Y3379687D1*
X2208058Y3376574D1*
X2213355Y3373035D1*
X2218357Y3369091D1*
X2222871Y3364919D1*
X2315558Y3364907D1*
X2312422Y3374384D1*
X2309935Y3385119D1*
X2308519Y3396047D1*
X2308187Y3407061D1*
X2308944Y3418054D1*
X2310780Y3428919D1*
X2313680Y3439550D1*
X2317613Y3449843D1*
X2322543Y3459698D1*
X2328420Y3469019D1*
X2335188Y3477715D1*
X2341293Y3484255D1*
X1831347Y3484252D1*
X1831339Y3091189D1*
X2751684Y3091181D1*
X2775589Y3115115D1*
X2775590Y3484244D1*
X2698237Y3484252D1*
X2704962Y3476992D1*
X2711656Y3468238D1*
X2717453Y3458868D1*
X2722299Y3448971D1*
X2726145Y3438645D1*
X2728953Y3427990D1*
X2730697Y3417109D1*
X2731360Y3406110D1*
X2730989Y3395731D1*
X2729541Y3384807D1*
X2727024Y3374079D1*
X2723461Y3363652D1*
X2718887Y3353627D1*
X2713347Y3344102D1*
X2706894Y3335170D1*
X2699592Y3326917D1*
X2691512Y3319425D1*
X2682733Y3312767D1*
X2673339Y3307006D1*
X2669309Y3304910D1*
X2678646Y3299710D1*
X2687709Y3293442D1*
X2696108Y3286310D1*
X2703764Y3278384D1*
X2710601Y3269743D1*
X2716552Y3260469D1*
X2721560Y3250653D1*
X2725575Y3240392D1*
X2728558Y3229784D1*
X2730481Y3218934D1*
X2731325Y3207947D1*
X2731351Y3203070D1*
X2049926Y3305564D2*
X2049199Y3296412D1*
X2047442Y3287400D1*
X2044679Y3278644D1*
X2040943Y3270257D1*
X2036285Y3262345D1*
X2030762Y3255011D1*
X2024445Y3248347D1*
X2017416Y3242440D1*
X2009765Y3237365D1*
X2001589Y3233187D1*
X1992994Y3229960D1*
X1984089Y3227724D1*
X1974988Y3226509D1*
X1965808Y3226330D1*
X1956667Y3227189D1*
X1947682Y3229076D1*
X1938967Y3231966D1*
X1930634Y3235822D1*
X1922791Y3240595D1*
X1915537Y3246224D1*
X1908966Y3252636D1*
X1903161Y3259749D1*
X1898197Y3267473D1*
X1894138Y3275709D1*
X1891035Y3284350D1*
X1888929Y3293286D1*
X1887845Y3302404D1*
X1887799Y3311585D1*
X1888791Y3320713D1*
X1890807Y3329670D1*
X1893823Y3338342D1*
X1897799Y3346618D1*
X1902685Y3354391D1*
X1908418Y3361563D1*
X1914925Y3368041D1*
X1922122Y3373742D1*
X1929917Y3378594D1*
X1938210Y3382533D1*
X1946895Y3385511D1*
X1955861Y3387488D1*
X1964993Y3388439D1*
X1974174Y3388352D1*
X1983287Y3387229D1*
X1992214Y3385083D1*
X2000841Y3381942D1*
X2009059Y3377846D1*
X2016761Y3372848D1*
X2023849Y3367012D1*
X2030232Y3360412D1*
X2035828Y3353134D1*
X2040566Y3345269D1*
X2044386Y3336920D1*
X2047237Y3328193D1*
X2049084Y3319199D1*
X2049903Y3310054D1*
X2049926Y3305564D1*
X2619766Y3204907D2*
D18*
Y3093343D1*
Y3204907D2*
X2731331D1*
X2419766D2*
Y3093343D1*
X2308202Y3204907D2*
X2419766D1*
X2308202Y3404907D2*
X2419766D1*
X2619766D2*
X2731331D1*
X1968819Y3388493D2*
Y3226310D1*
X1887727Y3307402D2*
X2049911D1*
X457404Y3444383D2*
D17*
X1747981D1*
X457404Y3404514D2*
X1747981D1*
X457404Y3364646D2*
X1747981D1*
X457404Y3324777D2*
X1747981D1*
X457404Y3284908D2*
X1747981D1*
X457404Y3245039D2*
X1747981D1*
X457404Y3205171D2*
X1747981D1*
X457404Y3165302D2*
X1747981D1*
X457404Y3125433D2*
X1077736D1*
X1206379D2*
X1235196D1*
X1363838D2*
X1747981D1*
X457404Y3085564D2*
X1058215D1*
X1383359D2*
X1695841D1*
X457404Y3045696D2*
X1061014D1*
X1380560D2*
X1579038D1*
X457404Y3005827D2*
X1089972D1*
X1354831D2*
X1539171D1*
X1922053D2*
X2023571D1*
X457404Y2965958D2*
X1148356D1*
X1396026D2*
X1499303D1*
X1975377D2*
X2023571D1*
X457404Y2926089D2*
X1052186D1*
X1652383D2*
X1808840D1*
X457404Y2886220D2*
X508182D1*
X694814D2*
X1044938D1*
X1612516D2*
X1848743D1*
X732205Y2846352D2*
X1010417D1*
X1572648D2*
X1868695D1*
X739418Y2806483D2*
X1005357D1*
X1546166D2*
X2023571D1*
X726392Y2766614D2*
X1005357D1*
X1548462D2*
X2023571D1*
X738269Y2726745D2*
X1005357D1*
X1528260D2*
X2023571D1*
X735793Y2686877D2*
X992511D1*
X1141249D2*
X1412284D1*
X1817271D2*
X2023571D1*
X1137337Y2647008D2*
X1412284D1*
X2003115D2*
X2023571D1*
X1125926Y2607139D2*
X1412284D1*
X1165793Y2567270D2*
X1412284D1*
X738162Y2527402D2*
X894296D1*
X1205661D2*
X1379378D1*
X1754868D2*
X1801018D1*
X1994862D2*
X2023571D1*
X736009Y2487533D2*
X894296D1*
X731595Y2447664D2*
X894296D1*
X739489Y2407795D2*
X894296D1*
X1076370D2*
X1132352D1*
X727217Y2367927D2*
X894296D1*
X1076370D2*
X1138703D1*
X738018Y2328058D2*
X894296D1*
X736188Y2288189D2*
X993336D1*
X731272Y2248320D2*
X1003061D1*
X739525Y2208451D2*
X1003061D1*
X727612Y2168583D2*
X852383D1*
X982569D2*
X1003061D1*
X737910Y2128714D2*
X833472D1*
X736367Y2088845D2*
X836738D1*
X457404Y2048976D2*
X491675D1*
X711320D2*
X866593D1*
X968359D2*
X1003061D1*
X457404Y2009108D2*
X1003061D1*
X457404Y1969239D2*
X1003061D1*
X1065366Y2964536D2*
X1150950D1*
X1225138Y3038746D1*
X1222371Y3046111D1*
X1220797Y3051691D1*
X1218539Y3044149D1*
X1214994Y3035679D1*
X1210516Y3027664D1*
X1205160Y3020206D1*
X1198997Y3013402D1*
X1192103Y3007337D1*
X1184569Y3002090D1*
X1176490Y2997728D1*
X1167970Y2994306D1*
X1159117Y2991870D1*
X1150047Y2990449D1*
X1140873Y2990062D1*
X1131715Y2990714D1*
X1122689Y2992397D1*
X1113911Y2995089D1*
X1105493Y2998755D1*
X1097544Y3003349D1*
X1090165Y3008812D1*
X1083450Y3015074D1*
X1077485Y3022054D1*
X1072348Y3029664D1*
X1068103Y3037805D1*
X1064806Y3046374D1*
X1062497Y3055261D1*
X1061208Y3064351D1*
X1060954Y3073529D1*
X1061738Y3082677D1*
X1063551Y3091677D1*
X1066370Y3100415D1*
X1070158Y3108779D1*
X1074867Y3116661D1*
X1080436Y3123961D1*
X1086794Y3130584D1*
X1093860Y3136447D1*
X1101543Y3141474D1*
X1109745Y3145600D1*
X1118360Y3148774D1*
X1127279Y3150953D1*
X1136388Y3152111D1*
X1145568Y3152232D1*
X1154704Y3151315D1*
X1163677Y3149372D1*
X1172374Y3146427D1*
X1180682Y3142519D1*
X1188495Y3137697D1*
X1195713Y3132022D1*
X1202244Y3125569D1*
X1208004Y3118419D1*
X1212919Y3110664D1*
X1216926Y3102403D1*
X1219975Y3093743D1*
X1220784Y3090713D1*
X1224575Y3102227D1*
X1227242Y3108012D1*
X1230355Y3113570D1*
X1233894Y3118867D1*
X1237838Y3123869D1*
X1242162Y3128547D1*
X1246839Y3132871D1*
X1251842Y3136815D1*
X1257139Y3140354D1*
X1262696Y3143466D1*
X1268481Y3146133D1*
X1274458Y3148338D1*
X1280589Y3150067D1*
X1286836Y3151310D1*
X1293162Y3152059D1*
X1299528Y3152309D1*
X1305893Y3152059D1*
X1312219Y3151310D1*
X1318466Y3150067D1*
X1324597Y3148338D1*
X1330574Y3146133D1*
X1336359Y3143466D1*
X1341917Y3140354D1*
X1347213Y3136815D1*
X1352216Y3132871D1*
X1356893Y3128547D1*
X1361217Y3123869D1*
X1365161Y3118867D1*
X1368700Y3113570D1*
X1371813Y3108012D1*
X1374480Y3102227D1*
X1376684Y3096251D1*
X1378414Y3090120D1*
X1379656Y3083872D1*
X1380405Y3077546D1*
X1380655Y3071181D1*
X1380405Y3064816D1*
X1379656Y3058490D1*
X1378414Y3052242D1*
X1376684Y3046111D1*
X1374480Y3040135D1*
X1371813Y3034350D1*
X1368700Y3028792D1*
X1365161Y3023496D1*
X1361217Y3018493D1*
X1356893Y3013815D1*
X1352656Y3009805D1*
X1348559Y3001764D1*
X1343255Y2994464D1*
X1323215Y2974173D1*
X1392036Y2974165D1*
Y2936810D1*
X1397804Y2940940D1*
X1405019Y2944616D1*
X1412719Y2947118D1*
X1420717Y2948385D1*
X1452324Y2948544D1*
X1483836Y2948543D1*
X1486830Y2949472D1*
X1598497Y3060854D1*
X1606797Y3066884D1*
X1615938Y3071542D1*
X1625695Y3074712D1*
X1635828Y3076317D1*
X1659331Y3076519D1*
X1684127D1*
X1689751Y3080312D1*
X1695309Y3083424D1*
X1701094Y3086091D1*
X1707071Y3088296D1*
X1713202Y3090025D1*
X1719449Y3091268D1*
X1725775Y3092017D1*
X1732140Y3092267D1*
X1738506Y3092017D1*
X1744832Y3091268D1*
X1751965Y3089775D1*
X1751968Y3484275D1*
X453404Y3484252D1*
X453386Y1949426D1*
X1007066Y1949449D1*
X1007063Y2252658D1*
X1002782Y2261291D1*
X999310Y2271977D1*
X997552Y2283074D1*
Y2294309D1*
X998045Y2298475D1*
X898287Y2298461D1*
Y2546529D1*
X728144Y2546493D1*
X731349Y2538260D1*
X733750Y2529398D1*
X735170Y2520327D1*
X735596Y2511873D1*
X735095Y2502705D1*
X733597Y2493646D1*
X731121Y2484804D1*
X727695Y2476285D1*
X723362Y2468191D1*
X719116Y2461873D1*
X723203Y2455815D1*
X726430Y2450053D1*
X729194Y2444056D1*
X731480Y2437861D1*
X733272Y2431505D1*
X734561Y2425029D1*
X735337Y2418471D1*
X735596Y2411873D1*
X735337Y2405274D1*
X734561Y2398717D1*
X733272Y2392240D1*
X731480Y2385884D1*
X729194Y2379689D1*
X726430Y2373692D1*
X723203Y2367931D1*
X719103Y2361893D1*
X723732Y2354940D1*
X727996Y2346808D1*
X731349Y2338260D1*
X733750Y2329398D1*
X735170Y2320327D1*
X735596Y2311873D1*
X735095Y2302705D1*
X733597Y2293646D1*
X731121Y2284804D1*
X727695Y2276285D1*
X723362Y2268191D1*
X719116Y2261873D1*
X723203Y2255815D1*
X726430Y2250053D1*
X729194Y2244056D1*
X731480Y2237861D1*
X733272Y2231505D1*
X734561Y2225029D1*
X735337Y2218471D1*
X735596Y2211873D1*
X735337Y2205274D1*
X734561Y2198717D1*
X733272Y2192240D1*
X731480Y2185884D1*
X729194Y2179689D1*
X726430Y2173692D1*
X723203Y2167931D1*
X719103Y2161893D1*
X723732Y2154940D1*
X727996Y2146808D1*
X731349Y2138260D1*
X733750Y2129398D1*
X735170Y2120327D1*
X735596Y2111873D1*
X735095Y2102705D1*
X733597Y2093646D1*
X731121Y2084804D1*
X727695Y2076285D1*
X723362Y2068191D1*
X718172Y2060617D1*
X712187Y2053653D1*
X705478Y2047384D1*
X698126Y2041884D1*
X690219Y2037218D1*
X681849Y2033441D1*
X673118Y2030600D1*
X664129Y2028727D1*
X654990Y2027845D1*
X645809Y2027965D1*
X636696Y2029085D1*
X627759Y2031192D1*
X619105Y2034261D1*
X610837Y2038254D1*
X603054Y2043125D1*
X601501Y2044247D1*
X593442Y2038980D1*
X585246Y2034842D1*
X576647Y2031622D1*
X567749Y2029358D1*
X558657Y2028078D1*
X549479Y2027797D1*
X540326Y2028518D1*
X531306Y2030232D1*
X522526Y2032920D1*
X514092Y2036549D1*
X506103Y2041075D1*
X498656Y2046445D1*
X491838Y2052596D1*
X485732Y2059453D1*
X480409Y2066934D1*
X475934Y2074951D1*
X472359Y2083409D1*
X469728Y2092206D1*
X468071Y2101237D1*
X467409Y2110394D1*
X467749Y2119570D1*
X469087Y2128654D1*
X471408Y2137537D1*
X474683Y2146115D1*
X478874Y2154285D1*
X483875Y2161873D1*
X479789Y2167931D1*
X476562Y2173692D1*
X473798Y2179689D1*
X471512Y2185884D1*
X469720Y2192240D1*
X468431Y2198717D1*
X467655Y2205274D1*
X467396Y2211873D1*
X467655Y2218471D1*
X468431Y2225029D1*
X469720Y2231505D1*
X471512Y2237861D1*
X473798Y2244056D1*
X476562Y2250053D1*
X479789Y2255815D1*
X483889Y2261852D1*
X479445Y2268498D1*
X475145Y2276611D1*
X471756Y2285144D1*
X469318Y2293996D1*
X467859Y2303062D1*
X467397Y2312232D1*
X467937Y2321398D1*
X469474Y2330450D1*
X471988Y2339281D1*
X475449Y2347785D1*
X479817Y2355861D1*
X483875Y2361873D1*
X479789Y2367931D1*
X476562Y2373692D1*
X473798Y2379689D1*
X471512Y2385884D1*
X469720Y2392240D1*
X468431Y2398717D1*
X467655Y2405274D1*
X467396Y2411873D1*
X467655Y2418471D1*
X468431Y2425029D1*
X469720Y2431505D1*
X471512Y2437861D1*
X473798Y2444056D1*
X476562Y2450053D1*
X479789Y2455815D1*
X483889Y2461852D1*
X479445Y2468498D1*
X475145Y2476611D1*
X471756Y2485144D1*
X469318Y2493996D1*
X467859Y2503062D1*
X467397Y2512232D1*
X467937Y2521398D1*
X469474Y2530450D1*
X471988Y2539281D1*
X475449Y2547785D1*
X479817Y2555861D1*
X483875Y2561873D1*
X479789Y2567931D1*
X476562Y2573692D1*
X473798Y2579689D1*
X471512Y2585884D1*
X469720Y2592240D1*
X468431Y2598717D1*
X467655Y2605274D1*
X467396Y2611873D1*
X467655Y2618471D1*
X468431Y2625029D1*
X469720Y2631505D1*
X471512Y2637861D1*
X473798Y2644056D1*
X476562Y2650053D1*
X479789Y2655815D1*
X483889Y2661852D1*
X479789Y2667931D1*
X476562Y2673692D1*
X473798Y2679689D1*
X471512Y2685884D1*
X469720Y2692240D1*
X468431Y2698717D1*
X467655Y2705274D1*
X467396Y2711873D1*
X467655Y2718471D1*
X468431Y2725029D1*
X469720Y2731505D1*
X471512Y2737861D1*
X473798Y2744056D1*
X476562Y2750053D1*
X479789Y2755815D1*
X483889Y2761852D1*
X479789Y2767931D1*
X476562Y2773692D1*
X473798Y2779689D1*
X471512Y2785884D1*
X469720Y2792240D1*
X468431Y2798717D1*
X467655Y2805274D1*
X467396Y2811873D1*
X467655Y2818471D1*
X468431Y2825029D1*
X469720Y2831505D1*
X471512Y2837861D1*
X473798Y2844056D1*
X476562Y2850053D1*
X479789Y2855815D1*
X483458Y2861305D1*
X487546Y2866491D1*
X492028Y2871340D1*
X496877Y2875823D1*
X502063Y2879911D1*
X507554Y2883580D1*
X513315Y2886806D1*
X519312Y2889571D1*
X525508Y2891857D1*
X531863Y2893649D1*
X538340Y2894937D1*
X544898Y2895713D1*
X551496Y2895973D1*
X558094Y2895713D1*
X564652Y2894937D1*
X571129Y2893649D1*
X577484Y2891857D1*
X583680Y2889571D1*
X589677Y2886806D1*
X595438Y2883580D1*
X601476Y2879480D1*
X607554Y2883580D1*
X613315Y2886806D1*
X619312Y2889571D1*
X625508Y2891857D1*
X631863Y2893649D1*
X638340Y2894937D1*
X644898Y2895713D1*
X651496Y2895973D1*
X658094Y2895713D1*
X664652Y2894937D1*
X671129Y2893649D1*
X677484Y2891857D1*
X683680Y2889571D1*
X689677Y2886806D1*
X695438Y2883580D1*
X700929Y2879911D1*
X706115Y2875823D1*
X710964Y2871340D1*
X715446Y2866491D1*
X719534Y2861305D1*
X723203Y2855815D1*
X726430Y2850053D1*
X729194Y2844056D1*
X731480Y2837861D1*
X733272Y2831505D1*
X734561Y2825029D1*
X735337Y2818471D1*
X735596Y2811873D1*
X735337Y2805274D1*
X734561Y2798717D1*
X733272Y2792240D1*
X731480Y2785884D1*
X729194Y2779689D1*
X726430Y2773692D1*
X723203Y2767931D1*
X719103Y2761893D1*
X723203Y2755815D1*
X726430Y2750053D1*
X729194Y2744056D1*
X731480Y2737861D1*
X733272Y2731505D1*
X734561Y2725029D1*
X735337Y2718471D1*
X735596Y2711873D1*
X735337Y2705274D1*
X734561Y2698717D1*
X733272Y2692240D1*
X731480Y2685884D1*
X728060Y2677229D1*
X995338Y2677252D1*
X996149Y2684842D1*
X998772Y2695767D1*
X1003071Y2706147D1*
X1008942Y2715727D1*
X1009363Y2716262D1*
X1009539Y2827325D1*
X1010951Y2836238D1*
X1013739Y2844820D1*
X1017836Y2852860D1*
X1023140Y2860161D1*
X1039196Y2876468D1*
X1056172Y2893443D1*
X1056180Y2964536D1*
X1065366D1*
X1230246Y2697737D2*
Y2688107D1*
X1136997D1*
X1138247Y2679259D1*
Y2668024D1*
X1136489Y2656927D1*
X1133017Y2646242D1*
X1127916Y2636231D1*
X1121313Y2627141D1*
X1113368Y2619197D1*
X1111419Y2617660D1*
X1228451Y2500607D1*
X1356733Y2500745D1*
X1416276Y2560288D1*
X1416273Y2693696D1*
X1650991D1*
X1651013Y2694629D1*
X1813268D1*
Y2678014D1*
X1819356Y2677375D1*
X1829332Y2674980D1*
X1838810Y2671054D1*
X1847558Y2665694D1*
X1855373Y2659016D1*
X1866270Y2656336D1*
X1892430D1*
X1898061Y2660129D1*
X1903619Y2663242D1*
X1909404Y2665909D1*
X1915380Y2668114D1*
X1921511Y2669843D1*
X1927759Y2671085D1*
X1934085Y2671834D1*
X1940450Y2672084D1*
X1946815Y2671834D1*
X1953141Y2671085D1*
X1959389Y2669843D1*
X1965520Y2668114D1*
X1971496Y2665909D1*
X1977281Y2663242D1*
X1982839Y2660129D1*
X1988136Y2656590D1*
X1993138Y2652647D1*
X1997816Y2648323D1*
X2002140Y2643645D1*
X2006084Y2638642D1*
X2009623Y2633346D1*
X2012735Y2627788D1*
X2015402Y2622003D1*
X2017607Y2616026D1*
X2019336Y2609896D1*
X2020579Y2603648D1*
X2021328Y2597322D1*
X2021578Y2590957D1*
X2021328Y2584591D1*
X2020579Y2578266D1*
X2019336Y2572018D1*
X2017607Y2565887D1*
X2015402Y2559911D1*
X2012735Y2554126D1*
X2009623Y2548568D1*
X2006084Y2543271D1*
X2002140Y2538269D1*
X1997816Y2533591D1*
X1993138Y2529267D1*
X1988136Y2525323D1*
X1982839Y2521784D1*
X1977281Y2518672D1*
X1971496Y2516005D1*
X1965520Y2513800D1*
X1959389Y2512071D1*
X1953141Y2510828D1*
X1946815Y2510079D1*
X1940450Y2509829D1*
X1934085Y2510079D1*
X1927759Y2510828D1*
X1921511Y2512071D1*
X1915380Y2513800D1*
X1909404Y2516005D1*
X1903619Y2518672D1*
X1898061Y2521784D1*
X1892432Y2525585D1*
X1815209Y2525779D1*
X1805076Y2527383D1*
X1795301Y2530562D1*
X1785709Y2532374D1*
X1765291D1*
X1757150Y2529098D1*
X1747174Y2526704D1*
X1740252Y2526028D1*
X1717687Y2503465D1*
X2027553Y2503444D1*
X2027559Y3011824D1*
X1912024Y3011811D1*
X1952693Y2971174D1*
X1959389Y2969843D1*
X1965520Y2968114D1*
X1971496Y2965909D1*
X1977281Y2963242D1*
X1982839Y2960129D1*
X1988136Y2956590D1*
X1993138Y2952647D1*
X1997816Y2948323D1*
X2002140Y2943645D1*
X2006084Y2938642D1*
X2009623Y2933346D1*
X2012735Y2927788D1*
X2015402Y2922003D1*
X2017607Y2916026D1*
X2019336Y2909896D1*
X2020579Y2903648D1*
X2021328Y2897322D1*
X2021578Y2890957D1*
X2021328Y2884591D1*
X2020579Y2878266D1*
X2019336Y2872018D1*
X2017607Y2865887D1*
X2015402Y2859911D1*
X2012735Y2854126D1*
X2009623Y2848568D1*
X2006084Y2843271D1*
X2002140Y2838269D1*
X1997816Y2833591D1*
X1993138Y2829267D1*
X1988136Y2825323D1*
X1982839Y2821784D1*
X1977281Y2818672D1*
X1971496Y2816005D1*
X1965520Y2813800D1*
X1959389Y2812071D1*
X1953141Y2810828D1*
X1946815Y2810079D1*
X1940450Y2809829D1*
X1934085Y2810079D1*
X1927759Y2810828D1*
X1921511Y2812071D1*
X1915380Y2813800D1*
X1909404Y2816005D1*
X1903619Y2818672D1*
X1898061Y2821784D1*
X1892765Y2825323D1*
X1887762Y2829267D1*
X1883084Y2833591D1*
X1878760Y2838269D1*
X1874817Y2843271D1*
X1871278Y2848568D1*
X1868165Y2854126D1*
X1865498Y2859911D1*
X1863293Y2865887D1*
X1861564Y2872018D1*
X1860272Y2878686D1*
X1793206Y2945740D1*
X1780185Y2945760D1*
X1774529Y2941966D1*
X1768972Y2938854D1*
X1763187Y2936187D1*
X1757210Y2933982D1*
X1751079Y2932253D1*
X1744832Y2931010D1*
X1738506Y2930262D1*
X1732140Y2930012D1*
X1725775Y2930262D1*
X1719449Y2931010D1*
X1713202Y2932253D1*
X1707071Y2933982D1*
X1701094Y2936187D1*
X1695309Y2938854D1*
X1689751Y2941966D1*
X1684123Y2945767D1*
X1668015Y2945760D1*
X1553308Y2831028D1*
X1545490Y2824354D1*
X1544385Y2816107D1*
X1541774Y2805230D1*
X1540811Y2802054D1*
X1543008Y2795044D1*
X1544472Y2787846D1*
X1545187Y2780535D1*
X1545050Y2771752D1*
X1544106Y2764467D1*
X1542417Y2757318D1*
X1540002Y2750381D1*
X1536885Y2743729D1*
X1533100Y2737433D1*
X1528688Y2731560D1*
X1523695Y2726172D1*
X1518173Y2721327D1*
X1512183Y2717076D1*
X1505786Y2713464D1*
X1499052Y2710529D1*
X1492052Y2708303D1*
X1484859Y2706809D1*
X1477552Y2706063D1*
X1434608Y2705973D1*
X1427173Y2706362D1*
X1419916Y2707504D1*
X1412816Y2709386D1*
X1405947Y2711989D1*
X1399382Y2715285D1*
X1392039Y2720084D1*
X1392036Y2697737D1*
X1230249D1*
X1072354Y2408696D2*
Y2360209D1*
X1080132Y2359410D1*
X1091057Y2356787D1*
X1101437Y2352488D1*
X1111017Y2346617D1*
X1119561Y2339320D1*
X1126857Y2330777D1*
X1132728Y2321197D1*
X1137027Y2310817D1*
X1139650Y2299892D1*
X1140532Y2288692D1*
X1139650Y2277491D1*
X1137027Y2266566D1*
X1132728Y2256186D1*
X1126857Y2246606D1*
X1122080Y2240788D1*
X1122074Y1949478D1*
X1142709Y1949449D1*
X1142712Y2401421D1*
X1072368Y2471769D1*
X1072318Y2408698D1*
X998586Y2113353D2*
X997859Y2104201D1*
X996102Y2095189D1*
X993339Y2086433D1*
X989604Y2078046D1*
X984945Y2070134D1*
X979422Y2062800D1*
X973105Y2056136D1*
X966076Y2050229D1*
X958425Y2045154D1*
X950249Y2040976D1*
X941654Y2037748D1*
X932749Y2035513D1*
X923648Y2034298D1*
X914468Y2034119D1*
X905327Y2034978D1*
X896342Y2036865D1*
X887627Y2039755D1*
X879295Y2043611D1*
X871451Y2048384D1*
X864197Y2054012D1*
X857626Y2060424D1*
X851821Y2067538D1*
X846857Y2075262D1*
X842798Y2083497D1*
X839695Y2092139D1*
X837589Y2101075D1*
X836506Y2110192D1*
X836459Y2119374D1*
X837451Y2128502D1*
X839468Y2137459D1*
X842483Y2146131D1*
X846460Y2154407D1*
X851345Y2162180D1*
X857078Y2169352D1*
X863585Y2175830D1*
X870782Y2181531D1*
X878577Y2186382D1*
X886870Y2190322D1*
X895555Y2193299D1*
X904521Y2195276D1*
X913653Y2196228D1*
X922835Y2196141D1*
X931947Y2195017D1*
X940874Y2192871D1*
X949502Y2189730D1*
X957719Y2185635D1*
X965421Y2180637D1*
X972509Y2174801D1*
X978892Y2168201D1*
X984488Y2160922D1*
X989227Y2153058D1*
X993046Y2144709D1*
X995897Y2135981D1*
X997744Y2126988D1*
X998563Y2117843D1*
X998586Y2113353D1*
X1143213Y2771203D2*
D18*
Y2688143D1*
X1499369Y2693660D2*
Y2606663D1*
X1416309D2*
X1499369D1*
X1454293Y2777259D2*
Y2706009D1*
Y2777259D2*
X1545227D1*
X467432Y2511873D2*
X551496D1*
X467432Y2311873D2*
X551496D1*
Y2111873D2*
Y2027809D1*
X467432Y2111873D2*
X551496D1*
X651496D2*
Y2027809D1*
Y2111873D2*
X735560D1*
X651496Y2311873D2*
X735560D1*
X651496Y2511873D2*
X735560D1*
X985320Y2381558D2*
Y2298497D1*
X898323Y2381558D2*
X1072318D1*
X917479Y2196282D2*
Y2034099D1*
X836387Y2115190D2*
X998571D1*
X1142047Y3152273D2*
Y2990089D1*
X1060956Y3071181D2*
X1142047D1*
X1305003Y2780833D2*
Y2697773D1*
X1587469Y2378024D2*
D17*
X4267661D1*
X1869769Y2338155D2*
X2040688D1*
X2469789D2*
X2640707D1*
X3069773D2*
X3240691D1*
X3669756D2*
X3840711D1*
X1889111Y2298286D2*
X2021346D1*
X2489131D2*
X2621366D1*
X3089114D2*
X3221350D1*
X3689134D2*
X3821333D1*
X1303338Y2258417D2*
X1352537D1*
X1886169D2*
X2024289D1*
X2486188D2*
X2624308D1*
X3086172D2*
X3224292D1*
X3686191D2*
X3824311D1*
X1277465Y2218549D2*
X1352537D1*
X1856959D2*
X2053499D1*
X2456978D2*
X2653482D1*
X3056962D2*
X3253502D1*
X3656981D2*
X3853485D1*
X1277465Y2178680D2*
X1352537D1*
X1528152D2*
X1549541D1*
X1742488D2*
X1767502D1*
X1828144D2*
X2067493D1*
X2336874D2*
X2367521D1*
X2428163D2*
X2667513D1*
X2936463D2*
X2967505D1*
X3028147D2*
X3267497D1*
X3532571D2*
X3567488D1*
X3628166D2*
X3978111D1*
X4166967D2*
X4267661D1*
X1277465Y2138811D2*
X1352537D1*
X1874111D2*
X2021562D1*
X2297007D2*
X2321554D1*
X2474095D2*
X2621581D1*
X2896595D2*
X2921573D1*
X3074079D2*
X3221565D1*
X3492704D2*
X3521557D1*
X3674098D2*
X3938244D1*
X4131155D2*
X4267661D1*
X1277465Y2098942D2*
X1352537D1*
X1662754D2*
X1712742D1*
X1882903D2*
X2012770D1*
X2257139D2*
X2312762D1*
X2482887D2*
X2612754D1*
X2856728D2*
X2912746D1*
X3082906D2*
X3212773D1*
X3452836D2*
X3512765D1*
X3682890D2*
X3898376D1*
X4099649D2*
X4267661D1*
X1277465Y2059073D2*
X1352537D1*
X1622886D2*
X1724943D1*
X1870702D2*
X2024971D1*
X2217272D2*
X2324963D1*
X2470722D2*
X2624954D1*
X2816861D2*
X2924946D1*
X3070706D2*
X3224938D1*
X3412969D2*
X3524966D1*
X3670689D2*
X3858509D1*
X4129863D2*
X4267661D1*
X1277465Y2019205D2*
X1352537D1*
X1475546D2*
X3818642D1*
X4133308D2*
X4267661D1*
X1277465Y1979336D2*
X1352537D1*
X1526142D2*
X1769511D1*
X1826170D2*
X2069503D1*
X2126162D2*
X2369495D1*
X2426154D2*
X2669487D1*
X2726146D2*
X2969514D1*
X3026173D2*
X3269506D1*
X3326165D2*
X3569498D1*
X3626157D2*
X3778774D1*
X4114612D2*
X4267661D1*
X1277465Y1939467D2*
X1352537D1*
X1873753D2*
X2021885D1*
X2473772D2*
X2621904D1*
X3073756D2*
X3221888D1*
X3673739D2*
X3738907D1*
X3931818D2*
X3991137D1*
X4111526D2*
X4267661D1*
X1277465Y1899598D2*
X1352537D1*
X1882939D2*
X2012734D1*
X2482923D2*
X2612718D1*
X3082906D2*
X3212737D1*
X3891951D2*
X3968387D1*
X4134277D2*
X4267661D1*
X1277465Y1859730D2*
X1352537D1*
X1871097D2*
X2024540D1*
X2471117D2*
X2624560D1*
X3071100D2*
X3224543D1*
X3852084D2*
X3969032D1*
X4133631D2*
X4267661D1*
X457404Y1819861D2*
X529461D1*
X1277465D2*
X1352537D1*
X1475546D2*
X3619305D1*
X3812216D2*
X3990958D1*
X4113966D2*
X4267661D1*
X457404Y1779992D2*
X506208D1*
X1277465D2*
X1352537D1*
X1523954D2*
X1771700D1*
X1823945D2*
X2071692D1*
X2123973D2*
X2371684D1*
X2423965D2*
X2671711D1*
X2723957D2*
X2971703D1*
X3023948D2*
X3271695D1*
X3323976D2*
X3571687D1*
X3772349D2*
X3943196D1*
X3970609D2*
X3990958D1*
X4113966D2*
X4143214D1*
X4170628D2*
X4267661D1*
X457404Y1740123D2*
X503876D1*
X1277465D2*
X1352537D1*
X1573402D2*
X1722252D1*
X2173421D2*
X2322235D1*
X2773405D2*
X2922255D1*
X3373425D2*
X3522238D1*
X3732482D2*
X3867050D1*
X4246738D2*
X4267661D1*
X457404Y1700255D2*
X503876D1*
X674144D2*
X1003061D1*
X1295981D2*
X1352573D1*
X1582947D2*
X1712707D1*
X2182931D2*
X2312726D1*
X2782950D2*
X2912710D1*
X3382934D2*
X3512729D1*
X3692614D2*
X3845842D1*
X457404Y1660386D2*
X503876D1*
X674144D2*
X1003061D1*
X1126070D2*
X1146705D1*
X1335849D2*
X1370300D1*
X1571500D2*
X1724154D1*
X2171520D2*
X2324137D1*
X2771503D2*
X2924157D1*
X3371523D2*
X3524140D1*
X3671514D2*
X3841608D1*
X457404Y1620517D2*
X503876D1*
X674144D2*
X1003061D1*
X1126070D2*
X1182805D1*
X1375716D2*
X3852301D1*
X457404Y1580648D2*
X1003061D1*
X1126070D2*
X1222672D1*
X1415583D2*
X3257521D1*
X3349526D2*
X3884489D1*
X4229334D2*
X4267661D1*
X457404Y1540780D2*
X1003061D1*
X1126070D2*
X1262539D1*
X1455451D2*
X1552950D1*
X3376798D2*
X3867624D1*
X4246200D2*
X4267661D1*
X457404Y1500911D2*
X990860D1*
X1138306D2*
X1302407D1*
X3375757D2*
X3846021D1*
X457404Y1461042D2*
X992977D1*
X1136189D2*
X1342274D1*
X3357420D2*
X3538243D1*
X3657412D2*
X3841572D1*
X457404Y1421173D2*
X557308D1*
X798375D2*
X1027390D1*
X1101740D2*
X1382141D1*
X1626259D2*
X1715003D1*
X1880642D2*
X2015031D1*
X2180634D2*
X2315023D1*
X2480662D2*
X2615014D1*
X2780654D2*
X2915006D1*
X3080645D2*
X3179832D1*
X3380637D2*
X3515026D1*
X3680629D2*
X3851978D1*
X457404Y1381304D2*
X517440D1*
X838243D2*
X1383720D1*
X1586392D2*
X1715362D1*
X1899159D2*
X1983596D1*
X2180275D2*
X2315381D1*
X2480303D2*
X2615373D1*
X2780295D2*
X2915365D1*
X3080287D2*
X3183312D1*
X3380278D2*
X3515385D1*
X3680270D2*
X3883664D1*
X4230159D2*
X4267661D1*
X457404Y1341436D2*
X486042D1*
X878110D2*
X1374749D1*
X1555855D2*
X1739799D1*
X1904757D2*
X1974410D1*
X2155874D2*
X2336338D1*
X2459347D2*
X2628435D1*
X2767197D2*
X2936321D1*
X3079461D2*
X3173767D1*
X3355877D2*
X3536341D1*
X3670474D2*
X3994905D1*
X4172063D2*
X4267661D1*
X917977Y1301567D2*
X1374749D1*
X1513511D2*
X1780241D1*
X1904757D2*
X1974410D1*
X2113172D2*
X2336840D1*
X2490315D2*
X2628435D1*
X2767197D2*
X2949132D1*
X3102176D2*
X3173767D1*
X3312529D2*
X3543159D1*
X3700078D2*
X4030502D1*
X4174611D2*
X4267661D1*
X457404Y1261698D2*
X480085D1*
X957845D2*
X1358996D1*
X1529264D2*
X1772920D1*
X1910606D2*
X1958657D1*
X2128925D2*
X2360021D1*
X2510266D2*
X2558317D1*
X2766982D2*
X2972241D1*
X3109963D2*
X3158014D1*
X3352109D2*
X3571902D1*
X3709623D2*
X4035849D1*
X4174611D2*
X4267661D1*
X997712Y1221829D2*
X1358996D1*
X1529264D2*
X1757131D1*
X1926395D2*
X1958657D1*
X2131365D2*
X2356792D1*
X2526055D2*
X2558317D1*
X2748788D2*
X2956452D1*
X3125752D2*
X3158014D1*
X3392120D2*
X3556113D1*
X3725413D2*
X4035849D1*
X4174611D2*
X4267661D1*
X1037579Y1181961D2*
X1358996D1*
X1529264D2*
X1762801D1*
X2162549D2*
X2362462D1*
X2520422D2*
X2558317D1*
X2728586D2*
X2962122D1*
X3431593D2*
X3561783D1*
X3743462D2*
X4035849D1*
X4174611D2*
X4267661D1*
X457404Y1142092D2*
X486472D1*
X1077447D2*
X1358996D1*
X1775645D2*
X1798254D1*
X2514931D2*
X2558317D1*
X2974967D2*
X2997612D1*
X3574663D2*
X3597272D1*
X3745005D2*
X4035849D1*
X4174611D2*
X4267661D1*
X1117314Y1102223D2*
X1380060D1*
X1775645D2*
X1822835D1*
X1945844D2*
X2036346D1*
X2540517D2*
X2581929D1*
X2974967D2*
X3022551D1*
X3145560D2*
X3290211D1*
X3574663D2*
X3621996D1*
X3745005D2*
X4035849D1*
X4174611D2*
X4267661D1*
X457404Y1062354D2*
X479798D1*
X1157181D2*
X1413325D1*
X1945844D2*
X2072948D1*
X2541486D2*
X2617921D1*
X3145560D2*
X3279661D1*
X3745005D2*
X3879681D1*
X3930814D2*
X3979654D1*
X4230805D2*
X4267661D1*
X744693Y1022486D2*
X783665D1*
X1197085D2*
X1429724D1*
X1945844D2*
X2029743D1*
X2541486D2*
X2629727D1*
X3145560D2*
X3229746D1*
X3745005D2*
X3829730D1*
X747850Y982617D2*
X823568D1*
X1236952D2*
X1420107D1*
X1945844D2*
X2020126D1*
X2541486D2*
X2620110D1*
X3145560D2*
X3220129D1*
X3745005D2*
X3820113D1*
X457404Y942748D2*
X486903D1*
X734789D2*
X863436D1*
X1271114D2*
X1431482D1*
X1942435D2*
X2031466D1*
X2535852D2*
X2631449D1*
X3135835D2*
X3231469D1*
X3744862D2*
X3831452D1*
X748676Y902879D2*
X903303D1*
X1275814D2*
X1739620D1*
X1910247D2*
X2329950D1*
X2500578D2*
X2926848D1*
X3097511D2*
X3553996D1*
X3724659D2*
X4267661D1*
X457404Y863010D2*
X479511D1*
X742181D2*
X943170D1*
X1275814D2*
X1699752D1*
X1870379D2*
X2303324D1*
X2460710D2*
X2886981D1*
X3057644D2*
X3514129D1*
X3684792D2*
X4267661D1*
X457404Y823142D2*
X514928D1*
X706763D2*
X982105D1*
X1275814D2*
X1582232D1*
X1830512D2*
X1901924D1*
X2425113D2*
X2450127D1*
X3644924D2*
X4267661D1*
X457404Y783273D2*
X982105D1*
X1811709D2*
X1901924D1*
X2977873D2*
X3009418D1*
X3605021D2*
X4267661D1*
X457404Y743404D2*
X982105D1*
X1811709D2*
X1901924D1*
X2976438D2*
X3009418D1*
X3565154D2*
X4267661D1*
X457404Y703535D2*
X982105D1*
X1807762D2*
X1901924D1*
X2972491D2*
X3009418D1*
X3554819D2*
X4267661D1*
X457404Y663667D2*
X982499D1*
X1763732D2*
X1901924D1*
X2390880D2*
X2450127D1*
X2928425D2*
X3009418D1*
X3510789D2*
X4267661D1*
X603201Y623798D2*
X1005070D1*
X1709475D2*
X1901924D1*
X2336659D2*
X2450127D1*
X2874168D2*
X3009418D1*
X3456532D2*
X4130117D1*
X637076Y583929D2*
X1044938D1*
X2238515D2*
X2450127D1*
X2785247D2*
X3009418D1*
X3336966D2*
X4092689D1*
X649851Y544060D2*
X1084805D1*
X2589355D2*
X2989179D1*
X3159842D2*
X4078300D1*
X648559Y504192D2*
X1124672D1*
X3119975D2*
X4078192D1*
X632698Y464323D2*
X1164540D1*
X3080107D2*
X4092366D1*
X1466048Y811680D2*
X1576858D1*
X1581849Y818390D1*
X1586857Y823764D1*
X1592392Y828593D1*
X1598395Y832828D1*
X1604801Y836422D1*
X1611543Y839338D1*
X1618550Y841545D1*
X1625746Y843019D1*
X1633056Y843744D1*
X1640402Y843714D1*
X1647705Y842927D1*
X1654889Y841393D1*
X1661426Y839294D1*
X1669791Y841855D1*
X1680839Y843605D1*
X1687022Y843801D1*
X1689909Y848183D1*
X1695782Y855056D1*
X1758519Y917794D1*
X1755302Y920284D1*
X1747624Y914973D1*
X1742066Y911860D1*
X1736281Y909194D1*
X1730305Y906989D1*
X1724174Y905260D1*
X1717926Y904017D1*
X1711600Y903268D1*
X1705235Y903018D1*
X1698870Y903268D1*
X1692544Y904017D1*
X1686296Y905260D1*
X1680165Y906989D1*
X1674189Y909194D1*
X1668404Y911860D1*
X1662846Y914973D1*
X1655302Y920284D1*
X1647756Y915054D1*
X1639677Y910692D1*
X1631157Y907271D1*
X1622305Y904834D1*
X1613234Y903413D1*
X1604061Y903027D1*
X1594903Y903679D1*
X1585877Y905362D1*
X1577099Y908053D1*
X1568681Y911720D1*
X1560732Y916314D1*
X1555237Y920262D1*
X1547756Y915054D1*
X1539677Y910692D1*
X1531157Y907271D1*
X1522305Y904834D1*
X1513234Y903413D1*
X1504061Y903027D1*
X1494903Y903679D1*
X1485877Y905362D1*
X1477099Y908053D1*
X1468681Y911720D1*
X1460732Y916314D1*
X1453352Y921777D1*
X1446637Y928039D1*
X1440673Y935019D1*
X1435536Y942628D1*
X1431291Y950770D1*
X1427993Y959339D1*
X1425685Y968225D1*
X1424395Y977316D1*
X1424141Y986493D1*
X1424926Y995641D1*
X1426739Y1004642D1*
X1429558Y1013380D1*
X1433346Y1021744D1*
X1438054Y1029626D1*
X1443827Y1037157D1*
X1439220Y1040751D1*
X1422459Y1057227D1*
X1394406Y1085566D1*
X1388375Y1093865D1*
X1383718Y1103007D1*
X1380548Y1112764D1*
X1378943Y1122897D1*
X1378267Y1131825D1*
X1362993D1*
Y1294080D1*
X1378747D1*
X1378943Y1353363D1*
X1380548Y1363496D1*
X1383718Y1373253D1*
X1388375Y1382394D1*
X1394406Y1390694D1*
X1405376Y1401949D1*
X1161862Y1645449D1*
X1155199Y1653251D1*
X1149838Y1661998D1*
X1145912Y1671476D1*
X1143517Y1681452D1*
X1142713Y1691700D1*
X1142712Y1830731D1*
X1122070Y1830709D1*
X1122074Y1527295D1*
X1125617Y1522030D1*
X1130718Y1512020D1*
X1134190Y1501334D1*
X1135948Y1490237D1*
Y1479002D1*
X1134190Y1467905D1*
X1130718Y1457219D1*
X1125617Y1447209D1*
X1119013Y1438119D1*
X1111069Y1430174D1*
X1101979Y1423570D1*
X1091968Y1418470D1*
X1081283Y1414998D1*
X1070186Y1413240D1*
X1058951D1*
X1047854Y1414998D1*
X1037168Y1418470D1*
X1027157Y1423570D1*
X1018068Y1430174D1*
X1010123Y1438119D1*
X1003519Y1447209D1*
X998418Y1457219D1*
X994947Y1467905D1*
X993189Y1479002D1*
Y1490237D1*
X994947Y1501334D1*
X998418Y1512020D1*
X1003519Y1522030D1*
X1007064Y1527239D1*
X1007063Y1703190D1*
X670165Y1703216D1*
X670134Y1600854D1*
X507879D1*
Y1760722D1*
X508129Y1767087D1*
X508878Y1773413D1*
X510121Y1779661D1*
X511850Y1785792D1*
X514054Y1791768D1*
X516721Y1797553D1*
X519834Y1803111D1*
X523373Y1808407D1*
X527317Y1813410D1*
X531641Y1818088D1*
X536318Y1822412D1*
X541321Y1826355D1*
X548072Y1830709D1*
X453404D1*
X453386Y623075D1*
X460649Y628228D1*
X468504Y632988D1*
X476699Y637133D1*
X485187Y640641D1*
X493918Y643490D1*
X502841Y645663D1*
X511904Y647149D1*
X521055Y647938D1*
X530238Y648025D1*
X539402Y647411D1*
X548492Y646098D1*
X557455Y644095D1*
X566238Y641413D1*
X574792Y638068D1*
X583064Y634079D1*
X591008Y629470D1*
X598576Y624267D1*
X605725Y618502D1*
X612413Y612207D1*
X618600Y605419D1*
X624250Y598179D1*
X629331Y590528D1*
X633812Y582512D1*
X637668Y574176D1*
X640876Y565571D1*
X643418Y556745D1*
X645277Y547751D1*
X646444Y538642D1*
X646921Y527944D1*
X646570Y518766D1*
X645519Y509642D1*
X643774Y500626D1*
X641345Y491768D1*
X638247Y483123D1*
X634497Y474739D1*
X630118Y466666D1*
X625134Y458952D1*
X618123Y450004D1*
X1182827Y450018D1*
X999871Y633245D1*
X994567Y640545D1*
X990470Y648585D1*
X987682Y657167D1*
X986270Y666080D1*
X986093Y688965D1*
Y824069D1*
X740645Y1069523D1*
X738545Y1063866D1*
X735780Y1057869D1*
X732553Y1052108D1*
X728454Y1046070D1*
X732553Y1039992D1*
X735780Y1034230D1*
X738545Y1028234D1*
X740830Y1022038D1*
X742623Y1015683D1*
X743911Y1009206D1*
X744687Y1002648D1*
X744946Y996050D1*
X744687Y989451D1*
X743911Y982894D1*
X742623Y976417D1*
X740830Y970062D1*
X738545Y963866D1*
X735780Y957869D1*
X732553Y952108D1*
X728454Y946070D1*
X732553Y939993D1*
X735780Y934232D1*
X738545Y928235D1*
X740830Y922040D1*
X742623Y915684D1*
X743911Y909207D1*
X744687Y902650D1*
X744946Y896051D1*
X744687Y889453D1*
X743911Y882895D1*
X742623Y876418D1*
X740830Y870063D1*
X738545Y863868D1*
X735780Y857871D1*
X732553Y852109D1*
X728885Y846618D1*
X724797Y841433D1*
X720314Y836584D1*
X715465Y832101D1*
X710279Y828013D1*
X704789Y824344D1*
X699027Y821118D1*
X693030Y818353D1*
X686835Y816067D1*
X680479Y814275D1*
X674003Y812987D1*
X667445Y812210D1*
X660846Y811951D1*
X654248Y812210D1*
X647690Y812987D1*
X641214Y814275D1*
X634858Y816067D1*
X628663Y818353D1*
X622666Y821118D1*
X616904Y824344D1*
X610867Y828444D1*
X602793Y823159D1*
X594596Y819020D1*
X585998Y815800D1*
X577099Y813537D1*
X568007Y812257D1*
X558830Y811975D1*
X549676Y812696D1*
X540656Y814411D1*
X531877Y817098D1*
X523442Y820727D1*
X515454Y825254D1*
X508006Y830624D1*
X501189Y836774D1*
X495082Y843631D1*
X489760Y851113D1*
X485284Y859130D1*
X481710Y867587D1*
X479078Y876384D1*
X477422Y885415D1*
X476759Y894573D1*
X477099Y903748D1*
X478438Y912832D1*
X480758Y921716D1*
X484033Y930294D1*
X488224Y938463D1*
X493226Y946052D1*
X489139Y952108D1*
X485913Y957869D1*
X483148Y963866D1*
X480863Y970062D1*
X479070Y976417D1*
X477782Y982894D1*
X477006Y989451D1*
X476746Y996050D1*
X477006Y1002648D1*
X477782Y1009206D1*
X479070Y1015683D1*
X480863Y1022038D1*
X483148Y1028234D1*
X485913Y1034230D1*
X489139Y1039992D1*
X493239Y1046030D1*
X489139Y1052108D1*
X485913Y1057869D1*
X483148Y1063866D1*
X480863Y1070062D1*
X479070Y1076417D1*
X477782Y1082894D1*
X477006Y1089451D1*
X476746Y1096050D1*
X477006Y1102648D1*
X477782Y1109206D1*
X479070Y1115683D1*
X480863Y1122038D1*
X483148Y1128234D1*
X485913Y1134230D1*
X489139Y1139992D1*
X493239Y1146030D1*
X489139Y1152109D1*
X485913Y1157871D1*
X483148Y1163868D1*
X480863Y1170063D1*
X479070Y1176418D1*
X477782Y1182895D1*
X477006Y1189453D1*
X476932Y1200768D1*
X476690Y1206051D1*
X477398Y1215047D1*
X479505Y1223821D1*
X482958Y1232158D1*
X487673Y1239852D1*
X492808Y1246617D1*
X489139Y1252108D1*
X485913Y1257869D1*
X483148Y1263866D1*
X480863Y1270062D1*
X479070Y1276417D1*
X477782Y1282894D1*
X477006Y1289451D1*
X476746Y1296050D1*
X477006Y1302648D1*
X477782Y1309206D1*
X479070Y1315683D1*
X480863Y1322038D1*
X483148Y1328234D1*
X485913Y1334230D1*
X489139Y1339992D1*
X492808Y1345483D1*
X496896Y1350668D1*
X501379Y1355518D1*
X507585Y1361070D1*
X511815Y1369431D1*
X517119Y1376731D1*
X533175Y1393039D1*
X568246Y1427859D1*
X575547Y1433163D1*
X583587Y1437260D1*
X592169Y1440048D1*
X601081Y1441460D1*
X623966Y1441637D1*
X754608Y1441460D1*
X763520Y1440048D1*
X772102Y1437260D1*
X780142Y1433163D1*
X787443Y1427859D1*
X803750Y1411802D1*
X1258050Y957251D1*
X1263354Y949951D1*
X1267451Y941911D1*
X1270240Y933329D1*
X1271651Y924416D1*
X1271828Y901531D1*
Y762839D1*
X1291955Y742743D1*
X1291975Y815831D1*
X1466041D1*
Y811675D1*
X2206953Y1177499D2*
X2368453D1*
X2364272Y1187883D1*
X2362543Y1194014D1*
X2361300Y1200262D1*
X2360552Y1206588D1*
X2360302Y1212953D1*
X2360552Y1219318D1*
X2361300Y1225644D1*
X2362543Y1231892D1*
X2364272Y1238023D1*
X2366477Y1243999D1*
X2371588Y1254148D1*
X2354102Y1271864D1*
X2348798Y1279165D1*
X2344701Y1287205D1*
X2341913Y1295787D1*
X2340501Y1304699D1*
X2340324Y1327584D1*
Y1344701D1*
X2336140Y1349254D1*
X2332196Y1354257D1*
X2328657Y1359553D1*
X2325544Y1365111D1*
X2322877Y1370896D1*
X2320673Y1376872D1*
X2318943Y1383003D1*
X2317701Y1389251D1*
X2316952Y1395577D1*
X2316702Y1401942D1*
X2316952Y1408307D1*
X2317701Y1414633D1*
X2318943Y1420881D1*
X2322145Y1431004D1*
X2173597Y1431027D1*
X2176715Y1420881D1*
X2177958Y1414633D1*
X2178707Y1408307D1*
X2178957Y1401942D1*
X2178707Y1395577D1*
X2177958Y1389251D1*
X2176715Y1383003D1*
X2174986Y1376872D1*
X2172781Y1370896D1*
X2170115Y1365111D1*
X2167002Y1359553D1*
X2163463Y1354257D1*
X2159519Y1349254D1*
X2155195Y1344576D1*
X2150518Y1340252D1*
X2145515Y1336309D1*
X2140218Y1332770D1*
X2134661Y1329657D1*
X2128876Y1326990D1*
X2122899Y1324785D1*
X2116768Y1323056D1*
X2110100Y1321764D1*
X2109171Y1320345D1*
Y1294114D1*
X2124919Y1294080D1*
Y1224285D1*
X2146817Y1202102D1*
X2152848Y1193802D1*
X2157505Y1184661D1*
X2159288Y1179826D1*
X2168370Y1177499D1*
X2206953D1*
X2371307Y1172152D2*
Y1057839D1*
X2380165Y1061303D1*
X2386296Y1063032D1*
X2392544Y1064274D1*
X2398870Y1065023D1*
X2405235Y1065273D1*
X2411600Y1065023D1*
X2422490Y1063367D1*
X2419832Y1070535D1*
X2397702Y1092916D1*
X2392398Y1100216D1*
X2388301Y1108256D1*
X2385512Y1116838D1*
X2384101Y1125751D1*
X2383924Y1148635D1*
Y1155704D1*
X2379739Y1160265D1*
X2375796Y1165267D1*
X2371296Y1172279D1*
X2234521Y597546D2*
Y571984D1*
X2079968D1*
X2079997Y564700D1*
X2034890D1*
X2033613Y563436D1*
X2040361Y562810D1*
X2441438D1*
X2454470Y575832D1*
X2454110Y575813D1*
Y852242D1*
X2628176D1*
Y848416D1*
X2781242Y848412D1*
Y840984D1*
X2788641Y842720D1*
X2795930Y843634D1*
X2803274Y843792D1*
X2810595Y843194D1*
X2817816Y841846D1*
X2826133Y839294D1*
X2834498Y841855D1*
X2845546Y843605D1*
X2856732D1*
X2867780Y841855D1*
X2869359Y841410D1*
X2937791Y909825D1*
X2930305Y906989D1*
X2924174Y905260D1*
X2917926Y904017D1*
X2911600Y903268D1*
X2905235Y903018D1*
X2898870Y903268D1*
X2892544Y904017D1*
X2886296Y905260D1*
X2880165Y906989D1*
X2874189Y909194D1*
X2868404Y911860D1*
X2862846Y914973D1*
X2855302Y920284D1*
X2847756Y915054D1*
X2839677Y910692D1*
X2831157Y907271D1*
X2822305Y904834D1*
X2813234Y903413D1*
X2804061Y903027D1*
X2794903Y903679D1*
X2785877Y905362D1*
X2777099Y908053D1*
X2768681Y911720D1*
X2760732Y916314D1*
X2755237Y920262D1*
X2747756Y915054D1*
X2739677Y910692D1*
X2731157Y907271D1*
X2722305Y904834D1*
X2713234Y903413D1*
X2704061Y903027D1*
X2694903Y903679D1*
X2685877Y905362D1*
X2677099Y908053D1*
X2668681Y911720D1*
X2660732Y916314D1*
X2653352Y921777D1*
X2646637Y928039D1*
X2640673Y935019D1*
X2635536Y942628D1*
X2631291Y950770D1*
X2627993Y959339D1*
X2625685Y968225D1*
X2624395Y977316D1*
X2624141Y986493D1*
X2624926Y995641D1*
X2626739Y1004642D1*
X2629558Y1013380D1*
X2633346Y1021744D1*
X2638054Y1029626D1*
X2643623Y1036925D1*
X2645392Y1038915D1*
X2597232Y1087043D1*
X2590569Y1094844D1*
X2585208Y1103591D1*
X2581282Y1113070D1*
X2578887Y1123045D1*
X2577608Y1131825D1*
X2562335D1*
Y1294080D1*
X2632129D1*
X2632450Y1294879D1*
Y1353909D1*
X2628657Y1359553D1*
X2625544Y1365111D1*
X2622877Y1370896D1*
X2620673Y1376872D1*
X2618943Y1383003D1*
X2617701Y1389251D1*
X2616952Y1395577D1*
X2616702Y1401942D1*
X2616952Y1408307D1*
X2617701Y1414633D1*
X2618943Y1420881D1*
X2622145Y1431004D1*
X2473589Y1431027D1*
X2476715Y1420881D1*
X2477958Y1414633D1*
X2478707Y1408307D1*
X2478957Y1401942D1*
X2478707Y1395577D1*
X2477958Y1389251D1*
X2476715Y1383003D1*
X2474986Y1376872D1*
X2472781Y1370896D1*
X2470115Y1365111D1*
X2467002Y1359553D1*
X2463463Y1354257D1*
X2459519Y1349254D1*
X2455347Y1344741D1*
X2455335Y1333009D1*
X2485157Y1302958D1*
X2490461Y1295658D1*
X2494557Y1287618D1*
X2497346Y1279036D1*
X2498795Y1270319D1*
X2503119Y1265641D1*
X2507063Y1260638D1*
X2510602Y1255342D1*
X2513714Y1249784D1*
X2516381Y1243999D1*
X2518586Y1238023D1*
X2520315Y1231892D1*
X2521558Y1225644D1*
X2522307Y1219318D1*
X2522557Y1212953D1*
X2522307Y1206588D1*
X2521558Y1200262D1*
X2520315Y1194014D1*
X2518586Y1187883D1*
X2516381Y1181907D1*
X2513714Y1176122D1*
X2510602Y1170564D1*
X2507063Y1165267D1*
X2503119Y1160265D1*
X2498947Y1155751D1*
X2501579Y1151438D1*
X2523709Y1129057D1*
X2529013Y1121757D1*
X2533110Y1113716D1*
X2535898Y1105134D1*
X2537310Y1096222D1*
X2537487Y1073337D1*
X2537310Y963081D1*
X2535898Y954169D1*
X2533110Y945587D1*
X2529013Y937547D1*
X2523709Y930246D1*
X2507653Y913939D1*
X2421102Y827389D1*
X2421108Y817519D1*
X2425033Y812712D1*
X2429263Y805808D1*
X2432362Y798327D1*
X2434252Y790454D1*
X2434887Y782382D1*
X2434728Y719278D1*
X2433462Y711281D1*
X2430960Y703580D1*
X2427284Y696366D1*
X2422524Y689815D1*
X2409932Y676997D1*
X2403775Y671739D1*
X2396871Y667508D1*
X2389390Y664410D1*
X2381517Y662519D1*
X2373429Y661885D1*
X2364840Y659970D1*
X2360125Y652276D1*
X2354265Y645415D1*
X2319952Y611352D1*
X2312652Y606048D1*
X2304611Y601952D1*
X2296029Y599163D1*
X2287117Y597752D1*
X2264232Y597574D1*
X2234556D1*
X2062292Y848412D2*
X2234521D1*
Y837625D1*
X2242189Y840532D1*
X2249300Y842375D1*
X2256562Y843476D1*
X2263900Y843824D1*
X2271234Y843415D1*
X2278488Y842253D1*
X2285583Y840351D1*
X2288597Y839294D1*
X2296961Y841855D1*
X2306077Y843376D1*
X2306274Y855726D1*
X2307686Y864638D1*
X2310474Y873220D1*
X2314571Y881261D1*
X2319875Y888561D1*
X2335931Y904868D1*
X2343873Y912810D1*
X2336281Y909194D1*
X2330305Y906989D1*
X2324174Y905260D1*
X2317926Y904017D1*
X2311600Y903268D1*
X2305235Y903018D1*
X2298870Y903268D1*
X2292544Y904017D1*
X2286296Y905260D1*
X2280165Y906989D1*
X2274189Y909194D1*
X2268404Y911860D1*
X2262846Y914973D1*
X2255302Y920284D1*
X2247756Y915054D1*
X2239677Y910692D1*
X2231157Y907271D1*
X2222305Y904834D1*
X2213234Y903413D1*
X2204061Y903027D1*
X2194903Y903679D1*
X2185877Y905362D1*
X2177099Y908053D1*
X2168681Y911720D1*
X2160732Y916314D1*
X2155237Y920262D1*
X2147756Y915054D1*
X2139677Y910692D1*
X2131157Y907271D1*
X2122305Y904834D1*
X2113234Y903413D1*
X2104061Y903027D1*
X2094903Y903679D1*
X2085877Y905362D1*
X2077099Y908053D1*
X2068681Y911720D1*
X2060732Y916314D1*
X2053352Y921777D1*
X2046637Y928039D1*
X2040673Y935019D1*
X2035536Y942628D1*
X2031291Y950770D1*
X2027993Y959339D1*
X2025685Y968225D1*
X2024395Y977316D1*
X2024141Y986493D1*
X2024926Y995641D1*
X2026739Y1004642D1*
X2029558Y1013380D1*
X2033346Y1021744D1*
X2038054Y1029626D1*
X2043623Y1036925D1*
X2049982Y1043549D1*
X2057048Y1049412D1*
X2064731Y1054439D1*
X2072933Y1058565D1*
X2078555Y1060756D1*
X2047387Y1092211D1*
X2041357Y1100511D1*
X2036699Y1109652D1*
X2033529Y1119409D1*
X2031923Y1129562D1*
X2023869Y1131825D1*
X1962664D1*
Y1294080D1*
X1978417D1*
X1978613Y1353034D1*
X1980218Y1363167D1*
X1983388Y1372924D1*
X1988046Y1382065D1*
X1994076Y1390365D1*
X2010552Y1407126D1*
X2017632Y1414205D1*
X2018943Y1420881D1*
X2022145Y1431004D1*
X1873589Y1431027D1*
X1876715Y1420881D1*
X1877958Y1414633D1*
X1878707Y1408307D1*
X1878948Y1402166D1*
X1886990Y1393856D1*
X1892294Y1386556D1*
X1896391Y1378516D1*
X1899179Y1369934D1*
X1900591Y1361021D1*
X1900768Y1338136D1*
X1900591Y1298248D1*
X1899264Y1282883D1*
Y1270144D1*
X1903448Y1265641D1*
X1907392Y1260638D1*
X1910931Y1255342D1*
X1914044Y1249784D1*
X1916711Y1243999D1*
X1918915Y1238023D1*
X1920645Y1231892D1*
X1921887Y1225644D1*
X1922636Y1219318D1*
X1922877Y1213177D1*
X1928064Y1207722D1*
X1933367Y1200422D1*
X1937464Y1192382D1*
X1940253Y1183800D1*
X1941664Y1174887D1*
X1941842Y1152003D1*
X1941664Y957774D1*
X1940253Y948862D1*
X1937464Y940280D1*
X1933368Y932240D1*
X1928064Y924939D1*
X1912007Y908632D1*
X1804295Y800920D1*
X1806291Y794428D1*
X1807558Y786430D1*
X1807717Y754823D1*
X1807558Y719278D1*
X1806291Y711281D1*
X1803789Y703580D1*
X1800113Y696366D1*
X1795354Y689815D1*
X1782761Y676997D1*
X1776604Y671739D1*
X1769700Y667508D1*
X1762220Y664410D1*
X1754346Y662519D1*
X1746274Y661884D1*
X1738631D1*
X1735463Y656031D1*
X1730159Y648731D1*
X1714103Y632423D1*
X1691647Y609967D1*
X1905953Y609950D1*
X1905930Y841129D1*
X2060455D1*
Y848412D1*
X2062292D1*
X2806623Y1177499D2*
X2968124D1*
X2963943Y1187883D1*
X2962214Y1194014D1*
X2960971Y1200262D1*
X2960222Y1206588D1*
X2959972Y1212953D1*
X2960222Y1219318D1*
X2960971Y1225644D1*
X2962214Y1231892D1*
X2963943Y1238023D1*
X2966148Y1243999D1*
X2968815Y1249784D1*
X2971927Y1255342D1*
X2975466Y1260638D1*
X2979410Y1265641D1*
X2983582Y1270154D1*
X2980950Y1273313D1*
X2954102Y1300412D1*
X2948798Y1307712D1*
X2944701Y1315752D1*
X2941913Y1324334D1*
X2940501Y1333247D1*
X2940325Y1337776D1*
X2936140Y1349254D1*
X2932196Y1354257D1*
X2928657Y1359553D1*
X2925544Y1365111D1*
X2922877Y1370896D1*
X2920673Y1376872D1*
X2918943Y1383003D1*
X2917701Y1389251D1*
X2916952Y1395577D1*
X2916702Y1401942D1*
X2916952Y1408307D1*
X2917701Y1414633D1*
X2918943Y1420881D1*
X2922145Y1431004D1*
X2773560Y1431027D1*
X2776715Y1420881D1*
X2777958Y1414633D1*
X2778707Y1408307D1*
X2778957Y1401942D1*
X2778707Y1395577D1*
X2777958Y1389251D1*
X2776715Y1383003D1*
X2774986Y1376872D1*
X2772781Y1370896D1*
X2770115Y1365111D1*
X2767002Y1359553D1*
X2763201Y1353924D1*
X2763008Y1262191D1*
X2761403Y1252058D1*
X2758232Y1242300D1*
X2753575Y1233159D1*
X2747544Y1224860D1*
X2731068Y1208098D1*
X2724598Y1201628D1*
X2724590Y1177492D1*
X2806623Y1177499D1*
X2970978Y1172152D2*
Y1057682D1*
X2980165Y1061303D1*
X2986296Y1063032D1*
X2992544Y1064274D1*
X2998870Y1065023D1*
X3005235Y1065273D1*
X3011600Y1065023D1*
X3017926Y1064274D1*
X3026545Y1062363D1*
X3026543Y1133113D1*
X3016030Y1135796D1*
X3010054Y1138001D1*
X3004269Y1140668D1*
X2998711Y1143780D1*
X2993414Y1147319D1*
X2988412Y1151263D1*
X2983734Y1155587D1*
X2979410Y1160265D1*
X2975466Y1165267D1*
X2970967Y1172279D1*
X2781242Y597546D2*
Y571984D1*
X2613267D1*
X2556965Y515676D1*
X2964795Y515670D1*
X3021263Y572132D1*
X3013401Y572109D1*
Y822788D1*
X2972441Y781825D1*
X2972265Y719278D1*
X2970999Y711281D1*
X2968496Y703580D1*
X2964821Y696366D1*
X2960061Y689815D1*
X2947468Y676997D1*
X2941311Y671739D1*
X2934408Y667508D1*
X2926927Y664410D1*
X2919054Y662519D1*
X2910966Y661885D1*
X2902377Y659970D1*
X2897662Y652276D1*
X2891802Y645415D1*
X2857489Y611352D1*
X2850188Y606048D1*
X2842148Y601952D1*
X2833566Y599163D1*
X2824654Y597752D1*
X2801769Y597574D1*
X2781207D1*
X1607282Y1177499D2*
X1768782D1*
X1764602Y1187883D1*
X1762873Y1194014D1*
X1761630Y1200262D1*
X1760881Y1206588D1*
X1760631Y1212953D1*
X1760881Y1219318D1*
X1761630Y1225644D1*
X1762873Y1231892D1*
X1764602Y1238023D1*
X1766806Y1243999D1*
X1769473Y1249784D1*
X1772586Y1255342D1*
X1776125Y1260638D1*
X1780069Y1265641D1*
X1784241Y1270154D1*
X1784430Y1305768D1*
X1785757Y1321743D1*
X1778891Y1323056D1*
X1772760Y1324785D1*
X1766783Y1326990D1*
X1760998Y1329657D1*
X1755440Y1332770D1*
X1750144Y1336309D1*
X1745141Y1340252D1*
X1740464Y1344576D1*
X1736140Y1349254D1*
X1732196Y1354257D1*
X1728657Y1359553D1*
X1725544Y1365111D1*
X1722877Y1370896D1*
X1720673Y1376872D1*
X1718943Y1383003D1*
X1717701Y1389251D1*
X1716952Y1395577D1*
X1716702Y1401942D1*
X1716952Y1408307D1*
X1717701Y1414633D1*
X1718943Y1420881D1*
X1722145Y1431004D1*
X1632089Y1431027D1*
X1573340Y1372253D1*
X1570115Y1365111D1*
X1567002Y1359553D1*
X1563463Y1354257D1*
X1559519Y1349254D1*
X1555195Y1344576D1*
X1550518Y1340252D1*
X1545515Y1336309D1*
X1540218Y1332770D1*
X1534661Y1329657D1*
X1528876Y1326990D1*
X1522899Y1324785D1*
X1516768Y1323056D1*
X1510100Y1321764D1*
X1509500Y1320675D1*
Y1294084D1*
X1525249Y1294080D1*
Y1177492D1*
X1607282Y1177499D1*
X1771637Y1172152D2*
Y1057983D1*
X1780165Y1061303D1*
X1786296Y1063032D1*
X1792544Y1064274D1*
X1798870Y1065023D1*
X1805235Y1065273D1*
X1811600Y1065023D1*
X1817926Y1064274D1*
X1826832Y1062282D1*
X1826830Y1133202D1*
X1816689Y1135796D1*
X1810712Y1138001D1*
X1804927Y1140668D1*
X1799369Y1143780D1*
X1794073Y1147319D1*
X1789070Y1151263D1*
X1784393Y1155587D1*
X1780069Y1160265D1*
X1776125Y1165267D1*
X1771625Y1172279D1*
X3431004Y1177499D2*
X3567794D1*
X3563613Y1187883D1*
X3561884Y1194014D1*
X3560642Y1200262D1*
X3559893Y1206588D1*
X3559643Y1212953D1*
X3559893Y1219318D1*
X3560642Y1225644D1*
X3561884Y1231892D1*
X3563613Y1238023D1*
X3565818Y1243999D1*
X3568485Y1249784D1*
X3571598Y1255342D1*
X3575137Y1260638D1*
X3579334Y1265915D1*
X3554102Y1291401D1*
X3548798Y1298701D1*
X3544701Y1306742D1*
X3541913Y1315324D1*
X3540501Y1324236D1*
X3540324Y1344716D1*
X3536140Y1349254D1*
X3532196Y1354257D1*
X3528657Y1359553D1*
X3525544Y1365111D1*
X3522877Y1370896D1*
X3520673Y1376872D1*
X3518943Y1383003D1*
X3517701Y1389251D1*
X3516952Y1395577D1*
X3516702Y1401942D1*
X3516952Y1408307D1*
X3517701Y1414633D1*
X3518943Y1420881D1*
X3520673Y1427012D1*
X3522877Y1432988D1*
X3525544Y1438773D1*
X3528657Y1444331D1*
X3532196Y1449628D1*
X3536140Y1454630D1*
X3540464Y1459308D1*
X3545141Y1463632D1*
X3550144Y1467576D1*
X3555440Y1471115D1*
X3560998Y1474227D1*
X3566783Y1476894D1*
X3572760Y1479099D1*
X3578891Y1480828D1*
X3585138Y1482071D1*
X3591464Y1482820D1*
X3597829Y1483070D1*
X3604195Y1482820D1*
X3610521Y1482071D1*
X3616768Y1480828D1*
X3622899Y1479099D1*
X3628876Y1476894D1*
X3634661Y1474227D1*
X3640218Y1471115D1*
X3645515Y1467576D1*
X3650518Y1463632D1*
X3655195Y1459308D1*
X3659519Y1454630D1*
X3663463Y1449628D1*
X3667002Y1444331D1*
X3670115Y1438773D1*
X3672781Y1432988D1*
X3674986Y1427012D1*
X3676715Y1420881D1*
X3677958Y1414633D1*
X3678707Y1408307D1*
X3678957Y1401942D1*
X3678707Y1395577D1*
X3677958Y1389251D1*
X3676715Y1383003D1*
X3674986Y1376872D1*
X3672781Y1370896D1*
X3670115Y1365111D1*
X3667002Y1359553D1*
X3663463Y1354257D1*
X3659097Y1348797D1*
X3684498Y1323154D1*
X3689802Y1315854D1*
X3693899Y1307814D1*
X3696687Y1299232D1*
X3698099Y1290319D1*
X3698276Y1270197D1*
X3702460Y1265641D1*
X3706404Y1260638D1*
X3709943Y1255342D1*
X3713056Y1249784D1*
X3715722Y1243999D1*
X3717927Y1238023D1*
X3719656Y1231892D1*
X3720899Y1225644D1*
X3721648Y1219318D1*
X3721848Y1211685D1*
X3727232Y1206031D1*
X3732536Y1198730D1*
X3736632Y1190690D1*
X3739421Y1182108D1*
X3740832Y1173196D1*
X3741010Y1150311D1*
X3740832Y942552D1*
X3739421Y933640D1*
X3736632Y925058D1*
X3732536Y917018D1*
X3727232Y909717D1*
X3711175Y893410D1*
X3554795Y737031D1*
X3554619Y719278D1*
X3553353Y711281D1*
X3550851Y703580D1*
X3547175Y696366D1*
X3542415Y689815D1*
X3529823Y676998D1*
X3523666Y671739D1*
X3516762Y667508D1*
X3509281Y664410D1*
X3501408Y662519D1*
X3493320Y661885D1*
X3484731Y659969D1*
X3480016Y652275D1*
X3474156Y645414D1*
X3436784Y608292D1*
X3429484Y602988D1*
X3421443Y598891D1*
X3412861Y596103D1*
X3403949Y594691D1*
X3381064Y594514D1*
X3333015D1*
X3332983Y568923D1*
X3180727D1*
X3061804Y450023D1*
X4105953Y450018D1*
X4097783Y461896D1*
X4093352Y469941D1*
X4089549Y478300D1*
X4086396Y486926D1*
X4083911Y495768D1*
X4082109Y504773D1*
X4081000Y513890D1*
X4080590Y523065D1*
X4080883Y532245D1*
X4081876Y541375D1*
X4083564Y550403D1*
X4085937Y559275D1*
X4088980Y567940D1*
X4092676Y576347D1*
X4097004Y584448D1*
X4101939Y592194D1*
X4107450Y599541D1*
X4113507Y606445D1*
X4120073Y612866D1*
X4127111Y618766D1*
X4134579Y624112D1*
X4142433Y628872D1*
X4150628Y633018D1*
X4159116Y636525D1*
X4167847Y639374D1*
X4176770Y641548D1*
X4185834Y643033D1*
X4194984Y643822D1*
X4204167Y643910D1*
X4213331Y643295D1*
X4222421Y641983D1*
X4231384Y639980D1*
X4240168Y637298D1*
X4248721Y633952D1*
X4256993Y629964D1*
X4264937Y625354D1*
X4271648Y620741D1*
X4271654Y937528D1*
X4266925Y931458D1*
X4262601Y926780D1*
X4257923Y922456D1*
X4252920Y918512D1*
X4247624Y914973D1*
X4242066Y911860D1*
X4236281Y909194D1*
X4230305Y906989D1*
X4224174Y905260D1*
X4217926Y904017D1*
X4211600Y903268D1*
X4205235Y903018D1*
X4198870Y903268D1*
X4192544Y904017D1*
X4186296Y905260D1*
X4180165Y906989D1*
X4174189Y909194D1*
X4168404Y911860D1*
X4162846Y914973D1*
X4157217Y918774D1*
X4152920Y918512D1*
X4147624Y914973D1*
X4142066Y911860D1*
X4136281Y909194D1*
X4130305Y906989D1*
X4124174Y905260D1*
X4117926Y904017D1*
X4111600Y903268D1*
X4105235Y903018D1*
X4098870Y903268D1*
X4092544Y904017D1*
X4086296Y905260D1*
X4080165Y906989D1*
X4074189Y909194D1*
X4068404Y911860D1*
X4062846Y914973D1*
X4055302Y920284D1*
X4047756Y915054D1*
X4039677Y910692D1*
X4031157Y907271D1*
X4022305Y904834D1*
X4013234Y903413D1*
X4004061Y903027D1*
X3994903Y903679D1*
X3985877Y905362D1*
X3977099Y908053D1*
X3968681Y911720D1*
X3960732Y916314D1*
X3955237Y920262D1*
X3947756Y915054D1*
X3939677Y910692D1*
X3931157Y907271D1*
X3922305Y904834D1*
X3913234Y903413D1*
X3904061Y903027D1*
X3894903Y903679D1*
X3885877Y905362D1*
X3877099Y908053D1*
X3868681Y911720D1*
X3860732Y916314D1*
X3853352Y921777D1*
X3846637Y928039D1*
X3840673Y935019D1*
X3835536Y942628D1*
X3831291Y950770D1*
X3827993Y959339D1*
X3825685Y968225D1*
X3824395Y977316D1*
X3824141Y986493D1*
X3824926Y995641D1*
X3826739Y1004642D1*
X3829558Y1013380D1*
X3833346Y1021744D1*
X3838054Y1029626D1*
X3843623Y1036925D1*
X3849982Y1043549D1*
X3857048Y1049412D1*
X3864731Y1054439D1*
X3872933Y1058565D1*
X3881548Y1061738D1*
X3890467Y1063918D1*
X3899575Y1065076D1*
X3908756Y1065197D1*
X3917892Y1064280D1*
X3926865Y1062337D1*
X3935561Y1059392D1*
X3943869Y1055483D1*
X3951682Y1050661D1*
X3955228Y1048033D1*
X3963149Y1053503D1*
X3971256Y1057814D1*
X3979797Y1061182D1*
X3988665Y1063563D1*
X3997744Y1064927D1*
X4006920Y1065256D1*
X4016074Y1064546D1*
X4025089Y1062806D1*
X4033850Y1060059D1*
X4039855Y1057636D1*
Y1296230D1*
X4007190Y1329176D1*
X4001160Y1337476D1*
X3996503Y1346617D1*
X3993332Y1356374D1*
X3991970Y1362867D1*
X3981350Y1359925D1*
X3970493Y1358045D1*
X3959503Y1357245D1*
X3948487Y1357533D1*
X3937554Y1358906D1*
X3926809Y1361350D1*
X3916358Y1364842D1*
X3906302Y1369347D1*
X3896740Y1374822D1*
X3887764Y1381214D1*
X3879462Y1388459D1*
X3871915Y1396488D1*
X3865196Y1405223D1*
X3859372Y1414577D1*
X3854499Y1424460D1*
X3850624Y1434775D1*
X3847785Y1445422D1*
X3846010Y1456297D1*
X3845316Y1467295D1*
X3845710Y1478307D1*
X3847188Y1489226D1*
X3849736Y1499947D1*
X3853328Y1510364D1*
X3857931Y1520376D1*
X3863498Y1529885D1*
X3869976Y1538799D1*
X3877301Y1547031D1*
X3885403Y1554500D1*
X3894201Y1561134D1*
X3903611Y1566867D1*
X3907364Y1568812D1*
X3898295Y1573845D1*
X3889215Y1580088D1*
X3880795Y1587195D1*
X3873117Y1595099D1*
X3866256Y1603722D1*
X3860278Y1612978D1*
X3855243Y1622780D1*
X3851198Y1633030D1*
X3848185Y1643629D1*
X3846231Y1654473D1*
X3845356Y1665458D1*
X3845569Y1676475D1*
X3846867Y1687417D1*
X3849238Y1698178D1*
X3852658Y1708653D1*
X3857095Y1718740D1*
X3862505Y1728339D1*
X3868835Y1737359D1*
X3876024Y1745710D1*
X3884002Y1753311D1*
X3892690Y1760089D1*
X3902004Y1765977D1*
X3911854Y1770917D1*
X3922142Y1774863D1*
X3932770Y1777774D1*
X3943633Y1779623D1*
X3954625Y1780392D1*
X3965640Y1780073D1*
X3976569Y1778669D1*
X3987307Y1776194D1*
X3994947Y1773727D1*
X3994942Y1822599D1*
X3989642Y1828267D1*
X3985698Y1833270D1*
X3982159Y1838566D1*
X3979047Y1844124D1*
X3976380Y1849909D1*
X3974175Y1855886D1*
X3972446Y1862017D1*
X3971203Y1868264D1*
X3970455Y1874590D1*
X3970204Y1880955D1*
X3970455Y1887321D1*
X3971203Y1893647D1*
X3972446Y1899894D1*
X3974175Y1906025D1*
X3976380Y1912002D1*
X3979047Y1917787D1*
X3982159Y1923344D1*
X3985698Y1928641D1*
X3989642Y1933644D1*
X3993966Y1938321D1*
X3998644Y1942645D1*
X4003646Y1946589D1*
X4008943Y1950128D1*
X4014501Y1953241D1*
X4021116Y1956295D1*
X4012698Y1959961D1*
X4004749Y1964555D1*
X3997369Y1970018D1*
X3990654Y1976280D1*
X3984690Y1983260D1*
X3979427Y1991087D1*
X3678013Y1689665D1*
X3676715Y1683003D1*
X3674986Y1676872D1*
X3672781Y1670896D1*
X3670115Y1665111D1*
X3667002Y1659553D1*
X3663463Y1654257D1*
X3659519Y1649254D1*
X3655195Y1644576D1*
X3650518Y1640252D1*
X3645515Y1636309D1*
X3640218Y1632770D1*
X3634661Y1629657D1*
X3628876Y1626990D1*
X3622899Y1624785D1*
X3616768Y1623056D1*
X3610521Y1621814D1*
X3604195Y1621065D1*
X3597829Y1620815D1*
X3591464Y1621065D1*
X3585138Y1621814D1*
X3578891Y1623056D1*
X3572760Y1624785D1*
X3566783Y1626990D1*
X3560998Y1629657D1*
X3555440Y1632770D1*
X3550144Y1636309D1*
X3545141Y1640252D1*
X3540464Y1644576D1*
X3536140Y1649254D1*
X3532196Y1654257D1*
X3528657Y1659553D1*
X3525544Y1665111D1*
X3522877Y1670896D1*
X3520673Y1676872D1*
X3518943Y1683003D1*
X3517701Y1689251D1*
X3516952Y1695577D1*
X3516702Y1701942D1*
X3516952Y1708307D1*
X3517701Y1714633D1*
X3518943Y1720881D1*
X3520673Y1727012D1*
X3522877Y1732988D1*
X3525544Y1738773D1*
X3528657Y1744331D1*
X3532196Y1749628D1*
X3536140Y1754630D1*
X3540464Y1759308D1*
X3545141Y1763632D1*
X3550144Y1767576D1*
X3555440Y1771115D1*
X3560998Y1774227D1*
X3566783Y1776894D1*
X3572760Y1779099D1*
X3578891Y1780828D1*
X3585558Y1782121D1*
X3631603Y1828177D1*
X3622899Y1824785D1*
X3616768Y1823056D1*
X3610521Y1821814D1*
X3604195Y1821065D1*
X3597829Y1820815D1*
X3591464Y1821065D1*
X3585138Y1821814D1*
X3578891Y1823056D1*
X3572760Y1824785D1*
X3566783Y1826990D1*
X3560998Y1829657D1*
X3555440Y1832770D1*
X3549812Y1836571D1*
X3345887Y1836563D1*
X3340218Y1832770D1*
X3334661Y1829657D1*
X3328876Y1826990D1*
X3322899Y1824785D1*
X3316768Y1823056D1*
X3310521Y1821814D1*
X3304195Y1821065D1*
X3297829Y1820815D1*
X3291464Y1821065D1*
X3285138Y1821814D1*
X3278891Y1823056D1*
X3272760Y1824785D1*
X3266783Y1826990D1*
X3260998Y1829657D1*
X3255440Y1832770D1*
X3250144Y1836309D1*
X3245141Y1840252D1*
X3240464Y1844576D1*
X3236140Y1849254D1*
X3232196Y1854257D1*
X3228657Y1859553D1*
X3225544Y1865111D1*
X3222877Y1870896D1*
X3220673Y1876872D1*
X3218943Y1883003D1*
X3217701Y1889251D1*
X3216952Y1895577D1*
X3216702Y1901942D1*
X3216952Y1908307D1*
X3217701Y1914633D1*
X3218943Y1920881D1*
X3220673Y1927012D1*
X3222877Y1932988D1*
X3225544Y1938773D1*
X3228657Y1944331D1*
X3232196Y1949628D1*
X3236140Y1954630D1*
X3240464Y1959308D1*
X3245141Y1963632D1*
X3250144Y1967576D1*
X3255440Y1971115D1*
X3260998Y1974227D1*
X3266783Y1976894D1*
X3272760Y1979099D1*
X3278891Y1980828D1*
X3285138Y1982071D1*
X3291464Y1982820D1*
X3297829Y1983070D1*
X3304195Y1982820D1*
X3310521Y1982071D1*
X3316768Y1980828D1*
X3322899Y1979099D1*
X3328876Y1976894D1*
X3334661Y1974227D1*
X3340218Y1971115D1*
X3345847Y1967314D1*
X3549772Y1967322D1*
X3555440Y1971115D1*
X3560998Y1974227D1*
X3566783Y1976894D1*
X3572760Y1979099D1*
X3578891Y1980828D1*
X3585138Y1982071D1*
X3591464Y1982820D1*
X3597829Y1983070D1*
X3604195Y1982820D1*
X3610521Y1982071D1*
X3616768Y1980828D1*
X3622899Y1979099D1*
X3628876Y1976894D1*
X3634661Y1974227D1*
X3640218Y1971115D1*
X3645515Y1967576D1*
X3650518Y1963632D1*
X3655195Y1959308D1*
X3659519Y1954630D1*
X3663463Y1949628D1*
X3667002Y1944331D1*
X3670115Y1938773D1*
X3672781Y1932988D1*
X3674986Y1927012D1*
X3676715Y1920881D1*
X3677958Y1914633D1*
X3678707Y1908307D1*
X3678957Y1901942D1*
X3678707Y1895577D1*
X3677958Y1889251D1*
X3676715Y1883003D1*
X3674986Y1876872D1*
X3671458Y1868026D1*
X4006478Y2203051D1*
X3998557Y2203293D1*
X3989464Y2204566D1*
X3980573Y2206857D1*
X3971998Y2210139D1*
X3963849Y2214368D1*
X3956229Y2219492D1*
X3955237Y2220262D1*
X3947756Y2215054D1*
X3939677Y2210692D1*
X3931157Y2207271D1*
X3922305Y2204834D1*
X3913234Y2203413D1*
X3904061Y2203027D1*
X3894903Y2203679D1*
X3885877Y2205362D1*
X3877099Y2208053D1*
X3868681Y2211720D1*
X3860732Y2216314D1*
X3853352Y2221777D1*
X3846637Y2228039D1*
X3840673Y2235019D1*
X3835536Y2242628D1*
X3831291Y2250770D1*
X3827993Y2259339D1*
X3825685Y2268225D1*
X3824395Y2277316D1*
X3824141Y2286493D1*
X3824926Y2295641D1*
X3826739Y2304642D1*
X3829558Y2313380D1*
X3833346Y2321744D1*
X3838054Y2329626D1*
X3843623Y2336925D1*
X3849982Y2343549D1*
X3857048Y2349412D1*
X3864731Y2354439D1*
X3872933Y2358565D1*
X3881548Y2361738D1*
X3890467Y2363918D1*
X3899575Y2365076D1*
X3908756Y2365197D1*
X3917892Y2364280D1*
X3926865Y2362337D1*
X3935561Y2359392D1*
X3943869Y2355483D1*
X3951682Y2350661D1*
X3955228Y2348033D1*
X3963149Y2353503D1*
X3971256Y2357814D1*
X3979797Y2361182D1*
X3988665Y2363563D1*
X3997744Y2364927D1*
X4006920Y2365256D1*
X4016074Y2364546D1*
X4025089Y2362806D1*
X4033850Y2360059D1*
X4042244Y2356340D1*
X4050164Y2351696D1*
X4055228Y2348033D1*
X4062846Y2353318D1*
X4068404Y2356431D1*
X4074189Y2359098D1*
X4080165Y2361303D1*
X4086296Y2363032D1*
X4092544Y2364274D1*
X4098870Y2365023D1*
X4105235Y2365273D1*
X4111600Y2365023D1*
X4117926Y2364274D1*
X4124174Y2363032D1*
X4130305Y2361303D1*
X4136281Y2359098D1*
X4142066Y2356431D1*
X4147624Y2353318D1*
X4155168Y2348008D1*
X4162846Y2353318D1*
X4168404Y2356431D1*
X4174189Y2359098D1*
X4180165Y2361303D1*
X4186296Y2363032D1*
X4192544Y2364274D1*
X4198870Y2365023D1*
X4205235Y2365273D1*
X4211600Y2365023D1*
X4217926Y2364274D1*
X4224174Y2363032D1*
X4230305Y2361303D1*
X4236281Y2359098D1*
X4242066Y2356431D1*
X4247624Y2353318D1*
X4252920Y2349779D1*
X4257923Y2345836D1*
X4262601Y2341512D1*
X4266925Y2336834D1*
X4271656Y2330652D1*
X4271654Y2417895D1*
X2162107Y2417892D1*
X2146161Y2402211D1*
X2138860Y2396907D1*
X2130820Y2392810D1*
X2122238Y2390022D1*
X2113325Y2388610D1*
X2090441Y2388433D1*
X1593911D1*
X1554576Y2349123D1*
X1555631Y2348350D1*
X1563149Y2353503D1*
X1571256Y2357814D1*
X1579797Y2361182D1*
X1588665Y2363563D1*
X1597744Y2364927D1*
X1606920Y2365256D1*
X1616074Y2364546D1*
X1625089Y2362806D1*
X1633850Y2360059D1*
X1642244Y2356340D1*
X1650164Y2351696D1*
X1655228Y2348033D1*
X1662846Y2353318D1*
X1668404Y2356431D1*
X1674189Y2359098D1*
X1680165Y2361303D1*
X1686296Y2363032D1*
X1692544Y2364274D1*
X1698870Y2365023D1*
X1705235Y2365273D1*
X1711600Y2365023D1*
X1717926Y2364274D1*
X1724174Y2363032D1*
X1730305Y2361303D1*
X1736281Y2359098D1*
X1742066Y2356431D1*
X1747624Y2353318D1*
X1753253Y2349517D1*
X1757549Y2349779D1*
X1762846Y2353318D1*
X1768404Y2356431D1*
X1774189Y2359098D1*
X1780165Y2361303D1*
X1786296Y2363032D1*
X1792544Y2364274D1*
X1798870Y2365023D1*
X1805235Y2365273D1*
X1811600Y2365023D1*
X1817926Y2364274D1*
X1824174Y2363032D1*
X1830305Y2361303D1*
X1836281Y2359098D1*
X1842066Y2356431D1*
X1847624Y2353318D1*
X1852920Y2349779D1*
X1857923Y2345836D1*
X1862601Y2341512D1*
X1866925Y2336834D1*
X1870868Y2331831D1*
X1874408Y2326535D1*
X1877520Y2320977D1*
X1880187Y2315192D1*
X1882392Y2309215D1*
X1884121Y2303085D1*
X1885364Y2296837D1*
X1886112Y2290511D1*
X1886362Y2284146D1*
X1886112Y2277780D1*
X1885364Y2271455D1*
X1884121Y2265207D1*
X1882392Y2259076D1*
X1880187Y2253099D1*
X1877520Y2247315D1*
X1874408Y2241757D1*
X1870868Y2236460D1*
X1866925Y2231458D1*
X1862601Y2226780D1*
X1857923Y2222456D1*
X1852920Y2218512D1*
X1847624Y2214973D1*
X1842066Y2211860D1*
X1836281Y2209194D1*
X1830305Y2206989D1*
X1824174Y2205260D1*
X1817926Y2204017D1*
X1811600Y2203268D1*
X1805235Y2203018D1*
X1798870Y2203268D1*
X1792544Y2204017D1*
X1786296Y2205260D1*
X1780165Y2206989D1*
X1774189Y2209194D1*
X1765820Y2213307D1*
X1763489Y2208213D1*
X1758128Y2199466D1*
X1751465Y2191665D1*
X1611743Y2052227D1*
X1603443Y2046197D1*
X1594302Y2041539D1*
X1584545Y2038369D1*
X1574412Y2036764D1*
X1550909Y2036563D1*
X1545850D1*
X1540218Y2032770D1*
X1534661Y2029657D1*
X1528876Y2026990D1*
X1522899Y2024785D1*
X1516768Y2023056D1*
X1510521Y2021814D1*
X1504195Y2021065D1*
X1497829Y2020815D1*
X1491464Y2021065D1*
X1485138Y2021814D1*
X1478891Y2023056D1*
X1471569Y2025225D1*
X1471548Y1978691D1*
X1478891Y1980828D1*
X1485138Y1982071D1*
X1491464Y1982820D1*
X1497829Y1983070D1*
X1504195Y1982820D1*
X1510521Y1982071D1*
X1516768Y1980828D1*
X1522899Y1979099D1*
X1528876Y1976894D1*
X1534661Y1974227D1*
X1540218Y1971115D1*
X1545847Y1967314D1*
X1749772Y1967322D1*
X1755440Y1971115D1*
X1760998Y1974227D1*
X1766783Y1976894D1*
X1772760Y1979099D1*
X1778891Y1980828D1*
X1785138Y1982071D1*
X1791464Y1982820D1*
X1797829Y1983070D1*
X1804195Y1982820D1*
X1810521Y1982071D1*
X1816768Y1980828D1*
X1822899Y1979099D1*
X1828876Y1976894D1*
X1834661Y1974227D1*
X1840218Y1971115D1*
X1845515Y1967576D1*
X1850518Y1963632D1*
X1855195Y1959308D1*
X1859519Y1954630D1*
X1863463Y1949628D1*
X1867002Y1944331D1*
X1870115Y1938773D1*
X1872781Y1932988D1*
X1874986Y1927012D1*
X1876715Y1920881D1*
X1877958Y1914633D1*
X1878707Y1908307D1*
X1878957Y1901942D1*
X1878707Y1895577D1*
X1877958Y1889251D1*
X1876715Y1883003D1*
X1874986Y1876872D1*
X1872781Y1870896D1*
X1870115Y1865111D1*
X1867002Y1859553D1*
X1863463Y1854257D1*
X1859519Y1849254D1*
X1855195Y1844576D1*
X1850518Y1840252D1*
X1845515Y1836309D1*
X1840218Y1832770D1*
X1834661Y1829657D1*
X1828876Y1826990D1*
X1822899Y1824785D1*
X1816768Y1823056D1*
X1810521Y1821814D1*
X1804195Y1821065D1*
X1797829Y1820815D1*
X1791464Y1821065D1*
X1785138Y1821814D1*
X1778891Y1823056D1*
X1772760Y1824785D1*
X1766783Y1826990D1*
X1760998Y1829657D1*
X1755440Y1832770D1*
X1749812Y1836571D1*
X1545887Y1836563D1*
X1540218Y1832770D1*
X1534661Y1829657D1*
X1528876Y1826990D1*
X1522899Y1824785D1*
X1516768Y1823056D1*
X1510521Y1821814D1*
X1504195Y1821065D1*
X1497829Y1820815D1*
X1491464Y1821065D1*
X1485138Y1821814D1*
X1478891Y1823056D1*
X1471569Y1825225D1*
X1471548Y1778673D1*
X1478891Y1780828D1*
X1485138Y1782071D1*
X1491464Y1782820D1*
X1497829Y1783070D1*
X1504195Y1782820D1*
X1510521Y1782071D1*
X1516768Y1780828D1*
X1522899Y1779099D1*
X1528876Y1776894D1*
X1534661Y1774227D1*
X1540218Y1771115D1*
X1545515Y1767576D1*
X1550518Y1763632D1*
X1555195Y1759308D1*
X1559519Y1754630D1*
X1563463Y1749628D1*
X1567002Y1744331D1*
X1570115Y1738773D1*
X1572781Y1732988D1*
X1574986Y1727012D1*
X1576715Y1720881D1*
X1577958Y1714633D1*
X1578707Y1708307D1*
X1578957Y1701942D1*
X1578707Y1695577D1*
X1577958Y1689251D1*
X1576715Y1683003D1*
X1574986Y1676872D1*
X1572781Y1670896D1*
X1570115Y1665111D1*
X1567002Y1659553D1*
X1563463Y1654257D1*
X1559519Y1649254D1*
X1555195Y1644576D1*
X1550518Y1640252D1*
X1545515Y1636309D1*
X1540218Y1632770D1*
X1534661Y1629657D1*
X1528876Y1626990D1*
X1522899Y1624785D1*
X1516768Y1623056D1*
X1510521Y1621814D1*
X1504195Y1621065D1*
X1497829Y1620815D1*
X1491464Y1621065D1*
X1485138Y1621814D1*
X1478891Y1623056D1*
X1472760Y1624785D1*
X1466783Y1626990D1*
X1460998Y1629657D1*
X1455440Y1632770D1*
X1450144Y1636309D1*
X1445141Y1640252D1*
X1440628Y1644424D1*
X1409530Y1644614D1*
X1400618Y1646026D1*
X1392036Y1648814D1*
X1383995Y1652911D1*
X1376695Y1658215D1*
X1370314Y1664595D1*
X1365010Y1671896D1*
X1360914Y1679936D1*
X1358125Y1688518D1*
X1356714Y1697430D1*
X1356536Y1720315D1*
X1356714Y2294427D1*
X1358125Y2303339D1*
X1360914Y2311921D1*
X1365010Y2319961D1*
X1370314Y2327262D1*
X1386371Y2343569D1*
X1460691Y2417889D1*
X1457940Y2417031D1*
X1273446Y2232537D1*
X1273471Y1718761D1*
X1504179Y1488053D1*
X1558802Y1542637D1*
X1566604Y1549300D1*
X1575351Y1554660D1*
X1584829Y1558587D1*
X1594805Y1560981D1*
X1605033Y1561786D1*
X3206178Y1561585D1*
X3216311Y1559980D1*
X3226068Y1556810D1*
X3235226Y1552141D1*
X3239730Y1555172D1*
X3245601Y1564752D1*
X3252897Y1573296D1*
X3261441Y1580592D1*
X3271021Y1586463D1*
X3281401Y1590762D1*
X3292326Y1593385D1*
X3303526Y1594267D1*
X3314727Y1593385D1*
X3325652Y1590762D1*
X3336032Y1586463D1*
X3345612Y1580592D1*
X3354155Y1573296D1*
X3361452Y1564752D1*
X3367322Y1555172D1*
X3371622Y1544792D1*
X3374245Y1533867D1*
X3375126Y1522667D1*
X3374245Y1511466D1*
X3371622Y1500541D1*
X3367322Y1490161D1*
X3361452Y1480581D1*
X3354155Y1472038D1*
X3347423Y1466169D1*
X3355195Y1459308D1*
X3359519Y1454630D1*
X3363463Y1449628D1*
X3367002Y1444331D1*
X3370115Y1438773D1*
X3372781Y1432988D1*
X3374986Y1427012D1*
X3376715Y1420881D1*
X3377958Y1414633D1*
X3378707Y1408307D1*
X3378957Y1401942D1*
X3378707Y1395577D1*
X3377958Y1389251D1*
X3376715Y1383003D1*
X3374986Y1376872D1*
X3372781Y1370896D1*
X3370115Y1365111D1*
X3367002Y1359553D1*
X3363463Y1354257D1*
X3359519Y1349254D1*
X3355195Y1344576D1*
X3350518Y1340252D1*
X3345515Y1336309D1*
X3340218Y1332770D1*
X3334661Y1329657D1*
X3328876Y1326990D1*
X3322899Y1324785D1*
X3316768Y1323056D1*
X3310100Y1321764D1*
X3308512Y1319686D1*
Y1294101D1*
X3324260Y1294080D1*
Y1275313D1*
X3334224Y1271206D1*
X3342971Y1265846D1*
X3350772Y1259183D1*
X3427031Y1182639D1*
X3430221Y1178591D1*
X3570649Y1172152D2*
Y1057538D1*
X3580165Y1061303D1*
X3586296Y1063032D1*
X3592544Y1064274D1*
X3598870Y1065023D1*
X3605235Y1065273D1*
X3611600Y1065023D1*
X3617926Y1064274D1*
X3626018Y1062512D1*
X3625998Y1133196D1*
X3615701Y1135796D1*
X3609724Y1138001D1*
X3603939Y1140668D1*
X3598381Y1143780D1*
X3593085Y1147319D1*
X3588082Y1151263D1*
X3583404Y1155587D1*
X3579080Y1160265D1*
X3575137Y1165267D1*
X3570637Y1172279D1*
X3294220Y1064543D2*
Y1130786D1*
X3287515Y1131825D1*
X3162005D1*
Y1294080D1*
X3177758D1*
X3177955Y1352375D1*
X3179559Y1362508D1*
X3182730Y1372265D1*
X3187387Y1381406D1*
X3193418Y1389706D1*
X3204235Y1400809D1*
X3173945Y1431050D1*
X3073552Y1431027D1*
X3076715Y1420881D1*
X3077958Y1414633D1*
X3078707Y1408307D1*
X3078957Y1401942D1*
X3078707Y1395577D1*
X3077958Y1389251D1*
X3076715Y1383003D1*
X3074986Y1376872D1*
X3072781Y1370896D1*
X3070115Y1365111D1*
X3067002Y1359553D1*
X3063109Y1353807D1*
X3084827Y1331835D1*
X3090131Y1324535D1*
X3094228Y1316495D1*
X3097016Y1307913D1*
X3098428Y1299000D1*
X3098605Y1270195D1*
X3102790Y1265641D1*
X3106733Y1260638D1*
X3110272Y1255342D1*
X3113385Y1249784D1*
X3116052Y1243999D1*
X3118257Y1238023D1*
X3119986Y1231892D1*
X3121846Y1220430D1*
X3127776Y1214267D1*
X3133080Y1206967D1*
X3137177Y1198926D1*
X3139965Y1190344D1*
X3141377Y1181432D1*
X3141554Y1158547D1*
X3141377Y970244D1*
X3139965Y961331D1*
X3137177Y952749D1*
X3133080Y944709D1*
X3127776Y937409D1*
X3111720Y921102D1*
X3039175Y848558D1*
X3187468Y848537D1*
Y845358D1*
X3332983Y845352D1*
Y822838D1*
X3339454Y828593D1*
X3345456Y832828D1*
X3351863Y836422D1*
X3358605Y839338D1*
X3365611Y841545D1*
X3372808Y843019D1*
X3380118Y843744D1*
X3387464Y843714D1*
X3394767Y842927D1*
X3401951Y841393D1*
X3408488Y839294D1*
X3416852Y841855D1*
X3427900Y843605D1*
X3439086D1*
X3450135Y841855D1*
X3455206Y840424D1*
X3461605Y842399D1*
X3469602Y843665D1*
X3493336Y843824D1*
X3497400Y843663D1*
X3500597Y845483D1*
X3567458Y912343D1*
X3557549Y918512D1*
X3555302Y920284D1*
X3547624Y914973D1*
X3542066Y911860D1*
X3536281Y909194D1*
X3530305Y906989D1*
X3524174Y905260D1*
X3517926Y904017D1*
X3511600Y903268D1*
X3505235Y903018D1*
X3498870Y903268D1*
X3492544Y904017D1*
X3486296Y905260D1*
X3480165Y906989D1*
X3474189Y909194D1*
X3468404Y911860D1*
X3462846Y914973D1*
X3455302Y920284D1*
X3447756Y915054D1*
X3439677Y910692D1*
X3431157Y907271D1*
X3422305Y904834D1*
X3413234Y903413D1*
X3404061Y903027D1*
X3394903Y903679D1*
X3385877Y905362D1*
X3377099Y908053D1*
X3368681Y911720D1*
X3360732Y916314D1*
X3355237Y920262D1*
X3347756Y915054D1*
X3339677Y910692D1*
X3331157Y907271D1*
X3322305Y904834D1*
X3313234Y903413D1*
X3304061Y903027D1*
X3294903Y903679D1*
X3285877Y905362D1*
X3277099Y908053D1*
X3268681Y911720D1*
X3260732Y916314D1*
X3253352Y921777D1*
X3246637Y928039D1*
X3240673Y935019D1*
X3235536Y942628D1*
X3231291Y950770D1*
X3227993Y959339D1*
X3225685Y968225D1*
X3224395Y977316D1*
X3224141Y986493D1*
X3224926Y995641D1*
X3226739Y1004642D1*
X3229558Y1013380D1*
X3233346Y1021744D1*
X3238054Y1029626D1*
X3243623Y1036925D1*
X3249982Y1043549D1*
X3257048Y1049412D1*
X3264731Y1054439D1*
X3272933Y1058565D1*
X3281548Y1061738D1*
X3290467Y1063918D1*
X3294215Y1064520D1*
X4271656Y2237639D2*
X4266925Y2231458D1*
X4262601Y2226780D1*
X4257923Y2222456D1*
X4252920Y2218512D1*
X4247624Y2214973D1*
X4242066Y2211860D1*
X4236281Y2209194D1*
X4230305Y2206989D1*
X4224174Y2205260D1*
X4217926Y2204017D1*
X4211600Y2203268D1*
X4205235Y2203018D1*
X4198870Y2203268D1*
X4192544Y2204017D1*
X4186296Y2205260D1*
X4180165Y2206989D1*
X4170596Y2210850D1*
X4170413Y2204218D1*
X4168808Y2194085D1*
X4165638Y2184328D1*
X4160980Y2175187D1*
X4154950Y2166887D1*
X4138474Y2150126D1*
X4090542Y2102195D1*
X4097194Y2097834D1*
X4104282Y2091998D1*
X4110665Y2085398D1*
X4116261Y2078119D1*
X4121000Y2070255D1*
X4124819Y2061906D1*
X4127670Y2053178D1*
X4129517Y2044184D1*
X4130336Y2035040D1*
X4130192Y2026880D1*
X4129052Y2017769D1*
X4126889Y2008846D1*
X4123732Y2000225D1*
X4119621Y1992015D1*
X4114608Y1984322D1*
X4108759Y1977246D1*
X4102147Y1970875D1*
X4094858Y1965292D1*
X4086985Y1960569D1*
X4079394Y1957073D1*
X4088163Y1953241D1*
X4093721Y1950128D1*
X4099018Y1946589D1*
X4104020Y1942645D1*
X4108698Y1938321D1*
X4113022Y1933644D1*
X4116966Y1928641D1*
X4120505Y1923344D1*
X4123617Y1917787D1*
X4126284Y1912002D1*
X4128489Y1906025D1*
X4130218Y1899894D1*
X4131461Y1893647D1*
X4132209Y1887321D1*
X4132460Y1880955D1*
X4132209Y1874590D1*
X4131461Y1868264D1*
X4130218Y1862017D1*
X4128489Y1855886D1*
X4126284Y1849909D1*
X4123617Y1844124D1*
X4120505Y1838566D1*
X4116966Y1833270D1*
X4109965Y1824960D1*
X4109953Y1770037D1*
X4118670Y1773661D1*
X4129196Y1776920D1*
X4139992Y1779126D1*
X4150953Y1780256D1*
X4161972Y1780300D1*
X4172942Y1779257D1*
X4183755Y1777137D1*
X4194307Y1773961D1*
X4204494Y1769760D1*
X4214217Y1764575D1*
X4223381Y1758456D1*
X4231897Y1751464D1*
X4239682Y1743665D1*
X4246660Y1735137D1*
X4252763Y1725963D1*
X4257932Y1716231D1*
X4262115Y1706037D1*
X4265273Y1695480D1*
X4267375Y1684663D1*
X4268399Y1673691D1*
X4268369Y1663305D1*
X4267283Y1652340D1*
X4265120Y1641535D1*
X4261902Y1630996D1*
X4257661Y1620826D1*
X4252437Y1611124D1*
X4246282Y1601984D1*
X4239256Y1593496D1*
X4231427Y1585742D1*
X4222871Y1578798D1*
X4213672Y1572731D1*
X4206448Y1568819D1*
X4215785Y1563619D1*
X4224848Y1557350D1*
X4233248Y1550218D1*
X4240903Y1542293D1*
X4247740Y1533651D1*
X4253691Y1524377D1*
X4258699Y1514561D1*
X4262714Y1504300D1*
X4265697Y1493692D1*
X4267620Y1482842D1*
X4268464Y1471855D1*
X4268264Y1461471D1*
X4266997Y1450525D1*
X4264656Y1439757D1*
X4261265Y1429273D1*
X4256857Y1419174D1*
X4251474Y1409559D1*
X4245170Y1400522D1*
X4238005Y1392150D1*
X4230049Y1384526D1*
X4221380Y1377724D1*
X4212083Y1371810D1*
X4202247Y1366841D1*
X4191970Y1362867D1*
X4181350Y1359925D1*
X4170493Y1358045D1*
X4161088Y1357295D1*
X4165638Y1348327D1*
X4168808Y1338570D1*
X4170413Y1328437D1*
X4170614Y1304934D1*
Y1057513D1*
X4180165Y1061303D1*
X4186296Y1063032D1*
X4192544Y1064274D1*
X4198870Y1065023D1*
X4205235Y1065273D1*
X4211600Y1065023D1*
X4217926Y1064274D1*
X4224174Y1063032D1*
X4230305Y1061303D1*
X4236281Y1059098D1*
X4242066Y1056431D1*
X4247624Y1053318D1*
X4252920Y1049779D1*
X4257923Y1045836D1*
X4262601Y1041512D1*
X4266925Y1036834D1*
X4271656Y1030652D1*
X4271654Y2237541D1*
X1555413Y2220123D2*
X1548340Y2215229D1*
X1540261Y2210867D1*
X1531741Y2207446D1*
X1522889Y2205009D1*
X1513818Y2203588D1*
X1504645Y2203201D1*
X1495487Y2203853D1*
X1486461Y2205536D1*
X1477683Y2208228D1*
X1471546Y2210793D1*
X1471548Y2178710D1*
X1478891Y2180828D1*
X1485138Y2182071D1*
X1491464Y2182820D1*
X1497829Y2183070D1*
X1504195Y2182820D1*
X1510521Y2182071D1*
X1516768Y2180828D1*
X1522899Y2179099D1*
X1528876Y2176894D1*
X1534661Y2174227D1*
X1543674Y2168806D1*
X1581437Y2206558D1*
X1571998Y2210139D1*
X1563849Y2214368D1*
X1556229Y2219492D1*
X1555419Y2220121D1*
X2155240Y2220262D2*
X2147756Y2215054D1*
X2139677Y2210692D1*
X2131157Y2207271D1*
X2122305Y2204834D1*
X2113234Y2203413D1*
X2104061Y2203027D1*
X2094903Y2203679D1*
X2085877Y2205362D1*
X2077099Y2208053D1*
X2068681Y2211720D1*
X2060732Y2216314D1*
X2053352Y2221777D1*
X2046637Y2228039D1*
X2040673Y2235019D1*
X2035536Y2242628D1*
X2031291Y2250770D1*
X2027993Y2259339D1*
X2025685Y2268225D1*
X2024395Y2277316D1*
X2024141Y2286493D1*
X2024926Y2295641D1*
X2026739Y2304642D1*
X2029558Y2313380D1*
X2033346Y2321744D1*
X2038054Y2329626D1*
X2043623Y2336925D1*
X2049982Y2343549D1*
X2057048Y2349412D1*
X2064731Y2354439D1*
X2072933Y2358565D1*
X2081548Y2361738D1*
X2090467Y2363918D1*
X2099575Y2365076D1*
X2108756Y2365197D1*
X2117892Y2364280D1*
X2126865Y2362337D1*
X2135561Y2359392D1*
X2143869Y2355483D1*
X2151682Y2350661D1*
X2155228Y2348033D1*
X2163149Y2353503D1*
X2171256Y2357814D1*
X2179797Y2361182D1*
X2188665Y2363563D1*
X2197744Y2364927D1*
X2206920Y2365256D1*
X2216074Y2364546D1*
X2225089Y2362806D1*
X2233850Y2360059D1*
X2242244Y2356340D1*
X2250164Y2351696D1*
X2255228Y2348033D1*
X2262846Y2353318D1*
X2268404Y2356431D1*
X2274189Y2359098D1*
X2280165Y2361303D1*
X2286296Y2363032D1*
X2292544Y2364274D1*
X2298870Y2365023D1*
X2305235Y2365273D1*
X2311600Y2365023D1*
X2317926Y2364274D1*
X2324174Y2363032D1*
X2330305Y2361303D1*
X2336281Y2359098D1*
X2342066Y2356431D1*
X2347624Y2353318D1*
X2353253Y2349517D1*
X2357549Y2349779D1*
X2362846Y2353318D1*
X2368404Y2356431D1*
X2374189Y2359098D1*
X2380165Y2361303D1*
X2386296Y2363032D1*
X2392544Y2364274D1*
X2398870Y2365023D1*
X2405235Y2365273D1*
X2411600Y2365023D1*
X2417926Y2364274D1*
X2424174Y2363032D1*
X2430305Y2361303D1*
X2436281Y2359098D1*
X2442066Y2356431D1*
X2447624Y2353318D1*
X2452920Y2349779D1*
X2457923Y2345836D1*
X2462601Y2341512D1*
X2466925Y2336834D1*
X2470868Y2331831D1*
X2474408Y2326535D1*
X2477520Y2320977D1*
X2480187Y2315192D1*
X2482392Y2309215D1*
X2484121Y2303085D1*
X2485364Y2296837D1*
X2486112Y2290511D1*
X2486362Y2284146D1*
X2486112Y2277780D1*
X2485364Y2271455D1*
X2484121Y2265207D1*
X2482392Y2259076D1*
X2480187Y2253099D1*
X2477520Y2247315D1*
X2474408Y2241757D1*
X2470868Y2236460D1*
X2466925Y2231458D1*
X2462601Y2226780D1*
X2457923Y2222456D1*
X2452920Y2218512D1*
X2447624Y2214973D1*
X2442066Y2211860D1*
X2436281Y2209194D1*
X2430305Y2206989D1*
X2424174Y2205260D1*
X2417926Y2204017D1*
X2411600Y2203268D1*
X2405235Y2203018D1*
X2398870Y2203268D1*
X2392544Y2204017D1*
X2386296Y2205260D1*
X2380165Y2206989D1*
X2374189Y2209194D1*
X2363779Y2214450D1*
X2360980Y2209338D1*
X2354950Y2201038D1*
X2338474Y2184277D1*
X2206139Y2052227D1*
X2197839Y2046197D1*
X2188698Y2041539D1*
X2178941Y2038369D1*
X2168808Y2036764D1*
X2145844Y2036563D1*
X2140218Y2032770D1*
X2134661Y2029657D1*
X2128876Y2026990D1*
X2122899Y2024785D1*
X2116768Y2023056D1*
X2110521Y2021814D1*
X2104195Y2021065D1*
X2097829Y2020815D1*
X2091464Y2021065D1*
X2085138Y2021814D1*
X2078891Y2023056D1*
X2072760Y2024785D1*
X2066783Y2026990D1*
X2060998Y2029657D1*
X2055440Y2032770D1*
X2050144Y2036309D1*
X2045141Y2040252D1*
X2040464Y2044576D1*
X2036140Y2049254D1*
X2032196Y2054257D1*
X2028657Y2059553D1*
X2025544Y2065111D1*
X2022877Y2070896D1*
X2020673Y2076872D1*
X2018943Y2083003D1*
X2017701Y2089251D1*
X2016952Y2095577D1*
X2016702Y2101942D1*
X2016952Y2108307D1*
X2017701Y2114633D1*
X2018943Y2120881D1*
X2020673Y2127012D1*
X2022877Y2132988D1*
X2025544Y2138773D1*
X2028657Y2144331D1*
X2032196Y2149628D1*
X2036140Y2154630D1*
X2040464Y2159308D1*
X2045141Y2163632D1*
X2050144Y2167576D1*
X2055440Y2171115D1*
X2060998Y2174227D1*
X2066783Y2176894D1*
X2072760Y2179099D1*
X2078891Y2180828D1*
X2085138Y2182071D1*
X2091464Y2182820D1*
X2097829Y2183070D1*
X2104195Y2182820D1*
X2110521Y2182071D1*
X2116768Y2180828D1*
X2122899Y2179099D1*
X2128876Y2176894D1*
X2134661Y2174227D1*
X2140322Y2171046D1*
X2177099Y2208053D1*
X2168681Y2211720D1*
X2160732Y2216314D1*
X2155237Y2220262D1*
X2755240D2*
X2747756Y2215054D1*
X2739677Y2210692D1*
X2731157Y2207271D1*
X2722305Y2204834D1*
X2713234Y2203413D1*
X2704061Y2203027D1*
X2694903Y2203679D1*
X2685877Y2205362D1*
X2677099Y2208053D1*
X2668681Y2211720D1*
X2660732Y2216314D1*
X2653352Y2221777D1*
X2646637Y2228039D1*
X2640673Y2235019D1*
X2635536Y2242628D1*
X2631291Y2250770D1*
X2627993Y2259339D1*
X2625685Y2268225D1*
X2624395Y2277316D1*
X2624141Y2286493D1*
X2624926Y2295641D1*
X2626739Y2304642D1*
X2629558Y2313380D1*
X2633346Y2321744D1*
X2638054Y2329626D1*
X2643623Y2336925D1*
X2649982Y2343549D1*
X2657048Y2349412D1*
X2664731Y2354439D1*
X2672933Y2358565D1*
X2681548Y2361738D1*
X2690467Y2363918D1*
X2699575Y2365076D1*
X2708756Y2365197D1*
X2717892Y2364280D1*
X2726865Y2362337D1*
X2735561Y2359392D1*
X2743869Y2355483D1*
X2751682Y2350661D1*
X2755228Y2348033D1*
X2763149Y2353503D1*
X2771256Y2357814D1*
X2779797Y2361182D1*
X2788665Y2363563D1*
X2797744Y2364927D1*
X2806920Y2365256D1*
X2816074Y2364546D1*
X2825089Y2362806D1*
X2833850Y2360059D1*
X2842244Y2356340D1*
X2850164Y2351696D1*
X2855228Y2348033D1*
X2862846Y2353318D1*
X2868404Y2356431D1*
X2874189Y2359098D1*
X2880165Y2361303D1*
X2886296Y2363032D1*
X2892544Y2364274D1*
X2898870Y2365023D1*
X2905235Y2365273D1*
X2911600Y2365023D1*
X2917926Y2364274D1*
X2924174Y2363032D1*
X2930305Y2361303D1*
X2936281Y2359098D1*
X2942066Y2356431D1*
X2947624Y2353318D1*
X2953253Y2349517D1*
X2957549Y2349779D1*
X2962846Y2353318D1*
X2968404Y2356431D1*
X2974189Y2359098D1*
X2980165Y2361303D1*
X2986296Y2363032D1*
X2992544Y2364274D1*
X2998870Y2365023D1*
X3005235Y2365273D1*
X3011600Y2365023D1*
X3017926Y2364274D1*
X3024174Y2363032D1*
X3030305Y2361303D1*
X3036281Y2359098D1*
X3042066Y2356431D1*
X3047624Y2353318D1*
X3052920Y2349779D1*
X3057923Y2345836D1*
X3062601Y2341512D1*
X3066925Y2336834D1*
X3070868Y2331831D1*
X3074408Y2326535D1*
X3077520Y2320977D1*
X3080187Y2315192D1*
X3082392Y2309215D1*
X3084121Y2303085D1*
X3085364Y2296837D1*
X3086112Y2290511D1*
X3086362Y2284146D1*
X3086112Y2277780D1*
X3085364Y2271455D1*
X3084121Y2265207D1*
X3082392Y2259076D1*
X3080187Y2253099D1*
X3077520Y2247315D1*
X3074408Y2241757D1*
X3070868Y2236460D1*
X3066925Y2231458D1*
X3062601Y2226780D1*
X3057923Y2222456D1*
X3052920Y2218512D1*
X3047624Y2214973D1*
X3042066Y2211860D1*
X3036281Y2209194D1*
X3030305Y2206989D1*
X3024174Y2205260D1*
X3017926Y2204017D1*
X3011600Y2203268D1*
X3005235Y2203018D1*
X2998870Y2203268D1*
X2992544Y2204017D1*
X2986296Y2205260D1*
X2980165Y2206989D1*
X2974189Y2209194D1*
X2968404Y2211860D1*
X2963649Y2214523D1*
X2958128Y2205491D1*
X2951465Y2197690D1*
X2805718Y2052227D1*
X2797418Y2046197D1*
X2788277Y2041539D1*
X2778520Y2038369D1*
X2768387Y2036764D1*
X2745853Y2036563D1*
X2740218Y2032770D1*
X2734661Y2029657D1*
X2728876Y2026990D1*
X2722899Y2024785D1*
X2716768Y2023056D1*
X2710521Y2021814D1*
X2704195Y2021065D1*
X2697829Y2020815D1*
X2691464Y2021065D1*
X2685138Y2021814D1*
X2678891Y2023056D1*
X2672760Y2024785D1*
X2666783Y2026990D1*
X2660998Y2029657D1*
X2655440Y2032770D1*
X2650144Y2036309D1*
X2645141Y2040252D1*
X2640464Y2044576D1*
X2636140Y2049254D1*
X2632196Y2054257D1*
X2628657Y2059553D1*
X2625544Y2065111D1*
X2622877Y2070896D1*
X2620673Y2076872D1*
X2618943Y2083003D1*
X2617701Y2089251D1*
X2616952Y2095577D1*
X2616702Y2101942D1*
X2616952Y2108307D1*
X2617701Y2114633D1*
X2618943Y2120881D1*
X2620673Y2127012D1*
X2622877Y2132988D1*
X2625544Y2138773D1*
X2628657Y2144331D1*
X2632196Y2149628D1*
X2636140Y2154630D1*
X2640464Y2159308D1*
X2645141Y2163632D1*
X2650144Y2167576D1*
X2655440Y2171115D1*
X2660998Y2174227D1*
X2666783Y2176894D1*
X2672760Y2179099D1*
X2678891Y2180828D1*
X2685138Y2182071D1*
X2691464Y2182820D1*
X2697829Y2183070D1*
X2704195Y2182820D1*
X2710521Y2182071D1*
X2716768Y2180828D1*
X2722899Y2179099D1*
X2728876Y2176894D1*
X2734661Y2174227D1*
X2740066Y2171200D1*
X2776935Y2208080D1*
X2768681Y2211720D1*
X2760732Y2216314D1*
X2755237Y2220262D1*
X3355240D2*
X3347756Y2215054D1*
X3339677Y2210692D1*
X3331157Y2207271D1*
X3322305Y2204834D1*
X3313234Y2203413D1*
X3304061Y2203027D1*
X3294903Y2203679D1*
X3285877Y2205362D1*
X3277099Y2208053D1*
X3268681Y2211720D1*
X3260732Y2216314D1*
X3253352Y2221777D1*
X3246637Y2228039D1*
X3240673Y2235019D1*
X3235536Y2242628D1*
X3231291Y2250770D1*
X3227993Y2259339D1*
X3225685Y2268225D1*
X3224395Y2277316D1*
X3224141Y2286493D1*
X3224926Y2295641D1*
X3226739Y2304642D1*
X3229558Y2313380D1*
X3233346Y2321744D1*
X3238054Y2329626D1*
X3243623Y2336925D1*
X3249982Y2343549D1*
X3257048Y2349412D1*
X3264731Y2354439D1*
X3272933Y2358565D1*
X3281548Y2361738D1*
X3290467Y2363918D1*
X3299575Y2365076D1*
X3308756Y2365197D1*
X3317892Y2364280D1*
X3326865Y2362337D1*
X3335561Y2359392D1*
X3343869Y2355483D1*
X3351682Y2350661D1*
X3355228Y2348033D1*
X3363149Y2353503D1*
X3371256Y2357814D1*
X3379797Y2361182D1*
X3388665Y2363563D1*
X3397744Y2364927D1*
X3406920Y2365256D1*
X3416074Y2364546D1*
X3425089Y2362806D1*
X3433850Y2360059D1*
X3442244Y2356340D1*
X3450164Y2351696D1*
X3455228Y2348033D1*
X3462846Y2353318D1*
X3468404Y2356431D1*
X3474189Y2359098D1*
X3480165Y2361303D1*
X3486296Y2363032D1*
X3492544Y2364274D1*
X3498870Y2365023D1*
X3505235Y2365273D1*
X3511600Y2365023D1*
X3517926Y2364274D1*
X3524174Y2363032D1*
X3530305Y2361303D1*
X3536281Y2359098D1*
X3542066Y2356431D1*
X3547624Y2353318D1*
X3553253Y2349517D1*
X3557549Y2349779D1*
X3562846Y2353318D1*
X3568404Y2356431D1*
X3574189Y2359098D1*
X3580165Y2361303D1*
X3586296Y2363032D1*
X3592544Y2364274D1*
X3598870Y2365023D1*
X3605235Y2365273D1*
X3611600Y2365023D1*
X3617926Y2364274D1*
X3624174Y2363032D1*
X3630305Y2361303D1*
X3636281Y2359098D1*
X3642066Y2356431D1*
X3647624Y2353318D1*
X3652920Y2349779D1*
X3657923Y2345836D1*
X3662601Y2341512D1*
X3666925Y2336834D1*
X3670868Y2331831D1*
X3674408Y2326535D1*
X3677520Y2320977D1*
X3680187Y2315192D1*
X3682392Y2309215D1*
X3684121Y2303085D1*
X3685364Y2296837D1*
X3686112Y2290511D1*
X3686362Y2284146D1*
X3686112Y2277780D1*
X3685364Y2271455D1*
X3684121Y2265207D1*
X3682392Y2259076D1*
X3680187Y2253099D1*
X3677520Y2247315D1*
X3674408Y2241757D1*
X3670868Y2236460D1*
X3666925Y2231458D1*
X3662601Y2226780D1*
X3657923Y2222456D1*
X3652920Y2218512D1*
X3647624Y2214973D1*
X3642066Y2211860D1*
X3636281Y2209194D1*
X3630305Y2206989D1*
X3624174Y2205260D1*
X3617926Y2204017D1*
X3611600Y2203268D1*
X3605235Y2203018D1*
X3598870Y2203268D1*
X3592544Y2204017D1*
X3586296Y2205260D1*
X3580165Y2206989D1*
X3574189Y2209194D1*
X3568404Y2211860D1*
X3562080Y2215485D1*
X3558128Y2209366D1*
X3551465Y2201565D1*
X3401843Y2052227D1*
X3393543Y2046197D1*
X3384402Y2041539D1*
X3374644Y2038369D1*
X3364512Y2036764D1*
X3345854Y2036563D1*
X3340218Y2032770D1*
X3334661Y2029657D1*
X3328876Y2026990D1*
X3322899Y2024785D1*
X3316768Y2023056D1*
X3310521Y2021814D1*
X3304195Y2021065D1*
X3297829Y2020815D1*
X3291464Y2021065D1*
X3285138Y2021814D1*
X3278891Y2023056D1*
X3272760Y2024785D1*
X3266783Y2026990D1*
X3260998Y2029657D1*
X3255440Y2032770D1*
X3250144Y2036309D1*
X3245141Y2040252D1*
X3240464Y2044576D1*
X3236140Y2049254D1*
X3232196Y2054257D1*
X3228657Y2059553D1*
X3225544Y2065111D1*
X3222877Y2070896D1*
X3220673Y2076872D1*
X3218943Y2083003D1*
X3217701Y2089251D1*
X3216952Y2095577D1*
X3216702Y2101942D1*
X3216952Y2108307D1*
X3217701Y2114633D1*
X3218943Y2120881D1*
X3220673Y2127012D1*
X3222877Y2132988D1*
X3225544Y2138773D1*
X3228657Y2144331D1*
X3232196Y2149628D1*
X3236140Y2154630D1*
X3240464Y2159308D1*
X3245141Y2163632D1*
X3250144Y2167576D1*
X3255440Y2171115D1*
X3260998Y2174227D1*
X3266783Y2176894D1*
X3272760Y2179099D1*
X3278891Y2180828D1*
X3285138Y2182071D1*
X3291464Y2182820D1*
X3297829Y2183070D1*
X3304195Y2182820D1*
X3310521Y2182071D1*
X3316768Y2180828D1*
X3322899Y2179099D1*
X3328876Y2176894D1*
X3337591Y2172586D1*
X3374176Y2209197D1*
X3367050Y2212566D1*
X3359207Y2217339D1*
X3355237Y2220262D1*
X1878707Y2095577D2*
X1877958Y2089251D1*
X1876715Y2083003D1*
X1874986Y2076872D1*
X1872781Y2070896D1*
X1870115Y2065111D1*
X1867002Y2059553D1*
X1863463Y2054257D1*
X1859519Y2049254D1*
X1855195Y2044576D1*
X1850518Y2040252D1*
X1845515Y2036309D1*
X1840218Y2032770D1*
X1834661Y2029657D1*
X1828876Y2026990D1*
X1822899Y2024785D1*
X1816768Y2023056D1*
X1810521Y2021814D1*
X1804195Y2021065D1*
X1797829Y2020815D1*
X1791464Y2021065D1*
X1785138Y2021814D1*
X1778891Y2023056D1*
X1772760Y2024785D1*
X1766783Y2026990D1*
X1760998Y2029657D1*
X1755440Y2032770D1*
X1750144Y2036309D1*
X1745141Y2040252D1*
X1740464Y2044576D1*
X1736140Y2049254D1*
X1732196Y2054257D1*
X1728657Y2059553D1*
X1725544Y2065111D1*
X1722877Y2070896D1*
X1720673Y2076872D1*
X1718943Y2083003D1*
X1717701Y2089251D1*
X1716952Y2095577D1*
X1716702Y2101942D1*
X1716952Y2108307D1*
X1717701Y2114633D1*
X1718943Y2120881D1*
X1720673Y2127012D1*
X1722877Y2132988D1*
X1725544Y2138773D1*
X1728657Y2144331D1*
X1732196Y2149628D1*
X1736140Y2154630D1*
X1740464Y2159308D1*
X1745141Y2163632D1*
X1750144Y2167576D1*
X1755440Y2171115D1*
X1760998Y2174227D1*
X1766783Y2176894D1*
X1772760Y2179099D1*
X1778891Y2180828D1*
X1785138Y2182071D1*
X1791464Y2182820D1*
X1797829Y2183070D1*
X1804195Y2182820D1*
X1810521Y2182071D1*
X1816768Y2180828D1*
X1822899Y2179099D1*
X1828876Y2176894D1*
X1834661Y2174227D1*
X1840218Y2171115D1*
X1845515Y2167576D1*
X1850518Y2163632D1*
X1855195Y2159308D1*
X1859519Y2154630D1*
X1863463Y2149628D1*
X1867002Y2144331D1*
X1870115Y2138773D1*
X1872781Y2132988D1*
X1874986Y2127012D1*
X1876715Y2120881D1*
X1877958Y2114633D1*
X1878707Y2108307D1*
X1878957Y2101942D1*
X1878707Y2095577D1*
X1845847Y1636571D2*
X1840218Y1632770D1*
X1834661Y1629657D1*
X1828876Y1626990D1*
X1822899Y1624785D1*
X1816768Y1623056D1*
X1810521Y1621814D1*
X1804195Y1621065D1*
X1797829Y1620815D1*
X1791464Y1621065D1*
X1785138Y1621814D1*
X1778891Y1623056D1*
X1772760Y1624785D1*
X1766783Y1626990D1*
X1760998Y1629657D1*
X1755440Y1632770D1*
X1750144Y1636309D1*
X1745141Y1640252D1*
X1740464Y1644576D1*
X1736140Y1649254D1*
X1732196Y1654257D1*
X1728657Y1659553D1*
X1725544Y1665111D1*
X1722877Y1670896D1*
X1720673Y1676872D1*
X1718943Y1683003D1*
X1717701Y1689251D1*
X1716952Y1695577D1*
X1716702Y1701942D1*
X1716952Y1708307D1*
X1717701Y1714633D1*
X1718943Y1720881D1*
X1720673Y1727012D1*
X1722877Y1732988D1*
X1725544Y1738773D1*
X1728657Y1744331D1*
X1732196Y1749628D1*
X1736140Y1754630D1*
X1740464Y1759308D1*
X1745141Y1763632D1*
X1750144Y1767576D1*
X1755440Y1771115D1*
X1760998Y1774227D1*
X1766783Y1776894D1*
X1772760Y1779099D1*
X1778891Y1780828D1*
X1785138Y1782071D1*
X1791464Y1782820D1*
X1797829Y1783070D1*
X1804195Y1782820D1*
X1810521Y1782071D1*
X1816768Y1780828D1*
X1822899Y1779099D1*
X1828876Y1776894D1*
X1834661Y1774227D1*
X1840218Y1771115D1*
X1845847Y1767314D1*
X2049772Y1767322D1*
X2055440Y1771115D1*
X2060998Y1774227D1*
X2066783Y1776894D1*
X2072760Y1779099D1*
X2078891Y1780828D1*
X2085138Y1782071D1*
X2091464Y1782820D1*
X2097829Y1783070D1*
X2104195Y1782820D1*
X2110521Y1782071D1*
X2116768Y1780828D1*
X2122899Y1779099D1*
X2128876Y1776894D1*
X2134661Y1774227D1*
X2140218Y1771115D1*
X2145515Y1767576D1*
X2150518Y1763632D1*
X2155195Y1759308D1*
X2159519Y1754630D1*
X2163463Y1749628D1*
X2167002Y1744331D1*
X2170115Y1738773D1*
X2172781Y1732988D1*
X2174986Y1727012D1*
X2176715Y1720881D1*
X2177958Y1714633D1*
X2178707Y1708307D1*
X2178957Y1701942D1*
X2178707Y1695577D1*
X2177958Y1689251D1*
X2176715Y1683003D1*
X2174986Y1676872D1*
X2172781Y1670896D1*
X2170115Y1665111D1*
X2167002Y1659553D1*
X2163463Y1654257D1*
X2159519Y1649254D1*
X2155195Y1644576D1*
X2150518Y1640252D1*
X2145515Y1636309D1*
X2140218Y1632770D1*
X2134661Y1629657D1*
X2128876Y1626990D1*
X2122899Y1624785D1*
X2116768Y1623056D1*
X2110521Y1621814D1*
X2104195Y1621065D1*
X2097829Y1620815D1*
X2091464Y1621065D1*
X2085138Y1621814D1*
X2078891Y1623056D1*
X2072760Y1624785D1*
X2066783Y1626990D1*
X2060998Y1629657D1*
X2055440Y1632770D1*
X2049812Y1636571D1*
X1845887Y1636563D1*
X2478707Y2095577D2*
X2477958Y2089251D1*
X2476715Y2083003D1*
X2474986Y2076872D1*
X2472781Y2070896D1*
X2470115Y2065111D1*
X2467002Y2059553D1*
X2463463Y2054257D1*
X2459519Y2049254D1*
X2455195Y2044576D1*
X2450518Y2040252D1*
X2445515Y2036309D1*
X2440218Y2032770D1*
X2434661Y2029657D1*
X2428876Y2026990D1*
X2422899Y2024785D1*
X2416768Y2023056D1*
X2410521Y2021814D1*
X2404195Y2021065D1*
X2397829Y2020815D1*
X2391464Y2021065D1*
X2385138Y2021814D1*
X2378891Y2023056D1*
X2372760Y2024785D1*
X2366783Y2026990D1*
X2360998Y2029657D1*
X2355440Y2032770D1*
X2350144Y2036309D1*
X2345141Y2040252D1*
X2340464Y2044576D1*
X2336140Y2049254D1*
X2332196Y2054257D1*
X2328657Y2059553D1*
X2325544Y2065111D1*
X2322877Y2070896D1*
X2320673Y2076872D1*
X2318943Y2083003D1*
X2317701Y2089251D1*
X2316952Y2095577D1*
X2316702Y2101942D1*
X2316952Y2108307D1*
X2317701Y2114633D1*
X2318943Y2120881D1*
X2320673Y2127012D1*
X2322877Y2132988D1*
X2325544Y2138773D1*
X2328657Y2144331D1*
X2332196Y2149628D1*
X2336140Y2154630D1*
X2340464Y2159308D1*
X2345141Y2163632D1*
X2350144Y2167576D1*
X2355440Y2171115D1*
X2360998Y2174227D1*
X2366783Y2176894D1*
X2372760Y2179099D1*
X2378891Y2180828D1*
X2385138Y2182071D1*
X2391464Y2182820D1*
X2397829Y2183070D1*
X2404195Y2182820D1*
X2410521Y2182071D1*
X2416768Y2180828D1*
X2422899Y2179099D1*
X2428876Y2176894D1*
X2434661Y2174227D1*
X2440218Y2171115D1*
X2445515Y2167576D1*
X2450518Y2163632D1*
X2455195Y2159308D1*
X2459519Y2154630D1*
X2463463Y2149628D1*
X2467002Y2144331D1*
X2470115Y2138773D1*
X2472781Y2132988D1*
X2474986Y2127012D1*
X2476715Y2120881D1*
X2477958Y2114633D1*
X2478707Y2108307D1*
X2478957Y2101942D1*
X2478707Y2095577D1*
X2145847Y1836571D2*
X2140218Y1832770D1*
X2134661Y1829657D1*
X2128876Y1826990D1*
X2122899Y1824785D1*
X2116768Y1823056D1*
X2110521Y1821814D1*
X2104195Y1821065D1*
X2097829Y1820815D1*
X2091464Y1821065D1*
X2085138Y1821814D1*
X2078891Y1823056D1*
X2072760Y1824785D1*
X2066783Y1826990D1*
X2060998Y1829657D1*
X2055440Y1832770D1*
X2050144Y1836309D1*
X2045141Y1840252D1*
X2040464Y1844576D1*
X2036140Y1849254D1*
X2032196Y1854257D1*
X2028657Y1859553D1*
X2025544Y1865111D1*
X2022877Y1870896D1*
X2020673Y1876872D1*
X2018943Y1883003D1*
X2017701Y1889251D1*
X2016952Y1895577D1*
X2016702Y1901942D1*
X2016952Y1908307D1*
X2017701Y1914633D1*
X2018943Y1920881D1*
X2020673Y1927012D1*
X2022877Y1932988D1*
X2025544Y1938773D1*
X2028657Y1944331D1*
X2032196Y1949628D1*
X2036140Y1954630D1*
X2040464Y1959308D1*
X2045141Y1963632D1*
X2050144Y1967576D1*
X2055440Y1971115D1*
X2060998Y1974227D1*
X2066783Y1976894D1*
X2072760Y1979099D1*
X2078891Y1980828D1*
X2085138Y1982071D1*
X2091464Y1982820D1*
X2097829Y1983070D1*
X2104195Y1982820D1*
X2110521Y1982071D1*
X2116768Y1980828D1*
X2122899Y1979099D1*
X2128876Y1976894D1*
X2134661Y1974227D1*
X2140218Y1971115D1*
X2145847Y1967314D1*
X2349772Y1967322D1*
X2355440Y1971115D1*
X2360998Y1974227D1*
X2366783Y1976894D1*
X2372760Y1979099D1*
X2378891Y1980828D1*
X2385138Y1982071D1*
X2391464Y1982820D1*
X2397829Y1983070D1*
X2404195Y1982820D1*
X2410521Y1982071D1*
X2416768Y1980828D1*
X2422899Y1979099D1*
X2428876Y1976894D1*
X2434661Y1974227D1*
X2440218Y1971115D1*
X2445515Y1967576D1*
X2450518Y1963632D1*
X2455195Y1959308D1*
X2459519Y1954630D1*
X2463463Y1949628D1*
X2467002Y1944331D1*
X2470115Y1938773D1*
X2472781Y1932988D1*
X2474986Y1927012D1*
X2476715Y1920881D1*
X2477958Y1914633D1*
X2478707Y1908307D1*
X2478957Y1901942D1*
X2478707Y1895577D1*
X2477958Y1889251D1*
X2476715Y1883003D1*
X2474986Y1876872D1*
X2472781Y1870896D1*
X2470115Y1865111D1*
X2467002Y1859553D1*
X2463463Y1854257D1*
X2459519Y1849254D1*
X2455195Y1844576D1*
X2450518Y1840252D1*
X2445515Y1836309D1*
X2440218Y1832770D1*
X2434661Y1829657D1*
X2428876Y1826990D1*
X2422899Y1824785D1*
X2416768Y1823056D1*
X2410521Y1821814D1*
X2404195Y1821065D1*
X2397829Y1820815D1*
X2391464Y1821065D1*
X2385138Y1821814D1*
X2378891Y1823056D1*
X2372760Y1824785D1*
X2366783Y1826990D1*
X2360998Y1829657D1*
X2355440Y1832770D1*
X2349812Y1836571D1*
X2145887Y1836563D1*
X2445847Y1636571D2*
X2440218Y1632770D1*
X2434661Y1629657D1*
X2428876Y1626990D1*
X2422899Y1624785D1*
X2416768Y1623056D1*
X2410521Y1621814D1*
X2404195Y1621065D1*
X2397829Y1620815D1*
X2391464Y1621065D1*
X2385138Y1621814D1*
X2378891Y1623056D1*
X2372760Y1624785D1*
X2366783Y1626990D1*
X2360998Y1629657D1*
X2355440Y1632770D1*
X2350144Y1636309D1*
X2345141Y1640252D1*
X2340464Y1644576D1*
X2336140Y1649254D1*
X2332196Y1654257D1*
X2328657Y1659553D1*
X2325544Y1665111D1*
X2322877Y1670896D1*
X2320673Y1676872D1*
X2318943Y1683003D1*
X2317701Y1689251D1*
X2316952Y1695577D1*
X2316702Y1701942D1*
X2316952Y1708307D1*
X2317701Y1714633D1*
X2318943Y1720881D1*
X2320673Y1727012D1*
X2322877Y1732988D1*
X2325544Y1738773D1*
X2328657Y1744331D1*
X2332196Y1749628D1*
X2336140Y1754630D1*
X2340464Y1759308D1*
X2345141Y1763632D1*
X2350144Y1767576D1*
X2355440Y1771115D1*
X2360998Y1774227D1*
X2366783Y1776894D1*
X2372760Y1779099D1*
X2378891Y1780828D1*
X2385138Y1782071D1*
X2391464Y1782820D1*
X2397829Y1783070D1*
X2404195Y1782820D1*
X2410521Y1782071D1*
X2416768Y1780828D1*
X2422899Y1779099D1*
X2428876Y1776894D1*
X2434661Y1774227D1*
X2440218Y1771115D1*
X2445847Y1767314D1*
X2649772Y1767322D1*
X2655440Y1771115D1*
X2660998Y1774227D1*
X2666783Y1776894D1*
X2672760Y1779099D1*
X2678891Y1780828D1*
X2685138Y1782071D1*
X2691464Y1782820D1*
X2697829Y1783070D1*
X2704195Y1782820D1*
X2710521Y1782071D1*
X2716768Y1780828D1*
X2722899Y1779099D1*
X2728876Y1776894D1*
X2734661Y1774227D1*
X2740218Y1771115D1*
X2745515Y1767576D1*
X2750518Y1763632D1*
X2755195Y1759308D1*
X2759519Y1754630D1*
X2763463Y1749628D1*
X2767002Y1744331D1*
X2770115Y1738773D1*
X2772781Y1732988D1*
X2774986Y1727012D1*
X2776715Y1720881D1*
X2777958Y1714633D1*
X2778707Y1708307D1*
X2778957Y1701942D1*
X2778707Y1695577D1*
X2777958Y1689251D1*
X2776715Y1683003D1*
X2774986Y1676872D1*
X2772781Y1670896D1*
X2770115Y1665111D1*
X2767002Y1659553D1*
X2763463Y1654257D1*
X2759519Y1649254D1*
X2755195Y1644576D1*
X2750518Y1640252D1*
X2745515Y1636309D1*
X2740218Y1632770D1*
X2734661Y1629657D1*
X2728876Y1626990D1*
X2722899Y1624785D1*
X2716768Y1623056D1*
X2710521Y1621814D1*
X2704195Y1621065D1*
X2697829Y1620815D1*
X2691464Y1621065D1*
X2685138Y1621814D1*
X2678891Y1623056D1*
X2672760Y1624785D1*
X2666783Y1626990D1*
X2660998Y1629657D1*
X2655440Y1632770D1*
X2649812Y1636571D1*
X2445887Y1636563D1*
X3078707Y2095577D2*
X3077958Y2089251D1*
X3076715Y2083003D1*
X3074986Y2076872D1*
X3072781Y2070896D1*
X3070115Y2065111D1*
X3067002Y2059553D1*
X3063463Y2054257D1*
X3059519Y2049254D1*
X3055195Y2044576D1*
X3050518Y2040252D1*
X3045515Y2036309D1*
X3040218Y2032770D1*
X3034661Y2029657D1*
X3028876Y2026990D1*
X3022899Y2024785D1*
X3016768Y2023056D1*
X3010521Y2021814D1*
X3004195Y2021065D1*
X2997829Y2020815D1*
X2991464Y2021065D1*
X2985138Y2021814D1*
X2978891Y2023056D1*
X2972760Y2024785D1*
X2966783Y2026990D1*
X2960998Y2029657D1*
X2955440Y2032770D1*
X2950144Y2036309D1*
X2945141Y2040252D1*
X2940464Y2044576D1*
X2936140Y2049254D1*
X2932196Y2054257D1*
X2928657Y2059553D1*
X2925544Y2065111D1*
X2922877Y2070896D1*
X2920673Y2076872D1*
X2918943Y2083003D1*
X2917701Y2089251D1*
X2916952Y2095577D1*
X2916702Y2101942D1*
X2916952Y2108307D1*
X2917701Y2114633D1*
X2918943Y2120881D1*
X2920673Y2127012D1*
X2922877Y2132988D1*
X2925544Y2138773D1*
X2928657Y2144331D1*
X2932196Y2149628D1*
X2936140Y2154630D1*
X2940464Y2159308D1*
X2945141Y2163632D1*
X2950144Y2167576D1*
X2955440Y2171115D1*
X2960998Y2174227D1*
X2966783Y2176894D1*
X2972760Y2179099D1*
X2978891Y2180828D1*
X2985138Y2182071D1*
X2991464Y2182820D1*
X2997829Y2183070D1*
X3004195Y2182820D1*
X3010521Y2182071D1*
X3016768Y2180828D1*
X3022899Y2179099D1*
X3028876Y2176894D1*
X3034661Y2174227D1*
X3040218Y2171115D1*
X3045515Y2167576D1*
X3050518Y2163632D1*
X3055195Y2159308D1*
X3059519Y2154630D1*
X3063463Y2149628D1*
X3067002Y2144331D1*
X3070115Y2138773D1*
X3072781Y2132988D1*
X3074986Y2127012D1*
X3076715Y2120881D1*
X3077958Y2114633D1*
X3078707Y2108307D1*
X3078957Y2101942D1*
X3078707Y2095577D1*
X2745847Y1836571D2*
X2740218Y1832770D1*
X2734661Y1829657D1*
X2728876Y1826990D1*
X2722899Y1824785D1*
X2716768Y1823056D1*
X2710521Y1821814D1*
X2704195Y1821065D1*
X2697829Y1820815D1*
X2691464Y1821065D1*
X2685138Y1821814D1*
X2678891Y1823056D1*
X2672760Y1824785D1*
X2666783Y1826990D1*
X2660998Y1829657D1*
X2655440Y1832770D1*
X2650144Y1836309D1*
X2645141Y1840252D1*
X2640464Y1844576D1*
X2636140Y1849254D1*
X2632196Y1854257D1*
X2628657Y1859553D1*
X2625544Y1865111D1*
X2622877Y1870896D1*
X2620673Y1876872D1*
X2618943Y1883003D1*
X2617701Y1889251D1*
X2616952Y1895577D1*
X2616702Y1901942D1*
X2616952Y1908307D1*
X2617701Y1914633D1*
X2618943Y1920881D1*
X2620673Y1927012D1*
X2622877Y1932988D1*
X2625544Y1938773D1*
X2628657Y1944331D1*
X2632196Y1949628D1*
X2636140Y1954630D1*
X2640464Y1959308D1*
X2645141Y1963632D1*
X2650144Y1967576D1*
X2655440Y1971115D1*
X2660998Y1974227D1*
X2666783Y1976894D1*
X2672760Y1979099D1*
X2678891Y1980828D1*
X2685138Y1982071D1*
X2691464Y1982820D1*
X2697829Y1983070D1*
X2704195Y1982820D1*
X2710521Y1982071D1*
X2716768Y1980828D1*
X2722899Y1979099D1*
X2728876Y1976894D1*
X2734661Y1974227D1*
X2740218Y1971115D1*
X2745847Y1967314D1*
X2949772Y1967322D1*
X2955440Y1971115D1*
X2960998Y1974227D1*
X2966783Y1976894D1*
X2972760Y1979099D1*
X2978891Y1980828D1*
X2985138Y1982071D1*
X2991464Y1982820D1*
X2997829Y1983070D1*
X3004195Y1982820D1*
X3010521Y1982071D1*
X3016768Y1980828D1*
X3022899Y1979099D1*
X3028876Y1976894D1*
X3034661Y1974227D1*
X3040218Y1971115D1*
X3045515Y1967576D1*
X3050518Y1963632D1*
X3055195Y1959308D1*
X3059519Y1954630D1*
X3063463Y1949628D1*
X3067002Y1944331D1*
X3070115Y1938773D1*
X3072781Y1932988D1*
X3074986Y1927012D1*
X3076715Y1920881D1*
X3077958Y1914633D1*
X3078707Y1908307D1*
X3078957Y1901942D1*
X3078707Y1895577D1*
X3077958Y1889251D1*
X3076715Y1883003D1*
X3074986Y1876872D1*
X3072781Y1870896D1*
X3070115Y1865111D1*
X3067002Y1859553D1*
X3063463Y1854257D1*
X3059519Y1849254D1*
X3055195Y1844576D1*
X3050518Y1840252D1*
X3045515Y1836309D1*
X3040218Y1832770D1*
X3034661Y1829657D1*
X3028876Y1826990D1*
X3022899Y1824785D1*
X3016768Y1823056D1*
X3010521Y1821814D1*
X3004195Y1821065D1*
X2997829Y1820815D1*
X2991464Y1821065D1*
X2985138Y1821814D1*
X2978891Y1823056D1*
X2972760Y1824785D1*
X2966783Y1826990D1*
X2960998Y1829657D1*
X2955440Y1832770D1*
X2949812Y1836571D1*
X2745887Y1836563D1*
X3045847Y1636571D2*
X3040218Y1632770D1*
X3034661Y1629657D1*
X3028876Y1626990D1*
X3022899Y1624785D1*
X3016768Y1623056D1*
X3010521Y1621814D1*
X3004195Y1621065D1*
X2997829Y1620815D1*
X2991464Y1621065D1*
X2985138Y1621814D1*
X2978891Y1623056D1*
X2972760Y1624785D1*
X2966783Y1626990D1*
X2960998Y1629657D1*
X2955440Y1632770D1*
X2950144Y1636309D1*
X2945141Y1640252D1*
X2940464Y1644576D1*
X2936140Y1649254D1*
X2932196Y1654257D1*
X2928657Y1659553D1*
X2925544Y1665111D1*
X2922877Y1670896D1*
X2920673Y1676872D1*
X2918943Y1683003D1*
X2917701Y1689251D1*
X2916952Y1695577D1*
X2916702Y1701942D1*
X2916952Y1708307D1*
X2917701Y1714633D1*
X2918943Y1720881D1*
X2920673Y1727012D1*
X2922877Y1732988D1*
X2925544Y1738773D1*
X2928657Y1744331D1*
X2932196Y1749628D1*
X2936140Y1754630D1*
X2940464Y1759308D1*
X2945141Y1763632D1*
X2950144Y1767576D1*
X2955440Y1771115D1*
X2960998Y1774227D1*
X2966783Y1776894D1*
X2972760Y1779099D1*
X2978891Y1780828D1*
X2985138Y1782071D1*
X2991464Y1782820D1*
X2997829Y1783070D1*
X3004195Y1782820D1*
X3010521Y1782071D1*
X3016768Y1780828D1*
X3022899Y1779099D1*
X3028876Y1776894D1*
X3034661Y1774227D1*
X3040218Y1771115D1*
X3045847Y1767314D1*
X3249772Y1767322D1*
X3255440Y1771115D1*
X3260998Y1774227D1*
X3266783Y1776894D1*
X3272760Y1779099D1*
X3278891Y1780828D1*
X3285138Y1782071D1*
X3291464Y1782820D1*
X3297829Y1783070D1*
X3304195Y1782820D1*
X3310521Y1782071D1*
X3316768Y1780828D1*
X3322899Y1779099D1*
X3328876Y1776894D1*
X3334661Y1774227D1*
X3340218Y1771115D1*
X3345515Y1767576D1*
X3350518Y1763632D1*
X3355195Y1759308D1*
X3359519Y1754630D1*
X3363463Y1749628D1*
X3367002Y1744331D1*
X3370115Y1738773D1*
X3372781Y1732988D1*
X3374986Y1727012D1*
X3376715Y1720881D1*
X3377958Y1714633D1*
X3378707Y1708307D1*
X3378957Y1701942D1*
X3378707Y1695577D1*
X3377958Y1689251D1*
X3376715Y1683003D1*
X3374986Y1676872D1*
X3372781Y1670896D1*
X3370115Y1665111D1*
X3367002Y1659553D1*
X3363463Y1654257D1*
X3359519Y1649254D1*
X3355195Y1644576D1*
X3350518Y1640252D1*
X3345515Y1636309D1*
X3340218Y1632770D1*
X3334661Y1629657D1*
X3328876Y1626990D1*
X3322899Y1624785D1*
X3316768Y1623056D1*
X3310521Y1621814D1*
X3304195Y1621065D1*
X3297829Y1620815D1*
X3291464Y1621065D1*
X3285138Y1621814D1*
X3278891Y1623056D1*
X3272760Y1624785D1*
X3266783Y1626990D1*
X3260998Y1629657D1*
X3255440Y1632770D1*
X3249812Y1636571D1*
X3045887Y1636563D1*
X3678707Y2095577D2*
X3677958Y2089251D1*
X3676715Y2083003D1*
X3674986Y2076872D1*
X3672781Y2070896D1*
X3670115Y2065111D1*
X3667002Y2059553D1*
X3663463Y2054257D1*
X3659519Y2049254D1*
X3655195Y2044576D1*
X3650518Y2040252D1*
X3645515Y2036309D1*
X3640218Y2032770D1*
X3634661Y2029657D1*
X3628876Y2026990D1*
X3622899Y2024785D1*
X3616768Y2023056D1*
X3610521Y2021814D1*
X3604195Y2021065D1*
X3597829Y2020815D1*
X3591464Y2021065D1*
X3585138Y2021814D1*
X3578891Y2023056D1*
X3572760Y2024785D1*
X3566783Y2026990D1*
X3560998Y2029657D1*
X3555440Y2032770D1*
X3550144Y2036309D1*
X3545141Y2040252D1*
X3540464Y2044576D1*
X3536140Y2049254D1*
X3532196Y2054257D1*
X3528657Y2059553D1*
X3525544Y2065111D1*
X3522877Y2070896D1*
X3520673Y2076872D1*
X3518943Y2083003D1*
X3517701Y2089251D1*
X3516952Y2095577D1*
X3516702Y2101942D1*
X3516952Y2108307D1*
X3517701Y2114633D1*
X3518943Y2120881D1*
X3520673Y2127012D1*
X3522877Y2132988D1*
X3525544Y2138773D1*
X3528657Y2144331D1*
X3532196Y2149628D1*
X3536140Y2154630D1*
X3540464Y2159308D1*
X3545141Y2163632D1*
X3550144Y2167576D1*
X3555440Y2171115D1*
X3560998Y2174227D1*
X3566783Y2176894D1*
X3572760Y2179099D1*
X3578891Y2180828D1*
X3585138Y2182071D1*
X3591464Y2182820D1*
X3597829Y2183070D1*
X3604195Y2182820D1*
X3610521Y2182071D1*
X3616768Y2180828D1*
X3622899Y2179099D1*
X3628876Y2176894D1*
X3634661Y2174227D1*
X3640218Y2171115D1*
X3645515Y2167576D1*
X3650518Y2163632D1*
X3655195Y2159308D1*
X3659519Y2154630D1*
X3663463Y2149628D1*
X3667002Y2144331D1*
X3670115Y2138773D1*
X3672781Y2132988D1*
X3674986Y2127012D1*
X3676715Y2120881D1*
X3677958Y2114633D1*
X3678707Y2108307D1*
X3678957Y2101942D1*
X3678707Y2095577D1*
X507879Y1760862D2*
X507915Y1763109D1*
X1516156Y811644D2*
D18*
Y728584D1*
X2288211Y1177463D2*
Y1090466D1*
X2371272D1*
X2147488Y848376D2*
Y765316D1*
X2887882Y1177463D2*
Y1090466D1*
X2970942D1*
X2694209Y848376D2*
Y765316D1*
X1688541Y1177463D2*
Y1090466D1*
X1771601D1*
X3487552Y1177463D2*
Y1090466D1*
X3570613D1*
X3245950Y845316D2*
Y762256D1*
X3905235Y2365237D2*
Y2203054D1*
X3824143Y2284146D2*
X3905235D1*
X4005235Y2365237D2*
Y2203054D1*
X1505819Y2284320D2*
Y2203229D1*
X1605235Y2365237D2*
Y2284146D1*
X2105235Y2365237D2*
Y2203054D1*
X2024143Y2284146D2*
X2105235D1*
X2205235Y2365237D2*
Y2284146D1*
X2705235Y2365237D2*
Y2203054D1*
X2624143Y2284146D2*
X2705235D1*
X2805235Y2365237D2*
Y2284146D1*
X3305235Y2365237D2*
Y2203054D1*
X3224143Y2284146D2*
X3305235D1*
X3405235Y2365237D2*
Y2284146D1*
X3905235Y1065237D2*
Y903054D1*
X3824143Y984146D2*
X3905235D1*
X4005235Y1065237D2*
Y903054D1*
X1505235Y984146D2*
Y903054D1*
X1424143Y984146D2*
X1505235D1*
X1605235D2*
Y903054D1*
X2105235Y984146D2*
Y903054D1*
X2024143Y984146D2*
X2105235D1*
X2205235D2*
Y903054D1*
X2705235Y984146D2*
Y903054D1*
X2624143Y984146D2*
X2705235D1*
X2805235D2*
Y903054D1*
X3305235Y1065237D2*
Y903054D1*
X3224143Y984146D2*
X3305235D1*
X3405235D2*
Y903054D1*
X4156906Y1780379D2*
Y1668815D1*
X4268470D1*
X4156906Y1468815D2*
Y1357251D1*
Y1468815D2*
X4268470D1*
X3956906D2*
Y1357251D1*
X3845341Y1468815D2*
X3956906D1*
Y1780379D2*
Y1668815D1*
X3845341D2*
X3956906D1*
X560846Y896051D2*
Y811987D1*
X476782Y896051D2*
X560846D1*
X3383493Y843789D2*
Y752854D1*
X2801139Y843789D2*
Y752854D1*
X2263602Y843789D2*
Y752854D1*
X1636432Y843789D2*
Y752854D1*
X4049252Y2032387D2*
X4130344D1*
X589007Y1681982D2*
Y1600890D1*
X507915Y1681982D2*
X670098D1*
X3100434Y848501D2*
Y765441D1*
X3013437D2*
X3100434D1*
X2541143Y852206D2*
Y769146D1*
X2454146D2*
X2541143D1*
X1992963Y841093D2*
Y758033D1*
X1905966D2*
X1992963D1*
X1379008Y815795D2*
Y732735D1*
X1292011D2*
X1379008D1*
D20*
X1516156Y618348D3*
Y728584D3*
D21*
X2288211Y1090466D3*
X2177975D3*
D20*
X2147488Y655080D3*
Y765316D3*
D21*
X2887882Y1090466D3*
X2777646D3*
D20*
X2694209Y655080D3*
Y765316D3*
D21*
X1688541Y1090466D3*
X1578304D3*
X3487552D3*
X3377316D3*
D20*
X3245950Y652020D3*
Y762256D3*
X1143213Y2881440D3*
Y2771203D3*
D21*
X1499369Y2606663D3*
X1609605D3*
D22*
X1732140Y2613501D3*
D23*
Y3011139D3*
D21*
X3454425Y3208482D3*
X3564661D3*
X3240966Y3204301D3*
X3351202D3*
X3017573Y3210572D3*
X3127810D3*
D22*
X1444121Y1212953D3*
D23*
X1841759D3*
D22*
X2043791D3*
D23*
X2441429D3*
D22*
X2643462D3*
D23*
X3041100D3*
D22*
X3243133D3*
D23*
X3640770D3*
D62*
X1454293Y2877259D3*
D24*
Y2827259D3*
Y2777259D3*
D15*
X2640450Y2890957D3*
Y2590957D3*
X2440450Y2890957D3*
Y2590957D3*
X2240450Y2890957D3*
Y2590957D3*
X1940450Y2890957D3*
Y2590957D3*
D26*
X3121346Y2597210D3*
Y2951541D3*
X3435392Y2599778D3*
Y2954109D3*
D15*
X3905235Y2284146D3*
X4005235D3*
X4105235D3*
X4205235D3*
X1505819Y2284320D3*
X1605235Y2284146D3*
X1705235D3*
X1805235D3*
X2105235D3*
X2205235D3*
X2305235D3*
X2405235D3*
X2705235D3*
X2805235D3*
X2905235D3*
X3005235D3*
X3305235D3*
X3405235D3*
X3505235D3*
X3605235D3*
X3905235Y984146D3*
X4005235D3*
X4105235D3*
X4205235D3*
X1505235D3*
X1605235D3*
X1705235D3*
X1805235D3*
X2105235D3*
X2205235D3*
X2305235D3*
X2405235D3*
X2705235D3*
X2805235D3*
X2905235D3*
X3005235D3*
X3305235D3*
X3405235D3*
X3505235D3*
X3605235D3*
D27*
X2619766Y3204907D3*
X2419766D3*
Y3404907D3*
X2619766D3*
X2519766Y3304907D3*
X4156906Y1668815D3*
Y1468815D3*
X3956906D3*
Y1668815D3*
X4056906Y1568815D3*
X4188845Y3092030D3*
Y2892030D3*
X3988845D3*
Y3092030D3*
X4088845Y2992030D3*
D28*
X560846Y896051D3*
X660846D3*
X551496Y2711873D3*
Y2611873D3*
X560846Y996050D3*
X551496Y2511873D3*
X660846Y1096050D3*
X551496Y2411873D3*
X660846Y1296050D3*
X551496Y2311873D3*
X560846Y1196051D3*
X551496Y2211873D3*
Y2111873D3*
X651496D3*
X660846Y996050D3*
X651496Y2211873D3*
X560846Y1096050D3*
X651496Y2311873D3*
X660846Y1196051D3*
X651496Y2411873D3*
X560846Y1296050D3*
X651496Y2511873D3*
Y2611873D3*
Y2711873D3*
Y2811873D3*
X551496D3*
D65*
X3483493Y752854D3*
D29*
X3433493D3*
X3383493D3*
D65*
X2901139D3*
D29*
X2851139D3*
X2801139D3*
D65*
X2363602D3*
D29*
X2313602D3*
X2263602D3*
D65*
X1736432D3*
D29*
X1686432D3*
X1636432D3*
D15*
X1497829Y2101942D3*
X1797829D3*
X1497829Y1901942D3*
X1797829D3*
X1497829Y1701942D3*
X1797829D3*
X1497829Y1401942D3*
X1797829D3*
X2097829Y2101942D3*
X2397829D3*
X2097829Y1901942D3*
X2397829D3*
X2097829Y1701942D3*
X2397829D3*
X2097829Y1401942D3*
X2397829D3*
X2697829Y2101942D3*
X2997829D3*
X2697829Y1901942D3*
X2997829D3*
X2697829Y1701942D3*
X2997829D3*
X2697829Y1401942D3*
X2997829D3*
X3297829Y2101942D3*
X3597829D3*
X3297829Y1901942D3*
X3597829D3*
X3297829Y1701942D3*
X3597829D3*
X3297829Y1401942D3*
X3597829D3*
D20*
X985320Y2381558D3*
Y2491794D3*
D15*
X917479Y2115190D3*
X4049252Y2032387D3*
X4051332Y1880955D3*
X1968819Y3307402D3*
X2165669D3*
X4085454Y2766093D3*
X4089256Y2619740D3*
X1299528Y3071181D3*
X1142047D3*
D22*
X589007Y1681982D3*
D23*
Y1760722D3*
D20*
X3100434Y655205D3*
Y765441D3*
X2541143Y658909D3*
Y769146D3*
X1992963Y647797D3*
Y758033D3*
X1379008Y622499D3*
Y732735D3*
X1305003Y2780833D3*
Y2891070D3*
M02*
