G04 DipTrace 3.3.1.1*
G04 TopSilk.gbr*
%MOIN*%
G04 #@! TF.FileFunction,Legend,Top*
G04 #@! TF.Part,Single*
%ADD10C,0.009843*%
%ADD12C,0.003*%
%ADD19C,0.01*%
%ADD25C,0.001312*%
%ADD58C,0.006176*%
%ADD59C,0.009264*%
%ADD60C,0.00772*%
%ADD61C,0.004632*%
%FSLAX26Y26*%
G04*
G70*
G90*
G75*
G01*
G04 TopSilk*
%LPD*%
X1547621Y669135D2*
D10*
X1484692D1*
X1547621Y661686D2*
X1484692D1*
X1547621D2*
Y685245D1*
X1484692Y661686D2*
Y685245D1*
X2237424Y1121930D2*
Y1059001D1*
X2244873Y1121930D2*
Y1059001D1*
Y1121930D2*
X2221314D1*
X2244873Y1059001D2*
X2221314D1*
X2178953Y705867D2*
X2116024D1*
X2178953Y698419D2*
X2116024D1*
X2178953D2*
Y721978D1*
X2116024Y698419D2*
Y721978D1*
X2837094Y1121930D2*
Y1059001D1*
X2844543Y1121930D2*
Y1059001D1*
Y1121930D2*
X2820984D1*
X2844543Y1059001D2*
X2820984D1*
X2725673Y705867D2*
X2662744D1*
X2725673Y698419D2*
X2662744D1*
X2725673D2*
Y721978D1*
X2662744Y698419D2*
Y721978D1*
X1637753Y1121930D2*
Y1059001D1*
X1645202Y1121930D2*
Y1059001D1*
Y1121930D2*
X1621643D1*
X1645202Y1059001D2*
X1621643D1*
X3436765Y1121930D2*
Y1059001D1*
X3444214Y1121930D2*
Y1059001D1*
Y1121930D2*
X3420655D1*
X3444214Y1059001D2*
X3420655D1*
X3277415Y702807D2*
X3214486D1*
X3277415Y695358D2*
X3214486D1*
X3277415D2*
Y718917D1*
X3214486Y695358D2*
Y718917D1*
X1111748Y2830652D2*
X1174677D1*
X1111748Y2838101D2*
X1174677D1*
X1111748D2*
Y2814542D1*
X1174677Y2838101D2*
Y2814542D1*
X1550156Y2575198D2*
Y2638127D1*
X1542707Y2575198D2*
Y2638127D1*
Y2575198D2*
X1566266D1*
X1542707Y2638127D2*
X1566266D1*
X1777416Y2711848D2*
X1686865D1*
Y2912793D1*
X1777416Y2745232D2*
X1686865D1*
X1777416Y2912793D2*
X1686865D1*
X1777416Y2711848D2*
Y2912793D1*
X3505213Y3177017D2*
Y3239946D1*
X3497764Y3177017D2*
Y3239946D1*
Y3177017D2*
X3521323D1*
X3497764Y3239946D2*
X3521323D1*
X3291753Y3172836D2*
Y3235765D1*
X3284304Y3172836D2*
Y3235765D1*
Y3172836D2*
X3307864D1*
X3284304Y3235765D2*
X3307864D1*
X3068361Y3179108D2*
Y3242037D1*
X3060912Y3179108D2*
Y3242037D1*
Y3179108D2*
X3084471D1*
X3060912Y3242037D2*
X3084471D1*
X1542467Y1167677D2*
Y1258228D1*
X1743412D1*
X1575851Y1167677D2*
Y1258228D1*
X1743412Y1167677D2*
Y1258228D1*
X1542467Y1167677D2*
X1743412D1*
X2142138D2*
Y1258228D1*
X2343083D1*
X2175522Y1167677D2*
Y1258228D1*
X2343083Y1167677D2*
Y1258228D1*
X2142138Y1167677D2*
X2343083D1*
X2741808D2*
Y1258228D1*
X2942753D1*
X2775193Y1167677D2*
Y1258228D1*
X2942753Y1167677D2*
Y1258228D1*
X2741808Y1167677D2*
X2942753D1*
X3341479D2*
Y1258228D1*
X3542424D1*
X3374863Y1167677D2*
Y1258228D1*
X3542424Y1167677D2*
Y1258228D1*
X3341479Y1167677D2*
X3542424D1*
X1401150Y2902879D2*
G02X1401150Y2751638I66569J-75620D01*
G01*
Y2902879D1*
X2740450Y2990957D2*
X1840450D1*
Y2490957D1*
X2740450D1*
Y2990957D1*
X3003903Y3065430D2*
D25*
X3240123D1*
Y2476801D1*
X3003903D1*
Y3065430D1*
X3317949Y3067999D2*
X3554169D1*
Y2479369D1*
X3317949D1*
Y3067999D1*
X3509114Y805997D2*
D10*
G02X3357873Y805997I-75620J-66569D01*
G01*
X3509114D1*
X2926760D2*
G02X2775519Y805997I-75620J-66569D01*
G01*
X2926760D1*
X2389223D2*
G02X2237982Y805997I-75620J-66569D01*
G01*
X2389223D1*
X1762052D2*
G02X1610811Y805997I-75620J-66569D01*
G01*
X1762052D1*
X1397829Y2201942D2*
X1897829D1*
Y1301942D1*
X1397829D1*
Y2201942D1*
X1997829D2*
X2497829D1*
Y1301942D1*
X1997829D1*
Y2201942D1*
X2597829D2*
X3097829D1*
Y1301942D1*
X2597829D1*
Y2201942D1*
X3197829D2*
X3697829D1*
Y1301942D1*
X3197829D1*
Y2201942D1*
X1016785Y2432345D2*
X953856D1*
X1016785Y2424896D2*
X953856D1*
X1016785D2*
Y2448455D1*
X953856Y2424896D2*
Y2448455D1*
X541762Y1807966D2*
X636251D1*
Y1634738D1*
X541762D1*
Y1807966D1*
X3131899Y698543D2*
Y722102D1*
X3068970Y698543D2*
Y722102D1*
X2572608Y702248D2*
Y725807D1*
X2509678Y702248D2*
Y725807D1*
X2024428Y691135D2*
Y714694D1*
X1961499Y691135D2*
Y714694D1*
X1410472Y665837D2*
Y689396D1*
X1347543Y665837D2*
Y689396D1*
X1336467Y2824172D2*
Y2847731D1*
X1273538Y2824172D2*
Y2847731D1*
X551446Y2986572D2*
Y3011873D1*
X651546Y2986572D2*
X551446D1*
X651546D2*
Y3011873D1*
X551446Y1911873D2*
Y1937173D1*
X651546D2*
X551446D1*
X651546Y1911873D2*
Y1937173D1*
X776496Y1911873D2*
X426496D1*
X776496Y3011873D2*
X426496D1*
X776496Y1911873D2*
Y3011873D1*
X456596Y2542173D2*
X426496D1*
X456596Y2381572D2*
Y2542173D1*
Y2381572D2*
X426496D1*
Y1911873D2*
Y2381572D1*
Y2542173D2*
Y3011873D1*
X452020Y1511336D2*
D19*
X779724D1*
Y713205D1*
X452020D1*
Y1511336D1*
G36*
X460846Y1133399D2*
X510841D1*
Y1058406D1*
X460846D1*
Y1133399D1*
G37*
X1151837Y3289453D2*
D12*
G02X1151837Y3289453I46869J0D01*
G01*
X1431695Y648668D2*
D58*
X1427893Y646767D1*
X1424046Y642920D1*
X1422145Y639117D1*
Y631468D1*
X1424046Y627621D1*
X1427893Y623819D1*
X1431695Y621873D1*
X1437443Y619972D1*
X1447038D1*
X1452742Y621873D1*
X1456589Y623819D1*
X1460391Y627621D1*
X1462337Y631468D1*
Y639117D1*
X1460391Y642920D1*
X1456589Y646767D1*
X1452742Y648668D1*
X1431739Y662965D2*
X1429838D1*
X1425991Y664866D1*
X1424090Y666767D1*
X1422189Y670614D1*
Y678263D1*
X1424090Y682066D1*
X1425991Y683967D1*
X1429838Y685913D1*
X1433641D1*
X1437488Y683967D1*
X1443191Y680165D1*
X1462337Y661019D1*
Y687814D1*
Y707815D2*
X1422189Y726960D1*
Y700165D1*
X2217846Y1174927D2*
X2215944Y1178729D1*
X2212098Y1182576D1*
X2208295Y1184477D1*
X2200646D1*
X2196799Y1182576D1*
X2192996Y1178729D1*
X2191051Y1174927D1*
X2189150Y1169179D1*
Y1159584D1*
X2191051Y1153880D1*
X2192996Y1150033D1*
X2196799Y1146231D1*
X2200646Y1144285D1*
X2208295D1*
X2212098Y1146231D1*
X2215944Y1150033D1*
X2217846Y1153880D1*
X2230197Y1176784D2*
X2234044Y1178729D1*
X2239792Y1184433D1*
Y1144285D1*
X2277037Y1171080D2*
X2275091Y1165332D1*
X2271289Y1161485D1*
X2265541Y1159584D1*
X2263639D1*
X2257891Y1161485D1*
X2254089Y1165332D1*
X2252143Y1171080D1*
Y1172981D1*
X2254089Y1178729D1*
X2257891Y1182532D1*
X2263639Y1184433D1*
X2265541D1*
X2271289Y1182532D1*
X2275091Y1178729D1*
X2277037Y1171080D1*
Y1161485D1*
X2275091Y1151935D1*
X2271289Y1146187D1*
X2265541Y1144285D1*
X2261738D1*
X2255990Y1146187D1*
X2254089Y1150033D1*
X2063027Y685400D2*
X2059225Y683499D1*
X2055378Y679652D1*
X2053477Y675850D1*
Y668200D1*
X2055378Y664354D1*
X2059225Y660551D1*
X2063027Y658606D1*
X2068775Y656704D1*
X2078370D1*
X2084074Y658606D1*
X2087921Y660551D1*
X2091723Y664354D1*
X2093669Y668200D1*
Y675850D1*
X2091723Y679652D1*
X2087921Y683499D1*
X2084074Y685400D1*
X2063072Y699697D2*
X2061170D1*
X2057323Y701598D1*
X2055422Y703500D1*
X2053521Y707346D1*
Y714996D1*
X2055422Y718798D1*
X2057323Y720699D1*
X2061170Y722645D1*
X2064973D1*
X2068820Y720699D1*
X2074523Y716897D1*
X2093669Y697751D1*
Y724546D1*
X2053521Y748394D2*
X2055422Y742646D1*
X2061170Y738799D1*
X2070721Y736898D1*
X2076469D1*
X2086019Y738799D1*
X2091767Y742646D1*
X2093669Y748394D1*
Y752196D1*
X2091767Y757944D1*
X2086019Y761747D1*
X2076469Y763692D1*
X2070721D1*
X2061170Y761747D1*
X2055422Y757944D1*
X2053521Y752196D1*
Y748394D1*
X2061170Y761747D2*
X2086019Y738799D1*
X2825166Y1174927D2*
X2823264Y1178729D1*
X2819418Y1182576D1*
X2815615Y1184477D1*
X2807966D1*
X2804119Y1182576D1*
X2800316Y1178729D1*
X2798371Y1174927D1*
X2796470Y1169179D1*
Y1159584D1*
X2798371Y1153880D1*
X2800316Y1150033D1*
X2804119Y1146231D1*
X2807966Y1144285D1*
X2815615D1*
X2819418Y1146231D1*
X2823264Y1150033D1*
X2825166Y1153880D1*
X2837517Y1176784D2*
X2841364Y1178729D1*
X2847112Y1184433D1*
Y1144285D1*
X2859463Y1176784D2*
X2863310Y1178729D1*
X2869058Y1184433D1*
Y1144285D1*
X2609748Y694000D2*
X2605945Y692099D1*
X2602098Y688252D1*
X2600197Y684450D1*
Y676800D1*
X2602098Y672953D1*
X2605945Y669151D1*
X2609748Y667205D1*
X2615496Y665304D1*
X2625091D1*
X2630794Y667205D1*
X2634641Y669151D1*
X2638444Y672953D1*
X2640389Y676800D1*
Y684449D1*
X2638444Y688252D1*
X2634641Y692099D1*
X2630794Y694000D1*
X2607891Y706351D2*
X2605945Y710198D1*
X2600241Y715946D1*
X2640389D1*
X2609792Y730243D2*
X2607891D1*
X2604044Y732144D1*
X2602143Y734046D1*
X2600241Y737892D1*
Y745542D1*
X2602143Y749344D1*
X2604044Y751246D1*
X2607891Y753191D1*
X2611693D1*
X2615540Y751246D1*
X2621244Y747443D1*
X2640389Y728298D1*
Y755092D1*
X1609597Y1174927D2*
X1607696Y1178729D1*
X1603849Y1182576D1*
X1600047Y1184477D1*
X1592397D1*
X1588551Y1182576D1*
X1584748Y1178729D1*
X1582803Y1174927D1*
X1580901Y1169179D1*
Y1159584D1*
X1582803Y1153880D1*
X1584748Y1150033D1*
X1588551Y1146231D1*
X1592397Y1144285D1*
X1600047D1*
X1603849Y1146231D1*
X1607696Y1150033D1*
X1609597Y1153880D1*
X1623894Y1174883D2*
Y1176784D1*
X1625795Y1180631D1*
X1627697Y1182532D1*
X1631543Y1184433D1*
X1639193D1*
X1642995Y1182532D1*
X1644897Y1180631D1*
X1646842Y1176784D1*
Y1172981D1*
X1644897Y1169135D1*
X1641094Y1163431D1*
X1621949Y1144285D1*
X1648743D1*
X1684043Y1178729D2*
X1682141Y1182532D1*
X1676393Y1184433D1*
X1672591D1*
X1666843Y1182532D1*
X1662996Y1176784D1*
X1661095Y1167233D1*
Y1157683D1*
X1662996Y1150033D1*
X1666843Y1146187D1*
X1672591Y1144285D1*
X1674492D1*
X1680196Y1146187D1*
X1684043Y1150033D1*
X1685944Y1155781D1*
Y1157683D1*
X1684043Y1163431D1*
X1680196Y1167233D1*
X1674492Y1169135D1*
X1672591D1*
X1666843Y1167233D1*
X1662996Y1163431D1*
X1661095Y1157683D1*
X3427209Y1174927D2*
X3425308Y1178729D1*
X3421461Y1182576D1*
X3417659Y1184477D1*
X3410009D1*
X3406163Y1182576D1*
X3402360Y1178729D1*
X3400415Y1174927D1*
X3398513Y1169179D1*
Y1159584D1*
X3400415Y1153880D1*
X3402360Y1150033D1*
X3406163Y1146231D1*
X3410009Y1144285D1*
X3417659D1*
X3421461Y1146231D1*
X3425308Y1150033D1*
X3427209Y1153880D1*
X3462509Y1184433D2*
X3443407D1*
X3441506Y1167233D1*
X3443407Y1169135D1*
X3449156Y1171080D1*
X3454859D1*
X3460607Y1169135D1*
X3464454Y1165332D1*
X3466355Y1159584D1*
Y1155781D1*
X3464454Y1150033D1*
X3460607Y1146187D1*
X3454859Y1144285D1*
X3449156D1*
X3443407Y1146187D1*
X3441506Y1148132D1*
X3439561Y1151935D1*
X3161489Y702886D2*
X3157687Y700984D1*
X3153840Y697138D1*
X3151939Y693335D1*
Y685686D1*
X3153840Y681839D1*
X3157687Y678036D1*
X3161489Y676091D1*
X3167237Y674190D1*
X3176832D1*
X3182536Y676091D1*
X3186383Y678036D1*
X3190185Y681839D1*
X3192131Y685686D1*
Y693335D1*
X3190185Y697137D1*
X3186383Y700984D1*
X3182536Y702886D1*
X3157687Y738185D2*
X3153884Y736284D1*
X3151983Y730536D1*
Y726733D1*
X3153884Y720985D1*
X3159632Y717138D1*
X3169183Y715237D1*
X3178733D1*
X3186383Y717138D1*
X3190229Y720985D1*
X3192131Y726733D1*
Y728634D1*
X3190229Y734338D1*
X3186383Y738185D1*
X3180635Y740086D1*
X3178733D1*
X3172985Y738185D1*
X3169183Y734338D1*
X3167281Y728634D1*
Y726733D1*
X3169183Y720985D1*
X3172985Y717138D1*
X3178733Y715237D1*
X1058752Y2829696D2*
X1054949Y2827795D1*
X1051102Y2823948D1*
X1049201Y2820146D1*
Y2812497D1*
X1051102Y2808650D1*
X1054949Y2804847D1*
X1058752Y2802902D1*
X1064500Y2801001D1*
X1074094D1*
X1079798Y2802902D1*
X1083645Y2804847D1*
X1087448Y2808650D1*
X1089393Y2812497D1*
Y2820146D1*
X1087448Y2823948D1*
X1083645Y2827795D1*
X1079798Y2829696D1*
X1056895Y2842048D2*
X1054949Y2845895D1*
X1049245Y2851643D1*
X1089393D1*
X1549262Y2691124D2*
X1547361Y2694926D1*
X1543514Y2698773D1*
X1539711Y2700674D1*
X1532062D1*
X1528215Y2698773D1*
X1524413Y2694926D1*
X1522467Y2691124D1*
X1520566Y2685376D1*
Y2675781D1*
X1522467Y2670077D1*
X1524413Y2666230D1*
X1528215Y2662428D1*
X1532062Y2660482D1*
X1539711D1*
X1543514Y2662428D1*
X1547361Y2666230D1*
X1549262Y2670077D1*
X1563559Y2691079D2*
Y2692981D1*
X1565460Y2696828D1*
X1567361Y2698729D1*
X1571208Y2700630D1*
X1578857D1*
X1582660Y2698729D1*
X1584561Y2696828D1*
X1586507Y2692981D1*
Y2689178D1*
X1584561Y2685331D1*
X1580759Y2679628D1*
X1561613Y2660482D1*
X1588408D1*
X1699170Y3099245D2*
Y3059053D1*
X1712567D1*
X1718315Y3060999D1*
X1722162Y3064801D1*
X1724063Y3068648D1*
X1725965Y3074352D1*
Y3083947D1*
X1724063Y3089695D1*
X1722162Y3093497D1*
X1718315Y3097344D1*
X1712567Y3099245D1*
X1699170D1*
X1761264Y3099201D2*
X1742163D1*
X1740262Y3082001D1*
X1742163Y3083902D1*
X1747911Y3085848D1*
X1753615D1*
X1759363Y3083902D1*
X1763210Y3080100D1*
X1765111Y3074352D1*
Y3070549D1*
X1763210Y3064801D1*
X1759363Y3060954D1*
X1753615Y3059053D1*
X1747911D1*
X1742163Y3060954D1*
X1740262Y3062900D1*
X1738316Y3066702D1*
X3484767Y3292943D2*
X3482866Y3296745D1*
X3479019Y3300592D1*
X3475217Y3302493D1*
X3467567D1*
X3463721Y3300592D1*
X3459918Y3296745D1*
X3457973Y3292943D1*
X3456071Y3287195D1*
Y3277600D1*
X3457973Y3271896D1*
X3459918Y3268049D1*
X3463721Y3264247D1*
X3467567Y3262301D1*
X3475217D1*
X3479019Y3264247D1*
X3482866Y3268049D1*
X3484767Y3271896D1*
X3500965Y3302449D2*
X3521968D1*
X3510516Y3287150D1*
X3516264D1*
X3520067Y3285249D1*
X3521968Y3283348D1*
X3523913Y3277600D1*
Y3273797D1*
X3521968Y3268049D1*
X3518165Y3264202D1*
X3512417Y3262301D1*
X3506669D1*
X3500965Y3264202D1*
X3499064Y3266148D1*
X3497119Y3269950D1*
X3545815Y3302449D2*
X3540112Y3300548D1*
X3538166Y3296745D1*
Y3292898D1*
X3540112Y3289096D1*
X3543914Y3287150D1*
X3551563Y3285249D1*
X3557311Y3283348D1*
X3561114Y3279501D1*
X3563015Y3275698D1*
Y3269950D1*
X3561114Y3266148D1*
X3559213Y3264202D1*
X3553465Y3262301D1*
X3545815D1*
X3540112Y3264202D1*
X3538166Y3266148D1*
X3536265Y3269950D1*
Y3275698D1*
X3538166Y3279501D1*
X3542013Y3283348D1*
X3547717Y3285249D1*
X3555366Y3287150D1*
X3559213Y3289096D1*
X3561114Y3292898D1*
Y3296745D1*
X3559213Y3300548D1*
X3553465Y3302449D1*
X3545815D1*
X3409755Y3151788D2*
X3413602Y3153734D1*
X3419350Y3159437D1*
Y3119290D1*
X3441252Y3159437D2*
X3435548Y3157536D1*
X3433602Y3153734D1*
Y3149887D1*
X3435548Y3146084D1*
X3439350Y3144139D1*
X3447000Y3142238D1*
X3452748Y3140336D1*
X3456550Y3136489D1*
X3458451Y3132687D1*
Y3126939D1*
X3456550Y3123136D1*
X3454649Y3121191D1*
X3448901Y3119290D1*
X3441252D1*
X3435548Y3121191D1*
X3433602Y3123136D1*
X3431701Y3126939D1*
Y3132687D1*
X3433602Y3136489D1*
X3437449Y3140336D1*
X3443153Y3142238D1*
X3450802Y3144139D1*
X3454649Y3146084D1*
X3456550Y3149887D1*
Y3153734D1*
X3454649Y3157536D1*
X3448901Y3159437D1*
X3441252D1*
X3482299D2*
X3476551Y3157536D1*
X3472704Y3151788D1*
X3470803Y3142238D1*
Y3136489D1*
X3472704Y3126939D1*
X3476551Y3121191D1*
X3482299Y3119290D1*
X3486101D1*
X3491849Y3121191D1*
X3495652Y3126939D1*
X3497597Y3136489D1*
Y3142238D1*
X3495652Y3151788D1*
X3491849Y3157536D1*
X3486101Y3159437D1*
X3482299D1*
X3495652Y3151788D2*
X3472704Y3126939D1*
X3521445Y3159437D2*
X3515697Y3157536D1*
X3511850Y3151788D1*
X3509949Y3142238D1*
Y3136489D1*
X3511850Y3126939D1*
X3515697Y3121191D1*
X3521445Y3119290D1*
X3525247D1*
X3530996Y3121191D1*
X3534798Y3126939D1*
X3536744Y3136489D1*
Y3142238D1*
X3534798Y3151788D1*
X3530996Y3157536D1*
X3525247Y3159437D1*
X3521445D1*
X3534798Y3151788D2*
X3511850Y3126939D1*
X3549095Y3146084D2*
Y3105892D1*
Y3140336D2*
X3552942Y3144139D1*
X3556744Y3146084D1*
X3562492D1*
X3566339Y3144139D1*
X3570142Y3140336D1*
X3572087Y3134588D1*
Y3130741D1*
X3570142Y3125038D1*
X3566339Y3121191D1*
X3562492Y3119290D1*
X3556744D1*
X3552942Y3121191D1*
X3549095Y3125038D1*
X3609332Y3159482D2*
X3584438D1*
Y3119290D1*
Y3140336D2*
X3599737D1*
X3272237Y3288761D2*
X3270335Y3292564D1*
X3266488Y3296411D1*
X3262686Y3298312D1*
X3255037D1*
X3251190Y3296411D1*
X3247387Y3292564D1*
X3245442Y3288761D1*
X3243541Y3283013D1*
Y3273419D1*
X3245442Y3267715D1*
X3247387Y3263868D1*
X3251190Y3260066D1*
X3255037Y3258120D1*
X3262686D1*
X3266488Y3260066D1*
X3270335Y3263868D1*
X3272237Y3267715D1*
X3288435Y3298268D2*
X3309437D1*
X3297985Y3282969D1*
X3303733D1*
X3307536Y3281068D1*
X3309437Y3279167D1*
X3311383Y3273419D1*
Y3269616D1*
X3309437Y3263868D1*
X3305635Y3260021D1*
X3299887Y3258120D1*
X3294139D1*
X3288435Y3260021D1*
X3286533Y3261967D1*
X3284588Y3265769D1*
X3348627Y3284915D2*
X3346682Y3279167D1*
X3342879Y3275320D1*
X3337131Y3273419D1*
X3335230D1*
X3329482Y3275320D1*
X3325679Y3279167D1*
X3323734Y3284915D1*
Y3286816D1*
X3325679Y3292564D1*
X3329482Y3296367D1*
X3335230Y3298268D1*
X3337131D1*
X3342879Y3296367D1*
X3346682Y3292564D1*
X3348627Y3284915D1*
Y3275320D1*
X3346682Y3265769D1*
X3342879Y3260021D1*
X3337131Y3258120D1*
X3333329D1*
X3327581Y3260021D1*
X3325679Y3263868D1*
X3230194Y3155256D2*
X3211093D1*
X3209192Y3138056D1*
X3211093Y3139958D1*
X3216841Y3141903D1*
X3222545D1*
X3228293Y3139958D1*
X3232140Y3136155D1*
X3234041Y3130407D1*
Y3126605D1*
X3232140Y3120857D1*
X3228293Y3117010D1*
X3222545Y3115108D1*
X3216841D1*
X3211093Y3117010D1*
X3209192Y3118955D1*
X3207246Y3122758D1*
X3248338Y3145706D2*
Y3147607D1*
X3250239Y3151454D1*
X3252141Y3153355D1*
X3255987Y3155256D1*
X3263637D1*
X3267439Y3153355D1*
X3269340Y3151454D1*
X3271286Y3147607D1*
Y3143804D1*
X3269340Y3139958D1*
X3265538Y3134254D1*
X3246392Y3115108D1*
X3273187D1*
X3297035Y3155256D2*
X3291287Y3153355D1*
X3287440Y3147607D1*
X3285539Y3138056D1*
Y3132308D1*
X3287440Y3122758D1*
X3291287Y3117010D1*
X3297035Y3115108D1*
X3300837D1*
X3306585Y3117010D1*
X3310388Y3122758D1*
X3312333Y3132308D1*
Y3138056D1*
X3310388Y3147607D1*
X3306585Y3153355D1*
X3300837Y3155256D1*
X3297035D1*
X3310388Y3147607D2*
X3287440Y3122758D1*
X3324685Y3141903D2*
Y3101711D1*
Y3136155D2*
X3328531Y3139958D1*
X3332334Y3141903D1*
X3338082D1*
X3341929Y3139958D1*
X3345731Y3136155D1*
X3347677Y3130407D1*
Y3126560D1*
X3345731Y3120857D1*
X3341929Y3117010D1*
X3338082Y3115108D1*
X3332334D1*
X3328531Y3117010D1*
X3324685Y3120857D1*
X3384922Y3155301D2*
X3360028D1*
Y3115108D1*
Y3136155D2*
X3375327D1*
X3046943Y3295033D2*
X3045042Y3298836D1*
X3041195Y3302682D1*
X3037392Y3304584D1*
X3029743D1*
X3025896Y3302682D1*
X3022094Y3298836D1*
X3020148Y3295033D1*
X3018247Y3289285D1*
Y3279690D1*
X3020148Y3273986D1*
X3022094Y3270140D1*
X3025896Y3266337D1*
X3029743Y3264392D1*
X3037392D1*
X3041195Y3266337D1*
X3045042Y3270140D1*
X3046943Y3273986D1*
X3078440Y3264392D2*
Y3304539D1*
X3059294Y3277789D1*
X3087990D1*
X3111838Y3304539D2*
X3106090Y3302638D1*
X3102243Y3296890D1*
X3100342Y3287340D1*
Y3281592D1*
X3102243Y3272041D1*
X3106090Y3266293D1*
X3111838Y3264392D1*
X3115640D1*
X3121388Y3266293D1*
X3125191Y3272041D1*
X3127136Y3281592D1*
Y3287340D1*
X3125191Y3296890D1*
X3121388Y3302638D1*
X3115640Y3304539D1*
X3111838D1*
X3125191Y3296890D2*
X3102243Y3272041D1*
X2972903Y3153879D2*
X2976750Y3155824D1*
X2982498Y3161528D1*
Y3121380D1*
X3004400Y3161528D2*
X2998696Y3159627D1*
X2996751Y3155824D1*
Y3151977D1*
X2998696Y3148175D1*
X3002499Y3146229D1*
X3010148Y3144328D1*
X3015896Y3142427D1*
X3019698Y3138580D1*
X3021600Y3134777D1*
Y3129029D1*
X3019698Y3125227D1*
X3017797Y3123281D1*
X3012049Y3121380D1*
X3004400D1*
X2998696Y3123281D1*
X2996751Y3125227D1*
X2994849Y3129029D1*
Y3134777D1*
X2996751Y3138580D1*
X3000597Y3142427D1*
X3006301Y3144328D1*
X3013950Y3146229D1*
X3017797Y3148175D1*
X3019698Y3151977D1*
Y3155824D1*
X3017797Y3159627D1*
X3012049Y3161528D1*
X3004400D1*
X3045447D2*
X3039699Y3159627D1*
X3035852Y3153879D1*
X3033951Y3144328D1*
Y3138580D1*
X3035852Y3129029D1*
X3039699Y3123281D1*
X3045447Y3121380D1*
X3049250D1*
X3054998Y3123281D1*
X3058800Y3129029D1*
X3060746Y3138580D1*
Y3144328D1*
X3058800Y3153879D1*
X3054998Y3159627D1*
X3049250Y3161528D1*
X3045447D1*
X3058800Y3153879D2*
X3035852Y3129029D1*
X3084593Y3161528D2*
X3078845Y3159627D1*
X3074998Y3153879D1*
X3073097Y3144328D1*
Y3138580D1*
X3074998Y3129029D1*
X3078845Y3123281D1*
X3084593Y3121380D1*
X3088396D1*
X3094144Y3123281D1*
X3097946Y3129029D1*
X3099892Y3138580D1*
Y3144328D1*
X3097946Y3153879D1*
X3094144Y3159627D1*
X3088396Y3161528D1*
X3084593D1*
X3097946Y3153879D2*
X3074998Y3129029D1*
X3112243Y3148175D2*
Y3107983D1*
Y3142427D2*
X3116090Y3146229D1*
X3119893Y3148175D1*
X3125641D1*
X3129487Y3146229D1*
X3133290Y3142427D1*
X3135235Y3136679D1*
Y3132832D1*
X3133290Y3127128D1*
X3129487Y3123281D1*
X3125641Y3121380D1*
X3119893D1*
X3116090Y3123281D1*
X3112243Y3127128D1*
X3172480Y3161572D2*
X3147587D1*
Y3121380D1*
Y3142427D2*
X3162885D1*
X1609019Y1316807D2*
Y1276615D1*
X1622416D1*
X1628164Y1278560D1*
X1632011Y1282363D1*
X1633912Y1286210D1*
X1635813Y1291913D1*
Y1301508D1*
X1633912Y1307256D1*
X1632011Y1311059D1*
X1628164Y1314906D1*
X1622416Y1316807D1*
X1609019D1*
X1667310Y1276615D2*
Y1316763D1*
X1648165Y1290012D1*
X1676861D1*
X2209640Y1316807D2*
Y1276615D1*
X2223037D1*
X2228785Y1278560D1*
X2232632Y1282363D1*
X2234533Y1286210D1*
X2236435Y1291913D1*
Y1301508D1*
X2234533Y1307256D1*
X2232632Y1311059D1*
X2228785Y1314906D1*
X2223037Y1316807D1*
X2209640D1*
X2252633Y1316763D2*
X2273635D1*
X2262183Y1301464D1*
X2267931D1*
X2271734Y1299563D1*
X2273635Y1297661D1*
X2275581Y1291913D1*
Y1288111D1*
X2273635Y1282363D1*
X2269833Y1278516D1*
X2264085Y1276615D1*
X2258337D1*
X2252633Y1278516D1*
X2250731Y1280462D1*
X2248786Y1284264D1*
X2809310Y1316807D2*
Y1276615D1*
X2822708D1*
X2828456Y1278560D1*
X2832303Y1282363D1*
X2834204Y1286210D1*
X2836105Y1291913D1*
Y1301508D1*
X2834204Y1307256D1*
X2832303Y1311059D1*
X2828456Y1314906D1*
X2822708Y1316807D1*
X2809310D1*
X2850402Y1307212D2*
Y1309113D1*
X2852303Y1312960D1*
X2854205Y1314861D1*
X2858051Y1316763D1*
X2865701D1*
X2869503Y1314861D1*
X2871404Y1312960D1*
X2873350Y1309113D1*
Y1305311D1*
X2871404Y1301464D1*
X2867602Y1295760D1*
X2848457Y1276615D1*
X2875251D1*
X3417581Y1316807D2*
Y1276615D1*
X3430978D1*
X3436726Y1278560D1*
X3440573Y1282363D1*
X3442474Y1286210D1*
X3444376Y1291913D1*
Y1301508D1*
X3442474Y1307256D1*
X3440573Y1311059D1*
X3436726Y1314906D1*
X3430978Y1316807D1*
X3417581D1*
X3456727Y1309113D2*
X3460574Y1311059D1*
X3466322Y1316763D1*
Y1276615D1*
X1461411Y2712945D2*
X1457608Y2711088D1*
X1453761Y2707241D1*
X1451860Y2703394D1*
X1449915Y2697646D1*
Y2688095D1*
X1451860Y2682347D1*
X1453761Y2678545D1*
X1457608Y2674698D1*
X1461411Y2672797D1*
X1469060D1*
X1472907Y2674698D1*
X1476709Y2678545D1*
X1478611Y2682347D1*
X1480556Y2688095D1*
Y2697646D1*
X1478611Y2703394D1*
X1476709Y2707241D1*
X1472907Y2711088D1*
X1469060Y2712945D1*
X1461411D1*
X1467159Y2680446D2*
X1478611Y2668950D1*
X1515855Y2712900D2*
X1496754D1*
X1494853Y2695701D1*
X1496754Y2697602D1*
X1502502Y2699547D1*
X1508206D1*
X1513954Y2697602D1*
X1517801Y2693799D1*
X1519702Y2688051D1*
Y2684249D1*
X1517801Y2678501D1*
X1513954Y2674654D1*
X1508206Y2672753D1*
X1502502D1*
X1496754Y2674654D1*
X1494853Y2676599D1*
X1492907Y2680402D1*
X2257480Y3049535D2*
Y3020839D1*
X2259381Y3015091D1*
X2263228Y3011289D1*
X2268976Y3009343D1*
X2272778D1*
X2278526Y3011289D1*
X2282373Y3015091D1*
X2284274Y3020839D1*
Y3049535D1*
X2319574Y3049491D2*
X2300473D1*
X2298571Y3032291D1*
X2300473Y3034192D1*
X2306221Y3036138D1*
X2311924D1*
X2317672Y3034192D1*
X2321519Y3030390D1*
X2323420Y3024642D1*
Y3020839D1*
X2321519Y3015091D1*
X2317672Y3011244D1*
X2311924Y3009343D1*
X2306221D1*
X2300473Y3011244D1*
X2298571Y3013190D1*
X2296626Y3016992D1*
X2945324Y2719545D2*
X2985516D1*
Y2742493D1*
X2954919Y2756790D2*
X2953018D1*
X2949171Y2758691D1*
X2947270Y2760592D1*
X2945369Y2764439D1*
Y2772088D1*
X2947270Y2775891D1*
X2949171Y2777792D1*
X2953018Y2779738D1*
X2956821D1*
X2960667Y2777792D1*
X2966371Y2773990D1*
X2985516Y2754844D1*
Y2781639D1*
Y2813136D2*
X2945369D1*
X2972119Y2793990D1*
Y2822686D1*
X3259370Y2723064D2*
X3299562D1*
Y2746012D1*
X3268965Y2760309D2*
X3267064D1*
X3263217Y2762210D1*
X3261316Y2764111D1*
X3259415Y2767958D1*
Y2775607D1*
X3261316Y2779410D1*
X3263217Y2781311D1*
X3267064Y2783256D1*
X3270866D1*
X3274713Y2781311D1*
X3280417Y2777508D1*
X3299562Y2758363D1*
Y2785158D1*
X3259415Y2820457D2*
Y2801356D1*
X3276615Y2799455D1*
X3274713Y2801356D1*
X3272768Y2807104D1*
Y2812808D1*
X3274713Y2818556D1*
X3278516Y2822402D1*
X3284264Y2824304D1*
X3288066D1*
X3293814Y2822402D1*
X3297661Y2818556D1*
X3299562Y2812808D1*
Y2807104D1*
X3297661Y2801356D1*
X3295716Y2799455D1*
X3291913Y2797509D1*
X3418696Y625113D2*
X3414893Y623256D1*
X3411046Y619410D1*
X3409145Y615563D1*
X3407200Y609815D1*
Y600264D1*
X3409145Y594516D1*
X3411046Y590714D1*
X3414893Y586867D1*
X3418696Y584966D1*
X3426345D1*
X3430192Y586867D1*
X3433994Y590714D1*
X3435896Y594516D1*
X3437841Y600264D1*
Y609815D1*
X3435896Y615563D1*
X3433994Y619410D1*
X3430192Y623256D1*
X3426345Y625113D1*
X3418696D1*
X3424444Y592615D2*
X3435896Y581119D1*
X3450192Y617420D2*
X3454039Y619365D1*
X3459787Y625069D1*
Y584921D1*
X2827741Y625113D2*
X2823939Y623256D1*
X2820092Y619410D1*
X2818191Y615563D1*
X2816245Y609815D1*
Y600264D1*
X2818191Y594516D1*
X2820092Y590714D1*
X2823939Y586867D1*
X2827741Y584966D1*
X2835391D1*
X2839237Y586867D1*
X2843040Y590714D1*
X2844941Y594516D1*
X2846887Y600264D1*
Y609815D1*
X2844941Y615563D1*
X2843040Y619410D1*
X2839237Y623256D1*
X2835391Y625113D1*
X2827741D1*
X2833489Y592615D2*
X2844941Y581119D1*
X2861184Y615519D2*
Y617420D1*
X2863085Y621267D1*
X2864986Y623168D1*
X2868833Y625069D1*
X2876482D1*
X2880285Y623168D1*
X2882186Y621267D1*
X2884132Y617420D1*
Y613617D1*
X2882186Y609771D1*
X2878384Y604067D1*
X2859238Y584921D1*
X2886033D1*
X2290205Y625113D2*
X2286402Y623256D1*
X2282555Y619410D1*
X2280654Y615563D1*
X2278709Y609815D1*
Y600264D1*
X2280654Y594516D1*
X2282555Y590714D1*
X2286402Y586867D1*
X2290205Y584966D1*
X2297854D1*
X2301701Y586867D1*
X2305503Y590714D1*
X2307405Y594516D1*
X2309350Y600264D1*
Y609815D1*
X2307405Y615563D1*
X2305503Y619410D1*
X2301701Y623256D1*
X2297854Y625113D1*
X2290205D1*
X2295953Y592615D2*
X2307405Y581119D1*
X2325548Y625069D2*
X2346551D1*
X2335099Y609771D1*
X2340847D1*
X2344649Y607869D1*
X2346551Y605968D1*
X2348496Y600220D1*
Y596418D1*
X2346551Y590670D1*
X2342748Y586823D1*
X2337000Y584921D1*
X2331252D1*
X2325548Y586823D1*
X2323647Y588768D1*
X2321701Y592571D1*
X1662083Y625113D2*
X1658281Y623256D1*
X1654434Y619410D1*
X1652533Y615563D1*
X1650587Y609815D1*
Y600264D1*
X1652533Y594516D1*
X1654434Y590714D1*
X1658281Y586867D1*
X1662083Y584966D1*
X1669733D1*
X1673580Y586867D1*
X1677382Y590714D1*
X1679283Y594516D1*
X1681229Y600264D1*
Y609815D1*
X1679283Y615563D1*
X1677382Y619410D1*
X1673580Y623256D1*
X1669733Y625113D1*
X1662083D1*
X1667831Y592615D2*
X1679283Y581119D1*
X1712726Y584921D2*
Y625069D1*
X1693580Y598319D1*
X1722276D1*
X1623459Y2260521D2*
Y2231825D1*
X1625360Y2226077D1*
X1629207Y2222274D1*
X1634955Y2220329D1*
X1638758D1*
X1644506Y2222274D1*
X1648352Y2226077D1*
X1650254Y2231825D1*
Y2260521D1*
X1662605Y2252827D2*
X1666452Y2254773D1*
X1672200Y2260477D1*
Y2220329D1*
X2214859Y2260521D2*
Y2231825D1*
X2216760Y2226077D1*
X2220607Y2222274D1*
X2226355Y2220329D1*
X2230158D1*
X2235906Y2222274D1*
X2239752Y2226077D1*
X2241654Y2231825D1*
Y2260521D1*
X2255951Y2250926D2*
Y2252827D1*
X2257852Y2256674D1*
X2259753Y2258575D1*
X2263600Y2260477D1*
X2271249D1*
X2275052Y2258575D1*
X2276953Y2256674D1*
X2278898Y2252827D1*
Y2249025D1*
X2276953Y2245178D1*
X2273150Y2239474D1*
X2254005Y2220329D1*
X2280800D1*
X2814859Y2260521D2*
Y2231825D1*
X2816760Y2226077D1*
X2820607Y2222274D1*
X2826355Y2220329D1*
X2830158D1*
X2835906Y2222274D1*
X2839752Y2226077D1*
X2841654Y2231825D1*
Y2260521D1*
X2857852Y2260477D2*
X2878854D1*
X2867402Y2245178D1*
X2873150D1*
X2876953Y2243277D1*
X2878854Y2241375D1*
X2880800Y2235627D1*
Y2231825D1*
X2878854Y2226077D1*
X2875052Y2222230D1*
X2869304Y2220329D1*
X2863556D1*
X2857852Y2222230D1*
X2855951Y2224175D1*
X2854005Y2227978D1*
X3413908Y2260521D2*
Y2231825D1*
X3415810Y2226077D1*
X3419656Y2222274D1*
X3425404Y2220329D1*
X3429207D1*
X3434955Y2222274D1*
X3438802Y2226077D1*
X3440703Y2231825D1*
Y2260521D1*
X3472200Y2220329D2*
Y2260477D1*
X3453054Y2233726D1*
X3481750D1*
X900859Y2400905D2*
X897057Y2399003D1*
X893210Y2395157D1*
X891309Y2391354D1*
Y2383705D1*
X893210Y2379858D1*
X897057Y2376056D1*
X900859Y2374110D1*
X906607Y2372209D1*
X916202D1*
X921906Y2374110D1*
X925753Y2376056D1*
X929555Y2379858D1*
X931501Y2383705D1*
Y2391354D1*
X929555Y2395157D1*
X925753Y2399003D1*
X921906Y2400905D1*
X899002Y2413256D2*
X897057Y2417103D1*
X891353Y2422851D1*
X931501D1*
X891353Y2446698D2*
X893254Y2440950D1*
X899002Y2437104D1*
X908553Y2435202D1*
X914301D1*
X923851Y2437104D1*
X929599Y2440950D1*
X931501Y2446698D1*
Y2450501D1*
X929599Y2456249D1*
X923851Y2460051D1*
X914301Y2461997D1*
X908553D1*
X899002Y2460051D1*
X893254Y2456249D1*
X891353Y2450501D1*
Y2446698D1*
X899002Y2460051D2*
X923851Y2437104D1*
X891353Y2485844D2*
X893254Y2480096D1*
X899002Y2476250D1*
X908553Y2474348D1*
X914301D1*
X923851Y2476250D1*
X929599Y2480096D1*
X931501Y2485844D1*
Y2489647D1*
X929599Y2495395D1*
X923851Y2499198D1*
X914301Y2501143D1*
X908553D1*
X899002Y2499198D1*
X893254Y2495395D1*
X891353Y2489647D1*
Y2485844D1*
X899002Y2499198D2*
X923851Y2476250D1*
X1034364Y2380381D2*
X1036266Y2374633D1*
X1042014Y2370786D1*
X1051564Y2368885D1*
X1057312D1*
X1066863Y2370786D1*
X1072611Y2374633D1*
X1074512Y2380381D1*
Y2384184D1*
X1072611Y2389932D1*
X1066863Y2393734D1*
X1057312Y2395680D1*
X1051564D1*
X1042014Y2393734D1*
X1036266Y2389932D1*
X1034364Y2384184D1*
Y2380381D1*
X1042014Y2393734D2*
X1066863Y2370786D1*
X1070666Y2409932D2*
X1072611Y2408031D1*
X1074512Y2409932D1*
X1072611Y2411878D1*
X1070666Y2409932D1*
X1042014Y2424229D2*
X1040068Y2428076D1*
X1034365Y2433824D1*
X1074512D1*
X1047718Y2446175D2*
X1066863D1*
X1072567Y2448077D1*
X1074512Y2451923D1*
Y2457671D1*
X1072567Y2461474D1*
X1066863Y2467222D1*
X1047718D2*
X1074512D1*
X1034320Y2504467D2*
Y2479573D1*
X1074512D1*
X1053466D2*
Y2494872D1*
X579006Y1866544D2*
Y1835947D1*
X577105Y1830199D1*
X575159Y1828298D1*
X571357Y1826352D1*
X567510D1*
X563708Y1828298D1*
X561806Y1830199D1*
X559861Y1835947D1*
Y1839750D1*
X593303Y1856950D2*
Y1858851D1*
X595204Y1862698D1*
X597106Y1864599D1*
X600952Y1866500D1*
X608602D1*
X612404Y1864599D1*
X614306Y1862698D1*
X616251Y1858851D1*
Y1855048D1*
X614306Y1851202D1*
X610503Y1845498D1*
X591358Y1826352D1*
X618152D1*
X3025568Y685953D2*
Y703152D1*
X3023623Y708900D1*
X3021722Y710846D1*
X3017919Y712747D1*
X3014072D1*
X3010270Y710846D1*
X3008324Y708900D1*
X3006423Y703152D1*
Y685953D1*
X3046615D1*
X3025568Y699350D2*
X3046615Y712747D1*
X3014116Y725099D2*
X3012171Y728945D1*
X3006467Y734693D1*
X3046615D1*
X2466277Y681057D2*
Y698257D1*
X2464331Y704005D1*
X2462430Y705951D1*
X2458628Y707852D1*
X2454781D1*
X2450978Y705951D1*
X2449033Y704005D1*
X2447132Y698257D1*
Y681057D1*
X2487324D1*
X2466277Y694455D2*
X2487324Y707852D1*
X2456726Y722149D2*
X2454825D1*
X2450978Y724050D1*
X2449077Y725951D1*
X2447176Y729798D1*
Y737447D1*
X2449077Y741250D1*
X2450978Y743151D1*
X2454825Y745097D1*
X2458628D1*
X2462474Y743151D1*
X2468178Y739349D1*
X2487324Y720203D1*
Y746998D1*
X1918097Y669944D2*
Y687144D1*
X1916152Y692892D1*
X1914250Y694838D1*
X1910448Y696739D1*
X1906601D1*
X1902799Y694838D1*
X1900853Y692892D1*
X1898952Y687144D1*
Y669944D1*
X1939144D1*
X1918097Y683342D2*
X1939144Y696739D1*
X1898996Y712937D2*
Y733940D1*
X1914295Y722488D1*
Y728236D1*
X1916196Y732038D1*
X1918097Y733940D1*
X1923845Y735885D1*
X1927648D1*
X1933396Y733940D1*
X1937242Y730137D1*
X1939144Y724389D1*
Y718641D1*
X1937243Y712937D1*
X1935297Y711036D1*
X1931494Y709090D1*
X1304142Y643696D2*
Y660896D1*
X1302196Y666644D1*
X1300295Y668589D1*
X1296492Y670491D1*
X1292646D1*
X1288843Y668589D1*
X1286898Y666644D1*
X1284996Y660896D1*
Y643696D1*
X1325188D1*
X1304142Y657093D2*
X1325188Y670490D1*
Y701987D2*
X1285041D1*
X1311791Y682842D1*
Y711538D1*
X1230136Y2802981D2*
X1230137Y2820181D1*
X1228191Y2825929D1*
X1226290Y2827875D1*
X1222487Y2829776D1*
X1218640D1*
X1214838Y2827875D1*
X1212892Y2825929D1*
X1210991Y2820181D1*
Y2802981D1*
X1251183D1*
X1230137Y2816379D2*
X1251183Y2829776D1*
X1211035Y2865075D2*
Y2845974D1*
X1228235Y2844073D1*
X1226334Y2845974D1*
X1224388Y2851722D1*
Y2857426D1*
X1226334Y2863174D1*
X1230137Y2867021D1*
X1235885Y2868922D1*
X1239687D1*
X1245435Y2867021D1*
X1249282Y2863174D1*
X1251183Y2857426D1*
Y2851722D1*
X1249282Y2845974D1*
X1247336Y2844073D1*
X1243534Y2842127D1*
X1905074Y2360012D2*
D59*
Y2299724D1*
X1923601Y2339916D2*
Y2299724D1*
Y2328442D2*
X1932223Y2337064D1*
X1937993Y2339916D1*
X1946549D1*
X1952319Y2337064D1*
X1955171Y2328442D1*
Y2299724D1*
X1922660Y1004102D2*
D58*
X1918813Y1002201D1*
X1915011Y998354D1*
X1913065Y994552D1*
X1911164Y988804D1*
Y979209D1*
X1913065Y973505D1*
X1915011Y969658D1*
X1918813Y965856D1*
X1922660Y963910D1*
X1930309D1*
X1934112Y965856D1*
X1937959Y969658D1*
X1939860Y973505D1*
X1941761Y979209D1*
Y988804D1*
X1939860Y994552D1*
X1937959Y998354D1*
X1934112Y1002201D1*
X1930309Y1004102D1*
X1922660D1*
X1954113Y990705D2*
Y971560D1*
X1956014Y965856D1*
X1959861Y963910D1*
X1965609D1*
X1969411Y965856D1*
X1975159Y971560D1*
Y990705D2*
Y963910D1*
X1993259Y1004102D2*
Y971560D1*
X1995160Y965856D1*
X1999007Y963910D1*
X2002809D1*
X1987511Y990705D2*
X2000908D1*
X1571645Y2413594D2*
D59*
X1563090Y2410742D1*
X1560171Y2405038D1*
Y2399268D1*
X1563090Y2393564D1*
X1568793Y2390646D1*
X1580267Y2387794D1*
X1588889Y2384942D1*
X1594593Y2379172D1*
X1597445Y2373468D1*
Y2364846D1*
X1594593Y2359142D1*
X1591741Y2356224D1*
X1583119Y2353372D1*
X1571645D1*
X1563090Y2356224D1*
X1560171Y2359142D1*
X1557319Y2364846D1*
Y2373468D1*
X1560171Y2379172D1*
X1565941Y2384942D1*
X1574497Y2387794D1*
X1585971Y2390646D1*
X1591741Y2393564D1*
X1594593Y2399268D1*
Y2405038D1*
X1591741Y2410742D1*
X1583119Y2413594D1*
X1571645D1*
X1633216D2*
X1624594Y2410742D1*
X1618824Y2402120D1*
X1615972Y2387794D1*
Y2379172D1*
X1618824Y2364846D1*
X1624594Y2356224D1*
X1633216Y2353372D1*
X1638920D1*
X1647542Y2356224D1*
X1653246Y2364846D1*
X1656164Y2379172D1*
Y2387794D1*
X1653246Y2402120D1*
X1647542Y2410742D1*
X1638920Y2413594D1*
X1633216D1*
X1653246Y2402120D2*
X1618824Y2364846D1*
X1720587Y2353372D2*
Y2413660D1*
X1697639Y2353372D1*
X1674691Y2413660D1*
Y2353372D1*
X2147624Y2359337D2*
Y2419558D1*
X2118906Y2379433D1*
X2161950D1*
X2197721Y2419558D2*
X2189099Y2416706D1*
X2183329Y2408084D1*
X2180477Y2393758D1*
Y2385136D1*
X2183329Y2370811D1*
X2189099Y2362189D1*
X2197721Y2359337D1*
X2203425D1*
X2212047Y2362189D1*
X2217751Y2370811D1*
X2220669Y2385136D1*
Y2393758D1*
X2217751Y2408084D1*
X2212047Y2416706D1*
X2203425Y2419558D1*
X2197721D1*
X2217751Y2408084D2*
X2183329Y2370811D1*
X2285092Y2359337D2*
Y2419625D1*
X2262144Y2359337D1*
X2239196Y2419625D1*
Y2359337D1*
X2740057Y2405232D2*
Y2408084D1*
X2742908Y2413854D1*
X2745760Y2416706D1*
X2751531Y2419558D1*
X2763004D1*
X2768708Y2416706D1*
X2771560Y2413854D1*
X2774478Y2408084D1*
Y2402381D1*
X2771560Y2396610D1*
X2765856Y2388055D1*
X2737138Y2359337D1*
X2777330D1*
X2813102Y2419558D2*
X2804479Y2416706D1*
X2798709Y2408084D1*
X2795857Y2393758D1*
Y2385136D1*
X2798709Y2370811D1*
X2804479Y2362189D1*
X2813102Y2359337D1*
X2818805D1*
X2827427Y2362189D1*
X2833131Y2370811D1*
X2836049Y2385136D1*
Y2393758D1*
X2833131Y2408084D1*
X2827427Y2416706D1*
X2818805Y2419558D1*
X2813102D1*
X2833131Y2408084D2*
X2798709Y2370811D1*
X2900472Y2359337D2*
Y2419625D1*
X2877524Y2359337D1*
X2854577Y2419625D1*
Y2359337D1*
X3351570Y2408084D2*
X3357340Y2411003D1*
X3365962Y2419558D1*
Y2359337D1*
X3418911Y2419558D2*
X3390260D1*
X3387408Y2393758D1*
X3390260Y2396610D1*
X3398882Y2399529D1*
X3407437D1*
X3416059Y2396610D1*
X3421829Y2390907D1*
X3424681Y2382285D1*
Y2376581D1*
X3421829Y2367959D1*
X3416059Y2362189D1*
X3407437Y2359337D1*
X3398882D1*
X3390260Y2362189D1*
X3387408Y2365107D1*
X3384489Y2370811D1*
X3489104Y2359337D2*
Y2419625D1*
X3466156Y2359337D1*
X3443208Y2419625D1*
Y2359337D1*
X3931600Y2408084D2*
X3937370Y2411003D1*
X3945992Y2419558D1*
Y2359337D1*
X3981764Y2419558D2*
X3973142Y2416706D1*
X3967371Y2408084D1*
X3964520Y2393758D1*
Y2385136D1*
X3967371Y2370811D1*
X3973142Y2362189D1*
X3981764Y2359337D1*
X3987467D1*
X3996090Y2362189D1*
X4001793Y2370811D1*
X4004712Y2385136D1*
Y2393758D1*
X4001793Y2408084D1*
X3996090Y2416706D1*
X3987467Y2419558D1*
X3981764D1*
X4001793Y2408084D2*
X3967371Y2370811D1*
X4069134Y2359337D2*
Y2419625D1*
X4046187Y2359337D1*
X4023239Y2419625D1*
Y2359337D1*
X1368083Y2368380D2*
D60*
X1365706Y2373133D1*
X1360898Y2377942D1*
X1356145Y2380318D1*
X1346583D1*
X1341774Y2377942D1*
X1337021Y2373133D1*
X1334589Y2368380D1*
X1332213Y2361195D1*
Y2349201D1*
X1334589Y2342072D1*
X1337021Y2337263D1*
X1341774Y2332510D1*
X1346583Y2330078D1*
X1356145D1*
X1360898Y2332510D1*
X1365706Y2337263D1*
X1368083Y2342072D1*
Y2349201D1*
X1356145D1*
X1383522Y2363572D2*
Y2330078D1*
Y2354010D2*
X1390707Y2361195D1*
X1395515Y2363572D1*
X1402645D1*
X1407454Y2361195D1*
X1409830Y2354010D1*
Y2330078D1*
X1453954Y2380318D2*
Y2330078D1*
Y2356387D2*
X1449201Y2361195D1*
X1444393Y2363572D1*
X1437208D1*
X1432455Y2361195D1*
X1427646Y2356387D1*
X1425270Y2349201D1*
Y2344448D1*
X1427646Y2337263D1*
X1432455Y2332510D1*
X1437208Y2330078D1*
X1444393D1*
X1449201Y2332510D1*
X1453954Y2337263D1*
X1472290Y937880D2*
D58*
X1470389Y941682D1*
X1466542Y945529D1*
X1462740Y947430D1*
X1455090D1*
X1451244Y945529D1*
X1447441Y941682D1*
X1445496Y937880D1*
X1443594Y932132D1*
Y922537D1*
X1445496Y916833D1*
X1447441Y912986D1*
X1451244Y909184D1*
X1455090Y907238D1*
X1462740D1*
X1466542Y909184D1*
X1470389Y912986D1*
X1472290Y916833D1*
Y922537D1*
X1462740D1*
X1484642Y934033D2*
Y907238D1*
Y926384D2*
X1490390Y932132D1*
X1494237Y934033D1*
X1499940D1*
X1503787Y932132D1*
X1505688Y926384D1*
Y907238D1*
X1540988Y947430D2*
Y907238D1*
Y928285D2*
X1537185Y932132D1*
X1533338Y934033D1*
X1527590D1*
X1523788Y932132D1*
X1519941Y928285D1*
X1518040Y922537D1*
Y918734D1*
X1519941Y912986D1*
X1523788Y909184D1*
X1527590Y907238D1*
X1533338D1*
X1537185Y909184D1*
X1540988Y912986D1*
X2093296Y937880D2*
X2091394Y941682D1*
X2087548Y945529D1*
X2083745Y947430D1*
X2076096D1*
X2072249Y945529D1*
X2068446Y941682D1*
X2066501Y937880D1*
X2064600Y932132D1*
Y922537D1*
X2066501Y916833D1*
X2068446Y912986D1*
X2072249Y909184D1*
X2076096Y907238D1*
X2083745D1*
X2087548Y909184D1*
X2091394Y912986D1*
X2093296Y916833D1*
Y922537D1*
X2083745D1*
X2105647Y934033D2*
Y907238D1*
Y926384D2*
X2111395Y932132D1*
X2115242Y934033D1*
X2120946D1*
X2124792Y932132D1*
X2126694Y926384D1*
Y907238D1*
X2161993Y947430D2*
Y907238D1*
Y928285D2*
X2158190Y932132D1*
X2154344Y934033D1*
X2148596D1*
X2144793Y932132D1*
X2140946Y928285D1*
X2139045Y922537D1*
Y918734D1*
X2140946Y912986D1*
X2144793Y909184D1*
X2148596Y907238D1*
X2154344D1*
X2158190Y909184D1*
X2161993Y912986D1*
X2377310Y838824D2*
D61*
Y868968D1*
X2367262D1*
X2362951Y867508D1*
X2360066Y864657D1*
X2358640Y861771D1*
X2357214Y857494D1*
Y850298D1*
X2358640Y845986D1*
X2360066Y843135D1*
X2362951Y840250D1*
X2367262Y838824D1*
X2377310D1*
X2300397Y845986D2*
X2301823Y843135D1*
X2304708Y840250D1*
X2307560Y838824D1*
X2313297D1*
X2316182Y840249D1*
X2319034Y843135D1*
X2320493Y845986D1*
X2321919Y850297D1*
Y857494D1*
X2320493Y861771D1*
X2319034Y864657D1*
X2316182Y867508D1*
X2313297Y868968D1*
X2307560D1*
X2304708Y867508D1*
X2301823Y864657D1*
X2300397Y861771D1*
Y857494D1*
X2307560D1*
X1754033Y838824D2*
Y868968D1*
X1743985D1*
X1739674Y867508D1*
X1736789Y864657D1*
X1735363Y861771D1*
X1733937Y857494D1*
Y850298D1*
X1735363Y845986D1*
X1736789Y843135D1*
X1739674Y840250D1*
X1743985Y838824D1*
X1754033D1*
X1681015Y845986D2*
X1682441Y843135D1*
X1685326Y840250D1*
X1688178Y838824D1*
X1693915D1*
X1696800Y840249D1*
X1699652Y843135D1*
X1701111Y845986D1*
X1702537Y850297D1*
Y857494D1*
X1701111Y861771D1*
X1699652Y864657D1*
X1696800Y867508D1*
X1693915Y868968D1*
X1688178D1*
X1685326Y867508D1*
X1682441Y864657D1*
X1681015Y861771D1*
Y857494D1*
X1688178D1*
X1627462Y843135D2*
X1630314Y840250D1*
X1634625Y838824D1*
X1640362D1*
X1644673Y840249D1*
X1647558Y843135D1*
Y845986D1*
X1646099Y848872D1*
X1644673Y850297D1*
X1641821Y851723D1*
X1633199Y854609D1*
X1630314Y856035D1*
X1628888Y857494D1*
X1627462Y860346D1*
Y864657D1*
X1630314Y867508D1*
X1634625Y868968D1*
X1640362D1*
X1644673Y867508D1*
X1647558Y864656D1*
X2252036Y843135D2*
X2254887Y840250D1*
X2259198Y838824D1*
X2264935D1*
X2269246Y840249D1*
X2272131Y843135D1*
Y845986D1*
X2270672Y848872D1*
X2269246Y850297D1*
X2266395Y851723D1*
X2257772Y854609D1*
X2254887Y856035D1*
X2253461Y857494D1*
X2252036Y860346D1*
Y864657D1*
X2254887Y867508D1*
X2259198Y868968D1*
X2264935D1*
X2269246Y867508D1*
X2272131Y864656D1*
X2680907Y937880D2*
D58*
X2679006Y941682D1*
X2675159Y945529D1*
X2671357Y947430D1*
X2663707D1*
X2659861Y945529D1*
X2656058Y941682D1*
X2654112Y937880D1*
X2652211Y932132D1*
Y922537D1*
X2654112Y916833D1*
X2656058Y912986D1*
X2659861Y909184D1*
X2663707Y907238D1*
X2671357D1*
X2675159Y909184D1*
X2679006Y912986D1*
X2680907Y916833D1*
Y922537D1*
X2671357D1*
X2693259Y934033D2*
Y907238D1*
Y926384D2*
X2699007Y932132D1*
X2702853Y934033D1*
X2708557D1*
X2712404Y932132D1*
X2714305Y926384D1*
Y907238D1*
X2749604Y947430D2*
Y907238D1*
Y928285D2*
X2745802Y932132D1*
X2741955Y934033D1*
X2736207D1*
X2732405Y932132D1*
X2728558Y928285D1*
X2726657Y922537D1*
Y918734D1*
X2728558Y912986D1*
X2732405Y909184D1*
X2736207Y907238D1*
X2741955D1*
X2745802Y909184D1*
X2749604Y912986D1*
X2913677Y838824D2*
D61*
Y868968D1*
X2903629D1*
X2899318Y867508D1*
X2896433Y864657D1*
X2895007Y861771D1*
X2893581Y857494D1*
Y850298D1*
X2895007Y845986D1*
X2896433Y843135D1*
X2899318Y840250D1*
X2903629Y838824D1*
X2913677D1*
X2840010Y845986D2*
X2841436Y843135D1*
X2844321Y840250D1*
X2847173Y838824D1*
X2852910D1*
X2855795Y840249D1*
X2858647Y843135D1*
X2860106Y845986D1*
X2861532Y850297D1*
Y857494D1*
X2860106Y861771D1*
X2858647Y864657D1*
X2855795Y867508D1*
X2852910Y868968D1*
X2847173D1*
X2844321Y867508D1*
X2841436Y864657D1*
X2840010Y861771D1*
Y857494D1*
X2847173D1*
X2790222Y843135D2*
X2793074Y840250D1*
X2797385Y838824D1*
X2803122D1*
X2807433Y840249D1*
X2810318Y843135D1*
Y845986D1*
X2808859Y848872D1*
X2807433Y850297D1*
X2804581Y851723D1*
X2795959Y854609D1*
X2793074Y856035D1*
X2791648Y857494D1*
X2790222Y860346D1*
Y864657D1*
X2793074Y867508D1*
X2797385Y868968D1*
X2803122D1*
X2807433Y867508D1*
X2810318Y864656D1*
X3276868Y937880D2*
D58*
X3274967Y941682D1*
X3271120Y945529D1*
X3267317Y947430D1*
X3259668D1*
X3255821Y945529D1*
X3252019Y941682D1*
X3250073Y937880D1*
X3248172Y932132D1*
Y922537D1*
X3250073Y916833D1*
X3252019Y912986D1*
X3255821Y909184D1*
X3259668Y907238D1*
X3267317D1*
X3271120Y909184D1*
X3274967Y912986D1*
X3276868Y916833D1*
Y922537D1*
X3267317D1*
X3289219Y934033D2*
Y907238D1*
Y926384D2*
X3294967Y932132D1*
X3298814Y934033D1*
X3304518D1*
X3308365Y932132D1*
X3310266Y926384D1*
Y907238D1*
X3345565Y947430D2*
Y907238D1*
Y928285D2*
X3341763Y932132D1*
X3337916Y934033D1*
X3332168D1*
X3328365Y932132D1*
X3324518Y928285D1*
X3322617Y922537D1*
Y918734D1*
X3324518Y912986D1*
X3328365Y909184D1*
X3332168Y907238D1*
X3337916D1*
X3341763Y909184D1*
X3345565Y912986D1*
X3495677Y838824D2*
D61*
Y868968D1*
X3485629D1*
X3481318Y867508D1*
X3478433Y864657D1*
X3477007Y861771D1*
X3475581Y857494D1*
Y850298D1*
X3477007Y845986D1*
X3478433Y843135D1*
X3481318Y840250D1*
X3485629Y838824D1*
X3495677D1*
X3420928Y845986D2*
X3422354Y843135D1*
X3425239Y840250D1*
X3428091Y838824D1*
X3433828D1*
X3436713Y840249D1*
X3439565Y843135D1*
X3441024Y845986D1*
X3442450Y850297D1*
Y857494D1*
X3441024Y861771D1*
X3439565Y864657D1*
X3436713Y867508D1*
X3433828Y868968D1*
X3428091D1*
X3425240Y867508D1*
X3422354Y864657D1*
X3420929Y861771D1*
X3420928Y857494D1*
X3428091D1*
X3367210Y843135D2*
X3370062Y840250D1*
X3374373Y838824D1*
X3380110D1*
X3384421Y840249D1*
X3387306Y843135D1*
Y845986D1*
X3385847Y848872D1*
X3384421Y850297D1*
X3381569Y851723D1*
X3372947Y854609D1*
X3370062Y856035D1*
X3368636Y857494D1*
X3367210Y860346D1*
Y864657D1*
X3370062Y867508D1*
X3374373Y868968D1*
X3380110D1*
X3384421Y867508D1*
X3387306Y864656D1*
X812113Y2319739D2*
X810687Y2322591D1*
X807802Y2325476D1*
X804951Y2326902D1*
X799214D1*
X796328Y2325476D1*
X793477Y2322591D1*
X792017Y2319739D1*
X790591Y2315428D1*
Y2308232D1*
X792017Y2303954D1*
X793477Y2301069D1*
X796328Y2298217D1*
X799214Y2296758D1*
X804951D1*
X807802Y2298217D1*
X810687Y2301069D1*
X812113Y2303954D1*
Y2308232D1*
X804951D1*
X821377Y2316854D2*
Y2296758D1*
Y2311117D2*
X825688Y2315428D1*
X828573Y2316854D1*
X832851D1*
X835736Y2315428D1*
X837162Y2311117D1*
Y2296758D1*
X863636Y2326902D2*
Y2296758D1*
Y2312543D2*
X860785Y2315428D1*
X857899Y2316854D1*
X853588D1*
X850737Y2315428D1*
X847851Y2312543D1*
X846426Y2308232D1*
Y2305380D1*
X847851Y2301069D1*
X850737Y2298217D1*
X853588Y2296758D1*
X857899D1*
X860785Y2298217D1*
X863636Y2301069D1*
X811157Y2437126D2*
Y2411293D1*
X798257Y2424193D2*
X824090D1*
X850564Y2439265D2*
X836238D1*
X834812Y2426365D1*
X836238Y2427791D1*
X840549Y2429251D1*
X844827D1*
X849138Y2427791D1*
X852023Y2424940D1*
X853449Y2420628D1*
Y2417777D1*
X852023Y2413466D1*
X849138Y2410580D1*
X844827Y2409155D1*
X840549D1*
X836238Y2410580D1*
X834812Y2412040D1*
X833353Y2414892D1*
X797453Y2627767D2*
Y2601934D1*
X784553Y2614834D2*
X810386D1*
X819650Y2624169D2*
X822535Y2625628D1*
X826846Y2629906D1*
Y2599795D1*
X837569Y2622743D2*
Y2624169D1*
X838995Y2627054D1*
X840421Y2628480D1*
X843306Y2629906D1*
X849043D1*
X851895Y2628480D1*
X853321Y2627054D1*
X854780Y2624169D1*
Y2621317D1*
X853321Y2618432D1*
X850469Y2614154D1*
X836110Y2599795D1*
X856206D1*
X809617Y2123710D2*
X808191Y2126562D1*
X805306Y2129447D1*
X802454Y2130873D1*
X796717D1*
X793832Y2129447D1*
X790980Y2126562D1*
X789521Y2123710D1*
X788095Y2119399D1*
Y2112203D1*
X789521Y2107925D1*
X790980Y2105040D1*
X793832Y2102188D1*
X796717Y2100729D1*
X802454D1*
X805306Y2102188D1*
X808191Y2105040D1*
X809617Y2107925D1*
Y2112203D1*
X802454D1*
X818881Y2120825D2*
Y2100729D1*
Y2115088D2*
X823192Y2119399D1*
X826077Y2120825D1*
X830355D1*
X833240Y2119399D1*
X834666Y2115088D1*
Y2100729D1*
X861140Y2130873D2*
Y2100729D1*
Y2116514D2*
X858288Y2119399D1*
X855403Y2120825D1*
X851092D1*
X848240Y2119399D1*
X845355Y2116514D1*
X843929Y2112203D1*
Y2109351D1*
X845355Y2105040D1*
X848240Y2102188D1*
X851092Y2100729D1*
X855403D1*
X858288Y2102188D1*
X861140Y2105040D1*
X809763Y2231796D2*
Y2205963D1*
X796863Y2218863D2*
X822696D1*
X834845Y2233935D2*
X850597D1*
X842008Y2222461D1*
X846319D1*
X849171Y2221035D1*
X850597Y2219609D1*
X852056Y2215298D1*
Y2212446D1*
X850597Y2208135D1*
X847745Y2205250D1*
X843434Y2203824D1*
X839123D1*
X834845Y2205250D1*
X833419Y2206709D1*
X831960Y2209561D1*
X862745Y2206709D2*
X861319Y2205250D1*
X862745Y2203824D1*
X864204Y2205250D1*
X862745Y2206709D1*
X876353Y2233935D2*
X892105D1*
X883516Y2222461D1*
X887827D1*
X890679Y2221035D1*
X892105Y2219609D1*
X893564Y2215298D1*
Y2212446D1*
X892105Y2208135D1*
X889253Y2205250D1*
X884942Y2203824D1*
X880631D1*
X876353Y2205250D1*
X874927Y2206709D1*
X873468Y2209561D1*
X810300Y2518533D2*
X808874Y2521385D1*
X805989Y2524270D1*
X803137Y2525696D1*
X797400D1*
X794515Y2524270D1*
X791663Y2521385D1*
X790204Y2518533D1*
X788778Y2514222D1*
Y2507026D1*
X790204Y2502748D1*
X791663Y2499863D1*
X794515Y2497011D1*
X797400Y2495552D1*
X803137D1*
X805989Y2497011D1*
X808874Y2499863D1*
X810300Y2502748D1*
Y2507026D1*
X803137D1*
X819563Y2515648D2*
Y2495552D1*
Y2509911D2*
X823874Y2514222D1*
X826759Y2515648D1*
X831037D1*
X833922Y2514222D1*
X835348Y2509911D1*
Y2495552D1*
X861823Y2525696D2*
Y2495552D1*
Y2511337D2*
X858971Y2514222D1*
X856086Y2515648D1*
X851775D1*
X848923Y2514222D1*
X846038Y2511337D1*
X844612Y2507026D1*
Y2504174D1*
X846038Y2499863D1*
X848923Y2497011D1*
X851775Y2495552D1*
X856086D1*
X858971Y2497011D1*
X861823Y2499863D1*
X3922657Y3304871D2*
D58*
Y3264679D1*
X3909260Y3304871D2*
X3936054D1*
X3957956Y3291474D2*
X3954154Y3289573D1*
X3950307Y3285726D1*
X3948406Y3279978D1*
Y3276175D1*
X3950307Y3270427D1*
X3954154Y3266625D1*
X3957956Y3264679D1*
X3963704D1*
X3967551Y3266625D1*
X3971354Y3270427D1*
X3973299Y3276175D1*
Y3279978D1*
X3971354Y3285726D1*
X3967551Y3289573D1*
X3963704Y3291474D1*
X3957956D1*
X4024531Y3285726D2*
X4041731D1*
X4047479Y3287671D1*
X4049425Y3289573D1*
X4051326Y3293375D1*
Y3297222D1*
X4049425Y3301025D1*
X4047479Y3302970D1*
X4041731Y3304871D1*
X4024531D1*
Y3264679D1*
X4037929Y3285726D2*
X4051326Y3264679D1*
X4063677Y3279978D2*
X4086625D1*
Y3283825D1*
X4084724Y3287671D1*
X4082823Y3289573D1*
X4078976Y3291474D1*
X4073228D1*
X4069425Y3289573D1*
X4065579Y3285726D1*
X4063677Y3279978D1*
Y3276175D1*
X4065579Y3270427D1*
X4069425Y3266625D1*
X4073228Y3264679D1*
X4078976D1*
X4082823Y3266625D1*
X4086625Y3270427D1*
X4121969Y3285726D2*
X4118122Y3289573D1*
X4114275Y3291474D1*
X4108572D1*
X4104725Y3289573D1*
X4100922Y3285726D1*
X4098977Y3279978D1*
Y3276175D1*
X4100922Y3270427D1*
X4104725Y3266625D1*
X4108572Y3264679D1*
X4114275D1*
X4118122Y3266625D1*
X4121969Y3270427D1*
X4134320Y3279978D2*
X4157268D1*
Y3283825D1*
X4155367Y3287671D1*
X4153466Y3289573D1*
X4149619Y3291474D1*
X4143871D1*
X4140068Y3289573D1*
X4136222Y3285726D1*
X4134320Y3279978D1*
Y3276175D1*
X4136222Y3270427D1*
X4140068Y3266625D1*
X4143871Y3264679D1*
X4149619D1*
X4153466Y3266625D1*
X4157268Y3270427D1*
X4169620Y3304871D2*
X4171521Y3302970D1*
X4173466Y3304871D1*
X4171521Y3306817D1*
X4169620Y3304871D1*
X4171521Y3291474D2*
Y3264679D1*
X4185818Y3291474D2*
X4197314Y3264679D1*
X4208766Y3291474D1*
X4221117Y3279978D2*
X4244065D1*
Y3283825D1*
X4242164Y3287671D1*
X4240262Y3289573D1*
X4236416Y3291474D1*
X4230668D1*
X4226865Y3289573D1*
X4223018Y3285726D1*
X4221117Y3279978D1*
Y3276175D1*
X4223018Y3270427D1*
X4226865Y3266625D1*
X4230668Y3264679D1*
X4236416D1*
X4240262Y3266625D1*
X4244065Y3270427D1*
X1934906Y3433188D2*
X1933005Y3436991D1*
X1929158Y3440838D1*
X1925355Y3442739D1*
X1917706D1*
X1913859Y3440838D1*
X1910057Y3436991D1*
X1908111Y3433188D1*
X1906210Y3427440D1*
Y3417845D1*
X1908111Y3412142D1*
X1910057Y3408295D1*
X1913859Y3404492D1*
X1917706Y3402547D1*
X1925355D1*
X1929158Y3404492D1*
X1933005Y3408295D1*
X1934906Y3412142D1*
Y3417845D1*
X1925355D1*
X1947257Y3429341D2*
Y3402547D1*
Y3421692D2*
X1953005Y3427440D1*
X1956852Y3429341D1*
X1962556D1*
X1966403Y3427440D1*
X1968304Y3421692D1*
Y3402547D1*
X2003603Y3442739D2*
Y3402547D1*
Y3423593D2*
X1999801Y3427440D1*
X1995954Y3429341D1*
X1990206D1*
X1986403Y3427440D1*
X1982557Y3423593D1*
X1980655Y3417845D1*
Y3414043D1*
X1982557Y3408295D1*
X1986403Y3404492D1*
X1990206Y3402547D1*
X1995954D1*
X1999801Y3404492D1*
X2003603Y3408295D1*
X1364396Y2896026D2*
D61*
Y2865882D1*
X1374444D1*
X1378755Y2867341D1*
X1381640Y2870193D1*
X1383066Y2873078D1*
X1384492Y2877356D1*
Y2884552D1*
X1383066Y2888863D1*
X1381640Y2891715D1*
X1378755Y2894600D1*
X1374444Y2896026D1*
X1364396D1*
X1381029Y2839532D2*
X1379603Y2842384D1*
X1376718Y2845269D1*
X1373867Y2846695D1*
X1368130D1*
X1365244Y2845269D1*
X1362393Y2842384D1*
X1360933Y2839532D1*
X1359507Y2835221D1*
Y2828025D1*
X1360933Y2823747D1*
X1362393Y2820862D1*
X1365244Y2818010D1*
X1368130Y2816551D1*
X1373867D1*
X1376718Y2818010D1*
X1379603Y2820862D1*
X1381029Y2823747D1*
Y2828025D1*
X1373867D1*
X1734358Y2988608D2*
X1737210Y2985723D1*
X1741521Y2984297D1*
X1747258D1*
X1751569Y2985723D1*
X1754454Y2988608D1*
Y2991460D1*
X1752995Y2994345D1*
X1751569Y2995771D1*
X1748717Y2997197D1*
X1740095Y3000082D1*
X1737210Y3001508D1*
X1735784Y3002967D1*
X1734358Y3005819D1*
Y3010130D1*
X1737210Y3012982D1*
X1741521Y3014441D1*
X1747258D1*
X1751569Y3012982D1*
X1754454Y3010130D1*
X4165629Y1858616D2*
D59*
X4142615Y1918904D1*
X4119667Y1858616D1*
X4128289Y1878712D2*
X4157007D1*
X4184156Y1898808D2*
Y1858616D1*
Y1887334D2*
X4192778Y1895956D1*
X4198549Y1898808D1*
X4207104D1*
X4212874Y1895956D1*
X4215726Y1887334D1*
Y1858616D1*
X4242876Y1918904D2*
Y1870090D1*
X4245727Y1861534D1*
X4251498Y1858616D1*
X4257201D1*
X4234254Y1898808D2*
X4254350D1*
X810674Y1478523D2*
D61*
X792004D1*
Y1448379D1*
Y1464164D2*
X803478D1*
X819937Y1478523D2*
X821363Y1477097D1*
X822822Y1478523D1*
X821363Y1479982D1*
X819937Y1478523D1*
X821363Y1468475D2*
Y1448379D1*
X832086Y1478523D2*
Y1448379D1*
X845660Y1478523D2*
Y1454116D1*
X847086Y1449838D1*
X849971Y1448379D1*
X852823D1*
X841349Y1468475D2*
X851397D1*
X862087D2*
Y1448379D1*
Y1459853D2*
X863546Y1464164D1*
X866398Y1467049D1*
X869283Y1468475D1*
X873594D1*
X898642Y1464164D2*
X897217Y1467049D1*
X892905Y1468475D1*
X888594D1*
X884283Y1467049D1*
X882857Y1464164D1*
X884283Y1461312D1*
X887169Y1459853D1*
X894331Y1458427D1*
X897217Y1457001D1*
X898642Y1454116D1*
Y1452690D1*
X897217Y1449838D1*
X892905Y1448379D1*
X888594D1*
X884283Y1449838D1*
X882857Y1452690D1*
X802060Y906355D2*
X800634Y909207D1*
X797749Y912092D1*
X794897Y913518D1*
X789160D1*
X786275Y912092D1*
X783423Y909207D1*
X781964Y906355D1*
X780538Y902044D1*
Y894848D1*
X781964Y890570D1*
X783423Y887685D1*
X786275Y884833D1*
X789160Y883374D1*
X794897D1*
X797749Y884833D1*
X800634Y887685D1*
X802060Y890570D1*
Y894848D1*
X794897D1*
X811323Y903470D2*
Y883374D1*
Y897733D2*
X815634Y902044D1*
X818519Y903470D1*
X822797D1*
X825682Y902044D1*
X827108Y897733D1*
Y883374D1*
X853583Y913518D2*
Y883374D1*
Y899159D2*
X850731Y902044D1*
X847846Y903470D1*
X843535D1*
X840683Y902044D1*
X837798Y899159D1*
X836372Y894848D1*
Y891996D1*
X837798Y887685D1*
X840683Y884833D1*
X843535Y883374D1*
X847846D1*
X850731Y884833D1*
X853583Y887685D1*
X814573Y1163796D2*
Y1133652D1*
X834669Y1163796D2*
X814573Y1143700D1*
X821736Y1150896D2*
X834669Y1133652D1*
X843933Y1145126D2*
X861144D1*
Y1148011D1*
X859718Y1150896D1*
X858292Y1152322D1*
X855407Y1153748D1*
X851096D1*
X848244Y1152322D1*
X845359Y1149437D1*
X843933Y1145126D1*
Y1142274D1*
X845359Y1137963D1*
X848244Y1135111D1*
X851096Y1133652D1*
X855407D1*
X858292Y1135111D1*
X861144Y1137963D1*
X871866Y1153748D2*
X880455Y1133652D1*
X877603Y1127915D1*
X874718Y1125030D1*
X871866Y1123604D1*
X870407D1*
X889077Y1153748D2*
X880455Y1133652D1*
X914126Y1149437D2*
X912700Y1152322D1*
X908389Y1153748D1*
X904078D1*
X899767Y1152322D1*
X898341Y1149437D1*
X899767Y1146585D1*
X902652Y1145126D1*
X909815Y1143700D1*
X912700Y1142274D1*
X914126Y1139389D1*
Y1137963D1*
X912700Y1135111D1*
X908389Y1133652D1*
X904078D1*
X899767Y1135111D1*
X898341Y1137963D1*
X821439Y995226D2*
X834372D1*
X838649Y996652D1*
X840109Y998111D1*
X841535Y1000963D1*
Y1005274D1*
X840109Y1008126D1*
X838649Y1009585D1*
X834372Y1011011D1*
X821439D1*
Y980867D1*
X860846Y1011011D2*
Y980867D1*
X850798Y1011011D2*
X870894D1*
X890206D2*
Y980867D1*
X880158Y1011011D2*
X900254D1*
X894925Y904427D2*
X907825D1*
X912136Y905886D1*
X913595Y907312D1*
X915021Y910164D1*
Y913049D1*
X913595Y915901D1*
X912136Y917360D1*
X907825Y918786D1*
X894925D1*
Y888642D1*
X904973Y904427D2*
X915021Y888642D1*
X924284Y918786D2*
X944380Y888642D1*
Y918786D2*
X924284Y888642D1*
X953644D2*
X973740Y918753D1*
X993051Y918786D2*
Y888642D1*
X983003Y918786D2*
X1003099D1*
X1012363Y908738D2*
X1028148Y888642D1*
Y908738D2*
X1012363Y888642D1*
X795277Y1356827D2*
X790999Y1355401D1*
X789540Y1352549D1*
Y1349664D1*
X790999Y1346812D1*
X793851Y1345353D1*
X799588Y1343927D1*
X803899Y1342501D1*
X806751Y1339616D1*
X808177Y1336764D1*
Y1332453D1*
X806751Y1329601D1*
X805325Y1328142D1*
X801014Y1326716D1*
X795277D1*
X790999Y1328142D1*
X789540Y1329601D1*
X788114Y1332453D1*
Y1336764D1*
X789540Y1339616D1*
X792425Y1342501D1*
X796703Y1343927D1*
X802440Y1345353D1*
X805325Y1346812D1*
X806751Y1349664D1*
Y1352549D1*
X805325Y1355401D1*
X801014Y1356827D1*
X795277D1*
X826062D2*
X821751Y1355401D1*
X818866Y1351090D1*
X817440Y1343927D1*
Y1339616D1*
X818866Y1332453D1*
X821751Y1328142D1*
X826062Y1326716D1*
X828914D1*
X833225Y1328142D1*
X836077Y1332453D1*
X837536Y1339616D1*
Y1343927D1*
X836077Y1351090D1*
X833225Y1355401D1*
X828914Y1356827D1*
X826062D1*
X836077Y1351090D2*
X818866Y1332453D1*
X849685Y1328142D2*
X848226Y1326716D1*
X846800Y1328142D1*
X848226Y1329601D1*
X849685Y1328142D1*
Y1325290D1*
X848226Y1322405D1*
X846800Y1320979D1*
X902468Y1326716D2*
Y1356827D1*
X888109Y1336764D1*
X909631D1*
X927516Y1356827D2*
X923205Y1355401D1*
X920320Y1351090D1*
X918894Y1343927D1*
Y1339616D1*
X920320Y1332453D1*
X923205Y1328142D1*
X927516Y1326716D1*
X930368D1*
X934679Y1328142D1*
X937531Y1332453D1*
X938990Y1339616D1*
Y1343927D1*
X937531Y1351090D1*
X934679Y1355401D1*
X930368Y1356827D1*
X927516D1*
X937531Y1351090D2*
X920320Y1332453D1*
X796619Y1250428D2*
Y1251854D1*
X798045Y1254739D1*
X799471Y1256165D1*
X802356Y1257591D1*
X808093D1*
X810945Y1256165D1*
X812371Y1254739D1*
X813830Y1251854D1*
Y1249002D1*
X812371Y1246117D1*
X809519Y1241839D1*
X795160Y1227480D1*
X815256D1*
X833141Y1257591D2*
X828830Y1256165D1*
X825945Y1251854D1*
X824519Y1244691D1*
Y1240380D1*
X825945Y1233217D1*
X828830Y1228906D1*
X833141Y1227480D1*
X835993D1*
X840304Y1228906D1*
X843156Y1233217D1*
X844615Y1240380D1*
Y1244691D1*
X843156Y1251854D1*
X840304Y1256165D1*
X835993Y1257591D1*
X833141D1*
X843156Y1251854D2*
X825945Y1233217D1*
X856764Y1228906D2*
X855305Y1227480D1*
X853879Y1228906D1*
X855305Y1230365D1*
X856764Y1228906D1*
Y1226054D1*
X855305Y1223169D1*
X853879Y1221743D1*
X895188Y1251854D2*
X898073Y1253313D1*
X902384Y1257591D1*
Y1227480D1*
X928859Y1257591D2*
X914533D1*
X913107Y1244691D1*
X914533Y1246117D1*
X918844Y1247576D1*
X923122D1*
X927433Y1246117D1*
X930318Y1243265D1*
X931744Y1238954D1*
Y1236102D1*
X930318Y1231791D1*
X927433Y1228906D1*
X923122Y1227480D1*
X918844D1*
X914533Y1228906D1*
X913107Y1230365D1*
X911648Y1233217D1*
X2118874Y3443433D2*
D58*
Y3403241D1*
X2105476Y3443433D2*
X2132271D1*
X2144622Y3422386D2*
X2161866D1*
X2167570Y3424288D1*
X2169516Y3426233D1*
X2171417Y3430036D1*
Y3435784D1*
X2169516Y3439586D1*
X2167570Y3441532D1*
X2161866Y3443433D1*
X2144622D1*
Y3403241D1*
X2183768Y3435740D2*
X2187615Y3437685D1*
X2193363Y3443389D1*
Y3403241D1*
X4185242Y2628956D2*
X4183341Y2632759D1*
X4179494Y2636605D1*
X4175691Y2638507D1*
X4168042D1*
X4164195Y2636605D1*
X4160393Y2632759D1*
X4158447Y2628956D1*
X4156546Y2623208D1*
Y2613613D1*
X4158447Y2607909D1*
X4160393Y2604063D1*
X4164195Y2600260D1*
X4168042Y2598315D1*
X4175691D1*
X4179494Y2600260D1*
X4183341Y2604063D1*
X4185242Y2607909D1*
Y2613613D1*
X4175691D1*
X4197593Y2625109D2*
Y2598315D1*
Y2617460D2*
X4203341Y2623208D1*
X4207188Y2625109D1*
X4212892D1*
X4216739Y2623208D1*
X4218640Y2617460D1*
Y2598315D1*
X4253939Y2638507D2*
Y2598315D1*
Y2619361D2*
X4250137Y2623208D1*
X4246290Y2625109D1*
X4240542D1*
X4236739Y2623208D1*
X4232893Y2619361D1*
X4230991Y2613613D1*
Y2609811D1*
X4232893Y2604063D1*
X4236739Y2600260D1*
X4240542Y2598315D1*
X4246290D1*
X4250137Y2600260D1*
X4253939Y2604063D1*
X4160470Y2045070D2*
X4158569Y2048873D1*
X4154722Y2052719D1*
X4150920Y2054621D1*
X4143270D1*
X4139424Y2052719D1*
X4135621Y2048873D1*
X4133675Y2045070D1*
X4131774Y2039322D1*
Y2029727D1*
X4133675Y2024023D1*
X4135621Y2020177D1*
X4139424Y2016374D1*
X4143270Y2014429D1*
X4150920D1*
X4154722Y2016374D1*
X4158569Y2020177D1*
X4160470Y2024023D1*
Y2029727D1*
X4150920D1*
X4172822Y2041223D2*
Y2014429D1*
Y2033574D2*
X4178570Y2039322D1*
X4182416Y2041223D1*
X4188120D1*
X4191967Y2039322D1*
X4193868Y2033574D1*
Y2014429D1*
X4229167Y2054621D2*
Y2014429D1*
Y2035475D2*
X4225365Y2039322D1*
X4221518Y2041223D1*
X4215770D1*
X4211968Y2039322D1*
X4208121Y2035475D1*
X4206220Y2029727D1*
Y2025925D1*
X4208121Y2020177D1*
X4211968Y2016374D1*
X4215770Y2014429D1*
X4221518D1*
X4225365Y2016374D1*
X4229167Y2020177D1*
X4160861Y2765010D2*
Y2724818D1*
X4147463Y2765010D2*
X4174258D1*
X4186609Y2743964D2*
X4203853D1*
X4209557Y2745865D1*
X4211503Y2747811D1*
X4213404Y2751613D1*
Y2757361D1*
X4211503Y2761164D1*
X4209557Y2763109D1*
X4203853Y2765010D1*
X4186609D1*
Y2724818D1*
X4227701Y2755416D2*
Y2757317D1*
X4229602Y2761164D1*
X4231503Y2763065D1*
X4235350Y2764966D1*
X4242999D1*
X4246802Y2763065D1*
X4248703Y2761164D1*
X4250649Y2757317D1*
Y2753514D1*
X4248703Y2749668D1*
X4244901Y2743964D1*
X4225755Y2724818D1*
X4252550D1*
X3941999Y908363D2*
X3940098Y912165D1*
X3936251Y916012D1*
X3932448Y917913D1*
X3924799D1*
X3920952Y916012D1*
X3917150Y912165D1*
X3915204Y908363D1*
X3913303Y902615D1*
Y893020D1*
X3915204Y887316D1*
X3917150Y883469D1*
X3920952Y879667D1*
X3924799Y877721D1*
X3932448D1*
X3936251Y879667D1*
X3940098Y883469D1*
X3941999Y887316D1*
Y893020D1*
X3932448D1*
X3954350Y904516D2*
Y877721D1*
Y896867D2*
X3960098Y902615D1*
X3963945Y904516D1*
X3969649D1*
X3973496Y902615D1*
X3975397Y896867D1*
Y877721D1*
X4010696Y917913D2*
Y877721D1*
Y898768D2*
X4006894Y902615D1*
X4003047Y904516D1*
X3997299D1*
X3993496Y902615D1*
X3989650Y898768D1*
X3987748Y893020D1*
Y889217D1*
X3989650Y883469D1*
X3993496Y879667D1*
X3997299Y877721D1*
X4003047D1*
X4006894Y879667D1*
X4010696Y883469D1*
X2771677Y3412974D2*
X2746783D1*
Y3372782D1*
Y3393828D2*
X2762082D1*
X2784028Y3399576D2*
Y3372782D1*
Y3388080D2*
X2785974Y3393828D1*
X2789776Y3397675D1*
X2793623Y3399576D1*
X2799371D1*
X2821273D2*
X2817470Y3397675D1*
X2813624Y3393828D1*
X2811722Y3388080D1*
Y3384278D1*
X2813624Y3378530D1*
X2817470Y3374727D1*
X2821273Y3372782D1*
X2827021D1*
X2830868Y3374727D1*
X2834670Y3378530D1*
X2836616Y3384278D1*
Y3388080D1*
X2834670Y3393828D1*
X2830868Y3397675D1*
X2827021Y3399576D1*
X2821273D1*
X2848967D2*
Y3372782D1*
Y3391927D2*
X2854715Y3397675D1*
X2858562Y3399576D1*
X2864266D1*
X2868113Y3397675D1*
X2870014Y3391927D1*
Y3372782D1*
Y3391927D2*
X2875762Y3397675D1*
X2879609Y3399576D1*
X2885312D1*
X2889159Y3397675D1*
X2891105Y3391927D1*
Y3372782D1*
X2942337Y3391927D2*
X2959581D1*
X2965285Y3393828D1*
X2967230Y3395774D1*
X2969132Y3399576D1*
Y3405324D1*
X2967230Y3409127D1*
X2965285Y3411072D1*
X2959581Y3412974D1*
X2942337D1*
Y3372782D1*
X3012124D2*
X2996782Y3412974D1*
X2981483Y3372782D1*
X2987231Y3386179D2*
X3006376D1*
X592325Y3431152D2*
D59*
Y3370864D1*
X572229Y3431152D2*
X612421D1*
X659666Y3370864D2*
Y3431086D1*
X630948Y3390960D1*
X673992D1*
X692519Y3419612D2*
X698289Y3422530D1*
X706911Y3431086D1*
Y3370864D1*
X821100Y3431152D2*
X783759D1*
Y3370864D1*
Y3402434D2*
X806707D1*
X839627Y3431152D2*
X842479Y3428300D1*
X845397Y3431152D1*
X842479Y3434070D1*
X839627Y3431152D1*
X842479Y3411056D2*
Y3370864D1*
X863924Y3431152D2*
Y3370864D1*
X891073Y3431152D2*
Y3382338D1*
X893925Y3373782D1*
X899695Y3370864D1*
X905399D1*
X882451Y3411056D2*
X902547D1*
X923926Y3393812D2*
X958348D1*
Y3399582D1*
X955496Y3405352D1*
X952644Y3408204D1*
X946874Y3411056D1*
X938252D1*
X932548Y3408204D1*
X926778Y3402434D1*
X923926Y3393812D1*
Y3388108D1*
X926778Y3379486D1*
X932548Y3373782D1*
X938252Y3370864D1*
X946874D1*
X952644Y3373782D1*
X958348Y3379486D1*
X976875Y3411056D2*
Y3370864D1*
Y3393812D2*
X979793Y3402434D1*
X985497Y3408204D1*
X991267Y3411056D1*
X999889D1*
X1049986Y3402434D2*
X1047134Y3408204D1*
X1038512Y3411056D1*
X1029890D1*
X1021268Y3408204D1*
X1018416Y3402434D1*
X1021268Y3396730D1*
X1027038Y3393812D1*
X1041364Y3390960D1*
X1047134Y3388108D1*
X1049986Y3382338D1*
Y3379486D1*
X1047134Y3373782D1*
X1038512Y3370864D1*
X1029890D1*
X1021268Y3373782D1*
X1018416Y3379486D1*
X589140Y3311388D2*
D58*
X604439Y3271196D1*
X619738Y3311388D1*
X643585Y3311344D2*
X637837Y3309443D1*
X633990Y3303695D1*
X632089Y3294144D1*
Y3288396D1*
X633990Y3278846D1*
X637837Y3273098D1*
X643585Y3271196D1*
X647388D1*
X653136Y3273098D1*
X656938Y3278846D1*
X658884Y3288396D1*
Y3294144D1*
X656938Y3303695D1*
X653136Y3309443D1*
X647388Y3311344D1*
X643585D1*
X656938Y3303695D2*
X633990Y3278846D1*
X671235Y3303695D2*
X675082Y3305640D1*
X680830Y3311344D1*
Y3271196D1*
X704677Y3311344D2*
X698929Y3309443D1*
X695082Y3303695D1*
X693181Y3294144D1*
Y3288396D1*
X695082Y3278846D1*
X698929Y3273098D1*
X704677Y3271196D1*
X708480D1*
X714228Y3273098D1*
X718030Y3278846D1*
X719976Y3288396D1*
Y3294144D1*
X718030Y3303695D1*
X714228Y3309443D1*
X708480Y3311344D1*
X704677D1*
X718030Y3303695D2*
X695082Y3278846D1*
X842650Y3313573D2*
X836901Y3311671D1*
X833055Y3305923D1*
X831153Y3296373D1*
Y3290625D1*
X833055Y3281074D1*
X836901Y3275326D1*
X842650Y3273425D1*
X846452D1*
X852200Y3275326D1*
X856003Y3281074D1*
X857948Y3290625D1*
Y3296373D1*
X856003Y3305923D1*
X852200Y3311671D1*
X846452Y3313573D1*
X842650D1*
X856003Y3305923D2*
X833055Y3281074D1*
X893247Y3307869D2*
X891346Y3311671D1*
X885598Y3313573D1*
X881796D1*
X876048Y3311671D1*
X872201Y3305923D1*
X870300Y3296373D1*
Y3286822D1*
X872201Y3279173D1*
X876048Y3275326D1*
X881796Y3273425D1*
X883697D1*
X889401Y3275326D1*
X893247Y3279173D1*
X895149Y3284921D1*
Y3286822D1*
X893247Y3292570D1*
X889401Y3296373D1*
X883697Y3298274D1*
X881796D1*
X876048Y3296373D1*
X872201Y3292570D1*
X870300Y3286822D1*
X907500Y3293499D2*
X929608D1*
X953455Y3313573D2*
X947707Y3311671D1*
X943861Y3305923D1*
X941959Y3296373D1*
Y3290625D1*
X943861Y3281074D1*
X947707Y3275326D1*
X953455Y3273425D1*
X957258D1*
X963006Y3275326D1*
X966809Y3281074D1*
X968754Y3290625D1*
Y3296373D1*
X966809Y3305923D1*
X963006Y3311671D1*
X957258Y3313573D1*
X953455D1*
X966809Y3305923D2*
X943861Y3281074D1*
X981105Y3305923D2*
X984952Y3307869D1*
X990700Y3313573D1*
Y3273425D1*
X1003052Y3293499D2*
X1025159D1*
X1039456Y3304022D2*
Y3305923D1*
X1041358Y3309770D1*
X1043259Y3311671D1*
X1047106Y3313573D1*
X1054755D1*
X1058557Y3311671D1*
X1060459Y3309770D1*
X1062404Y3305923D1*
Y3302121D1*
X1060459Y3298274D1*
X1056656Y3292570D1*
X1037511Y3273425D1*
X1064305D1*
X1078602Y3304022D2*
Y3305923D1*
X1080504Y3309770D1*
X1082405Y3311671D1*
X1086252Y3313573D1*
X1093901D1*
X1097703Y3311671D1*
X1099605Y3309770D1*
X1101550Y3305923D1*
Y3302121D1*
X1099605Y3298274D1*
X1095802Y3292570D1*
X1076657Y3273425D1*
X1103452D1*
X615891Y3169391D2*
X600548Y3209583D1*
X585249Y3169391D1*
X590997Y3182788D2*
X610143D1*
X656938Y3200032D2*
X655037Y3203835D1*
X651190Y3207681D1*
X647387Y3209583D1*
X639738D1*
X635891Y3207681D1*
X632089Y3203835D1*
X630143Y3200032D1*
X628242Y3194284D1*
Y3184689D1*
X630143Y3178985D1*
X632089Y3175139D1*
X635891Y3171336D1*
X639738Y3169391D1*
X647387D1*
X651190Y3171336D1*
X655037Y3175139D1*
X656938Y3178985D1*
X678840Y3209538D2*
X673136Y3207637D1*
X671191Y3203835D1*
Y3199988D1*
X673136Y3196185D1*
X676939Y3194240D1*
X684588Y3192339D1*
X690336Y3190437D1*
X694139Y3186591D1*
X696040Y3182788D1*
Y3177040D1*
X694139Y3173237D1*
X692237Y3171292D1*
X686489Y3169391D1*
X678840D1*
X673136Y3171292D1*
X671191Y3173237D1*
X669289Y3177040D1*
Y3182788D1*
X671191Y3186591D1*
X675037Y3190437D1*
X680741Y3192339D1*
X688391Y3194240D1*
X692237Y3196185D1*
X694139Y3199988D1*
Y3203835D1*
X692237Y3207637D1*
X686489Y3209538D1*
X678840D1*
X737087Y3200032D2*
X735186Y3203835D1*
X731339Y3207681D1*
X727537Y3209583D1*
X719887D1*
X716041Y3207681D1*
X712238Y3203835D1*
X710293Y3200032D1*
X708391Y3194284D1*
Y3184689D1*
X710293Y3178985D1*
X712238Y3175139D1*
X716041Y3171336D1*
X719887Y3169391D1*
X727537D1*
X731339Y3171336D1*
X735186Y3175139D1*
X737087Y3178985D1*
Y3184689D1*
X727537D1*
X749439Y3209583D2*
X764737Y3190437D1*
Y3169391D1*
X780036Y3209583D2*
X764737Y3190437D1*
X1212550Y3312905D2*
X1210649Y3316707D1*
X1206802Y3320554D1*
X1203000Y3322455D1*
X1195350D1*
X1191504Y3320554D1*
X1187701Y3316707D1*
X1185756Y3312905D1*
X1183854Y3307157D1*
Y3297562D1*
X1185756Y3291858D1*
X1187701Y3288011D1*
X1191504Y3284209D1*
X1195350Y3282263D1*
X1203000D1*
X1206802Y3284209D1*
X1210649Y3288011D1*
X1212550Y3291858D1*
X1304609Y3312861D2*
Y3314762D1*
X1306510Y3318609D1*
X1308411Y3320510D1*
X1312258Y3322411D1*
X1319907D1*
X1323710Y3320510D1*
X1325611Y3318609D1*
X1327557Y3314762D1*
Y3310959D1*
X1325611Y3307113D1*
X1321809Y3301409D1*
X1302663Y3282263D1*
X1329458D1*
X1353305Y3322411D2*
X1347557Y3320510D1*
X1343710Y3314762D1*
X1341809Y3305211D1*
Y3299463D1*
X1343710Y3289913D1*
X1347557Y3284165D1*
X1353305Y3282263D1*
X1357108D1*
X1362856Y3284165D1*
X1366658Y3289913D1*
X1368604Y3299463D1*
Y3305211D1*
X1366658Y3314762D1*
X1362856Y3320510D1*
X1357108Y3322411D1*
X1353305D1*
X1366658Y3314762D2*
X1343710Y3289913D1*
X1382901Y3312861D2*
Y3314762D1*
X1384802Y3318609D1*
X1386703Y3320510D1*
X1390550Y3322411D1*
X1398199D1*
X1402002Y3320510D1*
X1403903Y3318609D1*
X1405849Y3314762D1*
Y3310959D1*
X1403903Y3307113D1*
X1400101Y3301409D1*
X1380955Y3282263D1*
X1407750D1*
X1422047Y3312861D2*
Y3314762D1*
X1423948Y3318609D1*
X1425849Y3320510D1*
X1429696Y3322411D1*
X1437345D1*
X1441148Y3320510D1*
X1443049Y3318609D1*
X1444995Y3314762D1*
Y3310959D1*
X1443049Y3307113D1*
X1439247Y3301409D1*
X1420101Y3282263D1*
X1446896D1*
X2550592Y1004102D2*
X2546745Y1002201D1*
X2542942Y998354D1*
X2540997Y994552D1*
X2539096Y988804D1*
Y979209D1*
X2540997Y973505D1*
X2542942Y969658D1*
X2546745Y965856D1*
X2550592Y963910D1*
X2558241D1*
X2562044Y965856D1*
X2565890Y969658D1*
X2567792Y973505D1*
X2569693Y979209D1*
Y988804D1*
X2567792Y994552D1*
X2565890Y998354D1*
X2562044Y1002201D1*
X2558241Y1004102D1*
X2550592D1*
X2582044Y990705D2*
Y971560D1*
X2583946Y965856D1*
X2587792Y963910D1*
X2593540D1*
X2597343Y965856D1*
X2603091Y971560D1*
Y990705D2*
Y963910D1*
X2621190Y1004102D2*
Y971560D1*
X2623092Y965856D1*
X2626938Y963910D1*
X2630741D1*
X2615442Y990705D2*
X2628840D1*
X3148547Y1004102D2*
X3144700Y1002201D1*
X3140898Y998354D1*
X3138952Y994552D1*
X3137051Y988804D1*
Y979209D1*
X3138952Y973505D1*
X3140898Y969658D1*
X3144700Y965856D1*
X3148547Y963910D1*
X3156196D1*
X3159999Y965856D1*
X3163846Y969658D1*
X3165747Y973505D1*
X3167648Y979209D1*
Y988804D1*
X3165747Y994552D1*
X3163846Y998354D1*
X3159999Y1002201D1*
X3156196Y1004102D1*
X3148547D1*
X3180000Y990705D2*
Y971560D1*
X3181901Y965856D1*
X3185748Y963910D1*
X3191496D1*
X3195298Y965856D1*
X3201046Y971560D1*
Y990705D2*
Y963910D1*
X3219146Y1004102D2*
Y971560D1*
X3221047Y965856D1*
X3224894Y963910D1*
X3228696D1*
X3213398Y990705D2*
X3226795D1*
X1376538Y2791053D2*
D61*
X1373686Y2793938D1*
X1369375Y2795364D1*
X1363638D1*
X1359327Y2793938D1*
X1356442Y2791053D1*
Y2788201D1*
X1357901Y2785316D1*
X1359327Y2783890D1*
X1362179Y2782464D1*
X1370801Y2779579D1*
X1373686Y2778153D1*
X1375112Y2776694D1*
X1376538Y2773842D1*
Y2769531D1*
X1373686Y2766679D1*
X1369375Y2765220D1*
X1363638D1*
X1359327Y2766679D1*
X1356442Y2769531D1*
X1394433Y3090887D2*
D58*
Y3050695D1*
X1381035Y3090887D2*
X1407830D1*
X1420181Y3069840D2*
X1437426D1*
X1443129Y3071742D1*
X1445075Y3073687D1*
X1446976Y3077490D1*
Y3083238D1*
X1445075Y3087040D1*
X1443129Y3088986D1*
X1437426Y3090887D1*
X1420181D1*
Y3050695D1*
X1463174Y3090843D2*
X1484177D1*
X1472725Y3075544D1*
X1478473D1*
X1482275Y3073643D1*
X1484177Y3071742D1*
X1486122Y3065994D1*
Y3062191D1*
X1484177Y3056443D1*
X1480374Y3052596D1*
X1474626Y3050695D1*
X1468878D1*
X1463174Y3052596D1*
X1461273Y3054542D1*
X1459327Y3058344D1*
X973195Y3077543D2*
X971293Y3081345D1*
X967447Y3085192D1*
X963644Y3087093D1*
X955995D1*
X952148Y3085192D1*
X948345Y3081345D1*
X946400Y3077543D1*
X944499Y3071795D1*
Y3062200D1*
X946400Y3056496D1*
X948345Y3052649D1*
X952148Y3048847D1*
X955995Y3046901D1*
X963644D1*
X967447Y3048847D1*
X971293Y3052649D1*
X973195Y3056496D1*
Y3062200D1*
X963644D1*
X985546Y3073696D2*
Y3046901D1*
Y3066047D2*
X991294Y3071795D1*
X995141Y3073696D1*
X1000845D1*
X1004691Y3071795D1*
X1006593Y3066047D1*
Y3046901D1*
X1041892Y3087093D2*
Y3046901D1*
Y3067948D2*
X1038089Y3071795D1*
X1034243Y3073696D1*
X1028495D1*
X1024692Y3071795D1*
X1020845Y3067948D1*
X1018944Y3062200D1*
Y3058397D1*
X1020845Y3052649D1*
X1024692Y3048847D1*
X1028495Y3046901D1*
X1034243D1*
X1038089Y3048847D1*
X1041892Y3052649D1*
X678720Y1803335D2*
D61*
X691620D1*
X695931Y1804794D1*
X697390Y1806220D1*
X698816Y1809072D1*
Y1811957D1*
X697390Y1814808D1*
X695931Y1816268D1*
X691620Y1817694D1*
X678720D1*
Y1787550D1*
X688768Y1803335D2*
X698816Y1787550D1*
X708080Y1817694D2*
X728176Y1787550D1*
Y1817694D2*
X708080Y1787550D1*
X737439D2*
X757535Y1817660D1*
X776847Y1817694D2*
Y1787550D1*
X766799Y1817694D2*
X786895D1*
X796158Y1807646D2*
X811943Y1787550D1*
Y1807646D2*
X796158Y1787550D1*
X2032738Y2812869D2*
D58*
Y2795669D1*
X2034683Y2789921D1*
X2036585Y2787975D1*
X2040387Y2786074D1*
X2044234D1*
X2048036Y2787975D1*
X2049982Y2789921D1*
X2051883Y2795669D1*
Y2812869D1*
X2011691D1*
X2032738Y2799471D2*
X2011691Y2786074D1*
X2026990Y2773723D2*
Y2750775D1*
X2030836D1*
X2034683Y2752676D1*
X2036585Y2754577D1*
X2038486Y2758424D1*
Y2764172D1*
X2036585Y2767975D1*
X2032738Y2771821D1*
X2026990Y2773723D1*
X2023187D1*
X2017439Y2771821D1*
X2013637Y2767975D1*
X2011691Y2764172D1*
Y2758424D1*
X2013637Y2754577D1*
X2017439Y2750775D1*
X2051883Y2738423D2*
X2011691D1*
X2038486Y2703124D2*
X2011691D1*
X2032738D2*
X2036585Y2706927D1*
X2038486Y2710773D1*
Y2716477D1*
X2036585Y2720324D1*
X2032738Y2724127D1*
X2026990Y2726072D1*
X2023187D1*
X2017439Y2724127D1*
X2013637Y2720324D1*
X2011691Y2716477D1*
Y2710773D1*
X2013637Y2706927D1*
X2017439Y2703124D1*
X2038486Y2688827D2*
X2011691Y2677375D1*
X2004042Y2681178D1*
X2000195Y2685025D1*
X1998294Y2688827D1*
Y2690773D1*
X2038486Y2665879D2*
X2011691Y2677375D1*
X1954853Y2759173D2*
X1958655Y2761074D1*
X1962502Y2764921D1*
X1964403Y2768723D1*
Y2776373D1*
X1962502Y2780219D1*
X1958655Y2784022D1*
X1954853Y2785967D1*
X1949105Y2787869D1*
X1939510D1*
X1933806Y2785967D1*
X1929959Y2784022D1*
X1926157Y2780219D1*
X1924211Y2776373D1*
Y2768723D1*
X1926157Y2764921D1*
X1929959Y2761074D1*
X1933806Y2759173D1*
X1951006Y2737271D2*
X1949105Y2741073D1*
X1945258Y2744920D1*
X1939510Y2746821D1*
X1935707D1*
X1929959Y2744920D1*
X1926157Y2741073D1*
X1924211Y2737271D1*
Y2731523D1*
X1926157Y2727676D1*
X1929959Y2723874D1*
X1935707Y2721928D1*
X1939510D1*
X1945258Y2723874D1*
X1949105Y2727676D1*
X1951006Y2731523D1*
Y2737271D1*
X1964403Y2709577D2*
X1962502Y2707675D1*
X1964403Y2705730D1*
X1966349Y2707675D1*
X1964403Y2709577D1*
X1951006Y2707675D2*
X1924211D1*
X1964403Y2693379D2*
X1924211D1*
X2156690Y2900369D2*
X2158635Y2896522D1*
X2164339Y2890774D1*
X2124191D1*
X2154788Y2598423D2*
X2156690D1*
X2160536Y2596522D1*
X2162438Y2594621D1*
X2164339Y2590774D1*
Y2583125D1*
X2162438Y2579322D1*
X2160536Y2577421D1*
X2156690Y2575475D1*
X2152887D1*
X2149040Y2577421D1*
X2143336Y2581223D1*
X2124191Y2600369D1*
Y2573574D1*
X2664423Y2736074D2*
X2624231D1*
X2664423Y2762869D1*
X2624231D1*
X2664423Y2712227D2*
X2662522Y2716073D1*
X2658675Y2719876D1*
X2654873Y2721821D1*
X2649125Y2723723D1*
X2639530D1*
X2633826Y2721821D1*
X2629979Y2719876D1*
X2626177Y2716073D1*
X2624231Y2712227D1*
Y2704577D1*
X2626177Y2700775D1*
X2629979Y2696928D1*
X2633826Y2695027D1*
X2639530Y2693126D1*
X2649125D1*
X2654873Y2695027D1*
X2658675Y2696928D1*
X2662522Y2700775D1*
X2664423Y2704577D1*
Y2712227D1*
X2464353Y2748574D2*
X2424161D1*
X2464353Y2775369D1*
X2424161D1*
X2454803Y2707527D2*
X2458605Y2709428D1*
X2462452Y2713275D1*
X2464353Y2717077D1*
Y2724727D1*
X2462452Y2728573D1*
X2458605Y2732376D1*
X2454803Y2734321D1*
X2449055Y2736223D1*
X2439460D1*
X2433756Y2734321D1*
X2429909Y2732376D1*
X2426107Y2728573D1*
X2424161Y2724727D1*
Y2717077D1*
X2426107Y2713275D1*
X2429909Y2709428D1*
X2433756Y2707527D1*
X2254823Y2771673D2*
X2258625Y2773574D1*
X2262472Y2777421D1*
X2264373Y2781223D1*
Y2788873D1*
X2262472Y2792719D1*
X2258625Y2796522D1*
X2254823Y2798467D1*
X2249075Y2800369D1*
X2239480D1*
X2233776Y2798467D1*
X2229929Y2796522D1*
X2226127Y2792719D1*
X2224181Y2788873D1*
Y2781223D1*
X2226127Y2777421D1*
X2229929Y2773574D1*
X2233776Y2771673D1*
X2250976Y2749771D2*
X2249075Y2753573D1*
X2245228Y2757420D1*
X2239480Y2759321D1*
X2235677D1*
X2229929Y2757420D1*
X2226127Y2753573D1*
X2224181Y2749771D1*
Y2744023D1*
X2226127Y2740176D1*
X2229929Y2736374D1*
X2235677Y2734428D1*
X2239480D1*
X2245228Y2736374D1*
X2249075Y2740176D1*
X2250976Y2744023D1*
Y2749771D1*
Y2722077D2*
X2224181D1*
X2243326D2*
X2249075Y2716329D1*
X2250976Y2712482D1*
Y2706778D1*
X2249075Y2702931D1*
X2243326Y2701030D1*
X2224181D1*
X2243326D2*
X2249075Y2695282D1*
X2250976Y2691435D1*
Y2685731D1*
X2249075Y2681885D1*
X2243327Y2679939D1*
X2224181D1*
X1575917Y1494230D2*
X1593117D1*
X1598865Y1496175D1*
X1600811Y1498077D1*
X1602712Y1501879D1*
Y1505726D1*
X1600811Y1509529D1*
X1598865Y1511474D1*
X1593117Y1513375D1*
X1575917D1*
Y1473183D1*
X1589315Y1494230D2*
X1602712Y1473183D1*
X1615063Y1488482D2*
X1638011D1*
Y1492329D1*
X1636110Y1496175D1*
X1634209Y1498077D1*
X1630362Y1499978D1*
X1624614D1*
X1620811Y1498077D1*
X1616965Y1494230D1*
X1615063Y1488482D1*
Y1484679D1*
X1616965Y1478931D1*
X1620811Y1475129D1*
X1624614Y1473183D1*
X1630362D1*
X1634209Y1475129D1*
X1638011Y1478931D1*
X1650363Y1513375D2*
Y1473183D1*
X1685662Y1499978D2*
Y1473183D1*
Y1494230D2*
X1681859Y1498077D1*
X1678013Y1499978D1*
X1672309D1*
X1668462Y1498077D1*
X1664660Y1494230D1*
X1662714Y1488482D1*
Y1484679D1*
X1664660Y1478931D1*
X1668462Y1475129D1*
X1672309Y1473183D1*
X1678013D1*
X1681859Y1475129D1*
X1685662Y1478931D1*
X1699959Y1499978D2*
X1711411Y1473183D1*
X1707608Y1465534D1*
X1703761Y1461687D1*
X1699959Y1459786D1*
X1698013D1*
X1722907Y1499978D2*
X1711411Y1473183D1*
X1629613Y1416345D2*
X1627712Y1420147D1*
X1623865Y1423994D1*
X1620063Y1425895D1*
X1612413D1*
X1608567Y1423994D1*
X1604764Y1420147D1*
X1602819Y1416345D1*
X1600917Y1410597D1*
Y1401002D1*
X1602819Y1395298D1*
X1604764Y1391451D1*
X1608567Y1387649D1*
X1612413Y1385703D1*
X1620063D1*
X1623865Y1387649D1*
X1627712Y1391451D1*
X1629613Y1395298D1*
X1651515Y1412498D2*
X1647713Y1410597D1*
X1643866Y1406750D1*
X1641965Y1401002D1*
Y1397199D1*
X1643866Y1391451D1*
X1647713Y1387649D1*
X1651515Y1385703D1*
X1657263D1*
X1661110Y1387649D1*
X1664912Y1391451D1*
X1666858Y1397199D1*
Y1401002D1*
X1664912Y1406750D1*
X1661110Y1410597D1*
X1657263Y1412498D1*
X1651515D1*
X1679209Y1425895D2*
X1681111Y1423994D1*
X1683056Y1425895D1*
X1681111Y1427841D1*
X1679209Y1425895D1*
X1681111Y1412498D2*
Y1385703D1*
X1695408Y1425895D2*
Y1385703D1*
X1488417Y1618182D2*
X1492264Y1620127D1*
X1498012Y1625831D1*
Y1585683D1*
X1790363Y1616281D2*
Y1618182D1*
X1792264Y1622029D1*
X1794165Y1623930D1*
X1798012Y1625831D1*
X1805661D1*
X1809464Y1623930D1*
X1811365Y1622029D1*
X1813311Y1618182D1*
Y1614379D1*
X1811365Y1610532D1*
X1807563Y1604829D1*
X1788417Y1585683D1*
X1815212D1*
X1652712Y2125915D2*
Y2085723D1*
X1625917Y2125915D1*
Y2085723D1*
X1676559Y2125915D2*
X1672713Y2124014D1*
X1668910Y2120167D1*
X1666965Y2116365D1*
X1665063Y2110617D1*
Y2101022D1*
X1666965Y2095318D1*
X1668910Y2091471D1*
X1672713Y2087669D1*
X1676559Y2085723D1*
X1684209D1*
X1688011Y2087669D1*
X1691858Y2091471D1*
X1693759Y2095318D1*
X1695661Y2101022D1*
Y2110617D1*
X1693759Y2116365D1*
X1691858Y2120167D1*
X1688011Y2124014D1*
X1684209Y2125915D1*
X1676559D1*
X1640212Y1925845D2*
Y1885653D1*
X1613417Y1925845D1*
Y1885653D1*
X1681259Y1916295D2*
X1679358Y1920097D1*
X1675511Y1923944D1*
X1671709Y1925845D1*
X1664059D1*
X1660213Y1923944D1*
X1656410Y1920097D1*
X1654465Y1916295D1*
X1652563Y1910547D1*
Y1900952D1*
X1654465Y1895248D1*
X1656410Y1891401D1*
X1660213Y1887599D1*
X1664059Y1885653D1*
X1671709D1*
X1675511Y1887599D1*
X1679358Y1891401D1*
X1681259Y1895248D1*
X1617113Y1716315D2*
X1615212Y1720117D1*
X1611365Y1723964D1*
X1607563Y1725865D1*
X1599913D1*
X1596067Y1723964D1*
X1592264Y1720117D1*
X1590319Y1716315D1*
X1588417Y1710567D1*
Y1700972D1*
X1590319Y1695268D1*
X1592264Y1691421D1*
X1596067Y1687619D1*
X1599913Y1685673D1*
X1607563D1*
X1611365Y1687619D1*
X1615212Y1691421D1*
X1617113Y1695268D1*
X1639015Y1712468D2*
X1635213Y1710567D1*
X1631366Y1706720D1*
X1629465Y1700972D1*
Y1697169D1*
X1631366Y1691421D1*
X1635213Y1687619D1*
X1639015Y1685673D1*
X1644763D1*
X1648610Y1687619D1*
X1652412Y1691421D1*
X1654358Y1697169D1*
Y1700972D1*
X1652412Y1706720D1*
X1648610Y1710567D1*
X1644763Y1712468D1*
X1639015D1*
X1666709D2*
Y1685673D1*
Y1704819D2*
X1672457Y1710567D1*
X1676304Y1712468D1*
X1682008D1*
X1685855Y1710567D1*
X1687756Y1704819D1*
Y1685673D1*
Y1704819D2*
X1693504Y1710567D1*
X1697351Y1712468D1*
X1703055D1*
X1706901Y1710567D1*
X1708847Y1704819D1*
Y1685673D1*
X2175917Y1494230D2*
X2193117D1*
X2198865Y1496175D1*
X2200811Y1498077D1*
X2202712Y1501879D1*
Y1505726D1*
X2200811Y1509529D1*
X2198865Y1511474D1*
X2193117Y1513375D1*
X2175917D1*
Y1473183D1*
X2189315Y1494230D2*
X2202712Y1473183D1*
X2215063Y1488482D2*
X2238011D1*
Y1492329D1*
X2236110Y1496175D1*
X2234209Y1498077D1*
X2230362Y1499978D1*
X2224614D1*
X2220811Y1498077D1*
X2216965Y1494230D1*
X2215063Y1488482D1*
Y1484679D1*
X2216965Y1478931D1*
X2220811Y1475129D1*
X2224614Y1473183D1*
X2230362D1*
X2234209Y1475129D1*
X2238011Y1478931D1*
X2250363Y1513375D2*
Y1473183D1*
X2285662Y1499978D2*
Y1473183D1*
Y1494230D2*
X2281859Y1498077D1*
X2278013Y1499978D1*
X2272309D1*
X2268462Y1498077D1*
X2264660Y1494230D1*
X2262714Y1488482D1*
Y1484679D1*
X2264660Y1478931D1*
X2268462Y1475129D1*
X2272309Y1473183D1*
X2278013D1*
X2281859Y1475129D1*
X2285662Y1478931D1*
X2299959Y1499978D2*
X2311411Y1473183D1*
X2307608Y1465534D1*
X2303761Y1461687D1*
X2299959Y1459786D1*
X2298013D1*
X2322907Y1499978D2*
X2311411Y1473183D1*
X2229613Y1416345D2*
X2227712Y1420147D1*
X2223865Y1423994D1*
X2220063Y1425895D1*
X2212413D1*
X2208567Y1423994D1*
X2204764Y1420147D1*
X2202819Y1416345D1*
X2200917Y1410597D1*
Y1401002D1*
X2202819Y1395298D1*
X2204764Y1391451D1*
X2208567Y1387649D1*
X2212413Y1385703D1*
X2220063D1*
X2223865Y1387649D1*
X2227712Y1391451D1*
X2229613Y1395298D1*
X2251515Y1412498D2*
X2247713Y1410597D1*
X2243866Y1406750D1*
X2241965Y1401002D1*
Y1397199D1*
X2243866Y1391451D1*
X2247713Y1387649D1*
X2251515Y1385703D1*
X2257263D1*
X2261110Y1387649D1*
X2264912Y1391451D1*
X2266858Y1397199D1*
Y1401002D1*
X2264912Y1406750D1*
X2261110Y1410597D1*
X2257263Y1412498D1*
X2251515D1*
X2279209Y1425895D2*
X2281111Y1423994D1*
X2283056Y1425895D1*
X2281111Y1427841D1*
X2279209Y1425895D1*
X2281111Y1412498D2*
Y1385703D1*
X2295408Y1425895D2*
Y1385703D1*
X2088417Y1618182D2*
X2092264Y1620127D1*
X2098012Y1625831D1*
Y1585683D1*
X2390363Y1616281D2*
Y1618182D1*
X2392264Y1622029D1*
X2394165Y1623930D1*
X2398012Y1625831D1*
X2405661D1*
X2409464Y1623930D1*
X2411365Y1622029D1*
X2413311Y1618182D1*
Y1614379D1*
X2411365Y1610532D1*
X2407563Y1604829D1*
X2388417Y1585683D1*
X2415212D1*
X2252712Y2125915D2*
Y2085723D1*
X2225917Y2125915D1*
Y2085723D1*
X2276559Y2125915D2*
X2272713Y2124014D1*
X2268910Y2120167D1*
X2266965Y2116365D1*
X2265063Y2110617D1*
Y2101022D1*
X2266965Y2095318D1*
X2268910Y2091471D1*
X2272713Y2087669D1*
X2276559Y2085723D1*
X2284209D1*
X2288011Y2087669D1*
X2291858Y2091471D1*
X2293759Y2095318D1*
X2295661Y2101022D1*
Y2110617D1*
X2293759Y2116365D1*
X2291858Y2120167D1*
X2288011Y2124014D1*
X2284209Y2125915D1*
X2276559D1*
X2240212Y1925845D2*
Y1885653D1*
X2213417Y1925845D1*
Y1885653D1*
X2281259Y1916295D2*
X2279358Y1920097D1*
X2275511Y1923944D1*
X2271709Y1925845D1*
X2264059D1*
X2260213Y1923944D1*
X2256410Y1920097D1*
X2254465Y1916295D1*
X2252563Y1910547D1*
Y1900952D1*
X2254465Y1895248D1*
X2256410Y1891401D1*
X2260213Y1887599D1*
X2264059Y1885653D1*
X2271709D1*
X2275511Y1887599D1*
X2279358Y1891401D1*
X2281259Y1895248D1*
X2217113Y1716315D2*
X2215212Y1720117D1*
X2211365Y1723964D1*
X2207563Y1725865D1*
X2199913D1*
X2196067Y1723964D1*
X2192264Y1720117D1*
X2190319Y1716315D1*
X2188417Y1710567D1*
Y1700972D1*
X2190319Y1695268D1*
X2192264Y1691421D1*
X2196067Y1687619D1*
X2199913Y1685673D1*
X2207563D1*
X2211365Y1687619D1*
X2215212Y1691421D1*
X2217113Y1695268D1*
X2239015Y1712468D2*
X2235213Y1710567D1*
X2231366Y1706720D1*
X2229465Y1700972D1*
Y1697169D1*
X2231366Y1691421D1*
X2235213Y1687619D1*
X2239015Y1685673D1*
X2244763D1*
X2248610Y1687619D1*
X2252412Y1691421D1*
X2254358Y1697169D1*
Y1700972D1*
X2252412Y1706720D1*
X2248610Y1710567D1*
X2244763Y1712468D1*
X2239015D1*
X2266709D2*
Y1685673D1*
Y1704819D2*
X2272457Y1710567D1*
X2276304Y1712468D1*
X2282008D1*
X2285855Y1710567D1*
X2287756Y1704819D1*
Y1685673D1*
Y1704819D2*
X2293504Y1710567D1*
X2297351Y1712468D1*
X2303055D1*
X2306901Y1710567D1*
X2308847Y1704819D1*
Y1685673D1*
X2775917Y1494230D2*
X2793117D1*
X2798865Y1496175D1*
X2800811Y1498077D1*
X2802712Y1501879D1*
Y1505726D1*
X2800811Y1509529D1*
X2798865Y1511474D1*
X2793117Y1513375D1*
X2775917D1*
Y1473183D1*
X2789315Y1494230D2*
X2802712Y1473183D1*
X2815063Y1488482D2*
X2838011D1*
Y1492329D1*
X2836110Y1496175D1*
X2834209Y1498077D1*
X2830362Y1499978D1*
X2824614D1*
X2820811Y1498077D1*
X2816965Y1494230D1*
X2815063Y1488482D1*
Y1484679D1*
X2816965Y1478931D1*
X2820811Y1475129D1*
X2824614Y1473183D1*
X2830362D1*
X2834209Y1475129D1*
X2838011Y1478931D1*
X2850363Y1513375D2*
Y1473183D1*
X2885662Y1499978D2*
Y1473183D1*
Y1494230D2*
X2881859Y1498077D1*
X2878013Y1499978D1*
X2872309D1*
X2868462Y1498077D1*
X2864660Y1494230D1*
X2862714Y1488482D1*
Y1484679D1*
X2864660Y1478931D1*
X2868462Y1475129D1*
X2872309Y1473183D1*
X2878013D1*
X2881859Y1475129D1*
X2885662Y1478931D1*
X2899959Y1499978D2*
X2911411Y1473183D1*
X2907608Y1465534D1*
X2903761Y1461687D1*
X2899959Y1459786D1*
X2898013D1*
X2922907Y1499978D2*
X2911411Y1473183D1*
X2829613Y1416345D2*
X2827712Y1420147D1*
X2823865Y1423994D1*
X2820063Y1425895D1*
X2812413D1*
X2808567Y1423994D1*
X2804764Y1420147D1*
X2802819Y1416345D1*
X2800917Y1410597D1*
Y1401002D1*
X2802819Y1395298D1*
X2804764Y1391451D1*
X2808567Y1387649D1*
X2812413Y1385703D1*
X2820063D1*
X2823865Y1387649D1*
X2827712Y1391451D1*
X2829613Y1395298D1*
X2851515Y1412498D2*
X2847713Y1410597D1*
X2843866Y1406750D1*
X2841965Y1401002D1*
Y1397199D1*
X2843866Y1391451D1*
X2847713Y1387649D1*
X2851515Y1385703D1*
X2857263D1*
X2861110Y1387649D1*
X2864912Y1391451D1*
X2866858Y1397199D1*
Y1401002D1*
X2864912Y1406750D1*
X2861110Y1410597D1*
X2857263Y1412498D1*
X2851515D1*
X2879209Y1425895D2*
X2881111Y1423994D1*
X2883056Y1425895D1*
X2881111Y1427841D1*
X2879209Y1425895D1*
X2881111Y1412498D2*
Y1385703D1*
X2895408Y1425895D2*
Y1385703D1*
X2688417Y1618182D2*
X2692264Y1620127D1*
X2698012Y1625831D1*
Y1585683D1*
X2990363Y1616281D2*
Y1618182D1*
X2992264Y1622029D1*
X2994165Y1623930D1*
X2998012Y1625831D1*
X3005661D1*
X3009464Y1623930D1*
X3011365Y1622029D1*
X3013311Y1618182D1*
Y1614379D1*
X3011365Y1610532D1*
X3007563Y1604829D1*
X2988417Y1585683D1*
X3015212D1*
X2852712Y2125915D2*
Y2085723D1*
X2825917Y2125915D1*
Y2085723D1*
X2876559Y2125915D2*
X2872713Y2124014D1*
X2868910Y2120167D1*
X2866965Y2116365D1*
X2865063Y2110617D1*
Y2101022D1*
X2866965Y2095318D1*
X2868910Y2091471D1*
X2872713Y2087669D1*
X2876559Y2085723D1*
X2884209D1*
X2888011Y2087669D1*
X2891858Y2091471D1*
X2893759Y2095318D1*
X2895661Y2101022D1*
Y2110617D1*
X2893759Y2116365D1*
X2891858Y2120167D1*
X2888011Y2124014D1*
X2884209Y2125915D1*
X2876559D1*
X2840212Y1925845D2*
Y1885653D1*
X2813417Y1925845D1*
Y1885653D1*
X2881259Y1916295D2*
X2879358Y1920097D1*
X2875511Y1923944D1*
X2871709Y1925845D1*
X2864059D1*
X2860213Y1923944D1*
X2856410Y1920097D1*
X2854465Y1916295D1*
X2852563Y1910547D1*
Y1900952D1*
X2854465Y1895248D1*
X2856410Y1891401D1*
X2860213Y1887599D1*
X2864059Y1885653D1*
X2871709D1*
X2875511Y1887599D1*
X2879358Y1891401D1*
X2881259Y1895248D1*
X2817113Y1716315D2*
X2815212Y1720117D1*
X2811365Y1723964D1*
X2807563Y1725865D1*
X2799913D1*
X2796067Y1723964D1*
X2792264Y1720117D1*
X2790319Y1716315D1*
X2788417Y1710567D1*
Y1700972D1*
X2790319Y1695268D1*
X2792264Y1691421D1*
X2796067Y1687619D1*
X2799913Y1685673D1*
X2807563D1*
X2811365Y1687619D1*
X2815212Y1691421D1*
X2817113Y1695268D1*
X2839015Y1712468D2*
X2835213Y1710567D1*
X2831366Y1706720D1*
X2829465Y1700972D1*
Y1697169D1*
X2831366Y1691421D1*
X2835213Y1687619D1*
X2839015Y1685673D1*
X2844763D1*
X2848610Y1687619D1*
X2852412Y1691421D1*
X2854358Y1697169D1*
Y1700972D1*
X2852412Y1706720D1*
X2848610Y1710567D1*
X2844763Y1712468D1*
X2839015D1*
X2866709D2*
Y1685673D1*
Y1704819D2*
X2872457Y1710567D1*
X2876304Y1712468D1*
X2882008D1*
X2885855Y1710567D1*
X2887756Y1704819D1*
Y1685673D1*
Y1704819D2*
X2893504Y1710567D1*
X2897351Y1712468D1*
X2903055D1*
X2906901Y1710567D1*
X2908847Y1704819D1*
Y1685673D1*
X3375917Y1494230D2*
X3393117D1*
X3398865Y1496175D1*
X3400811Y1498077D1*
X3402712Y1501879D1*
Y1505726D1*
X3400811Y1509529D1*
X3398865Y1511474D1*
X3393117Y1513375D1*
X3375917D1*
Y1473183D1*
X3389315Y1494230D2*
X3402712Y1473183D1*
X3415063Y1488482D2*
X3438011D1*
Y1492329D1*
X3436110Y1496175D1*
X3434209Y1498077D1*
X3430362Y1499978D1*
X3424614D1*
X3420811Y1498077D1*
X3416965Y1494230D1*
X3415063Y1488482D1*
Y1484679D1*
X3416965Y1478931D1*
X3420811Y1475129D1*
X3424614Y1473183D1*
X3430362D1*
X3434209Y1475129D1*
X3438011Y1478931D1*
X3450363Y1513375D2*
Y1473183D1*
X3485662Y1499978D2*
Y1473183D1*
Y1494230D2*
X3481859Y1498077D1*
X3478013Y1499978D1*
X3472309D1*
X3468462Y1498077D1*
X3464660Y1494230D1*
X3462714Y1488482D1*
Y1484679D1*
X3464660Y1478931D1*
X3468462Y1475129D1*
X3472309Y1473183D1*
X3478013D1*
X3481859Y1475129D1*
X3485662Y1478931D1*
X3499959Y1499978D2*
X3511411Y1473183D1*
X3507608Y1465534D1*
X3503761Y1461687D1*
X3499959Y1459786D1*
X3498013D1*
X3522907Y1499978D2*
X3511411Y1473183D1*
X3429613Y1416345D2*
X3427712Y1420147D1*
X3423865Y1423994D1*
X3420063Y1425895D1*
X3412413D1*
X3408567Y1423994D1*
X3404764Y1420147D1*
X3402819Y1416345D1*
X3400917Y1410597D1*
Y1401002D1*
X3402819Y1395298D1*
X3404764Y1391451D1*
X3408567Y1387649D1*
X3412413Y1385703D1*
X3420063D1*
X3423865Y1387649D1*
X3427712Y1391451D1*
X3429613Y1395298D1*
X3451515Y1412498D2*
X3447713Y1410597D1*
X3443866Y1406750D1*
X3441965Y1401002D1*
Y1397199D1*
X3443866Y1391451D1*
X3447713Y1387649D1*
X3451515Y1385703D1*
X3457263D1*
X3461110Y1387649D1*
X3464912Y1391451D1*
X3466858Y1397199D1*
Y1401002D1*
X3464912Y1406750D1*
X3461110Y1410597D1*
X3457263Y1412498D1*
X3451515D1*
X3479209Y1425895D2*
X3481111Y1423994D1*
X3483056Y1425895D1*
X3481111Y1427841D1*
X3479209Y1425895D1*
X3481111Y1412498D2*
Y1385703D1*
X3495408Y1425895D2*
Y1385703D1*
X3288417Y1618182D2*
X3292264Y1620127D1*
X3298012Y1625831D1*
Y1585683D1*
X3590363Y1616281D2*
Y1618182D1*
X3592264Y1622029D1*
X3594165Y1623930D1*
X3598012Y1625831D1*
X3605661D1*
X3609464Y1623930D1*
X3611365Y1622029D1*
X3613311Y1618182D1*
Y1614379D1*
X3611365Y1610532D1*
X3607563Y1604829D1*
X3588417Y1585683D1*
X3615212D1*
X3452712Y2125915D2*
Y2085723D1*
X3425917Y2125915D1*
Y2085723D1*
X3476559Y2125915D2*
X3472713Y2124014D1*
X3468910Y2120167D1*
X3466965Y2116365D1*
X3465063Y2110617D1*
Y2101022D1*
X3466965Y2095318D1*
X3468910Y2091471D1*
X3472713Y2087669D1*
X3476559Y2085723D1*
X3484209D1*
X3488011Y2087669D1*
X3491858Y2091471D1*
X3493759Y2095318D1*
X3495661Y2101022D1*
Y2110617D1*
X3493759Y2116365D1*
X3491858Y2120167D1*
X3488011Y2124014D1*
X3484209Y2125915D1*
X3476559D1*
X3440212Y1925845D2*
Y1885653D1*
X3413417Y1925845D1*
Y1885653D1*
X3481259Y1916295D2*
X3479358Y1920097D1*
X3475511Y1923944D1*
X3471709Y1925845D1*
X3464059D1*
X3460213Y1923944D1*
X3456410Y1920097D1*
X3454465Y1916295D1*
X3452563Y1910547D1*
Y1900952D1*
X3454465Y1895248D1*
X3456410Y1891401D1*
X3460213Y1887599D1*
X3464059Y1885653D1*
X3471709D1*
X3475511Y1887599D1*
X3479358Y1891401D1*
X3481259Y1895248D1*
X3417113Y1716315D2*
X3415212Y1720117D1*
X3411365Y1723964D1*
X3407563Y1725865D1*
X3399913D1*
X3396067Y1723964D1*
X3392264Y1720117D1*
X3390319Y1716315D1*
X3388417Y1710567D1*
Y1700972D1*
X3390319Y1695268D1*
X3392264Y1691421D1*
X3396067Y1687619D1*
X3399913Y1685673D1*
X3407563D1*
X3411365Y1687619D1*
X3415212Y1691421D1*
X3417113Y1695268D1*
X3439015Y1712468D2*
X3435213Y1710567D1*
X3431366Y1706720D1*
X3429465Y1700972D1*
Y1697169D1*
X3431366Y1691421D1*
X3435213Y1687619D1*
X3439015Y1685673D1*
X3444763D1*
X3448610Y1687619D1*
X3452412Y1691421D1*
X3454358Y1697169D1*
Y1700972D1*
X3452412Y1706720D1*
X3448610Y1710567D1*
X3444763Y1712468D1*
X3439015D1*
X3466709D2*
Y1685673D1*
Y1704819D2*
X3472457Y1710567D1*
X3476304Y1712468D1*
X3482008D1*
X3485855Y1710567D1*
X3487756Y1704819D1*
Y1685673D1*
Y1704819D2*
X3493504Y1710567D1*
X3497351Y1712468D1*
X3503055D1*
X3506901Y1710567D1*
X3508847Y1704819D1*
Y1685673D1*
M02*
