G04 DipTrace 3.3.1.1*
G04 BottomMask.gbr*
%MOIN*%
G04 #@! TF.FileFunction,Soldermask,Bot*
G04 #@! TF.Part,Single*
%ADD22C,0.137795*%
%ADD28C,0.074929*%
%ADD30R,0.074929X0.074929*%
%ADD32C,0.058*%
%FSLAX26Y26*%
G04*
G70*
G90*
G75*
G01*
G04 BotMask*
%LPD*%
D22*
X748331Y571814D3*
X743487Y4114526D3*
X2913685Y570950D3*
X2907113Y4114068D3*
D32*
X494000Y1031008D3*
Y831008D3*
Y931008D3*
D30*
X994394Y4203055D3*
D28*
Y4025890D3*
X1250299D3*
Y4203055D3*
D30*
X1703055D3*
D28*
Y4025890D3*
X1958961D3*
Y4203055D3*
D30*
X2411717D3*
D28*
Y4025890D3*
X2667622D3*
Y4203055D3*
D30*
X994394Y3494394D3*
D28*
Y3317228D3*
X1250299D3*
Y3494394D3*
D30*
X1703055D3*
D28*
Y3317228D3*
X1958961D3*
Y3494394D3*
D30*
X2411717D3*
D28*
Y3317228D3*
X2667622D3*
Y3494394D3*
D30*
X994394Y2785732D3*
D28*
Y2608567D3*
X1250299D3*
Y2785732D3*
D30*
X1703055D3*
D28*
Y2608567D3*
X1958961D3*
Y2785732D3*
D30*
X2411717D3*
D28*
Y2608567D3*
X2667622D3*
Y2785732D3*
D30*
X994394Y2077071D3*
D28*
Y1899906D3*
X1250299D3*
Y2077071D3*
D30*
X1703055D3*
D28*
Y1899906D3*
X1958961D3*
Y2077071D3*
D30*
X2411717D3*
D28*
Y1899906D3*
X2667622D3*
Y2077071D3*
D30*
X1703055Y1368409D3*
D28*
Y1191244D3*
X1958961D3*
Y1368409D3*
D30*
X2411717D3*
D28*
Y1191244D3*
X2667622D3*
Y1368409D3*
D30*
X994394Y659748D3*
D28*
Y482583D3*
X1250299D3*
Y659748D3*
D30*
X1703055D3*
D28*
Y482583D3*
X1958961D3*
Y659748D3*
D30*
X2411717D3*
D28*
Y482583D3*
X2667622D3*
Y659748D3*
D30*
X994394Y1368409D3*
D28*
Y1191244D3*
X1250299D3*
Y1368409D3*
M02*
