G04 DipTrace 3.3.1.1*
G04 Bottom.gbr*
%MOIN*%
G04 #@! TF.FileFunction,Copper,L2,Bot*
G04 #@! TF.Part,Single*
%AMOUTLINE0*
4,1,8,
-0.029528,0.019685,
-0.03937,0.009843,
-0.03937,-0.009843,
-0.029528,-0.019685,
0.029528,-0.019685,
0.03937,-0.009843,
0.03937,0.009843,
0.029528,0.019685,
-0.029528,0.019685,
0*%
G04 #@! TA.AperFunction,Conductor*
%ADD14C,0.027559*%
%ADD15C,0.011811*%
G04 #@! TA.AperFunction,CopperBalancing*
%ADD17C,0.04*%
%ADD18C,0.012992*%
G04 #@! TA.AperFunction,ComponentPad*
%ADD20C,0.062992*%
%ADD21R,0.062992X0.062992*%
%ADD23C,0.06*%
%ADD24O,0.062992X0.137795*%
%ADD25O,0.137795X0.062992*%
%ADD26R,0.059055X0.059055*%
%ADD27C,0.059055*%
%ADD29C,0.12*%
%ADD30C,0.059055*%
%ADD31O,0.07874X0.03937*%
%ADD33R,0.07X0.07*%
%ADD34C,0.07*%
%ADD81OUTLINE0*%
%FSLAX26Y26*%
G04*
G70*
G90*
G75*
G01*
G04 Bottom*
%LPD*%
X2913701Y1571415D2*
D14*
X2957923Y1615636D1*
Y2096563D1*
X3182867D1*
Y2538850D1*
X3239054Y2595037D1*
X3307402D1*
X2548227Y1559364D2*
X2913701D1*
Y1571415D1*
X3844625Y3047474D2*
Y2847474D1*
X4044625D2*
Y3047474D1*
X1474877Y2071140D2*
Y2305077D1*
Y2590714D1*
X1473306D1*
X523056Y1702283D2*
X496529D1*
X454950Y1660705D1*
Y1502283D1*
X523056D1*
X454950D2*
Y1348472D1*
X501139Y1302283D1*
X523056D1*
X3072751Y1614883D2*
X3078088Y1620220D1*
Y1835518D1*
X3787545Y1075293D2*
X3622025Y1240812D1*
Y1407987D1*
X3637623D1*
Y1508717D1*
X4218808Y1068297D2*
Y868297D1*
X4018808Y1068297D2*
Y868297D1*
X3157385Y1506210D2*
Y1407987D1*
X3322346D1*
X3622025D1*
X3322346Y1418999D2*
Y1407987D1*
X519448Y2383307D2*
D15*
X485358D1*
X441593Y2339542D1*
Y1660705D1*
X454950D1*
X1972554Y2968046D2*
Y2721335D1*
X1970634D1*
X3707050Y1373278D2*
Y1260436D1*
X1619399Y1598427D2*
Y2417741D1*
X1670079Y2468421D1*
X4043178Y1906416D2*
Y1815220D1*
X3962711Y1734753D1*
X3923349D1*
Y1729845D1*
X4039484Y2496215D2*
Y2314029D1*
X4039437D1*
X3420467Y1749592D2*
Y1646933D1*
X3486967Y1580433D1*
X3710007D1*
Y1590409D1*
X3019252Y2041207D2*
X3050634D1*
X3075409Y2016432D1*
X3157287D1*
X3228661Y1945058D1*
Y1839171D1*
X3318240Y1749592D1*
X3420467D1*
X3432219Y1556798D2*
Y1582717D1*
X3191685Y1823251D1*
Y1922682D1*
X3150832Y1963535D1*
X3043318D1*
X3019597Y1987256D1*
Y1985593D1*
X3844209Y1556850D2*
X3508699D1*
X3508647Y1556798D1*
X3432219D1*
X3661732Y2514268D2*
Y2398186D1*
X3689854Y1686274D2*
X3627660Y1624080D1*
X2413690Y1382357D2*
Y1504673D1*
X2667685Y1758668D1*
X2757378D1*
X2754849Y1756139D1*
X3144278D2*
Y1882438D1*
X3311710Y1978192D2*
Y1982102D1*
X3589094D1*
X1721264Y2583472D2*
X1778930Y2641140D1*
Y2821492D1*
X3448505Y1309688D2*
Y1105522D1*
X3428182Y1085199D1*
X3387545D1*
Y1075293D1*
X1980001Y1765281D2*
Y1604769D1*
X1978416D1*
X623056Y2002283D2*
X642686D1*
X727109Y1917861D1*
Y1732499D1*
X999055Y1460552D1*
X961126Y2016207D2*
X1276520Y1700814D1*
Y1690484D1*
X523056Y1802283D2*
X623056D1*
D17*
X2548227Y1559364D3*
X3707050Y1373278D3*
Y1260436D3*
X4043178Y1906416D3*
X3844209Y1556850D3*
X3661732Y2514268D3*
Y2398186D3*
X3689854Y1686274D3*
X3627660Y1624080D3*
X2754849Y1756139D3*
X3144278D3*
X3311710Y1978192D3*
X3589094Y1982102D3*
X2390392Y2355323D3*
X2795591Y2752517D3*
X2312198Y2633168D3*
X3225412Y2698152D3*
X1968819Y1886375D3*
X2207487Y1478472D3*
X2205039Y1965115D3*
X3307402Y2437556D3*
X2753975Y2184954D3*
X2992441Y2319446D3*
X3425512Y2083226D3*
X3897953Y2122596D3*
X3110551Y1335194D3*
X2953071Y1098974D3*
X2201238Y927644D3*
X1328608Y1100474D3*
X1734766Y1355290D3*
X3637944Y1019794D3*
X3474219Y706924D3*
X4134173Y1492675D3*
Y1965115D3*
Y2319446D3*
Y2122596D3*
X3509130Y2848550D3*
X3943864Y2744249D3*
X1418299Y2703041D3*
X1067587Y2713600D3*
X1227534Y2256841D3*
X1063307Y2083226D3*
X791874Y1899122D3*
X713631Y2250982D3*
X1127080Y2506601D3*
X4134173Y1807635D3*
X3897953Y2358816D3*
X3307402Y2122596D3*
X3819213Y2004486D3*
X3464882Y2476927D3*
X3543622Y2398186D3*
X4134173Y1650155D3*
X2029126Y2550772D3*
X2244399Y2204416D3*
X2220568Y2494280D3*
X2223630Y2353471D3*
X2540234Y2339202D3*
X2676665Y2286127D3*
X2848085Y2093281D3*
X2834961Y1847005D3*
X2716850D3*
X2541573Y2199760D3*
X2391988Y2208944D3*
X2236810Y3072844D3*
X2410354Y3014659D3*
X2429707Y3090022D3*
X2687600Y2877110D3*
X2756220Y2555667D3*
X2874331Y2437556D3*
X3110551Y2634407D3*
Y2791887D3*
X3092970Y2993232D3*
X3110551Y2437556D3*
Y2201336D3*
X2834961Y1965115D3*
X3307402Y2280076D3*
X3229214Y2890121D3*
X3227314Y3006062D3*
X3358459Y2743769D3*
X3506713Y2734265D3*
X3679675Y2736165D3*
X3810820Y2734265D3*
X4073114Y2719060D3*
X3225412Y2789385D3*
X3386142Y2437556D3*
X3681575Y2040518D3*
X3937323Y2004486D3*
X3966676Y1603364D3*
X3970478Y1481720D3*
X3976180Y1375282D3*
X3877344Y1213726D3*
X3715786Y1187115D3*
X3571336Y1190917D3*
X3556760Y1087572D3*
X3563732Y922923D3*
X3539917Y828383D3*
X3366366Y703071D3*
X3228661Y705273D3*
X3071181D3*
X2911402Y594882D3*
X2698869Y791377D3*
X2829559Y989331D3*
X2953071Y1020234D3*
X3071181D3*
X3110551Y1177714D3*
X2953071D3*
X2831972Y1059770D3*
X2717933Y962836D3*
X2483887Y929545D3*
X2520000Y787270D3*
Y665903D3*
Y508423D3*
X3228661Y547793D3*
X4008491Y495270D3*
X3903954Y902014D3*
X3886848Y774669D3*
X3807020Y630218D3*
X3637860Y573198D3*
X4124432Y780371D3*
X3149386Y1610966D3*
X3322346Y1418999D3*
X3242518Y1356276D3*
X2992441Y1335194D3*
Y1532045D3*
X2839576Y1476018D3*
X2831972Y1293554D3*
X2670415Y1154804D3*
X2649508Y1318262D3*
X2750243Y1377182D3*
X2113933Y1477266D3*
X2323150Y1610785D3*
X2361975Y1462264D3*
X2323150Y1413934D3*
X1721717Y1099508D3*
X1654925Y1333571D3*
X1860213Y1147303D3*
X1653858Y1177714D3*
X1537648Y1339541D3*
X1417638Y1413934D3*
X1279121Y1517833D3*
X1278525Y1605009D3*
X1189790Y1677490D3*
X1092522Y1990843D3*
X1216399Y1901769D3*
X1311433Y1993003D3*
X1507202Y1994903D3*
X1549017Y1896067D3*
X1376056Y1897969D3*
X1994433Y1486508D3*
X1860728Y1487423D3*
X1678264Y1489323D3*
X1573726Y1485522D3*
X2362520Y1965115D3*
X2520000D3*
X2476573Y1906147D3*
X2460686Y1797902D3*
X2086819Y1924438D3*
X2008189Y2004486D3*
X2076810Y1816648D3*
X1850709Y1925745D3*
X1700121Y2209678D3*
X1847310Y2211979D3*
X2017496D3*
X1693228Y2122596D3*
X1535748Y2201336D3*
X2121218Y2208068D3*
X1233259Y2660444D3*
X1352849Y2527054D3*
X1334450Y2317770D3*
X1182663Y2119986D3*
X1063307Y2240706D3*
X1056403Y2447249D3*
X1058472Y2584549D3*
X811034Y1146496D3*
X501479Y2257791D3*
X827087Y2083226D3*
X1474877Y2305077D3*
X3072751Y1614883D3*
X1473306Y2590714D3*
X2750307Y1964777D3*
X1474877Y2071140D3*
X1970634Y2721335D3*
X1972554Y2968046D3*
X1670079Y2468421D3*
X1619399Y1598427D3*
X3307402Y2595037D3*
X2913701Y1571415D3*
X2413690Y1382357D3*
X3637623Y1508717D3*
X3157385Y1506210D3*
X1778930Y2821492D3*
X1721264Y2583472D3*
X1978416Y1604769D3*
X1980001Y1765281D3*
X999055Y1460552D3*
X1276520Y1690484D3*
X4039484Y2496215D3*
X961126Y2016207D3*
X3078088Y1835518D3*
X3019252Y2041207D3*
X3710007Y1590409D3*
X3420467Y1749592D3*
X3432219Y1556798D3*
X3019597Y1985593D3*
X3923349Y1729845D3*
X3144278Y1882438D3*
X3448505Y1309688D3*
X3256268Y3048879D2*
X3729045D1*
X4160226D2*
X4271470D1*
X3256125Y3009010D2*
X3556154D1*
X3702774D2*
X3735862D1*
X4153373D2*
X4271470D1*
X3255980Y2969142D2*
X3544385D1*
X3714580D2*
X3761125D1*
X4128110D2*
X4271470D1*
X3255837Y2929273D2*
X3553571D1*
X3705394D2*
X3764713D1*
X4124558D2*
X4271470D1*
X3255694Y2889404D2*
X3601224D1*
X3657705D2*
X3737190D1*
X4152045D2*
X4271470D1*
X3255587Y2849535D2*
X3729045D1*
X4160190D2*
X4271470D1*
X3255442Y2809667D2*
X3735612D1*
X4153623D2*
X4271470D1*
X3255299Y2769798D2*
X3744654D1*
X3928773D2*
X3960497D1*
X4128756D2*
X4271470D1*
X3255155Y2729929D2*
X3735360D1*
X3886286D2*
X3998354D1*
X4147882D2*
X4271470D1*
X3255012Y2690060D2*
X3750503D1*
X3871143D2*
X4003665D1*
X4142571D2*
X4271470D1*
X3357067Y2650192D2*
X4049526D1*
X4096711D2*
X4271470D1*
X3381360Y2610323D2*
X4271470D1*
X3378633Y2570454D2*
X3613353D1*
X3710131D2*
X4271470D1*
X3342605Y2530585D2*
X3588020D1*
X3735465D2*
X3972661D1*
X4106293D2*
X4271470D1*
X3254329Y2490717D2*
X3590101D1*
X3733348D2*
X3964085D1*
X4114869D2*
X4271470D1*
X3254186Y2450848D2*
X3600220D1*
X3723228D2*
X3977972D1*
X4100982D2*
X4271470D1*
X3254079Y2410979D2*
X3587302D1*
X3808740D2*
X3977972D1*
X4100982D2*
X4271470D1*
X3253936Y2371110D2*
X3591465D1*
X3823453D2*
X3873657D1*
X3895940D2*
X3977793D1*
X4101089D2*
X4271470D1*
X3253791Y2331241D2*
X3632336D1*
X4122727D2*
X4271470D1*
X3253648Y2291373D2*
X3698327D1*
X3779029D2*
X3799664D1*
X4121328D2*
X4271470D1*
X3253505Y2251504D2*
X3809533D1*
X3960064D2*
X3983751D1*
X4095133D2*
X4271470D1*
X3253361Y2211635D2*
X3860954D1*
X3908642D2*
X4271470D1*
X3253253Y2171766D2*
X4271470D1*
X3253110Y2131898D2*
X4271470D1*
X3252966Y2092029D2*
X4271470D1*
X3252823Y2052160D2*
X3570328D1*
X3607861D2*
X4271470D1*
X3658028Y2012291D2*
X3994336D1*
X3664020Y1972423D2*
X3992900D1*
X3644786Y1932554D2*
X3972518D1*
X3370774Y1892685D2*
X3968894D1*
X3370774Y1852816D2*
X3981669D1*
X3457829Y1812948D2*
X3955581D1*
X3492098Y1773079D2*
X3862282D1*
X3494180Y1733210D2*
X3631798D1*
X3747917D2*
X3847820D1*
X4156210Y3045636D2*
X4155484Y3034642D1*
X4153678Y3023772D1*
X4150810Y3013133D1*
X4146906Y3002828D1*
X4142004Y2992959D1*
X4136154Y2983621D1*
X4129409Y2974907D1*
X4121840Y2966899D1*
X4113517Y2959677D1*
X4104524Y2953311D1*
X4094945Y2947862D1*
X4094167Y2947478D1*
X4103504Y2942277D1*
X4112567Y2936009D1*
X4120967Y2928877D1*
X4128622Y2920951D1*
X4135459Y2912310D1*
X4141411Y2903035D1*
X4146417Y2893220D1*
X4150433Y2882958D1*
X4153416Y2872350D1*
X4155340Y2861501D1*
X4156184Y2850514D1*
X4155983Y2840130D1*
X4154715Y2829184D1*
X4152375Y2818416D1*
X4148984Y2807932D1*
X4144576Y2797833D1*
X4139194Y2788218D1*
X4132888Y2779181D1*
X4125724Y2770808D1*
X4124203Y2769235D1*
X4131039Y2761146D1*
X4136911Y2751566D1*
X4141210Y2741186D1*
X4143832Y2730261D1*
X4144714Y2719060D1*
X4143832Y2707860D1*
X4141210Y2696934D1*
X4136911Y2686555D1*
X4131039Y2676975D1*
X4123743Y2668432D1*
X4115199Y2661135D1*
X4105619Y2655264D1*
X4095240Y2650965D1*
X4084315Y2648343D1*
X4073114Y2647461D1*
X4061913Y2648343D1*
X4050988Y2650965D1*
X4040609Y2655264D1*
X4031029Y2661135D1*
X4022486Y2668432D1*
X4015189Y2676975D1*
X4009318Y2686555D1*
X4005018Y2696934D1*
X4002396Y2707860D1*
X4001514Y2719060D1*
X4002396Y2730261D1*
X4005018Y2741186D1*
X4005650Y2742896D1*
X3995665Y2747186D1*
X3986014Y2752504D1*
X3976934Y2758747D1*
X3968514Y2765854D1*
X3960836Y2773759D1*
X3953975Y2782381D1*
X3947997Y2791638D1*
X3944576Y2797833D1*
X3939194Y2788218D1*
X3932888Y2779181D1*
X3925724Y2770808D1*
X3917768Y2763185D1*
X3909100Y2756383D1*
X3899802Y2750469D1*
X3889966Y2745500D1*
X3881962Y2742308D1*
X3882420Y2734265D1*
X3881538Y2723064D1*
X3878916Y2712139D1*
X3874617Y2701760D1*
X3868745Y2692180D1*
X3861449Y2683636D1*
X3852906Y2676340D1*
X3843325Y2670469D1*
X3832946Y2666169D1*
X3822021Y2663547D1*
X3810820Y2662665D1*
X3799619Y2663547D1*
X3788694Y2666169D1*
X3778315Y2670469D1*
X3768735Y2676340D1*
X3760192Y2683636D1*
X3752895Y2692180D1*
X3747024Y2701760D1*
X3742724Y2712139D1*
X3740102Y2723064D1*
X3739220Y2734265D1*
X3740102Y2745466D1*
X3742724Y2756391D1*
X3747024Y2766770D1*
X3752895Y2776350D1*
X3755764Y2779990D1*
X3749888Y2788487D1*
X3744533Y2798117D1*
X3740154Y2808228D1*
X3736791Y2818722D1*
X3734482Y2829496D1*
X3733247Y2840446D1*
X3733096Y2851465D1*
X3734033Y2862444D1*
X3736049Y2873277D1*
X3739122Y2883858D1*
X3743224Y2894085D1*
X3748316Y2903858D1*
X3754346Y2913081D1*
X3761256Y2921664D1*
X3768979Y2929524D1*
X3777440Y2936584D1*
X3786555Y2942776D1*
X3795083Y2947471D1*
X3786014Y2952504D1*
X3776934Y2958747D1*
X3768514Y2965854D1*
X3760836Y2973759D1*
X3753975Y2982381D1*
X3747997Y2991638D1*
X3742962Y3001438D1*
X3738917Y3011689D1*
X3735904Y3022287D1*
X3733950Y3033133D1*
X3733075Y3044117D1*
X3733287Y3055134D1*
X3734587Y3066076D1*
X3736957Y3076837D1*
X3740378Y3087312D1*
X3740940Y3088749D1*
X3252409Y3088748D1*
X3250920Y2660381D1*
X3278203Y2660416D1*
X3285276Y2663133D1*
X3296201Y2665755D1*
X3307402Y2666636D1*
X3318602Y2665755D1*
X3329528Y2663133D1*
X3339907Y2658833D1*
X3349487Y2652962D1*
X3358030Y2645665D1*
X3365327Y2637122D1*
X3371198Y2627542D1*
X3375497Y2617163D1*
X3378119Y2606238D1*
X3379001Y2595037D1*
X3378119Y2583836D1*
X3375497Y2572911D1*
X3371198Y2562531D1*
X3365327Y2552951D1*
X3358030Y2544408D1*
X3349487Y2537112D1*
X3339907Y2531240D1*
X3329528Y2526941D1*
X3318602Y2524319D1*
X3307402Y2523437D1*
X3296201Y2524319D1*
X3285276Y2526941D1*
X3278346Y2529650D1*
X3266171Y2529657D1*
X3250395Y2513917D1*
X3248731Y2024517D1*
X3257265Y2024692D1*
X3265210Y2032636D1*
X3274299Y2039240D1*
X3284310Y2044341D1*
X3294995Y2047814D1*
X3306092Y2049571D1*
X3317328D1*
X3328425Y2047814D1*
X3339110Y2044341D1*
X3348450Y2039617D1*
X3546428Y2039608D1*
X3551684Y2043151D1*
X3561694Y2048252D1*
X3572379Y2051724D1*
X3583476Y2053482D1*
X3594713D1*
X3605810Y2051724D1*
X3616495Y2048252D1*
X3626505Y2043151D1*
X3635594Y2036547D1*
X3643539Y2028602D1*
X3650143Y2019513D1*
X3655244Y2009503D1*
X3658717Y1998818D1*
X3660474Y1987720D1*
Y1976484D1*
X3658717Y1965387D1*
X3655244Y1954702D1*
X3650143Y1944692D1*
X3643539Y1935602D1*
X3635594Y1927657D1*
X3626505Y1921054D1*
X3616495Y1915953D1*
X3605810Y1912480D1*
X3594713Y1910723D1*
X3583476D1*
X3572379Y1912480D1*
X3561694Y1915953D1*
X3551684Y1921054D1*
X3546475Y1924598D1*
X3366791Y1924597D1*
X3366772Y1807087D1*
X3377844Y1807097D1*
X3383056Y1810640D1*
X3393067Y1815741D1*
X3403752Y1819214D1*
X3414849Y1820971D1*
X3426085D1*
X3437182Y1819214D1*
X3447867Y1815741D1*
X3457878Y1810640D1*
X3466967Y1804037D1*
X3474912Y1796092D1*
X3481516Y1787003D1*
X3486617Y1776992D1*
X3490089Y1766307D1*
X3491846Y1755210D1*
Y1743974D1*
X3490089Y1732877D1*
X3486617Y1722192D1*
X3481516Y1712181D1*
X3479747Y1709533D1*
X3622112Y1709525D1*
X3626058Y1718780D1*
X3631929Y1728360D1*
X3639226Y1736903D1*
X3647769Y1744199D1*
X3657349Y1750071D1*
X3667728Y1754370D1*
X3678654Y1756992D1*
X3689854Y1757874D1*
X3701055Y1756992D1*
X3711980Y1754370D1*
X3722360Y1750071D1*
X3731940Y1744199D1*
X3740483Y1736903D1*
X3747780Y1728360D1*
X3753651Y1718780D1*
X3757531Y1709533D1*
X3854713Y1709525D1*
X3852631Y1718644D1*
X3851749Y1729845D1*
X3852631Y1741046D1*
X3855253Y1751971D1*
X3859552Y1762350D1*
X3865424Y1771930D1*
X3872720Y1780474D1*
X3881264Y1787770D1*
X3890844Y1793642D1*
X3901223Y1797941D1*
X3912148Y1800563D1*
X3923349Y1801445D1*
X3934550Y1800563D1*
X3944777Y1798138D1*
X3985661Y1839029D1*
X3985673Y1863772D1*
X3982130Y1869005D1*
X3977029Y1879016D1*
X3973556Y1889701D1*
X3971799Y1900798D1*
Y1912034D1*
X3973556Y1923131D1*
X3977029Y1933816D1*
X3982130Y1943827D1*
X3988734Y1952916D1*
X3996678Y1960861D1*
X3996871Y1965173D1*
X3997055Y2006734D1*
X3997986Y2011343D1*
X3999966Y2015606D1*
X4002887Y2019290D1*
X4006588Y2022190D1*
X4010864Y2024146D1*
X4015483Y2025050D1*
X4275440Y2026294D1*
X4275455Y3088761D1*
X4148294Y3088748D1*
X4151543Y3079457D1*
X4154177Y3068756D1*
X4155741Y3057849D1*
X4156224Y3047474D1*
X4156210Y3045636D1*
X3819541Y2357537D2*
X3818791Y2351210D1*
X3817549Y2344963D1*
X3815820Y2338832D1*
X3813614Y2332856D1*
X3810948Y2327071D1*
X3807836Y2321513D1*
X3804297Y2316217D1*
X3800353Y2311214D1*
X3796029Y2306535D1*
X3791350Y2302211D1*
X3786348Y2298268D1*
X3781051Y2294728D1*
X3775493Y2291617D1*
X3769709Y2288950D1*
X3763732Y2286744D1*
X3757601Y2285016D1*
X3751354Y2283773D1*
X3745028Y2283024D1*
X3738663Y2282774D1*
X3732298Y2283024D1*
X3725971Y2283773D1*
X3719724Y2285016D1*
X3713593Y2286744D1*
X3707617Y2288950D1*
X3701832Y2291617D1*
X3696274Y2294728D1*
X3690978Y2298268D1*
X3685975Y2302211D1*
X3681297Y2306535D1*
X3676972Y2311214D1*
X3673029Y2316217D1*
X3669490Y2321513D1*
X3666560Y2326745D1*
X3656114Y2326807D1*
X3645017Y2328564D1*
X3634332Y2332037D1*
X3624322Y2337138D1*
X3615232Y2343741D1*
X3607287Y2351686D1*
X3600684Y2360776D1*
X3595583Y2370786D1*
X3592110Y2381471D1*
X3590353Y2392568D1*
Y2403804D1*
X3592110Y2414902D1*
X3595583Y2425587D1*
X3600684Y2435597D1*
X3604228Y2440806D1*
X3604227Y2471642D1*
X3600684Y2476857D1*
X3595583Y2486867D1*
X3592110Y2497552D1*
X3590353Y2508650D1*
Y2519886D1*
X3592110Y2530983D1*
X3595583Y2541668D1*
X3600684Y2551678D1*
X3607287Y2560768D1*
X3615232Y2568713D1*
X3624322Y2575316D1*
X3634332Y2580417D1*
X3645017Y2583890D1*
X3656114Y2585647D1*
X3667350D1*
X3678448Y2583890D1*
X3689133Y2580417D1*
X3699143Y2575316D1*
X3708232Y2568713D1*
X3716177Y2560768D1*
X3722781Y2551678D1*
X3727882Y2541668D1*
X3731354Y2530983D1*
X3733112Y2519886D1*
Y2508650D1*
X3731354Y2497552D1*
X3727882Y2486867D1*
X3722781Y2476857D1*
X3719236Y2471648D1*
X3719238Y2442678D1*
X3725971Y2444030D1*
X3732298Y2444780D1*
X3738663Y2445029D1*
X3745028Y2444780D1*
X3751354Y2444030D1*
X3757601Y2442787D1*
X3763732Y2441059D1*
X3769709Y2438853D1*
X3775493Y2436186D1*
X3781051Y2433075D1*
X3786348Y2429535D1*
X3791350Y2425592D1*
X3796029Y2421268D1*
X3800353Y2416589D1*
X3804297Y2411587D1*
X3807836Y2406290D1*
X3810948Y2400732D1*
X3813614Y2394948D1*
X3815820Y2388971D1*
X3817549Y2382840D1*
X3818791Y2376593D1*
X3819541Y2370266D1*
X3819790Y2363902D1*
X3819541Y2357537D1*
X4120315Y2307664D2*
X4119566Y2301337D1*
X4118323Y2295091D1*
X4116594Y2288959D1*
X4114388Y2282983D1*
X4111722Y2277198D1*
X4108610Y2271640D1*
X4105071Y2266344D1*
X4101127Y2261341D1*
X4096803Y2256663D1*
X4092125Y2252339D1*
X4087122Y2248395D1*
X4081825Y2244856D1*
X4076268Y2241744D1*
X4070483Y2239077D1*
X4064507Y2236871D1*
X4058375Y2235143D1*
X4052129Y2233900D1*
X4045802Y2233151D1*
X4039437Y2232902D1*
X4033072Y2233151D1*
X4026745Y2233900D1*
X4020499Y2235143D1*
X4014367Y2236871D1*
X4008391Y2239077D1*
X4002606Y2241744D1*
X3997049Y2244856D1*
X3991752Y2248395D1*
X3986749Y2252339D1*
X3982071Y2256663D1*
X3977747Y2261341D1*
X3973803Y2266344D1*
X3970264Y2271640D1*
X3965391Y2281017D1*
X3963853Y2272081D1*
X3961289Y2263266D1*
X3957744Y2254797D1*
X3953265Y2246781D1*
X3947909Y2239323D1*
X3941745Y2232518D1*
X3934853Y2226454D1*
X3927318Y2221206D1*
X3919239Y2216845D1*
X3910719Y2213424D1*
X3901866Y2210987D1*
X3892795Y2209566D1*
X3883622Y2209178D1*
X3874465Y2209831D1*
X3865438Y2211513D1*
X3856660Y2214206D1*
X3848243Y2217873D1*
X3840294Y2222466D1*
X3832913Y2227929D1*
X3826199Y2234190D1*
X3820235Y2241171D1*
X3815097Y2248781D1*
X3810853Y2256923D1*
X3807555Y2265491D1*
X3805247Y2274378D1*
X3803957Y2283467D1*
X3803703Y2292646D1*
X3804488Y2301794D1*
X3806301Y2310794D1*
X3809119Y2319533D1*
X3812907Y2327896D1*
X3817615Y2335778D1*
X3823185Y2343077D1*
X3829543Y2349701D1*
X3836609Y2355564D1*
X3844293Y2360591D1*
X3852495Y2364718D1*
X3861110Y2367891D1*
X3870029Y2370070D1*
X3879136Y2371228D1*
X3888318Y2371349D1*
X3897453Y2370432D1*
X3906427Y2368488D1*
X3915123Y2365545D1*
X3923430Y2361635D1*
X3931244Y2356814D1*
X3938462Y2351139D1*
X3944993Y2344686D1*
X3950753Y2337535D1*
X3955668Y2329781D1*
X3958857Y2323409D1*
X3960551Y2332967D1*
X3962280Y2339098D1*
X3964486Y2345075D1*
X3967152Y2350860D1*
X3970264Y2356417D1*
X3973803Y2361714D1*
X3977747Y2366717D1*
X3981987Y2371303D1*
X3981979Y2453583D1*
X3978436Y2458804D1*
X3973335Y2468815D1*
X3969862Y2479500D1*
X3968105Y2490597D1*
Y2501833D1*
X3969862Y2512930D1*
X3973335Y2523615D1*
X3978436Y2533626D1*
X3985039Y2542715D1*
X3992984Y2550660D1*
X4002073Y2557264D1*
X4012084Y2562365D1*
X4022769Y2565837D1*
X4033866Y2567594D1*
X4045102D1*
X4056199Y2565837D1*
X4066885Y2562365D1*
X4076895Y2557264D1*
X4085984Y2550660D1*
X4093929Y2542715D1*
X4100533Y2533626D1*
X4105634Y2523615D1*
X4109106Y2512930D1*
X4110864Y2501833D1*
Y2490597D1*
X4109106Y2479500D1*
X4105634Y2468815D1*
X4100533Y2458804D1*
X4096988Y2453596D1*
X4096990Y2371231D1*
X4101127Y2366717D1*
X4105071Y2361714D1*
X4108610Y2356417D1*
X4111722Y2350860D1*
X4114388Y2345075D1*
X4116594Y2339098D1*
X4118323Y2332967D1*
X4119566Y2326720D1*
X4120315Y2320394D1*
X4120564Y2314029D1*
X4120315Y2307664D1*
X3710576Y2964991D2*
X3709849Y2955839D1*
X3708093Y2946827D1*
X3705329Y2938071D1*
X3701594Y2929684D1*
X3696936Y2921772D1*
X3691412Y2914437D1*
X3685096Y2907774D1*
X3678067Y2901866D1*
X3670416Y2896791D1*
X3662240Y2892614D1*
X3653644Y2889386D1*
X3644740Y2887151D1*
X3635639Y2885936D1*
X3626459Y2885756D1*
X3617318Y2886615D1*
X3608332Y2888503D1*
X3599618Y2891392D1*
X3591285Y2895248D1*
X3583442Y2900021D1*
X3576188Y2905650D1*
X3569617Y2912062D1*
X3563812Y2919176D1*
X3558848Y2926900D1*
X3554789Y2935135D1*
X3551686Y2943777D1*
X3549580Y2952713D1*
X3548496Y2961831D1*
X3548450Y2971012D1*
X3549442Y2980139D1*
X3551458Y2989097D1*
X3554474Y2997769D1*
X3558450Y3006045D1*
X3563336Y3013818D1*
X3569070Y3020990D1*
X3575576Y3027467D1*
X3582773Y3033168D1*
X3590568Y3038020D1*
X3598861Y3041959D1*
X3607546Y3044937D1*
X3616512Y3046915D1*
X3625644Y3047865D1*
X3634825Y3047778D1*
X3643938Y3046655D1*
X3652865Y3044509D1*
X3661492Y3041369D1*
X3669710Y3037273D1*
X3677412Y3032274D1*
X3684500Y3026438D1*
X3690883Y3019839D1*
X3696479Y3012560D1*
X3701218Y3004696D1*
X3705037Y2996346D1*
X3707888Y2987619D1*
X3709735Y2978626D1*
X3710554Y2969480D1*
X3710576Y2964991D1*
X4044625Y3047474D2*
D18*
X4156189D1*
X4044625Y2847474D2*
X4156189D1*
X3733060D2*
X3844625D1*
X3733060Y3047474D2*
X3844625D1*
X3629470Y3047920D2*
Y2885736D1*
X3548378Y2966828D2*
X3710562D1*
X3884797Y2371390D2*
Y2209206D1*
X3803705Y2290298D2*
X3965888D1*
X2189688Y3046979D2*
D17*
X2617285D1*
X2747328D2*
X3165308D1*
X2346537Y3007110D2*
X2598339D1*
X2766310D2*
X3165308D1*
X2366919Y2967241D2*
X2601568D1*
X2763045D2*
X3165308D1*
X2365197Y2927373D2*
X2631352D1*
X2733261D2*
X3165308D1*
X2339360Y2887504D2*
X3165308D1*
X2189688Y2847635D2*
X2296625D1*
X2528828D2*
X3165308D1*
X2189688Y2807766D2*
X2296625D1*
X2564247D2*
X3165308D1*
X2189688Y2767898D2*
X2296625D1*
X2570454D2*
X3165308D1*
X2189688Y2728029D2*
X2296625D1*
X2555957D2*
X3165308D1*
X2189688Y2688160D2*
X2852685D1*
X2990766D2*
X3165308D1*
X2189688Y2648291D2*
X2837076D1*
X3006411D2*
X3165308D1*
X2189688Y2608423D2*
X2842853D1*
X3000598D2*
X3155979D1*
X2189688Y2568554D2*
X2878665D1*
X2964786D2*
X3120633D1*
X2189688Y2528685D2*
X2540852D1*
X2613659D2*
X3113492D1*
X2189688Y2488816D2*
X2499801D1*
X2654675D2*
X3113492D1*
X2189688Y2448948D2*
X2492301D1*
X2662175D2*
X3113492D1*
X2189688Y2409079D2*
X2505900D1*
X2648575D2*
X3113492D1*
X2189688Y2369210D2*
X3113492D1*
X2189688Y2329341D2*
X3113492D1*
X2189688Y2289472D2*
X3113492D1*
X2189688Y2249604D2*
X3113492D1*
X2189688Y2209735D2*
X3113492D1*
X2189688Y2169866D2*
X3113492D1*
X2346896Y2129997D2*
X2629270D1*
X2705665D2*
X2897756D1*
X2379084Y2090129D2*
X2589655D1*
X2745247D2*
X2888534D1*
X2383965Y2050260D2*
X2582550D1*
X2752352D2*
X2888534D1*
X2367816Y2010391D2*
X2596652D1*
X2738249D2*
X2888534D1*
X2189688Y1970522D2*
X2583052D1*
X2731790D2*
X2888534D1*
X2189688Y1930654D2*
X2572286D1*
X2742555D2*
X2888534D1*
X4114551D2*
X4267671D1*
X2331896Y1890785D2*
X2582513D1*
X2732364D2*
X2888534D1*
X3027295D2*
X3069175D1*
X4117063D2*
X4267671D1*
X2378509Y1850916D2*
X2481786D1*
X2678789D2*
X2888534D1*
X3027295D2*
X3075993D1*
X4104682D2*
X4267671D1*
X2388091Y1811047D2*
X2467110D1*
X2804814D2*
X2888534D1*
X3027295D2*
X3082776D1*
X4104539D2*
X4267671D1*
X2377253Y1771178D2*
X2473713D1*
X2828857D2*
X2888534D1*
X3027295D2*
X3070287D1*
X4084444D2*
X4267671D1*
X2324146Y1731310D2*
X2511749D1*
X2826021D2*
X2888534D1*
X3027295D2*
X3073122D1*
X4062841D2*
X4267671D1*
X2685786Y1691441D2*
X2720165D1*
X2789528D2*
X2888534D1*
X3027295D2*
X3109617D1*
X3178942D2*
X3238154D1*
X4025773D2*
X4267671D1*
X2645919Y1651572D2*
X2888534D1*
X3027295D2*
X3086399D1*
X3212350D2*
X3278021D1*
X4023621D2*
X4267671D1*
X3027188Y1611703D2*
X3073804D1*
X3224982D2*
X3317924D1*
X4041778D2*
X4267671D1*
X3010466Y1571835D2*
X3085430D1*
X3213356D2*
X3357791D1*
X4034959D2*
X4267671D1*
X2977453Y1531966D2*
X3361056D1*
X4025487D2*
X4267671D1*
X2576770Y1492097D2*
X3397551D1*
X3466877D2*
X3809646D1*
X4045331D2*
X4267671D1*
X2504643Y1452228D2*
X3901222D1*
X4039732D2*
X4267671D1*
X2504643Y1412360D2*
X3194016D1*
X3291045D2*
X3340710D1*
X3463146D2*
X3643071D1*
X3771031D2*
X3910911D1*
X4041419D2*
X4267671D1*
X2504643Y1372491D2*
X3168790D1*
X3486900D2*
X3631445D1*
X3782657D2*
X3900647D1*
X4051718D2*
X4143404D1*
X2504643Y1332622D2*
X3170942D1*
X3520345D2*
X3644112D1*
X3827980D2*
X3914678D1*
X4037686D2*
X4121945D1*
X2504643Y1292753D2*
X3205463D1*
X3279562D2*
X3345698D1*
X3522067D2*
X3639159D1*
X3873804D2*
X4123453D1*
X2504643Y1252885D2*
X3387001D1*
X3510010D2*
X3531471D1*
X3611203D2*
X3631839D1*
X3882559D2*
X4149864D1*
X2504643Y1213016D2*
X3387001D1*
X3870323D2*
X4267671D1*
X2504643Y1173147D2*
X3387001D1*
X3644684D2*
X3976579D1*
X4061047D2*
X4176597D1*
X2504643Y1133278D2*
X3319217D1*
X3617806D2*
X3719217D1*
X3855862D2*
X3924080D1*
X2504643Y1093409D2*
X3298870D1*
X3508718D2*
X3698870D1*
X3876244D2*
X3906066D1*
X2504643Y1053541D2*
X3299731D1*
X3481841D2*
X3699732D1*
X3875383D2*
X3904199D1*
X2504643Y1013672D2*
X3305903D1*
X3469173D2*
X3722698D1*
X3852381D2*
X3917478D1*
X2504643Y973803D2*
X2787879D1*
X2962059D2*
X3296967D1*
X3478144D2*
X3955442D1*
X2504643Y933934D2*
X2555816D1*
X2641648D2*
X2787879D1*
X2962059D2*
X3296932D1*
X3478144D2*
X3719827D1*
X3855252D2*
X3924546D1*
X2677568Y894066D2*
X2787879D1*
X2962059D2*
X3296932D1*
X3478144D2*
X3699014D1*
X3876101D2*
X3906210D1*
X2683417Y854197D2*
X2787879D1*
X2962059D2*
X3296932D1*
X3478144D2*
X3699552D1*
X3875526D2*
X3904092D1*
X2504643Y814328D2*
X2529656D1*
X2667844D2*
X2787879D1*
X2962059D2*
X3296932D1*
X3478144D2*
X3722051D1*
X3853063D2*
X3917118D1*
X2504643Y774459D2*
X2790104D1*
X2959833D2*
X3715413D1*
X3861173D2*
X3954402D1*
X4083224D2*
X4154385D1*
X2504643Y734591D2*
X2812495D1*
X2937478D2*
X3583072D1*
X3653870D2*
X3703213D1*
X3873373D2*
X4267671D1*
X2504643Y694722D2*
X3541231D1*
X3864581D2*
X4267671D1*
X2504643Y654853D2*
X3533480D1*
X3703462D2*
X3757972D1*
X3818650D2*
X4110570D1*
X2504643Y614984D2*
X3546829D1*
X3690113D2*
X4071672D1*
X2504643Y575115D2*
X4054268D1*
X2504643Y535247D2*
X4049925D1*
X2504643Y495378D2*
X4057353D1*
X2504643Y455509D2*
X4078955D1*
X2364304Y2944232D2*
X2363538Y2937753D1*
X2362265Y2931353D1*
X2360493Y2925073D1*
X2358235Y2918953D1*
X2355504Y2913028D1*
X2352315Y2907335D1*
X2348690Y2901909D1*
X2344651Y2896785D1*
X2340222Y2891995D1*
X2335432Y2887566D1*
X2330307Y2883526D1*
X2324882Y2879902D1*
X2319189Y2876713D1*
X2313264Y2873982D1*
X2307143Y2871723D1*
X2300864Y2869951D1*
X2294463Y2868678D1*
X2287984Y2867912D1*
X2281465Y2867656D1*
X2274945Y2867912D1*
X2264541Y2869459D1*
X2264560Y2867656D1*
X2185651D1*
X2185669Y2143537D1*
X2280571Y2143508D1*
Y2141749D1*
X2290955Y2143252D1*
X2297475Y2143508D1*
X2303995Y2143252D1*
X2310474Y2142486D1*
X2316874Y2141213D1*
X2323154Y2139441D1*
X2329274Y2137182D1*
X2335199Y2134451D1*
X2340892Y2131262D1*
X2346318Y2127638D1*
X2351442Y2123598D1*
X2356232Y2119169D1*
X2360661Y2114379D1*
X2364701Y2109255D1*
X2368325Y2103829D1*
X2371514Y2098136D1*
X2374245Y2092211D1*
X2376504Y2086091D1*
X2378276Y2079811D1*
X2379549Y2073411D1*
X2380315Y2066932D1*
X2380571Y2060412D1*
X2380315Y2053892D1*
X2379549Y2047413D1*
X2378276Y2041013D1*
X2376504Y2034734D1*
X2374245Y2028613D1*
X2371514Y2022688D1*
X2368325Y2016995D1*
X2364701Y2011570D1*
X2360661Y2006445D1*
X2356232Y2001655D1*
X2351442Y1997226D1*
X2346318Y1993186D1*
X2340892Y1989562D1*
X2335199Y1986373D1*
X2329274Y1983642D1*
X2323154Y1981383D1*
X2316874Y1979612D1*
X2310474Y1978339D1*
X2303995Y1977572D1*
X2297475Y1977316D1*
X2290955Y1977572D1*
X2280551Y1979119D1*
X2280571Y1977316D1*
X2185657D1*
X2185669Y1895290D1*
X2284083Y1895262D1*
Y1893504D1*
X2294467Y1895007D1*
X2300987Y1895262D1*
X2307507Y1895007D1*
X2313986Y1894240D1*
X2320386Y1892967D1*
X2326665Y1891196D1*
X2332786Y1888937D1*
X2338711Y1886206D1*
X2344404Y1883017D1*
X2349829Y1879392D1*
X2354954Y1875353D1*
X2359744Y1870924D1*
X2364173Y1866134D1*
X2368213Y1861009D1*
X2371837Y1855584D1*
X2375026Y1849891D1*
X2377757Y1843966D1*
X2380016Y1837845D1*
X2381787Y1831566D1*
X2383060Y1825165D1*
X2383827Y1818686D1*
X2384083Y1812167D1*
X2383827Y1805647D1*
X2383060Y1799168D1*
X2381787Y1792768D1*
X2380016Y1786488D1*
X2377757Y1780367D1*
X2375026Y1774442D1*
X2371837Y1768749D1*
X2368213Y1763324D1*
X2364173Y1758199D1*
X2359744Y1753409D1*
X2354954Y1748980D1*
X2349829Y1744941D1*
X2344404Y1741316D1*
X2338711Y1738127D1*
X2332786Y1735396D1*
X2326665Y1733138D1*
X2320386Y1731366D1*
X2313986Y1730093D1*
X2307507Y1729327D1*
X2300987Y1729071D1*
X2294467Y1729327D1*
X2284063Y1730874D1*
X2284083Y1729071D1*
X2185669Y1728895D1*
Y1709554D1*
X2482199Y1709463D1*
X2486810Y1708546D1*
X2491080Y1706577D1*
X2494772Y1703667D1*
X2497682Y1699975D1*
X2499651Y1695705D1*
X2500568Y1691094D1*
X2500630Y1672911D1*
X2550518Y1722827D1*
X2539230Y1723804D1*
X2532983Y1725047D1*
X2526852Y1726776D1*
X2520875Y1728982D1*
X2515091Y1731648D1*
X2509533Y1734760D1*
X2504236Y1738299D1*
X2499234Y1742243D1*
X2494555Y1746567D1*
X2490231Y1751245D1*
X2486287Y1756248D1*
X2482748Y1761545D1*
X2479636Y1767102D1*
X2476970Y1772887D1*
X2474764Y1778864D1*
X2473035Y1784995D1*
X2471793Y1791241D1*
X2471043Y1797568D1*
X2470794Y1803933D1*
X2471043Y1810298D1*
X2471793Y1816625D1*
X2473035Y1822871D1*
X2474764Y1829003D1*
X2476970Y1834979D1*
X2479636Y1840764D1*
X2482748Y1846322D1*
X2486287Y1851618D1*
X2490231Y1856621D1*
X2494555Y1861299D1*
X2499234Y1865623D1*
X2504236Y1869567D1*
X2509533Y1873106D1*
X2515091Y1876218D1*
X2520875Y1878885D1*
X2526852Y1881091D1*
X2532983Y1882819D1*
X2539230Y1884062D1*
X2545556Y1884811D1*
X2551921Y1885060D1*
X2558286Y1884811D1*
X2564613Y1884062D1*
X2570860Y1882819D1*
X2576991Y1881091D1*
X2582967Y1878885D1*
X2588752Y1876218D1*
X2594310Y1873106D1*
X2599606Y1869567D1*
X2604609Y1865623D1*
X2609287Y1861299D1*
X2613612Y1856621D1*
X2617555Y1851618D1*
X2621094Y1846322D1*
X2624206Y1840764D1*
X2626873Y1834979D1*
X2629079Y1829003D1*
X2630807Y1822871D1*
X2632050Y1816625D1*
X2632799Y1810298D1*
X2633025Y1804555D1*
X2637638Y1807699D1*
X2645678Y1811797D1*
X2654261Y1814585D1*
X2663173Y1815996D1*
X2686058Y1816173D1*
X2715806D1*
X2722344Y1819936D1*
X2732723Y1824235D1*
X2743648Y1826857D1*
X2754849Y1827739D1*
X2766050Y1826857D1*
X2776975Y1824235D1*
X2787354Y1819936D1*
X2796934Y1814064D1*
X2805478Y1806768D1*
X2812774Y1798224D1*
X2818646Y1788644D1*
X2822945Y1778265D1*
X2825567Y1767340D1*
X2826449Y1756139D1*
X2825567Y1744938D1*
X2822945Y1734013D1*
X2818646Y1723634D1*
X2812774Y1714054D1*
X2805478Y1705510D1*
X2796934Y1698214D1*
X2787354Y1692343D1*
X2776975Y1688043D1*
X2766050Y1685421D1*
X2754849Y1684539D1*
X2743648Y1685421D1*
X2732723Y1688043D1*
X2722344Y1692343D1*
X2712764Y1698214D1*
X2709021Y1701164D1*
X2691530Y1701163D1*
X2615098Y1624756D1*
X2865909Y1624743D1*
X2871615Y1629340D1*
X2881196Y1635211D1*
X2888010Y1638196D1*
X2892543Y1643196D1*
X2892744Y2101693D1*
X2894349Y2111825D1*
X2897520Y2121583D1*
X2902177Y2130724D1*
X2908207Y2139024D1*
X2915462Y2146278D1*
X2923761Y2152308D1*
X2932903Y2156966D1*
X2942660Y2160136D1*
X2952793Y2161741D1*
X2976295Y2161942D1*
X3117500D1*
X3117488Y2538850D1*
X3118293Y2549077D1*
X3120688Y2559054D1*
X3124614Y2568531D1*
X3129974Y2577280D1*
X3136636Y2585081D1*
X3169294Y2617738D1*
X3169291Y3086819D1*
X2185647Y3086848D1*
X2185669Y3033823D1*
X2264560Y3033848D1*
Y3032089D1*
X2274945Y3033592D1*
X2281465Y3033848D1*
X2287984Y3033592D1*
X2294463Y3032825D1*
X2300864Y3031552D1*
X2307143Y3029781D1*
X2313264Y3027522D1*
X2319189Y3024791D1*
X2324882Y3021602D1*
X2330307Y3017978D1*
X2335432Y3013938D1*
X2340222Y3009509D1*
X2344651Y3004719D1*
X2348690Y2999594D1*
X2352315Y2994169D1*
X2355504Y2988476D1*
X2358235Y2982551D1*
X2360493Y2976430D1*
X2362265Y2970151D1*
X2363538Y2963751D1*
X2364304Y2957272D1*
X2364560Y2950752D1*
X2364304Y2944232D1*
X2566550Y2768915D2*
X2565783Y2762436D1*
X2564510Y2756035D1*
X2562739Y2749756D1*
X2560480Y2743635D1*
X2557749Y2737710D1*
X2554560Y2732017D1*
X2550936Y2726592D1*
X2546896Y2721467D1*
X2542467Y2716677D1*
X2537677Y2712248D1*
X2532552Y2708209D1*
X2527127Y2704584D1*
X2521434Y2701395D1*
X2515509Y2698664D1*
X2509388Y2696406D1*
X2503109Y2694634D1*
X2496709Y2693361D1*
X2490230Y2692594D1*
X2483710Y2692339D1*
X2477190Y2692594D1*
X2466786Y2694142D1*
X2466806Y2692339D1*
X2300614D1*
Y2858530D1*
X2466806D1*
Y2856772D1*
X2477190Y2858274D1*
X2483710Y2858530D1*
X2490230Y2858274D1*
X2496709Y2857508D1*
X2503109Y2856235D1*
X2509388Y2854463D1*
X2515509Y2852205D1*
X2521434Y2849474D1*
X2527127Y2846285D1*
X2532552Y2842660D1*
X2537677Y2838621D1*
X2542467Y2834192D1*
X2546896Y2829402D1*
X2550936Y2824277D1*
X2554560Y2818852D1*
X2557749Y2813159D1*
X2560480Y2807234D1*
X2562739Y2801113D1*
X2564510Y2794833D1*
X2565783Y2788433D1*
X2566550Y2781954D1*
X2566806Y2775434D1*
X2566550Y2768915D1*
X2958054Y791777D2*
X2957344Y782623D1*
X2955629Y773602D1*
X2952928Y764827D1*
X2949277Y756403D1*
X2944718Y748433D1*
X2939307Y741014D1*
X2933112Y734239D1*
X2926206Y728188D1*
X2918675Y722936D1*
X2910610Y718546D1*
X2902110Y715072D1*
X2893280Y712559D1*
X2884226Y711034D1*
X2875059Y710518D1*
X2865890Y711017D1*
X2856833Y712524D1*
X2847997Y715020D1*
X2839491Y718476D1*
X2831419Y722850D1*
X2823877Y728088D1*
X2816959Y734126D1*
X2810751Y740890D1*
X2805325Y748298D1*
X2800752Y756259D1*
X2797084Y764676D1*
X2794366Y773446D1*
X2792634Y782463D1*
X2791906Y791615D1*
X2792193Y800793D1*
X2793490Y809882D1*
X2793625Y810521D1*
X2791882Y810518D1*
Y976710D1*
X2958073D1*
Y810518D1*
X2956370Y810357D1*
X2957719Y801276D1*
X2958054Y791777D1*
X4087860Y449657D2*
X4079265Y460463D1*
X4074207Y468130D1*
X4069669Y476114D1*
X4065672Y484383D1*
X4062232Y492900D1*
X4059366Y501626D1*
X4057085Y510522D1*
X4055400Y519551D1*
X4054319Y528672D1*
X4053845Y537845D1*
X4053982Y547029D1*
X4054727Y556182D1*
X4056079Y565268D1*
X4058031Y574241D1*
X4060576Y583067D1*
X4063701Y591705D1*
X4067391Y600114D1*
X4071633Y608261D1*
X4076406Y616109D1*
X4081689Y623621D1*
X4087461Y630766D1*
X4093693Y637513D1*
X4100360Y643831D1*
X4107430Y649692D1*
X4114875Y655071D1*
X4122661Y659942D1*
X4130753Y664287D1*
X4139117Y668085D1*
X4147713Y671319D1*
X4156505Y673975D1*
X4165454Y676041D1*
X4174521Y677508D1*
X4183665Y678370D1*
X4192846Y678623D1*
X4202024Y678266D1*
X4211157Y677301D1*
X4220207Y675731D1*
X4229133Y673563D1*
X4237894Y670807D1*
X4246453Y667476D1*
X4254773Y663584D1*
X4262815Y659148D1*
X4271669Y653356D1*
X4271654Y769972D1*
X4262465Y765591D1*
X4252123Y761785D1*
X4241458Y759020D1*
X4230571Y757318D1*
X4219568Y756699D1*
X4208559Y757168D1*
X4197650Y758720D1*
X4186948Y761341D1*
X4176555Y765005D1*
X4166575Y769676D1*
X4157104Y775307D1*
X4148234Y781845D1*
X4140052Y789227D1*
X4132638Y797379D1*
X4126064Y806223D1*
X4120395Y815672D1*
X4118760Y818656D1*
X4113378Y809041D1*
X4107072Y800004D1*
X4099908Y791631D1*
X4091951Y784008D1*
X4083283Y777206D1*
X4073986Y771291D1*
X4064150Y766323D1*
X4053873Y762348D1*
X4043253Y759407D1*
X4032396Y757526D1*
X4021406Y756727D1*
X4010390Y757014D1*
X3999457Y758387D1*
X3988713Y760831D1*
X3978261Y764323D1*
X3968205Y768828D1*
X3958643Y774304D1*
X3949667Y780696D1*
X3941365Y787941D1*
X3933818Y795970D1*
X3927100Y804705D1*
X3921276Y814058D1*
X3916402Y823941D1*
X3912526Y834257D1*
X3909688Y844904D1*
X3907912Y855780D1*
X3907219Y866777D1*
X3907613Y877789D1*
X3909091Y888707D1*
X3911639Y899428D1*
X3915231Y909845D1*
X3919833Y919857D1*
X3925400Y929367D1*
X3931879Y938281D1*
X3939205Y946512D1*
X3947306Y953982D1*
X3956104Y960615D1*
X3965514Y966349D1*
X3969266Y968294D1*
X3960198Y973327D1*
X3951118Y979570D1*
X3942698Y986677D1*
X3935020Y994581D1*
X3928159Y1003203D1*
X3922181Y1012461D1*
X3917146Y1022261D1*
X3913101Y1032512D1*
X3910088Y1043110D1*
X3908134Y1053955D1*
X3907259Y1064940D1*
X3907471Y1075957D1*
X3908770Y1086899D1*
X3911140Y1097660D1*
X3914562Y1108135D1*
X3918999Y1118222D1*
X3924408Y1127820D1*
X3930739Y1136840D1*
X3937928Y1145192D1*
X3945904Y1152793D1*
X3954593Y1159571D1*
X3963907Y1165458D1*
X3973756Y1170399D1*
X3984045Y1174344D1*
X3994673Y1177256D1*
X4005535Y1179105D1*
X4016528Y1179873D1*
X4027542Y1179554D1*
X4038472Y1178151D1*
X4049210Y1175676D1*
X4059651Y1172155D1*
X4069694Y1167621D1*
X4079241Y1162118D1*
X4088198Y1155701D1*
X4096480Y1148432D1*
X4104004Y1140382D1*
X4110698Y1131629D1*
X4116496Y1122257D1*
X4118806Y1117837D1*
X4123441Y1126259D1*
X4129622Y1135381D1*
X4136672Y1143849D1*
X4144524Y1151581D1*
X4153098Y1158501D1*
X4162315Y1164542D1*
X4172081Y1169643D1*
X4182304Y1173757D1*
X4192882Y1176844D1*
X4203714Y1178871D1*
X4214692Y1179820D1*
X4225710Y1179682D1*
X4236661Y1178459D1*
X4247438Y1176161D1*
X4257936Y1172812D1*
X4268052Y1168445D1*
X4271656Y1166588D1*
X4271654Y1268978D1*
X4266020Y1261860D1*
X4259554Y1255340D1*
X4252394Y1249594D1*
X4244629Y1244693D1*
X4236361Y1240702D1*
X4227694Y1237669D1*
X4218741Y1235636D1*
X4209615Y1234627D1*
X4200434Y1234656D1*
X4191315Y1235723D1*
X4182374Y1237812D1*
X4173727Y1240899D1*
X4165484Y1244942D1*
X4157751Y1249892D1*
X4150626Y1255684D1*
X4144202Y1262243D1*
X4138559Y1269486D1*
X4133772Y1277320D1*
X4129900Y1285646D1*
X4126993Y1294354D1*
X4125091Y1303337D1*
X4124214Y1312476D1*
X4124375Y1321656D1*
X4125573Y1330759D1*
X4127793Y1339668D1*
X4131004Y1348270D1*
X4135167Y1356454D1*
X4140227Y1364114D1*
X4146121Y1371155D1*
X4152773Y1377483D1*
X4160097Y1383020D1*
X4168000Y1387694D1*
X4176379Y1391445D1*
X4185130Y1394224D1*
X4194139Y1395999D1*
X4203290Y1396743D1*
X4212467Y1396448D1*
X4221551Y1395118D1*
X4230428Y1392770D1*
X4238982Y1389434D1*
X4247105Y1385155D1*
X4254692Y1379983D1*
X4261646Y1373988D1*
X4267877Y1367245D1*
X4271651Y1362283D1*
X4271654Y1945180D1*
X4103190Y1945453D1*
X4106975Y1938921D1*
X4111274Y1928542D1*
X4113896Y1917617D1*
X4114778Y1906416D1*
X4113896Y1895215D1*
X4111274Y1884290D1*
X4106975Y1873911D1*
X4101104Y1864331D1*
X4100682Y1863797D1*
X4100507Y1810709D1*
X4099096Y1801797D1*
X4096307Y1793214D1*
X4092210Y1785175D1*
X4086906Y1777874D1*
X4067119Y1757836D1*
X4066849Y1744921D1*
X4065573Y1740396D1*
X4063276Y1736294D1*
X4042974Y1714249D1*
X3999181Y1667160D1*
X4008761Y1661289D1*
X4017304Y1653992D1*
X4024601Y1645449D1*
X4030472Y1635869D1*
X4034772Y1625490D1*
X4037394Y1614564D1*
X4038276Y1603364D1*
X4037394Y1592163D1*
X4034772Y1581238D1*
X4030472Y1570858D1*
X4024601Y1561278D1*
X4017304Y1552735D1*
X4008761Y1545438D1*
X4006223Y1543741D1*
X4012563Y1539646D1*
X4021106Y1532349D1*
X4028403Y1523806D1*
X4034274Y1514226D1*
X4038573Y1503846D1*
X4041196Y1492921D1*
X4042077Y1481720D1*
X4041196Y1470520D1*
X4038573Y1459594D1*
X4034274Y1449215D1*
X4028403Y1439635D1*
X4021058Y1431047D1*
X4026808Y1425911D1*
X4034105Y1417367D1*
X4039976Y1407787D1*
X4044276Y1397408D1*
X4046898Y1386483D1*
X4047780Y1375282D1*
X4046898Y1364081D1*
X4044276Y1353156D1*
X4039976Y1342777D1*
X4034105Y1333197D1*
X4026808Y1324654D1*
X4018265Y1317357D1*
X4008685Y1311486D1*
X3998306Y1307186D1*
X3987381Y1304564D1*
X3976180Y1303682D1*
X3964979Y1304564D1*
X3954054Y1307186D1*
X3943675Y1311486D1*
X3934094Y1317357D1*
X3925551Y1324654D1*
X3918255Y1333197D1*
X3912383Y1342777D1*
X3908084Y1353156D1*
X3905462Y1364081D1*
X3904580Y1375282D1*
X3905462Y1386483D1*
X3908084Y1397408D1*
X3912383Y1407787D1*
X3918255Y1417367D1*
X3925600Y1425955D1*
X3919849Y1431092D1*
X3912552Y1439635D1*
X3906681Y1449215D1*
X3902382Y1459594D1*
X3899760Y1470520D1*
X3898878Y1481720D1*
X3899760Y1492921D1*
X3902382Y1503846D1*
X3906681Y1514226D1*
X3912552Y1523806D1*
X3919849Y1532349D1*
X3928392Y1539646D1*
X3930930Y1541343D1*
X3924591Y1545438D1*
X3916047Y1552735D1*
X3915705Y1553105D1*
X3914927Y1545650D1*
X3912304Y1534724D1*
X3908005Y1524345D1*
X3902134Y1514765D1*
X3894837Y1506222D1*
X3886294Y1498925D1*
X3876714Y1493054D1*
X3866335Y1488755D1*
X3855409Y1486133D1*
X3844209Y1485251D1*
X3833008Y1486133D1*
X3822083Y1488755D1*
X3811703Y1493054D1*
X3802123Y1498925D1*
X3801589Y1499346D1*
X3474881Y1499293D1*
X3469630Y1495749D1*
X3459619Y1490648D1*
X3448934Y1487176D1*
X3437837Y1485419D1*
X3426601D1*
X3415504Y1487176D1*
X3404819Y1490648D1*
X3394808Y1495749D1*
X3385719Y1502353D1*
X3377774Y1510298D1*
X3371171Y1519387D1*
X3366070Y1529398D1*
X3362597Y1540083D1*
X3360840Y1551180D1*
Y1562416D1*
X3362182Y1571424D1*
X3302744Y1630705D1*
X3298332Y1632329D1*
X3294421Y1634940D1*
X3291228Y1638390D1*
X3288928Y1642491D1*
X3287625Y1645986D1*
X3208686Y1724924D1*
X3205327Y1718728D1*
X3198723Y1709639D1*
X3190778Y1701694D1*
X3181689Y1695091D1*
X3171678Y1689990D1*
X3160993Y1686517D1*
X3149896Y1684760D1*
X3138660D1*
X3127563Y1686517D1*
X3116878Y1689990D1*
X3106867Y1695091D1*
X3097778Y1701694D1*
X3089833Y1709639D1*
X3083230Y1718728D1*
X3078129Y1728739D1*
X3074656Y1739424D1*
X3072899Y1750521D1*
Y1761757D1*
X3074656Y1772854D1*
X3078129Y1783539D1*
X3083230Y1793550D1*
X3086774Y1798759D1*
X3086773Y1839785D1*
X3083230Y1845028D1*
X3078129Y1855038D1*
X3074656Y1865723D1*
X3072899Y1876820D1*
Y1888056D1*
X3074656Y1899154D1*
X3076722Y1906026D1*
X3038806Y1906207D1*
X3029894Y1907618D1*
X3025531Y1908850D1*
X3023302Y1903650D1*
X3023101Y1610507D1*
X3021496Y1600374D1*
X3018325Y1590617D1*
X3013668Y1581475D1*
X3007638Y1573176D1*
X2991161Y1556415D1*
X2980580Y1545833D1*
X2977497Y1538909D1*
X2972248Y1530261D1*
X2969446Y1525203D1*
X2963416Y1516903D1*
X2956161Y1509648D1*
X2947861Y1503618D1*
X2938720Y1498961D1*
X2928963Y1495790D1*
X2918831Y1494185D1*
X2895328Y1493984D1*
X2577430D1*
X2570353Y1491268D1*
X2559428Y1488646D1*
X2548227Y1487764D1*
X2537026Y1488646D1*
X2526101Y1491268D1*
X2515722Y1495567D1*
X2506142Y1501438D1*
X2500630Y1505798D1*
Y449690D1*
X4087703Y449682D1*
X2763188Y2987168D2*
X2762438Y2980841D1*
X2761196Y2974594D1*
X2759467Y2968463D1*
X2757261Y2962487D1*
X2754594Y2956702D1*
X2751483Y2951144D1*
X2747944Y2945848D1*
X2744000Y2940845D1*
X2739676Y2936167D1*
X2734997Y2931843D1*
X2729995Y2927899D1*
X2724698Y2924360D1*
X2719140Y2921248D1*
X2713356Y2918581D1*
X2707379Y2916375D1*
X2701248Y2914647D1*
X2695001Y2913404D1*
X2688675Y2912655D1*
X2682310Y2912406D1*
X2675945Y2912655D1*
X2669618Y2913404D1*
X2663371Y2914647D1*
X2657240Y2916375D1*
X2651264Y2918581D1*
X2645479Y2921248D1*
X2639921Y2924360D1*
X2634625Y2927899D1*
X2629622Y2931843D1*
X2624944Y2936167D1*
X2620619Y2940845D1*
X2616676Y2945848D1*
X2613136Y2951144D1*
X2610025Y2956702D1*
X2607358Y2962487D1*
X2605152Y2968463D1*
X2603424Y2974594D1*
X2602181Y2980841D1*
X2601432Y2987168D1*
X2601182Y2993533D1*
X2601432Y2999898D1*
X2602181Y3006224D1*
X2603424Y3012471D1*
X2605152Y3018602D1*
X2607358Y3024579D1*
X2610025Y3030364D1*
X2613136Y3035921D1*
X2616676Y3041218D1*
X2620619Y3046220D1*
X2624944Y3050899D1*
X2629622Y3055223D1*
X2634625Y3059167D1*
X2639921Y3062706D1*
X2645479Y3065818D1*
X2651264Y3068484D1*
X2657240Y3070690D1*
X2663371Y3072419D1*
X2669618Y3073661D1*
X2675945Y3074411D1*
X2682310Y3074660D1*
X2688675Y3074411D1*
X2695001Y3073661D1*
X2701248Y3072419D1*
X2707379Y3070690D1*
X2713356Y3068484D1*
X2719140Y3065818D1*
X2724698Y3062706D1*
X2729995Y3059167D1*
X2734997Y3055223D1*
X2739676Y3050899D1*
X2744000Y3046220D1*
X2747944Y3041218D1*
X2751483Y3035921D1*
X2754594Y3030364D1*
X2757261Y3024579D1*
X2759467Y3018602D1*
X2761196Y3012471D1*
X2762438Y3006224D1*
X2763188Y2999898D1*
X2763437Y2993533D1*
X2763188Y2987168D1*
X2658119Y2447945D2*
X2657370Y2441618D1*
X2656127Y2435371D1*
X2654399Y2429240D1*
X2652193Y2423264D1*
X2649526Y2417479D1*
X2646415Y2411921D1*
X2642875Y2406625D1*
X2638932Y2401622D1*
X2634608Y2396944D1*
X2629929Y2392619D1*
X2624927Y2388676D1*
X2619630Y2385136D1*
X2614072Y2382025D1*
X2608287Y2379358D1*
X2602311Y2377152D1*
X2596180Y2375424D1*
X2589933Y2374181D1*
X2583606Y2373432D1*
X2577241Y2373182D1*
X2570877Y2373432D1*
X2564550Y2374181D1*
X2558303Y2375424D1*
X2552172Y2377152D1*
X2546196Y2379358D1*
X2540411Y2382025D1*
X2534853Y2385136D1*
X2529556Y2388676D1*
X2524554Y2392619D1*
X2519875Y2396944D1*
X2515551Y2401622D1*
X2511608Y2406625D1*
X2508068Y2411921D1*
X2504957Y2417479D1*
X2502290Y2423264D1*
X2500084Y2429240D1*
X2498356Y2435371D1*
X2497113Y2441618D1*
X2496364Y2447945D1*
X2496114Y2454310D1*
X2496364Y2460675D1*
X2497113Y2467001D1*
X2498356Y2473248D1*
X2500084Y2479379D1*
X2502290Y2485356D1*
X2504957Y2491140D1*
X2508068Y2496698D1*
X2511608Y2501995D1*
X2515551Y2506997D1*
X2519875Y2511676D1*
X2524554Y2516000D1*
X2529556Y2519944D1*
X2534853Y2523483D1*
X2540411Y2526594D1*
X2546196Y2529261D1*
X2552172Y2531467D1*
X2558303Y2533196D1*
X2564550Y2534438D1*
X2570877Y2535188D1*
X2577241Y2535437D1*
X2583606Y2535188D1*
X2589933Y2534438D1*
X2596180Y2533196D1*
X2602311Y2531467D1*
X2608287Y2529261D1*
X2614072Y2526594D1*
X2619630Y2523483D1*
X2624927Y2519944D1*
X2629929Y2516000D1*
X2634608Y2511676D1*
X2638932Y2506997D1*
X2642875Y2501995D1*
X2646415Y2496698D1*
X2649526Y2491140D1*
X2652193Y2485356D1*
X2654399Y2479379D1*
X2656127Y2473248D1*
X2657370Y2467001D1*
X2658119Y2460675D1*
X2658369Y2454310D1*
X2658119Y2447945D1*
X2748333Y2050064D2*
X2747584Y2043738D1*
X2746341Y2037491D1*
X2744613Y2031360D1*
X2742407Y2025383D1*
X2739740Y2019598D1*
X2736629Y2014041D1*
X2733089Y2008744D1*
X2729146Y2003741D1*
X2724822Y1999063D1*
X2720143Y1994739D1*
X2712928Y1989316D1*
X2718843Y1983172D1*
X2724438Y1975894D1*
X2729177Y1968029D1*
X2732996Y1959680D1*
X2735848Y1950953D1*
X2737694Y1941959D1*
X2738513Y1932814D1*
X2738370Y1924654D1*
X2737228Y1915543D1*
X2735066Y1906621D1*
X2731909Y1897999D1*
X2727798Y1889789D1*
X2722786Y1882097D1*
X2716936Y1875020D1*
X2710324Y1868650D1*
X2703035Y1863067D1*
X2695163Y1858343D1*
X2686806Y1854539D1*
X2678072Y1851705D1*
X2669076Y1849874D1*
X2659929Y1849072D1*
X2650751Y1849310D1*
X2641657Y1850581D1*
X2632768Y1852873D1*
X2624192Y1856155D1*
X2616043Y1860385D1*
X2608424Y1865508D1*
X2601432Y1871458D1*
X2595157Y1878161D1*
X2589681Y1885531D1*
X2585072Y1893471D1*
X2581390Y1901882D1*
X2578681Y1910655D1*
X2576982Y1919678D1*
X2576312Y1928835D1*
X2576682Y1938009D1*
X2578085Y1947083D1*
X2580507Y1955940D1*
X2583911Y1964466D1*
X2588259Y1972552D1*
X2593491Y1980097D1*
X2599543Y1987003D1*
X2606336Y1993178D1*
X2611898Y1997303D1*
X2605765Y2003741D1*
X2601822Y2008744D1*
X2598282Y2014041D1*
X2595171Y2019598D1*
X2592504Y2025383D1*
X2590298Y2031360D1*
X2588570Y2037491D1*
X2587327Y2043738D1*
X2586577Y2050064D1*
X2586328Y2056429D1*
X2586577Y2062794D1*
X2587327Y2069121D1*
X2588570Y2075367D1*
X2590298Y2081499D1*
X2592504Y2087475D1*
X2595171Y2093260D1*
X2598282Y2098818D1*
X2601822Y2104114D1*
X2605765Y2109117D1*
X2610089Y2113795D1*
X2614768Y2118119D1*
X2619770Y2122063D1*
X2625067Y2125602D1*
X2630625Y2128714D1*
X2636409Y2131381D1*
X2642386Y2133587D1*
X2648517Y2135315D1*
X2654764Y2136558D1*
X2661091Y2137307D1*
X2667455Y2137556D1*
X2673820Y2137307D1*
X2680147Y2136558D1*
X2686394Y2135315D1*
X2692525Y2133587D1*
X2698501Y2131381D1*
X2704286Y2128714D1*
X2709844Y2125602D1*
X2715140Y2122063D1*
X2720143Y2118119D1*
X2724822Y2113795D1*
X2729146Y2109117D1*
X2733089Y2104114D1*
X2736629Y2098818D1*
X2739740Y2093260D1*
X2742407Y2087475D1*
X2744613Y2081499D1*
X2746341Y2075367D1*
X2747584Y2069121D1*
X2748333Y2062794D1*
X2748583Y2056429D1*
X2748333Y2050064D1*
X3869178Y725220D2*
X3868429Y718894D1*
X3867186Y712647D1*
X3865458Y706516D1*
X3863252Y700539D1*
X3860585Y694755D1*
X3857474Y689197D1*
X3853934Y683900D1*
X3849991Y678898D1*
X3845667Y674219D1*
X3840988Y669895D1*
X3835986Y665951D1*
X3830689Y662412D1*
X3825131Y659301D1*
X3819346Y656634D1*
X3813370Y654428D1*
X3807239Y652699D1*
X3800992Y651457D1*
X3794665Y650707D1*
X3788301Y650458D1*
X3781936Y650707D1*
X3775609Y651457D1*
X3769362Y652699D1*
X3763231Y654428D1*
X3757255Y656634D1*
X3751470Y659301D1*
X3745912Y662412D1*
X3740615Y665951D1*
X3735613Y669895D1*
X3730934Y674219D1*
X3726610Y678898D1*
X3722667Y683900D1*
X3719127Y689197D1*
X3716016Y694755D1*
X3713349Y700539D1*
X3711143Y706516D1*
X3709415Y712647D1*
X3708172Y718894D1*
X3707423Y725220D1*
X3707173Y731585D1*
X3707423Y737950D1*
X3708172Y744277D1*
X3709415Y750524D1*
X3711143Y756655D1*
X3713349Y762631D1*
X3716016Y768416D1*
X3719127Y773974D1*
X3722667Y779270D1*
X3726610Y784273D1*
X3730934Y788951D1*
X3735613Y793276D1*
X3744773Y799997D1*
X3736643Y805232D1*
X3731302Y809441D1*
X3726310Y814058D1*
X3721693Y819050D1*
X3717484Y824391D1*
X3713706Y830045D1*
X3710383Y835978D1*
X3707537Y842152D1*
X3705184Y848531D1*
X3703337Y855076D1*
X3702010Y861745D1*
X3701211Y868499D1*
X3700945Y875293D1*
X3701211Y882087D1*
X3702010Y888840D1*
X3703337Y895509D1*
X3705184Y902054D1*
X3707537Y908433D1*
X3710383Y914608D1*
X3713706Y920541D1*
X3717484Y926194D1*
X3721693Y931535D1*
X3726310Y936528D1*
X3731302Y941144D1*
X3736643Y945353D1*
X3742297Y949131D1*
X3748230Y952454D1*
X3754404Y955301D1*
X3760783Y957654D1*
X3767328Y959500D1*
X3773997Y960827D1*
X3780751Y961626D1*
X3787545Y961892D1*
X3794339Y961626D1*
X3801092Y960827D1*
X3807761Y959500D1*
X3814306Y957654D1*
X3820685Y955301D1*
X3826860Y952454D1*
X3832793Y949131D1*
X3838446Y945353D1*
X3843787Y941144D1*
X3848780Y936528D1*
X3853396Y931535D1*
X3857605Y926194D1*
X3861383Y920541D1*
X3864706Y914608D1*
X3867552Y908433D1*
X3869906Y902054D1*
X3871752Y895509D1*
X3873079Y888840D1*
X3873878Y882087D1*
X3874144Y875293D1*
X3873878Y868499D1*
X3873079Y861745D1*
X3871752Y855076D1*
X3869906Y848531D1*
X3867552Y842152D1*
X3864706Y835978D1*
X3861383Y830045D1*
X3857605Y824391D1*
X3853396Y819050D1*
X3848780Y814058D1*
X3843787Y809441D1*
X3838446Y805232D1*
X3831101Y800507D1*
X3835986Y797219D1*
X3840988Y793276D1*
X3845667Y788951D1*
X3849991Y784273D1*
X3853934Y779270D1*
X3857474Y773974D1*
X3860585Y768416D1*
X3863252Y762631D1*
X3865458Y756655D1*
X3867186Y750524D1*
X3868429Y744277D1*
X3869178Y737950D1*
X3869428Y731585D1*
X3869178Y725220D1*
X3385652Y1275421D2*
X3376861Y1277678D1*
X3370885Y1279885D1*
X3365100Y1282551D1*
X3359542Y1285663D1*
X3354245Y1289202D1*
X3349243Y1293146D1*
X3344564Y1297470D1*
X3340240Y1302148D1*
X3336297Y1307151D1*
X3332757Y1312448D1*
X3329646Y1318005D1*
X3326979Y1323790D1*
X3324773Y1329766D1*
X3323045Y1335898D1*
X3321802Y1342144D1*
X3321052Y1348471D1*
X3320803Y1354836D1*
X3321052Y1361201D1*
X3321802Y1367528D1*
X3323045Y1373774D1*
X3324773Y1379906D1*
X3326979Y1385882D1*
X3329646Y1391667D1*
X3332757Y1397224D1*
X3336297Y1402521D1*
X3340240Y1407524D1*
X3344564Y1412202D1*
X3349243Y1416526D1*
X3354245Y1420470D1*
X3359542Y1424009D1*
X3365100Y1427121D1*
X3370885Y1429787D1*
X3376861Y1431993D1*
X3382992Y1433722D1*
X3389239Y1434965D1*
X3395566Y1435714D1*
X3401930Y1435963D1*
X3408295Y1435714D1*
X3414622Y1434965D1*
X3420869Y1433722D1*
X3427000Y1431993D1*
X3432976Y1429787D1*
X3438761Y1427121D1*
X3444319Y1424009D1*
X3449615Y1420470D1*
X3454618Y1416526D1*
X3459297Y1412202D1*
X3463621Y1407524D1*
X3467564Y1402521D1*
X3471104Y1397224D1*
X3474215Y1391667D1*
X3476882Y1385882D1*
X3479088Y1379906D1*
X3481010Y1373484D1*
X3490591Y1367613D1*
X3499134Y1360316D1*
X3506430Y1351773D1*
X3512302Y1342193D1*
X3516601Y1331814D1*
X3519223Y1320888D1*
X3520105Y1309688D1*
X3519223Y1298487D1*
X3516601Y1287562D1*
X3512302Y1277182D1*
X3506430Y1267602D1*
X3506009Y1267068D1*
X3506010Y1220228D1*
X3510287Y1228328D1*
X3516891Y1237417D1*
X3524836Y1245362D1*
X3533925Y1251966D1*
X3543936Y1257067D1*
X3554621Y1260539D1*
X3565718Y1262297D1*
X3576954D1*
X3588051Y1260539D1*
X3598736Y1257067D1*
X3608747Y1251966D1*
X3617836Y1245362D1*
X3625781Y1237417D1*
X3632385Y1228328D1*
X3637486Y1218318D1*
X3640958Y1207633D1*
X3642715Y1196535D1*
Y1185299D1*
X3640958Y1174202D1*
X3637486Y1163517D1*
X3632385Y1153507D1*
X3625781Y1144417D1*
X3617836Y1136472D1*
X3608747Y1129869D1*
X3598736Y1124768D1*
X3588051Y1121295D1*
X3576954Y1119538D1*
X3565718D1*
X3554621Y1121295D1*
X3543936Y1124768D1*
X3533925Y1129869D1*
X3524836Y1136472D1*
X3516891Y1144417D1*
X3510287Y1153507D1*
X3506004Y1161743D1*
X3505833Y1101010D1*
X3504423Y1092098D1*
X3501634Y1083516D1*
X3497537Y1075475D1*
X3492232Y1068176D1*
X3476176Y1051869D1*
X3468832Y1044525D1*
X3464706Y1035978D1*
X3461383Y1030045D1*
X3458240Y1025340D1*
X3464706Y1014608D1*
X3467552Y1008433D1*
X3469906Y1002054D1*
X3471752Y995509D1*
X3473079Y988840D1*
X3473878Y982087D1*
X3474144Y975293D1*
X3473878Y968499D1*
X3473094Y961878D1*
X3474144Y961892D1*
Y788693D1*
X3300945D1*
Y961892D1*
X3301986D1*
X3301211Y968499D1*
X3300945Y975293D1*
X3301211Y982087D1*
X3302010Y988840D1*
X3303337Y995509D1*
X3305184Y1002054D1*
X3307537Y1008433D1*
X3310383Y1014608D1*
X3313706Y1020541D1*
X3316849Y1025245D1*
X3310383Y1035978D1*
X3307537Y1042152D1*
X3305184Y1048531D1*
X3303337Y1055076D1*
X3302010Y1061745D1*
X3301211Y1068499D1*
X3300945Y1075293D1*
X3301211Y1082087D1*
X3302010Y1088840D1*
X3303337Y1095509D1*
X3305184Y1102054D1*
X3307537Y1108433D1*
X3310383Y1114608D1*
X3313706Y1120541D1*
X3317484Y1126194D1*
X3321693Y1131535D1*
X3326310Y1136528D1*
X3331302Y1141144D1*
X3336643Y1145353D1*
X3342297Y1149131D1*
X3348230Y1152454D1*
X3354404Y1155301D1*
X3360783Y1157654D1*
X3367328Y1159500D1*
X3373997Y1160827D1*
X3380751Y1161626D1*
X3391021Y1161756D1*
X3391000Y1267037D1*
X3385751Y1275323D1*
X3878377Y1249579D2*
X3877627Y1243252D1*
X3876385Y1237005D1*
X3874656Y1230874D1*
X3872450Y1224898D1*
X3869783Y1219113D1*
X3866672Y1213555D1*
X3863133Y1208259D1*
X3859189Y1203256D1*
X3854865Y1198577D1*
X3850186Y1194253D1*
X3845184Y1190310D1*
X3839887Y1186770D1*
X3834329Y1183659D1*
X3828545Y1180992D1*
X3822568Y1178786D1*
X3816437Y1177058D1*
X3810190Y1175815D1*
X3803864Y1175066D1*
X3797499Y1174816D1*
X3791134Y1175066D1*
X3784807Y1175815D1*
X3778560Y1177058D1*
X3772429Y1178786D1*
X3766453Y1180992D1*
X3760668Y1183659D1*
X3755110Y1186770D1*
X3749814Y1190310D1*
X3741248Y1197547D1*
X3734450Y1194286D1*
X3723765Y1190814D1*
X3712668Y1189056D1*
X3701432D1*
X3690335Y1190814D1*
X3679650Y1194286D1*
X3669639Y1199387D1*
X3660550Y1205991D1*
X3652605Y1213936D1*
X3646001Y1223025D1*
X3640900Y1233035D1*
X3637428Y1243720D1*
X3635671Y1254818D1*
Y1266054D1*
X3637428Y1277151D1*
X3640900Y1287836D1*
X3646001Y1297846D1*
X3649546Y1303055D1*
X3649545Y1330589D1*
X3646001Y1335867D1*
X3640900Y1345878D1*
X3637428Y1356563D1*
X3635671Y1367660D1*
Y1378896D1*
X3637428Y1389993D1*
X3640900Y1400678D1*
X3646001Y1410689D1*
X3652605Y1419778D1*
X3660550Y1427723D1*
X3669639Y1434327D1*
X3679650Y1439428D1*
X3690335Y1442900D1*
X3701432Y1444657D1*
X3712668D1*
X3723765Y1442900D1*
X3734450Y1439428D1*
X3744461Y1434327D1*
X3753550Y1427723D1*
X3761495Y1419778D1*
X3768098Y1410689D1*
X3773199Y1400678D1*
X3776672Y1389993D1*
X3778429Y1378896D1*
Y1367660D1*
X3776672Y1356563D1*
X3773199Y1345878D1*
X3768098Y1335867D1*
X3764554Y1330659D1*
X3766453Y1330895D1*
X3772429Y1333101D1*
X3778560Y1334829D1*
X3784807Y1336072D1*
X3791134Y1336822D1*
X3797499Y1337071D1*
X3803864Y1336822D1*
X3810190Y1336072D1*
X3816437Y1334829D1*
X3822568Y1333101D1*
X3828545Y1330895D1*
X3834329Y1328228D1*
X3839887Y1325117D1*
X3845184Y1321577D1*
X3850186Y1317634D1*
X3854865Y1313310D1*
X3859189Y1308631D1*
X3863133Y1303629D1*
X3866672Y1298332D1*
X3869783Y1292774D1*
X3872450Y1286990D1*
X3874656Y1281013D1*
X3876385Y1274882D1*
X3877627Y1268635D1*
X3878377Y1262308D1*
X3878626Y1255944D1*
X3878377Y1249579D1*
X3002833Y2637831D2*
X3002106Y2628678D1*
X3000350Y2619667D1*
X2997587Y2610911D1*
X2993852Y2602524D1*
X2989193Y2594612D1*
X2983669Y2587277D1*
X2977353Y2580614D1*
X2970324Y2574706D1*
X2962673Y2569631D1*
X2954497Y2565454D1*
X2945902Y2562226D1*
X2936997Y2559991D1*
X2927896Y2558776D1*
X2918717Y2558596D1*
X2909575Y2559455D1*
X2900589Y2561343D1*
X2891875Y2564232D1*
X2883542Y2568088D1*
X2875699Y2572861D1*
X2868445Y2578490D1*
X2861874Y2584902D1*
X2856070Y2592016D1*
X2851105Y2599740D1*
X2847046Y2607975D1*
X2843944Y2616617D1*
X2841837Y2625552D1*
X2840753Y2634671D1*
X2840707Y2643852D1*
X2841699Y2652979D1*
X2843715Y2661937D1*
X2846731Y2670609D1*
X2850707Y2678885D1*
X2855593Y2686657D1*
X2861327Y2693829D1*
X2867833Y2700307D1*
X2875030Y2706008D1*
X2882825Y2710860D1*
X2891118Y2714799D1*
X2899803Y2717777D1*
X2908769Y2719755D1*
X2917902Y2720705D1*
X2927083Y2720618D1*
X2936196Y2719495D1*
X2945122Y2717349D1*
X2953749Y2714209D1*
X2961967Y2710113D1*
X2969669Y2705114D1*
X2976757Y2699278D1*
X2983140Y2692678D1*
X2988736Y2685400D1*
X2993475Y2677535D1*
X2997294Y2669186D1*
X3000146Y2660459D1*
X3001992Y2651466D1*
X3002811Y2642320D1*
X3002833Y2637831D1*
X2679846Y860916D2*
X2679119Y851764D1*
X2677364Y842752D1*
X2674600Y833996D1*
X2670865Y825609D1*
X2666206Y817697D1*
X2660682Y810362D1*
X2654366Y803699D1*
X2647337Y797791D1*
X2639686Y792717D1*
X2631510Y788539D1*
X2622915Y785311D1*
X2614010Y783076D1*
X2604909Y781861D1*
X2595730Y781681D1*
X2586588Y782541D1*
X2577602Y784428D1*
X2568888Y787318D1*
X2560555Y791173D1*
X2552713Y795946D1*
X2545458Y801575D1*
X2538887Y807987D1*
X2533083Y815101D1*
X2528118Y822825D1*
X2524059Y831060D1*
X2520957Y839702D1*
X2518850Y848638D1*
X2517766Y857756D1*
X2517720Y866937D1*
X2518713Y876064D1*
X2520728Y885022D1*
X2523744Y893694D1*
X2527720Y901970D1*
X2532606Y909743D1*
X2538340Y916915D1*
X2544846Y923392D1*
X2552043Y929093D1*
X2559839Y933945D1*
X2568131Y937885D1*
X2576816Y940862D1*
X2585782Y942840D1*
X2594915Y943790D1*
X2604096Y943703D1*
X2613209Y942580D1*
X2622135Y940434D1*
X2630762Y937294D1*
X2638980Y933198D1*
X2646682Y928199D1*
X2653770Y922364D1*
X2660154Y915764D1*
X2665749Y908486D1*
X2670488Y900621D1*
X2674307Y892272D1*
X2677159Y883545D1*
X2679005Y874551D1*
X2679824Y865406D1*
X2679846Y860916D1*
X3699576Y657954D2*
X3698849Y648802D1*
X3697093Y639790D1*
X3694329Y631034D1*
X3690594Y622647D1*
X3685936Y614735D1*
X3680412Y607400D1*
X3674096Y600738D1*
X3667067Y594829D1*
X3659416Y589755D1*
X3651240Y585577D1*
X3642644Y582349D1*
X3633740Y580114D1*
X3624639Y578899D1*
X3615459Y578719D1*
X3606318Y579579D1*
X3597332Y581466D1*
X3588618Y584356D1*
X3580285Y588211D1*
X3572442Y592984D1*
X3565188Y598613D1*
X3558617Y605025D1*
X3552812Y612139D1*
X3547848Y619864D1*
X3543789Y628098D1*
X3540686Y636740D1*
X3538580Y645676D1*
X3537496Y654794D1*
X3537450Y663975D1*
X3538442Y673102D1*
X3540458Y682060D1*
X3543474Y690732D1*
X3547450Y699008D1*
X3552336Y706781D1*
X3558070Y713953D1*
X3564576Y720430D1*
X3571773Y726131D1*
X3579568Y730983D1*
X3587861Y734923D1*
X3596546Y737900D1*
X3605512Y739878D1*
X3614644Y740828D1*
X3623825Y740741D1*
X3632938Y739618D1*
X3641865Y737472D1*
X3650492Y734332D1*
X3658710Y730236D1*
X3666412Y725238D1*
X3673500Y719402D1*
X3679883Y712802D1*
X3685479Y705524D1*
X3690218Y697659D1*
X3694037Y689310D1*
X3696888Y680583D1*
X3698735Y671589D1*
X3699554Y662444D1*
X3699576Y657954D1*
X3220765Y1605348D2*
X3219008Y1594251D1*
X3215535Y1583566D1*
X3210434Y1573555D1*
X3203831Y1564466D1*
X3195886Y1556521D1*
X3186797Y1549917D1*
X3176786Y1544816D1*
X3166101Y1541344D1*
X3155004Y1539587D1*
X3143768D1*
X3132671Y1541344D1*
X3121986Y1544816D1*
X3111975Y1549917D1*
X3102886Y1556521D1*
X3094941Y1564466D1*
X3088337Y1573555D1*
X3083236Y1583566D1*
X3079764Y1594251D1*
X3078007Y1605348D1*
Y1616584D1*
X3079764Y1627681D1*
X3083236Y1638366D1*
X3088337Y1648377D1*
X3094941Y1657466D1*
X3102886Y1665411D1*
X3111975Y1672014D1*
X3121986Y1677115D1*
X3132671Y1680588D1*
X3143768Y1682345D1*
X3155004D1*
X3166101Y1680588D1*
X3176786Y1677115D1*
X3186797Y1672014D1*
X3195886Y1665411D1*
X3203831Y1657466D1*
X3210434Y1648377D1*
X3215535Y1638366D1*
X3219008Y1627681D1*
X3220765Y1616584D1*
Y1605348D1*
X3313898Y1350657D2*
X3312140Y1339560D1*
X3308668Y1328875D1*
X3303567Y1318865D1*
X3296963Y1309776D1*
X3289018Y1301831D1*
X3279929Y1295227D1*
X3269919Y1290126D1*
X3259234Y1286654D1*
X3248136Y1284896D1*
X3236900D1*
X3225803Y1286654D1*
X3215118Y1290126D1*
X3205108Y1295227D1*
X3196018Y1301831D1*
X3188073Y1309776D1*
X3181470Y1318865D1*
X3176369Y1328875D1*
X3172896Y1339560D1*
X3171139Y1350657D1*
Y1361894D1*
X3172896Y1372991D1*
X3176369Y1383676D1*
X3181470Y1393686D1*
X3188073Y1402776D1*
X3196018Y1410720D1*
X3205108Y1417324D1*
X3215118Y1422425D1*
X3225803Y1425898D1*
X3236900Y1427655D1*
X3248136D1*
X3259234Y1425898D1*
X3269919Y1422425D1*
X3279929Y1417324D1*
X3289018Y1410720D1*
X3296963Y1402776D1*
X3303567Y1393686D1*
X3308668Y1383676D1*
X3312140Y1372991D1*
X3313898Y1361894D1*
Y1350657D1*
X3874125Y1073455D2*
X3873444Y1064299D1*
X3871797Y1055265D1*
X3869203Y1046458D1*
X3865692Y1037974D1*
X3861301Y1029909D1*
X3856081Y1022356D1*
X3850091Y1015396D1*
X3843398Y1009110D1*
X3836076Y1003570D1*
X3828209Y998833D1*
X3819886Y994958D1*
X3811198Y991986D1*
X3802244Y989949D1*
X3793126Y988873D1*
X3783944Y988768D1*
X3774803Y989635D1*
X3765806Y991466D1*
X3757052Y994239D1*
X3748642Y997923D1*
X3740668Y1002476D1*
X3733222Y1007849D1*
X3726387Y1013980D1*
X3720239Y1020799D1*
X3714848Y1028232D1*
X3710273Y1036194D1*
X3706568Y1044596D1*
X3703773Y1053341D1*
X3701920Y1062335D1*
X3701029Y1071474D1*
X3701110Y1080655D1*
X3702164Y1089777D1*
X3704178Y1098735D1*
X3707129Y1107430D1*
X3710983Y1115764D1*
X3715698Y1123643D1*
X3721222Y1130978D1*
X3727491Y1137688D1*
X3734434Y1143694D1*
X3741975Y1148933D1*
X3750029Y1153345D1*
X3758504Y1156878D1*
X3767304Y1159495D1*
X3776333Y1161164D1*
X3785488Y1161869D1*
X3794667Y1161600D1*
X3803765Y1160360D1*
X3812681Y1158164D1*
X3821314Y1155037D1*
X3829567Y1151013D1*
X3837348Y1146139D1*
X3844570Y1140467D1*
X3851150Y1134063D1*
X3857014Y1126999D1*
X3862098Y1119353D1*
X3866345Y1111211D1*
X3869705Y1102665D1*
X3872140Y1093814D1*
X3873626Y1084752D1*
X3874144Y1075293D1*
X3874125Y1073455D1*
X2874978Y793614D2*
D18*
Y710554D1*
X2791917Y793614D2*
X2958038D1*
X4218808Y868297D2*
Y756732D1*
X4018808Y868297D2*
Y756732D1*
X3907244Y868297D2*
X4018808D1*
Y1179861D2*
Y1068297D1*
X3907244D2*
X4018808D1*
X4218808Y1179861D2*
Y1068297D1*
X4205280Y1396731D2*
Y1234547D1*
X4124188Y1315639D2*
X4205280D1*
X2921727Y2720760D2*
Y2558576D1*
X2840635Y2639668D2*
X3002819D1*
X2657429Y1930161D2*
Y1849070D1*
X2576337Y1930161D2*
X2738521D1*
X2598740Y943845D2*
Y781661D1*
X2517648Y862753D2*
X2679832D1*
X3618470Y740883D2*
Y578699D1*
X3537378Y659791D2*
X3699562D1*
X3787545Y1161857D2*
Y988728D1*
X3700980Y1075293D2*
X3874109D1*
X457404Y3046979D2*
D17*
X618669D1*
X874486D2*
X1156323D1*
X1632682D2*
X2102301D1*
X457404Y3007110D2*
X601087D1*
X848218D2*
X1156215D1*
X1616356D2*
X1908563D1*
X2036559D2*
X2094371D1*
X534591Y2967241D2*
X604818D1*
X844487D2*
X1156215D1*
X1330394D2*
X1896972D1*
X2048150D2*
X2094371D1*
X546684Y2927373D2*
X634495D1*
X814810D2*
X1156215D1*
X1330394D2*
X1909639D1*
X2035483D2*
X2094371D1*
X546756Y2887504D2*
X1156215D1*
X1330394D2*
X1747192D1*
X1810668D2*
X1911038D1*
X2034047D2*
X2094371D1*
X546756Y2847635D2*
X852240D1*
X938360D2*
X1708257D1*
X1849602D2*
X1911038D1*
X2034047D2*
X2102301D1*
X535703Y2807766D2*
X815243D1*
X975356D2*
X1704668D1*
X1853192D2*
X1911038D1*
X2034047D2*
X2102301D1*
X480944Y2767898D2*
X535239D1*
X719286D2*
X808210D1*
X982390D2*
X1717407D1*
X1840451D2*
X1911038D1*
X2034047D2*
X2102301D1*
X457404Y2728029D2*
X506962D1*
X747600D2*
X808210D1*
X982390D2*
X1717407D1*
X1840451D2*
X1895357D1*
X2045925D2*
X2102301D1*
X457404Y2688160D2*
X503948D1*
X750613D2*
X808963D1*
X981600D2*
X1717407D1*
X1840451D2*
X1903180D1*
X2038102D2*
X2102301D1*
X457404Y2648291D2*
X522465D1*
X732097D2*
X825829D1*
X964735D2*
X1686835D1*
X1840451D2*
X2102301D1*
X457404Y2608423D2*
X1650160D1*
X1830226D2*
X2102301D1*
X457404Y2568554D2*
X1647218D1*
X1795310D2*
X2102301D1*
X569722Y2528685D2*
X673787D1*
X793675D2*
X1627409D1*
X1771375D2*
X2102301D1*
X600043Y2488816D2*
X650822D1*
X816640D2*
X1597446D1*
X1844543D2*
X2102301D1*
X604564Y2448948D2*
X651360D1*
X816102D2*
X1567088D1*
X1844543D2*
X2102301D1*
X604564Y2409079D2*
X676084D1*
X1049386D2*
X1099339D1*
X1243626D2*
X1557902D1*
X1844543D2*
X2102301D1*
X604564Y2369210D2*
X775268D1*
X1049386D2*
X1086455D1*
X1256509D2*
X1557902D1*
X1844543D2*
X2102301D1*
X604564Y2329341D2*
X783413D1*
X1049386D2*
X1094638D1*
X1248327D2*
X1557902D1*
X1844543D2*
X2102301D1*
X457404Y2289472D2*
X824537D1*
X1049386D2*
X1137950D1*
X1204979D2*
X1557902D1*
X1842247D2*
X2102301D1*
X457404Y2249604D2*
X1557902D1*
X1819711D2*
X2102301D1*
X457404Y2209735D2*
X1557902D1*
X1680911D2*
X2102301D1*
X457404Y2169866D2*
X1557902D1*
X1680911D2*
X2102301D1*
X457404Y2129997D2*
X1557902D1*
X1680911D2*
X2102301D1*
X457404Y2090129D2*
X1557902D1*
X1680911D2*
X2102301D1*
X693055Y2050260D2*
X894152D1*
X1028106D2*
X1557902D1*
X1680911D2*
X2102301D1*
X719896Y2010391D2*
X885756D1*
X1052256D2*
X1557902D1*
X1680911D2*
X2102301D1*
X759764Y1970522D2*
X831822D1*
X1092123D2*
X1557902D1*
X1680911D2*
X2102301D1*
X1131991Y1930654D2*
X1557902D1*
X1680911D2*
X2102301D1*
X955189Y1890785D2*
X1001231D1*
X1171858D2*
X1557902D1*
X1680911D2*
X2102301D1*
X975500Y1850916D2*
X1041098D1*
X1211726D2*
X1557902D1*
X1680911D2*
X2102301D1*
X788614Y1811047D2*
X839394D1*
X1002592D2*
X1080966D1*
X1251629D2*
X1557902D1*
X1680911D2*
X1920942D1*
X2039071D2*
X2102301D1*
X788614Y1771178D2*
X837491D1*
X1291496D2*
X1557902D1*
X1680911D2*
X1904651D1*
X2055362D2*
X2102301D1*
X813626Y1731310D2*
X858412D1*
X983573D2*
X1012211D1*
X1339329D2*
X1557902D1*
X1680911D2*
X1912976D1*
X2047037D2*
X2102301D1*
X853493Y1691441D2*
X1012211D1*
X1352104D2*
X1557902D1*
X1680911D2*
X1918503D1*
X2041512D2*
X2102301D1*
X692087Y1651572D2*
X722698D1*
X893361D2*
X1012211D1*
X1186391D2*
X1212409D1*
X1340621D2*
X1557902D1*
X1680911D2*
X1918503D1*
X2041512D2*
X2102301D1*
X708126Y1611703D2*
X762566D1*
X933228D2*
X1012211D1*
X1186391D2*
X1545055D1*
X1693757D2*
X1903144D1*
X2053676D2*
X2417257D1*
X702780Y1571835D2*
X802432D1*
X973096D2*
X1022761D1*
X1175841D2*
X1548932D1*
X1689882D2*
X1910823D1*
X2045996D2*
X2395510D1*
X703067Y1531966D2*
X842299D1*
X1012963D2*
X1074327D1*
X1124276D2*
X1588762D1*
X1650051D2*
X2359088D1*
X708018Y1492097D2*
X882203D1*
X1067327D2*
X2352198D1*
X691584Y1452228D2*
X922071D1*
X1187144D2*
X2352198D1*
X708018Y1412360D2*
X942093D1*
X1187144D2*
X2344663D1*
X703031Y1372491D2*
X1012965D1*
X1187144D2*
X2338778D1*
X702816Y1332622D2*
X1012965D1*
X1187144D2*
X2248350D1*
X708091Y1292753D2*
X1012965D1*
X1187144D2*
X2221150D1*
X692014Y1252885D2*
X1015584D1*
X1184525D2*
X1260493D1*
X1363659D2*
X2221437D1*
X457404Y1213016D2*
X1039268D1*
X1160841D2*
X1231177D1*
X1392976D2*
X2221077D1*
X457404Y1173147D2*
X1228198D1*
X1395991D2*
X2220289D1*
X457404Y1133278D2*
X1247469D1*
X1376720D2*
X2232776D1*
X457404Y1093409D2*
X1116671D1*
X1172144D2*
X2417257D1*
X457404Y1053541D2*
X1068585D1*
X1220265D2*
X2417257D1*
X457404Y1013672D2*
X1059327D1*
X1229524D2*
X2417257D1*
X457404Y973803D2*
X1071025D1*
X1217825D2*
X2417257D1*
X457404Y933934D2*
X2417257D1*
X457404Y894066D2*
X2417257D1*
X457404Y854197D2*
X2417257D1*
X457404Y814328D2*
X2417257D1*
X457404Y774459D2*
X2417257D1*
X457404Y734591D2*
X2417257D1*
X457404Y694722D2*
X2417257D1*
X623512Y654853D2*
X2417257D1*
X665711Y614984D2*
X2417257D1*
X684587Y575115D2*
X2417257D1*
X690041Y535247D2*
X2417257D1*
X683726Y495378D2*
X2417257D1*
X663702Y455509D2*
X2417257D1*
X1182385Y1610537D2*
X1181675Y1601383D1*
X1179959Y1592362D1*
X1177259Y1583587D1*
X1173608Y1575163D1*
X1169049Y1567193D1*
X1163638Y1559774D1*
X1157442Y1552999D1*
X1150537Y1546948D1*
X1143005Y1541696D1*
X1134941Y1537306D1*
X1126441Y1533832D1*
X1117610Y1531319D1*
X1108556Y1529794D1*
X1099390Y1529278D1*
X1090220Y1529777D1*
X1081164Y1531283D1*
X1072328Y1533780D1*
X1063822Y1537236D1*
X1055749Y1541610D1*
X1048207Y1546848D1*
X1041290Y1552886D1*
X1035081Y1559650D1*
X1029656Y1567058D1*
X1025083Y1575018D1*
X1021415Y1583436D1*
X1018697Y1592206D1*
X1016965Y1601223D1*
X1016236Y1610375D1*
X1016524Y1619552D1*
X1017820Y1628642D1*
X1017955Y1629281D1*
X1016213Y1629278D1*
Y1795470D1*
X1100504D1*
X950629Y1945379D1*
X944411Y1946585D1*
X933726Y1950058D1*
X930513Y1951476D1*
X936273Y1944325D1*
X941188Y1936571D1*
X945196Y1928310D1*
X948244Y1919650D1*
X950294Y1910699D1*
X951320Y1901576D1*
X951361Y1893415D1*
X950427Y1884281D1*
X948466Y1875311D1*
X945505Y1866621D1*
X944815Y1864971D1*
X952038Y1862378D1*
X957823Y1859711D1*
X963381Y1856600D1*
X968677Y1853060D1*
X973680Y1849117D1*
X978358Y1844793D1*
X982682Y1840114D1*
X986626Y1835112D1*
X990165Y1829815D1*
X993277Y1824257D1*
X995944Y1818472D1*
X998150Y1812496D1*
X999878Y1806365D1*
X1001121Y1800118D1*
X1001870Y1793791D1*
X1002119Y1787427D1*
X1001870Y1781062D1*
X1001121Y1774735D1*
X999878Y1768488D1*
X998150Y1762357D1*
X995944Y1756381D1*
X993277Y1750596D1*
X990165Y1745038D1*
X986626Y1739741D1*
X982682Y1734739D1*
X978358Y1730060D1*
X973680Y1725736D1*
X968677Y1721793D1*
X963381Y1718253D1*
X957823Y1715142D1*
X952038Y1712475D1*
X946062Y1710269D1*
X939930Y1708541D1*
X933684Y1707298D1*
X927357Y1706549D1*
X920992Y1706299D1*
X914627Y1706549D1*
X908301Y1707298D1*
X902054Y1708541D1*
X895923Y1710269D1*
X889946Y1712475D1*
X884161Y1715142D1*
X878604Y1718253D1*
X873307Y1721793D1*
X868304Y1725736D1*
X863626Y1730060D1*
X859302Y1734739D1*
X855358Y1739741D1*
X851819Y1745038D1*
X848707Y1750596D1*
X846041Y1756381D1*
X843835Y1762357D1*
X842106Y1768488D1*
X840864Y1774735D1*
X840114Y1781062D1*
X839865Y1787427D1*
X840114Y1793791D1*
X840864Y1800118D1*
X842106Y1806365D1*
X843835Y1812496D1*
X846530Y1819534D1*
X838764Y1822348D1*
X830521Y1826391D1*
X822787Y1831341D1*
X815663Y1837133D1*
X809239Y1843692D1*
X803596Y1850934D1*
X798808Y1858769D1*
X794937Y1867094D1*
X792030Y1875803D1*
X790127Y1884786D1*
X789251Y1893925D1*
X789412Y1903105D1*
X790610Y1912207D1*
X792829Y1921117D1*
X796041Y1929719D1*
X800203Y1937903D1*
X805264Y1945563D1*
X811157Y1952604D1*
X817810Y1958932D1*
X825134Y1964469D1*
X833037Y1969143D1*
X841416Y1972894D1*
X850167Y1975673D1*
X859176Y1977448D1*
X868327Y1978192D1*
X877504Y1977896D1*
X886588Y1976567D1*
X895465Y1974219D1*
X904018Y1970883D1*
X906681Y1969707D1*
X900077Y1978797D1*
X894976Y1988807D1*
X891504Y1999492D1*
X889747Y2010589D1*
Y2021825D1*
X891504Y2032923D1*
X894976Y2043608D1*
X900077Y2053618D1*
X906681Y2062707D1*
X914626Y2070652D1*
X923715Y2077256D1*
X933726Y2082357D1*
X944411Y2085829D1*
X955508Y2087587D1*
X966744D1*
X977841Y2085829D1*
X988526Y2082357D1*
X998537Y2077256D1*
X1007626Y2070652D1*
X1015571Y2062707D1*
X1022175Y2053618D1*
X1027276Y2043608D1*
X1030748Y2032923D1*
X1031924Y2026732D1*
X1300820Y1757837D1*
X1309025Y1754281D1*
X1318605Y1748409D1*
X1327148Y1741113D1*
X1334445Y1732570D1*
X1340316Y1722990D1*
X1344615Y1712610D1*
X1347238Y1701685D1*
X1348119Y1690484D1*
X1347238Y1679283D1*
X1344615Y1668358D1*
X1340316Y1657979D1*
X1334445Y1648399D1*
X1327148Y1639856D1*
X1318605Y1632559D1*
X1309025Y1626688D1*
X1298646Y1622388D1*
X1287720Y1619766D1*
X1276520Y1618885D1*
X1265319Y1619766D1*
X1254394Y1622388D1*
X1244014Y1626688D1*
X1234434Y1632559D1*
X1225891Y1639856D1*
X1218594Y1648399D1*
X1212723Y1657979D1*
X1208424Y1668358D1*
X1205802Y1679283D1*
X1204920Y1690484D1*
X1204944Y1691076D1*
X1182394Y1713614D1*
X1182404Y1629278D1*
X1180701Y1629117D1*
X1182050Y1620035D1*
X1182385Y1610537D1*
X2106276Y2867656D2*
X2098369D1*
Y3033848D1*
X2106299D1*
Y3086850D1*
X1623454Y3086848D1*
X1626067Y3079230D1*
X1628117Y3070280D1*
X1629143Y3061156D1*
X1629184Y3052995D1*
X1628249Y3043861D1*
X1626289Y3034891D1*
X1623328Y3026201D1*
X1619404Y3017900D1*
X1614567Y3010096D1*
X1608879Y3002888D1*
X1602413Y2996369D1*
X1595253Y2990623D1*
X1587488Y2985722D1*
X1579220Y2981731D1*
X1570554Y2978698D1*
X1561601Y2976665D1*
X1552475Y2975656D1*
X1543294Y2975685D1*
X1534175Y2976752D1*
X1525234Y2978841D1*
X1516587Y2981928D1*
X1508344Y2985971D1*
X1500610Y2990921D1*
X1493486Y2996713D1*
X1487062Y3003272D1*
X1481419Y3010514D1*
X1476631Y3018349D1*
X1476177Y3019220D1*
X1470722Y3008655D1*
X1467182Y3003358D1*
X1463239Y2998356D1*
X1458915Y2993677D1*
X1454236Y2989353D1*
X1449234Y2985409D1*
X1443937Y2981870D1*
X1438379Y2978759D1*
X1432594Y2976092D1*
X1426618Y2973886D1*
X1420487Y2972157D1*
X1414240Y2970915D1*
X1407913Y2970165D1*
X1401549Y2969916D1*
X1395184Y2970165D1*
X1388857Y2970915D1*
X1382610Y2972157D1*
X1376479Y2973886D1*
X1370503Y2976092D1*
X1364718Y2978759D1*
X1359160Y2981870D1*
X1353864Y2985409D1*
X1348861Y2989353D1*
X1344182Y2993677D1*
X1339858Y2998356D1*
X1335915Y3003358D1*
X1332375Y3008655D1*
X1329264Y3014213D1*
X1326399Y3020534D1*
X1326402Y2859411D1*
X1160210D1*
Y3025602D1*
X1161969D1*
X1160466Y3035987D1*
X1160210Y3042507D1*
X1160466Y3049026D1*
X1161232Y3055505D1*
X1162505Y3061906D1*
X1164277Y3068185D1*
X1166535Y3074306D1*
X1169266Y3080231D1*
X1173063Y3086836D1*
X877421Y3086848D1*
X877633Y3080722D1*
X877377Y3074202D1*
X876610Y3067723D1*
X875337Y3061323D1*
X873566Y3055043D1*
X871307Y3048923D1*
X868576Y3042997D1*
X865387Y3037304D1*
X861762Y3031879D1*
X857723Y3026755D1*
X853294Y3021965D1*
X848504Y3017535D1*
X843062Y3013283D1*
X844894Y3001188D1*
X845150Y2994668D1*
X844894Y2988148D1*
X844127Y2981669D1*
X842854Y2975269D1*
X841083Y2968990D1*
X838824Y2962869D1*
X836093Y2956944D1*
X832904Y2951251D1*
X829280Y2945825D1*
X825240Y2940701D1*
X820811Y2935911D1*
X816021Y2931482D1*
X810896Y2927442D1*
X805471Y2923818D1*
X799778Y2920629D1*
X793853Y2917898D1*
X787732Y2915639D1*
X781453Y2913867D1*
X775052Y2912594D1*
X768573Y2911828D1*
X752867Y2911572D1*
X687251D1*
X680731Y2911828D1*
X674252Y2912594D1*
X667852Y2913867D1*
X661572Y2915639D1*
X655451Y2917898D1*
X649526Y2920629D1*
X643833Y2923818D1*
X638408Y2927442D1*
X633283Y2931482D1*
X628493Y2935911D1*
X624064Y2940701D1*
X620025Y2945825D1*
X616400Y2951251D1*
X613211Y2956944D1*
X610480Y2962869D1*
X608222Y2968990D1*
X606450Y2975269D1*
X605177Y2981669D1*
X604411Y2988148D1*
X604155Y2994668D1*
X604411Y3001188D1*
X605177Y3007667D1*
X606450Y3014067D1*
X608222Y3020346D1*
X610480Y3026467D1*
X613211Y3032392D1*
X616400Y3038085D1*
X620025Y3043510D1*
X624064Y3048635D1*
X628493Y3053425D1*
X633283Y3057854D1*
X638726Y3062106D1*
X636894Y3074202D1*
X636638Y3080722D1*
X636879Y3086860D1*
X453415Y3086848D1*
X453386Y3006839D1*
X461253Y3007060D1*
X470409Y3006377D1*
X479434Y3004688D1*
X488218Y3002013D1*
X496654Y2998386D1*
X504636Y2993850D1*
X512071Y2988462D1*
X518865Y2982286D1*
X524936Y2975398D1*
X530210Y2967882D1*
X534623Y2959831D1*
X538121Y2951341D1*
X540660Y2942517D1*
X542211Y2933467D1*
X542755Y2923979D1*
X542572Y2843668D1*
X541458Y2834554D1*
X539346Y2825619D1*
X536260Y2816971D1*
X532240Y2808717D1*
X527333Y2800955D1*
X521600Y2793785D1*
X515110Y2787289D1*
X507945Y2781549D1*
X500189Y2776634D1*
X491938Y2772605D1*
X483293Y2769512D1*
X474360Y2767391D1*
X465247Y2766268D1*
X456066Y2766157D1*
X453381Y2766323D1*
X453386Y2509125D1*
X457757Y2514735D1*
X462081Y2519413D1*
X466760Y2523738D1*
X471762Y2527681D1*
X477059Y2531220D1*
X482617Y2534332D1*
X488402Y2536999D1*
X494378Y2539205D1*
X500509Y2540933D1*
X506756Y2542176D1*
X513083Y2542925D1*
X519448Y2543175D1*
X525812Y2542925D1*
X532139Y2542176D1*
X538386Y2540933D1*
X544517Y2539205D1*
X550493Y2536999D1*
X556278Y2534332D1*
X561836Y2531220D1*
X567133Y2527681D1*
X572135Y2523738D1*
X576814Y2519413D1*
X581138Y2514735D1*
X585081Y2509732D1*
X588621Y2504436D1*
X591732Y2498878D1*
X594399Y2493093D1*
X596605Y2487117D1*
X598333Y2480986D1*
X599576Y2474739D1*
X600480Y2464459D1*
X600575Y2455248D1*
Y2302180D1*
X453386D1*
X453482Y2044920D1*
X457041Y2050247D1*
X461008Y2055278D1*
X465357Y2059983D1*
X470062Y2064332D1*
X475093Y2068299D1*
X480420Y2071858D1*
X486010Y2074990D1*
X491829Y2077672D1*
X497841Y2079890D1*
X504008Y2081629D1*
X510291Y2082879D1*
X516654Y2083633D1*
X523056Y2083883D1*
X529459Y2083633D1*
X535822Y2082879D1*
X542105Y2081629D1*
X548272Y2079890D1*
X554283Y2077672D1*
X560102Y2074990D1*
X565693Y2071858D1*
X573005Y2066735D1*
X580420Y2071858D1*
X586010Y2074990D1*
X591829Y2077672D1*
X597841Y2079890D1*
X604008Y2081629D1*
X610291Y2082879D1*
X616654Y2083633D1*
X623056Y2083883D1*
X629459Y2083633D1*
X635822Y2082879D1*
X642105Y2081629D1*
X648272Y2079890D1*
X654283Y2077672D1*
X660102Y2074990D1*
X665693Y2071858D1*
X671020Y2068299D1*
X676051Y2064332D1*
X680756Y2059983D1*
X685105Y2055278D1*
X689072Y2050247D1*
X692631Y2044920D1*
X695762Y2039329D1*
X698445Y2033510D1*
X701390Y2024921D1*
X770836Y1955207D1*
X776140Y1947907D1*
X780238Y1939867D1*
X783026Y1931285D1*
X784437Y1922373D1*
X784614Y1899488D1*
Y1756346D1*
X1009560Y1531373D1*
X1015770Y1530175D1*
X1026455Y1526702D1*
X1036466Y1521601D1*
X1045555Y1514997D1*
X1053500Y1507052D1*
X1060104Y1497963D1*
X1065205Y1487953D1*
X1068677Y1477268D1*
X1070434Y1466171D1*
X1070507Y1456756D1*
X1183148Y1456764D1*
Y1290572D1*
X1181445Y1290411D1*
X1182794Y1281329D1*
X1183129Y1271831D1*
X1182419Y1262677D1*
X1180703Y1253656D1*
X1178003Y1244881D1*
X1174352Y1236457D1*
X1169793Y1228487D1*
X1164382Y1221068D1*
X1158186Y1214293D1*
X1151281Y1208241D1*
X1143749Y1202990D1*
X1135685Y1198600D1*
X1127185Y1195126D1*
X1118354Y1192613D1*
X1109301Y1191088D1*
X1100134Y1190572D1*
X1090965Y1191071D1*
X1081908Y1192577D1*
X1073072Y1195073D1*
X1064566Y1198530D1*
X1056493Y1202904D1*
X1048951Y1208142D1*
X1042034Y1214180D1*
X1035825Y1220944D1*
X1030400Y1228352D1*
X1025827Y1236312D1*
X1022159Y1244730D1*
X1019441Y1253500D1*
X1017709Y1262517D1*
X1016980Y1271669D1*
X1017268Y1280846D1*
X1018564Y1289936D1*
X1018699Y1290575D1*
X1016957Y1290572D1*
Y1391227D1*
X1010256Y1389835D1*
X999055Y1388953D1*
X987854Y1389835D1*
X976929Y1392457D1*
X966550Y1396756D1*
X956970Y1402627D1*
X948427Y1409924D1*
X941130Y1418467D1*
X935259Y1428047D1*
X930959Y1438427D1*
X928337Y1449352D1*
X928257Y1450028D1*
X700822Y1677461D1*
X697303Y1668430D1*
X693030Y1660304D1*
X687871Y1652709D1*
X687539Y1652285D1*
X692631Y1644920D1*
X695762Y1639329D1*
X698445Y1633510D1*
X700663Y1627499D1*
X702402Y1621332D1*
X703652Y1615049D1*
X704406Y1608686D1*
X704656Y1602283D1*
X704406Y1595881D1*
X703652Y1589518D1*
X702402Y1583235D1*
X700663Y1577068D1*
X698445Y1571056D1*
X695762Y1565238D1*
X692631Y1559647D1*
X687508Y1552335D1*
X692974Y1544357D1*
X697257Y1536236D1*
X700602Y1527685D1*
X702965Y1518814D1*
X704316Y1509732D1*
X704635Y1500446D1*
X703913Y1491294D1*
X702167Y1482280D1*
X699419Y1473518D1*
X695703Y1465122D1*
X691070Y1457197D1*
X687539Y1452285D1*
X692631Y1444920D1*
X695762Y1439329D1*
X698445Y1433510D1*
X700663Y1427499D1*
X702402Y1421332D1*
X703652Y1415049D1*
X704406Y1408686D1*
X704656Y1402283D1*
X704406Y1395881D1*
X703652Y1389518D1*
X702402Y1383235D1*
X700663Y1377068D1*
X698445Y1371056D1*
X695762Y1365238D1*
X692631Y1359647D1*
X687508Y1352335D1*
X692974Y1344357D1*
X697257Y1336236D1*
X700602Y1327685D1*
X702965Y1318814D1*
X704316Y1309732D1*
X704635Y1300446D1*
X703913Y1291294D1*
X702167Y1282280D1*
X699419Y1273518D1*
X695703Y1265122D1*
X691070Y1257197D1*
X685573Y1249841D1*
X679286Y1243150D1*
X672287Y1237207D1*
X664665Y1232089D1*
X656516Y1227858D1*
X647944Y1224571D1*
X639055Y1222268D1*
X629966Y1220976D1*
X620787Y1220715D1*
X611639Y1221487D1*
X602634Y1223281D1*
X593888Y1226075D1*
X585512Y1229833D1*
X577610Y1234510D1*
X573055Y1237799D1*
X566235Y1233043D1*
X558184Y1228631D1*
X549686Y1225151D1*
X540853Y1222648D1*
X531794Y1221152D1*
X522625Y1220685D1*
X513461Y1221249D1*
X504417Y1222841D1*
X495612Y1225437D1*
X487152Y1229007D1*
X479147Y1233504D1*
X471698Y1238873D1*
X464900Y1245043D1*
X458839Y1251940D1*
X453589Y1259472D1*
X453386Y1251205D1*
Y637693D1*
X463160Y645988D1*
X470605Y651367D1*
X478391Y656239D1*
X486483Y660584D1*
X494846Y664382D1*
X503442Y667615D1*
X512235Y670272D1*
X521184Y672337D1*
X530251Y673804D1*
X539395Y674667D1*
X548576Y674920D1*
X557753Y674563D1*
X566887Y673597D1*
X575937Y672028D1*
X584862Y669860D1*
X593623Y667104D1*
X602182Y663773D1*
X610503Y659881D1*
X618545Y655445D1*
X626274Y650484D1*
X633659Y645022D1*
X640663Y639081D1*
X647257Y632689D1*
X653413Y625871D1*
X659102Y618661D1*
X664301Y611089D1*
X668984Y603189D1*
X673134Y594995D1*
X676728Y586543D1*
X679755Y577871D1*
X682199Y569017D1*
X684050Y560021D1*
X685299Y550921D1*
X686034Y536681D1*
X685730Y527501D1*
X684815Y518362D1*
X683297Y509304D1*
X681180Y500367D1*
X678474Y491589D1*
X675190Y483012D1*
X671346Y474671D1*
X666955Y466604D1*
X662039Y458845D1*
X655167Y449698D1*
X2421262Y449682D1*
X2421260Y1311177D1*
X2413690Y1310757D1*
X2402490Y1311639D1*
X2397126Y1312705D1*
X2400609Y1306852D1*
X2403707Y1299370D1*
X2405597Y1291497D1*
X2406232Y1283409D1*
X2406073Y1259692D1*
X2404807Y1251694D1*
X2403702Y1247780D1*
X2404262Y1240224D1*
X2406013Y1229176D1*
Y1217990D1*
X2404262Y1206941D1*
X2401677Y1198661D1*
X2403978Y1191369D1*
X2405442Y1184171D1*
X2406157Y1176860D1*
X2406020Y1168076D1*
X2405076Y1160791D1*
X2403387Y1153642D1*
X2400971Y1146705D1*
X2397854Y1140052D1*
X2394070Y1133757D1*
X2389657Y1127885D1*
X2384664Y1122496D1*
X2379143Y1117651D1*
X2373152Y1113400D1*
X2366756Y1109787D1*
X2360022Y1106853D1*
X2353021Y1104627D1*
X2345829Y1103133D1*
X2338521Y1102387D1*
X2295577Y1102298D1*
X2288143Y1102686D1*
X2280886Y1103828D1*
X2273786Y1105710D1*
X2266916Y1108314D1*
X2260352Y1111609D1*
X2254161Y1115563D1*
X2248409Y1120134D1*
X2243160Y1125272D1*
X2238466Y1130923D1*
X2234379Y1137026D1*
X2230942Y1143518D1*
X2228192Y1150329D1*
X2226156Y1157388D1*
X2224858Y1164618D1*
X2224311Y1171944D1*
X2224521Y1179287D1*
X2225486Y1186570D1*
X2227194Y1193714D1*
X2228823Y1198579D1*
X2226262Y1206941D1*
X2224512Y1217990D1*
Y1229176D1*
X2226262Y1240224D1*
X2227693Y1245295D1*
X2225718Y1251694D1*
X2224451Y1259692D1*
X2224293Y1283425D1*
X2224928Y1291497D1*
X2226818Y1299370D1*
X2229916Y1306852D1*
X2234147Y1313755D1*
X2239417Y1319923D1*
X2252223Y1332505D1*
X2258774Y1337264D1*
X2265988Y1340940D1*
X2273689Y1343442D1*
X2281686Y1344709D1*
X2313294Y1344867D1*
X2348839Y1344709D1*
X2352878Y1344230D1*
X2349894Y1349852D1*
X2345594Y1360231D1*
X2342972Y1371156D1*
X2342091Y1382357D1*
X2342972Y1393558D1*
X2345594Y1404483D1*
X2349894Y1414862D1*
X2355765Y1424442D1*
X2356186Y1424976D1*
X2356362Y1509185D1*
X2357773Y1518097D1*
X2360562Y1526680D1*
X2364659Y1534720D1*
X2369963Y1542020D1*
X2386020Y1558327D1*
X2421264Y1593572D1*
X2421260Y1630188D1*
X2124730Y1630217D1*
X2120119Y1631134D1*
X2115849Y1633102D1*
X2112157Y1636013D1*
X2109247Y1639705D1*
X2107278Y1643975D1*
X2106361Y1648585D1*
X2106299Y1916559D1*
Y2867669D1*
X879197Y2284122D2*
X868793Y2282575D1*
X862273Y2282319D1*
X855753Y2282575D1*
X849274Y2283341D1*
X842874Y2284614D1*
X836594Y2286386D1*
X830474Y2288644D1*
X824549Y2291375D1*
X818856Y2294564D1*
X813430Y2298189D1*
X808306Y2302228D1*
X803516Y2306657D1*
X799087Y2311448D1*
X795047Y2316572D1*
X791423Y2321997D1*
X788234Y2327690D1*
X785503Y2333615D1*
X783244Y2339736D1*
X781472Y2346016D1*
X780199Y2352416D1*
X779433Y2358895D1*
X779177Y2365415D1*
X779433Y2371934D1*
X780199Y2378413D1*
X781472Y2384814D1*
X783244Y2391093D1*
X785503Y2397214D1*
X788234Y2403139D1*
X791423Y2408832D1*
X795047Y2414257D1*
X799087Y2419382D1*
X803516Y2424172D1*
X808306Y2428601D1*
X813430Y2432640D1*
X818856Y2436265D1*
X824549Y2439454D1*
X830474Y2442185D1*
X836594Y2444444D1*
X842874Y2446215D1*
X849274Y2447488D1*
X855753Y2448255D1*
X862273Y2448510D1*
X868793Y2448255D1*
X879197Y2446707D1*
X879177Y2448510D1*
X1045369D1*
Y2282319D1*
X879177D1*
Y2284077D1*
X1840533Y2307012D2*
X1839823Y2297858D1*
X1838108Y2288837D1*
X1835407Y2280062D1*
X1831756Y2271638D1*
X1827197Y2263668D1*
X1821786Y2256249D1*
X1815591Y2249474D1*
X1808685Y2243423D1*
X1801154Y2238171D1*
X1793089Y2233781D1*
X1784589Y2230307D1*
X1775759Y2227794D1*
X1766705Y2226269D1*
X1757538Y2225753D1*
X1748369Y2226252D1*
X1739312Y2227759D1*
X1730476Y2230255D1*
X1721970Y2233711D1*
X1713898Y2238085D1*
X1706356Y2243323D1*
X1699438Y2249361D1*
X1693230Y2256125D1*
X1687804Y2263533D1*
X1683231Y2271493D1*
X1679563Y2279911D1*
X1676906Y2288451D1*
X1676904Y1641100D1*
X1680448Y1635837D1*
X1685549Y1625827D1*
X1689021Y1615142D1*
X1690778Y1604045D1*
Y1592808D1*
X1689021Y1581711D1*
X1685549Y1571026D1*
X1680448Y1561016D1*
X1673844Y1551927D1*
X1665899Y1543982D1*
X1656810Y1537378D1*
X1646799Y1532277D1*
X1636114Y1528804D1*
X1625017Y1527047D1*
X1613781D1*
X1602684Y1528804D1*
X1591999Y1532277D1*
X1581988Y1537378D1*
X1572899Y1543982D1*
X1564954Y1551927D1*
X1558350Y1561016D1*
X1553249Y1571026D1*
X1549777Y1581711D1*
X1548020Y1592808D1*
Y1604045D1*
X1549777Y1615142D1*
X1553249Y1625827D1*
X1558350Y1635837D1*
X1561895Y1641046D1*
X1562071Y2422253D1*
X1563482Y2431165D1*
X1566270Y2439748D1*
X1570367Y2447789D1*
X1575672Y2455088D1*
X1591728Y2471395D1*
X1599264Y2478932D1*
X1600457Y2485136D1*
X1603929Y2495822D1*
X1609030Y2505832D1*
X1615634Y2514921D1*
X1623579Y2522866D1*
X1632668Y2529470D1*
X1642678Y2534571D1*
X1653364Y2538043D1*
X1664526Y2539803D1*
X1660215Y2546062D1*
X1655114Y2556072D1*
X1651642Y2566757D1*
X1649885Y2577854D1*
Y2589091D1*
X1651642Y2600188D1*
X1655114Y2610873D1*
X1660215Y2620883D1*
X1666819Y2629972D1*
X1674764Y2637917D1*
X1683853Y2644521D1*
X1693864Y2649622D1*
X1704549Y2653094D1*
X1710739Y2654270D1*
X1721427Y2664962D1*
X1721425Y2778828D1*
X1717882Y2784081D1*
X1712781Y2794092D1*
X1709308Y2804777D1*
X1707551Y2815874D1*
Y2827110D1*
X1709308Y2838207D1*
X1712781Y2848892D1*
X1717882Y2858903D1*
X1724486Y2867992D1*
X1732430Y2875937D1*
X1741520Y2882541D1*
X1751530Y2887642D1*
X1762215Y2891114D1*
X1773312Y2892871D1*
X1784549D1*
X1795646Y2891114D1*
X1806331Y2887642D1*
X1816341Y2882541D1*
X1825430Y2875937D1*
X1833375Y2867992D1*
X1839979Y2858903D1*
X1845080Y2848892D1*
X1848552Y2838207D1*
X1850310Y2827110D1*
Y2815874D1*
X1848552Y2804777D1*
X1845080Y2794092D1*
X1839979Y2784081D1*
X1836434Y2778873D1*
X1836259Y2636629D1*
X1834846Y2627717D1*
X1832059Y2619134D1*
X1827962Y2611094D1*
X1822657Y2603794D1*
X1806602Y2587487D1*
X1792114Y2572999D1*
X1790886Y2566757D1*
X1787413Y2556072D1*
X1782312Y2546062D1*
X1775709Y2536972D1*
X1767764Y2529028D1*
X1758675Y2522424D1*
X1748664Y2517323D1*
X1737979Y2513850D1*
X1726816Y2512091D1*
X1731127Y2505832D1*
X1736228Y2495822D1*
X1737665Y2491928D1*
X1840552Y2491945D1*
Y2325753D1*
X1838849Y2325592D1*
X1840198Y2316510D1*
X1840533Y2307012D1*
X589902Y2618906D2*
X583357Y2619160D1*
X576878Y2619927D1*
X570478Y2621199D1*
X564198Y2622971D1*
X558077Y2625230D1*
X552152Y2627961D1*
X546459Y2631150D1*
X541034Y2634774D1*
X535909Y2638814D1*
X531119Y2643243D1*
X526690Y2648033D1*
X522651Y2653157D1*
X519026Y2658583D1*
X515837Y2664276D1*
X513106Y2670201D1*
X510848Y2676322D1*
X509076Y2682601D1*
X507803Y2689001D1*
X507037Y2695480D1*
X506781Y2702000D1*
X507037Y2708520D1*
X507803Y2714999D1*
X509076Y2721399D1*
X510848Y2727678D1*
X513106Y2733799D1*
X515837Y2739724D1*
X519026Y2745417D1*
X522651Y2750843D1*
X526690Y2755967D1*
X531119Y2760757D1*
X535909Y2765186D1*
X541034Y2769226D1*
X546459Y2772850D1*
X552152Y2776039D1*
X558077Y2778770D1*
X564198Y2781029D1*
X570478Y2782801D1*
X576878Y2784073D1*
X583357Y2784840D1*
X599063Y2785096D1*
X664680D1*
X671199Y2784840D1*
X677678Y2784073D1*
X684079Y2782801D1*
X690358Y2781029D1*
X696479Y2778770D1*
X702404Y2776039D1*
X708097Y2772850D1*
X713522Y2769226D1*
X718647Y2765186D1*
X723437Y2760757D1*
X727866Y2755967D1*
X731906Y2750843D1*
X735530Y2745417D1*
X738719Y2739724D1*
X741450Y2733799D1*
X743709Y2727678D1*
X745480Y2721399D1*
X746753Y2714999D1*
X747520Y2708520D1*
X747776Y2702000D1*
X747520Y2695480D1*
X746753Y2689001D1*
X745480Y2682601D1*
X743709Y2676322D1*
X741450Y2670201D1*
X738719Y2664276D1*
X735530Y2658583D1*
X731906Y2653157D1*
X727866Y2648033D1*
X723437Y2643243D1*
X718647Y2638814D1*
X713522Y2634774D1*
X708097Y2631150D1*
X702404Y2627961D1*
X696479Y2625230D1*
X690358Y2622971D1*
X684079Y2621199D1*
X677678Y2619927D1*
X671199Y2619160D1*
X655493Y2618904D1*
X589877Y2618940D1*
X812198Y2774266D2*
X812453Y2780811D1*
X813219Y2787290D1*
X814492Y2793690D1*
X816264Y2799970D1*
X818522Y2806091D1*
X821253Y2812016D1*
X824442Y2817709D1*
X828067Y2823134D1*
X832106Y2828259D1*
X836535Y2833049D1*
X841325Y2837478D1*
X846450Y2841517D1*
X851875Y2845142D1*
X857568Y2848331D1*
X863493Y2851062D1*
X869614Y2853320D1*
X875894Y2855092D1*
X882294Y2856365D1*
X888773Y2857131D1*
X895293Y2857387D1*
X901812Y2857131D1*
X908291Y2856365D1*
X914692Y2855092D1*
X920971Y2853320D1*
X927092Y2851062D1*
X933017Y2848331D1*
X938710Y2845142D1*
X944135Y2841517D1*
X949260Y2837478D1*
X954050Y2833049D1*
X958479Y2828259D1*
X962518Y2823134D1*
X966143Y2817709D1*
X969332Y2812016D1*
X972063Y2806091D1*
X974322Y2799970D1*
X976093Y2793690D1*
X977366Y2787290D1*
X978133Y2780811D1*
X978388Y2765105D1*
X978353Y2699488D1*
X978133Y2692969D1*
X977366Y2686490D1*
X976093Y2680089D1*
X974322Y2673810D1*
X972063Y2667689D1*
X969332Y2661764D1*
X966143Y2656071D1*
X962518Y2650646D1*
X958479Y2645521D1*
X954050Y2640731D1*
X949260Y2636302D1*
X944135Y2632262D1*
X938710Y2628638D1*
X933017Y2625449D1*
X927092Y2622718D1*
X920971Y2620459D1*
X914692Y2618688D1*
X908291Y2617415D1*
X901812Y2616648D1*
X895293Y2616392D1*
X888773Y2616648D1*
X882294Y2617415D1*
X875894Y2618688D1*
X869614Y2620459D1*
X863493Y2622718D1*
X857568Y2625449D1*
X851875Y2628638D1*
X846450Y2632262D1*
X841325Y2636302D1*
X836535Y2640731D1*
X832106Y2645521D1*
X828067Y2650646D1*
X824442Y2656071D1*
X821253Y2661764D1*
X818522Y2667689D1*
X816264Y2673810D1*
X814492Y2680089D1*
X813219Y2686490D1*
X812453Y2692969D1*
X812197Y2708675D1*
Y2774060D1*
X814608Y2463560D2*
X813858Y2457234D1*
X812615Y2450987D1*
X810887Y2444856D1*
X808681Y2438879D1*
X806014Y2433094D1*
X802903Y2427537D1*
X799364Y2422240D1*
X795420Y2417238D1*
X791096Y2412559D1*
X786417Y2408235D1*
X781415Y2404291D1*
X776118Y2400752D1*
X770560Y2397640D1*
X764776Y2394974D1*
X758799Y2392768D1*
X752668Y2391039D1*
X746421Y2389797D1*
X740094Y2389047D1*
X733730Y2388798D1*
X727365Y2389047D1*
X721038Y2389797D1*
X714791Y2391039D1*
X708660Y2392768D1*
X702684Y2394974D1*
X696899Y2397640D1*
X691341Y2400752D1*
X686045Y2404291D1*
X681042Y2408235D1*
X676364Y2412559D1*
X672039Y2417238D1*
X668096Y2422240D1*
X664556Y2427537D1*
X661445Y2433094D1*
X658778Y2438879D1*
X656572Y2444856D1*
X654844Y2450987D1*
X653601Y2457234D1*
X652852Y2463560D1*
X652602Y2469925D1*
X652852Y2476290D1*
X653601Y2482617D1*
X654844Y2488864D1*
X656572Y2494995D1*
X658778Y2500971D1*
X661445Y2506756D1*
X664556Y2512314D1*
X668096Y2517610D1*
X672039Y2522613D1*
X676364Y2527291D1*
X681042Y2531615D1*
X686045Y2535559D1*
X691341Y2539098D1*
X696899Y2542210D1*
X702684Y2544877D1*
X708660Y2547083D1*
X714791Y2548811D1*
X721038Y2550054D1*
X727365Y2550803D1*
X733730Y2551052D1*
X740094Y2550803D1*
X746421Y2550054D1*
X752668Y2548811D1*
X758799Y2547083D1*
X764776Y2544877D1*
X770560Y2542210D1*
X776118Y2539098D1*
X781415Y2535559D1*
X786417Y2531615D1*
X791096Y2527291D1*
X795420Y2522613D1*
X799364Y2517610D1*
X802903Y2512314D1*
X806014Y2506756D1*
X808681Y2500971D1*
X810887Y2494995D1*
X812615Y2488864D1*
X813858Y2482617D1*
X814608Y2476290D1*
X814857Y2469925D1*
X814608Y2463560D1*
X1392965Y1180814D2*
X1392215Y1174487D1*
X1390972Y1168240D1*
X1389244Y1162109D1*
X1387038Y1156133D1*
X1384371Y1150348D1*
X1381260Y1144790D1*
X1377720Y1139493D1*
X1373777Y1134491D1*
X1369453Y1129812D1*
X1364774Y1125488D1*
X1359772Y1121545D1*
X1354475Y1118005D1*
X1348917Y1114894D1*
X1343133Y1112227D1*
X1337156Y1110021D1*
X1331025Y1108293D1*
X1324778Y1107050D1*
X1318451Y1106301D1*
X1312087Y1106051D1*
X1305722Y1106301D1*
X1299395Y1107050D1*
X1293148Y1108293D1*
X1287017Y1110021D1*
X1281041Y1112227D1*
X1275256Y1114894D1*
X1269698Y1118005D1*
X1264402Y1121545D1*
X1259399Y1125488D1*
X1254720Y1129812D1*
X1250396Y1134491D1*
X1246453Y1139493D1*
X1242913Y1144790D1*
X1239802Y1150348D1*
X1237135Y1156133D1*
X1234929Y1162109D1*
X1233201Y1168240D1*
X1231958Y1174487D1*
X1231209Y1180814D1*
X1230959Y1187178D1*
X1231209Y1193543D1*
X1231958Y1199870D1*
X1233201Y1206117D1*
X1234929Y1212248D1*
X1237135Y1218224D1*
X1239802Y1224009D1*
X1242913Y1229567D1*
X1246453Y1234864D1*
X1250396Y1239866D1*
X1254720Y1244545D1*
X1259399Y1248869D1*
X1264402Y1252812D1*
X1269698Y1256352D1*
X1275256Y1259463D1*
X1281041Y1262130D1*
X1287017Y1264336D1*
X1293148Y1266064D1*
X1299395Y1267307D1*
X1305722Y1268056D1*
X1312087Y1268306D1*
X1318451Y1268056D1*
X1324778Y1267307D1*
X1331025Y1266064D1*
X1337156Y1264336D1*
X1343133Y1262130D1*
X1348917Y1259463D1*
X1354475Y1256352D1*
X1359772Y1252812D1*
X1364774Y1248869D1*
X1369453Y1244545D1*
X1373777Y1239866D1*
X1377720Y1234864D1*
X1381260Y1229567D1*
X1384371Y1224009D1*
X1387038Y1218224D1*
X1389244Y1212248D1*
X1390972Y1206117D1*
X1392215Y1199870D1*
X1392965Y1193543D1*
X1393214Y1187178D1*
X1392965Y1180814D1*
X1252580Y2363205D2*
X1251853Y2354052D1*
X1250097Y2345041D1*
X1247333Y2336285D1*
X1243598Y2327898D1*
X1238940Y2319986D1*
X1233416Y2312651D1*
X1227100Y2305988D1*
X1220071Y2300080D1*
X1212420Y2295005D1*
X1204244Y2290828D1*
X1195648Y2287600D1*
X1186744Y2285365D1*
X1177643Y2284150D1*
X1168463Y2283970D1*
X1159322Y2284829D1*
X1150336Y2286717D1*
X1141622Y2289606D1*
X1133289Y2293462D1*
X1125446Y2298235D1*
X1118192Y2303864D1*
X1111621Y2310276D1*
X1105816Y2317390D1*
X1100852Y2325114D1*
X1096793Y2333349D1*
X1093690Y2341991D1*
X1091584Y2350927D1*
X1090500Y2360045D1*
X1090454Y2369226D1*
X1091446Y2378353D1*
X1093462Y2387311D1*
X1096478Y2395983D1*
X1100454Y2404259D1*
X1105340Y2412031D1*
X1111073Y2419203D1*
X1117580Y2425681D1*
X1124777Y2431382D1*
X1132572Y2436234D1*
X1140865Y2440173D1*
X1149550Y2443151D1*
X1158516Y2445129D1*
X1167648Y2446079D1*
X1176829Y2445992D1*
X1185942Y2444869D1*
X1194869Y2442723D1*
X1203496Y2439583D1*
X1211714Y2435487D1*
X1219416Y2430488D1*
X1226504Y2424652D1*
X1232887Y2418052D1*
X1238483Y2410774D1*
X1243222Y2402909D1*
X1247041Y2394560D1*
X1249892Y2385833D1*
X1251739Y2376840D1*
X1252558Y2367694D1*
X1252580Y2363205D1*
X1225524Y1013993D2*
X1224797Y1004841D1*
X1223041Y995829D1*
X1220277Y987073D1*
X1216542Y978686D1*
X1211883Y970774D1*
X1206360Y963440D1*
X1200043Y956777D1*
X1193014Y950869D1*
X1185364Y945794D1*
X1177188Y941617D1*
X1168592Y938388D1*
X1159688Y936154D1*
X1150587Y934938D1*
X1141407Y934759D1*
X1132265Y935618D1*
X1123280Y937505D1*
X1114566Y940395D1*
X1106232Y944251D1*
X1098390Y949024D1*
X1091135Y954652D1*
X1084564Y961064D1*
X1078760Y968178D1*
X1073795Y975903D1*
X1069736Y984138D1*
X1066634Y992780D1*
X1064528Y1001715D1*
X1063444Y1010833D1*
X1063398Y1020014D1*
X1064390Y1029142D1*
X1066406Y1038100D1*
X1069421Y1046772D1*
X1073398Y1055047D1*
X1078283Y1062820D1*
X1084017Y1069992D1*
X1090524Y1076470D1*
X1097720Y1082171D1*
X1105516Y1087022D1*
X1113808Y1090962D1*
X1122493Y1093940D1*
X1131459Y1095917D1*
X1140592Y1096867D1*
X1149773Y1096781D1*
X1158886Y1095657D1*
X1167812Y1093512D1*
X1176440Y1090371D1*
X1184657Y1086276D1*
X1192360Y1081277D1*
X1199448Y1075441D1*
X1205831Y1068841D1*
X1211427Y1061563D1*
X1216165Y1053698D1*
X1219984Y1045349D1*
X1222836Y1036622D1*
X1224682Y1027629D1*
X1225501Y1018483D1*
X1225524Y1013993D1*
X2042013Y2715717D2*
X2040256Y2704619D1*
X2036783Y2693934D1*
X2031682Y2683924D1*
X2025079Y2674835D1*
X2017134Y2666890D1*
X2008045Y2660286D1*
X1998034Y2655185D1*
X1987349Y2651713D1*
X1976252Y2649955D1*
X1965016D1*
X1953919Y2651713D1*
X1943234Y2655185D1*
X1933223Y2660286D1*
X1924134Y2666890D1*
X1916189Y2674835D1*
X1909585Y2683924D1*
X1904484Y2693934D1*
X1901012Y2704619D1*
X1899255Y2715717D1*
Y2726953D1*
X1901012Y2738050D1*
X1904484Y2748735D1*
X1909585Y2758745D1*
X1915060Y2766404D1*
X1915049Y2925408D1*
X1911505Y2930635D1*
X1906404Y2940646D1*
X1902932Y2951331D1*
X1901175Y2962428D1*
Y2973664D1*
X1902932Y2984761D1*
X1906404Y2995446D1*
X1911505Y3005457D1*
X1918109Y3014546D1*
X1926054Y3022491D1*
X1935143Y3029094D1*
X1945154Y3034196D1*
X1955839Y3037668D1*
X1966936Y3039425D1*
X1978172D1*
X1989269Y3037668D1*
X1999954Y3034196D1*
X2009965Y3029094D1*
X2019054Y3022491D1*
X2026999Y3014546D1*
X2033602Y3005457D1*
X2038703Y2995446D1*
X2042176Y2984761D1*
X2043933Y2973664D1*
Y2962428D1*
X2042176Y2951331D1*
X2038703Y2940646D1*
X2033602Y2930635D1*
X2030058Y2925427D1*
X2030059Y2761245D1*
X2034430Y2753840D1*
X2038730Y2743461D1*
X2041352Y2732535D1*
X2042234Y2721335D1*
X2042013Y2715717D1*
X2049795Y1599151D2*
X2048038Y1588054D1*
X2044566Y1577369D1*
X2039465Y1567358D1*
X2032861Y1558269D1*
X2024916Y1550324D1*
X2015827Y1543720D1*
X2005816Y1538619D1*
X1995131Y1535147D1*
X1984034Y1533390D1*
X1972798D1*
X1961701Y1535147D1*
X1951016Y1538619D1*
X1941005Y1543720D1*
X1931916Y1550324D1*
X1923971Y1558269D1*
X1917367Y1567358D1*
X1912266Y1577369D1*
X1908794Y1588054D1*
X1907037Y1599151D1*
Y1610387D1*
X1908794Y1621484D1*
X1912266Y1632169D1*
X1917367Y1642180D1*
X1922490Y1649390D1*
X1922496Y1722648D1*
X1918953Y1727870D1*
X1913852Y1737881D1*
X1910379Y1748566D1*
X1908622Y1759663D1*
Y1770899D1*
X1910379Y1781996D1*
X1913852Y1792681D1*
X1918953Y1802692D1*
X1925556Y1811781D1*
X1933501Y1819726D1*
X1942591Y1826329D1*
X1952601Y1831430D1*
X1963286Y1834903D1*
X1974383Y1836660D1*
X1985619D1*
X1996717Y1834903D1*
X2007402Y1831430D1*
X2017412Y1826329D1*
X2026501Y1819726D1*
X2034446Y1811781D1*
X2041050Y1802692D1*
X2046151Y1792681D1*
X2049623Y1781996D1*
X2051381Y1770899D1*
Y1759663D1*
X2049623Y1748566D1*
X2046151Y1737881D1*
X2041050Y1727870D1*
X2037505Y1722661D1*
X2037507Y1645176D1*
X2042213Y1637274D1*
X2046512Y1626895D1*
X2049134Y1615970D1*
X2050016Y1604769D1*
X2049795Y1599151D1*
X1099308Y1612374D2*
D18*
Y1529314D1*
X1016248Y1612374D2*
X1182369D1*
X1757457Y2308849D2*
Y2225789D1*
Y2308849D2*
X1840517D1*
X1100052Y1273668D2*
Y1190608D1*
X1016992Y1273668D2*
X1183113D1*
X523056Y1302283D2*
Y1220719D1*
X623056Y1302283D2*
Y1220719D1*
Y1302283D2*
X704621D1*
X623056Y1502283D2*
X704621D1*
X459659Y3007039D2*
Y2766115D1*
Y2886577D2*
X542719D1*
X519448Y2383307D2*
Y2302215D1*
Y2383307D2*
X600539D1*
X1171474Y2446134D2*
Y2283950D1*
X1090382Y2365042D2*
X1252566D1*
X1144417Y1096923D2*
Y934739D1*
X1063325Y1015831D2*
X1225509D1*
X870316Y1978180D2*
Y1897088D1*
X789224D2*
X951408D1*
X1548139Y3056668D2*
Y2975576D1*
Y3056668D2*
X1629231D1*
X2315262Y1173583D2*
Y1102333D1*
X2224328Y1173583D2*
X2406197D1*
D20*
X1099308Y1612374D3*
D21*
Y1712374D3*
D20*
X2281465Y2950752D3*
D21*
X2181465D3*
D20*
X1243306Y3042507D3*
D21*
Y2942507D3*
D20*
X2483710Y2775434D3*
D21*
X2383710D3*
D20*
X2297475Y2060412D3*
D21*
X2197475D3*
D20*
X862273Y2365415D3*
D21*
X962273D3*
D20*
X2300987Y1812167D3*
D21*
X2200987D3*
D20*
X2874978Y793614D3*
D21*
Y893614D3*
D20*
X1757457Y2308849D3*
D21*
Y2408849D3*
D20*
X1100052Y1273668D3*
D21*
Y1373668D3*
D23*
X523056Y1902283D3*
Y1802283D3*
Y1702283D3*
Y1602283D3*
Y1502283D3*
Y1402283D3*
Y1302283D3*
X623056D3*
Y1402283D3*
Y1502283D3*
Y1602283D3*
Y1702283D3*
Y1802283D3*
Y1902283D3*
Y2002283D3*
X523056D3*
D24*
X459659Y2886577D3*
D25*
X757135Y3080722D3*
X724652Y2994668D3*
X627278Y2702000D3*
D24*
X895293Y2736890D3*
D26*
X519448Y2383307D3*
D27*
Y2462047D3*
D29*
X4218808Y868297D3*
X4018808D3*
Y1068297D3*
X4218808D3*
X4118808Y968297D3*
D30*
X2682310Y2993533D3*
X2577241Y2454310D3*
D29*
X4044625Y3047474D3*
Y2847474D3*
D30*
X2667455Y2056429D3*
X2551921Y1803933D3*
X1401549Y3051043D3*
X733730Y2469925D3*
X920992Y1787427D3*
X1312087Y1187178D3*
X3738663Y2363902D3*
X4039437Y2314029D3*
X3788301Y731585D3*
X3401930Y1354836D3*
X3797499Y1255944D3*
X4205280Y1315639D3*
X1171474Y2365042D3*
X2921727Y2639668D3*
D29*
X3844625Y2847474D3*
D30*
X2657429Y1930161D3*
D29*
X3844625Y3047474D3*
D30*
X2598740Y862753D3*
X1144417Y1015831D3*
X870316Y1897088D3*
X1548139Y3056668D3*
X3618470Y659791D3*
X3629470Y2966828D3*
X3884797Y2290298D3*
D29*
X3944625Y2947474D3*
D81*
X2315262Y1273583D3*
D31*
Y1223583D3*
Y1173583D3*
D33*
X3387545Y875293D3*
D34*
Y975293D3*
Y1075293D3*
X3787545D3*
Y875293D3*
M02*
