G04 DipTrace 4.2.0.1*
G04 TopSilk.gbr*
%MOIN*%
G04 #@! TF.FileFunction,Legend,Top*
G04 #@! TF.Part,Single*
%ADD10C,0.009843*%
%ADD13C,0.004724*%
%ADD23C,0.005*%
%ADD68C,0.006176*%
%ADD69C,0.00772*%
%ADD70C,0.009264*%
%FSLAX26Y26*%
G04*
G70*
G90*
G75*
G01*
G04 TopSilk*
%LPD*%
X763700Y908600D2*
D10*
Y508600D1*
X1663700D1*
Y908600D1*
X763700D1*
X1861023Y939566D2*
D23*
X2049999D1*
Y530117D1*
X1861023D1*
Y939566D2*
Y849015D1*
Y530117D2*
Y620669D1*
G36*
X1688188Y939566D2*
X1688235Y940286D1*
X1688376Y940993D1*
X1688608Y941675D1*
X1688927Y942322D1*
X1689327Y942922D1*
X1689803Y943464D1*
X1690345Y943939D1*
X1690944Y944340D1*
X1691591Y944658D1*
X1692273Y944890D1*
X1692981Y945031D1*
X1693700Y945078D1*
X1694419Y945031D1*
X1695127Y944890D1*
X1695809Y944658D1*
X1696456Y944340D1*
X1697055Y943939D1*
X1697597Y943464D1*
X1698073Y942922D1*
X1698473Y942322D1*
X1698792Y941675D1*
X1699024Y940993D1*
X1699165Y940286D1*
X1699212Y939566D1*
D1*
X1699165Y938847D1*
X1699024Y938140D1*
X1698792Y937457D1*
X1698473Y936810D1*
X1698073Y936211D1*
X1697597Y935669D1*
X1697055Y935193D1*
X1696456Y934793D1*
X1695809Y934474D1*
X1695127Y934242D1*
X1694419Y934101D1*
X1693700Y934054D1*
X1692981Y934101D1*
X1692273Y934242D1*
X1691591Y934474D1*
X1690944Y934793D1*
X1690345Y935193D1*
X1689803Y935669D1*
X1689327Y936211D1*
X1688927Y936810D1*
X1688608Y937457D1*
X1688376Y938140D1*
X1688235Y938847D1*
X1688188Y939566D1*
D1*
G37*
X2261810Y946456D2*
D23*
X2190944Y875590D1*
Y540944D1*
X2596456D2*
Y875590D1*
X2525590Y946456D1*
X2445669D1*
X2341731D2*
X2261810D1*
X2445669Y540944D2*
X2596456D1*
X2190944D2*
X2341731D1*
G36*
X2476377Y995669D2*
X2476891Y995635D1*
X2477396Y995534D1*
X2477884Y995369D1*
X2478346Y995141D1*
X2478774Y994855D1*
X2479161Y994515D1*
X2479501Y994128D1*
X2479787Y993700D1*
X2480014Y993238D1*
X2480180Y992750D1*
X2480280Y992245D1*
X2480314Y991731D1*
X2480280Y991218D1*
X2480180Y990713D1*
X2480014Y990225D1*
X2479787Y989763D1*
X2479501Y989335D1*
X2479161Y988948D1*
X2478774Y988608D1*
X2478346Y988322D1*
X2477884Y988094D1*
X2477396Y987929D1*
X2476891Y987828D1*
X2476377Y987794D1*
D1*
X2475863Y987828D1*
X2475358Y987929D1*
X2474871Y988094D1*
X2474409Y988322D1*
X2473980Y988608D1*
X2473593Y988948D1*
X2473254Y989335D1*
X2472968Y989763D1*
X2472740Y990225D1*
X2472574Y990713D1*
X2472474Y991218D1*
X2472440Y991731D1*
X2472474Y992245D1*
X2472574Y992750D1*
X2472740Y993238D1*
X2472968Y993700D1*
X2473254Y994128D1*
X2473593Y994515D1*
X2473980Y994855D1*
X2474409Y995141D1*
X2474871Y995369D1*
X2475358Y995534D1*
X2475863Y995635D1*
X2476377Y995669D1*
D1*
G37*
X581920Y612235D2*
D10*
X605480D1*
X581920Y675165D2*
X605480D1*
X589369Y512235D2*
Y575165D1*
X581920Y512235D2*
Y575165D1*
Y512235D2*
X605480D1*
X581920Y575165D2*
X605480D1*
X2080804Y1150031D2*
X2104363D1*
X2080804Y1212960D2*
X2104363D1*
X981920Y1012235D2*
X1005480D1*
X981920Y1075165D2*
X1005480D1*
X1617025Y1152169D2*
D23*
X1557970Y1211224D1*
X1290254D1*
Y884452D2*
X1557970D1*
X1617025Y943507D1*
Y995869D1*
Y1099806D2*
Y1152169D1*
X1290254Y995869D2*
Y884452D1*
Y1211224D2*
Y1099806D1*
G36*
X1642616Y973035D2*
X1643130Y973001D1*
X1643635Y972900D1*
X1644123Y972735D1*
X1644585Y972507D1*
X1645013Y972221D1*
X1645400Y971882D1*
X1645739Y971494D1*
X1646026Y971066D1*
X1646253Y970604D1*
X1646419Y970117D1*
X1646519Y969612D1*
X1646553Y969098D1*
X1646519Y968584D1*
X1646419Y968079D1*
X1646253Y967591D1*
X1646026Y967129D1*
X1645739Y966701D1*
X1645400Y966314D1*
X1645013Y965974D1*
X1644585Y965688D1*
X1644123Y965460D1*
X1643635Y965295D1*
X1643130Y965194D1*
X1642616Y965161D1*
D1*
X1642102Y965194D1*
X1641597Y965295D1*
X1641109Y965460D1*
X1640648Y965688D1*
X1640219Y965974D1*
X1639832Y966314D1*
X1639493Y966701D1*
X1639206Y967129D1*
X1638979Y967591D1*
X1638813Y968079D1*
X1638713Y968584D1*
X1638679Y969098D1*
X1638713Y969612D1*
X1638813Y970117D1*
X1638979Y970604D1*
X1639206Y971066D1*
X1639493Y971494D1*
X1639832Y971882D1*
X1640219Y972221D1*
X1640647Y972507D1*
X1641109Y972735D1*
X1641597Y972900D1*
X1642102Y973001D1*
X1642616Y973035D1*
D1*
G37*
X1856920Y1012235D2*
D10*
X1880480D1*
X1856920Y1075165D2*
X1880480D1*
X2089369Y1012235D2*
Y1075165D1*
X2081920Y1012235D2*
Y1075165D1*
Y1012235D2*
X2105480D1*
X2081920Y1075165D2*
X2105480D1*
X2974806Y773473D2*
D23*
Y824654D1*
X3096066Y773473D2*
Y824654D1*
X2974806D2*
X3010830D1*
X3096066D2*
X3060043D1*
G36*
X2999413Y712449D2*
X2998899Y712483D1*
X2998394Y712583D1*
X2997906Y712749D1*
X2997444Y712977D1*
X2997016Y713263D1*
X2996629Y713602D1*
X2996289Y713990D1*
X2996003Y714418D1*
X2995775Y714880D1*
X2995610Y715367D1*
X2995509Y715872D1*
X2995476Y716386D1*
X2995509Y716900D1*
X2995610Y717405D1*
X2995775Y717893D1*
X2996003Y718355D1*
X2996289Y718783D1*
X2996629Y719170D1*
X2997016Y719510D1*
X2997444Y719796D1*
X2997906Y720024D1*
X2998394Y720189D1*
X2998899Y720290D1*
X2999413Y720323D1*
D1*
X2999926Y720290D1*
X3000432Y720189D1*
X3000919Y720024D1*
X3001381Y719796D1*
X3001809Y719510D1*
X3002196Y719170D1*
X3002536Y718783D1*
X3002822Y718355D1*
X3003050Y717893D1*
X3003215Y717405D1*
X3003316Y716900D1*
X3003350Y716386D1*
X3003316Y715872D1*
X3003215Y715367D1*
X3003050Y714880D1*
X3002822Y714418D1*
X3002536Y713990D1*
X3002196Y713602D1*
X3001809Y713263D1*
X3001381Y712977D1*
X3000919Y712749D1*
X3000432Y712583D1*
X2999926Y712483D1*
X2999413Y712449D1*
D1*
G37*
X2749708Y558892D2*
D10*
X2773267D1*
X2749708Y621821D2*
X2773267D1*
X3003972Y558892D2*
X3027531D1*
X3003972Y621821D2*
X3027531D1*
X2659671Y1377638D2*
D13*
X2656522D1*
Y1220158D1*
X2659671D1*
X2850222Y1377638D2*
X2853372D1*
Y1220158D1*
X2850222D1*
G36*
X2642348Y1172520D2*
X2642432Y1173805D1*
X2642684Y1175068D1*
X2643098Y1176287D1*
X2643667Y1177441D1*
X2644382Y1178512D1*
X2645231Y1179480D1*
X2646199Y1180329D1*
X2647270Y1181044D1*
X2648424Y1181614D1*
X2649643Y1182027D1*
X2650906Y1182279D1*
X2652191Y1182363D1*
X2653476Y1182279D1*
X2654738Y1182027D1*
X2655957Y1181614D1*
X2657112Y1181044D1*
X2658183Y1180329D1*
X2659151Y1179480D1*
X2659999Y1178512D1*
X2660715Y1177441D1*
X2661284Y1176287D1*
X2661698Y1175068D1*
X2661949Y1173805D1*
X2662033Y1172520D1*
D1*
X2661949Y1171236D1*
X2661698Y1169973D1*
X2661284Y1168754D1*
X2660715Y1167599D1*
X2659999Y1166528D1*
X2659151Y1165560D1*
X2658183Y1164712D1*
X2657112Y1163996D1*
X2655957Y1163427D1*
X2654738Y1163013D1*
X2653476Y1162762D1*
X2652191Y1162678D1*
X2650906Y1162762D1*
X2649643Y1163013D1*
X2648424Y1163427D1*
X2647270Y1163996D1*
X2646199Y1164712D1*
X2645231Y1165560D1*
X2644382Y1166528D1*
X2643667Y1167599D1*
X2643098Y1168754D1*
X2642684Y1169973D1*
X2642432Y1171236D1*
X2642348Y1172520D1*
D1*
G37*
X2448742Y1428857D2*
D23*
X2322758D1*
X2448742Y1506023D2*
X2322758D1*
G36*
X2494018Y1471377D2*
X2494531Y1471343D1*
X2495037Y1471243D1*
X2495524Y1471077D1*
X2495986Y1470850D1*
X2496414Y1470564D1*
X2496801Y1470224D1*
X2497141Y1469837D1*
X2497427Y1469409D1*
X2497655Y1468947D1*
X2497820Y1468459D1*
X2497921Y1467954D1*
X2497955Y1467440D1*
X2497921Y1466926D1*
X2497820Y1466421D1*
X2497655Y1465934D1*
X2497427Y1465472D1*
X2497141Y1465043D1*
X2496801Y1464656D1*
X2496414Y1464317D1*
X2495986Y1464031D1*
X2495524Y1463803D1*
X2495037Y1463637D1*
X2494531Y1463537D1*
X2494018Y1463503D1*
D1*
X2493504Y1463537D1*
X2492999Y1463637D1*
X2492511Y1463803D1*
X2492049Y1464031D1*
X2491621Y1464317D1*
X2491234Y1464656D1*
X2490894Y1465043D1*
X2490608Y1465472D1*
X2490380Y1465934D1*
X2490215Y1466421D1*
X2490114Y1466926D1*
X2490081Y1467440D1*
X2490114Y1467954D1*
X2490215Y1468459D1*
X2490380Y1468947D1*
X2490608Y1469409D1*
X2490894Y1469837D1*
X2491234Y1470224D1*
X2491621Y1470564D1*
X2492049Y1470850D1*
X2492511Y1471077D1*
X2492999Y1471243D1*
X2493504Y1471343D1*
X2494018Y1471377D1*
D1*
G37*
X2466637Y1235906D2*
D23*
Y1361890D1*
X2543802Y1235906D2*
Y1361890D1*
G36*
X2509157Y1190630D2*
X2509123Y1190117D1*
X2509023Y1189611D1*
X2508857Y1189124D1*
X2508629Y1188662D1*
X2508343Y1188234D1*
X2508004Y1187847D1*
X2507616Y1187507D1*
X2507188Y1187221D1*
X2506726Y1186993D1*
X2506239Y1186828D1*
X2505734Y1186727D1*
X2505220Y1186693D1*
X2504706Y1186727D1*
X2504201Y1186828D1*
X2503713Y1186993D1*
X2503251Y1187221D1*
X2502823Y1187507D1*
X2502436Y1187847D1*
X2502096Y1188234D1*
X2501810Y1188662D1*
X2501582Y1189124D1*
X2501417Y1189611D1*
X2501316Y1190117D1*
X2501283Y1190630D1*
D1*
X2501316Y1191144D1*
X2501417Y1191649D1*
X2501582Y1192137D1*
X2501810Y1192599D1*
X2502096Y1193027D1*
X2502436Y1193414D1*
X2502823Y1193754D1*
X2503251Y1194040D1*
X2503713Y1194268D1*
X2504201Y1194433D1*
X2504706Y1194534D1*
X2505220Y1194567D1*
X2505734Y1194534D1*
X2506239Y1194433D1*
X2506726Y1194268D1*
X2507188Y1194040D1*
X2507616Y1193754D1*
X2508004Y1193414D1*
X2508343Y1193027D1*
X2508629Y1192599D1*
X2508857Y1192137D1*
X2509023Y1191649D1*
X2509123Y1191144D1*
X2509157Y1190630D1*
D1*
G37*
X2885455Y1029599D2*
D10*
Y929594D1*
X3185418D1*
Y1029599D1*
X2885455D1*
X2582354Y1074499D2*
Y1174504D1*
X2282390D1*
Y1074499D1*
X2582354D1*
X3323558Y678289D2*
X3423564D1*
Y878313D1*
X3323558D1*
Y678289D1*
X2711940Y1016373D2*
X2735499D1*
X2711940Y1079302D2*
X2735499D1*
X3192095Y1487634D2*
D23*
X3121229Y1416768D1*
Y1082123D1*
X3526741D2*
Y1416768D1*
X3455875Y1487634D1*
X3375953D1*
X3272016D2*
X3192095D1*
X3375953Y1082123D2*
X3526741D1*
X3121229D2*
X3272016D1*
G36*
X3406662Y1536847D2*
X3407176Y1536813D1*
X3407681Y1536713D1*
X3408169Y1536547D1*
X3408630Y1536320D1*
X3409059Y1536033D1*
X3409446Y1535694D1*
X3409785Y1535307D1*
X3410071Y1534878D1*
X3410299Y1534417D1*
X3410465Y1533929D1*
X3410565Y1533424D1*
X3410599Y1532910D1*
X3410565Y1532396D1*
X3410465Y1531891D1*
X3410299Y1531403D1*
X3410071Y1530941D1*
X3409785Y1530513D1*
X3409446Y1530126D1*
X3409059Y1529787D1*
X3408630Y1529500D1*
X3408169Y1529273D1*
X3407681Y1529107D1*
X3407176Y1529007D1*
X3406662Y1528973D1*
D1*
X3406148Y1529007D1*
X3405643Y1529107D1*
X3405155Y1529273D1*
X3404693Y1529500D1*
X3404265Y1529787D1*
X3403878Y1530126D1*
X3403539Y1530513D1*
X3403252Y1530941D1*
X3403025Y1531403D1*
X3402859Y1531891D1*
X3402759Y1532396D1*
X3402725Y1532910D1*
X3402759Y1533424D1*
X3402859Y1533929D1*
X3403025Y1534417D1*
X3403252Y1534878D1*
X3403539Y1535307D1*
X3403878Y1535694D1*
X3404265Y1536033D1*
X3404693Y1536320D1*
X3405155Y1536547D1*
X3405643Y1536713D1*
X3406148Y1536813D1*
X3406662Y1536847D1*
D1*
G37*
X2985847Y1297123D2*
D10*
X3009406D1*
X2985847Y1360052D2*
X3009406D1*
X3080272Y1177165D2*
X3017343D1*
X3080272Y1169716D2*
X3017343D1*
X3080272D2*
Y1193275D1*
X3017343Y1169716D2*
Y1193275D1*
X2338495Y1294567D2*
X2275566D1*
X2338495Y1287119D2*
X2275566D1*
X2338495D2*
Y1310678D1*
X2275566Y1287119D2*
Y1310678D1*
X436869Y1216747D2*
D69*
Y1166507D1*
X420123Y1216747D2*
X453616D1*
X492987Y1166507D2*
Y1216691D1*
X469055Y1183253D1*
X504925D1*
X520365Y1207130D2*
X525173Y1209562D1*
X532358Y1216691D1*
Y1166507D1*
X634700D2*
X615522Y1216747D1*
X596398Y1166507D1*
X603583Y1183253D2*
X627515D1*
X650139Y1216747D2*
Y1166507D1*
X666886D1*
X674071Y1168938D1*
X678879Y1173692D1*
X681256Y1178500D1*
X683633Y1185630D1*
Y1197623D1*
X681256Y1204808D1*
X678879Y1209562D1*
X674071Y1214370D1*
X666886Y1216747D1*
X650139D1*
X699072D2*
Y1166507D1*
X715819D1*
X723004Y1168938D1*
X727812Y1173692D1*
X730189Y1178500D1*
X732565Y1185630D1*
Y1197623D1*
X730189Y1204808D1*
X727812Y1209562D1*
X723004Y1214370D1*
X715819Y1216747D1*
X699072D1*
X810976D2*
X806167Y1214370D1*
X801414Y1209562D1*
X798982Y1204808D1*
X796605Y1197623D1*
Y1185630D1*
X798982Y1178500D1*
X801414Y1173692D1*
X806167Y1168938D1*
X810976Y1166507D1*
X820537D1*
X825290Y1168938D1*
X830099Y1173692D1*
X832475Y1178500D1*
X834852Y1185630D1*
Y1197623D1*
X832475Y1204808D1*
X830099Y1209562D1*
X825290Y1214370D1*
X820537Y1216747D1*
X810976D1*
X883785D2*
Y1166507D1*
X850291Y1216747D1*
Y1166507D1*
X458425Y1075476D2*
X439246Y1125716D1*
X420123Y1075476D1*
X427308Y1092222D2*
X451240D1*
X473864Y1125716D2*
Y1089846D1*
X476240Y1082661D1*
X481049Y1077908D1*
X488234Y1075476D1*
X492987D1*
X500172Y1077908D1*
X504981Y1082661D1*
X507357Y1089846D1*
Y1125716D1*
X522796D2*
Y1075476D1*
X539543D1*
X546728Y1077908D1*
X551537Y1082661D1*
X553913Y1087469D1*
X556290Y1094599D1*
Y1106592D1*
X553913Y1113778D1*
X551537Y1118531D1*
X546728Y1123339D1*
X539543Y1125716D1*
X522796D1*
X571729D2*
Y1075476D1*
X601538Y1125716D2*
X596730Y1123339D1*
X591977Y1118531D1*
X589545Y1113778D1*
X587168Y1106592D1*
Y1094599D1*
X589545Y1087469D1*
X591977Y1082661D1*
X596730Y1077908D1*
X601538Y1075476D1*
X611100D1*
X615853Y1077908D1*
X620662Y1082661D1*
X623038Y1087469D1*
X625415Y1094599D1*
Y1106592D1*
X623038Y1113778D1*
X620662Y1118531D1*
X615853Y1123339D1*
X611100Y1125716D1*
X601538D1*
X420123Y1034685D2*
Y984445D1*
X441678D1*
X448863Y986877D1*
X451240Y989253D1*
X453616Y994007D1*
Y1001192D1*
X451240Y1006000D1*
X448863Y1008377D1*
X441678Y1010753D1*
X448863Y1013185D1*
X451240Y1015562D1*
X453616Y1020315D1*
Y1025123D1*
X451240Y1029876D1*
X448863Y1032308D1*
X441678Y1034685D1*
X420123D1*
Y1010753D2*
X441678D1*
X483425Y1034685D2*
X478617Y1032308D1*
X473864Y1027500D1*
X471432Y1022747D1*
X469055Y1015562D1*
Y1003568D1*
X471432Y996438D1*
X473864Y991630D1*
X478617Y986877D1*
X483425Y984445D1*
X492987D1*
X497740Y986877D1*
X502549Y991630D1*
X504925Y996438D1*
X507302Y1003568D1*
Y1015562D1*
X504925Y1022747D1*
X502549Y1027500D1*
X497740Y1032308D1*
X492987Y1034685D1*
X483425D1*
X561043Y984445D2*
X541864Y1034685D1*
X522741Y984445D1*
X529926Y1001192D2*
X553858D1*
X576482Y1010753D2*
X597982D1*
X605167Y1013185D1*
X607599Y1015562D1*
X609976Y1020315D1*
Y1025123D1*
X607599Y1029876D1*
X605167Y1032308D1*
X597982Y1034685D1*
X576482D1*
Y984445D1*
X593229Y1010753D2*
X609976Y984445D1*
X625415Y1034685D2*
Y984445D1*
X642161D1*
X649346Y986877D1*
X654155Y991630D1*
X656532Y996438D1*
X658908Y1003568D1*
Y1015562D1*
X656532Y1022747D1*
X654155Y1027500D1*
X649346Y1032308D1*
X642161Y1034685D1*
X625415D1*
X2570359Y456159D2*
X2567982Y460912D1*
X2563174Y465720D1*
X2558421Y468097D1*
X2548859D1*
X2544051Y465720D1*
X2539297Y460912D1*
X2536866Y456159D1*
X2534489Y448974D1*
Y436980D1*
X2536866Y429850D1*
X2539297Y425042D1*
X2544051Y420289D1*
X2548859Y417857D1*
X2558421D1*
X2563174Y420289D1*
X2567982Y425042D1*
X2570359Y429850D1*
X2600168Y468097D2*
X2595360Y465720D1*
X2590607Y460912D1*
X2588175Y456159D1*
X2585798Y448974D1*
Y436980D1*
X2588175Y429850D1*
X2590607Y425042D1*
X2595360Y420289D1*
X2600168Y417857D1*
X2609730D1*
X2614483Y420289D1*
X2619291Y425042D1*
X2621668Y429850D1*
X2624045Y436980D1*
Y448974D1*
X2621668Y456159D1*
X2619291Y460912D1*
X2614483Y465720D1*
X2609730Y468097D1*
X2600168D1*
X2639484Y441789D2*
X2661039D1*
X2668169Y444165D1*
X2670601Y446597D1*
X2672977Y451350D1*
Y458535D1*
X2670601Y463289D1*
X2668169Y465720D1*
X2661039Y468097D1*
X2639484D1*
Y417857D1*
X2688416Y468097D2*
X2707540Y444165D1*
Y417857D1*
X2726663Y468097D2*
X2707540Y444165D1*
X2742102D2*
X2763602D1*
X2770787Y446597D1*
X2773219Y448974D1*
X2775596Y453727D1*
Y458535D1*
X2773219Y463289D1*
X2770787Y465720D1*
X2763602Y468097D1*
X2742102D1*
Y417857D1*
X2758849Y444165D2*
X2775596Y417857D1*
X2791035Y468097D2*
Y417857D1*
X2842344Y456159D2*
X2839967Y460912D1*
X2835159Y465720D1*
X2830406Y468097D1*
X2820844D1*
X2816036Y465720D1*
X2811283Y460912D1*
X2808851Y456159D1*
X2806474Y448974D1*
Y436980D1*
X2808851Y429850D1*
X2811283Y425042D1*
X2816036Y420289D1*
X2820844Y417857D1*
X2830406D1*
X2835159Y420289D1*
X2839967Y425042D1*
X2842344Y429850D1*
Y436980D1*
X2830406D1*
X2857783Y468097D2*
Y417857D1*
X2891277Y468097D2*
Y417857D1*
X2857783Y444165D2*
X2891277D1*
X2923462Y468097D2*
Y417857D1*
X2906716Y468097D2*
X2940209D1*
X3006681Y456103D2*
Y458480D1*
X3009058Y463289D1*
X3011434Y465665D1*
X3016243Y468042D1*
X3025804D1*
X3030558Y465665D1*
X3032934Y463289D1*
X3035366Y458480D1*
Y453727D1*
X3032934Y448918D1*
X3028181Y441789D1*
X3004249Y417857D1*
X3037743D1*
X3067552Y468042D2*
X3060367Y465665D1*
X3055559Y458480D1*
X3053182Y446542D1*
Y439357D1*
X3055559Y427419D1*
X3060367Y420234D1*
X3067552Y417857D1*
X3072305D1*
X3079490Y420234D1*
X3084243Y427419D1*
X3086675Y439357D1*
Y446542D1*
X3084243Y458480D1*
X3079490Y465665D1*
X3072305Y468042D1*
X3067552D1*
X3084243Y458480D2*
X3055559Y427419D1*
X3104546Y456103D2*
Y458480D1*
X3106923Y463289D1*
X3109300Y465665D1*
X3114108Y468042D1*
X3123670D1*
X3128423Y465665D1*
X3130799Y463289D1*
X3133231Y458480D1*
Y453727D1*
X3130799Y448918D1*
X3126046Y441789D1*
X3102115Y417857D1*
X3135608D1*
X3153479Y456103D2*
Y458480D1*
X3155856Y463289D1*
X3158232Y465665D1*
X3163041Y468042D1*
X3172602D1*
X3177355Y465665D1*
X3179732Y463289D1*
X3182164Y458480D1*
Y453727D1*
X3179732Y448918D1*
X3174979Y441789D1*
X3151047Y417857D1*
X3184540D1*
X3248581Y468097D2*
Y417857D1*
X3282074Y468097D2*
X3248581Y434604D1*
X3260519Y446597D2*
X3282074Y417857D1*
X3328630Y451350D2*
X3326198Y444165D1*
X3321445Y439357D1*
X3314260Y436980D1*
X3311883D1*
X3304698Y439357D1*
X3299945Y444165D1*
X3297513Y451350D1*
Y453727D1*
X3299945Y460912D1*
X3304698Y465665D1*
X3311883Y468042D1*
X3314260D1*
X3321445Y465665D1*
X3326198Y460912D1*
X3328630Y451350D1*
Y439357D1*
X3326198Y427419D1*
X3321445Y420234D1*
X3314260Y417857D1*
X3309507D1*
X3302322Y420234D1*
X3299945Y425042D1*
X3344069Y468097D2*
Y417857D1*
X3377563Y468097D2*
Y417857D1*
X3344069Y444165D2*
X3377563D1*
X3393002Y468097D2*
X3426495D1*
X3393002Y417857D1*
X3426495D1*
X3445625Y622082D2*
D68*
X3485817D1*
X3445625Y648876D2*
X3485817D1*
X3464771Y622082D2*
Y648876D1*
X3470519Y661228D2*
Y684176D1*
X3466672D1*
X3462825Y682275D1*
X3460924Y680373D1*
X3459023Y676526D1*
Y670778D1*
X3460924Y666976D1*
X3464771Y663129D1*
X3470519Y661228D1*
X3474321D1*
X3480069Y663129D1*
X3483872Y666976D1*
X3485817Y670778D1*
Y676526D1*
X3483872Y680373D1*
X3480069Y684176D1*
X3459023Y719475D2*
X3485817D1*
X3464771D2*
X3460924Y715673D1*
X3459023Y711826D1*
Y706122D1*
X3460924Y702275D1*
X3464771Y698473D1*
X3470519Y696527D1*
X3474321D1*
X3480069Y698473D1*
X3483872Y702275D1*
X3485817Y706122D1*
Y711826D1*
X3483872Y715673D1*
X3480069Y719475D1*
X3445625Y754774D2*
X3485817D1*
X3464771D2*
X3460924Y750972D1*
X3459023Y747125D1*
Y741377D1*
X3460924Y737575D1*
X3464771Y733728D1*
X3470519Y731826D1*
X3474321D1*
X3480069Y733728D1*
X3483872Y737575D1*
X3485817Y741377D1*
Y747125D1*
X3483872Y750972D1*
X3480069Y754774D1*
X3459023Y767126D2*
X3499215D1*
X3464771D2*
X3460968Y770973D1*
X3459023Y774775D1*
Y780523D1*
X3460968Y784370D1*
X3464771Y788172D1*
X3470519Y790118D1*
X3474365D1*
X3480069Y788172D1*
X3483916Y784370D1*
X3485817Y780523D1*
Y774775D1*
X3483916Y770973D1*
X3480069Y767126D1*
X3445625Y802469D2*
X3485817D1*
X3466672D2*
X3460924Y808217D1*
X3459023Y812064D1*
Y817812D1*
X3460924Y821615D1*
X3466672Y823516D1*
X3485817D1*
X3459023Y845418D2*
X3460924Y841615D1*
X3464771Y837769D1*
X3470519Y835867D1*
X3474321D1*
X3480069Y837769D1*
X3483872Y841615D1*
X3485817Y845418D1*
Y851166D1*
X3483872Y855013D1*
X3480069Y858815D1*
X3474321Y860761D1*
X3470519D1*
X3464771Y858815D1*
X3460924Y855013D1*
X3459023Y851166D1*
Y845418D1*
Y873112D2*
X3485817D1*
X3466672D2*
X3460924Y878860D1*
X3459023Y882707D1*
Y888411D1*
X3460924Y892258D1*
X3466672Y894159D1*
X3485817D1*
X3470519Y906510D2*
Y929458D1*
X3466672D1*
X3462825Y927557D1*
X3460924Y925656D1*
X3459023Y921809D1*
Y916061D1*
X3460924Y912258D1*
X3464771Y908411D1*
X3470519Y906510D1*
X3474321D1*
X3480069Y908411D1*
X3483872Y912258D1*
X3485817Y916061D1*
Y921809D1*
X3483872Y925656D1*
X3480069Y929458D1*
X3464771Y962856D2*
X3460924Y960955D1*
X3459023Y955207D1*
Y949459D1*
X3460924Y943711D1*
X3464771Y941809D1*
X3468573Y943711D1*
X3470519Y947558D1*
X3472420Y957108D1*
X3474321Y960955D1*
X3478168Y962856D1*
X3480069D1*
X3483872Y960955D1*
X3485817Y955207D1*
Y949459D1*
X3483872Y943711D1*
X3480069Y941809D1*
X1000917Y744490D2*
D70*
Y684202D1*
X980821Y744490D2*
X1021013D1*
X1039540D2*
Y684202D1*
X1059636D1*
X1068258Y687120D1*
X1074029Y692824D1*
X1076880Y698594D1*
X1079732Y707150D1*
Y721542D1*
X1076880Y730164D1*
X1074029Y735868D1*
X1068258Y741638D1*
X1059636Y744490D1*
X1039540D1*
X1144222Y684202D2*
X1121207Y744490D1*
X1098259Y684202D1*
X1106882Y704298D2*
X1135600D1*
X1174223Y684202D2*
X1202941Y744424D1*
X1162749D1*
X1224386Y730098D2*
Y732950D1*
X1227238Y738720D1*
X1230090Y741572D1*
X1235860Y744424D1*
X1247334D1*
X1253038Y741572D1*
X1255890Y738720D1*
X1258808Y732950D1*
Y727246D1*
X1255890Y721476D1*
X1250186Y712920D1*
X1221468Y684202D1*
X1261660D1*
X1314609Y735868D2*
X1311757Y741572D1*
X1303135Y744424D1*
X1297431D1*
X1288809Y741572D1*
X1283039Y732950D1*
X1280187Y718624D1*
Y704298D1*
X1283039Y692824D1*
X1288809Y687054D1*
X1297431Y684202D1*
X1300283D1*
X1308839Y687054D1*
X1314609Y692824D1*
X1317461Y701446D1*
Y704298D1*
X1314609Y712920D1*
X1308839Y718624D1*
X1300283Y721476D1*
X1297431D1*
X1288809Y718624D1*
X1283039Y712920D1*
X1280187Y704298D1*
X1370410Y735868D2*
X1367558Y741572D1*
X1358936Y744424D1*
X1353232D1*
X1344610Y741572D1*
X1338840Y732950D1*
X1335988Y718624D1*
Y704298D1*
X1338840Y692824D1*
X1344610Y687054D1*
X1353232Y684202D1*
X1356084D1*
X1364640Y687054D1*
X1370410Y692824D1*
X1373262Y701446D1*
Y704298D1*
X1370410Y712920D1*
X1364640Y718624D1*
X1356084Y721476D1*
X1353232D1*
X1344610Y718624D1*
X1338840Y712920D1*
X1335988Y704298D1*
X1437684Y684202D2*
Y744490D1*
X1414737Y684202D1*
X1391789Y744490D1*
Y684202D1*
X1630605Y759212D2*
D68*
X1601910D1*
X1596162Y757311D1*
X1592359Y753464D1*
X1590413Y747716D1*
Y743914D1*
X1592359Y738166D1*
X1596162Y734319D1*
X1601910Y732417D1*
X1630605D1*
X1622912Y720066D2*
X1624857Y716219D1*
X1630561Y710471D1*
X1590413D1*
X2118538Y854203D2*
X2078346D1*
X2118538Y867601D2*
Y840806D1*
Y828455D2*
X2078346D1*
Y815057D1*
X2080292Y809309D1*
X2084094Y805462D1*
X2087941Y803561D1*
X2093645Y801660D1*
X2103240D1*
X2108988Y803561D1*
X2112790Y805462D1*
X2116637Y809309D1*
X2118538Y815057D1*
Y828455D1*
X2078346Y758667D2*
X2118538Y774010D1*
X2078346Y789309D1*
X2091744Y783560D2*
Y764415D1*
X2108944Y744370D2*
X2110845D1*
X2114692Y742469D1*
X2116593Y740568D1*
X2118494Y736721D1*
Y729072D1*
X2116593Y725269D1*
X2114692Y723368D1*
X2110845Y721422D1*
X2107042D1*
X2103195Y723368D1*
X2097492Y727170D1*
X2078346Y746316D1*
Y719521D1*
X2118494Y695674D2*
X2116593Y701422D1*
X2110845Y705268D1*
X2101294Y707170D1*
X2095546D1*
X2085996Y705268D1*
X2080248Y701422D1*
X2078346Y695674D1*
Y691871D1*
X2080248Y686123D1*
X2085996Y682320D1*
X2095546Y680375D1*
X2101294D1*
X2110845Y682320D1*
X2116593Y686123D1*
X2118494Y691871D1*
Y695674D1*
X2110845Y682320D2*
X2085996Y705268D1*
X2118494Y656527D2*
X2116593Y662276D1*
X2110845Y666122D1*
X2101294Y668024D1*
X2095546D1*
X2085996Y666122D1*
X2080248Y662276D1*
X2078346Y656527D1*
Y652725D1*
X2080248Y646977D1*
X2085996Y643174D1*
X2095546Y641229D1*
X2101294D1*
X2110845Y643174D1*
X2116593Y646977D1*
X2118494Y652725D1*
Y656527D1*
X2110845Y643174D2*
X2085996Y666122D1*
X2118494Y625031D2*
Y604028D1*
X2103195Y615480D1*
Y609732D1*
X2101294Y605930D1*
X2099393Y604028D1*
X2093645Y602083D1*
X2089842D1*
X2084094Y604028D1*
X2080248Y607831D1*
X2078346Y613579D1*
Y619327D1*
X2080248Y625031D1*
X2082193Y626932D1*
X2085996Y628877D1*
X2655326Y740325D2*
X2659129Y742226D1*
X2662976Y746073D1*
X2664877Y749876D1*
Y757525D1*
X2662976Y761372D1*
X2659129Y765174D1*
X2655326Y767120D1*
X2649578Y769021D1*
X2639983D1*
X2634280Y767120D1*
X2630433Y765174D1*
X2626630Y761372D1*
X2624685Y757525D1*
Y749876D1*
X2626630Y746073D1*
X2630433Y742226D1*
X2634280Y740325D1*
X2657183Y727974D2*
X2659129Y724127D1*
X2664833Y718379D1*
X2624685D1*
X467653Y619330D2*
Y636529D1*
X465707Y642277D1*
X463806Y644223D1*
X460003Y646124D1*
X456157D1*
X452354Y644223D1*
X450409Y642277D1*
X448507Y636529D1*
Y619330D1*
X488699D1*
X467653Y632727D2*
X488699Y646124D1*
X456201Y658476D2*
X454255Y662322D1*
X448552Y668070D1*
X488699D1*
X458058Y538475D2*
X454255Y536574D1*
X450409Y532727D1*
X448507Y528924D1*
Y521275D1*
X450409Y517428D1*
X454255Y513626D1*
X458058Y511680D1*
X463806Y509779D1*
X473401D1*
X479105Y511680D1*
X482951Y513626D1*
X486754Y517428D1*
X488699Y521275D1*
Y528924D1*
X486754Y532727D1*
X482951Y536574D1*
X479105Y538475D1*
X458102Y552772D2*
X456201D1*
X452354Y554673D1*
X450453Y556574D1*
X448552Y560421D1*
Y568070D1*
X450453Y571873D1*
X452354Y573774D1*
X456201Y575720D1*
X460003D1*
X463850Y573774D1*
X469554Y569972D1*
X488699Y550826D1*
Y577621D1*
X2218630Y1214466D2*
Y1197266D1*
X2220576Y1191518D1*
X2222477Y1189572D1*
X2226280Y1187671D1*
X2230127D1*
X2233929Y1189572D1*
X2235875Y1191518D1*
X2237776Y1197266D1*
Y1214466D1*
X2197584D1*
X2218630Y1201068D2*
X2197584Y1187671D1*
X2228181Y1173374D2*
X2230082D1*
X2233929Y1171473D1*
X2235830Y1169572D1*
X2237732Y1165725D1*
Y1158075D1*
X2235830Y1154273D1*
X2233929Y1152372D1*
X2230082Y1150426D1*
X2226280D1*
X2222433Y1152372D1*
X2216729Y1156174D1*
X2197584Y1175320D1*
Y1148525D1*
X960730Y1118566D2*
X977930D1*
X983678Y1120512D1*
X985623Y1122413D1*
X987524Y1126215D1*
Y1130062D1*
X985623Y1133865D1*
X983678Y1135810D1*
X977930Y1137712D1*
X960730D1*
Y1097520D1*
X974127Y1118566D2*
X987524Y1097520D1*
X1003722Y1137667D2*
X1024725D1*
X1013273Y1122369D1*
X1019021D1*
X1022824Y1120467D1*
X1024725Y1118566D1*
X1026670Y1112818D1*
Y1109016D1*
X1024725Y1103268D1*
X1020922Y1099421D1*
X1015174Y1097520D1*
X1009426D1*
X1003722Y1099421D1*
X1001821Y1101366D1*
X999876Y1105169D1*
X1731014Y1053063D2*
X1734817Y1054964D1*
X1738663Y1058811D1*
X1740565Y1062613D1*
Y1070263D1*
X1738663Y1074109D1*
X1734817Y1077912D1*
X1731014Y1079858D1*
X1725266Y1081759D1*
X1715671D1*
X1709967Y1079858D1*
X1706121Y1077912D1*
X1702318Y1074109D1*
X1700373Y1070263D1*
Y1062613D1*
X1702318Y1058811D1*
X1706121Y1054964D1*
X1709967Y1053063D1*
X1740520Y1036865D2*
Y1015862D1*
X1725222Y1027314D1*
Y1021566D1*
X1723320Y1017764D1*
X1721419Y1015862D1*
X1715671Y1013917D1*
X1711869D1*
X1706121Y1015862D1*
X1702274Y1019665D1*
X1700373Y1025413D1*
Y1031161D1*
X1702274Y1036865D1*
X1704219Y1038766D1*
X1708022Y1040711D1*
X1834779Y1118566D2*
X1851979D1*
X1857727Y1120512D1*
X1859672Y1122413D1*
X1861574Y1126215D1*
Y1130062D1*
X1859672Y1133865D1*
X1857727Y1135810D1*
X1851979Y1137712D1*
X1834779D1*
Y1097520D1*
X1848176Y1118566D2*
X1861574Y1097520D1*
X1893070D2*
Y1137667D1*
X1873925Y1110917D1*
X1902621D1*
X2087524Y1128161D2*
X2085623Y1131964D1*
X2081776Y1135810D1*
X2077974Y1137712D1*
X2070324D1*
X2066478Y1135810D1*
X2062675Y1131964D1*
X2060730Y1128161D1*
X2058828Y1122413D1*
Y1112818D1*
X2060730Y1107114D1*
X2062675Y1103268D1*
X2066478Y1099465D1*
X2070324Y1097520D1*
X2077974D1*
X2081776Y1099465D1*
X2085623Y1103268D1*
X2087524Y1107114D1*
X2119021Y1097520D2*
Y1137667D1*
X2099876Y1110917D1*
X2128572D1*
X2909929Y759499D2*
X2938625D1*
X2944373Y761400D1*
X2948175Y765247D1*
X2950121Y770995D1*
Y774797D1*
X2948175Y780545D1*
X2944373Y784392D1*
X2938625Y786293D1*
X2909929D1*
X2919523Y800590D2*
X2917622D1*
X2913775Y802491D1*
X2911874Y804393D1*
X2909973Y808240D1*
Y815889D1*
X2911874Y819691D1*
X2913775Y821593D1*
X2917622Y823538D1*
X2921425D1*
X2925271Y821593D1*
X2930975Y817790D1*
X2950121Y798645D1*
Y825439D1*
X3115932Y612929D2*
X3156124D1*
Y626327D1*
X3154179Y632075D1*
X3150376Y635921D1*
X3146530Y637823D1*
X3140826Y639724D1*
X3131231D1*
X3125483Y637823D1*
X3121680Y635921D1*
X3117834Y632075D1*
X3115932Y626327D1*
Y612929D1*
X3156124Y682673D2*
X3115932D1*
X3156124Y667374D1*
X3115932Y652075D1*
X3156124D1*
X3125483Y723720D2*
X3121680Y721819D1*
X3117834Y717972D1*
X3115932Y714169D1*
Y706520D1*
X3117834Y702673D1*
X3121680Y698871D1*
X3125483Y696925D1*
X3131231Y695024D1*
X3140826D1*
X3146530Y696925D1*
X3150376Y698871D1*
X3154179Y702673D1*
X3156124Y706520D1*
Y714169D1*
X3154179Y717972D1*
X3150376Y721819D1*
X3146530Y723720D1*
X3140826D1*
Y714169D1*
X3125527Y738017D2*
X3123626D1*
X3119779Y739918D1*
X3117878Y741819D1*
X3115977Y745666D1*
Y753315D1*
X3117878Y757118D1*
X3119779Y759019D1*
X3123626Y760965D1*
X3127428D1*
X3131275Y759019D1*
X3136979Y755217D1*
X3156124Y736071D1*
Y762866D1*
X3115977Y779064D2*
Y800066D1*
X3131275Y788615D1*
Y794363D1*
X3133176Y798165D1*
X3135078Y800066D1*
X3140826Y802012D1*
X3144628D1*
X3150376Y800066D1*
X3154223Y796264D1*
X3156124Y790516D1*
Y784768D1*
X3154223Y779064D1*
X3152278Y777163D1*
X3148475Y775217D1*
X3115977Y825859D2*
X3117878Y820111D1*
X3123626Y816265D1*
X3133176Y814363D1*
X3138924D1*
X3148475Y816265D1*
X3154223Y820111D1*
X3156124Y825859D1*
Y829662D1*
X3154223Y835410D1*
X3148475Y839213D1*
X3138924Y841158D1*
X3133176D1*
X3123626Y839213D1*
X3117878Y835410D1*
X3115977Y829662D1*
Y825859D1*
X3123626Y839213D2*
X3148475Y816265D1*
X3123626Y853509D2*
X3121680Y857356D1*
X3115977Y863104D1*
X3156124D1*
X3115932Y875456D2*
X3156124D1*
Y898404D1*
X3136050Y910755D2*
Y932863D1*
X3156124Y952863D2*
X3115977Y972009D1*
Y945214D1*
X2728517Y665222D2*
X2745717D1*
X2751465Y667168D1*
X2753410Y669069D1*
X2755312Y672872D1*
Y676718D1*
X2753410Y680521D1*
X2751465Y682466D1*
X2745717Y684368D1*
X2728517D1*
Y644176D1*
X2741914Y665222D2*
X2755312Y644176D1*
X2790611Y684323D2*
X2771510D1*
X2769609Y667124D1*
X2771510Y669025D1*
X2777258Y670970D1*
X2782962D1*
X2788710Y669025D1*
X2792556Y665222D1*
X2794458Y659474D1*
Y655672D1*
X2792556Y649924D1*
X2788710Y646077D1*
X2782962Y644176D1*
X2777258D1*
X2771510Y646077D1*
X2769609Y648022D1*
X2767663Y651825D1*
X2983754Y665222D2*
X3000953D1*
X3006701Y667168D1*
X3008647Y669069D1*
X3010548Y672872D1*
Y676718D1*
X3008647Y680521D1*
X3006701Y682466D1*
X3000953Y684368D1*
X2983754D1*
Y644176D1*
X2997151Y665222D2*
X3010548Y644176D1*
X3045848Y678620D2*
X3043946Y682422D1*
X3038198Y684323D1*
X3034396D1*
X3028648Y682422D1*
X3024801Y676674D1*
X3022900Y667124D1*
Y657573D1*
X3024801Y649924D1*
X3028648Y646077D1*
X3034396Y644176D1*
X3036297D1*
X3042001Y646077D1*
X3045848Y649924D1*
X3047749Y655672D1*
Y657573D1*
X3045848Y663321D1*
X3042001Y667124D1*
X3036297Y669025D1*
X3034396D1*
X3028648Y667124D1*
X3024801Y663321D1*
X3022900Y657573D1*
X2718827Y1141237D2*
Y1112541D1*
X2720728Y1106793D1*
X2724575Y1102990D1*
X2730323Y1101045D1*
X2734125D1*
X2739873Y1102990D1*
X2743720Y1106793D1*
X2745621Y1112541D1*
Y1141237D1*
X2761820Y1141193D2*
X2782822D1*
X2771370Y1125894D1*
X2777118D1*
X2780921Y1123993D1*
X2782822Y1122091D1*
X2784767Y1116343D1*
Y1112541D1*
X2782822Y1106793D1*
X2779019Y1102946D1*
X2773271Y1101045D1*
X2767523D1*
X2761820Y1102946D1*
X2759918Y1104891D1*
X2757973Y1108694D1*
X2611448Y1501571D2*
Y1461379D1*
X2634396D1*
X2677344D2*
Y1501571D1*
X2662046Y1461379D1*
X2646747Y1501571D1*
Y1461379D1*
X2693542Y1501527D2*
X2714545D1*
X2703093Y1486228D1*
X2708841D1*
X2712643Y1484327D1*
X2714545Y1482426D1*
X2716490Y1476678D1*
Y1472875D1*
X2714545Y1467127D1*
X2710742Y1463280D1*
X2704994Y1461379D1*
X2699246D1*
X2693542Y1463280D1*
X2691641Y1465226D1*
X2689696Y1469028D1*
X2738392Y1501527D2*
X2732688Y1499626D1*
X2730743Y1495823D1*
Y1491976D1*
X2732688Y1488174D1*
X2736491Y1486228D1*
X2744140Y1484327D1*
X2749888Y1482426D1*
X2753691Y1478579D1*
X2755592Y1474776D1*
Y1469028D1*
X2753691Y1465226D1*
X2751789Y1463280D1*
X2746041Y1461379D1*
X2738392D1*
X2732688Y1463280D1*
X2730743Y1465226D1*
X2728842Y1469028D1*
Y1474776D1*
X2730743Y1478579D1*
X2734590Y1482426D1*
X2740293Y1484327D1*
X2747943Y1486228D1*
X2751789Y1488174D1*
X2753691Y1491976D1*
Y1495823D1*
X2751789Y1499626D1*
X2746041Y1501527D1*
X2738392D1*
X2790891Y1495823D2*
X2788990Y1499626D1*
X2783242Y1501527D1*
X2779439D1*
X2773691Y1499626D1*
X2769845Y1493878D1*
X2767943Y1484327D1*
Y1474776D1*
X2769845Y1467127D1*
X2773691Y1463280D1*
X2779439Y1461379D1*
X2781341D1*
X2787045Y1463280D1*
X2790891Y1467127D1*
X2792793Y1472875D1*
Y1474776D1*
X2790891Y1480524D1*
X2787045Y1484327D1*
X2781341Y1486228D1*
X2779439D1*
X2773691Y1484327D1*
X2769845Y1480524D1*
X2767943Y1474776D1*
X2835741Y1461379D2*
Y1501571D1*
X2820443Y1461379D1*
X2805144Y1501571D1*
Y1461379D1*
X2848093Y1481453D2*
X2870200D1*
X2882552Y1493878D2*
X2886399Y1495823D1*
X2892147Y1501527D1*
Y1461379D1*
X2398751Y1377074D2*
X2400652Y1373271D1*
X2404499Y1369424D1*
X2408301Y1367523D1*
X2415950D1*
X2419797Y1369424D1*
X2423600Y1373271D1*
X2425545Y1377074D1*
X2427446Y1382822D1*
Y1392417D1*
X2425545Y1398120D1*
X2423600Y1401967D1*
X2419797Y1405770D1*
X2415950Y1407715D1*
X2408301D1*
X2404499Y1405770D1*
X2400652Y1401967D1*
X2398751Y1398120D1*
X2363451Y1367567D2*
X2382552D1*
X2384454Y1384767D1*
X2382552Y1382866D1*
X2376804Y1380920D1*
X2371101D1*
X2365352Y1382866D1*
X2361506Y1386668D1*
X2359604Y1392417D1*
Y1396219D1*
X2361506Y1401967D1*
X2365352Y1405814D1*
X2371101Y1407715D1*
X2376804D1*
X2382552Y1405814D1*
X2384454Y1403868D1*
X2386399Y1400066D1*
X2414853Y1286870D2*
X2411051Y1284969D1*
X2407204Y1281122D1*
X2405303Y1277320D1*
Y1269670D1*
X2407204Y1265824D1*
X2411051Y1262021D1*
X2414853Y1260076D1*
X2420601Y1258174D1*
X2430196D1*
X2435900Y1260076D1*
X2439747Y1262021D1*
X2443549Y1265824D1*
X2445495Y1269670D1*
Y1277320D1*
X2443549Y1281122D1*
X2439747Y1284969D1*
X2435900Y1286870D1*
X2411051Y1322170D2*
X2407248Y1320268D1*
X2405347Y1314520D1*
Y1310718D1*
X2407248Y1304970D1*
X2412996Y1301123D1*
X2422547Y1299222D1*
X2432097D1*
X2439747Y1301123D1*
X2443593Y1304970D1*
X2445495Y1310718D1*
Y1312619D1*
X2443593Y1318323D1*
X2439747Y1322170D1*
X2433999Y1324071D1*
X2432097D1*
X2426349Y1322170D1*
X2422547Y1318323D1*
X2420645Y1312619D1*
Y1310718D1*
X2422547Y1304970D1*
X2426349Y1301123D1*
X2432097Y1299222D1*
X3034036Y1098017D2*
Y1067420D1*
X3032135Y1061672D1*
X3030189Y1059771D1*
X3026387Y1057825D1*
X3022540D1*
X3018737Y1059771D1*
X3016836Y1061672D1*
X3014890Y1067420D1*
Y1071223D1*
X3046387Y1090324D2*
X3050234Y1092269D1*
X3055982Y1097973D1*
Y1057825D1*
X2442372Y1006081D2*
Y1036678D1*
X2444274Y1042426D1*
X2446219Y1044327D1*
X2450022Y1046273D1*
X2453868D1*
X2457671Y1044327D1*
X2459572Y1042426D1*
X2461518Y1036678D1*
Y1032876D1*
X2428075Y1015676D2*
Y1013774D1*
X2426174Y1009928D1*
X2424273Y1008026D1*
X2420426Y1006125D1*
X2412777D1*
X2408974Y1008026D1*
X2407073Y1009928D1*
X2405127Y1013774D1*
Y1017577D1*
X2407073Y1021424D1*
X2410876Y1027127D1*
X2430021Y1046273D1*
X2403226D1*
X3255140Y768301D2*
X3285737D1*
X3291485Y766399D1*
X3293386Y764454D1*
X3295332Y760651D1*
Y756805D1*
X3293386Y753002D1*
X3291485Y751101D1*
X3285737Y749155D1*
X3281935D1*
X3255184Y784499D2*
Y805501D1*
X3270483Y794049D1*
Y799797D1*
X3272384Y803600D1*
X3274285Y805501D1*
X3280033Y807447D1*
X3283836D1*
X3289584Y805501D1*
X3293431Y801699D1*
X3295332Y795951D1*
Y790203D1*
X3293431Y784499D1*
X3291485Y782598D1*
X3287683Y780652D1*
X2690749Y1122704D2*
X2707949D1*
X2713697Y1124649D1*
X2715643Y1126551D1*
X2717544Y1130353D1*
Y1134200D1*
X2715643Y1138003D1*
X2713697Y1139948D1*
X2707949Y1141849D1*
X2690749D1*
Y1101657D1*
X2704147Y1122704D2*
X2717544Y1101657D1*
X2737545D2*
X2756690Y1141805D1*
X2729895D1*
X3329210Y974040D2*
X3331111Y970237D1*
X3334958Y966390D1*
X3338760Y964489D1*
X3346410D1*
X3350256Y966390D1*
X3354059Y970237D1*
X3356005Y974040D1*
X3357906Y979788D1*
Y989382D1*
X3356005Y995086D1*
X3354059Y998933D1*
X3350256Y1002736D1*
X3346410Y1004681D1*
X3338760D1*
X3334958Y1002736D1*
X3331111Y998933D1*
X3329210Y995086D1*
X3309209Y1004681D2*
X3290064Y964533D1*
X3316858D1*
X2964678Y1403453D2*
X2981878D1*
X2987626Y1405399D1*
X2989572Y1407300D1*
X2991473Y1411103D1*
Y1414949D1*
X2989572Y1418752D1*
X2987626Y1420697D1*
X2981878Y1422599D1*
X2964678D1*
Y1382407D1*
X2978076Y1403453D2*
X2991473Y1382407D1*
X3013375Y1422554D2*
X3007671Y1420653D1*
X3005726Y1416851D1*
Y1413004D1*
X3007671Y1409201D1*
X3011474Y1407256D1*
X3019123Y1405355D1*
X3024871Y1403453D1*
X3028673Y1399607D1*
X3030575Y1395804D1*
Y1390056D1*
X3028673Y1386253D1*
X3026772Y1384308D1*
X3021024Y1382407D1*
X3013375D1*
X3007671Y1384308D1*
X3005726Y1386253D1*
X3003824Y1390056D1*
Y1395804D1*
X3005726Y1399607D1*
X3009572Y1403453D1*
X3015276Y1405355D1*
X3022925Y1407256D1*
X3026772Y1409201D1*
X3028673Y1413004D1*
Y1416851D1*
X3026772Y1420653D1*
X3021024Y1422554D1*
X3013375D1*
X2964347Y1176292D2*
X2960544Y1174391D1*
X2956697Y1170544D1*
X2954796Y1166742D1*
Y1159092D1*
X2956697Y1155246D1*
X2960544Y1151443D1*
X2964347Y1149498D1*
X2970095Y1147596D1*
X2979689D1*
X2985393Y1149498D1*
X2989240Y1151443D1*
X2993043Y1155246D1*
X2994988Y1159092D1*
Y1166742D1*
X2993043Y1170544D1*
X2989240Y1174391D1*
X2985393Y1176292D1*
X2954840Y1198194D2*
X2956742Y1192490D1*
X2960544Y1190545D1*
X2964391D1*
X2968193Y1192490D1*
X2970139Y1196293D1*
X2972040Y1203942D1*
X2973941Y1209690D1*
X2977788Y1213493D1*
X2981591Y1215394D1*
X2987339D1*
X2991141Y1213493D1*
X2993087Y1211592D1*
X2994988Y1205844D1*
Y1198194D1*
X2993087Y1192490D1*
X2991141Y1190545D1*
X2987339Y1188644D1*
X2981591D1*
X2977788Y1190545D1*
X2973941Y1194392D1*
X2972040Y1200096D1*
X2970139Y1207745D1*
X2968193Y1211592D1*
X2964391Y1213493D1*
X2960544D1*
X2956742Y1211592D1*
X2954840Y1205844D1*
Y1198194D1*
X2222570Y1294624D2*
X2218767Y1292722D1*
X2214920Y1288876D1*
X2213019Y1285073D1*
Y1277424D1*
X2214920Y1273577D1*
X2218767Y1269775D1*
X2222570Y1267829D1*
X2228318Y1265928D1*
X2237913D1*
X2243616Y1267829D1*
X2247463Y1269775D1*
X2251266Y1273577D1*
X2253211Y1277424D1*
Y1285073D1*
X2251266Y1288876D1*
X2247463Y1292722D1*
X2243616Y1294624D1*
X2226417Y1331869D2*
X2232165Y1329923D1*
X2236011Y1326120D1*
X2237913Y1320372D1*
Y1318471D1*
X2236011Y1312723D1*
X2232165Y1308921D1*
X2226417Y1306975D1*
X2224515D1*
X2218767Y1308921D1*
X2214965Y1312723D1*
X2213063Y1318471D1*
Y1320372D1*
X2214965Y1326120D1*
X2218767Y1329923D1*
X2226417Y1331869D1*
X2236011D1*
X2245562Y1329923D1*
X2251310Y1326120D1*
X2253211Y1320372D1*
Y1316570D1*
X2251310Y1310822D1*
X2247463Y1308921D1*
M02*
