G04 DipTrace 3.3.1.1*
G04 BottomMask.gbr*
%MOIN*%
G04 #@! TF.FileFunction,Soldermask,Bot*
G04 #@! TF.Part,Single*
%AMOUTLINE1*
4,1,8,
-0.023685,-0.031184,
-0.011499,-0.04337,
0.011499,-0.04337,
0.023685,-0.031184,
0.023685,0.031184,
0.011499,0.04337,
-0.011499,0.04337,
-0.023685,0.031184,
-0.023685,-0.031184,
0*%
%AMOUTLINE4*
4,1,8,
0.031184,-0.023685,
0.04337,-0.011499,
0.04337,0.011499,
0.031184,0.023685,
-0.031184,0.023685,
-0.04337,0.011499,
-0.04337,-0.011499,
-0.031184,-0.023685,
0.031184,-0.023685,
0*%
%ADD29R,0.059055X0.059055*%
%ADD49C,0.15748*%
%ADD50C,0.19685*%
%ADD58C,0.08674*%
%ADD60O,0.08674X0.04737*%
%ADD62C,0.082803*%
%ADD66O,0.04737X0.08674*%
%ADD68C,0.106425*%
%ADD72C,0.12611*%
%ADD78C,0.074929*%
%ADD80C,0.088*%
%ADD82C,0.067055*%
%ADD84R,0.067055X0.067055*%
%ADD86C,0.08674*%
%ADD88C,0.128*%
%ADD103OUTLINE1*%
%ADD106OUTLINE4*%
%FSLAX26Y26*%
G04*
G70*
G90*
G75*
G01*
G04 BotMask*
%LPD*%
D49*
X3896723Y2713566D3*
Y633490D3*
X1352727Y1730448D3*
X2097967Y1731396D3*
D50*
X571165Y565052D3*
X4156257Y565123D3*
X4174606Y4172951D3*
X549282Y4173214D3*
D88*
X689234Y3878016D3*
Y3678016D3*
X489234D3*
Y3878016D3*
X589234Y3778016D3*
D86*
X1049836Y4220201D3*
X949836D3*
X849836D3*
D88*
X4228361Y3176285D3*
Y2976285D3*
X4028361D3*
Y3176285D3*
X4128361Y3076285D3*
D84*
X4225362Y3740047D3*
D82*
Y3818787D3*
D86*
X4233227Y973825D3*
D84*
X3829497Y4207248D3*
D82*
X3908238D3*
D80*
X1467971Y4115406D3*
X1667971D3*
D78*
X1795345Y3811322D3*
X1913455D3*
D72*
X3234341Y2013869D3*
D78*
X1893753Y1480370D3*
D72*
X3234341Y1383948D3*
X4234042Y2197975D3*
X4233283Y1187226D3*
D78*
X2883307Y4254942D3*
X2405189Y3950476D3*
X2883307Y4097462D3*
X2405189Y3792996D3*
X1893753Y1913441D3*
X1539423Y1480370D3*
Y1913441D3*
X1899297Y1697829D3*
X2562669Y3950476D3*
Y3792996D3*
D72*
X4233661Y2799563D3*
D68*
X805335Y1422404D3*
D78*
X2720150Y3950476D3*
Y3792996D3*
X2886622Y3953151D3*
Y3795671D3*
X1006151Y2068614D3*
Y2501685D3*
X651820Y2068614D3*
Y2501685D3*
X1011694Y2286073D3*
D68*
X2517140Y1525354D3*
D78*
X2401874Y4252268D3*
Y4094787D3*
X2559354Y4252268D3*
Y4094787D3*
X2716835Y4252268D3*
Y4094787D3*
D68*
X2871471Y1525354D3*
X2517140Y1879685D3*
X2871471D3*
X1159665Y1422404D3*
X805335Y1776735D3*
X1159665D3*
D103*
X1228544Y3727838D3*
D66*
X1306225Y3728272D3*
X1385307D3*
D103*
X1092486Y3351320D3*
D66*
X1170167Y3351753D3*
X1249250D3*
D103*
X1177059Y2814421D3*
D66*
X1254740Y2814854D3*
X1333823D3*
D103*
X760490Y2878928D3*
D66*
X838171Y2879361D3*
X917253D3*
D62*
X3049164Y3442850D3*
X3149164D3*
X3249164D3*
D106*
X3099802Y3991156D3*
D60*
X3099369Y4068838D3*
Y4147920D3*
D62*
X3836810Y3700038D3*
X3736810D3*
X3636810D3*
D58*
X833259Y3334261D3*
X733259D3*
X633259D3*
X2096996Y2785197D3*
X1996996D3*
X1896996D3*
X2113693Y638765D3*
X2013693D3*
X1913693D3*
X3512546Y2962436D3*
X3412546D3*
X3312546D3*
D29*
X2913690Y2526022D3*
Y2626022D3*
D58*
X3626304Y648332D3*
X3526304D3*
X3426304D3*
D29*
X2846501Y1228274D3*
Y1328274D3*
D62*
X1919201Y3531524D3*
X2019201D3*
X2119201D3*
X3371808Y4147533D3*
Y4047533D3*
Y3947533D3*
M02*
