G04 DipTrace 3.3.1.1*
G04 Top.gbr*
%MOIN*%
G04 #@! TF.FileFunction,Copper,L1,Top*
G04 #@! TF.Part,Single*
%AMOUTLINE0*
4,1,8,
-0.019685,-0.029528,
-0.009843,-0.03937,
0.009843,-0.03937,
0.019685,-0.029528,
0.019685,0.029528,
0.009843,0.03937,
-0.009843,0.03937,
-0.019685,0.029528,
-0.019685,-0.029528,
0*%
%AMOUTLINE3*
4,1,8,
0.029528,-0.019685,
0.03937,-0.009843,
0.03937,0.009843,
0.029528,0.019685,
-0.029528,0.019685,
-0.03937,0.009843,
-0.03937,-0.009843,
-0.029528,-0.019685,
0.029528,-0.019685,
0*%
G04 #@! TA.AperFunction,Conductor*
%ADD13C,0.03937*%
%ADD14C,0.029528*%
%ADD15C,0.07*%
%ADD16C,0.03*%
%ADD17C,0.02*%
%ADD18C,0.022*%
%ADD19C,0.025591*%
G04 #@! TA.AperFunction,CopperBalancing*
%ADD20C,0.04*%
%ADD21C,0.013*%
%ADD23R,0.070866X0.062992*%
%ADD24R,0.062992X0.070866*%
%ADD26R,0.062992X0.124016*%
G04 #@! TA.AperFunction,ComponentPad*
%ADD27C,0.12*%
%ADD28C,0.07874*%
%ADD29R,0.059055X0.059055*%
%ADD30C,0.059055*%
%ADD31C,0.08*%
%ADD33C,0.066929*%
%ADD34R,0.047244X0.062992*%
%ADD35R,0.062992X0.047244*%
G04 #@! TA.AperFunction,ComponentPad*
%ADD36C,0.11811*%
%ADD37R,0.23622X0.098425*%
G04 #@! TA.AperFunction,ComponentPad*
%ADD38C,0.098425*%
%ADD40O,0.03937X0.07874*%
%ADD42R,0.025591X0.041339*%
G04 #@! TA.AperFunction,ComponentPad*
%ADD43C,0.074803*%
%ADD44O,0.07874X0.03937*%
%ADD45C,0.07874*%
G04 #@! TA.AperFunction,ViaPad*
%ADD47C,0.059055*%
G04 #@! TA.AperFunction,ComponentPad*
%ADD102OUTLINE0*%
%ADD105OUTLINE3*%
%FSLAX26Y26*%
G04*
G70*
G90*
G75*
G01*
G04 Top*
%LPD*%
X2517140Y1879685D2*
D13*
X2509205Y1871749D1*
X2420647D1*
X1159665Y1422404D2*
X805335Y1776735D1*
Y1887094D1*
X810361D1*
X2744567Y1879685D2*
X2526219D1*
X2517140D1*
X2716835Y4094787D2*
X2559354D1*
X1159665Y1422404D2*
Y1413148D1*
X1188865D1*
X1148274Y1372558D1*
Y1311770D1*
X2420647Y1871749D2*
Y1730941D1*
X2262987Y1573281D1*
X1305958D1*
X1159665Y1426988D1*
Y1422404D1*
X2871471Y1525354D2*
Y1534433D1*
X2526219Y1879685D1*
X2871471Y1525354D2*
X2887331Y1509495D1*
X3087227D1*
X2559354Y4094787D2*
X2401874D1*
X2716835D2*
X2883307Y4097462D1*
X2720150Y3792996D2*
X2562669D1*
X2405189D1*
X2720150D2*
X2886622D1*
Y3795671D1*
X2552525Y3582123D2*
D14*
Y3633159D1*
X2383970D1*
X2336211Y3585400D1*
Y3527260D1*
X1333819Y2814846D2*
Y2801056D1*
X1369622Y2836860D1*
X1401198D1*
X1479239Y2914900D1*
Y2959493D1*
X1385735Y3217331D2*
Y3229755D1*
X1434024D1*
X1488291Y3284022D1*
Y3316819D1*
X1559677Y3700592D2*
X1452646D1*
X1422007Y3731232D1*
Y3728264D1*
X1385303D1*
X2119201Y3531524D2*
X2029217Y3621508D1*
X1866671D1*
X1699997Y3788181D1*
Y3771633D1*
X1628957Y3700592D1*
X1559677D1*
X2336211Y3527260D2*
X2230253D1*
Y3531524D1*
X2119201D1*
X1488291Y3316819D2*
X1532184Y3360711D1*
X1591259D1*
X1298335Y4219588D2*
Y4150853D1*
X1442455Y4006731D1*
X1562135D1*
X1699997Y3868869D1*
Y3788181D1*
X2716835Y4252268D2*
D13*
X3168458D1*
X3205999Y4214727D1*
Y3567711D1*
X3249164Y3524546D1*
Y3442850D1*
X2716835Y4252268D2*
X2559354D1*
X2156333Y4212270D2*
X2033062D1*
X2013375Y4192584D1*
X1948256D1*
X2559354Y4252268D2*
X2401874D1*
X2716835D2*
X2883307D1*
Y4254942D1*
X2720150Y3950476D2*
X2562669D1*
X2405189D1*
X2720150D2*
X2886622D1*
Y3953151D1*
X2156333Y4212270D2*
X2361877D1*
X2401874Y4252268D1*
X1667971Y4115406D2*
D15*
X1745150Y4192584D1*
X1948256D1*
X1667971Y4115406D2*
D13*
X1661797D1*
X1795345Y3981858D1*
Y3811322D1*
X2096996Y2785197D2*
Y2799644D1*
X2362791Y3065440D1*
X3512546D1*
Y2962436D1*
X2113693Y638765D2*
X2283849Y468609D1*
X3562455D1*
X3600913Y507067D1*
X3626304Y532458D1*
Y648332D1*
X2113693Y638765D2*
X2318870D1*
Y641610D1*
X2096996Y2785197D2*
X2318711D1*
Y2788990D1*
X3707400Y488035D2*
D14*
X3600913D1*
Y507067D1*
X3602601Y3159388D2*
X3577858D1*
D13*
X3518845Y3100375D1*
Y2962436D1*
X3512546D1*
X4225362Y3818787D2*
D16*
X4175394D1*
X4128028Y3771421D1*
Y3737850D1*
X4060869Y3670692D1*
Y3697243D1*
X3602601Y3159388D2*
D13*
Y3225109D1*
X3758919Y3381427D1*
X4058430D1*
Y3575068D2*
X4060869D1*
Y3697243D1*
X1732644Y841255D2*
Y915902D1*
X1752999Y936256D1*
X1796933D1*
Y930512D1*
X1913693Y638765D2*
X1760651Y485723D1*
X1586218D1*
X1540364Y531577D1*
Y586604D1*
X2310411Y1871749D2*
X2214058D1*
X2206568Y1864260D1*
X2171251D1*
X2023357D1*
X1902774Y1743677D1*
Y1701307D1*
X1899297Y1697829D1*
X3211829Y951563D2*
X3002147D1*
Y949896D1*
X1011694Y2286073D2*
X951957D1*
X723885Y2058001D1*
X784555Y1997331D1*
X810361D1*
X3191066Y2178549D2*
X3127664D1*
Y1909798D1*
X3087227Y1619731D2*
Y1733093D1*
X3091282D1*
X1896996Y2785197D2*
Y2992425D1*
X1897937D1*
X3630667Y2749605D2*
Y2753585D1*
X3510415D1*
X1540364Y586604D2*
X1411178D1*
X1146314D1*
Y977421D2*
Y1201534D1*
X1148274D1*
X723885Y2058001D2*
Y2071550D1*
X646461D1*
X651820Y2068614D1*
X1790343Y2140953D2*
Y2136286D1*
X1624054D1*
X1899297Y1697829D2*
X1790343Y1806783D1*
Y1841085D1*
Y2140953D1*
X2156333Y4019357D2*
X2076366D1*
X2013375Y4082348D1*
X1948256D1*
X488432Y3116119D2*
D14*
Y3070895D1*
X542391Y3016936D1*
X729310D1*
X689234Y3678016D2*
Y3577308D1*
X771028Y3495514D1*
X941600D1*
X760490Y2878928D2*
X760335Y2705429D1*
X729310Y3016936D2*
X736908D1*
Y2945168D1*
X760490Y2921586D1*
Y2878928D1*
X2019201Y3531524D2*
Y3452723D1*
X2054900Y3417024D1*
X2018238D1*
Y3298173D1*
X2336211Y3417024D2*
Y3434886D1*
X2278245D1*
Y3421196D1*
X2104892D1*
X2022409D1*
X2018238Y3417024D1*
X2552525Y3389210D2*
X2359756D1*
X2337987Y3410979D1*
Y3417024D1*
X2336211D1*
X1897937Y2992425D2*
D13*
X1890063D1*
Y3075293D1*
X1925597Y3110827D1*
X2037646D1*
X2164378D1*
X2224121Y3170570D1*
X2639172D1*
X2676063Y3207461D1*
X2826892Y3358290D1*
X2857549Y3327634D1*
X3292470D1*
X3350534Y3385698D1*
Y3548848D1*
X3330463D1*
Y3673525D1*
X2826892Y3358290D2*
X2856794D1*
Y3558929D1*
X2925685Y3627820D1*
X3003778D1*
X488432Y3116119D2*
X490827D1*
Y3334261D1*
X497391D1*
Y3678016D1*
X489234D1*
X3024196Y545190D2*
Y655677D1*
X3027549D1*
X3411976Y3175697D2*
Y3165150D1*
X3201693D1*
X3155963D1*
Y3171193D1*
X3050684D1*
X2676063D1*
Y3207461D1*
X2017638Y1864525D2*
X2023357Y1864260D1*
X2188522Y1863241D2*
X2171251Y1864260D1*
X1787974Y1844909D2*
X1790343Y1841085D1*
X1411178Y586454D2*
Y586604D1*
X1772881Y481374D2*
X1760651Y485723D1*
X2037646Y3089450D2*
Y3110827D1*
X3050684Y3144117D2*
Y3171193D1*
X3218541Y3162138D2*
X3201693Y3165150D1*
X2002971Y3390046D2*
D14*
X2041724Y3417024D1*
X2054900D1*
X2106537Y3441007D2*
X2104892Y3421196D1*
X3353428Y3548848D2*
D13*
X3350534D1*
X1570471Y483860D2*
Y485723D1*
X1586218D1*
X2429106Y641610D2*
D14*
X2659677D1*
Y688359D1*
X2428948Y2788990D2*
X2481302D1*
X2533972Y2841660D1*
X632618Y3500999D2*
D13*
X633259D1*
Y3334261D1*
X497391D2*
X633259D1*
X3817636Y488035D2*
D14*
X3934009D1*
Y490051D1*
X3712837Y3159388D2*
X3759384D1*
X3853364Y3253369D1*
Y3264044D1*
X4225362Y3740047D2*
D16*
Y3633806D1*
X4088316Y3496760D1*
X3915803D1*
X3546568Y4184198D2*
X3684021D1*
Y4166919D1*
X3829497Y4207248D2*
D17*
Y4069672D1*
X3831437D1*
X3829497Y4212529D2*
Y4207248D1*
X3684021Y4166919D2*
X3829497D1*
Y4207248D1*
X970064Y3715726D2*
D14*
Y3625168D1*
X941600Y3596703D1*
Y3495514D1*
X851190Y3715722D2*
X846492D1*
Y3596703D1*
X941600D1*
X1118807Y3922202D2*
Y3949339D1*
X1121236Y3951768D1*
Y4063608D1*
D13*
X805388D1*
X728799Y3987018D1*
X689234Y3947453D1*
Y3878016D1*
X734283Y3981534D2*
X728799Y3987018D1*
X2008173Y2992425D2*
D14*
Y2796374D1*
X1996996Y2785197D1*
X1814504Y2602705D1*
X1806293D1*
X1549425Y975961D2*
X1632577D1*
Y1240398D2*
X1796933D1*
Y1245472D1*
X1632577Y1240398D2*
X1563623Y1309352D1*
X1480244D1*
Y1312820D1*
X1707319Y1245472D2*
X1796933D1*
X1480244Y1312820D2*
X1486365D1*
Y1177689D1*
X1649441Y726459D2*
X1925999D1*
X2013693Y638765D1*
X1650600Y586604D2*
X1649441D1*
Y726459D1*
X1447487Y3453525D2*
Y3403913D1*
X1442625Y3399051D1*
Y3374199D1*
X1385244Y3316819D1*
X1378055D1*
X1092453Y3071311D2*
X1202374D1*
Y3076371D1*
X1249245Y3351745D2*
X1249232Y3258954D1*
Y3157104D1*
X1475169D1*
X1249232Y3258954D2*
X1303472D1*
X1361337Y3316819D1*
X1378055D1*
X1202374Y3076371D2*
Y3110245D1*
X1249232Y3157104D1*
X1591526Y3047894D2*
Y3046867D1*
X1475169D1*
X1919201Y3531524D2*
Y3442457D1*
X1908001Y3431257D1*
Y3298173D1*
X1893753Y1913441D2*
X1963190D1*
X2027793Y1978043D1*
X2046479D1*
X598668Y3116119D2*
X726365D1*
Y3118003D1*
X733259Y3334261D2*
Y3310077D1*
X598668Y3175487D1*
Y3116119D1*
X1370008Y1312820D2*
Y1374825D1*
X1293602Y1451231D1*
X1299323D1*
X1006151Y2501685D2*
Y2507446D1*
X1048531Y2465066D1*
X1169873D1*
X838171Y2879365D2*
Y2908392D1*
X902732Y2972954D1*
X989471D1*
X996302D1*
Y3043752D1*
X979357Y3060697D1*
X902982D1*
X842810Y3000525D1*
Y3031167D1*
X839546Y3027903D1*
Y3016936D1*
X982217Y3071311D2*
X979357Y3060697D1*
X3002811Y3825076D2*
Y4008955D1*
X3062682Y4068827D1*
X3099390D1*
X3330463Y3783761D2*
X3344857D1*
X3446510Y3682108D1*
X3478896D1*
X3371810Y3947533D2*
X3354651D1*
X3330463Y3923346D1*
Y3783761D1*
X833259Y3334261D2*
X836601D1*
Y3118003D1*
X1092479Y3351307D2*
X833259D1*
Y3334261D1*
X3025442Y2653113D2*
X2913690D1*
Y2626022D1*
X651820Y2501685D2*
X711315Y2561180D1*
Y2603009D1*
X949836Y4220201D2*
Y4252529D1*
X991423Y4294114D1*
X1159705D1*
X1188098Y4265720D1*
Y4219588D1*
X3412546Y2962436D2*
Y2745714D1*
X3400178D1*
Y2753585D1*
X3306346Y2748516D2*
X3400178D1*
Y2753585D1*
X1266777Y1038635D2*
X1360703D1*
Y1038699D1*
X2856778Y1080387D2*
X2846501D1*
Y1228274D1*
X2965458Y1334285D2*
X2846501D1*
Y1328274D1*
X1308965Y2270009D2*
X1309202D1*
Y2349718D1*
X1349807D1*
X1308965Y2159773D2*
X1471665D1*
Y2154916D1*
X3684021Y4056682D2*
D17*
X3689610D1*
X3703802Y4042491D1*
Y3912617D1*
X3545965Y4112457D2*
D14*
X3552984D1*
X3614255Y4051186D1*
Y4056682D1*
X3684021D1*
X3703802Y3912617D2*
D18*
X3834667D1*
X3868839Y3946789D1*
Y3979121D1*
X3836810Y3700038D2*
D14*
X3834667Y3912617D1*
X3965685Y3951438D2*
D17*
X3960505D1*
Y4061402D1*
X3927685Y4094223D1*
D19*
X3911445D1*
X3906240Y4089017D1*
Y4069672D1*
X2156715Y1978043D2*
D14*
Y1954912D1*
X2797877D1*
X2924388Y2081424D1*
Y2073752D1*
X3021877Y2437493D2*
D13*
X3191066D1*
Y2440558D1*
X3193508Y2548127D2*
D14*
X3191066D1*
Y2440558D1*
X3021877Y2437493D2*
X3025442D1*
Y2535003D1*
X3908238Y4207248D2*
X3915344D1*
X3994961Y4127631D1*
Y4080163D1*
X4070357Y4004766D1*
Y3951438D1*
X4075921D1*
X2913690Y2526022D2*
X2911320D1*
Y2425474D1*
X1231472Y4063608D2*
X1248976D1*
X1394923Y3917661D1*
X1326291Y3825528D1*
X1306220Y3728264D1*
X1394923Y3917661D2*
X1487555D1*
X1551848Y3853369D1*
Y3810828D1*
X1559677D1*
X1306220Y3728264D2*
Y3701117D1*
X1260055Y3654951D1*
X1158160D1*
X1103199Y3709912D1*
Y3711991D1*
X1228544Y3727838D2*
Y3808437D1*
X1229043Y3808937D1*
Y3922202D1*
X1228924Y3559132D2*
X1135927D1*
Y3585332D1*
X1591526Y3158130D2*
X1591259D1*
Y3250475D1*
X1170167Y3351753D2*
Y3434411D1*
X1189281Y3453525D1*
X1337251D1*
X1170167Y3434342D2*
X1108995Y3495514D1*
X1051836D1*
X1337251Y3453525D2*
Y3492007D1*
X1339160Y3493916D1*
Y3559132D1*
X1280109Y2465066D2*
X1450412D1*
Y2455913D1*
X1467917D1*
X1790343D1*
X1455295Y2598541D2*
X1450412D1*
Y2465066D1*
X1467917Y2349718D2*
Y2455913D1*
X1539423Y1913441D2*
X1544604D1*
Y1919244D1*
X1323743D1*
X1181234Y1776735D1*
X1159665D1*
X1790343Y2298433D2*
X1591306D1*
X1549017Y2256144D1*
Y1903846D1*
X1539423Y1913441D1*
X1471665Y2265152D2*
X1518887D1*
X1552168Y2298433D1*
X1591306D1*
X1796933Y1087992D2*
X1574921D1*
X1574283Y1087354D1*
X1540822D1*
X1470940Y1038699D2*
X1494752D1*
X1540822Y1084769D1*
Y1087354D1*
X1254723Y2814820D2*
Y2962176D1*
X1300110D1*
Y3046927D1*
X1312610Y3059427D1*
Y3076371D1*
X1099707Y2972954D2*
X1254723D1*
Y2814820D1*
X1312610Y3076371D2*
Y3026133D1*
X1306446D1*
X1300110Y2962176D2*
X1369003D1*
Y2959493D1*
Y2963576D2*
Y2959493D1*
X1893753Y1480370D2*
X1899864Y1474260D1*
X2003192D1*
X917253Y2879365D2*
Y2756205D1*
X906104D1*
Y2676316D1*
X832797Y2603009D1*
X821551D1*
X917253Y2879365D2*
Y2814413D1*
X1177055D1*
X870571Y2705429D2*
X917253D1*
Y2879365D1*
X1103199Y3822227D2*
X984709D1*
X980974Y3825962D1*
X970064D1*
X964976Y3934490D2*
X970064D1*
Y3825962D1*
X2906987Y760211D2*
X3030621D1*
Y752024D1*
X1539205Y726459D2*
Y857850D1*
X1549425D1*
X1696056Y2602705D2*
X1573406D1*
Y2598541D1*
X2911320Y2315238D2*
X3191066D1*
Y2309552D1*
X2871471Y1879685D2*
X3026766Y2034980D1*
Y2094639D1*
X2911320Y2210085D1*
Y2315238D1*
X3228646Y1764079D2*
Y1826728D1*
X2924428D1*
X2871471Y1879685D1*
X3234341Y2013869D2*
X3228646Y2008173D1*
Y1764079D1*
X3211829Y1082568D2*
X2971098D1*
Y1034920D1*
X2967014Y1039004D1*
Y1080387D1*
X3234341Y1383948D2*
X3228646Y1389643D1*
Y1653843D1*
X3234341Y1383948D2*
Y1420051D1*
X2681071D1*
X2778886Y1322236D1*
Y1005459D1*
X2910290D1*
X2985218Y1080387D1*
X2967014D1*
X2681071Y1420051D2*
X2647957D1*
X2542654Y1525354D1*
X2517140D1*
X3196110Y2748516D2*
X3193508D1*
Y2666238D1*
X1266777Y1148871D2*
Y1177689D1*
X1368255D1*
X3211829Y1213572D2*
X3078854D1*
Y1334285D1*
X3083568D1*
X2984916Y1215542D2*
X3078854Y1213572D1*
X2210260Y1477927D2*
X2210954D1*
X2214621Y1474260D1*
X2113428D1*
X2899895Y944366D2*
Y878322D1*
X2906987D1*
X589234Y3778016D2*
X746944D1*
X794885Y3825958D1*
X851190D1*
X854740D1*
Y3934490D1*
X3137785Y655677D2*
Y657388D1*
X3140857Y660461D1*
Y752024D1*
X3137785Y657388D2*
X3239175Y555999D1*
X3469469D1*
X3526304Y612835D1*
Y648332D1*
X3149164Y3442850D2*
Y3475157D1*
X3114014Y3510307D1*
Y3627820D1*
Y3652007D1*
X3113047Y3652972D1*
Y3825076D1*
X3636810Y3700038D2*
Y3633644D1*
X3770167Y3500287D1*
X3805567D1*
Y3496760D1*
X3371808Y4047533D2*
X3410971D1*
X3478463Y3980041D1*
Y3912617D1*
Y3794991D1*
X3573416Y3700038D1*
X3636810D1*
X3478896Y3792344D2*
X3478463Y3794991D1*
X3593566Y3912617D2*
X3478463D1*
X3736810Y3700038D2*
Y3703371D1*
X3733205Y3706976D1*
Y3637514D1*
X3756364Y3614356D1*
X3931101D1*
X3966332Y3649587D1*
Y3779274D1*
X3999885Y3812827D1*
X4057878D1*
X4060869Y3815818D1*
Y3807479D1*
X4234042Y2197975D2*
D13*
X4261560D1*
Y2799563D1*
X4233661D1*
Y2815375D1*
X4128361Y2920676D1*
Y3076285D1*
D47*
X2744567Y1879685D3*
X4058430Y3381427D3*
Y3575068D3*
X3630667Y2749605D3*
X1146314Y586604D3*
Y977421D3*
X1624054Y2136286D3*
X3024196Y545190D3*
X1632577Y975961D3*
Y1240398D3*
D3*
X734283Y3981534D3*
X3439077Y4258202D3*
X2094000Y2632643D3*
X847470Y3494340D3*
X1573274Y3564285D3*
X1139293Y3177115D3*
X1112432Y2890958D3*
X1734934Y3538844D3*
X2294000Y2632643D3*
X3021877Y2437493D3*
X3537479Y1870814D3*
X4102752Y1841298D3*
X3537479Y1399864D3*
X4103864D3*
X1115605Y1918277D3*
X916522Y795896D3*
X2237831Y2022843D3*
X1057340Y2747341D3*
X1735703Y3403874D3*
X3792831Y3046255D3*
X3411976Y3175697D3*
X2384277Y2022843D3*
X916811Y1824054D3*
X2262636Y1734127D3*
X3641127Y2632041D3*
X776978Y936772D3*
X2774507Y568386D3*
X1741287Y3039783D3*
X2169399Y3024525D3*
X1634029Y2016461D3*
X1928072Y3953450D3*
X2177430Y3874176D3*
X2530723Y2022843D3*
X2770647Y3626542D3*
X2751786Y3460579D3*
X2555648Y3281496D3*
X2677169Y2022843D3*
X1941650Y3191955D3*
X3183618Y3263633D3*
X3335337Y3264883D3*
X4212171Y3343453D3*
X3471178Y3560154D3*
X4076062Y2794676D3*
X3810887Y2027797D3*
X3822951Y1399864D3*
X3537479Y1713829D3*
X4101808Y1607252D3*
X2505121Y568386D3*
X657434Y811752D3*
X640617Y1088381D3*
X1414659Y1989173D3*
X519660Y2066739D3*
Y2531008D3*
X522769Y2890600D3*
X519660Y1911983D3*
X1241903Y2070671D3*
X1994000Y2632643D3*
X2594000D3*
X2754522Y2839719D3*
X1958685Y1998644D3*
X2494000Y2632643D3*
X2347652Y2937870D3*
X2533972Y2841660D3*
X2586391Y2976028D3*
X3092290Y2882136D3*
X2924388Y2073752D3*
X3125089Y2973621D3*
X3021047Y2970119D3*
X2921234Y2769551D3*
X3925785Y2857458D3*
X3622381Y3025276D3*
X3642378Y3437496D3*
X3853364Y3264044D3*
X3909167Y3044126D3*
X2255522Y1385585D3*
X3619438Y2889846D3*
X3359383Y2627664D3*
X2581231Y1646240D3*
X2702761Y1512352D3*
X3296205Y774080D3*
X4254155Y743884D3*
X3934009Y490051D3*
X3733047Y771168D3*
X3514626Y765343D3*
X1272423Y922346D3*
X1372110Y1861413D3*
X513096Y1232287D3*
X1204232Y1652033D3*
X1705465Y1366409D3*
X3537479Y1556846D3*
X985227Y1396045D3*
X2341556Y1529063D3*
X2104853Y1385585D3*
X2176430Y782470D3*
X2314765D3*
X2453098D3*
X2591432D3*
X2729765D3*
X2909201Y568386D3*
X2659677Y688359D3*
X2370428Y568386D3*
X2639814D3*
X3537479Y2027797D3*
X4095627D3*
X3797126Y1874476D3*
X3800054Y1558303D3*
X3329696Y1694014D3*
Y1910980D3*
Y1477050D3*
X2017638Y1864525D3*
X2188522Y1863241D3*
X1486219Y1838173D3*
X1489398Y1650728D3*
X1651702Y1676211D3*
X1797835Y1664563D3*
X1655301Y1848198D3*
X1787974Y1844909D3*
X2406192Y1385585D3*
X952790Y2583718D3*
X2556861Y1385585D3*
X1211285Y2579772D3*
X1573434Y2791029D3*
X822203Y2492804D3*
X665680Y2299146D3*
X519660Y2221496D3*
Y2376252D3*
X975182Y2396684D3*
X1175879Y2264846D3*
X1119331Y2073318D3*
X1425546Y2068026D3*
X1221600Y1951993D3*
X720287Y1293841D3*
X845890Y1177783D3*
X943312Y1050228D3*
X1059495Y935948D3*
X1269127Y702463D3*
X1411178Y586454D3*
X2124010Y478887D3*
X1772881Y481374D3*
X1370676Y480430D3*
X1529188Y2524853D3*
X1064944Y2581967D3*
X1339348Y2571833D3*
X1841686Y3197072D3*
X1839753Y3110071D3*
X2037646Y3089450D3*
X2087155Y3194293D3*
X2267717Y3106924D3*
X2511458Y3166412D3*
X3050684Y3144117D3*
X3218541Y3162138D3*
X2086810Y2898517D3*
X1746126Y2933501D3*
X942009Y3170394D3*
X927493Y3408001D3*
X2002971Y3390046D3*
X2001327Y3444294D3*
X2106537Y3441007D3*
X2127908Y3368675D3*
X2945940Y3241231D3*
X2238050Y3371962D3*
X2329008Y3283816D3*
X2442995Y3284361D3*
X1737073Y3657803D3*
X2672551Y3314449D3*
X632618Y3500999D3*
X2670769Y3527643D3*
X2362270Y3704031D3*
X2490076Y3705747D3*
X522086Y2758959D3*
X2174488Y3712651D3*
X4218896Y3960699D3*
X2007902Y3707320D3*
X2059600Y3841680D3*
X2879757Y3619185D3*
X2860340Y3459617D3*
X2760509Y2723211D3*
X2761913Y2976028D3*
X2906563Y2971433D3*
X2915344Y2879094D3*
X3087735Y2769402D3*
X2350013Y3871846D3*
X2241463Y4028051D3*
X2249407Y4133953D3*
X2058785Y4088944D3*
X3353428Y3548848D3*
X3505530Y3364946D3*
X2641332Y2840369D3*
X2394000Y2632643D3*
X2194000D3*
X3505724Y2629853D3*
X3780906Y2632041D3*
X1147505Y489252D3*
X1012322Y664648D3*
X1405469Y921535D3*
X4012728Y2635459D3*
X4121518Y2643402D3*
X3772333Y2833094D3*
X3383776Y2027797D3*
X3668516D3*
X3953257D3*
X3329696Y1802497D3*
Y1585533D3*
X3401581Y1399864D3*
X3682495D3*
X3963407D3*
X1411140Y705836D3*
X1570471Y483860D3*
X1959463Y480430D3*
X539560Y953626D3*
X519660Y1757227D3*
X1954184Y1385585D3*
X515283Y1587748D3*
X513096Y1417676D3*
X761438Y1589890D3*
X1487165Y1739627D3*
X1707257Y1480029D3*
X921602Y1961765D3*
X1385735Y3217331D3*
X1732644Y841255D3*
X3002147Y949896D3*
X3127664Y1909798D3*
X3091282Y1733093D3*
X1299323Y1451231D3*
X1135927Y3585332D3*
X1540822Y1087354D3*
X2984916Y1215542D3*
X2210260Y1477927D3*
X2899895Y944366D3*
X2912295Y1706302D3*
X4261802Y1065598D3*
X572899Y3956178D2*
D20*
X605592D1*
X1652690Y3637228D2*
X1747965D1*
X570351Y3597360D2*
X608104D1*
X770370D2*
X1051704D1*
X1426261D2*
X1747965D1*
X457388Y3557491D2*
X854520D1*
X1426261D2*
X1747965D1*
X457388Y3517622D2*
X854520D1*
X1534595D2*
X1747965D1*
X457388Y3477753D2*
X854520D1*
X1534595D2*
X1747965D1*
X457388Y3437885D2*
X854520D1*
X1682295D2*
X1747965D1*
X457388Y3398016D2*
X564361D1*
X1682295D2*
X1747965D1*
X457388Y3358147D2*
X541467D1*
X1682295D2*
X1747965D1*
X457388Y3318278D2*
X539709D1*
X1682295D2*
X1747965D1*
X457388Y3278409D2*
X557435D1*
X909062D2*
X1039216D1*
X1682295D2*
X1747965D1*
X457388Y3238541D2*
X563859D1*
X906981D2*
X1178878D1*
X1682546D2*
X1747965D1*
X923703Y3198672D2*
X1178878D1*
X1682546D2*
X1747965D1*
X923703Y3158803D2*
X1115291D1*
X1682546D2*
X1747965D1*
X1682546Y3118934D2*
X1747965D1*
X1682546Y3079066D2*
X1747965D1*
X1682546Y3039197D2*
X1747965D1*
X457388Y2999328D2*
X642230D1*
X1682546D2*
X1747965D1*
X457388Y2959459D2*
X642230D1*
X1566317D2*
X1747965D1*
X457388Y2919591D2*
X686403D1*
X1566317D2*
X1747965D1*
X457388Y2879722D2*
X685219D1*
X1566317D2*
X1747965D1*
X457388Y2839853D2*
X686080D1*
X1502048D2*
X1747965D1*
X457388Y2799984D2*
X713532D1*
X1462181D2*
X1747965D1*
X457388Y2760115D2*
X673234D1*
X1399886D2*
X1747965D1*
X1067473Y3628895D2*
X1016166D1*
Y3632663D1*
X791192Y3632626D1*
X786613Y3623501D1*
X780762Y3614163D1*
X774019Y3605448D1*
X766449Y3597441D1*
X758127Y3590219D1*
X749132Y3583853D1*
X739554Y3578405D1*
X729486Y3573928D1*
X719024Y3570465D1*
X708273Y3568052D1*
X697336Y3566710D1*
X686320Y3566454D1*
X675332Y3567285D1*
X664480Y3569196D1*
X653869Y3572167D1*
X643603Y3576171D1*
X633781Y3581167D1*
X624501Y3587108D1*
X615851Y3593935D1*
X607917Y3601582D1*
X600776Y3609973D1*
X594497Y3619029D1*
X589235Y3628473D1*
X584765Y3620325D1*
X578610Y3611185D1*
X571584Y3602696D1*
X563755Y3594942D1*
X555199Y3587998D1*
X546000Y3581932D1*
X536248Y3576802D1*
X526037Y3572659D1*
X515468Y3569543D1*
X504643Y3567485D1*
X493667Y3566504D1*
X482649Y3566610D1*
X471694Y3567803D1*
X460911Y3570070D1*
X453373Y3572337D1*
X453370Y3203163D1*
X538359Y3203152D1*
X542083Y3210162D1*
X548204Y3218587D1*
X564733Y3235405D1*
X585723Y3256699D1*
X578146Y3261886D1*
X571131Y3267811D1*
X564748Y3274412D1*
X559064Y3281624D1*
X554135Y3289372D1*
X550013Y3297577D1*
X546739Y3306156D1*
X544346Y3315021D1*
X542860Y3324082D1*
X542294Y3333247D1*
X542655Y3342422D1*
X543940Y3351515D1*
X546134Y3360431D1*
X549216Y3369081D1*
X553154Y3377376D1*
X557909Y3385232D1*
X563431Y3392568D1*
X569665Y3399310D1*
X576546Y3405390D1*
X584006Y3410745D1*
X591967Y3415320D1*
X600349Y3419070D1*
X609066Y3421955D1*
X618030Y3423948D1*
X627149Y3425026D1*
X636330Y3425179D1*
X645480Y3424407D1*
X654505Y3422715D1*
X663314Y3420123D1*
X671817Y3416655D1*
X679927Y3412349D1*
X683251Y3410261D1*
X691959Y3415316D1*
X698446Y3418307D1*
X705147Y3420779D1*
X712022Y3422718D1*
X719028Y3424111D1*
X726121Y3424951D1*
X733259Y3425231D1*
X740396Y3424951D1*
X747489Y3424111D1*
X754495Y3422718D1*
X761370Y3420779D1*
X768071Y3418307D1*
X774558Y3415316D1*
X783180Y3410229D1*
X791959Y3415316D1*
X798446Y3418307D1*
X805147Y3420779D1*
X812022Y3422718D1*
X819028Y3424111D1*
X826121Y3424951D1*
X833259Y3425231D1*
X840396Y3424951D1*
X847489Y3424111D1*
X858496Y3421589D1*
X858504Y3582547D1*
X1054826D1*
X1055049Y3591697D1*
X1055798Y3598023D1*
X1057041Y3604271D1*
X1058770Y3610402D1*
X1060974Y3616378D1*
X1063641Y3622163D1*
X1067542Y3628900D1*
X1422256Y3641608D2*
Y3540558D1*
X1530583D1*
Y3443778D1*
X1678292Y3443807D1*
Y3241241D1*
X1678559Y3241226D1*
Y2964798D1*
X1562330D1*
X1562335Y2872460D1*
X1530290D1*
X1519669Y2861478D1*
X1444298Y2786396D1*
X1435873Y2780275D1*
X1426595Y2775547D1*
X1416691Y2772329D1*
X1406405Y2770700D1*
X1401178Y2770496D1*
X1397339Y2762806D1*
X1391494Y2753269D1*
X1384229Y2744763D1*
X1375723Y2737498D1*
X1374724Y2736830D1*
X1751935Y2736835D1*
X1751953Y3642375D1*
X1708277Y3686049D1*
X1672057Y3650128D1*
X1663632Y3644007D1*
X1654353Y3639280D1*
X1649445Y3637471D1*
X1646710Y3627520D1*
Y3617496D1*
X1472644D1*
Y3634254D1*
X1447437Y3634433D1*
X1437152Y3636062D1*
X1427248Y3639280D1*
X1422498Y3641472D1*
X902963Y3205036D2*
X919697D1*
Y3158350D1*
X1119270Y3158344D1*
X1119278Y3163404D1*
X1161657D1*
X1182868Y3184663D1*
X1182869Y3258974D1*
X1181318Y3261661D1*
X1170167Y3260783D1*
X1159016Y3261661D1*
X1148139Y3264272D1*
X1137804Y3268553D1*
X1133588Y3270914D1*
X1129289Y3267954D1*
X1122075Y3264278D1*
X1114374Y3261776D1*
X1106377Y3260509D1*
X1082643Y3260350D1*
X1074571Y3260985D1*
X1066698Y3262875D1*
X1059217Y3265974D1*
X1052314Y3270205D1*
X1046146Y3275475D1*
X1036675Y3284944D1*
X909721Y3284943D1*
X902968Y3275860D1*
X902965Y3205042D1*
X646203Y3029086D2*
X453376D1*
X453370Y2736812D1*
X677203Y2736835D1*
X677239Y2792462D1*
X729265Y2792597D1*
X722815Y2796107D1*
X716930Y2800498D1*
X704318Y2812914D1*
X699508Y2818462D1*
X695535Y2824637D1*
X692478Y2831313D1*
X690400Y2838356D1*
X689343Y2845623D1*
X689205Y2862261D1*
X689313Y2911808D1*
X690311Y2919082D1*
X692330Y2926142D1*
X693715Y2929553D1*
X692983Y2929902D1*
X646214D1*
Y3029079D1*
X589237Y3927560D2*
X593866Y3935978D1*
X600047Y3945100D1*
X607098Y3953569D1*
X614949Y3961300D1*
X623524Y3968220D1*
X632740Y3974261D1*
X642507Y3979363D1*
X652729Y3983477D1*
X663308Y3986563D1*
X674139Y3988590D1*
X685117Y3989540D1*
X696135Y3989402D1*
X707086Y3988179D1*
X717863Y3985881D1*
X728361Y3982532D1*
X738477Y3978164D1*
X748113Y3972819D1*
X757176Y3966551D1*
X765576Y3959419D1*
X771646Y3953262D1*
X771644Y3996053D1*
X453388Y3996047D1*
X453370Y3983716D1*
X463308Y3986563D1*
X474139Y3988590D1*
X485117Y3989540D1*
X496135Y3989402D1*
X507086Y3988179D1*
X517863Y3985881D1*
X528361Y3982532D1*
X538477Y3978164D1*
X548113Y3972819D1*
X557176Y3966551D1*
X565576Y3959419D1*
X573231Y3951493D1*
X580068Y3942852D1*
X586019Y3933578D1*
X589231Y3927557D1*
X1128692Y2740602D2*
X1121249Y2748045D1*
X983603Y2748049D1*
X983617Y2736869D1*
X1132573Y2736835D1*
X1128751Y2740544D1*
X1121234Y2880781D2*
X1126370Y2885918D1*
X988562Y2885921D1*
X990744Y2880777D1*
X1121255D1*
X488432Y3203116D2*
D21*
Y3029122D1*
X689234Y3989580D2*
Y3878016D1*
Y3678016D2*
Y3566452D1*
X489234Y3678016D2*
Y3566452D1*
Y3989580D2*
Y3878016D1*
X689170Y2878928D2*
X760490D1*
X970064Y3715726D2*
Y3632665D1*
X941600Y3582511D2*
Y3495514D1*
X858540D2*
X941600D1*
X633259Y3425195D2*
Y3334261D1*
X542324D2*
X633259D1*
X646250Y3016936D2*
X729310D1*
X851190Y3715722D2*
Y3632661D1*
X3279228Y4231769D2*
D20*
X3339085D1*
X3404536D2*
X3461450D1*
X2039286Y4112163D2*
X2069251D1*
X2243431D2*
X2314592D1*
X1835320Y4072294D2*
X1857212D1*
X2039286D2*
X2069251D1*
X2243431D2*
X2315848D1*
X2039286Y4032425D2*
X2069251D1*
X2243431D2*
X2340034D1*
X1869805Y3992556D2*
X2069251D1*
X2243431D2*
X2327259D1*
X4163020D2*
X4267589D1*
X1870630Y3952688D2*
X2069251D1*
X2243431D2*
X2316171D1*
X4163020D2*
X4267589D1*
X1870630Y3912819D2*
X2069251D1*
X2243431D2*
X2324926D1*
X4163020D2*
X4267589D1*
X1976094Y3872950D2*
X2366193D1*
X1999706Y3833081D2*
X2326146D1*
X2000567Y3793213D2*
X2316135D1*
X1979718Y3753344D2*
X2325931D1*
X1872568Y3713475D2*
X2370966D1*
X2439395D2*
X2528461D1*
X2596890D2*
X2685957D1*
X2754350D2*
X2860713D1*
X2074309Y3673606D2*
X2326577D1*
X2639628D2*
X2916692D1*
X2114822Y3633738D2*
X2286710D1*
X2639628D2*
X2916692D1*
X4151896D2*
X4267589D1*
X2639628Y3593869D2*
X2916692D1*
X3421509D2*
X3579689D1*
X4141346D2*
X4267589D1*
X2427230Y3554000D2*
X2465413D1*
X2639628D2*
X2916692D1*
X3318091D2*
X3618587D1*
X4140772D2*
X4267589D1*
X2427230Y3514131D2*
X2465413D1*
X2639628D2*
X2991870D1*
X3324442D2*
X3658454D1*
X4115976D2*
X4267589D1*
X2427230Y3474262D2*
X2465413D1*
X2639628D2*
X2961907D1*
X3336428D2*
X3698322D1*
X4002905D2*
X4267589D1*
X1989084Y3434394D2*
X2245192D1*
X2427230D2*
X2465413D1*
X2639628D2*
X2956560D1*
X3341774D2*
X3707221D1*
X4123870D2*
X4267589D1*
X1978355Y3394525D2*
X2245192D1*
X2427230D2*
X2465413D1*
X2639628D2*
X2970411D1*
X3327887D2*
X3667210D1*
X4142494D2*
X4267589D1*
X2105349Y3354656D2*
X2245192D1*
X2427230D2*
X2465413D1*
X2639628D2*
X3033208D1*
X3065107D2*
X3133218D1*
X3165116D2*
X3233191D1*
X3265126D2*
X3627343D1*
X4139013D2*
X4267589D1*
X2105349Y3314787D2*
X2465413D1*
X2639628D2*
X3587476D1*
X4108691D2*
X4267589D1*
X2105349Y3274919D2*
X3547608D1*
X3757206D2*
X3972154D1*
X4084577D2*
X4172137D1*
X2105349Y3235050D2*
X3515492D1*
X3799944D2*
X3929488D1*
X1835320Y3195181D2*
X3508853D1*
X3799944D2*
X3914380D1*
X1835320Y3155312D2*
X3468986D1*
X3799944D2*
X3914739D1*
X1835320Y3115444D2*
X2307989D1*
X3799944D2*
X3930815D1*
X2095265Y3075575D2*
X2268122D1*
X3799944D2*
X3973410D1*
X2095265Y3035706D2*
X2228254D1*
X3594148D2*
X3929882D1*
X2095265Y2995837D2*
X2188387D1*
X3601145D2*
X3914488D1*
X2095265Y2955969D2*
X2148520D1*
X2358117D2*
X3217797D1*
X3607281D2*
X3914632D1*
X2318250Y2916100D2*
X3230248D1*
X3594830D2*
X3930385D1*
X1835320Y2876231D2*
X1937808D1*
X2278382D2*
X3279482D1*
X3545597D2*
X3974917D1*
X2516043Y2836362D2*
X3313069D1*
X3597521D2*
X3849035D1*
X3944413D2*
X4107868D1*
X2516043Y2796493D2*
X3109032D1*
X3597521D2*
X3792159D1*
X4001290D2*
X4119064D1*
X2516043Y2756625D2*
X3109032D1*
X3597521D2*
X3769695D1*
X4023753D2*
X4127676D1*
X2516043Y2716756D2*
X2890892D1*
X3597521D2*
X3762411D1*
X4031038D2*
X4156276D1*
X1986536Y2676887D2*
X2828561D1*
X3597521D2*
X3767650D1*
X4025799D2*
X4186275D1*
X457116Y2637018D2*
X624231D1*
X963586D2*
X1376077D1*
X1946669D2*
X2828561D1*
X3280592D2*
X3787243D1*
X4006206D2*
X4186275D1*
X457116Y2597150D2*
X624231D1*
X924795D2*
X1376077D1*
X2767986D2*
X2828561D1*
X4164096D2*
X4186275D1*
X457116Y2557281D2*
X583431D1*
X908647D2*
X937751D1*
X1074540D2*
X1376077D1*
X2785569D2*
X2828561D1*
X457116Y2517412D2*
X564233D1*
X2785569D2*
X2828561D1*
X457116Y2477543D2*
X566242D1*
X737372D2*
X920599D1*
X2785569D2*
X2820272D1*
X457116Y2437675D2*
X591792D1*
X711858D2*
X946112D1*
X2785569D2*
X2820272D1*
X457152Y2397806D2*
X1082759D1*
X2785569D2*
X2820272D1*
X457152Y2357937D2*
X962188D1*
X1061227D2*
X1239358D1*
X2785569D2*
X2820272D1*
X457152Y2318068D2*
X928888D1*
X1094527D2*
X1217935D1*
X2785569D2*
X2820272D1*
X457152Y2278199D2*
X923003D1*
X1100376D2*
X1217935D1*
X2785569D2*
X2820272D1*
X457152Y2238331D2*
X937285D1*
X1086094D2*
X1217935D1*
X2785569D2*
X2820272D1*
X457152Y2198462D2*
X1217935D1*
X2785569D2*
X2841982D1*
X457152Y2158593D2*
X1217935D1*
X2785569D2*
X2864947D1*
X457188Y2118724D2*
X579089D1*
X724561D2*
X933409D1*
X1078882D2*
X1217935D1*
X2785569D2*
X2852854D1*
X457188Y2078856D2*
X563372D1*
X1094599D2*
X1217935D1*
X2784959D2*
X2823968D1*
X4178163D2*
X4267589D1*
X457188Y2038987D2*
X568072D1*
X901398D2*
X922429D1*
X1089898D2*
X1478670D1*
X1619369D2*
X1784618D1*
X2750726D2*
X2784100D1*
X3097116D2*
X3122560D1*
X4132159D2*
X4267589D1*
X457188Y1999118D2*
X598753D1*
X901398D2*
X953110D1*
X1059217D2*
X1478670D1*
X1619369D2*
X1951013D1*
X3086602D2*
X3120658D1*
X3348018D2*
X4267589D1*
X457188Y1959249D2*
X719324D1*
X901398D2*
X1265912D1*
X1619369D2*
X1818062D1*
X3048888D2*
X3134115D1*
X3334562D2*
X4267589D1*
X457188Y1919381D2*
X719324D1*
X901398D2*
X1226009D1*
X1628269D2*
X1804893D1*
X3009020D2*
X3158265D1*
X3299000D2*
X4267589D1*
X457224Y1879512D2*
X719324D1*
X901398D2*
X1186142D1*
X1621415D2*
X1811747D1*
X2027121D2*
X2223302D1*
X3299000D2*
X4267589D1*
X457224Y1839643D2*
X719324D1*
X901398D2*
X1076874D1*
X1427891D2*
X1493131D1*
X1585746D2*
X1847451D1*
X1940066D2*
X2021382D1*
X2174569D2*
X2223302D1*
X3319670D2*
X4267589D1*
X457224Y1799774D2*
X703176D1*
X907463D2*
X1057533D1*
X1467113D2*
X1982986D1*
X2762568D2*
X2806026D1*
X3319670D2*
X4267589D1*
X457224Y1759906D2*
X701920D1*
X926984D2*
X1056277D1*
X1483691D2*
X1837153D1*
X2229149D2*
X2344806D1*
X2495948D2*
X2541200D1*
X2750798D2*
X3137595D1*
X3319670D2*
X4267589D1*
X457224Y1720037D2*
X717961D1*
X966851D2*
X1072317D1*
X1486634D2*
X1813182D1*
X2231805D2*
X2304939D1*
X2495087D2*
X2581068D1*
X2790665D2*
X3137595D1*
X3319670D2*
X4267589D1*
X457224Y1680168D2*
X772397D1*
X1006719D2*
X1126717D1*
X1192599D2*
X1228485D1*
X1476981D2*
X1812070D1*
X2221829D2*
X2265072D1*
X2474669D2*
X2620935D1*
X2830532D2*
X2996212D1*
X3319670D2*
X4267589D1*
X457224Y1640299D2*
X836953D1*
X1046586D2*
X1254573D1*
X2434802D2*
X2660802D1*
X2870400D2*
X2996212D1*
X3319670D2*
X4267589D1*
X457260Y1600430D2*
X876820D1*
X1086453D2*
X1228306D1*
X2394934D2*
X2445856D1*
X2588422D2*
X2700670D1*
X2942742D2*
X2996212D1*
X3319670D2*
X4267589D1*
X457260Y1560562D2*
X916687D1*
X1126321D2*
X1188438D1*
X2355067D2*
X2418692D1*
X2615622D2*
X2740537D1*
X3299000D2*
X4267589D1*
X457260Y1520693D2*
X778928D1*
X831747D2*
X956555D1*
X2315128D2*
X2412448D1*
X2645155D2*
X2766768D1*
X3299000D2*
X4267589D1*
X457260Y1480824D2*
X719181D1*
X891494D2*
X996422D1*
X1628484D2*
X1804677D1*
X2295320D2*
X2422711D1*
X3299000D2*
X4267589D1*
X457260Y1440955D2*
X702243D1*
X908432D2*
X1036289D1*
X1618795D2*
X1814366D1*
X2286456D2*
X2458021D1*
X3333198D2*
X4267589D1*
X457260Y1401087D2*
X702818D1*
X907858D2*
X1057138D1*
X1574263D2*
X1858934D1*
X2240273D2*
X2569082D1*
X3347659D2*
X4267589D1*
X457296Y1361218D2*
X721226D1*
X889449D2*
X1057246D1*
X1609035D2*
X1824306D1*
X4175113D2*
X4267589D1*
X457296Y1321349D2*
X1057246D1*
X4198617D2*
X4267589D1*
X457296Y1281480D2*
X1057246D1*
X457296Y1241612D2*
X1057246D1*
X457296Y1201743D2*
X1057246D1*
X457296Y1161874D2*
X1057246D1*
X457332Y1122005D2*
X1057246D1*
X457332Y1082136D2*
X1175735D1*
X457332Y1042268D2*
X1175735D1*
X457332Y1002399D2*
X1175735D1*
X457332Y962530D2*
X1175735D1*
X2982968D2*
X3038125D1*
X457332Y922661D2*
X1462342D1*
X2785426D2*
X2817724D1*
X2994092D2*
X3038125D1*
X457332Y882793D2*
X1462342D1*
X2785426D2*
X2819877D1*
X2994092D2*
X3038125D1*
X4198689D2*
X4267589D1*
X457368Y842924D2*
X1462342D1*
X2784636D2*
X2819877D1*
X2994092D2*
X3207677D1*
X4198545D2*
X4267589D1*
X457368Y803055D2*
X1452115D1*
X1736531D2*
X1835287D1*
X2746671D2*
X2819877D1*
X4173677D2*
X4267589D1*
X457368Y763186D2*
X1452115D1*
X1987110D2*
X2819877D1*
X3227950D2*
X3879788D1*
X3913661D2*
X4267589D1*
X457368Y723318D2*
X1452115D1*
X2051271D2*
X2076141D1*
X2151245D2*
X2231771D1*
X2516187D2*
X2819877D1*
X3227950D2*
X3370807D1*
X3681813D2*
X3798295D1*
X3995154D2*
X4267589D1*
X679670Y683449D2*
X1452115D1*
X2516187D2*
X2940448D1*
X3227950D2*
X3338403D1*
X3714216D2*
X3772351D1*
X4021098D2*
X4047654D1*
X712181Y643580D2*
X1452115D1*
X1737679D2*
X1818852D1*
X2516187D2*
X2940448D1*
X3249444D2*
X3331442D1*
X3721142D2*
X3762770D1*
X728293Y603711D2*
X1453264D1*
X1737679D2*
X1825741D1*
X2516187D2*
X2940448D1*
X3709587D2*
X3765820D1*
X733102Y563843D2*
X1453264D1*
X1737679D2*
X1858109D1*
X2516187D2*
X3133469D1*
X727647Y523974D2*
X1453264D1*
X1737679D2*
X2123688D1*
X3971398D2*
X3999785D1*
X710782Y484105D2*
X2163555D1*
X3904725D2*
X4016686D1*
X904647Y2580990D2*
Y2515976D1*
X759927D1*
X736394Y2492406D1*
X734534Y2481827D1*
X732721Y2475399D1*
X730410Y2469132D1*
X727613Y2463067D1*
X724350Y2457239D1*
X720639Y2451685D1*
X716504Y2446440D1*
X711970Y2441535D1*
X707065Y2437001D1*
X701820Y2432866D1*
X696266Y2429156D1*
X690439Y2425892D1*
X684373Y2423096D1*
X678107Y2420784D1*
X671678Y2418971D1*
X665127Y2417668D1*
X658494Y2416883D1*
X651820Y2416620D1*
X645146Y2416883D1*
X638513Y2417668D1*
X631962Y2418971D1*
X625534Y2420784D1*
X619267Y2423096D1*
X613202Y2425892D1*
X607374Y2429156D1*
X601821Y2432866D1*
X596575Y2437001D1*
X591670Y2441535D1*
X587137Y2446440D1*
X583002Y2451685D1*
X579291Y2457239D1*
X576027Y2463067D1*
X573231Y2469132D1*
X570919Y2475399D1*
X569106Y2481827D1*
X567803Y2488378D1*
X567018Y2495011D1*
X566756Y2501685D1*
X567018Y2508359D1*
X567803Y2514992D1*
X569106Y2521543D1*
X570919Y2527971D1*
X573231Y2534238D1*
X576027Y2540304D1*
X579291Y2546131D1*
X583002Y2551685D1*
X587137Y2556930D1*
X591670Y2561835D1*
X596575Y2566369D1*
X601821Y2570504D1*
X607374Y2574215D1*
X613202Y2577478D1*
X619267Y2580274D1*
X628221Y2583344D1*
X628219Y2649932D1*
X453082Y2648791D1*
X453377Y670241D1*
X462718Y679857D1*
X469576Y685967D1*
X476777Y691669D1*
X484298Y696942D1*
X492112Y701769D1*
X500194Y706134D1*
X508516Y710021D1*
X517050Y713418D1*
X525767Y716313D1*
X534637Y718696D1*
X543631Y720560D1*
X552718Y721898D1*
X561868Y722705D1*
X571049Y722979D1*
X580230Y722719D1*
X589381Y721925D1*
X598470Y720601D1*
X607467Y718750D1*
X616341Y716380D1*
X625062Y713498D1*
X633600Y710113D1*
X641928Y706238D1*
X650016Y701886D1*
X657838Y697070D1*
X665366Y691808D1*
X672576Y686117D1*
X679443Y680017D1*
X685943Y673528D1*
X692055Y666672D1*
X697758Y659472D1*
X703033Y651952D1*
X707862Y644139D1*
X712229Y636058D1*
X716118Y627738D1*
X719517Y619205D1*
X722415Y610488D1*
X724800Y601619D1*
X726666Y592625D1*
X728006Y583538D1*
X728816Y574389D1*
X729092Y565052D1*
X728825Y555871D1*
X728024Y546721D1*
X726693Y537633D1*
X724836Y528638D1*
X722459Y519766D1*
X719571Y511047D1*
X716180Y502510D1*
X712299Y494186D1*
X707940Y486100D1*
X703119Y478282D1*
X697851Y470758D1*
X692155Y463553D1*
X682777Y453417D1*
X2198230Y453410D1*
X2103249Y548396D1*
X2092456Y550309D1*
X2085582Y552247D1*
X2078880Y554720D1*
X2072393Y557710D1*
X2063772Y562797D1*
X2054992Y557710D1*
X2048506Y554720D1*
X2041804Y552247D1*
X2034929Y550309D1*
X2027924Y548915D1*
X2020830Y548075D1*
X2013693Y547795D1*
X2006555Y548075D1*
X1999462Y548915D1*
X1992456Y550309D1*
X1985582Y552247D1*
X1978880Y554720D1*
X1972393Y557710D1*
X1963772Y562797D1*
X1955716Y558083D1*
X1947369Y554258D1*
X1938678Y551293D1*
X1929732Y549220D1*
X1920624Y548059D1*
X1911444Y547823D1*
X1902288Y548513D1*
X1893247Y550122D1*
X1884416Y552635D1*
X1875882Y556025D1*
X1867733Y560259D1*
X1860053Y565292D1*
X1852920Y571073D1*
X1846405Y577545D1*
X1840576Y584640D1*
X1835492Y592287D1*
X1831205Y600407D1*
X1827759Y608918D1*
X1825187Y617733D1*
X1823518Y626763D1*
X1822768Y635914D1*
X1822943Y645095D1*
X1824044Y654211D1*
X1825262Y660092D1*
X1733695Y660095D1*
X1733696Y499570D1*
X1457268Y499571D1*
Y639426D1*
X1456109D1*
Y813492D1*
X1466336D1*
X1466329Y951658D1*
X1277608Y951666D1*
Y955506D1*
X1179744Y955539D1*
Y1118417D1*
X1061241Y1118438D1*
Y1394866D1*
X1062713D1*
X1060094Y1406634D1*
X1059164Y1414495D1*
X1058854Y1422435D1*
X805335Y1675922D1*
X797425Y1676233D1*
X789564Y1677163D1*
X781800Y1678708D1*
X774182Y1680856D1*
X766755Y1683596D1*
X759567Y1686910D1*
X752660Y1690778D1*
X746078Y1695176D1*
X739862Y1700076D1*
X734049Y1705450D1*
X728676Y1711262D1*
X723776Y1717479D1*
X719378Y1724060D1*
X715510Y1730967D1*
X712196Y1738156D1*
X709456Y1745582D1*
X707308Y1753201D1*
X705763Y1760964D1*
X704833Y1768825D1*
X704522Y1776735D1*
X704833Y1784645D1*
X705763Y1792505D1*
X707308Y1800269D1*
X709456Y1807888D1*
X712196Y1815314D1*
X715510Y1822503D1*
X719378Y1829409D1*
X723312Y1835297D1*
X723328Y2022540D1*
X718519Y2015820D1*
X712440Y2008939D1*
X705655Y2002752D1*
X698243Y1997334D1*
X690289Y1992745D1*
X681888Y1989041D1*
X673136Y1986264D1*
X664136Y1984446D1*
X654992Y1983609D1*
X645812Y1983762D1*
X636701Y1984904D1*
X627767Y1987021D1*
X619113Y1990089D1*
X610839Y1994072D1*
X603044Y1998923D1*
X595816Y2004586D1*
X589242Y2010996D1*
X583396Y2018076D1*
X578347Y2025746D1*
X574155Y2033914D1*
X570867Y2042488D1*
X568523Y2051365D1*
X567149Y2060444D1*
X566762Y2069617D1*
X567365Y2078779D1*
X568953Y2087823D1*
X571506Y2096643D1*
X574995Y2105136D1*
X579379Y2113204D1*
X584607Y2120752D1*
X590618Y2127693D1*
X597342Y2133945D1*
X604701Y2139436D1*
X612609Y2144102D1*
X620974Y2147889D1*
X629698Y2150752D1*
X638680Y2152658D1*
X647815Y2153584D1*
X656996Y2153521D1*
X666118Y2152469D1*
X675073Y2150439D1*
X683756Y2147456D1*
X692068Y2143555D1*
X699911Y2138780D1*
X707194Y2133188D1*
X713831Y2126843D1*
X719746Y2119821D1*
X724869Y2112201D1*
X729142Y2104074D1*
X732513Y2095533D1*
X734944Y2086679D1*
X736189Y2080427D1*
X897394D1*
Y1817790D1*
X901213Y1807888D1*
X903362Y1800269D1*
X904906Y1792505D1*
X905836Y1784645D1*
X906146Y1776704D1*
X1157361Y1525521D1*
X1255552Y1623687D1*
X1264076Y1630964D1*
X1263403Y1635528D1*
X1256940Y1642054D1*
X1250953Y1649019D1*
X1245472Y1656388D1*
X1240522Y1664125D1*
X1236130Y1672191D1*
X1232317Y1680547D1*
X1229102Y1689150D1*
X1225892Y1700726D1*
X1218922Y1695176D1*
X1212340Y1690778D1*
X1205433Y1686910D1*
X1198245Y1683596D1*
X1190818Y1680856D1*
X1183200Y1678708D1*
X1175436Y1677163D1*
X1167575Y1676233D1*
X1159665Y1675922D1*
X1151756Y1676233D1*
X1143895Y1677163D1*
X1136131Y1678708D1*
X1128513Y1680856D1*
X1121086Y1683596D1*
X1113897Y1686910D1*
X1106991Y1690778D1*
X1100409Y1695176D1*
X1094193Y1700076D1*
X1088380Y1705450D1*
X1083007Y1711262D1*
X1078106Y1717479D1*
X1073708Y1724060D1*
X1069841Y1730967D1*
X1066527Y1738156D1*
X1063787Y1745582D1*
X1061638Y1753201D1*
X1060094Y1760964D1*
X1059164Y1768825D1*
X1058853Y1776735D1*
X1059164Y1784645D1*
X1060094Y1792505D1*
X1061638Y1800269D1*
X1063787Y1807888D1*
X1066527Y1815314D1*
X1069841Y1822503D1*
X1073708Y1829409D1*
X1078106Y1835991D1*
X1083007Y1842207D1*
X1088380Y1848020D1*
X1094193Y1853393D1*
X1100409Y1858294D1*
X1106991Y1862692D1*
X1113897Y1866560D1*
X1121086Y1869874D1*
X1128513Y1872613D1*
X1136131Y1874762D1*
X1143895Y1876306D1*
X1151756Y1877237D1*
X1159665Y1877548D1*
X1167575Y1877237D1*
X1175436Y1876306D1*
X1184896Y1874284D1*
X1276816Y1966170D1*
X1284735Y1972934D1*
X1293614Y1978375D1*
X1303235Y1982360D1*
X1313361Y1984791D1*
X1323763Y1985607D1*
X1482674Y1985608D1*
X1482653Y2071820D1*
X1384633D1*
Y2076664D1*
X1221931Y2076677D1*
X1221932Y2353105D1*
X1242924D1*
X1243655Y2360099D1*
X1246086Y2370225D1*
X1247898Y2375133D1*
X1243783Y2378032D1*
X1086777D1*
Y2398738D1*
X1043325Y2398906D1*
X1033039Y2400535D1*
X1023135Y2403753D1*
X1013856Y2408481D1*
X1005417Y2414616D1*
X999477Y2416883D1*
X992844Y2417668D1*
X986293Y2418971D1*
X979865Y2420784D1*
X973598Y2423096D1*
X967532Y2425892D1*
X961705Y2429156D1*
X956151Y2432866D1*
X950906Y2437001D1*
X946001Y2441535D1*
X941467Y2446440D1*
X937332Y2451685D1*
X933621Y2457239D1*
X930358Y2463067D1*
X927562Y2469132D1*
X925250Y2475399D1*
X923437Y2481827D1*
X922134Y2488378D1*
X921349Y2495011D1*
X921086Y2501685D1*
X921349Y2508359D1*
X922134Y2514992D1*
X923437Y2521543D1*
X925250Y2527971D1*
X927562Y2534238D1*
X930358Y2540304D1*
X933621Y2546131D1*
X937332Y2551685D1*
X941467Y2556930D1*
X946001Y2561835D1*
X950906Y2566369D1*
X956151Y2570504D1*
X961705Y2574215D1*
X967532Y2577478D1*
X973598Y2580274D1*
X979865Y2582586D1*
X986293Y2584399D1*
X992844Y2585702D1*
X999477Y2586487D1*
X1006151Y2586750D1*
X1012825Y2586487D1*
X1019458Y2585702D1*
X1026009Y2584399D1*
X1032437Y2582586D1*
X1038704Y2580274D1*
X1044769Y2577478D1*
X1050597Y2574215D1*
X1056151Y2570504D1*
X1061396Y2566369D1*
X1066301Y2561835D1*
X1070835Y2556930D1*
X1074970Y2551685D1*
X1078680Y2546131D1*
X1081944Y2540304D1*
X1085779Y2531423D1*
X1086777Y2534200D1*
Y2552099D1*
X1363205D1*
Y2531465D1*
X1380046Y2531430D1*
X1380073Y2654711D1*
X967866Y2652078D1*
X965234Y2646188D1*
X959793Y2637309D1*
X956553Y2633201D1*
X953667Y2627108D1*
Y2618396D1*
X942005D1*
X904642Y2581002D1*
X1974363Y3385206D2*
X2101334D1*
Y3211140D1*
X1831305D1*
X1831376Y3079458D1*
X2091269D1*
Y2905392D1*
X2074511D1*
X2074537Y2877991D1*
X2312385Y3115846D1*
X2320891Y3123111D1*
X2330429Y3128955D1*
X2340763Y3133236D1*
X2351640Y3135847D1*
X2362791Y3136725D1*
X3457510D1*
X3461174Y3142276D1*
X3468455Y3150796D1*
X3519517Y3201859D1*
X3519505Y3246421D1*
X3534541D1*
X3536742Y3252389D1*
X3541820Y3262355D1*
X3548395Y3271405D1*
X3565186Y3288507D1*
X3712623Y3435632D1*
X3721691Y3442218D1*
X3722471Y3446472D1*
Y3454115D1*
X3586346Y3590544D1*
X3580225Y3598969D1*
X3575498Y3608248D1*
X3572280Y3618152D1*
X3570650Y3628438D1*
X3570447Y3633665D1*
X3568189Y3633881D1*
X3565930Y3627408D1*
Y3599011D1*
X3417477D1*
X3417497Y3590429D1*
X3284101D1*
X3303370Y3570842D1*
X3309945Y3561792D1*
X3315023Y3551826D1*
X3318480Y3541187D1*
X3320229Y3530139D1*
X3320449Y3506173D1*
Y3496162D1*
X3325050Y3489354D1*
X3328465Y3483256D1*
X3331391Y3476910D1*
X3333810Y3470353D1*
X3335706Y3463627D1*
X3337070Y3456773D1*
X3337891Y3449833D1*
X3338166Y3442850D1*
X3337891Y3435867D1*
X3337070Y3428927D1*
X3335706Y3422073D1*
X3333810Y3415347D1*
X3331391Y3408791D1*
X3328465Y3402445D1*
X3325050Y3396347D1*
X3321168Y3390537D1*
X3316841Y3385048D1*
X3312098Y3379917D1*
X3306966Y3375173D1*
X3301478Y3370847D1*
X3295667Y3366964D1*
X3289570Y3363549D1*
X3283223Y3360624D1*
X3276667Y3358205D1*
X3269941Y3356308D1*
X3263087Y3354945D1*
X3256147Y3354123D1*
X3249164Y3353849D1*
X3242181Y3354123D1*
X3235241Y3354945D1*
X3228387Y3356308D1*
X3221661Y3358205D1*
X3215105Y3360624D1*
X3208758Y3363549D1*
X3199233Y3369254D1*
X3189570Y3363549D1*
X3183223Y3360624D1*
X3176667Y3358205D1*
X3169941Y3356308D1*
X3163087Y3354945D1*
X3156147Y3354123D1*
X3149164Y3353849D1*
X3142181Y3354123D1*
X3135241Y3354945D1*
X3128387Y3356308D1*
X3121661Y3358205D1*
X3115105Y3360624D1*
X3108758Y3363549D1*
X3099233Y3369254D1*
X3089570Y3363549D1*
X3083223Y3360624D1*
X3076667Y3358205D1*
X3069941Y3356308D1*
X3063087Y3354945D1*
X3056147Y3354123D1*
X3049164Y3353849D1*
X3042181Y3354123D1*
X3035241Y3354945D1*
X3028387Y3356308D1*
X3021661Y3358205D1*
X3015105Y3360624D1*
X3008758Y3363549D1*
X3002661Y3366964D1*
X2996850Y3370847D1*
X2991362Y3375173D1*
X2986230Y3379917D1*
X2981487Y3385048D1*
X2977160Y3390537D1*
X2973278Y3396347D1*
X2969863Y3402445D1*
X2966937Y3408791D1*
X2964519Y3415347D1*
X2962622Y3422073D1*
X2961258Y3428927D1*
X2960437Y3435867D1*
X2960162Y3442850D1*
X2960437Y3449833D1*
X2961258Y3456773D1*
X2962622Y3463627D1*
X2964519Y3470353D1*
X2966937Y3476910D1*
X2969863Y3483256D1*
X2973278Y3489354D1*
X2977160Y3495164D1*
X2981487Y3500652D1*
X2986230Y3505784D1*
X2991362Y3510528D1*
X2996850Y3514854D1*
X3002661Y3518737D1*
X3008758Y3522151D1*
X3015105Y3525077D1*
X3021661Y3527496D1*
X3028387Y3529393D1*
X3035241Y3530756D1*
X3042181Y3531578D1*
X3047664Y3531793D1*
X3047651Y3540773D1*
X2920682Y3540787D1*
Y3714853D1*
X3046672D1*
X3046683Y3738054D1*
X2949224Y3738043D1*
X2941867Y3730987D1*
X2936622Y3726852D1*
X2931068Y3723141D1*
X2925241Y3719878D1*
X2919175Y3717081D1*
X2912908Y3714769D1*
X2906480Y3712956D1*
X2899929Y3711653D1*
X2893296Y3710868D1*
X2886622Y3710606D1*
X2879948Y3710868D1*
X2873315Y3711653D1*
X2866764Y3712956D1*
X2860336Y3714769D1*
X2854069Y3717081D1*
X2844748Y3721701D1*
X2766589Y3721711D1*
X2758768Y3717203D1*
X2752702Y3714407D1*
X2746436Y3712095D1*
X2740008Y3710282D1*
X2733457Y3708979D1*
X2726824Y3708194D1*
X2720150Y3707931D1*
X2713476Y3708194D1*
X2706843Y3708979D1*
X2700292Y3710282D1*
X2693863Y3712095D1*
X2687597Y3714407D1*
X2681531Y3717203D1*
X2673860Y3721699D1*
X2609088Y3721711D1*
X2601288Y3717203D1*
X2595222Y3714407D1*
X2588956Y3712095D1*
X2582527Y3710282D1*
X2575976Y3708979D1*
X2569343Y3708194D1*
X2562669Y3707931D1*
X2555995Y3708194D1*
X2549362Y3708979D1*
X2542811Y3710282D1*
X2536383Y3712095D1*
X2530116Y3714407D1*
X2524051Y3717203D1*
X2516379Y3721699D1*
X2451608Y3721711D1*
X2443807Y3717203D1*
X2437742Y3714407D1*
X2431475Y3712095D1*
X2425047Y3710282D1*
X2418496Y3708979D1*
X2411863Y3708194D1*
X2405189Y3707931D1*
X2398515Y3708194D1*
X2391882Y3708979D1*
X2385331Y3710282D1*
X2378903Y3712095D1*
X2372636Y3714407D1*
X2366570Y3717203D1*
X2360743Y3720467D1*
X2355189Y3724177D1*
X2349944Y3728312D1*
X2345039Y3732846D1*
X2340505Y3737751D1*
X2336370Y3742996D1*
X2332660Y3748550D1*
X2329396Y3754378D1*
X2326600Y3760443D1*
X2324288Y3766710D1*
X2322475Y3773138D1*
X2321172Y3779689D1*
X2320387Y3786322D1*
X2320124Y3792996D1*
X2320387Y3799670D1*
X2321172Y3806303D1*
X2322475Y3812854D1*
X2324288Y3819282D1*
X2326600Y3825549D1*
X2329396Y3831615D1*
X2332660Y3837442D1*
X2336370Y3842996D1*
X2340505Y3848241D1*
X2345039Y3853146D1*
X2349944Y3857680D1*
X2355189Y3861815D1*
X2360743Y3865526D1*
X2366570Y3868789D1*
X2373003Y3871721D1*
X2366570Y3874683D1*
X2360743Y3877947D1*
X2355189Y3881658D1*
X2349944Y3885793D1*
X2345039Y3890327D1*
X2340505Y3895231D1*
X2336370Y3900477D1*
X2332660Y3906030D1*
X2329396Y3911858D1*
X2326600Y3917924D1*
X2324288Y3924190D1*
X2322475Y3930618D1*
X2321172Y3937169D1*
X2320387Y3943802D1*
X2320124Y3950476D1*
X2320387Y3957150D1*
X2321172Y3963783D1*
X2322475Y3970334D1*
X2324288Y3976763D1*
X2326600Y3983029D1*
X2329396Y3989095D1*
X2332660Y3994922D1*
X2336370Y4000476D1*
X2340505Y4005721D1*
X2345039Y4010626D1*
X2349944Y4015160D1*
X2358595Y4021571D1*
X2351874Y4025969D1*
X2346629Y4030104D1*
X2341724Y4034638D1*
X2337190Y4039542D1*
X2333055Y4044788D1*
X2329345Y4050341D1*
X2326081Y4056169D1*
X2323285Y4062235D1*
X2320973Y4068501D1*
X2319160Y4074929D1*
X2317857Y4081480D1*
X2317072Y4088113D1*
X2316809Y4094787D1*
X2317072Y4101461D1*
X2317857Y4108094D1*
X2319160Y4114645D1*
X2320973Y4121074D1*
X2323285Y4127340D1*
X2326081Y4133406D1*
X2330519Y4140991D1*
X2239404Y4140985D1*
X2239430Y3905749D1*
X2073237D1*
Y4140970D1*
X2062568Y4140985D1*
X2055276Y4134913D1*
X2045738Y4129068D1*
X2035383Y4124782D1*
X2035289Y4097465D1*
Y3999252D1*
X1864473D1*
X1865753Y3993009D1*
X1866630Y3981858D1*
Y3882351D1*
X1874837Y3887115D1*
X1880903Y3889911D1*
X1887169Y3892223D1*
X1893597Y3894036D1*
X1900148Y3895339D1*
X1906781Y3896124D1*
X1913455Y3896386D1*
X1920129Y3896124D1*
X1926762Y3895339D1*
X1933313Y3894036D1*
X1939742Y3892223D1*
X1946008Y3889911D1*
X1952074Y3887115D1*
X1957901Y3883851D1*
X1963455Y3880140D1*
X1968700Y3876005D1*
X1973605Y3871471D1*
X1978139Y3866567D1*
X1982274Y3861321D1*
X1985985Y3855768D1*
X1989248Y3849940D1*
X1992045Y3843874D1*
X1994357Y3837608D1*
X1996170Y3831179D1*
X1997473Y3824629D1*
X1998258Y3817996D1*
X1998520Y3811322D1*
X1998258Y3804647D1*
X1997473Y3798014D1*
X1996170Y3791464D1*
X1994357Y3785035D1*
X1992045Y3778769D1*
X1989248Y3772703D1*
X1985985Y3766875D1*
X1982274Y3761322D1*
X1978139Y3756077D1*
X1973605Y3751172D1*
X1968700Y3746638D1*
X1963455Y3742503D1*
X1957901Y3738792D1*
X1952074Y3735528D1*
X1946008Y3732732D1*
X1939742Y3730420D1*
X1933313Y3728607D1*
X1926762Y3727304D1*
X1920129Y3726519D1*
X1913455Y3726257D1*
X1906781Y3726519D1*
X1900148Y3727304D1*
X1893597Y3728607D1*
X1887169Y3730420D1*
X1880903Y3732732D1*
X1874837Y3735528D1*
X1869009Y3738792D1*
X1863456Y3742503D1*
X1854436Y3750127D1*
X1845345Y3742503D1*
X1841852Y3740169D1*
X1894230Y3687872D1*
X2034423Y3687667D1*
X2044709Y3686038D1*
X2054613Y3682820D1*
X2063892Y3678092D1*
X2072316Y3671971D1*
X2089134Y3655443D1*
X2124176Y3620401D1*
X2133124Y3619429D1*
X2139978Y3618066D1*
X2146704Y3616169D1*
X2153260Y3613750D1*
X2159607Y3610825D1*
X2165704Y3607410D1*
X2171515Y3603527D1*
X2178426Y3597885D1*
X2235460Y3597683D1*
X2245765Y3596048D1*
X2249179Y3600331D1*
Y3610356D1*
X2274692D1*
X2279627Y3620075D1*
X2285748Y3628500D1*
X2302276Y3645318D1*
X2340870Y3683622D1*
X2349295Y3689743D1*
X2358573Y3694471D1*
X2368477Y3697689D1*
X2378763Y3699318D1*
X2402343Y3699523D1*
X2557732Y3699318D1*
X2568017Y3697689D1*
X2573052Y3696268D1*
X2579665Y3695731D1*
X2635621D1*
Y3275602D1*
X2469429D1*
Y3566802D1*
X2423234Y3566795D1*
X2423245Y3333927D1*
X2249179D1*
Y3460921D1*
X2225046Y3461101D1*
X2214761Y3462730D1*
X2209727Y3464151D1*
X2202694Y3465160D1*
X2178472D1*
X2171515Y3459520D1*
X2165704Y3455637D1*
X2159607Y3452223D1*
X2153260Y3449297D1*
X2146704Y3446878D1*
X2139978Y3444981D1*
X2133124Y3443618D1*
X2126184Y3442796D1*
X2119201Y3442522D1*
X2112218Y3442796D1*
X2105278Y3443618D1*
X2098424Y3444981D1*
X2091698Y3446878D1*
X2085141Y3449297D1*
X2078795Y3452223D1*
X2069270Y3457927D1*
X2061664Y3453305D1*
X2053379Y3449346D1*
X2044730Y3446262D1*
X2035809Y3444085D1*
X2026712Y3442840D1*
X2017534Y3442538D1*
X2008375Y3443183D1*
X1999330Y3444768D1*
X1990498Y3447277D1*
X1985559Y3449128D1*
X1985360Y3437250D1*
X1983731Y3426964D1*
X1980513Y3417060D1*
X1975774Y3407765D1*
X1974365Y3403698D1*
Y3385218D1*
X3627698Y4250015D2*
X3748369D1*
X3748370Y4271602D1*
X3249916Y4271615D1*
X3260204Y4261023D1*
X3266779Y4251973D1*
X3271858Y4242007D1*
X3275314Y4231368D1*
X3277064Y4220320D1*
X3277284Y4196354D1*
Y3963071D1*
X3283552Y3970287D1*
X3287163Y3975036D1*
X3289582Y3981592D1*
X3292507Y3987939D1*
X3298212Y3997463D1*
X3292507Y4007127D1*
X3289582Y4013473D1*
X3287163Y4020030D1*
X3285266Y4026756D1*
X3283903Y4033610D1*
X3283081Y4040550D1*
X3282807Y4047533D1*
X3283081Y4054516D1*
X3283903Y4061456D1*
X3285266Y4068310D1*
X3287163Y4075036D1*
X3289582Y4081592D1*
X3292507Y4087939D1*
X3298212Y4097463D1*
X3292507Y4107127D1*
X3289582Y4113473D1*
X3287163Y4120030D1*
X3285266Y4126756D1*
X3283903Y4133610D1*
X3283081Y4140550D1*
X3282807Y4147533D1*
X3283081Y4154516D1*
X3283903Y4161456D1*
X3285266Y4168310D1*
X3287163Y4175036D1*
X3289582Y4181592D1*
X3292507Y4187939D1*
X3295922Y4194036D1*
X3299805Y4199847D1*
X3304131Y4205335D1*
X3308875Y4210466D1*
X3314006Y4215210D1*
X3319495Y4219537D1*
X3325305Y4223419D1*
X3331403Y4226834D1*
X3337749Y4229760D1*
X3344305Y4232178D1*
X3351031Y4234075D1*
X3357885Y4235439D1*
X3364825Y4236260D1*
X3371808Y4236534D1*
X3378791Y4236260D1*
X3385731Y4235439D1*
X3392585Y4234075D1*
X3399311Y4232178D1*
X3405868Y4229760D1*
X3412214Y4226834D1*
X3418312Y4223419D1*
X3424122Y4219537D1*
X3429610Y4215210D1*
X3434742Y4210466D1*
X3439486Y4205335D1*
X3443812Y4199847D1*
X3447695Y4194036D1*
X3451109Y4187939D1*
X3454035Y4181592D1*
X3456454Y4175036D1*
X3458351Y4168310D1*
X3459714Y4161456D1*
X3460536Y4154516D1*
X3460810Y4147533D1*
X3460536Y4140550D1*
X3459714Y4133610D1*
X3458351Y4126756D1*
X3456454Y4120030D1*
X3454035Y4113473D1*
X3451109Y4107127D1*
X3448428Y4102340D1*
X3454071Y4097996D1*
X3464825Y4087532D1*
X3464837Y4193584D1*
X3465447D1*
X3465441Y4265326D1*
X3627696D1*
Y4250018D1*
X1941812Y2905392D2*
X1831317D1*
X1831323Y2848125D1*
X1837458Y2853977D1*
X1844695Y2859629D1*
X1852465Y2864522D1*
X1860689Y2868607D1*
X1869282Y2871843D1*
X1878158Y2874195D1*
X1887226Y2875641D1*
X1896394Y2876165D1*
X1905567Y2875762D1*
X1914654Y2874437D1*
X1923560Y2872202D1*
X1932196Y2869081D1*
X1940473Y2865105D1*
X1941808Y2864361D1*
X1941809Y2905426D1*
X1563340Y1398741D2*
Y1375703D1*
X1568830Y1375511D1*
X1579116Y1373882D1*
X1589020Y1370664D1*
X1598298Y1365936D1*
X1606723Y1359815D1*
X1623541Y1343287D1*
X1627220Y1339607D1*
X1627223Y1346285D1*
X1817086D1*
X1821479Y1353455D1*
X1827176Y1360126D1*
X1833847Y1365823D1*
X1841327Y1370407D1*
X1849432Y1373764D1*
X1857962Y1375812D1*
X1866724Y1376499D1*
X1940939Y1376328D1*
X1949620Y1374951D1*
X1953211Y1374213D1*
X2599952D1*
X2545538Y1428618D1*
X2532911Y1425783D1*
X2525050Y1424853D1*
X2517140Y1424542D1*
X2509231Y1424853D1*
X2501370Y1425783D1*
X2493606Y1427327D1*
X2485988Y1429476D1*
X2478561Y1432216D1*
X2471372Y1435530D1*
X2464466Y1439397D1*
X2457884Y1443795D1*
X2451668Y1448696D1*
X2445855Y1454069D1*
X2440482Y1459882D1*
X2435581Y1466098D1*
X2431184Y1472680D1*
X2427316Y1479586D1*
X2424002Y1486775D1*
X2421262Y1494202D1*
X2419113Y1501820D1*
X2417569Y1509584D1*
X2416639Y1517445D1*
X2416328Y1525354D1*
X2416639Y1533264D1*
X2417569Y1541125D1*
X2419113Y1548889D1*
X2421262Y1556507D1*
X2424002Y1563934D1*
X2427316Y1571122D1*
X2431184Y1578029D1*
X2435581Y1584610D1*
X2440482Y1590827D1*
X2445855Y1596640D1*
X2451668Y1602013D1*
X2457884Y1606913D1*
X2464466Y1611311D1*
X2471372Y1615179D1*
X2478561Y1618493D1*
X2485988Y1621233D1*
X2493606Y1623381D1*
X2501370Y1624926D1*
X2509231Y1625856D1*
X2517140Y1626167D1*
X2525050Y1625856D1*
X2532911Y1624926D1*
X2540675Y1623381D1*
X2548293Y1621233D1*
X2555720Y1618493D1*
X2562908Y1615179D1*
X2569815Y1611311D1*
X2576397Y1606913D1*
X2582613Y1602013D1*
X2588426Y1596640D1*
X2593799Y1590827D1*
X2598700Y1584610D1*
X2603097Y1578029D1*
X2606965Y1571122D1*
X2610279Y1563934D1*
X2613019Y1556507D1*
X2615717Y1546129D1*
X2675516Y1486415D1*
X2778496D1*
X2775593Y1494202D1*
X2773444Y1501820D1*
X2771900Y1509584D1*
X2770969Y1517445D1*
X2770659Y1525354D1*
X2771060Y1534032D1*
X2525839Y1779253D1*
X2517140Y1778872D1*
X2509231Y1779183D1*
X2501370Y1780114D1*
X2491910Y1782136D1*
X2491932Y1730941D1*
X2491054Y1719790D1*
X2488443Y1708913D1*
X2484162Y1698578D1*
X2478318Y1689041D1*
X2471053Y1680535D1*
X2309283Y1519075D1*
X2300233Y1512500D1*
X2290246Y1507414D1*
X2287417Y1502996D1*
X2289146Y1496865D1*
X2290389Y1490618D1*
X2291137Y1484292D1*
X2291387Y1477927D1*
X2291137Y1471561D1*
X2290389Y1465235D1*
X2289146Y1458988D1*
X2287417Y1452857D1*
X2285212Y1446880D1*
X2282545Y1441095D1*
X2279432Y1435537D1*
X2275893Y1430241D1*
X2271950Y1425238D1*
X2267626Y1420561D1*
X2262948Y1416237D1*
X2257945Y1412293D1*
X2252649Y1408754D1*
X2247091Y1405641D1*
X2241306Y1402974D1*
X2235330Y1400770D1*
X2229199Y1399041D1*
X2222951Y1397798D1*
X2216625Y1397049D1*
X2210260Y1396799D1*
X2203895Y1397049D1*
X2196519Y1398007D1*
X2196524Y1387226D1*
X1920096D1*
X1920040Y1399469D1*
X1913611Y1397656D1*
X1907060Y1396353D1*
X1900427Y1395568D1*
X1893753Y1395306D1*
X1887079Y1395568D1*
X1880446Y1396353D1*
X1873895Y1397656D1*
X1867467Y1399469D1*
X1861200Y1401781D1*
X1855135Y1404577D1*
X1849307Y1407841D1*
X1843754Y1411551D1*
X1838508Y1415686D1*
X1833604Y1420220D1*
X1829070Y1425125D1*
X1824935Y1430370D1*
X1821224Y1435924D1*
X1817960Y1441752D1*
X1815164Y1447817D1*
X1812852Y1454084D1*
X1811039Y1460512D1*
X1809736Y1467063D1*
X1808951Y1473696D1*
X1808689Y1480370D1*
X1808951Y1487044D1*
X1809736Y1493677D1*
X1811542Y1502011D1*
X1621701Y1501996D1*
X1623440Y1493677D1*
X1624225Y1487044D1*
X1624487Y1480370D1*
X1624225Y1473696D1*
X1623440Y1467063D1*
X1622137Y1460512D1*
X1620324Y1454084D1*
X1618012Y1447817D1*
X1615216Y1441752D1*
X1611952Y1435924D1*
X1608241Y1430370D1*
X1604106Y1425125D1*
X1599572Y1420220D1*
X1594668Y1415686D1*
X1589422Y1411551D1*
X1583869Y1407841D1*
X1578041Y1404577D1*
X1571975Y1401781D1*
X1563323Y1398796D1*
X2244961Y728643D2*
X2512202D1*
Y554577D1*
X2298728D1*
X2313374Y539896D1*
X3161397Y539894D1*
X3132696Y568625D1*
X2944453Y568644D1*
Y684988D1*
X2823891Y684989D1*
Y916027D1*
X2821009Y925427D1*
X2819766Y931675D1*
X2818974Y939120D1*
X2781430Y939095D1*
X2781272Y847849D1*
X2780045Y840099D1*
X2777621Y832637D1*
X2774059Y825647D1*
X2769447Y819299D1*
X2763899Y813751D1*
X2757551Y809140D1*
X2750561Y805578D1*
X2743099Y803153D1*
X2735349Y801926D1*
X2703867Y801772D1*
X1961531D1*
X1953828Y798602D1*
X1945298Y796554D1*
X1936552Y795866D1*
X1862321Y796038D1*
X1853656Y797411D1*
X1845313Y800122D1*
X1837497Y804104D1*
X1830400Y809261D1*
X1824196Y815464D1*
X1819040Y822561D1*
X1816888Y826407D1*
X1814150Y829699D1*
X1632526D1*
X1632522Y813470D1*
X1732537Y813492D1*
Y792859D1*
X1925999Y792823D1*
X1936380Y792006D1*
X1946506Y789575D1*
X1956127Y785590D1*
X1965006Y780149D1*
X1972925Y773386D1*
X2016644Y729666D1*
X2027924Y728615D1*
X2034929Y727222D1*
X2041804Y725283D1*
X2048506Y722810D1*
X2054992Y719820D1*
X2063614Y714733D1*
X2072393Y719820D1*
X2078880Y722810D1*
X2085582Y725283D1*
X2092456Y727222D1*
X2099462Y728615D1*
X2106555Y729455D1*
X2113693Y729735D1*
X2120830Y729455D1*
X2127924Y728615D1*
X2134929Y727222D1*
X2141804Y725283D1*
X2148506Y722810D1*
X2154992Y719820D1*
X2161225Y716330D1*
X2170078Y710064D1*
X2235807Y710050D1*
X2235774Y728643D1*
X2244961D1*
X2274191Y2876023D2*
X2512044D1*
Y2701956D1*
X2235615D1*
Y2713906D1*
X2153536Y2713912D1*
X2144528Y2707632D1*
X2138296Y2704142D1*
X2131809Y2701151D1*
X2125107Y2698679D1*
X2118233Y2696740D1*
X2111227Y2695347D1*
X2104133Y2694507D1*
X2096996Y2694227D1*
X2089859Y2694507D1*
X2082765Y2695347D1*
X2075760Y2696740D1*
X2068885Y2698679D1*
X2062183Y2701151D1*
X2055697Y2704142D1*
X2047075Y2709229D1*
X2038296Y2704142D1*
X2031809Y2701151D1*
X2025107Y2698679D1*
X2018233Y2696740D1*
X2011227Y2695347D1*
X1999979Y2694344D1*
X1894591Y2588869D1*
X1904028D1*
X1908827Y2594435D1*
X1914793Y2599531D1*
X1921483Y2603630D1*
X1928732Y2606633D1*
X1936361Y2608465D1*
X1944198Y2609080D1*
X2735507Y2608926D1*
X2743256Y2607699D1*
X2750718Y2605274D1*
X2757709Y2601712D1*
X2764056Y2597100D1*
X2769604Y2591553D1*
X2774216Y2585205D1*
X2777778Y2578214D1*
X2780203Y2570752D1*
X2781430Y2563003D1*
X2781584Y2531521D1*
X2781430Y2082716D1*
X2780203Y2074967D1*
X2777778Y2067505D1*
X2774216Y2060514D1*
X2769604Y2054167D1*
X2764056Y2048619D1*
X2757709Y2044007D1*
X2750718Y2040445D1*
X2743256Y2038021D1*
X2735507Y2036793D1*
X2704025Y2036639D1*
X2239791D1*
X2239811Y2021262D1*
X2770437Y2021326D1*
X2846889Y2097777D1*
X2849436Y2104798D1*
X2852103Y2110583D1*
X2855216Y2116141D1*
X2858755Y2121438D1*
X2862699Y2126440D1*
X2867023Y2131118D1*
X2871700Y2135442D1*
X2876703Y2139386D1*
X2883671Y2143861D1*
X2860857Y2166985D1*
X2854736Y2175410D1*
X2850008Y2184689D1*
X2846790Y2194593D1*
X2845161Y2204878D1*
X2844956Y2228458D1*
Y2232154D1*
X2824287Y2232141D1*
Y2508570D1*
X2832577D1*
X2832563Y2707150D1*
X2875157D1*
X2883562Y2712244D1*
X2893183Y2716229D1*
X2903309Y2718660D1*
X2913711Y2719476D1*
X2942362Y2719477D1*
X2942346Y2728335D1*
X3108538D1*
Y2541363D1*
X3110412Y2546396D1*
Y2741460D1*
X3113031D1*
X3113014Y2835549D1*
X3317088D1*
X3317083Y2840618D1*
X3346185D1*
X3346182Y2877947D1*
X3337531Y2874964D1*
X3328585Y2872891D1*
X3319477Y2871730D1*
X3310297Y2871493D1*
X3301141Y2872183D1*
X3292100Y2873793D1*
X3283269Y2876306D1*
X3274735Y2879696D1*
X3266586Y2883929D1*
X3258906Y2888962D1*
X3251773Y2894744D1*
X3245258Y2901215D1*
X3239429Y2908311D1*
X3234345Y2915957D1*
X3230058Y2924078D1*
X3226612Y2932589D1*
X3224041Y2941404D1*
X3222371Y2950433D1*
X3221621Y2959585D1*
X3221796Y2968766D1*
X3222897Y2977882D1*
X3224911Y2986841D1*
X3227285Y2994149D1*
X2392349Y2994154D1*
X2274174Y2876010D1*
X3697616Y575068D2*
X3780127Y575233D1*
X3776313Y583589D1*
X3773098Y592192D1*
X3770497Y601000D1*
X3768522Y609970D1*
X3767185Y619057D1*
X3766490Y628215D1*
X3766442Y637399D1*
X3767040Y646564D1*
X3768283Y655664D1*
X3770163Y664654D1*
X3772672Y673489D1*
X3775797Y682126D1*
X3779522Y690521D1*
X3783830Y698632D1*
X3788697Y706421D1*
X3794101Y713847D1*
X3800015Y720874D1*
X3806409Y727468D1*
X3813251Y733594D1*
X3820508Y739224D1*
X3828143Y744329D1*
X3836119Y748883D1*
X3844396Y752865D1*
X3852932Y756253D1*
X3861686Y759032D1*
X3870614Y761188D1*
X3879671Y762709D1*
X3888814Y763589D1*
X3897995Y763823D1*
X3907170Y763410D1*
X3916294Y762352D1*
X3925320Y760654D1*
X3934204Y758324D1*
X3942902Y755375D1*
X3951370Y751820D1*
X3959568Y747678D1*
X3967453Y742969D1*
X3974987Y737717D1*
X3982133Y731946D1*
X3988854Y725687D1*
X3995118Y718970D1*
X4000894Y711829D1*
X4006152Y704299D1*
X4010867Y696417D1*
X4015015Y688222D1*
X4018575Y679756D1*
X4021531Y671060D1*
X4023867Y662178D1*
X4025472Y653682D1*
X4035217Y666564D1*
X4041319Y673429D1*
X4047810Y679928D1*
X4054668Y686038D1*
X4061869Y691740D1*
X4069390Y697013D1*
X4077204Y701840D1*
X4085286Y706204D1*
X4093608Y710092D1*
X4102142Y713489D1*
X4110859Y716384D1*
X4119729Y718767D1*
X4128723Y720631D1*
X4137810Y721969D1*
X4146960Y722776D1*
X4156141Y723050D1*
X4165322Y722790D1*
X4174473Y721996D1*
X4183562Y720672D1*
X4192558Y718821D1*
X4201432Y716451D1*
X4210154Y713569D1*
X4218692Y710184D1*
X4227020Y706309D1*
X4235108Y701956D1*
X4242930Y697141D1*
X4250458Y691879D1*
X4257668Y686188D1*
X4264534Y680088D1*
X4271584Y672983D1*
X4271598Y891328D1*
X4263463Y888027D1*
X4254659Y885416D1*
X4245637Y883706D1*
X4236489Y882914D1*
X4227308Y883048D1*
X4218187Y884107D1*
X4209219Y886081D1*
X4200495Y888948D1*
X4194669Y891436D1*
X4194520Y842425D1*
X4193293Y834675D1*
X4190869Y827214D1*
X4187307Y820223D1*
X4182695Y813875D1*
X4177147Y808327D1*
X4170799Y803716D1*
X4163809Y800154D1*
X4156347Y797729D1*
X4148597Y796502D1*
X4117115Y796348D1*
X3381813D1*
X3374054Y793178D1*
X3365524Y791130D1*
X3356778Y790442D1*
X3263077Y790614D1*
X3254412Y791987D1*
X3246069Y794698D1*
X3238253Y798680D1*
X3231155Y803837D1*
X3224942Y810053D1*
X3223953Y802311D1*
Y665093D1*
X3266734Y622363D1*
X3339112D1*
X3337022Y630891D1*
X3335719Y639981D1*
X3335338Y649155D1*
X3335885Y658321D1*
X3337352Y667386D1*
X3339726Y676256D1*
X3342982Y684842D1*
X3347087Y693056D1*
X3351999Y700814D1*
X3357669Y708037D1*
X3364037Y714652D1*
X3371040Y720591D1*
X3378606Y725795D1*
X3386658Y730208D1*
X3395114Y733788D1*
X3403888Y736497D1*
X3412890Y738308D1*
X3422029Y739202D1*
X3431211Y739170D1*
X3440344Y738212D1*
X3449333Y736339D1*
X3458088Y733569D1*
X3466519Y729931D1*
X3474540Y725461D1*
X3476297Y724332D1*
X3485005Y729387D1*
X3491492Y732377D1*
X3498193Y734850D1*
X3505068Y736789D1*
X3512074Y738182D1*
X3519167Y739022D1*
X3526304Y739302D1*
X3533442Y739022D1*
X3540535Y738182D1*
X3547541Y736789D1*
X3554416Y734850D1*
X3561117Y732377D1*
X3567604Y729387D1*
X3576226Y724300D1*
X3585005Y729387D1*
X3591492Y732377D1*
X3598193Y734850D1*
X3605068Y736789D1*
X3612074Y738182D1*
X3619167Y739022D1*
X3626304Y739302D1*
X3633442Y739022D1*
X3640535Y738182D1*
X3647541Y736789D1*
X3654416Y734850D1*
X3661117Y732377D1*
X3667604Y729387D1*
X3673836Y725897D1*
X3679775Y721928D1*
X3685385Y717506D1*
X3690630Y712658D1*
X3695479Y707412D1*
X3699901Y701803D1*
X3703869Y695864D1*
X3707359Y689632D1*
X3710350Y683145D1*
X3712822Y676443D1*
X3714761Y669569D1*
X3716155Y662563D1*
X3716994Y655469D1*
X3717275Y648332D1*
X3716994Y641195D1*
X3716155Y634101D1*
X3714761Y627095D1*
X3712822Y620221D1*
X3710350Y613519D1*
X3707359Y607032D1*
X3703869Y600800D1*
X3697603Y591947D1*
X3697590Y575092D1*
X3900733Y503207D2*
Y453414D1*
X4044615Y453410D1*
X4035317Y463564D1*
X4029618Y470767D1*
X4024346Y478288D1*
X4019521Y486104D1*
X4015159Y494187D1*
X4011273Y502510D1*
X4007878Y511044D1*
X4004986Y519762D1*
X4002604Y528633D1*
X4000743Y537627D1*
X3998895Y552541D1*
X3989815Y542263D1*
X3983160Y535933D1*
X3976075Y530088D1*
X3968597Y524757D1*
X3960761Y519966D1*
X3952608Y515738D1*
X3944177Y512095D1*
X3935510Y509054D1*
X3926651Y506632D1*
X3917643Y504839D1*
X3908531Y503685D1*
X3900758Y503254D1*
X3629754Y3072355D2*
X3591645D1*
X3590130Y3063630D1*
Y3009911D1*
X3593601Y3003735D1*
X3596591Y2997248D1*
X3599064Y2990547D1*
X3601002Y2983672D1*
X3602396Y2976667D1*
X3603236Y2969573D1*
X3603516Y2962436D1*
X3603236Y2955298D1*
X3602396Y2948205D1*
X3601002Y2941199D1*
X3599064Y2934324D1*
X3596591Y2927623D1*
X3593601Y2921136D1*
X3590111Y2914904D1*
X3586142Y2908965D1*
X3581720Y2903355D1*
X3576871Y2898110D1*
X3571626Y2893262D1*
X3566017Y2888839D1*
X3560078Y2884871D1*
X3553845Y2881381D1*
X3547359Y2878390D1*
X3540657Y2875918D1*
X3533782Y2873979D1*
X3526777Y2872586D1*
X3519683Y2871746D1*
X3512546Y2871466D1*
X3505409Y2871746D1*
X3498315Y2872586D1*
X3491309Y2873979D1*
X3484435Y2875918D1*
X3478911Y2877956D1*
X3478910Y2840609D1*
X3593511Y2840618D1*
Y2666552D1*
X3389438D1*
X3389443Y2661483D1*
X3276587D1*
X3276604Y2614824D1*
X3337096Y2614635D1*
X3345761Y2613262D1*
X3350002Y2612065D1*
X3356171Y2611340D1*
X3815883D1*
X3807399Y2618646D1*
X3800936Y2625172D1*
X3794949Y2632137D1*
X3789468Y2639506D1*
X3784518Y2647243D1*
X3780127Y2655309D1*
X3776313Y2663665D1*
X3773098Y2672268D1*
X3770497Y2681077D1*
X3768522Y2690046D1*
X3767185Y2699133D1*
X3766490Y2708291D1*
X3766442Y2717475D1*
X3767040Y2726640D1*
X3768283Y2735740D1*
X3770163Y2744730D1*
X3772672Y2753565D1*
X3775797Y2762202D1*
X3779522Y2770597D1*
X3783830Y2778709D1*
X3788697Y2786497D1*
X3794101Y2793923D1*
X3800015Y2800951D1*
X3806409Y2807544D1*
X3813251Y2813671D1*
X3820508Y2819300D1*
X3828143Y2824405D1*
X3836119Y2828959D1*
X3844396Y2832941D1*
X3852932Y2836329D1*
X3861686Y2839108D1*
X3870614Y2841264D1*
X3879671Y2842786D1*
X3888814Y2843666D1*
X3897995Y2843900D1*
X3907170Y2843486D1*
X3916294Y2842428D1*
X3925320Y2840730D1*
X3934204Y2838401D1*
X3942902Y2835451D1*
X3951370Y2831897D1*
X3959568Y2827754D1*
X3967453Y2823045D1*
X3974987Y2817793D1*
X3982133Y2812022D1*
X3988854Y2805763D1*
X3995118Y2799046D1*
X4000894Y2791905D1*
X4006152Y2784375D1*
X4010867Y2776493D1*
X4015015Y2768298D1*
X4018575Y2759832D1*
X4021531Y2751136D1*
X4023867Y2742254D1*
X4025571Y2733229D1*
X4026636Y2724107D1*
X4027063Y2713566D1*
X4026740Y2704387D1*
X4025770Y2695254D1*
X4024161Y2686211D1*
X4021918Y2677305D1*
X4019054Y2668579D1*
X4015582Y2660076D1*
X4011520Y2651838D1*
X4006888Y2643907D1*
X4001709Y2636322D1*
X3996009Y2629121D1*
X3989815Y2622339D1*
X3983160Y2616009D1*
X3977487Y2611329D1*
X4129122Y2611186D1*
X4136872Y2609959D1*
X4144334Y2607534D1*
X4151324Y2603972D1*
X4157672Y2599360D1*
X4163220Y2593812D1*
X4167832Y2587465D1*
X4171394Y2580474D1*
X4173818Y2573012D1*
X4175045Y2565263D1*
X4175200Y2533781D1*
Y2291670D1*
X4183806Y2296569D1*
X4190247Y2299539D1*
X4190275Y2697734D1*
X4183425Y2700969D1*
X4175844Y2705214D1*
X4168620Y2710041D1*
X4161797Y2715420D1*
X4155416Y2721318D1*
X4149519Y2727698D1*
X4144140Y2734522D1*
X4139312Y2741746D1*
X4135067Y2749327D1*
X4131429Y2757217D1*
X4128422Y2765369D1*
X4126064Y2773731D1*
X4124369Y2782253D1*
X4123347Y2790881D1*
X4123006Y2799563D1*
X4123347Y2808245D1*
X4124369Y2816873D1*
X4125527Y2822699D1*
X4074142Y2874397D1*
X4065164Y2870928D1*
X4054595Y2867812D1*
X4043770Y2865754D1*
X4032794Y2864773D1*
X4021776Y2864879D1*
X4010821Y2866072D1*
X4000038Y2868339D1*
X3989531Y2871658D1*
X3979402Y2875997D1*
X3969750Y2881314D1*
X3960670Y2887557D1*
X3952250Y2894665D1*
X3944572Y2902569D1*
X3937711Y2911191D1*
X3931734Y2920448D1*
X3926698Y2930250D1*
X3922654Y2940500D1*
X3919640Y2951099D1*
X3917686Y2961943D1*
X3916811Y2972928D1*
X3917024Y2983945D1*
X3918322Y2994887D1*
X3920693Y3005648D1*
X3924114Y3016123D1*
X3928551Y3026209D1*
X3933961Y3035809D1*
X3940291Y3044828D1*
X3947480Y3053180D1*
X3955457Y3060781D1*
X3964145Y3067559D1*
X3973460Y3073447D1*
X3978819Y3076282D1*
X3969750Y3081314D1*
X3960670Y3087557D1*
X3952250Y3094665D1*
X3944572Y3102569D1*
X3937711Y3111191D1*
X3931734Y3120448D1*
X3926698Y3130250D1*
X3922654Y3140500D1*
X3919640Y3151099D1*
X3917686Y3161943D1*
X3916811Y3172928D1*
X3917024Y3183945D1*
X3918322Y3194887D1*
X3920693Y3205648D1*
X3924114Y3216123D1*
X3928551Y3226209D1*
X3933961Y3235809D1*
X3940291Y3244828D1*
X3947480Y3253180D1*
X3955457Y3260781D1*
X3964145Y3267559D1*
X3973460Y3273447D1*
X3983309Y3278387D1*
X3993598Y3282332D1*
X4004225Y3285244D1*
X4015088Y3287093D1*
X4026080Y3287861D1*
X4037095Y3287542D1*
X4048024Y3286139D1*
X4058762Y3283664D1*
X4069203Y3280143D1*
X4079246Y3275609D1*
X4088793Y3270106D1*
X4097751Y3263689D1*
X4106033Y3256420D1*
X4113557Y3248370D1*
X4120250Y3239616D1*
X4126048Y3230246D1*
X4128359Y3225826D1*
X4132993Y3234247D1*
X4139174Y3243369D1*
X4146225Y3251838D1*
X4154076Y3259569D1*
X4162651Y3266489D1*
X4171868Y3272530D1*
X4181634Y3277632D1*
X4191857Y3281746D1*
X4202435Y3284832D1*
X4213266Y3286859D1*
X4224244Y3287809D1*
X4235262Y3287671D1*
X4246213Y3286448D1*
X4256990Y3284150D1*
X4267488Y3280801D1*
X4271602Y3279163D1*
X4271582Y3658920D1*
X4147903D1*
X4147902Y3614146D1*
X4132149D1*
X4133383Y3606114D1*
X4135587Y3600138D1*
X4137316Y3594007D1*
X4138559Y3587759D1*
X4139308Y3581433D1*
X4139558Y3575068D1*
X4139308Y3568703D1*
X4138559Y3562377D1*
X4137316Y3556129D1*
X4135587Y3549998D1*
X4133383Y3544022D1*
X4130716Y3538237D1*
X4127603Y3532679D1*
X4124064Y3527383D1*
X4120120Y3522380D1*
X4115796Y3517702D1*
X4111119Y3513378D1*
X4106116Y3509435D1*
X4100819Y3505896D1*
X4095262Y3502783D1*
X4089477Y3500116D1*
X4083500Y3497911D1*
X4077369Y3496182D1*
X4071122Y3494939D1*
X4064796Y3494191D1*
X4058430Y3493941D1*
X4052065Y3494191D1*
X4045739Y3494939D1*
X4039492Y3496182D1*
X4033361Y3497911D1*
X4027384Y3500116D1*
X4021599Y3502783D1*
X4016041Y3505896D1*
X4010745Y3509435D1*
X4005742Y3513378D1*
X3998886Y3520060D1*
X3998899Y3452708D1*
X4019689Y3452712D1*
X4027384Y3456379D1*
X4033361Y3458583D1*
X4039492Y3460313D1*
X4045739Y3461555D1*
X4052065Y3462304D1*
X4058430Y3462554D1*
X4064796Y3462304D1*
X4071122Y3461555D1*
X4077369Y3460313D1*
X4083500Y3458583D1*
X4089477Y3456379D1*
X4095262Y3453712D1*
X4100819Y3450599D1*
X4106116Y3447060D1*
X4111119Y3443116D1*
X4115796Y3438792D1*
X4120120Y3434115D1*
X4124064Y3429112D1*
X4127603Y3423816D1*
X4130716Y3418258D1*
X4133383Y3412473D1*
X4135587Y3406496D1*
X4137316Y3400365D1*
X4138559Y3394118D1*
X4139308Y3387792D1*
X4139558Y3381427D1*
X4139308Y3375061D1*
X4138559Y3368735D1*
X4137316Y3362488D1*
X4135587Y3356357D1*
X4133383Y3350380D1*
X4130716Y3344595D1*
X4127603Y3339037D1*
X4124064Y3333741D1*
X4120120Y3328738D1*
X4115796Y3324061D1*
X4111119Y3319737D1*
X4106116Y3315793D1*
X4100819Y3312254D1*
X4095262Y3309141D1*
X4089477Y3306474D1*
X4083500Y3304270D1*
X4077369Y3302541D1*
X4071122Y3301298D1*
X4064796Y3300549D1*
X4058430Y3300299D1*
X4052065Y3300549D1*
X4045739Y3301298D1*
X4039492Y3302541D1*
X4033361Y3304270D1*
X4027384Y3306474D1*
X4019797Y3310150D1*
X3788474Y3310141D1*
X3724703Y3246398D1*
X3795933Y3246421D1*
Y3072355D1*
X3629741Y3072362D1*
X2138797Y1891010D2*
X2034590D1*
X2006290Y1862977D1*
X1997865Y1856856D1*
X1988587Y1852129D1*
X1978683Y1848911D1*
X1968397Y1847282D1*
X1946935Y1847077D1*
X1938199Y1840911D1*
X1932372Y1837648D1*
X1926306Y1834852D1*
X1920040Y1832540D1*
X1913611Y1830727D1*
X1907060Y1829424D1*
X1900427Y1828639D1*
X1893753Y1828376D1*
X1887079Y1828639D1*
X1880446Y1829424D1*
X1873895Y1830727D1*
X1867467Y1832540D1*
X1861200Y1834852D1*
X1855135Y1837648D1*
X1849307Y1840911D1*
X1843754Y1844622D1*
X1838508Y1848757D1*
X1833604Y1853291D1*
X1829070Y1858196D1*
X1824935Y1863441D1*
X1821224Y1868995D1*
X1817960Y1874822D1*
X1815164Y1880888D1*
X1812852Y1887155D1*
X1811039Y1893583D1*
X1809736Y1900134D1*
X1808951Y1906767D1*
X1808689Y1913441D1*
X1808951Y1920115D1*
X1809736Y1926748D1*
X1811039Y1933299D1*
X1812852Y1939727D1*
X1815164Y1945994D1*
X1817960Y1952059D1*
X1821224Y1957887D1*
X1824935Y1963441D1*
X1829070Y1968686D1*
X1833604Y1973591D1*
X1838508Y1978125D1*
X1843754Y1982260D1*
X1849307Y1985970D1*
X1855135Y1989234D1*
X1861200Y1992030D1*
X1867467Y1994342D1*
X1873895Y1996155D1*
X1880446Y1997458D1*
X1887079Y1998243D1*
X1893753Y1998506D1*
X1900427Y1998243D1*
X1907060Y1997458D1*
X1913611Y1996155D1*
X1920040Y1994342D1*
X1926306Y1992030D1*
X1932372Y1989234D1*
X1940390Y1984506D1*
X1963383Y2007487D1*
Y2014344D1*
X1955944Y2010563D1*
X1947601Y2007852D1*
X1938936Y2006479D1*
X1916177Y2006307D1*
X1835086Y2006479D1*
X1826422Y2007852D1*
X1818078Y2010563D1*
X1810262Y2014545D1*
X1803165Y2019702D1*
X1796961Y2025905D1*
X1791805Y2033002D1*
X1787350Y2040140D1*
X1620633D1*
Y2232105D1*
X1618745Y2232020D1*
X1615381Y2228585D1*
Y1951739D1*
X1618012Y1945994D1*
X1620324Y1939727D1*
X1622137Y1933299D1*
X1623440Y1926748D1*
X1624225Y1920115D1*
X1624487Y1913441D1*
X1624225Y1906767D1*
X1623440Y1900134D1*
X1622137Y1893583D1*
X1620324Y1887155D1*
X1618012Y1880888D1*
X1615216Y1874822D1*
X1611952Y1868995D1*
X1608241Y1863441D1*
X1604106Y1858196D1*
X1599572Y1853291D1*
X1594668Y1848757D1*
X1589422Y1844622D1*
X1583869Y1840911D1*
X1578041Y1837648D1*
X1571975Y1834852D1*
X1565709Y1832540D1*
X1559281Y1830727D1*
X1552730Y1829424D1*
X1546097Y1828639D1*
X1539423Y1828376D1*
X1532748Y1828639D1*
X1526116Y1829424D1*
X1519565Y1830727D1*
X1513136Y1832540D1*
X1506870Y1834852D1*
X1500804Y1837648D1*
X1494976Y1840911D1*
X1489423Y1844622D1*
X1484178Y1848757D1*
X1479713Y1852884D1*
X1397443Y1852880D1*
X1407374Y1848778D1*
X1415572Y1844636D1*
X1423457Y1839927D1*
X1430991Y1834675D1*
X1438137Y1828904D1*
X1444858Y1822645D1*
X1451122Y1815928D1*
X1456898Y1808787D1*
X1462156Y1801257D1*
X1466871Y1793375D1*
X1471019Y1785180D1*
X1474579Y1776714D1*
X1477535Y1768018D1*
X1479871Y1759136D1*
X1481575Y1750111D1*
X1482640Y1740988D1*
X1483067Y1730448D1*
X1482744Y1721269D1*
X1481774Y1712136D1*
X1480164Y1703093D1*
X1477922Y1694187D1*
X1475057Y1685461D1*
X1471586Y1676958D1*
X1467524Y1668720D1*
X1462892Y1660789D1*
X1457713Y1653204D1*
X1450682Y1644546D1*
X1832989Y1644566D1*
X1827743Y1651828D1*
X1823202Y1659808D1*
X1819547Y1668231D1*
X1816822Y1676999D1*
X1815057Y1686010D1*
X1814274Y1695159D1*
X1814481Y1704338D1*
X1815677Y1713442D1*
X1817847Y1722364D1*
X1820966Y1731000D1*
X1824997Y1739249D1*
X1829894Y1747016D1*
X1835600Y1754210D1*
X1842048Y1760747D1*
X1849163Y1766551D1*
X1856862Y1771554D1*
X1865055Y1775698D1*
X1873648Y1778935D1*
X1882539Y1781227D1*
X1891626Y1782547D1*
X1900801Y1782881D1*
X1909960Y1782223D1*
X1918994Y1780582D1*
X1927798Y1777977D1*
X1936271Y1774438D1*
X1944313Y1770007D1*
X1951830Y1764734D1*
X1958735Y1758682D1*
X1964948Y1751921D1*
X1968581Y1747175D1*
X1971408Y1762561D1*
X1973916Y1771396D1*
X1977041Y1780032D1*
X1980766Y1788427D1*
X1985074Y1796539D1*
X1989941Y1804328D1*
X1995346Y1811754D1*
X2001259Y1818781D1*
X2007653Y1825375D1*
X2014495Y1831501D1*
X2021752Y1837131D1*
X2029387Y1842236D1*
X2037363Y1846790D1*
X2045640Y1850771D1*
X2054176Y1854160D1*
X2062930Y1856939D1*
X2071858Y1859095D1*
X2080916Y1860616D1*
X2090058Y1861496D1*
X2099239Y1861730D1*
X2108414Y1861317D1*
X2117538Y1860259D1*
X2126564Y1858561D1*
X2135448Y1856231D1*
X2144146Y1853282D1*
X2152615Y1849727D1*
X2160812Y1845585D1*
X2168697Y1840876D1*
X2176231Y1835623D1*
X2183377Y1829853D1*
X2190098Y1823594D1*
X2196362Y1816877D1*
X2202138Y1809736D1*
X2207396Y1802205D1*
X2212111Y1794323D1*
X2216259Y1786129D1*
X2219819Y1777663D1*
X2222775Y1768967D1*
X2225111Y1760085D1*
X2226816Y1751060D1*
X2227880Y1741937D1*
X2228307Y1731396D1*
X2227984Y1722218D1*
X2227015Y1713084D1*
X2225405Y1704042D1*
X2223162Y1695136D1*
X2220298Y1686409D1*
X2216826Y1677906D1*
X2212764Y1669669D1*
X2208132Y1661738D1*
X2202953Y1654153D1*
X2195051Y1644541D1*
X2233457Y1644566D1*
X2349372Y1760478D1*
X2349362Y1784731D1*
X2227315Y1784716D1*
Y1888543D1*
X2151508Y1888753D1*
X2141203Y1890387D1*
X3315679Y1680995D2*
Y1570746D1*
X3294974D1*
X3295009Y1476467D1*
X3306206Y1468090D1*
X3312586Y1462192D1*
X3318484Y1455812D1*
X3323863Y1448989D1*
X3328690Y1441765D1*
X3332936Y1434184D1*
X3336573Y1426293D1*
X3339580Y1418142D1*
X3341939Y1409779D1*
X3343634Y1401258D1*
X3344655Y1392629D1*
X3344996Y1383948D1*
X3344587Y1374693D1*
X3361165Y1374522D1*
X3369829Y1373150D1*
X3378188Y1370432D1*
X3384832Y1368789D1*
X4148597Y1368635D1*
X4156347Y1367407D1*
X4163809Y1364983D1*
X4170799Y1361421D1*
X4177147Y1356809D1*
X4182695Y1351261D1*
X4187307Y1344914D1*
X4190869Y1337923D1*
X4193293Y1330461D1*
X4194520Y1322712D1*
X4194675Y1290907D1*
X4202785Y1293595D1*
X4213515Y1296101D1*
X4224441Y1297527D1*
X4235455Y1297860D1*
X4246448Y1297095D1*
X4257310Y1295241D1*
X4267934Y1292316D1*
X4271598Y1291034D1*
Y2093878D1*
X4259874Y2090377D1*
X4251352Y2088682D1*
X4242724Y2087661D1*
X4234042Y2087320D1*
X4225360Y2087661D1*
X4216732Y2088682D1*
X4208210Y2090377D1*
X4199848Y2092736D1*
X4191696Y2095743D1*
X4183806Y2099381D1*
X4175181Y2104324D1*
X4175045Y2084976D1*
X4173818Y2077227D1*
X4171394Y2069765D1*
X4167832Y2062774D1*
X4163220Y2056426D1*
X4157672Y2050879D1*
X4151324Y2046267D1*
X4144334Y2042705D1*
X4136872Y2040280D1*
X4129122Y2039053D1*
X4097640Y2038899D1*
X3361921Y2038793D1*
X3354104Y2034811D1*
X3345744Y2032096D1*
X3343634Y2031179D1*
X3344655Y2022551D1*
X3344996Y2013869D1*
X3344655Y2005187D1*
X3343634Y1996558D1*
X3341939Y1988037D1*
X3339580Y1979674D1*
X3336573Y1971523D1*
X3332936Y1963632D1*
X3328690Y1956052D1*
X3323863Y1948827D1*
X3318484Y1942004D1*
X3312586Y1935624D1*
X3306206Y1929726D1*
X3299383Y1924347D1*
X3295009Y1921424D1*
X3295010Y1847161D1*
X3315679Y1847175D1*
X3315643Y1680982D1*
X3141613Y1702836D2*
Y1760394D1*
X2924428Y1760364D1*
X2914046Y1761181D1*
X2903920Y1763613D1*
X2894299Y1767598D1*
X2885420Y1773039D1*
X2881313Y1776279D1*
X2871471Y1778872D1*
X2863561Y1779183D1*
X2855701Y1780114D1*
X2847937Y1781658D1*
X2840318Y1783807D1*
X2832892Y1786546D1*
X2825703Y1789860D1*
X2818797Y1793728D1*
X2812215Y1798126D1*
X2805999Y1803027D1*
X2800186Y1808400D1*
X2793951Y1815305D1*
X2786956Y1810512D1*
X2781398Y1807400D1*
X2775613Y1804733D1*
X2769637Y1802528D1*
X2763506Y1800799D1*
X2757258Y1799556D1*
X2750932Y1798808D1*
X2744567Y1798557D1*
X2738202Y1798808D1*
X2731876Y1799556D1*
X2725628Y1800799D1*
X2719497Y1802528D1*
X2713521Y1804733D1*
X2705934Y1808409D1*
X2698312Y1808400D1*
X2880986Y1625731D1*
X2887242Y1624926D1*
X2895005Y1623381D1*
X2902624Y1621233D1*
X2910050Y1618493D1*
X2917239Y1615179D1*
X2924146Y1611311D1*
X2930727Y1606913D1*
X2936944Y1602013D1*
X2942756Y1596640D1*
X2948130Y1590827D1*
X2955590Y1580780D1*
X3000186D1*
X3000194Y1702827D1*
X3141614D1*
X3042108Y993354D2*
X3022803D1*
X3018025Y987994D1*
X3010106Y981231D1*
X3001227Y975789D1*
X2991606Y971804D1*
X2981460Y969371D1*
X2978781Y963305D1*
X2980442Y953524D1*
X2990083Y953543D1*
Y839037D1*
X3212027Y839057D1*
X3211558Y846348D1*
Y850762D1*
X3042119Y850750D1*
Y993346D1*
X1861223Y4009091D2*
Y4105978D1*
X1831309Y4105984D1*
X1831323Y4046728D1*
X1849551Y4028154D1*
X1856126Y4019104D1*
X1861212Y4009117D1*
X4271605Y4048403D2*
X4261409Y4041019D1*
X4253592Y4036196D1*
X4245508Y4031835D1*
X4237184Y4027952D1*
X4228649Y4024559D1*
X4219930Y4021669D1*
X4211059Y4019290D1*
X4202064Y4017430D1*
X4192976Y4016097D1*
X4183826Y4015294D1*
X4174645Y4015025D1*
X4158994Y4015854D1*
X4159017Y3883344D1*
X4164975Y3884568D1*
X4175414Y3885387D1*
X4182973Y3887960D1*
X4188531Y3891073D1*
X4194316Y3893739D1*
X4200292Y3895944D1*
X4206423Y3897673D1*
X4212671Y3898916D1*
X4218997Y3899665D1*
X4225362Y3899915D1*
X4231727Y3899665D1*
X4238053Y3898916D1*
X4244301Y3897673D1*
X4250432Y3895944D1*
X4256408Y3893739D1*
X4262193Y3891073D1*
X4271579Y3885403D1*
X4271598Y4048346D1*
X4194678Y1056219D2*
X4203769Y1059894D1*
X4212596Y1062425D1*
X4221633Y1064054D1*
X4230788Y1064763D1*
X4239968Y1064545D1*
X4249079Y1063404D1*
X4258028Y1061349D1*
X4266725Y1058403D1*
X4271596Y1056306D1*
X4271598Y1083451D1*
X4263408Y1080750D1*
X4252669Y1078282D1*
X4241738Y1076894D1*
X4230722Y1076600D1*
X4219733Y1077403D1*
X4208877Y1079296D1*
X4198264Y1082258D1*
X4194671Y1083527D1*
X4194675Y1056224D1*
X3162302Y1929887D2*
X3156096Y1935624D1*
X3150198Y1942004D1*
X3144819Y1948827D1*
X3139992Y1956052D1*
X3135747Y1963632D1*
X3132109Y1971523D1*
X3129102Y1979674D1*
X3126743Y1988037D1*
X3125048Y1996558D1*
X3124027Y2005187D1*
X3123686Y2013869D1*
X3124027Y2022551D1*
X3125048Y2031179D1*
X3126743Y2039701D1*
X3129102Y2048063D1*
X3132109Y2056215D1*
X3135747Y2064105D1*
X3139992Y2071686D1*
X3144046Y2077753D1*
X3093130Y2077736D1*
X3092926Y2029773D1*
X3091297Y2019488D1*
X3088079Y2009584D1*
X3083351Y2000305D1*
X3077230Y1991880D1*
X3060701Y1975063D1*
X2978718Y1893079D1*
X3162304Y1893092D1*
X3162282Y1929900D1*
X905836Y1414495D2*
X904906Y1406634D1*
X903362Y1398870D1*
X901213Y1391251D1*
X898473Y1383825D1*
X895159Y1376636D1*
X891292Y1369730D1*
X886894Y1363148D1*
X881993Y1356932D1*
X876620Y1351119D1*
X870807Y1345746D1*
X864591Y1340845D1*
X858009Y1336447D1*
X851103Y1332580D1*
X843914Y1329266D1*
X836487Y1326526D1*
X828869Y1324377D1*
X821105Y1322833D1*
X813244Y1321902D1*
X805335Y1321592D1*
X797425Y1321902D1*
X789564Y1322833D1*
X781800Y1324377D1*
X774182Y1326526D1*
X766755Y1329266D1*
X759567Y1332580D1*
X752660Y1336447D1*
X746078Y1340845D1*
X739862Y1345746D1*
X734049Y1351119D1*
X728676Y1356932D1*
X723776Y1363148D1*
X719378Y1369730D1*
X715510Y1376636D1*
X712196Y1383825D1*
X709456Y1391251D1*
X707308Y1398870D1*
X705763Y1406634D1*
X704833Y1414495D1*
X704522Y1422404D1*
X704833Y1430314D1*
X705763Y1438175D1*
X707308Y1445938D1*
X709456Y1453557D1*
X712196Y1460984D1*
X715510Y1468172D1*
X719378Y1475079D1*
X723776Y1481660D1*
X728676Y1487877D1*
X734049Y1493689D1*
X739862Y1499063D1*
X746078Y1503963D1*
X752660Y1508361D1*
X759567Y1512229D1*
X766755Y1515543D1*
X774182Y1518283D1*
X781800Y1520431D1*
X789564Y1521976D1*
X797425Y1522906D1*
X805335Y1523217D1*
X813244Y1522906D1*
X821105Y1521976D1*
X828869Y1520431D1*
X836487Y1518283D1*
X843914Y1515543D1*
X851103Y1512229D1*
X858009Y1508361D1*
X864591Y1503963D1*
X870807Y1499063D1*
X876620Y1493689D1*
X881993Y1487877D1*
X886894Y1481660D1*
X891292Y1475079D1*
X895159Y1468172D1*
X898473Y1460984D1*
X901213Y1453557D1*
X903362Y1445938D1*
X904906Y1438175D1*
X905836Y1430314D1*
X906147Y1422404D1*
X905836Y1414495D1*
X1090953Y2061940D2*
X1090168Y2055307D1*
X1088865Y2048756D1*
X1087052Y2042328D1*
X1084740Y2036061D1*
X1081944Y2029996D1*
X1078680Y2024168D1*
X1074970Y2018614D1*
X1070835Y2013369D1*
X1066301Y2008464D1*
X1061396Y2003931D1*
X1056151Y1999795D1*
X1050597Y1996085D1*
X1044769Y1992821D1*
X1038704Y1990025D1*
X1032437Y1987713D1*
X1026009Y1985900D1*
X1019458Y1984597D1*
X1012825Y1983812D1*
X1006151Y1983550D1*
X999477Y1983812D1*
X992844Y1984597D1*
X986293Y1985900D1*
X979865Y1987713D1*
X973598Y1990025D1*
X967532Y1992821D1*
X961705Y1996085D1*
X956151Y1999795D1*
X950906Y2003931D1*
X946001Y2008464D1*
X941467Y2013369D1*
X937332Y2018614D1*
X933621Y2024168D1*
X930358Y2029996D1*
X927562Y2036061D1*
X925250Y2042328D1*
X923437Y2048756D1*
X922134Y2055307D1*
X921349Y2061940D1*
X921086Y2068614D1*
X921349Y2075288D1*
X922134Y2081921D1*
X923437Y2088472D1*
X925250Y2094901D1*
X927562Y2101167D1*
X930358Y2107233D1*
X933621Y2113060D1*
X937332Y2118614D1*
X941467Y2123859D1*
X946001Y2128764D1*
X950906Y2133298D1*
X956151Y2137433D1*
X961705Y2141144D1*
X967532Y2144407D1*
X973598Y2147204D1*
X979865Y2149515D1*
X986293Y2151328D1*
X992844Y2152631D1*
X999477Y2153417D1*
X1006151Y2153679D1*
X1012825Y2153417D1*
X1019458Y2152631D1*
X1026009Y2151328D1*
X1032437Y2149515D1*
X1038704Y2147204D1*
X1044769Y2144407D1*
X1050597Y2141144D1*
X1056151Y2137433D1*
X1061396Y2133298D1*
X1066301Y2128764D1*
X1070835Y2123859D1*
X1074970Y2118614D1*
X1078680Y2113060D1*
X1081944Y2107233D1*
X1084740Y2101167D1*
X1087052Y2094901D1*
X1088865Y2088472D1*
X1090168Y2081921D1*
X1090953Y2075288D1*
X1091215Y2068614D1*
X1090953Y2061940D1*
X1096739Y2284236D2*
X1096046Y2275081D1*
X1094369Y2266053D1*
X1091730Y2257259D1*
X1088158Y2248800D1*
X1083695Y2240776D1*
X1078393Y2233279D1*
X1072314Y2226398D1*
X1065529Y2220212D1*
X1058117Y2214793D1*
X1050163Y2210205D1*
X1041762Y2206500D1*
X1033010Y2203723D1*
X1024010Y2201905D1*
X1014866Y2201068D1*
X1005686Y2201221D1*
X996575Y2202363D1*
X987641Y2204481D1*
X978987Y2207548D1*
X970713Y2211531D1*
X962918Y2216382D1*
X955690Y2222046D1*
X949116Y2228455D1*
X943270Y2235536D1*
X938221Y2243205D1*
X934029Y2251374D1*
X930741Y2259947D1*
X928397Y2268824D1*
X927023Y2277903D1*
X926636Y2287077D1*
X927239Y2296239D1*
X928827Y2305282D1*
X931380Y2314102D1*
X934869Y2322595D1*
X939253Y2330663D1*
X944481Y2338211D1*
X950492Y2345152D1*
X957216Y2351404D1*
X964575Y2356896D1*
X972483Y2361562D1*
X980848Y2365348D1*
X989572Y2368211D1*
X998554Y2370117D1*
X1007689Y2371044D1*
X1016870Y2370980D1*
X1025992Y2369928D1*
X1034947Y2367898D1*
X1043630Y2364915D1*
X1051942Y2361014D1*
X1059785Y2356239D1*
X1067068Y2350647D1*
X1073705Y2344303D1*
X1079620Y2337280D1*
X1084743Y2329660D1*
X1089016Y2321533D1*
X1092387Y2312992D1*
X1094818Y2304138D1*
X1096281Y2295074D1*
X1096759Y2286073D1*
X1096739Y2284236D1*
X2018238Y3385170D2*
D21*
Y3211176D1*
Y3298173D2*
X2101298D1*
X2336211Y3417024D2*
Y3333963D1*
X2249214Y3417024D2*
X2423209D1*
X2552525Y3389210D2*
Y3275638D1*
X2469465Y3389210D2*
X2635585D1*
X3684021Y4249979D2*
Y4166919D1*
X1897937Y3079422D2*
Y2905428D1*
X1540364Y586604D2*
Y499606D1*
X1457303Y586604D2*
X1540364D1*
X810361Y2080391D2*
Y1997331D1*
X723364D2*
X897358D1*
X1148274Y1201534D2*
Y1118474D1*
X1061277Y1201534D2*
X1148274D1*
X2429106Y728607D2*
Y554613D1*
Y641610D2*
X2512166D1*
X2428948Y2875987D2*
Y2701992D1*
Y2788990D2*
X2512008D1*
X3817636Y488035D2*
X3900697D1*
X3712837Y3246386D2*
Y3072391D1*
Y3159388D2*
X3795898D1*
X3510415Y2840582D2*
Y2666588D1*
Y2753585D2*
X3593475D1*
X2310411Y1871749D2*
Y1784752D1*
X2227351Y1871749D2*
X2310411D1*
X3087227Y1702791D2*
Y1619731D1*
X3000230D2*
X3087227D1*
X3027549Y655677D2*
Y568680D1*
X2944488Y655677D2*
X3027549D1*
X1948256Y4082348D2*
Y3999288D1*
X1861259Y4082348D2*
X2035253D1*
X2156333Y4019357D2*
Y3905785D1*
X2073273Y4019357D2*
X2239394D1*
X3915803Y3496760D2*
X3998863D1*
X4228361Y3287849D2*
Y3176285D1*
X4028361Y2976285D2*
Y2864721D1*
X3916797Y2976285D2*
X4028361D1*
Y3287849D2*
Y3176285D1*
X3916797D2*
X4028361D1*
X4225362Y3740047D2*
Y3658955D1*
X4233227Y1064760D2*
Y882891D1*
X4233283Y1297845D2*
Y1076606D1*
X3211829Y951563D2*
Y850786D1*
X3042155Y951563D2*
X3211829D1*
X1899297Y1782858D2*
Y1697829D1*
X1814268D2*
X1899297D1*
X1790343Y2140953D2*
Y2040176D1*
X1620668Y2140953D2*
X1790343D1*
X651820Y2153643D2*
Y1983585D1*
X566792Y2068614D2*
X651820D1*
X1011694Y2371102D2*
Y2201045D1*
X926666Y2286073D2*
X1096723D1*
X1796933Y930512D2*
Y829735D1*
X3546568Y4265290D2*
Y4184198D1*
X3465477D2*
X3546568D1*
X1896996Y2876131D2*
Y2785197D1*
X1913693Y638765D2*
Y547831D1*
X1822759Y638765D2*
X1913693D1*
X3312546Y2962436D2*
Y2871502D1*
X3221612Y2962436D2*
X3312546D1*
X3426304Y739266D2*
Y648332D1*
X3335370D2*
X3426304D1*
X3003778Y3714817D2*
Y3540823D1*
X2920718Y3627820D2*
X3003778D1*
X3330463Y3673525D2*
Y3590465D1*
X2019201Y3531524D2*
Y3442558D1*
D23*
X1103199Y3822227D3*
Y3711991D3*
D24*
X1339160Y3559132D3*
X1228924D3*
D23*
X1475169Y3157104D3*
Y3046867D3*
D24*
X836601Y3118003D3*
X726365D3*
X598668Y3116119D3*
X488432D3*
X1312610Y3076371D3*
X1202374D3*
X1092453Y3071311D3*
X982217D3*
X821551Y2603009D3*
X711315D3*
X1908001Y3298173D3*
X2018238D3*
D23*
X2336211Y3527260D3*
Y3417024D3*
D26*
X2552525Y3582123D3*
Y3389210D3*
D23*
X3684021Y4056682D3*
Y4166919D3*
D24*
X2008173Y2992425D3*
X1897937D3*
X1540364Y586604D3*
X1650600D3*
X1280109Y2465066D3*
X1169873D3*
D23*
X810361Y1887094D3*
Y1997331D3*
X1148274Y1311770D3*
Y1201534D3*
D24*
X1370008Y1312820D3*
X1480244D3*
X1360703Y1038699D3*
X1470940D3*
D23*
X1471665Y2154916D3*
Y2265152D3*
D24*
X2318870Y641610D3*
X2429106D3*
X2318711Y2788990D3*
X2428948D3*
X3707400Y488035D3*
X3817636D3*
X3602601Y3159388D3*
X3712837D3*
X3400178Y2753585D3*
X3510415D3*
D23*
X2911320Y2315238D3*
Y2425474D3*
D24*
X2156715Y1978043D3*
X2046479D3*
X2420647Y1871749D3*
X2310411D3*
D23*
X3228646Y1653843D3*
Y1764079D3*
X3087227Y1619731D3*
Y1509495D3*
D24*
X2003192Y1474260D3*
X2113428D3*
X2967014Y1080387D3*
X2856778D3*
X3137785Y655677D3*
X3027549D3*
D23*
X1948256Y4192584D3*
Y4082348D3*
D26*
X2156333Y4212270D3*
Y4019357D3*
D24*
X3805567Y3496760D3*
X3915803D3*
D27*
X689234Y3878016D3*
Y3678016D3*
X489234D3*
Y3878016D3*
X589234Y3778016D3*
D28*
X1049836Y4220201D3*
X949836D3*
X849836D3*
D27*
X4228361Y3176285D3*
Y2976285D3*
X4028361D3*
Y3176285D3*
X4128361Y3076285D3*
D29*
X4225362Y3740047D3*
D30*
Y3818787D3*
D28*
X4233227Y973825D3*
D29*
X3829497Y4207248D3*
D30*
X3908238D3*
D31*
X1467971Y4115406D3*
X1667971D3*
D23*
X1591259Y3360711D3*
Y3250475D3*
D33*
X1795345Y3811322D3*
X1913455D3*
D34*
X1455295Y2598541D3*
X1573406D3*
X1349807Y2349718D3*
X1467917D3*
D35*
X1549425Y975961D3*
Y857850D3*
D34*
X1368255Y1177689D3*
X1486365D3*
D35*
X3193508Y2548127D3*
Y2666238D3*
X3025442Y2535003D3*
Y2653113D3*
D34*
X2965458Y1334285D3*
X3083568D3*
D35*
X2906987Y878322D3*
Y760211D3*
D36*
X3234341Y2013869D3*
D33*
X1893753Y1480370D3*
D36*
X3234341Y1383948D3*
X4234042Y2197975D3*
X4233283Y1187226D3*
D37*
X3191066Y2440558D3*
Y2309552D3*
Y2178549D3*
X3211829Y1213572D3*
Y1082568D3*
Y951563D3*
X1790343Y2455913D3*
Y2298433D3*
D33*
X2883307Y4254942D3*
X2405189Y3950476D3*
X2883307Y4097462D3*
X2405189Y3792996D3*
X1893753Y1913441D3*
X1539423Y1480370D3*
Y1913441D3*
X1899297Y1697829D3*
X2562669Y3950476D3*
Y3792996D3*
D36*
X4233661Y2799563D3*
D38*
X805335Y1422404D3*
D37*
X1790343Y2140953D3*
X1796933Y1245472D3*
D33*
X2720150Y3950476D3*
Y3792996D3*
X2886622Y3953151D3*
Y3795671D3*
X1006151Y2068614D3*
Y2501685D3*
X651820Y2068614D3*
Y2501685D3*
X1011694Y2286073D3*
D38*
X2517140Y1525354D3*
D29*
X3545965Y4112457D3*
D33*
X2401874Y4252268D3*
Y4094787D3*
X2559354Y4252268D3*
Y4094787D3*
X2716835Y4252268D3*
Y4094787D3*
D38*
X2871471Y1525354D3*
X2517140Y1879685D3*
X2871471D3*
D37*
X1796933Y1087992D3*
Y930512D3*
D38*
X1159665Y1422404D3*
X805335Y1776735D3*
X1159665D3*
D29*
X3546568Y4184198D3*
D102*
X1228544Y3727838D3*
D40*
X1306225Y3728272D3*
X1385307D3*
D102*
X1092486Y3351320D3*
D40*
X1170167Y3351753D3*
X1249250D3*
D102*
X1177059Y2814421D3*
D40*
X1254740Y2814854D3*
X1333823D3*
D102*
X760490Y2878928D3*
D40*
X838171Y2879361D3*
X917253D3*
D42*
X3906240Y4069672D3*
X3831437D3*
X3868839Y3979121D3*
D43*
X3049164Y3442850D3*
X3149164D3*
X3249164D3*
D105*
X3099802Y3991156D3*
D44*
X3099369Y4068838D3*
Y4147920D3*
D43*
X3836810Y3700038D3*
X3736810D3*
X3636810D3*
D23*
X1559677Y3810828D3*
Y3700592D3*
D24*
X1121236Y4063608D3*
X1231472D3*
X1118807Y3922202D3*
X1229043D3*
D23*
X970064Y3715726D3*
Y3825962D3*
D24*
X1051836Y3495514D3*
X941600D3*
X1337251Y3453525D3*
X1447487D3*
X1488291Y3316819D3*
X1378055D3*
D45*
X833259Y3334261D3*
X733259D3*
X633259D3*
D24*
X870571Y2705429D3*
X760335D3*
D23*
X1591526Y3158130D3*
Y3047894D3*
D24*
X1479239Y2959493D3*
X1369003D3*
X1099707Y2972954D3*
X989471D3*
X839546Y3016936D3*
X729310D3*
X1188098Y4219588D3*
X1298335D3*
X4075921Y3951438D3*
X3965685D3*
X3703802Y3912617D3*
X3593566D3*
D45*
X2096996Y2785197D3*
X1996996D3*
X1896996D3*
D24*
X1696056Y2602705D3*
X1806293D3*
D45*
X2113693Y638765D3*
X2013693D3*
X1913693D3*
D24*
X1649441Y726459D3*
X1539205D3*
D23*
X1266777Y1148871D3*
Y1038635D3*
X1308965Y2270009D3*
Y2159773D3*
D45*
X3512546Y2962436D3*
X3412546D3*
X3312546D3*
D24*
X3306346Y2748516D3*
X3196110D3*
D29*
X2913690Y2526022D3*
Y2626022D3*
D45*
X3626304Y648332D3*
X3526304D3*
X3426304D3*
D24*
X3140857Y752024D3*
X3030621D3*
D29*
X2846501Y1228274D3*
Y1328274D3*
D24*
X3114014Y3627820D3*
X3003778D3*
X3113047Y3825076D3*
X3002811D3*
D23*
X3330463Y3673525D3*
Y3783761D3*
X3478896Y3682108D3*
Y3792344D3*
X4060869Y3697243D3*
Y3807479D3*
D43*
X1919201Y3531524D3*
X2019201D3*
X2119201D3*
X3371808Y4147533D3*
Y4047533D3*
Y3947533D3*
D23*
X851190Y3715722D3*
Y3825958D3*
D24*
X964976Y3934490D3*
X854740D3*
M02*
