G04 DipTrace 3.3.1.1*
G04 TopSilk.gbr*
%MOIN*%
G04 #@! TF.FileFunction,Legend,Top*
G04 #@! TF.Part,Single*
%ADD10C,0.009843*%
%ADD12C,0.003*%
%ADD18C,0.011811*%
%ADD30C,0.006176*%
%ADD31C,0.009264*%
%FSLAX26Y26*%
G04*
G70*
G90*
G75*
G01*
G04 TopSilk*
%LPD*%
X3103617Y1700304D2*
D10*
Y1763234D1*
X3096168Y1700304D2*
Y1763234D1*
Y1700304D2*
X3119727D1*
X3096168Y1763234D2*
X3119727D1*
X3182357Y1345974D2*
Y1408903D1*
X3174908Y1345974D2*
Y1408903D1*
Y1345974D2*
X3198467D1*
X3174908Y1408903D2*
X3198467D1*
X3106678Y948365D2*
Y1011294D1*
X3099230Y948365D2*
Y1011294D1*
Y948365D2*
X3122789D1*
X3099230Y1011294D2*
X3122789D1*
X3191541Y612824D2*
Y675753D1*
X3184092Y612824D2*
Y675753D1*
Y612824D2*
X3207651D1*
X3184092Y675753D2*
X3207651D1*
X2503239Y1698890D2*
Y1761819D1*
X2495790Y1698890D2*
Y1761819D1*
Y1698890D2*
X2519349D1*
X2495790Y1761819D2*
X2519349D1*
X2581979Y1344559D2*
Y1407488D1*
X2574530Y1344559D2*
Y1407488D1*
Y1344559D2*
X2598089D1*
X2574530Y1407488D2*
X2598089D1*
X2506301Y946950D2*
Y1009879D1*
X2498852Y946950D2*
Y1009879D1*
Y946950D2*
X2522411D1*
X2498852Y1009879D2*
X2522411D1*
X2591163Y611409D2*
Y674339D1*
X2583714Y611409D2*
Y674339D1*
Y611409D2*
X2607273D1*
X2583714Y674339D2*
X2607273D1*
X1903836Y1699427D2*
Y1762356D1*
X1896387Y1699427D2*
Y1762356D1*
Y1699427D2*
X1919946D1*
X1896387Y1762356D2*
X1919946D1*
X1982576Y1345096D2*
Y1408025D1*
X1975127Y1345096D2*
Y1408025D1*
Y1345096D2*
X1998686D1*
X1975127Y1408025D2*
X1998686D1*
X1906898Y947487D2*
Y1010416D1*
X1899449Y947487D2*
Y1010416D1*
Y947487D2*
X1923008D1*
X1899449Y1010416D2*
X1923008D1*
X1991760Y611946D2*
Y674875D1*
X1984311Y611946D2*
Y674875D1*
Y611946D2*
X2007870D1*
X1984311Y674875D2*
X2007870D1*
X1304273Y1699083D2*
Y1762012D1*
X1296824Y1699083D2*
Y1762012D1*
Y1699083D2*
X1320383D1*
X1296824Y1762012D2*
X1320383D1*
X1383013Y1344752D2*
Y1407681D1*
X1375564Y1344752D2*
Y1407681D1*
Y1344752D2*
X1399123D1*
X1375564Y1407681D2*
X1399123D1*
X1307335Y947143D2*
Y1010072D1*
X1299886Y947143D2*
Y1010072D1*
Y947143D2*
X1323445D1*
X1299886Y1010072D2*
X1323445D1*
X1392197Y611602D2*
Y674531D1*
X1384748Y611602D2*
Y674531D1*
Y611602D2*
X1408307D1*
X1384748Y674531D2*
X1408307D1*
X703726Y1699098D2*
Y1762028D1*
X696277Y1699098D2*
Y1762028D1*
Y1699098D2*
X719836D1*
X696277Y1762028D2*
X719836D1*
X782466Y1344768D2*
Y1407697D1*
X775017Y1344768D2*
Y1407697D1*
Y1344768D2*
X798576D1*
X775017Y1407697D2*
X798576D1*
X706787Y947159D2*
Y1010088D1*
X699339Y947159D2*
Y1010088D1*
Y947159D2*
X722898D1*
X699339Y1010088D2*
X722898D1*
X791650Y611618D2*
Y674547D1*
X784201Y611618D2*
Y674547D1*
Y611618D2*
X807760D1*
X784201Y674547D2*
X807760D1*
X3016727Y1652608D2*
D18*
X3298331D1*
Y1481196D1*
X3016727D1*
Y1652608D1*
Y1264255D2*
X3298331D1*
Y1092844D1*
X3016727D1*
Y1264255D1*
Y875903D2*
X3298331D1*
Y704454D1*
X3016727D1*
Y875903D1*
X2416349Y1651193D2*
X2697953D1*
Y1479781D1*
X2416349D1*
Y1651193D1*
Y1262841D2*
X2697953D1*
Y1091429D1*
X2416349D1*
Y1262841D1*
Y874488D2*
X2697953D1*
Y703039D1*
X2416349D1*
Y874488D1*
X1816946Y1651730D2*
X2098551D1*
Y1480318D1*
X1816946D1*
Y1651730D1*
Y1263377D2*
X2098551D1*
Y1091966D1*
X1816946D1*
Y1263377D1*
Y875025D2*
X2098551D1*
Y703576D1*
X1816946D1*
Y875025D1*
X1217383Y1651386D2*
X1498988D1*
Y1479974D1*
X1217383D1*
Y1651386D1*
Y1263033D2*
X1498988D1*
Y1091622D1*
X1217383D1*
Y1263033D1*
Y874681D2*
X1498988D1*
Y703232D1*
X1217383D1*
Y874681D1*
X616836Y1651402D2*
X898440D1*
Y1479990D1*
X616836D1*
Y1651402D1*
Y1263049D2*
X898440D1*
Y1091638D1*
X616836D1*
Y1263049D1*
Y874697D2*
X898440D1*
Y703248D1*
X616836D1*
Y874697D1*
X1046892Y1212840D2*
D10*
X983963D1*
X1046892Y1205391D2*
X983963D1*
X1046892D2*
Y1228950D1*
X983963Y1205391D2*
Y1228950D1*
X1625177Y1210042D2*
X1562248D1*
X1625177Y1202593D2*
X1562248D1*
X1625177D2*
Y1226152D1*
X1562248Y1202593D2*
Y1226152D1*
X2867467Y1584177D2*
D12*
X2873467D1*
X2867467Y1582677D2*
X2873467D1*
X2822467Y1581177D2*
X2831467D1*
X2867467D2*
X2873467D1*
X2819582Y1579677D2*
X2835097D1*
X2867467D2*
X2873467D1*
X2817227Y1578177D2*
X2838277D1*
X2867467D2*
X2873467D1*
X2815343Y1576677D2*
X2840891D1*
X2867467D2*
X2873467D1*
X2813847Y1575177D2*
X2843047D1*
X2867467D2*
X2873467D1*
X2812687Y1573677D2*
X2845022D1*
X2867467D2*
X2873467D1*
X2811785Y1572177D2*
X2822768D1*
X2831167D2*
X2847002D1*
X2867467D2*
X2873467D1*
X2811093Y1570677D2*
X2820449D1*
X2834985D2*
X2848934D1*
X2867467D2*
X2873467D1*
X2810530Y1569177D2*
X2818691D1*
X2838238D2*
X2850713D1*
X2867467D2*
X2873467D1*
X2809989Y1567677D2*
X2817503D1*
X2840878D2*
X2852358D1*
X2867467D2*
X2873467D1*
X2809524Y1566177D2*
X2816700D1*
X2843043D2*
X2853924D1*
X2867467D2*
X2873467D1*
X2809231Y1564677D2*
X2816060D1*
X2845021D2*
X2855451D1*
X2867467D2*
X2873467D1*
X2809085Y1563177D2*
X2815607D1*
X2847001D2*
X2856961D1*
X2867467D2*
X2873467D1*
X2809070Y1561677D2*
X2815362D1*
X2848934D2*
X2858465D1*
X2867467D2*
X2873467D1*
X2809233Y1560177D2*
X2815660D1*
X2850713D2*
X2859961D1*
X2867467D2*
X2873467D1*
X2809582Y1558677D2*
X2816004D1*
X2852358D2*
X2861408D1*
X2867461D2*
X2873467D1*
X2809969Y1557177D2*
X2816296D1*
X2853924D2*
X2862716D1*
X2867404D2*
X2873467D1*
X2810282Y1555677D2*
X2816623D1*
X2855451D2*
X2863844D1*
X2867172D2*
X2873467D1*
X2810611Y1554177D2*
X2817101D1*
X2856961D2*
X2864898D1*
X2866660D2*
X2873467D1*
X2811040Y1552677D2*
X2817754D1*
X2858465D2*
X2873467D1*
X2811508Y1551177D2*
X2818577D1*
X2859967D2*
X2873467D1*
X2812013Y1549677D2*
X2819480D1*
X2861467D2*
X2873467D1*
X2812676Y1548177D2*
X2820279D1*
X2862967D2*
X2873467D1*
X2813467Y1546677D2*
X2820967D1*
X2864467D2*
X2873467D1*
X2865967Y1545177D2*
X2873467D1*
X2867467Y1536177D2*
X2873467D1*
X2867467Y1534677D2*
X2873467D1*
X2822467Y1533177D2*
X2831467D1*
X2867467D2*
X2873467D1*
X2819582Y1531677D2*
X2835097D1*
X2867467D2*
X2873467D1*
X2817227Y1530177D2*
X2838277D1*
X2867467D2*
X2873467D1*
X2815343Y1528677D2*
X2840891D1*
X2867467D2*
X2873467D1*
X2813847Y1527177D2*
X2843047D1*
X2867467D2*
X2873467D1*
X2812687Y1525677D2*
X2845022D1*
X2867467D2*
X2873467D1*
X2811785Y1524177D2*
X2822768D1*
X2831167D2*
X2847002D1*
X2867467D2*
X2873467D1*
X2811093Y1522677D2*
X2820449D1*
X2834985D2*
X2848934D1*
X2867467D2*
X2873467D1*
X2810530Y1521177D2*
X2818691D1*
X2838238D2*
X2850713D1*
X2867467D2*
X2873467D1*
X2809989Y1519677D2*
X2817503D1*
X2840878D2*
X2852358D1*
X2867467D2*
X2873467D1*
X2809524Y1518177D2*
X2816700D1*
X2843043D2*
X2853924D1*
X2867467D2*
X2873467D1*
X2809231Y1516677D2*
X2816060D1*
X2845021D2*
X2855451D1*
X2867467D2*
X2873467D1*
X2809085Y1515177D2*
X2815607D1*
X2847001D2*
X2856961D1*
X2867467D2*
X2873467D1*
X2809070Y1513677D2*
X2815362D1*
X2848934D2*
X2858465D1*
X2867467D2*
X2873467D1*
X2809233Y1512177D2*
X2815660D1*
X2850713D2*
X2859961D1*
X2867467D2*
X2873467D1*
X2809582Y1510677D2*
X2816004D1*
X2852358D2*
X2861408D1*
X2867461D2*
X2873467D1*
X2809969Y1509177D2*
X2816296D1*
X2853924D2*
X2862716D1*
X2867404D2*
X2873467D1*
X2810282Y1507677D2*
X2816623D1*
X2855451D2*
X2863844D1*
X2867172D2*
X2873467D1*
X2810611Y1506177D2*
X2817101D1*
X2856961D2*
X2864898D1*
X2866660D2*
X2873467D1*
X2811040Y1504677D2*
X2817754D1*
X2858465D2*
X2873467D1*
X2811508Y1503177D2*
X2818577D1*
X2859967D2*
X2873467D1*
X2812013Y1501677D2*
X2819480D1*
X2861467D2*
X2873467D1*
X2812676Y1500177D2*
X2820279D1*
X2862967D2*
X2873467D1*
X2813467Y1498677D2*
X2820967D1*
X2864467D2*
X2873467D1*
X2865967Y1497177D2*
X2873467D1*
X2832967Y1488177D2*
X2852467D1*
X2827383Y1486677D2*
X2857994D1*
X2822703Y1485177D2*
X2862482D1*
X2819020Y1483677D2*
X2865811D1*
X2816245Y1482177D2*
X2868249D1*
X2814252Y1480677D2*
X2870124D1*
X2812853Y1479177D2*
X2830915D1*
X2855041D2*
X2871605D1*
X2811850Y1477677D2*
X2825540D1*
X2859863D2*
X2872755D1*
X2811116Y1476177D2*
X2821700D1*
X2863450D2*
X2873646D1*
X2810539Y1474677D2*
X2818833D1*
X2866123D2*
X2874284D1*
X2809992Y1473177D2*
X2817609D1*
X2867333D2*
X2874655D1*
X2809525Y1471677D2*
X2816756D1*
X2868153D2*
X2874837D1*
X2809231Y1470177D2*
X2816133D1*
X2868604D2*
X2874916D1*
X2809085Y1468677D2*
X2815665D1*
X2868813D2*
X2874949D1*
X2809070Y1467177D2*
X2815821D1*
X2868852D2*
X2874961D1*
X2809233Y1465677D2*
X2816132D1*
X2868685D2*
X2874959D1*
X2809588Y1464177D2*
X2816592D1*
X2868222D2*
X2874908D1*
X2810027Y1462677D2*
X2817230D1*
X2867524D2*
X2874711D1*
X2810531Y1461177D2*
X2819052D1*
X2865721D2*
X2874294D1*
X2811232Y1459677D2*
X2822086D1*
X2862810D2*
X2873659D1*
X2812151Y1458177D2*
X2826691D1*
X2858416D2*
X2872789D1*
X2813270Y1456677D2*
X2832559D1*
X2852728D2*
X2871644D1*
X2814714Y1455177D2*
X2870208D1*
X2816630Y1453677D2*
X2868265D1*
X2819325Y1452177D2*
X2865350D1*
X2823418Y1450677D2*
X2860951D1*
X2829210Y1449177D2*
X2854917D1*
X2835967Y1447677D2*
X2847967D1*
X2867467Y1440177D2*
X2873467D1*
X2867467Y1438677D2*
X2873467D1*
X2822467Y1437177D2*
X2831467D1*
X2867467D2*
X2873467D1*
X2819582Y1435677D2*
X2835097D1*
X2867467D2*
X2873467D1*
X2817227Y1434177D2*
X2838277D1*
X2867467D2*
X2873467D1*
X2815343Y1432677D2*
X2840891D1*
X2867467D2*
X2873467D1*
X2813847Y1431177D2*
X2843047D1*
X2867467D2*
X2873467D1*
X2812687Y1429677D2*
X2845022D1*
X2867467D2*
X2873467D1*
X2811785Y1428177D2*
X2822768D1*
X2831167D2*
X2847002D1*
X2867467D2*
X2873467D1*
X2811093Y1426677D2*
X2820449D1*
X2834985D2*
X2848934D1*
X2867467D2*
X2873467D1*
X2810530Y1425177D2*
X2818691D1*
X2838238D2*
X2850713D1*
X2867467D2*
X2873467D1*
X2809989Y1423677D2*
X2817503D1*
X2840878D2*
X2852358D1*
X2867467D2*
X2873467D1*
X2809524Y1422177D2*
X2816700D1*
X2843043D2*
X2853924D1*
X2867467D2*
X2873467D1*
X2809231Y1420677D2*
X2816060D1*
X2845021D2*
X2855451D1*
X2867467D2*
X2873467D1*
X2809085Y1419177D2*
X2815607D1*
X2847001D2*
X2856961D1*
X2867467D2*
X2873467D1*
X2809070Y1417677D2*
X2815362D1*
X2848934D2*
X2858465D1*
X2867467D2*
X2873467D1*
X2809233Y1416177D2*
X2815660D1*
X2850713D2*
X2859961D1*
X2867467D2*
X2873467D1*
X2809582Y1414677D2*
X2816004D1*
X2852358D2*
X2861408D1*
X2867461D2*
X2873467D1*
X2809969Y1413177D2*
X2816296D1*
X2853924D2*
X2862716D1*
X2867404D2*
X2873467D1*
X2810282Y1411677D2*
X2816623D1*
X2855451D2*
X2863844D1*
X2867172D2*
X2873467D1*
X2810611Y1410177D2*
X2817101D1*
X2856961D2*
X2864898D1*
X2866660D2*
X2873467D1*
X2811040Y1408677D2*
X2817754D1*
X2858465D2*
X2873467D1*
X2811508Y1407177D2*
X2818577D1*
X2859967D2*
X2873467D1*
X2812013Y1405677D2*
X2819480D1*
X2861467D2*
X2873467D1*
X2812676Y1404177D2*
X2820279D1*
X2862967D2*
X2873467D1*
X2813467Y1402677D2*
X2820967D1*
X2864467D2*
X2873467D1*
X2865967Y1401177D2*
X2873467D1*
X2835967Y1363677D2*
X2855467D1*
X2832973Y1362177D2*
X2859097D1*
X2830032Y1360677D2*
X2862282D1*
X2827281Y1359177D2*
X2839563D1*
X2853847D2*
X2864944D1*
X2824890Y1357677D2*
X2834867D1*
X2857898D2*
X2867232D1*
X2822884Y1356177D2*
X2831112D1*
X2861371D2*
X2869323D1*
X2821145Y1354677D2*
X2828234D1*
X2864243D2*
X2871137D1*
X2819592Y1353177D2*
X2826016D1*
X2866617D2*
X2872586D1*
X2818241Y1351677D2*
X2824188D1*
X2868584D2*
X2873853D1*
X2817091Y1350177D2*
X2822551D1*
X2870254D2*
X2875108D1*
X2816022Y1348677D2*
X2821003D1*
X2871658D2*
X2876300D1*
X2814979Y1347177D2*
X2819536D1*
X2872831D2*
X2877336D1*
X2814035Y1345677D2*
X2818226D1*
X2873907D2*
X2878232D1*
X2813227Y1344177D2*
X2817142D1*
X2874954D2*
X2879043D1*
X2812571Y1342677D2*
X2816270D1*
X2875899D2*
X2879773D1*
X2812023Y1341177D2*
X2815587D1*
X2828467D2*
X2834467D1*
X2856967D2*
X2862967D1*
X2876707D2*
X2880390D1*
X2811486Y1339677D2*
X2815029D1*
X2827954D2*
X2833897D1*
X2857897D2*
X2863891D1*
X2877363D2*
X2880922D1*
X2811018Y1338177D2*
X2814488D1*
X2827502D2*
X2833259D1*
X2858753D2*
X2864694D1*
X2877911D2*
X2881452D1*
X2810672Y1336677D2*
X2814024D1*
X2827165D2*
X2832609D1*
X2859550D2*
X2865300D1*
X2878448D2*
X2881912D1*
X2810330Y1335177D2*
X2813725D1*
X2826827D2*
X2832024D1*
X2860269D2*
X2865660D1*
X2878911D2*
X2882204D1*
X2809902Y1333677D2*
X2813521D1*
X2826401D2*
X2831505D1*
X2860832D2*
X2865838D1*
X2879204D2*
X2882355D1*
X2809490Y1332177D2*
X2813262D1*
X2825990D2*
X2830986D1*
X2861172D2*
X2865917D1*
X2879355D2*
X2882423D1*
X2809218Y1330677D2*
X2812875D1*
X2825718D2*
X2830580D1*
X2861343D2*
X2865949D1*
X2879423D2*
X2882451D1*
X2809075Y1329177D2*
X2812485D1*
X2825581D2*
X2830357D1*
X2861413D2*
X2865961D1*
X2879451D2*
X2882461D1*
X2809016Y1327677D2*
X2812273D1*
X2825569D2*
X2830664D1*
X2861391D2*
X2865965D1*
X2879461D2*
X2882465D1*
X2809042Y1326177D2*
X2812323D1*
X2825733D2*
X2831062D1*
X2861199D2*
X2865961D1*
X2879465D2*
X2882467D1*
X2809223Y1324677D2*
X2812618D1*
X2826088D2*
X2831557D1*
X2860733D2*
X2865908D1*
X2879461D2*
X2882467D1*
X2809578Y1323177D2*
X2812982D1*
X2826527D2*
X2832200D1*
X2860048D2*
X2865712D1*
X2879408D2*
X2882467D1*
X2809961Y1321677D2*
X2813287D1*
X2827031D2*
X2833718D1*
X2858548D2*
X2865294D1*
X2879217D2*
X2882461D1*
X2810228Y1320177D2*
X2813613D1*
X2827726D2*
X2838626D1*
X2854057D2*
X2864659D1*
X2878852D2*
X2882409D1*
X2810420Y1318677D2*
X2814041D1*
X2828598D2*
X2846745D1*
X2846717D2*
X2863789D1*
X2878415D2*
X2882212D1*
X2810681Y1317177D2*
X2814504D1*
X2829579D2*
X2862650D1*
X2877956D2*
X2881800D1*
X2811119Y1315677D2*
X2814972D1*
X2830854D2*
X2861267D1*
X2877405D2*
X2881218D1*
X2811711Y1314177D2*
X2815533D1*
X2832720D2*
X2859540D1*
X2876760D2*
X2880544D1*
X2812388Y1312677D2*
X2816232D1*
X2835290D2*
X2857236D1*
X2876054D2*
X2879824D1*
X2813110Y1311177D2*
X2817130D1*
X2838475D2*
X2854277D1*
X2875271D2*
X2879081D1*
X2813854Y1309677D2*
X2818273D1*
X2841967D2*
X2850967D1*
X2874333D2*
X2878287D1*
X2814653Y1308177D2*
X2819595D1*
X2873172D2*
X2877395D1*
X2815598Y1306677D2*
X2821017D1*
X2871843D2*
X2876424D1*
X2816761Y1305177D2*
X2822491D1*
X2870413D2*
X2875453D1*
X2818091Y1303677D2*
X2824038D1*
X2868885D2*
X2874406D1*
X2819521Y1302177D2*
X2825789D1*
X2867141D2*
X2873146D1*
X2821044Y1300677D2*
X2828020D1*
X2864913D2*
X2871600D1*
X2822729Y1299177D2*
X2831391D1*
X2861543D2*
X2869749D1*
X2824649Y1297677D2*
X2837299D1*
X2855635D2*
X2867643D1*
X2826838Y1296177D2*
X2846790D1*
X2846145D2*
X2865283D1*
X2829436Y1294677D2*
X2862655D1*
X2832555Y1293177D2*
X2859847D1*
X2835967Y1291677D2*
X2856967D1*
X2810467Y1285677D2*
X2811967D1*
X2810467Y1284177D2*
X2814397D1*
X2810479Y1282677D2*
X2816759D1*
X2810590Y1281177D2*
X2819109D1*
X2810854Y1279677D2*
X2821524D1*
X2812018Y1278177D2*
X2824005D1*
X2813675Y1276677D2*
X2826474D1*
X2815756Y1275177D2*
X2828963D1*
X2818094Y1273677D2*
X2831480D1*
X2820506Y1272177D2*
X2833964D1*
X2822974Y1270677D2*
X2836453D1*
X2825484Y1269177D2*
X2838915D1*
X2827971Y1267677D2*
X2841161D1*
X2830518Y1266177D2*
X2843131D1*
X2833227Y1264677D2*
X2873467D1*
X2836069Y1263177D2*
X2873467D1*
X2838967Y1261677D2*
X2873467D1*
X2836891Y1260177D2*
X2873467D1*
X2834700Y1258677D2*
X2873467D1*
X2832359Y1257177D2*
X2873467D1*
X2829910Y1255677D2*
X2845024D1*
X2827453Y1254177D2*
X2842217D1*
X2824969Y1252677D2*
X2839582D1*
X2822454Y1251177D2*
X2837019D1*
X2819970Y1249677D2*
X2834472D1*
X2817487Y1248177D2*
X2831976D1*
X2815085Y1246677D2*
X2829477D1*
X2813093Y1245177D2*
X2826956D1*
X2811536Y1243677D2*
X2824465D1*
X2810983Y1242177D2*
X2821923D1*
X2810685Y1240677D2*
X2819269D1*
X2810552Y1239177D2*
X2816651D1*
X2810497Y1237677D2*
X2814234D1*
X2810467Y1236177D2*
X2811967D1*
X2841967Y1231677D2*
X2868967D1*
X2814967Y1230177D2*
X2823967D1*
X2841967D2*
X2870178D1*
X2814043Y1228677D2*
X2822705D1*
X2841967D2*
X2871108D1*
X2813234Y1227177D2*
X2821629D1*
X2841967D2*
X2871802D1*
X2812575Y1225677D2*
X2820715D1*
X2841967D2*
X2872410D1*
X2812025Y1224177D2*
X2819890D1*
X2841967D2*
X2872953D1*
X2811487Y1222677D2*
X2819111D1*
X2841967D2*
X2847967D1*
X2867699D2*
X2873448D1*
X2811018Y1221177D2*
X2818354D1*
X2841967D2*
X2847967D1*
X2868071D2*
X2873962D1*
X2810672Y1219677D2*
X2817654D1*
X2841967D2*
X2847967D1*
X2868459D2*
X2874416D1*
X2810330Y1218177D2*
X2817092D1*
X2841967D2*
X2847967D1*
X2868722D2*
X2874706D1*
X2809902Y1216677D2*
X2816702D1*
X2841967D2*
X2847967D1*
X2868861D2*
X2874856D1*
X2809490Y1215177D2*
X2816341D1*
X2841967D2*
X2847967D1*
X2868925D2*
X2874923D1*
X2809218Y1213677D2*
X2815907D1*
X2841967D2*
X2847967D1*
X2868951D2*
X2874951D1*
X2809075Y1212177D2*
X2815497D1*
X2841967D2*
X2847967D1*
X2868962D2*
X2874961D1*
X2809016Y1210677D2*
X2815277D1*
X2841967D2*
X2847967D1*
X2868965D2*
X2874965D1*
X2809042Y1209177D2*
X2815325D1*
X2841967D2*
X2847967D1*
X2868967D2*
X2874967D1*
X2809223Y1207677D2*
X2815619D1*
X2868961D2*
X2874967D1*
X2809578Y1206177D2*
X2815983D1*
X2868909D2*
X2874967D1*
X2809967Y1204677D2*
X2816293D1*
X2868712D2*
X2874961D1*
X2810281Y1203177D2*
X2816672D1*
X2868294D2*
X2874909D1*
X2810611Y1201677D2*
X2817290D1*
X2867659D2*
X2874712D1*
X2811040Y1200177D2*
X2818119D1*
X2866789D2*
X2874300D1*
X2811509Y1198677D2*
X2819031D1*
X2865656D2*
X2873718D1*
X2812025Y1197177D2*
X2820102D1*
X2864331D2*
X2873044D1*
X2812724Y1195677D2*
X2821556D1*
X2862846D2*
X2872324D1*
X2813592Y1194177D2*
X2823569D1*
X2861070D2*
X2871581D1*
X2814514Y1192677D2*
X2826243D1*
X2858724D2*
X2870781D1*
X2815540Y1191177D2*
X2829573D1*
X2855632D2*
X2869831D1*
X2816799Y1189677D2*
X2833412D1*
X2851931D2*
X2868609D1*
X2818395Y1188177D2*
X2867029D1*
X2820441Y1186677D2*
X2864984D1*
X2822964Y1185177D2*
X2862406D1*
X2825939Y1183677D2*
X2859200D1*
X2829339Y1182177D2*
X2855288D1*
X2832967Y1180677D2*
X2850967D1*
Y1173177D2*
X2861467D1*
X2820967Y1171677D2*
X2829967D1*
X2848781D2*
X2864352D1*
X2818319Y1170177D2*
X2832160D1*
X2846903D2*
X2866714D1*
X2816134Y1168677D2*
X2834096D1*
X2845370D2*
X2868644D1*
X2814497Y1167177D2*
X2835871D1*
X2844076D2*
X2870284D1*
X2813197Y1165677D2*
X2837700D1*
X2842693D2*
X2871666D1*
X2812103Y1164177D2*
X2839753D1*
X2840949D2*
X2852768D1*
X2862672D2*
X2872777D1*
X2811303Y1162677D2*
X2819473D1*
X2833193D2*
X2850443D1*
X2865044D2*
X2873654D1*
X2810792Y1161177D2*
X2818032D1*
X2835001D2*
X2848638D1*
X2866988D2*
X2874287D1*
X2810377Y1159677D2*
X2816776D1*
X2836586D2*
X2847306D1*
X2868481D2*
X2874655D1*
X2809920Y1158177D2*
X2815832D1*
X2837805D2*
X2846283D1*
X2869645D2*
X2874837D1*
X2809496Y1156677D2*
X2815140D1*
X2837977D2*
X2845420D1*
X2870068D2*
X2874917D1*
X2809220Y1155177D2*
X2814589D1*
X2837554D2*
X2844672D1*
X2870297D2*
X2874949D1*
X2809081Y1153677D2*
X2814157D1*
X2836975D2*
X2844048D1*
X2870395D2*
X2874961D1*
X2809069Y1152177D2*
X2814318D1*
X2836297D2*
X2843520D1*
X2870384D2*
X2874965D1*
X2809233Y1150677D2*
X2814631D1*
X2835571D2*
X2843047D1*
X2870203D2*
X2874966D1*
X2809588Y1149177D2*
X2815079D1*
X2834777D2*
X2842670D1*
X2869791D2*
X2874961D1*
X2810021Y1147677D2*
X2815836D1*
X2833800D2*
X2842958D1*
X2869153D2*
X2874909D1*
X2810479Y1146177D2*
X2816898D1*
X2832598D2*
X2844114D1*
X2868183D2*
X2874712D1*
X2811035Y1144677D2*
X2819812D1*
X2829651D2*
X2845685D1*
X2866859D2*
X2874294D1*
X2811733Y1143177D2*
X2824350D1*
X2825095D2*
X2850307D1*
X2862971D2*
X2873659D1*
X2812630Y1141677D2*
X2838967D1*
X2842262D2*
X2857367D1*
X2856919D2*
X2872789D1*
X2813784Y1140177D2*
X2837461D1*
X2842891D2*
X2871656D1*
X2815221Y1138677D2*
X2835904D1*
X2843947D2*
X2870326D1*
X2817107Y1137177D2*
X2834172D1*
X2845453D2*
X2868791D1*
X2819600Y1135677D2*
X2832160D1*
X2847451D2*
X2866859D1*
X2822467Y1134177D2*
X2829967D1*
X2849867D2*
X2864346D1*
X2852467Y1132677D2*
X2861467D1*
X2814967Y1126677D2*
X2823967D1*
X2862967D2*
X2870467D1*
X2814037Y1125177D2*
X2822524D1*
X2863718D2*
X2871391D1*
X2813182Y1123677D2*
X2821222D1*
X2864589D2*
X2872200D1*
X2812384Y1122177D2*
X2820135D1*
X2865453D2*
X2872859D1*
X2811666Y1120677D2*
X2819216D1*
X2866227D2*
X2873410D1*
X2811096Y1119177D2*
X2818396D1*
X2866870D2*
X2873947D1*
X2810704Y1117677D2*
X2817669D1*
X2867414D2*
X2874411D1*
X2810342Y1116177D2*
X2817098D1*
X2867949D2*
X2874704D1*
X2809907Y1114677D2*
X2816704D1*
X2868411D2*
X2874855D1*
X2809492Y1113177D2*
X2816342D1*
X2868704D2*
X2874923D1*
X2809218Y1111677D2*
X2815913D1*
X2868855D2*
X2874951D1*
X2809075Y1110177D2*
X2815550D1*
X2868923D2*
X2874961D1*
X2809016Y1108677D2*
X2815468D1*
X2868951D2*
X2874965D1*
X2809042Y1107177D2*
X2815684D1*
X2868955D2*
X2874967D1*
X2809223Y1105677D2*
X2816009D1*
X2868907D2*
X2874967D1*
X2809578Y1104177D2*
X2816297D1*
X2868711D2*
X2874961D1*
X2809967Y1102677D2*
X2816623D1*
X2868299D2*
X2874909D1*
X2810281Y1101177D2*
X2817101D1*
X2867718D2*
X2874717D1*
X2810617Y1099677D2*
X2817760D1*
X2867033D2*
X2874352D1*
X2811093Y1098177D2*
X2818646D1*
X2866206D2*
X2873909D1*
X2811701Y1096677D2*
X2819841D1*
X2865075D2*
X2873404D1*
X2812390Y1095177D2*
X2821417D1*
X2863492D2*
X2872708D1*
X2813167Y1093677D2*
X2823505D1*
X2861471D2*
X2871842D1*
X2814103Y1092177D2*
X2826216D1*
X2858926D2*
X2870920D1*
X2815268Y1090677D2*
X2829563D1*
X2855722D2*
X2869894D1*
X2816650Y1089177D2*
X2833408D1*
X2851965D2*
X2868641D1*
X2818277Y1087677D2*
X2867092D1*
X2820223Y1086177D2*
X2865185D1*
X2822595Y1084677D2*
X2862829D1*
X2825561Y1083177D2*
X2859870D1*
X2829125Y1081677D2*
X2856308D1*
X2832967Y1080177D2*
X2852467D1*
X2870467Y1075677D2*
X2873467D1*
X2865967Y1074177D2*
X2873467D1*
X2861467Y1072677D2*
X2873450D1*
X2856967Y1071177D2*
X2873274D1*
X2852467Y1069677D2*
X2872852D1*
X2847967Y1068177D2*
X2870779D1*
X2843467Y1066677D2*
X2867755D1*
X2838967Y1065177D2*
X2864150D1*
X2834467Y1063677D2*
X2860712D1*
X2829967Y1062177D2*
X2857774D1*
X2825479Y1060677D2*
X2856397D1*
X2821102Y1059177D2*
X2846461D1*
X2849467D2*
X2855901D1*
X2817160Y1057677D2*
X2841909D1*
X2849467D2*
X2855645D1*
X2814128Y1056177D2*
X2837223D1*
X2849467D2*
X2855534D1*
X2811878Y1054677D2*
X2832421D1*
X2849467D2*
X2855491D1*
X2811142Y1053177D2*
X2827764D1*
X2849467D2*
X2855475D1*
X2810750Y1051677D2*
X2823493D1*
X2849467D2*
X2855470D1*
X2810588Y1050177D2*
X2819467D1*
X2849467D2*
X2855468D1*
X2810642Y1048677D2*
X2823788D1*
X2849467D2*
X2855467D1*
X2810908Y1047177D2*
X2828303D1*
X2849467D2*
X2855467D1*
X2812239Y1045677D2*
X2832875D1*
X2849461D2*
X2855467D1*
X2815127Y1044177D2*
X2837483D1*
X2849404D2*
X2855467D1*
X2818704Y1042677D2*
X2842242D1*
X2849172D2*
X2855485D1*
X2822766Y1041177D2*
X2847267D1*
X2848660D2*
X2855661D1*
X2827081Y1039677D2*
X2856082D1*
X2831508Y1038177D2*
X2858155D1*
X2835981Y1036677D2*
X2861180D1*
X2840472Y1035177D2*
X2864785D1*
X2844969Y1033677D2*
X2868222D1*
X2849468Y1032177D2*
X2871160D1*
X2853967Y1030677D2*
X2872537D1*
X2858467Y1029177D2*
X2873034D1*
X2862967Y1027677D2*
X2873290D1*
X2867467Y1026177D2*
X2873404D1*
X2871967Y1024677D2*
X2873467D1*
X2867467Y1584177D2*
Y1582677D1*
Y1581177D1*
Y1579677D1*
Y1578177D1*
Y1576677D1*
Y1575177D1*
Y1573677D1*
Y1572177D1*
Y1570677D1*
Y1569177D1*
Y1567677D1*
Y1566177D1*
Y1564677D1*
Y1563177D1*
Y1561677D1*
Y1560177D1*
X2867461Y1558677D1*
X2867404Y1557177D1*
X2867172Y1555677D1*
X2866660Y1554177D1*
X2865967Y1552677D1*
X2873467Y1584177D2*
Y1582677D1*
Y1581177D1*
Y1579677D1*
Y1578177D1*
Y1576677D1*
Y1575177D1*
Y1573677D1*
Y1572177D1*
Y1570677D1*
Y1569177D1*
Y1567677D1*
Y1566177D1*
Y1564677D1*
Y1563177D1*
Y1561677D1*
Y1560177D1*
Y1558677D1*
Y1557177D1*
Y1555677D1*
Y1554177D1*
Y1552677D1*
Y1551177D1*
Y1549677D1*
Y1548177D1*
Y1546677D1*
Y1545177D1*
X2822467Y1581177D2*
X2819582Y1579677D1*
X2817227Y1578177D1*
X2815343Y1576677D1*
X2813847Y1575177D1*
X2812687Y1573677D1*
X2811785Y1572177D1*
X2811093Y1570677D1*
X2810530Y1569177D1*
X2809989Y1567677D1*
X2809524Y1566177D1*
X2809231Y1564677D1*
X2809085Y1563177D1*
X2809070Y1561677D1*
X2809233Y1560177D1*
X2809582Y1558677D1*
X2809969Y1557177D1*
X2810282Y1555677D1*
X2810611Y1554177D1*
X2811040Y1552677D1*
X2811508Y1551177D1*
X2812013Y1549677D1*
X2812676Y1548177D1*
X2813467Y1546677D1*
X2831467Y1581177D2*
X2835097Y1579677D1*
X2838277Y1578177D1*
X2840891Y1576677D1*
X2843047Y1575177D1*
X2845022Y1573677D1*
X2847002Y1572177D1*
X2848934Y1570677D1*
X2850713Y1569177D1*
X2852358Y1567677D1*
X2853924Y1566177D1*
X2855451Y1564677D1*
X2856961Y1563177D1*
X2858465Y1561677D1*
X2859961Y1560177D1*
X2861408Y1558677D1*
X2862716Y1557177D1*
X2863844Y1555677D1*
X2864898Y1554177D1*
X2865967Y1552677D1*
X2825467Y1573677D2*
X2822768Y1572177D1*
X2820449Y1570677D1*
X2818691Y1569177D1*
X2817503Y1567677D1*
X2816700Y1566177D1*
X2816060Y1564677D1*
X2815607Y1563177D1*
X2815362Y1561677D1*
X2815660Y1560177D1*
X2816004Y1558677D1*
X2816296Y1557177D1*
X2816623Y1555677D1*
X2817101Y1554177D1*
X2817754Y1552677D1*
X2818577Y1551177D1*
X2819480Y1549677D1*
X2820279Y1548177D1*
X2820967Y1546677D1*
X2826967Y1573677D2*
X2831167Y1572177D1*
X2834985Y1570677D1*
X2838238Y1569177D1*
X2840878Y1567677D1*
X2843043Y1566177D1*
X2845021Y1564677D1*
X2847001Y1563177D1*
X2848934Y1561677D1*
X2850713Y1560177D1*
X2852358Y1558677D1*
X2853924Y1557177D1*
X2855451Y1555677D1*
X2856961Y1554177D1*
X2858465Y1552677D1*
X2859967Y1551177D1*
X2861467Y1549677D1*
X2862967Y1548177D1*
X2864467Y1546677D1*
X2865967Y1545177D1*
X2867467Y1536177D2*
Y1534677D1*
Y1533177D1*
Y1531677D1*
Y1530177D1*
Y1528677D1*
Y1527177D1*
Y1525677D1*
Y1524177D1*
Y1522677D1*
Y1521177D1*
Y1519677D1*
Y1518177D1*
Y1516677D1*
Y1515177D1*
Y1513677D1*
Y1512177D1*
X2867461Y1510677D1*
X2867404Y1509177D1*
X2867172Y1507677D1*
X2866660Y1506177D1*
X2865967Y1504677D1*
X2873467Y1536177D2*
Y1534677D1*
Y1533177D1*
Y1531677D1*
Y1530177D1*
Y1528677D1*
Y1527177D1*
Y1525677D1*
Y1524177D1*
Y1522677D1*
Y1521177D1*
Y1519677D1*
Y1518177D1*
Y1516677D1*
Y1515177D1*
Y1513677D1*
Y1512177D1*
Y1510677D1*
Y1509177D1*
Y1507677D1*
Y1506177D1*
Y1504677D1*
Y1503177D1*
Y1501677D1*
Y1500177D1*
Y1498677D1*
Y1497177D1*
X2822467Y1533177D2*
X2819582Y1531677D1*
X2817227Y1530177D1*
X2815343Y1528677D1*
X2813847Y1527177D1*
X2812687Y1525677D1*
X2811785Y1524177D1*
X2811093Y1522677D1*
X2810530Y1521177D1*
X2809989Y1519677D1*
X2809524Y1518177D1*
X2809231Y1516677D1*
X2809085Y1515177D1*
X2809070Y1513677D1*
X2809233Y1512177D1*
X2809582Y1510677D1*
X2809969Y1509177D1*
X2810282Y1507677D1*
X2810611Y1506177D1*
X2811040Y1504677D1*
X2811508Y1503177D1*
X2812013Y1501677D1*
X2812676Y1500177D1*
X2813467Y1498677D1*
X2831467Y1533177D2*
X2835097Y1531677D1*
X2838277Y1530177D1*
X2840891Y1528677D1*
X2843047Y1527177D1*
X2845022Y1525677D1*
X2847002Y1524177D1*
X2848934Y1522677D1*
X2850713Y1521177D1*
X2852358Y1519677D1*
X2853924Y1518177D1*
X2855451Y1516677D1*
X2856961Y1515177D1*
X2858465Y1513677D1*
X2859961Y1512177D1*
X2861408Y1510677D1*
X2862716Y1509177D1*
X2863844Y1507677D1*
X2864898Y1506177D1*
X2865967Y1504677D1*
X2825467Y1525677D2*
X2822768Y1524177D1*
X2820449Y1522677D1*
X2818691Y1521177D1*
X2817503Y1519677D1*
X2816700Y1518177D1*
X2816060Y1516677D1*
X2815607Y1515177D1*
X2815362Y1513677D1*
X2815660Y1512177D1*
X2816004Y1510677D1*
X2816296Y1509177D1*
X2816623Y1507677D1*
X2817101Y1506177D1*
X2817754Y1504677D1*
X2818577Y1503177D1*
X2819480Y1501677D1*
X2820279Y1500177D1*
X2820967Y1498677D1*
X2826967Y1525677D2*
X2831167Y1524177D1*
X2834985Y1522677D1*
X2838238Y1521177D1*
X2840878Y1519677D1*
X2843043Y1518177D1*
X2845021Y1516677D1*
X2847001Y1515177D1*
X2848934Y1513677D1*
X2850713Y1512177D1*
X2852358Y1510677D1*
X2853924Y1509177D1*
X2855451Y1507677D1*
X2856961Y1506177D1*
X2858465Y1504677D1*
X2859967Y1503177D1*
X2861467Y1501677D1*
X2862967Y1500177D1*
X2864467Y1498677D1*
X2865967Y1497177D1*
X2832967Y1488177D2*
X2827383Y1486677D1*
X2822703Y1485177D1*
X2819020Y1483677D1*
X2816245Y1482177D1*
X2814252Y1480677D1*
X2812853Y1479177D1*
X2811850Y1477677D1*
X2811116Y1476177D1*
X2810539Y1474677D1*
X2809992Y1473177D1*
X2809525Y1471677D1*
X2809231Y1470177D1*
X2809085Y1468677D1*
X2809070Y1467177D1*
X2809233Y1465677D1*
X2809588Y1464177D1*
X2810027Y1462677D1*
X2810531Y1461177D1*
X2811232Y1459677D1*
X2812151Y1458177D1*
X2813270Y1456677D1*
X2814714Y1455177D1*
X2816630Y1453677D1*
X2819325Y1452177D1*
X2823418Y1450677D1*
X2829210Y1449177D1*
X2835967Y1447677D1*
X2852467Y1488177D2*
X2857994Y1486677D1*
X2862482Y1485177D1*
X2865811Y1483677D1*
X2868249Y1482177D1*
X2870124Y1480677D1*
X2871605Y1479177D1*
X2872755Y1477677D1*
X2873646Y1476177D1*
X2874284Y1474677D1*
X2874655Y1473177D1*
X2874837Y1471677D1*
X2874916Y1470177D1*
X2874949Y1468677D1*
X2874961Y1467177D1*
X2874959Y1465677D1*
X2874908Y1464177D1*
X2874711Y1462677D1*
X2874294Y1461177D1*
X2873659Y1459677D1*
X2872789Y1458177D1*
X2871644Y1456677D1*
X2870208Y1455177D1*
X2868265Y1453677D1*
X2865350Y1452177D1*
X2860951Y1450677D1*
X2854917Y1449177D1*
X2847967Y1447677D1*
X2837467Y1480677D2*
X2830915Y1479177D1*
X2825540Y1477677D1*
X2821700Y1476177D1*
X2818833Y1474677D1*
X2817609Y1473177D1*
X2816756Y1471677D1*
X2816133Y1470177D1*
X2815665Y1468677D1*
X2815821Y1467177D1*
X2816132Y1465677D1*
X2816592Y1464177D1*
X2817230Y1462677D1*
X2819052Y1461177D1*
X2822086Y1459677D1*
X2826691Y1458177D1*
X2832559Y1456677D1*
X2838967Y1455177D1*
X2849467Y1480677D2*
X2855041Y1479177D1*
X2859863Y1477677D1*
X2863450Y1476177D1*
X2866123Y1474677D1*
X2867333Y1473177D1*
X2868153Y1471677D1*
X2868604Y1470177D1*
X2868813Y1468677D1*
X2868852Y1467177D1*
X2868685Y1465677D1*
X2868222Y1464177D1*
X2867524Y1462677D1*
X2865721Y1461177D1*
X2862810Y1459677D1*
X2858416Y1458177D1*
X2852728Y1456677D1*
X2846467Y1455177D1*
X2867467Y1440177D2*
Y1438677D1*
Y1437177D1*
Y1435677D1*
Y1434177D1*
Y1432677D1*
Y1431177D1*
Y1429677D1*
Y1428177D1*
Y1426677D1*
Y1425177D1*
Y1423677D1*
Y1422177D1*
Y1420677D1*
Y1419177D1*
Y1417677D1*
Y1416177D1*
X2867461Y1414677D1*
X2867404Y1413177D1*
X2867172Y1411677D1*
X2866660Y1410177D1*
X2865967Y1408677D1*
X2873467Y1440177D2*
Y1438677D1*
Y1437177D1*
Y1435677D1*
Y1434177D1*
Y1432677D1*
Y1431177D1*
Y1429677D1*
Y1428177D1*
Y1426677D1*
Y1425177D1*
Y1423677D1*
Y1422177D1*
Y1420677D1*
Y1419177D1*
Y1417677D1*
Y1416177D1*
Y1414677D1*
Y1413177D1*
Y1411677D1*
Y1410177D1*
Y1408677D1*
Y1407177D1*
Y1405677D1*
Y1404177D1*
Y1402677D1*
Y1401177D1*
X2822467Y1437177D2*
X2819582Y1435677D1*
X2817227Y1434177D1*
X2815343Y1432677D1*
X2813847Y1431177D1*
X2812687Y1429677D1*
X2811785Y1428177D1*
X2811093Y1426677D1*
X2810530Y1425177D1*
X2809989Y1423677D1*
X2809524Y1422177D1*
X2809231Y1420677D1*
X2809085Y1419177D1*
X2809070Y1417677D1*
X2809233Y1416177D1*
X2809582Y1414677D1*
X2809969Y1413177D1*
X2810282Y1411677D1*
X2810611Y1410177D1*
X2811040Y1408677D1*
X2811508Y1407177D1*
X2812013Y1405677D1*
X2812676Y1404177D1*
X2813467Y1402677D1*
X2831467Y1437177D2*
X2835097Y1435677D1*
X2838277Y1434177D1*
X2840891Y1432677D1*
X2843047Y1431177D1*
X2845022Y1429677D1*
X2847002Y1428177D1*
X2848934Y1426677D1*
X2850713Y1425177D1*
X2852358Y1423677D1*
X2853924Y1422177D1*
X2855451Y1420677D1*
X2856961Y1419177D1*
X2858465Y1417677D1*
X2859961Y1416177D1*
X2861408Y1414677D1*
X2862716Y1413177D1*
X2863844Y1411677D1*
X2864898Y1410177D1*
X2865967Y1408677D1*
X2825467Y1429677D2*
X2822768Y1428177D1*
X2820449Y1426677D1*
X2818691Y1425177D1*
X2817503Y1423677D1*
X2816700Y1422177D1*
X2816060Y1420677D1*
X2815607Y1419177D1*
X2815362Y1417677D1*
X2815660Y1416177D1*
X2816004Y1414677D1*
X2816296Y1413177D1*
X2816623Y1411677D1*
X2817101Y1410177D1*
X2817754Y1408677D1*
X2818577Y1407177D1*
X2819480Y1405677D1*
X2820279Y1404177D1*
X2820967Y1402677D1*
X2826967Y1429677D2*
X2831167Y1428177D1*
X2834985Y1426677D1*
X2838238Y1425177D1*
X2840878Y1423677D1*
X2843043Y1422177D1*
X2845021Y1420677D1*
X2847001Y1419177D1*
X2848934Y1417677D1*
X2850713Y1416177D1*
X2852358Y1414677D1*
X2853924Y1413177D1*
X2855451Y1411677D1*
X2856961Y1410177D1*
X2858465Y1408677D1*
X2859967Y1407177D1*
X2861467Y1405677D1*
X2862967Y1404177D1*
X2864467Y1402677D1*
X2865967Y1401177D1*
X2835967Y1363677D2*
X2832973Y1362177D1*
X2830032Y1360677D1*
X2827281Y1359177D1*
X2824890Y1357677D1*
X2822884Y1356177D1*
X2821145Y1354677D1*
X2819592Y1353177D1*
X2818241Y1351677D1*
X2817091Y1350177D1*
X2816022Y1348677D1*
X2814979Y1347177D1*
X2814035Y1345677D1*
X2813227Y1344177D1*
X2812571Y1342677D1*
X2812023Y1341177D1*
X2811486Y1339677D1*
X2811018Y1338177D1*
X2810672Y1336677D1*
X2810330Y1335177D1*
X2809902Y1333677D1*
X2809490Y1332177D1*
X2809218Y1330677D1*
X2809075Y1329177D1*
X2809016Y1327677D1*
X2809042Y1326177D1*
X2809223Y1324677D1*
X2809578Y1323177D1*
X2809961Y1321677D1*
X2810228Y1320177D1*
X2810420Y1318677D1*
X2810681Y1317177D1*
X2811119Y1315677D1*
X2811711Y1314177D1*
X2812388Y1312677D1*
X2813110Y1311177D1*
X2813854Y1309677D1*
X2814653Y1308177D1*
X2815598Y1306677D1*
X2816761Y1305177D1*
X2818091Y1303677D1*
X2819521Y1302177D1*
X2821044Y1300677D1*
X2822729Y1299177D1*
X2824649Y1297677D1*
X2826838Y1296177D1*
X2829436Y1294677D1*
X2832555Y1293177D1*
X2835967Y1291677D1*
X2855467Y1363677D2*
X2859097Y1362177D1*
X2862282Y1360677D1*
X2864944Y1359177D1*
X2867232Y1357677D1*
X2869323Y1356177D1*
X2871137Y1354677D1*
X2872586Y1353177D1*
X2873853Y1351677D1*
X2875108Y1350177D1*
X2876300Y1348677D1*
X2877336Y1347177D1*
X2878232Y1345677D1*
X2879043Y1344177D1*
X2879773Y1342677D1*
X2880390Y1341177D1*
X2880922Y1339677D1*
X2881452Y1338177D1*
X2881912Y1336677D1*
X2882204Y1335177D1*
X2882355Y1333677D1*
X2882423Y1332177D1*
X2882451Y1330677D1*
X2882461Y1329177D1*
X2882465Y1327677D1*
X2882467Y1326177D1*
Y1324677D1*
Y1323177D1*
X2882461Y1321677D1*
X2882409Y1320177D1*
X2882212Y1318677D1*
X2881800Y1317177D1*
X2881218Y1315677D1*
X2880544Y1314177D1*
X2879824Y1312677D1*
X2879081Y1311177D1*
X2878287Y1309677D1*
X2877395Y1308177D1*
X2876424Y1306677D1*
X2875453Y1305177D1*
X2874406Y1303677D1*
X2873146Y1302177D1*
X2871600Y1300677D1*
X2869749Y1299177D1*
X2867643Y1297677D1*
X2865283Y1296177D1*
X2862655Y1294677D1*
X2859847Y1293177D1*
X2856967Y1291677D1*
X2844967Y1360677D2*
X2839563Y1359177D1*
X2834867Y1357677D1*
X2831112Y1356177D1*
X2828234Y1354677D1*
X2826016Y1353177D1*
X2824188Y1351677D1*
X2822551Y1350177D1*
X2821003Y1348677D1*
X2819536Y1347177D1*
X2818226Y1345677D1*
X2817142Y1344177D1*
X2816270Y1342677D1*
X2815587Y1341177D1*
X2815029Y1339677D1*
X2814488Y1338177D1*
X2814024Y1336677D1*
X2813725Y1335177D1*
X2813521Y1333677D1*
X2813262Y1332177D1*
X2812875Y1330677D1*
X2812485Y1329177D1*
X2812273Y1327677D1*
X2812323Y1326177D1*
X2812618Y1324677D1*
X2812982Y1323177D1*
X2813287Y1321677D1*
X2813613Y1320177D1*
X2814041Y1318677D1*
X2814504Y1317177D1*
X2814972Y1315677D1*
X2815533Y1314177D1*
X2816232Y1312677D1*
X2817130Y1311177D1*
X2818273Y1309677D1*
X2819595Y1308177D1*
X2821017Y1306677D1*
X2822491Y1305177D1*
X2824038Y1303677D1*
X2825789Y1302177D1*
X2828020Y1300677D1*
X2831391Y1299177D1*
X2837299Y1297677D1*
X2846790Y1296177D1*
X2858467Y1294677D1*
X2849467Y1360677D2*
X2853847Y1359177D1*
X2857898Y1357677D1*
X2861371Y1356177D1*
X2864243Y1354677D1*
X2866617Y1353177D1*
X2868584Y1351677D1*
X2870254Y1350177D1*
X2871658Y1348677D1*
X2872831Y1347177D1*
X2873907Y1345677D1*
X2874954Y1344177D1*
X2875899Y1342677D1*
X2876707Y1341177D1*
X2877363Y1339677D1*
X2877911Y1338177D1*
X2878448Y1336677D1*
X2878911Y1335177D1*
X2879204Y1333677D1*
X2879355Y1332177D1*
X2879423Y1330677D1*
X2879451Y1329177D1*
X2879461Y1327677D1*
X2879465Y1326177D1*
X2879461Y1324677D1*
X2879408Y1323177D1*
X2879217Y1321677D1*
X2878852Y1320177D1*
X2878415Y1318677D1*
X2877956Y1317177D1*
X2877405Y1315677D1*
X2876760Y1314177D1*
X2876054Y1312677D1*
X2875271Y1311177D1*
X2874333Y1309677D1*
X2873172Y1308177D1*
X2871843Y1306677D1*
X2870413Y1305177D1*
X2868885Y1303677D1*
X2867141Y1302177D1*
X2864913Y1300677D1*
X2861543Y1299177D1*
X2855635Y1297677D1*
X2846145Y1296177D1*
X2834467Y1294677D1*
X2828467Y1341177D2*
X2827954Y1339677D1*
X2827502Y1338177D1*
X2827165Y1336677D1*
X2826827Y1335177D1*
X2826401Y1333677D1*
X2825990Y1332177D1*
X2825718Y1330677D1*
X2825581Y1329177D1*
X2825569Y1327677D1*
X2825733Y1326177D1*
X2826088Y1324677D1*
X2826527Y1323177D1*
X2827031Y1321677D1*
X2827726Y1320177D1*
X2828598Y1318677D1*
X2829579Y1317177D1*
X2830854Y1315677D1*
X2832720Y1314177D1*
X2835290Y1312677D1*
X2838475Y1311177D1*
X2841967Y1309677D1*
X2834467Y1341177D2*
X2833897Y1339677D1*
X2833259Y1338177D1*
X2832609Y1336677D1*
X2832024Y1335177D1*
X2831505Y1333677D1*
X2830986Y1332177D1*
X2830580Y1330677D1*
X2830357Y1329177D1*
X2830664Y1327677D1*
X2831062Y1326177D1*
X2831557Y1324677D1*
X2832200Y1323177D1*
X2833718Y1321677D1*
X2838626Y1320177D1*
X2846745Y1318677D1*
X2856967Y1317177D1*
Y1341177D2*
X2857897Y1339677D1*
X2858753Y1338177D1*
X2859550Y1336677D1*
X2860269Y1335177D1*
X2860832Y1333677D1*
X2861172Y1332177D1*
X2861343Y1330677D1*
X2861413Y1329177D1*
X2861391Y1327677D1*
X2861199Y1326177D1*
X2860733Y1324677D1*
X2860048Y1323177D1*
X2858548Y1321677D1*
X2854057Y1320177D1*
X2846717Y1318677D1*
X2837467Y1317177D1*
X2862967Y1341177D2*
X2863891Y1339677D1*
X2864694Y1338177D1*
X2865300Y1336677D1*
X2865660Y1335177D1*
X2865838Y1333677D1*
X2865917Y1332177D1*
X2865949Y1330677D1*
X2865961Y1329177D1*
X2865965Y1327677D1*
X2865961Y1326177D1*
X2865908Y1324677D1*
X2865712Y1323177D1*
X2865294Y1321677D1*
X2864659Y1320177D1*
X2863789Y1318677D1*
X2862650Y1317177D1*
X2861267Y1315677D1*
X2859540Y1314177D1*
X2857236Y1312677D1*
X2854277Y1311177D1*
X2850967Y1309677D1*
X2810467Y1285677D2*
Y1284177D1*
X2810479Y1282677D1*
X2810590Y1281177D1*
X2810854Y1279677D1*
X2812018Y1278177D1*
X2813675Y1276677D1*
X2815756Y1275177D1*
X2818094Y1273677D1*
X2820506Y1272177D1*
X2822974Y1270677D1*
X2825484Y1269177D1*
X2827971Y1267677D1*
X2830518Y1266177D1*
X2833227Y1264677D1*
X2836069Y1263177D1*
X2838967Y1261677D1*
X2836891Y1260177D1*
X2834700Y1258677D1*
X2832359Y1257177D1*
X2829910Y1255677D1*
X2827453Y1254177D1*
X2824969Y1252677D1*
X2822454Y1251177D1*
X2819970Y1249677D1*
X2817487Y1248177D1*
X2815085Y1246677D1*
X2813093Y1245177D1*
X2811536Y1243677D1*
X2810983Y1242177D1*
X2810685Y1240677D1*
X2810552Y1239177D1*
X2810497Y1237677D1*
X2810467Y1236177D1*
X2811967Y1285677D2*
X2814397Y1284177D1*
X2816759Y1282677D1*
X2819109Y1281177D1*
X2821524Y1279677D1*
X2824005Y1278177D1*
X2826474Y1276677D1*
X2828963Y1275177D1*
X2831480Y1273677D1*
X2833964Y1272177D1*
X2836453Y1270677D1*
X2838915Y1269177D1*
X2841161Y1267677D1*
X2843131Y1266177D1*
X2844967Y1264677D1*
X2873467D2*
Y1263177D1*
Y1261677D1*
Y1260177D1*
Y1258677D1*
Y1257177D1*
X2847967D2*
X2845024Y1255677D1*
X2842217Y1254177D1*
X2839582Y1252677D1*
X2837019Y1251177D1*
X2834472Y1249677D1*
X2831976Y1248177D1*
X2829477Y1246677D1*
X2826956Y1245177D1*
X2824465Y1243677D1*
X2821923Y1242177D1*
X2819269Y1240677D1*
X2816651Y1239177D1*
X2814234Y1237677D1*
X2811967Y1236177D1*
X2841967Y1231677D2*
Y1230177D1*
Y1228677D1*
Y1227177D1*
Y1225677D1*
Y1224177D1*
Y1222677D1*
Y1221177D1*
Y1219677D1*
Y1218177D1*
Y1216677D1*
Y1215177D1*
Y1213677D1*
Y1212177D1*
Y1210677D1*
Y1209177D1*
X2868967Y1231677D2*
X2870178Y1230177D1*
X2871108Y1228677D1*
X2871802Y1227177D1*
X2872410Y1225677D1*
X2872953Y1224177D1*
X2873448Y1222677D1*
X2873962Y1221177D1*
X2874416Y1219677D1*
X2874706Y1218177D1*
X2874856Y1216677D1*
X2874923Y1215177D1*
X2874951Y1213677D1*
X2874961Y1212177D1*
X2874965Y1210677D1*
X2874967Y1209177D1*
Y1207677D1*
Y1206177D1*
X2874961Y1204677D1*
X2874909Y1203177D1*
X2874712Y1201677D1*
X2874300Y1200177D1*
X2873718Y1198677D1*
X2873044Y1197177D1*
X2872324Y1195677D1*
X2871581Y1194177D1*
X2870781Y1192677D1*
X2869831Y1191177D1*
X2868609Y1189677D1*
X2867029Y1188177D1*
X2864984Y1186677D1*
X2862406Y1185177D1*
X2859200Y1183677D1*
X2855288Y1182177D1*
X2850967Y1180677D1*
X2814967Y1230177D2*
X2814043Y1228677D1*
X2813234Y1227177D1*
X2812575Y1225677D1*
X2812025Y1224177D1*
X2811487Y1222677D1*
X2811018Y1221177D1*
X2810672Y1219677D1*
X2810330Y1218177D1*
X2809902Y1216677D1*
X2809490Y1215177D1*
X2809218Y1213677D1*
X2809075Y1212177D1*
X2809016Y1210677D1*
X2809042Y1209177D1*
X2809223Y1207677D1*
X2809578Y1206177D1*
X2809967Y1204677D1*
X2810281Y1203177D1*
X2810611Y1201677D1*
X2811040Y1200177D1*
X2811509Y1198677D1*
X2812025Y1197177D1*
X2812724Y1195677D1*
X2813592Y1194177D1*
X2814514Y1192677D1*
X2815540Y1191177D1*
X2816799Y1189677D1*
X2818395Y1188177D1*
X2820441Y1186677D1*
X2822964Y1185177D1*
X2825939Y1183677D1*
X2829339Y1182177D1*
X2832967Y1180677D1*
X2823967Y1230177D2*
X2822705Y1228677D1*
X2821629Y1227177D1*
X2820715Y1225677D1*
X2819890Y1224177D1*
X2819111Y1222677D1*
X2818354Y1221177D1*
X2817654Y1219677D1*
X2817092Y1218177D1*
X2816702Y1216677D1*
X2816341Y1215177D1*
X2815907Y1213677D1*
X2815497Y1212177D1*
X2815277Y1210677D1*
X2815325Y1209177D1*
X2815619Y1207677D1*
X2815983Y1206177D1*
X2816293Y1204677D1*
X2816672Y1203177D1*
X2817290Y1201677D1*
X2818119Y1200177D1*
X2819031Y1198677D1*
X2820102Y1197177D1*
X2821556Y1195677D1*
X2823569Y1194177D1*
X2826243Y1192677D1*
X2829573Y1191177D1*
X2833412Y1189677D1*
X2837467Y1188177D1*
X2847967Y1224177D2*
Y1222677D1*
Y1221177D1*
Y1219677D1*
Y1218177D1*
Y1216677D1*
Y1215177D1*
Y1213677D1*
Y1212177D1*
Y1210677D1*
Y1209177D1*
X2867467Y1224177D2*
X2867699Y1222677D1*
X2868071Y1221177D1*
X2868459Y1219677D1*
X2868722Y1218177D1*
X2868861Y1216677D1*
X2868925Y1215177D1*
X2868951Y1213677D1*
X2868962Y1212177D1*
X2868965Y1210677D1*
X2868967Y1209177D1*
X2868961Y1207677D1*
X2868909Y1206177D1*
X2868712Y1204677D1*
X2868294Y1203177D1*
X2867659Y1201677D1*
X2866789Y1200177D1*
X2865656Y1198677D1*
X2864331Y1197177D1*
X2862846Y1195677D1*
X2861070Y1194177D1*
X2858724Y1192677D1*
X2855632Y1191177D1*
X2851931Y1189677D1*
X2847967Y1188177D1*
X2850967Y1173177D2*
X2848781Y1171677D1*
X2846903Y1170177D1*
X2845370Y1168677D1*
X2844076Y1167177D1*
X2842693Y1165677D1*
X2840949Y1164177D1*
X2838967Y1162677D1*
X2861467Y1173177D2*
X2864352Y1171677D1*
X2866714Y1170177D1*
X2868644Y1168677D1*
X2870284Y1167177D1*
X2871666Y1165677D1*
X2872777Y1164177D1*
X2873654Y1162677D1*
X2874287Y1161177D1*
X2874655Y1159677D1*
X2874837Y1158177D1*
X2874917Y1156677D1*
X2874949Y1155177D1*
X2874961Y1153677D1*
X2874965Y1152177D1*
X2874966Y1150677D1*
X2874961Y1149177D1*
X2874909Y1147677D1*
X2874712Y1146177D1*
X2874294Y1144677D1*
X2873659Y1143177D1*
X2872789Y1141677D1*
X2871656Y1140177D1*
X2870326Y1138677D1*
X2868791Y1137177D1*
X2866859Y1135677D1*
X2864346Y1134177D1*
X2861467Y1132677D1*
X2820967Y1171677D2*
X2818319Y1170177D1*
X2816134Y1168677D1*
X2814497Y1167177D1*
X2813197Y1165677D1*
X2812103Y1164177D1*
X2811303Y1162677D1*
X2810792Y1161177D1*
X2810377Y1159677D1*
X2809920Y1158177D1*
X2809496Y1156677D1*
X2809220Y1155177D1*
X2809081Y1153677D1*
X2809069Y1152177D1*
X2809233Y1150677D1*
X2809588Y1149177D1*
X2810021Y1147677D1*
X2810479Y1146177D1*
X2811035Y1144677D1*
X2811733Y1143177D1*
X2812630Y1141677D1*
X2813784Y1140177D1*
X2815221Y1138677D1*
X2817107Y1137177D1*
X2819600Y1135677D1*
X2822467Y1134177D1*
X2829967Y1171677D2*
X2832160Y1170177D1*
X2834096Y1168677D1*
X2835871Y1167177D1*
X2837700Y1165677D1*
X2839753Y1164177D1*
X2841967Y1162677D1*
X2855467Y1165677D2*
X2852768Y1164177D1*
X2850443Y1162677D1*
X2848638Y1161177D1*
X2847306Y1159677D1*
X2846283Y1158177D1*
X2845420Y1156677D1*
X2844672Y1155177D1*
X2844048Y1153677D1*
X2843520Y1152177D1*
X2843047Y1150677D1*
X2842670Y1149177D1*
X2842958Y1147677D1*
X2844114Y1146177D1*
X2845685Y1144677D1*
X2850307Y1143177D1*
X2857367Y1141677D1*
X2865967Y1140177D1*
X2859967Y1165677D2*
X2862672Y1164177D1*
X2865044Y1162677D1*
X2866988Y1161177D1*
X2868481Y1159677D1*
X2869645Y1158177D1*
X2870068Y1156677D1*
X2870297Y1155177D1*
X2870395Y1153677D1*
X2870384Y1152177D1*
X2870203Y1150677D1*
X2869791Y1149177D1*
X2869153Y1147677D1*
X2868183Y1146177D1*
X2866859Y1144677D1*
X2862971Y1143177D1*
X2856919Y1141677D1*
X2849467Y1140177D1*
X2820967Y1164177D2*
X2819473Y1162677D1*
X2818032Y1161177D1*
X2816776Y1159677D1*
X2815832Y1158177D1*
X2815140Y1156677D1*
X2814589Y1155177D1*
X2814157Y1153677D1*
X2814318Y1152177D1*
X2814631Y1150677D1*
X2815079Y1149177D1*
X2815836Y1147677D1*
X2816898Y1146177D1*
X2819812Y1144677D1*
X2824350Y1143177D1*
X2829967Y1141677D1*
X2831467Y1164177D2*
X2833193Y1162677D1*
X2835001Y1161177D1*
X2836586Y1159677D1*
X2837805Y1158177D1*
X2837977Y1156677D1*
X2837554Y1155177D1*
X2836975Y1153677D1*
X2836297Y1152177D1*
X2835571Y1150677D1*
X2834777Y1149177D1*
X2833800Y1147677D1*
X2832598Y1146177D1*
X2829651Y1144677D1*
X2825095Y1143177D1*
X2819467Y1141677D1*
X2840467Y1143177D2*
X2838967Y1141677D1*
X2837461Y1140177D1*
X2835904Y1138677D1*
X2834172Y1137177D1*
X2832160Y1135677D1*
X2829967Y1134177D1*
X2841967Y1143177D2*
X2842262Y1141677D1*
X2842891Y1140177D1*
X2843947Y1138677D1*
X2845453Y1137177D1*
X2847451Y1135677D1*
X2849867Y1134177D1*
X2852467Y1132677D1*
X2814967Y1126677D2*
X2814037Y1125177D1*
X2813182Y1123677D1*
X2812384Y1122177D1*
X2811666Y1120677D1*
X2811096Y1119177D1*
X2810704Y1117677D1*
X2810342Y1116177D1*
X2809907Y1114677D1*
X2809492Y1113177D1*
X2809218Y1111677D1*
X2809075Y1110177D1*
X2809016Y1108677D1*
X2809042Y1107177D1*
X2809223Y1105677D1*
X2809578Y1104177D1*
X2809967Y1102677D1*
X2810281Y1101177D1*
X2810617Y1099677D1*
X2811093Y1098177D1*
X2811701Y1096677D1*
X2812390Y1095177D1*
X2813167Y1093677D1*
X2814103Y1092177D1*
X2815268Y1090677D1*
X2816650Y1089177D1*
X2818277Y1087677D1*
X2820223Y1086177D1*
X2822595Y1084677D1*
X2825561Y1083177D1*
X2829125Y1081677D1*
X2832967Y1080177D1*
X2823967Y1126677D2*
X2822524Y1125177D1*
X2821222Y1123677D1*
X2820135Y1122177D1*
X2819216Y1120677D1*
X2818396Y1119177D1*
X2817669Y1117677D1*
X2817098Y1116177D1*
X2816704Y1114677D1*
X2816342Y1113177D1*
X2815913Y1111677D1*
X2815550Y1110177D1*
X2815468Y1108677D1*
X2815684Y1107177D1*
X2816009Y1105677D1*
X2816297Y1104177D1*
X2816623Y1102677D1*
X2817101Y1101177D1*
X2817760Y1099677D1*
X2818646Y1098177D1*
X2819841Y1096677D1*
X2821417Y1095177D1*
X2823505Y1093677D1*
X2826216Y1092177D1*
X2829563Y1090677D1*
X2833408Y1089177D1*
X2837467Y1087677D1*
X2862967Y1126677D2*
X2863718Y1125177D1*
X2864589Y1123677D1*
X2865453Y1122177D1*
X2866227Y1120677D1*
X2866870Y1119177D1*
X2867414Y1117677D1*
X2867949Y1116177D1*
X2868411Y1114677D1*
X2868704Y1113177D1*
X2868855Y1111677D1*
X2868923Y1110177D1*
X2868951Y1108677D1*
X2868955Y1107177D1*
X2868907Y1105677D1*
X2868711Y1104177D1*
X2868299Y1102677D1*
X2867718Y1101177D1*
X2867033Y1099677D1*
X2866206Y1098177D1*
X2865075Y1096677D1*
X2863492Y1095177D1*
X2861471Y1093677D1*
X2858926Y1092177D1*
X2855722Y1090677D1*
X2851965Y1089177D1*
X2847967Y1087677D1*
X2870467Y1126677D2*
X2871391Y1125177D1*
X2872200Y1123677D1*
X2872859Y1122177D1*
X2873410Y1120677D1*
X2873947Y1119177D1*
X2874411Y1117677D1*
X2874704Y1116177D1*
X2874855Y1114677D1*
X2874923Y1113177D1*
X2874951Y1111677D1*
X2874961Y1110177D1*
X2874965Y1108677D1*
X2874967Y1107177D1*
Y1105677D1*
X2874961Y1104177D1*
X2874909Y1102677D1*
X2874717Y1101177D1*
X2874352Y1099677D1*
X2873909Y1098177D1*
X2873404Y1096677D1*
X2872708Y1095177D1*
X2871842Y1093677D1*
X2870920Y1092177D1*
X2869894Y1090677D1*
X2868641Y1089177D1*
X2867092Y1087677D1*
X2865185Y1086177D1*
X2862829Y1084677D1*
X2859870Y1083177D1*
X2856308Y1081677D1*
X2852467Y1080177D1*
X2870467Y1075677D2*
X2865967Y1074177D1*
X2861467Y1072677D1*
X2856967Y1071177D1*
X2852467Y1069677D1*
X2847967Y1068177D1*
X2843467Y1066677D1*
X2838967Y1065177D1*
X2834467Y1063677D1*
X2829967Y1062177D1*
X2825479Y1060677D1*
X2821102Y1059177D1*
X2817160Y1057677D1*
X2814128Y1056177D1*
X2811878Y1054677D1*
X2811142Y1053177D1*
X2810750Y1051677D1*
X2810588Y1050177D1*
X2810642Y1048677D1*
X2810908Y1047177D1*
X2812239Y1045677D1*
X2815127Y1044177D1*
X2818704Y1042677D1*
X2822766Y1041177D1*
X2827081Y1039677D1*
X2831508Y1038177D1*
X2835981Y1036677D1*
X2840472Y1035177D1*
X2844969Y1033677D1*
X2849468Y1032177D1*
X2853967Y1030677D1*
X2858467Y1029177D1*
X2862967Y1027677D1*
X2867467Y1026177D1*
X2871967Y1024677D1*
X2873467Y1075677D2*
Y1074177D1*
X2873450Y1072677D1*
X2873274Y1071177D1*
X2872852Y1069677D1*
X2870779Y1068177D1*
X2867755Y1066677D1*
X2864150Y1065177D1*
X2860712Y1063677D1*
X2857774Y1062177D1*
X2856397Y1060677D1*
X2855901Y1059177D1*
X2855645Y1057677D1*
X2855534Y1056177D1*
X2855491Y1054677D1*
X2855475Y1053177D1*
X2855470Y1051677D1*
X2855468Y1050177D1*
X2855467Y1048677D1*
Y1047177D1*
Y1045677D1*
Y1044177D1*
X2855485Y1042677D1*
X2855661Y1041177D1*
X2856082Y1039677D1*
X2858155Y1038177D1*
X2861180Y1036677D1*
X2864785Y1035177D1*
X2868222Y1033677D1*
X2871160Y1032177D1*
X2872537Y1030677D1*
X2873034Y1029177D1*
X2873290Y1027677D1*
X2873404Y1026177D1*
X2873467Y1024677D1*
X2850967Y1060677D2*
X2846461Y1059177D1*
X2841909Y1057677D1*
X2837223Y1056177D1*
X2832421Y1054677D1*
X2827764Y1053177D1*
X2823493Y1051677D1*
X2819467Y1050177D1*
X2823788Y1048677D1*
X2828303Y1047177D1*
X2832875Y1045677D1*
X2837483Y1044177D1*
X2842242Y1042677D1*
X2847267Y1041177D1*
X2852467Y1039677D1*
X2849467Y1060677D2*
Y1059177D1*
Y1057677D1*
Y1056177D1*
Y1054677D1*
Y1053177D1*
Y1051677D1*
Y1050177D1*
Y1048677D1*
Y1047177D1*
X2849461Y1045677D1*
X2849404Y1044177D1*
X2849172Y1042677D1*
X2848660Y1041177D1*
X2847967Y1039677D1*
X2972306Y1735144D2*
D30*
X2968503Y1733243D1*
X2964656Y1729396D1*
X2962755Y1725593D1*
Y1717944D1*
X2964656Y1714097D1*
X2968503Y1710295D1*
X2972305Y1708349D1*
X2978053Y1706448D1*
X2987648D1*
X2993352Y1708349D1*
X2997199Y1710295D1*
X3001001Y1714097D1*
X3002947Y1717944D1*
Y1725593D1*
X3001001Y1729396D1*
X2997199Y1733243D1*
X2993352Y1735144D1*
X2970448Y1747495D2*
X2968503Y1751342D1*
X2962799Y1757090D1*
X3002947D1*
X3296419Y1372213D2*
X3292617Y1370312D1*
X3288770Y1366465D1*
X3286869Y1362663D1*
Y1355014D1*
X3288770Y1351167D1*
X3292617Y1347364D1*
X3296419Y1345419D1*
X3302167Y1343517D1*
X3311762D1*
X3317466Y1345419D1*
X3321313Y1347364D1*
X3325115Y1351167D1*
X3327061Y1355013D1*
Y1362663D1*
X3325115Y1366465D1*
X3321313Y1370312D1*
X3317466Y1372213D1*
X3296464Y1386510D2*
X3294562D1*
X3290716Y1388411D1*
X3288814Y1390313D1*
X3286913Y1394160D1*
Y1401809D1*
X3288814Y1405611D1*
X3290716Y1407513D1*
X3294562Y1409458D1*
X3298365D1*
X3302212Y1407513D1*
X3307915Y1403710D1*
X3327061Y1384565D1*
Y1411359D1*
X2975367Y974604D2*
X2971565Y972703D1*
X2967718Y968856D1*
X2965817Y965054D1*
Y957405D1*
X2967718Y953558D1*
X2971565Y949755D1*
X2975367Y947810D1*
X2981115Y945909D1*
X2990710D1*
X2996414Y947810D1*
X3000261Y949755D1*
X3004063Y953558D1*
X3006009Y957405D1*
Y965054D1*
X3004063Y968856D1*
X3000261Y972703D1*
X2996414Y974604D1*
X2965861Y990803D2*
Y1011805D1*
X2981159Y1000353D1*
Y1006101D1*
X2983061Y1009904D1*
X2984962Y1011805D1*
X2990710Y1013750D1*
X2994513D1*
X3000261Y1011805D1*
X3004107Y1008002D1*
X3006009Y1002254D1*
Y996506D1*
X3004107Y990803D1*
X3002162Y988901D1*
X2998359Y986956D1*
X3305603Y638113D2*
X3301801Y636212D1*
X3297954Y632365D1*
X3296053Y628563D1*
Y620913D1*
X3297954Y617067D1*
X3301801Y613264D1*
X3305603Y611318D1*
X3311351Y609417D1*
X3320946D1*
X3326650Y611318D1*
X3330497Y613264D1*
X3334299Y617066D1*
X3336245Y620913D1*
Y628562D1*
X3334299Y632365D1*
X3330497Y636212D1*
X3326650Y638113D1*
X3336245Y669610D2*
X3296097D1*
X3322847Y650464D1*
Y679160D1*
X2371928Y1725129D2*
X2368125Y1723228D1*
X2364278Y1719381D1*
X2362377Y1715579D1*
Y1707930D1*
X2364278Y1704083D1*
X2368125Y1700280D1*
X2371928Y1698335D1*
X2377676Y1696433D1*
X2387270D1*
X2392974Y1698335D1*
X2396821Y1700280D1*
X2400623Y1704083D1*
X2402569Y1707929D1*
Y1715579D1*
X2400623Y1719381D1*
X2396821Y1723228D1*
X2392974Y1725129D1*
X2402569Y1745130D2*
X2362421Y1764275D1*
Y1737481D1*
X2696041Y1370821D2*
X2692239Y1368919D1*
X2688392Y1365073D1*
X2686491Y1361270D1*
Y1353621D1*
X2688392Y1349774D1*
X2692239Y1345972D1*
X2696041Y1344026D1*
X2701789Y1342125D1*
X2711384D1*
X2717088Y1344026D1*
X2720935Y1345972D1*
X2724737Y1349774D1*
X2726683Y1353621D1*
Y1361270D1*
X2724737Y1365073D1*
X2720935Y1368919D1*
X2717088Y1370821D1*
X2686535Y1392723D2*
X2688436Y1387019D1*
X2692239Y1385073D1*
X2696086D1*
X2699888Y1387019D1*
X2701834Y1390821D1*
X2703735Y1398471D1*
X2705636Y1404219D1*
X2709483Y1408021D1*
X2713286Y1409923D1*
X2719034D1*
X2722836Y1408021D1*
X2724782Y1406120D1*
X2726683Y1400372D1*
Y1392723D1*
X2724782Y1387019D1*
X2722836Y1385073D1*
X2719034Y1383172D1*
X2713286D1*
X2709483Y1385073D1*
X2705636Y1388920D1*
X2703735Y1394624D1*
X2701834Y1402273D1*
X2699888Y1406120D1*
X2696086Y1408021D1*
X2692239D1*
X2688436Y1406120D1*
X2686535Y1400372D1*
Y1392723D1*
X2374989Y974140D2*
X2371187Y972239D1*
X2367340Y968392D1*
X2365439Y964590D1*
Y956941D1*
X2367340Y953094D1*
X2371187Y949291D1*
X2374989Y947346D1*
X2380737Y945444D1*
X2390332D1*
X2396036Y947346D1*
X2399883Y949291D1*
X2403685Y953094D1*
X2405631Y956940D1*
Y964590D1*
X2403685Y968392D1*
X2399883Y972239D1*
X2396036Y974140D1*
X2378836Y1011385D2*
X2384584Y1009440D1*
X2388431Y1005637D1*
X2390332Y999889D1*
Y997988D1*
X2388431Y992240D1*
X2384584Y988437D1*
X2378836Y986492D1*
X2376935D1*
X2371187Y988437D1*
X2367384Y992240D1*
X2365483Y997988D1*
Y999889D1*
X2367384Y1005637D1*
X2371187Y1009440D1*
X2378836Y1011385D1*
X2388431D1*
X2397981Y1009440D1*
X2403729Y1005637D1*
X2405631Y999889D1*
Y996086D1*
X2403729Y990338D1*
X2399883Y988437D1*
X2705225Y626676D2*
X2701423Y624775D1*
X2697576Y620928D1*
X2695675Y617125D1*
Y609476D1*
X2697576Y605629D1*
X2701423Y601827D1*
X2705225Y599881D1*
X2710973Y597980D1*
X2720568D1*
X2726272Y599881D1*
X2730119Y601827D1*
X2733921Y605629D1*
X2735867Y609476D1*
Y617125D1*
X2733921Y620928D1*
X2730119Y624775D1*
X2726272Y626676D1*
X2703368Y639027D2*
X2701423Y642874D1*
X2695719Y648622D1*
X2735867D1*
X2695719Y672470D2*
X2697620Y666722D1*
X2703368Y662875D1*
X2712919Y660973D1*
X2718667D1*
X2728217Y662875D1*
X2733965Y666721D1*
X2735867Y672470D1*
Y676272D1*
X2733965Y682020D1*
X2728217Y685823D1*
X2718667Y687768D1*
X2712919D1*
X2703368Y685823D1*
X2697620Y682020D1*
X2695719Y676272D1*
Y672470D1*
X2703368Y685823D2*
X2728217Y662875D1*
X1772525Y1714693D2*
X1768722Y1712792D1*
X1764875Y1708945D1*
X1762974Y1705142D1*
Y1697493D1*
X1764875Y1693646D1*
X1768722Y1689844D1*
X1772525Y1687898D1*
X1778273Y1685997D1*
X1787867D1*
X1793571Y1687898D1*
X1797418Y1689844D1*
X1801221Y1693646D1*
X1803166Y1697493D1*
Y1705142D1*
X1801221Y1708945D1*
X1797418Y1712792D1*
X1793571Y1714693D1*
X1770668Y1727044D2*
X1768722Y1730891D1*
X1763018Y1736639D1*
X1803166D1*
X1763018Y1752837D2*
Y1773840D1*
X1778317Y1762388D1*
Y1768136D1*
X1780218Y1771938D1*
X1782119Y1773840D1*
X1787867Y1775785D1*
X1791670D1*
X1797418Y1773840D1*
X1801265Y1770037D1*
X1803166Y1764289D1*
Y1758541D1*
X1801265Y1752837D1*
X1799319Y1750936D1*
X1795517Y1748991D1*
X2096639Y1359412D2*
X2092836Y1357510D1*
X2088989Y1353664D1*
X2087088Y1349861D1*
Y1342212D1*
X2088989Y1338365D1*
X2092836Y1334563D1*
X2096639Y1332617D1*
X2102387Y1330716D1*
X2111981D1*
X2117685Y1332617D1*
X2121532Y1334563D1*
X2125335Y1338365D1*
X2127280Y1342212D1*
Y1349861D1*
X2125335Y1353664D1*
X2121532Y1357510D1*
X2117685Y1359412D1*
X2094782Y1371763D2*
X2092836Y1375610D1*
X2087132Y1381358D1*
X2127280D1*
Y1412855D2*
X2087132D1*
X2113883Y1393709D1*
Y1422405D1*
X1775586Y962753D2*
X1771784Y960852D1*
X1767937Y957005D1*
X1766036Y953203D1*
Y945554D1*
X1767937Y941707D1*
X1771784Y937904D1*
X1775586Y935959D1*
X1781334Y934057D1*
X1790929D1*
X1796633Y935959D1*
X1800480Y937904D1*
X1804282Y941707D1*
X1806228Y945553D1*
Y953203D1*
X1804282Y957005D1*
X1800480Y960852D1*
X1796633Y962753D1*
X1773729Y975105D2*
X1771784Y978952D1*
X1766080Y984700D1*
X1806228Y984699D1*
X1766080Y1019999D2*
Y1000898D1*
X1783280Y998996D1*
X1781379Y1000898D1*
X1779433Y1006646D1*
Y1012350D1*
X1781379Y1018098D1*
X1785181Y1021944D1*
X1790929Y1023846D1*
X1794732D1*
X1800480Y1021944D1*
X1804326Y1018098D1*
X1806228Y1012349D1*
Y1006646D1*
X1804326Y1000898D1*
X1802381Y998996D1*
X1798578Y997051D1*
X2105822Y628185D2*
X2102020Y626284D1*
X2098173Y622437D1*
X2096272Y618635D1*
Y610986D1*
X2098173Y607139D1*
X2102020Y603336D1*
X2105822Y601391D1*
X2111570Y599490D1*
X2121165D1*
X2126869Y601391D1*
X2130716Y603336D1*
X2134518Y607139D1*
X2136464Y610986D1*
Y618635D1*
X2134518Y622437D1*
X2130716Y626284D1*
X2126869Y628185D1*
X2103965Y640537D2*
X2102020Y644384D1*
X2096316Y650132D1*
X2136464D1*
X2102020Y685431D2*
X2098217Y683530D1*
X2096316Y677782D1*
Y673979D1*
X2098217Y668231D1*
X2103965Y664384D1*
X2113516Y662483D1*
X2123066D1*
X2130716Y664384D1*
X2134562Y668231D1*
X2136464Y673979D1*
Y675880D1*
X2134562Y681584D1*
X2130716Y685431D1*
X2124968Y687332D1*
X2123066D1*
X2117318Y685431D1*
X2113516Y681584D1*
X2111615Y675880D1*
Y673979D1*
X2113516Y668231D1*
X2117318Y664384D1*
X2123066Y662483D1*
X1172962Y1714349D2*
X1169159Y1712448D1*
X1165312Y1708601D1*
X1163411Y1704799D1*
Y1697149D1*
X1165312Y1693303D1*
X1169159Y1689500D1*
X1172962Y1687555D1*
X1178710Y1685653D1*
X1188304D1*
X1194008Y1687555D1*
X1197855Y1689500D1*
X1201658Y1693303D1*
X1203603Y1697149D1*
Y1704799D1*
X1201658Y1708601D1*
X1197855Y1712448D1*
X1194008Y1714349D1*
X1173006Y1728646D2*
X1171105D1*
X1167258Y1730547D1*
X1165357Y1732449D1*
X1163455Y1736295D1*
Y1743945D1*
X1165357Y1747747D1*
X1167258Y1749648D1*
X1171105Y1751594D1*
X1174907D1*
X1178754Y1749648D1*
X1184458Y1745846D1*
X1203603Y1726701D1*
Y1753495D1*
X1171105Y1765847D2*
X1169159Y1769693D1*
X1163455Y1775441D1*
X1203603D1*
X1497076Y1351419D2*
X1493273Y1349517D1*
X1489426Y1345671D1*
X1487525Y1341868D1*
Y1334219D1*
X1489426Y1330372D1*
X1493273Y1326569D1*
X1497076Y1324624D1*
X1502824Y1322723D1*
X1512418D1*
X1518122Y1324624D1*
X1521969Y1326569D1*
X1525772Y1330372D1*
X1527717Y1334219D1*
Y1341868D1*
X1525772Y1345670D1*
X1521969Y1349517D1*
X1518122Y1351418D1*
X1497120Y1365715D2*
X1495219D1*
X1491372Y1367617D1*
X1489471Y1369518D1*
X1487569Y1373365D1*
Y1381014D1*
X1489471Y1384817D1*
X1491372Y1386718D1*
X1495219Y1388663D1*
X1499021D1*
X1502868Y1386718D1*
X1508572Y1382915D1*
X1527717Y1363770D1*
Y1390565D1*
X1497120Y1404861D2*
X1495219D1*
X1491372Y1406763D1*
X1489471Y1408664D1*
X1487569Y1412511D1*
Y1420160D1*
X1489470Y1423963D1*
X1491372Y1425864D1*
X1495219Y1427809D1*
X1499021D1*
X1502868Y1425864D1*
X1508572Y1422061D1*
X1527717Y1402916D1*
Y1429711D1*
X1176023Y953810D2*
X1172221Y951908D1*
X1168374Y948062D1*
X1166473Y944259D1*
Y936610D1*
X1168374Y932763D1*
X1172221Y928960D1*
X1176023Y927015D1*
X1181771Y925114D1*
X1191366D1*
X1197070Y927015D1*
X1200917Y928960D1*
X1204719Y932763D1*
X1206665Y936610D1*
Y944259D1*
X1204719Y948062D1*
X1200917Y951908D1*
X1197070Y953810D1*
X1176068Y968106D2*
X1174166D1*
X1170320Y970008D1*
X1168418Y971909D1*
X1166517Y975756D1*
Y983405D1*
X1168418Y987208D1*
X1170320Y989109D1*
X1174166Y991054D1*
X1177969D1*
X1181816Y989109D1*
X1187519Y985306D1*
X1206665Y966161D1*
Y992956D1*
X1166517Y1009154D2*
Y1030156D1*
X1181816Y1018704D1*
Y1024452D1*
X1183717Y1028255D1*
X1185618Y1030156D1*
X1191366Y1032102D1*
X1195169D1*
X1200917Y1030156D1*
X1204763Y1026354D1*
X1206665Y1020606D1*
Y1014858D1*
X1204763Y1009154D1*
X1202818Y1007252D1*
X1199015Y1005307D1*
X1515854Y614466D2*
X1512007Y610620D1*
X1510106Y606773D1*
Y601069D1*
X1512007Y597222D1*
X1515854Y593420D1*
X1521602Y591474D1*
X1525405D1*
X1531153Y593420D1*
X1534955Y597222D1*
X1536901Y601069D1*
Y606773D1*
X1534955Y610620D1*
X1531153Y614466D1*
X1506304Y628763D2*
X1504402D1*
X1500556Y630665D1*
X1498654Y632566D1*
X1496753Y636413D1*
Y644062D1*
X1498654Y647864D1*
X1500556Y649766D1*
X1504402Y651711D1*
X1508205D1*
X1512052Y649766D1*
X1517755Y645963D1*
X1536901Y626818D1*
Y653612D1*
Y685109D2*
X1496753D1*
X1523503Y665964D1*
Y694660D1*
X572414Y1706738D2*
X568612Y1704836D1*
X564765Y1700990D1*
X562864Y1697187D1*
Y1689538D1*
X564765Y1685691D1*
X568612Y1681889D1*
X572414Y1679943D1*
X578162Y1678042D1*
X587757D1*
X593461Y1679943D1*
X597308Y1681889D1*
X601110Y1685691D1*
X603056Y1689538D1*
Y1697187D1*
X601110Y1700990D1*
X597308Y1704836D1*
X593461Y1706738D1*
X572459Y1721035D2*
X570557D1*
X566711Y1722936D1*
X564809Y1724837D1*
X562908Y1728684D1*
Y1736333D1*
X564809Y1740136D1*
X566711Y1742037D1*
X570557Y1743982D1*
X574360D1*
X578207Y1742037D1*
X583910Y1738234D1*
X603056Y1719089D1*
Y1745884D1*
X568612Y1781183D2*
X564809Y1779282D1*
X562908Y1773534D1*
Y1769731D1*
X564809Y1763983D1*
X570557Y1760136D1*
X580108Y1758235D1*
X589659D1*
X597308Y1760136D1*
X601155Y1763983D1*
X603056Y1769731D1*
Y1771632D1*
X601155Y1777336D1*
X597308Y1781183D1*
X591560Y1783084D1*
X589658D1*
X583910Y1781183D1*
X580108Y1777336D1*
X578207Y1771632D1*
Y1769731D1*
X580108Y1763983D1*
X583910Y1760136D1*
X589659Y1758235D1*
X896528Y1352385D2*
X892726Y1350484D1*
X888879Y1346637D1*
X886978Y1342834D1*
Y1335185D1*
X888879Y1331338D1*
X892726Y1327536D1*
X896528Y1325590D1*
X902276Y1323689D1*
X911871D1*
X917575Y1325590D1*
X921422Y1327536D1*
X925224Y1331338D1*
X927170Y1335185D1*
Y1342834D1*
X925224Y1346637D1*
X921422Y1350484D1*
X917575Y1352385D1*
X896573Y1366682D2*
X894671D1*
X890825Y1368583D1*
X888923Y1370484D1*
X887022Y1374331D1*
Y1381980D1*
X888923Y1385783D1*
X890825Y1387684D1*
X894671Y1389630D1*
X898474D1*
X902321Y1387684D1*
X908024Y1383882D1*
X927170Y1364736D1*
Y1391531D1*
X900375Y1428776D2*
X906123Y1426830D1*
X909970Y1423028D1*
X911871Y1417280D1*
Y1415378D1*
X909970Y1409630D1*
X906123Y1405828D1*
X900375Y1403882D1*
X898474D1*
X892726Y1405828D1*
X888923Y1409630D1*
X887022Y1415378D1*
Y1417280D1*
X888923Y1423028D1*
X892726Y1426830D1*
X900375Y1428776D1*
X909970D1*
X919520Y1426830D1*
X925268Y1423028D1*
X927170Y1417280D1*
Y1413477D1*
X925268Y1407729D1*
X921422Y1405828D1*
X575476Y953825D2*
X571674Y951924D1*
X567827Y948077D1*
X565926Y944275D1*
Y936626D1*
X567827Y932779D1*
X571674Y928976D1*
X575476Y927031D1*
X581224Y925129D1*
X590819D1*
X596523Y927031D1*
X600369Y928976D1*
X604172Y932779D1*
X606118Y936625D1*
Y944275D1*
X604172Y948077D1*
X600370Y951924D1*
X596523Y953825D1*
X565970Y970023D2*
Y991026D1*
X581268Y979574D1*
Y985322D1*
X583170Y989125D1*
X585071Y991026D1*
X590819Y992971D1*
X594621D1*
X600369Y991026D1*
X604216Y987223D1*
X606118Y981475D1*
Y975727D1*
X604216Y970023D1*
X602271Y968122D1*
X598468Y966177D1*
X565970Y1016819D2*
X567871Y1011071D1*
X573619Y1007224D1*
X583170Y1005323D1*
X588918D1*
X598468Y1007224D1*
X604216Y1011071D1*
X606118Y1016819D1*
Y1020621D1*
X604216Y1026369D1*
X598468Y1030172D1*
X588918Y1032117D1*
X583170D1*
X573619Y1030172D1*
X567871Y1026369D1*
X565970Y1020621D1*
Y1016819D1*
X573619Y1030172D2*
X598468Y1007224D1*
X905712Y626885D2*
X901910Y624983D1*
X898063Y621137D1*
X896161Y617334D1*
Y609685D1*
X898063Y605838D1*
X901909Y602035D1*
X905712Y600090D1*
X911460Y598189D1*
X921055D1*
X926759Y600090D1*
X930605Y602035D1*
X934408Y605838D1*
X936354Y609685D1*
Y617334D1*
X934408Y621137D1*
X930605Y624983D1*
X926759Y626885D1*
X896206Y643083D2*
Y664085D1*
X911504Y652633D1*
Y658381D1*
X913406Y662184D1*
X915307Y664085D1*
X921055Y666031D1*
X924857D1*
X930605Y664085D1*
X934452Y660283D1*
X936353Y654535D1*
Y648787D1*
X934452Y643083D1*
X932507Y641181D1*
X928704Y639236D1*
X903855Y678382D2*
X901910Y682229D1*
X896206Y687977D1*
X936353D1*
X2925353Y1551842D2*
X2965545D1*
Y1574790D1*
X2933047Y1587141D2*
X2931101Y1590988D1*
X2925398Y1596736D1*
X2965545D1*
X2925353Y1149541D2*
X2965545D1*
Y1172489D1*
X2934948Y1186786D2*
X2933047D1*
X2929200Y1188687D1*
X2927299Y1190588D1*
X2925398Y1194435D1*
Y1202084D1*
X2927299Y1205887D1*
X2929200Y1207788D1*
X2933047Y1209734D1*
X2936849D1*
X2940696Y1207788D1*
X2946400Y1203986D1*
X2965545Y1184840D1*
Y1211635D1*
X2925353Y755840D2*
X2965545D1*
Y778788D1*
X2925398Y794986D2*
Y815989D1*
X2940696Y804537D1*
Y810285D1*
X2942597Y814087D1*
X2944499Y815989D1*
X2950247Y817934D1*
X2954049D1*
X2959797Y815989D1*
X2963644Y812186D1*
X2965545Y806438D1*
Y800690D1*
X2963644Y794986D1*
X2961699Y793085D1*
X2957896Y791139D1*
X2324975Y1540877D2*
X2365167D1*
Y1563824D1*
Y1595321D2*
X2325020D1*
X2351770Y1576176D1*
Y1604872D1*
X2324975Y1148126D2*
X2365167D1*
Y1171074D1*
X2325020Y1206374D2*
Y1187272D1*
X2342220Y1185371D1*
X2340318Y1187272D1*
X2338373Y1193020D1*
Y1198724D1*
X2340318Y1204472D1*
X2344121Y1208319D1*
X2349869Y1210220D1*
X2353671D1*
X2359419Y1208319D1*
X2363266Y1204472D1*
X2365167Y1198724D1*
Y1193020D1*
X2363266Y1187272D1*
X2361321Y1185371D1*
X2357518Y1183426D1*
X2324975Y755398D2*
X2365167D1*
Y778346D1*
X2330723Y813645D2*
X2326921Y811744D1*
X2325020Y805996D1*
Y802194D1*
X2326921Y796446D1*
X2332669Y792599D1*
X2342220Y790698D1*
X2351770D1*
X2359419Y792599D1*
X2363266Y796446D1*
X2365167Y802194D1*
Y804095D1*
X2363266Y809799D1*
X2359419Y813645D1*
X2353671Y815547D1*
X2351770D1*
X2346022Y813645D1*
X2342220Y809799D1*
X2340318Y804095D1*
Y802194D1*
X2342220Y796446D1*
X2346022Y792599D1*
X2351770Y790698D1*
X1725572Y1542364D2*
X1765764D1*
X1765765Y1565312D1*
Y1585312D2*
X1725617Y1604458D1*
Y1577663D1*
X1725572Y1148685D2*
X1765764D1*
X1765765Y1171633D1*
X1725617Y1193535D2*
X1727518Y1187831D1*
X1731321Y1185886D1*
X1735167D1*
X1738970Y1187831D1*
X1740915Y1191634D1*
X1742817Y1199283D1*
X1744718Y1205031D1*
X1748565Y1208834D1*
X1752367Y1210735D1*
X1758115D1*
X1761918Y1208834D1*
X1763863Y1206932D1*
X1765764Y1201184D1*
X1765765Y1193535D1*
X1763863Y1187831D1*
X1761918Y1185886D1*
X1758115Y1183984D1*
X1752367D1*
X1748565Y1185886D1*
X1744718Y1189732D1*
X1742817Y1195436D1*
X1740915Y1203086D1*
X1738970Y1206932D1*
X1735167Y1208834D1*
X1731321D1*
X1727518Y1206932D1*
X1725617Y1201184D1*
Y1193535D1*
X1725572Y755913D2*
X1765764D1*
X1765765Y778861D1*
X1738970Y816106D2*
X1744718Y814160D1*
X1748565Y810358D1*
X1750466Y804610D1*
Y802708D1*
X1748565Y796960D1*
X1744718Y793158D1*
X1738970Y791212D1*
X1737069D1*
X1731321Y793158D1*
X1727518Y796960D1*
X1725617Y802708D1*
Y804610D1*
X1727518Y810358D1*
X1731321Y814160D1*
X1738970Y816106D1*
X1748565D1*
X1758115Y814160D1*
X1763863Y810358D1*
X1765764Y804609D1*
X1765765Y800807D1*
X1763863Y795059D1*
X1760016Y793158D1*
X1126009Y1539647D2*
X1166201D1*
X1166202Y1562595D1*
X1133703Y1574946D2*
X1131758Y1578793D1*
X1126054Y1584541D1*
X1166202D1*
X1133703Y1596892D2*
X1131758Y1600739D1*
X1126054Y1606487D1*
X1166201D1*
X1126009Y1137346D2*
X1166201D1*
X1166202Y1160294D1*
X1133703Y1172645D2*
X1131758Y1176492D1*
X1126054Y1182240D1*
X1166202D1*
X1135604Y1196537D2*
X1133703D1*
X1129856Y1198438D1*
X1127955Y1200340D1*
X1126054Y1204186D1*
Y1211836D1*
X1127955Y1215638D1*
X1129856Y1217540D1*
X1133703Y1219485D1*
X1137506D1*
X1141352Y1217539D1*
X1147056Y1213737D1*
X1166202Y1194592D1*
X1166201Y1221386D1*
X1126009Y743645D2*
X1166201D1*
X1166202Y766593D1*
X1133703Y778945D2*
X1131758Y782791D1*
X1126054Y788539D1*
X1166202D1*
X1126054Y804738D2*
Y825740D1*
X1141352Y814288D1*
Y820036D1*
X1143254Y823839D1*
X1145155Y825740D1*
X1150903Y827685D1*
X1154705D1*
X1160453Y825740D1*
X1164300Y821937D1*
X1166201Y816189D1*
Y810441D1*
X1164300Y804738D1*
X1162355Y802836D1*
X1158552Y800891D1*
X525462Y1530112D2*
X565654D1*
Y1553060D1*
X533156Y1565411D2*
X531210Y1569258D1*
X525507Y1575006D1*
X565654D1*
Y1606503D2*
X525506D1*
X552257Y1587357D1*
Y1616053D1*
X525462Y1137362D2*
X565654D1*
Y1160310D1*
X533156Y1172661D2*
X531210Y1176508D1*
X525507Y1182256D1*
X565654D1*
X525506Y1217555D2*
X525507Y1198454D1*
X542706Y1196553D1*
X540805Y1198454D1*
X538860Y1204202D1*
Y1209906D1*
X540805Y1215654D1*
X544608Y1219501D1*
X550356Y1221402D1*
X554158D1*
X559906Y1219501D1*
X563753Y1215654D1*
X565654Y1209906D1*
Y1204202D1*
X563753Y1198454D1*
X561808Y1196553D1*
X558005Y1194607D1*
X525462Y744634D2*
X565654D1*
Y767582D1*
X533156Y779933D2*
X531210Y783780D1*
X525507Y789528D1*
X565654D1*
X531210Y824827D2*
X527408Y822926D1*
X525507Y817178D1*
Y813375D1*
X527408Y807627D1*
X533156Y803781D1*
X542706Y801879D1*
X552257D1*
X559906Y803781D1*
X563753Y807627D1*
X565654Y813375D1*
Y815277D1*
X563753Y820980D1*
X559906Y824827D1*
X554158Y826728D1*
X552257D1*
X546509Y824827D1*
X542706Y820980D1*
X540805Y815277D1*
Y813375D1*
X542706Y807627D1*
X546509Y803781D1*
X552257Y801879D1*
X1073978Y1172800D2*
X1070176Y1170898D1*
X1066329Y1167052D1*
X1064428Y1163249D1*
Y1155600D1*
X1066329Y1151753D1*
X1070176Y1147950D1*
X1073978Y1146005D1*
X1079726Y1144104D1*
X1089321D1*
X1095025Y1146005D1*
X1098872Y1147950D1*
X1102674Y1151753D1*
X1104620Y1155600D1*
Y1163249D1*
X1102674Y1167051D1*
X1098872Y1170898D1*
X1095025Y1172800D1*
X1074023Y1187096D2*
X1072121D1*
X1068275Y1188998D1*
X1066373Y1190899D1*
X1064472Y1194746D1*
Y1202395D1*
X1066373Y1206198D1*
X1068275Y1208099D1*
X1072121Y1210044D1*
X1075924D1*
X1079771Y1208099D1*
X1085475Y1204296D1*
X1104620Y1185151D1*
Y1211946D1*
X1064472Y1235793D2*
X1066373Y1230045D1*
X1072121Y1226198D1*
X1081672Y1224297D1*
X1087420D1*
X1096971Y1226198D1*
X1102719Y1230045D1*
X1104620Y1235793D1*
Y1239596D1*
X1102719Y1245344D1*
X1096971Y1249146D1*
X1087420Y1251092D1*
X1081672D1*
X1072121Y1249146D1*
X1066373Y1245344D1*
X1064472Y1239596D1*
Y1235793D1*
X1072121Y1249146D2*
X1096971Y1226198D1*
X1074023Y1265389D2*
X1072121D1*
X1068275Y1267290D1*
X1066373Y1269191D1*
X1064472Y1273038D1*
Y1280687D1*
X1066373Y1284490D1*
X1068275Y1286391D1*
X1072121Y1288336D1*
X1075924D1*
X1079771Y1286391D1*
X1085475Y1282588D1*
X1104620Y1263443D1*
Y1290238D1*
X1652263Y1178602D2*
X1648461Y1176700D1*
X1644614Y1172854D1*
X1642713Y1169051D1*
Y1161402D1*
X1644614Y1157555D1*
X1648461Y1153752D1*
X1652263Y1151807D1*
X1658011Y1149906D1*
X1667606D1*
X1673310Y1151807D1*
X1677157Y1153752D1*
X1680959Y1157555D1*
X1682905Y1161402D1*
Y1169051D1*
X1680959Y1172854D1*
X1677157Y1176700D1*
X1673310Y1178602D1*
X1652307Y1192898D2*
X1650406D1*
X1646559Y1194800D1*
X1644658Y1196701D1*
X1642757Y1200548D1*
Y1208197D1*
X1644658Y1212000D1*
X1646559Y1213901D1*
X1650406Y1215846D1*
X1654209D1*
X1658056Y1213901D1*
X1663759Y1210098D1*
X1682905Y1190953D1*
Y1217748D1*
X1642757Y1241595D2*
X1644658Y1235847D1*
X1650406Y1232000D1*
X1659957Y1230099D1*
X1665705D1*
X1675255Y1232000D1*
X1681003Y1235847D1*
X1682905Y1241595D1*
Y1245398D1*
X1681003Y1251146D1*
X1675255Y1254948D1*
X1665705Y1256894D1*
X1659957D1*
X1650406Y1254948D1*
X1644658Y1251146D1*
X1642757Y1245398D1*
Y1241595D1*
X1650406Y1254948D2*
X1675255Y1232000D1*
X1650406Y1269245D2*
X1648461Y1273092D1*
X1642757Y1278840D1*
X1682905D1*
X942983Y1892449D2*
Y1852257D1*
X955334Y1879051D2*
Y1852257D1*
Y1871402D2*
X961082Y1877150D1*
X964929Y1879051D1*
X970633D1*
X974480Y1877150D1*
X976381Y1871402D1*
Y1852257D1*
X3226901Y499321D2*
X3223055Y497420D1*
X3219252Y493573D1*
X3217307Y489771D1*
X3215405Y484023D1*
Y474428D1*
X3217307Y468724D1*
X3219252Y464878D1*
X3223055Y461075D1*
X3226901Y459129D1*
X3234551D1*
X3238353Y461075D1*
X3242200Y464878D1*
X3244101Y468724D1*
X3246003Y474428D1*
Y484023D1*
X3244101Y489771D1*
X3242200Y493573D1*
X3238353Y497420D1*
X3234551Y499321D1*
X3226901D1*
X3258354Y485924D2*
Y466779D1*
X3260255Y461075D1*
X3264102Y459129D1*
X3269850D1*
X3273653Y461075D1*
X3279401Y466779D1*
Y485924D2*
Y459129D1*
X3297500Y499321D2*
Y466779D1*
X3299401Y461075D1*
X3303248Y459129D1*
X3307051D1*
X3291752Y485924D2*
X3305149D1*
X659395Y1978487D2*
D31*
X650839Y1975636D1*
X647921Y1969932D1*
Y1964162D1*
X650839Y1958458D1*
X656543Y1955540D1*
X668017Y1952688D1*
X676639Y1949836D1*
X682343Y1944066D1*
X685194Y1938362D1*
Y1929740D1*
X682343Y1924036D1*
X679491Y1921118D1*
X670869Y1918266D1*
X659395D1*
X650839Y1921118D1*
X647921Y1924036D1*
X645069Y1929740D1*
Y1938362D1*
X647921Y1944066D1*
X653691Y1949836D1*
X662247Y1952688D1*
X673721Y1955540D1*
X679491Y1958458D1*
X682343Y1964162D1*
Y1969932D1*
X679491Y1975636D1*
X670869Y1978487D1*
X659395D1*
X720966D2*
X712344Y1975636D1*
X706573Y1967013D1*
X703722Y1952688D1*
Y1944066D1*
X706573Y1929740D1*
X712344Y1921118D1*
X720966Y1918266D1*
X726669D1*
X735292Y1921118D1*
X740995Y1929740D1*
X743914Y1944066D1*
Y1952688D1*
X740995Y1967013D1*
X735292Y1975636D1*
X726669Y1978487D1*
X720966D1*
X740995Y1967013D2*
X706573Y1929740D1*
X808336Y1918266D2*
Y1978554D1*
X785389Y1918266D1*
X762441Y1978554D1*
Y1918266D1*
X1235373Y1924230D2*
Y1984452D1*
X1206655Y1944326D1*
X1249699D1*
X1285470Y1984452D2*
X1276848Y1981600D1*
X1271078Y1972978D1*
X1268226Y1958652D1*
Y1950030D1*
X1271078Y1935704D1*
X1276848Y1927082D1*
X1285470Y1924230D1*
X1291174D1*
X1299796Y1927082D1*
X1305500Y1935704D1*
X1308418Y1950030D1*
Y1958652D1*
X1305500Y1972978D1*
X1299796Y1981600D1*
X1291174Y1984452D1*
X1285470D1*
X1305500Y1972978D2*
X1271078Y1935704D1*
X1372841Y1924230D2*
Y1984518D1*
X1349893Y1924230D1*
X1326946Y1984518D1*
Y1924230D1*
X1827806Y1970126D2*
Y1972978D1*
X1830658Y1978748D1*
X1833510Y1981600D1*
X1839280Y1984452D1*
X1850754D1*
X1856458Y1981600D1*
X1859310Y1978748D1*
X1862228Y1972978D1*
Y1967274D1*
X1859310Y1961504D1*
X1853606Y1952948D1*
X1824888Y1924230D1*
X1865080D1*
X1900851Y1984452D2*
X1892229Y1981600D1*
X1886459Y1972978D1*
X1883607Y1958652D1*
Y1950030D1*
X1886459Y1935704D1*
X1892229Y1927082D1*
X1900851Y1924230D1*
X1906555D1*
X1915177Y1927082D1*
X1920881Y1935704D1*
X1923799Y1950030D1*
Y1958652D1*
X1920881Y1972978D1*
X1915177Y1981600D1*
X1906555Y1984452D1*
X1900851D1*
X1920881Y1972978D2*
X1886459Y1935704D1*
X1988222Y1924230D2*
Y1984518D1*
X1965274Y1924230D1*
X1942326Y1984518D1*
Y1924230D1*
X2439319Y1972978D2*
X2445090Y1975896D1*
X2453712Y1984452D1*
Y1924230D1*
X2506661Y1984452D2*
X2478009D1*
X2475157Y1958652D1*
X2478009Y1961504D1*
X2486631Y1964422D1*
X2495187D1*
X2503809Y1961504D1*
X2509579Y1955800D1*
X2512431Y1947178D1*
Y1941474D1*
X2509579Y1932852D1*
X2503809Y1927082D1*
X2495187Y1924230D1*
X2486631D1*
X2478009Y1927082D1*
X2475157Y1930000D1*
X2472239Y1935704D1*
X2576854Y1924230D2*
Y1984518D1*
X2553906Y1924230D1*
X2530958Y1984518D1*
Y1924230D1*
X3019350Y1972978D2*
X3025120Y1975896D1*
X3033742Y1984452D1*
Y1924230D1*
X3069513Y1984452D2*
X3060891Y1981600D1*
X3055121Y1972978D1*
X3052269Y1958652D1*
Y1950030D1*
X3055121Y1935704D1*
X3060891Y1927082D1*
X3069513Y1924230D1*
X3075217D1*
X3083839Y1927082D1*
X3089543Y1935704D1*
X3092461Y1950030D1*
Y1958652D1*
X3089543Y1972978D1*
X3083839Y1981600D1*
X3075217Y1984452D1*
X3069513D1*
X3089543Y1972978D2*
X3055121Y1935704D1*
X3156884Y1924230D2*
Y1984518D1*
X3133936Y1924230D1*
X3110988Y1984518D1*
Y1924230D1*
X507681Y1928099D2*
D30*
X505780Y1931902D1*
X501933Y1935748D1*
X498131Y1937650D1*
X490482D1*
X486635Y1935748D1*
X482832Y1931902D1*
X480887Y1928099D1*
X478985Y1922351D1*
Y1912756D1*
X480887Y1907052D1*
X482832Y1903206D1*
X486635Y1899403D1*
X490482Y1897458D1*
X498131D1*
X501933Y1899403D1*
X505780Y1903206D1*
X507681Y1907052D1*
Y1912756D1*
X498131D1*
X520033Y1924252D2*
Y1897458D1*
Y1916603D2*
X525781Y1922351D1*
X529628Y1924252D1*
X535331D1*
X539178Y1922351D1*
X541079Y1916603D1*
Y1897458D1*
X576379Y1937650D2*
Y1897458D1*
Y1918504D2*
X572576Y1922351D1*
X568729Y1924252D1*
X562981D1*
X559179Y1922351D1*
X555332Y1918504D1*
X553431Y1912756D1*
Y1908954D1*
X555332Y1903206D1*
X559179Y1899403D1*
X562981Y1897458D1*
X568729D1*
X572576Y1899403D1*
X576379Y1903206D1*
X613563Y489771D2*
X611662Y493573D1*
X607815Y497420D1*
X604013Y499321D1*
X596363D1*
X592517Y497420D1*
X588714Y493573D1*
X586769Y489771D1*
X584867Y484023D1*
Y474428D1*
X586769Y468724D1*
X588714Y464878D1*
X592517Y461075D1*
X596363Y459129D1*
X604013D1*
X607815Y461075D1*
X611662Y464878D1*
X613563Y468724D1*
Y474428D1*
X604013D1*
X625915Y485924D2*
Y459129D1*
Y478275D2*
X631663Y484023D1*
X635510Y485924D1*
X641213D1*
X645060Y484023D1*
X646961Y478275D1*
Y459129D1*
X682261Y499321D2*
Y459129D1*
Y480176D2*
X678458Y484023D1*
X674611Y485924D1*
X668863D1*
X665061Y484023D1*
X661214Y480176D1*
X659313Y474428D1*
Y470626D1*
X661214Y464878D1*
X665061Y461075D1*
X668863Y459129D1*
X674611D1*
X678458Y461075D1*
X682261Y464878D1*
X1197489Y489771D2*
X1195587Y493573D1*
X1191740Y497420D1*
X1187938Y499321D1*
X1180289D1*
X1176442Y497420D1*
X1172639Y493573D1*
X1170694Y489771D1*
X1168793Y484023D1*
Y474428D1*
X1170694Y468724D1*
X1172639Y464878D1*
X1176442Y461075D1*
X1180289Y459129D1*
X1187938D1*
X1191740Y461075D1*
X1195587Y464878D1*
X1197489Y468724D1*
Y474428D1*
X1187938D1*
X1209840Y485924D2*
Y459129D1*
Y478275D2*
X1215588Y484023D1*
X1219435Y485924D1*
X1225139D1*
X1228985Y484023D1*
X1230887Y478275D1*
Y459129D1*
X1266186Y499321D2*
Y459129D1*
Y480176D2*
X1262383Y484023D1*
X1258537Y485924D1*
X1252789D1*
X1248986Y484023D1*
X1245139Y480176D1*
X1243238Y474428D1*
Y470626D1*
X1245139Y464878D1*
X1248986Y461075D1*
X1252789Y459129D1*
X1258537D1*
X1262383Y461075D1*
X1266186Y464878D1*
X822205Y499321D2*
X818358Y497420D1*
X814555Y493573D1*
X812610Y489771D1*
X810709Y484023D1*
Y474428D1*
X812610Y468724D1*
X814555Y464878D1*
X818358Y461075D1*
X822205Y459129D1*
X829854D1*
X833656Y461075D1*
X837503Y464878D1*
X839405Y468724D1*
X841306Y474428D1*
Y484023D1*
X839405Y489771D1*
X837503Y493573D1*
X833656Y497420D1*
X829854Y499321D1*
X822205D1*
X853657Y485924D2*
Y466779D1*
X855558Y461075D1*
X859405Y459129D1*
X865153D1*
X868956Y461075D1*
X874704Y466779D1*
Y485924D2*
Y459129D1*
X892803Y499321D2*
Y466779D1*
X894705Y461075D1*
X898551Y459129D1*
X902354D1*
X887055Y485924D2*
X900453D1*
X1406130Y499321D2*
X1402283Y497420D1*
X1398481Y493573D1*
X1396535Y489771D1*
X1394634Y484023D1*
Y474428D1*
X1396535Y468724D1*
X1398481Y464878D1*
X1402283Y461075D1*
X1406130Y459129D1*
X1413779D1*
X1417582Y461075D1*
X1421428Y464878D1*
X1423330Y468724D1*
X1425231Y474428D1*
Y484023D1*
X1423330Y489771D1*
X1421428Y493573D1*
X1417582Y497420D1*
X1413779Y499321D1*
X1406130D1*
X1437582Y485924D2*
Y466779D1*
X1439484Y461075D1*
X1443330Y459129D1*
X1449078D1*
X1452881Y461075D1*
X1458629Y466779D1*
Y485924D2*
Y459129D1*
X1476728Y499321D2*
Y466779D1*
X1478630Y461075D1*
X1482476Y459129D1*
X1486279D1*
X1470980Y485924D2*
X1484378D1*
X2013054Y499321D2*
X2009207Y497420D1*
X2005404Y493573D1*
X2003459Y489771D1*
X2001558Y484023D1*
Y474428D1*
X2003459Y468724D1*
X2005404Y464878D1*
X2009207Y461075D1*
X2013054Y459129D1*
X2020703D1*
X2024506Y461075D1*
X2028352Y464878D1*
X2030254Y468724D1*
X2032155Y474428D1*
Y484023D1*
X2030254Y489771D1*
X2028352Y493573D1*
X2024506Y497420D1*
X2020703Y499321D1*
X2013054D1*
X2044506Y485924D2*
Y466779D1*
X2046408Y461075D1*
X2050254Y459129D1*
X2056002D1*
X2059805Y461075D1*
X2065553Y466779D1*
Y485924D2*
Y459129D1*
X2083652Y499321D2*
Y466779D1*
X2085554Y461075D1*
X2089400Y459129D1*
X2093203D1*
X2077904Y485924D2*
X2091302D1*
X2619978Y499321D2*
X2616131Y497420D1*
X2612328Y493573D1*
X2610383Y489771D1*
X2608482Y484023D1*
Y474428D1*
X2610383Y468724D1*
X2612328Y464878D1*
X2616131Y461075D1*
X2619978Y459129D1*
X2627627D1*
X2631429Y461075D1*
X2635276Y464878D1*
X2637177Y468724D1*
X2639079Y474428D1*
Y484023D1*
X2637177Y489771D1*
X2635276Y493573D1*
X2631429Y497420D1*
X2627627Y499321D1*
X2619978D1*
X2651430Y485924D2*
Y466779D1*
X2653331Y461075D1*
X2657178Y459129D1*
X2662926D1*
X2666729Y461075D1*
X2672477Y466779D1*
Y485924D2*
Y459129D1*
X2690576Y499321D2*
Y466779D1*
X2692478Y461075D1*
X2696324Y459129D1*
X2700127D1*
X2684828Y485924D2*
X2698226D1*
X2949264Y489771D2*
X2947363Y493573D1*
X2943516Y497420D1*
X2939714Y499321D1*
X2932064D1*
X2928217Y497420D1*
X2924415Y493573D1*
X2922469Y489771D1*
X2920568Y484023D1*
Y474428D1*
X2922469Y468724D1*
X2924415Y464878D1*
X2928217Y461075D1*
X2932064Y459129D1*
X2939714D1*
X2943516Y461075D1*
X2947363Y464878D1*
X2949264Y468724D1*
Y474428D1*
X2939714D1*
X2961616Y485924D2*
Y459129D1*
Y478275D2*
X2967364Y484023D1*
X2971210Y485924D1*
X2976914D1*
X2980761Y484023D1*
X2982662Y478275D1*
Y459129D1*
X3017961Y499321D2*
Y459129D1*
Y480176D2*
X3014159Y484023D1*
X3010312Y485924D1*
X3004564D1*
X3000762Y484023D1*
X2996915Y480176D1*
X2995014Y474428D1*
Y470626D1*
X2996915Y464878D1*
X3000762Y461075D1*
X3004564Y459129D1*
X3010312D1*
X3014159Y461075D1*
X3017961Y464878D1*
X1543957Y1892449D2*
Y1852257D1*
X1556308Y1879051D2*
Y1852257D1*
Y1871402D2*
X1562056Y1877150D1*
X1565903Y1879051D1*
X1571607D1*
X1575453Y1877150D1*
X1577355Y1871402D1*
Y1852257D1*
X2144929Y1892449D2*
Y1852257D1*
X2157280Y1879051D2*
Y1852257D1*
Y1871402D2*
X2163028Y1877150D1*
X2166875Y1879051D1*
X2172579D1*
X2176426Y1877150D1*
X2178327Y1871402D1*
Y1852257D1*
X2745903Y1892449D2*
Y1852257D1*
X2758254Y1879051D2*
Y1852257D1*
Y1871402D2*
X2764002Y1877150D1*
X2767849Y1879051D1*
X2773553D1*
X2777400Y1877150D1*
X2779301Y1871402D1*
Y1852257D1*
X3346875Y1892449D2*
Y1852257D1*
X3359227Y1879051D2*
Y1852257D1*
Y1871402D2*
X3364975Y1877150D1*
X3368821Y1879051D1*
X3374525D1*
X3378372Y1877150D1*
X3380273Y1871402D1*
Y1852257D1*
X1781414Y489771D2*
X1779512Y493573D1*
X1775666Y497420D1*
X1771863Y499321D1*
X1764214D1*
X1760367Y497420D1*
X1756565Y493573D1*
X1754619Y489771D1*
X1752718Y484023D1*
Y474428D1*
X1754619Y468724D1*
X1756565Y464878D1*
X1760367Y461075D1*
X1764214Y459129D1*
X1771863D1*
X1775666Y461075D1*
X1779512Y464878D1*
X1781414Y468724D1*
Y474428D1*
X1771863D1*
X1793765Y485924D2*
Y459129D1*
Y478275D2*
X1799513Y484023D1*
X1803360Y485924D1*
X1809064D1*
X1812910Y484023D1*
X1814812Y478275D1*
Y459129D1*
X1850111Y499321D2*
Y459129D1*
Y480176D2*
X1846309Y484023D1*
X1842462Y485924D1*
X1836714D1*
X1832911Y484023D1*
X1829064Y480176D1*
X1827163Y474428D1*
Y470626D1*
X1829064Y464878D1*
X1832911Y461075D1*
X1836714Y459129D1*
X1842462D1*
X1846309Y461075D1*
X1850111Y464878D1*
X2365339Y489771D2*
X2363438Y493573D1*
X2359591Y497420D1*
X2355788Y499321D1*
X2348139D1*
X2344292Y497420D1*
X2340490Y493573D1*
X2338544Y489771D1*
X2336643Y484023D1*
Y474428D1*
X2338544Y468724D1*
X2340490Y464878D1*
X2344292Y461075D1*
X2348139Y459129D1*
X2355788D1*
X2359591Y461075D1*
X2363438Y464878D1*
X2365339Y468724D1*
Y474428D1*
X2355788D1*
X2377690Y485924D2*
Y459129D1*
Y478275D2*
X2383438Y484023D1*
X2387285Y485924D1*
X2392989D1*
X2396836Y484023D1*
X2398737Y478275D1*
Y459129D1*
X2434036Y499321D2*
Y459129D1*
Y480176D2*
X2430234Y484023D1*
X2426387Y485924D1*
X2420639D1*
X2416836Y484023D1*
X2412990Y480176D1*
X2411088Y474428D1*
Y470626D1*
X2412990Y464878D1*
X2416836Y461075D1*
X2420639Y459129D1*
X2426387D1*
X2430234Y461075D1*
X2434036Y464878D1*
X2191994Y809732D2*
D31*
X2191993Y772392D1*
X2252281D1*
X2220712D2*
Y795340D1*
X2191994Y828259D2*
X2194845Y831111D1*
X2191994Y834029D1*
X2189075Y831111D1*
X2191994Y828259D1*
X2212090Y831111D2*
X2252282D1*
X2191994Y852556D2*
X2252282D1*
X2191994Y879705D2*
X2240808D1*
X2249363Y882557D1*
X2252282Y888327D1*
Y894031D1*
X2212090Y871083D2*
Y891179D1*
X2229334Y912558D2*
Y946980D1*
X2223563D1*
X2217793Y944128D1*
X2214941Y941276D1*
X2212090Y935506D1*
Y926884D1*
X2214941Y921180D1*
X2220712Y915410D1*
X2229334Y912558D1*
X2235037D1*
X2243659Y915410D1*
X2249363Y921180D1*
X2252282Y926884D1*
X2252281Y935506D1*
X2249363Y941276D1*
X2243659Y946980D1*
X2212090Y965507D2*
X2252281D1*
X2229334D2*
X2220712Y968425D1*
X2214941Y974129D1*
X2212090Y979899D1*
Y988521D1*
X2191994Y1065370D2*
X2252281D1*
Y1091236D1*
X2249363Y1099858D1*
X2246511Y1102710D1*
X2240808Y1105562D1*
X2232185D1*
X2226415Y1102710D1*
X2223563Y1099858D1*
X2220712Y1091236D1*
X2217793Y1099858D1*
X2214941Y1102710D1*
X2209238Y1105562D1*
X2203467D1*
X2197764Y1102710D1*
X2194845Y1099858D1*
X2191994Y1091236D1*
Y1065370D1*
X2220712D2*
Y1091236D1*
X2212089Y1138415D2*
X2214941Y1132711D1*
X2220712Y1126941D1*
X2229334Y1124089D1*
X2235037D1*
X2243659Y1126941D1*
X2249363Y1132711D1*
X2252281Y1138415D1*
Y1147037D1*
X2249363Y1152807D1*
X2243659Y1158511D1*
X2235037Y1161429D1*
X2229334D1*
X2220712Y1158511D1*
X2214941Y1152807D1*
X2212089Y1147037D1*
Y1138415D1*
Y1214378D2*
X2252281D1*
X2220712D2*
X2214941Y1208674D1*
X2212089Y1202904D1*
Y1194348D1*
X2214941Y1188578D1*
X2220712Y1182874D1*
X2229334Y1179956D1*
X2235037D1*
X2243659Y1182874D1*
X2249363Y1188578D1*
X2252281Y1194348D1*
Y1202904D1*
X2249363Y1208674D1*
X2243659Y1214378D1*
X2212089Y1232905D2*
X2252281D1*
X2229334D2*
X2220712Y1235823D1*
X2214941Y1241527D1*
X2212089Y1247297D1*
Y1255919D1*
X2191993Y1308868D2*
X2252281D1*
X2220712D2*
X2214941Y1303164D1*
X2212089Y1297394D1*
Y1288772D1*
X2214941Y1283068D1*
X2220712Y1277298D1*
X2229334Y1274446D1*
X2235037D1*
X2243659Y1277298D1*
X2249363Y1283068D1*
X2252281Y1288772D1*
Y1297394D1*
X2249363Y1303164D1*
X2243659Y1308868D1*
X2191993Y1385716D2*
X2252281Y1408664D1*
X2191993Y1431612D1*
X2192060Y1467383D2*
X2194912Y1458761D1*
X2203534Y1452991D1*
X2217860Y1450139D1*
X2226482D1*
X2240808Y1452991D1*
X2249430Y1458761D1*
X2252281Y1467383D1*
Y1473087D1*
X2249430Y1481709D1*
X2240808Y1487413D1*
X2226482Y1490331D1*
X2217860D1*
X2203534Y1487413D1*
X2194912Y1481709D1*
X2192060Y1473087D1*
Y1467383D1*
X2203534Y1487413D2*
X2240808Y1452991D1*
X2203534Y1508858D2*
X2200616Y1514628D1*
X2192060Y1523251D1*
X2252281D1*
X2192060Y1559022D2*
X2194912Y1550400D1*
X2203534Y1544630D1*
X2217860Y1541778D1*
X2226482D1*
X2240808Y1544630D1*
X2249430Y1550400D1*
X2252281Y1559022D1*
Y1564726D1*
X2249430Y1573348D1*
X2240808Y1579051D1*
X2226482Y1581970D1*
X2217860D1*
X2203534Y1579051D1*
X2194912Y1573348D1*
X2192060Y1564726D1*
Y1559022D1*
X2203534Y1579051D2*
X2240808Y1544630D1*
M02*
