M48
INCH
T01C0.0354
T02C0.0394
T03C0.0433
T04C0.055
T05C0.11
T06C0.1575
%
T01
X+005856Y+014956
X+005856Y+013956
X+005856Y+012956
X+006856Y+012956
X+006856Y+013956
X+006856Y+014956
X+006856Y+015956
X+005856Y+015956
X+009055Y+014961
X+009055Y+013386
X+009055Y+011024
X+009055Y+009055
X+006856Y+008956
X+005856Y+008956
X+005856Y+009956
X+006856Y+009956
X+006856Y+010956
X+005856Y+010956
X+005856Y+011956
X+006856Y+011956
X+013386Y+023622
X+013386Y+026378
T02
X+012465Y+019049
X+012465Y+021049
X+015356Y+010055
X+015356Y+008055
X+025532Y+008074
X+025532Y+010074
T03
X+017025Y+020255
X+017025Y+019255
X+017025Y+018255
X+019291Y+018255
X+019291Y+019255
X+019291Y+020255
X+010630Y+023984
X+010630Y+024984
X+010630Y+025984
X+029724Y+020255
X+029724Y+019255
X+029724Y+018255
T04
X+006037Y+019859
X+006037Y+021859
T05
X+028537Y+024261
X+028537Y+014261
X+018046Y+014255
X+018046Y+024255
T06
X+005298Y+005328
X+030166Y+005328
T00
M30
