M48
INCH
T01C0.0191
T02C0.0354
T03C0.0394
T04C0.06
T05C0.1575
%
T03
X+009057Y+011144
X+009057Y+012144
X+009101Y+006613
X+009101Y+007613
X+009034Y+014401
X+009034Y+015401
X+036368Y+023008
X+036368Y+022008
X+041595Y+015903
X+040595Y+015903
X+041815Y+011759
X+040815Y+011759
T05
X+041940Y+006011
X+005440Y+005511
T03
X+040418Y+030819G85X+039670Y+030819
X+041985Y+027470G85X+041985Y+028218
X+041125Y+027795G85X+041125Y+028543
X+038198Y+028769G85X+038198Y+029517
X+038921Y+026462G85X+038173Y+026462
T02
X+005316Y+019635
X+005316Y+020423
X+019539Y+018119
X+012818Y+012039
X+012356Y+008406
X+012995Y+005515
X+021780Y+019341
X+023408Y+014440
X+023408Y+012238
X+023408Y+010455
X+023408Y+015805
T04
X+007324Y+030358
X+007324Y+028358
T02
X+011272Y+030231
X+041786Y+009359
X+009023Y+029385
X+006227Y+025132
X+008190Y+025132
X+006227Y+023021
X+008227Y+023095
X+020954Y+029708
X+012668Y+015405
X+022682Y+007847
X+035830Y+030318
X+035830Y+028743
X+035931Y+026943
X+040948Y+021491
T04
X+005324Y+028358
T02
X+019182Y+029687
T04
X+005324Y+030358
X+006324Y+029358
X+024778Y+030630
X+024778Y+028630
X+022778Y+028630
X+022778Y+030630
X+023778Y+029630
T02
X+005290Y+015299
X+005290Y+014299
X+005290Y+013299
X+005290Y+012299
X+005290Y+011299
X+005290Y+010299
X+005290Y+009299
X+006290Y+009299
X+006290Y+010299
X+006290Y+011299
X+006290Y+012299
X+006290Y+013299
X+006290Y+014299
X+006290Y+015299
X+006290Y+016299
X+005290Y+016299
T01
X+016950Y+012077
X+028743Y+013389
X+017326Y+014570
X+041735Y+014176
X+023890Y+020074
X+024894Y+021568
X+026149Y+022915
X+040948Y+018735
X+027588Y+024078
X+029241Y+025609
X+031169Y+025640
X+016932Y+008665
X+033036Y+025609
X+034108Y+024538
X+036342Y+024385
X+037658Y+024048
X+037536Y+022823
X+039220Y+022854
X+041271Y+023099
X+033924Y+030384
X+034016Y+028639
X+036985Y+027905
X+026333Y+030660
X+026241Y+028701
X+025292Y+027140
X+024771Y+025180
X+024710Y+023772
X+022690Y+024140
X+022598Y+026221
X+022016Y+027629
X+019910Y+027564
X+017731Y+028762
X+017670Y+027048
X+016751Y+025150
X+016996Y+023068
X+017853Y+025058
X+019782Y+025150
X+020884Y+024446
X+010323Y+029466
X+009436Y+028241
X+008823Y+026435
X+007140Y+026038
X+007048Y+026956
X+005426Y+026864
X+005487Y+024140
X+005364Y+021691
X+006987Y+020772
X+007023Y+019263
X+008027Y+017711
X+008250Y+019254
X+014311Y+020797
X+010286Y+013261
X+010181Y+018414
X+010524Y+017722
X+007838Y+011725
X+008578Y+009263
X+010446Y+008987
X+013017Y+009906
X+014348Y+011403
X+014560Y+015990
X+013476Y+013701
X+012706Y+007078
X+014058Y+008253
X+015833Y+009814
X+018313Y+009967
X+020761Y+009998
X+024680Y+009783
X+024557Y+012446
X+022476Y+012324
X+022935Y+008681
X+025322Y+007334
X+028016Y+007365
X+029945Y+007365
X+034353Y+007702
X+035301Y+008620
X+036342Y+007120
X+039709Y+007610
X+040138Y+009324
X+040413Y+010518
X+032577Y+015599
X+033618Y+016916
X+033434Y+018538
X+034383Y+015232
X+034016Y+012293
X+033006Y+014191
X+027557Y+021997
X+027496Y+020711
X+026149Y+020528
X+024833Y+019181
X+023731Y+018048
X+022170Y+015599
X+029516Y+013793
X+014333Y+021660
X+012221Y+021997
X+010109Y+021997
X+008732Y+024140
X+014441Y+013517
X+012328Y+018510
X+012762Y+017299
X+014280Y+018040
X+017429Y+017966
X+015317Y+018040
X+017688Y+020669
X+015725Y+020114
X+012354Y+019595
X+010058Y+019484
X+008539Y+021151
X+010789Y+020863
X+031725Y+021336
X+031392Y+022558
X+033244Y+023151
X+034281Y+022040
X+016647Y+019408
X+024289Y+016797
X+025065Y+011663
X+036335Y+014039
X+039100Y+018986
X+039654Y+014101
X+035625Y+023216
X+032539Y+020102
X+030087Y+010215
X+030078Y+011571
X+039016Y+016367
X+038980Y+017872
X+020528Y+021165
X+028150Y+014530
X+031853Y+011676
X+015185Y+022360
X+016194Y+013679
X+017813Y+015826
X+021646Y+022674
X+019805Y+022856
X+021805Y+021543
X+020696Y+012108
X+020700Y+015705
X+016673Y+015709
X+037356Y+007100
X+015878Y+021534
X+031855Y+018987
X+022904Y+019341
X+022982Y+017554
X+021763Y+014537
X+021763Y+011172
X+018439Y+018119
X+030735Y+011228
X+030735Y+010266
X+011419Y+028615
X+009528Y+016668
X+015701Y+016643
X+024903Y+013931
X+024903Y+018025
X+023729Y+023523
X+023729Y+022694
X+028150Y+018311
X+038388Y+016373
X+038388Y+018475
T00
M30
