M48
INCH
T01C0.0191
T02C0.0276
T03C0.0354
T04C0.0394
T05C0.06
T06C0.125
%
T01
X+011308Y+020464
X+013471Y+021508
X+013508Y+022697
X+012669Y+023954
X+012992Y+025187
X+013712Y+025538
X+014024Y+026141
X+013344Y+027261
X+012463Y+026845
X+011324Y+026797
X+010669Y+026736
X+009878Y+027249
X+008397Y+027249
X+009878Y+029508
X+010619Y+029360
X+013495Y+029890
X+015141Y+030049
X+015952Y+028620
X+016687Y+029355
X+017942Y+029232
X+018462Y+028559
X+018462Y+026970
X+020175Y+026657
X+021286Y+026249
X+021337Y+027793
X+020138Y+028027
X+019885Y+029744
X+021395Y+029743
X+022044Y+031314
X+023574Y+031161
X+023344Y+029733
X+025457Y+029743
X+025435Y+028138
X+023731Y+026768
X+022916Y+025249
X+023380Y+024244
X+024879Y+024228
X+025537Y+024943
X+026637Y+024140
X+027784Y+024915
X+029622Y+024308
X+029805Y+025286
X+031916Y+024252
X+032731Y+025249
X+035344Y+024472
X+036546Y+023916
X+036538Y+025249
X+038474Y+025231
X+038584Y+023916
X+040352Y+025268
X+041102Y+024460
X+042324Y+023916
X+042268Y+025262
X+040250Y+026842
X+039472Y+027768
X+038472Y+028731
X+037546Y+029694
X+036546Y+030805
X+035519Y+030777
X+033537Y+030740
X+032213Y+030814
X+029870Y+030721
X+028842Y+030138
X+027936Y+029014
X+027241Y+030708
X+027493Y+032722
X+028694Y+032398
X+028694Y+033213
X+028694Y+034324
X+027554Y+034405
X+031546Y+033287
X+034287Y+033213
X+037065Y+033175
X+038695Y+031361
X+039547Y+032175
X+040991Y+032212
X+042510Y+032212
X+042361Y+034509
X+042516Y+027960
X+036568Y+028126
X+036736Y+022402
X+037309Y+021493
X+038723Y+020954
X+039800Y+021897
X+041351Y+021244
X+042399Y+021693
X+042250Y+019582
X+042324Y+017915
X+039934Y+017961
X+038759Y+017616
X+038483Y+018531
X+037241Y+019540
X+037394Y+017287
X+038552Y+015352
X+038932Y+013814
X+040038Y+013572
X+040435Y+012829
X+042213Y+013174
X+042473Y+010952
X+040383Y+010842
X+042324Y+008693
X+042399Y+006804
X+040250Y+004804
X+037435Y+004878
X+035804Y+006822
X+036196Y+007812
X+035580Y+009359
X+034146Y+008959
X+033278Y+008233
X+032902Y+008942
X+032096Y+008406
X+030897Y+009097
X+031865Y+010013
X+032781Y+010589
X+031641Y+011286
X+030210Y+010905
X+029066Y+009114
X+029843Y+007974
X+029670Y+006799
X+029693Y+006034
X+029757Y+005336
X+031435Y+004730
X+032011Y+005583
X+033062Y+005184
X+033575Y+006056
X+035102Y+005989
X+034806Y+004915
X+037554Y+009411
X+037490Y+011414
X+035941Y+010958
X+037076Y+013329
X+036047Y+015357
X+034349Y+016590
X+033035Y+015227
X+031535Y+015961
X+028595Y+016590
X+028503Y+013498
X+025938Y+010808
X+025489Y+010410
X+025264Y+009422
X+026059Y+009028
X+026942Y+008411
X+027562Y+008354
X+027562Y+008993
X+027806Y+005926
X+027787Y+005209
X+026911Y+005492
X+026039Y+005464
X+024690Y+005876
X+024469Y+006488
X+023847Y+005849
X+022172Y+005974
X+021771Y+005488
X+020495Y+005641
X+018975Y+006281
X+018376Y+007015
X+017834Y+006189
X+019044Y+007767
X+018318Y+008129
X+017360Y+009026
X+018049Y+010819
X+019630Y+010837
X+020406Y+011306
X+020847Y+010657
X+020098Y+008976
X+019407Y+009494
X+021436Y+008411
X+022050Y+008268
X+022016Y+008976
X+023260Y+008976
X+024400Y+008268
X+023981Y+010905
X+022472Y+013437
X+022383Y+016053
X+022534Y+017784
X+022381Y+020294
X+020323Y+023916
X+020175Y+025101
X+018842Y+025101
X+018212Y+023953
X+017530Y+023392
X+014680Y+024188
X+015799Y+027365
X+016916Y+030916
X+018585Y+031253
X+020268Y+031314
X+020605Y+034528
X+018554Y+034528
X+016953Y+034528
X+016916Y+032805
X+012545Y+031842
X+011318Y+025724
X+010689Y+022887
X+013434Y+019212
X+013434Y+017175
X+014360Y+015804
X+012637Y+014640
X+013333Y+013966
X+013286Y+012323
X+013990Y+010878
X+013101Y+009834
X+014104Y+008958
X+015222Y+008390
X+012903Y+007856
X+011902Y+011174
X+010142Y+012923
X+010093Y+014017
X+009558Y+014822
X+009100Y+013952
X+010646Y+014846
X+011767Y+015434
X+011198Y+017326
X+006622Y+014822
X+005094Y+014822
X+004878Y+014048
X+007095Y+010536
X+007915Y+009899
X+008736Y+008111
X+009434Y+007174
X+009038Y+006089
X+009865Y+005701
X+009484Y+004773
X+008380Y+005042
X+007249Y+004767
X+007114Y+006574
X+004804Y+006619
X+016534Y+013345
X+016565Y+016131
X+016289Y+020110
X+025536Y+016053
X+028625Y+020386
X+034319Y+020171
X+040107Y+019534
X+034411Y+013406
X+027944Y+026898
X+022901Y+034528
T02
X+014543Y+028773
X+014543Y+028273
X+014543Y+027773
X+016364Y+007529
X+016864Y+007529
X+017364Y+007529
X+022636Y+007529
X+023136Y+007529
X+023636Y+007529
X+028011Y+007529
X+028511Y+007529
X+029011Y+007529
X+033835Y+007529
X+034335Y+007529
X+034835Y+007529
T03
X+017321Y+026135
X+019405Y+025910
X+019405Y+028910
X+017321Y+030111
X+019688Y+033074
X+021657Y+033074
X+022405Y+028910
X+024405Y+028910
X+026405Y+028910
X+026405Y+025910
X+024405Y+025910
X+022405Y+025910
X+022052Y+022841
X+023052Y+022841
X+024052Y+022841
X+023978Y+021019
X+023978Y+019019
X+023978Y+017019
X+020978Y+017019
X+020978Y+019019
X+020978Y+021019
X+021052Y+022841
X+018052Y+022841
X+017052Y+022841
X+016052Y+022841
X+015058Y+022843
X+014978Y+021019
X+014978Y+019019
X+014978Y+017019
X+017978Y+017019
X+017978Y+019019
X+017978Y+021019
X+017978Y+014019
X+018418Y+012130
X+020438Y+012130
X+020978Y+014019
X+023978Y+014019
X+024414Y+012130
X+026435Y+012130
X+026978Y+014019
X+029978Y+014019
X+030411Y+012130
X+032431Y+012130
X+032978Y+014019
X+035978Y+014019
X+036408Y+012130
X+036052Y+009841
X+035052Y+009841
X+034052Y+009841
X+033052Y+009841
X+030052Y+009841
X+029052Y+009841
X+028052Y+009841
X+027052Y+009841
X+024052Y+009841
X+023052Y+009841
X+022052Y+009841
X+021052Y+009841
X+018052Y+009841
X+017052Y+009841
X+016052Y+009841
X+015052Y+009841
X+014441Y+012130
X+014978Y+014019
X+006608Y+012960
X+006608Y+011961
X+005608Y+011961
X+005608Y+012960
X+005608Y+010960
X+006608Y+010960
X+006608Y+009960
X+006608Y+008961
X+005608Y+008961
X+005608Y+009960
X+005890Y+016820
X+005890Y+017607
X+005515Y+021119
X+006515Y+021119
X+006515Y+022119
X+006515Y+023119
X+006515Y+024119
X+005515Y+024119
X+005515Y+023119
X+005515Y+022119
X+005515Y+025119
X+005515Y+026119
X+005515Y+027119
X+006515Y+027119
X+006515Y+026119
X+006515Y+025119
X+006515Y+028119
X+005515Y+028119
X+011420Y+030712
X+012995Y+030712
X+009175Y+021152
X+026978Y+021019
X+027052Y+022841
X+028052Y+022841
X+029052Y+022841
X+030052Y+022841
X+029978Y+021019
X+029978Y+019019
X+029978Y+017019
X+026978Y+017019
X+026978Y+019019
X+032978Y+019019
X+032978Y+017019
X+035978Y+017019
X+035978Y+019019
X+035978Y+021019
X+036052Y+022841
X+035052Y+022841
X+034052Y+022841
X+033052Y+022841
X+032978Y+021019
X+039052Y+022841
X+040052Y+022841
X+041052Y+022841
X+042052Y+022841
X+040493Y+020324
X+040513Y+018810
X+040893Y+026197
X+040855Y+027661
X+041052Y+009841
X+042052Y+009841
X+040052Y+009841
X+039052Y+009841
T04
X+031213Y+025972
X+034354Y+025998
X+034354Y+029541
X+031213Y+029515
T05
X+026198Y+032049
X+025198Y+033049
X+024198Y+034049
X+026198Y+034049
X+024198Y+032049
X+039888Y+030920
X+040888Y+029920
X+041888Y+028920
X+039888Y+028920
X+041888Y+030920
X+041569Y+016688
X+040569Y+015688
X+039569Y+016688
X+039569Y+014688
X+041569Y+014688
T06
X+042007Y+005238
X+005268Y+005279
T00
M30
