G04 DipTrace 3.3.1.1*
G04 Bottom.gbr*
%MOIN*%
G04 #@! TF.FileFunction,Copper,L2,Bot*
G04 #@! TF.Part,Single*
G04 #@! TA.AperFunction,Conductor*
%ADD14C,0.027559*%
%ADD15C,0.011811*%
%ADD16C,0.023622*%
G04 #@! TA.AperFunction,CopperBalancing*
%ADD18C,0.04*%
%ADD19C,0.012992*%
G04 #@! TA.AperFunction,ComponentPad*
%ADD23C,0.062992*%
%ADD24R,0.062992X0.062992*%
%ADD27O,0.137795X0.062992*%
%ADD28O,0.062992X0.137795*%
%ADD29R,0.059055X0.059055*%
%ADD30C,0.059055*%
%ADD33C,0.059055*%
%ADD34C,0.12*%
%ADD35C,0.1*%
%ADD36C,0.065*%
%FSLAX26Y26*%
G04*
G70*
G90*
G75*
G01*
G04 Bottom*
%LPD*%
X1664738Y1940837D2*
D14*
X1667306Y1938269D1*
Y1570899D1*
X732398Y2835762D2*
Y3035762D1*
X3965420Y1410093D2*
D16*
X3788667D1*
X3785953Y1412807D1*
D14*
X3642457D1*
X3633509Y1403860D1*
X3562496Y2321638D2*
Y2010949D1*
X3871461D1*
Y1937147D1*
X3909962Y1898646D1*
X532398Y2835762D2*
Y3035762D1*
X2477824Y3063031D2*
X2277824D1*
X2477824D2*
X2538501D1*
Y2863031D1*
X2477824D1*
X732398Y3035762D2*
X532398D1*
X3253934Y2010157D2*
X3562496Y2010949D1*
X822667Y2309463D2*
X630064D1*
X622656Y2302055D1*
X3735580Y709951D2*
D16*
X3925058D1*
X3965420Y750314D1*
Y1410093D1*
X528988Y929865D2*
D14*
X459301D1*
Y1143134D1*
X528988D1*
Y1129865D1*
X2277824Y3063031D2*
Y2863031D1*
X3909962Y1898646D2*
X3785953D1*
Y1412807D1*
X4178602Y935894D2*
Y856219D1*
X4028801Y706417D1*
X3735580D1*
Y709951D1*
X622656Y2302055D2*
X484060D1*
Y2835762D1*
X532398D1*
X3582992Y3031811D2*
X3590495Y3024308D1*
X3560888D1*
X3486810Y2950230D1*
Y2520576D1*
X3549777Y2457609D1*
X3562496D1*
Y2321638D1*
X628988Y929865D2*
X528988D1*
X459301Y1143134D2*
Y1277474D1*
X467979Y1286152D1*
X511692Y1329865D1*
X528988D1*
Y1129865D2*
X628988D1*
X528988Y1329865D2*
X628988D1*
X2506475Y1166291D2*
X2441920Y1230846D1*
X2421881Y1250886D1*
Y1653675D1*
X2428903Y1660697D1*
Y1679652D1*
X1693228Y866457D2*
X2293482D1*
X2458613D1*
Y978331D1*
Y1166850D1*
X2506475D1*
Y1166291D1*
X2381084Y2863031D2*
X2277824D1*
X2052823Y2116458D2*
X2049605D1*
Y2017520D1*
X1730374D1*
X1666873D1*
X1587822Y2096571D1*
Y2153350D1*
X2458613Y866457D2*
Y777520D1*
X2642497Y593635D1*
X3190399D1*
X3638409D1*
X3735580Y690806D1*
Y709951D1*
X3190399Y593635D2*
Y1167605D1*
X3185340D1*
X3184310Y1226820D2*
D15*
X3185340Y1225790D1*
Y1167605D1*
X3185493Y1898734D2*
D14*
X3298906D1*
Y1419123D1*
Y1281171D1*
X3185340Y1167605D1*
X2049605Y2017520D2*
X2332738D1*
X2477824Y2162606D1*
Y2377234D1*
Y2518042D1*
Y2863031D1*
X1730374Y2017520D2*
Y1796555D1*
Y1457008D1*
Y1272726D1*
X1693228Y1235580D1*
Y1207735D1*
Y866457D1*
X1694951Y1207735D2*
X1693228D1*
X1732598Y1457008D2*
X1730374D1*
X531642Y1963510D2*
D15*
X459909D1*
Y1286152D1*
X467979D1*
X2489388Y2156837D2*
D14*
X2477824Y2162606D1*
X2477144Y2518042D2*
X2477824D1*
X2471022Y2377234D2*
X2477824D1*
X2467962Y978331D2*
X2458613D1*
X2455718Y1244643D2*
X2441920Y1230846D1*
X2293482Y868133D2*
Y866457D1*
X3970940Y760996D2*
D16*
X3965420Y750314D1*
X3300568Y1419123D2*
D14*
X3298906D1*
X1742852Y1796555D2*
X1730374D1*
X1619415Y1367924D2*
D15*
Y1807520D1*
X1518705Y1908230D1*
Y2399899D1*
X1518507D1*
Y2236016D1*
X2290421Y1934119D2*
X2298219D1*
Y1755449D1*
X2176252Y1453711D2*
Y1117220D1*
X1781307Y1582583D2*
X1780114D1*
X1847871Y1650340D1*
Y1811890D1*
X1843909D1*
X3073458Y1122774D2*
Y1026640D1*
X3007777Y1157126D2*
Y1021470D1*
X3008690D1*
X628988Y1229865D2*
D14*
X721059D1*
Y1545028D1*
X919852Y1743820D1*
Y2016730D1*
X966471Y2063349D1*
Y2737639D1*
X1090352Y2861520D1*
X1141881D1*
X952825Y1666823D2*
D15*
Y1664294D1*
X1570098D1*
X2490257Y1393140D2*
Y1802465D1*
X2372934Y2352315D2*
Y2269361D1*
X2164614Y2267423D2*
Y2292007D1*
X2224923Y2352315D1*
X2372934D1*
X4198513Y2784404D2*
X4182037D1*
Y2677955D1*
X4075123D1*
X4015824Y2737255D1*
X3633827D1*
X3590888Y2694316D1*
X3593093D1*
X2180474Y2154340D2*
X2116522D1*
X1988545Y2282318D1*
Y2285581D1*
X1980474D1*
X3898010Y1787230D2*
Y1636686D1*
X3901602D1*
X2070028Y1570518D2*
D14*
Y1210773D1*
X2069563D1*
X2814972Y1831093D2*
D15*
Y1452992D1*
X3838774Y1637316D2*
Y1847504D1*
D18*
X1667306Y1570899D3*
X3735580Y709951D3*
D3*
X1587822Y2153350D3*
X3735580Y709951D3*
X3185493Y1898734D3*
X2290421Y1934119D3*
X2298219Y1755449D3*
X2176252Y1453711D3*
Y1117220D3*
X1843909Y1811890D3*
D3*
X3073458Y1122774D3*
Y1026640D3*
X1141881Y2861520D3*
X952825Y1666823D3*
X1570098Y1664294D3*
X2490257Y1393140D3*
Y1802465D3*
X2372934Y2352315D3*
Y2269361D3*
Y2352315D3*
X2814972Y1831093D3*
X3838774Y1637316D3*
Y1847504D3*
X1694951Y1207735D3*
X2874331Y1338898D3*
X1732598Y1457008D3*
X4173543Y1417638D3*
X2389014Y2007390D3*
X2489388Y2156837D3*
X2614892Y2291524D3*
X4094803Y1873501D3*
X2758762Y2407844D3*
X2924059Y2560896D3*
X3116906Y2563958D3*
X1693228Y866457D3*
X3303630Y2560896D3*
X3410766Y2453760D3*
X3634224Y2438454D3*
X3765849Y2404783D3*
X3753605Y2282341D3*
X3921963Y2285402D3*
X4127054Y2309890D3*
X3392400Y3038421D3*
X3401584Y2863941D3*
X3698507Y2790476D3*
X2633259Y3065971D3*
X2624075Y2870063D3*
X2529182Y2713950D3*
X2477144Y2518042D3*
X2471022Y2377234D3*
X2268993Y2413966D3*
X2259810Y2622118D3*
X2201650Y2762927D3*
X1990951Y2756354D3*
X1773102Y2876185D3*
X1766980Y2704766D3*
X1675148Y2514980D3*
X1699636Y2306829D3*
X1785346Y2505798D3*
X1978193Y2514980D3*
X2088391Y2444576D3*
X1032327Y2946589D3*
X943555Y2824147D3*
X882335Y2643545D3*
X713976Y2603752D3*
X704793Y2695583D3*
X542558Y2686400D3*
X548680Y2413966D3*
X536436Y2169081D3*
X698671Y2077249D3*
X702262Y1926348D3*
X802747Y1771144D3*
X824984Y1925438D3*
X1431076Y2079707D3*
X1028608Y1326102D3*
X1018084Y1841424D3*
X1052438Y1772232D3*
X783837Y1172458D3*
X857846Y926293D3*
X1044571Y898743D3*
X1301699Y990575D3*
X1434791Y1140315D3*
X1456022Y1598959D3*
X1347615Y1370146D3*
X1270558Y707769D3*
X1405776Y825278D3*
X1583316Y981392D3*
X1831262Y996697D3*
X2076147Y999759D3*
X2467962Y978331D3*
X2455718Y1244643D3*
X2247566Y1232399D3*
X2293482Y868133D3*
X2532244Y733446D3*
X2801617Y736508D3*
X2994463D3*
X3435256Y770178D3*
X3530148Y862010D3*
X3634224Y712018D3*
X3970940Y760996D3*
X4013795Y932415D3*
X4041344Y1051797D3*
X3257714Y1559932D3*
X3361790Y1691556D3*
X3343424Y1853793D3*
X3438316Y1523198D3*
X3401584Y1229337D3*
X3300568Y1419123D3*
X2755701Y2199692D3*
X2749579Y2071127D3*
X2614892Y2052761D3*
X2483266Y1918075D3*
X2373068Y1804816D3*
X2216955Y1559932D3*
X2951609Y1379329D3*
X1433324Y2166021D3*
X1222112Y2199692D3*
X1010899D3*
X873151Y2413966D3*
X1444136Y1351727D3*
X1232807Y1850980D3*
X1276163Y1729886D3*
X1428022Y1803963D3*
X1742852Y1796555D3*
X1531731Y1803963D3*
X1768778Y2066938D3*
X1572474Y2011381D3*
X1235420Y1959526D3*
X1005780Y1948415D3*
X853921Y2115089D3*
X1078865Y2086269D3*
X3172549Y2133608D3*
X3139214Y2255836D3*
X3324407Y2315098D3*
X3428115Y2203982D3*
X1664738Y1940837D3*
X2428903Y1679652D3*
X2506475Y1166291D3*
X3633509Y1403860D3*
X3909962Y1898646D3*
X3965420Y1410093D3*
X3562496Y2321638D3*
X3253934Y2010157D3*
X3008690Y1021470D3*
X3007777Y1157126D3*
X3901602Y1636686D3*
X3898010Y1787230D3*
X2052823Y2116458D3*
X2814972Y1452992D3*
X3185340Y1167605D3*
X1518507Y2236016D3*
X1619415Y1367924D3*
X1781307Y1582583D3*
X2164614Y2267423D3*
X1980474Y2285581D3*
X2180474Y2154340D3*
X2069563Y1210773D3*
X2070028Y1570518D3*
X846998Y3050682D2*
X1046911D1*
X1207527D2*
X2077362D1*
X2113459D2*
X2162910D1*
X2592728D2*
X3500098D1*
X3665881D2*
X3885961D1*
X4122794D2*
X4267661D1*
X942953Y3010814D2*
X1043036D1*
X1211402D2*
X1844868D1*
X1991489D2*
X2020844D1*
X2580456D2*
X3500636D1*
X3665342D2*
X3757423D1*
X3882155D2*
X3919907D1*
X4088848D2*
X4267661D1*
X980595Y2970945D2*
X1061086D1*
X1193317D2*
X1833062D1*
X2180527D2*
X2210779D1*
X2544859D2*
X3525360D1*
X3640618D2*
X3734960D1*
X3904618D2*
X4267661D1*
X794464Y2931076D2*
X817468D1*
X987054D2*
X1120905D1*
X1162851D2*
X1842284D1*
X1994072D2*
X2020665D1*
X2570265D2*
X3521018D1*
X3644960D2*
X3732699D1*
X3906879D2*
X4076685D1*
X4148236D2*
X4267661D1*
X972198Y2891207D2*
X1023587D1*
X1211043D2*
X1890010D1*
X1946310D2*
X2075603D1*
X2115217D2*
X2165852D1*
X2589822D2*
X3499631D1*
X3666347D2*
X3732699D1*
X3906879D2*
X4034019D1*
X846891Y2851339D2*
X983719D1*
X1216749D2*
X2162838D1*
X2592800D2*
X3501174D1*
X3664804D2*
X3736718D1*
X3902860D2*
X4025371D1*
X845312Y2811470D2*
X943852D1*
X1197085D2*
X2174859D1*
X2580815D2*
X3527693D1*
X3638286D2*
X3764528D1*
X3875050D2*
X4025371D1*
X827693Y2771601D2*
X906604D1*
X1096896D2*
X2209846D1*
X2345809D2*
X2409829D1*
X2545828D2*
X3564438D1*
X457404Y2731732D2*
X487979D1*
X576790D2*
X687998D1*
X776809D2*
X897095D1*
X1057029D2*
X3517107D1*
X457404Y2691864D2*
X897095D1*
X1035857D2*
X3507992D1*
X457404Y2651995D2*
X897095D1*
X1035857D2*
X3519870D1*
X3666311D2*
X3730367D1*
X3978970D2*
X4015754D1*
X4237336D2*
X4267661D1*
X457404Y2612126D2*
X595596D1*
X649707D2*
X791918D1*
X846030D2*
X897095D1*
X1035857D2*
X3737508D1*
X3971865D2*
X4267661D1*
X457404Y2572257D2*
X535992D1*
X709311D2*
X732315D1*
X1035857D2*
X3775473D1*
X3933900D2*
X4267661D1*
X457404Y2532388D2*
X518876D1*
X1035857D2*
X4267661D1*
X457404Y2492520D2*
X519163D1*
X1035857D2*
X4267661D1*
X457404Y2452651D2*
X537069D1*
X708270D2*
X733355D1*
X1035857D2*
X1491624D1*
X1545592D2*
X4267661D1*
X457404Y2412782D2*
X603060D1*
X642243D2*
X799346D1*
X838566D2*
X897095D1*
X1035857D2*
X1458467D1*
X1578749D2*
X2330596D1*
X2415281D2*
X4267661D1*
X457404Y2372913D2*
X545860D1*
X699478D2*
X739312D1*
X1035857D2*
X1456996D1*
X1580220D2*
X2160182D1*
X2445495D2*
X3591603D1*
X3682064D2*
X4267661D1*
X457404Y2333045D2*
X521890D1*
X1035857D2*
X1456996D1*
X1580220D2*
X1922880D1*
X2038066D2*
X2120315D1*
X2445890D2*
X3556257D1*
X3717410D2*
X4267661D1*
X457404Y2293176D2*
X517440D1*
X1035857D2*
X1456996D1*
X1580220D2*
X1905261D1*
X2063006D2*
X2093797D1*
X2251111D2*
X2301423D1*
X2444455D2*
X3550085D1*
X3723582D2*
X4267661D1*
X457404Y2253307D2*
X529497D1*
X1035857D2*
X1445011D1*
X1591990D2*
X1912546D1*
X2238802D2*
X2299162D1*
X2446715D2*
X3549726D1*
X3723941D2*
X4267661D1*
X457404Y2213438D2*
X568970D1*
X676369D2*
X785459D1*
X859845D2*
X897095D1*
X1035857D2*
X1446554D1*
X1590447D2*
X1972113D1*
X2224879D2*
X2324209D1*
X2421632D2*
X3549726D1*
X3723941D2*
X4041411D1*
X4148200D2*
X4267661D1*
X457404Y2173570D2*
X897095D1*
X1035857D2*
X1457211D1*
X1580220D2*
X2011981D1*
X2253443D2*
X3549726D1*
X3723941D2*
X4013457D1*
X4176154D2*
X4267661D1*
X457404Y2133701D2*
X897095D1*
X1035857D2*
X1457211D1*
X1580220D2*
X2051848D1*
X2253048D2*
X3549726D1*
X3723941D2*
X4011160D1*
X4178450D2*
X4267661D1*
X598249Y2093832D2*
X897095D1*
X1035857D2*
X1457211D1*
X1580220D2*
X2138185D1*
X2222762D2*
X4031399D1*
X4158212D2*
X4267661D1*
X615904Y2053963D2*
X862108D1*
X1035175D2*
X1457211D1*
X1580220D2*
X4267661D1*
X616765Y2014094D2*
X850481D1*
X1013680D2*
X1457211D1*
X1580220D2*
X2160362D1*
X2195634D2*
X4267661D1*
X616765Y1974226D2*
X850481D1*
X989243D2*
X1457211D1*
X1732082D2*
X2103485D1*
X2353739D2*
X4267661D1*
X616765Y1934357D2*
X850481D1*
X989243D2*
X1457211D1*
X1740048D2*
X2092864D1*
X2366012D2*
X4267661D1*
X616765Y1894488D2*
X850481D1*
X989243D2*
X1458862D1*
X1736675D2*
X2103198D1*
X2359732D2*
X2777677D1*
X2852243D2*
X3780748D1*
X3896795D2*
X4267661D1*
X457404Y1854619D2*
X850481D1*
X989243D2*
X1486995D1*
X1736675D2*
X1782465D1*
X2026870D2*
X2157850D1*
X2198182D2*
X2236723D1*
X2359732D2*
X2437208D1*
X2543316D2*
X2743336D1*
X2886584D2*
X3763524D1*
X3926185D2*
X4267661D1*
X457404Y1814751D2*
X850481D1*
X989243D2*
X1526862D1*
X1736675D2*
X1768363D1*
X2038999D2*
X2236723D1*
X2359732D2*
X2415714D1*
X2564810D2*
X2741255D1*
X2888665D2*
X3771095D1*
X3968097D2*
X4267661D1*
X457404Y1774882D2*
X850481D1*
X989243D2*
X1557902D1*
X1736675D2*
X1778626D1*
X2030100D2*
X2225312D1*
X2371143D2*
X2420199D1*
X2560325D2*
X2753456D1*
X2876464D2*
X3777267D1*
X3972547D2*
X4267661D1*
X457404Y1735013D2*
X814597D1*
X988633D2*
X1554888D1*
X1736675D2*
X1786377D1*
X1983845D2*
X2225599D1*
X2370856D2*
X2428740D1*
X2551748D2*
X2753456D1*
X2876464D2*
X3777267D1*
X3959521D2*
X4267661D1*
X686022Y1695144D2*
X774730D1*
X1736675D2*
X1786377D1*
X1909386D2*
X2255634D1*
X2340821D2*
X2428740D1*
X2551748D2*
X2753456D1*
X2876464D2*
X3777267D1*
X3959521D2*
X4267661D1*
X713150Y1655276D2*
X734862D1*
X1736675D2*
X1767466D1*
X1909386D2*
X2305226D1*
X2376347D2*
X2428740D1*
X2551748D2*
X2753456D1*
X2876464D2*
X3765461D1*
X4215232D2*
X4267661D1*
X1897544Y1615407D2*
X2010258D1*
X2129822D2*
X2263529D1*
X2551748D2*
X2753456D1*
X2876464D2*
X3766610D1*
X4242683D2*
X4267661D1*
X990499Y1575538D2*
X1189623D1*
X1343958D2*
X1557902D1*
X1858394D2*
X1994613D1*
X2145468D2*
X2255814D1*
X2551748D2*
X2753456D1*
X2876464D2*
X3798583D1*
X3942835D2*
X3972370D1*
X4245231D2*
X4267661D1*
X990499Y1535669D2*
X1181800D1*
X1351781D2*
X1557902D1*
X1839411D2*
X2000641D1*
X2139403D2*
X2269199D1*
X2551748D2*
X2753456D1*
X2876464D2*
X3972370D1*
X4226105D2*
X4267661D1*
X790445Y1495801D2*
X816284D1*
X990499D2*
X1195077D1*
X1338504D2*
X1557902D1*
X1680911D2*
X2000641D1*
X2238192D2*
X2274330D1*
X2407207D2*
X2428740D1*
X2551748D2*
X2753456D1*
X2876464D2*
X4267661D1*
X790445Y1455932D2*
X817827D1*
X988956D2*
X1557902D1*
X1680911D2*
X2000641D1*
X2551748D2*
X2739425D1*
X2890495D2*
X4267661D1*
X790445Y1416063D2*
X819836D1*
X986947D2*
X1557902D1*
X1680911D2*
X2000641D1*
X2562083D2*
X2749616D1*
X2880304D2*
X4267661D1*
X790445Y1376194D2*
X846283D1*
X960500D2*
X1544302D1*
X1694547D2*
X2000641D1*
X2237762D2*
X2292236D1*
X2389337D2*
X2416683D1*
X2563806D2*
X4267661D1*
X790445Y1336325D2*
X1551156D1*
X1687657D2*
X2000641D1*
X2237762D2*
X2442699D1*
X2537825D2*
X4267661D1*
X790445Y1296457D2*
X818616D1*
X992796D2*
X1611047D1*
X1627778D2*
X2000641D1*
X2237762D2*
X2300633D1*
X2380940D2*
X4267661D1*
X790445Y1256588D2*
X818616D1*
X992796D2*
X1216177D1*
X1347475D2*
X2000641D1*
X2237762D2*
X2262560D1*
X2419013D2*
X3994403D1*
X4205256D2*
X4267661D1*
X789117Y1216719D2*
X818616D1*
X992796D2*
X1197733D1*
X1365955D2*
X1994218D1*
X2425616D2*
X2964096D1*
X3051472D2*
X3994403D1*
X763316Y1176850D2*
X818616D1*
X992796D2*
X1201321D1*
X1362331D2*
X2002507D1*
X2237762D2*
X2270634D1*
X2410939D2*
X2934958D1*
X3124388D2*
X3994403D1*
X716775Y1136982D2*
X818616D1*
X992796D2*
X1231894D1*
X1331758D2*
X2103449D1*
X2249065D2*
X2935065D1*
X3147641D2*
X3994403D1*
X710459Y1097113D2*
X820446D1*
X991002D2*
X2103521D1*
X2248958D2*
X2274222D1*
X2407350D2*
X2946261D1*
X3144304D2*
X3994403D1*
X4211966D2*
X4267661D1*
X712504Y1057244D2*
X841367D1*
X970081D2*
X2133162D1*
X2219353D2*
X2256531D1*
X2425041D2*
X2942673D1*
X3142187D2*
X4267661D1*
X716165Y1017375D2*
X2260694D1*
X2420879D2*
X2933199D1*
X3148467D2*
X4267661D1*
X702277Y977507D2*
X2292487D1*
X2389085D2*
X2948163D1*
X3129556D2*
X4104962D1*
X716739Y937638D2*
X4093479D1*
X710710Y897769D2*
X1174049D1*
X1297058D2*
X4102988D1*
X457404Y857900D2*
X481484D1*
X676513D2*
X1152303D1*
X1318804D2*
X2229152D1*
X2307198D2*
X4152257D1*
X4204933D2*
X4267661D1*
X457404Y818031D2*
X822994D1*
X997210D2*
X1153595D1*
X1317476D2*
X2190217D1*
X2346168D2*
X4267661D1*
X457404Y778163D2*
X822994D1*
X997210D2*
X1179683D1*
X1291388D2*
X2183328D1*
X2353058D2*
X4267661D1*
X457404Y738294D2*
X822994D1*
X997210D2*
X2197645D1*
X2338704D2*
X4172998D1*
X4215016D2*
X4267661D1*
X457404Y698425D2*
X822994D1*
X997210D2*
X4091828D1*
X634995Y658556D2*
X823066D1*
X997174D2*
X4064269D1*
X668618Y618688D2*
X834764D1*
X985440D2*
X1250052D1*
X1348982D2*
X4052894D1*
X683438Y578819D2*
X896198D1*
X924006D2*
X1219155D1*
X1379914D2*
X4053576D1*
X685735Y538950D2*
X1215388D1*
X1383682D2*
X4066530D1*
X676082Y499081D2*
X1233617D1*
X1365453D2*
X4096744D1*
X651286Y459213D2*
X4267661D1*
X988792Y1112529D2*
X988082Y1103375D1*
X986367Y1094355D1*
X983667Y1085579D1*
X980015Y1077155D1*
X975456Y1069185D1*
X970046Y1061767D1*
X963850Y1054991D1*
X956945Y1048939D1*
X949414Y1043687D1*
X941349Y1039298D1*
X932850Y1035825D1*
X924019Y1033311D1*
X914964Y1031786D1*
X905797Y1031270D1*
X896629Y1031768D1*
X887572Y1033275D1*
X878736Y1035772D1*
X870230Y1039228D1*
X862157Y1043602D1*
X854616Y1048840D1*
X847699Y1054878D1*
X841490Y1061642D1*
X836065Y1069049D1*
X831490Y1077011D1*
X827822Y1085428D1*
X825105Y1094198D1*
X823372Y1103215D1*
X822645Y1112367D1*
X822931Y1121545D1*
X824228Y1130634D1*
X824363Y1131273D1*
X822620Y1131270D1*
Y1297462D1*
X988813D1*
Y1131270D1*
X987108Y1131109D1*
X988459Y1122028D1*
X988792Y1112529D1*
X993182Y659484D2*
X992472Y650330D1*
X990757Y641310D1*
X988057Y632535D1*
X984405Y624110D1*
X979846Y616140D1*
X974436Y608722D1*
X968240Y601946D1*
X961334Y595895D1*
X953803Y590642D1*
X945739Y586253D1*
X937239Y582780D1*
X928408Y580266D1*
X919354Y578742D1*
X910187Y578225D1*
X901019Y578724D1*
X891962Y580231D1*
X883126Y582727D1*
X874620Y586184D1*
X866547Y590558D1*
X859006Y595795D1*
X852088Y601833D1*
X845879Y608597D1*
X840455Y616005D1*
X835880Y623966D1*
X832212Y632383D1*
X829495Y641153D1*
X827762Y650170D1*
X827034Y659323D1*
X827321Y668500D1*
X828618Y677590D1*
X828753Y678229D1*
X827010Y678225D1*
Y844418D1*
X993202D1*
Y678225D1*
X991498Y678065D1*
X992848Y668983D1*
X993182Y659484D1*
X986467Y1438268D2*
X985757Y1429114D1*
X984042Y1420094D1*
X981341Y1411318D1*
X977690Y1402894D1*
X973131Y1394924D1*
X967720Y1387506D1*
X961525Y1380729D1*
X954619Y1374678D1*
X947088Y1369426D1*
X939024Y1365036D1*
X930524Y1361564D1*
X921693Y1359050D1*
X912639Y1357525D1*
X903472Y1357009D1*
X894304Y1357507D1*
X885247Y1359014D1*
X876411Y1361511D1*
X867905Y1364967D1*
X859832Y1369341D1*
X852290Y1374579D1*
X845373Y1380617D1*
X839164Y1387381D1*
X833739Y1394788D1*
X829165Y1402749D1*
X825497Y1411166D1*
X822780Y1419937D1*
X821047Y1428954D1*
X820319Y1438106D1*
X820606Y1447284D1*
X821903Y1456373D1*
X822038Y1457012D1*
X820295Y1457009D1*
Y1551779D1*
X786460Y1517968D1*
X786439Y1229865D1*
X785634Y1219637D1*
X783239Y1209661D1*
X779313Y1200183D1*
X773952Y1191436D1*
X767289Y1183634D1*
X759488Y1176972D1*
X750741Y1171611D1*
X741262Y1167685D1*
X731287Y1165290D1*
X721039Y1164486D1*
X705665Y1164485D1*
X708841Y1156253D1*
X711242Y1147390D1*
X712662Y1138319D1*
X713088Y1129865D1*
X712587Y1120697D1*
X711089Y1111638D1*
X708613Y1102796D1*
X705188Y1094277D1*
X700854Y1086183D1*
X696608Y1079865D1*
X700695Y1073807D1*
X703922Y1068045D1*
X706686Y1062049D1*
X708972Y1055853D1*
X710764Y1049498D1*
X712053Y1043021D1*
X712829Y1036463D1*
X713088Y1029865D1*
X712829Y1023266D1*
X712053Y1016709D1*
X710764Y1010232D1*
X708972Y1003877D1*
X706686Y997681D1*
X703922Y991684D1*
X700695Y985923D1*
X696595Y979885D1*
X701224Y972932D1*
X705489Y964800D1*
X708841Y956253D1*
X711242Y947390D1*
X712662Y938319D1*
X713088Y929865D1*
X712587Y920697D1*
X711089Y911638D1*
X708613Y902796D1*
X705188Y894277D1*
X700854Y886183D1*
X695664Y878609D1*
X689679Y871646D1*
X682970Y865376D1*
X675618Y859876D1*
X667711Y855210D1*
X659341Y851433D1*
X650610Y848592D1*
X641622Y846719D1*
X632482Y845837D1*
X623301Y845957D1*
X614188Y847077D1*
X605251Y849184D1*
X596597Y852253D1*
X588330Y856246D1*
X580546Y861117D1*
X578993Y862240D1*
X570935Y856972D1*
X562738Y852834D1*
X554140Y849614D1*
X545241Y847350D1*
X536149Y846070D1*
X526972Y845789D1*
X517818Y846510D1*
X508798Y848224D1*
X500018Y850912D1*
X491584Y854541D1*
X483595Y859067D1*
X476148Y864438D1*
X469330Y870588D1*
X463224Y877445D1*
X457901Y884926D1*
X453386Y893028D1*
Y655463D1*
X459383Y660410D1*
X466829Y665788D1*
X474614Y670660D1*
X482706Y675005D1*
X491069Y678803D1*
X499666Y682037D1*
X508458Y684693D1*
X517407Y686759D1*
X526474Y688226D1*
X535618Y689089D1*
X544799Y689342D1*
X553977Y688984D1*
X563111Y688019D1*
X572160Y686449D1*
X581085Y684281D1*
X589847Y681526D1*
X598406Y678194D1*
X606725Y674302D1*
X614768Y669866D1*
X622498Y664906D1*
X629881Y659443D1*
X636886Y653503D1*
X643481Y647110D1*
X649636Y640293D1*
X655326Y633083D1*
X660524Y625511D1*
X665208Y617610D1*
X669356Y609416D1*
X672952Y600964D1*
X675978Y592292D1*
X678422Y583439D1*
X680273Y574442D1*
X681522Y565343D1*
X682257Y551102D1*
X681952Y541923D1*
X681038Y532784D1*
X679519Y523725D1*
X677402Y514788D1*
X674697Y506011D1*
X671414Y497433D1*
X667569Y489092D1*
X663179Y481025D1*
X658262Y473266D1*
X652842Y465852D1*
X646941Y458814D1*
X641752Y453400D1*
X4271666Y453386D1*
X4271653Y486746D1*
X4261209Y480289D1*
X4253038Y476094D1*
X4244607Y472451D1*
X4235953Y469375D1*
X4227113Y466881D1*
X4218128Y464980D1*
X4209035Y463679D1*
X4199877Y462985D1*
X4190693Y462901D1*
X4181523Y463427D1*
X4172409Y464560D1*
X4163390Y466296D1*
X4154506Y468627D1*
X4145796Y471543D1*
X4137300Y475031D1*
X4129053Y479075D1*
X4121094Y483658D1*
X4113456Y488760D1*
X4106174Y494357D1*
X4099280Y500426D1*
X4092804Y506938D1*
X4086774Y513867D1*
X4081218Y521181D1*
X4076160Y528847D1*
X4071623Y536833D1*
X4067625Y545102D1*
X4064185Y553618D1*
X4061319Y562344D1*
X4059038Y571241D1*
X4057353Y580269D1*
X4056271Y589390D1*
X4055798Y598563D1*
X4055934Y607746D1*
X4056680Y616901D1*
X4058032Y625985D1*
X4059985Y634960D1*
X4062529Y643785D1*
X4065653Y652422D1*
X4069344Y660832D1*
X4073586Y668979D1*
X4078359Y676826D1*
X4083642Y684339D1*
X4089413Y691484D1*
X4095645Y698231D1*
X4102312Y704549D1*
X4109383Y710410D1*
X4116829Y715788D1*
X4124614Y720660D1*
X4132706Y725005D1*
X4141069Y728803D1*
X4149666Y732037D1*
X4158458Y734693D1*
X4167407Y736759D1*
X4176474Y738226D1*
X4185618Y739089D1*
X4194799Y739342D1*
X4203977Y738984D1*
X4213111Y738019D1*
X4222160Y736449D1*
X4231085Y734281D1*
X4239847Y731526D1*
X4248406Y728194D1*
X4256725Y724302D1*
X4264768Y719866D1*
X4271683Y715429D1*
X4271653Y2707546D1*
X4265739Y2698160D1*
X4261700Y2693036D1*
X4257271Y2688245D1*
X4252480Y2683816D1*
X4247356Y2679776D1*
X4239462Y2674769D1*
X4238834Y2668960D1*
X4236728Y2660185D1*
X4233275Y2651848D1*
X4228560Y2644154D1*
X4222699Y2637293D1*
X4215838Y2631432D1*
X4208144Y2626718D1*
X4199807Y2623264D1*
X4191033Y2621158D1*
X4182037Y2620450D1*
X4070612Y2620627D1*
X4061699Y2622039D1*
X4053117Y2624827D1*
X4045077Y2628924D1*
X4037776Y2634228D1*
X4021469Y2650284D1*
X3992010Y2679743D1*
X3968134Y2679749D1*
X3971112Y2671925D1*
X3972883Y2665645D1*
X3974156Y2659246D1*
X3974923Y2652766D1*
X3975179Y2646247D1*
X3974923Y2639727D1*
X3974156Y2633248D1*
X3972883Y2626848D1*
X3971112Y2620569D1*
X3968853Y2614447D1*
X3966122Y2608522D1*
X3962934Y2602829D1*
X3959309Y2597404D1*
X3955269Y2592280D1*
X3950840Y2587489D1*
X3946049Y2583060D1*
X3940925Y2579021D1*
X3935500Y2575396D1*
X3929808Y2572208D1*
X3923882Y2569476D1*
X3917761Y2567218D1*
X3911481Y2565447D1*
X3905082Y2564174D1*
X3898602Y2563407D1*
X3882897Y2563150D1*
X3817280Y2563151D1*
X3810760Y2563407D1*
X3804280Y2564174D1*
X3797881Y2565447D1*
X3791601Y2567218D1*
X3785480Y2569476D1*
X3779555Y2572208D1*
X3773862Y2575396D1*
X3768437Y2579021D1*
X3763313Y2583060D1*
X3758522Y2587489D1*
X3754093Y2592280D1*
X3750053Y2597404D1*
X3746428Y2602829D1*
X3743240Y2608522D1*
X3740509Y2614447D1*
X3738250Y2620569D1*
X3736479Y2626848D1*
X3735207Y2633248D1*
X3734440Y2639727D1*
X3734183Y2646247D1*
X3734440Y2652766D1*
X3735207Y2659246D1*
X3736479Y2665645D1*
X3738250Y2671925D1*
X3741288Y2679736D1*
X3672879Y2679749D1*
X3670250Y2669246D1*
X3668045Y2663270D1*
X3665378Y2657485D1*
X3662266Y2651927D1*
X3658727Y2646631D1*
X3654783Y2641628D1*
X3650459Y2636950D1*
X3645781Y2632626D1*
X3640779Y2628683D1*
X3635482Y2625144D1*
X3629924Y2622031D1*
X3624139Y2619364D1*
X3618163Y2617159D1*
X3612032Y2615430D1*
X3605784Y2614188D1*
X3599458Y2613439D1*
X3593093Y2613189D1*
X3586728Y2613439D1*
X3580402Y2614188D1*
X3574154Y2615430D1*
X3568023Y2617159D1*
X3562047Y2619364D1*
X3556262Y2622031D1*
X3550704Y2625144D1*
X3545408Y2628683D1*
X3540405Y2632626D1*
X3535727Y2636950D1*
X3531403Y2641628D1*
X3527460Y2646631D1*
X3523921Y2651927D1*
X3520808Y2657485D1*
X3518141Y2663270D1*
X3515936Y2669246D1*
X3514207Y2675377D1*
X3512964Y2681625D1*
X3512216Y2687951D1*
X3511966Y2694316D1*
X3512216Y2700681D1*
X3512964Y2707007D1*
X3514207Y2713255D1*
X3515936Y2719386D1*
X3518141Y2725362D1*
X3520808Y2731147D1*
X3523921Y2736705D1*
X3527460Y2742002D1*
X3531403Y2747004D1*
X3535727Y2751682D1*
X3540405Y2756006D1*
X3545408Y2759950D1*
X3550704Y2763489D1*
X3556262Y2766601D1*
X3562047Y2769268D1*
X3568023Y2771473D1*
X3574154Y2773202D1*
X3580402Y2774445D1*
X3590582Y2775345D1*
X3596480Y2780982D1*
X3603780Y2786286D1*
X3611820Y2790383D1*
X3620402Y2793171D1*
X3629315Y2794583D1*
X3652199Y2794760D1*
X3806792Y2794787D1*
X3800393Y2796059D1*
X3794113Y2797831D1*
X3787992Y2800089D1*
X3782067Y2802820D1*
X3776374Y2806009D1*
X3770949Y2809633D1*
X3765825Y2813673D1*
X3761034Y2818102D1*
X3756605Y2822893D1*
X3752565Y2828017D1*
X3748940Y2833442D1*
X3745752Y2839135D1*
X3743021Y2845060D1*
X3740762Y2851181D1*
X3738991Y2857461D1*
X3737718Y2863860D1*
X3736951Y2870340D1*
X3736695Y2886046D1*
Y2951663D1*
X3736951Y2958182D1*
X3737718Y2964662D1*
X3738991Y2971061D1*
X3740762Y2977341D1*
X3743021Y2983462D1*
X3745752Y2989388D1*
X3748940Y2995080D1*
X3752565Y3000505D1*
X3756605Y3005629D1*
X3761034Y3010421D1*
X3765825Y3014849D1*
X3770949Y3018889D1*
X3776374Y3022514D1*
X3782067Y3025702D1*
X3787992Y3028433D1*
X3794113Y3030692D1*
X3800393Y3032463D1*
X3806792Y3033736D1*
X3813272Y3034503D1*
X3819791Y3034759D1*
X3826311Y3034503D1*
X3832790Y3033736D1*
X3839190Y3032463D1*
X3845469Y3030692D1*
X3851591Y3028433D1*
X3857516Y3025702D1*
X3863209Y3022514D1*
X3868634Y3018889D1*
X3873758Y3014849D1*
X3878549Y3010421D1*
X3882978Y3005629D1*
X3887017Y3000505D1*
X3890642Y2995080D1*
X3893830Y2989388D1*
X3896562Y2983462D1*
X3898820Y2977341D1*
X3900591Y2971061D1*
X3901864Y2964662D1*
X3902631Y2958182D1*
X3902888Y2942476D1*
X3902852Y2876859D1*
X3902631Y2870340D1*
X3901864Y2863860D1*
X3900591Y2857461D1*
X3898820Y2851181D1*
X3896562Y2845060D1*
X3893830Y2839135D1*
X3890642Y2833442D1*
X3887017Y2828017D1*
X3882978Y2822893D1*
X3878549Y2818102D1*
X3873758Y2813673D1*
X3868634Y2809633D1*
X3863209Y2806009D1*
X3857516Y2802820D1*
X3851591Y2800089D1*
X3845469Y2797831D1*
X3839190Y2796059D1*
X3832563Y2794760D1*
X4020336Y2794583D1*
X4029266Y2793167D1*
X4029363Y2854289D1*
X4029619Y2860808D1*
X4030386Y2867288D1*
X4031659Y2873687D1*
X4033430Y2879967D1*
X4035689Y2886088D1*
X4038420Y2892014D1*
X4041608Y2897706D1*
X4045233Y2903131D1*
X4049273Y2908255D1*
X4053702Y2913047D1*
X4058493Y2917475D1*
X4063617Y2921515D1*
X4069042Y2925140D1*
X4074734Y2928328D1*
X4080660Y2931059D1*
X4086781Y2933318D1*
X4093061Y2935089D1*
X4099460Y2936362D1*
X4105940Y2937129D1*
X4112459Y2937385D1*
X4118979Y2937129D1*
X4125458Y2936362D1*
X4131858Y2935089D1*
X4138137Y2933318D1*
X4144259Y2931059D1*
X4150184Y2928328D1*
X4155877Y2925140D1*
X4161302Y2921515D1*
X4166426Y2917475D1*
X4171217Y2913047D1*
X4175646Y2908255D1*
X4179898Y2902813D1*
X4191993Y2904646D1*
X4198513Y2904902D1*
X4205033Y2904646D1*
X4211512Y2903879D1*
X4217912Y2902606D1*
X4224191Y2900835D1*
X4230313Y2898577D1*
X4236238Y2895845D1*
X4241931Y2892657D1*
X4247356Y2889032D1*
X4252480Y2884993D1*
X4257271Y2880564D1*
X4261700Y2875772D1*
X4265739Y2870648D1*
X4271643Y2861154D1*
X4271653Y3090574D1*
X4124397Y3090551D1*
X4124866Y3081881D1*
X4124359Y3072713D1*
X4122844Y3063657D1*
X4120338Y3054824D1*
X4116873Y3046321D1*
X4112492Y3038252D1*
X4107247Y3030716D1*
X4101202Y3023805D1*
X4094432Y3017602D1*
X4087019Y3012185D1*
X4079054Y3007618D1*
X4070633Y3003958D1*
X4061860Y3001250D1*
X4052842Y2999525D1*
X4043688Y2998807D1*
X3963375Y2998862D1*
X3954237Y2999765D1*
X3945256Y3001671D1*
X3936539Y3004556D1*
X3928194Y3008385D1*
X3920322Y3013111D1*
X3913020Y3018677D1*
X3906376Y3025015D1*
X3900472Y3032047D1*
X3895380Y3039687D1*
X3891162Y3047843D1*
X3887870Y3056414D1*
X3885543Y3065296D1*
X3884210Y3074380D1*
X3883888Y3083556D1*
X3884328Y3090552D1*
X3638956Y3090551D1*
X3644405Y3084822D1*
X3650001Y3077543D1*
X3654740Y3069679D1*
X3658559Y3061329D1*
X3661410Y3052602D1*
X3663257Y3043608D1*
X3664076Y3034463D1*
X3663933Y3026303D1*
X3662792Y3017193D1*
X3660629Y3008270D1*
X3657472Y2999648D1*
X3653361Y2991439D1*
X3648349Y2983746D1*
X3642499Y2976669D1*
X3635887Y2970299D1*
X3628598Y2964716D1*
X3620725Y2959992D1*
X3612369Y2956189D1*
X3603636Y2953354D1*
X3602515Y2953073D1*
X3614038Y2949283D1*
X3619823Y2946616D1*
X3625381Y2943503D1*
X3630678Y2939964D1*
X3635680Y2936021D1*
X3640358Y2931697D1*
X3644682Y2927019D1*
X3648626Y2922016D1*
X3652165Y2916720D1*
X3655277Y2911162D1*
X3657944Y2905377D1*
X3660149Y2899401D1*
X3661878Y2893270D1*
X3663121Y2887022D1*
X3663870Y2880696D1*
X3664120Y2874331D1*
X3663870Y2867966D1*
X3663121Y2861640D1*
X3661878Y2855392D1*
X3660149Y2849261D1*
X3657944Y2843285D1*
X3655277Y2837500D1*
X3652165Y2831942D1*
X3648626Y2826645D1*
X3644682Y2821643D1*
X3640358Y2816965D1*
X3635680Y2812641D1*
X3630678Y2808697D1*
X3625381Y2805158D1*
X3619823Y2802046D1*
X3614038Y2799379D1*
X3608062Y2797174D1*
X3601931Y2795445D1*
X3595683Y2794202D1*
X3589357Y2793453D1*
X3582992Y2793203D1*
X3576627Y2793453D1*
X3570301Y2794202D1*
X3564053Y2795445D1*
X3557922Y2797174D1*
X3551946Y2799379D1*
X3546161Y2802046D1*
X3540603Y2805158D1*
X3535307Y2808697D1*
X3530304Y2812641D1*
X3525626Y2816965D1*
X3521302Y2821643D1*
X3517359Y2826645D1*
X3513820Y2831942D1*
X3510707Y2837500D1*
X3508040Y2843285D1*
X3505835Y2849261D1*
X3504106Y2855392D1*
X3502863Y2861640D1*
X3502115Y2867966D1*
X3501865Y2874331D1*
X3502115Y2880696D1*
X3502863Y2887022D1*
X3504106Y2893270D1*
X3505835Y2899401D1*
X3508040Y2905377D1*
X3510707Y2911162D1*
X3513820Y2916720D1*
X3517359Y2922016D1*
X3521302Y2927019D1*
X3525626Y2931697D1*
X3530304Y2936021D1*
X3535307Y2939964D1*
X3540603Y2943503D1*
X3546161Y2946616D1*
X3551946Y2949283D1*
X3557922Y2951488D1*
X3563502Y2953061D1*
X3554856Y2955719D1*
X3546438Y2959385D1*
X3538489Y2963979D1*
X3531110Y2969442D1*
X3524395Y2975704D1*
X3518430Y2982684D1*
X3513293Y2990294D1*
X3509048Y2998435D1*
X3505750Y3007004D1*
X3503442Y3015890D1*
X3502153Y3024981D1*
X3501899Y3034159D1*
X3502683Y3043307D1*
X3504496Y3052307D1*
X3507315Y3061045D1*
X3511103Y3069409D1*
X3515811Y3077291D1*
X3521381Y3084591D1*
X3527037Y3090546D1*
X2585971Y3090551D1*
X2588017Y3080696D1*
X2589222Y3069743D1*
X2589364Y3059358D1*
X2588458Y3048376D1*
X2586473Y3037537D1*
X2583429Y3026946D1*
X2579356Y3016708D1*
X2574293Y3006921D1*
X2568289Y2997681D1*
X2561403Y2989078D1*
X2553703Y2981196D1*
X2545262Y2974112D1*
X2536165Y2967895D1*
X2527367Y2963035D1*
X2536704Y2957835D1*
X2545766Y2951566D1*
X2554166Y2944435D1*
X2561822Y2936509D1*
X2568659Y2927867D1*
X2574610Y2918593D1*
X2579617Y2908778D1*
X2583632Y2898516D1*
X2586616Y2887909D1*
X2588539Y2877059D1*
X2589383Y2866072D1*
X2589182Y2855688D1*
X2587915Y2844742D1*
X2585575Y2833974D1*
X2582184Y2823489D1*
X2577776Y2813391D1*
X2572393Y2803776D1*
X2566088Y2794738D1*
X2558923Y2786367D1*
X2550967Y2778743D1*
X2542299Y2771940D1*
X2533001Y2766026D1*
X2523166Y2761057D1*
X2512888Y2757083D1*
X2502269Y2754142D1*
X2491411Y2752262D1*
X2480421Y2751462D1*
X2469406Y2751749D1*
X2458473Y2753122D1*
X2447728Y2755566D1*
X2437277Y2759058D1*
X2427221Y2763564D1*
X2417658Y2769039D1*
X2408682Y2775430D1*
X2400380Y2782676D1*
X2392833Y2790705D1*
X2386115Y2799439D1*
X2380291Y2808793D1*
X2377776Y2813391D1*
X2372393Y2803776D1*
X2366088Y2794738D1*
X2358923Y2786367D1*
X2350967Y2778743D1*
X2342299Y2771940D1*
X2333001Y2766026D1*
X2323166Y2761057D1*
X2312888Y2757083D1*
X2302269Y2754142D1*
X2291411Y2752262D1*
X2280421Y2751462D1*
X2269406Y2751749D1*
X2258473Y2753122D1*
X2247728Y2755566D1*
X2237277Y2759058D1*
X2227221Y2763564D1*
X2217658Y2769039D1*
X2208682Y2775430D1*
X2200380Y2782676D1*
X2192833Y2790705D1*
X2186115Y2799439D1*
X2180291Y2808793D1*
X2175417Y2818676D1*
X2171542Y2828991D1*
X2168703Y2839639D1*
X2166928Y2850514D1*
X2166235Y2861511D1*
X2166629Y2872523D1*
X2168107Y2883443D1*
X2170654Y2894163D1*
X2174247Y2904580D1*
X2178849Y2914592D1*
X2184417Y2924102D1*
X2190894Y2933016D1*
X2198220Y2941247D1*
X2206321Y2948716D1*
X2215120Y2955350D1*
X2224530Y2961084D1*
X2228283Y2963029D1*
X2219214Y2968061D1*
X2210134Y2974304D1*
X2201714Y2981412D1*
X2194035Y2989316D1*
X2187174Y2997938D1*
X2181197Y3007195D1*
X2176161Y3016996D1*
X2172117Y3027246D1*
X2169103Y3037845D1*
X2167149Y3048690D1*
X2166275Y3059674D1*
X2166487Y3070691D1*
X2167785Y3081634D1*
X2169606Y3090551D1*
X1172349D1*
X1179482Y3085172D1*
X1186157Y3078868D1*
X1192077Y3071851D1*
X1197167Y3064209D1*
X1201360Y3056041D1*
X1204604Y3047452D1*
X1206856Y3038551D1*
X1208088Y3029452D1*
X1208314Y3021294D1*
X1207587Y3012142D1*
X1205831Y3003130D1*
X1203067Y2994374D1*
X1199332Y2985987D1*
X1194673Y2978075D1*
X1189150Y2970741D1*
X1182834Y2964077D1*
X1175805Y2958170D1*
X1168153Y2953095D1*
X1159978Y2948917D1*
X1151382Y2945689D1*
X1142477Y2943454D1*
X1133376Y2942239D1*
X1124197Y2942060D1*
X1115056Y2942919D1*
X1106070Y2944806D1*
X1097355Y2947696D1*
X1089023Y2951552D1*
X1081180Y2956325D1*
X1073926Y2961953D1*
X1067354Y2968365D1*
X1061550Y2975479D1*
X1056586Y2983203D1*
X1052526Y2991438D1*
X1049424Y3000080D1*
X1047317Y3009016D1*
X1046234Y3018133D1*
X1046188Y3027315D1*
X1047179Y3036442D1*
X1049196Y3045400D1*
X1052212Y3054072D1*
X1056188Y3062348D1*
X1061074Y3070121D1*
X1066807Y3077293D1*
X1073313Y3083771D1*
X1080510Y3089472D1*
X1082079Y3090548D1*
X829655Y3090551D1*
X834191Y3081509D1*
X838206Y3071247D1*
X841190Y3060640D1*
X843113Y3049790D1*
X843956Y3038803D1*
X843756Y3028419D1*
X842489Y3017473D1*
X840148Y3006705D1*
X836758Y2996220D1*
X832349Y2986121D1*
X826967Y2976506D1*
X820662Y2967469D1*
X813497Y2959098D1*
X805541Y2951474D1*
X796872Y2944671D1*
X787575Y2938757D1*
X781940Y2935766D1*
X791277Y2930566D1*
X800340Y2924297D1*
X808740Y2917166D1*
X816395Y2909240D1*
X823232Y2900598D1*
X829183Y2891324D1*
X834191Y2881509D1*
X838206Y2871247D1*
X841190Y2860640D1*
X843113Y2849790D1*
X843956Y2838803D1*
X843756Y2828419D1*
X842489Y2817473D1*
X840148Y2806705D1*
X836758Y2796220D1*
X832349Y2786121D1*
X826967Y2776506D1*
X820662Y2767469D1*
X813497Y2759098D1*
X805541Y2751474D1*
X796872Y2744671D1*
X787575Y2738757D1*
X777739Y2733788D1*
X767462Y2729814D1*
X756843Y2726873D1*
X745985Y2724993D1*
X734995Y2724193D1*
X723979Y2724480D1*
X713046Y2725853D1*
X702302Y2728297D1*
X691850Y2731789D1*
X681794Y2736295D1*
X672232Y2741770D1*
X663256Y2748161D1*
X654954Y2755407D1*
X647407Y2763436D1*
X640688Y2772170D1*
X634864Y2781524D1*
X632349Y2786121D1*
X626967Y2776506D1*
X620662Y2767469D1*
X613497Y2759098D1*
X605541Y2751474D1*
X596872Y2744671D1*
X587575Y2738757D1*
X577739Y2733788D1*
X567462Y2729814D1*
X556843Y2726873D1*
X545985Y2724993D1*
X534995Y2724193D1*
X523979Y2724480D1*
X513046Y2725853D1*
X502302Y2728297D1*
X491850Y2731789D1*
X481794Y2736295D1*
X472232Y2741770D1*
X463256Y2748161D1*
X454954Y2755407D1*
X453384Y2756953D1*
X453386Y2063630D1*
X456690Y2073297D1*
X459357Y2079082D1*
X462469Y2084640D1*
X466008Y2089936D1*
X469952Y2094939D1*
X474276Y2099617D1*
X478954Y2103941D1*
X483956Y2107884D1*
X489253Y2111423D1*
X494811Y2114536D1*
X500596Y2117203D1*
X506572Y2119408D1*
X512703Y2121137D1*
X518951Y2122379D1*
X525277Y2123128D1*
X531642Y2123378D1*
X538007Y2123128D1*
X544333Y2122379D1*
X550581Y2121137D1*
X556712Y2119408D1*
X562688Y2117203D1*
X568473Y2114536D1*
X574031Y2111423D1*
X579327Y2107884D1*
X584330Y2103941D1*
X589008Y2099617D1*
X593332Y2094939D1*
X597275Y2089936D1*
X600814Y2084640D1*
X603927Y2079082D1*
X606594Y2073297D1*
X608799Y2067320D1*
X610528Y2061190D1*
X611770Y2054942D1*
X612675Y2044662D1*
X612770Y2035451D1*
Y1882383D1*
X453379D1*
X453386Y1666679D1*
X457281Y1673807D1*
X460950Y1679298D1*
X465038Y1684483D1*
X469521Y1689333D1*
X474370Y1693815D1*
X479555Y1697903D1*
X485046Y1701572D1*
X490808Y1704798D1*
X496805Y1707563D1*
X503000Y1709849D1*
X509355Y1711641D1*
X515832Y1712929D1*
X522390Y1713706D1*
X528988Y1713965D1*
X535587Y1713706D1*
X542144Y1712929D1*
X548621Y1711641D1*
X554977Y1709849D1*
X561172Y1707563D1*
X567169Y1704798D1*
X572930Y1701572D1*
X578968Y1697472D1*
X585046Y1701572D1*
X590808Y1704798D1*
X596805Y1707563D1*
X603000Y1709849D1*
X609355Y1711641D1*
X615832Y1712929D1*
X622390Y1713706D1*
X628988Y1713965D1*
X635587Y1713706D1*
X642144Y1712929D1*
X648621Y1711641D1*
X654977Y1709849D1*
X661172Y1707563D1*
X667169Y1704798D1*
X672930Y1701572D1*
X678421Y1697903D1*
X683607Y1693815D1*
X688456Y1689333D1*
X692938Y1684483D1*
X697027Y1679298D1*
X700695Y1673807D1*
X703922Y1668045D1*
X706686Y1662049D1*
X708972Y1655853D1*
X710764Y1649498D1*
X712053Y1643021D1*
X712829Y1636463D1*
X713073Y1629478D1*
X854451Y1770880D1*
X854472Y2016730D1*
X855277Y2026957D1*
X857672Y2036933D1*
X861598Y2046411D1*
X866958Y2055159D1*
X873636Y2062974D1*
X901101Y2090440D1*
X901092Y2244887D1*
X895068Y2238185D1*
X888336Y2231939D1*
X881068Y2226326D1*
X873322Y2221392D1*
X865163Y2217178D1*
X856657Y2213718D1*
X847873Y2211040D1*
X838883Y2209166D1*
X829760Y2208111D1*
X820580Y2207885D1*
X811417Y2208488D1*
X802345Y2209916D1*
X793440Y2212158D1*
X784773Y2215194D1*
X776416Y2219001D1*
X768437Y2223547D1*
X760900Y2228794D1*
X753869Y2234701D1*
X747399Y2241218D1*
X741545Y2248293D1*
X736353Y2255868D1*
X731866Y2263880D1*
X728121Y2272265D1*
X725148Y2280954D1*
X723310Y2288238D1*
X721462Y2278390D1*
X718921Y2269565D1*
X715594Y2261006D1*
X711508Y2252782D1*
X706696Y2244960D1*
X701198Y2237605D1*
X695057Y2230777D1*
X688326Y2224530D1*
X681057Y2218918D1*
X673312Y2213984D1*
X665153Y2209770D1*
X656646Y2206309D1*
X647862Y2203631D1*
X638872Y2201758D1*
X629750Y2200703D1*
X620569Y2200477D1*
X611406Y2201080D1*
X602335Y2202508D1*
X593429Y2204750D1*
X584762Y2207786D1*
X576405Y2211593D1*
X568426Y2216139D1*
X560890Y2221386D1*
X553858Y2227293D1*
X547389Y2233810D1*
X541534Y2240885D1*
X536342Y2248460D1*
X531855Y2256472D1*
X528111Y2264857D1*
X525138Y2273546D1*
X522962Y2282468D1*
X521601Y2291550D1*
X521065Y2300717D1*
X521359Y2309896D1*
X522481Y2319010D1*
X524421Y2327986D1*
X527164Y2336750D1*
X530686Y2345231D1*
X534961Y2353359D1*
X539951Y2361067D1*
X545618Y2368294D1*
X551913Y2374980D1*
X558787Y2381069D1*
X566182Y2386514D1*
X574039Y2391268D1*
X582293Y2395293D1*
X590877Y2398557D1*
X599720Y2401032D1*
X608751Y2402699D1*
X617895Y2403543D1*
X627078Y2403559D1*
X636225Y2402745D1*
X645261Y2401108D1*
X654113Y2398663D1*
X662708Y2395428D1*
X670975Y2391430D1*
X678848Y2386702D1*
X686261Y2381282D1*
X693155Y2375216D1*
X699473Y2368551D1*
X705163Y2361344D1*
X710180Y2353652D1*
X714481Y2345538D1*
X718032Y2337069D1*
X720804Y2328314D1*
X722011Y2323283D1*
X723979Y2333614D1*
X726562Y2342426D1*
X729931Y2350969D1*
X734058Y2359173D1*
X738908Y2366970D1*
X744443Y2374298D1*
X750617Y2381097D1*
X757379Y2387310D1*
X764675Y2392887D1*
X772444Y2397782D1*
X780624Y2401956D1*
X789147Y2405375D1*
X797944Y2408010D1*
X806944Y2409839D1*
X816071Y2410849D1*
X825252Y2411030D1*
X834413Y2410382D1*
X843477Y2408909D1*
X852371Y2406624D1*
X861023Y2403545D1*
X869361Y2399697D1*
X877318Y2395112D1*
X884829Y2389828D1*
X891831Y2383887D1*
X898269Y2377338D1*
X901087Y2374054D1*
X901092Y2453374D1*
X896221Y2447193D1*
X890805Y2441335D1*
X884947Y2435920D1*
X878682Y2430981D1*
X872049Y2426549D1*
X865089Y2422651D1*
X857844Y2419311D1*
X850359Y2416550D1*
X842681Y2414384D1*
X834857Y2412828D1*
X826935Y2411890D1*
X818963Y2411577D1*
X810992Y2411890D1*
X803070Y2412828D1*
X795245Y2414384D1*
X787567Y2416550D1*
X780083Y2419311D1*
X772838Y2422651D1*
X765877Y2426549D1*
X759244Y2430981D1*
X752979Y2435920D1*
X747121Y2441335D1*
X741706Y2447193D1*
X736767Y2453458D1*
X732335Y2460091D1*
X728437Y2467052D1*
X725097Y2474297D1*
X722336Y2481781D1*
X720839Y2487090D1*
X716522Y2474297D1*
X713182Y2467052D1*
X709284Y2460091D1*
X704852Y2453458D1*
X699913Y2447193D1*
X694498Y2441335D1*
X688640Y2435920D1*
X682375Y2430981D1*
X675742Y2426549D1*
X668782Y2422651D1*
X661537Y2419311D1*
X654052Y2416550D1*
X646374Y2414384D1*
X638550Y2412828D1*
X630628Y2411890D1*
X622656Y2411577D1*
X614685Y2411890D1*
X606762Y2412828D1*
X598938Y2414384D1*
X591260Y2416550D1*
X583776Y2419311D1*
X576531Y2422651D1*
X569570Y2426549D1*
X562937Y2430981D1*
X556672Y2435920D1*
X550814Y2441335D1*
X545399Y2447193D1*
X540460Y2453458D1*
X536028Y2460091D1*
X532130Y2467052D1*
X528790Y2474297D1*
X526029Y2481781D1*
X523863Y2489459D1*
X522307Y2497283D1*
X521369Y2505206D1*
X521056Y2513177D1*
X521369Y2521149D1*
X522307Y2529071D1*
X523863Y2536895D1*
X526029Y2544573D1*
X528790Y2552058D1*
X532130Y2559303D1*
X536028Y2566263D1*
X540460Y2572896D1*
X545399Y2579161D1*
X550814Y2585019D1*
X556672Y2590434D1*
X562937Y2595373D1*
X569570Y2599805D1*
X576531Y2603703D1*
X583776Y2607043D1*
X591260Y2609805D1*
X598938Y2611970D1*
X606762Y2613526D1*
X614685Y2614464D1*
X622656Y2614777D1*
X630628Y2614464D1*
X638550Y2613526D1*
X646374Y2611970D1*
X654052Y2609805D1*
X661537Y2607043D1*
X668782Y2603703D1*
X675742Y2599805D1*
X682375Y2595373D1*
X688640Y2590434D1*
X694498Y2585019D1*
X699913Y2579161D1*
X704852Y2572896D1*
X709284Y2566263D1*
X713182Y2559303D1*
X716522Y2552058D1*
X719284Y2544573D1*
X720781Y2539265D1*
X725097Y2552058D1*
X728437Y2559303D1*
X732335Y2566263D1*
X736767Y2572896D1*
X741706Y2579161D1*
X747121Y2585019D1*
X752979Y2590434D1*
X759244Y2595373D1*
X765877Y2599805D1*
X772838Y2603703D1*
X780083Y2607043D1*
X787567Y2609805D1*
X795245Y2611970D1*
X803070Y2613526D1*
X810992Y2614464D1*
X818963Y2614777D1*
X826935Y2614464D1*
X834857Y2613526D1*
X842681Y2611970D1*
X850359Y2609805D1*
X857844Y2607043D1*
X865089Y2603703D1*
X872049Y2599805D1*
X878682Y2595373D1*
X884947Y2590434D1*
X890805Y2585019D1*
X896221Y2579161D1*
X901102Y2572970D1*
X901293Y2742769D1*
X902898Y2752902D1*
X906068Y2762659D1*
X910726Y2771800D1*
X916756Y2780100D1*
X933232Y2796861D1*
X1047891Y2911235D1*
X1056191Y2917265D1*
X1065332Y2921923D1*
X1075089Y2925093D1*
X1085222Y2926698D1*
X1108724Y2926899D1*
X1112708D1*
X1119755Y2929615D1*
X1130680Y2932238D1*
X1141881Y2933120D1*
X1153081Y2932238D1*
X1164006Y2929615D1*
X1174386Y2925316D1*
X1183966Y2919445D1*
X1192509Y2912149D1*
X1199806Y2903605D1*
X1205677Y2894025D1*
X1209976Y2883645D1*
X1212599Y2872720D1*
X1213481Y2861520D1*
X1212599Y2850319D1*
X1209976Y2839394D1*
X1205677Y2829014D1*
X1199806Y2819434D1*
X1192509Y2810891D1*
X1183966Y2803594D1*
X1174386Y2797724D1*
X1164006Y2793424D1*
X1153081Y2790801D1*
X1141881Y2789920D1*
X1130680Y2790801D1*
X1119755Y2793424D1*
X1116067Y2794785D1*
X1031864Y2710571D1*
X1031851Y2063349D1*
X1031046Y2053121D1*
X1028651Y2043146D1*
X1024725Y2033667D1*
X1019364Y2024920D1*
X1012687Y2017105D1*
X985221Y1989639D1*
X985231Y1743820D1*
X984423Y1733573D1*
X985331Y1730619D1*
X994911Y1724748D1*
X998757Y1721800D1*
X1527439D1*
X1532688Y1725343D1*
X1542698Y1730444D1*
X1553384Y1733916D1*
X1561929Y1735371D1*
X1561909Y1783714D1*
X1474977Y1870883D1*
X1469673Y1878183D1*
X1465577Y1886223D1*
X1462788Y1894805D1*
X1461376Y1903718D1*
X1461199Y1926602D1*
Y2193114D1*
X1457458Y2198605D1*
X1452357Y2208616D1*
X1448885Y2219301D1*
X1447127Y2230398D1*
Y2241633D1*
X1448885Y2252730D1*
X1452357Y2263416D1*
X1457458Y2273427D1*
X1461002Y2278636D1*
X1461178Y2404411D1*
X1462590Y2413323D1*
X1465378Y2421905D1*
X1469475Y2429946D1*
X1474779Y2437246D1*
X1481160Y2443627D1*
X1488460Y2448930D1*
X1496500Y2453027D1*
X1505082Y2455816D1*
X1513995Y2457227D1*
X1523217D1*
X1532129Y2455816D1*
X1540711Y2453027D1*
X1548751Y2448930D1*
X1556052Y2443627D1*
X1562432Y2437246D1*
X1567736Y2429946D1*
X1571833Y2421905D1*
X1574621Y2413323D1*
X1576033Y2404411D1*
X1576210Y2381526D1*
X1576432Y2278101D1*
X1582303Y2268521D1*
X1586602Y2258141D1*
X1589225Y2247216D1*
X1590107Y2236016D1*
X1589225Y2224815D1*
X1586602Y2213890D1*
X1582303Y2203510D1*
X1576432Y2193930D1*
X1576210Y2188613D1*
Y1932077D1*
X1601919Y1906340D1*
X1598588Y1913437D1*
X1595116Y1924123D1*
X1593358Y1935220D1*
Y1946455D1*
X1595116Y1957552D1*
X1598588Y1968237D1*
X1603688Y1978248D1*
X1610292Y1987338D1*
X1618237Y1995282D1*
X1627327Y2001886D1*
X1637337Y2006987D1*
X1648023Y2010459D1*
X1659120Y2012217D1*
X1670355D1*
X1681452Y2010459D1*
X1692138Y2006987D1*
X1702148Y2001886D1*
X1711238Y1995282D1*
X1719183Y1987338D1*
X1725787Y1978248D1*
X1730887Y1968237D1*
X1734359Y1957552D1*
X1736117Y1946455D1*
Y1935220D1*
X1734359Y1924123D1*
X1732689Y1918320D1*
X1732685Y1635155D1*
X1739222Y1640508D1*
X1748801Y1646379D1*
X1759181Y1650678D1*
X1769353Y1653151D1*
X1790377Y1674171D1*
X1790366Y1764344D1*
X1785984Y1769804D1*
X1780113Y1779384D1*
X1775814Y1789764D1*
X1773191Y1800689D1*
X1772309Y1811890D1*
X1773191Y1823090D1*
X1775814Y1834015D1*
X1780113Y1844395D1*
X1785984Y1853975D1*
X1793281Y1862519D1*
X1801824Y1869815D1*
X1811404Y1875686D1*
X1821784Y1879985D1*
X1832709Y1882608D1*
X1843909Y1883490D1*
X1855110Y1882608D1*
X1866035Y1879985D1*
X1876415Y1875686D1*
X1885995Y1869815D1*
X1892264Y1864621D1*
X1896550Y1869256D1*
X1901228Y1873580D1*
X1906230Y1877523D1*
X1911527Y1881062D1*
X1917085Y1884175D1*
X1922870Y1886842D1*
X1928846Y1889047D1*
X1934977Y1890776D1*
X1941225Y1892019D1*
X1947551Y1892767D1*
X1953916Y1893017D1*
X1960281Y1892767D1*
X1966607Y1892019D1*
X1972855Y1890776D1*
X1978986Y1889047D1*
X1984962Y1886842D1*
X1990747Y1884175D1*
X1996305Y1881062D1*
X2001602Y1877523D1*
X2006604Y1873580D1*
X2011282Y1869256D1*
X2015606Y1864578D1*
X2019550Y1859575D1*
X2023089Y1854279D1*
X2026201Y1848721D1*
X2028868Y1842936D1*
X2031073Y1836960D1*
X2032802Y1830829D1*
X2034045Y1824581D1*
X2034793Y1818255D1*
X2035044Y1811890D1*
X2034793Y1805525D1*
X2034045Y1799199D1*
X2032802Y1792951D1*
X2031073Y1786820D1*
X2028868Y1780844D1*
X2026201Y1775059D1*
X2023089Y1769501D1*
X2019550Y1764204D1*
X2015606Y1759202D1*
X2011282Y1754524D1*
X2006604Y1750200D1*
X2001602Y1746256D1*
X1996305Y1742717D1*
X1990747Y1739605D1*
X1984962Y1736938D1*
X1978986Y1734733D1*
X1972855Y1733004D1*
X1966607Y1731761D1*
X1960281Y1731012D1*
X1953916Y1730762D1*
X1947551Y1731012D1*
X1941225Y1731761D1*
X1934977Y1733004D1*
X1928846Y1734733D1*
X1922870Y1736938D1*
X1917085Y1739605D1*
X1911527Y1742717D1*
X1905390Y1746919D1*
X1905200Y1645828D1*
X1903788Y1636915D1*
X1901000Y1628333D1*
X1896903Y1620293D1*
X1891599Y1612993D1*
X1875543Y1596686D1*
X1852325Y1573469D1*
X1850929Y1565868D1*
X1847457Y1555183D1*
X1842356Y1545172D1*
X1835752Y1536082D1*
X1827808Y1528138D1*
X1818718Y1521534D1*
X1808707Y1516433D1*
X1798022Y1512961D1*
X1786925Y1511203D1*
X1775689D1*
X1764592Y1512961D1*
X1753907Y1516433D1*
X1743896Y1521534D1*
X1734807Y1528138D1*
X1728725Y1534066D1*
X1725231Y1528814D1*
X1717935Y1520270D1*
X1709391Y1512973D1*
X1699811Y1507103D1*
X1689431Y1502803D1*
X1678506Y1500180D1*
X1676914Y1499992D1*
X1676920Y1410605D1*
X1680464Y1405335D1*
X1685564Y1395324D1*
X1689036Y1384639D1*
X1690794Y1373542D1*
Y1362306D1*
X1689036Y1351209D1*
X1685564Y1340524D1*
X1680464Y1330513D1*
X1673860Y1321423D1*
X1665915Y1313479D1*
X1656826Y1306875D1*
X1646815Y1301774D1*
X1636129Y1298302D1*
X1625032Y1296545D1*
X1613797D1*
X1602700Y1298302D1*
X1592015Y1301774D1*
X1582004Y1306875D1*
X1572914Y1313479D1*
X1564970Y1321423D1*
X1558366Y1330513D1*
X1553265Y1340524D1*
X1549793Y1351209D1*
X1548035Y1362306D1*
Y1373542D1*
X1549793Y1384639D1*
X1553265Y1395324D1*
X1558366Y1405335D1*
X1561911Y1410544D1*
X1561909Y1593169D1*
X1553384Y1594672D1*
X1542698Y1598144D1*
X1532688Y1603245D1*
X1527478Y1606790D1*
X1313562Y1606788D1*
X1319479Y1602196D1*
X1324157Y1597872D1*
X1328481Y1593195D1*
X1332425Y1588192D1*
X1335964Y1582896D1*
X1339077Y1577338D1*
X1341743Y1571553D1*
X1343948Y1565576D1*
X1345677Y1559445D1*
X1346920Y1553198D1*
X1347669Y1546872D1*
X1347919Y1540507D1*
X1347669Y1534141D1*
X1346920Y1527815D1*
X1345677Y1521568D1*
X1343948Y1515437D1*
X1341743Y1509460D1*
X1339077Y1503675D1*
X1335964Y1498118D1*
X1332425Y1492821D1*
X1328481Y1487818D1*
X1324157Y1483141D1*
X1319479Y1478817D1*
X1314477Y1474873D1*
X1309180Y1471334D1*
X1303622Y1468221D1*
X1297838Y1465554D1*
X1291861Y1463350D1*
X1285730Y1461621D1*
X1279482Y1460378D1*
X1273157Y1459629D1*
X1266791Y1459379D1*
X1260426Y1459629D1*
X1254100Y1460378D1*
X1247852Y1461621D1*
X1241722Y1463350D1*
X1235745Y1465554D1*
X1229960Y1468221D1*
X1224402Y1471334D1*
X1219106Y1474873D1*
X1214103Y1478817D1*
X1209425Y1483141D1*
X1205101Y1487818D1*
X1201158Y1492821D1*
X1197619Y1498118D1*
X1194506Y1503675D1*
X1191839Y1509460D1*
X1189634Y1515437D1*
X1187905Y1521568D1*
X1186663Y1527815D1*
X1185914Y1534141D1*
X1185664Y1540507D1*
X1185914Y1546872D1*
X1186663Y1553198D1*
X1187905Y1559445D1*
X1189634Y1565576D1*
X1191839Y1571553D1*
X1194506Y1577338D1*
X1197619Y1582896D1*
X1201158Y1588192D1*
X1205101Y1593195D1*
X1209425Y1597872D1*
X1214103Y1602196D1*
X1220078Y1606790D1*
X991825Y1606788D1*
X986500Y1603681D1*
X986487Y1457009D1*
X984783Y1456848D1*
X986133Y1447766D1*
X986467Y1438268D1*
X3719909Y2298937D2*
X3719199Y2289783D1*
X3718186Y2283863D1*
X3719929Y2283870D1*
Y2117678D1*
X3553737D1*
Y2283870D1*
X3555496D1*
X3554263Y2291446D1*
X3553737Y2300613D1*
X3554227Y2309781D1*
X3555725Y2318840D1*
X3558213Y2327678D1*
X3561661Y2336188D1*
X3566027Y2344265D1*
X3571258Y2351811D1*
X3577289Y2358734D1*
X3584047Y2364950D1*
X3591449Y2370382D1*
X3599406Y2374964D1*
X3607819Y2378640D1*
X3616587Y2381366D1*
X3625602Y2383108D1*
X3634754Y2383844D1*
X3643931Y2383567D1*
X3653022Y2382278D1*
X3661915Y2379995D1*
X3670502Y2376744D1*
X3678678Y2372565D1*
X3686343Y2367511D1*
X3693404Y2361641D1*
X3699773Y2355028D1*
X3705375Y2347753D1*
X3710139Y2339904D1*
X3714009Y2331578D1*
X3716936Y2322875D1*
X3718886Y2313903D1*
X3719833Y2304770D1*
X3719909Y2298937D1*
X4242307Y1583765D2*
X4241540Y1577286D1*
X4240267Y1570886D1*
X4238496Y1564607D1*
X4236238Y1558485D1*
X4233506Y1552560D1*
X4230318Y1546867D1*
X4226693Y1541442D1*
X4222654Y1536318D1*
X4218225Y1531527D1*
X4213434Y1527098D1*
X4208310Y1523059D1*
X4202885Y1519434D1*
X4197192Y1516246D1*
X4191267Y1513514D1*
X4185145Y1511256D1*
X4178866Y1509485D1*
X4172466Y1508212D1*
X4165987Y1507445D1*
X4159467Y1507189D1*
X4152948Y1507445D1*
X4142544Y1508992D1*
X4142563Y1507189D1*
X3976371D1*
Y1673381D1*
X4142563D1*
Y1671622D1*
X4152948Y1673125D1*
X4159467Y1673381D1*
X4165987Y1673125D1*
X4172466Y1672358D1*
X4178866Y1671085D1*
X4185145Y1669314D1*
X4191267Y1667056D1*
X4197192Y1664324D1*
X4202885Y1661136D1*
X4208310Y1657511D1*
X4213434Y1653472D1*
X4218225Y1649043D1*
X4222654Y1644251D1*
X4226693Y1639127D1*
X4230318Y1633702D1*
X4233506Y1628010D1*
X4236238Y1622084D1*
X4238496Y1615963D1*
X4240267Y1609683D1*
X4241540Y1603284D1*
X4242307Y1596804D1*
X4242563Y1590285D1*
X4242307Y1583765D1*
X4264328Y1169354D2*
X4263561Y1162875D1*
X4262288Y1156476D1*
X4260517Y1150196D1*
X4258259Y1144075D1*
X4255527Y1138149D1*
X4252339Y1132456D1*
X4248714Y1127031D1*
X4244675Y1121907D1*
X4240246Y1117116D1*
X4235455Y1112687D1*
X4230331Y1108648D1*
X4224906Y1105023D1*
X4219213Y1101835D1*
X4213288Y1099103D1*
X4207166Y1096845D1*
X4200887Y1095074D1*
X4194487Y1093801D1*
X4188008Y1093034D1*
X4181488Y1092778D1*
X4174969Y1093034D1*
X4164565Y1094582D1*
X4164584Y1092778D1*
X3998392D1*
Y1258970D1*
X4164584D1*
Y1257212D1*
X4174969Y1258714D1*
X4181488Y1258970D1*
X4188008Y1258714D1*
X4194487Y1257947D1*
X4200887Y1256674D1*
X4207166Y1254903D1*
X4213288Y1252645D1*
X4219213Y1249913D1*
X4224906Y1246725D1*
X4230331Y1243100D1*
X4235455Y1239061D1*
X4240246Y1234632D1*
X4244675Y1229841D1*
X4248714Y1224717D1*
X4252339Y1219292D1*
X4255527Y1213599D1*
X4258259Y1207674D1*
X4260517Y1201552D1*
X4262288Y1195272D1*
X4263561Y1188873D1*
X4264328Y1182394D1*
X4264584Y1175874D1*
X4264328Y1169354D1*
X1362715Y1197487D2*
X1361966Y1191161D1*
X1360723Y1184913D1*
X1358994Y1178782D1*
X1356789Y1172806D1*
X1354122Y1167021D1*
X1351010Y1161463D1*
X1347471Y1156166D1*
X1343527Y1151164D1*
X1339203Y1146486D1*
X1334525Y1142162D1*
X1329523Y1138218D1*
X1324226Y1134679D1*
X1318668Y1131567D1*
X1312883Y1128900D1*
X1306907Y1126695D1*
X1300776Y1124966D1*
X1294528Y1123723D1*
X1288202Y1122974D1*
X1281837Y1122724D1*
X1275472Y1122974D1*
X1269146Y1123723D1*
X1262898Y1124966D1*
X1256767Y1126695D1*
X1250791Y1128900D1*
X1245006Y1131567D1*
X1239448Y1134679D1*
X1234152Y1138218D1*
X1229149Y1142162D1*
X1224471Y1146486D1*
X1220147Y1151164D1*
X1216204Y1156166D1*
X1212665Y1161463D1*
X1209552Y1167021D1*
X1206885Y1172806D1*
X1204680Y1178782D1*
X1202951Y1184913D1*
X1201709Y1191161D1*
X1200960Y1197487D1*
X1200710Y1203852D1*
X1200960Y1210217D1*
X1201709Y1216543D1*
X1202951Y1222791D1*
X1204680Y1228922D1*
X1206885Y1234898D1*
X1209552Y1240683D1*
X1212665Y1246241D1*
X1216204Y1251537D1*
X1220147Y1256540D1*
X1224471Y1261218D1*
X1229149Y1265542D1*
X1234152Y1269485D1*
X1239448Y1273024D1*
X1245006Y1276137D1*
X1250791Y1278804D1*
X1256767Y1281009D1*
X1262898Y1282738D1*
X1269146Y1283980D1*
X1275472Y1284729D1*
X1281837Y1284979D1*
X1288202Y1284729D1*
X1294528Y1283980D1*
X1300776Y1282738D1*
X1306907Y1281009D1*
X1312883Y1278804D1*
X1318668Y1276137D1*
X1324226Y1273024D1*
X1329523Y1269485D1*
X1334525Y1265542D1*
X1339203Y1261218D1*
X1343527Y1256540D1*
X1347471Y1251537D1*
X1351010Y1246241D1*
X1354122Y1240683D1*
X1356789Y1234898D1*
X1358994Y1228922D1*
X1360723Y1222791D1*
X1361966Y1216543D1*
X1362715Y1210217D1*
X1362965Y1203852D1*
X1362715Y1197487D1*
X1316429Y834190D2*
X1315680Y827864D1*
X1314437Y821616D1*
X1312708Y815485D1*
X1310503Y809509D1*
X1307836Y803724D1*
X1304724Y798166D1*
X1301185Y792870D1*
X1297241Y787867D1*
X1292917Y783189D1*
X1288239Y778865D1*
X1283237Y774922D1*
X1277940Y771383D1*
X1272382Y768270D1*
X1266597Y765603D1*
X1260621Y763398D1*
X1254490Y761669D1*
X1248242Y760426D1*
X1241916Y759678D1*
X1235551Y759428D1*
X1229186Y759678D1*
X1222860Y760426D1*
X1216612Y761669D1*
X1210481Y763398D1*
X1204505Y765603D1*
X1198720Y768270D1*
X1193162Y771383D1*
X1187866Y774922D1*
X1182863Y778865D1*
X1178185Y783189D1*
X1173861Y787867D1*
X1169918Y792870D1*
X1166379Y798166D1*
X1163266Y803724D1*
X1160599Y809509D1*
X1158394Y815485D1*
X1156665Y821616D1*
X1155422Y827864D1*
X1154674Y834190D1*
X1154424Y840555D1*
X1154674Y846920D1*
X1155422Y853246D1*
X1156665Y859494D1*
X1158394Y865625D1*
X1160599Y871601D1*
X1163266Y877386D1*
X1166379Y882944D1*
X1169918Y888241D1*
X1173861Y893243D1*
X1178185Y897921D1*
X1182863Y902245D1*
X1187866Y906189D1*
X1193162Y909728D1*
X1198720Y912840D1*
X1204505Y915507D1*
X1210481Y917712D1*
X1216612Y919441D1*
X1222860Y920684D1*
X1229186Y921433D1*
X1235551Y921683D1*
X1241916Y921433D1*
X1248242Y920684D1*
X1254490Y919441D1*
X1260621Y917712D1*
X1266597Y915507D1*
X1272382Y912840D1*
X1277940Y909728D1*
X1283237Y906189D1*
X1288239Y902245D1*
X1292917Y897921D1*
X1297241Y893243D1*
X1301185Y888241D1*
X1304724Y882944D1*
X1307836Y877386D1*
X1310503Y871601D1*
X1312708Y865625D1*
X1314437Y859494D1*
X1315680Y853246D1*
X1316429Y846920D1*
X1316679Y840555D1*
X1316429Y834190D1*
X1380634Y549659D2*
X1379907Y540506D1*
X1378151Y531494D1*
X1375387Y522739D1*
X1371652Y514351D1*
X1366993Y506440D1*
X1361470Y499105D1*
X1355154Y492442D1*
X1348125Y486535D1*
X1340474Y481460D1*
X1332298Y477282D1*
X1323702Y474054D1*
X1314797Y471818D1*
X1305697Y470603D1*
X1296517Y470424D1*
X1287376Y471284D1*
X1278390Y473170D1*
X1269676Y476060D1*
X1261343Y479917D1*
X1253500Y484689D1*
X1246246Y490318D1*
X1239675Y496730D1*
X1233870Y503844D1*
X1228906Y511568D1*
X1224847Y519803D1*
X1221744Y528444D1*
X1219637Y537381D1*
X1218554Y546498D1*
X1218508Y555680D1*
X1219499Y564807D1*
X1221516Y573765D1*
X1224532Y582437D1*
X1228508Y590712D1*
X1233394Y598486D1*
X1239127Y605657D1*
X1245634Y612135D1*
X1252830Y617837D1*
X1260625Y622688D1*
X1268919Y626628D1*
X1277604Y629605D1*
X1286570Y631582D1*
X1295702Y632533D1*
X1304883Y632447D1*
X1313996Y631323D1*
X1322923Y629177D1*
X1331550Y626036D1*
X1339767Y621941D1*
X1347469Y616943D1*
X1354557Y611107D1*
X1360940Y604507D1*
X1366537Y597228D1*
X1371275Y589364D1*
X1375094Y581015D1*
X1377946Y572287D1*
X1379793Y563293D1*
X1380612Y554148D1*
X1380634Y549659D1*
X2240664Y1882662D2*
X2235370Y1876754D1*
X2230692Y1872430D1*
X2225690Y1868486D1*
X2220393Y1864947D1*
X2214835Y1861834D1*
X2209050Y1859167D1*
X2203074Y1856963D1*
X2196943Y1855233D1*
X2190695Y1853991D1*
X2184369Y1853242D1*
X2178004Y1852992D1*
X2171639Y1853242D1*
X2165313Y1853991D1*
X2159065Y1855233D1*
X2152934Y1856963D1*
X2146958Y1859167D1*
X2141173Y1861834D1*
X2135615Y1864947D1*
X2130318Y1868486D1*
X2125316Y1872430D1*
X2120638Y1876754D1*
X2116314Y1881431D1*
X2112370Y1886434D1*
X2108831Y1891730D1*
X2105719Y1897288D1*
X2103052Y1903073D1*
X2100847Y1909050D1*
X2099118Y1915181D1*
X2097875Y1921428D1*
X2097126Y1927754D1*
X2096876Y1934119D1*
X2097126Y1940485D1*
X2097875Y1946811D1*
X2099118Y1953058D1*
X2100847Y1959189D1*
X2103052Y1965166D1*
X2105719Y1970951D1*
X2108831Y1976508D1*
X2112370Y1981805D1*
X2116314Y1986808D1*
X2120638Y1991485D1*
X2125316Y1995809D1*
X2130318Y1999753D1*
X2135615Y2003292D1*
X2141173Y2006405D1*
X2146958Y2009072D1*
X2152934Y2011276D1*
X2159065Y2013005D1*
X2165313Y2014248D1*
X2171639Y2014997D1*
X2178004Y2015247D1*
X2184369Y2014997D1*
X2190695Y2014248D1*
X2196943Y2013005D1*
X2203074Y2011276D1*
X2209050Y2009072D1*
X2214835Y2006405D1*
X2220393Y2003292D1*
X2225690Y1999753D1*
X2230692Y1995809D1*
X2235370Y1991485D1*
X2240664Y1985576D1*
X2248336Y1992045D1*
X2257916Y1997915D1*
X2268296Y2002215D1*
X2279221Y2004838D1*
X2290421Y2005719D1*
X2301622Y2004838D1*
X2312547Y2002215D1*
X2322927Y1997915D1*
X2332507Y1992045D1*
X2341050Y1984748D1*
X2348347Y1976205D1*
X2354217Y1966625D1*
X2358517Y1956245D1*
X2361140Y1945320D1*
X2362021Y1934119D1*
X2361140Y1922919D1*
X2358517Y1911994D1*
X2355716Y1904865D1*
X2355725Y1798082D1*
X2359268Y1792860D1*
X2364369Y1782849D1*
X2367841Y1772164D1*
X2369598Y1761066D1*
Y1749831D1*
X2367841Y1738734D1*
X2364369Y1728049D1*
X2359268Y1718038D1*
X2352664Y1708948D1*
X2344720Y1701004D1*
X2335630Y1694400D1*
X2325619Y1689299D1*
X2314934Y1685827D1*
X2303837Y1684070D1*
X2292601D1*
X2281504Y1685827D1*
X2270819Y1689299D1*
X2260808Y1694400D1*
X2251719Y1701004D1*
X2243774Y1708948D1*
X2237170Y1718038D1*
X2232069Y1728049D1*
X2228597Y1738734D1*
X2226840Y1749831D1*
Y1761066D1*
X2228597Y1772164D1*
X2232069Y1782849D1*
X2237170Y1792860D1*
X2240715Y1798069D1*
X2240714Y1882586D1*
X2421662Y1437636D2*
X2420914Y1431310D1*
X2419671Y1425062D1*
X2417942Y1418932D1*
X2415737Y1412955D1*
X2413070Y1407170D1*
X2409957Y1401612D1*
X2406418Y1396316D1*
X2402475Y1391313D1*
X2398151Y1386635D1*
X2393473Y1382311D1*
X2388470Y1378368D1*
X2383174Y1374829D1*
X2377616Y1371716D1*
X2371831Y1369049D1*
X2365855Y1366844D1*
X2359724Y1365115D1*
X2353476Y1363873D1*
X2347150Y1363124D1*
X2340785Y1362874D1*
X2334420Y1363124D1*
X2328094Y1363873D1*
X2321846Y1365115D1*
X2315715Y1366844D1*
X2309739Y1369049D1*
X2303954Y1371716D1*
X2298396Y1374829D1*
X2293099Y1378368D1*
X2288097Y1382311D1*
X2283419Y1386635D1*
X2279095Y1391313D1*
X2275151Y1396316D1*
X2271612Y1401612D1*
X2268500Y1407170D1*
X2265833Y1412955D1*
X2263628Y1418932D1*
X2261899Y1425062D1*
X2260656Y1431310D1*
X2259907Y1437636D1*
X2259657Y1444001D1*
X2259907Y1450367D1*
X2260656Y1456692D1*
X2261899Y1462940D1*
X2263628Y1469071D1*
X2265833Y1475047D1*
X2268500Y1480832D1*
X2271612Y1486390D1*
X2275151Y1491687D1*
X2279095Y1496689D1*
X2283419Y1501367D1*
X2288097Y1505691D1*
X2297010Y1512248D1*
X2288097Y1518855D1*
X2283419Y1523179D1*
X2279095Y1527856D1*
X2275151Y1532859D1*
X2271612Y1538156D1*
X2268500Y1543713D1*
X2265833Y1549498D1*
X2263628Y1555475D1*
X2261899Y1561606D1*
X2260656Y1567853D1*
X2259907Y1574179D1*
X2259657Y1580545D1*
X2259907Y1586910D1*
X2260656Y1593236D1*
X2261899Y1599483D1*
X2263628Y1605614D1*
X2265833Y1611591D1*
X2268500Y1617376D1*
X2271612Y1622934D1*
X2275151Y1628230D1*
X2279095Y1633233D1*
X2283419Y1637910D1*
X2288097Y1642234D1*
X2293099Y1646178D1*
X2298396Y1649717D1*
X2303954Y1652830D1*
X2309739Y1655497D1*
X2315715Y1657702D1*
X2321846Y1659431D1*
X2328094Y1660673D1*
X2334420Y1661422D1*
X2340785Y1661672D1*
X2347150Y1661422D1*
X2353476Y1660673D1*
X2359724Y1659431D1*
X2365855Y1657702D1*
X2371831Y1655497D1*
X2377616Y1652830D1*
X2383174Y1649717D1*
X2388470Y1646178D1*
X2393473Y1642234D1*
X2398151Y1637910D1*
X2402475Y1633233D1*
X2406418Y1628230D1*
X2409957Y1622934D1*
X2413070Y1617376D1*
X2415737Y1611591D1*
X2417942Y1605614D1*
X2419671Y1599483D1*
X2420914Y1593236D1*
X2421662Y1586910D1*
X2421912Y1580545D1*
X2421662Y1574179D1*
X2420914Y1567853D1*
X2419671Y1561606D1*
X2417942Y1555475D1*
X2415737Y1549498D1*
X2413070Y1543713D1*
X2409957Y1538156D1*
X2406418Y1532859D1*
X2402475Y1527856D1*
X2398151Y1523179D1*
X2393473Y1518855D1*
X2384560Y1512298D1*
X2393473Y1505691D1*
X2398151Y1501367D1*
X2402475Y1496689D1*
X2406418Y1491687D1*
X2409957Y1486390D1*
X2413070Y1480832D1*
X2415737Y1475047D1*
X2417942Y1469071D1*
X2419671Y1462940D1*
X2420914Y1456692D1*
X2421662Y1450367D1*
X2421912Y1444001D1*
X2421662Y1437636D1*
Y1217462D2*
X2420914Y1211136D1*
X2419671Y1204888D1*
X2417942Y1198757D1*
X2415737Y1192781D1*
X2413070Y1186996D1*
X2409957Y1181438D1*
X2406418Y1176141D1*
X2402475Y1171139D1*
X2398151Y1166461D1*
X2393473Y1162137D1*
X2388470Y1158193D1*
X2383174Y1154654D1*
X2377616Y1151542D1*
X2371831Y1148875D1*
X2365855Y1146670D1*
X2359724Y1144941D1*
X2353476Y1143698D1*
X2347150Y1142949D1*
X2340785Y1142699D1*
X2334420Y1142949D1*
X2328094Y1143698D1*
X2321846Y1144941D1*
X2315715Y1146670D1*
X2309739Y1148875D1*
X2303954Y1151542D1*
X2298396Y1154654D1*
X2293099Y1158193D1*
X2288097Y1162137D1*
X2283419Y1166461D1*
X2279095Y1171139D1*
X2275151Y1176141D1*
X2271612Y1181438D1*
X2268500Y1186996D1*
X2265833Y1192781D1*
X2263628Y1198757D1*
X2261899Y1204888D1*
X2260656Y1211136D1*
X2259907Y1217462D1*
X2259657Y1223827D1*
X2259907Y1230192D1*
X2260656Y1236518D1*
X2261899Y1242766D1*
X2263628Y1248897D1*
X2265833Y1254873D1*
X2268500Y1260658D1*
X2271612Y1266216D1*
X2275151Y1271512D1*
X2279095Y1276515D1*
X2283419Y1281193D1*
X2288097Y1285517D1*
X2293099Y1289460D1*
X2298396Y1292999D1*
X2303954Y1296112D1*
X2309739Y1298779D1*
X2315715Y1300984D1*
X2321846Y1302713D1*
X2328094Y1303956D1*
X2334420Y1304704D1*
X2340785Y1304954D1*
X2347150Y1304704D1*
X2353476Y1303956D1*
X2359724Y1302713D1*
X2365855Y1300984D1*
X2371831Y1298779D1*
X2377616Y1296112D1*
X2383174Y1292999D1*
X2388470Y1289460D1*
X2393473Y1285517D1*
X2398151Y1281193D1*
X2402475Y1276515D1*
X2406418Y1271512D1*
X2409957Y1266216D1*
X2413070Y1260658D1*
X2415737Y1254873D1*
X2417942Y1248897D1*
X2419671Y1242766D1*
X2420914Y1236518D1*
X2421662Y1230192D1*
X2421912Y1223827D1*
X2421662Y1217462D1*
Y1039103D2*
X2420914Y1032777D1*
X2419671Y1026530D1*
X2417942Y1020399D1*
X2415737Y1014422D1*
X2413070Y1008637D1*
X2409957Y1003079D1*
X2406418Y997783D1*
X2402475Y992780D1*
X2398151Y988103D1*
X2393473Y983779D1*
X2388470Y979835D1*
X2383174Y976296D1*
X2377616Y973183D1*
X2371831Y970516D1*
X2365855Y968312D1*
X2359724Y966583D1*
X2353476Y965340D1*
X2347150Y964591D1*
X2340785Y964341D1*
X2334420Y964591D1*
X2328094Y965340D1*
X2321846Y966583D1*
X2315715Y968312D1*
X2309739Y970516D1*
X2303954Y973183D1*
X2298396Y976296D1*
X2293099Y979835D1*
X2288097Y983779D1*
X2283419Y988103D1*
X2279095Y992780D1*
X2275151Y997783D1*
X2271612Y1003079D1*
X2268500Y1008637D1*
X2265833Y1014422D1*
X2263628Y1020399D1*
X2261899Y1026530D1*
X2260656Y1032777D1*
X2259907Y1039103D1*
X2259657Y1045469D1*
X2259907Y1051834D1*
X2260656Y1058160D1*
X2261899Y1064407D1*
X2263628Y1070538D1*
X2265833Y1076515D1*
X2268500Y1082300D1*
X2271612Y1087858D1*
X2275151Y1093154D1*
X2279095Y1098157D1*
X2283419Y1102834D1*
X2288097Y1107158D1*
X2293099Y1111102D1*
X2298396Y1114641D1*
X2303954Y1117754D1*
X2309739Y1120421D1*
X2315715Y1122625D1*
X2321846Y1124355D1*
X2328094Y1125597D1*
X2334420Y1126346D1*
X2340785Y1126596D1*
X2347150Y1126346D1*
X2353476Y1125597D1*
X2359724Y1124355D1*
X2365855Y1122625D1*
X2371831Y1120421D1*
X2377616Y1117754D1*
X2383174Y1114641D1*
X2388470Y1111102D1*
X2393473Y1107158D1*
X2398151Y1102834D1*
X2402475Y1098157D1*
X2406418Y1093154D1*
X2409957Y1087858D1*
X2413070Y1082300D1*
X2415737Y1076515D1*
X2417942Y1070538D1*
X2419671Y1064407D1*
X2420914Y1058160D1*
X2421662Y1051834D1*
X2421912Y1045469D1*
X2421662Y1039103D1*
X4259709Y934057D2*
X4258982Y924904D1*
X4257226Y915892D1*
X4254462Y907136D1*
X4250727Y898749D1*
X4246068Y890837D1*
X4240545Y883503D1*
X4234229Y876839D1*
X4227200Y870932D1*
X4219548Y865857D1*
X4211373Y861679D1*
X4202777Y858452D1*
X4193872Y856216D1*
X4184771Y855001D1*
X4175592Y854822D1*
X4166451Y855681D1*
X4157465Y857568D1*
X4148750Y860458D1*
X4140418Y864314D1*
X4132575Y869087D1*
X4125321Y874716D1*
X4118749Y881128D1*
X4112945Y888241D1*
X4107981Y895965D1*
X4103921Y904201D1*
X4100819Y912842D1*
X4098712Y921779D1*
X4097629Y930896D1*
X4097583Y940077D1*
X4098574Y949205D1*
X4100591Y958162D1*
X4103607Y966834D1*
X4107583Y975110D1*
X4112469Y982883D1*
X4118202Y990055D1*
X4124708Y996533D1*
X4131905Y1002234D1*
X4139700Y1007086D1*
X4147993Y1011025D1*
X4156679Y1014003D1*
X4165645Y1015980D1*
X4174777Y1016931D1*
X4183958Y1016844D1*
X4193070Y1015721D1*
X4201997Y1013575D1*
X4210625Y1010434D1*
X4218842Y1006338D1*
X4226544Y1001340D1*
X4233632Y995504D1*
X4240015Y988905D1*
X4245612Y981626D1*
X4250350Y973762D1*
X4254169Y965412D1*
X4257021Y956685D1*
X4258868Y947691D1*
X4259687Y938546D1*
X4259709Y934057D1*
X983141Y2932094D2*
X982393Y2925768D1*
X981150Y2919520D1*
X979421Y2913390D1*
X977216Y2907413D1*
X974549Y2901628D1*
X971436Y2896070D1*
X967897Y2890774D1*
X963954Y2885771D1*
X959630Y2881093D1*
X954952Y2876769D1*
X949949Y2872826D1*
X944653Y2869287D1*
X939095Y2866174D1*
X933310Y2863507D1*
X927334Y2861302D1*
X921203Y2859573D1*
X914955Y2858331D1*
X908629Y2857582D1*
X902264Y2857332D1*
X895899Y2857582D1*
X889573Y2858331D1*
X883325Y2859573D1*
X877194Y2861302D1*
X871218Y2863507D1*
X865433Y2866174D1*
X859875Y2869287D1*
X854578Y2872826D1*
X849576Y2876769D1*
X844898Y2881093D1*
X840574Y2885771D1*
X836630Y2890774D1*
X833091Y2896070D1*
X829979Y2901628D1*
X827312Y2907413D1*
X825107Y2913390D1*
X823378Y2919520D1*
X822135Y2925768D1*
X821386Y2932094D1*
X821136Y2938459D1*
X821386Y2944825D1*
X822135Y2951150D1*
X823378Y2957398D1*
X825107Y2963529D1*
X827312Y2969505D1*
X829979Y2975290D1*
X833091Y2980848D1*
X836630Y2986145D1*
X840574Y2991147D1*
X844898Y2995825D1*
X849576Y3000149D1*
X854578Y3004093D1*
X859875Y3007632D1*
X865433Y3010745D1*
X871218Y3013411D1*
X877194Y3015616D1*
X883325Y3017345D1*
X889573Y3018588D1*
X895899Y3019337D1*
X902264Y3019587D1*
X908629Y3019337D1*
X914955Y3018588D1*
X921203Y3017345D1*
X927334Y3015616D1*
X933310Y3013411D1*
X939095Y3010745D1*
X944653Y3007632D1*
X949949Y3004093D1*
X954952Y3000149D1*
X959630Y2995825D1*
X963954Y2991147D1*
X967897Y2986145D1*
X971436Y2980848D1*
X974549Y2975290D1*
X977216Y2969505D1*
X979421Y2963529D1*
X981150Y2957398D1*
X982393Y2951150D1*
X983141Y2944825D1*
X983391Y2938459D1*
X983141Y2932094D1*
X2176279Y2964414D2*
X2175530Y2958088D1*
X2174288Y2951841D1*
X2172558Y2945710D1*
X2170354Y2939733D1*
X2167687Y2933948D1*
X2164574Y2928390D1*
X2161035Y2923094D1*
X2157091Y2918091D1*
X2152767Y2913414D1*
X2148090Y2909090D1*
X2143087Y2905146D1*
X2137791Y2901607D1*
X2132233Y2898494D1*
X2126448Y2895827D1*
X2120471Y2893623D1*
X2114340Y2891894D1*
X2108093Y2890651D1*
X2101767Y2889902D1*
X2095402Y2889652D1*
X2089036Y2889902D1*
X2082710Y2890651D1*
X2076463Y2891894D1*
X2070332Y2893623D1*
X2064355Y2895827D1*
X2058570Y2898494D1*
X2053013Y2901607D1*
X2047716Y2905146D1*
X2042713Y2909090D1*
X2038036Y2913414D1*
X2033712Y2918091D1*
X2029768Y2923094D1*
X2026229Y2928390D1*
X2023116Y2933948D1*
X2020449Y2939733D1*
X2018245Y2945710D1*
X2016516Y2951841D1*
X2015273Y2958088D1*
X2014524Y2964414D1*
X2014274Y2970780D1*
X2014524Y2977145D1*
X2015273Y2983471D1*
X2016516Y2989718D1*
X2018245Y2995849D1*
X2020449Y3001826D1*
X2023116Y3007611D1*
X2026229Y3013169D1*
X2029768Y3018465D1*
X2033712Y3023468D1*
X2038036Y3028145D1*
X2042713Y3032469D1*
X2047716Y3036413D1*
X2053013Y3039952D1*
X2058570Y3043065D1*
X2064355Y3045732D1*
X2070332Y3047936D1*
X2076463Y3049666D1*
X2082710Y3050908D1*
X2089036Y3051657D1*
X2095402Y3051907D1*
X2101767Y3051657D1*
X2108093Y3050908D1*
X2114340Y3049666D1*
X2120471Y3047936D1*
X2126448Y3045732D1*
X2132233Y3043065D1*
X2137791Y3039952D1*
X2143087Y3036413D1*
X2148090Y3032469D1*
X2152767Y3028145D1*
X2157091Y3023468D1*
X2161035Y3018465D1*
X2164574Y3013169D1*
X2167687Y3007611D1*
X2170354Y3001826D1*
X2172558Y2995849D1*
X2174288Y2989718D1*
X2175530Y2983471D1*
X2176279Y2977145D1*
X2176529Y2970780D1*
X2176279Y2964414D1*
X2349296Y782883D2*
X2348569Y773731D1*
X2346812Y764719D1*
X2344049Y755963D1*
X2340314Y747576D1*
X2335655Y739664D1*
X2330132Y732330D1*
X2323815Y725666D1*
X2316786Y719759D1*
X2309135Y714684D1*
X2300959Y710506D1*
X2292364Y707279D1*
X2283459Y705043D1*
X2274358Y703828D1*
X2265178Y703649D1*
X2256037Y704508D1*
X2247052Y706395D1*
X2238337Y709285D1*
X2230005Y713141D1*
X2222161Y717914D1*
X2214907Y723542D1*
X2208336Y729955D1*
X2202531Y737068D1*
X2197567Y744792D1*
X2193508Y753028D1*
X2190405Y761669D1*
X2188299Y770605D1*
X2187216Y779723D1*
X2187169Y788904D1*
X2188161Y798032D1*
X2190177Y806989D1*
X2193193Y815661D1*
X2197170Y823937D1*
X2202055Y831710D1*
X2207788Y838882D1*
X2214295Y845360D1*
X2221492Y851061D1*
X2229287Y855913D1*
X2237580Y859852D1*
X2246265Y862830D1*
X2255231Y864807D1*
X2264363Y865758D1*
X2273545Y865671D1*
X2282657Y864548D1*
X2291584Y862402D1*
X2300212Y859261D1*
X2308429Y855165D1*
X2316131Y850167D1*
X2323219Y844331D1*
X2329602Y837731D1*
X2335198Y830453D1*
X2339937Y822588D1*
X2343756Y814239D1*
X2346607Y805511D1*
X2348454Y796518D1*
X2349273Y787373D1*
X2349296Y782883D1*
X4175910Y2147255D2*
X4175183Y2138102D1*
X4173426Y2129090D1*
X4170663Y2120335D1*
X4166928Y2111947D1*
X4162269Y2104036D1*
X4156746Y2096701D1*
X4150429Y2090038D1*
X4143401Y2084131D1*
X4135749Y2079055D1*
X4127573Y2074877D1*
X4118978Y2071650D1*
X4110073Y2069414D1*
X4100972Y2068199D1*
X4091793Y2068020D1*
X4082651Y2068880D1*
X4073666Y2070766D1*
X4064951Y2073656D1*
X4056619Y2077512D1*
X4048775Y2082285D1*
X4041522Y2087914D1*
X4034950Y2094326D1*
X4029145Y2101440D1*
X4024182Y2109164D1*
X4020122Y2117399D1*
X4017019Y2126040D1*
X4014913Y2134977D1*
X4013830Y2144094D1*
X4013784Y2153275D1*
X4014775Y2162403D1*
X4016792Y2171360D1*
X4019807Y2180032D1*
X4023784Y2188308D1*
X4028670Y2196082D1*
X4034403Y2203253D1*
X4040909Y2209731D1*
X4048106Y2215432D1*
X4055901Y2220284D1*
X4064194Y2224224D1*
X4072880Y2227201D1*
X4081846Y2229178D1*
X4090978Y2230129D1*
X4100159Y2230042D1*
X4109271Y2228919D1*
X4118198Y2226773D1*
X4126826Y2223632D1*
X4135043Y2219536D1*
X4142745Y2214538D1*
X4149833Y2208702D1*
X4156216Y2202103D1*
X4161812Y2194824D1*
X4166551Y2186960D1*
X4170370Y2178610D1*
X4173221Y2169883D1*
X4175068Y2160889D1*
X4175887Y2151744D1*
X4175910Y2147255D1*
X1999273Y2966820D2*
X1998546Y2957668D1*
X1996790Y2948656D1*
X1994026Y2939900D1*
X1990291Y2931513D1*
X1985632Y2923601D1*
X1980109Y2916267D1*
X1973793Y2909603D1*
X1966764Y2903696D1*
X1959113Y2898621D1*
X1950937Y2894443D1*
X1942342Y2891216D1*
X1933436Y2888980D1*
X1924336Y2887765D1*
X1915156Y2887586D1*
X1906015Y2888445D1*
X1897029Y2890332D1*
X1888315Y2893222D1*
X1879982Y2897078D1*
X1872139Y2901851D1*
X1864885Y2907479D1*
X1858314Y2913892D1*
X1852509Y2921005D1*
X1847545Y2928729D1*
X1843486Y2936965D1*
X1840383Y2945606D1*
X1838276Y2954542D1*
X1837193Y2963660D1*
X1837147Y2972841D1*
X1838139Y2981969D1*
X1840155Y2990926D1*
X1843171Y2999598D1*
X1847147Y3007874D1*
X1852033Y3015647D1*
X1857766Y3022819D1*
X1864273Y3029297D1*
X1871470Y3034998D1*
X1879265Y3039850D1*
X1887558Y3043789D1*
X1896243Y3046767D1*
X1905209Y3048744D1*
X1914341Y3049695D1*
X1923522Y3049608D1*
X1932635Y3048485D1*
X1941562Y3046339D1*
X1950189Y3043198D1*
X1958407Y3039102D1*
X1966109Y3034104D1*
X1973196Y3028268D1*
X1979579Y3021668D1*
X1985176Y3014390D1*
X1989914Y3006525D1*
X1993733Y2998176D1*
X1996585Y2989448D1*
X1998432Y2980455D1*
X1999251Y2971310D1*
X1999273Y2966820D1*
X3046156Y960457D2*
X3041196Y957674D1*
X3030816Y953374D1*
X3019891Y950751D1*
X3008690Y949870D1*
X2997490Y950751D1*
X2986565Y953374D1*
X2976185Y957674D1*
X2966605Y963544D1*
X2958061Y970841D1*
X2950765Y979384D1*
X2944894Y988964D1*
X2940595Y999344D1*
X2937972Y1010269D1*
X2937090Y1021470D1*
X2937972Y1032671D1*
X2940595Y1043595D1*
X2944894Y1053976D1*
X2950264Y1062807D1*
X2950271Y1114446D1*
X2946728Y1119715D1*
X2941627Y1129726D1*
X2938155Y1140411D1*
X2936398Y1151508D1*
Y1162744D1*
X2938155Y1173841D1*
X2941627Y1184526D1*
X2946728Y1194537D1*
X2953332Y1203626D1*
X2961276Y1211571D1*
X2970366Y1218175D1*
X2980377Y1223276D1*
X2991062Y1226748D1*
X3002159Y1228505D1*
X3013395D1*
X3024492Y1226748D1*
X3035177Y1223276D1*
X3045188Y1218175D1*
X3054277Y1211571D1*
X3062222Y1203626D1*
X3068826Y1194537D1*
X3068987Y1194249D1*
X3079076Y1194154D1*
X3090173Y1192396D1*
X3100858Y1188924D1*
X3110869Y1183823D1*
X3119958Y1177219D1*
X3127903Y1169275D1*
X3134507Y1160185D1*
X3139608Y1150174D1*
X3143080Y1139489D1*
X3144837Y1128392D1*
Y1117157D1*
X3143080Y1106060D1*
X3139608Y1095374D1*
X3134507Y1085363D1*
X3130962Y1080154D1*
X3130964Y1069271D1*
X3134507Y1064051D1*
X3139608Y1054041D1*
X3143080Y1043355D1*
X3144837Y1032258D1*
Y1021023D1*
X3143080Y1009926D1*
X3139608Y999240D1*
X3134507Y989230D1*
X3127903Y980140D1*
X3119958Y972195D1*
X3110869Y965591D1*
X3100858Y960491D1*
X3090173Y957019D1*
X3079076Y955261D1*
X3067840D1*
X3056743Y957019D1*
X3046161Y960453D1*
X3972982Y1631069D2*
X3971224Y1619972D1*
X3967752Y1609286D1*
X3962651Y1599275D1*
X3956047Y1590186D1*
X3948103Y1582241D1*
X3939013Y1575637D1*
X3929002Y1570537D1*
X3918317Y1567065D1*
X3907220Y1565307D1*
X3895985D1*
X3884888Y1567065D1*
X3874202Y1570537D1*
X3869555Y1572679D1*
X3860900Y1569221D1*
X3849975Y1566598D1*
X3838774Y1565716D1*
X3827574Y1566598D1*
X3816649Y1569221D1*
X3806269Y1573520D1*
X3796689Y1579391D1*
X3788145Y1586687D1*
X3780849Y1595231D1*
X3774978Y1604811D1*
X3770679Y1615191D1*
X3768056Y1626116D1*
X3767174Y1637316D1*
X3768056Y1648517D1*
X3770679Y1659442D1*
X3774978Y1669822D1*
X3780849Y1679402D1*
X3781270Y1679936D1*
X3781269Y1804860D1*
X3777725Y1810093D1*
X3772625Y1820104D1*
X3769153Y1830789D1*
X3767395Y1841886D1*
Y1853122D1*
X3769153Y1864219D1*
X3772625Y1874904D1*
X3777725Y1884915D1*
X3784329Y1894004D1*
X3792274Y1901949D1*
X3801363Y1908553D1*
X3811374Y1913654D1*
X3822060Y1917126D1*
X3833157Y1918883D1*
X3844392D1*
X3855489Y1917126D1*
X3866174Y1913654D1*
X3876185Y1908553D1*
X3885275Y1901949D1*
X3893219Y1894004D1*
X3899823Y1884915D1*
X3904924Y1874904D1*
X3908396Y1864219D1*
X3909588Y1857898D1*
X3920136Y1855325D1*
X3930516Y1851026D1*
X3940096Y1845155D1*
X3948639Y1837859D1*
X3955936Y1829315D1*
X3961807Y1819735D1*
X3966106Y1809355D1*
X3968729Y1798430D1*
X3969610Y1787230D1*
X3968729Y1776029D1*
X3966106Y1765104D1*
X3961807Y1754724D1*
X3955936Y1745144D1*
X3955515Y1744610D1*
X3955516Y1683776D1*
X3959528Y1678772D1*
X3965398Y1669192D1*
X3969698Y1658812D1*
X3972321Y1647887D1*
X3973202Y1636686D1*
X3972982Y1631069D1*
X2886352Y1447374D2*
X2884594Y1436277D1*
X2881122Y1425592D1*
X2876021Y1415581D1*
X2869418Y1406492D1*
X2861473Y1398547D1*
X2852383Y1391943D1*
X2842373Y1386842D1*
X2831687Y1383370D1*
X2820590Y1381613D1*
X2809355D1*
X2798258Y1383370D1*
X2787572Y1386842D1*
X2777562Y1391943D1*
X2768472Y1398547D1*
X2760527Y1406492D1*
X2753923Y1415581D1*
X2748823Y1425592D1*
X2745351Y1436277D1*
X2743593Y1447374D1*
Y1458610D1*
X2745351Y1469707D1*
X2748823Y1480392D1*
X2753923Y1490403D1*
X2757468Y1495612D1*
X2757467Y1788402D1*
X2753923Y1793682D1*
X2748823Y1803693D1*
X2745351Y1814378D1*
X2743593Y1825476D1*
Y1836711D1*
X2745351Y1847808D1*
X2748823Y1858493D1*
X2753923Y1868504D1*
X2760527Y1877594D1*
X2768472Y1885538D1*
X2777562Y1892142D1*
X2787572Y1897243D1*
X2798258Y1900715D1*
X2809355Y1902472D1*
X2820590D1*
X2831687Y1900715D1*
X2842373Y1897243D1*
X2852383Y1892142D1*
X2861473Y1885538D1*
X2869418Y1877594D1*
X2876021Y1868504D1*
X2881122Y1858493D1*
X2884594Y1847808D1*
X2886352Y1836711D1*
Y1825476D1*
X2884594Y1814378D1*
X2881122Y1803693D1*
X2876021Y1793682D1*
X2872477Y1788473D1*
X2872478Y1495684D1*
X2876021Y1490403D1*
X2881122Y1480392D1*
X2884594Y1469707D1*
X2886352Y1458610D1*
Y1447374D1*
X2235993Y2261805D2*
X2234236Y2250708D1*
X2230764Y2240022D1*
X2225663Y2230012D1*
X2219059Y2220922D1*
X2215318Y2216874D1*
X2222559Y2212266D1*
X2231103Y2204969D1*
X2238399Y2196425D1*
X2244270Y2186846D1*
X2248569Y2176466D1*
X2251192Y2165541D1*
X2252074Y2154340D1*
X2251192Y2143139D1*
X2248569Y2132214D1*
X2244270Y2121834D1*
X2238399Y2112254D1*
X2231103Y2103711D1*
X2222559Y2096414D1*
X2212979Y2090544D1*
X2202599Y2086244D1*
X2191674Y2083621D1*
X2180474Y2082740D1*
X2169273Y2083621D1*
X2158348Y2086244D1*
X2147968Y2090544D1*
X2138388Y2096414D1*
X2137854Y2096836D1*
X2112010Y2097012D1*
X2103098Y2098423D1*
X2094516Y2101212D1*
X2086476Y2105308D1*
X2079175Y2110612D1*
X2062868Y2126669D1*
X1975353Y2214183D1*
X1969273Y2214863D1*
X1958348Y2217486D1*
X1947968Y2221785D1*
X1938388Y2227656D1*
X1929845Y2234953D1*
X1922548Y2243496D1*
X1916678Y2253076D1*
X1912378Y2263456D1*
X1909755Y2274381D1*
X1908874Y2285581D1*
X1909755Y2296782D1*
X1912378Y2307707D1*
X1916678Y2318087D1*
X1922548Y2327667D1*
X1929845Y2336210D1*
X1938388Y2343507D1*
X1947968Y2349377D1*
X1958348Y2353677D1*
X1969273Y2356300D1*
X1980474Y2357181D1*
X1991674Y2356300D1*
X2002599Y2353677D1*
X2012979Y2349377D1*
X2022559Y2343507D1*
X2031103Y2336210D1*
X2038399Y2327667D1*
X2044270Y2318087D1*
X2048569Y2307707D1*
X2050143Y2302059D1*
X2093581Y2258607D1*
X2093014Y2267423D1*
X2093896Y2278623D1*
X2096519Y2289548D1*
X2100818Y2299928D1*
X2106689Y2309508D1*
X2112629Y2316584D1*
X2115583Y2322053D1*
X2120887Y2329353D1*
X2136943Y2345661D1*
X2187576Y2396043D1*
X2194876Y2401347D1*
X2202916Y2405443D1*
X2211498Y2408232D1*
X2220411Y2409643D1*
X2243295Y2409821D1*
X2330243D1*
X2335523Y2413364D1*
X2345534Y2418465D1*
X2356220Y2421937D1*
X2367317Y2423694D1*
X2378552D1*
X2389649Y2421937D1*
X2400335Y2418465D1*
X2410345Y2413364D1*
X2419435Y2406760D1*
X2427379Y2398815D1*
X2433983Y2389726D1*
X2439084Y2379715D1*
X2442556Y2369030D1*
X2444314Y2357933D1*
Y2346697D1*
X2442556Y2335600D1*
X2439084Y2324915D1*
X2433983Y2314904D1*
X2431287Y2310869D1*
X2436730Y2301867D1*
X2441030Y2291487D1*
X2443653Y2280562D1*
X2444534Y2269361D1*
X2443653Y2258160D1*
X2441030Y2247235D1*
X2436730Y2236855D1*
X2430860Y2227275D1*
X2423563Y2218732D1*
X2415020Y2211435D1*
X2405440Y2205565D1*
X2395060Y2201265D1*
X2384135Y2198642D1*
X2372934Y2197761D1*
X2361734Y2198642D1*
X2350809Y2201265D1*
X2340429Y2205565D1*
X2330849Y2211435D1*
X2322306Y2218732D1*
X2315009Y2227275D1*
X2309138Y2236855D1*
X2304839Y2247235D1*
X2302216Y2258160D1*
X2301334Y2269361D1*
X2302216Y2280562D1*
X2304839Y2291487D1*
X2306063Y2294804D1*
X2248739Y2294809D1*
X2234908Y2280975D1*
X2235993Y2273040D1*
Y2261805D1*
X2116596Y1156820D2*
X2111648Y1152847D1*
X2102069Y1146977D1*
X2091689Y1142677D1*
X2080764Y1140054D1*
X2069563Y1139173D1*
X2058362Y1140054D1*
X2047437Y1142677D1*
X2037057Y1146977D1*
X2027478Y1152847D1*
X2018934Y1160144D1*
X2011637Y1168688D1*
X2005767Y1178267D1*
X2001467Y1188647D1*
X1998845Y1199572D1*
X1997963Y1210773D1*
X1998845Y1221974D1*
X2001467Y1232899D1*
X2004654Y1240865D1*
X2004648Y1541302D1*
X2001932Y1548393D1*
X1999309Y1559318D1*
X1998428Y1570518D1*
X1999309Y1581719D1*
X2001932Y1592644D1*
X2006231Y1603024D1*
X2012102Y1612604D1*
X2019399Y1621147D1*
X2027942Y1628444D1*
X2037522Y1634314D1*
X2047902Y1638614D1*
X2058827Y1641237D1*
X2070028Y1642118D1*
X2081228Y1641237D1*
X2092153Y1638614D1*
X2102533Y1634314D1*
X2112113Y1628444D1*
X2120656Y1621147D1*
X2127953Y1612604D1*
X2133824Y1603024D1*
X2138123Y1592644D1*
X2140746Y1581719D1*
X2141628Y1570518D1*
X2140746Y1559318D1*
X2138123Y1548393D1*
X2135414Y1541463D1*
X2135407Y1512494D1*
X2143746Y1517507D1*
X2154126Y1521807D1*
X2165051Y1524430D1*
X2176252Y1525311D1*
X2187453Y1524430D1*
X2198378Y1521807D1*
X2208758Y1517507D1*
X2218337Y1511637D1*
X2226881Y1504340D1*
X2234178Y1495797D1*
X2240048Y1486217D1*
X2244348Y1475837D1*
X2246970Y1464912D1*
X2247852Y1453711D1*
X2246970Y1442511D1*
X2244348Y1431586D1*
X2240048Y1421206D1*
X2234178Y1411626D1*
X2233756Y1411091D1*
X2233758Y1159856D1*
X2237301Y1154631D1*
X2242402Y1144621D1*
X2245874Y1133935D1*
X2247631Y1122838D1*
Y1111603D1*
X2245874Y1100506D1*
X2242402Y1089820D1*
X2237301Y1079810D1*
X2230697Y1070720D1*
X2222752Y1062775D1*
X2213663Y1056171D1*
X2203652Y1051071D1*
X2192967Y1047599D1*
X2181870Y1045841D1*
X2170634D1*
X2159537Y1047599D1*
X2148852Y1051071D1*
X2138841Y1056171D1*
X2129751Y1062775D1*
X2121807Y1070720D1*
X2115203Y1079810D1*
X2110102Y1089820D1*
X2106630Y1100506D1*
X2104873Y1111603D1*
Y1122838D1*
X2106630Y1133935D1*
X2110102Y1144621D1*
X2115203Y1154631D1*
X2116704Y1156877D1*
X1790374Y1764406D2*
X1785984Y1769804D1*
X1780113Y1779384D1*
X1775814Y1789764D1*
X1773191Y1800689D1*
X1772309Y1811890D1*
X1773191Y1823090D1*
X1775814Y1834015D1*
X1780113Y1844395D1*
X1785984Y1853975D1*
X1793281Y1862519D1*
X1801824Y1869815D1*
X1811404Y1875686D1*
X1821784Y1879985D1*
X1832709Y1882608D1*
X1843909Y1883490D1*
X1855110Y1882608D1*
X1866035Y1879985D1*
X1876415Y1875686D1*
X1885995Y1869815D1*
X1892264Y1864621D1*
X2432752Y1435807D2*
Y1759841D1*
X2429208Y1765054D1*
X2424107Y1775064D1*
X2420636Y1785750D1*
X2418878Y1796847D1*
Y1808082D1*
X2420636Y1819179D1*
X2424107Y1829865D1*
X2429208Y1839875D1*
X2435812Y1848965D1*
X2443757Y1856910D1*
X2452846Y1863514D1*
X2462857Y1868614D1*
X2473543Y1872086D1*
X2484640Y1873844D1*
X2495875D1*
X2506972Y1872086D1*
X2517657Y1868614D1*
X2527668Y1863514D1*
X2536758Y1856910D1*
X2544702Y1848965D1*
X2551306Y1839875D1*
X2556407Y1829865D1*
X2559879Y1819179D1*
X2561636Y1808082D1*
Y1796847D1*
X2559879Y1785750D1*
X2556407Y1775064D1*
X2551306Y1765054D1*
X2547761Y1759845D1*
X2547763Y1435764D1*
X2551306Y1430551D1*
X2556407Y1420541D1*
X2559879Y1409855D1*
X2561636Y1398758D1*
Y1387523D1*
X2559879Y1376426D1*
X2556407Y1365740D1*
X2551306Y1355730D1*
X2544702Y1346640D1*
X2536758Y1338695D1*
X2527668Y1332091D1*
X2517657Y1326991D1*
X2506972Y1323519D1*
X2495875Y1321761D1*
X2484640D1*
X2473543Y1323519D1*
X2462857Y1326991D1*
X2452846Y1332091D1*
X2443757Y1338695D1*
X2435812Y1346640D1*
X2429208Y1355730D1*
X2424107Y1365740D1*
X2420636Y1376426D1*
X2418878Y1387523D1*
Y1398758D1*
X2420636Y1409855D1*
X2424107Y1420541D1*
X2429208Y1430551D1*
X2432753Y1435760D1*
X2330314Y2409819D2*
X2335523Y2413364D1*
X2345534Y2418465D1*
X2356220Y2421937D1*
X2367317Y2423694D1*
X2378552D1*
X2389649Y2421937D1*
X2400335Y2418465D1*
X2410345Y2413364D1*
X2419435Y2406760D1*
X2427379Y2398815D1*
X2433983Y2389726D1*
X2439084Y2379715D1*
X2442556Y2369030D1*
X2444314Y2357933D1*
Y2346697D1*
X2442556Y2335600D1*
X2439084Y2324915D1*
X2433983Y2314904D1*
X2431287Y2310869D1*
X905717Y1114366D2*
D19*
Y1031306D1*
X822656Y1114366D2*
X988777D1*
X910106Y661322D2*
Y578261D1*
X827046Y661322D2*
X993166D1*
X903391Y1440105D2*
Y1357045D1*
X820331Y1440105D2*
X986451D1*
X3636833Y2383834D2*
Y2300774D1*
X3553773D2*
X3719894D1*
X4004369Y3081881D2*
Y2998820D1*
X3883907Y3081881D2*
X4124831D1*
X531642Y1963510D2*
Y1882419D1*
Y1963510D2*
X612734D1*
X1299528Y632588D2*
Y470404D1*
X1218436Y551496D2*
X1380619D1*
X732398Y3035762D2*
X843962D1*
X732398Y2835762D2*
Y2724198D1*
Y2835762D2*
X843962D1*
X1127207Y3023131D2*
Y2942040D1*
X1046116Y3023131D2*
X1208299D1*
X4178602Y1016985D2*
Y854802D1*
X4097511Y935894D2*
X4259694D1*
X622656Y2403619D2*
Y2200491D1*
X521092Y2302055D2*
X724220D1*
X822667Y2411027D2*
Y2207899D1*
X2268189Y865812D2*
Y703629D1*
X2187097Y784720D2*
X2349281D1*
X3501900Y3031811D2*
X3664084D1*
X4094803Y2230184D2*
Y2068000D1*
X4013711Y2149092D2*
X4175895D1*
X532398Y2835762D2*
Y2724198D1*
X1918167Y3049749D2*
Y2887566D1*
X1837075Y2968657D2*
X1999258D1*
X2477824Y3063031D2*
X2589388D1*
X2477824Y2863031D2*
Y2751467D1*
Y2863031D2*
X2589388D1*
X2277824D2*
Y2751467D1*
X2166260Y2863031D2*
X2277824D1*
X2166260Y3063031D2*
X2277824D1*
X528988Y929865D2*
Y845801D1*
X628988Y929865D2*
Y845801D1*
Y929865D2*
X713052D1*
X628988Y1129865D2*
X713052D1*
D23*
X905717Y1114366D3*
D24*
Y1214366D3*
D23*
X910106Y661322D3*
D24*
Y761322D3*
D23*
X903391Y1440105D3*
D24*
Y1540105D3*
D23*
X3636833Y2300774D3*
D24*
Y2200774D3*
D23*
X4159467Y1590285D3*
D24*
X4059467D3*
D23*
X4181488Y1175874D3*
D24*
X4081488D3*
D27*
X4004369Y3081881D3*
D28*
X4198513Y2784404D3*
X4112459Y2816887D3*
X3819791Y2914261D3*
D27*
X3854681Y2646247D3*
D29*
X531642Y1963510D3*
D30*
Y2042251D3*
D33*
X1953916Y1811890D3*
X1281837Y1203852D3*
X1235551Y840555D3*
X1299528Y551496D3*
X2178004Y1934119D3*
X2340785Y1444001D3*
Y1223827D3*
Y1045469D3*
Y1580545D3*
D34*
X732398Y3035762D3*
Y2835762D3*
D33*
X1127207Y3023131D3*
X4178602Y935894D3*
X902264Y2938459D3*
D35*
X622656Y2513177D3*
X818963D3*
X622656Y2302055D3*
X822667Y2309463D3*
D33*
X2095402Y2970780D3*
X1266791Y1540507D3*
X2268189Y784720D3*
X3582992Y3031811D3*
Y2874331D3*
X3593093Y2694316D3*
X4094803Y2149092D3*
D34*
X532398Y2835762D3*
D33*
X1918167Y2968657D3*
D34*
X532398Y3035762D3*
X632398Y2935762D3*
X2477824Y3063031D3*
Y2863031D3*
X2277824D3*
Y3063031D3*
X2377824Y2963031D3*
D36*
X528988Y1529865D3*
Y1429865D3*
Y1329865D3*
Y1229865D3*
Y1129865D3*
Y1029865D3*
Y929865D3*
X628988D3*
Y1029865D3*
Y1129865D3*
Y1229865D3*
Y1329865D3*
Y1429865D3*
Y1529865D3*
Y1629865D3*
X528988D3*
M02*
