%TF.GenerationSoftware,KiCad,Pcbnew,9.0.7*%
%TF.CreationDate,2026-01-03T11:49:46-05:00*%
%TF.ProjectId,T41-RF-board-Attenuator-daughterboard,5434312d-5246-42d6-926f-6172642d4174,rev?*%
%TF.SameCoordinates,Original*%
%TF.FileFunction,Soldermask,Top*%
%TF.FilePolarity,Negative*%
%FSLAX46Y46*%
G04 Gerber Fmt 4.6, Leading zero omitted, Abs format (unit mm)*
G04 Created by KiCad (PCBNEW 9.0.7) date 2026-01-03 11:49:46*
%MOMM*%
%LPD*%
G01*
G04 APERTURE LIST*
G04 Aperture macros list*
%AMRoundRect*
0 Rectangle with rounded corners*
0 $1 Rounding radius*
0 $2 $3 $4 $5 $6 $7 $8 $9 X,Y pos of 4 corners*
0 Add a 4 corners polygon primitive as box body*
4,1,4,$2,$3,$4,$5,$6,$7,$8,$9,$2,$3,0*
0 Add four circle primitives for the rounded corners*
1,1,$1+$1,$2,$3*
1,1,$1+$1,$4,$5*
1,1,$1+$1,$6,$7*
1,1,$1+$1,$8,$9*
0 Add four rect primitives between the rounded corners*
20,1,$1+$1,$2,$3,$4,$5,0*
20,1,$1+$1,$4,$5,$6,$7,0*
20,1,$1+$1,$6,$7,$8,$9,0*
20,1,$1+$1,$8,$9,$2,$3,0*%
G04 Aperture macros list end*
%ADD10RoundRect,0.200000X0.275000X-0.200000X0.275000X0.200000X-0.275000X0.200000X-0.275000X-0.200000X0*%
%ADD11R,1.700000X1.700000*%
%ADD12C,1.700000*%
%ADD13RoundRect,0.200000X-0.275000X0.200000X-0.275000X-0.200000X0.275000X-0.200000X0.275000X0.200000X0*%
%ADD14RoundRect,0.062500X-0.337500X-0.062500X0.337500X-0.062500X0.337500X0.062500X-0.337500X0.062500X0*%
%ADD15RoundRect,0.062500X-0.062500X-0.337500X0.062500X-0.337500X0.062500X0.337500X-0.062500X0.337500X0*%
%ADD16R,2.200000X2.200000*%
%ADD17RoundRect,0.225000X0.250000X-0.225000X0.250000X0.225000X-0.250000X0.225000X-0.250000X-0.225000X0*%
G04 APERTURE END LIST*
D10*
%TO.C,L1*%
X87503000Y-71945000D03*
X87503000Y-70295000D03*
%TD*%
D11*
%TO.C,J1*%
X83820000Y-63500000D03*
D12*
X83820000Y-66040000D03*
X83820000Y-68580000D03*
X83820000Y-71120000D03*
X83820000Y-73660000D03*
X83820000Y-76200000D03*
%TD*%
D11*
%TO.C,J2*%
X93980000Y-63500000D03*
D12*
X93980000Y-66040000D03*
X93980000Y-68579999D03*
X93980000Y-71120000D03*
X93980000Y-73660000D03*
X93980000Y-76200000D03*
%TD*%
D13*
%TO.C,R2*%
X88265000Y-74486000D03*
X88265000Y-76136000D03*
%TD*%
D14*
%TO.C,U1*%
X86966000Y-65466000D03*
X86966000Y-65966000D03*
X86966000Y-66466000D03*
X86966000Y-66966000D03*
X86966000Y-67466000D03*
D15*
X87916000Y-68416000D03*
X88416000Y-68416000D03*
X88916000Y-68416000D03*
X89416000Y-68416000D03*
X89916000Y-68416000D03*
D14*
X90866000Y-67466000D03*
X90866000Y-66966000D03*
X90866000Y-66466000D03*
X90866000Y-65966000D03*
X90866000Y-65466000D03*
D15*
X89916000Y-64516000D03*
X89416000Y-64516000D03*
X88916000Y-64516000D03*
X88416000Y-64516000D03*
X87916000Y-64516000D03*
D16*
X88916000Y-66466000D03*
%TD*%
D17*
%TO.C,C2*%
X89027000Y-71895000D03*
X89027000Y-70345000D03*
%TD*%
%TO.C,C1*%
X90551000Y-71895000D03*
X90551000Y-70345000D03*
%TD*%
D10*
%TO.C,R1*%
X89789000Y-76136000D03*
X89789000Y-74486000D03*
%TD*%
M02*
