G04 DipTrace 3.3.1.1*
G04 BottomMask.gbr*
%MOIN*%
G04 #@! TF.FileFunction,Soldermask,Bot*
G04 #@! TF.Part,Single*
%ADD42C,0.15748*%
%ADD55C,0.073031*%
%ADD57C,0.108031*%
%ADD59C,0.128031*%
%ADD61C,0.067087*%
%ADD67C,0.067087*%
%ADD69R,0.067087X0.067087*%
%ADD71O,0.071024X0.145827*%
%ADD73O,0.145827X0.071024*%
%ADD77R,0.071024X0.071024*%
%ADD79C,0.071024*%
%FSLAX26Y26*%
G04*
G70*
G90*
G75*
G01*
G04 BotMask*
%LPD*%
D79*
X905717Y1114366D3*
D77*
Y1214366D3*
D79*
X910106Y661322D3*
D77*
Y761322D3*
D79*
X903391Y1440105D3*
D77*
Y1540105D3*
D79*
X3636833Y2300774D3*
D77*
Y2200774D3*
D79*
X4159467Y1590285D3*
D77*
X4059467D3*
D79*
X4181488Y1175874D3*
D77*
X4081488D3*
D42*
X4194016Y601102D3*
X544016Y551102D3*
D73*
X4004369Y3081881D3*
D71*
X4198513Y2784404D3*
X4112459Y2816887D3*
X3819791Y2914261D3*
D73*
X3854681Y2646247D3*
D69*
X531642Y1963510D3*
D67*
Y2042251D3*
D61*
X1953916Y1811890D3*
X1281837Y1203852D3*
X1235551Y840555D3*
X1299528Y551496D3*
X2178004Y1934119D3*
X2340785Y1444001D3*
Y1223827D3*
Y1045469D3*
Y1580545D3*
D59*
X732398Y3035762D3*
Y2835762D3*
D61*
X1127207Y3023131D3*
X4178602Y935894D3*
X902264Y2938459D3*
D57*
X622656Y2513177D3*
X818963D3*
X622656Y2302055D3*
X822667Y2309463D3*
D61*
X2095402Y2970780D3*
X1266791Y1540507D3*
X2268189Y784720D3*
X3582992Y3031811D3*
Y2874331D3*
X3593093Y2694316D3*
X4094803Y2149092D3*
D59*
X532398Y2835762D3*
D61*
X1918167Y2968657D3*
D59*
X532398Y3035762D3*
X632398Y2935762D3*
X2477824Y3063031D3*
Y2863031D3*
X2277824D3*
Y3063031D3*
X2377824Y2963031D3*
D55*
X528988Y1529865D3*
Y1429865D3*
Y1329865D3*
Y1229865D3*
Y1129865D3*
Y1029865D3*
Y929865D3*
X628988D3*
Y1029865D3*
Y1129865D3*
Y1229865D3*
Y1329865D3*
Y1429865D3*
Y1529865D3*
Y1629865D3*
X528988D3*
M02*
