G04 DipTrace 3.3.1.1*
G04 BottomDimension.gbr*
%MOIN*%
G04 #@! TF.FileFunction,Drawing,Bot*
G04 #@! TF.Part,Single*
%ADD13C,0.001378*%
%ADD58C,0.006176*%
%FSLAX26Y26*%
G04*
G70*
G90*
G75*
G01*
G04 BotDimension*
%LPD*%
X394016Y3543622D2*
D13*
Y3670482D1*
X4331024Y3543622D2*
Y3670482D1*
X2362520Y3650797D2*
X433386D1*
G36*
X394016D2*
X433386Y3658671D1*
Y3642923D1*
X394016Y3650797D1*
G37*
X2362520D2*
D13*
X4291654D1*
G36*
X4331024D2*
X4291654Y3642923D1*
Y3658671D1*
X4331024Y3650797D1*
G37*
X2409551Y3695506D2*
D58*
X2405704Y3697451D1*
X2399956Y3703155D1*
Y3663007D1*
X2376109Y3703155D2*
X2381857Y3701254D1*
X2385704Y3695506D1*
X2387605Y3685955D1*
Y3680207D1*
X2385704Y3670657D1*
X2381857Y3664909D1*
X2376109Y3663007D1*
X2372306D1*
X2366558Y3664909D1*
X2362756Y3670657D1*
X2360810Y3680207D1*
Y3685955D1*
X2362756Y3695506D1*
X2366558Y3701254D1*
X2372306Y3703155D1*
X2376109D1*
X2362756Y3695506D2*
X2385704Y3670657D1*
X2336963Y3703155D2*
X2342711Y3701254D1*
X2346557Y3695506D1*
X2348459Y3685955D1*
Y3680207D1*
X2346557Y3670657D1*
X2342711Y3664909D1*
X2336963Y3663007D1*
X2333160D1*
X2327412Y3664909D1*
X2323610Y3670657D1*
X2321664Y3680207D1*
Y3685955D1*
X2323610Y3695506D1*
X2327412Y3701254D1*
X2333160Y3703155D1*
X2336963D1*
X2323610Y3695506D2*
X2346557Y3670657D1*
M02*
