G04 DipTrace 3.3.1.1*
G04 TopDimension.gbr*
%MOIN*%
G04 #@! TF.FileFunction,Drawing,Top*
G04 #@! TF.Part,Single*
%ADD13C,0.001378*%
%ADD58C,0.006176*%
%FSLAX26Y26*%
G04*
G70*
G90*
G75*
G01*
G04 TopDimension*
%LPD*%
X394016Y3543622D2*
D13*
Y-312257D1*
Y3543622D2*
Y-312257D1*
Y-292572D2*
D3*
X334961D2*
X354646D1*
G36*
X394016D2*
X354646Y-300446D1*
Y-284698D1*
X394016Y-292572D1*
G37*
X453071D2*
D13*
X433386D1*
G36*
X394016D2*
X433386Y-284698D1*
Y-300446D1*
X394016Y-292572D1*
G37*
X460180D2*
D13*
X394016D1*
Y3543622D2*
X123209D1*
X394016Y394016D2*
X123209D1*
X142894Y1968819D2*
Y3504252D1*
G36*
Y3543622D2*
X150768Y3504252D1*
X135020D1*
X142894Y3543622D1*
G37*
Y1968819D2*
D13*
Y433386D1*
G36*
Y394016D2*
X135020Y433386D1*
X150768D1*
X142894Y394016D1*
G37*
X454145Y-240214D2*
D58*
X448397Y-242115D1*
X444551Y-247863D1*
X442649Y-257414D1*
Y-263162D1*
X444551Y-272712D1*
X448397Y-278460D1*
X454145Y-280361D1*
X457948D1*
X463696Y-278460D1*
X467499Y-272712D1*
X469444Y-263162D1*
Y-257414D1*
X467499Y-247863D1*
X463696Y-242115D1*
X457948Y-240214D1*
X454145D1*
X467499Y-247863D2*
X444551Y-272712D1*
X90535Y1948509D2*
X92436Y1942805D1*
X96239Y1940860D1*
X100086D1*
X103888Y1942805D1*
X105834Y1946608D1*
X107735Y1954257D1*
X109636Y1960005D1*
X113483Y1963808D1*
X117286Y1965709D1*
X123034D1*
X126836Y1963808D1*
X128782Y1961906D1*
X130683Y1956158D1*
Y1948509D1*
X128782Y1942805D1*
X126836Y1940860D1*
X123034Y1938958D1*
X117286D1*
X113483Y1940860D1*
X109636Y1944707D1*
X107735Y1950410D1*
X105834Y1958060D1*
X103888Y1961906D1*
X100086Y1963808D1*
X96239D1*
X92436Y1961906D1*
X90535Y1956158D1*
Y1948509D1*
Y1989556D2*
X92436Y1983808D1*
X98184Y1979962D1*
X107735Y1978060D1*
X113483D1*
X123034Y1979962D1*
X128782Y1983808D1*
X130683Y1989556D1*
Y1993359D1*
X128782Y1999107D1*
X123034Y2002910D1*
X113483Y2004855D1*
X107735D1*
X98184Y2002910D1*
X92436Y1999107D1*
X90535Y1993359D1*
Y1989556D1*
X98184Y2002910D2*
X123034Y1979962D1*
M02*
