M48
; DRILL file {KiCad 9.0.7} date 2026-01-03T11:51:17-0500
; FORMAT={-:-/ absolute / inch / decimal}
; #@! TF.CreationDate,2026-01-03T11:51:17-05:00
; #@! TF.GenerationSoftware,Kicad,Pcbnew,9.0.7
; #@! TF.FileFunction,Plated,1,4,PTH
FMAT,2
INCH
; #@! TA.AperFunction,Plated,PTH,ViaDrill
T1C0.0118
; #@! TA.AperFunction,Plated,PTH,ComponentDrill
T2C0.0394
%
G90
G05
T1
X4.495Y-3.21
X4.51Y-3.355
X4.515Y-3.675
X4.515Y-3.8
X4.525Y-3.605
X4.555Y-3.225
X4.6Y-3.075
X4.6Y-3.485
X4.6Y-3.59
X4.6Y-3.675
X4.6Y-3.8
X4.6Y-4.005
X4.6217Y-3.525
X4.6403Y-3.5504
X4.645Y-3.195
X4.6676Y-3.5739
X4.685Y-3.605
X4.69Y-3.695
X4.69Y-3.8
X4.705Y-3.195
X4.7369Y-3.5412
X4.79Y-3.8
X4.8Y-3.525
X4.81Y-3.35
X4.8594Y-3.5756
X4.86Y-3.635
X4.875Y-3.35
X4.895Y-3.075
X4.9Y-3.49
X4.9Y-3.775
X4.9Y-3.875
X4.91Y-4.0
X4.925Y-3.675
X4.95Y-3.2
X4.965Y-3.35
X4.995Y-3.445
X5.02Y-3.805
X5.05Y-3.2
X5.05Y-3.35
X5.075Y-3.445
X5.14Y-3.51
X5.15Y-3.2
X5.15Y-3.275
X5.15Y-3.35
X5.17Y-3.075
X5.17Y-3.445
X5.195Y-3.775
X5.21Y-3.84
X5.23Y-3.55
X5.25Y-3.335
X5.31Y-3.51
X5.34Y-3.28
X5.4Y-3.27
X5.4Y-3.365
X5.4Y-3.45
X5.42Y-3.88
X5.43Y-3.55
X5.435Y-3.77
X5.47Y-3.365
X5.47Y-3.45
X5.5Y-3.27
X5.54Y-3.3609
X5.56Y-3.4
X5.56Y-3.44
X5.56Y-3.48
X5.58Y-3.89
X5.58Y-3.96
X5.6Y-3.27
X5.62Y-3.14
X5.69Y-3.77
X5.745Y-3.605
X5.775Y-3.415
T2
X4.55Y-3.14
X4.55Y-3.94
X4.65Y-3.14
X4.65Y-3.94
X4.75Y-3.14
X4.75Y-3.94
X4.85Y-3.14
X4.85Y-3.94
X4.875Y-3.28
X4.95Y-3.14
X4.95Y-3.94
X4.975Y-3.28
X5.05Y-3.14
X5.05Y-3.94
X5.075Y-3.28
X5.25Y-3.14
X5.35Y-3.14
X5.45Y-3.14
X5.55Y-3.14
M30
