%TF.GenerationSoftware,KiCad,Pcbnew,9.0.7*%
%TF.CreationDate,2026-01-03T11:51:17-05:00*%
%TF.ProjectId,DualClockLO,4475616c-436c-46f6-936b-4c4f2e6b6963,rev?*%
%TF.SameCoordinates,Original*%
%TF.FileFunction,Legend,Top*%
%TF.FilePolarity,Positive*%
%FSLAX46Y46*%
G04 Gerber Fmt 4.6, Leading zero omitted, Abs format (unit mm)*
G04 Created by KiCad (PCBNEW 9.0.7) date 2026-01-03 11:51:17*
%MOMM*%
%LPD*%
G01*
G04 APERTURE LIST*
G04 Aperture macros list*
%AMRoundRect*
0 Rectangle with rounded corners*
0 $1 Rounding radius*
0 $2 $3 $4 $5 $6 $7 $8 $9 X,Y pos of 4 corners*
0 Add a 4 corners polygon primitive as box body*
4,1,4,$2,$3,$4,$5,$6,$7,$8,$9,$2,$3,0*
0 Add four circle primitives for the rounded corners*
1,1,$1+$1,$2,$3*
1,1,$1+$1,$4,$5*
1,1,$1+$1,$6,$7*
1,1,$1+$1,$8,$9*
0 Add four rect primitives between the rounded corners*
20,1,$1+$1,$2,$3,$4,$5,0*
20,1,$1+$1,$4,$5,$6,$7,0*
20,1,$1+$1,$6,$7,$8,$9,0*
20,1,$1+$1,$8,$9,$2,$3,0*%
%AMFreePoly0*
4,1,6,1.000000,0.000000,0.500000,-0.750000,-0.500000,-0.750000,-0.500000,0.750000,0.500000,0.750000,1.000000,0.000000,1.000000,0.000000,$1*%
%AMFreePoly1*
4,1,6,0.500000,-0.750000,-0.650000,-0.750000,-0.150000,0.000000,-0.650000,0.750000,0.500000,0.750000,0.500000,-0.750000,0.500000,-0.750000,$1*%
%AMFreePoly2*
4,1,23,0.500000,-0.750000,0.000000,-0.750000,0.000000,-0.745722,-0.065263,-0.745722,-0.191342,-0.711940,-0.304381,-0.646677,-0.396677,-0.554381,-0.461940,-0.441342,-0.495722,-0.315263,-0.495722,-0.250000,-0.500000,-0.250000,-0.500000,0.250000,-0.495722,0.250000,-0.495722,0.315263,-0.461940,0.441342,-0.396677,0.554381,-0.304381,0.646677,-0.191342,0.711940,-0.065263,0.745722,0.000000,0.745722,
0.000000,0.750000,0.500000,0.750000,0.500000,-0.750000,0.500000,-0.750000,$1*%
%AMFreePoly3*
4,1,23,0.000000,0.745722,0.065263,0.745722,0.191342,0.711940,0.304381,0.646677,0.396677,0.554381,0.461940,0.441342,0.495722,0.315263,0.495722,0.250000,0.500000,0.250000,0.500000,-0.250000,0.495722,-0.250000,0.495722,-0.315263,0.461940,-0.441342,0.396677,-0.554381,0.304381,-0.646677,0.191342,-0.711940,0.065263,-0.745722,0.000000,-0.745722,0.000000,-0.750000,-0.500000,-0.750000,
-0.500000,0.750000,0.000000,0.750000,0.000000,0.745722,0.000000,0.745722,$1*%
G04 Aperture macros list end*
%ADD10C,0.200000*%
%ADD11C,0.187500*%
%ADD12C,0.150000*%
%ADD13C,0.120000*%
%ADD14C,0.239605*%
%ADD15C,0.000000*%
%ADD16RoundRect,0.218750X0.218750X0.256250X-0.218750X0.256250X-0.218750X-0.256250X0.218750X-0.256250X0*%
%ADD17R,1.000000X1.000000*%
%ADD18R,0.600000X0.650000*%
%ADD19R,1.000000X0.600000*%
%ADD20FreePoly0,180.000000*%
%ADD21FreePoly1,180.000000*%
%ADD22RoundRect,0.225000X-0.225000X-0.250000X0.225000X-0.250000X0.225000X0.250000X-0.225000X0.250000X0*%
%ADD23RoundRect,0.062500X0.337500X0.062500X-0.337500X0.062500X-0.337500X-0.062500X0.337500X-0.062500X0*%
%ADD24RoundRect,0.062500X0.062500X0.337500X-0.062500X0.337500X-0.062500X-0.337500X0.062500X-0.337500X0*%
%ADD25R,2.700000X2.700000*%
%ADD26RoundRect,0.225000X0.250000X-0.225000X0.250000X0.225000X-0.250000X0.225000X-0.250000X-0.225000X0*%
%ADD27RoundRect,0.218750X0.256250X-0.218750X0.256250X0.218750X-0.256250X0.218750X-0.256250X-0.218750X0*%
%ADD28RoundRect,0.218750X-0.218750X-0.256250X0.218750X-0.256250X0.218750X0.256250X-0.218750X0.256250X0*%
%ADD29RoundRect,0.200000X-0.275000X0.200000X-0.275000X-0.200000X0.275000X-0.200000X0.275000X0.200000X0*%
%ADD30R,1.700000X1.700000*%
%ADD31C,1.700000*%
%ADD32C,2.200000*%
%ADD33RoundRect,0.200000X0.275000X-0.200000X0.275000X0.200000X-0.275000X0.200000X-0.275000X-0.200000X0*%
%ADD34RoundRect,0.250000X-3.687500X-0.750000X3.687500X-0.750000X3.687500X0.750000X-3.687500X0.750000X0*%
%ADD35RoundRect,0.218750X-0.256250X0.218750X-0.256250X-0.218750X0.256250X-0.218750X0.256250X0.218750X0*%
%ADD36RoundRect,0.225000X-0.250000X0.225000X-0.250000X-0.225000X0.250000X-0.225000X0.250000X0.225000X0*%
%ADD37FreePoly2,180.000000*%
%ADD38FreePoly3,180.000000*%
%ADD39RoundRect,0.150000X0.625000X-0.150000X0.625000X0.150000X-0.625000X0.150000X-0.625000X-0.150000X0*%
%ADD40RoundRect,0.250000X0.650000X-0.350000X0.650000X0.350000X-0.650000X0.350000X-0.650000X-0.350000X0*%
G04 APERTURE END LIST*
D10*
X118358219Y-77592517D02*
X118358219Y-78163945D01*
X118358219Y-77878231D02*
X117358219Y-77878231D01*
X117358219Y-77878231D02*
X117501076Y-77973469D01*
X117501076Y-77973469D02*
X117596314Y-78068707D01*
X117596314Y-78068707D02*
X117643933Y-78163945D01*
X141297600Y-84005945D02*
X141345219Y-83863088D01*
X141345219Y-83863088D02*
X141345219Y-83624993D01*
X141345219Y-83624993D02*
X141297600Y-83529755D01*
X141297600Y-83529755D02*
X141249980Y-83482136D01*
X141249980Y-83482136D02*
X141154742Y-83434517D01*
X141154742Y-83434517D02*
X141059504Y-83434517D01*
X141059504Y-83434517D02*
X140964266Y-83482136D01*
X140964266Y-83482136D02*
X140916647Y-83529755D01*
X140916647Y-83529755D02*
X140869028Y-83624993D01*
X140869028Y-83624993D02*
X140821409Y-83815469D01*
X140821409Y-83815469D02*
X140773790Y-83910707D01*
X140773790Y-83910707D02*
X140726171Y-83958326D01*
X140726171Y-83958326D02*
X140630933Y-84005945D01*
X140630933Y-84005945D02*
X140535695Y-84005945D01*
X140535695Y-84005945D02*
X140440457Y-83958326D01*
X140440457Y-83958326D02*
X140392838Y-83910707D01*
X140392838Y-83910707D02*
X140345219Y-83815469D01*
X140345219Y-83815469D02*
X140345219Y-83577374D01*
X140345219Y-83577374D02*
X140392838Y-83434517D01*
X141249980Y-82434517D02*
X141297600Y-82482136D01*
X141297600Y-82482136D02*
X141345219Y-82624993D01*
X141345219Y-82624993D02*
X141345219Y-82720231D01*
X141345219Y-82720231D02*
X141297600Y-82863088D01*
X141297600Y-82863088D02*
X141202361Y-82958326D01*
X141202361Y-82958326D02*
X141107123Y-83005945D01*
X141107123Y-83005945D02*
X140916647Y-83053564D01*
X140916647Y-83053564D02*
X140773790Y-83053564D01*
X140773790Y-83053564D02*
X140583314Y-83005945D01*
X140583314Y-83005945D02*
X140488076Y-82958326D01*
X140488076Y-82958326D02*
X140392838Y-82863088D01*
X140392838Y-82863088D02*
X140345219Y-82720231D01*
X140345219Y-82720231D02*
X140345219Y-82624993D01*
X140345219Y-82624993D02*
X140392838Y-82482136D01*
X140392838Y-82482136D02*
X140440457Y-82434517D01*
X141345219Y-81529755D02*
X141345219Y-82005945D01*
X141345219Y-82005945D02*
X140345219Y-82005945D01*
X120174438Y-101671717D02*
X120126819Y-101766955D01*
X120126819Y-101766955D02*
X120126819Y-101909812D01*
X120126819Y-101909812D02*
X120174438Y-102052669D01*
X120174438Y-102052669D02*
X120269676Y-102147907D01*
X120269676Y-102147907D02*
X120364914Y-102195526D01*
X120364914Y-102195526D02*
X120555390Y-102243145D01*
X120555390Y-102243145D02*
X120698247Y-102243145D01*
X120698247Y-102243145D02*
X120888723Y-102195526D01*
X120888723Y-102195526D02*
X120983961Y-102147907D01*
X120983961Y-102147907D02*
X121079200Y-102052669D01*
X121079200Y-102052669D02*
X121126819Y-101909812D01*
X121126819Y-101909812D02*
X121126819Y-101814574D01*
X121126819Y-101814574D02*
X121079200Y-101671717D01*
X121079200Y-101671717D02*
X121031580Y-101624098D01*
X121031580Y-101624098D02*
X120698247Y-101624098D01*
X120698247Y-101624098D02*
X120698247Y-101814574D01*
X134640435Y-81417219D02*
X135259482Y-81417219D01*
X135259482Y-81417219D02*
X134926149Y-81798171D01*
X134926149Y-81798171D02*
X135069006Y-81798171D01*
X135069006Y-81798171D02*
X135164244Y-81845790D01*
X135164244Y-81845790D02*
X135211863Y-81893409D01*
X135211863Y-81893409D02*
X135259482Y-81988647D01*
X135259482Y-81988647D02*
X135259482Y-82226742D01*
X135259482Y-82226742D02*
X135211863Y-82321980D01*
X135211863Y-82321980D02*
X135164244Y-82369600D01*
X135164244Y-82369600D02*
X135069006Y-82417219D01*
X135069006Y-82417219D02*
X134783292Y-82417219D01*
X134783292Y-82417219D02*
X134688054Y-82369600D01*
X134688054Y-82369600D02*
X134640435Y-82321980D01*
X135545197Y-81417219D02*
X135878530Y-82417219D01*
X135878530Y-82417219D02*
X136211863Y-81417219D01*
X136449959Y-81417219D02*
X137069006Y-81417219D01*
X137069006Y-81417219D02*
X136735673Y-81798171D01*
X136735673Y-81798171D02*
X136878530Y-81798171D01*
X136878530Y-81798171D02*
X136973768Y-81845790D01*
X136973768Y-81845790D02*
X137021387Y-81893409D01*
X137021387Y-81893409D02*
X137069006Y-81988647D01*
X137069006Y-81988647D02*
X137069006Y-82226742D01*
X137069006Y-82226742D02*
X137021387Y-82321980D01*
X137021387Y-82321980D02*
X136973768Y-82369600D01*
X136973768Y-82369600D02*
X136878530Y-82417219D01*
X136878530Y-82417219D02*
X136592816Y-82417219D01*
X136592816Y-82417219D02*
X136497578Y-82369600D01*
X136497578Y-82369600D02*
X136449959Y-82321980D01*
D11*
X123327869Y-87205073D02*
X123327869Y-87014597D01*
X123327869Y-87014597D02*
X123375488Y-86919359D01*
X123375488Y-86919359D02*
X123470726Y-86824121D01*
X123470726Y-86824121D02*
X123661202Y-86776502D01*
X123661202Y-86776502D02*
X123994535Y-86776502D01*
X123994535Y-86776502D02*
X124185011Y-86824121D01*
X124185011Y-86824121D02*
X124280250Y-86919359D01*
X124280250Y-86919359D02*
X124327869Y-87014597D01*
X124327869Y-87014597D02*
X124327869Y-87205073D01*
X124327869Y-87205073D02*
X124280250Y-87300311D01*
X124280250Y-87300311D02*
X124185011Y-87395549D01*
X124185011Y-87395549D02*
X123994535Y-87443168D01*
X123994535Y-87443168D02*
X123661202Y-87443168D01*
X123661202Y-87443168D02*
X123470726Y-87395549D01*
X123470726Y-87395549D02*
X123375488Y-87300311D01*
X123375488Y-87300311D02*
X123327869Y-87205073D01*
X123804059Y-86347930D02*
X123804059Y-86014597D01*
X124327869Y-85871740D02*
X124327869Y-86347930D01*
X124327869Y-86347930D02*
X123327869Y-86347930D01*
X123327869Y-86347930D02*
X123327869Y-85871740D01*
X123804059Y-85109835D02*
X123851678Y-84966978D01*
X123851678Y-84966978D02*
X123899297Y-84919359D01*
X123899297Y-84919359D02*
X123994535Y-84871740D01*
X123994535Y-84871740D02*
X124137392Y-84871740D01*
X124137392Y-84871740D02*
X124232630Y-84919359D01*
X124232630Y-84919359D02*
X124280250Y-84966978D01*
X124280250Y-84966978D02*
X124327869Y-85062216D01*
X124327869Y-85062216D02*
X124327869Y-85443168D01*
X124327869Y-85443168D02*
X123327869Y-85443168D01*
X123327869Y-85443168D02*
X123327869Y-85109835D01*
X123327869Y-85109835D02*
X123375488Y-85014597D01*
X123375488Y-85014597D02*
X123423107Y-84966978D01*
X123423107Y-84966978D02*
X123518345Y-84919359D01*
X123518345Y-84919359D02*
X123613583Y-84919359D01*
X123613583Y-84919359D02*
X123708821Y-84966978D01*
X123708821Y-84966978D02*
X123756440Y-85014597D01*
X123756440Y-85014597D02*
X123804059Y-85109835D01*
X123804059Y-85109835D02*
X123804059Y-85443168D01*
D10*
X125105219Y-78211564D02*
X125105219Y-77592517D01*
X125105219Y-77592517D02*
X125486171Y-77925850D01*
X125486171Y-77925850D02*
X125486171Y-77782993D01*
X125486171Y-77782993D02*
X125533790Y-77687755D01*
X125533790Y-77687755D02*
X125581409Y-77640136D01*
X125581409Y-77640136D02*
X125676647Y-77592517D01*
X125676647Y-77592517D02*
X125914742Y-77592517D01*
X125914742Y-77592517D02*
X126009980Y-77640136D01*
X126009980Y-77640136D02*
X126057600Y-77687755D01*
X126057600Y-77687755D02*
X126105219Y-77782993D01*
X126105219Y-77782993D02*
X126105219Y-78068707D01*
X126105219Y-78068707D02*
X126057600Y-78163945D01*
X126057600Y-78163945D02*
X126009980Y-78211564D01*
D11*
X128455488Y-86998740D02*
X128407869Y-87093978D01*
X128407869Y-87093978D02*
X128407869Y-87236835D01*
X128407869Y-87236835D02*
X128455488Y-87379692D01*
X128455488Y-87379692D02*
X128550726Y-87474930D01*
X128550726Y-87474930D02*
X128645964Y-87522549D01*
X128645964Y-87522549D02*
X128836440Y-87570168D01*
X128836440Y-87570168D02*
X128979297Y-87570168D01*
X128979297Y-87570168D02*
X129169773Y-87522549D01*
X129169773Y-87522549D02*
X129265011Y-87474930D01*
X129265011Y-87474930D02*
X129360250Y-87379692D01*
X129360250Y-87379692D02*
X129407869Y-87236835D01*
X129407869Y-87236835D02*
X129407869Y-87141597D01*
X129407869Y-87141597D02*
X129360250Y-86998740D01*
X129360250Y-86998740D02*
X129312630Y-86951121D01*
X129312630Y-86951121D02*
X128979297Y-86951121D01*
X128979297Y-86951121D02*
X128979297Y-87141597D01*
X129407869Y-86522549D02*
X128407869Y-86522549D01*
X128407869Y-86522549D02*
X129407869Y-85951121D01*
X129407869Y-85951121D02*
X128407869Y-85951121D01*
X129407869Y-85474930D02*
X128407869Y-85474930D01*
X128407869Y-85474930D02*
X128407869Y-85236835D01*
X128407869Y-85236835D02*
X128455488Y-85093978D01*
X128455488Y-85093978D02*
X128550726Y-84998740D01*
X128550726Y-84998740D02*
X128645964Y-84951121D01*
X128645964Y-84951121D02*
X128836440Y-84903502D01*
X128836440Y-84903502D02*
X128979297Y-84903502D01*
X128979297Y-84903502D02*
X129169773Y-84951121D01*
X129169773Y-84951121D02*
X129265011Y-84998740D01*
X129265011Y-84998740D02*
X129360250Y-85093978D01*
X129360250Y-85093978D02*
X129407869Y-85236835D01*
X129407869Y-85236835D02*
X129407869Y-85474930D01*
D10*
X125460819Y-102290764D02*
X125460819Y-101624098D01*
X125460819Y-101624098D02*
X126460819Y-102052669D01*
X117586819Y-101719336D02*
X117586819Y-102195526D01*
X117586819Y-102195526D02*
X118063009Y-102243145D01*
X118063009Y-102243145D02*
X118015390Y-102195526D01*
X118015390Y-102195526D02*
X117967771Y-102100288D01*
X117967771Y-102100288D02*
X117967771Y-101862193D01*
X117967771Y-101862193D02*
X118015390Y-101766955D01*
X118015390Y-101766955D02*
X118063009Y-101719336D01*
X118063009Y-101719336D02*
X118158247Y-101671717D01*
X118158247Y-101671717D02*
X118396342Y-101671717D01*
X118396342Y-101671717D02*
X118491580Y-101719336D01*
X118491580Y-101719336D02*
X118539200Y-101766955D01*
X118539200Y-101766955D02*
X118586819Y-101862193D01*
X118586819Y-101862193D02*
X118586819Y-102100288D01*
X118586819Y-102100288D02*
X118539200Y-102195526D01*
X118539200Y-102195526D02*
X118491580Y-102243145D01*
X114945219Y-77925850D02*
X114945219Y-77830612D01*
X114945219Y-77830612D02*
X114992838Y-77735374D01*
X114992838Y-77735374D02*
X115040457Y-77687755D01*
X115040457Y-77687755D02*
X115135695Y-77640136D01*
X115135695Y-77640136D02*
X115326171Y-77592517D01*
X115326171Y-77592517D02*
X115564266Y-77592517D01*
X115564266Y-77592517D02*
X115754742Y-77640136D01*
X115754742Y-77640136D02*
X115849980Y-77687755D01*
X115849980Y-77687755D02*
X115897600Y-77735374D01*
X115897600Y-77735374D02*
X115945219Y-77830612D01*
X115945219Y-77830612D02*
X115945219Y-77925850D01*
X115945219Y-77925850D02*
X115897600Y-78021088D01*
X115897600Y-78021088D02*
X115849980Y-78068707D01*
X115849980Y-78068707D02*
X115754742Y-78116326D01*
X115754742Y-78116326D02*
X115564266Y-78163945D01*
X115564266Y-78163945D02*
X115326171Y-78163945D01*
X115326171Y-78163945D02*
X115135695Y-78116326D01*
X115135695Y-78116326D02*
X115040457Y-78068707D01*
X115040457Y-78068707D02*
X114992838Y-78021088D01*
X114992838Y-78021088D02*
X114945219Y-77925850D01*
X114114054Y-94770712D02*
X114256911Y-94818331D01*
X114256911Y-94818331D02*
X114495006Y-94818331D01*
X114495006Y-94818331D02*
X114590244Y-94770712D01*
X114590244Y-94770712D02*
X114637863Y-94723092D01*
X114637863Y-94723092D02*
X114685482Y-94627854D01*
X114685482Y-94627854D02*
X114685482Y-94532616D01*
X114685482Y-94532616D02*
X114637863Y-94437378D01*
X114637863Y-94437378D02*
X114590244Y-94389759D01*
X114590244Y-94389759D02*
X114495006Y-94342140D01*
X114495006Y-94342140D02*
X114304530Y-94294521D01*
X114304530Y-94294521D02*
X114209292Y-94246902D01*
X114209292Y-94246902D02*
X114161673Y-94199283D01*
X114161673Y-94199283D02*
X114114054Y-94104045D01*
X114114054Y-94104045D02*
X114114054Y-94008807D01*
X114114054Y-94008807D02*
X114161673Y-93913569D01*
X114161673Y-93913569D02*
X114209292Y-93865950D01*
X114209292Y-93865950D02*
X114304530Y-93818331D01*
X114304530Y-93818331D02*
X114542625Y-93818331D01*
X114542625Y-93818331D02*
X114685482Y-93865950D01*
X115114054Y-94818331D02*
X115114054Y-94151664D01*
X115114054Y-93818331D02*
X115066435Y-93865950D01*
X115066435Y-93865950D02*
X115114054Y-93913569D01*
X115114054Y-93913569D02*
X115161673Y-93865950D01*
X115161673Y-93865950D02*
X115114054Y-93818331D01*
X115114054Y-93818331D02*
X115114054Y-93913569D01*
X116066434Y-93818331D02*
X115590244Y-93818331D01*
X115590244Y-93818331D02*
X115542625Y-94294521D01*
X115542625Y-94294521D02*
X115590244Y-94246902D01*
X115590244Y-94246902D02*
X115685482Y-94199283D01*
X115685482Y-94199283D02*
X115923577Y-94199283D01*
X115923577Y-94199283D02*
X116018815Y-94246902D01*
X116018815Y-94246902D02*
X116066434Y-94294521D01*
X116066434Y-94294521D02*
X116114053Y-94389759D01*
X116114053Y-94389759D02*
X116114053Y-94627854D01*
X116114053Y-94627854D02*
X116066434Y-94723092D01*
X116066434Y-94723092D02*
X116018815Y-94770712D01*
X116018815Y-94770712D02*
X115923577Y-94818331D01*
X115923577Y-94818331D02*
X115685482Y-94818331D01*
X115685482Y-94818331D02*
X115590244Y-94770712D01*
X115590244Y-94770712D02*
X115542625Y-94723092D01*
X116447387Y-93818331D02*
X117066434Y-93818331D01*
X117066434Y-93818331D02*
X116733101Y-94199283D01*
X116733101Y-94199283D02*
X116875958Y-94199283D01*
X116875958Y-94199283D02*
X116971196Y-94246902D01*
X116971196Y-94246902D02*
X117018815Y-94294521D01*
X117018815Y-94294521D02*
X117066434Y-94389759D01*
X117066434Y-94389759D02*
X117066434Y-94627854D01*
X117066434Y-94627854D02*
X117018815Y-94723092D01*
X117018815Y-94723092D02*
X116971196Y-94770712D01*
X116971196Y-94770712D02*
X116875958Y-94818331D01*
X116875958Y-94818331D02*
X116590244Y-94818331D01*
X116590244Y-94818331D02*
X116495006Y-94770712D01*
X116495006Y-94770712D02*
X116447387Y-94723092D01*
X117971196Y-93818331D02*
X117495006Y-93818331D01*
X117495006Y-93818331D02*
X117447387Y-94294521D01*
X117447387Y-94294521D02*
X117495006Y-94246902D01*
X117495006Y-94246902D02*
X117590244Y-94199283D01*
X117590244Y-94199283D02*
X117828339Y-94199283D01*
X117828339Y-94199283D02*
X117923577Y-94246902D01*
X117923577Y-94246902D02*
X117971196Y-94294521D01*
X117971196Y-94294521D02*
X118018815Y-94389759D01*
X118018815Y-94389759D02*
X118018815Y-94627854D01*
X118018815Y-94627854D02*
X117971196Y-94723092D01*
X117971196Y-94723092D02*
X117923577Y-94770712D01*
X117923577Y-94770712D02*
X117828339Y-94818331D01*
X117828339Y-94818331D02*
X117590244Y-94818331D01*
X117590244Y-94818331D02*
X117495006Y-94770712D01*
X117495006Y-94770712D02*
X117447387Y-94723092D01*
X118971196Y-94818331D02*
X118399768Y-94818331D01*
X118685482Y-94818331D02*
X118685482Y-93818331D01*
X118685482Y-93818331D02*
X118590244Y-93961188D01*
X118590244Y-93961188D02*
X118495006Y-94056426D01*
X118495006Y-94056426D02*
X118399768Y-94104045D01*
X119352149Y-94532616D02*
X119828339Y-94532616D01*
X119256911Y-94818331D02*
X119590244Y-93818331D01*
X119590244Y-93818331D02*
X119923577Y-94818331D01*
X120256911Y-94437378D02*
X121018816Y-94437378D01*
X121828339Y-94294521D02*
X121971196Y-94342140D01*
X121971196Y-94342140D02*
X122018815Y-94389759D01*
X122018815Y-94389759D02*
X122066434Y-94484997D01*
X122066434Y-94484997D02*
X122066434Y-94627854D01*
X122066434Y-94627854D02*
X122018815Y-94723092D01*
X122018815Y-94723092D02*
X121971196Y-94770712D01*
X121971196Y-94770712D02*
X121875958Y-94818331D01*
X121875958Y-94818331D02*
X121495006Y-94818331D01*
X121495006Y-94818331D02*
X121495006Y-93818331D01*
X121495006Y-93818331D02*
X121828339Y-93818331D01*
X121828339Y-93818331D02*
X121923577Y-93865950D01*
X121923577Y-93865950D02*
X121971196Y-93913569D01*
X121971196Y-93913569D02*
X122018815Y-94008807D01*
X122018815Y-94008807D02*
X122018815Y-94104045D01*
X122018815Y-94104045D02*
X121971196Y-94199283D01*
X121971196Y-94199283D02*
X121923577Y-94246902D01*
X121923577Y-94246902D02*
X121828339Y-94294521D01*
X121828339Y-94294521D02*
X121495006Y-94294521D01*
X122495006Y-94437378D02*
X123256911Y-94437378D01*
X124256910Y-93865950D02*
X124161672Y-93818331D01*
X124161672Y-93818331D02*
X124018815Y-93818331D01*
X124018815Y-93818331D02*
X123875958Y-93865950D01*
X123875958Y-93865950D02*
X123780720Y-93961188D01*
X123780720Y-93961188D02*
X123733101Y-94056426D01*
X123733101Y-94056426D02*
X123685482Y-94246902D01*
X123685482Y-94246902D02*
X123685482Y-94389759D01*
X123685482Y-94389759D02*
X123733101Y-94580235D01*
X123733101Y-94580235D02*
X123780720Y-94675473D01*
X123780720Y-94675473D02*
X123875958Y-94770712D01*
X123875958Y-94770712D02*
X124018815Y-94818331D01*
X124018815Y-94818331D02*
X124114053Y-94818331D01*
X124114053Y-94818331D02*
X124256910Y-94770712D01*
X124256910Y-94770712D02*
X124304529Y-94723092D01*
X124304529Y-94723092D02*
X124304529Y-94389759D01*
X124304529Y-94389759D02*
X124114053Y-94389759D01*
X124733101Y-94818331D02*
X124733101Y-93818331D01*
X124733101Y-93818331D02*
X125066434Y-94532616D01*
X125066434Y-94532616D02*
X125399767Y-93818331D01*
X125399767Y-93818331D02*
X125399767Y-94818331D01*
X114495006Y-95904465D02*
X114637863Y-95952084D01*
X114637863Y-95952084D02*
X114685482Y-95999703D01*
X114685482Y-95999703D02*
X114733101Y-96094941D01*
X114733101Y-96094941D02*
X114733101Y-96237798D01*
X114733101Y-96237798D02*
X114685482Y-96333036D01*
X114685482Y-96333036D02*
X114637863Y-96380656D01*
X114637863Y-96380656D02*
X114542625Y-96428275D01*
X114542625Y-96428275D02*
X114161673Y-96428275D01*
X114161673Y-96428275D02*
X114161673Y-95428275D01*
X114161673Y-95428275D02*
X114495006Y-95428275D01*
X114495006Y-95428275D02*
X114590244Y-95475894D01*
X114590244Y-95475894D02*
X114637863Y-95523513D01*
X114637863Y-95523513D02*
X114685482Y-95618751D01*
X114685482Y-95618751D02*
X114685482Y-95713989D01*
X114685482Y-95713989D02*
X114637863Y-95809227D01*
X114637863Y-95809227D02*
X114590244Y-95856846D01*
X114590244Y-95856846D02*
X114495006Y-95904465D01*
X114495006Y-95904465D02*
X114161673Y-95904465D01*
X115161673Y-96428275D02*
X115161673Y-95761608D01*
X115161673Y-95952084D02*
X115209292Y-95856846D01*
X115209292Y-95856846D02*
X115256911Y-95809227D01*
X115256911Y-95809227D02*
X115352149Y-95761608D01*
X115352149Y-95761608D02*
X115447387Y-95761608D01*
X116161673Y-96380656D02*
X116066435Y-96428275D01*
X116066435Y-96428275D02*
X115875959Y-96428275D01*
X115875959Y-96428275D02*
X115780721Y-96380656D01*
X115780721Y-96380656D02*
X115733102Y-96285417D01*
X115733102Y-96285417D02*
X115733102Y-95904465D01*
X115733102Y-95904465D02*
X115780721Y-95809227D01*
X115780721Y-95809227D02*
X115875959Y-95761608D01*
X115875959Y-95761608D02*
X116066435Y-95761608D01*
X116066435Y-95761608D02*
X116161673Y-95809227D01*
X116161673Y-95809227D02*
X116209292Y-95904465D01*
X116209292Y-95904465D02*
X116209292Y-95999703D01*
X116209292Y-95999703D02*
X115733102Y-96094941D01*
X117066435Y-96428275D02*
X117066435Y-95904465D01*
X117066435Y-95904465D02*
X117018816Y-95809227D01*
X117018816Y-95809227D02*
X116923578Y-95761608D01*
X116923578Y-95761608D02*
X116733102Y-95761608D01*
X116733102Y-95761608D02*
X116637864Y-95809227D01*
X117066435Y-96380656D02*
X116971197Y-96428275D01*
X116971197Y-96428275D02*
X116733102Y-96428275D01*
X116733102Y-96428275D02*
X116637864Y-96380656D01*
X116637864Y-96380656D02*
X116590245Y-96285417D01*
X116590245Y-96285417D02*
X116590245Y-96190179D01*
X116590245Y-96190179D02*
X116637864Y-96094941D01*
X116637864Y-96094941D02*
X116733102Y-96047322D01*
X116733102Y-96047322D02*
X116971197Y-96047322D01*
X116971197Y-96047322D02*
X117066435Y-95999703D01*
X117542626Y-96428275D02*
X117542626Y-95428275D01*
X117637864Y-96047322D02*
X117923578Y-96428275D01*
X117923578Y-95761608D02*
X117542626Y-96142560D01*
X118495007Y-96428275D02*
X118399769Y-96380656D01*
X118399769Y-96380656D02*
X118352150Y-96333036D01*
X118352150Y-96333036D02*
X118304531Y-96237798D01*
X118304531Y-96237798D02*
X118304531Y-95952084D01*
X118304531Y-95952084D02*
X118352150Y-95856846D01*
X118352150Y-95856846D02*
X118399769Y-95809227D01*
X118399769Y-95809227D02*
X118495007Y-95761608D01*
X118495007Y-95761608D02*
X118637864Y-95761608D01*
X118637864Y-95761608D02*
X118733102Y-95809227D01*
X118733102Y-95809227D02*
X118780721Y-95856846D01*
X118780721Y-95856846D02*
X118828340Y-95952084D01*
X118828340Y-95952084D02*
X118828340Y-96237798D01*
X118828340Y-96237798D02*
X118780721Y-96333036D01*
X118780721Y-96333036D02*
X118733102Y-96380656D01*
X118733102Y-96380656D02*
X118637864Y-96428275D01*
X118637864Y-96428275D02*
X118495007Y-96428275D01*
X119685483Y-95761608D02*
X119685483Y-96428275D01*
X119256912Y-95761608D02*
X119256912Y-96285417D01*
X119256912Y-96285417D02*
X119304531Y-96380656D01*
X119304531Y-96380656D02*
X119399769Y-96428275D01*
X119399769Y-96428275D02*
X119542626Y-96428275D01*
X119542626Y-96428275D02*
X119637864Y-96380656D01*
X119637864Y-96380656D02*
X119685483Y-96333036D01*
X120018817Y-95761608D02*
X120399769Y-95761608D01*
X120161674Y-95428275D02*
X120161674Y-96285417D01*
X120161674Y-96285417D02*
X120209293Y-96380656D01*
X120209293Y-96380656D02*
X120304531Y-96428275D01*
X120304531Y-96428275D02*
X120399769Y-96428275D01*
X121828341Y-95904465D02*
X121971198Y-95952084D01*
X121971198Y-95952084D02*
X122018817Y-95999703D01*
X122018817Y-95999703D02*
X122066436Y-96094941D01*
X122066436Y-96094941D02*
X122066436Y-96237798D01*
X122066436Y-96237798D02*
X122018817Y-96333036D01*
X122018817Y-96333036D02*
X121971198Y-96380656D01*
X121971198Y-96380656D02*
X121875960Y-96428275D01*
X121875960Y-96428275D02*
X121495008Y-96428275D01*
X121495008Y-96428275D02*
X121495008Y-95428275D01*
X121495008Y-95428275D02*
X121828341Y-95428275D01*
X121828341Y-95428275D02*
X121923579Y-95475894D01*
X121923579Y-95475894D02*
X121971198Y-95523513D01*
X121971198Y-95523513D02*
X122018817Y-95618751D01*
X122018817Y-95618751D02*
X122018817Y-95713989D01*
X122018817Y-95713989D02*
X121971198Y-95809227D01*
X121971198Y-95809227D02*
X121923579Y-95856846D01*
X121923579Y-95856846D02*
X121828341Y-95904465D01*
X121828341Y-95904465D02*
X121495008Y-95904465D01*
X122637865Y-96428275D02*
X122542627Y-96380656D01*
X122542627Y-96380656D02*
X122495008Y-96333036D01*
X122495008Y-96333036D02*
X122447389Y-96237798D01*
X122447389Y-96237798D02*
X122447389Y-95952084D01*
X122447389Y-95952084D02*
X122495008Y-95856846D01*
X122495008Y-95856846D02*
X122542627Y-95809227D01*
X122542627Y-95809227D02*
X122637865Y-95761608D01*
X122637865Y-95761608D02*
X122780722Y-95761608D01*
X122780722Y-95761608D02*
X122875960Y-95809227D01*
X122875960Y-95809227D02*
X122923579Y-95856846D01*
X122923579Y-95856846D02*
X122971198Y-95952084D01*
X122971198Y-95952084D02*
X122971198Y-96237798D01*
X122971198Y-96237798D02*
X122923579Y-96333036D01*
X122923579Y-96333036D02*
X122875960Y-96380656D01*
X122875960Y-96380656D02*
X122780722Y-96428275D01*
X122780722Y-96428275D02*
X122637865Y-96428275D01*
X123828341Y-96428275D02*
X123828341Y-95904465D01*
X123828341Y-95904465D02*
X123780722Y-95809227D01*
X123780722Y-95809227D02*
X123685484Y-95761608D01*
X123685484Y-95761608D02*
X123495008Y-95761608D01*
X123495008Y-95761608D02*
X123399770Y-95809227D01*
X123828341Y-96380656D02*
X123733103Y-96428275D01*
X123733103Y-96428275D02*
X123495008Y-96428275D01*
X123495008Y-96428275D02*
X123399770Y-96380656D01*
X123399770Y-96380656D02*
X123352151Y-96285417D01*
X123352151Y-96285417D02*
X123352151Y-96190179D01*
X123352151Y-96190179D02*
X123399770Y-96094941D01*
X123399770Y-96094941D02*
X123495008Y-96047322D01*
X123495008Y-96047322D02*
X123733103Y-96047322D01*
X123733103Y-96047322D02*
X123828341Y-95999703D01*
X124304532Y-96428275D02*
X124304532Y-95761608D01*
X124304532Y-95952084D02*
X124352151Y-95856846D01*
X124352151Y-95856846D02*
X124399770Y-95809227D01*
X124399770Y-95809227D02*
X124495008Y-95761608D01*
X124495008Y-95761608D02*
X124590246Y-95761608D01*
X125352151Y-96428275D02*
X125352151Y-95428275D01*
X125352151Y-96380656D02*
X125256913Y-96428275D01*
X125256913Y-96428275D02*
X125066437Y-96428275D01*
X125066437Y-96428275D02*
X124971199Y-96380656D01*
X124971199Y-96380656D02*
X124923580Y-96333036D01*
X124923580Y-96333036D02*
X124875961Y-96237798D01*
X124875961Y-96237798D02*
X124875961Y-95952084D01*
X124875961Y-95952084D02*
X124923580Y-95856846D01*
X124923580Y-95856846D02*
X124971199Y-95809227D01*
X124971199Y-95809227D02*
X125066437Y-95761608D01*
X125066437Y-95761608D02*
X125256913Y-95761608D01*
X125256913Y-95761608D02*
X125352151Y-95809227D01*
X114161673Y-98038219D02*
X114161673Y-97038219D01*
X114733101Y-98038219D02*
X114304530Y-97466790D01*
X114733101Y-97038219D02*
X114161673Y-97609647D01*
X115161673Y-98038219D02*
X115161673Y-97038219D01*
X115542625Y-97038219D02*
X116161672Y-97038219D01*
X116161672Y-97038219D02*
X115828339Y-97419171D01*
X115828339Y-97419171D02*
X115971196Y-97419171D01*
X115971196Y-97419171D02*
X116066434Y-97466790D01*
X116066434Y-97466790D02*
X116114053Y-97514409D01*
X116114053Y-97514409D02*
X116161672Y-97609647D01*
X116161672Y-97609647D02*
X116161672Y-97847742D01*
X116161672Y-97847742D02*
X116114053Y-97942980D01*
X116114053Y-97942980D02*
X116066434Y-97990600D01*
X116066434Y-97990600D02*
X115971196Y-98038219D01*
X115971196Y-98038219D02*
X115685482Y-98038219D01*
X115685482Y-98038219D02*
X115590244Y-97990600D01*
X115590244Y-97990600D02*
X115542625Y-97942980D01*
X116590244Y-98038219D02*
X116590244Y-97038219D01*
X116590244Y-97038219D02*
X116971196Y-97038219D01*
X116971196Y-97038219D02*
X117066434Y-97085838D01*
X117066434Y-97085838D02*
X117114053Y-97133457D01*
X117114053Y-97133457D02*
X117161672Y-97228695D01*
X117161672Y-97228695D02*
X117161672Y-97371552D01*
X117161672Y-97371552D02*
X117114053Y-97466790D01*
X117114053Y-97466790D02*
X117066434Y-97514409D01*
X117066434Y-97514409D02*
X116971196Y-97562028D01*
X116971196Y-97562028D02*
X116590244Y-97562028D01*
X118923577Y-98038219D02*
X118590244Y-97562028D01*
X118352149Y-98038219D02*
X118352149Y-97038219D01*
X118352149Y-97038219D02*
X118733101Y-97038219D01*
X118733101Y-97038219D02*
X118828339Y-97085838D01*
X118828339Y-97085838D02*
X118875958Y-97133457D01*
X118875958Y-97133457D02*
X118923577Y-97228695D01*
X118923577Y-97228695D02*
X118923577Y-97371552D01*
X118923577Y-97371552D02*
X118875958Y-97466790D01*
X118875958Y-97466790D02*
X118828339Y-97514409D01*
X118828339Y-97514409D02*
X118733101Y-97562028D01*
X118733101Y-97562028D02*
X118352149Y-97562028D01*
X119733101Y-97990600D02*
X119637863Y-98038219D01*
X119637863Y-98038219D02*
X119447387Y-98038219D01*
X119447387Y-98038219D02*
X119352149Y-97990600D01*
X119352149Y-97990600D02*
X119304530Y-97895361D01*
X119304530Y-97895361D02*
X119304530Y-97514409D01*
X119304530Y-97514409D02*
X119352149Y-97419171D01*
X119352149Y-97419171D02*
X119447387Y-97371552D01*
X119447387Y-97371552D02*
X119637863Y-97371552D01*
X119637863Y-97371552D02*
X119733101Y-97419171D01*
X119733101Y-97419171D02*
X119780720Y-97514409D01*
X119780720Y-97514409D02*
X119780720Y-97609647D01*
X119780720Y-97609647D02*
X119304530Y-97704885D01*
X120114054Y-97371552D02*
X120352149Y-98038219D01*
X120352149Y-98038219D02*
X120590244Y-97371552D01*
X121685483Y-97133457D02*
X121733102Y-97085838D01*
X121733102Y-97085838D02*
X121828340Y-97038219D01*
X121828340Y-97038219D02*
X122066435Y-97038219D01*
X122066435Y-97038219D02*
X122161673Y-97085838D01*
X122161673Y-97085838D02*
X122209292Y-97133457D01*
X122209292Y-97133457D02*
X122256911Y-97228695D01*
X122256911Y-97228695D02*
X122256911Y-97323933D01*
X122256911Y-97323933D02*
X122209292Y-97466790D01*
X122209292Y-97466790D02*
X121637864Y-98038219D01*
X121637864Y-98038219D02*
X122256911Y-98038219D01*
X123399769Y-97133457D02*
X123447388Y-97085838D01*
X123447388Y-97085838D02*
X123542626Y-97038219D01*
X123542626Y-97038219D02*
X123780721Y-97038219D01*
X123780721Y-97038219D02*
X123875959Y-97085838D01*
X123875959Y-97085838D02*
X123923578Y-97133457D01*
X123923578Y-97133457D02*
X123971197Y-97228695D01*
X123971197Y-97228695D02*
X123971197Y-97323933D01*
X123971197Y-97323933D02*
X123923578Y-97466790D01*
X123923578Y-97466790D02*
X123352150Y-98038219D01*
X123352150Y-98038219D02*
X123971197Y-98038219D01*
X124304531Y-97038219D02*
X124971197Y-97038219D01*
X124971197Y-97038219D02*
X124542626Y-98038219D01*
X125352150Y-98038219D02*
X125352150Y-97038219D01*
X125352150Y-97038219D02*
X125590245Y-97038219D01*
X125590245Y-97038219D02*
X125733102Y-97085838D01*
X125733102Y-97085838D02*
X125828340Y-97181076D01*
X125828340Y-97181076D02*
X125875959Y-97276314D01*
X125875959Y-97276314D02*
X125923578Y-97466790D01*
X125923578Y-97466790D02*
X125923578Y-97609647D01*
X125923578Y-97609647D02*
X125875959Y-97800123D01*
X125875959Y-97800123D02*
X125828340Y-97895361D01*
X125828340Y-97895361D02*
X125733102Y-97990600D01*
X125733102Y-97990600D02*
X125590245Y-98038219D01*
X125590245Y-98038219D02*
X125352150Y-98038219D01*
X126733102Y-97990600D02*
X126637864Y-98038219D01*
X126637864Y-98038219D02*
X126447388Y-98038219D01*
X126447388Y-98038219D02*
X126352150Y-97990600D01*
X126352150Y-97990600D02*
X126304531Y-97895361D01*
X126304531Y-97895361D02*
X126304531Y-97514409D01*
X126304531Y-97514409D02*
X126352150Y-97419171D01*
X126352150Y-97419171D02*
X126447388Y-97371552D01*
X126447388Y-97371552D02*
X126637864Y-97371552D01*
X126637864Y-97371552D02*
X126733102Y-97419171D01*
X126733102Y-97419171D02*
X126780721Y-97514409D01*
X126780721Y-97514409D02*
X126780721Y-97609647D01*
X126780721Y-97609647D02*
X126304531Y-97704885D01*
X127637864Y-97990600D02*
X127542626Y-98038219D01*
X127542626Y-98038219D02*
X127352150Y-98038219D01*
X127352150Y-98038219D02*
X127256912Y-97990600D01*
X127256912Y-97990600D02*
X127209293Y-97942980D01*
X127209293Y-97942980D02*
X127161674Y-97847742D01*
X127161674Y-97847742D02*
X127161674Y-97562028D01*
X127161674Y-97562028D02*
X127209293Y-97466790D01*
X127209293Y-97466790D02*
X127256912Y-97419171D01*
X127256912Y-97419171D02*
X127352150Y-97371552D01*
X127352150Y-97371552D02*
X127542626Y-97371552D01*
X127542626Y-97371552D02*
X127637864Y-97419171D01*
X128018817Y-97133457D02*
X128066436Y-97085838D01*
X128066436Y-97085838D02*
X128161674Y-97038219D01*
X128161674Y-97038219D02*
X128399769Y-97038219D01*
X128399769Y-97038219D02*
X128495007Y-97085838D01*
X128495007Y-97085838D02*
X128542626Y-97133457D01*
X128542626Y-97133457D02*
X128590245Y-97228695D01*
X128590245Y-97228695D02*
X128590245Y-97323933D01*
X128590245Y-97323933D02*
X128542626Y-97466790D01*
X128542626Y-97466790D02*
X127971198Y-98038219D01*
X127971198Y-98038219D02*
X128590245Y-98038219D01*
X129495007Y-97038219D02*
X129018817Y-97038219D01*
X129018817Y-97038219D02*
X128971198Y-97514409D01*
X128971198Y-97514409D02*
X129018817Y-97466790D01*
X129018817Y-97466790D02*
X129114055Y-97419171D01*
X129114055Y-97419171D02*
X129352150Y-97419171D01*
X129352150Y-97419171D02*
X129447388Y-97466790D01*
X129447388Y-97466790D02*
X129495007Y-97514409D01*
X129495007Y-97514409D02*
X129542626Y-97609647D01*
X129542626Y-97609647D02*
X129542626Y-97847742D01*
X129542626Y-97847742D02*
X129495007Y-97942980D01*
X129495007Y-97942980D02*
X129447388Y-97990600D01*
X129447388Y-97990600D02*
X129352150Y-98038219D01*
X129352150Y-98038219D02*
X129114055Y-98038219D01*
X129114055Y-98038219D02*
X129018817Y-97990600D01*
X129018817Y-97990600D02*
X128971198Y-97942980D01*
X122660457Y-78163945D02*
X122612838Y-78116326D01*
X122612838Y-78116326D02*
X122565219Y-78021088D01*
X122565219Y-78021088D02*
X122565219Y-77782993D01*
X122565219Y-77782993D02*
X122612838Y-77687755D01*
X122612838Y-77687755D02*
X122660457Y-77640136D01*
X122660457Y-77640136D02*
X122755695Y-77592517D01*
X122755695Y-77592517D02*
X122850933Y-77592517D01*
X122850933Y-77592517D02*
X122993790Y-77640136D01*
X122993790Y-77640136D02*
X123565219Y-78211564D01*
X123565219Y-78211564D02*
X123565219Y-77592517D01*
X122920819Y-101766955D02*
X122920819Y-101957431D01*
X122920819Y-101957431D02*
X122968438Y-102052669D01*
X122968438Y-102052669D02*
X123016057Y-102100288D01*
X123016057Y-102100288D02*
X123158914Y-102195526D01*
X123158914Y-102195526D02*
X123349390Y-102243145D01*
X123349390Y-102243145D02*
X123730342Y-102243145D01*
X123730342Y-102243145D02*
X123825580Y-102195526D01*
X123825580Y-102195526D02*
X123873200Y-102147907D01*
X123873200Y-102147907D02*
X123920819Y-102052669D01*
X123920819Y-102052669D02*
X123920819Y-101862193D01*
X123920819Y-101862193D02*
X123873200Y-101766955D01*
X123873200Y-101766955D02*
X123825580Y-101719336D01*
X123825580Y-101719336D02*
X123730342Y-101671717D01*
X123730342Y-101671717D02*
X123492247Y-101671717D01*
X123492247Y-101671717D02*
X123397009Y-101719336D01*
X123397009Y-101719336D02*
X123349390Y-101766955D01*
X123349390Y-101766955D02*
X123301771Y-101862193D01*
X123301771Y-101862193D02*
X123301771Y-102052669D01*
X123301771Y-102052669D02*
X123349390Y-102147907D01*
X123349390Y-102147907D02*
X123397009Y-102195526D01*
X123397009Y-102195526D02*
X123492247Y-102243145D01*
D11*
X126820250Y-87443168D02*
X126867869Y-87300311D01*
X126867869Y-87300311D02*
X126867869Y-87062216D01*
X126867869Y-87062216D02*
X126820250Y-86966978D01*
X126820250Y-86966978D02*
X126772630Y-86919359D01*
X126772630Y-86919359D02*
X126677392Y-86871740D01*
X126677392Y-86871740D02*
X126582154Y-86871740D01*
X126582154Y-86871740D02*
X126486916Y-86919359D01*
X126486916Y-86919359D02*
X126439297Y-86966978D01*
X126439297Y-86966978D02*
X126391678Y-87062216D01*
X126391678Y-87062216D02*
X126344059Y-87252692D01*
X126344059Y-87252692D02*
X126296440Y-87347930D01*
X126296440Y-87347930D02*
X126248821Y-87395549D01*
X126248821Y-87395549D02*
X126153583Y-87443168D01*
X126153583Y-87443168D02*
X126058345Y-87443168D01*
X126058345Y-87443168D02*
X125963107Y-87395549D01*
X125963107Y-87395549D02*
X125915488Y-87347930D01*
X125915488Y-87347930D02*
X125867869Y-87252692D01*
X125867869Y-87252692D02*
X125867869Y-87014597D01*
X125867869Y-87014597D02*
X125915488Y-86871740D01*
X126820250Y-86490787D02*
X126867869Y-86347930D01*
X126867869Y-86347930D02*
X126867869Y-86109835D01*
X126867869Y-86109835D02*
X126820250Y-86014597D01*
X126820250Y-86014597D02*
X126772630Y-85966978D01*
X126772630Y-85966978D02*
X126677392Y-85919359D01*
X126677392Y-85919359D02*
X126582154Y-85919359D01*
X126582154Y-85919359D02*
X126486916Y-85966978D01*
X126486916Y-85966978D02*
X126439297Y-86014597D01*
X126439297Y-86014597D02*
X126391678Y-86109835D01*
X126391678Y-86109835D02*
X126344059Y-86300311D01*
X126344059Y-86300311D02*
X126296440Y-86395549D01*
X126296440Y-86395549D02*
X126248821Y-86443168D01*
X126248821Y-86443168D02*
X126153583Y-86490787D01*
X126153583Y-86490787D02*
X126058345Y-86490787D01*
X126058345Y-86490787D02*
X125963107Y-86443168D01*
X125963107Y-86443168D02*
X125915488Y-86395549D01*
X125915488Y-86395549D02*
X125867869Y-86300311D01*
X125867869Y-86300311D02*
X125867869Y-86062216D01*
X125867869Y-86062216D02*
X125915488Y-85919359D01*
X126344059Y-85490787D02*
X126344059Y-85157454D01*
X126867869Y-85014597D02*
X126867869Y-85490787D01*
X126867869Y-85490787D02*
X125867869Y-85490787D01*
X125867869Y-85490787D02*
X125867869Y-85014597D01*
D10*
X120333517Y-77585836D02*
X120285898Y-77681074D01*
X120285898Y-77681074D02*
X120285898Y-77823931D01*
X120285898Y-77823931D02*
X120333517Y-77966788D01*
X120333517Y-77966788D02*
X120428755Y-78062026D01*
X120428755Y-78062026D02*
X120523993Y-78109645D01*
X120523993Y-78109645D02*
X120714469Y-78157264D01*
X120714469Y-78157264D02*
X120857326Y-78157264D01*
X120857326Y-78157264D02*
X121047802Y-78109645D01*
X121047802Y-78109645D02*
X121143040Y-78062026D01*
X121143040Y-78062026D02*
X121238279Y-77966788D01*
X121238279Y-77966788D02*
X121285898Y-77823931D01*
X121285898Y-77823931D02*
X121285898Y-77728693D01*
X121285898Y-77728693D02*
X121238279Y-77585836D01*
X121238279Y-77585836D02*
X121190659Y-77538217D01*
X121190659Y-77538217D02*
X120857326Y-77538217D01*
X120857326Y-77538217D02*
X120857326Y-77728693D01*
X128048438Y-101671717D02*
X128000819Y-101766955D01*
X128000819Y-101766955D02*
X128000819Y-101909812D01*
X128000819Y-101909812D02*
X128048438Y-102052669D01*
X128048438Y-102052669D02*
X128143676Y-102147907D01*
X128143676Y-102147907D02*
X128238914Y-102195526D01*
X128238914Y-102195526D02*
X128429390Y-102243145D01*
X128429390Y-102243145D02*
X128572247Y-102243145D01*
X128572247Y-102243145D02*
X128762723Y-102195526D01*
X128762723Y-102195526D02*
X128857961Y-102147907D01*
X128857961Y-102147907D02*
X128953200Y-102052669D01*
X128953200Y-102052669D02*
X129000819Y-101909812D01*
X129000819Y-101909812D02*
X129000819Y-101814574D01*
X129000819Y-101814574D02*
X128953200Y-101671717D01*
X128953200Y-101671717D02*
X128905580Y-101624098D01*
X128905580Y-101624098D02*
X128572247Y-101624098D01*
X128572247Y-101624098D02*
X128572247Y-101814574D01*
X127692838Y-77592517D02*
X127645219Y-77687755D01*
X127645219Y-77687755D02*
X127645219Y-77830612D01*
X127645219Y-77830612D02*
X127692838Y-77973469D01*
X127692838Y-77973469D02*
X127788076Y-78068707D01*
X127788076Y-78068707D02*
X127883314Y-78116326D01*
X127883314Y-78116326D02*
X128073790Y-78163945D01*
X128073790Y-78163945D02*
X128216647Y-78163945D01*
X128216647Y-78163945D02*
X128407123Y-78116326D01*
X128407123Y-78116326D02*
X128502361Y-78068707D01*
X128502361Y-78068707D02*
X128597600Y-77973469D01*
X128597600Y-77973469D02*
X128645219Y-77830612D01*
X128645219Y-77830612D02*
X128645219Y-77735374D01*
X128645219Y-77735374D02*
X128597600Y-77592517D01*
X128597600Y-77592517D02*
X128549980Y-77544898D01*
X128549980Y-77544898D02*
X128216647Y-77544898D01*
X128216647Y-77544898D02*
X128216647Y-77735374D01*
X115380152Y-101766955D02*
X116046819Y-101766955D01*
X114999200Y-102005050D02*
X115713485Y-102243145D01*
X115713485Y-102243145D02*
X115713485Y-101624098D01*
X132772838Y-83434517D02*
X132725219Y-83529755D01*
X132725219Y-83529755D02*
X132725219Y-83672612D01*
X132725219Y-83672612D02*
X132772838Y-83815469D01*
X132772838Y-83815469D02*
X132868076Y-83910707D01*
X132868076Y-83910707D02*
X132963314Y-83958326D01*
X132963314Y-83958326D02*
X133153790Y-84005945D01*
X133153790Y-84005945D02*
X133296647Y-84005945D01*
X133296647Y-84005945D02*
X133487123Y-83958326D01*
X133487123Y-83958326D02*
X133582361Y-83910707D01*
X133582361Y-83910707D02*
X133677600Y-83815469D01*
X133677600Y-83815469D02*
X133725219Y-83672612D01*
X133725219Y-83672612D02*
X133725219Y-83577374D01*
X133725219Y-83577374D02*
X133677600Y-83434517D01*
X133677600Y-83434517D02*
X133629980Y-83386898D01*
X133629980Y-83386898D02*
X133296647Y-83386898D01*
X133296647Y-83386898D02*
X133296647Y-83577374D01*
X133725219Y-82958326D02*
X132725219Y-82958326D01*
X132725219Y-82958326D02*
X133725219Y-82386898D01*
X133725219Y-82386898D02*
X132725219Y-82386898D01*
X133725219Y-81910707D02*
X132725219Y-81910707D01*
X132725219Y-81910707D02*
X132725219Y-81672612D01*
X132725219Y-81672612D02*
X132772838Y-81529755D01*
X132772838Y-81529755D02*
X132868076Y-81434517D01*
X132868076Y-81434517D02*
X132963314Y-81386898D01*
X132963314Y-81386898D02*
X133153790Y-81339279D01*
X133153790Y-81339279D02*
X133296647Y-81339279D01*
X133296647Y-81339279D02*
X133487123Y-81386898D01*
X133487123Y-81386898D02*
X133582361Y-81434517D01*
X133582361Y-81434517D02*
X133677600Y-81529755D01*
X133677600Y-81529755D02*
X133725219Y-81672612D01*
X133725219Y-81672612D02*
X133725219Y-81910707D01*
X138757600Y-84005945D02*
X138805219Y-83863088D01*
X138805219Y-83863088D02*
X138805219Y-83624993D01*
X138805219Y-83624993D02*
X138757600Y-83529755D01*
X138757600Y-83529755D02*
X138709980Y-83482136D01*
X138709980Y-83482136D02*
X138614742Y-83434517D01*
X138614742Y-83434517D02*
X138519504Y-83434517D01*
X138519504Y-83434517D02*
X138424266Y-83482136D01*
X138424266Y-83482136D02*
X138376647Y-83529755D01*
X138376647Y-83529755D02*
X138329028Y-83624993D01*
X138329028Y-83624993D02*
X138281409Y-83815469D01*
X138281409Y-83815469D02*
X138233790Y-83910707D01*
X138233790Y-83910707D02*
X138186171Y-83958326D01*
X138186171Y-83958326D02*
X138090933Y-84005945D01*
X138090933Y-84005945D02*
X137995695Y-84005945D01*
X137995695Y-84005945D02*
X137900457Y-83958326D01*
X137900457Y-83958326D02*
X137852838Y-83910707D01*
X137852838Y-83910707D02*
X137805219Y-83815469D01*
X137805219Y-83815469D02*
X137805219Y-83577374D01*
X137805219Y-83577374D02*
X137852838Y-83434517D01*
X138805219Y-83005945D02*
X137805219Y-83005945D01*
X137805219Y-83005945D02*
X137805219Y-82767850D01*
X137805219Y-82767850D02*
X137852838Y-82624993D01*
X137852838Y-82624993D02*
X137948076Y-82529755D01*
X137948076Y-82529755D02*
X138043314Y-82482136D01*
X138043314Y-82482136D02*
X138233790Y-82434517D01*
X138233790Y-82434517D02*
X138376647Y-82434517D01*
X138376647Y-82434517D02*
X138567123Y-82482136D01*
X138567123Y-82482136D02*
X138662361Y-82529755D01*
X138662361Y-82529755D02*
X138757600Y-82624993D01*
X138757600Y-82624993D02*
X138805219Y-82767850D01*
X138805219Y-82767850D02*
X138805219Y-83005945D01*
X138519504Y-82053564D02*
X138519504Y-81577374D01*
X138805219Y-82148802D02*
X137805219Y-81815469D01*
X137805219Y-81815469D02*
X138805219Y-81482136D01*
D12*
X119213333Y-92783819D02*
X118737143Y-92783819D01*
X118737143Y-92783819D02*
X118737143Y-91783819D01*
X119499048Y-91879057D02*
X119546667Y-91831438D01*
X119546667Y-91831438D02*
X119641905Y-91783819D01*
X119641905Y-91783819D02*
X119880000Y-91783819D01*
X119880000Y-91783819D02*
X119975238Y-91831438D01*
X119975238Y-91831438D02*
X120022857Y-91879057D01*
X120022857Y-91879057D02*
X120070476Y-91974295D01*
X120070476Y-91974295D02*
X120070476Y-92069533D01*
X120070476Y-92069533D02*
X120022857Y-92212390D01*
X120022857Y-92212390D02*
X119451429Y-92783819D01*
X119451429Y-92783819D02*
X120070476Y-92783819D01*
X130534628Y-98647190D02*
X131010819Y-98647190D01*
X130010819Y-98980523D02*
X130534628Y-98647190D01*
X130534628Y-98647190D02*
X130010819Y-98313857D01*
X131010819Y-97456714D02*
X131010819Y-98028142D01*
X131010819Y-97742428D02*
X130010819Y-97742428D01*
X130010819Y-97742428D02*
X130153676Y-97837666D01*
X130153676Y-97837666D02*
X130248914Y-97932904D01*
X130248914Y-97932904D02*
X130296533Y-98028142D01*
X123279819Y-89987333D02*
X123994104Y-89987333D01*
X123994104Y-89987333D02*
X124136961Y-90034952D01*
X124136961Y-90034952D02*
X124232200Y-90130190D01*
X124232200Y-90130190D02*
X124279819Y-90273047D01*
X124279819Y-90273047D02*
X124279819Y-90368285D01*
X124279819Y-89511142D02*
X123279819Y-89511142D01*
X123279819Y-89511142D02*
X123279819Y-89130190D01*
X123279819Y-89130190D02*
X123327438Y-89034952D01*
X123327438Y-89034952D02*
X123375057Y-88987333D01*
X123375057Y-88987333D02*
X123470295Y-88939714D01*
X123470295Y-88939714D02*
X123613152Y-88939714D01*
X123613152Y-88939714D02*
X123708390Y-88987333D01*
X123708390Y-88987333D02*
X123756009Y-89034952D01*
X123756009Y-89034952D02*
X123803628Y-89130190D01*
X123803628Y-89130190D02*
X123803628Y-89511142D01*
X123375057Y-88558761D02*
X123327438Y-88511142D01*
X123327438Y-88511142D02*
X123279819Y-88415904D01*
X123279819Y-88415904D02*
X123279819Y-88177809D01*
X123279819Y-88177809D02*
X123327438Y-88082571D01*
X123327438Y-88082571D02*
X123375057Y-88034952D01*
X123375057Y-88034952D02*
X123470295Y-87987333D01*
X123470295Y-87987333D02*
X123565533Y-87987333D01*
X123565533Y-87987333D02*
X123708390Y-88034952D01*
X123708390Y-88034952D02*
X124279819Y-88606380D01*
X124279819Y-88606380D02*
X124279819Y-87987333D01*
X124293333Y-91545580D02*
X124245714Y-91593200D01*
X124245714Y-91593200D02*
X124102857Y-91640819D01*
X124102857Y-91640819D02*
X124007619Y-91640819D01*
X124007619Y-91640819D02*
X123864762Y-91593200D01*
X123864762Y-91593200D02*
X123769524Y-91497961D01*
X123769524Y-91497961D02*
X123721905Y-91402723D01*
X123721905Y-91402723D02*
X123674286Y-91212247D01*
X123674286Y-91212247D02*
X123674286Y-91069390D01*
X123674286Y-91069390D02*
X123721905Y-90878914D01*
X123721905Y-90878914D02*
X123769524Y-90783676D01*
X123769524Y-90783676D02*
X123864762Y-90688438D01*
X123864762Y-90688438D02*
X124007619Y-90640819D01*
X124007619Y-90640819D02*
X124102857Y-90640819D01*
X124102857Y-90640819D02*
X124245714Y-90688438D01*
X124245714Y-90688438D02*
X124293333Y-90736057D01*
X125150476Y-90974152D02*
X125150476Y-91640819D01*
X124912381Y-90593200D02*
X124674286Y-91307485D01*
X124674286Y-91307485D02*
X125293333Y-91307485D01*
X117506809Y-90783628D02*
X117506809Y-91259819D01*
X117173476Y-90259819D02*
X117506809Y-90783628D01*
X117506809Y-90783628D02*
X117840142Y-90259819D01*
X118078238Y-90259819D02*
X118697285Y-90259819D01*
X118697285Y-90259819D02*
X118363952Y-90640771D01*
X118363952Y-90640771D02*
X118506809Y-90640771D01*
X118506809Y-90640771D02*
X118602047Y-90688390D01*
X118602047Y-90688390D02*
X118649666Y-90736009D01*
X118649666Y-90736009D02*
X118697285Y-90831247D01*
X118697285Y-90831247D02*
X118697285Y-91069342D01*
X118697285Y-91069342D02*
X118649666Y-91164580D01*
X118649666Y-91164580D02*
X118602047Y-91212200D01*
X118602047Y-91212200D02*
X118506809Y-91259819D01*
X118506809Y-91259819D02*
X118221095Y-91259819D01*
X118221095Y-91259819D02*
X118125857Y-91212200D01*
X118125857Y-91212200D02*
X118078238Y-91164580D01*
X116437580Y-86780666D02*
X116485200Y-86828285D01*
X116485200Y-86828285D02*
X116532819Y-86971142D01*
X116532819Y-86971142D02*
X116532819Y-87066380D01*
X116532819Y-87066380D02*
X116485200Y-87209237D01*
X116485200Y-87209237D02*
X116389961Y-87304475D01*
X116389961Y-87304475D02*
X116294723Y-87352094D01*
X116294723Y-87352094D02*
X116104247Y-87399713D01*
X116104247Y-87399713D02*
X115961390Y-87399713D01*
X115961390Y-87399713D02*
X115770914Y-87352094D01*
X115770914Y-87352094D02*
X115675676Y-87304475D01*
X115675676Y-87304475D02*
X115580438Y-87209237D01*
X115580438Y-87209237D02*
X115532819Y-87066380D01*
X115532819Y-87066380D02*
X115532819Y-86971142D01*
X115532819Y-86971142D02*
X115580438Y-86828285D01*
X115580438Y-86828285D02*
X115628057Y-86780666D01*
X115532819Y-85875904D02*
X115532819Y-86352094D01*
X115532819Y-86352094D02*
X116009009Y-86399713D01*
X116009009Y-86399713D02*
X115961390Y-86352094D01*
X115961390Y-86352094D02*
X115913771Y-86256856D01*
X115913771Y-86256856D02*
X115913771Y-86018761D01*
X115913771Y-86018761D02*
X115961390Y-85923523D01*
X115961390Y-85923523D02*
X116009009Y-85875904D01*
X116009009Y-85875904D02*
X116104247Y-85828285D01*
X116104247Y-85828285D02*
X116342342Y-85828285D01*
X116342342Y-85828285D02*
X116437580Y-85875904D01*
X116437580Y-85875904D02*
X116485200Y-85923523D01*
X116485200Y-85923523D02*
X116532819Y-86018761D01*
X116532819Y-86018761D02*
X116532819Y-86256856D01*
X116532819Y-86256856D02*
X116485200Y-86352094D01*
X116485200Y-86352094D02*
X116437580Y-86399713D01*
X116659819Y-89803166D02*
X116659819Y-90279356D01*
X116659819Y-90279356D02*
X115659819Y-90279356D01*
X115993152Y-89041261D02*
X116659819Y-89041261D01*
X115612200Y-89279356D02*
X116326485Y-89517451D01*
X116326485Y-89517451D02*
X116326485Y-88898404D01*
X142454333Y-99260819D02*
X141978143Y-99260819D01*
X141978143Y-99260819D02*
X141978143Y-98260819D01*
X143311476Y-99260819D02*
X142740048Y-99260819D01*
X143025762Y-99260819D02*
X143025762Y-98260819D01*
X143025762Y-98260819D02*
X142930524Y-98403676D01*
X142930524Y-98403676D02*
X142835286Y-98498914D01*
X142835286Y-98498914D02*
X142740048Y-98546533D01*
X142606834Y-100943580D02*
X142559215Y-100991200D01*
X142559215Y-100991200D02*
X142416358Y-101038819D01*
X142416358Y-101038819D02*
X142321120Y-101038819D01*
X142321120Y-101038819D02*
X142178263Y-100991200D01*
X142178263Y-100991200D02*
X142083025Y-100895961D01*
X142083025Y-100895961D02*
X142035406Y-100800723D01*
X142035406Y-100800723D02*
X141987787Y-100610247D01*
X141987787Y-100610247D02*
X141987787Y-100467390D01*
X141987787Y-100467390D02*
X142035406Y-100276914D01*
X142035406Y-100276914D02*
X142083025Y-100181676D01*
X142083025Y-100181676D02*
X142178263Y-100086438D01*
X142178263Y-100086438D02*
X142321120Y-100038819D01*
X142321120Y-100038819D02*
X142416358Y-100038819D01*
X142416358Y-100038819D02*
X142559215Y-100086438D01*
X142559215Y-100086438D02*
X142606834Y-100134057D01*
X143559215Y-101038819D02*
X142987787Y-101038819D01*
X143273501Y-101038819D02*
X143273501Y-100038819D01*
X143273501Y-100038819D02*
X143178263Y-100181676D01*
X143178263Y-100181676D02*
X143083025Y-100276914D01*
X143083025Y-100276914D02*
X142987787Y-100324533D01*
X136852819Y-84748666D02*
X136376628Y-85081999D01*
X136852819Y-85320094D02*
X135852819Y-85320094D01*
X135852819Y-85320094D02*
X135852819Y-84939142D01*
X135852819Y-84939142D02*
X135900438Y-84843904D01*
X135900438Y-84843904D02*
X135948057Y-84796285D01*
X135948057Y-84796285D02*
X136043295Y-84748666D01*
X136043295Y-84748666D02*
X136186152Y-84748666D01*
X136186152Y-84748666D02*
X136281390Y-84796285D01*
X136281390Y-84796285D02*
X136329009Y-84843904D01*
X136329009Y-84843904D02*
X136376628Y-84939142D01*
X136376628Y-84939142D02*
X136376628Y-85320094D01*
X136852819Y-83796285D02*
X136852819Y-84367713D01*
X136852819Y-84081999D02*
X135852819Y-84081999D01*
X135852819Y-84081999D02*
X135995676Y-84177237D01*
X135995676Y-84177237D02*
X136090914Y-84272475D01*
X136090914Y-84272475D02*
X136138533Y-84367713D01*
X130010819Y-80089333D02*
X130725104Y-80089333D01*
X130725104Y-80089333D02*
X130867961Y-80136952D01*
X130867961Y-80136952D02*
X130963200Y-80232190D01*
X130963200Y-80232190D02*
X131010819Y-80375047D01*
X131010819Y-80375047D02*
X131010819Y-80470285D01*
X130010819Y-79708380D02*
X130010819Y-79089333D01*
X130010819Y-79089333D02*
X130391771Y-79422666D01*
X130391771Y-79422666D02*
X130391771Y-79279809D01*
X130391771Y-79279809D02*
X130439390Y-79184571D01*
X130439390Y-79184571D02*
X130487009Y-79136952D01*
X130487009Y-79136952D02*
X130582247Y-79089333D01*
X130582247Y-79089333D02*
X130820342Y-79089333D01*
X130820342Y-79089333D02*
X130915580Y-79136952D01*
X130915580Y-79136952D02*
X130963200Y-79184571D01*
X130963200Y-79184571D02*
X131010819Y-79279809D01*
X131010819Y-79279809D02*
X131010819Y-79565523D01*
X131010819Y-79565523D02*
X130963200Y-79660761D01*
X130963200Y-79660761D02*
X130915580Y-79708380D01*
X129883819Y-101679333D02*
X130598104Y-101679333D01*
X130598104Y-101679333D02*
X130740961Y-101726952D01*
X130740961Y-101726952D02*
X130836200Y-101822190D01*
X130836200Y-101822190D02*
X130883819Y-101965047D01*
X130883819Y-101965047D02*
X130883819Y-102060285D01*
X130217152Y-100774571D02*
X130883819Y-100774571D01*
X129836200Y-101012666D02*
X130550485Y-101250761D01*
X130550485Y-101250761D02*
X130550485Y-100631714D01*
X134058818Y-87542666D02*
X133582627Y-87875999D01*
X134058818Y-88114094D02*
X133058818Y-88114094D01*
X133058818Y-88114094D02*
X133058818Y-87733142D01*
X133058818Y-87733142D02*
X133106437Y-87637904D01*
X133106437Y-87637904D02*
X133154056Y-87590285D01*
X133154056Y-87590285D02*
X133249294Y-87542666D01*
X133249294Y-87542666D02*
X133392151Y-87542666D01*
X133392151Y-87542666D02*
X133487389Y-87590285D01*
X133487389Y-87590285D02*
X133535008Y-87637904D01*
X133535008Y-87637904D02*
X133582627Y-87733142D01*
X133582627Y-87733142D02*
X133582627Y-88114094D01*
X133154056Y-87161713D02*
X133106437Y-87114094D01*
X133106437Y-87114094D02*
X133058818Y-87018856D01*
X133058818Y-87018856D02*
X133058818Y-86780761D01*
X133058818Y-86780761D02*
X133106437Y-86685523D01*
X133106437Y-86685523D02*
X133154056Y-86637904D01*
X133154056Y-86637904D02*
X133249294Y-86590285D01*
X133249294Y-86590285D02*
X133344532Y-86590285D01*
X133344532Y-86590285D02*
X133487389Y-86637904D01*
X133487389Y-86637904D02*
X134058818Y-87209332D01*
X134058818Y-87209332D02*
X134058818Y-86590285D01*
X145319809Y-96498628D02*
X145319809Y-96974819D01*
X144986476Y-95974819D02*
X145319809Y-96498628D01*
X145319809Y-96498628D02*
X145653142Y-95974819D01*
X145938857Y-96070057D02*
X145986476Y-96022438D01*
X145986476Y-96022438D02*
X146081714Y-95974819D01*
X146081714Y-95974819D02*
X146319809Y-95974819D01*
X146319809Y-95974819D02*
X146415047Y-96022438D01*
X146415047Y-96022438D02*
X146462666Y-96070057D01*
X146462666Y-96070057D02*
X146510285Y-96165295D01*
X146510285Y-96165295D02*
X146510285Y-96260533D01*
X146510285Y-96260533D02*
X146462666Y-96403390D01*
X146462666Y-96403390D02*
X145891238Y-96974819D01*
X145891238Y-96974819D02*
X146510285Y-96974819D01*
X116278819Y-83224666D02*
X116278819Y-83700856D01*
X116278819Y-83700856D02*
X115278819Y-83700856D01*
X115278819Y-82986570D02*
X115278819Y-82367523D01*
X115278819Y-82367523D02*
X115659771Y-82700856D01*
X115659771Y-82700856D02*
X115659771Y-82557999D01*
X115659771Y-82557999D02*
X115707390Y-82462761D01*
X115707390Y-82462761D02*
X115755009Y-82415142D01*
X115755009Y-82415142D02*
X115850247Y-82367523D01*
X115850247Y-82367523D02*
X116088342Y-82367523D01*
X116088342Y-82367523D02*
X116183580Y-82415142D01*
X116183580Y-82415142D02*
X116231200Y-82462761D01*
X116231200Y-82462761D02*
X116278819Y-82557999D01*
X116278819Y-82557999D02*
X116278819Y-82843713D01*
X116278819Y-82843713D02*
X116231200Y-82938951D01*
X116231200Y-82938951D02*
X116183580Y-82986570D01*
X121120819Y-83899333D02*
X121835104Y-83899333D01*
X121835104Y-83899333D02*
X121977961Y-83946952D01*
X121977961Y-83946952D02*
X122073200Y-84042190D01*
X122073200Y-84042190D02*
X122120819Y-84185047D01*
X122120819Y-84185047D02*
X122120819Y-84280285D01*
X121120819Y-82946952D02*
X121120819Y-83423142D01*
X121120819Y-83423142D02*
X121597009Y-83470761D01*
X121597009Y-83470761D02*
X121549390Y-83423142D01*
X121549390Y-83423142D02*
X121501771Y-83327904D01*
X121501771Y-83327904D02*
X121501771Y-83089809D01*
X121501771Y-83089809D02*
X121549390Y-82994571D01*
X121549390Y-82994571D02*
X121597009Y-82946952D01*
X121597009Y-82946952D02*
X121692247Y-82899333D01*
X121692247Y-82899333D02*
X121930342Y-82899333D01*
X121930342Y-82899333D02*
X122025580Y-82946952D01*
X122025580Y-82946952D02*
X122073200Y-82994571D01*
X122073200Y-82994571D02*
X122120819Y-83089809D01*
X122120819Y-83089809D02*
X122120819Y-83327904D01*
X122120819Y-83327904D02*
X122073200Y-83423142D01*
X122073200Y-83423142D02*
X122025580Y-83470761D01*
X127359580Y-91606666D02*
X127407200Y-91654285D01*
X127407200Y-91654285D02*
X127454819Y-91797142D01*
X127454819Y-91797142D02*
X127454819Y-91892380D01*
X127454819Y-91892380D02*
X127407200Y-92035237D01*
X127407200Y-92035237D02*
X127311961Y-92130475D01*
X127311961Y-92130475D02*
X127216723Y-92178094D01*
X127216723Y-92178094D02*
X127026247Y-92225713D01*
X127026247Y-92225713D02*
X126883390Y-92225713D01*
X126883390Y-92225713D02*
X126692914Y-92178094D01*
X126692914Y-92178094D02*
X126597676Y-92130475D01*
X126597676Y-92130475D02*
X126502438Y-92035237D01*
X126502438Y-92035237D02*
X126454819Y-91892380D01*
X126454819Y-91892380D02*
X126454819Y-91797142D01*
X126454819Y-91797142D02*
X126502438Y-91654285D01*
X126502438Y-91654285D02*
X126550057Y-91606666D01*
X126550057Y-91225713D02*
X126502438Y-91178094D01*
X126502438Y-91178094D02*
X126454819Y-91082856D01*
X126454819Y-91082856D02*
X126454819Y-90844761D01*
X126454819Y-90844761D02*
X126502438Y-90749523D01*
X126502438Y-90749523D02*
X126550057Y-90701904D01*
X126550057Y-90701904D02*
X126645295Y-90654285D01*
X126645295Y-90654285D02*
X126740533Y-90654285D01*
X126740533Y-90654285D02*
X126883390Y-90701904D01*
X126883390Y-90701904D02*
X127454819Y-91273332D01*
X127454819Y-91273332D02*
X127454819Y-90654285D01*
X130899819Y-89860333D02*
X131614104Y-89860333D01*
X131614104Y-89860333D02*
X131756961Y-89907952D01*
X131756961Y-89907952D02*
X131852200Y-90003190D01*
X131852200Y-90003190D02*
X131899819Y-90146047D01*
X131899819Y-90146047D02*
X131899819Y-90241285D01*
X131899819Y-89384142D02*
X130899819Y-89384142D01*
X130899819Y-89384142D02*
X130899819Y-89003190D01*
X130899819Y-89003190D02*
X130947438Y-88907952D01*
X130947438Y-88907952D02*
X130995057Y-88860333D01*
X130995057Y-88860333D02*
X131090295Y-88812714D01*
X131090295Y-88812714D02*
X131233152Y-88812714D01*
X131233152Y-88812714D02*
X131328390Y-88860333D01*
X131328390Y-88860333D02*
X131376009Y-88907952D01*
X131376009Y-88907952D02*
X131423628Y-89003190D01*
X131423628Y-89003190D02*
X131423628Y-89384142D01*
X131899819Y-87860333D02*
X131899819Y-88431761D01*
X131899819Y-88146047D02*
X130899819Y-88146047D01*
X130899819Y-88146047D02*
X131042676Y-88241285D01*
X131042676Y-88241285D02*
X131137914Y-88336523D01*
X131137914Y-88336523D02*
X131185533Y-88431761D01*
X142922666Y-82258819D02*
X142922666Y-82973104D01*
X142922666Y-82973104D02*
X142875047Y-83115961D01*
X142875047Y-83115961D02*
X142779809Y-83211200D01*
X142779809Y-83211200D02*
X142636952Y-83258819D01*
X142636952Y-83258819D02*
X142541714Y-83258819D01*
X143922666Y-83258819D02*
X143351238Y-83258819D01*
X143636952Y-83258819D02*
X143636952Y-82258819D01*
X143636952Y-82258819D02*
X143541714Y-82401676D01*
X143541714Y-82401676D02*
X143446476Y-82496914D01*
X143446476Y-82496914D02*
X143351238Y-82544533D01*
X120374580Y-83224666D02*
X120422200Y-83272285D01*
X120422200Y-83272285D02*
X120469819Y-83415142D01*
X120469819Y-83415142D02*
X120469819Y-83510380D01*
X120469819Y-83510380D02*
X120422200Y-83653237D01*
X120422200Y-83653237D02*
X120326961Y-83748475D01*
X120326961Y-83748475D02*
X120231723Y-83796094D01*
X120231723Y-83796094D02*
X120041247Y-83843713D01*
X120041247Y-83843713D02*
X119898390Y-83843713D01*
X119898390Y-83843713D02*
X119707914Y-83796094D01*
X119707914Y-83796094D02*
X119612676Y-83748475D01*
X119612676Y-83748475D02*
X119517438Y-83653237D01*
X119517438Y-83653237D02*
X119469819Y-83510380D01*
X119469819Y-83510380D02*
X119469819Y-83415142D01*
X119469819Y-83415142D02*
X119517438Y-83272285D01*
X119517438Y-83272285D02*
X119565057Y-83224666D01*
X119469819Y-82891332D02*
X119469819Y-82272285D01*
X119469819Y-82272285D02*
X119850771Y-82605618D01*
X119850771Y-82605618D02*
X119850771Y-82462761D01*
X119850771Y-82462761D02*
X119898390Y-82367523D01*
X119898390Y-82367523D02*
X119946009Y-82319904D01*
X119946009Y-82319904D02*
X120041247Y-82272285D01*
X120041247Y-82272285D02*
X120279342Y-82272285D01*
X120279342Y-82272285D02*
X120374580Y-82319904D01*
X120374580Y-82319904D02*
X120422200Y-82367523D01*
X120422200Y-82367523D02*
X120469819Y-82462761D01*
X120469819Y-82462761D02*
X120469819Y-82748475D01*
X120469819Y-82748475D02*
X120422200Y-82843713D01*
X120422200Y-82843713D02*
X120374580Y-82891332D01*
X142710819Y-80089333D02*
X143425104Y-80089333D01*
X143425104Y-80089333D02*
X143567961Y-80136952D01*
X143567961Y-80136952D02*
X143663200Y-80232190D01*
X143663200Y-80232190D02*
X143710819Y-80375047D01*
X143710819Y-80375047D02*
X143710819Y-80470285D01*
X142806057Y-79660761D02*
X142758438Y-79613142D01*
X142758438Y-79613142D02*
X142710819Y-79517904D01*
X142710819Y-79517904D02*
X142710819Y-79279809D01*
X142710819Y-79279809D02*
X142758438Y-79184571D01*
X142758438Y-79184571D02*
X142806057Y-79136952D01*
X142806057Y-79136952D02*
X142901295Y-79089333D01*
X142901295Y-79089333D02*
X142996533Y-79089333D01*
X142996533Y-79089333D02*
X143139390Y-79136952D01*
X143139390Y-79136952D02*
X143710819Y-79708380D01*
X143710819Y-79708380D02*
X143710819Y-79089333D01*
D13*
%TO.C,L2*%
X121955780Y-91946000D02*
X121630220Y-91946000D01*
X121955780Y-92966000D02*
X121630220Y-92966000D01*
%TO.C,Y1*%
X131354000Y-97663000D02*
X131354000Y-101981000D01*
X131354000Y-101981000D02*
X137450000Y-101981000D01*
X137450000Y-97663000D02*
X131354000Y-97663000D01*
X137450000Y-101981000D02*
X137450000Y-97663000D01*
D14*
X138021802Y-97322000D02*
G75*
G02*
X137782198Y-97322000I-119802J0D01*
G01*
X137782198Y-97322000D02*
G75*
G02*
X138021802Y-97322000I119802J0D01*
G01*
D13*
%TO.C,JP2*%
X124546999Y-88154000D02*
X127346999Y-88154000D01*
X124546999Y-90154000D02*
X124546999Y-88154000D01*
X127346999Y-88154000D02*
X127346999Y-90154000D01*
X127346999Y-90154000D02*
X124546999Y-90154000D01*
%TO.C,C4*%
X121665419Y-90295000D02*
X121946581Y-90295000D01*
X121665419Y-91315000D02*
X121946581Y-91315000D01*
%TO.C,Y3*%
X117606000Y-85099000D02*
X118331000Y-85099000D01*
X117606000Y-85824000D02*
X117606000Y-85099000D01*
X117606000Y-89319000D02*
X117606000Y-88594000D01*
X118331000Y-89319000D02*
X117606000Y-89319000D01*
X121101000Y-85099000D02*
X121826000Y-85099000D01*
X121826000Y-85099000D02*
X121826000Y-85824000D01*
X121826000Y-88594000D02*
X121826000Y-89319000D01*
X121826000Y-89319000D02*
X121101000Y-89319000D01*
X122656000Y-88448999D02*
X122326000Y-88209000D01*
X122656000Y-87969000D01*
X122656000Y-88448999D01*
G36*
X122656000Y-88448999D02*
G01*
X122326000Y-88209000D01*
X122656000Y-87969000D01*
X122656000Y-88448999D01*
G37*
%TO.C,C5*%
X114298000Y-86881581D02*
X114298000Y-86600419D01*
X115318000Y-86881581D02*
X115318000Y-86600419D01*
%TO.C,L4*%
X114298000Y-89951780D02*
X114298000Y-89626220D01*
X115318000Y-89951780D02*
X115318000Y-89626220D01*
%TO.C,L1*%
X140045220Y-98296000D02*
X140370780Y-98296000D01*
X140045220Y-99316000D02*
X140370780Y-99316000D01*
%TO.C,C1*%
X140092920Y-100074000D02*
X140374082Y-100074000D01*
X140092920Y-101094000D02*
X140374082Y-101094000D01*
%TO.C,R1*%
X134351500Y-84090742D02*
X134351500Y-84565258D01*
X135396500Y-84090742D02*
X135396500Y-84565258D01*
%TO.C,J3*%
X114190000Y-81136000D02*
X114190000Y-79756000D01*
X115570000Y-81136000D02*
X114190000Y-81136000D01*
X116840000Y-78376000D02*
X129650000Y-78376000D01*
X116840000Y-81136000D02*
X116840000Y-78376000D01*
X116840000Y-81136000D02*
X129650000Y-81136000D01*
X129650000Y-81136000D02*
X129650000Y-78376000D01*
%TO.C,J4*%
X114190000Y-98696000D02*
X114190000Y-101456000D01*
X127000000Y-98696000D02*
X114190000Y-98696000D01*
X127000000Y-98696000D02*
X127000000Y-101456000D01*
X127000000Y-101456000D02*
X114190000Y-101456000D01*
X128270000Y-98696000D02*
X129650000Y-98696000D01*
X129650000Y-98696000D02*
X129650000Y-100076000D01*
D15*
%TO.C,G1*%
G36*
X140240498Y-88014243D02*
G01*
X140263626Y-88015827D01*
X140280840Y-88018362D01*
X140295890Y-88022806D01*
X140312527Y-88030124D01*
X140323094Y-88035405D01*
X140356001Y-88056124D01*
X140380472Y-88080865D01*
X140397163Y-88110615D01*
X140406729Y-88146362D01*
X140408899Y-88164881D01*
X140408755Y-88184842D01*
X140406066Y-88205410D01*
X140404604Y-88211541D01*
X140389693Y-88248476D01*
X140367786Y-88278818D01*
X140339095Y-88302417D01*
X140303826Y-88319123D01*
X140262189Y-88328784D01*
X140239223Y-88330916D01*
X140192743Y-88330178D01*
X140152499Y-88322551D01*
X140117661Y-88307743D01*
X140087407Y-88285462D01*
X140075099Y-88272957D01*
X140055404Y-88245604D01*
X140043617Y-88215351D01*
X140039016Y-88180188D01*
X140038892Y-88172546D01*
X140042068Y-88136658D01*
X140052165Y-88105959D01*
X140070041Y-88078117D01*
X140076262Y-88070843D01*
X140103720Y-88045959D01*
X140135234Y-88028370D01*
X140171771Y-88017742D01*
X140214297Y-88013743D01*
X140240498Y-88014243D01*
G37*
G36*
X140292915Y-84886527D02*
G01*
X140369109Y-84899591D01*
X140441410Y-84921471D01*
X140510031Y-84952252D01*
X140575188Y-84992020D01*
X140637094Y-85040861D01*
X140659716Y-85061728D01*
X140711101Y-85116338D01*
X140754335Y-85173992D01*
X140790068Y-85235858D01*
X140818947Y-85303101D01*
X140841622Y-85376888D01*
X140846795Y-85398216D01*
X140857572Y-85445078D01*
X140859019Y-86605883D01*
X140860467Y-87766688D01*
X140355462Y-87766688D01*
X139852874Y-87766687D01*
X139850458Y-87766688D01*
X139850459Y-87889895D01*
X139850458Y-88013102D01*
X139897402Y-88013101D01*
X139944345Y-88013102D01*
X139919617Y-88038467D01*
X139888416Y-88076175D01*
X139864966Y-88117967D01*
X139854820Y-88143557D01*
X139848709Y-88168450D01*
X139844803Y-88199809D01*
X139843141Y-88234682D01*
X139843764Y-88270117D01*
X139846713Y-88303162D01*
X139852029Y-88330865D01*
X139852223Y-88331573D01*
X139871602Y-88384189D01*
X139899019Y-88431603D01*
X139934095Y-88473356D01*
X139976448Y-88508988D01*
X140021982Y-88536208D01*
X140066758Y-88554377D01*
X140117448Y-88567567D01*
X140171459Y-88575369D01*
X140226190Y-88577377D01*
X140267232Y-88574713D01*
X140306075Y-88569474D01*
X140338573Y-88562962D01*
X140368042Y-88554251D01*
X140397790Y-88542414D01*
X140420593Y-88531752D01*
X140466440Y-88504443D01*
X140506746Y-88470453D01*
X140540285Y-88430989D01*
X140564552Y-88389971D01*
X140584842Y-88337291D01*
X140596328Y-88281889D01*
X140599364Y-88231745D01*
X140595137Y-88178797D01*
X140582534Y-88130285D01*
X140561672Y-88086519D01*
X140532671Y-88047808D01*
X140526905Y-88041717D01*
X140498905Y-88013101D01*
X140679589Y-88013102D01*
X140860273Y-88013102D01*
X140859461Y-88130268D01*
X140859160Y-88164138D01*
X140858754Y-88195813D01*
X140858273Y-88223677D01*
X140857748Y-88246111D01*
X140857210Y-88261497D01*
X140856884Y-88266764D01*
X140845297Y-88342770D01*
X140824955Y-88416239D01*
X140796404Y-88486434D01*
X140760189Y-88552626D01*
X140716855Y-88614083D01*
X140666946Y-88670070D01*
X140611008Y-88719856D01*
X140549587Y-88762710D01*
X140483225Y-88797897D01*
X140451999Y-88810995D01*
X140379007Y-88834690D01*
X140305029Y-88849969D01*
X140231515Y-88856617D01*
X140160154Y-88854442D01*
X140079937Y-88842394D01*
X140004355Y-88821880D01*
X139933241Y-88792821D01*
X139866432Y-88755136D01*
X139803760Y-88708748D01*
X139748193Y-88656840D01*
X139697606Y-88598039D01*
X139655407Y-88535079D01*
X139621194Y-88467230D01*
X139594564Y-88393763D01*
X139585860Y-88362305D01*
X139572638Y-88310249D01*
X139572638Y-87186252D01*
X139850288Y-87186252D01*
X139890234Y-87198296D01*
X139903401Y-87202201D01*
X139924662Y-87208426D01*
X139952825Y-87216625D01*
X139986696Y-87226452D01*
X140025081Y-87237562D01*
X140066786Y-87249608D01*
X140110619Y-87262243D01*
X140135526Y-87269412D01*
X140178361Y-87281781D01*
X140218331Y-87293410D01*
X140254477Y-87304014D01*
X140285840Y-87313309D01*
X140311464Y-87321009D01*
X140330391Y-87326830D01*
X140341663Y-87330485D01*
X140344493Y-87331610D01*
X140340701Y-87333525D01*
X140328470Y-87337876D01*
X140308642Y-87344398D01*
X140282055Y-87352831D01*
X140249549Y-87362912D01*
X140211965Y-87374379D01*
X140170144Y-87386970D01*
X140124926Y-87400423D01*
X140104492Y-87406453D01*
X140057727Y-87420250D01*
X140013713Y-87433300D01*
X139973329Y-87445334D01*
X139937459Y-87456084D01*
X139906983Y-87465289D01*
X139882782Y-87472681D01*
X139865739Y-87477996D01*
X139856734Y-87480968D01*
X139855579Y-87481441D01*
X139853770Y-87486598D01*
X139852465Y-87499768D01*
X139851649Y-87521331D01*
X139851312Y-87551667D01*
X139851442Y-87591153D01*
X139851581Y-87605904D01*
X139852874Y-87727098D01*
X140221204Y-87593488D01*
X140589535Y-87459878D01*
X140589618Y-87338764D01*
X140589700Y-87217650D01*
X140366237Y-87148390D01*
X140321641Y-87134527D01*
X140279857Y-87121457D01*
X140241798Y-87109475D01*
X140208371Y-87098866D01*
X140180484Y-87089922D01*
X140159046Y-87082932D01*
X140144964Y-87078186D01*
X140139149Y-87075974D01*
X140139076Y-87075923D01*
X140142809Y-87073921D01*
X140154926Y-87069401D01*
X140174563Y-87062645D01*
X140200855Y-87053934D01*
X140232940Y-87043552D01*
X140269951Y-87031780D01*
X140311026Y-87018900D01*
X140355300Y-87005195D01*
X140362534Y-87002973D01*
X140589688Y-86933227D01*
X140589695Y-86812407D01*
X140589701Y-86691586D01*
X140223202Y-86557537D01*
X140166327Y-86536748D01*
X140112077Y-86516946D01*
X140061137Y-86498379D01*
X140014191Y-86481294D01*
X139971921Y-86465940D01*
X139935011Y-86452563D01*
X139904144Y-86441413D01*
X139880004Y-86432737D01*
X139863273Y-86426782D01*
X139854638Y-86423797D01*
X139853580Y-86423488D01*
X139852715Y-86428101D01*
X139851942Y-86441064D01*
X139851296Y-86461069D01*
X139850812Y-86486799D01*
X139850524Y-86516946D01*
X139850459Y-86540949D01*
X139850458Y-86658409D01*
X140086001Y-86727625D01*
X140132331Y-86741267D01*
X140176194Y-86754236D01*
X140216648Y-86766249D01*
X140252750Y-86777025D01*
X140283559Y-86786281D01*
X140308131Y-86793734D01*
X140325524Y-86799102D01*
X140334798Y-86802105D01*
X140335670Y-86802426D01*
X140338086Y-86803497D01*
X140339474Y-86804651D01*
X140339292Y-86806061D01*
X140336995Y-86807898D01*
X140332042Y-86810333D01*
X140323887Y-86813539D01*
X140311988Y-86817690D01*
X140295801Y-86822954D01*
X140274783Y-86829505D01*
X140248391Y-86837515D01*
X140216081Y-86847154D01*
X140177310Y-86858598D01*
X140131533Y-86872015D01*
X140078210Y-86887578D01*
X140016795Y-86905459D01*
X139946745Y-86925831D01*
X139932596Y-86929944D01*
X139852874Y-86953122D01*
X139851581Y-87069687D01*
X139850288Y-87186252D01*
X139572638Y-87186252D01*
X139572638Y-86870416D01*
X139572639Y-86730562D01*
X139572645Y-86600042D01*
X139572657Y-86478521D01*
X139572678Y-86365668D01*
X139572706Y-86268875D01*
X139850458Y-86268875D01*
X139850458Y-86389666D01*
X140220079Y-86389666D01*
X140589701Y-86389666D01*
X140589701Y-86268875D01*
X140589701Y-86148084D01*
X140220080Y-86148084D01*
X139850458Y-86148084D01*
X139850458Y-86268875D01*
X139572706Y-86268875D01*
X139572708Y-86261152D01*
X139572751Y-86164639D01*
X139572794Y-86099767D01*
X139850458Y-86099767D01*
X140220079Y-86099767D01*
X140589701Y-86099767D01*
X140589700Y-85978976D01*
X140589700Y-85858185D01*
X140222495Y-85858184D01*
X140220079Y-85858185D01*
X139850459Y-85858185D01*
X139850459Y-85978976D01*
X139850458Y-86099767D01*
X139572794Y-86099767D01*
X139572810Y-86075802D01*
X139572883Y-85994305D01*
X139572976Y-85919818D01*
X139573089Y-85852008D01*
X139573224Y-85790545D01*
X139573384Y-85735097D01*
X139573571Y-85685331D01*
X139573786Y-85640918D01*
X139574033Y-85601524D01*
X139574311Y-85566817D01*
X139574625Y-85536467D01*
X139574975Y-85510141D01*
X139575364Y-85487508D01*
X139575794Y-85468236D01*
X139576267Y-85451993D01*
X139576784Y-85438448D01*
X139577349Y-85427269D01*
X139577962Y-85418124D01*
X139578628Y-85410682D01*
X139579344Y-85404611D01*
X139580117Y-85399579D01*
X139580946Y-85395255D01*
X139581688Y-85391929D01*
X139584521Y-85382267D01*
X139843211Y-85382267D01*
X139843987Y-85442662D01*
X139846437Y-85490754D01*
X139852943Y-85532992D01*
X139864253Y-85572605D01*
X139881113Y-85612818D01*
X139885325Y-85621434D01*
X139909047Y-85660264D01*
X139939864Y-85697503D01*
X139975419Y-85730757D01*
X140013353Y-85757633D01*
X140027087Y-85765260D01*
X140058730Y-85780462D01*
X140087579Y-85791675D01*
X140116132Y-85799439D01*
X140146891Y-85804294D01*
X140182356Y-85806780D01*
X140222495Y-85807440D01*
X140261195Y-85806971D01*
X140292685Y-85805244D01*
X140319388Y-85801754D01*
X140343729Y-85795996D01*
X140368132Y-85787467D01*
X140395020Y-85775660D01*
X140410138Y-85768376D01*
X140457212Y-85739996D01*
X140498106Y-85704283D01*
X140532351Y-85661700D01*
X140551895Y-85628485D01*
X140572295Y-85584043D01*
X140586232Y-85541710D01*
X140594435Y-85498299D01*
X140597630Y-85450624D01*
X140597648Y-85428168D01*
X140596948Y-85382267D01*
X140499703Y-85380961D01*
X140402458Y-85379655D01*
X140400416Y-85422367D01*
X140396307Y-85456900D01*
X140387112Y-85484691D01*
X140371989Y-85507675D01*
X140357188Y-85522143D01*
X140326193Y-85542657D01*
X140290631Y-85556897D01*
X140252246Y-85564917D01*
X140212786Y-85566771D01*
X140173998Y-85562511D01*
X140137628Y-85552191D01*
X140105424Y-85535864D01*
X140079220Y-85513679D01*
X140061186Y-85490206D01*
X140050074Y-85466135D01*
X140044741Y-85438344D01*
X140043830Y-85417198D01*
X140043724Y-85379655D01*
X139943467Y-85380962D01*
X139843211Y-85382267D01*
X139584521Y-85382267D01*
X139604708Y-85313419D01*
X139635676Y-85240013D01*
X139674304Y-85172086D01*
X139720306Y-85110018D01*
X139773394Y-85054180D01*
X139833282Y-85004948D01*
X139899682Y-84962698D01*
X139917626Y-84953083D01*
X139984197Y-84922889D01*
X140050912Y-84901362D01*
X140119722Y-84888035D01*
X140192582Y-84882438D01*
X140212613Y-84882191D01*
X140292915Y-84886527D01*
G37*
D13*
%TO.C,R2*%
X134351500Y-87613258D02*
X134351500Y-87138742D01*
X135396500Y-87613258D02*
X135396500Y-87138742D01*
%TO.C,Y2*%
X128041000Y-91116000D02*
X128041000Y-96336000D01*
X128041000Y-96336000D02*
X144136000Y-96336000D01*
X144136000Y-91116000D02*
X128041000Y-91116000D01*
%TO.C,L3*%
X116711000Y-82895220D02*
X116711000Y-83220780D01*
X117731000Y-82895220D02*
X117731000Y-83220780D01*
%TO.C,J5*%
X122445001Y-84692000D02*
X122445002Y-83312000D01*
X123825001Y-84691999D02*
X122445001Y-84692000D01*
X125095001Y-81932000D02*
X130285001Y-81932000D01*
X125095001Y-84692000D02*
X125095001Y-81932000D01*
X125095001Y-84692000D02*
X130285001Y-84692000D01*
X130285001Y-84692000D02*
X130285001Y-81932000D01*
%TO.C,C2*%
X126490000Y-93585419D02*
X126490000Y-93866581D01*
X127510000Y-93585419D02*
X127510000Y-93866581D01*
%TO.C,JP1*%
X127886000Y-89454001D02*
X127886000Y-88853999D01*
X128586000Y-88154000D02*
X129986000Y-88154000D01*
X129986000Y-90154000D02*
X128586000Y-90154000D01*
X130686000Y-88853999D02*
X130686000Y-89454001D01*
X127886000Y-88853999D02*
G75*
G02*
X128586000Y-88154000I700000J-1D01*
G01*
X128586000Y-90154000D02*
G75*
G02*
X127886000Y-89454001I0J700000D01*
G01*
X129986000Y-88154000D02*
G75*
G02*
X130686000Y-88853999I1J-699999D01*
G01*
X130686000Y-89454001D02*
G75*
G02*
X129986000Y-90154000I-699999J0D01*
G01*
%TO.C,J1*%
X142995000Y-83758000D02*
X142995000Y-84808000D01*
X142995000Y-88928000D02*
X142005000Y-88928000D01*
X142995000Y-89978000D02*
X142995000Y-88928000D01*
X145495000Y-83758000D02*
X142995000Y-83758000D01*
X145495000Y-89978000D02*
X142995000Y-89978000D01*
X147465000Y-88808000D02*
X147465000Y-84928000D01*
%TO.C,C3*%
X118235000Y-83198581D02*
X118235000Y-82917419D01*
X119255000Y-83198581D02*
X119255000Y-82917419D01*
%TO.C,J2*%
X131970000Y-78376001D02*
X131970000Y-81135999D01*
X139700000Y-78376000D02*
X131970000Y-78376001D01*
X139700000Y-78376000D02*
X139700000Y-81136000D01*
X139700000Y-81136000D02*
X131970000Y-81135999D01*
X140970000Y-78376001D02*
X142350000Y-78376000D01*
X142350000Y-78376000D02*
X142349999Y-79756000D01*
%TD*%
%LPC*%
D15*
%TO.C,JP2*%
G36*
X127171999Y-89904000D02*
G01*
X124721999Y-89904000D01*
X124721999Y-88404000D01*
X127171999Y-88404000D01*
X127171999Y-89904000D01*
G37*
%TO.C,JP1*%
G36*
X129436000Y-89904000D02*
G01*
X129136000Y-89904000D01*
X129136000Y-88404000D01*
X129436000Y-88404000D01*
X129436000Y-89904000D01*
G37*
%TD*%
D16*
%TO.C,L2*%
X122580501Y-92456000D03*
X121005499Y-92456000D03*
%TD*%
D17*
%TO.C,Y1*%
X136652000Y-98522000D03*
D18*
X135002001Y-98347000D03*
X133801999Y-98347000D03*
D17*
X132152000Y-98522000D03*
D19*
X132152000Y-99822000D03*
D17*
X132152000Y-101122000D03*
D18*
X133801999Y-101297000D03*
X135002001Y-101297000D03*
D17*
X136652000Y-101122000D03*
D19*
X136652000Y-99822000D03*
%TD*%
D20*
%TO.C,JP2*%
X126671998Y-89154000D03*
D21*
X125222000Y-89154000D03*
%TD*%
D22*
%TO.C,C4*%
X121031000Y-90805000D03*
X122581000Y-90805000D03*
%TD*%
D23*
%TO.C,Y3*%
X121666000Y-88209000D03*
X121666000Y-87709000D03*
X121666000Y-87209000D03*
X121666000Y-86709000D03*
X121666000Y-86209000D03*
D24*
X120716000Y-85259000D03*
X120216000Y-85259000D03*
X119716000Y-85259000D03*
X119216000Y-85259000D03*
X118716000Y-85259000D03*
D23*
X117766000Y-86209000D03*
X117766000Y-86709000D03*
X117766000Y-87209000D03*
X117766000Y-87709000D03*
X117766000Y-88209000D03*
D24*
X118716000Y-89159000D03*
X119216000Y-89159000D03*
X119716000Y-89159000D03*
X120216000Y-89159000D03*
X120716000Y-89159000D03*
D25*
X119716000Y-87209000D03*
%TD*%
D26*
%TO.C,C5*%
X114808000Y-87516000D03*
X114808000Y-85966000D03*
%TD*%
D27*
%TO.C,L4*%
X114808000Y-90576501D03*
X114808000Y-89001499D03*
%TD*%
D28*
%TO.C,L1*%
X139420499Y-98806000D03*
X140995501Y-98806000D03*
%TD*%
D22*
%TO.C,C1*%
X139458501Y-100584000D03*
X141008501Y-100584000D03*
%TD*%
D29*
%TO.C,R1*%
X134874000Y-83503000D03*
X134874000Y-85153000D03*
%TD*%
D30*
%TO.C,J3*%
X115570000Y-79756000D03*
D31*
X118110000Y-79756000D03*
X120650000Y-79756000D03*
X123190000Y-79756000D03*
X125730000Y-79756000D03*
X128270000Y-79756000D03*
%TD*%
D32*
%TO.C,H1*%
X146050000Y-79756000D03*
%TD*%
D30*
%TO.C,J4*%
X128270000Y-100076000D03*
D31*
X125730000Y-100076000D03*
X123190000Y-100076000D03*
X120650000Y-100076000D03*
X118110000Y-100076000D03*
X115570000Y-100076000D03*
%TD*%
D33*
%TO.C,R2*%
X134874000Y-88201000D03*
X134874000Y-86551000D03*
%TD*%
D34*
%TO.C,Y2*%
X132238500Y-93726000D03*
X144113500Y-93726000D03*
%TD*%
D35*
%TO.C,L3*%
X117221000Y-82270499D03*
X117221000Y-83845501D03*
%TD*%
D30*
%TO.C,J5*%
X123825001Y-83312000D03*
D31*
X126365001Y-83312000D03*
X128905000Y-83312000D03*
%TD*%
D36*
%TO.C,C2*%
X127000000Y-92951000D03*
X127000000Y-94501000D03*
%TD*%
D32*
%TO.C,H2*%
X146050000Y-100076000D03*
%TD*%
D37*
%TO.C,JP1*%
X129935999Y-89154000D03*
D38*
X128636001Y-89154000D03*
%TD*%
D39*
%TO.C,J1*%
X142780000Y-88368000D03*
X142780000Y-87368000D03*
X142780000Y-86368000D03*
X142780000Y-85368000D03*
D40*
X146655000Y-89668000D03*
X146655000Y-84068000D03*
%TD*%
D26*
%TO.C,C3*%
X118745000Y-83833000D03*
X118745000Y-82283000D03*
%TD*%
D30*
%TO.C,J2*%
X140970000Y-79756000D03*
D31*
X138430000Y-79756000D03*
X135890001Y-79756000D03*
X133350000Y-79756000D03*
%TD*%
%LPD*%
M02*
