%TF.GenerationSoftware,KiCad,Pcbnew,9.0.7*%
%TF.CreationDate,2026-01-03T11:51:17-05:00*%
%TF.ProjectId,DualClockLO,4475616c-436c-46f6-936b-4c4f2e6b6963,rev?*%
%TF.SameCoordinates,Original*%
%TF.FileFunction,Copper,L1,Top*%
%TF.FilePolarity,Positive*%
%FSLAX46Y46*%
G04 Gerber Fmt 4.6, Leading zero omitted, Abs format (unit mm)*
G04 Created by KiCad (PCBNEW 9.0.7) date 2026-01-03 11:51:17*
%MOMM*%
%LPD*%
G01*
G04 APERTURE LIST*
G04 Aperture macros list*
%AMRoundRect*
0 Rectangle with rounded corners*
0 $1 Rounding radius*
0 $2 $3 $4 $5 $6 $7 $8 $9 X,Y pos of 4 corners*
0 Add a 4 corners polygon primitive as box body*
4,1,4,$2,$3,$4,$5,$6,$7,$8,$9,$2,$3,0*
0 Add four circle primitives for the rounded corners*
1,1,$1+$1,$2,$3*
1,1,$1+$1,$4,$5*
1,1,$1+$1,$6,$7*
1,1,$1+$1,$8,$9*
0 Add four rect primitives between the rounded corners*
20,1,$1+$1,$2,$3,$4,$5,0*
20,1,$1+$1,$4,$5,$6,$7,0*
20,1,$1+$1,$6,$7,$8,$9,0*
20,1,$1+$1,$8,$9,$2,$3,0*%
%AMFreePoly0*
4,1,6,1.000000,0.000000,0.500000,-0.750000,-0.500000,-0.750000,-0.500000,0.750000,0.500000,0.750000,1.000000,0.000000,1.000000,0.000000,$1*%
%AMFreePoly1*
4,1,6,0.500000,-0.750000,-0.650000,-0.750000,-0.150000,0.000000,-0.650000,0.750000,0.500000,0.750000,0.500000,-0.750000,0.500000,-0.750000,$1*%
%AMFreePoly2*
4,1,23,0.500000,-0.750000,0.000000,-0.750000,0.000000,-0.745722,-0.065263,-0.745722,-0.191342,-0.711940,-0.304381,-0.646677,-0.396677,-0.554381,-0.461940,-0.441342,-0.495722,-0.315263,-0.495722,-0.250000,-0.500000,-0.250000,-0.500000,0.250000,-0.495722,0.250000,-0.495722,0.315263,-0.461940,0.441342,-0.396677,0.554381,-0.304381,0.646677,-0.191342,0.711940,-0.065263,0.745722,0.000000,0.745722,
0.000000,0.750000,0.500000,0.750000,0.500000,-0.750000,0.500000,-0.750000,$1*%
%AMFreePoly3*
4,1,23,0.000000,0.745722,0.065263,0.745722,0.191342,0.711940,0.304381,0.646677,0.396677,0.554381,0.461940,0.441342,0.495722,0.315263,0.495722,0.250000,0.500000,0.250000,0.500000,-0.250000,0.495722,-0.250000,0.495722,-0.315263,0.461940,-0.441342,0.396677,-0.554381,0.304381,-0.646677,0.191342,-0.711940,0.065263,-0.745722,0.000000,-0.745722,0.000000,-0.750000,-0.500000,-0.750000,
-0.500000,0.750000,0.000000,0.750000,0.000000,0.745722,0.000000,0.745722,$1*%
G04 Aperture macros list end*
%TA.AperFunction,EtchedComponent*%
%ADD10C,0.000000*%
%TD*%
%TA.AperFunction,SMDPad,CuDef*%
%ADD11RoundRect,0.218750X0.218750X0.256250X-0.218750X0.256250X-0.218750X-0.256250X0.218750X-0.256250X0*%
%TD*%
%TA.AperFunction,SMDPad,CuDef*%
%ADD12R,1.000000X1.000000*%
%TD*%
%TA.AperFunction,SMDPad,CuDef*%
%ADD13R,0.600000X0.650000*%
%TD*%
%TA.AperFunction,SMDPad,CuDef*%
%ADD14R,1.000000X0.600000*%
%TD*%
%TA.AperFunction,SMDPad,CuDef*%
%ADD15FreePoly0,180.000000*%
%TD*%
%TA.AperFunction,SMDPad,CuDef*%
%ADD16FreePoly1,180.000000*%
%TD*%
%TA.AperFunction,SMDPad,CuDef*%
%ADD17RoundRect,0.225000X-0.225000X-0.250000X0.225000X-0.250000X0.225000X0.250000X-0.225000X0.250000X0*%
%TD*%
%TA.AperFunction,SMDPad,CuDef*%
%ADD18RoundRect,0.062500X0.337500X0.062500X-0.337500X0.062500X-0.337500X-0.062500X0.337500X-0.062500X0*%
%TD*%
%TA.AperFunction,SMDPad,CuDef*%
%ADD19RoundRect,0.062500X0.062500X0.337500X-0.062500X0.337500X-0.062500X-0.337500X0.062500X-0.337500X0*%
%TD*%
%TA.AperFunction,HeatsinkPad*%
%ADD20R,2.700000X2.700000*%
%TD*%
%TA.AperFunction,SMDPad,CuDef*%
%ADD21RoundRect,0.225000X0.250000X-0.225000X0.250000X0.225000X-0.250000X0.225000X-0.250000X-0.225000X0*%
%TD*%
%TA.AperFunction,SMDPad,CuDef*%
%ADD22RoundRect,0.218750X0.256250X-0.218750X0.256250X0.218750X-0.256250X0.218750X-0.256250X-0.218750X0*%
%TD*%
%TA.AperFunction,SMDPad,CuDef*%
%ADD23RoundRect,0.218750X-0.218750X-0.256250X0.218750X-0.256250X0.218750X0.256250X-0.218750X0.256250X0*%
%TD*%
%TA.AperFunction,SMDPad,CuDef*%
%ADD24RoundRect,0.200000X-0.275000X0.200000X-0.275000X-0.200000X0.275000X-0.200000X0.275000X0.200000X0*%
%TD*%
%TA.AperFunction,ComponentPad*%
%ADD25R,1.700000X1.700000*%
%TD*%
%TA.AperFunction,ComponentPad*%
%ADD26C,1.700000*%
%TD*%
%TA.AperFunction,SMDPad,CuDef*%
%ADD27RoundRect,0.200000X0.275000X-0.200000X0.275000X0.200000X-0.275000X0.200000X-0.275000X-0.200000X0*%
%TD*%
%TA.AperFunction,SMDPad,CuDef*%
%ADD28RoundRect,0.250000X-3.687500X-0.750000X3.687500X-0.750000X3.687500X0.750000X-3.687500X0.750000X0*%
%TD*%
%TA.AperFunction,SMDPad,CuDef*%
%ADD29RoundRect,0.218750X-0.256250X0.218750X-0.256250X-0.218750X0.256250X-0.218750X0.256250X0.218750X0*%
%TD*%
%TA.AperFunction,SMDPad,CuDef*%
%ADD30RoundRect,0.225000X-0.250000X0.225000X-0.250000X-0.225000X0.250000X-0.225000X0.250000X0.225000X0*%
%TD*%
%TA.AperFunction,SMDPad,CuDef*%
%ADD31FreePoly2,180.000000*%
%TD*%
%TA.AperFunction,SMDPad,CuDef*%
%ADD32FreePoly3,180.000000*%
%TD*%
%TA.AperFunction,SMDPad,CuDef*%
%ADD33RoundRect,0.150000X0.625000X-0.150000X0.625000X0.150000X-0.625000X0.150000X-0.625000X-0.150000X0*%
%TD*%
%TA.AperFunction,SMDPad,CuDef*%
%ADD34RoundRect,0.250000X0.650000X-0.350000X0.650000X0.350000X-0.650000X0.350000X-0.650000X-0.350000X0*%
%TD*%
%TA.AperFunction,ViaPad*%
%ADD35C,0.600000*%
%TD*%
%TA.AperFunction,Conductor*%
%ADD36C,0.200000*%
%TD*%
%TA.AperFunction,Conductor*%
%ADD37C,0.500000*%
%TD*%
%TA.AperFunction,Conductor*%
%ADD38C,0.125000*%
%TD*%
G04 APERTURE END LIST*
D10*
%TA.AperFunction,EtchedComponent*%
%TO.C,JP1*%
G36*
X129536000Y-89454000D02*
G01*
X129036000Y-89454000D01*
X129036000Y-88854000D01*
X129536000Y-88854000D01*
X129536000Y-89454000D01*
G37*
%TD.AperFunction*%
%TD*%
D11*
%TO.P,L2,1,1*%
%TO.N,+3V3*%
X122580501Y-92456000D03*
%TO.P,L2,2,2*%
%TO.N,Net-(Y3-VDD)*%
X121005499Y-92456000D03*
%TD*%
D12*
%TO.P,Y1,1,GND*%
%TO.N,GND*%
X136652000Y-98522000D03*
D13*
%TO.P,Y1,2*%
%TO.N,N/C*%
X135002001Y-98347000D03*
%TO.P,Y1,3*%
X133801999Y-98347000D03*
D12*
%TO.P,Y1,4,GND*%
%TO.N,GND*%
X132152000Y-98522000D03*
D14*
%TO.P,Y1,5*%
%TO.N,N/C*%
X132152000Y-99822000D03*
D12*
%TO.P,Y1,6,OUT*%
%TO.N,Net-(Y1-OUT)*%
X132152000Y-101122000D03*
D13*
%TO.P,Y1,7*%
%TO.N,N/C*%
X133801999Y-101297000D03*
%TO.P,Y1,8*%
X135002001Y-101297000D03*
D12*
%TO.P,Y1,9,VDD*%
%TO.N,Net-(Y1-VDD)*%
X136652000Y-101122000D03*
D14*
%TO.P,Y1,10*%
%TO.N,N/C*%
X136652000Y-99822000D03*
%TD*%
D15*
%TO.P,JP2,1,A*%
%TO.N,Net-(JP1-B)*%
X126671998Y-89154000D03*
D16*
%TO.P,JP2,2,B*%
%TO.N,GND*%
X125222000Y-89154000D03*
%TD*%
D17*
%TO.P,C4,1*%
%TO.N,Net-(Y3-VDD)*%
X121031000Y-90805000D03*
%TO.P,C4,2*%
%TO.N,GND*%
X122581000Y-90805000D03*
%TD*%
D18*
%TO.P,Y3,1,XA*%
%TO.N,Net-(Y3-XA)*%
X121666000Y-88209000D03*
%TO.P,Y3,2,XB*%
%TO.N,Net-(Y3-XB)*%
X121666000Y-87709000D03*
%TO.P,Y3,3,A0*%
%TO.N,Net-(JP1-B)*%
X121666000Y-87209000D03*
%TO.P,Y3,4,SCL*%
%TO.N,/SCL*%
X121666000Y-86709000D03*
%TO.P,Y3,5,SDA*%
%TO.N,/SDA*%
X121666000Y-86209000D03*
D19*
%TO.P,Y3,6,SSEN*%
%TO.N,Net-(J5-Pin_2)*%
X120716000Y-85259000D03*
%TO.P,Y3,7,OEB*%
%TO.N,Net-(J5-Pin_1)*%
X120216000Y-85259000D03*
%TO.P,Y3,8,CLK3*%
%TO.N,/CLK3*%
X119716000Y-85259000D03*
%TO.P,Y3,9,CLK2*%
%TO.N,/CLK2*%
X119216000Y-85259000D03*
%TO.P,Y3,10,VDDOB*%
%TO.N,Net-(Y3-VDDOA)*%
X118716000Y-85259000D03*
D18*
%TO.P,Y3,11,VDDOA*%
X117766000Y-86209000D03*
%TO.P,Y3,12,CLK1*%
%TO.N,/1{slash}RX90*%
X117766000Y-86709000D03*
%TO.P,Y3,13,CLK0*%
%TO.N,/0{slash}RX0*%
X117766000Y-87209000D03*
%TO.P,Y3,14,VDDOD*%
%TO.N,Net-(Y3-VDDOD)*%
X117766000Y-87709000D03*
%TO.P,Y3,15,CLK7*%
%TO.N,/CLK7*%
X117766000Y-88209000D03*
D19*
%TO.P,Y3,16,CLK6*%
%TO.N,/6{slash}CW*%
X118716000Y-89159000D03*
%TO.P,Y3,17,CLK5*%
%TO.N,/5{slash}TX0*%
X119216000Y-89159000D03*
%TO.P,Y3,18,VDDOC*%
%TO.N,Net-(Y3-VDD)*%
X119716000Y-89159000D03*
%TO.P,Y3,19,CLK4*%
%TO.N,/4{slash}TX90*%
X120216000Y-89159000D03*
%TO.P,Y3,20,VDD*%
%TO.N,Net-(Y3-VDD)*%
X120716000Y-89159000D03*
D20*
%TO.P,Y3,21,GND*%
%TO.N,GND*%
X119716000Y-87209000D03*
%TD*%
D21*
%TO.P,C5,1*%
%TO.N,Net-(Y3-VDDOD)*%
X114808000Y-87516000D03*
%TO.P,C5,2*%
%TO.N,GND*%
X114808000Y-85966000D03*
%TD*%
D22*
%TO.P,L4,1,1*%
%TO.N,+3V3*%
X114808000Y-90576501D03*
%TO.P,L4,2,2*%
%TO.N,Net-(Y3-VDDOD)*%
X114808000Y-89001499D03*
%TD*%
D23*
%TO.P,L1,1,1*%
%TO.N,Net-(Y1-VDD)*%
X139420499Y-98806000D03*
%TO.P,L1,2,2*%
%TO.N,+3V3*%
X140995501Y-98806000D03*
%TD*%
D17*
%TO.P,C1,1*%
%TO.N,Net-(Y1-VDD)*%
X139458501Y-100584000D03*
%TO.P,C1,2*%
%TO.N,GND*%
X141008501Y-100584000D03*
%TD*%
D24*
%TO.P,R1,1*%
%TO.N,+3V3*%
X134874000Y-83503000D03*
%TO.P,R1,2*%
%TO.N,/SDA*%
X134874000Y-85153000D03*
%TD*%
D25*
%TO.P,J3,1,Pin_1*%
%TO.N,/0{slash}RX0*%
X115570000Y-79756000D03*
D26*
%TO.P,J3,2,Pin_2*%
%TO.N,/1{slash}RX90*%
X118110000Y-79756000D03*
%TO.P,J3,3,Pin_3*%
%TO.N,GND*%
X120650000Y-79756000D03*
%TO.P,J3,4,Pin_4*%
%TO.N,/CLK2*%
X123190000Y-79756000D03*
%TO.P,J3,5,Pin_5*%
%TO.N,/CLK3*%
X125730000Y-79756000D03*
%TO.P,J3,6,Pin_6*%
%TO.N,GND*%
X128270000Y-79756000D03*
%TD*%
D25*
%TO.P,J4,1,Pin_1*%
%TO.N,GND*%
X128270000Y-100076000D03*
D26*
%TO.P,J4,2,Pin_2*%
%TO.N,/CLK7*%
X125730000Y-100076000D03*
%TO.P,J4,3,Pin_3*%
%TO.N,/6{slash}CW*%
X123190000Y-100076000D03*
%TO.P,J4,4,Pin_4*%
%TO.N,GND*%
X120650000Y-100076000D03*
%TO.P,J4,5,Pin_5*%
%TO.N,/5{slash}TX0*%
X118110000Y-100076000D03*
%TO.P,J4,6,Pin_6*%
%TO.N,/4{slash}TX90*%
X115570000Y-100076000D03*
%TD*%
D27*
%TO.P,R2,1*%
%TO.N,+3V3*%
X134874000Y-88201000D03*
%TO.P,R2,2*%
%TO.N,/SCL*%
X134874000Y-86551000D03*
%TD*%
D28*
%TO.P,Y2,1,1*%
%TO.N,Net-(Y3-XA)*%
X132238500Y-93726000D03*
%TO.P,Y2,2,2*%
%TO.N,Net-(Y3-XB)*%
X144113500Y-93726000D03*
%TD*%
D29*
%TO.P,L3,1,1*%
%TO.N,+3V3*%
X117221000Y-82270499D03*
%TO.P,L3,2,2*%
%TO.N,Net-(Y3-VDDOA)*%
X117221000Y-83845501D03*
%TD*%
D25*
%TO.P,J5,1,Pin_1*%
%TO.N,Net-(J5-Pin_1)*%
X123825001Y-83312000D03*
D26*
%TO.P,J5,2,Pin_2*%
%TO.N,Net-(J5-Pin_2)*%
X126365001Y-83312000D03*
%TO.P,J5,3,Pin_3*%
%TO.N,GND*%
X128905000Y-83312000D03*
%TD*%
D30*
%TO.P,C2,1*%
%TO.N,Net-(Y3-XA)*%
X127000000Y-92951000D03*
%TO.P,C2,2*%
%TO.N,Net-(Y1-OUT)*%
X127000000Y-94501000D03*
%TD*%
D31*
%TO.P,JP1,1,A*%
%TO.N,+3V3*%
X129935999Y-89154000D03*
D32*
%TO.P,JP1,2,B*%
%TO.N,Net-(JP1-B)*%
X128636001Y-89154000D03*
%TD*%
D33*
%TO.P,J1,1,Pin_1*%
%TO.N,GND*%
X142780000Y-88368000D03*
%TO.P,J1,2,Pin_2*%
%TO.N,+3V3*%
X142780000Y-87368000D03*
%TO.P,J1,3,Pin_3*%
%TO.N,/SDA*%
X142780000Y-86368000D03*
%TO.P,J1,4,Pin_4*%
%TO.N,/SCL*%
X142780000Y-85368000D03*
D34*
%TO.P,J1,MP*%
%TO.N,N/C*%
X146655000Y-89668000D03*
X146655000Y-84068000D03*
%TD*%
D21*
%TO.P,C3,1*%
%TO.N,Net-(Y3-VDDOA)*%
X118745000Y-83833000D03*
%TO.P,C3,2*%
%TO.N,GND*%
X118745000Y-82283000D03*
%TD*%
D25*
%TO.P,J2,1,Pin_1*%
%TO.N,/SCL*%
X140970000Y-79756000D03*
D26*
%TO.P,J2,2,Pin_2*%
%TO.N,/SDA*%
X138430000Y-79756000D03*
%TO.P,J2,3,Pin_3*%
%TO.N,+3V3*%
X135890001Y-79756000D03*
%TO.P,J2,4,Pin_4*%
%TO.N,GND*%
X133350000Y-79756000D03*
%TD*%
D35*
%TO.N,GND*%
X137160000Y-87630000D03*
X124714000Y-101600000D03*
X137160000Y-85471000D03*
X130810000Y-85090000D03*
X128905000Y-87503000D03*
X139700000Y-83058000D03*
X117390000Y-89535000D03*
X142748000Y-79756000D03*
X131318000Y-87503000D03*
X121920000Y-89535000D03*
X118999000Y-91567000D03*
X142240000Y-83058000D03*
X132842000Y-90170000D03*
X125095000Y-93345000D03*
X130810000Y-81280000D03*
X116840000Y-91186000D03*
X119507000Y-81153000D03*
X124460000Y-95885000D03*
X114554000Y-85217000D03*
X114681000Y-93345000D03*
X116840000Y-96520000D03*
X132334000Y-97536000D03*
X116840000Y-93345000D03*
X137668000Y-98552000D03*
X126111000Y-85090000D03*
X141224000Y-86360000D03*
X138938000Y-85471000D03*
X114173000Y-81534000D03*
X130810000Y-83185000D03*
X122174000Y-85090000D03*
X137160000Y-83058000D03*
X145923000Y-91567000D03*
X126873000Y-87503000D03*
X115697000Y-81915000D03*
X146685000Y-86741000D03*
X127508000Y-96647000D03*
X124460000Y-98425000D03*
X121666000Y-96520000D03*
X125730000Y-81280000D03*
X133350000Y-84709000D03*
X124333000Y-78105000D03*
X144526000Y-95758000D03*
X123428735Y-90820265D03*
X128270000Y-81280000D03*
X138049000Y-95758000D03*
X131953000Y-95885000D03*
X116840000Y-78105000D03*
X137922000Y-90170000D03*
X119126000Y-93853000D03*
X114681000Y-96520000D03*
X123825000Y-85090000D03*
X138938000Y-87630000D03*
X124460000Y-88646000D03*
X116840000Y-101727000D03*
X131318000Y-78105000D03*
X119126000Y-96520000D03*
X141732000Y-100584000D03*
X141224000Y-88392000D03*
X128270000Y-85090000D03*
%TO.N,+3V3*%
X134874000Y-89154000D03*
X135636000Y-83312000D03*
X130556000Y-89154000D03*
X141224000Y-87376000D03*
X117983000Y-81153000D03*
X114935000Y-91567000D03*
X141732000Y-98806000D03*
X123444000Y-92329000D03*
%TO.N,/SCL*%
X140716000Y-85368000D03*
%TO.N,/6{slash}CW*%
X117863313Y-90179965D03*
%TO.N,/4{slash}TX90*%
X120315999Y-89947120D03*
X118557175Y-90777882D03*
%TO.N,/CLK7*%
X116840000Y-88519000D03*
%TD*%
D36*
%TO.N,Net-(Y1-VDD)*%
X139433000Y-98806000D02*
X139433000Y-100571000D01*
X136652000Y-101122000D02*
X138908000Y-101122000D01*
X139433000Y-100571000D02*
X139446000Y-100584000D01*
X138908000Y-101122000D02*
X139446000Y-100584000D01*
D37*
%TO.N,GND*%
X136652000Y-98522000D02*
X137638000Y-98522000D01*
D36*
X117475000Y-85090000D02*
X117597000Y-85090000D01*
X114554000Y-85217000D02*
X114808000Y-85471000D01*
D37*
X132152000Y-97718000D02*
X132334000Y-97536000D01*
X142780000Y-88368000D02*
X141248000Y-88368000D01*
D36*
X114808000Y-85471000D02*
X114808000Y-85966000D01*
X124968000Y-89154000D02*
X124460000Y-88646000D01*
X121920000Y-89413000D02*
X120772000Y-88265000D01*
X118999000Y-81407000D02*
X118999000Y-82156000D01*
X117390000Y-89535000D02*
X119716000Y-87209000D01*
X120772000Y-88265000D02*
X120650000Y-88265000D01*
D37*
X141008501Y-100584000D02*
X141732000Y-100584000D01*
X137638000Y-98522000D02*
X137668000Y-98552000D01*
D36*
X125080001Y-89154000D02*
X124968000Y-89154000D01*
X121920000Y-89535000D02*
X121920000Y-89413000D01*
D37*
X132152000Y-98522000D02*
X132152000Y-97718000D01*
D36*
X119507000Y-81153000D02*
X119253000Y-81153000D01*
X121835000Y-85090000D02*
X119716000Y-87209000D01*
D37*
X141248000Y-88368000D02*
X141224000Y-88392000D01*
D36*
X122174000Y-85090000D02*
X121835000Y-85090000D01*
X123413470Y-90805000D02*
X123428735Y-90820265D01*
X117597000Y-85090000D02*
X119716000Y-87209000D01*
X119253000Y-81153000D02*
X118999000Y-81407000D01*
X122581000Y-90805000D02*
X123413470Y-90805000D01*
%TO.N,Net-(Y3-XA)*%
X127495000Y-92951000D02*
X128270001Y-93726001D01*
X126408000Y-92951000D02*
X127000000Y-92951000D01*
X127000000Y-92951000D02*
X127495000Y-92951000D01*
X121666000Y-88209000D02*
X126408000Y-92951000D01*
X128270001Y-93726001D02*
X132238498Y-93726001D01*
%TO.N,Net-(Y1-OUT)*%
X127013000Y-94501000D02*
X130810000Y-98298000D01*
X131348000Y-101122000D02*
X132152000Y-101122000D01*
X127000000Y-94501000D02*
X127013000Y-94501000D01*
X130810000Y-98298000D02*
X130810000Y-100584000D01*
X130810000Y-100584000D02*
X131348000Y-101122000D01*
%TO.N,Net-(Y3-VDD)*%
X120716000Y-89159000D02*
X121031000Y-89474000D01*
X120269000Y-90805000D02*
X121031000Y-90805000D01*
X119716000Y-89159000D02*
X119716000Y-90252000D01*
X121031000Y-89474000D02*
X121031000Y-90805000D01*
X119716000Y-90252000D02*
X120269000Y-90805000D01*
X121005499Y-92329000D02*
X121005499Y-90830501D01*
X121005499Y-90830501D02*
X121031000Y-90805000D01*
D37*
%TO.N,+3V3*%
X142780000Y-87368000D02*
X141232000Y-87368000D01*
D36*
X114592000Y-91567000D02*
X114554000Y-91529000D01*
X114935000Y-91567000D02*
X114592000Y-91567000D01*
D37*
X129935999Y-89154000D02*
X130556000Y-89154000D01*
X134874000Y-88201000D02*
X134874000Y-89154000D01*
D36*
X122580501Y-92329000D02*
X123444000Y-92329000D01*
D37*
X140995501Y-98806000D02*
X141732000Y-98806000D01*
X141232000Y-87368000D02*
X141224000Y-87376000D01*
D36*
X117475000Y-82143499D02*
X117475000Y-81661000D01*
X117475000Y-81661000D02*
X117983000Y-81153000D01*
X114554000Y-91529000D02*
X114554000Y-90576501D01*
D37*
X134874000Y-83503000D02*
X135445000Y-83503000D01*
X135445000Y-83503000D02*
X135636000Y-83312000D01*
D36*
%TO.N,/SDA*%
X121666000Y-86209000D02*
X122150000Y-85725000D01*
X143156968Y-84328000D02*
X143856000Y-85027032D01*
X135699000Y-84328000D02*
X138430000Y-84328000D01*
X122150000Y-85725000D02*
X133756400Y-85725000D01*
X134874000Y-85153000D02*
X135699000Y-84328000D01*
X143856000Y-85027032D02*
X143856000Y-86268000D01*
X138430000Y-79756000D02*
X138430000Y-84328000D01*
X138430000Y-84328000D02*
X143156968Y-84328000D01*
X134328400Y-85153000D02*
X134874000Y-85153000D01*
X133756400Y-85725000D02*
X134328400Y-85153000D01*
X143856000Y-86268000D02*
X143756000Y-86368000D01*
X143756000Y-86368000D02*
X142780000Y-86368000D01*
%TO.N,/SCL*%
X139509000Y-86551000D02*
X140692000Y-85368000D01*
X121666000Y-86709000D02*
X134716000Y-86709000D01*
X134874000Y-86551000D02*
X139509000Y-86551000D01*
X140716000Y-85368000D02*
X142780000Y-85368000D01*
X134716000Y-86709000D02*
X134874000Y-86551000D01*
X140692000Y-85368000D02*
X140716000Y-85368000D01*
%TO.N,Net-(J5-Pin_2)*%
X121512000Y-84463000D02*
X125214001Y-84463000D01*
X120716000Y-85259000D02*
X121512000Y-84463000D01*
X125214001Y-84463000D02*
X126365001Y-83312000D01*
D38*
%TO.N,Net-(J5-Pin_1)*%
X120216000Y-85259000D02*
X120216000Y-84859001D01*
X122017001Y-83058000D02*
X122936000Y-83058000D01*
X120216000Y-84859001D02*
X122017001Y-83058000D01*
D36*
%TO.N,Net-(JP1-B)*%
X125189999Y-87209000D02*
X126379999Y-88399000D01*
X126379999Y-88399000D02*
X126379999Y-89154000D01*
X128561001Y-89154000D02*
X126379999Y-89154000D01*
X121666000Y-87209000D02*
X125189999Y-87209000D01*
%TO.N,Net-(Y3-XB)*%
X122094248Y-87709000D02*
X125825248Y-91440000D01*
X141827503Y-91440000D02*
X144113502Y-93725999D01*
X125825248Y-91440000D02*
X141827503Y-91440000D01*
X121666000Y-87709000D02*
X122094248Y-87709000D01*
%TO.N,Net-(Y3-VDDOA)*%
X119126000Y-83833000D02*
X117614501Y-83833000D01*
X116860000Y-84333501D02*
X116860000Y-85324943D01*
X117475000Y-83718501D02*
X116860000Y-84333501D01*
X117614501Y-83833000D02*
X117602000Y-83845501D01*
X118716000Y-84959501D02*
X117602000Y-83845501D01*
X118716000Y-85259000D02*
X118716000Y-84959501D01*
X116860000Y-85324943D02*
X117744057Y-86209000D01*
X117744057Y-86209000D02*
X117766000Y-86209000D01*
%TO.N,/CLK2*%
X119216000Y-85259000D02*
X119216000Y-84603055D01*
X120649999Y-83169056D02*
X120649999Y-81788001D01*
X120649999Y-81788001D02*
X123190000Y-79248000D01*
X119216000Y-84603055D02*
X120649999Y-83169056D01*
%TO.N,/CLK3*%
X122086057Y-81534000D02*
X123444000Y-81534000D01*
X121158000Y-82462057D02*
X122086057Y-81534000D01*
X119716000Y-85259000D02*
X119716000Y-84781210D01*
X119716000Y-84781210D02*
X121158000Y-83339210D01*
X121158000Y-83339210D02*
X121158000Y-82462057D01*
X123444000Y-81534000D02*
X125730000Y-79248000D01*
%TO.N,/1{slash}RX90*%
X116298000Y-82163943D02*
X116205000Y-82256943D01*
X116205000Y-82256943D02*
X116205000Y-85598000D01*
X118110000Y-79959200D02*
X116298000Y-81771200D01*
X118110000Y-79248000D02*
X118110000Y-79959200D01*
X116205000Y-85598000D02*
X117316000Y-86709000D01*
X117316000Y-86709000D02*
X117766000Y-86709000D01*
X116298000Y-81771200D02*
X116298000Y-82163943D01*
%TO.N,/0{slash}RX0*%
X116800000Y-87209000D02*
X115697000Y-86106000D01*
X117766000Y-87209000D02*
X116800000Y-87209000D01*
X114969000Y-79849000D02*
X115570000Y-79248000D01*
X114969000Y-84068943D02*
X114969000Y-79849000D01*
X115697000Y-84796943D02*
X114969000Y-84068943D01*
X115697000Y-86106000D02*
X115697000Y-84796943D01*
%TO.N,/6{slash}CW*%
X118716000Y-89437000D02*
X118716000Y-89159000D01*
X117973035Y-90179965D02*
X118716000Y-89437000D01*
X117863313Y-90179965D02*
X117973035Y-90179965D01*
%TO.N,/4{slash}TX90*%
X120216000Y-89159000D02*
X120216000Y-89847121D01*
X118557175Y-90777882D02*
X115570000Y-93765057D01*
X115570000Y-93765057D02*
X115570000Y-100076000D01*
X120216000Y-89847121D02*
X120315999Y-89947120D01*
%TO.N,/CLK7*%
X117150000Y-88209000D02*
X116840000Y-88519000D01*
X117766000Y-88209000D02*
X117150000Y-88209000D01*
%TO.N,Net-(Y3-VDDOD)*%
X117766000Y-87709000D02*
X114747000Y-87709000D01*
X114554000Y-89001499D02*
X114554000Y-87516000D01*
X114747000Y-87709000D02*
X114554000Y-87516000D01*
%TO.N,/5{slash}TX0*%
X119600000Y-91318057D02*
X119600000Y-91894057D01*
X119216000Y-89159000D02*
X119216000Y-90934057D01*
X119600000Y-91894057D02*
X118110000Y-93384057D01*
X119216000Y-90934057D02*
X119600000Y-91318057D01*
X118110000Y-93384057D02*
X118110000Y-100076000D01*
%TD*%
%TA.AperFunction,Conductor*%
%TO.N,GND*%
G36*
X115982595Y-88329185D02*
G01*
X116028350Y-88381989D01*
X116037016Y-88434066D01*
X116039500Y-88434066D01*
X116039500Y-88597846D01*
X116070261Y-88752489D01*
X116070264Y-88752501D01*
X116130602Y-88898172D01*
X116130609Y-88898185D01*
X116218210Y-89029288D01*
X116218213Y-89029292D01*
X116329707Y-89140786D01*
X116329711Y-89140789D01*
X116460814Y-89228390D01*
X116460827Y-89228397D01*
X116606498Y-89288735D01*
X116606503Y-89288737D01*
X116761153Y-89319499D01*
X116761156Y-89319500D01*
X116761158Y-89319500D01*
X116918844Y-89319500D01*
X116918845Y-89319499D01*
X117073497Y-89288737D01*
X117208436Y-89232844D01*
X117219172Y-89228397D01*
X117219172Y-89228396D01*
X117219179Y-89228394D01*
X117350289Y-89140789D01*
X117461789Y-89029289D01*
X117549394Y-88898179D01*
X117549393Y-88898179D01*
X117552779Y-88893113D01*
X117554246Y-88894093D01*
X117597347Y-88850208D01*
X117657754Y-88834499D01*
X117966500Y-88834499D01*
X117975185Y-88837049D01*
X117984147Y-88835761D01*
X118008187Y-88846739D01*
X118033539Y-88854184D01*
X118039466Y-88861024D01*
X118047703Y-88864786D01*
X118061992Y-88887020D01*
X118079294Y-88906988D01*
X118081581Y-88917502D01*
X118085477Y-88923564D01*
X118090500Y-88958499D01*
X118090500Y-89161901D01*
X118070815Y-89228940D01*
X118054182Y-89249582D01*
X117960619Y-89343146D01*
X117899296Y-89376631D01*
X117872937Y-89379465D01*
X117784468Y-89379465D01*
X117629823Y-89410226D01*
X117629811Y-89410229D01*
X117484140Y-89470567D01*
X117484127Y-89470574D01*
X117353024Y-89558175D01*
X117353020Y-89558178D01*
X117241526Y-89669672D01*
X117241523Y-89669676D01*
X117153922Y-89800779D01*
X117153915Y-89800792D01*
X117093577Y-89946463D01*
X117093574Y-89946475D01*
X117062813Y-90101118D01*
X117062813Y-90258811D01*
X117093574Y-90413454D01*
X117093577Y-90413466D01*
X117153915Y-90559137D01*
X117153922Y-90559150D01*
X117241523Y-90690253D01*
X117241526Y-90690257D01*
X117353020Y-90801751D01*
X117353024Y-90801754D01*
X117425839Y-90850408D01*
X117470644Y-90904020D01*
X117479351Y-90973345D01*
X117449196Y-91036373D01*
X117444629Y-91041191D01*
X115204104Y-93281716D01*
X115204096Y-93281724D01*
X115201286Y-93284535D01*
X115201284Y-93284537D01*
X115089480Y-93396341D01*
X115069170Y-93431520D01*
X115063024Y-93442164D01*
X115063023Y-93442166D01*
X115045154Y-93473116D01*
X115010423Y-93533272D01*
X114969499Y-93686000D01*
X114969499Y-93686002D01*
X114969499Y-93854103D01*
X114969500Y-93854116D01*
X114969500Y-98790281D01*
X114949815Y-98857320D01*
X114901795Y-98900765D01*
X114862185Y-98920947D01*
X114862184Y-98920948D01*
X114690213Y-99045890D01*
X114539890Y-99196213D01*
X114414951Y-99368179D01*
X114318444Y-99557585D01*
X114252753Y-99759760D01*
X114233508Y-99881271D01*
X114219500Y-99969713D01*
X114219500Y-100182287D01*
X114229534Y-100245644D01*
X114249547Y-100372000D01*
X114252754Y-100392243D01*
X114311852Y-100574128D01*
X114318444Y-100594414D01*
X114414951Y-100783820D01*
X114539890Y-100955786D01*
X114690213Y-101106109D01*
X114862179Y-101231048D01*
X114862181Y-101231049D01*
X114862184Y-101231051D01*
X115051588Y-101327557D01*
X115253757Y-101393246D01*
X115463713Y-101426500D01*
X115463714Y-101426500D01*
X115676286Y-101426500D01*
X115676287Y-101426500D01*
X115886243Y-101393246D01*
X116088412Y-101327557D01*
X116277816Y-101231051D01*
X116364478Y-101168088D01*
X116449786Y-101106109D01*
X116449788Y-101106106D01*
X116449792Y-101106104D01*
X116600104Y-100955792D01*
X116600106Y-100955788D01*
X116600109Y-100955786D01*
X116725048Y-100783820D01*
X116725047Y-100783820D01*
X116725051Y-100783816D01*
X116729514Y-100775054D01*
X116777488Y-100724259D01*
X116845308Y-100707463D01*
X116911444Y-100729999D01*
X116950486Y-100775056D01*
X116954951Y-100783820D01*
X117079890Y-100955786D01*
X117230213Y-101106109D01*
X117402179Y-101231048D01*
X117402181Y-101231049D01*
X117402184Y-101231051D01*
X117591588Y-101327557D01*
X117793757Y-101393246D01*
X118003713Y-101426500D01*
X118003714Y-101426500D01*
X118216286Y-101426500D01*
X118216287Y-101426500D01*
X118426243Y-101393246D01*
X118628412Y-101327557D01*
X118817816Y-101231051D01*
X118904478Y-101168088D01*
X118989786Y-101106109D01*
X118989788Y-101106106D01*
X118989792Y-101106104D01*
X119140104Y-100955792D01*
X119140106Y-100955788D01*
X119140109Y-100955786D01*
X119225890Y-100837717D01*
X119265051Y-100783816D01*
X119269793Y-100774508D01*
X119317763Y-100723711D01*
X119385583Y-100706911D01*
X119451719Y-100729445D01*
X119490763Y-100774500D01*
X119495373Y-100783547D01*
X119534728Y-100837716D01*
X120167037Y-100205408D01*
X120184075Y-100268993D01*
X120249901Y-100383007D01*
X120342993Y-100476099D01*
X120457007Y-100541925D01*
X120520590Y-100558962D01*
X119888282Y-101191269D01*
X119888282Y-101191270D01*
X119942449Y-101230624D01*
X120131782Y-101327095D01*
X120333870Y-101392757D01*
X120543754Y-101426000D01*
X120756246Y-101426000D01*
X120966127Y-101392757D01*
X120966130Y-101392757D01*
X121168217Y-101327095D01*
X121357554Y-101230622D01*
X121411716Y-101191270D01*
X121411717Y-101191270D01*
X120779408Y-100558962D01*
X120842993Y-100541925D01*
X120957007Y-100476099D01*
X121050099Y-100383007D01*
X121115925Y-100268993D01*
X121132962Y-100205409D01*
X121765270Y-100837717D01*
X121765270Y-100837716D01*
X121804622Y-100783555D01*
X121809232Y-100774507D01*
X121857205Y-100723709D01*
X121925025Y-100706912D01*
X121991161Y-100729447D01*
X122030204Y-100774504D01*
X122034949Y-100783817D01*
X122159890Y-100955786D01*
X122310213Y-101106109D01*
X122482179Y-101231048D01*
X122482181Y-101231049D01*
X122482184Y-101231051D01*
X122671588Y-101327557D01*
X122873757Y-101393246D01*
X123083713Y-101426500D01*
X123083714Y-101426500D01*
X123296286Y-101426500D01*
X123296287Y-101426500D01*
X123506243Y-101393246D01*
X123708412Y-101327557D01*
X123897816Y-101231051D01*
X123984478Y-101168088D01*
X124069786Y-101106109D01*
X124069788Y-101106106D01*
X124069792Y-101106104D01*
X124220104Y-100955792D01*
X124220106Y-100955788D01*
X124220109Y-100955786D01*
X124345048Y-100783820D01*
X124345047Y-100783820D01*
X124345051Y-100783816D01*
X124349514Y-100775054D01*
X124397488Y-100724259D01*
X124465308Y-100707463D01*
X124531444Y-100729999D01*
X124570486Y-100775056D01*
X124574951Y-100783820D01*
X124699890Y-100955786D01*
X124850213Y-101106109D01*
X125022179Y-101231048D01*
X125022181Y-101231049D01*
X125022184Y-101231051D01*
X125211588Y-101327557D01*
X125413757Y-101393246D01*
X125623713Y-101426500D01*
X125623714Y-101426500D01*
X125836286Y-101426500D01*
X125836287Y-101426500D01*
X126046243Y-101393246D01*
X126248412Y-101327557D01*
X126437816Y-101231051D01*
X126524478Y-101168088D01*
X126609784Y-101106110D01*
X126609784Y-101106109D01*
X126609792Y-101106104D01*
X126723717Y-100992178D01*
X126785036Y-100958696D01*
X126854728Y-100963680D01*
X126910662Y-101005551D01*
X126927577Y-101036528D01*
X126976646Y-101168088D01*
X126976649Y-101168093D01*
X127062809Y-101283187D01*
X127062812Y-101283190D01*
X127177906Y-101369350D01*
X127177913Y-101369354D01*
X127312620Y-101419596D01*
X127312627Y-101419598D01*
X127372155Y-101425999D01*
X127372172Y-101426000D01*
X128020000Y-101426000D01*
X128020000Y-100509012D01*
X128077007Y-100541925D01*
X128204174Y-100576000D01*
X128335826Y-100576000D01*
X128462993Y-100541925D01*
X128520000Y-100509012D01*
X128520000Y-101426000D01*
X129167828Y-101426000D01*
X129167844Y-101425999D01*
X129227372Y-101419598D01*
X129227379Y-101419596D01*
X129362086Y-101369354D01*
X129362093Y-101369350D01*
X129477187Y-101283190D01*
X129477190Y-101283187D01*
X129563350Y-101168093D01*
X129563354Y-101168086D01*
X129613596Y-101033379D01*
X129613598Y-101033372D01*
X129619999Y-100973844D01*
X129620000Y-100973827D01*
X129620000Y-100326000D01*
X128703012Y-100326000D01*
X128735925Y-100268993D01*
X128770000Y-100141826D01*
X128770000Y-100010174D01*
X128735925Y-99883007D01*
X128703012Y-99826000D01*
X129620000Y-99826000D01*
X129620000Y-99178172D01*
X129619999Y-99178155D01*
X129613598Y-99118627D01*
X129613596Y-99118620D01*
X129563354Y-98983913D01*
X129563350Y-98983906D01*
X129477190Y-98868812D01*
X129477187Y-98868809D01*
X129362093Y-98782649D01*
X129362086Y-98782645D01*
X129227379Y-98732403D01*
X129227372Y-98732401D01*
X129167844Y-98726000D01*
X128520000Y-98726000D01*
X128520000Y-99642988D01*
X128462993Y-99610075D01*
X128335826Y-99576000D01*
X128204174Y-99576000D01*
X128077007Y-99610075D01*
X128020000Y-99642988D01*
X128020000Y-98726000D01*
X127372155Y-98726000D01*
X127312627Y-98732401D01*
X127312620Y-98732403D01*
X127177913Y-98782645D01*
X127177906Y-98782649D01*
X127062812Y-98868809D01*
X127062809Y-98868812D01*
X126976649Y-98983906D01*
X126976646Y-98983912D01*
X126927577Y-99115471D01*
X126885705Y-99171404D01*
X126820241Y-99195821D01*
X126751968Y-99180969D01*
X126723714Y-99159818D01*
X126609786Y-99045890D01*
X126437820Y-98920951D01*
X126248414Y-98824444D01*
X126248413Y-98824443D01*
X126248412Y-98824443D01*
X126046243Y-98758754D01*
X126046241Y-98758753D01*
X126046240Y-98758753D01*
X125884957Y-98733208D01*
X125836287Y-98725500D01*
X125623713Y-98725500D01*
X125575042Y-98733208D01*
X125413760Y-98758753D01*
X125211585Y-98824444D01*
X125022179Y-98920951D01*
X124850213Y-99045890D01*
X124699890Y-99196213D01*
X124574949Y-99368182D01*
X124570484Y-99376946D01*
X124522509Y-99427742D01*
X124454688Y-99444536D01*
X124388553Y-99421998D01*
X124349516Y-99376946D01*
X124345050Y-99368182D01*
X124220109Y-99196213D01*
X124069786Y-99045890D01*
X123897820Y-98920951D01*
X123708414Y-98824444D01*
X123708413Y-98824443D01*
X123708412Y-98824443D01*
X123506243Y-98758754D01*
X123506241Y-98758753D01*
X123506240Y-98758753D01*
X123344957Y-98733208D01*
X123296287Y-98725500D01*
X123083713Y-98725500D01*
X123035042Y-98733208D01*
X122873760Y-98758753D01*
X122671585Y-98824444D01*
X122482179Y-98920951D01*
X122310213Y-99045890D01*
X122159890Y-99196213D01*
X122034949Y-99368182D01*
X122030202Y-99377499D01*
X121982227Y-99428293D01*
X121914405Y-99445087D01*
X121848271Y-99422548D01*
X121809234Y-99377495D01*
X121804626Y-99368452D01*
X121765270Y-99314282D01*
X121765269Y-99314282D01*
X121132962Y-99946590D01*
X121115925Y-99883007D01*
X121050099Y-99768993D01*
X120957007Y-99675901D01*
X120842993Y-99610075D01*
X120779409Y-99593037D01*
X121411716Y-98960728D01*
X121357550Y-98921375D01*
X121168217Y-98824904D01*
X120966129Y-98759242D01*
X120756246Y-98726000D01*
X120543754Y-98726000D01*
X120333872Y-98759242D01*
X120333869Y-98759242D01*
X120131782Y-98824904D01*
X119942439Y-98921380D01*
X119888282Y-98960727D01*
X119888282Y-98960728D01*
X120520591Y-99593037D01*
X120457007Y-99610075D01*
X120342993Y-99675901D01*
X120249901Y-99768993D01*
X120184075Y-99883007D01*
X120167037Y-99946591D01*
X119534728Y-99314282D01*
X119534727Y-99314282D01*
X119495380Y-99368440D01*
X119495376Y-99368446D01*
X119490760Y-99377505D01*
X119442781Y-99428297D01*
X119374959Y-99445087D01*
X119308826Y-99422543D01*
X119269794Y-99377493D01*
X119265051Y-99368184D01*
X119265049Y-99368181D01*
X119265048Y-99368179D01*
X119140109Y-99196213D01*
X118989786Y-99045890D01*
X118817815Y-98920948D01*
X118817814Y-98920947D01*
X118778205Y-98900765D01*
X118727409Y-98852791D01*
X118710500Y-98790281D01*
X118710500Y-93684153D01*
X118730185Y-93617114D01*
X118746814Y-93596477D01*
X119855818Y-92487472D01*
X119917141Y-92453988D01*
X119986833Y-92458972D01*
X120042766Y-92500844D01*
X120067183Y-92566308D01*
X120067499Y-92575154D01*
X120067499Y-92760181D01*
X120077562Y-92858683D01*
X120130449Y-93018284D01*
X120130454Y-93018295D01*
X120218715Y-93161387D01*
X120218718Y-93161391D01*
X120337607Y-93280280D01*
X120337611Y-93280283D01*
X120480703Y-93368544D01*
X120480706Y-93368545D01*
X120480712Y-93368549D01*
X120640314Y-93421436D01*
X120738825Y-93431500D01*
X120738830Y-93431500D01*
X121272168Y-93431500D01*
X121272173Y-93431500D01*
X121370684Y-93421436D01*
X121530286Y-93368549D01*
X121673390Y-93280281D01*
X121705319Y-93248352D01*
X121766642Y-93214867D01*
X121836334Y-93219851D01*
X121880681Y-93248352D01*
X121912609Y-93280280D01*
X121912613Y-93280283D01*
X122055705Y-93368544D01*
X122055708Y-93368545D01*
X122055714Y-93368549D01*
X122215316Y-93421436D01*
X122313827Y-93431500D01*
X122313832Y-93431500D01*
X122847170Y-93431500D01*
X122847175Y-93431500D01*
X122945686Y-93421436D01*
X123105288Y-93368549D01*
X123248392Y-93280281D01*
X123362855Y-93165818D01*
X123424178Y-93132334D01*
X123450536Y-93129500D01*
X123522844Y-93129500D01*
X123522845Y-93129499D01*
X123677497Y-93098737D01*
X123823179Y-93038394D01*
X123954289Y-92950789D01*
X124065789Y-92839289D01*
X124153394Y-92708179D01*
X124213737Y-92562497D01*
X124244500Y-92407842D01*
X124244500Y-92250158D01*
X124244500Y-92250155D01*
X124244499Y-92250153D01*
X124241641Y-92235787D01*
X124213737Y-92095503D01*
X124190954Y-92040500D01*
X124153397Y-91949827D01*
X124153390Y-91949814D01*
X124065789Y-91818711D01*
X124065786Y-91818707D01*
X123954292Y-91707213D01*
X123954288Y-91707210D01*
X123823185Y-91619609D01*
X123823172Y-91619602D01*
X123677501Y-91559264D01*
X123677491Y-91559261D01*
X123556787Y-91535251D01*
X123542804Y-91527937D01*
X123527234Y-91525381D01*
X123512482Y-91512075D01*
X123494876Y-91502866D01*
X123487066Y-91489152D01*
X123475351Y-91478585D01*
X123470134Y-91459417D01*
X123460302Y-91442150D01*
X123460912Y-91425529D01*
X123457004Y-91411167D01*
X123462274Y-91388476D01*
X123462720Y-91376339D01*
X123526269Y-91174831D01*
X123538958Y-91155923D01*
X123547558Y-91134842D01*
X123558056Y-91127468D01*
X123565206Y-91116816D01*
X123586103Y-91107770D01*
X123604735Y-91094685D01*
X123617550Y-91094157D01*
X123629326Y-91089061D01*
X123651796Y-91092749D01*
X123674545Y-91091814D01*
X123686169Y-91098392D01*
X123698273Y-91100379D01*
X123712740Y-91113428D01*
X123732209Y-91124445D01*
X123742606Y-91134842D01*
X126039284Y-93431520D01*
X126039286Y-93431521D01*
X126045735Y-93436470D01*
X126045033Y-93437384D01*
X126080007Y-93470504D01*
X126086687Y-93480744D01*
X126087997Y-93484697D01*
X126177032Y-93629044D01*
X126195432Y-93647444D01*
X126202482Y-93658251D01*
X126208983Y-93679848D01*
X126219792Y-93699642D01*
X126218861Y-93712658D01*
X126222623Y-93725154D01*
X126216416Y-93746835D01*
X126214808Y-93769334D01*
X126206097Y-93782886D01*
X126203396Y-93792326D01*
X126195668Y-93799115D01*
X126186307Y-93813681D01*
X126177032Y-93822955D01*
X126177029Y-93822959D01*
X126088001Y-93967294D01*
X126087996Y-93967305D01*
X126034651Y-94128290D01*
X126024500Y-94227647D01*
X126024500Y-94774337D01*
X126024501Y-94774355D01*
X126034650Y-94873707D01*
X126034651Y-94873710D01*
X126087996Y-95034694D01*
X126088001Y-95034705D01*
X126177029Y-95179040D01*
X126177032Y-95179044D01*
X126296955Y-95298967D01*
X126296959Y-95298970D01*
X126441294Y-95387998D01*
X126441297Y-95387999D01*
X126441303Y-95388003D01*
X126602292Y-95441349D01*
X126701655Y-95451500D01*
X127062902Y-95451499D01*
X127129941Y-95471183D01*
X127150583Y-95487818D01*
X130173181Y-98510416D01*
X130206666Y-98571739D01*
X130209500Y-98598097D01*
X130209500Y-100497330D01*
X130209499Y-100497348D01*
X130209499Y-100663054D01*
X130209498Y-100663054D01*
X130250423Y-100815785D01*
X130271988Y-100853135D01*
X130271989Y-100853139D01*
X130329475Y-100952709D01*
X130329481Y-100952717D01*
X130448349Y-101071585D01*
X130448355Y-101071590D01*
X130863139Y-101486374D01*
X130863149Y-101486385D01*
X130867479Y-101490715D01*
X130867480Y-101490716D01*
X130979284Y-101602520D01*
X131066095Y-101652639D01*
X131066096Y-101652640D01*
X131086715Y-101664544D01*
X131107975Y-101676819D01*
X131156191Y-101727386D01*
X131162157Y-101740873D01*
X131208202Y-101864328D01*
X131208204Y-101864331D01*
X131223069Y-101884188D01*
X131247487Y-101949652D01*
X131232636Y-102017926D01*
X131183231Y-102067331D01*
X131123803Y-102082500D01*
X113916500Y-102082500D01*
X113849461Y-102062815D01*
X113803706Y-102010011D01*
X113792500Y-101958500D01*
X113792500Y-91873818D01*
X113812185Y-91806779D01*
X113864989Y-91761024D01*
X113934147Y-91751080D01*
X113997703Y-91780105D01*
X114023887Y-91811819D01*
X114073475Y-91897709D01*
X114073479Y-91897714D01*
X114073480Y-91897716D01*
X114111480Y-91935716D01*
X114223284Y-92047520D01*
X114306394Y-92095503D01*
X114350843Y-92121166D01*
X114351484Y-92121536D01*
X114351485Y-92121537D01*
X114377162Y-92141241D01*
X114424707Y-92188786D01*
X114424711Y-92188789D01*
X114555814Y-92276390D01*
X114555827Y-92276397D01*
X114701498Y-92336735D01*
X114701503Y-92336737D01*
X114856153Y-92367499D01*
X114856156Y-92367500D01*
X114856158Y-92367500D01*
X115013844Y-92367500D01*
X115013845Y-92367499D01*
X115168497Y-92336737D01*
X115281166Y-92290067D01*
X115314172Y-92276397D01*
X115314172Y-92276396D01*
X115314179Y-92276394D01*
X115445289Y-92188789D01*
X115556789Y-92077289D01*
X115644394Y-91946179D01*
X115704737Y-91800497D01*
X115735500Y-91645842D01*
X115735500Y-91488158D01*
X115735500Y-91488155D01*
X115735499Y-91488153D01*
X115728964Y-91455301D01*
X115704737Y-91333503D01*
X115677810Y-91268497D01*
X115670342Y-91199028D01*
X115686832Y-91155949D01*
X115720549Y-91101288D01*
X115773436Y-90941686D01*
X115783500Y-90843175D01*
X115783500Y-90309827D01*
X115773436Y-90211316D01*
X115720549Y-90051714D01*
X115720545Y-90051708D01*
X115720544Y-90051705D01*
X115632283Y-89908613D01*
X115632280Y-89908609D01*
X115600352Y-89876681D01*
X115566867Y-89815358D01*
X115571851Y-89745666D01*
X115600352Y-89701319D01*
X115601971Y-89699700D01*
X115632281Y-89669390D01*
X115720549Y-89526286D01*
X115773436Y-89366684D01*
X115783500Y-89268173D01*
X115783500Y-88734825D01*
X115773436Y-88636314D01*
X115720549Y-88476712D01*
X115720547Y-88476709D01*
X115719154Y-88472504D01*
X115718174Y-88444039D01*
X115714122Y-88415853D01*
X115716989Y-88409574D01*
X115716752Y-88402676D01*
X115731315Y-88378204D01*
X115743147Y-88352297D01*
X115748954Y-88348564D01*
X115752484Y-88342634D01*
X115777966Y-88329920D01*
X115801925Y-88314523D01*
X115811620Y-88313128D01*
X115815004Y-88311441D01*
X115836860Y-88309500D01*
X115915556Y-88309500D01*
X115982595Y-88329185D01*
G37*
%TD.AperFunction*%
%TA.AperFunction,Conductor*%
G36*
X140161802Y-92060185D02*
G01*
X140207557Y-92112989D01*
X140217501Y-92182147D01*
X140188476Y-92245703D01*
X140133768Y-92282205D01*
X140119083Y-92287071D01*
X140106668Y-92291185D01*
X140106663Y-92291187D01*
X139957342Y-92383289D01*
X139833289Y-92507342D01*
X139741187Y-92656663D01*
X139741185Y-92656668D01*
X139724116Y-92708179D01*
X139686001Y-92823203D01*
X139686001Y-92823204D01*
X139686000Y-92823204D01*
X139675500Y-92925983D01*
X139675500Y-94526001D01*
X139675501Y-94526018D01*
X139686000Y-94628796D01*
X139686001Y-94628799D01*
X139734228Y-94774337D01*
X139741186Y-94795334D01*
X139833288Y-94944656D01*
X139957344Y-95068712D01*
X140106666Y-95160814D01*
X140273203Y-95215999D01*
X140375991Y-95226500D01*
X147747500Y-95226499D01*
X147814539Y-95246184D01*
X147860294Y-95298988D01*
X147871500Y-95350499D01*
X147871500Y-101958500D01*
X147851815Y-102025539D01*
X147799011Y-102071294D01*
X147747500Y-102082500D01*
X137680197Y-102082500D01*
X137613158Y-102062815D01*
X137567403Y-102010011D01*
X137557459Y-101940853D01*
X137568734Y-101904168D01*
X137573885Y-101893599D01*
X137595796Y-101864331D01*
X137620700Y-101797557D01*
X137623328Y-101792168D01*
X137642987Y-101770600D01*
X137660480Y-101747233D01*
X137666249Y-101745081D01*
X137670397Y-101740531D01*
X137698598Y-101733015D01*
X137725944Y-101722816D01*
X137734791Y-101722500D01*
X138821331Y-101722500D01*
X138821347Y-101722501D01*
X138828943Y-101722501D01*
X138987054Y-101722501D01*
X138987057Y-101722501D01*
X139139785Y-101681577D01*
X139189904Y-101652639D01*
X139276716Y-101602520D01*
X139292864Y-101586371D01*
X139304106Y-101579154D01*
X139325326Y-101572933D01*
X139344736Y-101562334D01*
X139371099Y-101559499D01*
X139731839Y-101559499D01*
X139731845Y-101559499D01*
X139731853Y-101559498D01*
X139731856Y-101559498D01*
X139786261Y-101553940D01*
X139831209Y-101549349D01*
X139992198Y-101496003D01*
X140136545Y-101406968D01*
X140146169Y-101397343D01*
X140207488Y-101363856D01*
X140277180Y-101368835D01*
X140321535Y-101397339D01*
X140330768Y-101406572D01*
X140330772Y-101406575D01*
X140475008Y-101495542D01*
X140475019Y-101495547D01*
X140635894Y-101548855D01*
X140735184Y-101558999D01*
X141258501Y-101558999D01*
X141281809Y-101558999D01*
X141281823Y-101558998D01*
X141381108Y-101548855D01*
X141541982Y-101495547D01*
X141541993Y-101495542D01*
X141686229Y-101406575D01*
X141686233Y-101406572D01*
X141806073Y-101286732D01*
X141806076Y-101286728D01*
X141895043Y-101142492D01*
X141895048Y-101142481D01*
X141948356Y-100981606D01*
X141958500Y-100882322D01*
X141958501Y-100882309D01*
X141958501Y-100834000D01*
X141258501Y-100834000D01*
X141258501Y-101558999D01*
X140735184Y-101558999D01*
X140758501Y-101558998D01*
X140758501Y-100708000D01*
X140778186Y-100640961D01*
X140830990Y-100595206D01*
X140882501Y-100584000D01*
X141008501Y-100584000D01*
X141008501Y-100458000D01*
X141028186Y-100390961D01*
X141080990Y-100345206D01*
X141132501Y-100334000D01*
X141958500Y-100334000D01*
X141958500Y-100285692D01*
X141958499Y-100285677D01*
X141948356Y-100186392D01*
X141895048Y-100025518D01*
X141895043Y-100025507D01*
X141860628Y-99969713D01*
X144699500Y-99969713D01*
X144699500Y-100182287D01*
X144709534Y-100245644D01*
X144729547Y-100372000D01*
X144732754Y-100392243D01*
X144791852Y-100574128D01*
X144798444Y-100594414D01*
X144894951Y-100783820D01*
X145019890Y-100955786D01*
X145170213Y-101106109D01*
X145342179Y-101231048D01*
X145342181Y-101231049D01*
X145342184Y-101231051D01*
X145531588Y-101327557D01*
X145733757Y-101393246D01*
X145943713Y-101426500D01*
X145943714Y-101426500D01*
X146156286Y-101426500D01*
X146156287Y-101426500D01*
X146366243Y-101393246D01*
X146568412Y-101327557D01*
X146757816Y-101231051D01*
X146844478Y-101168088D01*
X146929786Y-101106109D01*
X146929788Y-101106106D01*
X146929792Y-101106104D01*
X147080104Y-100955792D01*
X147080106Y-100955788D01*
X147080109Y-100955786D01*
X147205048Y-100783820D01*
X147205047Y-100783820D01*
X147205051Y-100783816D01*
X147301557Y-100594412D01*
X147367246Y-100392243D01*
X147400500Y-100182287D01*
X147400500Y-99969713D01*
X147367246Y-99759757D01*
X147301557Y-99557588D01*
X147205051Y-99368184D01*
X147205049Y-99368181D01*
X147205048Y-99368179D01*
X147080109Y-99196213D01*
X146929786Y-99045890D01*
X146757820Y-98920951D01*
X146568414Y-98824444D01*
X146568413Y-98824443D01*
X146568412Y-98824443D01*
X146366243Y-98758754D01*
X146366241Y-98758753D01*
X146366240Y-98758753D01*
X146204957Y-98733208D01*
X146156287Y-98725500D01*
X145943713Y-98725500D01*
X145895042Y-98733208D01*
X145733760Y-98758753D01*
X145531585Y-98824444D01*
X145342179Y-98920951D01*
X145170213Y-99045890D01*
X145019890Y-99196213D01*
X144894951Y-99368179D01*
X144798444Y-99557585D01*
X144732753Y-99759760D01*
X144713508Y-99881271D01*
X144699500Y-99969713D01*
X141860628Y-99969713D01*
X141806076Y-99881271D01*
X141806073Y-99881267D01*
X141741724Y-99816918D01*
X141708239Y-99755595D01*
X141713223Y-99685903D01*
X141755095Y-99629970D01*
X141805214Y-99607620D01*
X141879717Y-99592799D01*
X141965497Y-99575737D01*
X142111179Y-99515394D01*
X142242289Y-99427789D01*
X142353789Y-99316289D01*
X142441394Y-99185179D01*
X142501737Y-99039497D01*
X142532500Y-98884842D01*
X142532500Y-98727158D01*
X142532500Y-98727155D01*
X142532499Y-98727153D01*
X142501738Y-98572510D01*
X142501737Y-98572503D01*
X142480818Y-98522000D01*
X142441397Y-98426827D01*
X142441390Y-98426814D01*
X142353789Y-98295711D01*
X142353786Y-98295707D01*
X142242292Y-98184213D01*
X142242288Y-98184210D01*
X142111185Y-98096609D01*
X142111172Y-98096602D01*
X141965501Y-98036264D01*
X141965489Y-98036261D01*
X141810845Y-98005500D01*
X141810842Y-98005500D01*
X141736568Y-98005500D01*
X141669529Y-97985815D01*
X141666331Y-97983531D01*
X141520296Y-97893455D01*
X141520290Y-97893452D01*
X141520288Y-97893451D01*
X141360686Y-97840564D01*
X141360684Y-97840563D01*
X141262182Y-97830500D01*
X141262175Y-97830500D01*
X140728827Y-97830500D01*
X140728819Y-97830500D01*
X140630317Y-97840563D01*
X140630316Y-97840564D01*
X140551220Y-97866773D01*
X140470716Y-97893450D01*
X140470705Y-97893455D01*
X140327613Y-97981716D01*
X140327608Y-97981719D01*
X140295680Y-98013648D01*
X140234356Y-98047133D01*
X140164665Y-98042147D01*
X140120320Y-98013648D01*
X140088391Y-97981719D01*
X140088386Y-97981716D01*
X139945294Y-97893455D01*
X139945288Y-97893452D01*
X139945286Y-97893451D01*
X139785684Y-97840564D01*
X139785682Y-97840563D01*
X139687180Y-97830500D01*
X139687173Y-97830500D01*
X139153825Y-97830500D01*
X139153817Y-97830500D01*
X139055315Y-97840563D01*
X139055314Y-97840564D01*
X138976218Y-97866773D01*
X138895714Y-97893450D01*
X138895703Y-97893455D01*
X138752611Y-97981716D01*
X138752607Y-97981719D01*
X138633718Y-98100608D01*
X138633715Y-98100612D01*
X138545454Y-98243704D01*
X138545449Y-98243715D01*
X138518772Y-98324219D01*
X138492563Y-98403315D01*
X138492563Y-98403316D01*
X138492562Y-98403316D01*
X138482499Y-98501818D01*
X138482499Y-99110181D01*
X138492562Y-99208683D01*
X138545449Y-99368284D01*
X138545454Y-99368295D01*
X138633715Y-99511387D01*
X138633718Y-99511391D01*
X138744226Y-99621899D01*
X138777711Y-99683222D01*
X138772727Y-99752914D01*
X138744227Y-99797260D01*
X138660533Y-99880955D01*
X138660530Y-99880959D01*
X138571502Y-100025294D01*
X138571497Y-100025305D01*
X138518152Y-100186290D01*
X138508001Y-100285647D01*
X138508001Y-100397500D01*
X138488316Y-100464539D01*
X138435512Y-100510294D01*
X138384001Y-100521500D01*
X137734791Y-100521500D01*
X137713546Y-100515261D01*
X137691461Y-100513683D01*
X137680675Y-100505609D01*
X137667752Y-100501815D01*
X137653255Y-100485084D01*
X137635526Y-100471814D01*
X137624909Y-100452372D01*
X137621997Y-100449011D01*
X137618611Y-100440838D01*
X137614402Y-100429554D01*
X137609098Y-100415335D01*
X137604112Y-100345646D01*
X137609092Y-100328680D01*
X137646091Y-100229483D01*
X137652500Y-100169873D01*
X137652499Y-99474128D01*
X137646091Y-99414517D01*
X137632286Y-99377505D01*
X137608831Y-99314618D01*
X137603847Y-99244927D01*
X137608831Y-99227951D01*
X137645597Y-99129376D01*
X137645598Y-99129372D01*
X137651999Y-99069844D01*
X137652000Y-99069827D01*
X137652000Y-98772000D01*
X136776000Y-98772000D01*
X136708961Y-98752315D01*
X136663206Y-98699511D01*
X136652000Y-98648000D01*
X136652000Y-98522000D01*
X136526000Y-98522000D01*
X136458961Y-98502315D01*
X136413206Y-98449511D01*
X136402000Y-98398000D01*
X136402000Y-98272000D01*
X136902000Y-98272000D01*
X137652000Y-98272000D01*
X137652000Y-97974172D01*
X137651999Y-97974155D01*
X137645598Y-97914627D01*
X137645596Y-97914620D01*
X137595354Y-97779913D01*
X137595350Y-97779906D01*
X137509190Y-97664812D01*
X137509187Y-97664809D01*
X137394093Y-97578649D01*
X137394086Y-97578645D01*
X137259379Y-97528403D01*
X137259372Y-97528401D01*
X137199844Y-97522000D01*
X136902000Y-97522000D01*
X136902000Y-98272000D01*
X136402000Y-98272000D01*
X136402000Y-97522000D01*
X136104155Y-97522000D01*
X136044627Y-97528401D01*
X136044620Y-97528403D01*
X135909913Y-97578645D01*
X135909910Y-97578647D01*
X135801728Y-97659632D01*
X135736263Y-97684049D01*
X135667990Y-97669197D01*
X135653106Y-97659632D01*
X135544332Y-97578204D01*
X135544329Y-97578202D01*
X135409487Y-97527910D01*
X135409486Y-97527909D01*
X135409484Y-97527909D01*
X135349874Y-97521500D01*
X135349864Y-97521500D01*
X134654130Y-97521500D01*
X134654124Y-97521501D01*
X134594517Y-97527908D01*
X134451360Y-97581303D01*
X134450715Y-97579574D01*
X134393154Y-97592096D01*
X134353010Y-97580308D01*
X134352640Y-97581303D01*
X134209485Y-97527910D01*
X134209484Y-97527909D01*
X134209482Y-97527909D01*
X134149872Y-97521500D01*
X134149862Y-97521500D01*
X133454128Y-97521500D01*
X133454122Y-97521501D01*
X133394515Y-97527908D01*
X133259670Y-97578202D01*
X133259667Y-97578204D01*
X133150894Y-97659632D01*
X133085430Y-97684049D01*
X133017157Y-97669197D01*
X133002272Y-97659632D01*
X132894089Y-97578647D01*
X132894086Y-97578645D01*
X132759379Y-97528403D01*
X132759372Y-97528401D01*
X132699844Y-97522000D01*
X132402000Y-97522000D01*
X132402000Y-98398000D01*
X132382315Y-98465039D01*
X132329511Y-98510794D01*
X132278000Y-98522000D01*
X132026000Y-98522000D01*
X131958961Y-98502315D01*
X131913206Y-98449511D01*
X131902000Y-98398000D01*
X131902000Y-97522000D01*
X131604155Y-97522000D01*
X131544627Y-97528401D01*
X131544620Y-97528403D01*
X131409913Y-97578645D01*
X131409906Y-97578649D01*
X131294812Y-97664809D01*
X131265507Y-97703956D01*
X131209573Y-97745826D01*
X131139881Y-97750810D01*
X131078560Y-97717325D01*
X128799415Y-95438180D01*
X128765930Y-95376857D01*
X128770914Y-95307165D01*
X128812786Y-95251232D01*
X128878250Y-95226815D01*
X128887096Y-95226499D01*
X135976002Y-95226499D01*
X135976008Y-95226499D01*
X136078797Y-95215999D01*
X136245334Y-95160814D01*
X136394656Y-95068712D01*
X136518712Y-94944656D01*
X136610814Y-94795334D01*
X136665999Y-94628797D01*
X136676500Y-94526009D01*
X136676499Y-92925992D01*
X136665999Y-92823203D01*
X136610814Y-92656666D01*
X136518712Y-92507344D01*
X136394656Y-92383288D01*
X136245334Y-92291186D01*
X136218231Y-92282205D01*
X136160788Y-92242433D01*
X136133965Y-92177917D01*
X136146280Y-92109142D01*
X136193823Y-92057942D01*
X136257237Y-92040500D01*
X140094763Y-92040500D01*
X140161802Y-92060185D01*
G37*
%TD.AperFunction*%
%TA.AperFunction,Conductor*%
G36*
X118841988Y-91557481D02*
G01*
X118897165Y-91600344D01*
X118920410Y-91666233D01*
X118904342Y-91734230D01*
X118884269Y-91760552D01*
X117629481Y-93015339D01*
X117629477Y-93015344D01*
X117581332Y-93098736D01*
X117581331Y-93098735D01*
X117550424Y-93152268D01*
X117550423Y-93152272D01*
X117509499Y-93305000D01*
X117509499Y-93305002D01*
X117509499Y-93473103D01*
X117509500Y-93473116D01*
X117509500Y-98790281D01*
X117489815Y-98857320D01*
X117441795Y-98900765D01*
X117402185Y-98920947D01*
X117402184Y-98920948D01*
X117230213Y-99045890D01*
X117079890Y-99196213D01*
X116954949Y-99368182D01*
X116950484Y-99376946D01*
X116902509Y-99427742D01*
X116834688Y-99444536D01*
X116768553Y-99421998D01*
X116729516Y-99376946D01*
X116725050Y-99368182D01*
X116600109Y-99196213D01*
X116449786Y-99045890D01*
X116277815Y-98920948D01*
X116277814Y-98920947D01*
X116238205Y-98900765D01*
X116187409Y-98852791D01*
X116170500Y-98790281D01*
X116170500Y-94065154D01*
X116190185Y-93998115D01*
X116206819Y-93977473D01*
X117361092Y-92823200D01*
X118571837Y-91612454D01*
X118588433Y-91603392D01*
X118602041Y-91590262D01*
X118631537Y-91579855D01*
X118633158Y-91578971D01*
X118635324Y-91578520D01*
X118694283Y-91566792D01*
X118772397Y-91551254D01*
X118841988Y-91557481D01*
G37*
%TD.AperFunction*%
%TA.AperFunction,Conductor*%
G36*
X147814539Y-77769185D02*
G01*
X147860294Y-77821989D01*
X147871500Y-77873500D01*
X147871500Y-82963464D01*
X147851815Y-83030503D01*
X147799011Y-83076258D01*
X147729853Y-83086202D01*
X147682404Y-83069003D01*
X147642641Y-83044477D01*
X147624334Y-83033186D01*
X147457797Y-82978001D01*
X147457795Y-82978000D01*
X147355010Y-82967500D01*
X145954998Y-82967500D01*
X145954981Y-82967501D01*
X145852203Y-82978000D01*
X145852200Y-82978001D01*
X145685668Y-83033185D01*
X145685663Y-83033187D01*
X145536342Y-83125289D01*
X145412289Y-83249342D01*
X145320187Y-83398663D01*
X145320186Y-83398666D01*
X145265001Y-83565203D01*
X145265001Y-83565204D01*
X145265000Y-83565204D01*
X145254500Y-83667983D01*
X145254500Y-84468001D01*
X145254501Y-84468019D01*
X145265000Y-84570796D01*
X145265001Y-84570799D01*
X145308984Y-84703530D01*
X145320186Y-84737334D01*
X145412288Y-84886656D01*
X145536344Y-85010712D01*
X145685666Y-85102814D01*
X145852203Y-85157999D01*
X145954991Y-85168500D01*
X147355008Y-85168499D01*
X147457797Y-85157999D01*
X147624334Y-85102814D01*
X147682403Y-85066997D01*
X147749795Y-85048556D01*
X147816459Y-85069478D01*
X147861229Y-85123120D01*
X147871500Y-85172535D01*
X147871500Y-88563464D01*
X147851815Y-88630503D01*
X147799011Y-88676258D01*
X147729853Y-88686202D01*
X147682404Y-88669003D01*
X147624340Y-88633190D01*
X147624334Y-88633186D01*
X147457797Y-88578001D01*
X147457795Y-88578000D01*
X147355010Y-88567500D01*
X145954998Y-88567500D01*
X145954981Y-88567501D01*
X145852203Y-88578000D01*
X145852200Y-88578001D01*
X145685668Y-88633185D01*
X145685663Y-88633187D01*
X145536342Y-88725289D01*
X145412289Y-88849342D01*
X145320187Y-88998663D01*
X145320185Y-88998668D01*
X145307921Y-89035678D01*
X145265001Y-89165203D01*
X145265001Y-89165204D01*
X145265000Y-89165204D01*
X145254500Y-89267983D01*
X145254500Y-90068001D01*
X145254501Y-90068019D01*
X145265000Y-90170796D01*
X145265001Y-90170799D01*
X145320185Y-90337331D01*
X145320187Y-90337336D01*
X145333056Y-90358200D01*
X145412288Y-90486656D01*
X145536344Y-90610712D01*
X145685666Y-90702814D01*
X145852203Y-90757999D01*
X145954991Y-90768500D01*
X147355008Y-90768499D01*
X147457797Y-90757999D01*
X147624334Y-90702814D01*
X147682403Y-90666997D01*
X147749795Y-90648556D01*
X147816459Y-90669478D01*
X147861229Y-90723120D01*
X147871500Y-90772535D01*
X147871500Y-92101500D01*
X147851815Y-92168539D01*
X147799011Y-92214294D01*
X147747500Y-92225500D01*
X143513601Y-92225500D01*
X143446562Y-92205815D01*
X143425920Y-92189181D01*
X142315093Y-91078355D01*
X142315091Y-91078352D01*
X142196220Y-90959481D01*
X142196212Y-90959475D01*
X142074766Y-90889359D01*
X142074763Y-90889358D01*
X142059288Y-90880423D01*
X141906560Y-90839499D01*
X141748446Y-90839499D01*
X141740850Y-90839499D01*
X141740834Y-90839500D01*
X126125346Y-90839500D01*
X126058307Y-90819815D01*
X126037665Y-90803181D01*
X125768165Y-90533681D01*
X125734680Y-90472358D01*
X125739664Y-90402666D01*
X125781536Y-90346733D01*
X125847000Y-90322316D01*
X125907358Y-90333206D01*
X126029579Y-90389023D01*
X126029580Y-90389023D01*
X126029582Y-90389024D01*
X126171998Y-90409500D01*
X126172001Y-90409500D01*
X127171998Y-90409500D01*
X127243938Y-90404355D01*
X127381990Y-90363819D01*
X127503030Y-90286031D01*
X127597252Y-90177294D01*
X127647682Y-90066867D01*
X127693435Y-90014066D01*
X127760475Y-89994381D01*
X127827514Y-90014065D01*
X127858849Y-90042892D01*
X127878460Y-90068449D01*
X127971552Y-90161541D01*
X127971556Y-90161544D01*
X128076233Y-90241867D01*
X128076237Y-90241869D01*
X128076244Y-90241875D01*
X128076251Y-90241879D01*
X128190249Y-90307696D01*
X128190250Y-90307697D01*
X128190253Y-90307698D01*
X128190258Y-90307701D01*
X128312172Y-90358200D01*
X128439339Y-90392275D01*
X128570175Y-90409500D01*
X128570182Y-90409500D01*
X129136001Y-90409500D01*
X129207941Y-90404355D01*
X129228012Y-90398461D01*
X129245257Y-90393398D01*
X129297840Y-90389636D01*
X129435999Y-90409500D01*
X129436002Y-90409500D01*
X130001818Y-90409500D01*
X130001825Y-90409500D01*
X130132661Y-90392275D01*
X130259828Y-90358200D01*
X130381742Y-90307701D01*
X130495756Y-90241875D01*
X130600448Y-90161541D01*
X130693540Y-90068449D01*
X130773874Y-89963757D01*
X130778284Y-89956119D01*
X130828849Y-89907901D01*
X130838199Y-89903563D01*
X130935179Y-89863394D01*
X131066289Y-89775789D01*
X131177789Y-89664289D01*
X131265394Y-89533179D01*
X131325737Y-89387497D01*
X131356500Y-89232842D01*
X131356500Y-89075158D01*
X131356500Y-89075155D01*
X131356499Y-89075153D01*
X131347376Y-89029288D01*
X131325737Y-88920503D01*
X131316487Y-88898172D01*
X131265397Y-88774827D01*
X131265390Y-88774814D01*
X131177789Y-88643711D01*
X131177786Y-88643707D01*
X131066292Y-88532213D01*
X131066288Y-88532210D01*
X130935185Y-88444609D01*
X130935175Y-88444604D01*
X130838218Y-88404443D01*
X130783815Y-88360602D01*
X130778295Y-88351901D01*
X130773874Y-88344243D01*
X130772639Y-88342634D01*
X130693543Y-88239555D01*
X130693540Y-88239551D01*
X130600448Y-88146459D01*
X130600443Y-88146455D01*
X130495766Y-88066132D01*
X130495748Y-88066120D01*
X130381750Y-88000303D01*
X130381749Y-88000302D01*
X130379880Y-87999528D01*
X130259828Y-87949800D01*
X130132661Y-87915725D01*
X130132660Y-87915724D01*
X130132657Y-87915724D01*
X130001832Y-87898500D01*
X130001825Y-87898500D01*
X129435999Y-87898500D01*
X129435996Y-87898500D01*
X129364059Y-87903644D01*
X129326737Y-87914603D01*
X129274158Y-87918363D01*
X129136001Y-87898500D01*
X128570175Y-87898500D01*
X128570167Y-87898500D01*
X128439342Y-87915724D01*
X128312171Y-87949800D01*
X128190250Y-88000302D01*
X128190249Y-88000303D01*
X128076251Y-88066120D01*
X128076233Y-88066132D01*
X127971556Y-88146455D01*
X127971546Y-88146464D01*
X127878465Y-88239545D01*
X127878460Y-88239551D01*
X127858334Y-88265779D01*
X127801905Y-88306980D01*
X127732159Y-88311133D01*
X127671239Y-88276919D01*
X127640983Y-88225226D01*
X127631817Y-88194008D01*
X127601259Y-88146459D01*
X127554030Y-88072969D01*
X127554026Y-88072965D01*
X127445297Y-87978750D01*
X127445295Y-87978748D01*
X127445292Y-87978746D01*
X127445288Y-87978744D01*
X127314417Y-87918976D01*
X127314412Y-87918975D01*
X127171998Y-87898500D01*
X126780096Y-87898500D01*
X126713057Y-87878815D01*
X126692415Y-87862181D01*
X126351415Y-87521181D01*
X126317930Y-87459858D01*
X126322914Y-87390166D01*
X126364786Y-87334233D01*
X126430250Y-87309816D01*
X126439096Y-87309500D01*
X134000480Y-87309500D01*
X134067519Y-87329185D01*
X134113274Y-87381989D01*
X134123218Y-87451147D01*
X134094193Y-87514703D01*
X134088161Y-87521181D01*
X134043531Y-87565810D01*
X134043530Y-87565811D01*
X133955522Y-87711393D01*
X133904913Y-87873807D01*
X133902202Y-87903644D01*
X133898500Y-87944384D01*
X133898500Y-88457616D01*
X133899853Y-88472504D01*
X133904913Y-88528192D01*
X133904913Y-88528194D01*
X133904914Y-88528196D01*
X133955522Y-88690606D01*
X134008473Y-88778198D01*
X134043530Y-88836188D01*
X134061308Y-88853966D01*
X134094793Y-88915289D01*
X134095244Y-88965838D01*
X134073500Y-89075153D01*
X134073500Y-89232846D01*
X134104261Y-89387489D01*
X134104264Y-89387501D01*
X134164602Y-89533172D01*
X134164609Y-89533185D01*
X134252210Y-89664288D01*
X134252213Y-89664292D01*
X134363707Y-89775786D01*
X134363711Y-89775789D01*
X134494814Y-89863390D01*
X134494827Y-89863397D01*
X134630667Y-89919663D01*
X134640503Y-89923737D01*
X134754754Y-89946463D01*
X134795153Y-89954499D01*
X134795156Y-89954500D01*
X134795158Y-89954500D01*
X134952844Y-89954500D01*
X134952845Y-89954499D01*
X135107497Y-89923737D01*
X135253179Y-89863394D01*
X135384289Y-89775789D01*
X135495789Y-89664289D01*
X135583394Y-89533179D01*
X135643737Y-89387497D01*
X135674500Y-89232842D01*
X135674500Y-89075158D01*
X135674500Y-89075155D01*
X135652755Y-88965838D01*
X135658982Y-88896246D01*
X135686691Y-88853965D01*
X135704472Y-88836185D01*
X135792478Y-88690606D01*
X135815102Y-88618001D01*
X141507704Y-88618001D01*
X141507899Y-88620486D01*
X141553718Y-88778198D01*
X141637314Y-88919552D01*
X141637321Y-88919561D01*
X141753438Y-89035678D01*
X141753447Y-89035685D01*
X141894803Y-89119282D01*
X141894806Y-89119283D01*
X142052504Y-89165099D01*
X142052510Y-89165100D01*
X142089350Y-89167999D01*
X142089366Y-89168000D01*
X142530000Y-89168000D01*
X143030000Y-89168000D01*
X143470634Y-89168000D01*
X143470649Y-89167999D01*
X143507489Y-89165100D01*
X143507495Y-89165099D01*
X143665193Y-89119283D01*
X143665196Y-89119282D01*
X143806552Y-89035685D01*
X143806561Y-89035678D01*
X143922678Y-88919561D01*
X143922685Y-88919552D01*
X144006281Y-88778198D01*
X144052100Y-88620486D01*
X144052295Y-88618001D01*
X144052295Y-88618000D01*
X143030000Y-88618000D01*
X143030000Y-89168000D01*
X142530000Y-89168000D01*
X142530000Y-88618000D01*
X141507705Y-88618000D01*
X141507704Y-88618001D01*
X135815102Y-88618001D01*
X135843086Y-88528196D01*
X135849500Y-88457616D01*
X135849500Y-87944384D01*
X135843086Y-87873804D01*
X135792478Y-87711394D01*
X135704472Y-87565815D01*
X135704470Y-87565813D01*
X135704469Y-87565811D01*
X135602339Y-87463681D01*
X135598000Y-87455735D01*
X135590753Y-87450310D01*
X135581518Y-87425550D01*
X135568854Y-87402358D01*
X135569499Y-87393328D01*
X135566336Y-87384846D01*
X135571952Y-87359025D01*
X135573838Y-87332666D01*
X135579656Y-87323612D01*
X135581188Y-87316573D01*
X135602339Y-87288319D01*
X135702839Y-87187819D01*
X135764162Y-87154334D01*
X135790520Y-87151500D01*
X139422331Y-87151500D01*
X139422347Y-87151501D01*
X139429943Y-87151501D01*
X139588054Y-87151501D01*
X139588057Y-87151501D01*
X139740785Y-87110577D01*
X139814750Y-87067873D01*
X139877716Y-87031520D01*
X139989520Y-86919716D01*
X139989520Y-86919714D01*
X139999724Y-86909511D01*
X139999727Y-86909506D01*
X140704417Y-86204819D01*
X140765740Y-86171334D01*
X140792098Y-86168500D01*
X140794844Y-86168500D01*
X140794845Y-86168499D01*
X140949497Y-86137737D01*
X141095179Y-86077394D01*
X141149663Y-86040989D01*
X141226875Y-85989398D01*
X141244921Y-85983747D01*
X141260831Y-85973523D01*
X141291792Y-85969071D01*
X141293553Y-85968520D01*
X141295766Y-85968500D01*
X141385539Y-85968500D01*
X141452578Y-85988185D01*
X141498333Y-86040989D01*
X141508277Y-86110147D01*
X141507520Y-86114785D01*
X141507401Y-86115431D01*
X141504500Y-86152298D01*
X141504500Y-86464517D01*
X141484815Y-86531556D01*
X141432011Y-86577311D01*
X141362853Y-86587255D01*
X141356310Y-86586135D01*
X141302842Y-86575500D01*
X141145158Y-86575500D01*
X141145155Y-86575500D01*
X140990510Y-86606261D01*
X140990498Y-86606264D01*
X140844827Y-86666602D01*
X140844814Y-86666609D01*
X140713711Y-86754210D01*
X140713707Y-86754213D01*
X140602213Y-86865707D01*
X140602210Y-86865711D01*
X140514609Y-86996814D01*
X140514602Y-86996827D01*
X140454264Y-87142498D01*
X140454261Y-87142510D01*
X140423500Y-87297153D01*
X140423500Y-87454846D01*
X140454261Y-87609489D01*
X140454264Y-87609501D01*
X140514602Y-87755172D01*
X140514609Y-87755185D01*
X140602210Y-87886288D01*
X140602213Y-87886292D01*
X140713707Y-87997786D01*
X140713711Y-87997789D01*
X140844814Y-88085390D01*
X140844827Y-88085397D01*
X140935427Y-88122924D01*
X140990503Y-88145737D01*
X141104935Y-88168499D01*
X141145153Y-88176499D01*
X141145156Y-88176500D01*
X141145158Y-88176500D01*
X141302844Y-88176500D01*
X141302845Y-88176499D01*
X141457497Y-88145737D01*
X141484626Y-88134500D01*
X141500466Y-88127939D01*
X141547918Y-88118500D01*
X141872672Y-88118500D01*
X141907267Y-88123424D01*
X142052426Y-88165597D01*
X142052429Y-88165597D01*
X142052431Y-88165598D01*
X142089306Y-88168500D01*
X142089314Y-88168500D01*
X143470686Y-88168500D01*
X143470694Y-88168500D01*
X143507569Y-88165598D01*
X143507571Y-88165597D01*
X143507573Y-88165597D01*
X143654455Y-88122924D01*
X143689050Y-88118000D01*
X144052295Y-88118000D01*
X144052295Y-88117998D01*
X144052100Y-88115511D01*
X144052099Y-88115505D01*
X144006283Y-87957806D01*
X144006282Y-87957803D01*
X143990792Y-87931610D01*
X143973611Y-87863886D01*
X143990793Y-87805369D01*
X144006744Y-87778398D01*
X144052598Y-87620569D01*
X144055500Y-87583694D01*
X144055500Y-87152306D01*
X144052598Y-87115431D01*
X144051188Y-87110577D01*
X144023677Y-87015883D01*
X144023876Y-86946014D01*
X144061818Y-86887344D01*
X144080751Y-86873902D01*
X144124716Y-86848520D01*
X144236520Y-86736716D01*
X144336520Y-86636716D01*
X144415577Y-86499784D01*
X144456500Y-86347057D01*
X144456500Y-85116092D01*
X144456501Y-85116079D01*
X144456501Y-84947976D01*
X144455307Y-84943520D01*
X144415577Y-84795248D01*
X144406039Y-84778727D01*
X144336524Y-84658322D01*
X144336518Y-84658314D01*
X143644558Y-83966355D01*
X143644556Y-83966352D01*
X143525685Y-83847481D01*
X143525684Y-83847480D01*
X143438872Y-83797360D01*
X143438872Y-83797359D01*
X143438868Y-83797358D01*
X143388753Y-83768423D01*
X143236025Y-83727499D01*
X143077911Y-83727499D01*
X143070315Y-83727499D01*
X143070299Y-83727500D01*
X139154500Y-83727500D01*
X139087461Y-83707815D01*
X139041706Y-83655011D01*
X139030500Y-83603500D01*
X139030500Y-81041718D01*
X139050185Y-80974679D01*
X139098207Y-80931233D01*
X139137815Y-80911052D01*
X139137815Y-80911051D01*
X139137816Y-80911051D01*
X139309792Y-80786104D01*
X139423329Y-80672566D01*
X139484648Y-80639084D01*
X139554340Y-80644068D01*
X139610274Y-80685939D01*
X139627189Y-80716917D01*
X139676202Y-80848328D01*
X139676206Y-80848335D01*
X139762452Y-80963544D01*
X139762455Y-80963547D01*
X139877664Y-81049793D01*
X139877671Y-81049797D01*
X140012517Y-81100091D01*
X140012516Y-81100091D01*
X140019444Y-81100835D01*
X140072127Y-81106500D01*
X141867872Y-81106499D01*
X141927483Y-81100091D01*
X142062331Y-81049796D01*
X142177546Y-80963546D01*
X142263796Y-80848331D01*
X142314091Y-80713483D01*
X142320500Y-80653873D01*
X142320499Y-79649713D01*
X144699500Y-79649713D01*
X144699500Y-79862286D01*
X144732735Y-80072127D01*
X144732754Y-80072243D01*
X144780000Y-80217652D01*
X144798444Y-80274414D01*
X144894951Y-80463820D01*
X145019890Y-80635786D01*
X145170213Y-80786109D01*
X145342179Y-80911048D01*
X145342181Y-80911049D01*
X145342184Y-80911051D01*
X145531588Y-81007557D01*
X145733757Y-81073246D01*
X145943713Y-81106500D01*
X145943714Y-81106500D01*
X146156286Y-81106500D01*
X146156287Y-81106500D01*
X146366243Y-81073246D01*
X146568412Y-81007557D01*
X146757816Y-80911051D01*
X146812572Y-80871269D01*
X146929786Y-80786109D01*
X146929788Y-80786106D01*
X146929792Y-80786104D01*
X147080104Y-80635792D01*
X147080106Y-80635788D01*
X147080109Y-80635786D01*
X147205048Y-80463820D01*
X147205047Y-80463820D01*
X147205051Y-80463816D01*
X147301557Y-80274412D01*
X147367246Y-80072243D01*
X147400500Y-79862287D01*
X147400500Y-79649713D01*
X147367246Y-79439757D01*
X147301557Y-79237588D01*
X147205051Y-79048184D01*
X147205049Y-79048181D01*
X147205048Y-79048179D01*
X147080109Y-78876213D01*
X146929786Y-78725890D01*
X146757820Y-78600951D01*
X146568414Y-78504444D01*
X146568413Y-78504443D01*
X146568412Y-78504443D01*
X146366243Y-78438754D01*
X146366241Y-78438753D01*
X146366240Y-78438753D01*
X146204957Y-78413208D01*
X146156287Y-78405500D01*
X145943713Y-78405500D01*
X145895042Y-78413208D01*
X145733760Y-78438753D01*
X145531585Y-78504444D01*
X145342179Y-78600951D01*
X145170213Y-78725890D01*
X145019890Y-78876213D01*
X144894951Y-79048179D01*
X144798444Y-79237585D01*
X144732753Y-79439760D01*
X144699500Y-79649713D01*
X142320499Y-79649713D01*
X142320499Y-78858128D01*
X142314091Y-78798517D01*
X142312810Y-78795083D01*
X142263797Y-78663671D01*
X142263793Y-78663664D01*
X142177547Y-78548455D01*
X142177544Y-78548452D01*
X142062335Y-78462206D01*
X142062328Y-78462202D01*
X141927482Y-78411908D01*
X141927483Y-78411908D01*
X141867883Y-78405501D01*
X141867881Y-78405500D01*
X141867873Y-78405500D01*
X141867864Y-78405500D01*
X140072129Y-78405500D01*
X140072123Y-78405501D01*
X140012516Y-78411908D01*
X139877671Y-78462202D01*
X139877664Y-78462206D01*
X139762455Y-78548452D01*
X139762452Y-78548455D01*
X139676206Y-78663664D01*
X139676203Y-78663669D01*
X139627189Y-78795083D01*
X139585317Y-78851016D01*
X139519853Y-78875433D01*
X139451580Y-78860581D01*
X139423326Y-78839430D01*
X139309786Y-78725890D01*
X139137820Y-78600951D01*
X138948414Y-78504444D01*
X138948413Y-78504443D01*
X138948412Y-78504443D01*
X138746243Y-78438754D01*
X138746241Y-78438753D01*
X138746240Y-78438753D01*
X138584957Y-78413208D01*
X138536287Y-78405500D01*
X138323713Y-78405500D01*
X138275042Y-78413208D01*
X138113760Y-78438753D01*
X137911585Y-78504444D01*
X137722179Y-78600951D01*
X137550213Y-78725890D01*
X137399890Y-78876213D01*
X137274948Y-79048183D01*
X137270482Y-79056949D01*
X137222506Y-79107742D01*
X137154684Y-79124535D01*
X137088550Y-79101995D01*
X137049514Y-79056942D01*
X137045052Y-79048184D01*
X137045050Y-79048181D01*
X137045049Y-79048179D01*
X136920110Y-78876213D01*
X136769787Y-78725890D01*
X136597821Y-78600951D01*
X136408415Y-78504444D01*
X136408414Y-78504443D01*
X136408413Y-78504443D01*
X136206244Y-78438754D01*
X136206242Y-78438753D01*
X136206241Y-78438753D01*
X136044958Y-78413208D01*
X135996288Y-78405500D01*
X135783714Y-78405500D01*
X135735043Y-78413208D01*
X135573761Y-78438753D01*
X135371586Y-78504444D01*
X135182180Y-78600951D01*
X135010214Y-78725890D01*
X134859891Y-78876213D01*
X134734951Y-79048181D01*
X134730201Y-79057503D01*
X134682224Y-79108296D01*
X134614402Y-79125088D01*
X134548268Y-79102547D01*
X134509232Y-79057493D01*
X134504624Y-79048449D01*
X134465270Y-78994282D01*
X134465269Y-78994282D01*
X133832962Y-79626590D01*
X133815925Y-79563007D01*
X133750099Y-79448993D01*
X133657007Y-79355901D01*
X133542993Y-79290075D01*
X133479409Y-79273037D01*
X134111716Y-78640728D01*
X134057550Y-78601375D01*
X133868217Y-78504904D01*
X133666129Y-78439242D01*
X133456246Y-78406000D01*
X133243754Y-78406000D01*
X133033872Y-78439242D01*
X133033869Y-78439242D01*
X132831782Y-78504904D01*
X132642439Y-78601380D01*
X132588282Y-78640727D01*
X132588282Y-78640728D01*
X133220591Y-79273037D01*
X133157007Y-79290075D01*
X133042993Y-79355901D01*
X132949901Y-79448993D01*
X132884075Y-79563007D01*
X132867037Y-79626591D01*
X132234728Y-78994282D01*
X132234727Y-78994282D01*
X132195380Y-79048439D01*
X132098904Y-79237782D01*
X132033242Y-79439869D01*
X132033242Y-79439872D01*
X132000000Y-79649753D01*
X132000000Y-79862246D01*
X132033242Y-80072127D01*
X132033242Y-80072130D01*
X132098904Y-80274217D01*
X132195375Y-80463550D01*
X132234728Y-80517716D01*
X132867037Y-79885408D01*
X132884075Y-79948993D01*
X132949901Y-80063007D01*
X133042993Y-80156099D01*
X133157007Y-80221925D01*
X133220590Y-80238962D01*
X132588282Y-80871269D01*
X132588282Y-80871270D01*
X132642449Y-80910624D01*
X132831782Y-81007095D01*
X133033870Y-81072757D01*
X133243754Y-81106000D01*
X133456246Y-81106000D01*
X133666127Y-81072757D01*
X133666130Y-81072757D01*
X133868217Y-81007095D01*
X134057554Y-80910622D01*
X134111716Y-80871270D01*
X134111717Y-80871270D01*
X133479408Y-80238962D01*
X133542993Y-80221925D01*
X133657007Y-80156099D01*
X133750099Y-80063007D01*
X133815925Y-79948993D01*
X133832962Y-79885408D01*
X134465270Y-80517717D01*
X134465270Y-80517716D01*
X134504623Y-80463553D01*
X134509231Y-80454509D01*
X134557202Y-80403710D01*
X134625022Y-80386910D01*
X134691158Y-80409444D01*
X134730202Y-80454499D01*
X134734950Y-80463817D01*
X134859891Y-80635786D01*
X135010214Y-80786109D01*
X135182180Y-80911048D01*
X135182182Y-80911049D01*
X135182185Y-80911051D01*
X135371589Y-81007557D01*
X135573758Y-81073246D01*
X135783714Y-81106500D01*
X135783715Y-81106500D01*
X135996287Y-81106500D01*
X135996288Y-81106500D01*
X136206244Y-81073246D01*
X136408413Y-81007557D01*
X136597817Y-80911051D01*
X136652573Y-80871269D01*
X136769787Y-80786109D01*
X136769789Y-80786106D01*
X136769793Y-80786104D01*
X136920105Y-80635792D01*
X136920107Y-80635788D01*
X136920110Y-80635786D01*
X137045049Y-80463820D01*
X137045048Y-80463820D01*
X137045052Y-80463816D01*
X137049513Y-80455058D01*
X137097484Y-80404262D01*
X137165304Y-80387464D01*
X137231441Y-80409998D01*
X137270484Y-80455054D01*
X137274949Y-80463817D01*
X137399890Y-80635786D01*
X137550213Y-80786109D01*
X137722184Y-80911051D01*
X137722184Y-80911052D01*
X137761793Y-80931233D01*
X137812590Y-80979206D01*
X137829500Y-81041718D01*
X137829500Y-83603500D01*
X137809815Y-83670539D01*
X137757011Y-83716294D01*
X137705500Y-83727500D01*
X136515928Y-83727500D01*
X136448889Y-83707815D01*
X136403134Y-83655011D01*
X136393190Y-83585853D01*
X136401367Y-83556048D01*
X136405735Y-83545501D01*
X136405737Y-83545497D01*
X136436500Y-83390842D01*
X136436500Y-83233158D01*
X136436500Y-83233155D01*
X136436499Y-83233153D01*
X136425092Y-83175807D01*
X136405737Y-83078503D01*
X136397543Y-83058720D01*
X136345397Y-82932827D01*
X136345390Y-82932814D01*
X136257789Y-82801711D01*
X136257786Y-82801707D01*
X136146292Y-82690213D01*
X136146288Y-82690210D01*
X136015185Y-82602609D01*
X136015172Y-82602602D01*
X135869501Y-82542264D01*
X135869489Y-82542261D01*
X135714845Y-82511500D01*
X135714842Y-82511500D01*
X135557158Y-82511500D01*
X135557155Y-82511500D01*
X135402510Y-82542261D01*
X135402498Y-82542264D01*
X135276056Y-82594638D01*
X135217388Y-82603569D01*
X135205618Y-82602500D01*
X135205616Y-82602500D01*
X134542384Y-82602500D01*
X134523908Y-82604179D01*
X134471807Y-82608913D01*
X134309393Y-82659522D01*
X134163811Y-82747530D01*
X134043530Y-82867811D01*
X133955522Y-83013393D01*
X133904913Y-83175807D01*
X133900613Y-83223132D01*
X133898500Y-83246384D01*
X133898500Y-83759616D01*
X133900164Y-83777925D01*
X133904913Y-83830192D01*
X133904913Y-83830194D01*
X133904914Y-83830196D01*
X133955522Y-83992606D01*
X133971808Y-84019547D01*
X134043530Y-84138188D01*
X134145661Y-84240319D01*
X134179146Y-84301642D01*
X134174162Y-84371334D01*
X134145661Y-84415681D01*
X134043531Y-84517810D01*
X134043530Y-84517811D01*
X133955519Y-84663397D01*
X133954004Y-84666765D01*
X133950521Y-84671809D01*
X133949764Y-84675293D01*
X133928625Y-84703530D01*
X133928614Y-84703548D01*
X133884482Y-84747681D01*
X133847880Y-84784284D01*
X133847878Y-84784285D01*
X133847877Y-84784286D01*
X133847878Y-84784286D01*
X133683980Y-84948185D01*
X133543984Y-85088181D01*
X133482661Y-85121666D01*
X133456303Y-85124500D01*
X125701100Y-85124500D01*
X125634061Y-85104815D01*
X125588306Y-85052011D01*
X125578362Y-84982853D01*
X125607387Y-84919297D01*
X125613418Y-84912819D01*
X125639581Y-84886656D01*
X125694521Y-84831716D01*
X125694521Y-84831714D01*
X125704729Y-84821507D01*
X125704731Y-84821504D01*
X125880479Y-84645755D01*
X125941800Y-84612272D01*
X126006474Y-84615506D01*
X126048758Y-84629246D01*
X126258714Y-84662500D01*
X126258715Y-84662500D01*
X126471287Y-84662500D01*
X126471288Y-84662500D01*
X126681244Y-84629246D01*
X126883413Y-84563557D01*
X127072817Y-84467051D01*
X127127573Y-84427269D01*
X127244787Y-84342109D01*
X127244789Y-84342106D01*
X127244793Y-84342104D01*
X127395105Y-84191792D01*
X127395107Y-84191788D01*
X127395110Y-84191786D01*
X127520049Y-84019820D01*
X127520048Y-84019820D01*
X127520052Y-84019816D01*
X127524795Y-84010506D01*
X127572767Y-83959710D01*
X127640588Y-83942913D01*
X127706723Y-83965448D01*
X127745766Y-84010505D01*
X127750373Y-84019547D01*
X127789728Y-84073716D01*
X128422037Y-83441408D01*
X128439075Y-83504993D01*
X128504901Y-83619007D01*
X128597993Y-83712099D01*
X128712007Y-83777925D01*
X128775590Y-83794962D01*
X128143282Y-84427269D01*
X128143282Y-84427270D01*
X128197449Y-84466624D01*
X128386782Y-84563095D01*
X128588870Y-84628757D01*
X128798754Y-84662000D01*
X129011246Y-84662000D01*
X129221127Y-84628757D01*
X129221130Y-84628757D01*
X129423217Y-84563095D01*
X129612554Y-84466622D01*
X129666716Y-84427270D01*
X129666717Y-84427270D01*
X129034408Y-83794962D01*
X129097993Y-83777925D01*
X129212007Y-83712099D01*
X129305099Y-83619007D01*
X129370925Y-83504993D01*
X129387962Y-83441408D01*
X130020270Y-84073717D01*
X130020270Y-84073716D01*
X130059622Y-84019554D01*
X130156095Y-83830217D01*
X130221757Y-83628130D01*
X130221757Y-83628127D01*
X130255000Y-83418246D01*
X130255000Y-83205753D01*
X130221757Y-82995872D01*
X130221757Y-82995869D01*
X130156095Y-82793782D01*
X130059624Y-82604449D01*
X130020270Y-82550282D01*
X130020269Y-82550282D01*
X129387962Y-83182590D01*
X129370925Y-83119007D01*
X129305099Y-83004993D01*
X129212007Y-82911901D01*
X129097993Y-82846075D01*
X129034409Y-82829037D01*
X129666716Y-82196728D01*
X129612550Y-82157375D01*
X129423217Y-82060904D01*
X129221129Y-81995242D01*
X129011246Y-81962000D01*
X128798754Y-81962000D01*
X128588872Y-81995242D01*
X128588869Y-81995242D01*
X128386782Y-82060904D01*
X128197439Y-82157380D01*
X128143282Y-82196727D01*
X128143282Y-82196728D01*
X128775591Y-82829037D01*
X128712007Y-82846075D01*
X128597993Y-82911901D01*
X128504901Y-83004993D01*
X128439075Y-83119007D01*
X128422037Y-83182591D01*
X127789728Y-82550282D01*
X127789727Y-82550282D01*
X127750380Y-82604440D01*
X127745763Y-82613501D01*
X127697785Y-82664294D01*
X127629963Y-82681086D01*
X127563830Y-82658545D01*
X127524796Y-82613495D01*
X127522462Y-82608914D01*
X127520052Y-82604184D01*
X127520050Y-82604181D01*
X127520049Y-82604179D01*
X127395110Y-82432213D01*
X127244787Y-82281890D01*
X127072821Y-82156951D01*
X126883415Y-82060444D01*
X126883414Y-82060443D01*
X126883413Y-82060443D01*
X126681244Y-81994754D01*
X126681242Y-81994753D01*
X126681241Y-81994753D01*
X126519958Y-81969208D01*
X126471288Y-81961500D01*
X126258714Y-81961500D01*
X126210043Y-81969208D01*
X126048761Y-81994753D01*
X125846586Y-82060444D01*
X125657180Y-82156951D01*
X125485216Y-82281889D01*
X125371674Y-82395431D01*
X125310351Y-82428915D01*
X125240659Y-82423931D01*
X125184726Y-82382059D01*
X125167811Y-82351082D01*
X125118798Y-82219671D01*
X125118794Y-82219664D01*
X125032548Y-82104455D01*
X125032545Y-82104452D01*
X124917336Y-82018206D01*
X124917329Y-82018202D01*
X124782483Y-81967908D01*
X124782484Y-81967908D01*
X124722884Y-81961501D01*
X124722882Y-81961500D01*
X124722874Y-81961500D01*
X124722866Y-81961500D01*
X124165096Y-81961500D01*
X124098057Y-81941815D01*
X124052302Y-81889011D01*
X124042358Y-81819853D01*
X124071383Y-81756297D01*
X124077415Y-81749819D01*
X124440737Y-81386497D01*
X124888260Y-80938973D01*
X124949581Y-80905490D01*
X125019272Y-80910474D01*
X125032223Y-80916166D01*
X125211588Y-81007557D01*
X125413757Y-81073246D01*
X125623713Y-81106500D01*
X125623714Y-81106500D01*
X125836286Y-81106500D01*
X125836287Y-81106500D01*
X126046243Y-81073246D01*
X126248412Y-81007557D01*
X126437816Y-80911051D01*
X126492572Y-80871269D01*
X126609786Y-80786109D01*
X126609788Y-80786106D01*
X126609792Y-80786104D01*
X126760104Y-80635792D01*
X126760106Y-80635788D01*
X126760109Y-80635786D01*
X126845890Y-80517717D01*
X126885051Y-80463816D01*
X126889793Y-80454508D01*
X126937763Y-80403711D01*
X127005583Y-80386911D01*
X127071719Y-80409445D01*
X127110763Y-80454500D01*
X127115373Y-80463547D01*
X127154728Y-80517716D01*
X127787037Y-79885408D01*
X127804075Y-79948993D01*
X127869901Y-80063007D01*
X127962993Y-80156099D01*
X128077007Y-80221925D01*
X128140590Y-80238962D01*
X127508282Y-80871269D01*
X127508282Y-80871270D01*
X127562449Y-80910624D01*
X127751782Y-81007095D01*
X127953870Y-81072757D01*
X128163754Y-81106000D01*
X128376246Y-81106000D01*
X128586127Y-81072757D01*
X128586130Y-81072757D01*
X128788217Y-81007095D01*
X128977554Y-80910622D01*
X129031716Y-80871270D01*
X129031717Y-80871270D01*
X128399408Y-80238962D01*
X128462993Y-80221925D01*
X128577007Y-80156099D01*
X128670099Y-80063007D01*
X128735925Y-79948993D01*
X128752962Y-79885409D01*
X129385270Y-80517717D01*
X129385270Y-80517716D01*
X129424622Y-80463554D01*
X129521095Y-80274217D01*
X129586757Y-80072130D01*
X129586757Y-80072127D01*
X129620000Y-79862246D01*
X129620000Y-79649753D01*
X129586757Y-79439872D01*
X129586757Y-79439869D01*
X129521095Y-79237782D01*
X129424624Y-79048449D01*
X129385270Y-78994282D01*
X129385269Y-78994282D01*
X128752962Y-79626590D01*
X128735925Y-79563007D01*
X128670099Y-79448993D01*
X128577007Y-79355901D01*
X128462993Y-79290075D01*
X128399409Y-79273037D01*
X129031716Y-78640728D01*
X128977550Y-78601375D01*
X128788217Y-78504904D01*
X128586129Y-78439242D01*
X128376246Y-78406000D01*
X128163754Y-78406000D01*
X127953872Y-78439242D01*
X127953869Y-78439242D01*
X127751782Y-78504904D01*
X127562439Y-78601380D01*
X127508282Y-78640727D01*
X127508282Y-78640728D01*
X128140591Y-79273037D01*
X128077007Y-79290075D01*
X127962993Y-79355901D01*
X127869901Y-79448993D01*
X127804075Y-79563007D01*
X127787037Y-79626591D01*
X127154728Y-78994282D01*
X127154727Y-78994282D01*
X127115380Y-79048440D01*
X127115376Y-79048446D01*
X127110760Y-79057505D01*
X127062781Y-79108297D01*
X126994959Y-79125087D01*
X126928826Y-79102543D01*
X126889794Y-79057493D01*
X126885051Y-79048184D01*
X126885049Y-79048181D01*
X126885048Y-79048179D01*
X126760109Y-78876213D01*
X126609786Y-78725890D01*
X126437820Y-78600951D01*
X126248414Y-78504444D01*
X126248413Y-78504443D01*
X126248412Y-78504443D01*
X126046243Y-78438754D01*
X126046241Y-78438753D01*
X126046240Y-78438753D01*
X125884957Y-78413208D01*
X125836287Y-78405500D01*
X125623713Y-78405500D01*
X125575042Y-78413208D01*
X125413760Y-78438753D01*
X125211585Y-78504444D01*
X125022179Y-78600951D01*
X124850213Y-78725890D01*
X124699890Y-78876213D01*
X124574949Y-79048182D01*
X124570484Y-79056946D01*
X124522509Y-79107742D01*
X124454688Y-79124536D01*
X124388553Y-79101998D01*
X124349516Y-79056946D01*
X124345050Y-79048182D01*
X124220109Y-78876213D01*
X124069786Y-78725890D01*
X123897820Y-78600951D01*
X123708414Y-78504444D01*
X123708413Y-78504443D01*
X123708412Y-78504443D01*
X123506243Y-78438754D01*
X123506241Y-78438753D01*
X123506240Y-78438753D01*
X123344957Y-78413208D01*
X123296287Y-78405500D01*
X123083713Y-78405500D01*
X123035042Y-78413208D01*
X122873760Y-78438753D01*
X122671585Y-78504444D01*
X122482179Y-78600951D01*
X122310213Y-78725890D01*
X122159890Y-78876213D01*
X122034949Y-79048182D01*
X122030202Y-79057499D01*
X121982227Y-79108293D01*
X121914405Y-79125087D01*
X121848271Y-79102548D01*
X121809234Y-79057495D01*
X121804626Y-79048452D01*
X121765270Y-78994282D01*
X121765269Y-78994282D01*
X121132962Y-79626590D01*
X121115925Y-79563007D01*
X121050099Y-79448993D01*
X120957007Y-79355901D01*
X120842993Y-79290075D01*
X120779409Y-79273037D01*
X121411716Y-78640728D01*
X121357550Y-78601375D01*
X121168217Y-78504904D01*
X120966129Y-78439242D01*
X120756246Y-78406000D01*
X120543754Y-78406000D01*
X120333872Y-78439242D01*
X120333869Y-78439242D01*
X120131782Y-78504904D01*
X119942439Y-78601380D01*
X119888282Y-78640727D01*
X119888282Y-78640728D01*
X120520591Y-79273037D01*
X120457007Y-79290075D01*
X120342993Y-79355901D01*
X120249901Y-79448993D01*
X120184075Y-79563007D01*
X120167037Y-79626591D01*
X119534728Y-78994282D01*
X119534727Y-78994282D01*
X119495380Y-79048440D01*
X119495376Y-79048446D01*
X119490760Y-79057505D01*
X119442781Y-79108297D01*
X119374959Y-79125087D01*
X119308826Y-79102543D01*
X119269794Y-79057493D01*
X119265051Y-79048184D01*
X119265049Y-79048181D01*
X119265048Y-79048179D01*
X119140109Y-78876213D01*
X118989786Y-78725890D01*
X118817820Y-78600951D01*
X118628414Y-78504444D01*
X118628413Y-78504443D01*
X118628412Y-78504443D01*
X118426243Y-78438754D01*
X118426241Y-78438753D01*
X118426240Y-78438753D01*
X118264957Y-78413208D01*
X118216287Y-78405500D01*
X118003713Y-78405500D01*
X117955042Y-78413208D01*
X117793760Y-78438753D01*
X117591585Y-78504444D01*
X117402179Y-78600951D01*
X117230215Y-78725889D01*
X117116673Y-78839431D01*
X117055350Y-78872915D01*
X116985658Y-78867931D01*
X116929725Y-78826059D01*
X116912810Y-78795082D01*
X116863797Y-78663671D01*
X116863793Y-78663664D01*
X116777547Y-78548455D01*
X116777544Y-78548452D01*
X116662335Y-78462206D01*
X116662328Y-78462202D01*
X116527482Y-78411908D01*
X116527483Y-78411908D01*
X116467883Y-78405501D01*
X116467881Y-78405500D01*
X116467873Y-78405500D01*
X116467864Y-78405500D01*
X114672129Y-78405500D01*
X114672123Y-78405501D01*
X114612516Y-78411908D01*
X114477671Y-78462202D01*
X114477664Y-78462206D01*
X114362455Y-78548452D01*
X114362452Y-78548455D01*
X114276206Y-78663664D01*
X114276202Y-78663671D01*
X114225908Y-78798517D01*
X114219501Y-78858116D01*
X114219501Y-78858123D01*
X114219500Y-78858135D01*
X114219500Y-80653870D01*
X114219501Y-80653876D01*
X114225908Y-80713483D01*
X114276202Y-80848328D01*
X114276203Y-80848330D01*
X114276204Y-80848331D01*
X114338264Y-80931233D01*
X114343767Y-80938583D01*
X114368184Y-81004047D01*
X114368500Y-81012894D01*
X114368500Y-83982273D01*
X114368499Y-83982291D01*
X114368499Y-84147997D01*
X114368498Y-84147997D01*
X114368499Y-84148000D01*
X114409423Y-84300728D01*
X114416216Y-84312494D01*
X114416218Y-84312501D01*
X114416220Y-84312501D01*
X114488475Y-84437652D01*
X114488481Y-84437660D01*
X114607349Y-84556528D01*
X114607355Y-84556533D01*
X115021681Y-84970859D01*
X115055166Y-85032182D01*
X115058000Y-85058540D01*
X115058000Y-85842000D01*
X115038315Y-85909039D01*
X114985511Y-85954794D01*
X114934000Y-85966000D01*
X114682000Y-85966000D01*
X114614961Y-85946315D01*
X114569206Y-85893511D01*
X114558000Y-85842000D01*
X114558000Y-85016000D01*
X114557999Y-85015999D01*
X114509693Y-85016000D01*
X114509675Y-85016001D01*
X114410392Y-85026144D01*
X114249518Y-85079452D01*
X114249507Y-85079457D01*
X114105271Y-85168424D01*
X114105267Y-85168427D01*
X114004181Y-85269514D01*
X113942858Y-85302999D01*
X113873166Y-85298015D01*
X113817233Y-85256143D01*
X113792816Y-85190679D01*
X113792500Y-85181833D01*
X113792500Y-77873500D01*
X113812185Y-77806461D01*
X113864989Y-77760706D01*
X113916500Y-77749500D01*
X147747500Y-77749500D01*
X147814539Y-77769185D01*
G37*
%TD.AperFunction*%
%TA.AperFunction,Conductor*%
G36*
X124956941Y-87829185D02*
G01*
X124977583Y-87845819D01*
X125481101Y-88349337D01*
X125514586Y-88410660D01*
X125509602Y-88480352D01*
X125496594Y-88505801D01*
X125251405Y-88873585D01*
X125242211Y-88887890D01*
X125184649Y-89019755D01*
X125166568Y-89162490D01*
X125173759Y-89207162D01*
X125189436Y-89304546D01*
X125232569Y-89394943D01*
X125251397Y-89434401D01*
X125721782Y-90139979D01*
X125742590Y-90206678D01*
X125724035Y-90274039D01*
X125672007Y-90320675D01*
X125603026Y-90331779D01*
X125538991Y-90303826D01*
X125530927Y-90296443D01*
X123255664Y-88021181D01*
X123222179Y-87959858D01*
X123227163Y-87890166D01*
X123269035Y-87834233D01*
X123334499Y-87809816D01*
X123343345Y-87809500D01*
X124889902Y-87809500D01*
X124956941Y-87829185D01*
G37*
%TD.AperFunction*%
%TA.AperFunction,Conductor*%
G36*
X121789351Y-89191235D02*
G01*
X121822859Y-89215094D01*
X122246142Y-89638377D01*
X122279627Y-89699700D01*
X122274643Y-89769392D01*
X122232771Y-89825325D01*
X122197466Y-89843764D01*
X122047516Y-89893453D01*
X122047507Y-89893457D01*
X121903271Y-89982424D01*
X121903264Y-89982430D01*
X121894028Y-89991665D01*
X121893384Y-89992016D01*
X121893026Y-89992656D01*
X121862752Y-90008740D01*
X121832703Y-90025146D01*
X121831972Y-90025093D01*
X121831324Y-90025438D01*
X121797164Y-90022601D01*
X121763011Y-90020157D01*
X121762180Y-90019697D01*
X121761694Y-90019657D01*
X121759338Y-90018124D01*
X121730913Y-90002389D01*
X121724435Y-89997423D01*
X121709044Y-89982032D01*
X121685054Y-89967234D01*
X121680060Y-89963406D01*
X121663003Y-89940071D01*
X121643677Y-89918582D01*
X121642043Y-89911394D01*
X121638830Y-89906998D01*
X121638034Y-89893752D01*
X121631500Y-89864995D01*
X121631500Y-89394943D01*
X121631499Y-89394939D01*
X121617782Y-89343744D01*
X121617782Y-89343743D01*
X121615406Y-89334877D01*
X121617063Y-89265027D01*
X121656222Y-89207162D01*
X121720448Y-89179653D01*
X121789351Y-89191235D01*
G37*
%TD.AperFunction*%
%TA.AperFunction,Conductor*%
G36*
X120485283Y-86140677D02*
G01*
X120487925Y-86140392D01*
X120498514Y-86143501D01*
X120498674Y-86142905D01*
X120506524Y-86145008D01*
X120506526Y-86145008D01*
X120506528Y-86145009D01*
X120616599Y-86159500D01*
X120641498Y-86159499D01*
X120708536Y-86179181D01*
X120754293Y-86231984D01*
X120765500Y-86283495D01*
X120765500Y-86308402D01*
X120779989Y-86418468D01*
X120782094Y-86426322D01*
X120778814Y-86427200D01*
X120784581Y-86481073D01*
X120781517Y-86491522D01*
X120782095Y-86491677D01*
X120779990Y-86499529D01*
X120765500Y-86609598D01*
X120765500Y-86808403D01*
X120779989Y-86918468D01*
X120782094Y-86926322D01*
X120778814Y-86927200D01*
X120784581Y-86981073D01*
X120781517Y-86991522D01*
X120782095Y-86991677D01*
X120779990Y-86999529D01*
X120765500Y-87109598D01*
X120765500Y-87308403D01*
X120779989Y-87418468D01*
X120782094Y-87426322D01*
X120778814Y-87427200D01*
X120784581Y-87481073D01*
X120781517Y-87491522D01*
X120782095Y-87491677D01*
X120779990Y-87499529D01*
X120765500Y-87609598D01*
X120765500Y-87808403D01*
X120779989Y-87918468D01*
X120782094Y-87926322D01*
X120779268Y-87927079D01*
X120785678Y-87973775D01*
X120783646Y-87990702D01*
X120779991Y-87999528D01*
X120765500Y-88109599D01*
X120765500Y-88141917D01*
X120764617Y-88149275D01*
X120753651Y-88174851D01*
X120745815Y-88201539D01*
X120740077Y-88206510D01*
X120737085Y-88213491D01*
X120714033Y-88229077D01*
X120693011Y-88247294D01*
X120684286Y-88249192D01*
X120679205Y-88252628D01*
X120667204Y-88252908D01*
X120641504Y-88258500D01*
X120616597Y-88258500D01*
X120506531Y-88272989D01*
X120498678Y-88275094D01*
X120497802Y-88271824D01*
X120443853Y-88277567D01*
X120433477Y-88274518D01*
X120433323Y-88275095D01*
X120425470Y-88272990D01*
X120315401Y-88258500D01*
X120116596Y-88258500D01*
X120006531Y-88272989D01*
X119998678Y-88275094D01*
X119997802Y-88271824D01*
X119943853Y-88277567D01*
X119933477Y-88274518D01*
X119933323Y-88275095D01*
X119925470Y-88272990D01*
X119815401Y-88258500D01*
X119616596Y-88258500D01*
X119506531Y-88272989D01*
X119498678Y-88275094D01*
X119497802Y-88271824D01*
X119443853Y-88277567D01*
X119433477Y-88274518D01*
X119433323Y-88275095D01*
X119425470Y-88272990D01*
X119315401Y-88258500D01*
X119116596Y-88258500D01*
X119006531Y-88272989D01*
X118998678Y-88275094D01*
X118997924Y-88272281D01*
X118951224Y-88278678D01*
X118934297Y-88276646D01*
X118925472Y-88272991D01*
X118815401Y-88258500D01*
X118783082Y-88258500D01*
X118775724Y-88257617D01*
X118750147Y-88246651D01*
X118723460Y-88238815D01*
X118718488Y-88233077D01*
X118711508Y-88230085D01*
X118695921Y-88207033D01*
X118677705Y-88186011D01*
X118675807Y-88177286D01*
X118672371Y-88172205D01*
X118672090Y-88160202D01*
X118666499Y-88134500D01*
X118666499Y-88109597D01*
X118654859Y-88021181D01*
X118652009Y-87999528D01*
X118652008Y-87999525D01*
X118649905Y-87991674D01*
X118653207Y-87990789D01*
X118647392Y-87937075D01*
X118650501Y-87926485D01*
X118649905Y-87926326D01*
X118652008Y-87918475D01*
X118652008Y-87918474D01*
X118652009Y-87918472D01*
X118666500Y-87808401D01*
X118666499Y-87609600D01*
X118666485Y-87609497D01*
X118660735Y-87565815D01*
X118652009Y-87499528D01*
X118652008Y-87499525D01*
X118649905Y-87491674D01*
X118653207Y-87490789D01*
X118647392Y-87437075D01*
X118650501Y-87426485D01*
X118649905Y-87426326D01*
X118652008Y-87418475D01*
X118652008Y-87418474D01*
X118652009Y-87418472D01*
X118666500Y-87308401D01*
X118666499Y-87109600D01*
X118652009Y-86999528D01*
X118652008Y-86999525D01*
X118649905Y-86991674D01*
X118653207Y-86990789D01*
X118647392Y-86937075D01*
X118650501Y-86926485D01*
X118649905Y-86926326D01*
X118652008Y-86918475D01*
X118652008Y-86918474D01*
X118652009Y-86918472D01*
X118666500Y-86808401D01*
X118666499Y-86609600D01*
X118666059Y-86606261D01*
X118652043Y-86499790D01*
X118652009Y-86499528D01*
X118652008Y-86499525D01*
X118649905Y-86491674D01*
X118652757Y-86490909D01*
X118646321Y-86444225D01*
X118648352Y-86427299D01*
X118652009Y-86418472D01*
X118666500Y-86308401D01*
X118666499Y-86276083D01*
X118667383Y-86268724D01*
X118678347Y-86243149D01*
X118686185Y-86216460D01*
X118691922Y-86211488D01*
X118694916Y-86204507D01*
X118717968Y-86188919D01*
X118738989Y-86170705D01*
X118747712Y-86168807D01*
X118752796Y-86165370D01*
X118764802Y-86165089D01*
X118790500Y-86159499D01*
X118815402Y-86159499D01*
X118844382Y-86155683D01*
X118925472Y-86145009D01*
X118925475Y-86145007D01*
X118933326Y-86142905D01*
X118934210Y-86146207D01*
X118987925Y-86140392D01*
X118998514Y-86143501D01*
X118998674Y-86142905D01*
X119006524Y-86145008D01*
X119006526Y-86145008D01*
X119006528Y-86145009D01*
X119116599Y-86159500D01*
X119315400Y-86159499D01*
X119315401Y-86159499D01*
X119332087Y-86157302D01*
X119425472Y-86145009D01*
X119425475Y-86145007D01*
X119433326Y-86142905D01*
X119434210Y-86146207D01*
X119487925Y-86140392D01*
X119498514Y-86143501D01*
X119498674Y-86142905D01*
X119506524Y-86145008D01*
X119506526Y-86145008D01*
X119506528Y-86145009D01*
X119616599Y-86159500D01*
X119815400Y-86159499D01*
X119815401Y-86159499D01*
X119832087Y-86157302D01*
X119925472Y-86145009D01*
X119925475Y-86145007D01*
X119933326Y-86142905D01*
X119934210Y-86146207D01*
X119987925Y-86140392D01*
X119998514Y-86143501D01*
X119998674Y-86142905D01*
X120006524Y-86145008D01*
X120006526Y-86145008D01*
X120006528Y-86145009D01*
X120116599Y-86159500D01*
X120315400Y-86159499D01*
X120315401Y-86159499D01*
X120332087Y-86157302D01*
X120425472Y-86145009D01*
X120425475Y-86145007D01*
X120433326Y-86142905D01*
X120434210Y-86146207D01*
X120449047Y-86144601D01*
X120479348Y-86139158D01*
X120485283Y-86140677D01*
G37*
%TD.AperFunction*%
%TA.AperFunction,Conductor*%
G36*
X139869183Y-84935303D02*
G01*
X139893202Y-84937830D01*
X139902104Y-84944970D01*
X139913052Y-84948185D01*
X139928865Y-84966434D01*
X139947706Y-84981546D01*
X139951334Y-84992365D01*
X139958807Y-85000989D01*
X139962244Y-85024893D01*
X139969923Y-85047789D01*
X139968069Y-85065410D01*
X139968751Y-85070147D01*
X139966839Y-85077115D01*
X139966232Y-85082889D01*
X139964023Y-85091623D01*
X139946263Y-85134503D01*
X139920703Y-85262998D01*
X139919923Y-85266086D01*
X139896574Y-85307197D01*
X139888936Y-85321800D01*
X139887968Y-85322351D01*
X139887385Y-85323378D01*
X139296584Y-85914181D01*
X139235261Y-85947666D01*
X139208903Y-85950500D01*
X135826206Y-85950500D01*
X135759167Y-85930815D01*
X135713412Y-85878011D01*
X135703468Y-85808853D01*
X135720087Y-85762353D01*
X135792478Y-85642606D01*
X135843086Y-85480196D01*
X135849500Y-85409616D01*
X135849500Y-85078097D01*
X135869185Y-85011058D01*
X135885819Y-84990416D01*
X135911416Y-84964819D01*
X135972739Y-84931334D01*
X135999097Y-84928500D01*
X138350943Y-84928500D01*
X139846013Y-84928500D01*
X139869183Y-84935303D01*
G37*
%TD.AperFunction*%
%TA.AperFunction,Conductor*%
G36*
X117685491Y-84786909D02*
G01*
X117717081Y-84809817D01*
X118054181Y-85146917D01*
X118087666Y-85208240D01*
X118090500Y-85234598D01*
X118090500Y-85406846D01*
X118070815Y-85473885D01*
X118018011Y-85519640D01*
X117948853Y-85529584D01*
X117885297Y-85500559D01*
X117878819Y-85494527D01*
X117496819Y-85112527D01*
X117482115Y-85085599D01*
X117465523Y-85059781D01*
X117464631Y-85053580D01*
X117463334Y-85051204D01*
X117460500Y-85024846D01*
X117460500Y-84902085D01*
X117480185Y-84835046D01*
X117532989Y-84789291D01*
X117571894Y-84778727D01*
X117616800Y-84774140D01*
X117685491Y-84786909D01*
G37*
%TD.AperFunction*%
%TA.AperFunction,Conductor*%
G36*
X120184075Y-79948993D02*
G01*
X120249901Y-80063007D01*
X120342993Y-80156099D01*
X120457007Y-80221925D01*
X120520590Y-80238962D01*
X119888282Y-80871269D01*
X119888282Y-80871270D01*
X119942449Y-80910624D01*
X120131784Y-81007096D01*
X120278893Y-81054894D01*
X120281163Y-81056446D01*
X120283908Y-81056643D01*
X120309831Y-81076048D01*
X120336569Y-81094331D01*
X120337640Y-81096865D01*
X120339842Y-81098514D01*
X120351156Y-81128847D01*
X120363768Y-81158689D01*
X120363298Y-81161400D01*
X120364260Y-81163978D01*
X120357376Y-81195620D01*
X120351854Y-81227536D01*
X120349814Y-81230385D01*
X120349409Y-81232251D01*
X120328258Y-81260505D01*
X120281286Y-81307478D01*
X120281285Y-81307479D01*
X120169480Y-81419283D01*
X120169478Y-81419285D01*
X120152499Y-81448695D01*
X120145322Y-81461127D01*
X120090422Y-81556216D01*
X120049498Y-81708944D01*
X120049498Y-81708946D01*
X120049498Y-81877047D01*
X120049499Y-81877060D01*
X120049499Y-82868958D01*
X120029814Y-82935997D01*
X120013180Y-82956639D01*
X119773049Y-83196770D01*
X119757954Y-83205012D01*
X119745919Y-83217300D01*
X119727923Y-83221410D01*
X119711726Y-83230255D01*
X119694571Y-83229028D01*
X119677804Y-83232858D01*
X119660445Y-83226587D01*
X119642034Y-83225271D01*
X119627973Y-83214858D01*
X119612090Y-83209121D01*
X119594491Y-83190063D01*
X119586876Y-83184424D01*
X119583095Y-83179482D01*
X119567968Y-83154956D01*
X119552521Y-83139509D01*
X119547528Y-83132981D01*
X119537813Y-83107737D01*
X119524854Y-83084004D01*
X119525453Y-83075619D01*
X119522434Y-83067773D01*
X119527908Y-83041288D01*
X119529838Y-83014312D01*
X119535214Y-83005947D01*
X119536578Y-82999350D01*
X119544944Y-82990808D01*
X119558345Y-82969959D01*
X119567573Y-82960731D01*
X119656542Y-82816492D01*
X119656547Y-82816481D01*
X119709855Y-82655606D01*
X119719999Y-82556322D01*
X119720000Y-82556309D01*
X119720000Y-82533000D01*
X118869000Y-82533000D01*
X118801961Y-82513315D01*
X118756206Y-82460511D01*
X118745000Y-82409000D01*
X118745000Y-82157000D01*
X118764685Y-82089961D01*
X118817489Y-82044206D01*
X118869000Y-82033000D01*
X119719999Y-82033000D01*
X119719999Y-82009692D01*
X119719998Y-82009677D01*
X119709855Y-81910392D01*
X119656547Y-81749518D01*
X119656542Y-81749507D01*
X119567575Y-81605271D01*
X119567572Y-81605267D01*
X119447732Y-81485427D01*
X119447728Y-81485424D01*
X119303492Y-81396457D01*
X119303481Y-81396452D01*
X119142606Y-81343144D01*
X119043322Y-81333000D01*
X118907500Y-81333000D01*
X118902060Y-81331402D01*
X118896502Y-81332511D01*
X118868904Y-81321666D01*
X118840461Y-81313315D01*
X118836750Y-81309032D01*
X118831473Y-81306959D01*
X118814116Y-81282912D01*
X118794706Y-81260511D01*
X118793029Y-81253696D01*
X118790582Y-81250305D01*
X118786870Y-81228657D01*
X118783681Y-81215692D01*
X118783500Y-81212342D01*
X118783500Y-81074158D01*
X118773245Y-81022608D01*
X118772769Y-81013783D01*
X118778839Y-80988042D01*
X118781197Y-80961693D01*
X118786744Y-80954525D01*
X118788807Y-80945779D01*
X118807446Y-80927777D01*
X118823701Y-80906774D01*
X118989792Y-80786104D01*
X119140104Y-80635792D01*
X119140106Y-80635788D01*
X119140109Y-80635786D01*
X119225890Y-80517717D01*
X119265051Y-80463816D01*
X119269793Y-80454508D01*
X119317763Y-80403711D01*
X119385583Y-80386911D01*
X119451719Y-80409445D01*
X119490763Y-80454500D01*
X119495373Y-80463547D01*
X119534728Y-80517716D01*
X120167037Y-79885408D01*
X120184075Y-79948993D01*
G37*
%TD.AperFunction*%
%TD*%
M02*
