%TF.GenerationSoftware,KiCad,Pcbnew,9.0.7*%
%TF.CreationDate,2026-01-03T11:51:17-05:00*%
%TF.ProjectId,DualClockLO,4475616c-436c-46f6-936b-4c4f2e6b6963,rev?*%
%TF.SameCoordinates,Original*%
%TF.FileFunction,Soldermask,Top*%
%TF.FilePolarity,Negative*%
%FSLAX46Y46*%
G04 Gerber Fmt 4.6, Leading zero omitted, Abs format (unit mm)*
G04 Created by KiCad (PCBNEW 9.0.7) date 2026-01-03 11:51:17*
%MOMM*%
%LPD*%
G01*
G04 APERTURE LIST*
G04 Aperture macros list*
%AMRoundRect*
0 Rectangle with rounded corners*
0 $1 Rounding radius*
0 $2 $3 $4 $5 $6 $7 $8 $9 X,Y pos of 4 corners*
0 Add a 4 corners polygon primitive as box body*
4,1,4,$2,$3,$4,$5,$6,$7,$8,$9,$2,$3,0*
0 Add four circle primitives for the rounded corners*
1,1,$1+$1,$2,$3*
1,1,$1+$1,$4,$5*
1,1,$1+$1,$6,$7*
1,1,$1+$1,$8,$9*
0 Add four rect primitives between the rounded corners*
20,1,$1+$1,$2,$3,$4,$5,0*
20,1,$1+$1,$4,$5,$6,$7,0*
20,1,$1+$1,$6,$7,$8,$9,0*
20,1,$1+$1,$8,$9,$2,$3,0*%
%AMFreePoly0*
4,1,6,1.000000,0.000000,0.500000,-0.750000,-0.500000,-0.750000,-0.500000,0.750000,0.500000,0.750000,1.000000,0.000000,1.000000,0.000000,$1*%
%AMFreePoly1*
4,1,6,0.500000,-0.750000,-0.650000,-0.750000,-0.150000,0.000000,-0.650000,0.750000,0.500000,0.750000,0.500000,-0.750000,0.500000,-0.750000,$1*%
%AMFreePoly2*
4,1,23,0.500000,-0.750000,0.000000,-0.750000,0.000000,-0.745722,-0.065263,-0.745722,-0.191342,-0.711940,-0.304381,-0.646677,-0.396677,-0.554381,-0.461940,-0.441342,-0.495722,-0.315263,-0.495722,-0.250000,-0.500000,-0.250000,-0.500000,0.250000,-0.495722,0.250000,-0.495722,0.315263,-0.461940,0.441342,-0.396677,0.554381,-0.304381,0.646677,-0.191342,0.711940,-0.065263,0.745722,0.000000,0.745722,
0.000000,0.750000,0.500000,0.750000,0.500000,-0.750000,0.500000,-0.750000,$1*%
%AMFreePoly3*
4,1,23,0.000000,0.745722,0.065263,0.745722,0.191342,0.711940,0.304381,0.646677,0.396677,0.554381,0.461940,0.441342,0.495722,0.315263,0.495722,0.250000,0.500000,0.250000,0.500000,-0.250000,0.495722,-0.250000,0.495722,-0.315263,0.461940,-0.441342,0.396677,-0.554381,0.304381,-0.646677,0.191342,-0.711940,0.065263,-0.745722,0.000000,-0.745722,0.000000,-0.750000,-0.500000,-0.750000,
-0.500000,0.750000,0.000000,0.750000,0.000000,0.745722,0.000000,0.745722,$1*%
G04 Aperture macros list end*
%ADD10C,0.000000*%
%ADD11RoundRect,0.218750X0.218750X0.256250X-0.218750X0.256250X-0.218750X-0.256250X0.218750X-0.256250X0*%
%ADD12R,1.000000X1.000000*%
%ADD13R,0.600000X0.650000*%
%ADD14R,1.000000X0.600000*%
%ADD15FreePoly0,180.000000*%
%ADD16FreePoly1,180.000000*%
%ADD17RoundRect,0.225000X-0.225000X-0.250000X0.225000X-0.250000X0.225000X0.250000X-0.225000X0.250000X0*%
%ADD18RoundRect,0.062500X0.337500X0.062500X-0.337500X0.062500X-0.337500X-0.062500X0.337500X-0.062500X0*%
%ADD19RoundRect,0.062500X0.062500X0.337500X-0.062500X0.337500X-0.062500X-0.337500X0.062500X-0.337500X0*%
%ADD20R,2.700000X2.700000*%
%ADD21RoundRect,0.225000X0.250000X-0.225000X0.250000X0.225000X-0.250000X0.225000X-0.250000X-0.225000X0*%
%ADD22RoundRect,0.218750X0.256250X-0.218750X0.256250X0.218750X-0.256250X0.218750X-0.256250X-0.218750X0*%
%ADD23RoundRect,0.218750X-0.218750X-0.256250X0.218750X-0.256250X0.218750X0.256250X-0.218750X0.256250X0*%
%ADD24RoundRect,0.200000X-0.275000X0.200000X-0.275000X-0.200000X0.275000X-0.200000X0.275000X0.200000X0*%
%ADD25R,1.700000X1.700000*%
%ADD26C,1.700000*%
%ADD27RoundRect,0.200000X0.275000X-0.200000X0.275000X0.200000X-0.275000X0.200000X-0.275000X-0.200000X0*%
%ADD28RoundRect,0.250000X-3.687500X-0.750000X3.687500X-0.750000X3.687500X0.750000X-3.687500X0.750000X0*%
%ADD29RoundRect,0.218750X-0.256250X0.218750X-0.256250X-0.218750X0.256250X-0.218750X0.256250X0.218750X0*%
%ADD30RoundRect,0.225000X-0.250000X0.225000X-0.250000X-0.225000X0.250000X-0.225000X0.250000X0.225000X0*%
%ADD31FreePoly2,180.000000*%
%ADD32FreePoly3,180.000000*%
%ADD33RoundRect,0.150000X0.625000X-0.150000X0.625000X0.150000X-0.625000X0.150000X-0.625000X-0.150000X0*%
%ADD34RoundRect,0.250000X0.650000X-0.350000X0.650000X0.350000X-0.650000X0.350000X-0.650000X-0.350000X0*%
G04 APERTURE END LIST*
D10*
%TO.C,JP2*%
G36*
X127171999Y-89904000D02*
G01*
X124721999Y-89904000D01*
X124721999Y-88404000D01*
X127171999Y-88404000D01*
X127171999Y-89904000D01*
G37*
%TO.C,JP1*%
G36*
X129436000Y-89904000D02*
G01*
X129136000Y-89904000D01*
X129136000Y-88404000D01*
X129436000Y-88404000D01*
X129436000Y-89904000D01*
G37*
%TD*%
D11*
%TO.C,L2*%
X122580501Y-92456000D03*
X121005499Y-92456000D03*
%TD*%
D12*
%TO.C,Y1*%
X136652000Y-98522000D03*
D13*
X135002001Y-98347000D03*
X133801999Y-98347000D03*
D12*
X132152000Y-98522000D03*
D14*
X132152000Y-99822000D03*
D12*
X132152000Y-101122000D03*
D13*
X133801999Y-101297000D03*
X135002001Y-101297000D03*
D12*
X136652000Y-101122000D03*
D14*
X136652000Y-99822000D03*
%TD*%
D15*
%TO.C,JP2*%
X126671998Y-89154000D03*
D16*
X125222000Y-89154000D03*
%TD*%
D17*
%TO.C,C4*%
X121031000Y-90805000D03*
X122581000Y-90805000D03*
%TD*%
D18*
%TO.C,Y3*%
X121666000Y-88209000D03*
X121666000Y-87709000D03*
X121666000Y-87209000D03*
X121666000Y-86709000D03*
X121666000Y-86209000D03*
D19*
X120716000Y-85259000D03*
X120216000Y-85259000D03*
X119716000Y-85259000D03*
X119216000Y-85259000D03*
X118716000Y-85259000D03*
D18*
X117766000Y-86209000D03*
X117766000Y-86709000D03*
X117766000Y-87209000D03*
X117766000Y-87709000D03*
X117766000Y-88209000D03*
D19*
X118716000Y-89159000D03*
X119216000Y-89159000D03*
X119716000Y-89159000D03*
X120216000Y-89159000D03*
X120716000Y-89159000D03*
D20*
X119716000Y-87209000D03*
%TD*%
D21*
%TO.C,C5*%
X114808000Y-87516000D03*
X114808000Y-85966000D03*
%TD*%
D22*
%TO.C,L4*%
X114808000Y-90576501D03*
X114808000Y-89001499D03*
%TD*%
D23*
%TO.C,L1*%
X139420499Y-98806000D03*
X140995501Y-98806000D03*
%TD*%
D17*
%TO.C,C1*%
X139458501Y-100584000D03*
X141008501Y-100584000D03*
%TD*%
D24*
%TO.C,R1*%
X134874000Y-83503000D03*
X134874000Y-85153000D03*
%TD*%
D25*
%TO.C,J3*%
X115570000Y-79756000D03*
D26*
X118110000Y-79756000D03*
X120650000Y-79756000D03*
X123190000Y-79756000D03*
X125730000Y-79756000D03*
X128270000Y-79756000D03*
%TD*%
D25*
%TO.C,J4*%
X128270000Y-100076000D03*
D26*
X125730000Y-100076000D03*
X123190000Y-100076000D03*
X120650000Y-100076000D03*
X118110000Y-100076000D03*
X115570000Y-100076000D03*
%TD*%
D27*
%TO.C,R2*%
X134874000Y-88201000D03*
X134874000Y-86551000D03*
%TD*%
D28*
%TO.C,Y2*%
X132238500Y-93726000D03*
X144113500Y-93726000D03*
%TD*%
D29*
%TO.C,L3*%
X117221000Y-82270499D03*
X117221000Y-83845501D03*
%TD*%
D25*
%TO.C,J5*%
X123825001Y-83312000D03*
D26*
X126365001Y-83312000D03*
X128905000Y-83312000D03*
%TD*%
D30*
%TO.C,C2*%
X127000000Y-92951000D03*
X127000000Y-94501000D03*
%TD*%
D31*
%TO.C,JP1*%
X129935999Y-89154000D03*
D32*
X128636001Y-89154000D03*
%TD*%
D33*
%TO.C,J1*%
X142780000Y-88368000D03*
X142780000Y-87368000D03*
X142780000Y-86368000D03*
X142780000Y-85368000D03*
D34*
X146655000Y-89668000D03*
X146655000Y-84068000D03*
%TD*%
D21*
%TO.C,C3*%
X118745000Y-83833000D03*
X118745000Y-82283000D03*
%TD*%
D25*
%TO.C,J2*%
X140970000Y-79756000D03*
D26*
X138430000Y-79756000D03*
X135890001Y-79756000D03*
X133350000Y-79756000D03*
%TD*%
M02*
