G04 DipTrace 3.3.1.1*
G04 Bottom.gbr*
%MOIN*%
G04 #@! TF.FileFunction,Copper,L2,Bot*
G04 #@! TF.Part,Single*
%AMOUTLINE0*
4,1,8,
-0.019685,-0.029528,
-0.009843,-0.03937,
0.009843,-0.03937,
0.019685,-0.029528,
0.019685,0.029528,
0.009843,0.03937,
-0.009843,0.03937,
-0.019685,0.029528,
-0.019685,-0.029528,
0*%
G04 #@! TA.AperFunction,Conductor*
%ADD14C,0.027559*%
%ADD16C,0.011811*%
%ADD17C,0.03*%
%ADD19C,0.01*%
G04 #@! TA.AperFunction,CopperBalancing*
%ADD20C,0.04*%
%ADD21C,0.012992*%
G04 #@! TA.AperFunction,ComponentPad*
%ADD30O,0.062992X0.137795*%
%ADD31O,0.137795X0.062992*%
%ADD32C,0.065*%
%ADD33C,0.12*%
%ADD34C,0.059055*%
%ADD35O,0.03937X0.07874*%
%ADD83OUTLINE0*%
%FSLAX26Y26*%
G04*
G70*
G90*
G75*
G01*
G04 Bottom*
%LPD*%
X930358Y1165148D2*
D14*
X1245913D1*
X1424091Y986971D1*
X1583602Y2137289D2*
Y2343644D1*
X1625919Y2385961D1*
X1632766D1*
X1436657Y1602911D2*
X1490814D1*
X1558252Y1535472D1*
X2124291Y2663570D2*
Y2790076D1*
X2179804Y2845589D1*
Y3619083D1*
X2224291Y3663570D1*
X1227041Y1556402D2*
X1423238Y1752598D1*
Y2355781D1*
X1880694Y4027328D2*
Y3895686D1*
X2008396D1*
X2224291Y3679791D1*
Y3663570D1*
X529978Y1091374D2*
X450972D1*
Y891374D1*
X529978D1*
X1341362Y824387D2*
X1330955D1*
Y533740D1*
X2182766Y1885961D2*
X2282766D1*
X2124291Y3663570D2*
Y3679865D1*
X2070081Y3734075D1*
X1973467D1*
X1827189Y3880353D1*
Y3932798D1*
X3802692Y3454864D2*
X3319000D1*
Y3456008D1*
X2182766Y1871322D2*
D16*
Y1885961D1*
X1824291Y2663570D2*
D14*
X1724291D1*
X450972Y1091374D2*
Y1291374D1*
X529978D1*
Y891374D2*
X629978D1*
X529978Y1091374D2*
X629978D1*
X529978Y1291374D2*
X629978D1*
X1094000Y2831008D2*
D19*
X1094871Y2830138D1*
X1035440Y2770706D1*
Y2560379D1*
Y2435751D1*
X727154Y2127465D1*
X461705D1*
Y2130306D1*
X3526488Y2816510D2*
X3384152D1*
Y2322543D1*
X3379773D1*
X1306500Y3131008D2*
D14*
X1561171D1*
Y3218142D1*
X1797171D1*
X1027312Y2560379D2*
D19*
X1035440D1*
X1989804Y1418667D2*
D14*
X2239336D1*
X1412655Y506047D2*
X1981236D1*
X2013406Y538217D1*
X2052033D1*
X2136944Y623127D1*
X529978Y1291374D2*
X429723D1*
Y1795517D1*
X781316D1*
Y1884619D1*
X629978Y1491374D2*
X939530D1*
X1089340Y1341564D1*
X1168950D1*
X1477559Y1032955D1*
Y994108D1*
X1479806Y996354D1*
Y728983D1*
X1519126Y689663D1*
X1544000D1*
X1676406D1*
Y683665D1*
X1736944Y623127D1*
X1544000Y689663D2*
D17*
Y781008D1*
X3007974Y2054232D2*
D19*
X3224018Y2270277D1*
X3534890D1*
X3703938Y3052623D2*
X3889652D1*
X4012563Y3175534D1*
Y3311850D1*
X1534197Y4116571D2*
Y3831521D1*
X1529415D1*
X3183509Y2812163D2*
X3179037D1*
Y2746093D1*
X3084899Y2651955D1*
Y2240923D1*
X2832766Y1988790D1*
Y1785961D1*
X3084945Y2715160D2*
X2985661D1*
Y2233634D1*
X2732766Y1980739D1*
Y1785961D1*
X1824291Y3663570D2*
X1821190D1*
X1874949Y3609811D1*
Y2612109D1*
X1881223D1*
Y2155596D1*
X1783210Y2057583D1*
Y1726272D1*
X1824106Y1685375D1*
X2242783D1*
X2195440Y4000273D2*
X2408206Y3787507D1*
Y2461400D1*
X2332766Y2385961D1*
X2229965Y4084064D2*
X2445423Y3868606D1*
Y2385961D1*
X2432766D1*
X4143563Y2658109D2*
X3712699D1*
X2732766Y2385961D2*
Y3511933D1*
X2823591Y3602757D1*
X2822377D1*
X2843991Y3624371D1*
Y3963403D1*
X2963896Y4083308D1*
Y4122675D1*
X3132766Y1785961D2*
Y1699836D1*
X3130010Y1697080D1*
Y1631039D1*
X3532766Y1785961D2*
Y1642530D1*
X3475492Y1585256D1*
X1587470D1*
X1481936Y1690790D1*
Y2927497D1*
X1690261Y3135823D1*
Y3533909D2*
X1286285D1*
X889925Y3930269D1*
X561297D1*
X508419Y3983147D1*
X3632766Y1785961D2*
X3585265Y1833462D1*
X3100266D1*
X3080266Y1813462D1*
Y1691041D1*
X3020772Y1631546D1*
X1602277D1*
X1516963Y1716860D1*
Y2868920D1*
X1740484Y3092441D1*
X3179159Y2041542D2*
X3041235Y1903618D1*
X2951196D1*
Y1901429D1*
X1813404Y743588D2*
X2594251D1*
X3796136Y3279093D2*
Y3265531D1*
X3457560D1*
X3027230Y2790559D2*
X2936030D1*
Y2385961D1*
X2932766D1*
X3932766Y1785961D2*
X3936832D1*
Y1974262D1*
X3584768Y2326327D1*
Y2895904D1*
X3371713Y3108959D1*
X3251505D1*
X3102818Y3257647D1*
Y3496937D2*
X3094000D1*
Y3699793D1*
X2283997Y3244613D2*
X2292176D1*
Y2598001D1*
X2132766Y2438592D1*
Y2385961D1*
X2333455Y3288618D2*
X2338150D1*
Y2562642D1*
X2230877Y2455369D1*
Y2385961D1*
X2232766D1*
X2370644Y3342449D2*
Y2522891D1*
X2285274Y2437521D1*
Y2341194D1*
X2277617Y2333537D1*
X1985190D1*
X1932766Y2385961D1*
X529978Y1491374D2*
D14*
X500062D1*
X470661Y1520774D1*
Y1634168D1*
X506178Y1669685D1*
X844448D1*
X1105625Y1408508D1*
X1198108D1*
X1725608Y881008D1*
X1783488Y823127D1*
X1786944D1*
X1544000Y881008D2*
D17*
X1725608D1*
X2577290Y2328844D2*
D19*
X2580266Y2331820D1*
Y4009199D1*
X2793741Y4222675D1*
X2863898D1*
X2963896D2*
X2915530Y4271041D1*
X2754871D1*
X2532766Y4048936D1*
Y2385961D1*
X2632766D2*
Y3990617D1*
X2812324Y4170175D1*
X3011396D1*
X3063896Y4222675D1*
Y4122675D2*
Y3867862D1*
X3145846Y3785912D1*
Y3631967D1*
X3142138Y3628259D1*
Y3471098D1*
X2832766Y3161727D1*
Y2385961D1*
X4013193Y1708862D2*
Y1703631D1*
X4208423D1*
X2485580Y3876390D2*
X2483966D1*
Y2098178D1*
X2362051Y1976264D1*
X2046546D1*
X2034331Y1964049D1*
Y1956215D1*
X2032766D1*
Y1785961D1*
X3913896Y4122675D2*
X3913180Y4121958D1*
Y4016933D1*
X3623972Y3727726D1*
X3368133Y3589555D2*
X3321260D1*
X2880266Y3148562D1*
Y2255050D1*
X2484037Y1858820D1*
Y1748480D1*
X2474014Y1738458D1*
X2180269D1*
X2132766Y1785961D1*
X3609316Y3810003D2*
X3647029D1*
X3806436Y3969409D1*
Y4045668D1*
X3807222Y4046454D1*
Y4122675D1*
X3813896D1*
X2682112Y3600857D2*
X2682825D1*
Y2192197D1*
X2486647Y1996018D1*
Y1997827D1*
X2323814Y1834993D1*
X2296675D1*
X2232766Y1771085D1*
Y1785961D1*
X3232766D2*
Y1699836D1*
X3230010Y1697080D1*
Y1631039D1*
X3332766Y1785961D2*
Y1699836D1*
X3330010Y1697080D1*
Y1631039D1*
X3432766Y1785961D2*
Y1699836D1*
X3430010Y1697080D1*
Y1631039D1*
X3167507Y2508657D2*
X3132766Y2473917D1*
Y2385961D1*
X3271782Y2507526D2*
X3232766Y2468510D1*
Y2385961D1*
X608419Y3683147D2*
X601798D1*
Y3542646D1*
X591929Y3532777D1*
X956419Y1826589D2*
Y1667652D1*
D20*
X1583602Y2137289D3*
X1558252Y1535472D3*
X1330955Y533740D3*
X2239336Y1418667D3*
X3007974Y2054232D3*
X3534890Y2270277D3*
X3703938Y3052623D3*
X4012563Y3311850D3*
X2242783Y1685375D3*
X2195440Y4000273D3*
X4143563Y2658109D3*
X3712699D3*
X1690261Y3135823D3*
Y3533909D3*
X1740484Y3092441D3*
X3179159Y2041542D3*
X2951196Y1901429D3*
X1813404Y743588D3*
X2594251D3*
X3457560Y3265531D3*
X3027230Y2790559D3*
X3102818Y3257647D3*
Y3496937D3*
X4208423Y1703631D3*
X3623972Y3727726D3*
X3368133Y3589555D3*
X591929Y3532777D3*
X956419Y1826589D3*
Y1667652D3*
X895987Y1290752D3*
X1432703Y1663299D3*
X1827189Y3932798D3*
X2233957Y3116244D3*
X3066151Y3124420D3*
X3112264Y3948689D3*
X2908661D3*
X1994000Y3131008D3*
X1715648Y2121438D3*
X3298762Y1488941D3*
X4244000Y1381008D3*
X3649037Y2897118D3*
X3899122Y2141948D3*
X2919492Y1998992D3*
X1189142Y1889302D3*
X1171277Y2557874D3*
X1333570Y2196186D3*
X3379773Y2322543D3*
X2572722Y4211038D3*
X3488375Y4119978D3*
X3930676Y3801480D3*
X4207555Y1957189D3*
X2343824Y2172997D3*
X3463034Y2088720D3*
X3526488Y2816510D3*
X1797171Y3218142D3*
X1027312Y2560379D3*
X634780Y2637441D3*
X1015272Y3321364D3*
X781316Y1884619D3*
X2884927Y1393395D3*
X3399291Y1169993D3*
X4222211Y1102255D3*
X1989804Y1418667D3*
X1341362Y824387D3*
X1025320Y849549D3*
X3903226Y3193323D3*
X2507469Y4212777D3*
X3802692Y3454864D3*
X930358Y1165148D3*
X1436657Y1602911D3*
X1227041Y1556402D3*
X1423238Y2355781D3*
X1880694Y4027328D3*
X3183509Y2812163D3*
X3084945Y2715160D3*
X2229965Y4084064D3*
X3796136Y3279093D3*
X2283997Y3244613D3*
X2333455Y3288618D3*
X2370644Y3342449D3*
X2577290Y2328844D3*
X4013193Y1708862D3*
X2485580Y3876390D3*
X3609316Y3810003D3*
X2682112Y3600857D3*
X1618895Y1491654D2*
X4268011D1*
X1593130Y1451785D2*
X4268334D1*
X1612220Y1411916D2*
X4268693D1*
X1612830Y1372047D2*
X3710119D1*
X3837829D2*
X4269051D1*
X1605725Y1332178D2*
X3690240D1*
X3857745D2*
X4269410D1*
X1548942Y1292310D2*
X3692787D1*
X3855161D2*
X4269769D1*
X1462655Y1252441D2*
X3721208D1*
X3826741D2*
X4270092D1*
X1490501Y1212572D2*
X4270451D1*
X1530368Y1172703D2*
X4270810D1*
X1570236Y1132835D2*
X4271169D1*
X1610103Y1092966D2*
X4271492D1*
X1649970Y1053097D2*
X4271850D1*
X1689838Y1013228D2*
X4272209D1*
X1729705Y973360D2*
X4272568D1*
X1770613Y933491D2*
X4272891D1*
X2036802Y893622D2*
X2137064D1*
X2436803D2*
X2777131D1*
X3012565D2*
X4273250D1*
X2069277Y853753D2*
X2104625D1*
X2469278D2*
X2758076D1*
X3031583D2*
X4273609D1*
X2074552Y813885D2*
X2099350D1*
X2474517D2*
X2576646D1*
X2611846D2*
X2760480D1*
X3029179D2*
X4273968D1*
X2663053Y774016D2*
X2787142D1*
X3002553D2*
X4274326D1*
X2669225Y734147D2*
X4274649D1*
X2650170Y694278D2*
X4275008D1*
X2119012Y654409D2*
X2154863D1*
X2519013D2*
X2808637D1*
X2944420D2*
X4275367D1*
X1461004Y614541D2*
X1649075D1*
X2124610D2*
X2149301D1*
X2524611D2*
X2789762D1*
X2963331D2*
X4129031D1*
X1460896Y574672D2*
X1664218D1*
X2109683D2*
X2164193D1*
X2509684D2*
X2792238D1*
X2960820D2*
X4095013D1*
X1460825Y534803D2*
X2819079D1*
X2934014D2*
X4082167D1*
X1460717Y494934D2*
X4083387D1*
X4091296Y480402D2*
X4088380Y490423D1*
X4086577Y499428D1*
X4085468Y508545D1*
X4085059Y517720D1*
X4085352Y526899D1*
X4086345Y536030D1*
X4088033Y545057D1*
X4090405Y553930D1*
X4093448Y562595D1*
X4097145Y571002D1*
X4101473Y579103D1*
X4106407Y586849D1*
X4111919Y594195D1*
X4117975Y601099D1*
X4124541Y607521D1*
X4131579Y613421D1*
X4139047Y618767D1*
X4146902Y623527D1*
X4155097Y627673D1*
X4163585Y631180D1*
X4172316Y634029D1*
X4181239Y636203D1*
X4190302Y637688D1*
X4199452Y638477D1*
X4208636Y638565D1*
X4217799Y637950D1*
X4226889Y636638D1*
X4235852Y634635D1*
X4244636Y631952D1*
X4253189Y628607D1*
X4261462Y624618D1*
X4269406Y620009D1*
X4279739Y612577D1*
X4271650Y1531496D1*
X3487102Y1529865D1*
X3479933Y1528830D1*
X3457119Y1528656D1*
X2775771Y1528400D1*
X1629238Y1526038D1*
X1627874Y1518758D1*
X1624402Y1508072D1*
X1619301Y1498062D1*
X1612697Y1488972D1*
X1604752Y1481027D1*
X1595663Y1474423D1*
X1585652Y1469323D1*
X1574967Y1465851D1*
X1571628Y1465187D1*
X1579442Y1460250D1*
X1587948Y1452985D1*
X1595213Y1444479D1*
X1601057Y1434941D1*
X1605338Y1424607D1*
X1607949Y1413730D1*
X1608827Y1402579D1*
X1608607Y1357616D1*
X1606857Y1346567D1*
X1603401Y1335929D1*
X1598322Y1325962D1*
X1591748Y1316913D1*
X1583838Y1309003D1*
X1574788Y1302428D1*
X1564822Y1297350D1*
X1554183Y1293893D1*
X1543135Y1292143D1*
X1531949D1*
X1520901Y1293893D1*
X1515829Y1295324D1*
X1509430Y1293349D1*
X1501433Y1292083D1*
X1477699Y1291924D1*
X1469627Y1292559D1*
X1461739Y1294455D1*
X1458730Y1288379D1*
X1458697Y1240379D1*
X1762855Y936222D1*
X1768861Y931651D1*
X1776251Y924261D1*
X1780634Y918439D1*
X1792010Y907066D1*
X1800100Y906192D1*
X1806576Y904904D1*
X1812932Y903111D1*
X1819127Y900826D1*
X1825124Y898061D1*
X1830886Y894834D1*
X1836923Y890734D1*
X1843001Y894834D1*
X1848763Y898061D1*
X1854760Y900826D1*
X1860955Y903111D1*
X1867311Y904904D1*
X1873787Y906192D1*
X1880345Y906968D1*
X1886944Y907227D1*
X1893542Y906968D1*
X1900100Y906192D1*
X1906576Y904904D1*
X1912932Y903111D1*
X1919127Y900826D1*
X1925124Y898061D1*
X1930886Y894834D1*
X1936923Y890734D1*
X1943001Y894834D1*
X1948763Y898061D1*
X1954760Y900826D1*
X1960955Y903111D1*
X1967311Y904904D1*
X1973787Y906192D1*
X1980345Y906968D1*
X1986944Y907227D1*
X1993542Y906968D1*
X2000100Y906192D1*
X2006576Y904904D1*
X2012932Y903111D1*
X2019127Y900826D1*
X2025124Y898061D1*
X2030886Y894834D1*
X2036376Y891166D1*
X2041562Y887077D1*
X2046411Y882595D1*
X2050894Y877746D1*
X2054982Y872560D1*
X2058651Y867069D1*
X2061877Y861308D1*
X2064642Y855311D1*
X2066927Y849116D1*
X2068720Y842760D1*
X2070008Y836283D1*
X2070784Y829726D1*
X2071044Y823127D1*
X2070784Y816529D1*
X2070008Y809971D1*
X2067789Y800193D1*
X2106040Y800188D1*
X2103879Y809971D1*
X2103103Y816529D1*
X2102844Y823127D1*
X2103103Y829726D1*
X2103879Y836283D1*
X2105167Y842760D1*
X2106960Y849116D1*
X2109245Y855311D1*
X2112010Y861308D1*
X2115237Y867069D1*
X2118905Y872560D1*
X2122993Y877746D1*
X2127476Y882595D1*
X2132325Y887077D1*
X2137511Y891166D1*
X2143001Y894834D1*
X2148763Y898061D1*
X2154760Y900826D1*
X2160955Y903111D1*
X2167311Y904904D1*
X2173787Y906192D1*
X2180345Y906968D1*
X2186944Y907227D1*
X2193542Y906968D1*
X2200100Y906192D1*
X2206576Y904904D1*
X2212932Y903111D1*
X2219127Y900826D1*
X2225124Y898061D1*
X2230886Y894834D1*
X2236923Y890734D1*
X2243001Y894834D1*
X2248763Y898061D1*
X2254760Y900826D1*
X2260955Y903111D1*
X2267311Y904904D1*
X2273787Y906192D1*
X2280345Y906968D1*
X2286944Y907227D1*
X2293542Y906968D1*
X2300100Y906192D1*
X2306576Y904904D1*
X2312932Y903111D1*
X2319127Y900826D1*
X2325124Y898061D1*
X2330886Y894834D1*
X2336923Y890734D1*
X2343001Y894834D1*
X2348763Y898061D1*
X2354760Y900826D1*
X2360955Y903111D1*
X2367311Y904904D1*
X2373787Y906192D1*
X2380345Y906968D1*
X2386944Y907227D1*
X2393542Y906968D1*
X2400100Y906192D1*
X2406576Y904904D1*
X2412932Y903111D1*
X2419127Y900826D1*
X2425124Y898061D1*
X2430886Y894834D1*
X2436376Y891166D1*
X2441562Y887077D1*
X2446411Y882595D1*
X2450894Y877746D1*
X2454982Y872560D1*
X2458651Y867069D1*
X2461877Y861308D1*
X2464642Y855311D1*
X2466927Y849116D1*
X2468720Y842760D1*
X2470008Y836283D1*
X2470784Y829726D1*
X2471044Y823127D1*
X2470784Y816529D1*
X2470008Y809971D1*
X2467789Y800193D1*
X2550430Y800188D1*
X2556840Y804637D1*
X2566851Y809738D1*
X2577536Y813210D1*
X2588633Y814967D1*
X2599868D1*
X2610965Y813210D1*
X2621651Y809738D1*
X2631662Y804637D1*
X2640751Y798033D1*
X2648696Y790088D1*
X2655300Y780999D1*
X2660400Y770988D1*
X2663872Y760303D1*
X2665630Y749206D1*
Y737970D1*
X2663872Y726873D1*
X2660400Y716188D1*
X2655300Y706177D1*
X2648696Y697087D1*
X2640751Y689143D1*
X2631662Y682539D1*
X2621651Y677438D1*
X2610965Y673966D1*
X2599868Y672209D1*
X2588633D1*
X2577536Y673966D1*
X2566851Y677438D1*
X2556840Y682539D1*
X2550492Y686981D1*
X2491658Y686988D1*
X2496411Y682595D1*
X2500894Y677746D1*
X2504982Y672560D1*
X2508651Y667069D1*
X2511877Y661308D1*
X2514642Y655311D1*
X2516927Y649116D1*
X2518720Y642760D1*
X2520008Y636283D1*
X2520784Y629726D1*
X2521044Y623127D1*
X2520784Y616529D1*
X2520008Y609971D1*
X2518720Y603495D1*
X2516927Y597139D1*
X2514642Y590944D1*
X2511877Y584947D1*
X2508651Y579185D1*
X2504982Y573695D1*
X2500894Y568509D1*
X2496411Y563660D1*
X2491562Y559177D1*
X2486376Y555089D1*
X2480886Y551420D1*
X2475124Y548194D1*
X2469127Y545429D1*
X2462932Y543143D1*
X2456576Y541351D1*
X2450100Y540063D1*
X2443542Y539287D1*
X2436944Y539027D1*
X2430345Y539287D1*
X2423787Y540063D1*
X2417311Y541351D1*
X2410955Y543143D1*
X2404760Y545429D1*
X2398763Y548194D1*
X2393001Y551420D1*
X2386964Y555520D1*
X2380886Y551420D1*
X2375124Y548194D1*
X2369127Y545429D1*
X2362932Y543143D1*
X2356576Y541351D1*
X2350100Y540063D1*
X2343542Y539287D1*
X2336944Y539027D1*
X2330345Y539287D1*
X2323787Y540063D1*
X2317311Y541351D1*
X2310955Y543143D1*
X2304760Y545429D1*
X2298763Y548194D1*
X2293001Y551420D1*
X2286964Y555520D1*
X2280886Y551420D1*
X2275124Y548194D1*
X2269127Y545429D1*
X2262932Y543143D1*
X2256576Y541351D1*
X2250100Y540063D1*
X2243542Y539287D1*
X2236944Y539027D1*
X2230345Y539287D1*
X2223787Y540063D1*
X2217311Y541351D1*
X2210955Y543143D1*
X2204760Y545429D1*
X2198763Y548194D1*
X2193001Y551420D1*
X2187511Y555089D1*
X2182325Y559177D1*
X2177476Y563660D1*
X2172993Y568509D1*
X2168905Y573695D1*
X2165237Y579185D1*
X2162010Y584947D1*
X2159245Y590944D1*
X2156960Y597139D1*
X2155167Y603495D1*
X2153879Y609971D1*
X2153103Y616529D1*
X2152844Y623127D1*
X2153103Y629726D1*
X2153879Y636283D1*
X2155167Y642760D1*
X2156960Y649116D1*
X2159245Y655311D1*
X2162010Y661308D1*
X2165237Y667069D1*
X2168905Y672560D1*
X2172993Y677746D1*
X2177476Y682595D1*
X2182230Y686990D1*
X2091693Y686988D1*
X2096411Y682595D1*
X2100894Y677746D1*
X2104982Y672560D1*
X2108651Y667069D1*
X2111877Y661308D1*
X2114642Y655311D1*
X2116927Y649116D1*
X2118720Y642760D1*
X2120008Y636283D1*
X2120784Y629726D1*
X2121044Y623127D1*
X2120784Y616529D1*
X2120008Y609971D1*
X2118720Y603495D1*
X2116927Y597139D1*
X2114642Y590944D1*
X2111877Y584947D1*
X2108651Y579185D1*
X2104982Y573695D1*
X2100894Y568509D1*
X2096411Y563660D1*
X2091562Y559177D1*
X2086376Y555089D1*
X2080886Y551420D1*
X2075124Y548194D1*
X2069127Y545429D1*
X2062932Y543143D1*
X2056576Y541351D1*
X2050100Y540063D1*
X2043542Y539287D1*
X2036944Y539027D1*
X2030345Y539287D1*
X2023787Y540063D1*
X2017311Y541351D1*
X2010955Y543143D1*
X2004760Y545429D1*
X1998763Y548194D1*
X1993001Y551420D1*
X1986964Y555520D1*
X1980886Y551420D1*
X1975124Y548194D1*
X1969127Y545429D1*
X1962932Y543143D1*
X1956576Y541351D1*
X1950100Y540063D1*
X1943542Y539287D1*
X1936944Y539027D1*
X1930345Y539287D1*
X1923787Y540063D1*
X1917311Y541351D1*
X1910955Y543143D1*
X1904760Y545429D1*
X1898763Y548194D1*
X1893001Y551420D1*
X1886964Y555520D1*
X1880886Y551420D1*
X1875124Y548194D1*
X1869127Y545429D1*
X1862932Y543143D1*
X1856576Y541351D1*
X1850100Y540063D1*
X1843542Y539287D1*
X1836944Y539027D1*
X1830345Y539287D1*
X1823787Y540063D1*
X1817311Y541351D1*
X1810955Y543143D1*
X1804760Y545429D1*
X1798763Y548194D1*
X1793001Y551420D1*
X1786964Y555520D1*
X1780886Y551420D1*
X1775124Y548194D1*
X1769127Y545429D1*
X1762932Y543143D1*
X1756576Y541351D1*
X1750100Y540063D1*
X1743542Y539287D1*
X1736944Y539027D1*
X1730345Y539287D1*
X1723787Y540063D1*
X1717311Y541351D1*
X1710955Y543143D1*
X1704760Y545429D1*
X1698763Y548194D1*
X1693001Y551420D1*
X1687511Y555089D1*
X1682325Y559177D1*
X1677476Y563660D1*
X1672993Y568509D1*
X1668905Y573695D1*
X1665237Y579185D1*
X1662010Y584947D1*
X1659245Y590944D1*
X1656960Y597139D1*
X1655167Y603495D1*
X1653373Y614249D1*
X1643340Y624270D1*
X1556660Y624283D1*
X1549225Y623268D1*
X1538775D1*
X1531558Y624285D1*
X1513996Y624485D1*
X1503863Y626090D1*
X1494106Y629260D1*
X1484965Y633917D1*
X1476665Y639948D1*
X1459904Y656424D1*
X1457138Y659190D1*
X1456678Y484468D1*
X4091259Y480427D1*
X2960376Y593122D2*
X2959600Y586564D1*
X2958312Y580088D1*
X2956519Y573732D1*
X2954234Y567537D1*
X2951469Y561540D1*
X2948242Y555778D1*
X2944574Y550288D1*
X2940486Y545102D1*
X2936003Y540253D1*
X2931154Y535770D1*
X2925968Y531682D1*
X2920478Y528013D1*
X2914716Y524787D1*
X2908719Y522022D1*
X2902524Y519737D1*
X2896168Y517944D1*
X2889692Y516656D1*
X2883134Y515880D1*
X2876535Y515620D1*
X2869937Y515880D1*
X2863379Y516656D1*
X2856903Y517944D1*
X2850547Y519737D1*
X2844352Y522022D1*
X2838355Y524787D1*
X2832593Y528013D1*
X2827103Y531682D1*
X2821917Y535770D1*
X2817068Y540253D1*
X2812585Y545102D1*
X2808497Y550288D1*
X2804828Y555778D1*
X2801602Y561540D1*
X2798837Y567537D1*
X2796552Y573732D1*
X2794759Y580088D1*
X2793471Y586564D1*
X2792695Y593122D1*
X2792435Y599720D1*
X2792695Y606319D1*
X2793471Y612877D1*
X2794759Y619353D1*
X2796552Y625709D1*
X2798837Y631904D1*
X2801602Y637901D1*
X2804828Y643663D1*
X2808497Y649153D1*
X2812585Y654339D1*
X2817068Y659188D1*
X2821917Y663671D1*
X2827103Y667759D1*
X2832593Y671428D1*
X2838355Y674654D1*
X2844352Y677419D1*
X2850547Y679704D1*
X2856903Y681497D1*
X2863379Y682785D1*
X2869937Y683561D1*
X2876535Y683820D1*
X2883134Y683561D1*
X2889692Y682785D1*
X2896168Y681497D1*
X2902524Y679704D1*
X2908719Y677419D1*
X2914716Y674654D1*
X2920478Y671428D1*
X2925968Y667759D1*
X2931154Y663671D1*
X2936003Y659188D1*
X2940486Y654339D1*
X2944574Y649153D1*
X2948242Y643663D1*
X2951469Y637901D1*
X2954234Y631904D1*
X2956519Y625709D1*
X2958312Y619353D1*
X2959600Y612877D1*
X2960376Y606319D1*
X2960635Y599720D1*
X2960376Y593122D1*
X3854862Y1310913D2*
X3854113Y1304587D1*
X3852870Y1298339D1*
X3851141Y1292208D1*
X3848936Y1286232D1*
X3846269Y1280447D1*
X3843157Y1274889D1*
X3839618Y1269593D1*
X3835674Y1264590D1*
X3831350Y1259912D1*
X3826672Y1255588D1*
X3821670Y1251645D1*
X3816373Y1248106D1*
X3810815Y1244993D1*
X3805030Y1242326D1*
X3799054Y1240121D1*
X3792923Y1238392D1*
X3786675Y1237149D1*
X3780349Y1236401D1*
X3773984Y1236151D1*
X3767619Y1236401D1*
X3761293Y1237149D1*
X3755045Y1238392D1*
X3748914Y1240121D1*
X3742938Y1242326D1*
X3737153Y1244993D1*
X3731595Y1248106D1*
X3726299Y1251645D1*
X3721296Y1255588D1*
X3716618Y1259912D1*
X3712294Y1264590D1*
X3708351Y1269593D1*
X3704812Y1274889D1*
X3701699Y1280447D1*
X3699032Y1286232D1*
X3696827Y1292208D1*
X3695098Y1298339D1*
X3693856Y1304587D1*
X3693107Y1310913D1*
X3692857Y1317278D1*
X3693107Y1323643D1*
X3693856Y1329969D1*
X3695098Y1336217D1*
X3696827Y1342348D1*
X3699032Y1348324D1*
X3701699Y1354109D1*
X3704812Y1359667D1*
X3708351Y1364964D1*
X3712294Y1369966D1*
X3716618Y1374644D1*
X3721296Y1378968D1*
X3726299Y1382912D1*
X3731595Y1386451D1*
X3737153Y1389563D1*
X3742938Y1392230D1*
X3748914Y1394435D1*
X3755045Y1396164D1*
X3761293Y1397407D1*
X3767619Y1398156D1*
X3773984Y1398406D1*
X3780349Y1398156D1*
X3786675Y1397407D1*
X3792923Y1396164D1*
X3799054Y1394435D1*
X3805030Y1392230D1*
X3810815Y1389563D1*
X3816373Y1386451D1*
X3821670Y1382912D1*
X3826672Y1378968D1*
X3831350Y1374644D1*
X3835674Y1369966D1*
X3839618Y1364964D1*
X3843157Y1359667D1*
X3846269Y1354109D1*
X3848936Y1348324D1*
X3851141Y1342348D1*
X3852870Y1336217D1*
X3854113Y1329969D1*
X3854862Y1323643D1*
X3855112Y1317278D1*
X3854862Y1310913D1*
X2894817Y771125D2*
X2888779Y767025D1*
X2883018Y763799D1*
X2877021Y761034D1*
X2870826Y758748D1*
X2864470Y756956D1*
X2857993Y755668D1*
X2851436Y754892D1*
X2844837Y754632D1*
X2838239Y754892D1*
X2831681Y755668D1*
X2825205Y756956D1*
X2818849Y758748D1*
X2812654Y761034D1*
X2806657Y763799D1*
X2800895Y767025D1*
X2795405Y770694D1*
X2790219Y774782D1*
X2785370Y779265D1*
X2780887Y784114D1*
X2776799Y789300D1*
X2773130Y794790D1*
X2769904Y800552D1*
X2767139Y806549D1*
X2764853Y812744D1*
X2763061Y819100D1*
X2761773Y825576D1*
X2760997Y832134D1*
X2760737Y838732D1*
X2760997Y845331D1*
X2761773Y851888D1*
X2763061Y858365D1*
X2764853Y864721D1*
X2767139Y870916D1*
X2769904Y876913D1*
X2773130Y882674D1*
X2776799Y888165D1*
X2780887Y893351D1*
X2785370Y898200D1*
X2790219Y902682D1*
X2795405Y906771D1*
X2800895Y910439D1*
X2806657Y913666D1*
X2812654Y916431D1*
X2818849Y918716D1*
X2825205Y920509D1*
X2831681Y921797D1*
X2838239Y922573D1*
X2844837Y922832D1*
X2851436Y922573D1*
X2857993Y921797D1*
X2864470Y920509D1*
X2870826Y918716D1*
X2877021Y916431D1*
X2883018Y913666D1*
X2888779Y910439D1*
X2894817Y906339D1*
X2900895Y910439D1*
X2906657Y913666D1*
X2912654Y916431D1*
X2918849Y918716D1*
X2925205Y920509D1*
X2931681Y921797D1*
X2938239Y922573D1*
X2944837Y922832D1*
X2951436Y922573D1*
X2957993Y921797D1*
X2964470Y920509D1*
X2970826Y918716D1*
X2977021Y916431D1*
X2983018Y913666D1*
X2988779Y910439D1*
X2994270Y906771D1*
X2999456Y902682D1*
X3004305Y898200D1*
X3008787Y893351D1*
X3012876Y888165D1*
X3016544Y882674D1*
X3019771Y876913D1*
X3022536Y870916D1*
X3024821Y864721D1*
X3026614Y858365D1*
X3027902Y851888D1*
X3028678Y845331D1*
X3028937Y838732D1*
X3028678Y832134D1*
X3027902Y825576D1*
X3026614Y819100D1*
X3024821Y812744D1*
X3022536Y806549D1*
X3019771Y800552D1*
X3016544Y794790D1*
X3012876Y789300D1*
X3008787Y784114D1*
X3004305Y779265D1*
X2999456Y774782D1*
X2994270Y770694D1*
X2988779Y767025D1*
X2983018Y763799D1*
X2977021Y761034D1*
X2970826Y758748D1*
X2964470Y756956D1*
X2957993Y755668D1*
X2951436Y754892D1*
X2944837Y754632D1*
X2938239Y754892D1*
X2931681Y755668D1*
X2925205Y756956D1*
X2918849Y758748D1*
X2912654Y761034D1*
X2906657Y763799D1*
X2900895Y767025D1*
X2894858Y771125D1*
X460457Y4232234D2*
X932659D1*
X1748699D2*
X2632027D1*
X3351467D2*
X3626342D1*
X4201455D2*
X4262210D1*
X460350Y4192365D2*
X936571D1*
X1747156D2*
X2592159D1*
X3346335D2*
X3631437D1*
X4196360D2*
X4262066D1*
X660009Y4152496D2*
X957384D1*
X1729573D2*
X2204897D1*
X2255025D2*
X2552292D1*
X3346515D2*
X3631258D1*
X4196539D2*
X4261922D1*
X691193Y4112627D2*
X977371D1*
X1695017D2*
X2160293D1*
X2299629D2*
X2512425D1*
X3351395D2*
X3626413D1*
X4201384D2*
X4261779D1*
X695857Y4072759D2*
X943999D1*
X1734633D2*
X1821367D1*
X1940034D2*
X2155270D1*
X2325322D2*
X2477438D1*
X3335570D2*
X3642203D1*
X4185595D2*
X4261635D1*
X680248Y4032890D2*
X932731D1*
X1748592D2*
X1805327D1*
X1956074D2*
X2127710D1*
X2365190D2*
X2472163D1*
X3124499D2*
X3745836D1*
X3973770D2*
X4261492D1*
X695929Y3993021D2*
X936391D1*
X1747300D2*
X1811320D1*
X1950082D2*
X2120211D1*
X2405057D2*
X2472163D1*
X2957638D2*
X3003285D1*
X3124499D2*
X3745836D1*
X3968495D2*
X4261348D1*
X1730040Y3953152D2*
X1811320D1*
X2043560D2*
X2137543D1*
X2444924D2*
X2472163D1*
X2917770D2*
X3003285D1*
X3124499D2*
X3706148D1*
X3933436D2*
X4261205D1*
X990969Y3913283D2*
X1023554D1*
X1072211D2*
X1102858D1*
X1196298D2*
X1223572D1*
X1272229D2*
X1387922D1*
X1680448D2*
X1811320D1*
X2087267D2*
X2198402D1*
X2904601D2*
X3003285D1*
X3124499D2*
X3666281D1*
X3893569D2*
X4261061D1*
X695965Y3873415D2*
X862721D1*
X1030836D2*
X1069845D1*
X1229312D2*
X1455958D1*
X1602902D2*
X1815231D1*
X2127134D2*
X2238270D1*
X2904601D2*
X3003285D1*
X3142405D2*
X3572085D1*
X3853702D2*
X4260918D1*
X680320Y3833546D2*
X902588D1*
X1233977D2*
X1444296D1*
X1614529D2*
X1856354D1*
X2167001D2*
X2278137D1*
X2904601D2*
X3014875D1*
X3182273D2*
X3537708D1*
X3813834D2*
X4260810D1*
X695857Y3793677D2*
X942456D1*
X1216968D2*
X1453662D1*
X1605163D2*
X2013958D1*
X2206869D2*
X2318004D1*
X2904601D2*
X3054025D1*
X3205920D2*
X3535591D1*
X3773967D2*
X4090898D1*
X4141457D2*
X4190908D1*
X691228Y3753808D2*
X982359D1*
X1150438D2*
X1502141D1*
X1556719D2*
X2053825D1*
X2246736D2*
X2347609D1*
X3362447D2*
X3553282D1*
X3734100D2*
X4039046D1*
X690690Y3713940D2*
X1022226D1*
X1190306D2*
X1652927D1*
X2295646D2*
X2347609D1*
X3380892D2*
X3549729D1*
X3698216D2*
X4028101D1*
X696037Y3674071D2*
X1062094D1*
X1230173D2*
X1636851D1*
X2311722D2*
X2347609D1*
X3378057D2*
X3572551D1*
X3675393D2*
X4037287D1*
X680822Y3634202D2*
X1101961D1*
X1270040D2*
X1641480D1*
X2307093D2*
X2347609D1*
X3428115D2*
X4030972D1*
X458842Y3594333D2*
X541199D1*
X662413D2*
X1141828D1*
X1309908D2*
X1647831D1*
X2276018D2*
X2347609D1*
X2895953D2*
X3033391D1*
X3443581D2*
X4030039D1*
X458771Y3554465D2*
X519704D1*
X664172D2*
X1181696D1*
X1762838D2*
X1814334D1*
X1935548D2*
X2110414D1*
X2249176D2*
X2347609D1*
X2859351D2*
X3033391D1*
X3434539D2*
X4039405D1*
X458663Y3514596D2*
X518664D1*
X665176D2*
X1221563D1*
X1763197D2*
X1814334D1*
X1935548D2*
X2110414D1*
X2249176D2*
X2347609D1*
X2819484D2*
X3029444D1*
X3383332D2*
X4028101D1*
X458555Y3474727D2*
X546007D1*
X637833D2*
X1645965D1*
X1734561D2*
X1814334D1*
X1935548D2*
X2110414D1*
X2249176D2*
X2347609D1*
X2793360D2*
X3030736D1*
X3405006D2*
X4036964D1*
X458448Y3434858D2*
X655311D1*
X864764D2*
X1814334D1*
X1935548D2*
X2110414D1*
X2249176D2*
X2347609D1*
X2793360D2*
X3021837D1*
X3404396D2*
X4031151D1*
X458376Y3394990D2*
X636723D1*
X883352D2*
X1814334D1*
X1935548D2*
X2110414D1*
X2249176D2*
X2318004D1*
X2793360D2*
X2981969D1*
X3210729D2*
X3240479D1*
X3397506D2*
X4029895D1*
X458268Y3355121D2*
X628792D1*
X880374D2*
X1814334D1*
X1935548D2*
X2110414D1*
X2249176D2*
X2296187D1*
X2793360D2*
X2942102D1*
X3170862D2*
X3230898D1*
X3407087D2*
X3951524D1*
X458161Y3315252D2*
X605575D1*
X852169D2*
X1814334D1*
X1935548D2*
X2110414D1*
X2793360D2*
X2902235D1*
X3149331D2*
X3241448D1*
X3861919D2*
X3937027D1*
X532118Y3275383D2*
X605396D1*
X849693D2*
X1231072D1*
X1381927D2*
X1814334D1*
X1935548D2*
X2110414D1*
X2793360D2*
X2862367D1*
X3176172D2*
X3233159D1*
X3871644D2*
X3946931D1*
X548912Y3235514D2*
X628146D1*
X826978D2*
X1218513D1*
X1394487D2*
X1814334D1*
X1935548D2*
X2110414D1*
X2793360D2*
X2822500D1*
X3209006D2*
X3233446D1*
X3856931D2*
X3951955D1*
X4154447D2*
X4177918D1*
X549665Y3195646D2*
X1036185D1*
X1151802D2*
X1226192D1*
X1386807D2*
X1646934D1*
X1733592D2*
X1814334D1*
X1935548D2*
X2110414D1*
X3011392D2*
X3062996D1*
X3397183D2*
X3437986D1*
X3477133D2*
X3948618D1*
X4073169D2*
X4258513D1*
X549665Y3155777D2*
X876285D1*
X920098D2*
X1009631D1*
X1178356D2*
X1222137D1*
X1390862D2*
X1617509D1*
X1777873D2*
X1814334D1*
X1935548D2*
X2110414D1*
X2971525D2*
X3120626D1*
X3407518D2*
X3908750D1*
X4069617D2*
X4258370D1*
X542560Y3115908D2*
X822064D1*
X974319D2*
X1007263D1*
X1180725D2*
X1219769D1*
X1393231D2*
X1586290D1*
X1935548D2*
X2110414D1*
X2940880D2*
X3160529D1*
X3448820D2*
X3666460D1*
X3741420D2*
X3868883D1*
X4036998D2*
X4258226D1*
X505384Y3076039D2*
X550385D1*
X709960D2*
X811120D1*
X985263D2*
X1018961D1*
X1169026D2*
X1231467D1*
X1381533D2*
X1546423D1*
X1935548D2*
X2110414D1*
X2940880D2*
X3200396D1*
X3488688D2*
X3632263D1*
X3997095D2*
X4258083D1*
X457479Y3036171D2*
X512886D1*
X747495D2*
X811084D1*
X985299D2*
X1006043D1*
X1181945D2*
X1218549D1*
X1394451D2*
X1506555D1*
X1788746D2*
X1814334D1*
X1935548D2*
X2110414D1*
X2940880D2*
X3233266D1*
X3528555D2*
X3630253D1*
X3957228D2*
X4026522D1*
X457371Y2996302D2*
X505889D1*
X754456D2*
X811191D1*
X985228D2*
X1013399D1*
X1174588D2*
X1225905D1*
X1387095D2*
X1466688D1*
X1728389D2*
X1814334D1*
X1935548D2*
X2110414D1*
X2940880D2*
X3241197D1*
X3568422D2*
X3655731D1*
X3899275D2*
X4007288D1*
X457264Y2956433D2*
X519525D1*
X740856D2*
X823320D1*
X973063D2*
X1009846D1*
X1178177D2*
X1263619D1*
X1349380D2*
X1429297D1*
X1688522D2*
X1814334D1*
X1935548D2*
X2110414D1*
X2940880D2*
X3230898D1*
X3407087D2*
X3440210D1*
X3608290D2*
X4009585D1*
X457156Y2916564D2*
X656961D1*
X864549D2*
X1007155D1*
X1180868D2*
X1421330D1*
X1648654D2*
X1814334D1*
X1935548D2*
X2110414D1*
X2940880D2*
X3240730D1*
X3397291D2*
X3480078D1*
X3641447D2*
X4035960D1*
X457084Y2876696D2*
X637620D1*
X883891D2*
X1019391D1*
X1168596D2*
X1421330D1*
X1608787D2*
X1814334D1*
X1935548D2*
X2110414D1*
X2940880D2*
X3148508D1*
X3404504D2*
X3519945D1*
X3645358D2*
X4257401D1*
X456976Y2836827D2*
X630658D1*
X881450D2*
X1006114D1*
X1181909D2*
X1421330D1*
X1577568D2*
X1814334D1*
X1935548D2*
X2074566D1*
X3085888D2*
X3112301D1*
X3404898D2*
X3524179D1*
X3645358D2*
X4257257D1*
X456869Y2796958D2*
X606544D1*
X854286D2*
X1013112D1*
X1174911D2*
X1421330D1*
X1577568D2*
X1814334D1*
X1935548D2*
X2055260D1*
X3396465D2*
X3524179D1*
X3645358D2*
X4257114D1*
X531974Y2757089D2*
X605862D1*
X850662D2*
X1010062D1*
X1177962D2*
X1421330D1*
X1577568D2*
X1814334D1*
X1935548D2*
X2054901D1*
X3407087D2*
X3524179D1*
X3645358D2*
X4256970D1*
X549450Y2717220D2*
X627751D1*
X828772D2*
X1007047D1*
X1180976D2*
X1421330D1*
X1577568D2*
X1655510D1*
X3397614D2*
X3524179D1*
X3645358D2*
X3668290D1*
X3757102D2*
X4099152D1*
X4187963D2*
X4256827D1*
X550383Y2677352D2*
X1025241D1*
X1162747D2*
X1421330D1*
X1577568D2*
X1637317D1*
X3194330D2*
X3233661D1*
X3404360D2*
X3524179D1*
X4216527D2*
X4256683D1*
X550383Y2637483D2*
X882960D1*
X914859D2*
X1421330D1*
X1577568D2*
X1640331D1*
X3154462D2*
X3232979D1*
X3405042D2*
X3524179D1*
X4216132D2*
X4256540D1*
X543744Y2597614D2*
X823428D1*
X974391D2*
X1421330D1*
X1577568D2*
X1668106D1*
X3145491D2*
X3254474D1*
X3383511D2*
X3524179D1*
X3645358D2*
X3670408D1*
X4008147D2*
X4101269D1*
X4185846D2*
X4256396D1*
X508076Y2557745D2*
X553292D1*
X708525D2*
X811837D1*
X985981D2*
X1421330D1*
X1577568D2*
X1820614D1*
X1941828D2*
X2167865D1*
X3343249D2*
X3524179D1*
X3645358D2*
X3752223D1*
X4026986D2*
X4256253D1*
X456187Y2517877D2*
X514106D1*
X747710D2*
X811801D1*
X986017D2*
X1421330D1*
X1577568D2*
X1820614D1*
X1941828D2*
X2127998D1*
X3359254D2*
X3524179D1*
X3645358D2*
X3756386D1*
X4024439D2*
X4256109D1*
X456079Y2478008D2*
X506535D1*
X755246D2*
X811837D1*
X985981D2*
X1421330D1*
X1577568D2*
X1820614D1*
X1941828D2*
X2088130D1*
X3354517D2*
X3524179D1*
X3645358D2*
X3786385D1*
X3997561D2*
X4255966D1*
X455972Y2438139D2*
X519525D1*
X742256D2*
X823392D1*
X974426D2*
X1421330D1*
X4002729D2*
X4255822D1*
X455900Y2398270D2*
X679640D1*
X838748D2*
X882565D1*
X915253D2*
X1104365D1*
X1219408D2*
X1361619D1*
X4019953D2*
X4255679D1*
X455792Y2358402D2*
X641926D1*
X876427D2*
X1079569D1*
X1244240D2*
X1347696D1*
X4016221D2*
X4255535D1*
X455685Y2318533D2*
X634892D1*
X883460D2*
X1078959D1*
X1244814D2*
X1353868D1*
X3987012D2*
X4255392D1*
X455577Y2278664D2*
X612608D1*
X869932D2*
X1101817D1*
X1261141D2*
X1353868D1*
X1652996D2*
X1820614D1*
X1941828D2*
X1967308D1*
X2295503D2*
X2423360D1*
X3716481D2*
X4255248D1*
X508721Y2238795D2*
X602202D1*
X851200D2*
X1155141D1*
X1310410D2*
X1353868D1*
X1652996D2*
X1820614D1*
X2219034D2*
X2423360D1*
X3756348D2*
X4255104D1*
X542704Y2198927D2*
X612178D1*
X841224D2*
X1144663D1*
X1320852D2*
X1353868D1*
X1652996D2*
X1820614D1*
X2258614D2*
X2423360D1*
X3236709D2*
X3524933D1*
X3544886D2*
X3628136D1*
X3796215D2*
X4254961D1*
X548804Y2159058D2*
X660585D1*
X792817D2*
X1154316D1*
X1311235D2*
X1353868D1*
X1655795D2*
X1800626D1*
X2266580D2*
X2423360D1*
X3196842D2*
X3668003D1*
X3836083D2*
X4254817D1*
X548804Y2119189D2*
X1199853D1*
X1265662D2*
X1353868D1*
X1656872D2*
X1760759D1*
X2254379D2*
X2420920D1*
X3156974D2*
X3707871D1*
X3875950D2*
X4254674D1*
X547692Y2079320D2*
X837243D1*
X957453D2*
X1024810D1*
X1163177D2*
X1353868D1*
X1629636D2*
X1726956D1*
X2265073D2*
X2381053D1*
X3243994D2*
X3747738D1*
X3915817D2*
X4254566D1*
X529319Y2039451D2*
X813057D1*
X981639D2*
X1009308D1*
X1178679D2*
X1353868D1*
X1577568D2*
X1722614D1*
X2263315D2*
X2341185D1*
X3254723D2*
X3787605D1*
X3955685D2*
X4254423D1*
X454895Y1999583D2*
X524656D1*
X734002D2*
X810258D1*
X984438D2*
X1015193D1*
X1172794D2*
X1353868D1*
X1577568D2*
X1722614D1*
X2927603D2*
X2957712D1*
X3241159D2*
X3827473D1*
X3991461D2*
X4254279D1*
X454788Y1959714D2*
X505996D1*
X752626D2*
X810258D1*
X984438D2*
X1014116D1*
X1173871D2*
X1353868D1*
X1577568D2*
X1722614D1*
X3181376D2*
X3867340D1*
X3997418D2*
X4254136D1*
X454680Y1919845D2*
X508975D1*
X749684D2*
X813596D1*
X981065D2*
X1009631D1*
X1178356D2*
X1353868D1*
X1577568D2*
X1722614D1*
X3141508D2*
X3876239D1*
X3997418D2*
X4253992D1*
X454608Y1879976D2*
X537108D1*
X721551D2*
X839432D1*
X1161060D2*
X1353868D1*
X1577568D2*
X1722614D1*
X3621531D2*
X3876239D1*
X3997418D2*
X4253848D1*
X454500Y1840108D2*
X882099D1*
X1030729D2*
X1353868D1*
X4001114D2*
X4253705D1*
X454393Y1800239D2*
X885831D1*
X1026997D2*
X1353868D1*
X4019630D2*
X4253561D1*
X454285Y1760370D2*
X895806D1*
X1017021D2*
X1334562D1*
X4066926D2*
X4160765D1*
X1037403Y1720501D2*
X1294695D1*
X1100344Y1680633D2*
X1254828D1*
X1112545Y1640764D2*
X1214924D1*
X1104542Y1600895D2*
X1166947D1*
X1064890Y1561026D2*
X1151589D1*
X1328137D2*
X1370159D1*
X1089435Y1521157D2*
X1160703D1*
X1293365D2*
X1370231D1*
X1129303Y1481289D2*
X1370303D1*
X1261643Y1441420D2*
X1370375D1*
X717460Y1401551D2*
X932875D1*
X1301511D2*
X1370446D1*
X712651Y1361682D2*
X972778D1*
X1341378D2*
X1370518D1*
X712364Y1321814D2*
X1012645D1*
X717532Y1281945D2*
X1058505D1*
X702101Y1242076D2*
X1171971D1*
X717388Y1202207D2*
X865089D1*
X712902Y1162339D2*
X854827D1*
X712113Y1122470D2*
X868857D1*
X717603Y1082601D2*
X1232005D1*
X702568Y1042732D2*
X1271873D1*
X717280Y1002864D2*
X1311740D1*
X713154Y962995D2*
X1339478D1*
X711862Y923126D2*
X1365351D1*
X717675Y883257D2*
X1371415D1*
X703034Y843388D2*
X1237496D1*
X1303520D2*
X1371487D1*
X451917Y803520D2*
X1192030D1*
X1348986D2*
X1371559D1*
X451809Y763651D2*
X1182413D1*
X451701Y723782D2*
X1192892D1*
X1348124D2*
X1371702D1*
X451630Y683913D2*
X1242268D1*
X1298712D2*
X1371774D1*
X451522Y644045D2*
X485219D1*
X624807D2*
X1371846D1*
X662700Y604176D2*
X1371918D1*
X677341Y564307D2*
X1348019D1*
X677628Y524438D2*
X1326596D1*
X452853Y2787371D2*
X461200Y2788007D1*
X470378Y2787729D1*
X479468Y2786441D1*
X488362Y2784157D1*
X496948Y2780906D1*
X505124Y2776728D1*
X512789Y2771673D1*
X519850Y2765804D1*
X526220Y2759191D1*
X531821Y2751916D1*
X536586Y2744067D1*
X540455Y2735741D1*
X543383Y2727038D1*
X545332Y2718066D1*
X546279Y2708933D1*
X546376Y2670029D1*
X546193Y2624626D1*
X545079Y2615512D1*
X542967Y2606577D1*
X539881Y2597929D1*
X535861Y2589675D1*
X530954Y2581914D1*
X525221Y2574742D1*
X518731Y2568247D1*
X511565Y2562507D1*
X503809Y2557592D1*
X495559Y2553564D1*
X486914Y2550470D1*
X477981Y2548349D1*
X468868Y2547226D1*
X459687Y2547115D1*
X452262Y2547773D1*
X451516Y2250141D1*
X459625Y2250777D1*
X468803Y2250500D1*
X477894Y2249211D1*
X486787Y2246928D1*
X495374Y2243677D1*
X503550Y2239498D1*
X511215Y2234444D1*
X518275Y2228574D1*
X524645Y2221961D1*
X530246Y2214686D1*
X535011Y2206838D1*
X538880Y2198511D1*
X541808Y2189809D1*
X543757Y2180836D1*
X544705Y2171704D1*
X544801Y2132799D1*
X544618Y2087396D1*
X543504Y2078283D1*
X541392Y2069347D1*
X538306Y2060699D1*
X534286Y2052445D1*
X529379Y2044684D1*
X523646Y2037512D1*
X517157Y2031017D1*
X509990Y2025277D1*
X502235Y2020363D1*
X493984Y2016334D1*
X485339Y2013240D1*
X476406Y2011119D1*
X467293Y2009996D1*
X458112Y2009886D1*
X450915Y2010513D1*
X450162Y1706138D1*
X463718Y1719400D1*
X472018Y1725430D1*
X481159Y1730088D1*
X490916Y1733258D1*
X501049Y1734863D1*
X524551Y1735065D1*
X849577Y1734863D1*
X859710Y1733258D1*
X869467Y1730088D1*
X878608Y1725430D1*
X886908Y1719400D1*
X897808Y1708785D1*
X899812Y1711411D1*
X899819Y1782733D1*
X895370Y1789178D1*
X890269Y1799189D1*
X886797Y1809875D1*
X885039Y1820972D1*
Y1832207D1*
X886797Y1843304D1*
X890269Y1853989D1*
X893256Y1860225D1*
X884339Y1861144D1*
X877940Y1862416D1*
X871660Y1864187D1*
X865539Y1866446D1*
X859614Y1869177D1*
X853921Y1872365D1*
X848496Y1875990D1*
X843372Y1880030D1*
X838581Y1884459D1*
X834152Y1889250D1*
X830112Y1894374D1*
X826488Y1899799D1*
X823299Y1905492D1*
X820568Y1911417D1*
X818310Y1917538D1*
X816538Y1923818D1*
X815266Y1930217D1*
X814499Y1936697D1*
X814243Y1952403D1*
Y2018020D1*
X814499Y2024539D1*
X815266Y2031019D1*
X816538Y2037418D1*
X818310Y2043698D1*
X820568Y2049819D1*
X823299Y2055745D1*
X826488Y2061437D1*
X830112Y2066862D1*
X834152Y2071986D1*
X838581Y2076777D1*
X843372Y2081206D1*
X848496Y2085246D1*
X853921Y2088871D1*
X859614Y2092059D1*
X865539Y2094790D1*
X871660Y2097049D1*
X877940Y2098820D1*
X884339Y2100093D1*
X890819Y2100860D1*
X897339Y2101116D1*
X903858Y2100860D1*
X910338Y2100093D1*
X916737Y2098820D1*
X923017Y2097049D1*
X929138Y2094790D1*
X935063Y2092059D1*
X940756Y2088871D1*
X946181Y2085246D1*
X951305Y2081206D1*
X956096Y2076777D1*
X960525Y2071986D1*
X964565Y2066862D1*
X968190Y2061437D1*
X971378Y2055745D1*
X974109Y2049819D1*
X976368Y2043698D1*
X978139Y2037418D1*
X979412Y2031019D1*
X980178Y2024539D1*
X980435Y2008833D1*
X980399Y1943216D1*
X980178Y1936697D1*
X979412Y1930217D1*
X978139Y1923818D1*
X976368Y1917538D1*
X974109Y1911417D1*
X971378Y1905492D1*
X966618Y1897447D1*
X973133Y1896211D1*
X983819Y1892739D1*
X993830Y1887638D1*
X1002919Y1881034D1*
X1010864Y1873090D1*
X1017468Y1864000D1*
X1022568Y1853989D1*
X1026040Y1843304D1*
X1027798Y1832207D1*
Y1820972D1*
X1026040Y1809875D1*
X1022568Y1799189D1*
X1017468Y1789178D1*
X1013025Y1782831D1*
X1013019Y1720193D1*
X1024537Y1720970D1*
X1031135Y1720711D1*
X1037693Y1719935D1*
X1044170Y1718646D1*
X1050525Y1716854D1*
X1056720Y1714568D1*
X1062717Y1711804D1*
X1068479Y1708577D1*
X1073969Y1704908D1*
X1079155Y1700820D1*
X1084004Y1696338D1*
X1088487Y1691489D1*
X1092575Y1686303D1*
X1096244Y1680812D1*
X1099470Y1675051D1*
X1102235Y1669054D1*
X1104521Y1662858D1*
X1106313Y1656503D1*
X1107601Y1650026D1*
X1108377Y1643468D1*
X1108637Y1636870D1*
X1108377Y1630272D1*
X1107601Y1623714D1*
X1106313Y1617237D1*
X1104521Y1610882D1*
X1102235Y1604686D1*
X1099470Y1598689D1*
X1096244Y1592928D1*
X1092575Y1587437D1*
X1088487Y1582251D1*
X1084004Y1577402D1*
X1079155Y1572920D1*
X1073969Y1568832D1*
X1068479Y1565163D1*
X1062717Y1561936D1*
X1056720Y1559172D1*
X1049904Y1556711D1*
X1132720Y1473873D1*
X1203237Y1473686D1*
X1213370Y1472081D1*
X1223127Y1468911D1*
X1232268Y1464253D1*
X1240568Y1458223D1*
X1257329Y1441747D1*
X1374583Y1324494D1*
X1374150Y1567974D1*
X1370508Y1575511D1*
X1367036Y1586196D1*
X1365278Y1597293D1*
X1365093Y1602011D1*
X1293905Y1530806D1*
X1290837Y1523896D1*
X1284966Y1514316D1*
X1277670Y1505773D1*
X1269126Y1498476D1*
X1259546Y1492606D1*
X1249166Y1488306D1*
X1238241Y1485683D1*
X1227041Y1484802D1*
X1215840Y1485683D1*
X1204915Y1488306D1*
X1194535Y1492606D1*
X1184955Y1498476D1*
X1176412Y1505773D1*
X1169115Y1514316D1*
X1163245Y1523896D1*
X1158945Y1534276D1*
X1156322Y1545201D1*
X1155441Y1556402D1*
X1156322Y1567602D1*
X1158945Y1578527D1*
X1163245Y1588907D1*
X1169115Y1598487D1*
X1176412Y1607030D1*
X1184955Y1614327D1*
X1194535Y1620198D1*
X1201351Y1623182D1*
X1357844Y1779666D1*
X1357858Y2326566D1*
X1355142Y2333655D1*
X1352519Y2344580D1*
X1351638Y2355781D1*
X1352519Y2366982D1*
X1355142Y2377906D1*
X1359441Y2388287D1*
X1365312Y2397866D1*
X1372609Y2406410D1*
X1381152Y2413706D1*
X1390732Y2419577D1*
X1401112Y2423876D1*
X1412037Y2426499D1*
X1423238Y2427381D1*
X1425322Y2427299D1*
X1425510Y2931938D1*
X1426899Y2940710D1*
X1429644Y2949157D1*
X1433676Y2957071D1*
X1438897Y2964256D1*
X1454905Y2980511D1*
X1619252Y3144858D1*
X1620639Y3152538D1*
X1624111Y3163223D1*
X1629212Y3173234D1*
X1635816Y3182323D1*
X1643761Y3190268D1*
X1652850Y3196872D1*
X1662861Y3201973D1*
X1673546Y3205445D1*
X1684643Y3207202D1*
X1695879D1*
X1706976Y3205445D1*
X1717661Y3201973D1*
X1727672Y3196872D1*
X1736762Y3190268D1*
X1744706Y3182323D1*
X1751310Y3173234D1*
X1756411Y3163223D1*
X1756799Y3162172D1*
X1762610Y3160537D1*
X1772990Y3156237D1*
X1782570Y3150367D1*
X1791113Y3143070D1*
X1798410Y3134526D1*
X1804280Y3124947D1*
X1808580Y3114567D1*
X1811203Y3103642D1*
X1812084Y3092441D1*
X1811203Y3081240D1*
X1808580Y3070315D1*
X1804280Y3059935D1*
X1798410Y3050356D1*
X1791113Y3041812D1*
X1782570Y3034515D1*
X1772990Y3028645D1*
X1762610Y3024345D1*
X1751685Y3021722D1*
X1749570Y3021472D1*
X1573582Y2845494D1*
X1573563Y2445666D1*
X1578148Y2449911D1*
X1583334Y2453999D1*
X1588824Y2457668D1*
X1594586Y2460894D1*
X1600583Y2463659D1*
X1606778Y2465944D1*
X1613134Y2467737D1*
X1619610Y2469025D1*
X1626168Y2469801D1*
X1632766Y2470061D1*
X1639365Y2469801D1*
X1645923Y2469025D1*
X1652399Y2467737D1*
X1658755Y2465944D1*
X1664950Y2463659D1*
X1670947Y2460894D1*
X1676709Y2457668D1*
X1682746Y2453568D1*
X1688824Y2457668D1*
X1694586Y2460894D1*
X1700583Y2463659D1*
X1706778Y2465944D1*
X1713134Y2467737D1*
X1719610Y2469025D1*
X1726168Y2469801D1*
X1732766Y2470061D1*
X1739365Y2469801D1*
X1745923Y2469025D1*
X1752399Y2467737D1*
X1758755Y2465944D1*
X1764950Y2463659D1*
X1770947Y2460894D1*
X1776709Y2457668D1*
X1782746Y2453568D1*
X1788824Y2457668D1*
X1794586Y2460894D1*
X1800583Y2463659D1*
X1806778Y2465944D1*
X1813134Y2467737D1*
X1824605Y2469616D1*
X1824623Y2579496D1*
X1816773Y2579806D1*
X1807686Y2581125D1*
X1798798Y2583427D1*
X1790213Y2586684D1*
X1782034Y2590857D1*
X1774296Y2595944D1*
X1766238Y2590677D1*
X1758041Y2586539D1*
X1749443Y2583319D1*
X1740544Y2581055D1*
X1731452Y2579775D1*
X1722275Y2579494D1*
X1713121Y2580215D1*
X1704101Y2581929D1*
X1695321Y2584617D1*
X1686887Y2588245D1*
X1678899Y2592772D1*
X1671451Y2598142D1*
X1664634Y2604293D1*
X1658527Y2611149D1*
X1653204Y2618631D1*
X1648729Y2626648D1*
X1645155Y2635106D1*
X1642523Y2643902D1*
X1640867Y2652933D1*
X1640204Y2662091D1*
X1640544Y2671267D1*
X1641883Y2680351D1*
X1644203Y2689234D1*
X1647478Y2697812D1*
X1651669Y2705982D1*
X1656725Y2713646D1*
X1662587Y2720713D1*
X1669184Y2727099D1*
X1676438Y2732728D1*
X1684263Y2737532D1*
X1692564Y2741455D1*
X1701244Y2744450D1*
X1710198Y2746480D1*
X1719321Y2747523D1*
X1728503Y2747564D1*
X1737634Y2746604D1*
X1746607Y2744655D1*
X1755313Y2741739D1*
X1763650Y2737891D1*
X1771517Y2733158D1*
X1774285Y2731193D1*
X1781070Y2735714D1*
X1789193Y2739995D1*
X1797733Y2743366D1*
X1806590Y2745786D1*
X1815659Y2747225D1*
X1818354Y2747455D1*
X1818349Y3579654D1*
X1811135Y3580505D1*
X1804659Y3581793D1*
X1798303Y3583586D1*
X1792108Y3585871D1*
X1786111Y3588636D1*
X1780349Y3591863D1*
X1774312Y3595962D1*
X1768233Y3591863D1*
X1762472Y3588636D1*
X1756475Y3585871D1*
X1750280Y3583586D1*
X1743545Y3581718D1*
X1748187Y3575995D1*
X1754057Y3566415D1*
X1758357Y3556035D1*
X1760980Y3545110D1*
X1761861Y3533909D1*
X1760980Y3522709D1*
X1758357Y3511784D1*
X1754057Y3501404D1*
X1748187Y3491824D1*
X1740890Y3483281D1*
X1732347Y3475984D1*
X1722767Y3470113D1*
X1712387Y3465814D1*
X1701462Y3463191D1*
X1690261Y3462309D1*
X1679060Y3463191D1*
X1668136Y3465814D1*
X1657755Y3470113D1*
X1648176Y3475984D1*
X1646503Y3477303D1*
X1281844Y3477484D1*
X1273072Y3478873D1*
X1264625Y3481618D1*
X1256711Y3485650D1*
X1249526Y3490870D1*
X1233271Y3506879D1*
X866491Y3873659D1*
X691952Y3873669D1*
X690195Y3863513D1*
X688402Y3857157D1*
X686117Y3850962D1*
X683352Y3844965D1*
X680126Y3839204D1*
X676026Y3833166D1*
X680126Y3827088D1*
X683352Y3821326D1*
X686117Y3815329D1*
X688402Y3809134D1*
X690195Y3802778D1*
X691483Y3796302D1*
X692259Y3789744D1*
X692519Y3783146D1*
X692259Y3776547D1*
X691483Y3769990D1*
X690195Y3763513D1*
X688402Y3757157D1*
X686117Y3750962D1*
X683352Y3744965D1*
X680126Y3739204D1*
X676026Y3733166D1*
X680126Y3727089D1*
X683352Y3721328D1*
X686117Y3715331D1*
X688402Y3709135D1*
X690195Y3702780D1*
X691483Y3696303D1*
X692259Y3689745D1*
X692519Y3683147D1*
X692259Y3676549D1*
X691483Y3669991D1*
X690195Y3663514D1*
X688402Y3657159D1*
X686117Y3650963D1*
X683352Y3644966D1*
X680126Y3639205D1*
X676457Y3633714D1*
X672369Y3628528D1*
X667886Y3623679D1*
X663037Y3619197D1*
X658398Y3615540D1*
Y3559382D1*
X661551Y3549492D1*
X663308Y3538395D1*
Y3527159D1*
X661551Y3516062D1*
X658079Y3505377D1*
X652978Y3495366D1*
X646374Y3486276D1*
X638430Y3478332D1*
X629340Y3471728D1*
X619329Y3466627D1*
X608644Y3463155D1*
X597547Y3461398D1*
X586311D1*
X575214Y3463155D1*
X564529Y3466627D1*
X554518Y3471728D1*
X545429Y3478332D1*
X537484Y3486276D1*
X530880Y3495366D1*
X525779Y3505377D1*
X522307Y3516062D1*
X520550Y3527159D1*
Y3538395D1*
X522307Y3549492D1*
X525779Y3560177D1*
X530880Y3570188D1*
X537484Y3579277D1*
X545187Y3586998D1*
X545198Y3607488D1*
X537051Y3604071D1*
X528260Y3601421D1*
X519233Y3599745D1*
X510076Y3599063D1*
X500900Y3599384D1*
X491814Y3600703D1*
X482925Y3603004D1*
X474340Y3606261D1*
X466162Y3610434D1*
X458487Y3615474D1*
X454920Y3618264D1*
X454145Y3306999D1*
X462321Y3307416D1*
X471490Y3306935D1*
X480550Y3305446D1*
X489390Y3302967D1*
X497903Y3299527D1*
X505985Y3295169D1*
X513536Y3289946D1*
X520465Y3283921D1*
X526687Y3277169D1*
X532126Y3269772D1*
X536716Y3261820D1*
X540401Y3253410D1*
X543135Y3244645D1*
X544886Y3235632D1*
X545631Y3226480D1*
X545578Y3145844D1*
X544666Y3136707D1*
X542751Y3127728D1*
X539858Y3119014D1*
X536021Y3110672D1*
X531287Y3102805D1*
X525714Y3095508D1*
X519370Y3088871D1*
X512332Y3082974D1*
X504687Y3077889D1*
X496527Y3073679D1*
X487953Y3070395D1*
X479069Y3068077D1*
X469983Y3066753D1*
X460807Y3066440D1*
X453554Y3066912D1*
X452852Y2787397D1*
X642390Y2843106D2*
X641281Y2848681D1*
X640514Y2855160D1*
X640258Y2861680D1*
X640514Y2868199D1*
X641281Y2874679D1*
X642554Y2881078D1*
X644325Y2887358D1*
X646584Y2893479D1*
X649315Y2899405D1*
X652503Y2905097D1*
X656128Y2910522D1*
X663507Y2919258D1*
X592781Y2919245D1*
X586261Y2919501D1*
X579782Y2920268D1*
X573382Y2921541D1*
X567103Y2923312D1*
X560981Y2925570D1*
X555056Y2928302D1*
X549363Y2931490D1*
X543938Y2935115D1*
X538814Y2939154D1*
X534023Y2943583D1*
X529594Y2948375D1*
X525555Y2953499D1*
X521930Y2958924D1*
X518742Y2964616D1*
X516010Y2970542D1*
X513752Y2976663D1*
X511981Y2982943D1*
X510708Y2989342D1*
X509941Y2995822D1*
X509685Y3002341D1*
X509941Y3008861D1*
X510708Y3015340D1*
X511981Y3021740D1*
X513752Y3028019D1*
X516010Y3034141D1*
X518742Y3040066D1*
X521930Y3045759D1*
X525555Y3051184D1*
X529594Y3056308D1*
X534023Y3061099D1*
X538814Y3065528D1*
X543938Y3069567D1*
X549363Y3073192D1*
X555056Y3076380D1*
X560981Y3079112D1*
X567103Y3081370D1*
X573382Y3083141D1*
X579782Y3084414D1*
X586261Y3085181D1*
X601967Y3085437D1*
X667584D1*
X674104Y3085181D1*
X680583Y3084414D1*
X686982Y3083141D1*
X693262Y3081370D1*
X699383Y3079112D1*
X705309Y3076380D1*
X711002Y3073192D1*
X716427Y3069567D1*
X721551Y3065528D1*
X726342Y3061099D1*
X730771Y3056308D1*
X734810Y3051184D1*
X738435Y3045759D1*
X741623Y3040066D1*
X744355Y3034141D1*
X746613Y3028019D1*
X748384Y3021740D1*
X749657Y3015340D1*
X750424Y3008861D1*
X750680Y3002341D1*
X750424Y2995822D1*
X749657Y2989342D1*
X748384Y2982943D1*
X746613Y2976663D1*
X744355Y2970542D1*
X741623Y2964616D1*
X738435Y2958924D1*
X734810Y2953499D1*
X727432Y2944763D1*
X798157Y2944776D1*
X804677Y2944520D1*
X811157Y2943753D1*
X817556Y2942480D1*
X823836Y2940709D1*
X829957Y2938451D1*
X835882Y2935719D1*
X841575Y2932531D1*
X847000Y2928906D1*
X852124Y2924867D1*
X856915Y2920438D1*
X861344Y2915646D1*
X865384Y2910522D1*
X869009Y2905097D1*
X872197Y2899405D1*
X874928Y2893479D1*
X877187Y2887358D1*
X878958Y2881078D1*
X880230Y2874679D1*
X880997Y2868199D1*
X881254Y2861680D1*
X880997Y2855160D1*
X880230Y2848681D1*
X878958Y2842281D1*
X877187Y2836002D1*
X874928Y2829880D1*
X872197Y2823955D1*
X869009Y2818262D1*
X865384Y2812837D1*
X861344Y2807713D1*
X856915Y2802922D1*
X852124Y2798493D1*
X846682Y2794241D1*
X848514Y2782146D1*
X848771Y2775626D1*
X848514Y2769106D1*
X847748Y2762627D1*
X846475Y2756228D1*
X844704Y2749948D1*
X842445Y2743826D1*
X839714Y2737901D1*
X836526Y2732208D1*
X832901Y2726783D1*
X828861Y2721659D1*
X824432Y2716868D1*
X819641Y2712439D1*
X814517Y2708400D1*
X809092Y2704775D1*
X803399Y2701587D1*
X797474Y2698855D1*
X791353Y2696597D1*
X785073Y2694826D1*
X778674Y2693553D1*
X772194Y2692786D1*
X756488Y2692530D1*
X690871D1*
X684352Y2692786D1*
X677872Y2693553D1*
X671473Y2694826D1*
X665193Y2696597D1*
X659072Y2698855D1*
X653147Y2701587D1*
X647454Y2704775D1*
X642029Y2708400D1*
X636905Y2712439D1*
X632114Y2716868D1*
X627685Y2721659D1*
X623645Y2726783D1*
X620020Y2732208D1*
X616832Y2737901D1*
X614101Y2743826D1*
X611842Y2749948D1*
X610071Y2756228D1*
X608798Y2762627D1*
X608031Y2769106D1*
X607775Y2775626D1*
X608031Y2782146D1*
X608798Y2788625D1*
X610071Y2795024D1*
X611842Y2801304D1*
X614101Y2807425D1*
X616832Y2813351D1*
X620020Y2819044D1*
X623645Y2824469D1*
X627685Y2829593D1*
X632114Y2834384D1*
X636905Y2838813D1*
X642347Y2843065D1*
X593523Y2399863D2*
X586978Y2400118D1*
X580498Y2400885D1*
X574099Y2402158D1*
X567819Y2403929D1*
X561698Y2406187D1*
X555773Y2408919D1*
X550080Y2412107D1*
X544655Y2415732D1*
X539531Y2419771D1*
X534740Y2424200D1*
X530311Y2428991D1*
X526271Y2434115D1*
X522646Y2439540D1*
X519458Y2445233D1*
X516727Y2451159D1*
X514468Y2457280D1*
X512697Y2463560D1*
X511424Y2469959D1*
X510657Y2476438D1*
X510401Y2482958D1*
X510657Y2489478D1*
X511424Y2495957D1*
X512697Y2502356D1*
X514468Y2508636D1*
X516727Y2514757D1*
X519458Y2520683D1*
X522646Y2526376D1*
X526271Y2531801D1*
X530311Y2536925D1*
X534740Y2541716D1*
X539531Y2546145D1*
X544655Y2550184D1*
X550080Y2553809D1*
X555773Y2556997D1*
X561698Y2559729D1*
X567819Y2561987D1*
X574099Y2563758D1*
X580498Y2565031D1*
X586978Y2565798D1*
X602684Y2566054D1*
X668301D1*
X674820Y2565798D1*
X681300Y2565031D1*
X687699Y2563758D1*
X693979Y2561987D1*
X700100Y2559729D1*
X706025Y2556997D1*
X711718Y2553809D1*
X717143Y2550184D1*
X722267Y2546145D1*
X727058Y2541716D1*
X731487Y2536925D1*
X735527Y2531801D1*
X739152Y2526376D1*
X742340Y2520683D1*
X745071Y2514757D1*
X747330Y2508636D1*
X749101Y2502356D1*
X750374Y2495957D1*
X751140Y2489478D1*
X751397Y2482958D1*
X751140Y2476438D1*
X750374Y2469959D1*
X749101Y2463560D1*
X747330Y2457280D1*
X745071Y2451159D1*
X742340Y2445233D1*
X739152Y2439540D1*
X735527Y2434115D1*
X731487Y2428991D1*
X727058Y2424200D1*
X722267Y2419771D1*
X717143Y2415732D1*
X711718Y2412107D1*
X706025Y2408919D1*
X700100Y2406187D1*
X693979Y2403929D1*
X687699Y2402158D1*
X681300Y2400885D1*
X674820Y2400118D1*
X659114Y2399862D1*
X593498Y2399898D1*
X815818Y2555224D2*
X816073Y2561769D1*
X816840Y2568248D1*
X818113Y2574648D1*
X819884Y2580927D1*
X822143Y2587049D1*
X824874Y2592974D1*
X828062Y2598667D1*
X831687Y2604092D1*
X835727Y2609216D1*
X840156Y2614007D1*
X844947Y2618436D1*
X850071Y2622475D1*
X855496Y2626100D1*
X861189Y2629288D1*
X867114Y2632020D1*
X873235Y2634278D1*
X879515Y2636049D1*
X885914Y2637322D1*
X892394Y2638089D1*
X898913Y2638345D1*
X905433Y2638089D1*
X911912Y2637322D1*
X918312Y2636049D1*
X924591Y2634278D1*
X930713Y2632020D1*
X936638Y2629288D1*
X942331Y2626100D1*
X947756Y2622475D1*
X952880Y2618436D1*
X957671Y2614007D1*
X962100Y2609216D1*
X966140Y2604092D1*
X969764Y2598667D1*
X972953Y2592974D1*
X975684Y2587049D1*
X977942Y2580927D1*
X979713Y2574648D1*
X980986Y2568248D1*
X981753Y2561769D1*
X982010Y2546063D1*
X981974Y2480446D1*
X981753Y2473927D1*
X980986Y2467447D1*
X979713Y2461048D1*
X977942Y2454768D1*
X975684Y2448647D1*
X972953Y2442721D1*
X969764Y2437029D1*
X966140Y2431604D1*
X962100Y2426480D1*
X957671Y2421688D1*
X952880Y2417259D1*
X947756Y2413220D1*
X942331Y2409595D1*
X936638Y2406407D1*
X930713Y2403675D1*
X924591Y2401417D1*
X918312Y2399646D1*
X911912Y2398373D1*
X905433Y2397606D1*
X898913Y2397350D1*
X892394Y2397606D1*
X885914Y2398373D1*
X879515Y2399646D1*
X873235Y2401417D1*
X867114Y2403675D1*
X861189Y2406407D1*
X855496Y2409595D1*
X850071Y2413220D1*
X844947Y2417259D1*
X840156Y2421688D1*
X835727Y2426480D1*
X831687Y2431604D1*
X828062Y2437029D1*
X824874Y2442721D1*
X822143Y2448647D1*
X819884Y2454768D1*
X818113Y2461048D1*
X816840Y2467447D1*
X816073Y2473927D1*
X815817Y2489632D1*
Y2555080D1*
X674791Y534362D2*
X673740Y525238D1*
X671994Y516221D1*
X669566Y507364D1*
X666467Y498719D1*
X662717Y490335D1*
X660271Y485825D1*
X1330366Y488640D1*
X1328814Y499449D1*
X1328555Y506047D1*
X1328814Y512646D1*
X1329590Y519203D1*
X1330879Y525680D1*
X1332671Y532036D1*
X1334957Y538231D1*
X1337721Y544228D1*
X1340948Y549989D1*
X1344617Y555480D1*
X1348705Y560666D1*
X1353187Y565515D1*
X1358036Y569997D1*
X1363222Y574086D1*
X1368713Y577754D1*
X1375950Y581661D1*
X1375346Y918471D1*
X1369472Y923021D1*
X1364623Y927503D1*
X1360140Y932353D1*
X1356052Y937538D1*
X1352384Y943029D1*
X1349157Y948791D1*
X1346392Y954787D1*
X1344107Y960983D1*
X1342314Y967338D1*
X1340520Y978093D1*
X1218842Y1099759D1*
X959522Y1099769D1*
X952484Y1097053D1*
X941559Y1094430D1*
X930358Y1093548D1*
X919158Y1094430D1*
X908233Y1097053D1*
X897853Y1101352D1*
X888273Y1107223D1*
X879729Y1114519D1*
X872433Y1123063D1*
X866562Y1132643D1*
X862263Y1143023D1*
X859640Y1153948D1*
X858758Y1165148D1*
X859640Y1176349D1*
X862263Y1187274D1*
X866562Y1197654D1*
X872433Y1207234D1*
X879729Y1215777D1*
X888273Y1223074D1*
X897853Y1228944D1*
X908233Y1233244D1*
X919158Y1235867D1*
X930358Y1236748D1*
X941559Y1235867D1*
X952484Y1233244D1*
X959414Y1230535D1*
X1187540Y1230528D1*
X1141888Y1276166D1*
X1084210Y1276386D1*
X1074077Y1277991D1*
X1064320Y1281161D1*
X1055179Y1285819D1*
X1046879Y1291849D1*
X1030118Y1308325D1*
X912459Y1425984D1*
X706606Y1425994D1*
X709962Y1417362D1*
X711754Y1411007D1*
X713042Y1404530D1*
X713818Y1397972D1*
X714078Y1391374D1*
X713818Y1384776D1*
X713042Y1378218D1*
X711754Y1371741D1*
X709962Y1365386D1*
X707676Y1359190D1*
X704911Y1353193D1*
X701685Y1347432D1*
X697585Y1341394D1*
X702214Y1334441D1*
X706478Y1326310D1*
X709831Y1317762D1*
X712231Y1308899D1*
X713652Y1299828D1*
X714078Y1291374D1*
X713576Y1282206D1*
X712079Y1273147D1*
X709602Y1264306D1*
X706177Y1255787D1*
X701843Y1247692D1*
X697597Y1241374D1*
X701685Y1235316D1*
X704911Y1229555D1*
X707676Y1223558D1*
X709962Y1217362D1*
X711754Y1211007D1*
X713042Y1204530D1*
X713818Y1197972D1*
X714078Y1191374D1*
X713818Y1184776D1*
X713042Y1178218D1*
X711754Y1171741D1*
X709962Y1165386D1*
X707676Y1159190D1*
X704911Y1153193D1*
X701685Y1147432D1*
X697585Y1141394D1*
X702214Y1134441D1*
X706478Y1126310D1*
X709831Y1117762D1*
X712231Y1108899D1*
X713652Y1099828D1*
X714078Y1091374D1*
X713576Y1082206D1*
X712079Y1073147D1*
X709602Y1064306D1*
X706177Y1055787D1*
X701843Y1047692D1*
X697597Y1041374D1*
X701685Y1035316D1*
X704911Y1029555D1*
X707676Y1023558D1*
X709962Y1017362D1*
X711754Y1011007D1*
X713042Y1004530D1*
X713818Y997972D1*
X714078Y991374D1*
X713818Y984776D1*
X713042Y978218D1*
X711754Y971741D1*
X709962Y965386D1*
X707676Y959190D1*
X704911Y953193D1*
X701685Y947432D1*
X697585Y941394D1*
X702214Y934441D1*
X706478Y926310D1*
X709831Y917762D1*
X712231Y908899D1*
X713652Y899828D1*
X714078Y891374D1*
X713576Y882206D1*
X712079Y873147D1*
X709602Y864306D1*
X706177Y855787D1*
X701843Y847692D1*
X696653Y840118D1*
X690668Y833155D1*
X683960Y826886D1*
X676608Y821385D1*
X668700Y816719D1*
X660331Y812943D1*
X651600Y810101D1*
X642611Y808228D1*
X633472Y807347D1*
X624291Y807467D1*
X615178Y808587D1*
X606241Y810693D1*
X597587Y813762D1*
X589319Y817756D1*
X581536Y822627D1*
X579983Y823749D1*
X571924Y818482D1*
X563728Y814343D1*
X555129Y811123D1*
X546231Y808859D1*
X537139Y807579D1*
X527961Y807298D1*
X518808Y808019D1*
X509787Y809734D1*
X501008Y812421D1*
X492573Y816050D1*
X484585Y820576D1*
X477138Y825947D1*
X470320Y832097D1*
X464213Y838954D1*
X458891Y846435D1*
X454416Y854453D1*
X450841Y862910D1*
X448210Y871707D1*
X448048Y856368D1*
X447402Y596962D1*
X451296Y604159D1*
X456230Y611905D1*
X461741Y619252D1*
X467798Y626156D1*
X474364Y632577D1*
X481402Y638478D1*
X488870Y643824D1*
X496724Y648583D1*
X504920Y652729D1*
X513407Y656237D1*
X522138Y659086D1*
X531062Y661259D1*
X540125Y662745D1*
X549275Y663534D1*
X558459Y663621D1*
X567622Y663007D1*
X576712Y661694D1*
X585675Y659691D1*
X594459Y657009D1*
X603012Y653664D1*
X611285Y649675D1*
X619228Y645066D1*
X626797Y639863D1*
X633946Y634097D1*
X640633Y627802D1*
X646820Y621015D1*
X652471Y613775D1*
X657551Y606124D1*
X662033Y598108D1*
X665889Y589772D1*
X669097Y581167D1*
X671638Y572341D1*
X673497Y563347D1*
X674664Y554237D1*
X675142Y543539D1*
X674791Y534362D1*
X640815Y2305877D2*
X639707Y2311451D1*
X638940Y2317930D1*
X638683Y2324450D1*
X638940Y2330970D1*
X639707Y2337449D1*
X640979Y2343849D1*
X642750Y2350128D1*
X645009Y2356250D1*
X647740Y2362175D1*
X650928Y2367868D1*
X654553Y2373293D1*
X658593Y2378417D1*
X663022Y2383208D1*
X667813Y2387637D1*
X672937Y2391676D1*
X678362Y2395301D1*
X684055Y2398489D1*
X689980Y2401221D1*
X696101Y2403479D1*
X702381Y2405250D1*
X708780Y2406523D1*
X715260Y2407290D1*
X730966Y2407546D1*
X796583D1*
X803102Y2407290D1*
X809582Y2406523D1*
X815981Y2405250D1*
X822261Y2403479D1*
X828382Y2401221D1*
X834308Y2398489D1*
X840000Y2395301D1*
X845425Y2391676D1*
X850549Y2387637D1*
X855340Y2383208D1*
X859769Y2378417D1*
X863809Y2373293D1*
X867434Y2367868D1*
X870622Y2362175D1*
X873353Y2356250D1*
X875612Y2350128D1*
X877383Y2343849D1*
X878656Y2337449D1*
X879423Y2330970D1*
X879679Y2324450D1*
X879423Y2317930D1*
X878656Y2311451D1*
X877383Y2305052D1*
X875612Y2298772D1*
X873353Y2292651D1*
X870622Y2286725D1*
X867434Y2281033D1*
X863809Y2275607D1*
X859769Y2270484D1*
X855340Y2265692D1*
X850549Y2261263D1*
X845107Y2257012D1*
X846940Y2244916D1*
X847196Y2238396D1*
X846940Y2231877D1*
X846173Y2225397D1*
X844900Y2218998D1*
X843129Y2212718D1*
X840870Y2206597D1*
X838139Y2200672D1*
X834951Y2194979D1*
X831326Y2189554D1*
X827286Y2184430D1*
X822858Y2179639D1*
X818066Y2175210D1*
X812942Y2171170D1*
X807517Y2167545D1*
X801825Y2164357D1*
X795899Y2161626D1*
X789778Y2159367D1*
X783498Y2157596D1*
X777099Y2156323D1*
X770619Y2155556D1*
X754914Y2155300D1*
X689297D1*
X682777Y2155556D1*
X676297Y2156323D1*
X669898Y2157596D1*
X663618Y2159367D1*
X657497Y2161626D1*
X651572Y2164357D1*
X645879Y2167545D1*
X640454Y2171170D1*
X635330Y2175210D1*
X630539Y2179639D1*
X626110Y2184430D1*
X622070Y2189554D1*
X618446Y2194979D1*
X615257Y2200672D1*
X612526Y2206597D1*
X610268Y2212718D1*
X608496Y2218998D1*
X607224Y2225397D1*
X606457Y2231877D1*
X606201Y2238396D1*
X606457Y2244916D1*
X607224Y2251395D1*
X608496Y2257795D1*
X610268Y2264074D1*
X612526Y2270196D1*
X615257Y2276121D1*
X618446Y2281814D1*
X622070Y2287239D1*
X626110Y2292363D1*
X630539Y2297154D1*
X635330Y2301583D1*
X640772Y2305835D1*
X591948Y1862633D2*
X585403Y1862888D1*
X578923Y1863655D1*
X572524Y1864928D1*
X566244Y1866699D1*
X560123Y1868958D1*
X554198Y1871689D1*
X548505Y1874877D1*
X543080Y1878502D1*
X537956Y1882542D1*
X533165Y1886971D1*
X528736Y1891762D1*
X524696Y1896886D1*
X521072Y1902311D1*
X517883Y1908004D1*
X515152Y1913929D1*
X512894Y1920050D1*
X511122Y1926330D1*
X509850Y1932729D1*
X509083Y1939209D1*
X508827Y1945728D1*
X509083Y1952248D1*
X509850Y1958727D1*
X511122Y1965127D1*
X512894Y1971406D1*
X515152Y1977528D1*
X517883Y1983453D1*
X521072Y1989146D1*
X524696Y1994571D1*
X528736Y1999695D1*
X533165Y2004486D1*
X537956Y2008915D1*
X543080Y2012954D1*
X548505Y2016579D1*
X554198Y2019767D1*
X560123Y2022499D1*
X566244Y2024757D1*
X572524Y2026528D1*
X578923Y2027801D1*
X585403Y2028568D1*
X601109Y2028824D1*
X666726D1*
X673245Y2028568D1*
X679725Y2027801D1*
X686124Y2026528D1*
X692404Y2024757D1*
X698525Y2022499D1*
X704451Y2019767D1*
X710143Y2016579D1*
X715568Y2012954D1*
X720692Y2008915D1*
X725484Y2004486D1*
X729912Y1999695D1*
X733952Y1994571D1*
X737577Y1989146D1*
X740765Y1983453D1*
X743496Y1977528D1*
X745755Y1971406D1*
X747526Y1965127D1*
X748799Y1958727D1*
X749566Y1952248D1*
X749822Y1945728D1*
X749566Y1939209D1*
X748799Y1932729D1*
X747526Y1926330D1*
X745755Y1920050D1*
X743496Y1913929D1*
X740765Y1908004D1*
X737577Y1902311D1*
X733952Y1896886D1*
X729912Y1891762D1*
X725484Y1886971D1*
X720692Y1882542D1*
X715568Y1878502D1*
X710143Y1874877D1*
X704451Y1871689D1*
X698525Y1868958D1*
X692404Y1866699D1*
X686124Y1864928D1*
X679725Y1863655D1*
X673245Y1862888D1*
X657539Y1862632D1*
X591923Y1862668D1*
X3346504Y2468909D2*
X3352399Y2467737D1*
X3358755Y2465944D1*
X3364950Y2463659D1*
X3370947Y2460894D1*
X3376709Y2457668D1*
X3382746Y2453568D1*
X3388824Y2457668D1*
X3394586Y2460894D1*
X3400583Y2463659D1*
X3406778Y2465944D1*
X3413134Y2467737D1*
X3419610Y2469025D1*
X3426168Y2469801D1*
X3432766Y2470061D1*
X3439365Y2469801D1*
X3445923Y2469025D1*
X3452399Y2467737D1*
X3458755Y2465944D1*
X3464950Y2463659D1*
X3470947Y2460894D1*
X3476709Y2457668D1*
X3482746Y2453568D1*
X3488824Y2457668D1*
X3494586Y2460894D1*
X3500583Y2463659D1*
X3506778Y2465944D1*
X3513134Y2467737D1*
X3519610Y2469025D1*
X3528153Y2469879D1*
X3528168Y2872448D1*
X3389888Y3010739D1*
X3386607Y3006028D1*
X3390707Y2999950D1*
X3393934Y2994188D1*
X3396698Y2988192D1*
X3398984Y2981996D1*
X3400776Y2975641D1*
X3402065Y2969164D1*
X3402841Y2962606D1*
X3403100Y2956008D1*
X3402841Y2949409D1*
X3402065Y2942852D1*
X3400776Y2936375D1*
X3398984Y2930020D1*
X3396698Y2923824D1*
X3393934Y2917827D1*
X3390707Y2912066D1*
X3386607Y2906028D1*
X3390707Y2899950D1*
X3393934Y2894188D1*
X3396698Y2888192D1*
X3398984Y2881996D1*
X3400776Y2875641D1*
X3402065Y2869164D1*
X3402841Y2862606D1*
X3403100Y2856008D1*
X3402841Y2849409D1*
X3402065Y2842852D1*
X3400776Y2836375D1*
X3398984Y2830020D1*
X3396698Y2823824D1*
X3393934Y2817827D1*
X3390707Y2812066D1*
X3386607Y2806028D1*
X3391236Y2799075D1*
X3395500Y2790943D1*
X3398853Y2782396D1*
X3401254Y2773533D1*
X3402674Y2764462D1*
X3403100Y2756008D1*
X3402599Y2746840D1*
X3401101Y2737781D1*
X3398625Y2728939D1*
X3395199Y2720420D1*
X3390866Y2712326D1*
X3386620Y2706008D1*
X3390707Y2699950D1*
X3393934Y2694188D1*
X3396698Y2688192D1*
X3398984Y2681996D1*
X3400776Y2675641D1*
X3402065Y2669164D1*
X3402841Y2662606D1*
X3403100Y2656008D1*
X3402841Y2649409D1*
X3402065Y2642852D1*
X3400776Y2636375D1*
X3398984Y2630020D1*
X3396698Y2623824D1*
X3393934Y2617827D1*
X3390707Y2612066D1*
X3387038Y2606575D1*
X3382950Y2601389D1*
X3378468Y2596540D1*
X3373619Y2592058D1*
X3368433Y2587970D1*
X3362942Y2584301D1*
X3357181Y2581074D1*
X3351184Y2578310D1*
X3344988Y2576024D1*
X3338633Y2574232D1*
X3332156Y2572943D1*
X3325573Y2572166D1*
X3331250Y2566994D1*
X3335732Y2562145D1*
X3339820Y2556959D1*
X3343489Y2551468D1*
X3346716Y2545707D1*
X3349480Y2539710D1*
X3351766Y2533515D1*
X3353558Y2527159D1*
X3354847Y2520682D1*
X3355623Y2514125D1*
X3355882Y2507526D1*
X3355623Y2500928D1*
X3354847Y2494370D1*
X3353558Y2487893D1*
X3351766Y2481538D1*
X3349480Y2475343D1*
X3346476Y2468918D1*
X1682746Y2318353D2*
X1676709Y2314254D1*
X1670947Y2311027D1*
X1664950Y2308262D1*
X1658755Y2305977D1*
X1648984Y2303505D1*
X1648982Y2166484D1*
X1651698Y2159414D1*
X1654321Y2148489D1*
X1655202Y2137289D1*
X1654321Y2126088D1*
X1651698Y2115163D1*
X1647398Y2104783D1*
X1641528Y2095203D1*
X1634231Y2086660D1*
X1625688Y2079363D1*
X1616108Y2073493D1*
X1605728Y2069193D1*
X1594803Y2066570D1*
X1583602Y2065689D1*
X1573558Y2066433D1*
X1573617Y1845745D1*
X1580487Y1851837D1*
X1587980Y1857143D1*
X1596007Y1861601D1*
X1604472Y1865158D1*
X1613274Y1867770D1*
X1622308Y1869408D1*
X1631468Y1870051D1*
X1640642Y1869691D1*
X1649723Y1868333D1*
X1658602Y1865994D1*
X1667173Y1862701D1*
X1675333Y1858492D1*
X1682760Y1853584D1*
X1688824Y1857668D1*
X1694586Y1860894D1*
X1700583Y1863659D1*
X1706778Y1865944D1*
X1713134Y1867737D1*
X1719610Y1869025D1*
X1726606Y1869819D1*
X1726784Y2062023D1*
X1728174Y2070796D1*
X1730918Y2079243D1*
X1734951Y2087156D1*
X1740171Y2094341D1*
X1756179Y2110596D1*
X1824613Y2179030D1*
X1824623Y2302254D1*
X1813134Y2304184D1*
X1806778Y2305977D1*
X1800583Y2308262D1*
X1794586Y2311027D1*
X1788824Y2314254D1*
X1782787Y2318353D1*
X1776709Y2314254D1*
X1770947Y2311027D1*
X1764950Y2308262D1*
X1758755Y2305977D1*
X1752399Y2304184D1*
X1745923Y2302896D1*
X1739365Y2302120D1*
X1732766Y2301861D1*
X1726168Y2302120D1*
X1719610Y2302896D1*
X1713134Y2304184D1*
X1706778Y2305977D1*
X1700583Y2308262D1*
X1694586Y2311027D1*
X1688824Y2314254D1*
X1682787Y2318353D1*
X3646290Y4172695D2*
X3642191Y4178732D1*
X3638964Y4184494D1*
X3636199Y4190491D1*
X3633914Y4196686D1*
X3632121Y4203042D1*
X3630833Y4209518D1*
X3630057Y4216076D1*
X3629798Y4222675D1*
X3630057Y4229273D1*
X3630833Y4235831D1*
X3632121Y4242307D1*
X3633914Y4248663D1*
X3636199Y4254858D1*
X3638964Y4260855D1*
X3644727Y4270413D1*
X3333000Y4270587D1*
X3337056Y4264153D1*
X3341142Y4255931D1*
X3344307Y4247312D1*
X3346513Y4238399D1*
X3347735Y4229299D1*
X3347976Y4220837D1*
X3347275Y4211682D1*
X3345580Y4202659D1*
X3342911Y4193873D1*
X3339300Y4185431D1*
X3334791Y4177433D1*
X3331516Y4172675D1*
X3336132Y4165742D1*
X3340397Y4157610D1*
X3343749Y4149062D1*
X3346150Y4140200D1*
X3347570Y4131129D1*
X3347996Y4122675D1*
X3347495Y4113506D1*
X3345997Y4104448D1*
X3343521Y4095606D1*
X3340096Y4087087D1*
X3335762Y4078992D1*
X3330572Y4071418D1*
X3324587Y4064455D1*
X3317878Y4058186D1*
X3310526Y4052686D1*
X3302619Y4048019D1*
X3294250Y4044243D1*
X3285518Y4041402D1*
X3276530Y4039529D1*
X3267390Y4038647D1*
X3258209Y4038767D1*
X3249096Y4039887D1*
X3240159Y4041994D1*
X3231505Y4045062D1*
X3223238Y4049056D1*
X3215455Y4053927D1*
X3213901Y4055049D1*
X3207840Y4050968D1*
X3202078Y4047741D1*
X3196081Y4044976D1*
X3189886Y4042691D1*
X3183530Y4040898D1*
X3177054Y4039610D1*
X3170496Y4038834D1*
X3163898Y4038575D1*
X3157299Y4038834D1*
X3150741Y4039610D1*
X3144265Y4040898D1*
X3137909Y4042691D1*
X3131714Y4044976D1*
X3125717Y4047741D1*
X3120518Y4050652D1*
X3120496Y3891329D1*
X3188886Y3822671D1*
X3194106Y3815486D1*
X3198138Y3807572D1*
X3200883Y3799125D1*
X3202272Y3790353D1*
X3202447Y3783436D1*
X3213633Y3781569D1*
X3219988Y3779777D1*
X3226184Y3777491D1*
X3232181Y3774726D1*
X3237942Y3771500D1*
X3243980Y3767400D1*
X3250779Y3771937D1*
X3258901Y3776218D1*
X3267442Y3779589D1*
X3276299Y3782009D1*
X3285367Y3783448D1*
X3294538Y3783891D1*
X3303703Y3783331D1*
X3312752Y3781775D1*
X3321578Y3779243D1*
X3330075Y3775763D1*
X3338141Y3771377D1*
X3345682Y3766139D1*
X3352607Y3760109D1*
X3358833Y3753361D1*
X3364286Y3745974D1*
X3368901Y3738036D1*
X3372624Y3729643D1*
X3375410Y3720894D1*
X3377225Y3711893D1*
X3378048Y3702749D1*
X3377919Y3694285D1*
X3376819Y3685169D1*
X3374731Y3676228D1*
X3371681Y3667568D1*
X3368692Y3661148D1*
X3379333Y3660274D1*
X3390258Y3657651D1*
X3400638Y3653351D1*
X3410218Y3647481D1*
X3418761Y3640184D1*
X3426058Y3631641D1*
X3431929Y3622061D1*
X3436228Y3611681D1*
X3438851Y3600756D1*
X3439733Y3589555D1*
X3438851Y3578354D1*
X3436228Y3567430D1*
X3431929Y3557049D1*
X3426058Y3547470D1*
X3418761Y3538926D1*
X3410218Y3531630D1*
X3400638Y3525759D1*
X3390258Y3521459D1*
X3379333Y3518837D1*
X3375429Y3518375D1*
X3381431Y3512357D1*
X3387202Y3505215D1*
X3392160Y3497487D1*
X3396245Y3489264D1*
X3399410Y3480645D1*
X3401617Y3471732D1*
X3402839Y3462632D1*
X3403080Y3454171D1*
X3402379Y3445016D1*
X3400683Y3435992D1*
X3398014Y3427207D1*
X3394404Y3418764D1*
X3389894Y3410766D1*
X3386620Y3406008D1*
X3391236Y3399075D1*
X3395500Y3390943D1*
X3398853Y3382396D1*
X3401254Y3373533D1*
X3402674Y3364462D1*
X3403100Y3356008D1*
X3402599Y3346840D1*
X3401101Y3337781D1*
X3398625Y3328939D1*
X3395199Y3320420D1*
X3390866Y3312326D1*
X3386620Y3306008D1*
X3390707Y3299950D1*
X3392837Y3296146D1*
X3396511Y3302942D1*
X3403115Y3312032D1*
X3411060Y3319977D1*
X3420149Y3326581D1*
X3430160Y3331681D1*
X3440846Y3335153D1*
X3451943Y3336911D1*
X3463178D1*
X3474275Y3335153D1*
X3484961Y3331681D1*
X3494971Y3326581D1*
X3501319Y3322138D1*
X3738928Y3322132D1*
X3745508Y3329722D1*
X3754051Y3337019D1*
X3763631Y3342889D1*
X3774011Y3347189D1*
X3784936Y3349812D1*
X3796136Y3350693D1*
X3807337Y3349812D1*
X3818262Y3347189D1*
X3828642Y3342889D1*
X3838222Y3337019D1*
X3846765Y3329722D1*
X3854062Y3321179D1*
X3859933Y3311599D1*
X3864232Y3301219D1*
X3866855Y3290294D1*
X3867736Y3279093D1*
X3866855Y3267892D1*
X3864232Y3256968D1*
X3859933Y3246587D1*
X3854062Y3237008D1*
X3846765Y3228464D1*
X3838222Y3221168D1*
X3828642Y3215297D1*
X3818262Y3210998D1*
X3807337Y3208375D1*
X3796136Y3207493D1*
X3784936Y3208375D1*
X3782157Y3208927D1*
X3501420Y3208931D1*
X3494971Y3204482D1*
X3484961Y3199382D1*
X3474275Y3195910D1*
X3463178Y3194152D1*
X3451943D1*
X3440846Y3195910D1*
X3430160Y3199382D1*
X3420149Y3204482D1*
X3411060Y3211086D1*
X3403115Y3219031D1*
X3397695Y3226349D1*
X3393934Y3217827D1*
X3390707Y3212066D1*
X3386607Y3206028D1*
X3391236Y3199075D1*
X3395500Y3190943D1*
X3398853Y3182396D1*
X3401254Y3173533D1*
X3402674Y3164462D1*
X3403100Y3156056D1*
X3408471Y3151998D1*
X3424726Y3135990D1*
X3627807Y2932663D1*
X3633027Y2925478D1*
X3637059Y2917564D1*
X3639804Y2909117D1*
X3641193Y2900345D1*
X3641368Y2877531D1*
Y2664272D1*
X3643078Y2674824D1*
X3646550Y2685509D1*
X3651650Y2695520D1*
X3658254Y2704609D1*
X3666199Y2712554D1*
X3675289Y2719158D1*
X3685299Y2724259D1*
X3695985Y2727731D1*
X3707082Y2729488D1*
X3718317D1*
X3729414Y2727731D1*
X3740100Y2724259D1*
X3750110Y2719158D1*
X3756458Y2714716D1*
X4099710Y2714709D1*
X4106152Y2719158D1*
X4116163Y2724259D1*
X4126848Y2727731D1*
X4137945Y2729488D1*
X4149181D1*
X4160278Y2727731D1*
X4170963Y2724259D1*
X4180974Y2719158D1*
X4190063Y2712554D1*
X4198008Y2704609D1*
X4204612Y2695520D1*
X4209713Y2685509D1*
X4213185Y2674824D1*
X4214942Y2663727D1*
Y2652491D1*
X4213185Y2641394D1*
X4209713Y2630709D1*
X4204612Y2620698D1*
X4198008Y2611608D1*
X4190063Y2603664D1*
X4180974Y2597060D1*
X4170963Y2591959D1*
X4160278Y2588487D1*
X4149181Y2586730D1*
X4137945D1*
X4126848Y2588487D1*
X4116163Y2591959D1*
X4106152Y2597060D1*
X4099805Y2601502D1*
X4000636Y2601509D1*
X4008230Y2592434D1*
X4011899Y2586943D1*
X4015125Y2581182D1*
X4017890Y2575185D1*
X4020175Y2568990D1*
X4021968Y2562634D1*
X4023256Y2556157D1*
X4024032Y2549600D1*
X4024292Y2543001D1*
X4024032Y2536403D1*
X4023256Y2529845D1*
X4021968Y2523369D1*
X4020175Y2517013D1*
X4017890Y2510818D1*
X4015125Y2504821D1*
X4011899Y2499059D1*
X4008230Y2493569D1*
X4004142Y2488383D1*
X3999659Y2483534D1*
X3994810Y2479051D1*
X3989624Y2474963D1*
X3984134Y2471294D1*
X3978372Y2468068D1*
X3972375Y2465303D1*
X3966349Y2463080D1*
X3976709Y2457668D1*
X3982199Y2453999D1*
X3987385Y2449911D1*
X3992234Y2445428D1*
X3996717Y2440579D1*
X4000805Y2435393D1*
X4004473Y2429903D1*
X4007700Y2424141D1*
X4010465Y2418144D1*
X4012750Y2411949D1*
X4014543Y2405593D1*
X4015831Y2399117D1*
X4016607Y2392559D1*
X4016866Y2385961D1*
X4016607Y2379362D1*
X4015831Y2372804D1*
X4014543Y2366328D1*
X4012750Y2359972D1*
X4010465Y2353777D1*
X4007700Y2347780D1*
X4004473Y2342019D1*
X4000805Y2336528D1*
X3996717Y2331342D1*
X3992234Y2326493D1*
X3987385Y2322010D1*
X3982199Y2317922D1*
X3976709Y2314254D1*
X3970947Y2311027D1*
X3964950Y2308262D1*
X3958755Y2305977D1*
X3952399Y2304184D1*
X3945923Y2302896D1*
X3939365Y2302120D1*
X3932766Y2301861D1*
X3926168Y2302120D1*
X3919610Y2302896D1*
X3913134Y2304184D1*
X3906778Y2305977D1*
X3900583Y2308262D1*
X3894586Y2311027D1*
X3888824Y2314254D1*
X3882787Y2318353D1*
X3876709Y2314254D1*
X3870947Y2311027D1*
X3864950Y2308262D1*
X3858755Y2305977D1*
X3852399Y2304184D1*
X3845923Y2302896D1*
X3839365Y2302120D1*
X3832766Y2301861D1*
X3826168Y2302120D1*
X3819610Y2302896D1*
X3813134Y2304184D1*
X3806778Y2305977D1*
X3800583Y2308262D1*
X3794586Y2311027D1*
X3788824Y2314254D1*
X3782787Y2318353D1*
X3776709Y2314254D1*
X3770947Y2311027D1*
X3764950Y2308262D1*
X3758755Y2305977D1*
X3752399Y2304184D1*
X3745923Y2302896D1*
X3739365Y2302120D1*
X3732766Y2301861D1*
X3726168Y2302120D1*
X3719610Y2302896D1*
X3713134Y2304184D1*
X3706778Y2305977D1*
X3700583Y2308262D1*
X3694586Y2311027D1*
X3688824Y2314254D1*
X3682787Y2318353D1*
X3676816Y2314325D1*
X3979871Y2011021D1*
X3985092Y2003836D1*
X3989124Y1995922D1*
X3991868Y1987475D1*
X3993258Y1978703D1*
X3993432Y1955890D1*
Y1844182D1*
X4000805Y1835393D1*
X4004473Y1829903D1*
X4007700Y1824141D1*
X4010465Y1818144D1*
X4012750Y1811949D1*
X4014543Y1805593D1*
X4015831Y1799117D1*
X4016607Y1792559D1*
X4016866Y1785961D1*
X4016647Y1780367D1*
X4024394Y1779581D1*
X4035319Y1776958D1*
X4045699Y1772658D1*
X4055278Y1766788D1*
X4063032Y1760221D1*
X4164588Y1760231D1*
X4171012Y1764680D1*
X4181022Y1769781D1*
X4191708Y1773253D1*
X4202805Y1775011D1*
X4214040D1*
X4225137Y1773253D1*
X4235823Y1769781D1*
X4245833Y1764680D1*
X4254923Y1758076D1*
X4257390Y1755796D1*
X4261580Y2930945D1*
X4255948Y2924128D1*
X4249378Y2917714D1*
X4242148Y2912054D1*
X4234344Y2907216D1*
X4226059Y2903258D1*
X4217392Y2900227D1*
X4208447Y2898158D1*
X4199329Y2897077D1*
X4190147Y2896996D1*
X4181012Y2897917D1*
X4172031Y2899828D1*
X4163312Y2902707D1*
X4154959Y2906519D1*
X4147072Y2911219D1*
X4144005Y2913383D1*
X4137942Y2909301D1*
X4132181Y2906074D1*
X4126184Y2903310D1*
X4119988Y2901024D1*
X4113633Y2899232D1*
X4107156Y2897943D1*
X4100598Y2897167D1*
X4094000Y2896908D1*
X4087402Y2897167D1*
X4080844Y2897943D1*
X4074367Y2899232D1*
X4068012Y2901024D1*
X4061816Y2903310D1*
X4055819Y2906074D1*
X4050058Y2909301D1*
X4044567Y2912970D1*
X4039381Y2917058D1*
X4034532Y2921540D1*
X4030050Y2926389D1*
X4025962Y2931575D1*
X4022293Y2937066D1*
X4019066Y2942827D1*
X4016302Y2948824D1*
X4014016Y2955020D1*
X4012224Y2961375D1*
X4010935Y2967852D1*
X4010159Y2974409D1*
X4009900Y2981008D1*
X4010159Y2987606D1*
X4010935Y2994164D1*
X4012224Y3000641D1*
X4014016Y3006996D1*
X4016302Y3013192D1*
X4019066Y3019188D1*
X4022293Y3024950D1*
X4025962Y3030441D1*
X4030050Y3035626D1*
X4034532Y3040476D1*
X4039381Y3044958D1*
X4044567Y3049046D1*
X4050058Y3052715D1*
X4055819Y3055942D1*
X4061816Y3058706D1*
X4068012Y3060992D1*
X4074367Y3062784D1*
X4080844Y3064072D1*
X4087402Y3064849D1*
X4094000Y3065108D1*
X4100598Y3064849D1*
X4107156Y3064072D1*
X4113633Y3062784D1*
X4119988Y3060992D1*
X4126184Y3058706D1*
X4132181Y3055942D1*
X4137942Y3052715D1*
X4143980Y3048615D1*
X4150779Y3053152D1*
X4158901Y3057434D1*
X4167442Y3060804D1*
X4176299Y3063224D1*
X4185367Y3064664D1*
X4194538Y3065106D1*
X4203703Y3064546D1*
X4212752Y3062991D1*
X4221578Y3060458D1*
X4230075Y3056978D1*
X4238141Y3052592D1*
X4245682Y3047354D1*
X4252607Y3041324D1*
X4258833Y3034576D1*
X4261933Y3030579D1*
X4262688Y3242274D1*
X4254363Y3237381D1*
X4248366Y3234617D1*
X4242171Y3232331D1*
X4235815Y3230539D1*
X4229339Y3229250D1*
X4222781Y3228474D1*
X4216182Y3228215D1*
X4209584Y3228474D1*
X4203026Y3229250D1*
X4196550Y3230539D1*
X4190194Y3232331D1*
X4183999Y3234617D1*
X4178002Y3237381D1*
X4172240Y3240608D1*
X4166203Y3244708D1*
X4160125Y3240608D1*
X4154363Y3237381D1*
X4148366Y3234617D1*
X4142171Y3232331D1*
X4135815Y3230539D1*
X4129339Y3229250D1*
X4122781Y3228474D1*
X4116182Y3228215D1*
X4109584Y3228474D1*
X4103026Y3229250D1*
X4096550Y3230539D1*
X4090194Y3232331D1*
X4083999Y3234617D1*
X4078002Y3237381D1*
X4069173Y3242657D1*
X4068989Y3171093D1*
X4067599Y3162321D1*
X4064855Y3153874D1*
X4060822Y3145961D1*
X4055602Y3138775D1*
X4039594Y3122520D1*
X3926411Y3009584D1*
X3919226Y3004364D1*
X3911312Y3000332D1*
X3902865Y2997587D1*
X3894093Y2996198D1*
X3871280Y2996023D1*
X3747802D1*
X3741349Y2991574D1*
X3731338Y2986474D1*
X3720653Y2983002D1*
X3709556Y2981244D1*
X3698321D1*
X3687224Y2983002D1*
X3676538Y2986474D1*
X3666527Y2991574D1*
X3657438Y2998178D1*
X3649493Y3006123D1*
X3642889Y3015212D1*
X3637789Y3025223D1*
X3634317Y3035909D1*
X3632559Y3047006D1*
Y3058241D1*
X3634317Y3069338D1*
X3637789Y3080023D1*
X3642889Y3090034D1*
X3649493Y3099124D1*
X3657438Y3107068D1*
X3666527Y3113672D1*
X3676538Y3118773D1*
X3687224Y3122245D1*
X3698321Y3124003D1*
X3709556D1*
X3720653Y3122245D1*
X3731338Y3118773D1*
X3741349Y3113672D1*
X3747697Y3109230D1*
X3866242Y3109223D1*
X3955972Y3198988D1*
X3955963Y3268008D1*
X3951514Y3274439D1*
X3946413Y3284450D1*
X3942941Y3295136D1*
X3941184Y3306233D1*
Y3317468D1*
X3942941Y3328565D1*
X3946413Y3339251D1*
X3951514Y3349261D1*
X3958118Y3358351D1*
X3966063Y3366295D1*
X3975152Y3372899D1*
X3985163Y3378000D1*
X3995848Y3381472D1*
X4006945Y3383230D1*
X4018181D1*
X4029278Y3381472D1*
X4039283Y3378251D1*
X4036199Y3386327D1*
X4034406Y3392682D1*
X4033118Y3399159D1*
X4032342Y3405717D1*
X4032082Y3412315D1*
X4032342Y3418913D1*
X4033118Y3425471D1*
X4034406Y3431948D1*
X4036199Y3438303D1*
X4038484Y3444499D1*
X4041249Y3450496D1*
X4044475Y3456257D1*
X4048575Y3462295D1*
X4044475Y3468373D1*
X4041249Y3474134D1*
X4038484Y3480131D1*
X4036199Y3486327D1*
X4034406Y3492682D1*
X4033118Y3499159D1*
X4032342Y3505717D1*
X4032082Y3512315D1*
X4032342Y3518913D1*
X4033118Y3525471D1*
X4034406Y3531948D1*
X4036199Y3538303D1*
X4038484Y3544499D1*
X4041249Y3550496D1*
X4044475Y3556257D1*
X4048575Y3562295D1*
X4044475Y3568373D1*
X4041249Y3574134D1*
X4038484Y3580131D1*
X4036199Y3586327D1*
X4034406Y3592682D1*
X4033118Y3599159D1*
X4032342Y3605717D1*
X4032082Y3612315D1*
X4032342Y3618913D1*
X4033118Y3625471D1*
X4034406Y3631948D1*
X4036199Y3638303D1*
X4038484Y3644499D1*
X4041249Y3650496D1*
X4044475Y3656257D1*
X4048575Y3662295D1*
X4044131Y3668940D1*
X4039832Y3677053D1*
X4036443Y3685587D1*
X4034004Y3694439D1*
X4032545Y3703504D1*
X4032083Y3712674D1*
X4032624Y3721840D1*
X4034160Y3730892D1*
X4036674Y3739723D1*
X4040136Y3748227D1*
X4044504Y3756303D1*
X4049726Y3763855D1*
X4055741Y3770793D1*
X4062476Y3777033D1*
X4069851Y3782502D1*
X4077779Y3787135D1*
X4086164Y3790875D1*
X4094907Y3793679D1*
X4103904Y3795514D1*
X4113047Y3796356D1*
X4122227Y3796197D1*
X4131336Y3795038D1*
X4140264Y3792894D1*
X4148904Y3789788D1*
X4157155Y3785759D1*
X4164917Y3780855D1*
X4166176Y3779939D1*
X4172961Y3784459D1*
X4181084Y3788741D1*
X4189624Y3792111D1*
X4198482Y3794531D1*
X4207550Y3795971D1*
X4216721Y3796413D1*
X4225886Y3795853D1*
X4234935Y3794298D1*
X4243760Y3791765D1*
X4252257Y3788285D1*
X4260324Y3783900D1*
X4264605Y3781072D1*
X4266346Y4270062D1*
X4183312Y4270142D1*
X4187945Y4262545D1*
X4191850Y4254235D1*
X4194826Y4245549D1*
X4196837Y4236590D1*
X4197860Y4227466D1*
X4197916Y4219001D1*
X4197015Y4209864D1*
X4195123Y4200879D1*
X4192263Y4192154D1*
X4188469Y4183793D1*
X4183786Y4175895D1*
X4181516Y4172675D1*
X4186132Y4165742D1*
X4190397Y4157610D1*
X4193749Y4149062D1*
X4196150Y4140200D1*
X4197570Y4131129D1*
X4197996Y4122675D1*
X4197495Y4113506D1*
X4195997Y4104448D1*
X4193521Y4095606D1*
X4190096Y4087087D1*
X4185762Y4078992D1*
X4180572Y4071418D1*
X4174587Y4064455D1*
X4167878Y4058186D1*
X4160526Y4052686D1*
X4152619Y4048019D1*
X4144250Y4044243D1*
X4135518Y4041402D1*
X4126530Y4039529D1*
X4117390Y4038647D1*
X4108209Y4038767D1*
X4099096Y4039887D1*
X4090159Y4041994D1*
X4081505Y4045062D1*
X4073238Y4049056D1*
X4065455Y4053927D1*
X4063901Y4055049D1*
X4057840Y4050968D1*
X4052078Y4047741D1*
X4046081Y4044976D1*
X4039886Y4042691D1*
X4033530Y4040898D1*
X4027054Y4039610D1*
X4020496Y4038834D1*
X4013898Y4038575D1*
X4007299Y4038834D1*
X4000741Y4039610D1*
X3994265Y4040898D1*
X3987909Y4042691D1*
X3981714Y4044976D1*
X3975717Y4047741D1*
X3969762Y4051096D1*
X3969605Y4012492D1*
X3968216Y4003720D1*
X3965471Y3995273D1*
X3961439Y3987360D1*
X3956219Y3980174D1*
X3940211Y3963919D1*
X3695022Y3718731D1*
X3693594Y3711011D1*
X3690122Y3700326D1*
X3685021Y3690315D1*
X3678418Y3681225D1*
X3670473Y3673281D1*
X3661383Y3666677D1*
X3651373Y3661576D1*
X3640687Y3658104D1*
X3629590Y3656346D1*
X3618355D1*
X3607258Y3658104D1*
X3596572Y3661576D1*
X3586562Y3666677D1*
X3577472Y3673281D1*
X3569527Y3681225D1*
X3562923Y3690315D1*
X3557823Y3700326D1*
X3554351Y3711011D1*
X3552593Y3722108D1*
Y3733343D1*
X3554351Y3744440D1*
X3557823Y3755126D1*
X3559432Y3758616D1*
X3554871Y3763502D1*
X3548267Y3772592D1*
X3543166Y3782602D1*
X3539695Y3793288D1*
X3537937Y3804385D1*
Y3815620D1*
X3539695Y3826717D1*
X3543166Y3837403D1*
X3548267Y3847414D1*
X3554871Y3856503D1*
X3562816Y3864448D1*
X3571905Y3871052D1*
X3581916Y3876152D1*
X3592602Y3879624D1*
X3603699Y3881382D1*
X3614934D1*
X3626031Y3879624D1*
X3634100Y3877118D1*
X3749837Y3992855D1*
X3749836Y4045685D1*
X3746081Y4044976D1*
X3739886Y4042691D1*
X3733530Y4040898D1*
X3727054Y4039610D1*
X3720496Y4038834D1*
X3713898Y4038575D1*
X3707299Y4038834D1*
X3700741Y4039610D1*
X3694265Y4040898D1*
X3687909Y4042691D1*
X3681714Y4044976D1*
X3675717Y4047741D1*
X3669956Y4050968D1*
X3664465Y4054636D1*
X3659279Y4058724D1*
X3654430Y4063207D1*
X3649947Y4068056D1*
X3645859Y4073242D1*
X3642191Y4078732D1*
X3638964Y4084494D1*
X3636199Y4090491D1*
X3633914Y4096686D1*
X3632121Y4103042D1*
X3630833Y4109518D1*
X3630057Y4116076D1*
X3629798Y4122675D1*
X3630057Y4129273D1*
X3630833Y4135831D1*
X3632121Y4142307D1*
X3633914Y4148663D1*
X3636199Y4154858D1*
X3638964Y4160855D1*
X3642191Y4166617D1*
X3646290Y4172654D1*
X1937844Y2469861D2*
X1945923Y2469025D1*
X1952399Y2467737D1*
X1958755Y2465944D1*
X1964950Y2463659D1*
X1970947Y2460894D1*
X1976709Y2457668D1*
X1982746Y2453568D1*
X1988824Y2457668D1*
X1994586Y2460894D1*
X2000583Y2463659D1*
X2006778Y2465944D1*
X2013134Y2467737D1*
X2019610Y2469025D1*
X2026168Y2469801D1*
X2032766Y2470061D1*
X2039365Y2469801D1*
X2045923Y2469025D1*
X2052399Y2467737D1*
X2058755Y2465944D1*
X2064950Y2463659D1*
X2070947Y2460894D1*
X2078961Y2456163D1*
X2082335Y2464288D1*
X2086976Y2471861D1*
X2092757Y2478626D1*
X2197868Y2583738D1*
X2192108Y2585871D1*
X2186111Y2588636D1*
X2180349Y2591863D1*
X2174312Y2595962D1*
X2168233Y2591863D1*
X2162472Y2588636D1*
X2156475Y2585871D1*
X2150280Y2583586D1*
X2143924Y2581793D1*
X2137447Y2580505D1*
X2130890Y2579729D1*
X2124291Y2579470D1*
X2117693Y2579729D1*
X2111135Y2580505D1*
X2104659Y2581793D1*
X2098303Y2583586D1*
X2092108Y2585871D1*
X2086111Y2588636D1*
X2080349Y2591863D1*
X2074312Y2595962D1*
X2066238Y2590677D1*
X2058041Y2586539D1*
X2049443Y2583319D1*
X2040544Y2581055D1*
X2031452Y2579775D1*
X2022275Y2579494D1*
X2013121Y2580215D1*
X2004101Y2581929D1*
X1995321Y2584617D1*
X1986887Y2588245D1*
X1978899Y2592772D1*
X1974296Y2595944D1*
X1966238Y2590677D1*
X1958041Y2586539D1*
X1949443Y2583319D1*
X1940544Y2581055D1*
X1937824Y2580571D1*
X1937823Y2469900D1*
X2262663Y2061166D2*
X2261961Y2052011D1*
X2260266Y2042987D1*
X2257597Y2034201D1*
X2257093Y2032865D1*
X2338607Y2032864D1*
X2427356Y2121613D1*
X2427366Y2302037D1*
X2419610Y2302896D1*
X2413134Y2304184D1*
X2406778Y2305977D1*
X2400583Y2308262D1*
X2394586Y2311027D1*
X2388824Y2314254D1*
X2382787Y2318353D1*
X2376709Y2314254D1*
X2370947Y2311027D1*
X2364950Y2308262D1*
X2358755Y2305977D1*
X2352399Y2304184D1*
X2345923Y2302896D1*
X2339365Y2302120D1*
X2332766Y2301861D1*
X2326245Y2302117D1*
X2314376Y2290498D1*
X2307190Y2285277D1*
X2299277Y2281245D1*
X2290830Y2278501D1*
X2282058Y2277111D1*
X2259244Y2276937D1*
X1980749Y2277111D1*
X1971977Y2278501D1*
X1963530Y2281245D1*
X1955617Y2285277D1*
X1948431Y2290498D1*
X1937835Y2300848D1*
X1937823Y2236581D1*
X1946399Y2240701D1*
X1952594Y2242986D1*
X1958950Y2244779D1*
X1965427Y2246067D1*
X1971984Y2246843D1*
X1978583Y2247103D1*
X1985181Y2246843D1*
X1991739Y2246067D1*
X1998215Y2244779D1*
X2004571Y2242986D1*
X2010766Y2240701D1*
X2016763Y2237936D1*
X2022525Y2234710D1*
X2028562Y2230610D1*
X2034641Y2234710D1*
X2040402Y2237936D1*
X2046399Y2240701D1*
X2052594Y2242986D1*
X2058950Y2244779D1*
X2065427Y2246067D1*
X2071984Y2246843D1*
X2078583Y2247103D1*
X2085181Y2246843D1*
X2091739Y2246067D1*
X2098215Y2244779D1*
X2104571Y2242986D1*
X2110766Y2240701D1*
X2116763Y2237936D1*
X2122525Y2234710D1*
X2128562Y2230610D1*
X2135362Y2235147D1*
X2143484Y2239428D1*
X2152025Y2242799D1*
X2160882Y2245219D1*
X2169950Y2246658D1*
X2179121Y2247101D1*
X2188286Y2246541D1*
X2197335Y2244985D1*
X2206160Y2242452D1*
X2214657Y2238973D1*
X2222724Y2234587D1*
X2230265Y2229349D1*
X2237189Y2223319D1*
X2243415Y2216571D1*
X2248869Y2209184D1*
X2253484Y2201246D1*
X2257207Y2192853D1*
X2259992Y2184104D1*
X2261808Y2175103D1*
X2262631Y2165959D1*
X2262502Y2157495D1*
X2261402Y2148379D1*
X2259314Y2139438D1*
X2256264Y2130777D1*
X2252288Y2122501D1*
X2247433Y2114708D1*
X2246202Y2113003D1*
X2250819Y2106070D1*
X2255083Y2097938D1*
X2258436Y2089390D1*
X2260836Y2080528D1*
X2262257Y2071457D1*
X2262683Y2063003D1*
X2262663Y2061166D1*
X1745782Y4214734D2*
X1745057Y4203738D1*
X1743251Y4192868D1*
X1740382Y4182229D1*
X1736477Y4171925D1*
X1731576Y4162056D1*
X1725725Y4152718D1*
X1718982Y4144003D1*
X1711412Y4135996D1*
X1703090Y4128774D1*
X1694096Y4122408D1*
X1684518Y4116960D1*
X1683739Y4116575D1*
X1693077Y4111374D1*
X1702139Y4105106D1*
X1710539Y4097974D1*
X1718194Y4090048D1*
X1725031Y4081407D1*
X1730982Y4072133D1*
X1735990Y4062317D1*
X1740005Y4052056D1*
X1742989Y4041448D1*
X1744912Y4030598D1*
X1745755Y4019611D1*
X1745555Y4009227D1*
X1744288Y3998281D1*
X1741948Y3987513D1*
X1738557Y3977029D1*
X1734149Y3966930D1*
X1728766Y3957315D1*
X1722461Y3948278D1*
X1715296Y3939906D1*
X1707340Y3932282D1*
X1698671Y3925480D1*
X1689374Y3919565D1*
X1679538Y3914597D1*
X1669261Y3910622D1*
X1658642Y3907681D1*
X1647784Y3905801D1*
X1636794Y3905001D1*
X1625779Y3905289D1*
X1614845Y3906661D1*
X1604101Y3909106D1*
X1593649Y3912597D1*
X1590798Y3913759D1*
X1590797Y3884580D1*
X1595048Y3879207D1*
X1598587Y3873910D1*
X1601700Y3868352D1*
X1604367Y3862567D1*
X1606572Y3856591D1*
X1608301Y3850460D1*
X1609543Y3844212D1*
X1610292Y3837886D1*
X1610542Y3831521D1*
X1610292Y3825156D1*
X1609543Y3818830D1*
X1608301Y3812582D1*
X1606572Y3806451D1*
X1604367Y3800475D1*
X1601700Y3794690D1*
X1598587Y3789132D1*
X1595048Y3783835D1*
X1591105Y3778833D1*
X1586781Y3774155D1*
X1582103Y3769831D1*
X1577100Y3765887D1*
X1571804Y3762348D1*
X1566246Y3759236D1*
X1560461Y3756569D1*
X1554484Y3754364D1*
X1548354Y3752635D1*
X1542106Y3751392D1*
X1535780Y3750644D1*
X1529415Y3750393D1*
X1523050Y3750644D1*
X1516724Y3751392D1*
X1510476Y3752635D1*
X1504345Y3754364D1*
X1498369Y3756569D1*
X1492584Y3759236D1*
X1487026Y3762348D1*
X1481729Y3765887D1*
X1476727Y3769831D1*
X1472049Y3774155D1*
X1467725Y3778833D1*
X1463781Y3783835D1*
X1460242Y3789132D1*
X1457130Y3794690D1*
X1454463Y3800475D1*
X1452258Y3806451D1*
X1450529Y3812582D1*
X1449286Y3818830D1*
X1448537Y3825156D1*
X1448287Y3831521D1*
X1448537Y3837886D1*
X1449286Y3844212D1*
X1450529Y3850460D1*
X1452258Y3856591D1*
X1454463Y3862567D1*
X1457130Y3868352D1*
X1460242Y3873910D1*
X1463781Y3879207D1*
X1467725Y3884209D1*
X1472049Y3888887D1*
X1477606Y3893904D1*
X1477597Y3913732D1*
X1467512Y3910060D1*
X1456846Y3907293D1*
X1445959Y3905592D1*
X1434957Y3904973D1*
X1423948Y3905442D1*
X1413039Y3906995D1*
X1402336Y3909616D1*
X1391943Y3913279D1*
X1381963Y3917949D1*
X1372492Y3923581D1*
X1363622Y3930120D1*
X1355441Y3937501D1*
X1348027Y3945653D1*
X1341453Y3954497D1*
X1338925Y3958459D1*
X1332678Y3950450D1*
X1325108Y3942442D1*
X1316785Y3935220D1*
X1307791Y3928854D1*
X1298213Y3923406D1*
X1288144Y3918929D1*
X1277683Y3915467D1*
X1266932Y3913053D1*
X1255995Y3911712D1*
X1244978Y3911455D1*
X1233991Y3912286D1*
X1223138Y3914197D1*
X1212528Y3917169D1*
X1202261Y3921172D1*
X1192440Y3926169D1*
X1183160Y3932109D1*
X1174510Y3938936D1*
X1166576Y3946583D1*
X1159435Y3954975D1*
X1153156Y3964030D1*
X1147894Y3973474D1*
X1143424Y3965326D1*
X1137269Y3956186D1*
X1130243Y3947698D1*
X1122413Y3939944D1*
X1113858Y3933000D1*
X1104659Y3926933D1*
X1094907Y3921803D1*
X1084696Y3917660D1*
X1074127Y3914544D1*
X1063301Y3912486D1*
X1052326Y3911505D1*
X1041307Y3911612D1*
X1030353Y3912804D1*
X1019569Y3915071D1*
X1009062Y3918390D1*
X998933Y3922730D1*
X989282Y3928047D1*
X980202Y3934290D1*
X971782Y3941398D1*
X964104Y3949301D1*
X957242Y3957924D1*
X951265Y3967181D1*
X946230Y3976982D1*
X942185Y3987232D1*
X939172Y3997831D1*
X937218Y4008676D1*
X936343Y4019660D1*
X936556Y4030677D1*
X937854Y4041619D1*
X940225Y4052380D1*
X943645Y4062855D1*
X948082Y4072942D1*
X953492Y4082541D1*
X959822Y4091561D1*
X967011Y4099912D1*
X974989Y4107513D1*
X983677Y4114291D1*
X992991Y4120179D1*
X998351Y4123014D1*
X989282Y4128047D1*
X980202Y4134290D1*
X971782Y4141398D1*
X964104Y4149301D1*
X957242Y4157924D1*
X951265Y4167181D1*
X946230Y4176982D1*
X942185Y4187232D1*
X939172Y4197831D1*
X937218Y4208676D1*
X936343Y4219660D1*
X936556Y4230677D1*
X937854Y4241619D1*
X940225Y4252380D1*
X943645Y4262855D1*
X947542Y4271840D1*
X456524Y4272092D1*
X456240Y4149126D1*
X464477Y4154853D1*
X470238Y4158079D1*
X476235Y4160844D1*
X482430Y4163130D1*
X488786Y4164922D1*
X495262Y4166210D1*
X501820Y4166986D1*
X508419Y4167246D1*
X515017Y4166986D1*
X521575Y4166210D1*
X528051Y4164922D1*
X534407Y4163130D1*
X540602Y4160844D1*
X546599Y4158079D1*
X552361Y4154853D1*
X558398Y4150753D1*
X564477Y4154853D1*
X570238Y4158079D1*
X576235Y4160844D1*
X582430Y4163130D1*
X588786Y4164922D1*
X595262Y4166210D1*
X601820Y4166986D1*
X608419Y4167246D1*
X615017Y4166986D1*
X621575Y4166210D1*
X628051Y4164922D1*
X634407Y4163130D1*
X640602Y4160844D1*
X646599Y4158079D1*
X652361Y4154853D1*
X657851Y4151184D1*
X663037Y4147096D1*
X667886Y4142613D1*
X672369Y4137764D1*
X676457Y4132578D1*
X680126Y4127088D1*
X683352Y4121326D1*
X686117Y4115329D1*
X688402Y4109134D1*
X690195Y4102778D1*
X691483Y4096302D1*
X692259Y4089744D1*
X692519Y4083146D1*
X692259Y4076547D1*
X691483Y4069990D1*
X690195Y4063513D1*
X688402Y4057157D1*
X686117Y4050962D1*
X683352Y4044965D1*
X680126Y4039204D1*
X676026Y4033166D1*
X680126Y4027089D1*
X683352Y4021328D1*
X686117Y4015331D1*
X688402Y4009135D1*
X690195Y4002780D1*
X691483Y3996303D1*
X692372Y3986884D1*
X894366Y3986695D1*
X903138Y3985305D1*
X911585Y3982561D1*
X919499Y3978529D1*
X926684Y3973308D1*
X942939Y3957300D1*
X1069631Y3830608D1*
X1068704Y3837955D1*
X1068454Y3844320D1*
X1068704Y3850685D1*
X1069453Y3857011D1*
X1070695Y3863259D1*
X1072424Y3869390D1*
X1074629Y3875366D1*
X1077296Y3881151D1*
X1080409Y3886709D1*
X1083948Y3892006D1*
X1087891Y3897008D1*
X1092216Y3901686D1*
X1096893Y3906010D1*
X1101896Y3909954D1*
X1107192Y3913493D1*
X1112750Y3916605D1*
X1118535Y3919272D1*
X1124512Y3921477D1*
X1130643Y3923206D1*
X1136890Y3924449D1*
X1143216Y3925198D1*
X1149581Y3925448D1*
X1155947Y3925198D1*
X1162273Y3924449D1*
X1168520Y3923206D1*
X1174651Y3921477D1*
X1180628Y3919272D1*
X1186413Y3916605D1*
X1191970Y3913493D1*
X1197267Y3909954D1*
X1202269Y3906010D1*
X1206947Y3901686D1*
X1211271Y3897008D1*
X1215215Y3892006D1*
X1218754Y3886709D1*
X1221867Y3881151D1*
X1224533Y3875366D1*
X1226738Y3869390D1*
X1228467Y3863259D1*
X1229710Y3857011D1*
X1230459Y3850685D1*
X1230709Y3844320D1*
X1230459Y3837955D1*
X1229710Y3831629D1*
X1228467Y3825381D1*
X1226738Y3819250D1*
X1224533Y3813274D1*
X1221867Y3807489D1*
X1218754Y3801931D1*
X1215215Y3796635D1*
X1211271Y3791632D1*
X1206947Y3786954D1*
X1202269Y3782630D1*
X1197267Y3778687D1*
X1191970Y3775148D1*
X1186413Y3772035D1*
X1180628Y3769368D1*
X1174651Y3767163D1*
X1168520Y3765434D1*
X1162273Y3764191D1*
X1155947Y3763443D1*
X1149581Y3763193D1*
X1143216Y3763443D1*
X1135841Y3764400D1*
X1309719Y3590519D1*
X1646383Y3590510D1*
X1652850Y3594958D1*
X1662861Y3600059D1*
X1667332Y3601709D1*
X1660341Y3608951D1*
X1656253Y3614137D1*
X1652584Y3619627D1*
X1649358Y3625389D1*
X1646593Y3631386D1*
X1644307Y3637581D1*
X1642515Y3643937D1*
X1641227Y3650413D1*
X1640451Y3656971D1*
X1640191Y3663570D1*
X1640451Y3670168D1*
X1641227Y3676726D1*
X1642515Y3683202D1*
X1644307Y3689558D1*
X1646593Y3695753D1*
X1649358Y3701750D1*
X1652584Y3707512D1*
X1656253Y3713002D1*
X1660341Y3718188D1*
X1664824Y3723037D1*
X1669673Y3727520D1*
X1674859Y3731608D1*
X1680349Y3735277D1*
X1686111Y3738503D1*
X1692108Y3741268D1*
X1698303Y3743553D1*
X1704659Y3745346D1*
X1711135Y3746634D1*
X1717693Y3747410D1*
X1724291Y3747670D1*
X1730890Y3747410D1*
X1737447Y3746634D1*
X1743924Y3745346D1*
X1750280Y3743553D1*
X1756475Y3741268D1*
X1762472Y3738503D1*
X1768233Y3735277D1*
X1774271Y3731177D1*
X1780349Y3735277D1*
X1786111Y3738503D1*
X1792108Y3741268D1*
X1798303Y3743553D1*
X1804659Y3745346D1*
X1811135Y3746634D1*
X1817693Y3747410D1*
X1824291Y3747670D1*
X1830890Y3747410D1*
X1837447Y3746634D1*
X1843924Y3745346D1*
X1850280Y3743553D1*
X1856475Y3741268D1*
X1862472Y3738503D1*
X1868233Y3735277D1*
X1874271Y3731177D1*
X1880349Y3735277D1*
X1886111Y3738503D1*
X1892108Y3741268D1*
X1898303Y3743553D1*
X1904659Y3745346D1*
X1911135Y3746634D1*
X1917693Y3747410D1*
X1924291Y3747670D1*
X1930890Y3747410D1*
X1937447Y3746634D1*
X1943924Y3745346D1*
X1950280Y3743553D1*
X1956475Y3741268D1*
X1962472Y3738503D1*
X1968233Y3735277D1*
X1974271Y3731177D1*
X1980349Y3735277D1*
X1986111Y3738503D1*
X1992108Y3741268D1*
X1998303Y3743553D1*
X2004659Y3745346D1*
X2011135Y3746634D1*
X2017693Y3747410D1*
X2024291Y3747670D1*
X2030890Y3747410D1*
X2037447Y3746634D1*
X2043924Y3745346D1*
X2050280Y3743553D1*
X2056475Y3741268D1*
X2062472Y3738503D1*
X2068233Y3735277D1*
X2074271Y3731177D1*
X2077907Y3733721D1*
X1981337Y3830285D1*
X1880694Y3830307D1*
X1870467Y3831112D1*
X1860491Y3833507D1*
X1851013Y3837433D1*
X1842265Y3842793D1*
X1834464Y3849456D1*
X1827801Y3857257D1*
X1822441Y3866005D1*
X1818515Y3875483D1*
X1816120Y3885459D1*
X1815315Y3895706D1*
Y3998136D1*
X1812599Y4005202D1*
X1809976Y4016127D1*
X1809094Y4027328D1*
X1809976Y4038529D1*
X1812599Y4049454D1*
X1816898Y4059834D1*
X1822769Y4069414D1*
X1830065Y4077957D1*
X1838609Y4085254D1*
X1848189Y4091124D1*
X1858569Y4095424D1*
X1869494Y4098047D1*
X1880694Y4098928D1*
X1891895Y4098047D1*
X1902820Y4095424D1*
X1913200Y4091124D1*
X1922780Y4085254D1*
X1931323Y4077957D1*
X1938620Y4069414D1*
X1944490Y4059834D1*
X1948790Y4049454D1*
X1951413Y4038529D1*
X1952294Y4027328D1*
X1951413Y4016127D1*
X1948790Y4005202D1*
X1946081Y3998273D1*
X1946074Y3961050D1*
X2013526Y3960864D1*
X2023659Y3959259D1*
X2033416Y3956089D1*
X2042557Y3951432D1*
X2050857Y3945401D1*
X2067618Y3928925D1*
X2254497Y3742046D1*
X2262472Y3738503D1*
X2268233Y3735277D1*
X2273724Y3731608D1*
X2278910Y3727520D1*
X2283759Y3723037D1*
X2288241Y3718188D1*
X2292330Y3713002D1*
X2295998Y3707512D1*
X2299225Y3701750D1*
X2301990Y3695753D1*
X2304275Y3689558D1*
X2306068Y3683202D1*
X2307356Y3676726D1*
X2308132Y3670168D1*
X2308391Y3663570D1*
X2308132Y3656971D1*
X2307356Y3650413D1*
X2306068Y3643937D1*
X2304275Y3637581D1*
X2301990Y3631386D1*
X2299225Y3625389D1*
X2295998Y3619627D1*
X2292330Y3614137D1*
X2288241Y3608951D1*
X2283759Y3604102D1*
X2278910Y3599619D1*
X2273724Y3595531D1*
X2268233Y3591863D1*
X2262472Y3588636D1*
X2256475Y3585871D1*
X2250280Y3583586D1*
X2245190Y3582150D1*
X2245184Y3304773D1*
X2251492Y3308409D1*
X2261872Y3312709D1*
X2266501Y3314014D1*
X2269659Y3321124D1*
X2275530Y3330704D1*
X2282827Y3339247D1*
X2291370Y3346544D1*
X2299628Y3351674D1*
X2301023Y3359164D1*
X2304495Y3369849D1*
X2309595Y3379860D1*
X2316199Y3388949D1*
X2324144Y3396894D1*
X2333233Y3403498D1*
X2343244Y3408599D1*
X2351626Y3411421D1*
X2351606Y3764032D1*
X2186430Y3929238D1*
X2178725Y3930651D1*
X2168039Y3934123D1*
X2158029Y3939224D1*
X2148939Y3945828D1*
X2140995Y3953772D1*
X2134391Y3962862D1*
X2129290Y3972873D1*
X2125818Y3983558D1*
X2124060Y3994655D1*
Y4005891D1*
X2125818Y4016988D1*
X2129290Y4027673D1*
X2134391Y4037684D1*
X2140995Y4046773D1*
X2148939Y4054718D1*
X2158029Y4061322D1*
X2161459Y4063243D1*
X2159246Y4072864D1*
X2158365Y4084064D1*
X2159246Y4095265D1*
X2161869Y4106190D1*
X2166168Y4116570D1*
X2172039Y4126150D1*
X2179336Y4134693D1*
X2187879Y4141990D1*
X2197459Y4147860D1*
X2207839Y4152160D1*
X2218764Y4154783D1*
X2229965Y4155664D1*
X2241165Y4154783D1*
X2252090Y4152160D1*
X2262470Y4147860D1*
X2272050Y4141990D1*
X2280593Y4134693D1*
X2287890Y4126150D1*
X2293761Y4116570D1*
X2298060Y4106190D1*
X2300683Y4095265D1*
X2300933Y4093150D1*
X2453618Y3940455D1*
X2463454Y3944485D1*
X2474379Y3947108D1*
X2476146Y3947317D1*
X2476341Y4053376D1*
X2477730Y4062149D1*
X2480475Y4070596D1*
X2484507Y4078509D1*
X2489727Y4085695D1*
X2505736Y4101949D1*
X2674701Y4270915D1*
X1731417Y4271425D1*
X1735990Y4262317D1*
X1740005Y4252056D1*
X1742989Y4241448D1*
X1744912Y4230598D1*
X1745755Y4219611D1*
X1745782Y4214734D1*
X3141494Y2588632D2*
X3147874Y2590434D1*
X3154350Y2591722D1*
X3160908Y2592498D1*
X3167507Y2592757D1*
X3174105Y2592498D1*
X3180663Y2591722D1*
X3187139Y2590434D1*
X3193495Y2588641D1*
X3199690Y2586356D1*
X3205687Y2583591D1*
X3211449Y2580365D1*
X3220322Y2574029D1*
X3227840Y2579233D1*
X3233602Y2582460D1*
X3239598Y2585225D1*
X3245794Y2587510D1*
X3252149Y2589303D1*
X3258626Y2590591D1*
X3265210Y2591368D1*
X3259532Y2596540D1*
X3255050Y2601389D1*
X3250962Y2606575D1*
X3247293Y2612066D1*
X3244066Y2617827D1*
X3241302Y2623824D1*
X3239016Y2630020D1*
X3237224Y2636375D1*
X3235935Y2642852D1*
X3235159Y2649409D1*
X3234900Y2656008D1*
X3235159Y2662606D1*
X3235935Y2669164D1*
X3237224Y2675641D1*
X3239016Y2681996D1*
X3241302Y2688192D1*
X3244066Y2694188D1*
X3247293Y2699950D1*
X3251393Y2705988D1*
X3246948Y2712633D1*
X3242649Y2720746D1*
X3239260Y2729280D1*
X3236822Y2738132D1*
X3235626Y2745009D1*
X3234940Y2737239D1*
X3232867Y2728603D1*
X3229468Y2720397D1*
X3224827Y2712824D1*
X3219059Y2706071D1*
X3141491Y2628503D1*
X3141499Y2588620D1*
X1354335Y757854D2*
X1353559Y751297D1*
X1352271Y744820D1*
X1350479Y738464D1*
X1348193Y732269D1*
X1345428Y726272D1*
X1342202Y720511D1*
X1338533Y715020D1*
X1334445Y709834D1*
X1329962Y704985D1*
X1325113Y700503D1*
X1319927Y696414D1*
X1314437Y692746D1*
X1308675Y689519D1*
X1302678Y686754D1*
X1296483Y684469D1*
X1290128Y682676D1*
X1283651Y681388D1*
X1277093Y680612D1*
X1270495Y680353D1*
X1263896Y680612D1*
X1257339Y681388D1*
X1250862Y682676D1*
X1244506Y684469D1*
X1238311Y686754D1*
X1232314Y689519D1*
X1226553Y692746D1*
X1221062Y696414D1*
X1215876Y700503D1*
X1211027Y704985D1*
X1206545Y709834D1*
X1202456Y715020D1*
X1198788Y720511D1*
X1195561Y726272D1*
X1192796Y732269D1*
X1190511Y738464D1*
X1188718Y744820D1*
X1187430Y751297D1*
X1186654Y757854D1*
X1186395Y764453D1*
X1186654Y771051D1*
X1187430Y777609D1*
X1188718Y784086D1*
X1190511Y790441D1*
X1192796Y796636D1*
X1195561Y802633D1*
X1198788Y808395D1*
X1202456Y813885D1*
X1206545Y819071D1*
X1211027Y823920D1*
X1215876Y828403D1*
X1221062Y832491D1*
X1226553Y836160D1*
X1232314Y839386D1*
X1238311Y842151D1*
X1244506Y844437D1*
X1250862Y846229D1*
X1257339Y847517D1*
X1263896Y848294D1*
X1270495Y848553D1*
X1277093Y848294D1*
X1283651Y847517D1*
X1290128Y846229D1*
X1296483Y844437D1*
X1302678Y842151D1*
X1308675Y839386D1*
X1314437Y836160D1*
X1319927Y832491D1*
X1325113Y828403D1*
X1329962Y823920D1*
X1334445Y819071D1*
X1338533Y813885D1*
X1342202Y808395D1*
X1345428Y802633D1*
X1348193Y796636D1*
X1350479Y790441D1*
X1352271Y784086D1*
X1353559Y777609D1*
X1354335Y771051D1*
X1354595Y764453D1*
X1354335Y757854D1*
X3251382Y3406009D2*
X3246948Y3412633D1*
X3242649Y3420746D1*
X3239715Y3427971D1*
X3133906Y3322157D1*
X3140228Y3318696D1*
X3149318Y3312092D1*
X3157263Y3304147D1*
X3163867Y3295058D1*
X3168967Y3285047D1*
X3172439Y3274362D1*
X3173786Y3266732D1*
X3244818Y3195691D1*
X3249311Y3203085D1*
X3251379Y3206009D1*
X3247293Y3212066D1*
X3244066Y3217827D1*
X3241302Y3223824D1*
X3239016Y3230020D1*
X3237224Y3236375D1*
X3235935Y3242852D1*
X3235159Y3249409D1*
X3234900Y3256008D1*
X3235159Y3262606D1*
X3235935Y3269164D1*
X3237224Y3275641D1*
X3239016Y3281996D1*
X3241302Y3288192D1*
X3244066Y3294188D1*
X3247293Y3299950D1*
X3251393Y3305988D1*
X3246948Y3312633D1*
X3242649Y3320746D1*
X3239260Y3329280D1*
X3236822Y3338132D1*
X3235363Y3347197D1*
X3234901Y3356367D1*
X3235441Y3365533D1*
X3236977Y3374585D1*
X3239491Y3383416D1*
X3242953Y3391920D1*
X3247321Y3399996D1*
X3251379Y3406009D1*
X3641388Y2469562D2*
X3652399Y2467737D1*
X3658755Y2465944D1*
X3664950Y2463659D1*
X3670947Y2460894D1*
X3676709Y2457668D1*
X3682746Y2453568D1*
X3688824Y2457668D1*
X3694586Y2460894D1*
X3700583Y2463659D1*
X3706778Y2465944D1*
X3713134Y2467737D1*
X3719610Y2469025D1*
X3726168Y2469801D1*
X3732766Y2470061D1*
X3739365Y2469801D1*
X3745923Y2469025D1*
X3752399Y2467737D1*
X3758755Y2465944D1*
X3764950Y2463659D1*
X3770947Y2460894D1*
X3776709Y2457668D1*
X3782746Y2453568D1*
X3788824Y2457668D1*
X3794586Y2460894D1*
X3800583Y2463659D1*
X3810974Y2467128D1*
X3801364Y2471299D1*
X3795602Y2474525D1*
X3790112Y2478194D1*
X3784926Y2482282D1*
X3780077Y2486765D1*
X3775594Y2491614D1*
X3771506Y2496800D1*
X3767838Y2502290D1*
X3764611Y2508052D1*
X3761846Y2514049D1*
X3759561Y2520244D1*
X3757768Y2526600D1*
X3756480Y2533076D1*
X3755704Y2539634D1*
X3755445Y2546232D1*
X3755704Y2552831D1*
X3756480Y2559388D1*
X3757768Y2565865D1*
X3759561Y2572221D1*
X3761846Y2578416D1*
X3764611Y2584413D1*
X3767838Y2590174D1*
X3771506Y2595665D1*
X3776109Y2601509D1*
X3756552D1*
X3750110Y2597060D1*
X3740100Y2591959D1*
X3729414Y2588487D1*
X3718317Y2586730D1*
X3707082D1*
X3695985Y2588487D1*
X3685299Y2591959D1*
X3675289Y2597060D1*
X3666199Y2603664D1*
X3658254Y2611608D1*
X3651650Y2620698D1*
X3646550Y2630709D1*
X3643078Y2641394D1*
X3641369Y2652077D1*
X3641368Y2469636D1*
X3251393Y3006028D2*
X3247293Y3012066D1*
X3244066Y3017827D1*
X3241302Y3023824D1*
X3239016Y3030020D1*
X3237224Y3036375D1*
X3235935Y3042852D1*
X3235159Y3049409D1*
X3234946Y3054848D1*
X3229845Y3056668D1*
X3221932Y3060700D1*
X3214746Y3065920D1*
X3198491Y3081928D1*
X3093824Y3186596D1*
X3086103Y3188025D1*
X3075417Y3191497D1*
X3065407Y3196598D1*
X3056317Y3203202D1*
X3048373Y3211147D1*
X3041769Y3220236D1*
X3038350Y3226597D1*
X2936852Y3125103D1*
X2936867Y2847170D1*
X2983361Y2847159D1*
X2989819Y2851608D1*
X2999830Y2856709D1*
X3010515Y2860181D1*
X3021612Y2861938D1*
X3032847D1*
X3043944Y2860181D1*
X3054630Y2856709D1*
X3064641Y2851608D1*
X3073730Y2845004D1*
X3081675Y2837060D1*
X3088279Y2827970D1*
X3093379Y2817959D1*
X3096851Y2807274D1*
X3098609Y2796177D1*
X3098629Y2785446D1*
X3107070Y2783256D1*
X3117451Y2778956D1*
X3121225Y2776842D1*
X3117359Y2784763D1*
X3113888Y2795448D1*
X3112130Y2806545D1*
Y2817780D1*
X3113888Y2828877D1*
X3117359Y2839563D1*
X3122460Y2849574D1*
X3129064Y2858663D1*
X3137009Y2866608D1*
X3146098Y2873212D1*
X3156109Y2878313D1*
X3166794Y2881784D1*
X3177892Y2883542D1*
X3189127D1*
X3200224Y2881784D1*
X3210909Y2878313D1*
X3220920Y2873212D1*
X3230010Y2866608D1*
X3235107Y2861743D1*
X3235935Y2869164D1*
X3237224Y2875641D1*
X3239016Y2881996D1*
X3241302Y2888192D1*
X3244066Y2894188D1*
X3247293Y2899950D1*
X3251393Y2905988D1*
X3247293Y2912066D1*
X3244066Y2917827D1*
X3241302Y2923824D1*
X3239016Y2930020D1*
X3237224Y2936375D1*
X3235935Y2942852D1*
X3235159Y2949409D1*
X3234900Y2956008D1*
X3235159Y2962606D1*
X3235935Y2969164D1*
X3237224Y2975641D1*
X3239016Y2981996D1*
X3241302Y2988192D1*
X3244066Y2994188D1*
X3247293Y2999950D1*
X3251393Y3005988D1*
X1682760Y1718338D2*
X1676295Y1714002D1*
X1668191Y1709685D1*
X1659665Y1706278D1*
X1650818Y1703821D1*
X1641756Y1702342D1*
X1632587Y1701861D1*
X1623420Y1702382D1*
X1614364Y1703899D1*
X1608391Y1705475D1*
X1625724Y1688144D1*
X1741400Y1688146D1*
X1737420Y1693003D1*
X1732772Y1700592D1*
X1726168Y1702120D1*
X1719610Y1702896D1*
X1713134Y1704184D1*
X1706778Y1705977D1*
X1700583Y1708262D1*
X1694586Y1711027D1*
X1688824Y1714254D1*
X1682787Y1718353D1*
X2943993Y3632170D2*
X2937529Y3627834D1*
X2929425Y3623517D1*
X2920898Y3620110D1*
X2912052Y3617653D1*
X2902990Y3616174D1*
X2899951Y3615908D1*
X2897821Y3606881D1*
X2894422Y3598675D1*
X2889781Y3591103D1*
X2884000Y3584337D1*
X2869381Y3569488D1*
X2863600Y3562723D1*
X2789343Y3488465D1*
X2789367Y3198054D1*
X2799240Y3208245D1*
X3045291Y3454296D1*
X3041769Y3459526D1*
X3036668Y3469537D1*
X3033196Y3480222D1*
X3031438Y3491319D1*
Y3502555D1*
X3033196Y3513652D1*
X3036668Y3524337D1*
X3037394Y3525913D1*
X3037400Y3627735D1*
X3026184Y3622094D1*
X3019988Y3619809D1*
X3013633Y3618016D1*
X3007156Y3616728D1*
X3000598Y3615952D1*
X2994000Y3615693D1*
X2987402Y3615952D1*
X2980844Y3616728D1*
X2974367Y3618016D1*
X2968012Y3619809D1*
X2961816Y3622094D1*
X2955819Y3624859D1*
X2950058Y3628086D1*
X2944020Y3632185D1*
X2900596Y3783629D2*
X2909153Y3782516D1*
X2918081Y3780371D1*
X2926722Y3777266D1*
X2934973Y3773237D1*
X2942735Y3768333D1*
X2943994Y3767416D1*
X2950058Y3771500D1*
X2955819Y3774726D1*
X2961816Y3777491D1*
X2968012Y3779777D1*
X2974367Y3781569D1*
X2980844Y3782857D1*
X2987402Y3783633D1*
X2994000Y3783893D1*
X3000598Y3783633D1*
X3007156Y3782857D1*
X3013633Y3781569D1*
X3019988Y3779777D1*
X3026184Y3777491D1*
X3032181Y3774726D1*
X3037942Y3771500D1*
X3043980Y3767400D1*
X3050058Y3771500D1*
X3055819Y3774726D1*
X3061816Y3777491D1*
X3071065Y3780638D1*
X3020857Y3831103D1*
X3015637Y3838289D1*
X3011605Y3846202D1*
X3008860Y3854649D1*
X3007471Y3863421D1*
X3007296Y3886235D1*
Y4046960D1*
X2997423Y4036790D1*
X2900571Y3939938D1*
X2900591Y3783659D1*
X1974271Y3595962D2*
X1968233Y3591863D1*
X1962472Y3588636D1*
X1956475Y3585871D1*
X1950280Y3583586D1*
X1943924Y3581793D1*
X1937447Y3580505D1*
X1931530Y3579805D1*
X1931549Y2747335D1*
X1939445Y2746293D1*
X1948372Y2744148D1*
X1957013Y2741043D1*
X1965264Y2737014D1*
X1973026Y2732110D1*
X1974285Y2731193D1*
X1981070Y2735714D1*
X1989193Y2739995D1*
X1997733Y2743366D1*
X2006590Y2745786D1*
X2015659Y2747225D1*
X2024830Y2747668D1*
X2033995Y2747108D1*
X2043044Y2745552D1*
X2051869Y2743019D1*
X2058913Y2740210D1*
X2059113Y2795206D1*
X2060718Y2805339D1*
X2063889Y2815096D1*
X2068546Y2824237D1*
X2074576Y2832537D1*
X2091052Y2849298D1*
X2114422Y2872667D1*
X2114425Y3580031D1*
X2105889Y3581508D1*
X2097053Y3584003D1*
X2088541Y3587446D1*
X2080456Y3591797D1*
X2074296Y3595944D1*
X2068233Y3591863D1*
X2062472Y3588636D1*
X2056475Y3585871D1*
X2050280Y3583586D1*
X2043924Y3581793D1*
X2037447Y3580505D1*
X2030890Y3579729D1*
X2024291Y3579470D1*
X2017693Y3579729D1*
X2011135Y3580505D1*
X2004659Y3581793D1*
X1998303Y3583586D1*
X1992108Y3585871D1*
X1986111Y3588636D1*
X1980349Y3591863D1*
X1974312Y3595962D1*
X3628874Y1869908D2*
X3639365Y1869801D1*
X3645923Y1869025D1*
X3652399Y1867737D1*
X3658755Y1865944D1*
X3664950Y1863659D1*
X3670947Y1860894D1*
X3676709Y1857668D1*
X3682746Y1853568D1*
X3688824Y1857668D1*
X3694586Y1860894D1*
X3700583Y1863659D1*
X3706778Y1865944D1*
X3713134Y1867737D1*
X3719610Y1869025D1*
X3726168Y1869801D1*
X3732766Y1870061D1*
X3739365Y1869801D1*
X3745923Y1869025D1*
X3752399Y1867737D1*
X3758755Y1865944D1*
X3764950Y1863659D1*
X3770947Y1860894D1*
X3776709Y1857668D1*
X3782746Y1853568D1*
X3788824Y1857668D1*
X3794586Y1860894D1*
X3800583Y1863659D1*
X3806778Y1865944D1*
X3813134Y1867737D1*
X3819610Y1869025D1*
X3826168Y1869801D1*
X3832766Y1870061D1*
X3839365Y1869801D1*
X3845923Y1869025D1*
X3852399Y1867737D1*
X3858755Y1865944D1*
X3864950Y1863659D1*
X3870947Y1860894D1*
X3880247Y1855303D1*
X3880232Y1950848D1*
X3596763Y2234287D1*
X3592815Y2228191D1*
X3585519Y2219648D1*
X3576975Y2212351D1*
X3567395Y2206481D1*
X3557015Y2202181D1*
X3546090Y2199558D1*
X3534890Y2198677D1*
X3523689Y2199558D1*
X3512764Y2202181D1*
X3502384Y2206481D1*
X3492804Y2212351D1*
X3491131Y2213670D1*
X3247493Y2213677D1*
X3078988Y2045202D1*
X3077595Y2037518D1*
X3074124Y2026832D1*
X3069023Y2016821D1*
X3062419Y2007732D1*
X3054474Y1999787D1*
X3045385Y1993183D1*
X3035374Y1988083D1*
X3024688Y1984611D1*
X3013591Y1982853D1*
X3002356D1*
X2991259Y1984611D1*
X2980574Y1988083D1*
X2970563Y1993183D1*
X2961473Y1999787D1*
X2953529Y2007732D1*
X2946925Y2016821D1*
X2944746Y2020711D1*
X2889375Y1965354D1*
X2889367Y1937512D1*
X2893270Y1943515D1*
X2900567Y1952058D1*
X2909110Y1959355D1*
X2918690Y1965225D1*
X2929070Y1969525D1*
X2939995Y1972148D1*
X2951196Y1973029D1*
X2962396Y1972148D1*
X2973321Y1969525D1*
X2983701Y1965225D1*
X2991985Y1960221D1*
X3017761Y1960218D1*
X3108113Y2050541D1*
X3109537Y2058257D1*
X3113009Y2068942D1*
X3118110Y2078953D1*
X3124714Y2088042D1*
X3132658Y2095987D1*
X3141748Y2102591D1*
X3151759Y2107692D1*
X3162444Y2111164D1*
X3173541Y2112921D1*
X3184776D1*
X3195873Y2111164D1*
X3206559Y2107692D1*
X3216570Y2102591D1*
X3225659Y2095987D1*
X3233604Y2088042D1*
X3240208Y2078953D1*
X3245309Y2068942D1*
X3248780Y2058257D1*
X3250538Y2047160D1*
Y2035924D1*
X3248780Y2024827D1*
X3245309Y2014142D1*
X3240208Y2004131D1*
X3233604Y1995042D1*
X3225659Y1987097D1*
X3216570Y1980493D1*
X3206559Y1975392D1*
X3195873Y1971920D1*
X3188244Y1970573D1*
X3107713Y1890052D1*
X3589706Y1889888D1*
X3598478Y1888498D1*
X3606925Y1885754D1*
X3614839Y1881721D1*
X3622024Y1876501D1*
X3625299Y1873472D1*
X1390341Y3024409D2*
X1389565Y3017852D1*
X1388276Y3011375D1*
X1386484Y3005020D1*
X1384198Y2998824D1*
X1381434Y2992827D1*
X1378207Y2987066D1*
X1374538Y2981575D1*
X1370450Y2976389D1*
X1365968Y2971540D1*
X1361119Y2967058D1*
X1355933Y2962970D1*
X1350442Y2959301D1*
X1344681Y2956074D1*
X1338684Y2953310D1*
X1332488Y2951024D1*
X1326133Y2949232D1*
X1319656Y2947943D1*
X1313098Y2947167D1*
X1306500Y2946908D1*
X1299902Y2947167D1*
X1293344Y2947943D1*
X1286867Y2949232D1*
X1280512Y2951024D1*
X1274316Y2953310D1*
X1268319Y2956074D1*
X1262558Y2959301D1*
X1257067Y2962970D1*
X1251881Y2967058D1*
X1247032Y2971540D1*
X1242550Y2976389D1*
X1238462Y2981575D1*
X1234793Y2987066D1*
X1231566Y2992827D1*
X1228802Y2998824D1*
X1226516Y3005020D1*
X1224724Y3011375D1*
X1223435Y3017852D1*
X1222659Y3024409D1*
X1222400Y3031008D1*
X1222659Y3037606D1*
X1223435Y3044164D1*
X1224724Y3050641D1*
X1226516Y3056996D1*
X1228802Y3063192D1*
X1231566Y3069188D1*
X1234793Y3074950D1*
X1238893Y3080988D1*
X1234448Y3087633D1*
X1230149Y3095746D1*
X1226760Y3104280D1*
X1224322Y3113132D1*
X1222863Y3122197D1*
X1222401Y3131367D1*
X1222941Y3140533D1*
X1224477Y3149585D1*
X1226991Y3158416D1*
X1230453Y3166920D1*
X1234821Y3174996D1*
X1238879Y3181009D1*
X1234793Y3187066D1*
X1231566Y3192827D1*
X1228802Y3198824D1*
X1226516Y3205020D1*
X1224724Y3211375D1*
X1223435Y3217852D1*
X1222659Y3224409D1*
X1222400Y3231008D1*
X1222659Y3237606D1*
X1223435Y3244164D1*
X1224724Y3250641D1*
X1226516Y3256996D1*
X1228802Y3263192D1*
X1231566Y3269188D1*
X1234793Y3274950D1*
X1238462Y3280441D1*
X1242550Y3285626D1*
X1247032Y3290476D1*
X1251881Y3294958D1*
X1257067Y3299046D1*
X1262558Y3302715D1*
X1268319Y3305942D1*
X1274316Y3308706D1*
X1280512Y3310992D1*
X1286867Y3312784D1*
X1293344Y3314072D1*
X1299902Y3314849D1*
X1306500Y3315108D1*
X1313098Y3314849D1*
X1319656Y3314072D1*
X1326133Y3312784D1*
X1332488Y3310992D1*
X1338684Y3308706D1*
X1344681Y3305942D1*
X1350442Y3302715D1*
X1355933Y3299046D1*
X1361119Y3294958D1*
X1365968Y3290476D1*
X1370450Y3285626D1*
X1374538Y3280441D1*
X1378207Y3274950D1*
X1381434Y3269188D1*
X1384198Y3263192D1*
X1386484Y3256996D1*
X1388276Y3250641D1*
X1389565Y3244164D1*
X1390341Y3237606D1*
X1390600Y3231008D1*
X1390341Y3224409D1*
X1389565Y3217852D1*
X1388276Y3211375D1*
X1386484Y3205020D1*
X1384198Y3198824D1*
X1381434Y3192827D1*
X1378207Y3187066D1*
X1374107Y3181028D1*
X1378736Y3174075D1*
X1383000Y3165943D1*
X1386353Y3157396D1*
X1388754Y3148533D1*
X1390174Y3139462D1*
X1390600Y3131008D1*
X1390099Y3121840D1*
X1388601Y3112781D1*
X1386125Y3103939D1*
X1382699Y3095420D1*
X1378366Y3087326D1*
X1374120Y3081008D1*
X1378207Y3074950D1*
X1381434Y3069188D1*
X1384198Y3063192D1*
X1386484Y3056996D1*
X1388276Y3050641D1*
X1389565Y3044164D1*
X1390341Y3037606D1*
X1390600Y3031008D1*
X1390341Y3024409D1*
X1177841Y2924409D2*
X1177065Y2917852D1*
X1175776Y2911375D1*
X1173984Y2905020D1*
X1171698Y2898824D1*
X1168934Y2892827D1*
X1165707Y2887066D1*
X1161607Y2881028D1*
X1166236Y2874075D1*
X1170500Y2865943D1*
X1173853Y2857396D1*
X1176254Y2848533D1*
X1177674Y2839462D1*
X1178100Y2831008D1*
X1177599Y2821840D1*
X1176101Y2812781D1*
X1173625Y2803939D1*
X1170199Y2795420D1*
X1165866Y2787326D1*
X1161620Y2781008D1*
X1165707Y2774950D1*
X1168934Y2769188D1*
X1171698Y2763192D1*
X1173984Y2756996D1*
X1175776Y2750641D1*
X1177065Y2744164D1*
X1177841Y2737606D1*
X1178100Y2731008D1*
X1177841Y2724409D1*
X1177065Y2717852D1*
X1175776Y2711375D1*
X1173984Y2705020D1*
X1171698Y2698824D1*
X1168934Y2692827D1*
X1165707Y2687066D1*
X1162038Y2681575D1*
X1157950Y2676389D1*
X1153468Y2671540D1*
X1148619Y2667058D1*
X1143433Y2662970D1*
X1137942Y2659301D1*
X1132181Y2656074D1*
X1126184Y2653310D1*
X1119988Y2651024D1*
X1113633Y2649232D1*
X1107156Y2647943D1*
X1100598Y2647167D1*
X1094000Y2646908D1*
X1087402Y2647167D1*
X1080844Y2647943D1*
X1074367Y2649232D1*
X1068012Y2651024D1*
X1061816Y2653310D1*
X1055819Y2656074D1*
X1050058Y2659301D1*
X1044567Y2662970D1*
X1039381Y2667058D1*
X1034532Y2671540D1*
X1030050Y2676389D1*
X1025962Y2681575D1*
X1022293Y2687066D1*
X1019066Y2692827D1*
X1016302Y2698824D1*
X1014016Y2705020D1*
X1012224Y2711375D1*
X1010935Y2717852D1*
X1010159Y2724409D1*
X1009900Y2731008D1*
X1010159Y2737606D1*
X1010935Y2744164D1*
X1012224Y2750641D1*
X1014016Y2756996D1*
X1016302Y2763192D1*
X1019066Y2769188D1*
X1022293Y2774950D1*
X1026393Y2780988D1*
X1021948Y2787633D1*
X1017649Y2795746D1*
X1014260Y2804280D1*
X1011822Y2813132D1*
X1010363Y2822197D1*
X1009901Y2831367D1*
X1010441Y2840533D1*
X1011977Y2849585D1*
X1014491Y2858416D1*
X1017953Y2866920D1*
X1022321Y2874996D1*
X1026379Y2881009D1*
X1022293Y2887066D1*
X1019066Y2892827D1*
X1016302Y2898824D1*
X1014016Y2905020D1*
X1012224Y2911375D1*
X1010935Y2917852D1*
X1010159Y2924409D1*
X1009900Y2931008D1*
X1010159Y2937606D1*
X1010935Y2944164D1*
X1012224Y2950641D1*
X1014016Y2956996D1*
X1016302Y2963192D1*
X1019066Y2969188D1*
X1022293Y2974950D1*
X1026393Y2980988D1*
X1021948Y2987633D1*
X1017649Y2995746D1*
X1014260Y3004280D1*
X1011822Y3013132D1*
X1010363Y3022197D1*
X1009901Y3031367D1*
X1010441Y3040533D1*
X1011977Y3049585D1*
X1014491Y3058416D1*
X1017953Y3066920D1*
X1022321Y3074996D1*
X1026379Y3081009D1*
X1022293Y3087066D1*
X1019066Y3092827D1*
X1016302Y3098824D1*
X1014016Y3105020D1*
X1012224Y3111375D1*
X1010935Y3117852D1*
X1010159Y3124409D1*
X1009900Y3131008D1*
X1010159Y3137606D1*
X1010935Y3144164D1*
X1012224Y3150641D1*
X1014016Y3156996D1*
X1016302Y3163192D1*
X1019066Y3169188D1*
X1022293Y3174950D1*
X1025962Y3180441D1*
X1030050Y3185626D1*
X1034532Y3190476D1*
X1039381Y3194958D1*
X1044567Y3199046D1*
X1050058Y3202715D1*
X1055819Y3205942D1*
X1061816Y3208706D1*
X1068012Y3210992D1*
X1074367Y3212784D1*
X1080844Y3214072D1*
X1087402Y3214849D1*
X1094000Y3215108D1*
X1100598Y3214849D1*
X1107156Y3214072D1*
X1113633Y3212784D1*
X1119988Y3210992D1*
X1126184Y3208706D1*
X1132181Y3205942D1*
X1137942Y3202715D1*
X1143433Y3199046D1*
X1148619Y3194958D1*
X1153468Y3190476D1*
X1157950Y3185626D1*
X1162038Y3180441D1*
X1165707Y3174950D1*
X1168934Y3169188D1*
X1171698Y3163192D1*
X1173984Y3156996D1*
X1175776Y3150641D1*
X1177065Y3144164D1*
X1177841Y3137606D1*
X1178100Y3131008D1*
X1177841Y3124409D1*
X1177065Y3117852D1*
X1175776Y3111375D1*
X1173984Y3105020D1*
X1171698Y3098824D1*
X1168934Y3092827D1*
X1165707Y3087066D1*
X1161607Y3081028D1*
X1166236Y3074075D1*
X1170500Y3065943D1*
X1173853Y3057396D1*
X1176254Y3048533D1*
X1177674Y3039462D1*
X1178100Y3031008D1*
X1177599Y3021840D1*
X1176101Y3012781D1*
X1173625Y3003939D1*
X1170199Y2995420D1*
X1165866Y2987326D1*
X1161620Y2981008D1*
X1165707Y2974950D1*
X1168934Y2969188D1*
X1171698Y2963192D1*
X1173984Y2956996D1*
X1175776Y2950641D1*
X1177065Y2944164D1*
X1177841Y2937606D1*
X1178100Y2931008D1*
X1177841Y2924409D1*
X462360Y1241376D2*
X457926Y1247999D1*
X453627Y1256112D1*
X450238Y1264646D1*
X449072Y1268424D1*
X448937Y1213881D1*
X452279Y1223558D1*
X455044Y1229555D1*
X458271Y1235316D1*
X462371Y1241354D1*
Y1141394D2*
X458271Y1147432D1*
X455044Y1153193D1*
X452279Y1159190D1*
X448825Y1169532D1*
X448845Y1113516D1*
X451742Y1122229D1*
X455572Y1130574D1*
X460289Y1138451D1*
X462357Y1141375D1*
X462360Y1041376D2*
X457926Y1047999D1*
X453627Y1056112D1*
X450238Y1064646D1*
X448580Y1070239D1*
X448435Y1011925D1*
X452279Y1023558D1*
X455044Y1029555D1*
X458271Y1035316D1*
X462371Y1041354D1*
Y941394D2*
X458271Y947432D1*
X455044Y953193D1*
X452279Y959190D1*
X449994Y965386D1*
X448334Y971270D1*
X448381Y911739D1*
X451087Y920512D1*
X454734Y928939D1*
X459277Y936918D1*
X462357Y941375D1*
X1316848Y2196331D2*
X1316146Y2187176D1*
X1314451Y2178152D1*
X1311782Y2169367D1*
X1308172Y2160925D1*
X1303662Y2152926D1*
X1298308Y2145468D1*
X1292172Y2138637D1*
X1285328Y2132516D1*
X1277858Y2127177D1*
X1269850Y2122685D1*
X1261400Y2119092D1*
X1252609Y2116442D1*
X1243582Y2114766D1*
X1234425Y2114084D1*
X1225249Y2114405D1*
X1216163Y2115724D1*
X1207274Y2118025D1*
X1198689Y2121282D1*
X1190511Y2125455D1*
X1182836Y2130495D1*
X1175756Y2136342D1*
X1169356Y2142925D1*
X1163712Y2150167D1*
X1158890Y2157982D1*
X1154950Y2166275D1*
X1151937Y2174948D1*
X1149887Y2183898D1*
X1148826Y2193018D1*
X1148764Y2202200D1*
X1149705Y2211333D1*
X1151635Y2220310D1*
X1154532Y2229023D1*
X1158362Y2237368D1*
X1163079Y2245245D1*
X1168626Y2252562D1*
X1172564Y2256886D1*
X1161891Y2256182D1*
X1155526Y2256432D1*
X1149200Y2257181D1*
X1142952Y2258424D1*
X1136821Y2260153D1*
X1130845Y2262358D1*
X1125060Y2265025D1*
X1119502Y2268137D1*
X1114205Y2271676D1*
X1109203Y2275620D1*
X1104525Y2279944D1*
X1100201Y2284622D1*
X1096258Y2289624D1*
X1092718Y2294921D1*
X1089606Y2300479D1*
X1086939Y2306264D1*
X1084734Y2312240D1*
X1083005Y2318371D1*
X1081762Y2324619D1*
X1081014Y2330945D1*
X1080764Y2337310D1*
X1081014Y2343675D1*
X1081762Y2350001D1*
X1083005Y2356249D1*
X1084734Y2362380D1*
X1086939Y2368356D1*
X1089606Y2374141D1*
X1092718Y2379699D1*
X1096258Y2384995D1*
X1100201Y2389998D1*
X1104525Y2394676D1*
X1109203Y2399000D1*
X1114205Y2402943D1*
X1119502Y2406482D1*
X1125060Y2409595D1*
X1130845Y2412262D1*
X1136821Y2414467D1*
X1142952Y2416196D1*
X1149200Y2417438D1*
X1155526Y2418187D1*
X1161891Y2418437D1*
X1168256Y2418187D1*
X1174582Y2417438D1*
X1180830Y2416196D1*
X1186961Y2414467D1*
X1192937Y2412262D1*
X1198722Y2409595D1*
X1204280Y2406482D1*
X1209577Y2402943D1*
X1214579Y2399000D1*
X1219257Y2394676D1*
X1223581Y2389998D1*
X1227525Y2384995D1*
X1231064Y2379699D1*
X1234176Y2374141D1*
X1236843Y2368356D1*
X1239048Y2362380D1*
X1240777Y2356249D1*
X1242020Y2350001D1*
X1242769Y2343675D1*
X1243019Y2337310D1*
X1242769Y2330945D1*
X1242020Y2324619D1*
X1240777Y2318371D1*
X1239048Y2312240D1*
X1236843Y2306264D1*
X1234176Y2300479D1*
X1231064Y2294921D1*
X1227525Y2289624D1*
X1220591Y2281387D1*
X1229632Y2282210D1*
X1238813Y2282050D1*
X1247921Y2280892D1*
X1256849Y2278747D1*
X1265490Y2275641D1*
X1273740Y2271612D1*
X1281503Y2266708D1*
X1288684Y2260987D1*
X1295199Y2254517D1*
X1300970Y2247375D1*
X1305927Y2239647D1*
X1310013Y2231424D1*
X1313178Y2222805D1*
X1315385Y2213892D1*
X1316606Y2204792D1*
X1316848Y2196331D1*
X1174877Y2024643D2*
X1174129Y2018317D1*
X1172886Y2012069D1*
X1171157Y2005938D1*
X1168952Y1999962D1*
X1166285Y1994177D1*
X1163173Y1988619D1*
X1157862Y1981075D1*
X1163011Y1973659D1*
X1167389Y1965588D1*
X1170826Y1957075D1*
X1173279Y1948227D1*
X1174717Y1939159D1*
X1175128Y1931008D1*
X1174608Y1921841D1*
X1173056Y1912792D1*
X1170491Y1903976D1*
X1166947Y1895506D1*
X1162469Y1887491D1*
X1157113Y1880033D1*
X1150949Y1873228D1*
X1144056Y1867164D1*
X1136522Y1861917D1*
X1128443Y1857555D1*
X1119922Y1854133D1*
X1111070Y1851697D1*
X1101999Y1850276D1*
X1092826Y1849889D1*
X1083668Y1850541D1*
X1074642Y1852224D1*
X1065864Y1854916D1*
X1057446Y1858582D1*
X1049497Y1863176D1*
X1042117Y1868639D1*
X1035402Y1874901D1*
X1029438Y1881881D1*
X1024301Y1889491D1*
X1020056Y1897632D1*
X1016758Y1906201D1*
X1014450Y1915087D1*
X1013160Y1924178D1*
X1012906Y1933356D1*
X1013691Y1942504D1*
X1015504Y1951504D1*
X1018323Y1960242D1*
X1022111Y1968606D1*
X1026819Y1976488D1*
X1030111Y1981005D1*
X1024827Y1988619D1*
X1021715Y1994177D1*
X1019048Y1999962D1*
X1016843Y2005938D1*
X1015114Y2012069D1*
X1013871Y2018317D1*
X1013123Y2024643D1*
X1012872Y2031008D1*
X1013123Y2037373D1*
X1013871Y2043699D1*
X1015114Y2049947D1*
X1016843Y2056078D1*
X1019048Y2062054D1*
X1021715Y2067839D1*
X1024827Y2073397D1*
X1028366Y2078693D1*
X1032310Y2083696D1*
X1036634Y2088374D1*
X1041312Y2092698D1*
X1046314Y2096641D1*
X1051611Y2100180D1*
X1057169Y2103293D1*
X1062954Y2105960D1*
X1068930Y2108165D1*
X1075061Y2109894D1*
X1081309Y2111137D1*
X1087635Y2111885D1*
X1094000Y2112135D1*
X1100365Y2111885D1*
X1106691Y2111137D1*
X1112939Y2109894D1*
X1119070Y2108165D1*
X1125046Y2105960D1*
X1130831Y2103293D1*
X1136389Y2100180D1*
X1141686Y2096641D1*
X1146688Y2092698D1*
X1151366Y2088374D1*
X1155690Y2083696D1*
X1159634Y2078693D1*
X1163173Y2073397D1*
X1166285Y2067839D1*
X1168952Y2062054D1*
X1171157Y2056078D1*
X1172886Y2049947D1*
X1174129Y2043699D1*
X1174877Y2037373D1*
X1175128Y2031008D1*
X1174877Y2024643D1*
X641674Y3362490D2*
X640565Y3368064D1*
X639798Y3374543D1*
X639542Y3381063D1*
X639798Y3387583D1*
X640565Y3394062D1*
X641838Y3400461D1*
X643609Y3406741D1*
X645867Y3412862D1*
X648599Y3418788D1*
X651787Y3424481D1*
X655412Y3429906D1*
X659451Y3435030D1*
X663880Y3439821D1*
X668671Y3444250D1*
X673795Y3448289D1*
X679220Y3451914D1*
X684913Y3455102D1*
X690838Y3457834D1*
X696960Y3460092D1*
X703239Y3461863D1*
X709639Y3463136D1*
X716118Y3463903D1*
X731824Y3464159D1*
X797441D1*
X803961Y3463903D1*
X810440Y3463136D1*
X816839Y3461863D1*
X823119Y3460092D1*
X829240Y3457834D1*
X835166Y3455102D1*
X840859Y3451914D1*
X846284Y3448289D1*
X851408Y3444250D1*
X856199Y3439821D1*
X860628Y3435030D1*
X864667Y3429906D1*
X868292Y3424481D1*
X871480Y3418788D1*
X874212Y3412862D1*
X876470Y3406741D1*
X878241Y3400461D1*
X879514Y3394062D1*
X880281Y3387583D1*
X880537Y3381063D1*
X880281Y3374543D1*
X879514Y3368064D1*
X878241Y3361665D1*
X876470Y3355385D1*
X874212Y3349264D1*
X871480Y3343338D1*
X868292Y3337645D1*
X864667Y3332220D1*
X860628Y3327096D1*
X856199Y3322305D1*
X851408Y3317876D1*
X845966Y3313624D1*
X847798Y3301529D1*
X848054Y3295009D1*
X847798Y3288490D1*
X847031Y3282010D1*
X845758Y3275611D1*
X843987Y3269331D1*
X841729Y3263210D1*
X838997Y3257284D1*
X835809Y3251592D1*
X832184Y3246167D1*
X828145Y3241043D1*
X823716Y3236251D1*
X818925Y3231822D1*
X813801Y3227783D1*
X808376Y3224158D1*
X802683Y3220970D1*
X796757Y3218238D1*
X790636Y3215980D1*
X784356Y3214209D1*
X777957Y3212936D1*
X771478Y3212169D1*
X755772Y3211913D1*
X690155D1*
X683635Y3212169D1*
X677156Y3212936D1*
X670756Y3214209D1*
X664477Y3215980D1*
X658355Y3218238D1*
X652430Y3220970D1*
X646737Y3224158D1*
X641312Y3227783D1*
X636188Y3231822D1*
X631397Y3236251D1*
X626968Y3241043D1*
X622929Y3246167D1*
X619304Y3251592D1*
X616116Y3257284D1*
X613384Y3263210D1*
X611126Y3269331D1*
X609355Y3275611D1*
X608082Y3282010D1*
X607315Y3288490D1*
X607059Y3295009D1*
X607315Y3301529D1*
X608082Y3308008D1*
X609355Y3314408D1*
X611126Y3320687D1*
X613384Y3326809D1*
X616116Y3332734D1*
X619304Y3338427D1*
X622929Y3343852D1*
X626968Y3348976D1*
X631397Y3353767D1*
X636188Y3358196D1*
X641630Y3362448D1*
X815102Y3074607D2*
X815357Y3081152D1*
X816124Y3087632D1*
X817397Y3094031D1*
X819168Y3100311D1*
X821426Y3106432D1*
X824158Y3112357D1*
X827346Y3118050D1*
X830971Y3123475D1*
X835010Y3128599D1*
X839439Y3133390D1*
X844230Y3137819D1*
X849354Y3141859D1*
X854779Y3145484D1*
X860472Y3148672D1*
X866397Y3151403D1*
X872519Y3153662D1*
X878798Y3155433D1*
X885198Y3156706D1*
X891677Y3157472D1*
X898197Y3157729D1*
X904716Y3157472D1*
X911196Y3156706D1*
X917595Y3155433D1*
X923875Y3153662D1*
X929996Y3151403D1*
X935922Y3148672D1*
X941614Y3145484D1*
X947039Y3141859D1*
X952163Y3137819D1*
X956955Y3133390D1*
X961384Y3128599D1*
X965423Y3123475D1*
X969048Y3118050D1*
X972236Y3112357D1*
X974968Y3106432D1*
X977226Y3100311D1*
X978997Y3094031D1*
X980270Y3087632D1*
X981037Y3081152D1*
X981293Y3065446D1*
X981257Y2999829D1*
X981037Y2993310D1*
X980270Y2986830D1*
X978997Y2980431D1*
X977226Y2974151D1*
X974968Y2968030D1*
X972236Y2962105D1*
X969048Y2956412D1*
X965423Y2950987D1*
X961384Y2945863D1*
X956955Y2941072D1*
X952163Y2936643D1*
X947039Y2932603D1*
X941614Y2928978D1*
X935922Y2925790D1*
X929996Y2923059D1*
X923875Y2920800D1*
X917595Y2919029D1*
X911196Y2917756D1*
X904716Y2916989D1*
X898197Y2916733D1*
X891677Y2916989D1*
X885198Y2917756D1*
X878798Y2919029D1*
X872519Y2920800D1*
X866397Y2923059D1*
X860472Y2925790D1*
X854779Y2928978D1*
X849354Y2932603D1*
X844230Y2936643D1*
X839439Y2941072D1*
X835010Y2945863D1*
X830971Y2950987D1*
X827346Y2956412D1*
X824158Y2962105D1*
X821426Y2968030D1*
X819168Y2974151D1*
X817397Y2980431D1*
X816124Y2986830D1*
X815357Y2993310D1*
X815101Y3009016D1*
Y3074463D1*
X463280Y2787997D2*
D21*
Y2547074D1*
Y2667535D2*
X546340D1*
X461705Y2250768D2*
Y2009844D1*
Y2130306D2*
X544765D1*
X2178583Y2063003D2*
X2262647D1*
X1634197Y4216571D2*
X1745761D1*
X2178583Y2247067D2*
Y2163003D1*
X2262647D1*
X1328591Y506047D2*
X1412655D1*
X3263896Y4122675D2*
Y4038610D1*
Y4122675D2*
X3347960D1*
X3263896Y4222675D2*
X3347960D1*
X3319000Y3456008D2*
X3403064D1*
X3234936Y3356008D2*
X3403064D1*
X3319000Y3156008D2*
X3403064D1*
X1632766Y1870025D2*
Y1701897D1*
X3234936Y2756008D2*
X3403064D1*
X2894000Y3783857D2*
Y3615729D1*
X3294000Y3783857D2*
Y3699793D1*
X3378064D1*
X1634197Y4016571D2*
Y3905007D1*
Y4016571D2*
X1745761D1*
X1724291Y2747634D2*
Y2579505D1*
X1640227Y2663570D2*
X1724291D1*
X1824291Y2747634D2*
Y2579505D1*
X1924291Y2747634D2*
Y2579505D1*
X2024291Y2747634D2*
Y2579505D1*
X4113896Y4122675D2*
Y4038610D1*
Y4122675D2*
X4197960D1*
X1434197Y4016571D2*
Y3905007D1*
X1222436Y3131008D2*
X1390564D1*
X1247892Y4023017D2*
Y3911453D1*
X1047892Y4023017D2*
Y3911453D1*
X936328Y4023017D2*
X1047892D1*
X4216182Y3796379D2*
Y3712315D1*
X4113896Y4222675D2*
X4197960D1*
X4116182Y3796379D2*
Y3712315D1*
X4032118D2*
X4116182D1*
X4194000Y3065072D2*
Y2896944D1*
X936328Y4223017D2*
X1047892D1*
X1009936Y3031008D2*
X1178064D1*
X508419Y3683147D2*
Y3599083D1*
X529978Y891374D2*
Y807310D1*
X1009936Y2831008D2*
X1178064D1*
X629978Y891374D2*
Y807310D1*
Y891374D2*
X714042D1*
X629978Y1091374D2*
X714042D1*
X629978Y1291374D2*
X714042D1*
X1232768Y2282232D2*
Y2114104D1*
X1148704Y2198168D2*
X1316832D1*
X1094000Y1931008D2*
Y1849916D1*
X1012908Y1931008D2*
X1175092D1*
X462563Y3307380D2*
Y3066457D1*
Y3186919D2*
X545623D1*
D30*
X463280Y2667535D3*
D31*
X760756Y2861680D3*
X728273Y2775626D3*
X630899Y2482958D3*
D30*
X898913Y2517848D3*
X461705Y2130306D3*
D31*
X759181Y2324450D3*
X726698Y2238396D3*
X629324Y1945728D3*
D30*
X897339Y1980618D3*
D32*
X3332766Y2385961D3*
X3913896Y4122675D3*
X1632766Y2385961D3*
X1732766D3*
X2876535Y599720D3*
X3713898Y4222675D3*
X1832766Y2385961D3*
X3713898Y4122675D3*
X1932766Y2385961D3*
X2178583Y2063003D3*
D33*
X1634197Y4216571D3*
D32*
X3913896Y4222675D3*
X2178583Y2163003D3*
X2863898Y4222675D3*
X2078583Y2063003D3*
Y2163003D3*
X3167507Y2508657D3*
X2863898Y4122675D3*
X1978583Y2063003D3*
Y2163003D3*
X3271782Y2507526D3*
X2032766Y2385961D3*
X2963896Y4222675D3*
X2132766Y2385961D3*
X2733493Y1276421D3*
X2232766Y2385961D3*
X1412655Y506047D3*
X2332766Y2385961D3*
X1270495Y764453D3*
X2432766Y2385961D3*
X1424091Y986971D3*
X2532766Y2385961D3*
X1024537Y1636870D3*
X3063896Y4122675D3*
X2632766Y2385961D3*
X3263896Y4122675D3*
X2732766Y2385961D3*
X3163898Y4222675D3*
X2832766Y2385961D3*
X2963896Y4122675D3*
X2932766Y2385961D3*
X3063896Y4222675D3*
X3032766Y2385961D3*
X3163898Y4122675D3*
X3132766Y2385961D3*
X3263896Y4222675D3*
X3232766Y2385961D3*
X3432766D3*
X3319000Y3456008D3*
X3532766Y2385961D3*
X3319000Y3356008D3*
X3632766Y2385961D3*
X3319000Y3256008D3*
X3732766Y2385961D3*
X3319000Y3156008D3*
X3832766Y2385961D3*
X3319000Y3056008D3*
X3932766Y2385961D3*
X3319000Y2956008D3*
X1632766Y1785961D3*
X3319000Y2856008D3*
X1732766Y1785961D3*
X3319000Y2756008D3*
X1832766Y1785961D3*
X2794000Y3699793D3*
X1932766Y1785961D3*
X2894000Y3699793D3*
X2032766Y1785961D3*
X2994000Y3699793D3*
X2132766Y1785961D3*
X3094000Y3699793D3*
X2232766Y1785961D3*
X3194000Y3699793D3*
X2332766Y1785961D3*
X3294000Y3699793D3*
X2432766Y1785961D3*
X2224291Y3663570D3*
X2532766Y1785961D3*
X1724291Y3663570D3*
X2632766Y1785961D3*
X1824291Y3663570D3*
X2732766Y1785961D3*
X1924291Y3663570D3*
X2832766Y1785961D3*
D33*
X1634197Y4016571D3*
D32*
X2932766Y1785961D3*
X2024291Y3663570D3*
X3032766Y1785961D3*
X2124291Y3663570D3*
X3132766Y1785961D3*
X2224291Y2663570D3*
X3232766Y1785961D3*
X1724291Y2663570D3*
X3332766Y1785961D3*
X1824291Y2663570D3*
X3432766Y1785961D3*
X1924291Y2663570D3*
X3813896Y4222675D3*
X3532766Y1785961D3*
X3632766D3*
X2024291Y2663570D3*
X4113896Y4122675D3*
X3732766Y1785961D3*
X4013898Y4222675D3*
X3832766Y1785961D3*
X3932766D3*
X2124291Y2663570D3*
X3230010Y1631039D3*
D33*
X1434197Y4016571D3*
D32*
X3330010Y1631039D3*
X3430010D3*
X1882766Y1885961D3*
X1306500Y3031008D3*
X2282766Y1885961D3*
X1306500Y3131008D3*
X1982766Y1885961D3*
D33*
X1434197Y4216571D3*
D32*
X2082766Y1885961D3*
D33*
X1534197Y4116571D3*
X1247892Y4223017D3*
D32*
X2182766Y1885961D3*
D33*
X1247892Y4023017D3*
X1047892D3*
D32*
X4216182Y3712315D3*
Y3612315D3*
Y3512315D3*
Y3412315D3*
Y3312315D3*
X3813896Y4122675D3*
X3319000Y2656008D3*
X4013898Y4122675D3*
X4113896Y4222675D3*
X4116182Y3712315D3*
Y3612315D3*
Y3412315D3*
Y3512315D3*
Y3312315D3*
X1306500Y3231008D3*
X4194000Y2981008D3*
X4094000D3*
D33*
X1047892Y4223017D3*
X1147892Y4123017D3*
D32*
X1094000Y2931008D3*
Y3131008D3*
Y3031008D3*
X3130010Y1631039D3*
X508419Y3683147D3*
X608419D3*
X3839545Y2546232D3*
X3940192Y2543001D3*
X529978Y1491374D3*
Y1391374D3*
X508419Y3783146D3*
X529978Y1291374D3*
X608419Y3883146D3*
X529978Y1191374D3*
X608419Y4083146D3*
X529978Y1091374D3*
X508419Y3983147D3*
X529978Y991374D3*
Y891374D3*
X1094000Y2831008D3*
X629978Y891374D3*
X608419Y3783146D3*
X629978Y991374D3*
X508419Y3883146D3*
X629978Y1091374D3*
X608419Y3983147D3*
X629978Y1191374D3*
X508419Y4083146D3*
X629978Y1291374D3*
X1232768Y2198168D3*
X629978Y1391374D3*
X1094000Y2731008D3*
X629978Y1491374D3*
Y1591374D3*
X529978D3*
D34*
X1149581Y3844320D3*
X1529415Y3831521D3*
X1094000Y2031008D3*
X1161891Y2337310D3*
X3773984Y1317278D3*
X1094000Y1931008D3*
X1544000Y881008D3*
Y781008D3*
D32*
X4026841Y772941D3*
D83*
X1487542Y1382894D3*
D35*
X1537542D3*
X1587542D3*
D32*
X2744837Y838732D3*
X2844837D3*
X2944837D3*
D30*
X462563Y3186919D3*
D31*
X760039Y3381063D3*
X727556Y3295009D3*
X630182Y3002341D3*
D30*
X898197Y3037231D3*
D32*
X1736944Y623127D3*
X1786944Y823127D3*
X1836944Y623127D3*
X1886944Y823127D3*
X1936944Y623127D3*
X1986944Y823127D3*
X2036944Y623127D3*
X2086944Y823127D3*
X2136944Y623127D3*
X2186944Y823127D3*
X2236944Y623127D3*
X2286944Y823127D3*
X2336944Y623127D3*
X2386944Y823127D3*
X2436944Y623127D3*
M02*
