G04 DipTrace 3.3.1.1*
G04 Bottom.gbr*
%MOIN*%
G04 #@! TF.FileFunction,Copper,L2,Bot*
G04 #@! TF.Part,Single*
%AMOUTLINE0*
4,1,8,
-0.019685,-0.029528,
-0.009843,-0.03937,
0.009843,-0.03937,
0.019685,-0.029528,
0.019685,0.029528,
0.009843,0.03937,
-0.009843,0.03937,
-0.019685,0.029528,
-0.019685,-0.029528,
0*%
G04 #@! TA.AperFunction,Conductor*
%ADD14C,0.027559*%
%ADD16C,0.011811*%
%ADD19C,0.01*%
G04 #@! TA.AperFunction,CopperBalancing*
%ADD20C,0.04*%
%ADD21C,0.012992*%
G04 #@! TA.AperFunction,ComponentPad*
%ADD33O,0.062992X0.137795*%
%ADD34O,0.137795X0.062992*%
%ADD35C,0.065*%
%ADD36C,0.12*%
%ADD37C,0.059055*%
%ADD45R,0.059055X0.059055*%
%ADD46C,0.059055*%
%ADD47O,0.03937X0.07874*%
%ADD96OUTLINE0*%
%FSLAX26Y26*%
G04*
G70*
G90*
G75*
G01*
G04 Bottom*
%LPD*%
X930374Y1165164D2*
D14*
X1241434D1*
X1449945Y956654D1*
X1583618Y2137304D2*
Y2343660D1*
X1625934Y2385976D1*
X1632782D1*
X1436673Y1602927D2*
X1490829D1*
X1558268Y1535488D1*
X2124307Y2663585D2*
Y2790092D1*
X2179820Y2845605D1*
Y3619098D1*
X2224307Y3663585D1*
X1227056Y1556417D2*
X1423253Y1752614D1*
Y2355797D1*
X1880710Y4027344D2*
Y3895702D1*
X2008412D1*
X2224307Y3679807D1*
Y3663585D1*
X529993Y1091390D2*
X450988D1*
Y891390D1*
X529993D1*
X1341378Y824403D2*
X1330971D1*
Y533756D1*
X2182782Y1885976D2*
X2282782D1*
X2124307Y3663585D2*
Y3679881D1*
X2070097Y3734091D1*
X1973483D1*
X1827205Y3880369D1*
Y3932814D1*
X3802707Y3454879D2*
X3299058D1*
Y3464675D1*
X2182782Y1871337D2*
D16*
Y1885976D1*
X1824307Y2663585D2*
D14*
X1724307D1*
X450988Y1091390D2*
Y1291390D1*
X529993D1*
Y891390D2*
X629993D1*
X529993Y1091390D2*
X629993D1*
X529993Y1291390D2*
X629993D1*
X1232783Y2198184D2*
X1242715D1*
Y1973912D1*
X1202110Y1933307D1*
X1138903D1*
X1144269D1*
Y1568927D1*
X1111602Y2830861D2*
D19*
X1110134Y2829392D1*
X1094126D1*
X1035455Y2770722D1*
Y2560395D1*
Y2435766D1*
X727169Y2127480D1*
X461720D1*
Y2130322D1*
X727169Y2127480D2*
X1055168D1*
Y1915706D1*
X1138903D1*
Y1933307D1*
X3526504Y2816526D2*
X3384168D1*
Y2322559D1*
X3379789D1*
X1324478Y3155312D2*
D14*
X1561186D1*
Y3218157D1*
X1797186D1*
X1027328Y2560395D2*
D19*
X1035455D1*
X1989820Y1418682D2*
D14*
X2239352D1*
X1412671Y506063D2*
X1981252D1*
X2052526Y577337D1*
Y623143D1*
X2042591D1*
X629993Y1491390D2*
X939546D1*
X1089356Y1341580D1*
X1168966D1*
X1583295Y927251D1*
Y686613D1*
X1646765Y623143D1*
X1642591D1*
X3007990Y2054248D2*
D19*
X3224034Y2270293D1*
X3534906D1*
X3703954Y3052640D2*
X3889668D1*
X4012579Y3175550D1*
Y3311866D1*
X1534213Y4116587D2*
Y3831537D1*
X1529430D1*
X3183525Y2812178D2*
X3179052D1*
Y2746109D1*
X3084915Y2651971D1*
Y2240938D1*
X2832782Y1988806D1*
Y1785976D1*
X3084961Y2715176D2*
X2985677D1*
Y2233650D1*
X2732782Y1980755D1*
Y1785976D1*
X1824307Y3663585D2*
X1821206D1*
X1874965Y3609827D1*
Y2612125D1*
X1881239D1*
Y2155612D1*
X1783226Y2057598D1*
Y1726287D1*
X1824122Y1685391D1*
X2242799D1*
X2195455Y4000289D2*
X2408222Y3787522D1*
Y2461416D1*
X2332782Y2385976D1*
X2229980Y4084080D2*
X2445438Y3868622D1*
Y2385976D1*
X2432782D1*
X4128105Y2659029D2*
X3713619D1*
X2732782Y2385976D2*
Y3511949D1*
X2823606Y3602773D1*
X2822392D1*
X2851916Y3632297D1*
Y3971329D1*
X2963912Y4083324D1*
Y4122690D1*
X3132782Y1785976D2*
Y1699852D1*
X3130026Y1697096D1*
Y1631055D1*
X3532782Y1785976D2*
Y1642546D1*
X3475508Y1585272D1*
X1587486D1*
X1481951Y1690806D1*
Y2927513D1*
X1690277Y3135839D1*
Y3533925D2*
X1286301D1*
X889941Y3930285D1*
X561312D1*
X508434Y3983163D1*
X3632782Y1785976D2*
X3585281Y1833478D1*
X3100282D1*
X3080282Y1813478D1*
Y1691056D1*
X3020787Y1631562D1*
X1602293D1*
X1516979Y1716875D1*
Y2868936D1*
X1740500Y3092457D1*
X3179175Y2041558D2*
X3041251Y1903634D1*
X2951211D1*
Y1901445D1*
X1831001Y726022D2*
X2546230D1*
X3796152Y3279109D2*
Y3265547D1*
X3457576D1*
X3027245Y2790575D2*
X2936046D1*
Y2385976D1*
X2932782D1*
X3932782Y1785976D2*
X3936848D1*
Y1974278D1*
X3584783Y2326343D1*
Y2895920D1*
X3366839Y3113865D1*
X3246633D1*
X3102833Y3257663D1*
Y3496953D2*
X3099058D1*
Y3664675D1*
X2284013Y3244629D2*
X2292192D1*
Y2598017D1*
X2132782Y2438608D1*
Y2385976D1*
X2333471Y3288634D2*
X2338165D1*
Y2562657D1*
X2230892Y2455385D1*
Y2385976D1*
X2232782D1*
X2370660Y3342465D2*
Y2522907D1*
X2285290Y2437537D1*
Y2341210D1*
X2277633Y2333552D1*
X1985206D1*
X1932782Y2385976D1*
X529993Y1491390D2*
D14*
X500077D1*
X443437Y1548030D1*
Y1626756D1*
X486382Y1669701D1*
X844463D1*
X1105640Y1408524D1*
X1199724D1*
X1692591Y915657D1*
Y823143D1*
X2577306Y2328860D2*
D19*
X2580282Y2331836D1*
Y4009215D1*
X2793757Y4222690D1*
X2863913D1*
X2963912D2*
X2915546Y4271056D1*
X2754887D1*
X2532782Y4048951D1*
Y2385976D1*
X2632782D2*
Y3990633D1*
X2812340Y4170190D1*
X3011412D1*
X3063912Y4222690D1*
Y4122690D2*
Y3867878D1*
X3145862Y3785928D1*
Y3631983D1*
X3142154Y3628274D1*
Y3471114D1*
X2832782Y3161743D1*
Y2385976D1*
X4013209Y1708878D2*
Y1703647D1*
X4208438D1*
X2485596Y3876406D2*
X2483982D1*
Y2098194D1*
X2362067Y1976280D1*
X2046562D1*
X2034346Y1964064D1*
Y1956231D1*
X2032782D1*
Y1785976D1*
X3913912Y4122690D2*
X3913196Y4121974D1*
Y4016949D1*
X3623988Y3727741D1*
X3368148Y3589571D2*
X3321276D1*
X2880282Y3148577D1*
Y2255066D1*
X2484052Y1858836D1*
Y1748496D1*
X2474030Y1738474D1*
X2180285D1*
X2132782Y1785976D1*
X3609332Y3810018D2*
X3647045D1*
X3806451Y3969425D1*
Y4045684D1*
X3807238Y4046470D1*
Y4122690D1*
X3813912D1*
X2682127Y3600873D2*
X2682841D1*
Y2192213D1*
X2486663Y1996034D1*
Y1997843D1*
X2323829Y1835009D1*
X2296690D1*
X2232782Y1771101D1*
Y1785976D1*
X3232782D2*
Y1699852D1*
X3230026Y1697096D1*
Y1631055D1*
X3332782Y1785976D2*
Y1699852D1*
X3330026Y1697096D1*
Y1631055D1*
X3432782Y1785976D2*
Y1699852D1*
X3430026Y1697096D1*
Y1631055D1*
X3167522Y2508673D2*
X3132782Y2473933D1*
Y2385976D1*
X3271798Y2507542D2*
X3232782Y2468526D1*
Y2385976D1*
X608434Y3683163D2*
X601814D1*
Y3542661D1*
X591945Y3532793D1*
X956434Y1826605D2*
Y1667668D1*
D20*
X1583618Y2137304D3*
X1558268Y1535488D3*
X1330971Y533756D3*
X1144269Y1568927D3*
X2239352Y1418682D3*
X3007990Y2054248D3*
X3534906Y2270293D3*
X3703954Y3052640D3*
X4012579Y3311866D3*
X2242799Y1685391D3*
X2195455Y4000289D3*
X4128105Y2659029D3*
X3713619D3*
X1690277Y3135839D3*
Y3533925D3*
X1740500Y3092457D3*
X3179175Y2041558D3*
X2951211Y1901445D3*
X1831001Y726022D3*
X2546230D3*
X3457576Y3265547D3*
X3027245Y2790575D3*
X3102833Y3257663D3*
Y3496953D3*
X4208438Y1703647D3*
X3623988Y3727741D3*
X3368148Y3589571D3*
X591945Y3532793D3*
X956434Y1826605D3*
Y1667668D3*
X896003Y1290768D3*
X1432719Y1663315D3*
X1827205Y3932814D3*
X2233972Y3116260D3*
X3066167Y3124436D3*
X3112280Y3948705D3*
X2908677D3*
X1994016Y3131024D3*
X3298778Y1488957D3*
X4244016Y1381024D3*
X3649052Y2897134D3*
X3899138Y2141963D3*
X2919508Y1999008D3*
X2884942Y1393411D3*
X3399307Y1170009D3*
X4222227Y1102270D3*
X1989820Y1418682D3*
X1341378Y824403D3*
X1025336Y849564D3*
X3903241Y3193339D3*
X2507484Y4212793D3*
X3802707Y3454879D3*
X930374Y1165164D3*
X1436673Y1602927D3*
X1227056Y1556417D3*
X1423253Y2355797D3*
X1880710Y4027344D3*
X3183525Y2812178D3*
X3084961Y2715176D3*
X2229980Y4084080D3*
X3796152Y3279109D3*
X2284013Y3244629D3*
X2333471Y3288634D3*
X2370660Y3342465D3*
X2577306Y2328860D3*
X4013209Y1708878D3*
X2485596Y3876406D3*
X3609332Y3810018D3*
X2682127Y3600873D3*
X1715664Y2121454D3*
X1171293Y2557890D3*
X1333585Y2196202D3*
X3379789Y2322559D3*
X2572738Y4211054D3*
X3488391Y4119993D3*
X3930692Y3801496D3*
X4207571Y1957205D3*
X2343840Y2173013D3*
X3463050Y2088736D3*
X3526504Y2816526D3*
X1797186Y3218157D3*
X1027328Y2560395D3*
X634795Y2637457D3*
X1015287Y3321379D3*
X1618910Y1491669D2*
X4268027D1*
X1593145Y1451801D2*
X4268350D1*
X1612236Y1411932D2*
X4268708D1*
X1612846Y1372063D2*
X4269067D1*
X1605741Y1332194D2*
X3714262D1*
X3860021D2*
X4269426D1*
X1548957Y1292325D2*
X3702097D1*
X3872222D2*
X4269785D1*
X1462671Y1252457D2*
X3710889D1*
X3863430D2*
X4270108D1*
X1492131Y1212588D2*
X3756856D1*
X3817463D2*
X4270467D1*
X1531999Y1172719D2*
X4270826D1*
X1571866Y1132850D2*
X4271184D1*
X1611733Y1092982D2*
X4271507D1*
X1651601Y1053113D2*
X4271866D1*
X1691468Y1013244D2*
X4272225D1*
X1731335Y973375D2*
X4272584D1*
X1759469Y933507D2*
X4272907D1*
X1942442Y893638D2*
X2042741D1*
X2342443D2*
X4273266D1*
X1461630Y853769D2*
X1513915D1*
X1974917D2*
X2010265D1*
X2374918D2*
X4273625D1*
X1461522Y813900D2*
X1513915D1*
X1980192D2*
X2004990D1*
X2380193D2*
X2699708D1*
X2948958D2*
X4273983D1*
X1461450Y774031D2*
X1513915D1*
X2603357D2*
X2686431D1*
X2962235D2*
X4274342D1*
X1461343Y734163D2*
X1513915D1*
X2621371D2*
X2693464D1*
X2955237D2*
X4274665D1*
X1461235Y694294D2*
X1513915D1*
X2614409D2*
X2730246D1*
X2918420D2*
X4275024D1*
X1461127Y654425D2*
X1522384D1*
X2024653D2*
X2060539D1*
X2424654D2*
X2808653D1*
X2944436D2*
X4275383D1*
X1461020Y614556D2*
X1554931D1*
X2030251D2*
X2054941D1*
X2430252D2*
X2789778D1*
X2963347D2*
X4129047D1*
X1460912Y574688D2*
X1569859D1*
X2015323D2*
X2069869D1*
X2415324D2*
X2792254D1*
X2960835D2*
X4095029D1*
X1460840Y534819D2*
X2819095D1*
X2934030D2*
X4082182D1*
X1460733Y494950D2*
X4083402D1*
X4091311Y480417D2*
X4088395Y490438D1*
X4086593Y499444D1*
X4085484Y508561D1*
X4085075Y517736D1*
X4085367Y526915D1*
X4086361Y536045D1*
X4088048Y545073D1*
X4090421Y553945D1*
X4093464Y562611D1*
X4097161Y571018D1*
X4101489Y579118D1*
X4106423Y586865D1*
X4111934Y594211D1*
X4117991Y601115D1*
X4124557Y607536D1*
X4131595Y613437D1*
X4139063Y618783D1*
X4146917Y623543D1*
X4155112Y627688D1*
X4163600Y631196D1*
X4172331Y634045D1*
X4181255Y636219D1*
X4190318Y637704D1*
X4199468Y638493D1*
X4208652Y638580D1*
X4217815Y637966D1*
X4226905Y636653D1*
X4235868Y634650D1*
X4244652Y631968D1*
X4253205Y628623D1*
X4261478Y624634D1*
X4269421Y620025D1*
X4279754Y612593D1*
X4271666Y1531512D1*
X3487118Y1529881D1*
X3479949Y1528846D1*
X3457135Y1528672D1*
X2775787Y1528416D1*
X1629254Y1526054D1*
X1627889Y1518773D1*
X1624417Y1508088D1*
X1619317Y1498077D1*
X1612713Y1488987D1*
X1604768Y1481043D1*
X1595679Y1474439D1*
X1585668Y1469338D1*
X1574982Y1465866D1*
X1571644Y1465202D1*
X1579458Y1460265D1*
X1587964Y1453001D1*
X1595229Y1444495D1*
X1601073Y1434957D1*
X1605354Y1424623D1*
X1607965Y1413746D1*
X1608843Y1402594D1*
X1608623Y1357631D1*
X1606873Y1346583D1*
X1603417Y1335945D1*
X1598338Y1325978D1*
X1591763Y1316928D1*
X1583854Y1309019D1*
X1574804Y1302444D1*
X1564837Y1297366D1*
X1554199Y1293909D1*
X1543151Y1292159D1*
X1531965D1*
X1520917Y1293909D1*
X1515845Y1295339D1*
X1509446Y1293365D1*
X1501449Y1292098D1*
X1477715Y1291939D1*
X1469643Y1292575D1*
X1461755Y1294470D1*
X1458745Y1288395D1*
X1458627Y1242068D1*
X1738821Y961888D1*
X1745484Y954087D1*
X1750844Y945339D1*
X1754770Y935861D1*
X1757165Y925885D1*
X1757970Y915657D1*
Y899761D1*
X1766602Y903127D1*
X1772958Y904919D1*
X1779434Y906208D1*
X1785992Y906984D1*
X1792591Y907243D1*
X1799189Y906984D1*
X1805747Y906208D1*
X1812223Y904919D1*
X1818579Y903127D1*
X1824774Y900841D1*
X1830771Y898077D1*
X1836533Y894850D1*
X1842570Y890750D1*
X1848648Y894850D1*
X1854410Y898077D1*
X1860407Y900841D1*
X1866602Y903127D1*
X1872958Y904919D1*
X1879434Y906208D1*
X1885992Y906984D1*
X1892591Y907243D1*
X1899189Y906984D1*
X1905747Y906208D1*
X1912223Y904919D1*
X1918579Y903127D1*
X1924774Y900841D1*
X1930771Y898077D1*
X1936533Y894850D1*
X1942023Y891181D1*
X1947209Y887093D1*
X1952058Y882611D1*
X1956541Y877762D1*
X1960629Y872576D1*
X1964298Y867085D1*
X1967524Y861324D1*
X1970289Y855327D1*
X1972574Y849131D1*
X1974367Y842776D1*
X1975655Y836299D1*
X1976431Y829741D1*
X1976691Y823143D1*
X1976431Y816545D1*
X1975655Y809987D1*
X1974367Y803510D1*
X1972574Y797155D1*
X1970289Y790959D1*
X1966226Y782644D1*
X2018927Y782622D1*
X2014892Y790959D1*
X2012607Y797155D1*
X2010814Y803510D1*
X2009526Y809987D1*
X2008750Y816545D1*
X2008491Y823143D1*
X2008750Y829741D1*
X2009526Y836299D1*
X2010814Y842776D1*
X2012607Y849131D1*
X2014892Y855327D1*
X2017657Y861324D1*
X2020884Y867085D1*
X2024552Y872576D1*
X2028640Y877762D1*
X2033123Y882611D1*
X2037972Y887093D1*
X2043158Y891181D1*
X2048648Y894850D1*
X2054410Y898077D1*
X2060407Y900841D1*
X2066602Y903127D1*
X2072958Y904919D1*
X2079434Y906208D1*
X2085992Y906984D1*
X2092591Y907243D1*
X2099189Y906984D1*
X2105747Y906208D1*
X2112223Y904919D1*
X2118579Y903127D1*
X2124774Y900841D1*
X2130771Y898077D1*
X2136533Y894850D1*
X2142570Y890750D1*
X2148648Y894850D1*
X2154410Y898077D1*
X2160407Y900841D1*
X2166602Y903127D1*
X2172958Y904919D1*
X2179434Y906208D1*
X2185992Y906984D1*
X2192591Y907243D1*
X2199189Y906984D1*
X2205747Y906208D1*
X2212223Y904919D1*
X2218579Y903127D1*
X2224774Y900841D1*
X2230771Y898077D1*
X2236533Y894850D1*
X2242570Y890750D1*
X2248648Y894850D1*
X2254410Y898077D1*
X2260407Y900841D1*
X2266602Y903127D1*
X2272958Y904919D1*
X2279434Y906208D1*
X2285992Y906984D1*
X2292591Y907243D1*
X2299189Y906984D1*
X2305747Y906208D1*
X2312223Y904919D1*
X2318579Y903127D1*
X2324774Y900841D1*
X2330771Y898077D1*
X2336533Y894850D1*
X2342023Y891181D1*
X2347209Y887093D1*
X2352058Y882611D1*
X2356541Y877762D1*
X2360629Y872576D1*
X2364298Y867085D1*
X2367524Y861324D1*
X2370289Y855327D1*
X2372574Y849131D1*
X2374367Y842776D1*
X2375655Y836299D1*
X2376431Y829741D1*
X2376691Y823143D1*
X2376431Y816545D1*
X2375655Y809987D1*
X2374367Y803510D1*
X2372574Y797155D1*
X2370289Y790959D1*
X2366226Y782644D1*
X2502359Y782622D1*
X2508819Y787071D1*
X2518830Y792172D1*
X2529515Y795644D1*
X2540612Y797402D1*
X2551847D1*
X2562944Y795644D1*
X2573630Y792172D1*
X2583641Y787071D1*
X2592730Y780467D1*
X2600675Y772523D1*
X2607279Y763433D1*
X2612379Y753422D1*
X2615851Y742737D1*
X2617609Y731640D1*
Y720405D1*
X2615851Y709308D1*
X2612379Y698622D1*
X2607279Y688611D1*
X2600675Y679522D1*
X2592730Y671577D1*
X2583641Y664973D1*
X2573630Y659873D1*
X2562944Y656401D1*
X2551847Y654643D1*
X2540612D1*
X2529515Y656401D1*
X2518830Y659873D1*
X2508819Y664973D1*
X2502471Y669415D1*
X2412776Y669422D1*
X2417524Y661324D1*
X2420289Y655327D1*
X2422574Y649131D1*
X2424367Y642776D1*
X2425655Y636299D1*
X2426431Y629741D1*
X2426691Y623143D1*
X2426431Y616545D1*
X2425655Y609987D1*
X2424367Y603510D1*
X2422574Y597155D1*
X2420289Y590959D1*
X2417524Y584962D1*
X2414298Y579201D1*
X2410629Y573710D1*
X2406541Y568524D1*
X2402058Y563675D1*
X2397209Y559193D1*
X2392023Y555105D1*
X2386533Y551436D1*
X2380771Y548209D1*
X2374774Y545445D1*
X2368579Y543159D1*
X2362223Y541367D1*
X2355747Y540078D1*
X2349189Y539302D1*
X2342591Y539043D1*
X2335992Y539302D1*
X2329434Y540078D1*
X2322958Y541367D1*
X2316602Y543159D1*
X2310407Y545445D1*
X2304410Y548209D1*
X2298648Y551436D1*
X2292611Y555536D1*
X2286533Y551436D1*
X2280771Y548209D1*
X2274774Y545445D1*
X2268579Y543159D1*
X2262223Y541367D1*
X2255747Y540078D1*
X2249189Y539302D1*
X2242591Y539043D1*
X2235992Y539302D1*
X2229434Y540078D1*
X2222958Y541367D1*
X2216602Y543159D1*
X2210407Y545445D1*
X2204410Y548209D1*
X2198648Y551436D1*
X2192611Y555536D1*
X2186533Y551436D1*
X2180771Y548209D1*
X2174774Y545445D1*
X2168579Y543159D1*
X2162223Y541367D1*
X2155747Y540078D1*
X2149189Y539302D1*
X2142591Y539043D1*
X2135992Y539302D1*
X2129434Y540078D1*
X2122958Y541367D1*
X2116602Y543159D1*
X2110407Y545445D1*
X2104410Y548209D1*
X2098648Y551436D1*
X2093158Y555105D1*
X2087972Y559193D1*
X2083123Y563675D1*
X2078640Y568524D1*
X2074552Y573710D1*
X2070884Y579201D1*
X2067657Y584962D1*
X2064892Y590959D1*
X2062607Y597155D1*
X2060814Y603510D1*
X2059526Y609987D1*
X2058750Y616545D1*
X2058491Y623143D1*
X2058750Y629741D1*
X2059526Y636299D1*
X2060814Y642776D1*
X2062607Y649131D1*
X2064892Y655327D1*
X2067657Y661324D1*
X2072446Y669423D1*
X2012811Y669422D1*
X2017524Y661324D1*
X2020289Y655327D1*
X2022574Y649131D1*
X2024367Y642776D1*
X2025655Y636299D1*
X2026431Y629741D1*
X2026691Y623143D1*
X2026431Y616545D1*
X2025655Y609987D1*
X2024367Y603510D1*
X2022574Y597155D1*
X2020289Y590959D1*
X2017524Y584962D1*
X2014298Y579201D1*
X2010629Y573710D1*
X2006541Y568524D1*
X2002058Y563675D1*
X1997209Y559193D1*
X1992023Y555105D1*
X1986533Y551436D1*
X1980771Y548209D1*
X1974774Y545445D1*
X1968579Y543159D1*
X1962223Y541367D1*
X1955747Y540078D1*
X1949189Y539302D1*
X1942591Y539043D1*
X1935992Y539302D1*
X1929434Y540078D1*
X1922958Y541367D1*
X1916602Y543159D1*
X1910407Y545445D1*
X1904410Y548209D1*
X1898648Y551436D1*
X1892611Y555536D1*
X1886533Y551436D1*
X1880771Y548209D1*
X1874774Y545445D1*
X1868579Y543159D1*
X1862223Y541367D1*
X1855747Y540078D1*
X1849189Y539302D1*
X1842591Y539043D1*
X1835992Y539302D1*
X1829434Y540078D1*
X1822958Y541367D1*
X1816602Y543159D1*
X1810407Y545445D1*
X1804410Y548209D1*
X1798648Y551436D1*
X1792611Y555536D1*
X1786533Y551436D1*
X1780771Y548209D1*
X1774774Y545445D1*
X1768579Y543159D1*
X1762223Y541367D1*
X1755747Y540078D1*
X1749189Y539302D1*
X1742591Y539043D1*
X1735992Y539302D1*
X1729434Y540078D1*
X1722958Y541367D1*
X1716602Y543159D1*
X1710407Y545445D1*
X1704410Y548209D1*
X1698648Y551436D1*
X1692611Y555536D1*
X1686533Y551436D1*
X1680771Y548209D1*
X1674774Y545445D1*
X1668579Y543159D1*
X1662223Y541367D1*
X1655747Y540078D1*
X1649189Y539302D1*
X1642591Y539043D1*
X1635992Y539302D1*
X1629434Y540078D1*
X1622958Y541367D1*
X1616602Y543159D1*
X1610407Y545445D1*
X1604410Y548209D1*
X1598648Y551436D1*
X1593158Y555105D1*
X1587972Y559193D1*
X1583123Y563675D1*
X1578640Y568524D1*
X1574552Y573710D1*
X1570884Y579201D1*
X1567657Y584962D1*
X1564892Y590959D1*
X1562607Y597155D1*
X1560814Y603510D1*
X1559526Y609987D1*
X1558662Y618787D1*
X1533580Y644152D1*
X1527550Y652452D1*
X1522892Y661593D1*
X1519722Y671350D1*
X1518117Y681483D1*
X1517916Y704986D1*
Y900160D1*
X1514863Y903222D1*
X1509413Y897186D1*
X1504563Y892703D1*
X1499378Y888615D1*
X1493887Y884947D1*
X1488125Y881720D1*
X1482129Y878955D1*
X1475933Y876670D1*
X1469578Y874877D1*
X1463101Y873589D1*
X1457696Y872949D1*
X1456694Y484484D1*
X4091275Y480443D1*
X2960392Y593138D2*
X2959616Y586580D1*
X2958327Y580103D1*
X2956535Y573748D1*
X2954249Y567553D1*
X2951485Y561556D1*
X2948258Y555794D1*
X2944590Y550303D1*
X2940501Y545118D1*
X2936019Y540269D1*
X2931170Y535786D1*
X2925984Y531698D1*
X2920493Y528029D1*
X2914732Y524803D1*
X2908735Y522038D1*
X2902540Y519752D1*
X2896184Y517960D1*
X2889707Y516672D1*
X2883150Y515895D1*
X2876551Y515636D1*
X2869953Y515895D1*
X2863395Y516672D1*
X2856918Y517960D1*
X2850563Y519752D1*
X2844368Y522038D1*
X2838371Y524803D1*
X2832609Y528029D1*
X2827118Y531698D1*
X2821933Y535786D1*
X2817084Y540269D1*
X2812601Y545118D1*
X2808513Y550303D1*
X2804844Y555794D1*
X2801618Y561556D1*
X2798853Y567553D1*
X2796567Y573748D1*
X2794775Y580103D1*
X2793487Y586580D1*
X2792710Y593138D1*
X2792451Y599736D1*
X2792710Y606335D1*
X2793487Y612892D1*
X2794775Y619369D1*
X2796567Y625725D1*
X2798853Y631920D1*
X2801618Y637917D1*
X2804844Y643678D1*
X2808513Y649169D1*
X2812601Y654355D1*
X2817084Y659204D1*
X2821933Y663686D1*
X2827118Y667775D1*
X2832609Y671443D1*
X2838371Y674670D1*
X2844368Y677434D1*
X2850563Y679720D1*
X2856918Y681513D1*
X2863395Y682801D1*
X2869953Y683577D1*
X2876551Y683836D1*
X2883150Y683577D1*
X2889707Y682801D1*
X2896184Y681513D1*
X2902540Y679720D1*
X2908735Y677434D1*
X2914732Y674670D1*
X2920493Y671443D1*
X2925984Y667775D1*
X2931170Y663686D1*
X2936019Y659204D1*
X2940501Y654355D1*
X2944590Y649169D1*
X2948258Y643678D1*
X2951485Y637917D1*
X2954249Y631920D1*
X2956535Y625725D1*
X2958327Y619369D1*
X2959616Y612892D1*
X2960392Y606335D1*
X2960651Y599736D1*
X2960392Y593138D1*
X2824317Y700625D2*
X2818279Y696525D1*
X2812518Y693299D1*
X2806521Y690534D1*
X2800326Y688248D1*
X2793970Y686456D1*
X2787493Y685168D1*
X2780936Y684392D1*
X2774337Y684132D1*
X2767739Y684392D1*
X2761181Y685168D1*
X2754705Y686456D1*
X2748349Y688248D1*
X2742154Y690534D1*
X2736157Y693299D1*
X2730395Y696525D1*
X2724905Y700194D1*
X2719719Y704282D1*
X2714870Y708765D1*
X2710387Y713614D1*
X2706299Y718800D1*
X2702630Y724290D1*
X2699404Y730052D1*
X2696639Y736049D1*
X2694353Y742244D1*
X2692561Y748600D1*
X2691273Y755076D1*
X2690497Y761634D1*
X2690237Y768232D1*
X2690497Y774831D1*
X2691273Y781388D1*
X2692561Y787865D1*
X2694353Y794221D1*
X2696639Y800416D1*
X2699404Y806413D1*
X2702630Y812174D1*
X2706299Y817665D1*
X2710387Y822851D1*
X2714870Y827700D1*
X2719719Y832182D1*
X2724905Y836271D1*
X2730395Y839939D1*
X2736157Y843166D1*
X2742154Y845931D1*
X2748349Y848216D1*
X2754705Y850009D1*
X2761181Y851297D1*
X2767739Y852073D1*
X2774337Y852332D1*
X2780936Y852073D1*
X2787493Y851297D1*
X2793970Y850009D1*
X2800326Y848216D1*
X2806521Y845931D1*
X2812518Y843166D1*
X2818279Y839939D1*
X2824317Y835839D1*
X2830395Y839939D1*
X2836157Y843166D1*
X2842154Y845931D1*
X2848349Y848216D1*
X2854705Y850009D1*
X2861181Y851297D1*
X2867739Y852073D1*
X2874337Y852332D1*
X2880936Y852073D1*
X2887493Y851297D1*
X2893970Y850009D1*
X2900326Y848216D1*
X2906521Y845931D1*
X2912518Y843166D1*
X2918279Y839939D1*
X2923770Y836271D1*
X2928956Y832182D1*
X2933805Y827700D1*
X2938287Y822851D1*
X2942376Y817665D1*
X2946044Y812174D1*
X2949271Y806413D1*
X2952036Y800416D1*
X2954321Y794221D1*
X2956114Y787865D1*
X2957402Y781388D1*
X2958178Y774831D1*
X2958437Y768232D1*
X2958178Y761634D1*
X2957402Y755076D1*
X2956114Y748600D1*
X2954321Y742244D1*
X2952036Y736049D1*
X2949271Y730052D1*
X2946044Y724290D1*
X2942376Y718800D1*
X2938287Y713614D1*
X2933805Y708765D1*
X2928956Y704282D1*
X2923770Y700194D1*
X2918279Y696525D1*
X2912518Y693299D1*
X2906521Y690534D1*
X2900326Y688248D1*
X2893970Y686456D1*
X2887493Y685168D1*
X2880936Y684392D1*
X2874337Y684132D1*
X2867739Y684392D1*
X2861181Y685168D1*
X2854705Y686456D1*
X2848349Y688248D1*
X2842154Y690534D1*
X2836157Y693299D1*
X2830395Y696525D1*
X2824358Y700625D1*
X3868036Y1282967D2*
X3867287Y1276641D1*
X3866044Y1270393D1*
X3864315Y1264262D1*
X3862111Y1258286D1*
X3859444Y1252501D1*
X3856331Y1246943D1*
X3852792Y1241646D1*
X3848848Y1236644D1*
X3844524Y1231966D1*
X3839847Y1227642D1*
X3834844Y1223698D1*
X3829548Y1220159D1*
X3823990Y1217047D1*
X3818205Y1214380D1*
X3812228Y1212175D1*
X3806097Y1210446D1*
X3799850Y1209203D1*
X3793524Y1208454D1*
X3787158Y1208204D1*
X3780793Y1208454D1*
X3774467Y1209203D1*
X3768220Y1210446D1*
X3762089Y1212175D1*
X3756112Y1214380D1*
X3750327Y1217047D1*
X3744769Y1220159D1*
X3739473Y1223698D1*
X3734470Y1227642D1*
X3729793Y1231966D1*
X3725469Y1236644D1*
X3721525Y1241646D1*
X3717986Y1246943D1*
X3714873Y1252501D1*
X3712206Y1258286D1*
X3710002Y1264262D1*
X3708272Y1270393D1*
X3707030Y1276641D1*
X3706281Y1282967D1*
X3706031Y1289332D1*
X3706281Y1295697D1*
X3707030Y1302023D1*
X3708272Y1308271D1*
X3710002Y1314402D1*
X3712206Y1320378D1*
X3714873Y1326163D1*
X3717986Y1331721D1*
X3721525Y1337017D1*
X3725469Y1342020D1*
X3729793Y1346698D1*
X3734470Y1351022D1*
X3739473Y1354965D1*
X3744769Y1358504D1*
X3750327Y1361617D1*
X3756112Y1364284D1*
X3762089Y1366489D1*
X3768220Y1368218D1*
X3774467Y1369461D1*
X3780793Y1370209D1*
X3787158Y1370459D1*
X3793524Y1370209D1*
X3799850Y1369461D1*
X3806097Y1368218D1*
X3812228Y1366489D1*
X3818205Y1364284D1*
X3823990Y1361617D1*
X3829548Y1358504D1*
X3834844Y1354965D1*
X3839847Y1351022D1*
X3844524Y1346698D1*
X3848848Y1342020D1*
X3852792Y1337017D1*
X3856331Y1331721D1*
X3859444Y1326163D1*
X3862111Y1320378D1*
X3864315Y1314402D1*
X3866044Y1308271D1*
X3867287Y1302023D1*
X3868036Y1295697D1*
X3868286Y1289332D1*
X3868036Y1282967D1*
X460473Y4232249D2*
X932675D1*
X1748715D2*
X2632043D1*
X3351482D2*
X3626357D1*
X4201471D2*
X4262225D1*
X460365Y4192381D2*
X936587D1*
X1747172D2*
X2592175D1*
X3346351D2*
X3631453D1*
X4196376D2*
X4262082D1*
X660025Y4152512D2*
X957399D1*
X1729589D2*
X2204913D1*
X2255041D2*
X2552308D1*
X3346530D2*
X3631274D1*
X4196555D2*
X4261938D1*
X691208Y4112643D2*
X977387D1*
X1695033D2*
X2160309D1*
X2299645D2*
X2512441D1*
X3351411D2*
X3626429D1*
X4201399D2*
X4261795D1*
X695873Y4072774D2*
X944015D1*
X1734649D2*
X1821383D1*
X1940050D2*
X2155285D1*
X2325338D2*
X2477453D1*
X3335586D2*
X3642218D1*
X4185610D2*
X4261651D1*
X680264Y4032906D2*
X932747D1*
X1748608D2*
X1805343D1*
X1956090D2*
X2127726D1*
X2365206D2*
X2472178D1*
X3124515D2*
X3745852D1*
X3973786D2*
X4261508D1*
X695945Y3993037D2*
X936407D1*
X1747316D2*
X1811335D1*
X1950097D2*
X2120226D1*
X2405073D2*
X2472178D1*
X2957653D2*
X3003300D1*
X3124515D2*
X3745852D1*
X3968511D2*
X4261364D1*
X1730055Y3953168D2*
X1811335D1*
X2043576D2*
X2137558D1*
X2444940D2*
X2472178D1*
X2917786D2*
X3003300D1*
X3124515D2*
X3706164D1*
X3933452D2*
X4261220D1*
X990985Y3913299D2*
X1023570D1*
X1072227D2*
X1102874D1*
X1196314D2*
X1223588D1*
X1272245D2*
X1387938D1*
X1680464D2*
X1811335D1*
X2087283D2*
X2198418D1*
X2912511D2*
X3003300D1*
X3124515D2*
X3666297D1*
X3893585D2*
X4261077D1*
X695981Y3873430D2*
X862737D1*
X1030852D2*
X1069860D1*
X1229328D2*
X1455974D1*
X1602918D2*
X1815247D1*
X2127150D2*
X2238285D1*
X2912511D2*
X3003300D1*
X3142421D2*
X3572101D1*
X3853717D2*
X4260933D1*
X680335Y3833562D2*
X902604D1*
X1233992D2*
X1444312D1*
X1614544D2*
X1856370D1*
X2167017D2*
X2278153D1*
X2912511D2*
X3014891D1*
X3182288D2*
X3537724D1*
X3813850D2*
X4260826D1*
X695873Y3793693D2*
X942472D1*
X1216983D2*
X1453678D1*
X1605178D2*
X2013973D1*
X2206885D2*
X2318020D1*
X2912511D2*
X3054041D1*
X3205936D2*
X3535606D1*
X3773983D2*
X4090914D1*
X4141473D2*
X4190923D1*
X691244Y3753824D2*
X982375D1*
X1150454D2*
X1502157D1*
X1556735D2*
X2053841D1*
X2246752D2*
X2347624D1*
X2912511D2*
X3085260D1*
X3206474D2*
X3553297D1*
X3734116D2*
X4039061D1*
X690706Y3713955D2*
X1022242D1*
X1190321D2*
X1652943D1*
X2295662D2*
X2347624D1*
X3371219D2*
X3549745D1*
X3698231D2*
X4028117D1*
X696053Y3674087D2*
X1062109D1*
X1230189D2*
X1636866D1*
X2311738D2*
X2347624D1*
X3386613D2*
X3572567D1*
X3675409D2*
X4037303D1*
X680838Y3634218D2*
X1101977D1*
X1270056D2*
X1641495D1*
X2307109D2*
X2347624D1*
X3428131D2*
X4030988D1*
X458858Y3594349D2*
X541215D1*
X662429D2*
X1141844D1*
X1309923D2*
X1647847D1*
X2276033D2*
X2347624D1*
X3443597D2*
X4030055D1*
X458786Y3554480D2*
X519720D1*
X664187D2*
X1181711D1*
X1762854D2*
X1814350D1*
X1935564D2*
X2110430D1*
X2249192D2*
X2347624D1*
X2859367D2*
X3038467D1*
X3434554D2*
X4039420D1*
X458679Y3514612D2*
X518679D1*
X665192D2*
X1221579D1*
X1763212D2*
X1814350D1*
X1935564D2*
X2110430D1*
X2249192D2*
X2347624D1*
X2819499D2*
X3029460D1*
X3370716D2*
X4028117D1*
X458571Y3474743D2*
X546023D1*
X637848D2*
X1645981D1*
X1734577D2*
X1814350D1*
X1935564D2*
X2110430D1*
X2249192D2*
X2347624D1*
X2793376D2*
X3030752D1*
X3386541D2*
X4036980D1*
X458463Y3434874D2*
X655326D1*
X864780D2*
X1814350D1*
X1935564D2*
X2110430D1*
X2249192D2*
X2347624D1*
X2793376D2*
X3021852D1*
X3381697D2*
X4031167D1*
X458392Y3395005D2*
X636738D1*
X883368D2*
X1814350D1*
X1935564D2*
X2110430D1*
X2249192D2*
X2318020D1*
X2793376D2*
X2981985D1*
X3381482D2*
X4029911D1*
X458284Y3355136D2*
X628808D1*
X880390D2*
X1814350D1*
X1935564D2*
X2110430D1*
X2249192D2*
X2296202D1*
X2793376D2*
X2942118D1*
X3170877D2*
X3211500D1*
X3386613D2*
X3951540D1*
X458176Y3315268D2*
X605591D1*
X852185D2*
X1260370D1*
X1384204D2*
X1814350D1*
X1935564D2*
X2110430D1*
X2793376D2*
X2902250D1*
X3149347D2*
X3227002D1*
X3371111D2*
X3402045D1*
X3861935D2*
X3937043D1*
X532134Y3275399D2*
X605411D1*
X849709D2*
X1236865D1*
X1407708D2*
X1814350D1*
X1935564D2*
X2110430D1*
X2793376D2*
X2862383D1*
X3176188D2*
X3211644D1*
X3871660D2*
X3946947D1*
X548927Y3235530D2*
X628162D1*
X826994D2*
X1236291D1*
X1408282D2*
X1814350D1*
X1935564D2*
X2110430D1*
X2793376D2*
X2822516D1*
X3856947D2*
X3951971D1*
X4154463D2*
X4177933D1*
X549681Y3195661D2*
X1091068D1*
X1132153D2*
X1246698D1*
X1402253D2*
X1646950D1*
X1733608D2*
X1814350D1*
X1935564D2*
X2110430D1*
X3011408D2*
X3063012D1*
X3381230D2*
X3438001D1*
X3477149D2*
X3948633D1*
X4073185D2*
X4258529D1*
X549681Y3155793D2*
X876301D1*
X920113D2*
X1035089D1*
X1188132D2*
X1236363D1*
X1412588D2*
X1617525D1*
X1777889D2*
X1814350D1*
X1935564D2*
X2110430D1*
X2971541D2*
X3120642D1*
X3408861D2*
X3908766D1*
X4069633D2*
X4258386D1*
X542576Y3115924D2*
X822080D1*
X974335D2*
X1023534D1*
X1199651D2*
X1246159D1*
X1402792D2*
X1586306D1*
X1935564D2*
X2110430D1*
X2940896D2*
X3160545D1*
X3448836D2*
X3666476D1*
X3741436D2*
X3868899D1*
X4037014D2*
X4258242D1*
X505400Y3076055D2*
X550401D1*
X709976D2*
X811135D1*
X985279D2*
X1032146D1*
X1191039D2*
X1238516D1*
X1410435D2*
X1546438D1*
X1935564D2*
X2110430D1*
X2940896D2*
X3200412D1*
X3488704D2*
X3632278D1*
X3997111D2*
X4258099D1*
X457495Y3036186D2*
X512902D1*
X747511D2*
X811100D1*
X985315D2*
X1025256D1*
X1197929D2*
X1239054D1*
X1409897D2*
X1506571D1*
X1788762D2*
X1814350D1*
X1935564D2*
X2110430D1*
X2940896D2*
X3215914D1*
X3528571D2*
X3630269D1*
X3957243D2*
X3998764D1*
X457387Y2996318D2*
X505905D1*
X754472D2*
X811207D1*
X985243D2*
X1026656D1*
X1196565D2*
X1262451D1*
X1386500D2*
X1466704D1*
X1728405D2*
X1814350D1*
X1935564D2*
X2110430D1*
X2940896D2*
X3217134D1*
X3568438D2*
X3655747D1*
X3899290D2*
X3984195D1*
X457279Y2956449D2*
X519540D1*
X740872D2*
X823336D1*
X973079D2*
X1029598D1*
X1193587D2*
X1429312D1*
X1688537D2*
X1814350D1*
X1935564D2*
X2110430D1*
X2940896D2*
X3211357D1*
X3386757D2*
X3440226D1*
X3608306D2*
X3990115D1*
X457172Y2916580D2*
X656977D1*
X864565D2*
X1023929D1*
X1199292D2*
X1421346D1*
X1648670D2*
X1814350D1*
X1935564D2*
X2110430D1*
X2940896D2*
X3226069D1*
X3372044D2*
X3480094D1*
X3641463D2*
X4024062D1*
X4119799D2*
X4142193D1*
X457100Y2876711D2*
X637635D1*
X883906D2*
X1037098D1*
X1186087D2*
X1421346D1*
X1608803D2*
X1814350D1*
X1935564D2*
X2110430D1*
X2940896D2*
X3148524D1*
X3386290D2*
X3519961D1*
X3645374D2*
X4257417D1*
X456992Y2836843D2*
X630674D1*
X881466D2*
X1023713D1*
X1199472D2*
X1421346D1*
X1577584D2*
X1814350D1*
X1935564D2*
X2074582D1*
X3085904D2*
X3112316D1*
X3382415D2*
X3524195D1*
X3645374D2*
X4257273D1*
X456885Y2796974D2*
X606560D1*
X854302D2*
X1030639D1*
X1192582D2*
X1421346D1*
X1577584D2*
X1814350D1*
X1935564D2*
X2055276D1*
X3380692D2*
X3428528D1*
X3645374D2*
X4257130D1*
X531990Y2757105D2*
X605878D1*
X850678D2*
X1026010D1*
X1197211D2*
X1421346D1*
X1577584D2*
X1814350D1*
X1935564D2*
X2054917D1*
X3645374D2*
X4256986D1*
X549466Y2717236D2*
X627767D1*
X828788D2*
X1025795D1*
X1197391D2*
X1421346D1*
X1577584D2*
X1655526D1*
X3372511D2*
X3397991D1*
X3645374D2*
X3667911D1*
X3759306D2*
X4082410D1*
X4173804D2*
X4256843D1*
X550399Y2677367D2*
X1048043D1*
X1175142D2*
X1421346D1*
X1577584D2*
X1637333D1*
X3386182D2*
X3418086D1*
X4201328D2*
X4256699D1*
X550399Y2637499D2*
X882976D1*
X914874D2*
X1421346D1*
X1577584D2*
X1640347D1*
X3382630D2*
X3524195D1*
X4200395D2*
X4256556D1*
X543760Y2597630D2*
X823444D1*
X974406D2*
X1421346D1*
X1577584D2*
X1668122D1*
X3353815D2*
X3524195D1*
X3645374D2*
X3672792D1*
X4008163D2*
X4087254D1*
X4168924D2*
X4256412D1*
X508091Y2557761D2*
X553308D1*
X708540D2*
X811853D1*
X985997D2*
X1421346D1*
X1577584D2*
X1820629D1*
X1941844D2*
X2167881D1*
X3343265D2*
X3524195D1*
X3645374D2*
X3752239D1*
X4027002D2*
X4256268D1*
X456203Y2517892D2*
X514122D1*
X747726D2*
X811817D1*
X986033D2*
X1421346D1*
X1577584D2*
X1820629D1*
X1941844D2*
X2128013D1*
X3359269D2*
X3524195D1*
X3645374D2*
X3756402D1*
X4024454D2*
X4256125D1*
X456095Y2478024D2*
X506550D1*
X755262D2*
X811853D1*
X985997D2*
X1421346D1*
X1577584D2*
X1820629D1*
X1941844D2*
X2088146D1*
X3354533D2*
X3524195D1*
X3645374D2*
X3786401D1*
X3997577D2*
X4255981D1*
X455987Y2438155D2*
X519540D1*
X742271D2*
X823408D1*
X974442D2*
X1421346D1*
X4002745D2*
X4255838D1*
X455916Y2398286D2*
X679656D1*
X838764D2*
X882581D1*
X915269D2*
X1104381D1*
X1219423D2*
X1361635D1*
X4019969D2*
X4255694D1*
X455808Y2358417D2*
X641941D1*
X876442D2*
X1079585D1*
X1244255D2*
X1347712D1*
X4016237D2*
X4255551D1*
X455700Y2318549D2*
X634908D1*
X883476D2*
X1078975D1*
X1244829D2*
X1353884D1*
X3987027D2*
X4255407D1*
X455593Y2278680D2*
X612624D1*
X869947D2*
X1101833D1*
X1261157D2*
X1353884D1*
X1653012D2*
X1820629D1*
X1941844D2*
X1967324D1*
X2295518D2*
X2423376D1*
X3716496D2*
X4255264D1*
X508737Y2238811D2*
X602218D1*
X851216D2*
X1155157D1*
X1310426D2*
X1353884D1*
X1653012D2*
X1820629D1*
X2219049D2*
X2423376D1*
X3756364D2*
X4255120D1*
X542720Y2198942D2*
X612193D1*
X841240D2*
X1144679D1*
X1320868D2*
X1353884D1*
X1653012D2*
X1820629D1*
X2258630D2*
X2423376D1*
X3236725D2*
X3524949D1*
X3544902D2*
X3628152D1*
X3796231D2*
X4254977D1*
X548820Y2159073D2*
X660601D1*
X792832D2*
X1154332D1*
X1311251D2*
X1353884D1*
X1655811D2*
X1800642D1*
X2266596D2*
X2423376D1*
X3196857D2*
X3668019D1*
X3836098D2*
X4254833D1*
X548820Y2119205D2*
X1199869D1*
X1265678D2*
X1353884D1*
X1656888D2*
X1760775D1*
X2254395D2*
X2420936D1*
X3156990D2*
X3707886D1*
X3875966D2*
X4254690D1*
X547707Y2079336D2*
X837259D1*
X957469D2*
X1089597D1*
X1188240D2*
X1353884D1*
X1629652D2*
X1726972D1*
X2265089D2*
X2381069D1*
X3244009D2*
X3747754D1*
X3915833D2*
X4254582D1*
X529335Y2039467D2*
X813073D1*
X981655D2*
X1058557D1*
X1219244D2*
X1353884D1*
X1577584D2*
X1722630D1*
X2263330D2*
X2341201D1*
X3254739D2*
X3787621D1*
X3955700D2*
X4254438D1*
X454911Y1999598D2*
X524672D1*
X734018D2*
X810274D1*
X984454D2*
X1053784D1*
X1224017D2*
X1353884D1*
X1577584D2*
X1722630D1*
X2927618D2*
X2957727D1*
X3241174D2*
X3827488D1*
X3991477D2*
X4254295D1*
X454803Y1959730D2*
X506012D1*
X752642D2*
X810274D1*
X984454D2*
X1053784D1*
X1224017D2*
X1353884D1*
X1577584D2*
X1722630D1*
X3181391D2*
X3867356D1*
X3997434D2*
X4254151D1*
X454696Y1919861D2*
X508991D1*
X749699D2*
X813611D1*
X981081D2*
X1053784D1*
X1224017D2*
X1353884D1*
X1577584D2*
X1722630D1*
X3141524D2*
X3876255D1*
X3997434D2*
X4254008D1*
X454624Y1879992D2*
X537124D1*
X721566D2*
X839448D1*
X1008137D2*
X1053784D1*
X1224017D2*
X1353884D1*
X1577584D2*
X1722630D1*
X3621547D2*
X3876255D1*
X3997434D2*
X4253864D1*
X454516Y1840123D2*
X882114D1*
X1030744D2*
X1353884D1*
X4001130D2*
X4253721D1*
X454409Y1800255D2*
X885846D1*
X1027012D2*
X1353884D1*
X4019646D2*
X4253577D1*
X454301Y1760386D2*
X895822D1*
X1017037D2*
X1334578D1*
X4066941D2*
X4160781D1*
X1037419Y1720517D2*
X1294711D1*
X1100360Y1680648D2*
X1254843D1*
X1112560Y1640780D2*
X1214940D1*
X1104558Y1600911D2*
X1166963D1*
X1064906Y1561042D2*
X1151605D1*
X1328153D2*
X1370175D1*
X1089451Y1521173D2*
X1160719D1*
X1293381D2*
X1370247D1*
X1129318Y1481304D2*
X1370319D1*
X1263274Y1441436D2*
X1370390D1*
X717475Y1401567D2*
X932890D1*
X1303141D2*
X1370462D1*
X712667Y1361698D2*
X972794D1*
X1343009D2*
X1370534D1*
X712380Y1321829D2*
X1012661D1*
X717547Y1281961D2*
X1058521D1*
X702117Y1242092D2*
X1171987D1*
X717404Y1202223D2*
X865105D1*
X712918Y1162354D2*
X854842D1*
X712129Y1122486D2*
X868873D1*
X717619Y1082617D2*
X1227535D1*
X702584Y1042748D2*
X1267403D1*
X717296Y1002879D2*
X1307270D1*
X713169Y963010D2*
X1347137D1*
X711878Y923142D2*
X1368812D1*
X717691Y883273D2*
X1371431D1*
X703050Y843404D2*
X1237511D1*
X1303536D2*
X1371503D1*
X451933Y803535D2*
X1192046D1*
X1349001D2*
X1371575D1*
X451825Y763667D2*
X1182429D1*
X451717Y723798D2*
X1192907D1*
X1348140D2*
X1371718D1*
X451645Y683929D2*
X1242284D1*
X1298728D2*
X1371790D1*
X451538Y644060D2*
X485235D1*
X624823D2*
X1371862D1*
X662716Y604192D2*
X1371933D1*
X677357Y564323D2*
X1348035D1*
X677644Y524454D2*
X1326612D1*
X674806Y534378D2*
X673755Y525254D1*
X672010Y516237D1*
X669581Y507380D1*
X666483Y498734D1*
X662733Y490351D1*
X660287Y485841D1*
X1330382Y488656D1*
X1328830Y499465D1*
X1328571Y506063D1*
X1328830Y512661D1*
X1329606Y519219D1*
X1330894Y525696D1*
X1332687Y532051D1*
X1334972Y538247D1*
X1337737Y544244D1*
X1340964Y550005D1*
X1344632Y555496D1*
X1348720Y560682D1*
X1353203Y565531D1*
X1358052Y570013D1*
X1363238Y574101D1*
X1368728Y577770D1*
X1375966Y581677D1*
X1375363Y917769D1*
X1372247Y924470D1*
X1369961Y930665D1*
X1368169Y937021D1*
X1366374Y947775D1*
X1214349Y1099789D1*
X959564Y1099784D1*
X952500Y1097068D1*
X941575Y1094446D1*
X930374Y1093564D1*
X919173Y1094446D1*
X908248Y1097068D1*
X897868Y1101368D1*
X888289Y1107238D1*
X879745Y1114535D1*
X872448Y1123079D1*
X866578Y1132658D1*
X862278Y1143038D1*
X859656Y1153963D1*
X858774Y1165164D1*
X859656Y1176365D1*
X862278Y1187290D1*
X866578Y1197670D1*
X872448Y1207249D1*
X879745Y1215793D1*
X888289Y1223090D1*
X897868Y1228960D1*
X908248Y1233260D1*
X919173Y1235883D1*
X930374Y1236764D1*
X941575Y1235883D1*
X952500Y1233260D1*
X959429Y1230551D1*
X1187556Y1230544D1*
X1141866Y1276220D1*
X1089356Y1276200D1*
X1079128Y1277005D1*
X1069152Y1279400D1*
X1059674Y1283326D1*
X1050926Y1288687D1*
X1043112Y1295364D1*
X912475Y1426000D1*
X706622Y1426010D1*
X709977Y1417378D1*
X711770Y1411023D1*
X713058Y1404546D1*
X713834Y1397988D1*
X714093Y1391390D1*
X713834Y1384791D1*
X713058Y1378234D1*
X711770Y1371757D1*
X709977Y1365401D1*
X707692Y1359206D1*
X704927Y1353209D1*
X701700Y1347448D1*
X697601Y1341410D1*
X702229Y1334457D1*
X706494Y1326325D1*
X709846Y1317777D1*
X712247Y1308915D1*
X713667Y1299844D1*
X714093Y1291390D1*
X713592Y1282222D1*
X712095Y1273163D1*
X709618Y1264321D1*
X706193Y1255802D1*
X701859Y1247708D1*
X697613Y1241390D1*
X701700Y1235332D1*
X704927Y1229570D1*
X707692Y1223573D1*
X709977Y1217378D1*
X711770Y1211023D1*
X713058Y1204546D1*
X713834Y1197988D1*
X714093Y1191390D1*
X713834Y1184791D1*
X713058Y1178234D1*
X711770Y1171757D1*
X709977Y1165401D1*
X707692Y1159206D1*
X704927Y1153209D1*
X701700Y1147448D1*
X697601Y1141410D1*
X702229Y1134457D1*
X706494Y1126325D1*
X709846Y1117777D1*
X712247Y1108915D1*
X713667Y1099844D1*
X714093Y1091390D1*
X713592Y1082222D1*
X712095Y1073163D1*
X709618Y1064321D1*
X706193Y1055802D1*
X701859Y1047708D1*
X697613Y1041390D1*
X701700Y1035332D1*
X704927Y1029570D1*
X707692Y1023573D1*
X709977Y1017378D1*
X711770Y1011023D1*
X713058Y1004546D1*
X713834Y997988D1*
X714093Y991390D1*
X713834Y984791D1*
X713058Y978234D1*
X711770Y971757D1*
X709977Y965401D1*
X707692Y959206D1*
X704927Y953209D1*
X701700Y947448D1*
X697601Y941410D1*
X702229Y934457D1*
X706494Y926325D1*
X709846Y917777D1*
X712247Y908915D1*
X713667Y899844D1*
X714093Y891390D1*
X713592Y882222D1*
X712095Y873163D1*
X709618Y864321D1*
X706193Y855802D1*
X701859Y847708D1*
X696669Y840134D1*
X690684Y833171D1*
X683975Y826901D1*
X676624Y821401D1*
X668716Y816735D1*
X660347Y812958D1*
X651616Y810117D1*
X642627Y808244D1*
X633487Y807362D1*
X624306Y807482D1*
X615193Y808602D1*
X606256Y810709D1*
X597603Y813778D1*
X589335Y817771D1*
X581552Y822642D1*
X579998Y823765D1*
X571940Y818497D1*
X563743Y814359D1*
X555145Y811139D1*
X546246Y808875D1*
X537154Y807595D1*
X527977Y807314D1*
X518823Y808035D1*
X509803Y809749D1*
X501023Y812437D1*
X492589Y816066D1*
X484601Y820592D1*
X477153Y825963D1*
X470336Y832113D1*
X464229Y838970D1*
X458907Y846451D1*
X454431Y854469D1*
X450857Y862926D1*
X448225Y871723D1*
X448063Y856383D1*
X447418Y596977D1*
X451311Y604175D1*
X456246Y611921D1*
X461757Y619268D1*
X467814Y626172D1*
X474380Y632593D1*
X481418Y638494D1*
X488886Y643839D1*
X496740Y648599D1*
X504935Y652745D1*
X513423Y656252D1*
X522154Y659101D1*
X531077Y661275D1*
X540141Y662761D1*
X549291Y663549D1*
X558474Y663637D1*
X567638Y663023D1*
X576728Y661710D1*
X585691Y659707D1*
X594475Y657025D1*
X603028Y653679D1*
X611300Y649691D1*
X619244Y645081D1*
X626813Y639879D1*
X633961Y634113D1*
X640649Y627818D1*
X646836Y621031D1*
X652486Y613791D1*
X657567Y606140D1*
X662049Y598123D1*
X665905Y589788D1*
X669113Y581182D1*
X671654Y572357D1*
X673513Y563363D1*
X674680Y554253D1*
X675157Y543555D1*
X674806Y534378D1*
X454163Y3307000D2*
X462336Y3307432D1*
X471505Y3306951D1*
X480566Y3305462D1*
X489406Y3302982D1*
X497919Y3299542D1*
X506001Y3295184D1*
X513552Y3289961D1*
X520481Y3283937D1*
X526703Y3277185D1*
X532142Y3269788D1*
X536732Y3261836D1*
X540417Y3253426D1*
X543151Y3244661D1*
X544901Y3235648D1*
X545647Y3226496D1*
X545594Y3145859D1*
X544682Y3136723D1*
X542767Y3127743D1*
X539874Y3119029D1*
X536036Y3110688D1*
X531302Y3102821D1*
X525729Y3095524D1*
X519385Y3088887D1*
X512348Y3082990D1*
X504702Y3077905D1*
X496543Y3073695D1*
X487969Y3070411D1*
X479084Y3068093D1*
X469999Y3066769D1*
X460822Y3066455D1*
X453570Y3066927D1*
X452868Y2787413D1*
X463053Y2788048D1*
X472222Y2787568D1*
X481282Y2786079D1*
X490123Y2783599D1*
X498636Y2780159D1*
X506717Y2775801D1*
X514268Y2770578D1*
X521197Y2764554D1*
X527420Y2757802D1*
X532859Y2750405D1*
X537449Y2742453D1*
X541133Y2734043D1*
X543867Y2725278D1*
X545618Y2716264D1*
X546363Y2707113D1*
X546310Y2626476D1*
X545398Y2617340D1*
X543484Y2608360D1*
X540590Y2599646D1*
X536753Y2591305D1*
X532019Y2583438D1*
X526446Y2576141D1*
X520102Y2569503D1*
X513064Y2563606D1*
X505419Y2558522D1*
X497259Y2554312D1*
X488685Y2551028D1*
X479801Y2548709D1*
X470715Y2547385D1*
X461539Y2547072D1*
X452277Y2547788D1*
X451531Y2250157D1*
X459641Y2250793D1*
X468819Y2250515D1*
X477909Y2249227D1*
X486802Y2246943D1*
X495389Y2243693D1*
X503565Y2239514D1*
X511230Y2234459D1*
X518291Y2228590D1*
X524661Y2221977D1*
X530262Y2214702D1*
X535027Y2206853D1*
X538896Y2198527D1*
X541823Y2189824D1*
X543773Y2180852D1*
X544720Y2171719D1*
X544817Y2132815D1*
X544634Y2087412D1*
X543520Y2078298D1*
X541408Y2069363D1*
X538322Y2060715D1*
X534301Y2052461D1*
X529395Y2044700D1*
X523662Y2037528D1*
X517172Y2031033D1*
X510006Y2025293D1*
X502250Y2020378D1*
X494000Y2016350D1*
X485355Y2013256D1*
X476422Y2011135D1*
X467309Y2010012D1*
X458128Y2009902D1*
X450930Y2010529D1*
X450223Y1724168D1*
X456700Y1727954D1*
X466178Y1731881D1*
X476154Y1734275D1*
X486382Y1735080D1*
X849593Y1734879D1*
X859726Y1733274D1*
X869483Y1730104D1*
X878624Y1725446D1*
X886924Y1719416D1*
X897824Y1708801D1*
X899828Y1711426D1*
X899834Y1782749D1*
X895385Y1789194D1*
X890285Y1799205D1*
X886813Y1809890D1*
X885055Y1820987D1*
Y1832223D1*
X886813Y1843320D1*
X890285Y1854005D1*
X893271Y1860241D1*
X884355Y1861159D1*
X877956Y1862432D1*
X871676Y1864203D1*
X865555Y1866462D1*
X859630Y1869193D1*
X853937Y1872381D1*
X848512Y1876006D1*
X843388Y1880046D1*
X838597Y1884474D1*
X834168Y1889266D1*
X830128Y1894390D1*
X826503Y1899815D1*
X823315Y1905507D1*
X820584Y1911433D1*
X818325Y1917554D1*
X816554Y1923834D1*
X815281Y1930233D1*
X814514Y1936713D1*
X814259Y1952418D1*
X814258Y2018035D1*
X814514Y2024555D1*
X815281Y2031035D1*
X816554Y2037434D1*
X818325Y2043714D1*
X820584Y2049835D1*
X823315Y2055760D1*
X826503Y2061453D1*
X830128Y2066878D1*
X834168Y2072002D1*
X838597Y2076793D1*
X843388Y2081222D1*
X848512Y2085262D1*
X853937Y2088886D1*
X859630Y2092075D1*
X865555Y2094806D1*
X871676Y2097064D1*
X877956Y2098836D1*
X884355Y2100108D1*
X890835Y2100875D1*
X897354Y2101131D1*
X903874Y2100875D1*
X910353Y2100108D1*
X916753Y2098836D1*
X923032Y2097064D1*
X929154Y2094806D1*
X935079Y2092075D1*
X940772Y2088886D1*
X946197Y2085262D1*
X951321Y2081222D1*
X956112Y2076793D1*
X960541Y2072002D1*
X964580Y2066878D1*
X968205Y2061453D1*
X971393Y2055760D1*
X974125Y2049835D1*
X976383Y2043714D1*
X978154Y2037434D1*
X979427Y2031035D1*
X980194Y2024555D1*
X980451Y2008849D1*
X980415Y1943232D1*
X980194Y1936713D1*
X979427Y1930233D1*
X978154Y1923834D1*
X976383Y1917554D1*
X974125Y1911433D1*
X971393Y1905507D1*
X966634Y1897462D1*
X973149Y1896227D1*
X983835Y1892755D1*
X993845Y1887654D1*
X1002935Y1881050D1*
X1010879Y1873105D1*
X1017483Y1864016D1*
X1022584Y1854005D1*
X1026056Y1843320D1*
X1027814Y1832223D1*
Y1820987D1*
X1026056Y1809890D1*
X1022584Y1799205D1*
X1017483Y1789194D1*
X1013041Y1782847D1*
X1013034Y1720208D1*
X1024552Y1720986D1*
X1031151Y1720727D1*
X1037709Y1719950D1*
X1044185Y1718662D1*
X1050541Y1716870D1*
X1056736Y1714584D1*
X1062733Y1711819D1*
X1068495Y1708593D1*
X1073985Y1704924D1*
X1079171Y1700836D1*
X1084020Y1696354D1*
X1088503Y1691504D1*
X1092591Y1686319D1*
X1096260Y1680828D1*
X1099486Y1675066D1*
X1102251Y1669070D1*
X1104536Y1662874D1*
X1106329Y1656519D1*
X1107617Y1650042D1*
X1108393Y1643484D1*
X1108652Y1636886D1*
X1108393Y1630287D1*
X1107617Y1623730D1*
X1106329Y1617253D1*
X1104536Y1610897D1*
X1102251Y1604702D1*
X1099486Y1598705D1*
X1096260Y1592944D1*
X1092591Y1587453D1*
X1088503Y1582267D1*
X1084020Y1577418D1*
X1079171Y1572936D1*
X1073985Y1568847D1*
X1068495Y1565179D1*
X1062733Y1561952D1*
X1056736Y1559188D1*
X1049920Y1556727D1*
X1132736Y1473889D1*
X1204854Y1473702D1*
X1214987Y1472097D1*
X1224744Y1468927D1*
X1233885Y1464269D1*
X1242185Y1458239D1*
X1258946Y1441763D1*
X1374626Y1326083D1*
X1374166Y1567990D1*
X1370523Y1575526D1*
X1367052Y1586212D1*
X1365294Y1597309D1*
X1365109Y1602027D1*
X1293921Y1530821D1*
X1290852Y1523912D1*
X1284982Y1514332D1*
X1277685Y1505788D1*
X1269142Y1498492D1*
X1259562Y1492621D1*
X1249182Y1488322D1*
X1238257Y1485699D1*
X1227056Y1484817D1*
X1215856Y1485699D1*
X1204931Y1488322D1*
X1194551Y1492621D1*
X1184971Y1498492D1*
X1176428Y1505788D1*
X1169131Y1514332D1*
X1163260Y1523912D1*
X1158961Y1534292D1*
X1156338Y1545217D1*
X1155456Y1556417D1*
X1156338Y1567618D1*
X1158961Y1578543D1*
X1163260Y1588923D1*
X1169131Y1598503D1*
X1176428Y1607046D1*
X1184971Y1614343D1*
X1194551Y1620213D1*
X1201366Y1623198D1*
X1357860Y1779682D1*
X1357874Y2326582D1*
X1355158Y2333671D1*
X1352535Y2344596D1*
X1351653Y2355797D1*
X1352535Y2366997D1*
X1355158Y2377922D1*
X1359457Y2388302D1*
X1365328Y2397882D1*
X1372624Y2406425D1*
X1381168Y2413722D1*
X1390748Y2419593D1*
X1401128Y2423892D1*
X1412053Y2426515D1*
X1423253Y2427397D1*
X1425338Y2427315D1*
X1425526Y2931954D1*
X1426915Y2940726D1*
X1429660Y2949173D1*
X1433692Y2957087D1*
X1438912Y2964272D1*
X1454921Y2980527D1*
X1619268Y3144874D1*
X1620655Y3152553D1*
X1624127Y3163239D1*
X1629228Y3173249D1*
X1635832Y3182339D1*
X1643776Y3190284D1*
X1652866Y3196888D1*
X1662877Y3201988D1*
X1673562Y3205460D1*
X1684659Y3207218D1*
X1695895D1*
X1706992Y3205460D1*
X1717677Y3201988D1*
X1727688Y3196888D1*
X1736777Y3190284D1*
X1744722Y3182339D1*
X1751326Y3173249D1*
X1756427Y3163239D1*
X1756814Y3162188D1*
X1762626Y3160552D1*
X1773006Y3156253D1*
X1782585Y3150382D1*
X1791129Y3143086D1*
X1798426Y3134542D1*
X1804296Y3124962D1*
X1808596Y3114582D1*
X1811218Y3103657D1*
X1812100Y3092457D1*
X1811218Y3081256D1*
X1808596Y3070331D1*
X1804296Y3059951D1*
X1798426Y3050371D1*
X1791129Y3041828D1*
X1782585Y3034531D1*
X1773006Y3028661D1*
X1762626Y3024361D1*
X1751701Y3021738D1*
X1749585Y3021488D1*
X1573598Y2845510D1*
X1573579Y2445682D1*
X1578164Y2449927D1*
X1583349Y2454015D1*
X1588840Y2457683D1*
X1594602Y2460910D1*
X1600598Y2463675D1*
X1606794Y2465960D1*
X1613149Y2467753D1*
X1619626Y2469041D1*
X1626184Y2469817D1*
X1632782Y2470076D1*
X1639381Y2469817D1*
X1645938Y2469041D1*
X1652415Y2467753D1*
X1658770Y2465960D1*
X1664966Y2463675D1*
X1670963Y2460910D1*
X1676724Y2457683D1*
X1682762Y2453584D1*
X1688840Y2457683D1*
X1694602Y2460910D1*
X1700598Y2463675D1*
X1706794Y2465960D1*
X1713149Y2467753D1*
X1719626Y2469041D1*
X1726184Y2469817D1*
X1732782Y2470076D1*
X1739381Y2469817D1*
X1745938Y2469041D1*
X1752415Y2467753D1*
X1758770Y2465960D1*
X1764966Y2463675D1*
X1770963Y2460910D1*
X1776724Y2457683D1*
X1782762Y2453584D1*
X1788840Y2457683D1*
X1794602Y2460910D1*
X1800598Y2463675D1*
X1806794Y2465960D1*
X1813149Y2467753D1*
X1824621Y2469632D1*
X1824639Y2579511D1*
X1816789Y2579822D1*
X1807702Y2581141D1*
X1798813Y2583442D1*
X1790229Y2586699D1*
X1782050Y2590873D1*
X1774312Y2595960D1*
X1766253Y2590693D1*
X1758057Y2586554D1*
X1749459Y2583334D1*
X1740560Y2581071D1*
X1731468Y2579791D1*
X1722291Y2579509D1*
X1713137Y2580230D1*
X1704117Y2581945D1*
X1695337Y2584632D1*
X1686903Y2588261D1*
X1678914Y2592788D1*
X1671467Y2598158D1*
X1664649Y2604308D1*
X1658543Y2611165D1*
X1653220Y2618647D1*
X1648745Y2626664D1*
X1645170Y2635121D1*
X1642539Y2643918D1*
X1640882Y2652949D1*
X1640220Y2662107D1*
X1640560Y2671283D1*
X1641898Y2680366D1*
X1644219Y2689250D1*
X1647494Y2697828D1*
X1651685Y2705997D1*
X1656741Y2713662D1*
X1662603Y2720729D1*
X1669200Y2727115D1*
X1676454Y2732744D1*
X1684278Y2737548D1*
X1692580Y2741471D1*
X1701260Y2744466D1*
X1710214Y2746496D1*
X1719337Y2747538D1*
X1728518Y2747580D1*
X1737650Y2746620D1*
X1746622Y2744671D1*
X1755329Y2741755D1*
X1763665Y2737907D1*
X1771533Y2733174D1*
X1774301Y2731209D1*
X1781086Y2735729D1*
X1789208Y2740011D1*
X1797749Y2743382D1*
X1806606Y2745801D1*
X1815674Y2747241D1*
X1818370Y2747470D1*
X1818364Y3579670D1*
X1811151Y3580521D1*
X1804674Y3581809D1*
X1798319Y3583601D1*
X1792123Y3585887D1*
X1786126Y3588652D1*
X1780365Y3591878D1*
X1774327Y3595978D1*
X1768249Y3591878D1*
X1762488Y3588652D1*
X1756491Y3585887D1*
X1750295Y3583601D1*
X1743560Y3581734D1*
X1748203Y3576011D1*
X1754073Y3566431D1*
X1758373Y3556051D1*
X1760995Y3545126D1*
X1761877Y3533925D1*
X1760995Y3522724D1*
X1758373Y3511800D1*
X1754073Y3501419D1*
X1748203Y3491840D1*
X1740906Y3483296D1*
X1732362Y3476000D1*
X1722783Y3470129D1*
X1712403Y3465830D1*
X1701478Y3463207D1*
X1690277Y3462325D1*
X1679076Y3463207D1*
X1668151Y3465830D1*
X1657771Y3470129D1*
X1648191Y3476000D1*
X1646519Y3477318D1*
X1281860Y3477500D1*
X1273088Y3478889D1*
X1264641Y3481634D1*
X1256727Y3485666D1*
X1249542Y3490886D1*
X1233287Y3506894D1*
X866506Y3873675D1*
X691968Y3873685D1*
X690211Y3863529D1*
X688418Y3857173D1*
X686133Y3850978D1*
X683368Y3844981D1*
X680141Y3839219D1*
X676042Y3833182D1*
X680141Y3827104D1*
X683368Y3821342D1*
X686133Y3815345D1*
X688418Y3809150D1*
X690211Y3802794D1*
X691499Y3796318D1*
X692275Y3789760D1*
X692534Y3783161D1*
X692275Y3776563D1*
X691499Y3770005D1*
X690211Y3763529D1*
X688418Y3757173D1*
X686133Y3750978D1*
X683368Y3744981D1*
X680141Y3739219D1*
X676042Y3733182D1*
X680141Y3727105D1*
X683368Y3721343D1*
X686133Y3715346D1*
X688418Y3709151D1*
X690211Y3702795D1*
X691499Y3696319D1*
X692275Y3689761D1*
X692534Y3683163D1*
X692275Y3676564D1*
X691499Y3670007D1*
X690211Y3663530D1*
X688418Y3657174D1*
X686133Y3650979D1*
X683368Y3644982D1*
X680141Y3639221D1*
X676473Y3633730D1*
X672385Y3628544D1*
X667902Y3623695D1*
X663053Y3619213D1*
X658414Y3615556D1*
Y3559398D1*
X661567Y3549507D1*
X663324Y3538410D1*
Y3527175D1*
X661567Y3516078D1*
X658095Y3505393D1*
X652994Y3495382D1*
X646390Y3486292D1*
X638445Y3478348D1*
X629356Y3471744D1*
X619345Y3466643D1*
X608660Y3463171D1*
X597563Y3461413D1*
X586327D1*
X575230Y3463171D1*
X564545Y3466643D1*
X554534Y3471744D1*
X545444Y3478348D1*
X537500Y3486292D1*
X530896Y3495382D1*
X525795Y3505393D1*
X522323Y3516078D1*
X520566Y3527175D1*
Y3538410D1*
X522323Y3549507D1*
X525795Y3560193D1*
X530896Y3570204D1*
X537500Y3579293D1*
X545203Y3587014D1*
X545214Y3607504D1*
X537067Y3604087D1*
X528276Y3601437D1*
X519248Y3599761D1*
X510092Y3599079D1*
X500916Y3599399D1*
X491829Y3600718D1*
X482941Y3603020D1*
X474356Y3606277D1*
X466177Y3610450D1*
X458502Y3615490D1*
X454936Y3618279D1*
X454161Y3307015D1*
X641689Y3362505D2*
X640581Y3368080D1*
X639814Y3374559D1*
X639557Y3381079D1*
X639814Y3387598D1*
X640581Y3394078D1*
X641853Y3400477D1*
X643624Y3406757D1*
X645883Y3412878D1*
X648614Y3418804D1*
X651803Y3424496D1*
X655427Y3429921D1*
X659467Y3435045D1*
X663896Y3439837D1*
X668687Y3444265D1*
X673811Y3448305D1*
X679236Y3451930D1*
X684929Y3455118D1*
X690854Y3457849D1*
X696975Y3460108D1*
X703255Y3461879D1*
X709654Y3463152D1*
X716134Y3463919D1*
X731840Y3464175D1*
X797457D1*
X803976Y3463919D1*
X810456Y3463152D1*
X816855Y3461879D1*
X823135Y3460108D1*
X829256Y3457849D1*
X835182Y3455118D1*
X840874Y3451930D1*
X846299Y3448305D1*
X851423Y3444265D1*
X856214Y3439837D1*
X860643Y3435045D1*
X864683Y3429921D1*
X868308Y3424496D1*
X871496Y3418804D1*
X874227Y3412878D1*
X876486Y3406757D1*
X878257Y3400477D1*
X879530Y3394078D1*
X880297Y3387598D1*
X880553Y3381079D1*
X880297Y3374559D1*
X879530Y3368080D1*
X878257Y3361680D1*
X876486Y3355401D1*
X874227Y3349279D1*
X871496Y3343354D1*
X868308Y3337661D1*
X864683Y3332236D1*
X860643Y3327112D1*
X856214Y3322321D1*
X851423Y3317892D1*
X845981Y3313640D1*
X847814Y3301545D1*
X848070Y3295025D1*
X847814Y3288505D1*
X847047Y3282026D1*
X845774Y3275627D1*
X844003Y3269347D1*
X841745Y3263225D1*
X839013Y3257300D1*
X835825Y3251607D1*
X832200Y3246182D1*
X828160Y3241058D1*
X823732Y3236267D1*
X818940Y3231838D1*
X813816Y3227799D1*
X808391Y3224174D1*
X802699Y3220986D1*
X796773Y3218254D1*
X790652Y3215996D1*
X784372Y3214225D1*
X777973Y3212952D1*
X771493Y3212185D1*
X755787Y3211929D1*
X690171D1*
X683651Y3212185D1*
X677172Y3212952D1*
X670772Y3214225D1*
X664493Y3215996D1*
X658371Y3218254D1*
X652446Y3220986D1*
X646753Y3224174D1*
X641328Y3227799D1*
X636204Y3231838D1*
X631413Y3236267D1*
X626984Y3241058D1*
X622944Y3246182D1*
X619320Y3251607D1*
X616131Y3257300D1*
X613400Y3263225D1*
X611142Y3269347D1*
X609370Y3275627D1*
X608098Y3282026D1*
X607331Y3288505D1*
X607075Y3295025D1*
X607331Y3301545D1*
X608098Y3308024D1*
X609370Y3314423D1*
X611142Y3320703D1*
X613400Y3326824D1*
X616131Y3332750D1*
X619320Y3338443D1*
X622944Y3343868D1*
X626984Y3348992D1*
X631413Y3353783D1*
X636204Y3358212D1*
X641646Y3362463D1*
X592822Y2919262D2*
X586277Y2919517D1*
X579797Y2920284D1*
X573398Y2921557D1*
X567118Y2923328D1*
X560997Y2925586D1*
X555072Y2928318D1*
X549379Y2931506D1*
X543954Y2935131D1*
X538830Y2939170D1*
X534039Y2943599D1*
X529610Y2948390D1*
X525570Y2953514D1*
X521946Y2958939D1*
X518757Y2964632D1*
X516026Y2970557D1*
X513768Y2976679D1*
X511996Y2982959D1*
X510724Y2989358D1*
X509957Y2995837D1*
X509701Y3002357D1*
X509957Y3008877D1*
X510724Y3015356D1*
X511996Y3021755D1*
X513768Y3028035D1*
X516026Y3034156D1*
X518757Y3040082D1*
X521946Y3045775D1*
X525570Y3051200D1*
X529610Y3056324D1*
X534039Y3061115D1*
X538830Y3065544D1*
X543954Y3069583D1*
X549379Y3073208D1*
X555072Y3076396D1*
X560997Y3079128D1*
X567118Y3081386D1*
X573398Y3083157D1*
X579797Y3084430D1*
X586277Y3085197D1*
X601983Y3085453D1*
X667600D1*
X674119Y3085197D1*
X680599Y3084430D1*
X686998Y3083157D1*
X693278Y3081386D1*
X699399Y3079128D1*
X705325Y3076396D1*
X711017Y3073208D1*
X716442Y3069583D1*
X721566Y3065544D1*
X726358Y3061115D1*
X730786Y3056324D1*
X734826Y3051200D1*
X738451Y3045775D1*
X741639Y3040082D1*
X744370Y3034156D1*
X746629Y3028035D1*
X748400Y3021755D1*
X749673Y3015356D1*
X750440Y3008877D1*
X750696Y3002357D1*
X750440Y2995837D1*
X749673Y2989358D1*
X748400Y2982959D1*
X746629Y2976679D1*
X744370Y2970557D1*
X741639Y2964632D1*
X738451Y2958939D1*
X734826Y2953514D1*
X727447Y2944778D1*
X798173Y2944792D1*
X804693Y2944535D1*
X811172Y2943769D1*
X817572Y2942496D1*
X823851Y2940725D1*
X829973Y2938466D1*
X835898Y2935735D1*
X841591Y2932547D1*
X847016Y2928922D1*
X852140Y2924882D1*
X856931Y2920453D1*
X861360Y2915662D1*
X865399Y2910538D1*
X869024Y2905113D1*
X872212Y2899420D1*
X874944Y2893495D1*
X877202Y2887374D1*
X878973Y2881094D1*
X880246Y2874695D1*
X881013Y2868215D1*
X881269Y2861696D1*
X881013Y2855176D1*
X880246Y2848696D1*
X878973Y2842297D1*
X877202Y2836017D1*
X874944Y2829896D1*
X872212Y2823971D1*
X869024Y2818278D1*
X865399Y2812853D1*
X861360Y2807729D1*
X856931Y2802938D1*
X852140Y2798509D1*
X846698Y2794257D1*
X848530Y2782161D1*
X848786Y2775642D1*
X848530Y2769122D1*
X847763Y2762643D1*
X846490Y2756243D1*
X844719Y2749964D1*
X842461Y2743842D1*
X839729Y2737917D1*
X836541Y2732224D1*
X832916Y2726799D1*
X828877Y2721675D1*
X824448Y2716884D1*
X819657Y2712455D1*
X814533Y2708416D1*
X809108Y2704791D1*
X803415Y2701603D1*
X797490Y2698871D1*
X791368Y2696613D1*
X785089Y2694842D1*
X778689Y2693569D1*
X772210Y2692802D1*
X756504Y2692545D1*
X690887Y2692546D1*
X684367Y2692802D1*
X677888Y2693569D1*
X671489Y2694842D1*
X665209Y2696613D1*
X659088Y2698871D1*
X653162Y2701603D1*
X647470Y2704791D1*
X642044Y2708416D1*
X636921Y2712455D1*
X632129Y2716884D1*
X627700Y2721675D1*
X623661Y2726799D1*
X620036Y2732224D1*
X616848Y2737917D1*
X614116Y2743842D1*
X611858Y2749964D1*
X610087Y2756243D1*
X608814Y2762643D1*
X608047Y2769122D1*
X607791Y2775642D1*
X608047Y2782161D1*
X608814Y2788641D1*
X610087Y2795040D1*
X611858Y2801320D1*
X614116Y2807441D1*
X616848Y2813367D1*
X620036Y2819059D1*
X623661Y2824484D1*
X627700Y2829608D1*
X632129Y2834400D1*
X636921Y2838828D1*
X642362Y2843080D1*
X640530Y2855176D1*
X640274Y2861696D1*
X640530Y2868215D1*
X641297Y2874695D1*
X642570Y2881094D1*
X644341Y2887374D1*
X646599Y2893495D1*
X649331Y2899420D1*
X652519Y2905113D1*
X656144Y2910538D1*
X663522Y2919274D1*
X592797Y2919297D1*
X815118Y3074623D2*
X815373Y3081168D1*
X816140Y3087647D1*
X817412Y3094047D1*
X819184Y3100326D1*
X821442Y3106448D1*
X824173Y3112373D1*
X827362Y3118066D1*
X830986Y3123491D1*
X835026Y3128615D1*
X839455Y3133406D1*
X844246Y3137835D1*
X849370Y3141874D1*
X854795Y3145499D1*
X860488Y3148687D1*
X866413Y3151419D1*
X872535Y3153677D1*
X878814Y3155448D1*
X885214Y3156721D1*
X891693Y3157488D1*
X898213Y3157744D1*
X904732Y3157488D1*
X911212Y3156721D1*
X917611Y3155448D1*
X923891Y3153677D1*
X930012Y3151419D1*
X935937Y3148687D1*
X941630Y3145499D1*
X947055Y3141874D1*
X952179Y3137835D1*
X956970Y3133406D1*
X961399Y3128615D1*
X965439Y3123491D1*
X969064Y3118066D1*
X972252Y3112373D1*
X974983Y3106448D1*
X977242Y3100326D1*
X979013Y3094047D1*
X980286Y3087647D1*
X981053Y3081168D1*
X981309Y3065462D1*
X981273Y2999845D1*
X981053Y2993326D1*
X980286Y2986846D1*
X979013Y2980447D1*
X977242Y2974167D1*
X974983Y2968046D1*
X972252Y2962120D1*
X969064Y2956428D1*
X965439Y2951003D1*
X961399Y2945879D1*
X956970Y2941087D1*
X952179Y2936658D1*
X947055Y2932619D1*
X941630Y2928994D1*
X935937Y2925806D1*
X930012Y2923074D1*
X923891Y2920816D1*
X917611Y2919045D1*
X911212Y2917772D1*
X904732Y2917005D1*
X898213Y2916749D1*
X891693Y2917005D1*
X885214Y2917772D1*
X878814Y2919045D1*
X872535Y2920816D1*
X866413Y2923074D1*
X860488Y2925806D1*
X854795Y2928994D1*
X849370Y2932619D1*
X844246Y2936658D1*
X839455Y2941087D1*
X835026Y2945879D1*
X830986Y2951003D1*
X827362Y2956428D1*
X824173Y2962120D1*
X821442Y2968046D1*
X819184Y2974167D1*
X817412Y2980447D1*
X816140Y2986846D1*
X815373Y2993326D1*
X815117Y3009031D1*
Y3074479D1*
X593539Y2399879D2*
X586993Y2400134D1*
X580514Y2400901D1*
X574115Y2402174D1*
X567835Y2403945D1*
X561714Y2406203D1*
X555788Y2408935D1*
X550096Y2412123D1*
X544670Y2415748D1*
X539547Y2419787D1*
X534755Y2424216D1*
X530326Y2429007D1*
X526287Y2434131D1*
X522662Y2439556D1*
X519474Y2445249D1*
X516742Y2451174D1*
X514484Y2457296D1*
X512713Y2463575D1*
X511440Y2469975D1*
X510673Y2476454D1*
X510417Y2482974D1*
X510673Y2489493D1*
X511440Y2495973D1*
X512713Y2502372D1*
X514484Y2508652D1*
X516742Y2514773D1*
X519474Y2520699D1*
X522662Y2526391D1*
X526287Y2531816D1*
X530326Y2536940D1*
X534755Y2541732D1*
X539547Y2546160D1*
X544670Y2550200D1*
X550096Y2553825D1*
X555788Y2557013D1*
X561714Y2559745D1*
X567835Y2562003D1*
X574115Y2563774D1*
X580514Y2565047D1*
X586993Y2565814D1*
X602699Y2566070D1*
X668316D1*
X674836Y2565814D1*
X681315Y2565047D1*
X687715Y2563774D1*
X693994Y2562003D1*
X700116Y2559745D1*
X706041Y2557013D1*
X711734Y2553825D1*
X717159Y2550200D1*
X722283Y2546160D1*
X727074Y2541732D1*
X731503Y2536940D1*
X735542Y2531816D1*
X739167Y2526391D1*
X742355Y2520699D1*
X745087Y2514773D1*
X747345Y2508652D1*
X749116Y2502372D1*
X750389Y2495973D1*
X751156Y2489493D1*
X751412Y2482974D1*
X751156Y2476454D1*
X750389Y2469975D1*
X749116Y2463575D1*
X747345Y2457296D1*
X745087Y2451174D1*
X742355Y2445249D1*
X739167Y2439556D1*
X735542Y2434131D1*
X731503Y2429007D1*
X727074Y2424216D1*
X722283Y2419787D1*
X717159Y2415748D1*
X711734Y2412123D1*
X706041Y2408935D1*
X700116Y2406203D1*
X693994Y2403945D1*
X687715Y2402174D1*
X681315Y2400901D1*
X674836Y2400134D1*
X659130Y2399878D1*
X593513Y2399914D1*
X815834Y2555240D2*
X816089Y2561785D1*
X816856Y2568264D1*
X818129Y2574663D1*
X819900Y2580943D1*
X822158Y2587065D1*
X824890Y2592990D1*
X828078Y2598683D1*
X831703Y2604108D1*
X835742Y2609232D1*
X840171Y2614023D1*
X844963Y2618452D1*
X850086Y2622491D1*
X855512Y2626116D1*
X861204Y2629304D1*
X867130Y2632036D1*
X873251Y2634294D1*
X879531Y2636065D1*
X885930Y2637338D1*
X892409Y2638105D1*
X898929Y2638361D1*
X905449Y2638105D1*
X911928Y2637338D1*
X918328Y2636065D1*
X924607Y2634294D1*
X930729Y2632036D1*
X936654Y2629304D1*
X942347Y2626116D1*
X947772Y2622491D1*
X952896Y2618452D1*
X957687Y2614023D1*
X962116Y2609232D1*
X966155Y2604108D1*
X969780Y2598683D1*
X972968Y2592990D1*
X975700Y2587065D1*
X977958Y2580943D1*
X979729Y2574663D1*
X981002Y2568264D1*
X981769Y2561785D1*
X982025Y2546079D1*
X981989Y2480462D1*
X981769Y2473942D1*
X981002Y2467463D1*
X979729Y2461064D1*
X977958Y2454784D1*
X975700Y2448662D1*
X972968Y2442737D1*
X969780Y2437044D1*
X966155Y2431619D1*
X962116Y2426495D1*
X957687Y2421704D1*
X952896Y2417275D1*
X947772Y2413236D1*
X942347Y2409611D1*
X936654Y2406423D1*
X930729Y2403691D1*
X924607Y2401433D1*
X918328Y2399662D1*
X911928Y2398389D1*
X905449Y2397622D1*
X898929Y2397366D1*
X892409Y2397622D1*
X885930Y2398389D1*
X879531Y2399662D1*
X873251Y2401433D1*
X867130Y2403691D1*
X861204Y2406423D1*
X855512Y2409611D1*
X850086Y2413236D1*
X844963Y2417275D1*
X840171Y2421704D1*
X835742Y2426495D1*
X831703Y2431619D1*
X828078Y2437044D1*
X824890Y2442737D1*
X822158Y2448662D1*
X819900Y2454784D1*
X818129Y2461064D1*
X816856Y2467463D1*
X816089Y2473942D1*
X815833Y2489648D1*
Y2555178D1*
X3346520Y2468925D2*
X3352415Y2467753D1*
X3358770Y2465960D1*
X3364966Y2463675D1*
X3370963Y2460910D1*
X3376724Y2457683D1*
X3382762Y2453584D1*
X3388840Y2457683D1*
X3394602Y2460910D1*
X3400598Y2463675D1*
X3406794Y2465960D1*
X3413149Y2467753D1*
X3419626Y2469041D1*
X3426184Y2469817D1*
X3432782Y2470076D1*
X3439381Y2469817D1*
X3445938Y2469041D1*
X3452415Y2467753D1*
X3458770Y2465960D1*
X3464966Y2463675D1*
X3470963Y2460910D1*
X3476724Y2457683D1*
X3482762Y2453584D1*
X3488840Y2457683D1*
X3494602Y2460910D1*
X3500598Y2463675D1*
X3506794Y2465960D1*
X3513149Y2467753D1*
X3519626Y2469041D1*
X3528168Y2469895D1*
X3528183Y2665986D1*
X3518496Y2660145D1*
X3512712Y2657478D1*
X3506735Y2655274D1*
X3500604Y2653544D1*
X3494357Y2652302D1*
X3488031Y2651553D1*
X3481665Y2651303D1*
X3475300Y2651553D1*
X3468974Y2652302D1*
X3462727Y2653544D1*
X3456596Y2655274D1*
X3450619Y2657478D1*
X3444834Y2660145D1*
X3439276Y2663258D1*
X3433980Y2666797D1*
X3428977Y2670741D1*
X3424300Y2675065D1*
X3419975Y2679742D1*
X3416032Y2684745D1*
X3412493Y2690041D1*
X3409380Y2695599D1*
X3406713Y2701384D1*
X3404508Y2707361D1*
X3402779Y2713492D1*
X3401537Y2719739D1*
X3400788Y2726065D1*
X3400538Y2732430D1*
X3400788Y2738796D1*
X3401537Y2745122D1*
X3402779Y2751369D1*
X3404508Y2757500D1*
X3406713Y2763477D1*
X3409380Y2769262D1*
X3412493Y2774819D1*
X3416032Y2780116D1*
X3419975Y2785119D1*
X3424300Y2789796D1*
X3428977Y2794120D1*
X3433980Y2798064D1*
X3439276Y2801603D1*
X3444834Y2804716D1*
X3450619Y2807383D1*
X3456596Y2809587D1*
X3462727Y2811316D1*
X3468974Y2812559D1*
X3475300Y2813308D1*
X3481665Y2813558D1*
X3488031Y2813308D1*
X3494357Y2812559D1*
X3500604Y2811316D1*
X3506735Y2809587D1*
X3512712Y2807383D1*
X3518496Y2804716D1*
X3528172Y2798852D1*
X3528183Y2872464D1*
X3373991Y3026494D1*
X3370765Y3020732D1*
X3366665Y3014695D1*
X3370765Y3008617D1*
X3373991Y3002855D1*
X3376756Y2996858D1*
X3379042Y2990663D1*
X3380834Y2984307D1*
X3382122Y2977831D1*
X3382898Y2971273D1*
X3383158Y2964675D1*
X3382898Y2958076D1*
X3382122Y2951518D1*
X3380834Y2945042D1*
X3379042Y2938686D1*
X3376756Y2932491D1*
X3373991Y2926494D1*
X3370765Y2920732D1*
X3366665Y2914695D1*
X3370765Y2908617D1*
X3373991Y2902855D1*
X3376756Y2896858D1*
X3379042Y2890663D1*
X3380834Y2884307D1*
X3382122Y2877831D1*
X3382898Y2871273D1*
X3383158Y2864675D1*
X3382898Y2858076D1*
X3382122Y2851518D1*
X3380834Y2845042D1*
X3379042Y2838686D1*
X3376756Y2832491D1*
X3373991Y2826494D1*
X3370765Y2820732D1*
X3366665Y2814695D1*
X3371294Y2807742D1*
X3375558Y2799610D1*
X3378911Y2791062D1*
X3381311Y2782200D1*
X3382732Y2773129D1*
X3383158Y2764675D1*
X3382657Y2755506D1*
X3381159Y2746448D1*
X3378683Y2737606D1*
X3375257Y2729087D1*
X3370923Y2720992D1*
X3366677Y2714675D1*
X3370765Y2708617D1*
X3373991Y2702855D1*
X3376756Y2696858D1*
X3379042Y2690663D1*
X3380834Y2684307D1*
X3382122Y2677831D1*
X3382898Y2671273D1*
X3383158Y2664675D1*
X3382898Y2658076D1*
X3382122Y2651518D1*
X3380834Y2645042D1*
X3379042Y2638686D1*
X3376756Y2632491D1*
X3373991Y2626494D1*
X3370765Y2620732D1*
X3367096Y2615242D1*
X3363008Y2610056D1*
X3358525Y2605207D1*
X3353676Y2600724D1*
X3348490Y2596636D1*
X3343000Y2592968D1*
X3337238Y2589741D1*
X3331241Y2586976D1*
X3325046Y2584691D1*
X3318690Y2582898D1*
X3311727Y2581552D1*
X3321231Y2575580D1*
X3326416Y2571492D1*
X3331266Y2567010D1*
X3335748Y2562161D1*
X3339836Y2556975D1*
X3343505Y2551484D1*
X3346732Y2545723D1*
X3349496Y2539726D1*
X3351782Y2533530D1*
X3353574Y2527175D1*
X3354862Y2520698D1*
X3355639Y2514140D1*
X3355898Y2507542D1*
X3355639Y2500944D1*
X3354862Y2494386D1*
X3353574Y2487909D1*
X3351782Y2481554D1*
X3349496Y2475358D1*
X3346492Y2468934D1*
X1682762Y2318369D2*
X1676724Y2314269D1*
X1670963Y2311043D1*
X1664966Y2308278D1*
X1658770Y2305993D1*
X1649000Y2303521D1*
X1648998Y2166500D1*
X1651714Y2159430D1*
X1654337Y2148505D1*
X1655218Y2137304D1*
X1654337Y2126104D1*
X1651714Y2115179D1*
X1647414Y2104799D1*
X1641544Y2095219D1*
X1634247Y2086676D1*
X1625704Y2079379D1*
X1616124Y2073508D1*
X1605744Y2069209D1*
X1594819Y2066586D1*
X1583618Y2065704D1*
X1573573Y2066449D1*
X1573633Y1845761D1*
X1580502Y1851852D1*
X1587995Y1857159D1*
X1596022Y1861617D1*
X1604487Y1865174D1*
X1613290Y1867786D1*
X1622324Y1869424D1*
X1631483Y1870066D1*
X1640658Y1869707D1*
X1649739Y1868349D1*
X1658618Y1866010D1*
X1667189Y1862716D1*
X1675349Y1858508D1*
X1682776Y1853600D1*
X1688840Y1857683D1*
X1694602Y1860910D1*
X1700598Y1863675D1*
X1706794Y1865960D1*
X1713149Y1867753D1*
X1719626Y1869041D1*
X1726622Y1869834D1*
X1726800Y2062039D1*
X1728189Y2070811D1*
X1730934Y2079258D1*
X1734966Y2087172D1*
X1740187Y2094357D1*
X1756195Y2110612D1*
X1824628Y2179046D1*
X1824639Y2302270D1*
X1813149Y2304200D1*
X1806794Y2305993D1*
X1800598Y2308278D1*
X1794602Y2311043D1*
X1788840Y2314269D1*
X1782802Y2318369D1*
X1776724Y2314269D1*
X1770963Y2311043D1*
X1764966Y2308278D1*
X1758770Y2305993D1*
X1752415Y2304200D1*
X1745938Y2302912D1*
X1739381Y2302136D1*
X1732782Y2301876D1*
X1726184Y2302136D1*
X1719626Y2302912D1*
X1713149Y2304200D1*
X1706794Y2305993D1*
X1700598Y2308278D1*
X1694602Y2311043D1*
X1688840Y2314269D1*
X1682802Y2318369D1*
X3646306Y4172711D2*
X3642206Y4178748D1*
X3638980Y4184510D1*
X3636215Y4190507D1*
X3633930Y4196702D1*
X3632137Y4203058D1*
X3630849Y4209534D1*
X3630073Y4216092D1*
X3629813Y4222690D1*
X3630073Y4229289D1*
X3630849Y4235846D1*
X3632137Y4242323D1*
X3633930Y4248679D1*
X3636215Y4254874D1*
X3638980Y4260871D1*
X3644743Y4270429D1*
X3333016Y4270602D1*
X3337072Y4264169D1*
X3341157Y4255946D1*
X3344322Y4247327D1*
X3346529Y4238415D1*
X3347751Y4229315D1*
X3347992Y4220853D1*
X3347291Y4211698D1*
X3345595Y4202674D1*
X3342927Y4193889D1*
X3339316Y4185447D1*
X3334806Y4177449D1*
X3331532Y4172691D1*
X3336148Y4165757D1*
X3340413Y4157626D1*
X3343765Y4149078D1*
X3346166Y4140216D1*
X3347586Y4131144D1*
X3348012Y4122690D1*
X3347511Y4113522D1*
X3346013Y4104463D1*
X3343537Y4095622D1*
X3340111Y4087103D1*
X3335778Y4079008D1*
X3330588Y4071434D1*
X3324603Y4064471D1*
X3317894Y4058202D1*
X3310542Y4052701D1*
X3302635Y4048035D1*
X3294265Y4044259D1*
X3285534Y4041417D1*
X3276545Y4039545D1*
X3267406Y4038663D1*
X3258225Y4038783D1*
X3249112Y4039903D1*
X3240175Y4042010D1*
X3231521Y4045078D1*
X3223253Y4049072D1*
X3215470Y4053943D1*
X3213917Y4055065D1*
X3207856Y4050983D1*
X3202094Y4047757D1*
X3196097Y4044992D1*
X3189902Y4042706D1*
X3183546Y4040914D1*
X3177070Y4039626D1*
X3170512Y4038850D1*
X3163913Y4038590D1*
X3157315Y4038850D1*
X3150757Y4039626D1*
X3144281Y4040914D1*
X3137925Y4042706D1*
X3131730Y4044992D1*
X3125733Y4047757D1*
X3120534Y4050668D1*
X3120512Y3891345D1*
X3188901Y3822687D1*
X3194122Y3815501D1*
X3198154Y3807588D1*
X3200898Y3799141D1*
X3202288Y3790369D1*
X3202462Y3767555D1*
Y3748716D1*
X3212214Y3747739D1*
X3218690Y3746451D1*
X3225046Y3744658D1*
X3231241Y3742373D1*
X3237238Y3739608D1*
X3243000Y3736382D1*
X3249037Y3732282D1*
X3255837Y3736818D1*
X3263959Y3741100D1*
X3272500Y3744471D1*
X3281357Y3746891D1*
X3290425Y3748330D1*
X3299596Y3748773D1*
X3308761Y3748213D1*
X3317810Y3746657D1*
X3326635Y3744124D1*
X3335132Y3740645D1*
X3343199Y3736259D1*
X3350740Y3731020D1*
X3357664Y3724991D1*
X3363890Y3718243D1*
X3369344Y3710856D1*
X3373959Y3702918D1*
X3377682Y3694525D1*
X3380467Y3685776D1*
X3382283Y3676775D1*
X3383106Y3667630D1*
X3383002Y3659618D1*
X3390274Y3657667D1*
X3400654Y3653367D1*
X3410234Y3647496D1*
X3418777Y3640200D1*
X3426074Y3631656D1*
X3431944Y3622077D1*
X3436244Y3611696D1*
X3438867Y3600772D1*
X3439748Y3589571D1*
X3438867Y3578370D1*
X3436244Y3567445D1*
X3431944Y3557065D1*
X3426074Y3547485D1*
X3418777Y3538942D1*
X3410234Y3531645D1*
X3400654Y3525775D1*
X3390274Y3521475D1*
X3379349Y3518852D1*
X3368148Y3517971D1*
X3364001Y3518134D1*
X3369344Y3510856D1*
X3373959Y3502918D1*
X3377682Y3494525D1*
X3380467Y3485776D1*
X3382283Y3476775D1*
X3383106Y3467630D1*
X3382977Y3459167D1*
X3381877Y3450051D1*
X3379789Y3441110D1*
X3376739Y3432449D1*
X3372763Y3424173D1*
X3367908Y3416380D1*
X3366677Y3414675D1*
X3371294Y3407742D1*
X3375558Y3399610D1*
X3378911Y3391062D1*
X3381311Y3382200D1*
X3382732Y3373129D1*
X3383158Y3364675D1*
X3382657Y3355506D1*
X3381159Y3346448D1*
X3378683Y3337606D1*
X3375257Y3329087D1*
X3370923Y3320992D1*
X3366677Y3314675D1*
X3370765Y3308617D1*
X3373991Y3302855D1*
X3376756Y3296858D1*
X3379042Y3290663D1*
X3380834Y3284307D1*
X3382122Y3277831D1*
X3382898Y3271273D1*
X3383158Y3264675D1*
X3382898Y3258076D1*
X3382122Y3251518D1*
X3380834Y3245042D1*
X3379042Y3238686D1*
X3376756Y3232491D1*
X3373991Y3226494D1*
X3370765Y3220732D1*
X3366665Y3214695D1*
X3371294Y3207742D1*
X3375558Y3199610D1*
X3378911Y3191062D1*
X3381311Y3182200D1*
X3382732Y3173129D1*
X3383085Y3168082D1*
X3388498Y3166156D1*
X3396412Y3162124D1*
X3403597Y3156904D1*
X3419852Y3140896D1*
X3627822Y2932679D1*
X3633043Y2925493D1*
X3637075Y2917580D1*
X3639820Y2909133D1*
X3641209Y2900361D1*
X3641384Y2877547D1*
Y2469652D1*
X3652415Y2467753D1*
X3658770Y2465960D1*
X3664966Y2463675D1*
X3670963Y2460910D1*
X3676724Y2457683D1*
X3682762Y2453584D1*
X3688840Y2457683D1*
X3694602Y2460910D1*
X3700598Y2463675D1*
X3706794Y2465960D1*
X3713149Y2467753D1*
X3719626Y2469041D1*
X3726184Y2469817D1*
X3732782Y2470076D1*
X3739381Y2469817D1*
X3745938Y2469041D1*
X3752415Y2467753D1*
X3758770Y2465960D1*
X3764966Y2463675D1*
X3770963Y2460910D1*
X3776724Y2457683D1*
X3782762Y2453584D1*
X3788840Y2457683D1*
X3794602Y2460910D1*
X3800598Y2463675D1*
X3810989Y2467144D1*
X3801380Y2471314D1*
X3795618Y2474541D1*
X3790128Y2478210D1*
X3784942Y2482298D1*
X3780093Y2486780D1*
X3775610Y2491629D1*
X3771522Y2496815D1*
X3767853Y2502306D1*
X3764627Y2508067D1*
X3761862Y2514064D1*
X3759577Y2520260D1*
X3757784Y2526615D1*
X3756496Y2533092D1*
X3755720Y2539650D1*
X3755460Y2546248D1*
X3755720Y2552846D1*
X3756496Y2559404D1*
X3757784Y2565881D1*
X3759577Y2572236D1*
X3761862Y2578432D1*
X3764627Y2584429D1*
X3767853Y2590190D1*
X3771522Y2595681D1*
X3777064Y2602439D1*
X3757457Y2602429D1*
X3751030Y2597980D1*
X3741020Y2592879D1*
X3730334Y2589407D1*
X3719237Y2587650D1*
X3708002D1*
X3696905Y2589407D1*
X3686219Y2592879D1*
X3676209Y2597980D1*
X3667119Y2604584D1*
X3659174Y2612528D1*
X3652570Y2621618D1*
X3647470Y2631629D1*
X3643998Y2642314D1*
X3642240Y2653411D1*
Y2664647D1*
X3643998Y2675744D1*
X3647470Y2686429D1*
X3652570Y2696440D1*
X3659174Y2705529D1*
X3667119Y2713474D1*
X3676209Y2720078D1*
X3686219Y2725179D1*
X3696905Y2728651D1*
X3708002Y2730408D1*
X3719237D1*
X3730334Y2728651D1*
X3741020Y2725179D1*
X3751030Y2720078D1*
X3757378Y2715636D1*
X4084267Y2715629D1*
X4090694Y2720078D1*
X4100705Y2725179D1*
X4111390Y2728651D1*
X4122487Y2730408D1*
X4133723D1*
X4144820Y2728651D1*
X4155505Y2725179D1*
X4165516Y2720078D1*
X4174605Y2713474D1*
X4182550Y2705529D1*
X4189154Y2696440D1*
X4194255Y2686429D1*
X4197727Y2675744D1*
X4199484Y2664647D1*
Y2653411D1*
X4197727Y2642314D1*
X4194255Y2631629D1*
X4189154Y2621618D1*
X4182550Y2612528D1*
X4174605Y2604584D1*
X4165516Y2597980D1*
X4155505Y2592879D1*
X4144820Y2589407D1*
X4133723Y2587650D1*
X4122487D1*
X4111390Y2589407D1*
X4100705Y2592879D1*
X4090694Y2597980D1*
X4084347Y2602422D1*
X3999747Y2602429D1*
X4004157Y2597636D1*
X4008246Y2592450D1*
X4011914Y2586959D1*
X4015141Y2581198D1*
X4017906Y2575201D1*
X4020191Y2569005D1*
X4021984Y2562650D1*
X4023272Y2556173D1*
X4024048Y2549615D1*
X4024307Y2543017D1*
X4024048Y2536419D1*
X4023272Y2529861D1*
X4021984Y2523384D1*
X4020191Y2517029D1*
X4017906Y2510833D1*
X4015141Y2504836D1*
X4011914Y2499075D1*
X4008246Y2493584D1*
X4004157Y2488398D1*
X3999675Y2483549D1*
X3994826Y2479067D1*
X3989640Y2474979D1*
X3984149Y2471310D1*
X3978388Y2468083D1*
X3972391Y2465319D1*
X3966365Y2463096D1*
X3976724Y2457683D1*
X3982215Y2454015D1*
X3987401Y2449927D1*
X3992250Y2445444D1*
X3996732Y2440595D1*
X4000820Y2435409D1*
X4004489Y2429919D1*
X4007716Y2424157D1*
X4010480Y2418160D1*
X4012766Y2411965D1*
X4014558Y2405609D1*
X4015847Y2399133D1*
X4016623Y2392575D1*
X4016882Y2385976D1*
X4016623Y2379378D1*
X4015847Y2372820D1*
X4014558Y2366344D1*
X4012766Y2359988D1*
X4010480Y2353793D1*
X4007716Y2347796D1*
X4004489Y2342034D1*
X4000820Y2336544D1*
X3996732Y2331358D1*
X3992250Y2326509D1*
X3987401Y2322026D1*
X3982215Y2317938D1*
X3976724Y2314269D1*
X3970963Y2311043D1*
X3964966Y2308278D1*
X3958770Y2305993D1*
X3952415Y2304200D1*
X3945938Y2302912D1*
X3939381Y2302136D1*
X3932782Y2301876D1*
X3926184Y2302136D1*
X3919626Y2302912D1*
X3913149Y2304200D1*
X3906794Y2305993D1*
X3900598Y2308278D1*
X3894602Y2311043D1*
X3888840Y2314269D1*
X3882802Y2318369D1*
X3876724Y2314269D1*
X3870963Y2311043D1*
X3864966Y2308278D1*
X3858770Y2305993D1*
X3852415Y2304200D1*
X3845938Y2302912D1*
X3839381Y2302136D1*
X3832782Y2301876D1*
X3826184Y2302136D1*
X3819626Y2302912D1*
X3813149Y2304200D1*
X3806794Y2305993D1*
X3800598Y2308278D1*
X3794602Y2311043D1*
X3788840Y2314269D1*
X3782802Y2318369D1*
X3776724Y2314269D1*
X3770963Y2311043D1*
X3764966Y2308278D1*
X3758770Y2305993D1*
X3752415Y2304200D1*
X3745938Y2302912D1*
X3739381Y2302136D1*
X3732782Y2301876D1*
X3726184Y2302136D1*
X3719626Y2302912D1*
X3713149Y2304200D1*
X3706794Y2305993D1*
X3700598Y2308278D1*
X3694602Y2311043D1*
X3688840Y2314269D1*
X3682802Y2318369D1*
X3676832Y2314341D1*
X3979887Y2011037D1*
X3985107Y2003852D1*
X3989139Y1995938D1*
X3991884Y1987491D1*
X3993273Y1978719D1*
X3993448Y1955906D1*
Y1844198D1*
X4000820Y1835409D1*
X4004489Y1829919D1*
X4007716Y1824157D1*
X4010480Y1818160D1*
X4012766Y1811965D1*
X4014558Y1805609D1*
X4015847Y1799133D1*
X4016623Y1792575D1*
X4016882Y1785976D1*
X4016662Y1780383D1*
X4024409Y1779596D1*
X4035334Y1776974D1*
X4045714Y1772674D1*
X4055294Y1766804D1*
X4063047Y1760237D1*
X4164604Y1760247D1*
X4171027Y1764696D1*
X4181038Y1769797D1*
X4191724Y1773269D1*
X4202821Y1775026D1*
X4214056D1*
X4225153Y1773269D1*
X4235838Y1769797D1*
X4245849Y1764696D1*
X4254939Y1758092D1*
X4257406Y1755811D1*
X4261643Y2944238D1*
X4256714Y2937082D1*
X4250728Y2930119D1*
X4244020Y2923850D1*
X4236668Y2918350D1*
X4228761Y2913683D1*
X4220391Y2909907D1*
X4211660Y2907066D1*
X4202671Y2905193D1*
X4193532Y2904311D1*
X4184351Y2904431D1*
X4175238Y2905551D1*
X4166301Y2907658D1*
X4157647Y2910726D1*
X4149379Y2914720D1*
X4141596Y2919591D1*
X4134391Y2925282D1*
X4130989Y2928462D1*
X4126546Y2924388D1*
X4121361Y2920300D1*
X4115870Y2916632D1*
X4110108Y2913405D1*
X4104111Y2910640D1*
X4097916Y2908355D1*
X4091561Y2906562D1*
X4085084Y2905274D1*
X4078526Y2904498D1*
X4071928Y2904239D1*
X4065329Y2904498D1*
X4058772Y2905274D1*
X4052295Y2906562D1*
X4045939Y2908355D1*
X4039744Y2910640D1*
X4033747Y2913405D1*
X4027986Y2916632D1*
X4022495Y2920300D1*
X4017309Y2924388D1*
X4012460Y2928871D1*
X4007978Y2933720D1*
X4003889Y2938906D1*
X4000221Y2944396D1*
X3996994Y2950158D1*
X3994230Y2956155D1*
X3991944Y2962350D1*
X3990152Y2968706D1*
X3988863Y2975182D1*
X3988087Y2981740D1*
X3987828Y2988339D1*
X3988087Y2994937D1*
X3988863Y3001495D1*
X3990152Y3007971D1*
X3991944Y3014327D1*
X3994230Y3020522D1*
X3996994Y3026519D1*
X4000221Y3032281D1*
X4003889Y3037771D1*
X4007978Y3042957D1*
X4012460Y3047806D1*
X4017309Y3052289D1*
X4022495Y3056377D1*
X4027986Y3060046D1*
X4033747Y3063272D1*
X4039744Y3066037D1*
X4045939Y3068322D1*
X4052295Y3070115D1*
X4058772Y3071403D1*
X4065329Y3072179D1*
X4071928Y3072439D1*
X4078526Y3072179D1*
X4085084Y3071403D1*
X4091561Y3070115D1*
X4097916Y3068322D1*
X4104111Y3066037D1*
X4110108Y3063272D1*
X4115870Y3060046D1*
X4121361Y3056377D1*
X4126546Y3052289D1*
X4130960Y3048209D1*
X4137758Y3054215D1*
X4145251Y3059521D1*
X4153278Y3063979D1*
X4161743Y3067536D1*
X4170545Y3070148D1*
X4179580Y3071786D1*
X4188739Y3072429D1*
X4197914Y3072069D1*
X4206995Y3070711D1*
X4215874Y3068372D1*
X4224444Y3065078D1*
X4232605Y3060870D1*
X4240258Y3055798D1*
X4247313Y3049921D1*
X4253685Y3043310D1*
X4259298Y3036044D1*
X4261956Y3031926D1*
X4262703Y3242290D1*
X4254379Y3237397D1*
X4248382Y3234632D1*
X4242186Y3232347D1*
X4235831Y3230554D1*
X4229354Y3229266D1*
X4222797Y3228490D1*
X4216198Y3228231D1*
X4209600Y3228490D1*
X4203042Y3229266D1*
X4196565Y3230554D1*
X4190210Y3232347D1*
X4184014Y3234632D1*
X4178018Y3237397D1*
X4172256Y3240624D1*
X4166218Y3244724D1*
X4160140Y3240624D1*
X4154379Y3237397D1*
X4148382Y3234632D1*
X4142186Y3232347D1*
X4135831Y3230554D1*
X4129354Y3229266D1*
X4122797Y3228490D1*
X4116198Y3228231D1*
X4109600Y3228490D1*
X4103042Y3229266D1*
X4096565Y3230554D1*
X4090210Y3232347D1*
X4084014Y3234632D1*
X4078018Y3237397D1*
X4069189Y3242673D1*
X4069004Y3171109D1*
X4067615Y3162337D1*
X4064870Y3153890D1*
X4060838Y3145976D1*
X4055618Y3138791D1*
X4039610Y3122536D1*
X3926427Y3009600D1*
X3919242Y3004380D1*
X3911328Y3000348D1*
X3902881Y2997603D1*
X3894109Y2996214D1*
X3871296Y2996039D1*
X3747818D1*
X3741365Y2991591D1*
X3731354Y2986490D1*
X3720668Y2983018D1*
X3709571Y2981260D1*
X3698336D1*
X3687239Y2983018D1*
X3676554Y2986490D1*
X3666543Y2991591D1*
X3657453Y2998194D1*
X3649509Y3006139D1*
X3642905Y3015229D1*
X3637804Y3025239D1*
X3634332Y3035925D1*
X3632574Y3047022D1*
Y3058257D1*
X3634332Y3069354D1*
X3637804Y3080040D1*
X3642905Y3090050D1*
X3649509Y3099140D1*
X3657453Y3107085D1*
X3666543Y3113689D1*
X3676554Y3118789D1*
X3687239Y3122261D1*
X3698336Y3124019D1*
X3709571D1*
X3720668Y3122261D1*
X3731354Y3118789D1*
X3741365Y3113689D1*
X3747712Y3109246D1*
X3866258Y3109240D1*
X3955988Y3199004D1*
X3955979Y3268023D1*
X3951530Y3274455D1*
X3946429Y3284466D1*
X3942957Y3295151D1*
X3941199Y3306248D1*
Y3317484D1*
X3942957Y3328581D1*
X3946429Y3339266D1*
X3951530Y3349277D1*
X3958134Y3358367D1*
X3966078Y3366311D1*
X3975168Y3372915D1*
X3985179Y3378016D1*
X3995864Y3381488D1*
X4006961Y3383245D1*
X4018196D1*
X4029293Y3381488D1*
X4039299Y3378267D1*
X4036214Y3386342D1*
X4034422Y3392698D1*
X4033134Y3399175D1*
X4032357Y3405732D1*
X4032098Y3412331D1*
X4032357Y3418929D1*
X4033134Y3425487D1*
X4034422Y3431963D1*
X4036214Y3438319D1*
X4038500Y3444514D1*
X4041265Y3450511D1*
X4044491Y3456273D1*
X4048591Y3462310D1*
X4044491Y3468389D1*
X4041265Y3474150D1*
X4038500Y3480147D1*
X4036214Y3486342D1*
X4034422Y3492698D1*
X4033134Y3499175D1*
X4032357Y3505732D1*
X4032098Y3512331D1*
X4032357Y3518929D1*
X4033134Y3525487D1*
X4034422Y3531963D1*
X4036214Y3538319D1*
X4038500Y3544514D1*
X4041265Y3550511D1*
X4044491Y3556273D1*
X4048591Y3562310D1*
X4044491Y3568389D1*
X4041265Y3574150D1*
X4038500Y3580147D1*
X4036214Y3586342D1*
X4034422Y3592698D1*
X4033134Y3599175D1*
X4032357Y3605732D1*
X4032098Y3612331D1*
X4032357Y3618929D1*
X4033134Y3625487D1*
X4034422Y3631963D1*
X4036214Y3638319D1*
X4038500Y3644514D1*
X4041265Y3650511D1*
X4044491Y3656273D1*
X4048591Y3662310D1*
X4044147Y3668956D1*
X4039848Y3677069D1*
X4036459Y3685602D1*
X4034020Y3694454D1*
X4032561Y3703520D1*
X4032099Y3712690D1*
X4032639Y3721856D1*
X4034176Y3730908D1*
X4036690Y3739739D1*
X4040151Y3748243D1*
X4044520Y3756319D1*
X4049742Y3763871D1*
X4055757Y3770808D1*
X4062492Y3777049D1*
X4069867Y3782518D1*
X4077795Y3787150D1*
X4086180Y3790891D1*
X4094923Y3793695D1*
X4103920Y3795530D1*
X4113063Y3796372D1*
X4122243Y3796213D1*
X4131352Y3795054D1*
X4140279Y3792909D1*
X4148920Y3789804D1*
X4157171Y3785775D1*
X4164933Y3780871D1*
X4166192Y3779954D1*
X4172977Y3784475D1*
X4181099Y3788756D1*
X4189640Y3792127D1*
X4198497Y3794547D1*
X4207566Y3795986D1*
X4216737Y3796429D1*
X4225901Y3795869D1*
X4234950Y3794313D1*
X4243776Y3791781D1*
X4252273Y3788301D1*
X4260340Y3783915D1*
X4264621Y3781088D1*
X4266362Y4270150D1*
X4183327Y4270158D1*
X4187960Y4262561D1*
X4191865Y4254251D1*
X4194841Y4245565D1*
X4196853Y4236606D1*
X4197875Y4227482D1*
X4197932Y4219017D1*
X4197031Y4209879D1*
X4195139Y4200895D1*
X4192279Y4192170D1*
X4188484Y4183809D1*
X4183801Y4175911D1*
X4181532Y4172691D1*
X4186148Y4165757D1*
X4190413Y4157626D1*
X4193765Y4149078D1*
X4196166Y4140216D1*
X4197586Y4131144D1*
X4198012Y4122690D1*
X4197511Y4113522D1*
X4196013Y4104463D1*
X4193537Y4095622D1*
X4190111Y4087103D1*
X4185778Y4079008D1*
X4180588Y4071434D1*
X4174603Y4064471D1*
X4167894Y4058202D1*
X4160542Y4052701D1*
X4152635Y4048035D1*
X4144265Y4044259D1*
X4135534Y4041417D1*
X4126545Y4039545D1*
X4117406Y4038663D1*
X4108225Y4038783D1*
X4099112Y4039903D1*
X4090175Y4042010D1*
X4081521Y4045078D1*
X4073253Y4049072D1*
X4065470Y4053943D1*
X4063917Y4055065D1*
X4057856Y4050983D1*
X4052094Y4047757D1*
X4046097Y4044992D1*
X4039902Y4042706D1*
X4033546Y4040914D1*
X4027070Y4039626D1*
X4020512Y4038850D1*
X4013913Y4038590D1*
X4007315Y4038850D1*
X4000757Y4039626D1*
X3994281Y4040914D1*
X3987925Y4042706D1*
X3981730Y4044992D1*
X3975733Y4047757D1*
X3969778Y4051112D1*
X3969621Y4012508D1*
X3968232Y4003736D1*
X3965487Y3995289D1*
X3961455Y3987375D1*
X3956235Y3980190D1*
X3940226Y3963935D1*
X3695038Y3718747D1*
X3693610Y3711027D1*
X3690138Y3700341D1*
X3685037Y3690331D1*
X3678433Y3681241D1*
X3670489Y3673296D1*
X3661399Y3666692D1*
X3651388Y3661592D1*
X3640703Y3658120D1*
X3629606Y3656362D1*
X3618371D1*
X3607274Y3658120D1*
X3596588Y3661592D1*
X3586577Y3666692D1*
X3577488Y3673296D1*
X3569543Y3681241D1*
X3562939Y3690331D1*
X3557838Y3700341D1*
X3554367Y3711027D1*
X3552609Y3722124D1*
Y3733359D1*
X3554367Y3744456D1*
X3557838Y3755142D1*
X3559447Y3758632D1*
X3554887Y3763518D1*
X3548283Y3772607D1*
X3543182Y3782618D1*
X3539710Y3793304D1*
X3537953Y3804401D1*
Y3815636D1*
X3539710Y3826733D1*
X3543182Y3837419D1*
X3548283Y3847429D1*
X3554887Y3856519D1*
X3562832Y3864463D1*
X3571921Y3871067D1*
X3581932Y3876168D1*
X3592617Y3879640D1*
X3603714Y3881398D1*
X3614950D1*
X3626047Y3879640D1*
X3634115Y3877133D1*
X3749852Y3992871D1*
Y4045701D1*
X3746097Y4044992D1*
X3739902Y4042706D1*
X3733546Y4040914D1*
X3727070Y4039626D1*
X3720512Y4038850D1*
X3713913Y4038590D1*
X3707315Y4038850D1*
X3700757Y4039626D1*
X3694281Y4040914D1*
X3687925Y4042706D1*
X3681730Y4044992D1*
X3675733Y4047757D1*
X3669971Y4050983D1*
X3664481Y4054652D1*
X3659295Y4058740D1*
X3654446Y4063223D1*
X3649963Y4068072D1*
X3645875Y4073258D1*
X3642206Y4078748D1*
X3638980Y4084510D1*
X3636215Y4090507D1*
X3633930Y4096702D1*
X3632137Y4103058D1*
X3630849Y4109534D1*
X3630073Y4116092D1*
X3629813Y4122690D1*
X3630073Y4129289D1*
X3630849Y4135846D1*
X3632137Y4142323D1*
X3633930Y4148679D1*
X3636215Y4154874D1*
X3638980Y4160871D1*
X3642206Y4166632D1*
X3646306Y4172670D1*
X1937860Y2469877D2*
X1945938Y2469041D1*
X1952415Y2467753D1*
X1958770Y2465960D1*
X1964966Y2463675D1*
X1970963Y2460910D1*
X1976724Y2457683D1*
X1982762Y2453584D1*
X1988840Y2457683D1*
X1994602Y2460910D1*
X2000598Y2463675D1*
X2006794Y2465960D1*
X2013149Y2467753D1*
X2019626Y2469041D1*
X2026184Y2469817D1*
X2032782Y2470076D1*
X2039381Y2469817D1*
X2045938Y2469041D1*
X2052415Y2467753D1*
X2058770Y2465960D1*
X2064966Y2463675D1*
X2070963Y2460910D1*
X2078976Y2456179D1*
X2082351Y2464304D1*
X2086992Y2471876D1*
X2092773Y2478642D1*
X2197884Y2583754D1*
X2192123Y2585887D1*
X2186126Y2588652D1*
X2180365Y2591878D1*
X2174327Y2595978D1*
X2168249Y2591878D1*
X2162488Y2588652D1*
X2156491Y2585887D1*
X2150295Y2583601D1*
X2143940Y2581809D1*
X2137463Y2580521D1*
X2130905Y2579745D1*
X2124307Y2579485D1*
X2117709Y2579745D1*
X2111151Y2580521D1*
X2104674Y2581809D1*
X2098319Y2583601D1*
X2092123Y2585887D1*
X2086126Y2588652D1*
X2080365Y2591878D1*
X2074327Y2595978D1*
X2066253Y2590693D1*
X2058057Y2586554D1*
X2049459Y2583334D1*
X2040560Y2581071D1*
X2031468Y2579791D1*
X2022291Y2579509D1*
X2013137Y2580230D1*
X2004117Y2581945D1*
X1995337Y2584632D1*
X1986903Y2588261D1*
X1978914Y2592788D1*
X1974312Y2595960D1*
X1966253Y2590693D1*
X1958057Y2586554D1*
X1949459Y2583334D1*
X1940560Y2581071D1*
X1937840Y2580586D1*
X1937839Y2469916D1*
X2262678Y2061181D2*
X2261977Y2052026D1*
X2260282Y2043002D1*
X2257613Y2034217D1*
X2257109Y2032881D1*
X2338623Y2032880D1*
X2427372Y2121629D1*
X2427381Y2302052D1*
X2419626Y2302912D1*
X2413149Y2304200D1*
X2406794Y2305993D1*
X2400598Y2308278D1*
X2394602Y2311043D1*
X2388840Y2314269D1*
X2382802Y2318369D1*
X2376724Y2314269D1*
X2370963Y2311043D1*
X2364966Y2308278D1*
X2358770Y2305993D1*
X2352415Y2304200D1*
X2345938Y2302912D1*
X2339381Y2302136D1*
X2332782Y2301876D1*
X2326261Y2302133D1*
X2314391Y2290513D1*
X2307206Y2285293D1*
X2299292Y2281261D1*
X2290846Y2278516D1*
X2282073Y2277127D1*
X2259260Y2276952D1*
X1980765Y2277127D1*
X1971993Y2278516D1*
X1963546Y2281261D1*
X1955633Y2285293D1*
X1948447Y2290513D1*
X1937851Y2300863D1*
X1937839Y2236597D1*
X1946415Y2240717D1*
X1952610Y2243002D1*
X1958966Y2244795D1*
X1965442Y2246083D1*
X1972000Y2246859D1*
X1978598Y2247118D1*
X1985197Y2246859D1*
X1991755Y2246083D1*
X1998231Y2244795D1*
X2004587Y2243002D1*
X2010782Y2240717D1*
X2016779Y2237952D1*
X2022541Y2234725D1*
X2028578Y2230626D1*
X2034656Y2234725D1*
X2040418Y2237952D1*
X2046415Y2240717D1*
X2052610Y2243002D1*
X2058966Y2244795D1*
X2065442Y2246083D1*
X2072000Y2246859D1*
X2078598Y2247118D1*
X2085197Y2246859D1*
X2091755Y2246083D1*
X2098231Y2244795D1*
X2104587Y2243002D1*
X2110782Y2240717D1*
X2116779Y2237952D1*
X2122541Y2234725D1*
X2128578Y2230626D1*
X2135377Y2235162D1*
X2143500Y2239444D1*
X2152040Y2242815D1*
X2160898Y2245234D1*
X2169966Y2246674D1*
X2179137Y2247117D1*
X2188302Y2246557D1*
X2197351Y2245001D1*
X2206176Y2242468D1*
X2214673Y2238988D1*
X2222740Y2234603D1*
X2230280Y2229364D1*
X2237205Y2223335D1*
X2243431Y2216586D1*
X2248884Y2209199D1*
X2253500Y2201262D1*
X2257223Y2192869D1*
X2260008Y2184120D1*
X2261823Y2175119D1*
X2262646Y2165974D1*
X2262518Y2157511D1*
X2261417Y2148395D1*
X2259330Y2139454D1*
X2256280Y2130793D1*
X2252304Y2122517D1*
X2247449Y2114723D1*
X2246218Y2113019D1*
X2250834Y2106085D1*
X2255099Y2097954D1*
X2258451Y2089406D1*
X2260852Y2080544D1*
X2262272Y2071472D1*
X2262698Y2063018D1*
X2262678Y2061181D1*
X1745797Y4214749D2*
X1745072Y4203754D1*
X1743266Y4192884D1*
X1740397Y4182245D1*
X1736493Y4171941D1*
X1731592Y4162072D1*
X1725741Y4152734D1*
X1718998Y4144019D1*
X1711428Y4136012D1*
X1703106Y4128790D1*
X1694111Y4122423D1*
X1684533Y4116975D1*
X1683755Y4116590D1*
X1693092Y4111390D1*
X1702155Y4105122D1*
X1710555Y4097990D1*
X1718210Y4090064D1*
X1725047Y4081422D1*
X1730998Y4072148D1*
X1736006Y4062333D1*
X1740021Y4052071D1*
X1743005Y4041464D1*
X1744928Y4030614D1*
X1745771Y4019627D1*
X1745571Y4009243D1*
X1744304Y3998297D1*
X1741963Y3987529D1*
X1738572Y3977045D1*
X1734164Y3966946D1*
X1728782Y3957331D1*
X1722477Y3948293D1*
X1715312Y3939922D1*
X1707356Y3932298D1*
X1698687Y3925495D1*
X1689390Y3919581D1*
X1679554Y3914613D1*
X1669277Y3910638D1*
X1658657Y3907697D1*
X1647800Y3905817D1*
X1636810Y3905017D1*
X1625794Y3905305D1*
X1614861Y3906677D1*
X1604116Y3909121D1*
X1593665Y3912613D1*
X1590814Y3913774D1*
X1590813Y3884595D1*
X1595064Y3879222D1*
X1598603Y3873926D1*
X1601716Y3868368D1*
X1604383Y3862583D1*
X1606587Y3856607D1*
X1608316Y3850476D1*
X1609559Y3844228D1*
X1610308Y3837902D1*
X1610558Y3831537D1*
X1610308Y3825172D1*
X1609559Y3818846D1*
X1608316Y3812598D1*
X1606587Y3806467D1*
X1604383Y3800491D1*
X1601716Y3794706D1*
X1598603Y3789148D1*
X1595064Y3783851D1*
X1591120Y3778849D1*
X1586796Y3774171D1*
X1582119Y3769847D1*
X1577116Y3765903D1*
X1571819Y3762364D1*
X1566262Y3759252D1*
X1560477Y3756585D1*
X1554500Y3754380D1*
X1548369Y3752651D1*
X1542122Y3751408D1*
X1535796Y3750659D1*
X1529430Y3750409D1*
X1523065Y3750659D1*
X1516739Y3751408D1*
X1510492Y3752651D1*
X1504361Y3754380D1*
X1498384Y3756585D1*
X1492599Y3759252D1*
X1487041Y3762364D1*
X1481745Y3765903D1*
X1476742Y3769847D1*
X1472065Y3774171D1*
X1467741Y3778849D1*
X1463797Y3783851D1*
X1460258Y3789148D1*
X1457145Y3794706D1*
X1454478Y3800491D1*
X1452274Y3806467D1*
X1450544Y3812598D1*
X1449302Y3818846D1*
X1448553Y3825172D1*
X1448303Y3831537D1*
X1448553Y3837902D1*
X1449302Y3844228D1*
X1450544Y3850476D1*
X1452274Y3856607D1*
X1454478Y3862583D1*
X1457145Y3868368D1*
X1460258Y3873926D1*
X1463797Y3879222D1*
X1467741Y3884225D1*
X1472065Y3888903D1*
X1477622Y3893920D1*
X1477613Y3913747D1*
X1467528Y3910075D1*
X1456862Y3907309D1*
X1445975Y3905608D1*
X1434973Y3904989D1*
X1423964Y3905458D1*
X1413054Y3907011D1*
X1402351Y3909631D1*
X1391959Y3913295D1*
X1381979Y3917965D1*
X1372508Y3923597D1*
X1363638Y3930136D1*
X1355456Y3937517D1*
X1348043Y3945669D1*
X1341469Y3954513D1*
X1338940Y3958475D1*
X1332693Y3950465D1*
X1325124Y3942458D1*
X1316801Y3935236D1*
X1307807Y3928870D1*
X1298229Y3923422D1*
X1288160Y3918945D1*
X1277699Y3915483D1*
X1266947Y3913069D1*
X1256010Y3911727D1*
X1244994Y3911471D1*
X1234006Y3912302D1*
X1223154Y3914213D1*
X1212543Y3917184D1*
X1202277Y3921188D1*
X1192456Y3926184D1*
X1183175Y3932125D1*
X1174526Y3938952D1*
X1166592Y3946599D1*
X1159450Y3954990D1*
X1153171Y3964046D1*
X1147910Y3973490D1*
X1143440Y3965342D1*
X1137285Y3956202D1*
X1130258Y3947714D1*
X1122429Y3939959D1*
X1113873Y3933015D1*
X1104675Y3926949D1*
X1094922Y3921819D1*
X1084712Y3917676D1*
X1074142Y3914560D1*
X1063317Y3912502D1*
X1052342Y3911521D1*
X1041323Y3911627D1*
X1030369Y3912820D1*
X1019585Y3915087D1*
X1009078Y3918406D1*
X998949Y3922745D1*
X989298Y3928062D1*
X980218Y3934305D1*
X971798Y3941413D1*
X964119Y3949317D1*
X957258Y3957939D1*
X951281Y3967196D1*
X946245Y3976998D1*
X942201Y3987248D1*
X939187Y3997847D1*
X937233Y4008691D1*
X936359Y4019676D1*
X936571Y4030693D1*
X937869Y4041635D1*
X940240Y4052396D1*
X943661Y4062871D1*
X948098Y4072957D1*
X953508Y4082557D1*
X959838Y4091576D1*
X967027Y4099928D1*
X975004Y4107529D1*
X983693Y4114307D1*
X993007Y4120195D1*
X998367Y4123030D1*
X989298Y4128062D1*
X980218Y4134305D1*
X971798Y4141413D1*
X964119Y4149317D1*
X957258Y4157939D1*
X951281Y4167196D1*
X946245Y4176998D1*
X942201Y4187248D1*
X939187Y4197847D1*
X937233Y4208691D1*
X936359Y4219676D1*
X936571Y4230693D1*
X937869Y4241635D1*
X940240Y4252396D1*
X943661Y4262871D1*
X947558Y4271855D1*
X456540Y4272108D1*
X456256Y4149142D1*
X464492Y4154868D1*
X470254Y4158095D1*
X476251Y4160860D1*
X482446Y4163145D1*
X488802Y4164938D1*
X495278Y4166226D1*
X501836Y4167002D1*
X508434Y4167261D1*
X515033Y4167002D1*
X521591Y4166226D1*
X528067Y4164938D1*
X534423Y4163145D1*
X540618Y4160860D1*
X546615Y4158095D1*
X552377Y4154868D1*
X558414Y4150769D1*
X564492Y4154868D1*
X570254Y4158095D1*
X576251Y4160860D1*
X582446Y4163145D1*
X588802Y4164938D1*
X595278Y4166226D1*
X601836Y4167002D1*
X608434Y4167261D1*
X615033Y4167002D1*
X621591Y4166226D1*
X628067Y4164938D1*
X634423Y4163145D1*
X640618Y4160860D1*
X646615Y4158095D1*
X652377Y4154868D1*
X657867Y4151200D1*
X663053Y4147112D1*
X667902Y4142629D1*
X672385Y4137780D1*
X676473Y4132594D1*
X680141Y4127104D1*
X683368Y4121342D1*
X686133Y4115345D1*
X688418Y4109150D1*
X690211Y4102794D1*
X691499Y4096318D1*
X692275Y4089760D1*
X692534Y4083161D1*
X692275Y4076563D1*
X691499Y4070005D1*
X690211Y4063529D1*
X688418Y4057173D1*
X686133Y4050978D1*
X683368Y4044981D1*
X680141Y4039219D1*
X676042Y4033182D1*
X680141Y4027105D1*
X683368Y4021343D1*
X686133Y4015346D1*
X688418Y4009151D1*
X690211Y4002795D1*
X691499Y3996319D1*
X692388Y3986900D1*
X894382Y3986710D1*
X903154Y3985321D1*
X911601Y3982576D1*
X919514Y3978544D1*
X926700Y3973324D1*
X942955Y3957316D1*
X1069647Y3830623D1*
X1068720Y3837971D1*
X1068470Y3844336D1*
X1068720Y3850701D1*
X1069468Y3857027D1*
X1070711Y3863275D1*
X1072440Y3869406D1*
X1074645Y3875382D1*
X1077312Y3881167D1*
X1080424Y3886725D1*
X1083964Y3892022D1*
X1087907Y3897024D1*
X1092231Y3901702D1*
X1096909Y3906026D1*
X1101912Y3909970D1*
X1107208Y3913509D1*
X1112766Y3916621D1*
X1118551Y3919288D1*
X1124527Y3921493D1*
X1130658Y3923222D1*
X1136906Y3924465D1*
X1143232Y3925213D1*
X1149597Y3925464D1*
X1155962Y3925213D1*
X1162288Y3924465D1*
X1168536Y3923222D1*
X1174667Y3921493D1*
X1180643Y3919288D1*
X1186428Y3916621D1*
X1191986Y3913509D1*
X1197283Y3909970D1*
X1202285Y3906026D1*
X1206963Y3901702D1*
X1211287Y3897024D1*
X1215231Y3892022D1*
X1218770Y3886725D1*
X1221882Y3881167D1*
X1224549Y3875382D1*
X1226754Y3869406D1*
X1228483Y3863275D1*
X1229726Y3857027D1*
X1230475Y3850701D1*
X1230725Y3844336D1*
X1230475Y3837971D1*
X1229726Y3831645D1*
X1228483Y3825397D1*
X1226754Y3819266D1*
X1224549Y3813290D1*
X1221882Y3807505D1*
X1218770Y3801947D1*
X1215231Y3796650D1*
X1211287Y3791648D1*
X1206963Y3786970D1*
X1202285Y3782646D1*
X1197283Y3778702D1*
X1191986Y3775163D1*
X1186428Y3772051D1*
X1180643Y3769384D1*
X1174667Y3767179D1*
X1168536Y3765450D1*
X1162288Y3764207D1*
X1155962Y3763458D1*
X1149597Y3763208D1*
X1143232Y3763458D1*
X1135857Y3764416D1*
X1309735Y3590535D1*
X1646398Y3590525D1*
X1652866Y3594974D1*
X1662877Y3600075D1*
X1667348Y3601724D1*
X1660357Y3608967D1*
X1656269Y3614153D1*
X1652600Y3619643D1*
X1649373Y3625405D1*
X1646609Y3631402D1*
X1644323Y3637597D1*
X1642531Y3643953D1*
X1641242Y3650429D1*
X1640466Y3656987D1*
X1640207Y3663585D1*
X1640466Y3670184D1*
X1641242Y3676741D1*
X1642531Y3683218D1*
X1644323Y3689574D1*
X1646609Y3695769D1*
X1649373Y3701766D1*
X1652600Y3707527D1*
X1656269Y3713018D1*
X1660357Y3718204D1*
X1664839Y3723053D1*
X1669689Y3727535D1*
X1674874Y3731624D1*
X1680365Y3735292D1*
X1686126Y3738519D1*
X1692123Y3741284D1*
X1698319Y3743569D1*
X1704674Y3745362D1*
X1711151Y3746650D1*
X1717709Y3747426D1*
X1724307Y3747685D1*
X1730905Y3747426D1*
X1737463Y3746650D1*
X1743940Y3745362D1*
X1750295Y3743569D1*
X1756491Y3741284D1*
X1762488Y3738519D1*
X1768249Y3735292D1*
X1774287Y3731192D1*
X1780365Y3735292D1*
X1786126Y3738519D1*
X1792123Y3741284D1*
X1798319Y3743569D1*
X1804674Y3745362D1*
X1811151Y3746650D1*
X1817709Y3747426D1*
X1824307Y3747685D1*
X1830905Y3747426D1*
X1837463Y3746650D1*
X1843940Y3745362D1*
X1850295Y3743569D1*
X1856491Y3741284D1*
X1862488Y3738519D1*
X1868249Y3735292D1*
X1874287Y3731192D1*
X1880365Y3735292D1*
X1886126Y3738519D1*
X1892123Y3741284D1*
X1898319Y3743569D1*
X1904674Y3745362D1*
X1911151Y3746650D1*
X1917709Y3747426D1*
X1924307Y3747685D1*
X1930905Y3747426D1*
X1937463Y3746650D1*
X1943940Y3745362D1*
X1950295Y3743569D1*
X1956491Y3741284D1*
X1962488Y3738519D1*
X1968249Y3735292D1*
X1974287Y3731192D1*
X1980365Y3735292D1*
X1986126Y3738519D1*
X1992123Y3741284D1*
X1998319Y3743569D1*
X2004674Y3745362D1*
X2011151Y3746650D1*
X2017709Y3747426D1*
X2024307Y3747685D1*
X2030905Y3747426D1*
X2037463Y3746650D1*
X2043940Y3745362D1*
X2050295Y3743569D1*
X2056491Y3741284D1*
X2062488Y3738519D1*
X2068249Y3735292D1*
X2074287Y3731192D1*
X2077923Y3733736D1*
X1981352Y3830301D1*
X1880710Y3830323D1*
X1870482Y3831127D1*
X1860507Y3833522D1*
X1851028Y3837448D1*
X1842281Y3842809D1*
X1834480Y3849472D1*
X1827817Y3857273D1*
X1822456Y3866020D1*
X1818530Y3875499D1*
X1816135Y3885474D1*
X1815331Y3895722D1*
X1815330Y3998151D1*
X1812614Y4005218D1*
X1809991Y4016143D1*
X1809110Y4027344D1*
X1809991Y4038545D1*
X1812614Y4049469D1*
X1816914Y4059850D1*
X1822784Y4069429D1*
X1830081Y4077973D1*
X1838625Y4085269D1*
X1848204Y4091140D1*
X1858584Y4095439D1*
X1869509Y4098062D1*
X1880710Y4098944D1*
X1891911Y4098062D1*
X1902836Y4095439D1*
X1913216Y4091140D1*
X1922795Y4085269D1*
X1931339Y4077973D1*
X1938636Y4069429D1*
X1944506Y4059850D1*
X1948806Y4049469D1*
X1951428Y4038545D1*
X1952310Y4027344D1*
X1951428Y4016143D1*
X1948806Y4005218D1*
X1946097Y3998288D1*
X1946090Y3961066D1*
X2013542Y3960880D1*
X2023675Y3959275D1*
X2033432Y3956105D1*
X2042573Y3951447D1*
X2050873Y3945417D1*
X2067634Y3928941D1*
X2254513Y3742062D1*
X2262488Y3738519D1*
X2268249Y3735292D1*
X2273740Y3731624D1*
X2278926Y3727535D1*
X2283775Y3723053D1*
X2288257Y3718204D1*
X2292345Y3713018D1*
X2296014Y3707527D1*
X2299241Y3701766D1*
X2302005Y3695769D1*
X2304291Y3689574D1*
X2306083Y3683218D1*
X2307372Y3676741D1*
X2308148Y3670184D1*
X2308407Y3663585D1*
X2308148Y3656987D1*
X2307372Y3650429D1*
X2306083Y3643953D1*
X2304291Y3637597D1*
X2302005Y3631402D1*
X2299241Y3625405D1*
X2296014Y3619643D1*
X2292345Y3614153D1*
X2288257Y3608967D1*
X2283775Y3604118D1*
X2278926Y3599635D1*
X2273740Y3595547D1*
X2268249Y3591878D1*
X2262488Y3588652D1*
X2256491Y3585887D1*
X2250295Y3583601D1*
X2245206Y3582166D1*
X2245200Y3304789D1*
X2251507Y3308425D1*
X2261888Y3312724D1*
X2266516Y3314030D1*
X2269675Y3321140D1*
X2275546Y3330719D1*
X2282842Y3339263D1*
X2291386Y3346559D1*
X2299643Y3351690D1*
X2301038Y3359179D1*
X2304510Y3369865D1*
X2309611Y3379875D1*
X2316215Y3388965D1*
X2324160Y3396910D1*
X2333249Y3403514D1*
X2343260Y3408614D1*
X2351642Y3411436D1*
X2351622Y3764048D1*
X2186446Y3929254D1*
X2178741Y3930667D1*
X2168055Y3934139D1*
X2158044Y3939240D1*
X2148955Y3945844D1*
X2141010Y3953788D1*
X2134406Y3962878D1*
X2129306Y3972889D1*
X2125834Y3983574D1*
X2124076Y3994671D1*
Y4005906D1*
X2125834Y4017003D1*
X2129306Y4027689D1*
X2134406Y4037700D1*
X2141010Y4046789D1*
X2148955Y4054734D1*
X2158044Y4061338D1*
X2161474Y4063259D1*
X2159262Y4072879D1*
X2158380Y4084080D1*
X2159262Y4095281D1*
X2161885Y4106206D1*
X2166184Y4116586D1*
X2172055Y4126165D1*
X2179351Y4134709D1*
X2187895Y4142006D1*
X2197475Y4147876D1*
X2207855Y4152176D1*
X2218780Y4154799D1*
X2229980Y4155680D1*
X2241181Y4154799D1*
X2252106Y4152176D1*
X2262486Y4147876D1*
X2272066Y4142006D1*
X2280609Y4134709D1*
X2287906Y4126165D1*
X2293776Y4116586D1*
X2298076Y4106206D1*
X2300699Y4095281D1*
X2300949Y4093165D1*
X2453634Y3940471D1*
X2463470Y3944501D1*
X2474395Y3947124D1*
X2476162Y3947333D1*
X2476357Y4053392D1*
X2477746Y4062164D1*
X2480491Y4070611D1*
X2484523Y4078525D1*
X2489743Y4085710D1*
X2505751Y4101965D1*
X2674717Y4270930D1*
X1731433Y4271441D1*
X1736006Y4262333D1*
X1740021Y4252071D1*
X1743005Y4241464D1*
X1744928Y4230614D1*
X1745771Y4219627D1*
X1745797Y4214749D1*
X1354351Y757870D2*
X1353575Y751312D1*
X1352287Y744836D1*
X1350494Y738480D1*
X1348209Y732285D1*
X1345444Y726288D1*
X1342218Y720526D1*
X1338549Y715036D1*
X1334461Y709850D1*
X1329978Y705001D1*
X1325129Y700518D1*
X1319943Y696430D1*
X1314453Y692761D1*
X1308691Y689535D1*
X1302694Y686770D1*
X1296499Y684485D1*
X1290143Y682692D1*
X1283667Y681404D1*
X1277109Y680628D1*
X1270510Y680369D1*
X1263912Y680628D1*
X1257354Y681404D1*
X1250878Y682692D1*
X1244522Y684485D1*
X1238327Y686770D1*
X1232330Y689535D1*
X1226568Y692761D1*
X1221078Y696430D1*
X1215892Y700518D1*
X1211043Y705001D1*
X1206560Y709850D1*
X1202472Y715036D1*
X1198803Y720526D1*
X1195577Y726288D1*
X1192812Y732285D1*
X1190527Y738480D1*
X1188734Y744836D1*
X1187446Y751312D1*
X1186670Y757870D1*
X1186410Y764469D1*
X1186670Y771067D1*
X1187446Y777625D1*
X1188734Y784101D1*
X1190527Y790457D1*
X1192812Y796652D1*
X1195577Y802649D1*
X1198803Y808411D1*
X1202472Y813901D1*
X1206560Y819087D1*
X1211043Y823936D1*
X1215892Y828419D1*
X1221078Y832507D1*
X1226568Y836176D1*
X1232330Y839402D1*
X1238327Y842167D1*
X1244522Y844452D1*
X1250878Y846245D1*
X1257354Y847533D1*
X1263912Y848309D1*
X1270510Y848569D1*
X1277109Y848309D1*
X1283667Y847533D1*
X1290143Y846245D1*
X1296499Y844452D1*
X1302694Y842167D1*
X1308691Y839402D1*
X1314453Y836176D1*
X1319943Y832507D1*
X1325129Y828419D1*
X1329978Y823936D1*
X1334461Y819087D1*
X1338549Y813901D1*
X1342218Y808411D1*
X1345444Y802649D1*
X1348209Y796652D1*
X1350494Y790457D1*
X1352287Y784101D1*
X1353575Y777625D1*
X1354351Y771067D1*
X1354610Y764469D1*
X1354351Y757870D1*
X3231440Y3414676D2*
X3229361Y3417618D1*
X3133922Y3322173D1*
X3140244Y3318712D1*
X3149334Y3312108D1*
X3157278Y3304163D1*
X3163882Y3295074D1*
X3168983Y3285063D1*
X3172455Y3274377D1*
X3173802Y3266748D1*
X3229153Y3211389D1*
X3231437Y3214675D1*
X3227351Y3220732D1*
X3224124Y3226494D1*
X3221359Y3232491D1*
X3219074Y3238686D1*
X3217281Y3245042D1*
X3215993Y3251518D1*
X3215217Y3258076D1*
X3214958Y3264675D1*
X3215217Y3271273D1*
X3215993Y3277831D1*
X3217281Y3284307D1*
X3219074Y3290663D1*
X3221359Y3296858D1*
X3224124Y3302855D1*
X3227351Y3308617D1*
X3231451Y3314654D1*
X3227006Y3321300D1*
X3222707Y3329413D1*
X3219318Y3337946D1*
X3216880Y3346798D1*
X3215421Y3355863D1*
X3214959Y3365034D1*
X3215499Y3374199D1*
X3217035Y3383252D1*
X3219549Y3392083D1*
X3223011Y3400587D1*
X3227379Y3408663D1*
X3231437Y3414675D1*
X3231451Y3014695D2*
X3227351Y3020732D1*
X3224124Y3026494D1*
X3221359Y3032491D1*
X3219074Y3038686D1*
X3217281Y3045042D1*
X3215993Y3051518D1*
X3215217Y3058076D1*
X3215046Y3066917D1*
X3209874Y3070826D1*
X3193619Y3086834D1*
X3093823Y3186629D1*
X3086119Y3188041D1*
X3075433Y3191513D1*
X3065422Y3196614D1*
X3056333Y3203218D1*
X3048388Y3211162D1*
X3041784Y3220252D1*
X3038366Y3226613D1*
X2936868Y3125118D1*
X2936882Y2847186D1*
X2983377Y2847175D1*
X2989835Y2851624D1*
X2999845Y2856725D1*
X3010531Y2860196D1*
X3021628Y2861954D1*
X3032863D1*
X3043960Y2860196D1*
X3054646Y2856725D1*
X3064656Y2851624D1*
X3073746Y2845020D1*
X3081690Y2837075D1*
X3088294Y2827986D1*
X3093395Y2817975D1*
X3096867Y2807289D1*
X3098625Y2796192D1*
X3098645Y2785462D1*
X3107086Y2783271D1*
X3117466Y2778972D1*
X3121241Y2776858D1*
X3117375Y2784778D1*
X3113903Y2795464D1*
X3112146Y2806561D1*
Y2817796D1*
X3113903Y2828893D1*
X3117375Y2839579D1*
X3122476Y2849589D1*
X3129080Y2858679D1*
X3137024Y2866624D1*
X3146114Y2873228D1*
X3156125Y2878328D1*
X3166810Y2881800D1*
X3177907Y2883558D1*
X3189143D1*
X3200240Y2881800D1*
X3210925Y2878328D1*
X3215731Y2876112D1*
X3217281Y2884307D1*
X3219074Y2890663D1*
X3221359Y2896858D1*
X3224124Y2902855D1*
X3227351Y2908617D1*
X3231451Y2914654D1*
X3227351Y2920732D1*
X3224124Y2926494D1*
X3221359Y2932491D1*
X3219074Y2938686D1*
X3217281Y2945042D1*
X3215993Y2951518D1*
X3215217Y2958076D1*
X3214958Y2964675D1*
X3215217Y2971273D1*
X3215993Y2977831D1*
X3217281Y2984307D1*
X3219074Y2990663D1*
X3221359Y2996858D1*
X3224124Y3002855D1*
X3227351Y3008617D1*
X3231451Y3014654D1*
X1682775Y1718353D2*
X1676311Y1714018D1*
X1668207Y1709701D1*
X1659681Y1706294D1*
X1650834Y1703837D1*
X1641772Y1702358D1*
X1632603Y1701877D1*
X1623436Y1702397D1*
X1614380Y1703914D1*
X1608407Y1705491D1*
X1625739Y1688160D1*
X1741416Y1688162D1*
X1737435Y1693019D1*
X1732787Y1700607D1*
X1726184Y1702136D1*
X1719626Y1702912D1*
X1713149Y1704200D1*
X1706794Y1705993D1*
X1700598Y1708278D1*
X1694602Y1711043D1*
X1688840Y1714269D1*
X1682802Y1718369D1*
X2949051Y3597051D2*
X2942586Y3592716D1*
X2934482Y3588399D1*
X2925956Y3584992D1*
X2917109Y3582535D1*
X2908047Y3581056D1*
X2898878Y3580575D1*
X2889711Y3581096D1*
X2881996Y3582327D1*
X2869397Y3569504D1*
X2863616Y3562739D1*
X2789359Y3488481D1*
X2789382Y3198070D1*
X2799256Y3208261D1*
X3045307Y3454312D1*
X3041784Y3459542D1*
X3036684Y3469553D1*
X3033212Y3480238D1*
X3031454Y3491335D1*
Y3502570D1*
X3033212Y3513667D1*
X3036684Y3524353D1*
X3041784Y3534364D1*
X3042455Y3535368D1*
X3042458Y3592656D1*
X3037238Y3589741D1*
X3031241Y3586976D1*
X3025046Y3584691D1*
X3018690Y3582898D1*
X3012214Y3581610D1*
X3005656Y3580834D1*
X2999058Y3580575D1*
X2992459Y3580834D1*
X2985902Y3581610D1*
X2979425Y3582898D1*
X2973069Y3584691D1*
X2966874Y3586976D1*
X2960877Y3589741D1*
X2955116Y3592968D1*
X2949078Y3597067D1*
X2908511Y3748239D2*
X2917810Y3746657D1*
X2926635Y3744124D1*
X2935132Y3740645D1*
X2943199Y3736259D1*
X2949052Y3732298D1*
X2955116Y3736382D1*
X2960877Y3739608D1*
X2966874Y3742373D1*
X2973069Y3744658D1*
X2979425Y3746451D1*
X2985902Y3747739D1*
X2992459Y3748515D1*
X2999058Y3748775D1*
X3005656Y3748515D1*
X3012214Y3747739D1*
X3018690Y3746451D1*
X3025046Y3744658D1*
X3031241Y3742373D1*
X3037238Y3739608D1*
X3043000Y3736382D1*
X3049037Y3732282D1*
X3055116Y3736382D1*
X3060877Y3739608D1*
X3066874Y3742373D1*
X3073069Y3744658D1*
X3079425Y3746451D1*
X3089257Y3748136D1*
X3089262Y3762494D1*
X3020873Y3831119D1*
X3015653Y3838304D1*
X3011620Y3846218D1*
X3008876Y3854665D1*
X3007486Y3863437D1*
X3007312Y3886251D1*
Y4046976D1*
X2997438Y4036806D1*
X2908502Y3947871D1*
X2908516Y3748237D1*
X1974287Y3595978D2*
X1968249Y3591878D1*
X1962488Y3588652D1*
X1956491Y3585887D1*
X1950295Y3583601D1*
X1943940Y3581809D1*
X1937463Y3580521D1*
X1931546Y3579820D1*
X1931565Y2747350D1*
X1939461Y2746309D1*
X1948388Y2744164D1*
X1957029Y2741058D1*
X1965280Y2737030D1*
X1973042Y2732125D1*
X1974301Y2731209D1*
X1981086Y2735729D1*
X1989208Y2740011D1*
X1997749Y2743382D1*
X2006606Y2745801D1*
X2015674Y2747241D1*
X2024846Y2747684D1*
X2034010Y2747124D1*
X2043059Y2745568D1*
X2051885Y2743035D1*
X2058929Y2740226D1*
X2059129Y2795221D1*
X2060734Y2805354D1*
X2063904Y2815112D1*
X2068562Y2824253D1*
X2074592Y2832552D1*
X2091068Y2849314D1*
X2114438Y2872683D1*
X2114441Y3580047D1*
X2105905Y3581523D1*
X2097069Y3584018D1*
X2088557Y3587462D1*
X2080472Y3591813D1*
X2074312Y3595960D1*
X2068249Y3591878D1*
X2062488Y3588652D1*
X2056491Y3585887D1*
X2050295Y3583601D1*
X2043940Y3581809D1*
X2037463Y3580521D1*
X2030905Y3579745D1*
X2024307Y3579485D1*
X2017709Y3579745D1*
X2011151Y3580521D1*
X2004674Y3581809D1*
X1998319Y3583601D1*
X1992123Y3585887D1*
X1986126Y3588652D1*
X1980365Y3591878D1*
X1974327Y3595978D1*
X3628890Y1869923D2*
X3639381Y1869817D1*
X3645938Y1869041D1*
X3652415Y1867753D1*
X3658770Y1865960D1*
X3664966Y1863675D1*
X3670963Y1860910D1*
X3676724Y1857683D1*
X3682762Y1853584D1*
X3688840Y1857683D1*
X3694602Y1860910D1*
X3700598Y1863675D1*
X3706794Y1865960D1*
X3713149Y1867753D1*
X3719626Y1869041D1*
X3726184Y1869817D1*
X3732782Y1870076D1*
X3739381Y1869817D1*
X3745938Y1869041D1*
X3752415Y1867753D1*
X3758770Y1865960D1*
X3764966Y1863675D1*
X3770963Y1860910D1*
X3776724Y1857683D1*
X3782762Y1853584D1*
X3788840Y1857683D1*
X3794602Y1860910D1*
X3800598Y1863675D1*
X3806794Y1865960D1*
X3813149Y1867753D1*
X3819626Y1869041D1*
X3826184Y1869817D1*
X3832782Y1870076D1*
X3839381Y1869817D1*
X3845938Y1869041D1*
X3852415Y1867753D1*
X3858770Y1865960D1*
X3864966Y1863675D1*
X3870963Y1860910D1*
X3880263Y1855319D1*
X3880248Y1950864D1*
X3596779Y2234303D1*
X3592831Y2228207D1*
X3585534Y2219664D1*
X3576991Y2212367D1*
X3567411Y2206497D1*
X3557031Y2202197D1*
X3546106Y2199574D1*
X3534906Y2198693D1*
X3523705Y2199574D1*
X3512780Y2202197D1*
X3502400Y2206497D1*
X3492820Y2212367D1*
X3491147Y2213686D1*
X3247509Y2213693D1*
X3079004Y2045218D1*
X3077611Y2037533D1*
X3074139Y2026848D1*
X3069039Y2016837D1*
X3062435Y2007748D1*
X3054490Y1999803D1*
X3045400Y1993199D1*
X3035390Y1988098D1*
X3024704Y1984626D1*
X3013607Y1982869D1*
X3002372D1*
X2991275Y1984626D1*
X2980589Y1988098D1*
X2970579Y1993199D1*
X2961489Y1999803D1*
X2953544Y2007748D1*
X2946940Y2016837D1*
X2944762Y2020727D1*
X2889391Y1965370D1*
X2889382Y1937527D1*
X2893286Y1943530D1*
X2900582Y1952074D1*
X2909126Y1959370D1*
X2918706Y1965241D1*
X2929086Y1969541D1*
X2940011Y1972163D1*
X2951211Y1973045D1*
X2962412Y1972163D1*
X2973337Y1969541D1*
X2983717Y1965241D1*
X2992000Y1960237D1*
X3017776Y1960234D1*
X3108129Y2050557D1*
X3109553Y2058272D1*
X3113025Y2068958D1*
X3118126Y2078969D1*
X3124729Y2088058D1*
X3132674Y2096003D1*
X3141764Y2102607D1*
X3151774Y2107708D1*
X3162460Y2111179D1*
X3173557Y2112937D1*
X3184792D1*
X3195889Y2111179D1*
X3206575Y2107708D1*
X3216585Y2102607D1*
X3225675Y2096003D1*
X3233620Y2088058D1*
X3240224Y2078969D1*
X3245324Y2068958D1*
X3248796Y2058272D1*
X3250554Y2047175D1*
Y2035940D1*
X3248796Y2024843D1*
X3245324Y2014158D1*
X3240224Y2004147D1*
X3233620Y1995057D1*
X3225675Y1987113D1*
X3216585Y1980509D1*
X3206575Y1975408D1*
X3195889Y1971936D1*
X3188260Y1970589D1*
X3107729Y1890068D1*
X3589722Y1889903D1*
X3598494Y1888514D1*
X3606941Y1885769D1*
X3614854Y1881737D1*
X3622040Y1876517D1*
X3625315Y1873487D1*
X1408317Y3050589D2*
X1407541Y3044032D1*
X1406253Y3037555D1*
X1404460Y3031199D1*
X1402175Y3025004D1*
X1399410Y3019007D1*
X1396183Y3013246D1*
X1392515Y3007755D1*
X1388427Y3002569D1*
X1383944Y2997720D1*
X1379095Y2993238D1*
X1373909Y2989149D1*
X1368419Y2985481D1*
X1362657Y2982254D1*
X1356660Y2979489D1*
X1350465Y2977204D1*
X1344109Y2975411D1*
X1337633Y2974123D1*
X1331075Y2973347D1*
X1324476Y2973088D1*
X1317878Y2973347D1*
X1311320Y2974123D1*
X1304844Y2975411D1*
X1298488Y2977204D1*
X1292293Y2979489D1*
X1286296Y2982254D1*
X1280534Y2985481D1*
X1275044Y2989149D1*
X1269858Y2993238D1*
X1265009Y2997720D1*
X1260526Y3002569D1*
X1256438Y3007755D1*
X1252769Y3013246D1*
X1249543Y3019007D1*
X1246778Y3025004D1*
X1244493Y3031199D1*
X1242700Y3037555D1*
X1241412Y3044032D1*
X1240636Y3050589D1*
X1240376Y3057188D1*
X1240636Y3063786D1*
X1241412Y3070344D1*
X1242700Y3076820D1*
X1244493Y3083176D1*
X1246778Y3089371D1*
X1249543Y3095368D1*
X1252769Y3101130D1*
X1256194Y3106256D1*
X1251496Y3113522D1*
X1247375Y3121727D1*
X1244173Y3130332D1*
X1241929Y3139235D1*
X1240668Y3148330D1*
X1240406Y3157508D1*
X1241147Y3166660D1*
X1242881Y3175677D1*
X1245587Y3184451D1*
X1249234Y3192877D1*
X1253777Y3200856D1*
X1255413Y3203293D1*
X1250580Y3210354D1*
X1247354Y3216116D1*
X1244589Y3222113D1*
X1242304Y3228308D1*
X1240511Y3234664D1*
X1239223Y3241140D1*
X1238447Y3247698D1*
X1238187Y3254297D1*
X1238447Y3260895D1*
X1239223Y3267453D1*
X1240511Y3273929D1*
X1242304Y3280285D1*
X1244589Y3286480D1*
X1247354Y3292477D1*
X1250580Y3298239D1*
X1254249Y3303729D1*
X1258337Y3308915D1*
X1262820Y3313764D1*
X1267669Y3318247D1*
X1272855Y3322335D1*
X1278345Y3326004D1*
X1284107Y3329230D1*
X1290104Y3331995D1*
X1296299Y3334280D1*
X1302655Y3336073D1*
X1309131Y3337361D1*
X1315689Y3338137D1*
X1322287Y3338397D1*
X1328886Y3338137D1*
X1335444Y3337361D1*
X1341920Y3336073D1*
X1348276Y3334280D1*
X1354471Y3331995D1*
X1360468Y3329230D1*
X1366230Y3326004D1*
X1371720Y3322335D1*
X1376906Y3318247D1*
X1381755Y3313764D1*
X1386238Y3308915D1*
X1390326Y3303729D1*
X1393994Y3298239D1*
X1397221Y3292477D1*
X1399986Y3286480D1*
X1402271Y3280285D1*
X1404064Y3273929D1*
X1405352Y3267453D1*
X1406128Y3260895D1*
X1406387Y3254297D1*
X1406128Y3247698D1*
X1405352Y3241140D1*
X1404064Y3234664D1*
X1402271Y3228308D1*
X1399986Y3222113D1*
X1397221Y3216116D1*
X1391315Y3206344D1*
X1395756Y3199947D1*
X1400197Y3191911D1*
X1403735Y3183438D1*
X1406329Y3174630D1*
X1407947Y3165592D1*
X1408570Y3156432D1*
X1408257Y3147973D1*
X1406957Y3138883D1*
X1404675Y3129990D1*
X1401436Y3121398D1*
X1397280Y3113211D1*
X1392780Y3106254D1*
X1396183Y3101130D1*
X1399410Y3095368D1*
X1402175Y3089371D1*
X1404460Y3083176D1*
X1406253Y3076820D1*
X1407541Y3070344D1*
X1408317Y3063786D1*
X1408576Y3057188D1*
X1408317Y3050589D1*
X1195443Y2918377D2*
X1194667Y2911819D1*
X1193379Y2905342D1*
X1191586Y2898987D1*
X1189301Y2892791D1*
X1186536Y2886794D1*
X1181260Y2877966D1*
X1185651Y2870732D1*
X1189556Y2862422D1*
X1192532Y2853736D1*
X1194543Y2844777D1*
X1195566Y2835652D1*
X1195622Y2827188D1*
X1194721Y2818050D1*
X1192829Y2809065D1*
X1189969Y2800340D1*
X1186175Y2791979D1*
X1181301Y2783803D1*
X1186536Y2774926D1*
X1189301Y2768929D1*
X1191586Y2762734D1*
X1193379Y2756378D1*
X1194667Y2749902D1*
X1195443Y2743344D1*
X1195702Y2736745D1*
X1195443Y2730147D1*
X1194667Y2723589D1*
X1193379Y2717113D1*
X1191586Y2710757D1*
X1189301Y2704562D1*
X1186536Y2698565D1*
X1183309Y2692803D1*
X1179641Y2687313D1*
X1175553Y2682127D1*
X1171070Y2677278D1*
X1166221Y2672795D1*
X1161035Y2668707D1*
X1155544Y2665038D1*
X1149783Y2661812D1*
X1143786Y2659047D1*
X1137591Y2656762D1*
X1131235Y2654969D1*
X1124759Y2653681D1*
X1118201Y2652905D1*
X1111602Y2652645D1*
X1105004Y2652905D1*
X1098446Y2653681D1*
X1091970Y2654969D1*
X1085614Y2656762D1*
X1079419Y2659047D1*
X1073422Y2661812D1*
X1067660Y2665038D1*
X1062170Y2668707D1*
X1056984Y2672795D1*
X1052135Y2677278D1*
X1047652Y2682127D1*
X1043564Y2687313D1*
X1039895Y2692803D1*
X1036669Y2698565D1*
X1033904Y2704562D1*
X1031619Y2710757D1*
X1029826Y2717113D1*
X1028538Y2723589D1*
X1027762Y2730147D1*
X1027502Y2736745D1*
X1027762Y2743344D1*
X1028538Y2749902D1*
X1029826Y2756378D1*
X1031619Y2762734D1*
X1033904Y2768929D1*
X1036669Y2774926D1*
X1041945Y2783755D1*
X1037725Y2790674D1*
X1033784Y2798968D1*
X1030771Y2807641D1*
X1028722Y2816591D1*
X1027660Y2825711D1*
X1027599Y2834893D1*
X1028539Y2844026D1*
X1030470Y2853003D1*
X1033367Y2861716D1*
X1037197Y2870061D1*
X1041902Y2877920D1*
X1036669Y2886794D1*
X1033904Y2892791D1*
X1031619Y2898987D1*
X1029826Y2905342D1*
X1028538Y2911819D1*
X1027762Y2918377D1*
X1027502Y2924975D1*
X1027762Y2931573D1*
X1028538Y2938131D1*
X1029826Y2944608D1*
X1031619Y2950963D1*
X1033904Y2957159D1*
X1036669Y2963156D1*
X1041945Y2971984D1*
X1037725Y2978904D1*
X1033784Y2987197D1*
X1030771Y2995871D1*
X1028722Y3004821D1*
X1027660Y3013941D1*
X1027599Y3023123D1*
X1028539Y3032256D1*
X1030470Y3041233D1*
X1033367Y3049945D1*
X1037197Y3058290D1*
X1041902Y3066150D1*
X1036669Y3075024D1*
X1033904Y3081021D1*
X1031619Y3087216D1*
X1029826Y3093572D1*
X1028538Y3100049D1*
X1027762Y3106606D1*
X1027502Y3113205D1*
X1027762Y3119803D1*
X1028538Y3126361D1*
X1029826Y3132837D1*
X1031619Y3139193D1*
X1033904Y3145388D1*
X1036669Y3151385D1*
X1039895Y3157147D1*
X1043564Y3162637D1*
X1047652Y3167823D1*
X1052135Y3172672D1*
X1056984Y3177155D1*
X1062170Y3181243D1*
X1067660Y3184912D1*
X1073422Y3188138D1*
X1079419Y3190903D1*
X1085614Y3193189D1*
X1091970Y3194981D1*
X1098446Y3196269D1*
X1105004Y3197045D1*
X1111602Y3197305D1*
X1118201Y3197045D1*
X1124759Y3196269D1*
X1131235Y3194981D1*
X1137591Y3193189D1*
X1143786Y3190903D1*
X1149783Y3188138D1*
X1155544Y3184912D1*
X1161035Y3181243D1*
X1166221Y3177155D1*
X1171070Y3172672D1*
X1175553Y3167823D1*
X1179641Y3162637D1*
X1183309Y3157147D1*
X1186536Y3151385D1*
X1189301Y3145388D1*
X1191586Y3139193D1*
X1193379Y3132837D1*
X1194667Y3126361D1*
X1195443Y3119803D1*
X1195702Y3113205D1*
X1195443Y3106606D1*
X1194667Y3100049D1*
X1193379Y3093572D1*
X1191586Y3087216D1*
X1189301Y3081021D1*
X1186536Y3075024D1*
X1181260Y3066196D1*
X1185651Y3058961D1*
X1189556Y3050651D1*
X1192532Y3041965D1*
X1194543Y3033006D1*
X1195566Y3023882D1*
X1195622Y3015417D1*
X1194721Y3006280D1*
X1192829Y2997295D1*
X1189969Y2988570D1*
X1186175Y2980209D1*
X1181301Y2972033D1*
X1186536Y2963156D1*
X1189301Y2957159D1*
X1191586Y2950963D1*
X1193379Y2944608D1*
X1194667Y2938131D1*
X1195443Y2931573D1*
X1195702Y2924975D1*
X1195443Y2918377D1*
X462375Y1241391D2*
X457942Y1248015D1*
X453643Y1256128D1*
X450254Y1264661D1*
X449088Y1268440D1*
X448953Y1213896D1*
X452295Y1223573D1*
X455060Y1229570D1*
X458286Y1235332D1*
X462386Y1241369D1*
Y1141410D2*
X458286Y1147448D1*
X455060Y1153209D1*
X452295Y1159206D1*
X448840Y1169547D1*
X448861Y1113532D1*
X451758Y1122245D1*
X455588Y1130589D1*
X460305Y1138467D1*
X462373Y1141390D1*
X462375Y1041391D2*
X457942Y1048015D1*
X453643Y1056128D1*
X450254Y1064661D1*
X448596Y1070254D1*
X448451Y1011941D1*
X452295Y1023573D1*
X455060Y1029570D1*
X458286Y1035332D1*
X462386Y1041369D1*
Y941410D2*
X458286Y947448D1*
X455060Y953209D1*
X452295Y959206D1*
X450010Y965401D1*
X448350Y971285D1*
X448396Y911754D1*
X451103Y920528D1*
X454749Y928955D1*
X459293Y936934D1*
X462373Y941390D1*
X1316863Y2196347D2*
X1316162Y2187192D1*
X1314467Y2178168D1*
X1311798Y2169382D1*
X1308187Y2160940D1*
X1303678Y2152942D1*
X1298323Y2145483D1*
X1292188Y2138653D1*
X1285344Y2132532D1*
X1277874Y2127193D1*
X1269866Y2122701D1*
X1261416Y2119108D1*
X1252625Y2116458D1*
X1243598Y2114782D1*
X1234441Y2114100D1*
X1225265Y2114420D1*
X1216178Y2115739D1*
X1207290Y2118041D1*
X1198705Y2121298D1*
X1190526Y2125471D1*
X1182851Y2130511D1*
X1175772Y2136358D1*
X1169372Y2142941D1*
X1163727Y2150183D1*
X1158906Y2157997D1*
X1154966Y2166290D1*
X1151952Y2174964D1*
X1149903Y2183914D1*
X1148841Y2193034D1*
X1148780Y2202216D1*
X1149720Y2211349D1*
X1151651Y2220326D1*
X1154548Y2229038D1*
X1158378Y2237383D1*
X1163095Y2245261D1*
X1168642Y2252578D1*
X1172579Y2256901D1*
X1161907Y2256198D1*
X1155542Y2256448D1*
X1149216Y2257197D1*
X1142968Y2258439D1*
X1136837Y2260169D1*
X1130861Y2262373D1*
X1125076Y2265040D1*
X1119518Y2268153D1*
X1114221Y2271692D1*
X1109219Y2275636D1*
X1104541Y2279960D1*
X1100217Y2284637D1*
X1096273Y2289640D1*
X1092734Y2294936D1*
X1089622Y2300494D1*
X1086955Y2306279D1*
X1084750Y2312256D1*
X1083021Y2318387D1*
X1081778Y2324634D1*
X1081029Y2330960D1*
X1080779Y2337325D1*
X1081029Y2343691D1*
X1081778Y2350017D1*
X1083021Y2356264D1*
X1084750Y2362395D1*
X1086955Y2368372D1*
X1089622Y2374157D1*
X1092734Y2379714D1*
X1096273Y2385011D1*
X1100217Y2390014D1*
X1104541Y2394691D1*
X1109219Y2399015D1*
X1114221Y2402959D1*
X1119518Y2406498D1*
X1125076Y2409611D1*
X1130861Y2412278D1*
X1136837Y2414482D1*
X1142968Y2416211D1*
X1149216Y2417454D1*
X1155542Y2418203D1*
X1161907Y2418453D1*
X1168272Y2418203D1*
X1174598Y2417454D1*
X1180846Y2416211D1*
X1186977Y2414482D1*
X1192953Y2412278D1*
X1198738Y2409611D1*
X1204296Y2406498D1*
X1209592Y2402959D1*
X1214595Y2399015D1*
X1219273Y2394691D1*
X1223597Y2390014D1*
X1227540Y2385011D1*
X1231079Y2379714D1*
X1234192Y2374157D1*
X1236859Y2368372D1*
X1239064Y2362395D1*
X1240793Y2356264D1*
X1242036Y2350017D1*
X1242784Y2343691D1*
X1243034Y2337325D1*
X1242784Y2330960D1*
X1242036Y2324634D1*
X1240793Y2318387D1*
X1239064Y2312256D1*
X1236859Y2306279D1*
X1234192Y2300494D1*
X1231079Y2294936D1*
X1227540Y2289640D1*
X1220607Y2281403D1*
X1229648Y2282225D1*
X1238829Y2282066D1*
X1247937Y2280907D1*
X1256865Y2278762D1*
X1265505Y2275657D1*
X1273756Y2271628D1*
X1281518Y2266724D1*
X1288700Y2261002D1*
X1295215Y2254532D1*
X1300985Y2247391D1*
X1305943Y2239662D1*
X1310029Y2231440D1*
X1313194Y2222821D1*
X1315400Y2213908D1*
X1316622Y2204808D1*
X1316863Y2196347D1*
X640831Y2305892D2*
X639722Y2311467D1*
X638955Y2317946D1*
X638699Y2324466D1*
X638955Y2330986D1*
X639722Y2337465D1*
X640995Y2343864D1*
X642766Y2350144D1*
X645025Y2356265D1*
X647756Y2362191D1*
X650944Y2367883D1*
X654569Y2373309D1*
X658609Y2378432D1*
X663037Y2383224D1*
X667829Y2387653D1*
X672953Y2391692D1*
X678378Y2395317D1*
X684070Y2398505D1*
X689996Y2401237D1*
X696117Y2403495D1*
X702397Y2405266D1*
X708796Y2406539D1*
X715276Y2407306D1*
X730982Y2407562D1*
X796598D1*
X803118Y2407306D1*
X809598Y2406539D1*
X815997Y2405266D1*
X822277Y2403495D1*
X828398Y2401237D1*
X834323Y2398505D1*
X840016Y2395317D1*
X845441Y2391692D1*
X850565Y2387653D1*
X855356Y2383224D1*
X859785Y2378432D1*
X863825Y2373309D1*
X867449Y2367883D1*
X870638Y2362191D1*
X873369Y2356265D1*
X875627Y2350144D1*
X877399Y2343864D1*
X878671Y2337465D1*
X879438Y2330986D1*
X879694Y2324466D1*
X879438Y2317946D1*
X878671Y2311467D1*
X877399Y2305067D1*
X875627Y2298788D1*
X873369Y2292666D1*
X870638Y2286741D1*
X867449Y2281048D1*
X863825Y2275623D1*
X859785Y2270499D1*
X855356Y2265708D1*
X850565Y2261279D1*
X845123Y2257027D1*
X846955Y2244932D1*
X847212Y2238412D1*
X846955Y2231892D1*
X846188Y2225413D1*
X844916Y2219014D1*
X843145Y2212734D1*
X840886Y2206613D1*
X838155Y2200687D1*
X834967Y2194994D1*
X831342Y2189569D1*
X827302Y2184445D1*
X822873Y2179654D1*
X818082Y2175225D1*
X812958Y2171186D1*
X807533Y2167561D1*
X801840Y2164373D1*
X795915Y2161641D1*
X789794Y2159383D1*
X783514Y2157612D1*
X777115Y2156339D1*
X770635Y2155572D1*
X754929Y2155316D1*
X689312D1*
X682793Y2155572D1*
X676313Y2156339D1*
X669914Y2157612D1*
X663634Y2159383D1*
X657513Y2161641D1*
X651588Y2164373D1*
X645895Y2167561D1*
X640470Y2171186D1*
X635346Y2175225D1*
X630555Y2179654D1*
X626126Y2184445D1*
X622086Y2189569D1*
X618461Y2194994D1*
X615273Y2200687D1*
X612542Y2206613D1*
X610283Y2212734D1*
X608512Y2219014D1*
X607239Y2225413D1*
X606472Y2231892D1*
X606216Y2238412D1*
X606472Y2244932D1*
X607239Y2251411D1*
X608512Y2257810D1*
X610283Y2264090D1*
X612542Y2270212D1*
X615273Y2276137D1*
X618461Y2281830D1*
X622086Y2287255D1*
X626126Y2292379D1*
X630555Y2297170D1*
X635346Y2301599D1*
X640788Y2305851D1*
X591964Y1862649D2*
X585419Y1862904D1*
X578939Y1863671D1*
X572540Y1864944D1*
X566260Y1866715D1*
X560139Y1868973D1*
X554213Y1871705D1*
X548521Y1874893D1*
X543096Y1878518D1*
X537972Y1882557D1*
X533181Y1886986D1*
X528752Y1891778D1*
X524712Y1896901D1*
X521087Y1902327D1*
X517899Y1908019D1*
X515168Y1913945D1*
X512909Y1920066D1*
X511138Y1926346D1*
X509865Y1932745D1*
X509098Y1939224D1*
X508842Y1945744D1*
X509098Y1952264D1*
X509865Y1958743D1*
X511138Y1965142D1*
X512909Y1971422D1*
X515168Y1977544D1*
X517899Y1983469D1*
X521087Y1989162D1*
X524712Y1994587D1*
X528752Y1999711D1*
X533181Y2004502D1*
X537972Y2008931D1*
X543096Y2012970D1*
X548521Y2016595D1*
X554213Y2019783D1*
X560139Y2022515D1*
X566260Y2024773D1*
X572540Y2026544D1*
X578939Y2027817D1*
X585419Y2028584D1*
X601125Y2028840D1*
X666741D1*
X673261Y2028584D1*
X679741Y2027817D1*
X686140Y2026544D1*
X692420Y2024773D1*
X698541Y2022515D1*
X704466Y2019783D1*
X710159Y2016595D1*
X715584Y2012970D1*
X720708Y2008931D1*
X725499Y2004502D1*
X729928Y1999711D1*
X733968Y1994587D1*
X737593Y1989162D1*
X740781Y1983469D1*
X743512Y1977544D1*
X745771Y1971422D1*
X747542Y1965142D1*
X748814Y1958743D1*
X749581Y1952264D1*
X749838Y1945744D1*
X749581Y1939224D1*
X748814Y1932745D1*
X747542Y1926346D1*
X745771Y1920066D1*
X743512Y1913945D1*
X740781Y1908019D1*
X737593Y1902327D1*
X733968Y1896901D1*
X729928Y1891778D1*
X725499Y1886986D1*
X720708Y1882557D1*
X715584Y1878518D1*
X710159Y1874893D1*
X704466Y1871705D1*
X698541Y1868973D1*
X692420Y1866715D1*
X686140Y1864944D1*
X679741Y1863671D1*
X673261Y1862904D1*
X657555Y1862648D1*
X591939Y1862684D1*
X3867532Y3273491D2*
X3865774Y3262394D1*
X3862302Y3251709D1*
X3857201Y3241698D1*
X3850597Y3232608D1*
X3842653Y3224664D1*
X3833563Y3218060D1*
X3823552Y3212959D1*
X3812867Y3209487D1*
X3801770Y3207730D1*
X3790535D1*
X3782173Y3208943D1*
X3501435Y3208947D1*
X3494987Y3204498D1*
X3484976Y3199397D1*
X3474291Y3195926D1*
X3463194Y3194168D1*
X3451958D1*
X3440861Y3195926D1*
X3430176Y3199397D1*
X3420165Y3204498D1*
X3411076Y3211102D1*
X3403131Y3219047D1*
X3396527Y3228136D1*
X3391426Y3238147D1*
X3387954Y3248833D1*
X3386197Y3259930D1*
Y3271165D1*
X3387954Y3282262D1*
X3391426Y3292947D1*
X3396527Y3302958D1*
X3403131Y3312048D1*
X3411076Y3319992D1*
X3420165Y3326596D1*
X3430176Y3331697D1*
X3440861Y3335169D1*
X3451958Y3336927D1*
X3463194D1*
X3474291Y3335169D1*
X3484976Y3331697D1*
X3494987Y3326596D1*
X3501334Y3322154D1*
X3738944Y3322147D1*
X3745523Y3329738D1*
X3754067Y3337035D1*
X3763647Y3342905D1*
X3774027Y3347205D1*
X3784952Y3349827D1*
X3796152Y3350709D1*
X3807353Y3349827D1*
X3818278Y3347205D1*
X3828658Y3342905D1*
X3838238Y3337035D1*
X3846781Y3329738D1*
X3854078Y3321194D1*
X3859948Y3311615D1*
X3864248Y3301235D1*
X3866871Y3290310D1*
X3867752Y3279109D1*
X3867532Y3273491D1*
X1219997Y2014434D2*
X1220031Y1852179D1*
X1057776D1*
X1057775Y2012047D1*
X1058025Y2018412D1*
X1058774Y2024738D1*
X1060017Y2030986D1*
X1061746Y2037117D1*
X1063951Y2043093D1*
X1066618Y2048878D1*
X1069730Y2054436D1*
X1073269Y2059733D1*
X1077213Y2064735D1*
X1081537Y2069413D1*
X1086215Y2073737D1*
X1091217Y2077681D1*
X1096514Y2081220D1*
X1102072Y2084332D1*
X1107857Y2086999D1*
X1113833Y2089204D1*
X1119964Y2090933D1*
X1126212Y2092176D1*
X1132538Y2092925D1*
X1138903Y2093175D1*
X1145268Y2092925D1*
X1151594Y2092176D1*
X1157842Y2090933D1*
X1163973Y2089204D1*
X1169949Y2086999D1*
X1175734Y2084332D1*
X1181292Y2081220D1*
X1186588Y2077681D1*
X1191591Y2073737D1*
X1196269Y2069413D1*
X1200593Y2064735D1*
X1204536Y2059733D1*
X1208076Y2054436D1*
X1211188Y2048878D1*
X1213855Y2043093D1*
X1216060Y2037117D1*
X1217789Y2030986D1*
X1219032Y2024738D1*
X1219936Y2014459D1*
X1057776Y2012273D2*
X1057812Y2014434D1*
X462579Y3307396D2*
D21*
Y3066473D1*
Y3186934D2*
X545639D1*
X463295Y2788013D2*
Y2547089D1*
Y2667551D2*
X546356D1*
X2178598Y2063018D2*
X2262663D1*
X1634213Y4216587D2*
X1745777D1*
X2178598Y2247082D2*
Y2163018D1*
X2262663D1*
X1328606Y506063D2*
X1412671D1*
X3263912Y4122690D2*
Y4038626D1*
Y4122690D2*
X3347976D1*
X3263912Y4222690D2*
X3347976D1*
X3299058Y3464675D2*
X3383122D1*
X3214994Y3364675D2*
X3383122D1*
X3299058Y3164675D2*
X3383122D1*
X1632782Y1870040D2*
Y1701912D1*
X3299058Y2764675D2*
X3383122D1*
X2899058Y3748739D2*
Y3580610D1*
X3299058Y3748739D2*
Y3664675D1*
X3383122D1*
X1634213Y4016587D2*
Y3905022D1*
Y4016587D2*
X1745777D1*
X1724307Y2747649D2*
Y2579521D1*
X1640243Y2663585D2*
X1724307D1*
X1824307Y2747649D2*
Y2579521D1*
X1924307Y2747649D2*
Y2579521D1*
X2024307Y2747649D2*
Y2579521D1*
X4113912Y4122690D2*
Y4038626D1*
Y4122690D2*
X4197976D1*
X1434213Y4016587D2*
Y3905022D1*
X1240414Y3155312D2*
X1408542D1*
X1247908Y4023033D2*
Y3911469D1*
X1047908Y4023033D2*
Y3911469D1*
X936344Y4023033D2*
X1047908D1*
X4216198Y3796395D2*
Y3712331D1*
X4113912Y4222690D2*
X4197976D1*
X4116198Y3796395D2*
Y3712331D1*
X4032134D2*
X4116198D1*
X4190038Y3072403D2*
Y2904274D1*
X936344Y4223033D2*
X1047908D1*
X1027538Y3019091D2*
X1195666D1*
X508434Y3683163D2*
Y3599099D1*
X529993Y891390D2*
Y807326D1*
X1027538Y2830861D2*
X1195666D1*
X629993Y891390D2*
Y807326D1*
Y891390D2*
X714058D1*
X629993Y1091390D2*
X714058D1*
X629993Y1291390D2*
X714058D1*
X1232783Y2282248D2*
Y2114120D1*
X1148719Y2198184D2*
X1316848D1*
X461720Y2250783D2*
Y2009860D1*
Y2130322D2*
X544781D1*
X1138903Y1933307D2*
Y1852215D1*
X1057812Y1933307D2*
X1219995D1*
D33*
X462579Y3186934D3*
D34*
X760055Y3381079D3*
X727572Y3295025D3*
X630198Y3002357D3*
D33*
X898213Y3037247D3*
X463295Y2667551D3*
D34*
X760772Y2861696D3*
X728289Y2775642D3*
X630915Y2482974D3*
D33*
X898929Y2517864D3*
D35*
X3332782Y2385976D3*
X3913912Y4122690D3*
X1632782Y2385976D3*
X1732782D3*
X2876551Y599736D3*
X3713913Y4222690D3*
X1832782Y2385976D3*
X3713913Y4122690D3*
X1932782Y2385976D3*
X2178598Y2063018D3*
D36*
X1634213Y4216587D3*
D35*
X3913912Y4222690D3*
X2178598Y2163018D3*
X2863913Y4222690D3*
X2078598Y2063018D3*
Y2163018D3*
X3167522Y2508673D3*
X2863913Y4122690D3*
X1978598Y2063018D3*
Y2163018D3*
X3271798Y2507542D3*
X2032782Y2385976D3*
X2963912Y4222690D3*
X2132782Y2385976D3*
X2733509Y1276437D3*
X2232782Y2385976D3*
X1412671Y506063D3*
X2332782Y2385976D3*
X1270510Y764469D3*
X2432782Y2385976D3*
X1449945Y956654D3*
X2532782Y2385976D3*
X1024552Y1636886D3*
X3063912Y4122690D3*
X2632782Y2385976D3*
X3263912Y4122690D3*
X2732782Y2385976D3*
X3163913Y4222690D3*
X2832782Y2385976D3*
X2963912Y4122690D3*
X2932782Y2385976D3*
X3063912Y4222690D3*
X3032782Y2385976D3*
X3163913Y4122690D3*
X3132782Y2385976D3*
X3263912Y4222690D3*
X3232782Y2385976D3*
X3432782D3*
X3299058Y3464675D3*
X3532782Y2385976D3*
X3299058Y3364675D3*
X3632782Y2385976D3*
X3299058Y3264675D3*
X3732782Y2385976D3*
X3299058Y3164675D3*
X3832782Y2385976D3*
X3299058Y3064675D3*
X3932782Y2385976D3*
X3299058Y2964675D3*
X1632782Y1785976D3*
X3299058Y2864675D3*
X1732782Y1785976D3*
X3299058Y2764675D3*
X1832782Y1785976D3*
X2799058Y3664675D3*
X1932782Y1785976D3*
X2899058Y3664675D3*
X2032782Y1785976D3*
X2999058Y3664675D3*
X2132782Y1785976D3*
X3099058Y3664675D3*
X2232782Y1785976D3*
X3199058Y3664675D3*
X2332782Y1785976D3*
X3299058Y3664675D3*
X2432782Y1785976D3*
X2224307Y3663585D3*
X2532782Y1785976D3*
X1724307Y3663585D3*
X2632782Y1785976D3*
X1824307Y3663585D3*
X2732782Y1785976D3*
X1924307Y3663585D3*
X2832782Y1785976D3*
D36*
X1634213Y4016587D3*
D35*
X2932782Y1785976D3*
X2024307Y3663585D3*
X3032782Y1785976D3*
X2124307Y3663585D3*
X3132782Y1785976D3*
X2224307Y2663585D3*
X3232782Y1785976D3*
X1724307Y2663585D3*
X3332782Y1785976D3*
X1824307Y2663585D3*
X3432782Y1785976D3*
X1924307Y2663585D3*
X3813912Y4222690D3*
X3532782Y1785976D3*
X3632782D3*
X2024307Y2663585D3*
X4113912Y4122690D3*
X3732782Y1785976D3*
X4013913Y4222690D3*
X3832782Y1785976D3*
X3932782D3*
X2124307Y2663585D3*
X3230026Y1631055D3*
D36*
X1434213Y4016587D3*
D35*
X3330026Y1631055D3*
X3430026D3*
X1882782Y1885976D3*
X1324476Y3057188D3*
X2282782Y1885976D3*
X1324478Y3155312D3*
X1982782Y1885976D3*
D36*
X1434213Y4216587D3*
D35*
X2082782Y1885976D3*
D36*
X1534213Y4116587D3*
X1247908Y4223033D3*
D35*
X2182782Y1885976D3*
D36*
X1247908Y4023033D3*
X1047908D3*
D35*
X4216198Y3712331D3*
Y3612331D3*
Y3512331D3*
Y3412331D3*
Y3312331D3*
X3813912Y4122690D3*
X3299058Y2664675D3*
X4013913Y4122690D3*
X4113912Y4222690D3*
X4116198Y3712331D3*
Y3612331D3*
Y3412331D3*
Y3512331D3*
Y3312331D3*
X1322287Y3254297D3*
X4190038Y2988339D3*
X4071928D3*
D36*
X1047908Y4223033D3*
X1147908Y4123033D3*
D35*
X1111602Y2924975D3*
Y3113205D3*
Y3019091D3*
X3130026Y1631055D3*
X508434Y3683163D3*
X608434D3*
X3839560Y2546248D3*
X3940207Y2543017D3*
X529993Y1491390D3*
Y1391390D3*
X508434Y3783161D3*
X529993Y1291390D3*
X608434Y3883161D3*
X529993Y1191390D3*
X608434Y4083161D3*
X529993Y1091390D3*
X508434Y3983163D3*
X529993Y991390D3*
Y891390D3*
X1111602Y2830861D3*
X629993Y891390D3*
X608434Y3783161D3*
X629993Y991390D3*
X508434Y3883161D3*
X629993Y1091390D3*
X608434Y3983163D3*
X629993Y1191390D3*
X508434Y4083161D3*
X629993Y1291390D3*
X1232783Y2198184D3*
X629993Y1391390D3*
X1111602Y2736745D3*
X629993Y1491390D3*
Y1591390D3*
X529993D3*
D37*
X1149597Y3844336D3*
X1529430Y3831537D3*
X3481665Y2732430D3*
D35*
X3914346Y758276D3*
X2674337Y768232D3*
X2774337D3*
X2874337D3*
D33*
X461720Y2130322D3*
D34*
X759197Y2324466D3*
X726714Y2238412D3*
X629340Y1945744D3*
D33*
X897354Y1980634D3*
D35*
X1642591Y623143D3*
X1692591Y823143D3*
X1742591Y623143D3*
X1792591Y823143D3*
X1842591Y623143D3*
X1892591Y823143D3*
X1942591Y623143D3*
X1992591Y823143D3*
X2042591Y623143D3*
X2092591Y823143D3*
X2142591Y623143D3*
X2192591Y823143D3*
X2242591Y623143D3*
X2292591Y823143D3*
X2342591Y623143D3*
D37*
X1161907Y2337325D3*
D45*
X1138903Y1933307D3*
D46*
Y2012047D3*
D96*
X1487558Y1382909D3*
D47*
X1537558D3*
X1587558D3*
D37*
X3787158Y1289332D3*
M02*
