M48
INCH
T01C0.0191
T02C0.0276
T03C0.0354
T04C0.0394
T05C0.06
T06C0.125
%
T01
X+008960Y+012908
X+009304Y+011652
X+010253Y+008496
X+013414Y+008244
X+013310Y+005338
X+018310Y+007260
X+019898Y+014187
X+022394Y+014187
X+022428Y+016854
X+023438Y+021730
X+025773Y+023289
X+029195Y+019990
X+029512Y+019014
X+030080Y+020542
X+031792Y+020416
X+034630Y+020887
X+035349Y+022703
X+033798Y+023226
X+037136Y+026590
X+035265Y+028165
X+036491Y+028971
X+037040Y+030526
X+039032Y+031933
X+037962Y+032791
X+038027Y+034549
X+040126Y+033119
X+039307Y+038015
X+036240Y+037277
X+036093Y+038100
X+033681Y+035896
X+031028Y+034970
X+031028Y+032577
X+030662Y+031244
X+031835Y+028122
X+030850Y+027152
X+030272Y+027906
X+034576Y+032655
X+031123Y+039487
X+029087Y+039487
X+026821Y+036009
X+024856Y+038764
X+021955Y+040003
X+022300Y+040841
X+025075Y+042128
X+025727Y+042111
X+018807Y+040273
X+018272Y+039328
X+016903Y+035339
X+017972Y+032182
X+016903Y+031358
X+017405Y+030925
X+019940Y+031310
X+022340Y+031163
X+022840Y+032446
X+023335Y+032886
X+023707Y+033425
X+010153Y+033214
X+005919Y+035328
X+006348Y+026375
X+010273Y+025604
X+011713Y+025579
X+014233Y+023558
X+013336Y+021962
X+015836Y+021373
X+017157Y+021215
X+014327Y+016633
X+014367Y+016029
X+015583Y+015355
X+012271Y+015564
X+011443Y+015689
X+009564Y+016677
X+009564Y+018266
X+025462Y+007260
X+028849Y+013934
X+032988Y+014890
X+033993Y+011700
X+040132Y+017089
X+042084Y+017036
X+042076Y+019572
X+038991Y+021420
X+041281Y+026590
X+042440Y+013810
X+042222Y+011023
X+034884Y+041200
T02
X+014876Y+013829
X+015376Y+013829
X+015876Y+013829
T03
X+033328Y+023860
X+032328Y+023860
X+031328Y+023860
X+030328Y+023860
X+029328Y+023860
X+028328Y+023860
X+027328Y+023860
X+026328Y+023860
X+025328Y+023860
X+024328Y+023860
X+023328Y+023860
X+022328Y+023860
X+021328Y+023860
X+020328Y+023860
X+019328Y+023860
X+018328Y+023860
X+017328Y+023860
X+016328Y+023860
X+017243Y+026636
X+018243Y+026636
X+019243Y+026636
X+020243Y+026636
X+021243Y+026636
X+022243Y+026636
X+021786Y+021630
X+021786Y+020630
X+020786Y+020630
X+020786Y+021630
X+019786Y+021630
X+019786Y+020630
X+019828Y+018860
X+018828Y+018860
X+019328Y+017860
X+020328Y+017860
X+021328Y+017860
X+022328Y+017860
X+023328Y+017860
X+024328Y+017860
X+025328Y+017860
X+026328Y+017860
X+027328Y+017860
X+028328Y+017860
X+029328Y+017860
X+030328Y+017860
X+031328Y+017860
X+032328Y+017860
X+033328Y+017860
X+034328Y+017860
X+035328Y+017860
X+036328Y+017860
X+037328Y+017860
X+038328Y+017860
X+039328Y+017860
X+037872Y+012893
X+034300Y+016311
X+033300Y+016311
X+032300Y+016311
X+031300Y+016311
X+027335Y+012764
X+027743Y+007682
X+026743Y+007682
X+028743Y+007682
X+028766Y+005997
X+023426Y+006231
X+022426Y+006231
X+021426Y+006231
X+020426Y+006231
X+019426Y+006231
X+018426Y+006231
X+017426Y+006231
X+016426Y+006231
X+016926Y+008231
X+017926Y+008231
X+018926Y+008231
X+019926Y+008231
X+020926Y+008231
X+021926Y+008231
X+022926Y+008231
X+014499Y+009567
X+012705Y+007645
X+014127Y+005061
X+006300Y+008914
X+005300Y+008914
X+005300Y+009914
X+005300Y+010914
X+005300Y+011914
X+006300Y+011914
X+006300Y+010914
X+006300Y+009914
X+006300Y+012914
X+005300Y+012914
X+005300Y+013914
X+005300Y+014914
X+006300Y+014914
X+006300Y+013914
X+006300Y+015914
X+005300Y+015914
X+010246Y+016369
X+011389Y+019333
X+011389Y+020120
X+012328Y+021982
X+011619Y+023373
X+011116Y+027367
X+011116Y+028309
X+011116Y+029250
X+011116Y+030191
X+011116Y+031132
X+013245Y+031553
X+013245Y+030572
X+013223Y+032543
X+017243Y+036636
X+018243Y+036636
X+019243Y+036636
X+020243Y+036636
X+021243Y+036636
X+022243Y+036636
X+027991Y+036647
X+028991Y+036647
X+029991Y+036647
X+030991Y+036647
X+031991Y+036647
X+032991Y+036647
X+032991Y+034647
X+032991Y+033647
X+032991Y+032647
X+032991Y+031647
X+032991Y+030647
X+032991Y+029647
X+032991Y+028647
X+032991Y+027647
X+032991Y+026647
X+032718Y+025075
X+031675Y+025087
X+034328Y+023860
X+035328Y+023860
X+036328Y+023860
X+037328Y+023860
X+038328Y+023860
X+039328Y+023860
X+039402Y+025430
X+038396Y+025462
X+034817Y+027324
X+040719Y+029883
X+041900Y+029883
X+042162Y+033123
X+042162Y+034123
X+042162Y+035123
X+041162Y+035123
X+041162Y+034123
X+041162Y+033123
X+041162Y+036123
X+041162Y+037123
X+042162Y+037123
X+042162Y+036123
X+041139Y+041227
X+040139Y+041227
X+040139Y+042227
X+041139Y+042227
X+039139Y+042227
X+039139Y+041227
X+038139Y+041227
X+037139Y+041227
X+037139Y+042227
X+038139Y+042227
X+032639Y+042227
X+031639Y+042227
X+031639Y+041227
X+032639Y+041227
X+030639Y+041227
X+030639Y+042227
X+029639Y+042227
X+028639Y+042227
X+028639Y+041227
X+029639Y+041227
X+015294Y+038315
X+011496Y+038443
X+006084Y+038832
X+005084Y+038832
X+005084Y+037832
X+005084Y+036832
X+006084Y+036832
X+006084Y+037832
X+006084Y+039832
X+006084Y+040832
X+005084Y+040832
X+005084Y+039832
X+016328Y+017860
X+017328Y+017860
X+018328Y+017860
X+020828Y+018860
X+021828Y+018860
X+022828Y+018860
X+039143Y+007583
T04
X+004626Y+031495G85X+004626Y+032243
X+006676Y+030024G85X+005928Y+030024
X+007982Y+028617G85X+007234Y+028617
X+007657Y+027756G85X+006909Y+027756
X+004633Y+026301G85X+004633Y+027050
X+006683Y+024830G85X+005935Y+024830
X+007966Y+023245G85X+007218Y+023245
X+007641Y+022384G85X+006893Y+022384
X+004617Y+020929G85X+004617Y+021677
X+006667Y+019457G85X+005919Y+019457
X+008974Y+019432G85X+008974Y+020180
X+008989Y+024805G85X+008989Y+025553
X+008982Y+029998G85X+008982Y+030746
X+007650Y+032950G85X+006902Y+032950
X+007975Y+033811G85X+007227Y+033811
T05
X+016342Y+042166
X+015342Y+041166
X+014342Y+042166
X+012479Y+042230
X+011479Y+041230
X+010479Y+042230
X+010479Y+040230
X+012479Y+040230
X+014342Y+040166
X+016342Y+040166
T06
X+042052Y+005185
X+005550Y+005436
T00
M30
