G04 DipTrace 3.3.1.1*
G04 TopDimension.gbr*
%MOIN*%
G04 #@! TF.FileFunction,Drawing,Top*
G04 #@! TF.Part,Single*
%ADD13C,0.001378*%
%ADD91C,0.006176*%
%FSLAX26Y26*%
G04*
G70*
G90*
G75*
G01*
G04 TopDimension*
%LPD*%
X394016Y4331024D2*
D13*
Y4583853D1*
X4331024Y4331024D2*
Y4583853D1*
X2362520Y4564168D2*
X433386D1*
G36*
X394016D2*
X433386Y4572042D1*
Y4556294D1*
X394016Y4564168D1*
G37*
X2362520D2*
D13*
X4291654D1*
G36*
X4331024D2*
X4291654Y4556294D1*
Y4572042D1*
X4331024Y4564168D1*
G37*
X394016Y4331024D2*
D13*
X163806D1*
X394016Y394016D2*
X163806D1*
X183491Y2362520D2*
Y4291654D1*
G36*
Y4331024D2*
X191365Y4291654D1*
X175617D1*
X183491Y4331024D1*
G37*
Y2362520D2*
D13*
Y433386D1*
G36*
Y394016D2*
X175617Y433386D1*
X191365D1*
X183491Y394016D1*
G37*
X2321664Y4608877D2*
D91*
X2325511Y4610823D1*
X2331259Y4616527D1*
Y4576379D1*
X2355106Y4616527D2*
X2349358Y4614625D1*
X2345512Y4608877D1*
X2343610Y4599327D1*
Y4593579D1*
X2345512Y4584028D1*
X2349358Y4578280D1*
X2355106Y4576379D1*
X2358909D1*
X2364657Y4578280D1*
X2368459Y4584028D1*
X2370405Y4593579D1*
Y4599327D1*
X2368459Y4608877D1*
X2364657Y4614625D1*
X2358909Y4616527D1*
X2355106D1*
X2368459Y4608877D2*
X2345512Y4584028D1*
X2394252Y4616527D2*
X2388504Y4614625D1*
X2384658Y4608877D1*
X2382756Y4599327D1*
Y4593579D1*
X2384658Y4584028D1*
X2388504Y4578280D1*
X2394252Y4576379D1*
X2398055D1*
X2403803Y4578280D1*
X2407606Y4584028D1*
X2409551Y4593579D1*
Y4599327D1*
X2407606Y4608877D1*
X2403803Y4614625D1*
X2398055Y4616527D1*
X2394252D1*
X2407606Y4608877D2*
X2384658Y4584028D1*
X138782Y2321664D2*
X136836Y2325511D1*
X131132Y2331259D1*
X171280D1*
X131132Y2355106D2*
X133034Y2349358D1*
X138782Y2345512D1*
X148332Y2343610D1*
X154080D1*
X163631Y2345512D1*
X169379Y2349358D1*
X171280Y2355106D1*
Y2358909D1*
X169379Y2364657D1*
X163631Y2368459D1*
X154080Y2370405D1*
X148332D1*
X138782Y2368459D1*
X133034Y2364657D1*
X131132Y2358909D1*
Y2355106D1*
X138782Y2368459D2*
X163631Y2345512D1*
X131132Y2394252D2*
X133034Y2388504D1*
X138782Y2384658D1*
X148332Y2382756D1*
X154080D1*
X163631Y2384658D1*
X169379Y2388504D1*
X171280Y2394252D1*
Y2398055D1*
X169379Y2403803D1*
X163631Y2407606D1*
X154080Y2409551D1*
X148332D1*
X138782Y2407606D1*
X133034Y2403803D1*
X131132Y2398055D1*
Y2394252D1*
X138782Y2407606D2*
X163631Y2384658D1*
M02*
