G04 DipTrace 3.3.1.1*
G04 Top.gbr*
%MOIN*%
G04 #@! TF.FileFunction,Copper,L1,Top*
G04 #@! TF.Part,Single*
%AMOUTLINE0*
4,1,8,
-0.019685,-0.029528,
-0.009843,-0.03937,
0.009843,-0.03937,
0.019685,-0.029528,
0.019685,0.029528,
0.009843,0.03937,
-0.009843,0.03937,
-0.019685,0.029528,
-0.019685,-0.029528,
0*%
G04 #@! TA.AperFunction,Conductor*
%ADD14C,0.027559*%
%ADD15C,0.023622*%
%ADD16C,0.011811*%
%ADD17C,0.03*%
%ADD18C,0.03937*%
%ADD19C,0.01*%
G04 #@! TA.AperFunction,CopperBalancing*
%ADD20C,0.04*%
%ADD21C,0.012992*%
%ADD22C,0.013*%
%ADD25R,0.062992X0.124016*%
%ADD26R,0.070866X0.062992*%
%ADD27R,0.062992X0.070866*%
%ADD29R,0.124016X0.062992*%
G04 #@! TA.AperFunction,ComponentPad*
%ADD30O,0.062992X0.137795*%
%ADD31O,0.137795X0.062992*%
%ADD32C,0.065*%
%ADD33C,0.12*%
%ADD34C,0.059055*%
%ADD35O,0.03937X0.07874*%
%ADD37R,0.025591X0.041339*%
%ADD39R,0.023622X0.07874*%
%ADD40R,0.055118X0.011811*%
%ADD42R,0.094488X0.086614*%
G04 #@! TA.AperFunction,ComponentPad*
%ADD83OUTLINE0*%
%FSLAX26Y26*%
G04*
G70*
G90*
G75*
G01*
G04 Top*
%LPD*%
X1325904Y1025778D2*
D14*
Y1022272D1*
X1388790D1*
X1424091Y986971D1*
X629978Y1191374D2*
X904133D1*
X930358Y1165148D1*
X1025257Y1130060D2*
X990169Y1165148D1*
X930358D1*
X529978Y1191374D2*
X629978D1*
X1424091Y986971D2*
Y652101D1*
X1612387Y463804D1*
X2939719D1*
X3067722Y591807D1*
X3166735D1*
X1632766Y2385961D2*
X1749104Y2502298D1*
X2063020D1*
X2224291Y2663570D1*
X529978Y1191374D2*
X510379D1*
X447591Y1254163D1*
Y1606738D1*
X578314Y1737461D1*
X1183774D1*
X1583602Y2137289D1*
X1325904Y1025778D2*
X1330281D1*
Y1145654D1*
X1325236D1*
X1436657Y1602911D2*
X1434131Y1605437D1*
X1378378D1*
Y1715980D1*
Y1605437D2*
X1342761Y1641054D1*
X1024537D1*
Y1636870D1*
X1558252Y1535472D2*
X2128398D1*
Y1550723D1*
X3989912D1*
X4094000Y1654811D1*
Y2981008D1*
X629978Y1391374D2*
X529978D1*
X1022320Y1489035D2*
X1015946D1*
X918285Y1391374D1*
X629978D1*
X1024537Y1636870D2*
X1025154Y1636253D1*
Y1489035D1*
X1022320D1*
X3942112Y2917945D2*
X4036025D1*
X4094000Y2975920D1*
Y2981008D1*
X2128398Y1156373D2*
Y1535472D1*
X1880694Y4027328D2*
Y4179676D1*
X1909814Y4208795D1*
X1970585D1*
X3522465Y3382509D2*
D15*
Y3568860D1*
X3580168Y3626563D1*
X3699198D1*
X4013898Y4222675D2*
D14*
Y4122675D1*
X1022320Y744648D2*
Y708748D1*
X1081946Y649122D1*
X1269907D1*
X2124291Y2663570D2*
Y2654667D1*
X2043445Y2573820D1*
X1636734D1*
X1418694Y2355781D1*
X1423238D1*
X1970585Y4208795D2*
Y4270293D1*
X2088696D1*
X2246176D1*
Y4208795D1*
X3699198Y3626563D2*
X3802690D1*
Y3626598D1*
X3163898Y4122675D2*
Y4222675D1*
X3699198Y3626563D2*
X3690504D1*
Y3885387D1*
X3163898D1*
X2888748D1*
X2794000Y3790639D1*
Y3699793D1*
X629978Y991374D2*
X529978D1*
X2088696Y4270293D2*
Y4208795D1*
X2224291Y3663570D2*
D16*
Y3797986D1*
X2126588Y3895689D1*
X2075454D1*
X2794000Y3699793D2*
D14*
X2391371D1*
X2355148Y3663570D1*
X2224291D1*
X3163898Y4122675D2*
Y3885387D1*
X4116182Y3612315D2*
X4216182D1*
X1270495Y764453D2*
X1226130Y808818D1*
Y1555491D1*
X1227041Y1556402D1*
X1269907Y649122D2*
Y764453D1*
X1270495D1*
X3802690Y3626598D2*
X3952062D1*
X3966345Y3612315D1*
X4116182D1*
X2075454Y3895689D2*
D16*
X1983367D1*
Y3954744D1*
X1902226D1*
X629978Y991374D2*
D14*
X731324D1*
X978050Y744648D1*
X1022320D1*
X3690504Y3885387D2*
X3846957D1*
X4013898Y4052328D1*
Y4122675D1*
X629978Y891374D2*
X961038Y560314D1*
X1022320D1*
Y551735D1*
X629978Y1291374D2*
X895071D1*
Y1302367D1*
X1022320D1*
Y1296122D1*
X1341362Y824387D2*
X1325904D1*
Y915542D1*
X1378378Y1826217D2*
Y1821668D1*
X1551676D1*
X1587383Y1785961D1*
X1632766D1*
X1025320Y849549D2*
X1025257Y849612D1*
Y937147D1*
X895987Y1290752D2*
X895071Y1291374D1*
X1330955Y533740D2*
Y529367D1*
X1269907D1*
Y538886D1*
X1022320Y551735D2*
X1003474D1*
Y529367D1*
X1269907D1*
X1432703Y1663299D2*
D17*
X1443652D1*
X1500512Y1720159D1*
X1521581D1*
X1587383Y1785961D1*
X3822465Y3169911D2*
D15*
Y3193323D1*
X3903226D1*
X2356412Y4208795D2*
D14*
X2507469D1*
Y4212777D1*
X3802690Y3516362D2*
Y3454864D1*
X3802692D1*
X1902226Y3935059D2*
D16*
X1833566D1*
X1831304Y3932798D1*
X1827189D1*
X2894000Y3699793D2*
D14*
X2898197D1*
Y3767226D1*
X3294000D1*
Y3699793D1*
Y3456008D1*
X3319000D1*
Y3356008D1*
X3247774D1*
Y3165004D1*
X3319000D1*
Y3156008D1*
X2233957Y3116244D2*
D18*
X3066151D1*
Y3124420D1*
X3942112Y3028181D2*
D14*
X3950070D1*
X3988668Y3066780D1*
X4116408D1*
X4194000Y2989188D1*
Y2981008D1*
X2178583Y2163003D2*
D19*
Y2063003D1*
X2182766D1*
Y1885961D1*
X3112264Y3948689D2*
D14*
X2908661D1*
X2239336Y1418667D2*
X2330110D1*
Y1308869D1*
X2884927Y1393395D2*
X2933046D1*
X2933944Y1392497D1*
X3005951D1*
X2899210Y1142329D2*
X2873727D1*
X2826268Y1189789D1*
Y1334736D1*
X2884927Y1393395D1*
X3399291Y1169993D2*
Y1184315D1*
X3397623Y1185983D1*
Y1231416D1*
X1766852Y1330978D2*
X1778000D1*
Y1305652D1*
X1764102D1*
Y1417799D1*
X1989804D1*
Y1418667D1*
X2744837Y838732D2*
D19*
Y869029D1*
X2737982D1*
X2682210Y924801D1*
Y989059D1*
X2673207Y998062D1*
Y1248622D1*
X2636249Y1285580D1*
X2567619D1*
X2136944Y623127D2*
D14*
Y675129D1*
X2089829Y722243D1*
Y736848D1*
X2330110Y1308869D2*
Y1417505D1*
X2442694D1*
X2504004Y1356196D1*
Y1359186D1*
X2577610Y1285580D1*
X2567619D1*
X2086944Y823127D2*
Y728289D1*
X2136944Y678289D1*
Y623127D1*
X1587542Y1382894D2*
D19*
X1669886D1*
Y1417799D1*
X1764102D1*
X1587542Y1382894D2*
X1665667D1*
Y1237192D1*
X1609829D1*
D14*
X1607974D1*
Y1134652D1*
X1047892Y4023017D2*
Y4223017D1*
X1247892D1*
X1174791Y4232827D2*
D19*
X1247892D1*
Y4223017D1*
X1434197Y4216571D2*
D14*
X1247892D1*
Y4223017D1*
X1434197Y4216571D2*
X1634197D1*
X1247892Y4223017D2*
Y4023017D1*
X1434197Y4216571D2*
Y4016571D1*
X1634197D1*
X1333570Y2196186D2*
X1715648D1*
Y2121438D1*
X4223394Y966386D2*
Y1102255D1*
X4222211D1*
X3859633Y765634D2*
X4026841D1*
Y772941D1*
X3859633Y765634D2*
X3860367D1*
Y564051D1*
X3813925D1*
X3276971Y591807D2*
D19*
Y570272D1*
X3375328Y668629D1*
X3430530D1*
X3542983Y565546D1*
X3703689Y564051D1*
X3666719Y765634D2*
X3542388D1*
X3534169Y757415D1*
Y720197D1*
X3482601Y668629D1*
X3430530D1*
X3678058Y1009467D2*
Y969772D1*
X3737185D1*
X3735954Y971003D1*
X3905202D1*
Y964336D1*
X3678058Y1009467D2*
Y765634D1*
X3666719D1*
X2322429Y1108274D2*
X2330110Y1115955D1*
X2408802D1*
X2468190Y1175344D1*
X2567619D1*
X1836944Y623127D2*
D14*
Y589791D1*
X1877714Y549021D1*
X2262625D1*
X2331424Y617820D1*
X2336944D1*
Y623127D1*
X1836944D2*
D19*
X1832818D1*
X1724714Y731231D1*
Y950766D1*
X1762021Y988073D1*
Y1022299D1*
X2336944Y623127D2*
D17*
Y635698D1*
X2442587Y741341D1*
Y903117D1*
X2335909Y1009794D1*
X2128398D1*
Y1046136D1*
D19*
X2162539D1*
X2232358Y1115955D1*
X2330110D1*
X2932766Y1785961D2*
X2941560Y1777167D1*
X3007974Y1843580D1*
Y2054232D1*
X3534890Y2270277D2*
Y2268633D1*
X3714273D1*
X3781000Y2335360D1*
Y3040371D1*
X3772465D1*
Y3169911D1*
X3622465D2*
Y3052623D1*
X3703938D1*
X4012563Y3311850D2*
X4113028Y3412315D1*
X4116182D1*
X1534197Y4116571D2*
X1704392D1*
X1762325Y4174504D1*
X1800407D1*
X3183509Y2812163D2*
Y2808395D1*
X3439067D1*
X3572465Y2941793D1*
Y3169911D1*
X1877978Y3799562D2*
X1755424Y3922115D1*
X1422962D1*
X1423686Y3921391D1*
X1190643D1*
X1147892Y3964142D1*
Y4123017D1*
Y3964142D2*
X1149581D1*
Y3844320D1*
X2364286Y3842654D2*
Y3812822D1*
X2261734Y3915374D1*
X2075454D1*
X4116182Y3512315D2*
X4065638Y3562860D1*
X3699198D1*
Y3516327D1*
X3672465Y3169911D2*
Y3248512D1*
X3722465Y3298512D1*
Y3382509D1*
X3522465Y3169911D2*
Y2998879D1*
X3427690Y2904105D1*
X3205185D1*
X3084945Y2783865D1*
Y2715160D1*
X3522465Y3169911D2*
Y3222488D1*
X3548488Y3248512D1*
X3672465D1*
X3699198Y3516327D2*
Y3487667D1*
X3718387Y3468478D1*
Y3413881D1*
X3722465Y3417958D1*
Y3382509D1*
X4216182Y3412315D2*
X4168681Y3459816D1*
X3890567D1*
X3822465Y3391714D1*
Y3382509D1*
X3732766Y1785961D2*
D16*
Y1808138D1*
X3663705Y1877199D1*
X3187783D1*
X3068178Y1996804D1*
Y2227598D1*
X2039554D1*
X2020496Y2246656D1*
X1364665D1*
X1315769Y2295552D1*
Y2433383D1*
X1414420Y2532034D1*
Y3336499D1*
X1300870Y3450049D1*
X792801D1*
X671874Y3570975D1*
X489720D1*
X432051Y3628644D1*
Y4033857D1*
X482579Y4084385D1*
X508419D1*
Y4083146D1*
X2078583Y2163003D2*
D19*
X2071793D1*
X2030097Y2121307D1*
Y1941873D1*
X1982766Y1894542D1*
Y1885961D1*
X2075454Y3935059D2*
X2268039D1*
X2364286Y4031306D1*
Y4090685D1*
X2078583Y2063003D2*
X2080937D1*
Y1952508D1*
X2082766D1*
Y1885961D1*
X1902226Y3974429D2*
X1858108D1*
X1800407Y4032130D1*
Y4064268D1*
X1978583Y2163003D2*
Y2063003D1*
Y2080260D1*
X1882766Y1984444D1*
Y1885961D1*
X760756Y2861680D2*
X848560D1*
X1094000Y3107119D1*
Y3131008D1*
X2242783Y1685375D2*
X2332766Y1775358D1*
Y1785961D1*
X2088696Y4098559D2*
X2131241D1*
Y4000273D1*
X2195440D1*
X2075454Y3954744D2*
X2131749D1*
Y4098559D1*
X2088696D1*
X630899Y2482958D2*
X680283D1*
X679327Y2483915D1*
X636995D1*
Y2510184D1*
X680781Y2553970D1*
X686167D1*
X1058619Y2926423D1*
X1094000D1*
Y2931008D1*
X630182Y3002341D2*
X613199D1*
X870206Y3259348D1*
X1265660D1*
X1318236Y3206772D1*
Y3219272D1*
X1306500Y3231008D1*
X2229965Y4084064D2*
Y4089100D1*
X2159606Y4159458D1*
X1960810D1*
Y4132974D1*
X1970585Y4123198D1*
Y4098559D1*
Y4009745D1*
X1990585Y3989745D1*
X2075454D1*
Y3974429D1*
X1766852Y1220741D2*
X1761993D1*
Y1149202D1*
X1762021Y1149175D1*
Y1132535D1*
X1957932Y1204891D2*
X1766852D1*
Y1220741D1*
X1957932Y1204891D2*
X2036944D1*
Y623127D1*
X1834013Y3451425D2*
Y3529946D1*
X1724291Y3639668D1*
Y3663570D1*
X1924291D2*
Y3571419D1*
X1972693Y3523017D1*
Y3448736D1*
X2024291Y3663570D2*
Y3600076D1*
X2120432Y3503936D1*
Y3454073D1*
X4111539Y1226358D2*
X4146635D1*
Y1404427D1*
X4143563D1*
Y2658109D1*
X3712699D2*
X3715248Y2660657D1*
X3290243D1*
X3294892Y2656008D1*
X3319000D1*
X3773984Y1317278D2*
Y1321059D1*
X3857352Y1404427D1*
X4143563D1*
X3532766Y2385961D2*
X3530786Y2383980D1*
Y2437408D1*
X3470331Y2497864D1*
Y2535080D1*
X3451214Y2554197D1*
X2580537D1*
X2247879Y2886854D1*
X1676173D1*
X1567665Y2995362D1*
Y3479178D1*
X1396600Y3650244D1*
X930642D1*
X824365Y3756521D1*
X730446D1*
X654921Y3832046D1*
X567786D1*
X518886Y3783146D1*
X508419D1*
X1094000Y2731008D2*
Y2386178D1*
X1044240Y2336419D1*
X1008047D1*
X624144Y1952516D1*
Y1945728D1*
X629324D1*
X1161891Y2337310D2*
X1044240Y2336419D1*
X1690261Y3135823D2*
Y3533909D1*
X1740484Y3092441D2*
Y3580890D1*
X1651688D1*
X1649499Y3578701D1*
X1637037D1*
X1425850Y3789887D1*
X988524D1*
X795264Y3983147D1*
X608419D1*
X3640656Y1100018D2*
Y1164909D1*
X3574150Y1231416D1*
X3507860D1*
Y1094387D1*
X3470585D1*
X3433184Y1003836D2*
Y778865D1*
X3430530D1*
X3296509Y890203D2*
X3326190D1*
Y829038D1*
X3376364Y778865D1*
X3430530D1*
X3395782Y1094387D2*
X3288193D1*
X3237465Y1145115D1*
X3230735D1*
X3009446Y1142329D2*
X3028627D1*
X3031413Y1145115D1*
X3120499D1*
Y1340235D1*
X3172761Y1392497D1*
X3198865D1*
X3732766Y2385961D2*
Y2401811D1*
X3528046Y2606531D1*
X3225018D1*
X3181104Y2650446D1*
X2582804D1*
X2260375Y2972875D1*
X1708370D1*
X1648667Y3032579D1*
Y3510450D1*
X1411245Y3747871D1*
X965025D1*
X782648Y3930248D1*
X612773D1*
Y3933453D1*
X558726D1*
X508419Y3883146D1*
X3432766Y2385961D2*
X3434555D1*
Y2296938D1*
X3179159Y2041542D1*
X2951196Y1901429D2*
X2646890D1*
X2581213Y1835752D1*
X1684932D1*
Y1719741D1*
X1654262Y1689072D1*
X1637635D1*
X1639824Y1686883D1*
X1589482D1*
X1497533Y1594934D1*
Y1599314D1*
X1405316Y1507097D1*
X1316718D1*
X1537542Y1382894D2*
Y1346785D1*
X1499593Y1308836D1*
Y1237192D1*
X1316718Y1396861D2*
X1338667D1*
X1412437Y1470631D1*
X1505407D1*
X1537542Y1438496D1*
Y1382894D1*
X1499593Y1237192D2*
X1497738D1*
Y1134652D1*
X1886944Y823127D2*
Y817127D1*
X1813404Y743588D1*
X2594251D2*
Y714226D1*
X2624678Y683798D1*
X2653545D1*
X760039Y3381063D2*
Y3398466D1*
X769912Y3388593D1*
X1284308D1*
X1381759Y3291143D1*
Y3102974D1*
X1309793Y3031008D1*
X1306500D1*
X3832766Y1785961D2*
Y1796320D1*
X3777717Y1851370D1*
Y1848420D1*
X3710407Y1915730D1*
X3219310D1*
X3116343Y2018697D1*
Y2243241D1*
X3081991Y2277593D1*
X2094825D1*
X2080887Y2291531D1*
X1359554D1*
Y2408294D1*
X1453825Y2502566D1*
Y3415693D1*
X1367567Y3501951D1*
X834251D1*
X723633Y3612570D1*
X491911D1*
X453944Y3650537D1*
Y4016728D1*
X468845Y4031630D1*
X593189D1*
X608419Y4046860D1*
Y4083146D1*
X3796136Y3279093D2*
X3771367D1*
Y3382509D1*
X3772465D1*
X3457560Y3265531D2*
Y3027193D1*
X3436140Y3005773D1*
X3232171D1*
X3027230Y2800832D1*
Y2790559D1*
X3102818Y3257647D2*
Y3496937D1*
X1902226Y3915374D2*
X1961501D1*
Y3799562D1*
X1988214D1*
X4113157Y966386D2*
X4015438D1*
Y964336D1*
Y1010573D1*
X3967382Y1058630D1*
X3919073D1*
X3826953Y1150751D1*
X3814594D1*
X3821127D1*
X3826951D1*
X3814594D2*
X3715459D1*
Y1100018D1*
X3918626Y1226358D2*
X3937598D1*
X3951177Y1212778D1*
X3821127D1*
Y1150751D1*
X1834013Y3341189D2*
Y3316045D1*
X1902369Y3247689D1*
X2268923D1*
X2271999Y3244613D1*
X2283997D1*
X2762736D1*
X3217916Y3699793D1*
X3194000D1*
X1972693Y3338500D2*
X1976983D1*
Y3309457D1*
X1997822Y3288618D1*
X2333455D1*
Y3286566D1*
X2752609D1*
X2995071Y3529028D1*
Y3699793D1*
X2994000D1*
X2370644Y3342449D2*
X2369256Y3343837D1*
X2120432D1*
X3319000Y3256008D2*
X3366545Y3208463D1*
Y3103552D1*
X3319000Y3056008D1*
X2876535Y599720D2*
Y693853D1*
X2944837Y762155D1*
Y838732D1*
X3072075D1*
X3103596Y870253D1*
Y890203D1*
X2577290Y2328844D2*
X3294425D1*
X3332766Y2367185D1*
Y2385961D1*
X1487542Y1382894D2*
X1468151D1*
X1410400Y1325143D1*
Y1255890D1*
X1325236D1*
X1410400D2*
Y1086589D1*
X1422550Y1074440D1*
X1844769D1*
X1893619Y1025589D1*
Y927440D1*
X1997932Y823127D1*
X1986944D1*
X4013193Y1708862D2*
Y1682504D1*
X2908348D1*
X2876828Y1650984D1*
X2067743D1*
X1932766Y1785961D1*
X4208423Y1703631D2*
X4288745Y1783954D1*
Y4173967D1*
X4165738Y4296975D1*
X3964689D1*
X3914866Y4247152D1*
Y4211059D1*
X3903251Y4222675D1*
X3913896D1*
X2485580Y3876390D2*
Y3969270D1*
X2807083Y4290773D1*
X3759089D1*
X3815629Y4234234D1*
Y4222675D1*
X3813896D1*
X3623972Y3727726D2*
X3485802Y3589555D1*
X3368133D1*
X2682112Y3600857D2*
X2682888Y3601634D1*
X2765008D1*
X2766131Y3600510D1*
X2788056D1*
X2847037Y3659491D1*
Y3773332D1*
X2883827Y3810122D1*
X3609316D1*
Y3810003D1*
X3722465Y3169911D2*
Y3228908D1*
X4229230D1*
X4266442Y3266121D1*
Y3469724D1*
X4225860Y3510307D1*
X4214175D1*
X4216182Y3512315D1*
X3632766Y2385961D2*
X3635870D1*
Y2439597D1*
X3491365Y2584102D1*
X2605364D1*
X2257434Y2932031D1*
X1687916D1*
X1609260Y3010688D1*
Y3492315D1*
X1399428Y3702147D1*
X960301D1*
X779302Y3883146D1*
X608419D1*
X2844837Y838732D2*
X2843311D1*
X2779404Y774825D1*
Y682117D1*
X2777723Y683798D1*
X2763781D1*
X2032766Y2385961D2*
X2043766D1*
X2308794Y2650988D1*
Y2723766D1*
X2230668Y2801892D1*
X1636349D1*
X1491042Y2947199D1*
Y3433206D1*
X1371630Y3552618D1*
X862673D1*
X752814Y3662478D1*
X672626D1*
X651957Y3683147D1*
X608419D1*
X591929Y3532777D2*
Y3427509D1*
X537772Y3373352D1*
Y1826589D1*
X956419D1*
Y1667652D2*
X880140Y1591374D1*
X629978D1*
X956419Y1826589D2*
X994000Y1864171D1*
Y1969601D1*
X1055407Y2031008D1*
X1094000D1*
X3832766Y2385961D2*
Y2472084D1*
X3839545Y2478862D1*
Y2546232D1*
X3932766Y2385961D2*
Y2433462D1*
X3940192Y2440887D1*
Y2543001D1*
D20*
X1583602Y2137289D3*
X1558252Y1535472D3*
X1330955Y533740D3*
X2239336Y1418667D3*
X3007974Y2054232D3*
X3534890Y2270277D3*
X3703938Y3052623D3*
X4012563Y3311850D3*
X2242783Y1685375D3*
X2195440Y4000273D3*
X4143563Y2658109D3*
X3712699D3*
X1690261Y3135823D3*
Y3533909D3*
X1740484Y3092441D3*
X3179159Y2041542D3*
X2951196Y1901429D3*
X1813404Y743588D3*
X2594251D3*
X3457560Y3265531D3*
X3027230Y2790559D3*
X3102818Y3257647D3*
Y3496937D3*
X4208423Y1703631D3*
X3623972Y3727726D3*
X3368133Y3589555D3*
X591929Y3532777D3*
X956419Y1826589D3*
Y1667652D3*
X895987Y1290752D3*
X1432703Y1663299D3*
X1827189Y3932798D3*
X2233957Y3116244D3*
X3066151Y3124420D3*
X3112264Y3948689D3*
X2908661D3*
X1994000Y3131008D3*
X1715648Y2121438D3*
X3298762Y1488941D3*
X4244000Y1381008D3*
X3649037Y2897118D3*
X3899122Y2141948D3*
X2919492Y1998992D3*
X1189142Y1889302D3*
X1171277Y2557874D3*
X1333570Y2196186D3*
X3379773Y2322543D3*
X2572722Y4211038D3*
X3488375Y4119978D3*
X3930676Y3801480D3*
X4207555Y1957189D3*
X2343824Y2172997D3*
X3463034Y2088720D3*
X3526488Y2816510D3*
X1797171Y3218142D3*
X1027312Y2560379D3*
X634780Y2637441D3*
X1015272Y3321364D3*
X781316Y1884619D3*
X2884927Y1393395D3*
X3399291Y1169993D3*
X4222211Y1102255D3*
X1989804Y1418667D3*
X1341362Y824387D3*
X1025320Y849549D3*
X3903226Y3193323D3*
X2507469Y4212777D3*
X3802692Y3454864D3*
X930358Y1165148D3*
X1436657Y1602911D3*
X1227041Y1556402D3*
X1423238Y2355781D3*
X1880694Y4027328D3*
X3183509Y2812163D3*
X3084945Y2715160D3*
X2229965Y4084064D3*
X3796136Y3279093D3*
X2283997Y3244613D3*
X2333455Y3288618D3*
X2370644Y3342449D3*
X2577290Y2328844D3*
X4013193Y1708862D3*
X2485580Y3876390D3*
X3609316Y3810003D3*
X2682112Y3600857D3*
X474166Y4223016D2*
X932302D1*
X2443526D2*
X2655281D1*
X3352006D2*
X3625805D1*
X473915Y4183147D2*
X939658D1*
X2467138D2*
X2615413D1*
X3342138D2*
X3635673D1*
X671206Y4143278D2*
X965817D1*
X2467138D2*
X2575546D1*
X2743626D2*
X2778364D1*
X3349422D2*
X3628352D1*
X4199447D2*
X4228156D1*
X694028Y4103409D2*
X966499D1*
X2467138D2*
X2535679D1*
X2703758D2*
X2778041D1*
X3349745D2*
X3628029D1*
X4199770D2*
X4228156D1*
X694208Y4063541D2*
X939909D1*
X2467138D2*
X2495811D1*
X2663891D2*
X2800109D1*
X3327712D2*
X3650098D1*
X4177701D2*
X4228156D1*
X838785Y4023672D2*
X932302D1*
X2624024D2*
X3094503D1*
X3233265D2*
X3888764D1*
X4076651D2*
X4228156D1*
X878653Y3983803D2*
X939407D1*
X2584156D2*
X3094503D1*
X3233265D2*
X3848897D1*
X4041844D2*
X4228156D1*
X918520Y3943934D2*
X965136D1*
X2546191D2*
X2855658D1*
X4001976D2*
X4228156D1*
X958387Y3904066D2*
X1088972D1*
X2555628D2*
X2810982D1*
X3962109D2*
X4228156D1*
X998255Y3864197D2*
X1066939D1*
X2560150D2*
X2771115D1*
X3922242D2*
X4228156D1*
X2075318Y3824328D2*
X2112640D1*
X2538727D2*
X2733975D1*
X3874336D2*
X4228156D1*
X2075318Y3784459D2*
X2152507D1*
X2467138D2*
X2724609D1*
X3759866D2*
X4068974D1*
X2075318Y3744591D2*
X2097748D1*
X3369159D2*
X3550376D1*
X3759866D2*
X4034525D1*
X3381969Y3704722D2*
X3516932D1*
X3893714D2*
X4028425D1*
X3374505Y3664853D2*
X3477065D1*
X2413025Y3624984D2*
X2610713D1*
X2158570Y3585115D2*
X2190006D1*
X2258579D2*
X2608273D1*
X2856697D2*
X2934460D1*
X3187298D2*
X3292656D1*
X2163163Y3545247D2*
X2632997D1*
X2804270D2*
X2927247D1*
X3159667D2*
X3307907D1*
X469465Y3505378D2*
X521787D1*
X2211463D2*
X2887380D1*
X3177932D2*
X3246903D1*
X3391084D2*
X3455068D1*
X469214Y3465509D2*
X531332D1*
X2211463D2*
X2847512D1*
X3171150D2*
X3231437D1*
X3406550D2*
X3455068D1*
X468963Y3425640D2*
X506033D1*
X2211463D2*
X2807645D1*
X3163435D2*
X3236569D1*
X3401419D2*
X3455068D1*
X2431648Y3385772D2*
X2767778D1*
X2987925D2*
X3042220D1*
X3163435D2*
X3236353D1*
X3401670D2*
X3455068D1*
X2446146Y3345903D2*
X2727910D1*
X2948058D2*
X3042220D1*
X3163435D2*
X3231509D1*
X3406478D2*
X3455068D1*
X2908190Y3306034D2*
X3042220D1*
X3163435D2*
X3247370D1*
X2868323Y3266165D2*
X3027723D1*
X3177896D2*
X3231509D1*
X1801091Y3226297D2*
X1839705D1*
X2828456D2*
X3034433D1*
X3171186D2*
X3236318D1*
X1161241Y3186428D2*
X1231181D1*
X1801091D2*
X2238271D1*
X2329737D2*
X3091453D1*
X3114202D2*
X3236605D1*
X1180654Y3146559D2*
X1219842D1*
X1801091D2*
X3231437D1*
X3889874D2*
X4228156D1*
X1178501Y3106690D2*
X1221995D1*
X1814656D2*
X3246868D1*
X4033160D2*
X4228156D1*
X1174087Y3066822D2*
X1226408D1*
X1811354D2*
X3231581D1*
X4033160D2*
X4228156D1*
X1182017Y3026953D2*
X1218514D1*
X2281078D2*
X3169322D1*
X1169709Y2987084D2*
X1230786D1*
X2330204D2*
X3129454D1*
X3633051D2*
X3671126D1*
X1180510Y2947215D2*
X1295306D1*
X1317700D2*
X1352900D1*
X2370071D2*
X3089551D1*
X3633051D2*
X3720395D1*
X598361Y2907346D2*
X649929D1*
X1178716D2*
X1352900D1*
X2409938D2*
X3049684D1*
X3621389D2*
X3720395D1*
X598361Y2867478D2*
X636472D1*
X1173764D2*
X1352900D1*
X2449806D2*
X3009817D1*
X3582203D2*
X3720395D1*
X4163383D2*
X4228156D1*
X598361Y2827609D2*
X622047D1*
X1182017D2*
X1352900D1*
X2489673D2*
X2961947D1*
X3542336D2*
X3720395D1*
X3841610D2*
X4024621D1*
X4163383D2*
X4228156D1*
X1170104Y2787740D2*
X1352900D1*
X1514413D2*
X1566447D1*
X2529540D2*
X2951684D1*
X3502468D2*
X3720395D1*
X3841610D2*
X4024621D1*
X4163383D2*
X4228156D1*
X964129Y2747871D2*
X1007623D1*
X1180403D2*
X1352900D1*
X1514413D2*
X1615465D1*
X2569408D2*
X2965751D1*
X3406694D2*
X3720395D1*
X3841610D2*
X4024621D1*
X4163383D2*
X4228156D1*
X598361Y2708003D2*
X638590D1*
X924261D2*
X1009094D1*
X1178896D2*
X1352900D1*
X1514413D2*
X1648873D1*
X2609275D2*
X3009709D1*
X3160169D2*
X3245935D1*
X3841610D2*
X4024621D1*
X4198909D2*
X4228156D1*
X598361Y2668134D2*
X716279D1*
X884358D2*
X1033387D1*
X1154602D2*
X1352900D1*
X1514413D2*
X1636313D1*
X3841610D2*
X4024621D1*
X598361Y2628265D2*
X676411D1*
X942598D2*
X1033387D1*
X1154602D2*
X1352900D1*
X1514413D2*
X1596554D1*
X3862064D2*
X4024621D1*
X598361Y2588396D2*
X631162D1*
X979128D2*
X1033387D1*
X1154602D2*
X1352900D1*
X1514413D2*
X1554856D1*
X4204148D2*
X4228156D1*
X764756Y2548528D2*
X811803D1*
X986018D2*
X1033387D1*
X1154602D2*
X1345580D1*
X4204148D2*
X4228156D1*
X751335Y2508659D2*
X811803D1*
X986018D2*
X1033387D1*
X1154602D2*
X1305712D1*
X4204148D2*
X4228156D1*
X754170Y2468790D2*
X812628D1*
X985193D2*
X1033387D1*
X1154602D2*
X1266455D1*
X4000792D2*
X4024621D1*
X4204148D2*
X4228156D1*
X735439Y2428921D2*
X829709D1*
X968112D2*
X1033387D1*
X1154602D2*
X1254255D1*
X4204148D2*
X4228156D1*
X598361Y2389052D2*
X665503D1*
X852852D2*
X983221D1*
X1228380D2*
X1254255D1*
X4204148D2*
X4228156D1*
X598361Y2349184D2*
X638446D1*
X879909D2*
X936751D1*
X4204148D2*
X4228156D1*
X598361Y2309315D2*
X636078D1*
X3871394D2*
X3894146D1*
X3971367D2*
X4024621D1*
X4204148D2*
X4228156D1*
X1025132Y2269446D2*
X1113445D1*
X3170504D2*
X3323014D1*
X3799123D2*
X4024621D1*
X4204148D2*
X4228156D1*
X985264Y2229577D2*
X1150765D1*
X3176927D2*
X3283146D1*
X3451226D2*
X3471969D1*
X3759256D2*
X4024621D1*
X4204148D2*
X4228156D1*
X945397Y2189709D2*
X1145095D1*
X1320459D2*
X1352685D1*
X3176927D2*
X3243279D1*
X3411358D2*
X4024621D1*
X4204148D2*
X4228156D1*
X598361Y2149840D2*
X737415D1*
X905530D2*
X1159951D1*
X1305603D2*
X1499702D1*
X1658093D2*
X1891522D1*
X2265648D2*
X3006659D1*
X3176927D2*
X3203412D1*
X3371491D2*
X4024621D1*
X4204148D2*
X4228156D1*
X598361Y2109971D2*
X697547D1*
X865627D2*
X1071389D1*
X1116601D2*
X1459835D1*
X1653787D2*
X1904835D1*
X2252335D2*
X2959040D1*
X3331624D2*
X4024621D1*
X4204148D2*
X4228156D1*
X598361Y2070102D2*
X657680D1*
X966102D2*
X1010457D1*
X1169099D2*
X1419968D1*
X1612879D2*
X1884381D1*
X2266366D2*
X2934137D1*
X3291756D2*
X4024621D1*
X4204148D2*
X4228156D1*
X785892Y2030234D2*
X811157D1*
X1179111D2*
X1380100D1*
X1573012D2*
X1844514D1*
X2260050D2*
X2936505D1*
X3253863D2*
X4024621D1*
X4204148D2*
X4228156D1*
X746025Y1990365D2*
X810259D1*
X1168202D2*
X1340233D1*
X1533144D2*
X1822481D1*
X2224955D2*
X2947378D1*
X3233229D2*
X4024621D1*
X4204148D2*
X4228156D1*
X753668Y1950496D2*
X810259D1*
X1176743D2*
X1300366D1*
X1493277D2*
X1822158D1*
X2340682D2*
X2614660D1*
X3759686D2*
X4024621D1*
X4204148D2*
X4228156D1*
X746061Y1910627D2*
X816898D1*
X1176527D2*
X1260462D1*
X1453410D2*
X1798366D1*
X2367165D2*
X2572030D1*
X3799554D2*
X4024621D1*
X4204148D2*
X4228156D1*
X1152341Y1870759D2*
X1220595D1*
X1469414D2*
X1636457D1*
X3842363D2*
X4024621D1*
X4204148D2*
X4228156D1*
X1043792Y1830890D2*
X1180728D1*
X1469414D2*
X1557691D1*
X4204148D2*
X4228156D1*
X458269Y1791021D2*
X489742D1*
X1469414D2*
X1544809D1*
X458018Y1751152D2*
X495555D1*
X1469414D2*
X1552201D1*
X1469414Y1711283D2*
X1529845D1*
X1448080Y1909313D2*
X1465411D1*
Y1676317D1*
X1498481Y1675959D1*
X1552723Y1729922D1*
X1559908Y1735143D1*
X1563801Y1737322D1*
X1562678Y1739480D1*
X1558029Y1747398D1*
X1554270Y1755775D1*
X1551447Y1764512D1*
X1549594Y1773505D1*
X1548732Y1782646D1*
X1548871Y1791827D1*
X1550011Y1800937D1*
X1552137Y1809870D1*
X1555224Y1818517D1*
X1559235Y1826776D1*
X1564123Y1834549D1*
X1569828Y1841743D1*
X1576285Y1848271D1*
X1583414Y1854057D1*
X1591132Y1859032D1*
X1599346Y1863135D1*
X1607958Y1866318D1*
X1616866Y1868544D1*
X1625963Y1869785D1*
X1635142Y1870027D1*
X1639691Y1869770D1*
X1644909Y1875774D1*
X1651663Y1881542D1*
X1659236Y1886183D1*
X1667441Y1889582D1*
X1676078Y1891655D1*
X1684949Y1892351D1*
X1798926Y1892559D1*
X1799702Y1899117D1*
X1800990Y1905593D1*
X1802783Y1911949D1*
X1805068Y1918144D1*
X1807833Y1924141D1*
X1811059Y1929903D1*
X1814728Y1935393D1*
X1818816Y1940579D1*
X1826159Y1948072D1*
X1826341Y1988884D1*
X1827730Y1997657D1*
X1830475Y2006103D1*
X1834507Y2014017D1*
X1839727Y2021202D1*
X1855736Y2037457D1*
X1895750Y2077472D1*
X1898599Y2088991D1*
X1900884Y2095186D1*
X1903649Y2101183D1*
X1906876Y2106945D1*
X1910976Y2112982D1*
X1906876Y2119060D1*
X1903649Y2124822D1*
X1900884Y2130819D1*
X1898599Y2137014D1*
X1896806Y2143370D1*
X1895518Y2149846D1*
X1894742Y2156404D1*
X1894483Y2163003D1*
X1894742Y2169601D1*
X1895518Y2176159D1*
X1896806Y2182635D1*
X1898661Y2189160D1*
X1632983Y2189151D1*
X1638047Y2183789D1*
X1644651Y2174700D1*
X1649752Y2164689D1*
X1653224Y2154003D1*
X1654982Y2142906D1*
Y2131671D1*
X1653224Y2120574D1*
X1649752Y2109889D1*
X1644651Y2099878D1*
X1638047Y2090788D1*
X1630103Y2082844D1*
X1621013Y2076240D1*
X1611002Y2071139D1*
X1609292Y2070508D1*
X1448079Y1909305D1*
X3885874Y3111277D2*
X4029145D1*
Y3034550D1*
X4034532Y3040476D1*
X4039381Y3044958D1*
X4044567Y3049046D1*
X4050058Y3052715D1*
X4055819Y3055942D1*
X4061816Y3058706D1*
X4068012Y3060992D1*
X4074367Y3062784D1*
X4080844Y3064072D1*
X4087402Y3064849D1*
X4094000Y3065108D1*
X4100598Y3064849D1*
X4107156Y3064072D1*
X4113633Y3062784D1*
X4119988Y3060992D1*
X4126184Y3058706D1*
X4132181Y3055942D1*
X4137942Y3052715D1*
X4143980Y3048615D1*
X4150779Y3053152D1*
X4158901Y3057434D1*
X4167442Y3060804D1*
X4176299Y3063224D1*
X4185367Y3064664D1*
X4194538Y3065106D1*
X4203703Y3064546D1*
X4212752Y3062991D1*
X4221578Y3060458D1*
X4230075Y3056978D1*
X4232140Y3055958D1*
X4232145Y3172349D1*
X3885854Y3172308D1*
X3885876Y3111280D1*
X3855084Y2945085D2*
X3855079Y3078940D1*
X3829071Y3078941D1*
X3829260Y3069945D1*
X3833292Y3062031D1*
X3836036Y3053584D1*
X3837426Y3044812D1*
X3837600Y3021999D1*
Y2630323D1*
X3846143Y2630073D1*
X3852701Y2629297D1*
X3859177Y2628009D1*
X3865533Y2626216D1*
X3871728Y2623931D1*
X3877725Y2621166D1*
X3883487Y2617939D1*
X3891996Y2611891D1*
X3902011Y2617935D1*
X3908008Y2620700D1*
X3914203Y2622985D1*
X3920559Y2624778D1*
X3927035Y2626066D1*
X3933593Y2626842D1*
X3940192Y2627101D1*
X3946790Y2626842D1*
X3953348Y2626066D1*
X3959824Y2624778D1*
X3966180Y2622985D1*
X3972375Y2620700D1*
X3978372Y2617935D1*
X3984134Y2614708D1*
X3989624Y2611040D1*
X3994810Y2606951D1*
X3999659Y2602469D1*
X4004142Y2597620D1*
X4008230Y2592434D1*
X4011899Y2586943D1*
X4015125Y2581182D1*
X4017890Y2575185D1*
X4020175Y2568990D1*
X4021968Y2562634D1*
X4023256Y2556157D1*
X4024032Y2549600D1*
X4024292Y2543001D1*
X4024032Y2536403D1*
X4023256Y2529845D1*
X4021968Y2523369D1*
X4020175Y2517013D1*
X4017890Y2510818D1*
X4015125Y2504821D1*
X4011899Y2499059D1*
X4008230Y2493569D1*
X4004142Y2488383D1*
X3996799Y2480890D1*
X3996791Y2440870D1*
X4004473Y2429903D1*
X4007700Y2424141D1*
X4010465Y2418144D1*
X4012750Y2411949D1*
X4014543Y2405593D1*
X4015831Y2399117D1*
X4016607Y2392559D1*
X4016866Y2385961D1*
X4016607Y2379362D1*
X4015831Y2372804D1*
X4014543Y2366328D1*
X4012750Y2359972D1*
X4010465Y2353777D1*
X4007700Y2347780D1*
X4004473Y2342019D1*
X4000805Y2336528D1*
X3996717Y2331342D1*
X3992234Y2326493D1*
X3987385Y2322010D1*
X3982199Y2317922D1*
X3976709Y2314254D1*
X3970947Y2311027D1*
X3964950Y2308262D1*
X3958755Y2305977D1*
X3952399Y2304184D1*
X3945923Y2302896D1*
X3939365Y2302120D1*
X3932766Y2301861D1*
X3926168Y2302120D1*
X3919610Y2302896D1*
X3913134Y2304184D1*
X3906778Y2305977D1*
X3900583Y2308262D1*
X3894586Y2311027D1*
X3888824Y2314254D1*
X3882787Y2318353D1*
X3876709Y2314254D1*
X3870947Y2311027D1*
X3864950Y2308262D1*
X3858755Y2305977D1*
X3852399Y2304184D1*
X3845923Y2302896D1*
X3839365Y2302120D1*
X3832766Y2301861D1*
X3826812Y2302095D1*
X3821010Y2295325D1*
X3751032Y2225594D1*
X3743846Y2220373D1*
X3735933Y2216341D1*
X3727486Y2213596D1*
X3718714Y2212207D1*
X3695900Y2212032D1*
X3576514D1*
X3567395Y2206481D1*
X3557015Y2202181D1*
X3546090Y2199558D1*
X3534890Y2198677D1*
X3523689Y2199558D1*
X3512764Y2202181D1*
X3502384Y2206481D1*
X3492804Y2212351D1*
X3484261Y2219648D1*
X3476964Y2228191D1*
X3471094Y2237771D1*
X3466794Y2248151D1*
X3466574Y2248933D1*
X3250196Y2032534D1*
X3248780Y2024827D1*
X3245309Y2014142D1*
X3240208Y2004131D1*
X3233604Y1995042D1*
X3226869Y1988215D1*
X3242763Y1972321D1*
X3714848Y1972155D1*
X3723620Y1970766D1*
X3732067Y1968021D1*
X3739980Y1963989D1*
X3747166Y1958769D1*
X3763421Y1942761D1*
X3805516Y1900665D1*
X3810985Y1897161D1*
X3817751Y1891380D1*
X3839365Y1869801D1*
X3845923Y1869025D1*
X3852399Y1867737D1*
X3858755Y1865944D1*
X3864950Y1863659D1*
X3870947Y1860894D1*
X3876709Y1857668D1*
X3882746Y1853568D1*
X3888824Y1857668D1*
X3894586Y1860894D1*
X3900583Y1863659D1*
X3906778Y1865944D1*
X3913134Y1867737D1*
X3919610Y1869025D1*
X3926168Y1869801D1*
X3932766Y1870061D1*
X3939365Y1869801D1*
X3945923Y1869025D1*
X3952399Y1867737D1*
X3958755Y1865944D1*
X3964950Y1863659D1*
X3970947Y1860894D1*
X3976709Y1857668D1*
X3982199Y1853999D1*
X3987385Y1849911D1*
X3992234Y1845428D1*
X3996717Y1840579D1*
X4000805Y1835393D1*
X4004473Y1829903D1*
X4007700Y1824141D1*
X4010465Y1818144D1*
X4012750Y1811949D1*
X4014543Y1805593D1*
X4015831Y1799117D1*
X4016607Y1792559D1*
X4016866Y1785961D1*
X4016647Y1780367D1*
X4024394Y1779581D1*
X4028637Y1778737D1*
X4028620Y2834862D1*
X3855079Y2834849D1*
Y2945121D1*
X3755883Y3709694D2*
X3889723D1*
Y3692003D1*
X3952062Y3691978D1*
X3962289Y3691173D1*
X3972265Y3688778D1*
X3981743Y3684852D1*
X3990507Y3679479D1*
X3993904Y3677695D1*
X4039513D1*
X4035878Y3687335D1*
X4033633Y3696238D1*
X4032373Y3705333D1*
X4032111Y3714511D1*
X4032852Y3723663D1*
X4034585Y3732679D1*
X4037292Y3741453D1*
X4040938Y3749880D1*
X4045482Y3757859D1*
X4050868Y3765295D1*
X4057033Y3772099D1*
X4063903Y3778191D1*
X4071396Y3783498D1*
X4079423Y3787956D1*
X4087888Y3791512D1*
X4096690Y3794125D1*
X4105724Y3795762D1*
X4114884Y3796405D1*
X4124058Y3796045D1*
X4133139Y3794688D1*
X4142018Y3792348D1*
X4150589Y3789055D1*
X4158749Y3784847D1*
X4166176Y3779939D1*
X4172961Y3784459D1*
X4181084Y3788741D1*
X4189624Y3792111D1*
X4198482Y3794531D1*
X4207550Y3795971D1*
X4216721Y3796413D1*
X4225886Y3795853D1*
X4232146Y3794881D1*
X4232145Y4150552D1*
X4191759Y4190909D1*
X4188469Y4183793D1*
X4183786Y4175895D1*
X4181516Y4172675D1*
X4186132Y4165742D1*
X4190397Y4157610D1*
X4193749Y4149062D1*
X4196150Y4140200D1*
X4197570Y4131129D1*
X4197996Y4122675D1*
X4197495Y4113506D1*
X4195997Y4104448D1*
X4193521Y4095606D1*
X4190096Y4087087D1*
X4185762Y4078992D1*
X4180572Y4071418D1*
X4174587Y4064455D1*
X4167878Y4058186D1*
X4160526Y4052686D1*
X4152619Y4048019D1*
X4144250Y4044243D1*
X4135518Y4041402D1*
X4126530Y4039529D1*
X4117390Y4038647D1*
X4108209Y4038767D1*
X4099096Y4039887D1*
X4090159Y4041994D1*
X4081505Y4045062D1*
X4078989Y4046167D1*
X4077471Y4037066D1*
X4074300Y4027308D1*
X4069643Y4018167D1*
X4063613Y4009867D1*
X4047136Y3993106D1*
X3889417Y3835672D1*
X3881117Y3829642D1*
X3871976Y3824984D1*
X3862219Y3821814D1*
X3852086Y3820209D1*
X3828584Y3820008D1*
X3755919D1*
X3755883Y3709662D1*
X2071310Y3838187D2*
Y3733333D1*
X2074271Y3731177D1*
X2081070Y3735714D1*
X2089193Y3739995D1*
X2097733Y3743366D1*
X2106590Y3745786D1*
X2115659Y3747225D1*
X2124830Y3747668D1*
X2133995Y3747108D1*
X2143044Y3745552D1*
X2151869Y3743019D1*
X2160366Y3739540D1*
X2166790Y3736141D1*
X2166786Y3774201D1*
X2102762Y3838190D1*
X2071326Y3838183D1*
X2439508Y4260827D2*
Y4185599D1*
X2463130Y4185592D1*
Y4026876D1*
X2697394Y4261129D1*
X2439483Y4260831D1*
X460791Y2787992D2*
X468545Y2787866D1*
X477662Y2786779D1*
X481175Y2786082D1*
X481172Y3068505D1*
X471811Y3066937D1*
X462608Y3066421D1*
X460784Y2787998D1*
X481168Y2548990D2*
X472527Y2547554D1*
X463360Y2547038D1*
X459207Y2547142D1*
X457272Y2250679D1*
X465136Y2250733D1*
X474275Y2249847D1*
X481166Y2248489D1*
X481172Y2548974D1*
X642390Y2843106D2*
X641281Y2848681D1*
X640514Y2855160D1*
X640258Y2861680D1*
X640514Y2868199D1*
X641281Y2874679D1*
X642554Y2881078D1*
X644325Y2887358D1*
X646584Y2893479D1*
X649315Y2899405D1*
X652503Y2905097D1*
X656128Y2910522D1*
X663507Y2919258D1*
X594345Y2919245D1*
X594372Y2566065D1*
X612839Y2566054D1*
X644022Y2597009D1*
X651207Y2602229D1*
X659136Y2606984D1*
X744671Y2692519D1*
X690871Y2692530D1*
X684352Y2692786D1*
X677872Y2693553D1*
X671473Y2694826D1*
X665193Y2696597D1*
X659072Y2698855D1*
X653147Y2701587D1*
X647454Y2704775D1*
X642029Y2708400D1*
X636905Y2712439D1*
X632114Y2716868D1*
X627685Y2721659D1*
X623645Y2726783D1*
X620020Y2732208D1*
X616832Y2737901D1*
X614101Y2743826D1*
X611842Y2749948D1*
X610071Y2756228D1*
X608798Y2762627D1*
X608031Y2769106D1*
X607775Y2775626D1*
X608031Y2782146D1*
X608798Y2788625D1*
X610071Y2795024D1*
X611842Y2801304D1*
X614101Y2807425D1*
X616832Y2813351D1*
X620020Y2819044D1*
X623645Y2824469D1*
X627685Y2829593D1*
X632114Y2834384D1*
X636905Y2838813D1*
X642347Y2843065D1*
X751140Y2476438D2*
X750374Y2469959D1*
X749101Y2463560D1*
X747330Y2457280D1*
X745071Y2451159D1*
X742340Y2445233D1*
X739152Y2439540D1*
X735527Y2434115D1*
X731487Y2428991D1*
X727058Y2424200D1*
X722267Y2419771D1*
X717143Y2415732D1*
X711718Y2412107D1*
X706025Y2408919D1*
X700100Y2406187D1*
X693979Y2403929D1*
X687699Y2402158D1*
X681300Y2400885D1*
X674820Y2400118D1*
X659114Y2399862D1*
X594374D1*
X594372Y2028807D1*
X620379Y2028824D1*
X746896Y2155312D1*
X689297Y2155300D1*
X682777Y2155556D1*
X676297Y2156323D1*
X669898Y2157596D1*
X663618Y2159367D1*
X657497Y2161626D1*
X651572Y2164357D1*
X645879Y2167545D1*
X640454Y2171170D1*
X635330Y2175210D1*
X630539Y2179639D1*
X626110Y2184430D1*
X622070Y2189554D1*
X618446Y2194979D1*
X615257Y2200672D1*
X612526Y2206597D1*
X610268Y2212718D1*
X608496Y2218998D1*
X607224Y2225397D1*
X606457Y2231877D1*
X606201Y2238396D1*
X606457Y2244916D1*
X607224Y2251395D1*
X608496Y2257795D1*
X610268Y2264074D1*
X612526Y2270196D1*
X615257Y2276121D1*
X618446Y2281814D1*
X622070Y2287239D1*
X626110Y2292363D1*
X630539Y2297154D1*
X635330Y2301583D1*
X640772Y2305835D1*
X638940Y2317930D1*
X638683Y2324450D1*
X638940Y2330970D1*
X639707Y2337449D1*
X640979Y2343849D1*
X642750Y2350128D1*
X645009Y2356250D1*
X647740Y2362175D1*
X650928Y2367868D1*
X654553Y2373293D1*
X658593Y2378417D1*
X663022Y2383208D1*
X667813Y2387637D1*
X672937Y2391676D1*
X678362Y2395301D1*
X684055Y2398489D1*
X689980Y2401221D1*
X696101Y2403479D1*
X702381Y2405250D1*
X708780Y2406523D1*
X715260Y2407290D1*
X730966Y2407546D1*
X796583D1*
X803102Y2407290D1*
X809582Y2406523D1*
X815981Y2405250D1*
X822261Y2403479D1*
X828382Y2401221D1*
X834308Y2398489D1*
X840000Y2395301D1*
X845425Y2391676D1*
X850549Y2387637D1*
X855340Y2383208D1*
X859769Y2378417D1*
X863809Y2373293D1*
X867434Y2367868D1*
X870622Y2362175D1*
X873353Y2356250D1*
X875612Y2350128D1*
X877383Y2343849D1*
X878656Y2337449D1*
X879423Y2330970D1*
X879679Y2324450D1*
X879423Y2317930D1*
X878656Y2311451D1*
X877383Y2305052D1*
X875612Y2298772D1*
X873353Y2292651D1*
X870622Y2286725D1*
X867434Y2281033D1*
X863809Y2275607D1*
X859769Y2270484D1*
X855340Y2265692D1*
X850549Y2261263D1*
X845107Y2257012D1*
X850447Y2258863D1*
X971288Y2379458D1*
X978474Y2384678D1*
X986387Y2388710D1*
X994834Y2391455D1*
X1003606Y2392844D1*
X1020786Y2393019D1*
X1037382Y2409605D1*
X1037400Y2668838D1*
X1030050Y2676389D1*
X1025962Y2681575D1*
X1022293Y2687066D1*
X1019066Y2692827D1*
X1016302Y2698824D1*
X1014016Y2705020D1*
X1012224Y2711375D1*
X1010935Y2717852D1*
X1010159Y2724409D1*
X1009900Y2731008D1*
X1010159Y2737606D1*
X1010935Y2744164D1*
X1012224Y2750641D1*
X1014016Y2756996D1*
X1016302Y2763192D1*
X1019066Y2769188D1*
X1022293Y2774950D1*
X1026393Y2780988D1*
X1021948Y2787633D1*
X1017649Y2795746D1*
X1014842Y2802605D1*
X738966Y2526725D1*
X742340Y2520683D1*
X745071Y2514757D1*
X747330Y2508636D1*
X749101Y2502356D1*
X750374Y2495957D1*
X751140Y2489478D1*
X751397Y2482958D1*
X751140Y2476438D1*
X815818Y2555224D2*
X816073Y2561769D1*
X816840Y2568248D1*
X818113Y2574648D1*
X819884Y2580927D1*
X822143Y2587049D1*
X824874Y2592974D1*
X828062Y2598667D1*
X831687Y2604092D1*
X835727Y2609216D1*
X840156Y2614007D1*
X844947Y2618436D1*
X850071Y2622475D1*
X855496Y2626100D1*
X861189Y2629288D1*
X867114Y2632020D1*
X873235Y2634278D1*
X879515Y2636049D1*
X885914Y2637322D1*
X892394Y2638089D1*
X898913Y2638345D1*
X905433Y2638089D1*
X911912Y2637322D1*
X918312Y2636049D1*
X924591Y2634278D1*
X930713Y2632020D1*
X936638Y2629288D1*
X942331Y2626100D1*
X947756Y2622475D1*
X952880Y2618436D1*
X957671Y2614007D1*
X962100Y2609216D1*
X966140Y2604092D1*
X969764Y2598667D1*
X972953Y2592974D1*
X975684Y2587049D1*
X977942Y2580927D1*
X979713Y2574648D1*
X980986Y2568248D1*
X981753Y2561769D1*
X982009Y2546063D1*
X981974Y2480446D1*
X981753Y2473927D1*
X980986Y2467447D1*
X979713Y2461048D1*
X977942Y2454768D1*
X975684Y2448647D1*
X972953Y2442721D1*
X969764Y2437029D1*
X966140Y2431604D1*
X962100Y2426480D1*
X957671Y2421688D1*
X952880Y2417259D1*
X947756Y2413220D1*
X942331Y2409595D1*
X936638Y2406407D1*
X930713Y2403675D1*
X924591Y2401417D1*
X918312Y2399646D1*
X911912Y2398373D1*
X905433Y2397606D1*
X898913Y2397350D1*
X892394Y2397606D1*
X885914Y2398373D1*
X879515Y2399646D1*
X873235Y2401417D1*
X867114Y2403675D1*
X861189Y2406407D1*
X855496Y2409595D1*
X850071Y2413220D1*
X844947Y2417259D1*
X840156Y2421688D1*
X835727Y2426480D1*
X831687Y2431604D1*
X828062Y2437029D1*
X824874Y2442721D1*
X822143Y2448647D1*
X819884Y2454768D1*
X818113Y2461048D1*
X816840Y2467447D1*
X816073Y2473927D1*
X815817Y2489633D1*
Y2555183D1*
X481173Y2012126D2*
X472776Y2010549D1*
X463623Y2009830D1*
X455698Y2010030D1*
X453708Y1705323D1*
X520948Y1772555D1*
X516112Y1774298D1*
X508198Y1778330D1*
X501013Y1783550D1*
X494733Y1789830D1*
X489512Y1797016D1*
X485480Y1804929D1*
X482735Y1813376D1*
X481346Y1822148D1*
X481172Y1844962D1*
Y2012146D1*
X749566Y1939209D2*
X748799Y1932729D1*
X747526Y1926330D1*
X745755Y1920050D1*
X743496Y1913929D1*
X740765Y1908004D1*
X737577Y1902311D1*
X733952Y1896886D1*
X729912Y1891762D1*
X725484Y1886971D1*
X721499Y1883189D1*
X839881D1*
X834152Y1889250D1*
X830112Y1894374D1*
X826488Y1899799D1*
X823299Y1905492D1*
X820568Y1911417D1*
X818310Y1917538D1*
X816538Y1923818D1*
X815266Y1930217D1*
X814499Y1936697D1*
X814243Y1952403D1*
Y2018020D1*
X814499Y2024539D1*
X815266Y2031019D1*
X816538Y2037418D1*
X818310Y2043698D1*
X820568Y2049819D1*
X823299Y2055745D1*
X826488Y2061437D1*
X830112Y2066862D1*
X834152Y2071986D1*
X838581Y2076777D1*
X843372Y2081206D1*
X848496Y2085246D1*
X853921Y2088871D1*
X859614Y2092059D1*
X865539Y2094790D1*
X871660Y2097049D1*
X877940Y2098820D1*
X884339Y2100093D1*
X890819Y2100860D1*
X897339Y2101116D1*
X903858Y2100860D1*
X910338Y2100093D1*
X916737Y2098820D1*
X923017Y2097049D1*
X929138Y2094790D1*
X935063Y2092059D1*
X940756Y2088871D1*
X946181Y2085246D1*
X951305Y2081206D1*
X956096Y2076777D1*
X960525Y2071986D1*
X964565Y2066862D1*
X968190Y2061437D1*
X971378Y2055745D1*
X974109Y2049819D1*
X976368Y2043698D1*
X978740Y2034393D1*
X1018648Y2074047D1*
X1025833Y2079267D1*
X1029727Y2081446D1*
X1032310Y2083696D1*
X1036634Y2088374D1*
X1041312Y2092698D1*
X1046314Y2096641D1*
X1051611Y2100180D1*
X1057169Y2103293D1*
X1062954Y2105960D1*
X1068930Y2108165D1*
X1075061Y2109894D1*
X1081309Y2111137D1*
X1087635Y2111885D1*
X1094000Y2112135D1*
X1100365Y2111885D1*
X1106691Y2111137D1*
X1112939Y2109894D1*
X1119070Y2108165D1*
X1125046Y2105960D1*
X1130831Y2103293D1*
X1136389Y2100180D1*
X1141686Y2096641D1*
X1146688Y2092698D1*
X1151366Y2088374D1*
X1155690Y2083696D1*
X1159634Y2078693D1*
X1163173Y2073397D1*
X1166285Y2067839D1*
X1168952Y2062054D1*
X1171157Y2056078D1*
X1172886Y2049947D1*
X1174129Y2043699D1*
X1174877Y2037373D1*
X1175128Y2031008D1*
X1174877Y2024643D1*
X1174129Y2018317D1*
X1172886Y2012069D1*
X1171157Y2005938D1*
X1168952Y1999962D1*
X1166285Y1994177D1*
X1163173Y1988619D1*
X1157862Y1981075D1*
X1163011Y1973659D1*
X1167389Y1965588D1*
X1170826Y1957075D1*
X1173279Y1948227D1*
X1174717Y1939159D1*
X1175128Y1931008D1*
X1174608Y1921841D1*
X1173056Y1912792D1*
X1170491Y1903976D1*
X1166947Y1895506D1*
X1162469Y1887491D1*
X1157113Y1880033D1*
X1150949Y1873228D1*
X1144056Y1867164D1*
X1136522Y1861917D1*
X1128443Y1857555D1*
X1119922Y1854133D1*
X1111070Y1851697D1*
X1101999Y1850276D1*
X1092826Y1849889D1*
X1083668Y1850541D1*
X1074642Y1852224D1*
X1065864Y1854916D1*
X1057446Y1858582D1*
X1050579Y1862484D1*
X1049903Y1855316D1*
X1047830Y1846680D1*
X1044431Y1838475D1*
X1039790Y1830902D1*
X1034010Y1824136D1*
X1027450Y1817576D1*
X1026040Y1809875D1*
X1023914Y1802836D1*
X1156659Y1802840D1*
X1516707Y2162854D1*
X1519806Y2169794D1*
X1525677Y2179374D1*
X1532974Y2187918D1*
X1534312Y2189155D1*
X1360154Y2189328D1*
X1351241Y2190740D1*
X1342659Y2193528D1*
X1334619Y2197625D1*
X1327318Y2202929D1*
X1315198Y2214798D1*
X1316442Y2206622D1*
X1316868Y2198168D1*
X1316366Y2189000D1*
X1314869Y2179941D1*
X1312393Y2171100D1*
X1308967Y2162581D1*
X1304633Y2154486D1*
X1299443Y2146912D1*
X1293458Y2139949D1*
X1286750Y2133680D1*
X1279398Y2128179D1*
X1271490Y2123513D1*
X1263121Y2119737D1*
X1254390Y2116895D1*
X1245401Y2115022D1*
X1236262Y2114141D1*
X1227081Y2114260D1*
X1217968Y2115381D1*
X1209031Y2117487D1*
X1200377Y2120556D1*
X1192109Y2124549D1*
X1184326Y2129421D1*
X1177120Y2135111D1*
X1170578Y2141553D1*
X1164777Y2148670D1*
X1159786Y2156377D1*
X1155665Y2164582D1*
X1152463Y2173188D1*
X1150219Y2182091D1*
X1148958Y2191186D1*
X1148696Y2200364D1*
X1149437Y2209516D1*
X1151171Y2218532D1*
X1153877Y2227306D1*
X1157524Y2235733D1*
X1162067Y2243712D1*
X1167453Y2251148D1*
X1172564Y2256886D1*
X1161891Y2256182D1*
X1155526Y2256432D1*
X1149200Y2257181D1*
X1142952Y2258424D1*
X1136821Y2260153D1*
X1130845Y2262358D1*
X1125060Y2265025D1*
X1119502Y2268137D1*
X1114205Y2271676D1*
X1109203Y2275620D1*
X1104238Y2280254D1*
X1031501Y2279819D1*
X738786Y1987113D1*
X743496Y1977528D1*
X745755Y1971406D1*
X747526Y1965127D1*
X748799Y1958727D1*
X749566Y1952248D1*
X749822Y1945728D1*
X749566Y1939209D1*
X3366613Y2309029D2*
X3358755Y2305977D1*
X3349186Y2303545D1*
X3331184Y2285805D1*
X3323999Y2280584D1*
X3316085Y2276552D1*
X3307638Y2273808D1*
X3298866Y2272418D1*
X3276052Y2272244D1*
X3164919D1*
X3168634Y2264901D1*
X3171379Y2256455D1*
X3172768Y2247682D1*
X3172943Y2224869D1*
Y2115386D1*
X3366512Y2308940D1*
X3907942Y4038808D2*
X3900740Y4039610D1*
X3894264Y4040898D1*
X3887908Y4042691D1*
X3881713Y4044976D1*
X3875716Y4047741D1*
X3869954Y4050968D1*
X3863917Y4055067D1*
X3857838Y4050968D1*
X3852077Y4047741D1*
X3846080Y4044976D1*
X3839885Y4042691D1*
X3833529Y4040898D1*
X3827052Y4039610D1*
X3820495Y4038834D1*
X3813896Y4038575D1*
X3807298Y4038834D1*
X3800740Y4039610D1*
X3794264Y4040898D1*
X3787908Y4042691D1*
X3781713Y4044976D1*
X3775716Y4047741D1*
X3769954Y4050968D1*
X3763917Y4055067D1*
X3757840Y4050968D1*
X3752078Y4047741D1*
X3746081Y4044976D1*
X3739886Y4042691D1*
X3733530Y4040898D1*
X3727054Y4039610D1*
X3720496Y4038834D1*
X3713898Y4038575D1*
X3707299Y4038834D1*
X3700741Y4039610D1*
X3694265Y4040898D1*
X3687909Y4042691D1*
X3681714Y4044976D1*
X3675717Y4047741D1*
X3669956Y4050968D1*
X3664465Y4054636D1*
X3659279Y4058724D1*
X3654430Y4063207D1*
X3649947Y4068056D1*
X3645859Y4073242D1*
X3642191Y4078732D1*
X3638964Y4084494D1*
X3636199Y4090491D1*
X3633914Y4096686D1*
X3632121Y4103042D1*
X3630833Y4109518D1*
X3630057Y4116076D1*
X3629798Y4122675D1*
X3630057Y4129273D1*
X3630833Y4135831D1*
X3632121Y4142307D1*
X3633914Y4148663D1*
X3636199Y4154858D1*
X3638964Y4160855D1*
X3642191Y4166617D1*
X3646290Y4172654D1*
X3642191Y4178732D1*
X3638964Y4184494D1*
X3636199Y4190491D1*
X3633914Y4196686D1*
X3632121Y4203042D1*
X3630833Y4209518D1*
X3630057Y4216076D1*
X3629798Y4222675D1*
X3630636Y4234166D1*
X3347175Y4234173D1*
X3347944Y4225630D1*
X3347816Y4217167D1*
X3346715Y4208051D1*
X3344627Y4199110D1*
X3341577Y4190449D1*
X3337601Y4182173D1*
X3332747Y4174380D1*
X3331516Y4172675D1*
X3336132Y4165742D1*
X3340397Y4157610D1*
X3343749Y4149062D1*
X3346150Y4140200D1*
X3347570Y4131129D1*
X3347996Y4122675D1*
X3347495Y4113506D1*
X3345997Y4104448D1*
X3343521Y4095606D1*
X3340096Y4087087D1*
X3335762Y4078992D1*
X3330572Y4071418D1*
X3324587Y4064455D1*
X3317878Y4058186D1*
X3310526Y4052686D1*
X3302619Y4048019D1*
X3294250Y4044243D1*
X3285518Y4041402D1*
X3276530Y4039529D1*
X3267390Y4038647D1*
X3258209Y4038767D1*
X3249096Y4039887D1*
X3240159Y4041994D1*
X3231505Y4045062D1*
X3229276Y4046036D1*
X3229277Y3950753D1*
X3819866Y3950767D1*
X3907881Y4038772D1*
X2262663Y2061166D2*
X2261961Y2052011D1*
X2260266Y2042987D1*
X2257597Y2034201D1*
X2253987Y2025759D1*
X2249477Y2017761D1*
X2244123Y2010302D1*
X2237987Y2003472D1*
X2231143Y1997350D1*
X2223673Y1992012D1*
X2215665Y1987519D1*
X2207215Y1983927D1*
X2198424Y1981277D1*
X2189397Y1979601D1*
X2180240Y1978919D1*
X2171064Y1979239D1*
X2161978Y1980558D1*
X2153089Y1982860D1*
X2144504Y1986117D1*
X2137537Y1989512D1*
Y1966797D1*
X2139545Y1958105D1*
X2147668Y1962386D1*
X2156208Y1965757D1*
X2165066Y1968177D1*
X2174134Y1969616D1*
X2183305Y1970059D1*
X2192470Y1969499D1*
X2201519Y1967943D1*
X2210344Y1965410D1*
X2218841Y1961931D1*
X2226908Y1957545D1*
X2232760Y1953584D1*
X2239545Y1958105D1*
X2247668Y1962386D1*
X2256208Y1965757D1*
X2265066Y1968177D1*
X2274134Y1969616D1*
X2283305Y1970059D1*
X2292470Y1969499D1*
X2301519Y1967943D1*
X2310344Y1965410D1*
X2318841Y1961931D1*
X2326908Y1957545D1*
X2334448Y1952307D1*
X2341373Y1946277D1*
X2347599Y1939529D1*
X2353052Y1932142D1*
X2357668Y1924204D1*
X2361391Y1915811D1*
X2364176Y1907062D1*
X2365991Y1898061D1*
X2366621Y1892349D1*
X2557743Y1892352D1*
X2610131Y1944468D1*
X2617316Y1949689D1*
X2625230Y1953721D1*
X2633677Y1956465D1*
X2642449Y1957855D1*
X2665262Y1958029D1*
X2907373D1*
X2913785Y1962478D1*
X2923795Y1967579D1*
X2934481Y1971051D1*
X2945578Y1972808D1*
X2951393Y1973021D1*
X2951374Y2010406D1*
X2946925Y2016821D1*
X2941824Y2026832D1*
X2938352Y2037518D1*
X2936594Y2048615D1*
Y2059850D1*
X2938352Y2070947D1*
X2941824Y2081632D1*
X2946925Y2091643D1*
X2953529Y2100733D1*
X2961473Y2108677D1*
X2970563Y2115281D1*
X2980574Y2120382D1*
X2991259Y2123854D1*
X3002356Y2125612D1*
X3010673Y2125726D1*
Y2170089D1*
X2262399Y2170093D1*
X2262663Y2161166D1*
X2261961Y2152011D1*
X2260266Y2142987D1*
X2257597Y2134201D1*
X2253987Y2125759D1*
X2249477Y2117761D1*
X2246202Y2113003D1*
X2250819Y2106070D1*
X2255083Y2097938D1*
X2258436Y2089390D1*
X2260836Y2080528D1*
X2262257Y2071457D1*
X2262683Y2063003D1*
X2262663Y2061166D1*
X2796290Y4172695D2*
X2792191Y4178732D1*
X2788964Y4184494D1*
X2786405Y4190046D1*
X2542186Y3945832D1*
X2542180Y3920217D1*
X2546629Y3913801D1*
X2551730Y3903790D1*
X2555202Y3893104D1*
X2556959Y3882007D1*
Y3870772D1*
X2555202Y3859675D1*
X2551730Y3848990D1*
X2546629Y3838979D1*
X2540025Y3829889D1*
X2532081Y3821945D1*
X2522991Y3815341D1*
X2512980Y3810240D1*
X2502295Y3806768D1*
X2491198Y3805010D1*
X2479962D1*
X2468865Y3806768D1*
X2463145Y3808408D1*
X2463130Y3765137D1*
X2728647Y3765172D1*
X2728822Y3795769D1*
X2730427Y3805902D1*
X2733597Y3815659D1*
X2738255Y3824800D1*
X2744285Y3833100D1*
X2760761Y3849861D1*
X2846287Y3935102D1*
X2854587Y3941132D1*
X2863728Y3945790D1*
X2873485Y3948960D1*
X2883618Y3950565D1*
X2907121Y3950767D1*
X3098491D1*
X3098518Y4046041D1*
X3089885Y4042691D1*
X3083529Y4040898D1*
X3077052Y4039610D1*
X3070495Y4038834D1*
X3063896Y4038575D1*
X3057298Y4038834D1*
X3050740Y4039610D1*
X3044264Y4040898D1*
X3037908Y4042691D1*
X3031713Y4044976D1*
X3025716Y4047741D1*
X3019954Y4050968D1*
X3013917Y4055067D1*
X3007838Y4050968D1*
X3002077Y4047741D1*
X2996080Y4044976D1*
X2989885Y4042691D1*
X2983529Y4040898D1*
X2977052Y4039610D1*
X2970495Y4038834D1*
X2963896Y4038575D1*
X2957298Y4038834D1*
X2950740Y4039610D1*
X2944264Y4040898D1*
X2937908Y4042691D1*
X2931713Y4044976D1*
X2925716Y4047741D1*
X2919954Y4050968D1*
X2913917Y4055067D1*
X2907840Y4050968D1*
X2902078Y4047741D1*
X2896081Y4044976D1*
X2889886Y4042691D1*
X2883530Y4040898D1*
X2877054Y4039610D1*
X2870496Y4038834D1*
X2863898Y4038575D1*
X2857299Y4038834D1*
X2850741Y4039610D1*
X2844265Y4040898D1*
X2837909Y4042691D1*
X2831714Y4044976D1*
X2825717Y4047741D1*
X2819956Y4050968D1*
X2814465Y4054636D1*
X2809279Y4058724D1*
X2804430Y4063207D1*
X2799947Y4068056D1*
X2795859Y4073242D1*
X2792191Y4078732D1*
X2788964Y4084494D1*
X2786199Y4090491D1*
X2783914Y4096686D1*
X2782121Y4103042D1*
X2780833Y4109518D1*
X2780057Y4116076D1*
X2779798Y4122675D1*
X2780057Y4129273D1*
X2780833Y4135831D1*
X2782121Y4142307D1*
X2783914Y4148663D1*
X2786199Y4154858D1*
X2788964Y4160855D1*
X2792191Y4166617D1*
X2796290Y4172654D1*
X3403080Y3454171D2*
X3402379Y3445016D1*
X3400683Y3435992D1*
X3398014Y3427207D1*
X3394404Y3418764D1*
X3389894Y3410766D1*
X3386620Y3406008D1*
X3391236Y3399075D1*
X3395500Y3390943D1*
X3398853Y3382396D1*
X3401254Y3373533D1*
X3402674Y3364462D1*
X3403100Y3356008D1*
X3402599Y3346840D1*
X3401101Y3337781D1*
X3398625Y3328939D1*
X3395199Y3320420D1*
X3390866Y3312326D1*
X3386620Y3306008D1*
X3390707Y3299950D1*
X3392837Y3296146D1*
X3396511Y3302942D1*
X3403115Y3312032D1*
X3411060Y3319977D1*
X3420149Y3326581D1*
X3430160Y3331681D1*
X3440846Y3335153D1*
X3451943Y3336911D1*
X3459075Y3337072D1*
X3459053Y3532972D1*
X3411988Y3532955D1*
X3405543Y3528506D1*
X3395533Y3523405D1*
X3384847Y3519933D1*
X3375429Y3518375D1*
X3381431Y3512357D1*
X3387202Y3505215D1*
X3392160Y3497487D1*
X3396245Y3489264D1*
X3399410Y3480645D1*
X3401617Y3471732D1*
X3402839Y3462632D1*
X3403080Y3454171D1*
X3251382Y3406009D2*
X3246948Y3412633D1*
X3242649Y3420746D1*
X3239260Y3429280D1*
X3236822Y3438132D1*
X3235363Y3447197D1*
X3234901Y3456367D1*
X3235441Y3465533D1*
X3236977Y3474585D1*
X3239491Y3483416D1*
X3242953Y3491920D1*
X3247321Y3499996D1*
X3252544Y3507548D1*
X3258559Y3514486D1*
X3265294Y3520726D1*
X3272669Y3526195D1*
X3280597Y3530828D1*
X3288982Y3534568D1*
X3297725Y3537372D1*
X3306722Y3539207D1*
X3315865Y3540049D1*
X3316388Y3540063D1*
X3310207Y3547470D1*
X3304336Y3557049D1*
X3300037Y3567430D1*
X3297414Y3578354D1*
X3296533Y3589555D1*
X3297414Y3600756D1*
X3300037Y3611681D1*
X3301641Y3616028D1*
X3291983Y3615717D1*
X3282830Y3616438D1*
X3273810Y3618152D1*
X3265030Y3620840D1*
X3256596Y3624468D1*
X3248607Y3628995D1*
X3244005Y3632167D1*
X3237942Y3628086D1*
X3232181Y3624859D1*
X3226184Y3622094D1*
X3217183Y3619018D1*
X3149465Y3551297D1*
X3157263Y3543437D1*
X3163867Y3534348D1*
X3168967Y3524337D1*
X3172439Y3513652D1*
X3174197Y3502555D1*
Y3491319D1*
X3172439Y3480222D1*
X3168967Y3469537D1*
X3163867Y3459526D1*
X3159424Y3453179D1*
X3159418Y3301476D1*
X3163867Y3295058D1*
X3168967Y3285047D1*
X3172439Y3274362D1*
X3174197Y3263265D1*
Y3252029D1*
X3172439Y3240932D1*
X3168967Y3230247D1*
X3163867Y3220236D1*
X3157263Y3211147D1*
X3149318Y3203202D1*
X3140228Y3196598D1*
X3130218Y3191497D1*
X3119532Y3188025D1*
X3108435Y3186268D1*
X3097200D1*
X3086103Y3188025D1*
X3075417Y3191497D1*
X3065407Y3196598D1*
X3056317Y3203202D1*
X3048373Y3211147D1*
X3041769Y3220236D1*
X3036668Y3230247D1*
X3033196Y3240932D1*
X3031438Y3252029D1*
Y3263265D1*
X3033196Y3274362D1*
X3036668Y3285047D1*
X3041769Y3295058D1*
X3046211Y3301405D1*
X3046218Y3448084D1*
X2802759Y3204591D1*
X2796005Y3198822D1*
X2788432Y3194182D1*
X2780227Y3190783D1*
X2771590Y3188710D1*
X2762719Y3188013D1*
X2327856D1*
X2321408Y3183564D1*
X2311398Y3178463D1*
X2300712Y3174991D1*
X2289615Y3173234D1*
X2278380D1*
X2267283Y3174991D1*
X2256597Y3178463D1*
X2246586Y3183564D1*
X2237497Y3190168D1*
X2236513Y3191077D1*
X1897928Y3191263D1*
X1889156Y3192653D1*
X1880709Y3195397D1*
X1872795Y3199430D1*
X1865610Y3204650D1*
X1849355Y3220658D1*
X1811928Y3258085D1*
X1797067Y3258093D1*
X1797084Y3136321D1*
X1801533Y3129852D1*
X1806634Y3119841D1*
X1810106Y3109156D1*
X1811864Y3098059D1*
Y3086823D1*
X1810106Y3075726D1*
X1806634Y3065041D1*
X1801533Y3055030D1*
X1794929Y3045940D1*
X1786985Y3037996D1*
X1777895Y3031392D1*
X1774465Y3029471D1*
X2264816Y3029301D1*
X2273588Y3027912D1*
X2282035Y3025167D1*
X2289949Y3021135D1*
X2297134Y3015914D1*
X2313389Y2999906D1*
X2606230Y2707065D1*
X3013809Y2707046D1*
X3013345Y2715160D1*
X3013546Y2720273D1*
X3005104Y2722463D1*
X2994724Y2726763D1*
X2985144Y2732633D1*
X2976601Y2739930D1*
X2969304Y2748474D1*
X2963434Y2758053D1*
X2959134Y2768433D1*
X2956511Y2779358D1*
X2955630Y2790559D1*
X2956511Y2801760D1*
X2959134Y2812685D1*
X2963434Y2823065D1*
X2969304Y2832644D1*
X2976601Y2841188D1*
X2985144Y2848485D1*
X2994724Y2854355D1*
X3004960Y2858601D1*
X3195412Y3048812D1*
X3202597Y3054033D1*
X3210511Y3058065D1*
X3218958Y3060809D1*
X3227730Y3062199D1*
X3235159Y3062606D1*
X3235935Y3069164D1*
X3237224Y3075641D1*
X3239016Y3081996D1*
X3241302Y3088192D1*
X3244066Y3094188D1*
X3247293Y3099950D1*
X3251393Y3105988D1*
X3246948Y3112633D1*
X3242649Y3120746D1*
X3239260Y3129280D1*
X3236822Y3138132D1*
X3235363Y3147197D1*
X3234901Y3156367D1*
X3235441Y3165533D1*
X3236977Y3174585D1*
X3239491Y3183416D1*
X3242953Y3191920D1*
X3247321Y3199996D1*
X3251379Y3206009D1*
X3247293Y3212066D1*
X3244066Y3217827D1*
X3241302Y3223824D1*
X3239016Y3230020D1*
X3237224Y3236375D1*
X3235935Y3242852D1*
X3235159Y3249409D1*
X3234900Y3256008D1*
X3235159Y3262606D1*
X3235935Y3269164D1*
X3237224Y3275641D1*
X3239016Y3281996D1*
X3241302Y3288192D1*
X3244066Y3294188D1*
X3247293Y3299950D1*
X3251393Y3305988D1*
X3246948Y3312633D1*
X3242649Y3320746D1*
X3239260Y3329280D1*
X3236822Y3338132D1*
X3235363Y3347197D1*
X3234901Y3356367D1*
X3235441Y3365533D1*
X3236977Y3374585D1*
X3239491Y3383416D1*
X3242953Y3391920D1*
X3247321Y3399996D1*
X3251379Y3406009D1*
X3402990Y2751797D2*
X3402119Y2743197D1*
X3400227Y2734212D1*
X3397366Y2725487D1*
X3393640Y2717261D1*
X3672373Y2717258D1*
X3680194Y2721905D1*
X3690574Y2726205D1*
X3701499Y2728827D1*
X3712699Y2729709D1*
X3723900Y2728827D1*
X3724396Y2728729D1*
X3724400Y2984038D1*
X3715139Y2981905D1*
X3703938Y2981023D1*
X3692738Y2981905D1*
X3681813Y2984528D1*
X3671433Y2988827D1*
X3661853Y2994698D1*
X3660180Y2996017D1*
X3629044Y2996023D1*
X3628890Y2937352D1*
X3627501Y2928580D1*
X3624756Y2920133D1*
X3620724Y2912219D1*
X3615504Y2905034D1*
X3599495Y2888779D1*
X3475826Y2765356D1*
X3468640Y2760136D1*
X3460727Y2756103D1*
X3452280Y2753359D1*
X3443508Y2751969D1*
X3420694Y2751795D1*
X3403003D1*
X3251382Y2706009D2*
X3246948Y2712633D1*
X3242649Y2720746D1*
X3239260Y2729280D1*
X3236822Y2738132D1*
X3235363Y2747197D1*
X3235010Y2751797D1*
X3222003Y2751795D1*
X3216015Y2748367D1*
X3205635Y2744067D1*
X3194710Y2741444D1*
X3183509Y2740563D1*
X3172308Y2741444D1*
X3161384Y2744067D1*
X3151003Y2748367D1*
X3147229Y2750481D1*
X3151095Y2742560D1*
X3154567Y2731875D1*
X3156324Y2720778D1*
Y2709542D1*
X3156027Y2707034D1*
X3185544Y2706872D1*
X3194317Y2705482D1*
X3202764Y2702738D1*
X3210677Y2698706D1*
X3217863Y2693485D1*
X3235716Y2675879D1*
X3237951Y2682317D1*
X3244066Y2694188D1*
X3247293Y2699950D1*
X3251393Y2705988D1*
X2938474Y3628420D2*
X2931082Y3624310D1*
X2922633Y3620717D1*
X2913842Y3618067D1*
X2904814Y3616391D1*
X2895658Y3615709D1*
X2886481Y3616029D1*
X2883891Y3616307D1*
X2824815Y3557471D1*
X2817630Y3552251D1*
X2809716Y3548219D1*
X2801269Y3545474D1*
X2792497Y3544085D1*
X2766131Y3543910D1*
X2757260Y3544611D1*
X2737449Y3545034D1*
X2726935D1*
X2719522Y3539808D1*
X2709512Y3534707D1*
X2698826Y3531235D1*
X2687729Y3529478D1*
X2676494D1*
X2665397Y3531235D1*
X2654711Y3534707D1*
X2644701Y3539808D1*
X2635611Y3546412D1*
X2627666Y3554356D1*
X2621063Y3563446D1*
X2615962Y3573457D1*
X2612490Y3584142D1*
X2610732Y3595239D1*
Y3606475D1*
X2612490Y3617572D1*
X2615962Y3628257D1*
X2618906Y3634417D1*
X2418472Y3634413D1*
X2397609Y3613854D1*
X2389309Y3607824D1*
X2380168Y3603167D1*
X2370411Y3599996D1*
X2360278Y3598391D1*
X2336776Y3598190D1*
X2277172D1*
X2268233Y3591863D1*
X2262472Y3588636D1*
X2256475Y3585871D1*
X2250280Y3583586D1*
X2243924Y3581793D1*
X2237447Y3580505D1*
X2230890Y3579729D1*
X2224291Y3579470D1*
X2217693Y3579729D1*
X2211135Y3580505D1*
X2204659Y3581793D1*
X2198303Y3583586D1*
X2192108Y3585871D1*
X2186111Y3588636D1*
X2180349Y3591863D1*
X2174312Y3595962D1*
X2166238Y3590677D1*
X2158041Y3586539D1*
X2149443Y3583319D1*
X2140544Y3581055D1*
X2131452Y3579775D1*
X2124937Y3579477D1*
X2163471Y3540695D1*
X2166232Y3537190D1*
X2207465Y3537169D1*
Y3400415D1*
X2328668Y3400437D1*
X2338139Y3406245D1*
X2348519Y3410544D1*
X2359444Y3413167D1*
X2370644Y3414049D1*
X2381845Y3413167D1*
X2392770Y3410544D1*
X2403150Y3406245D1*
X2412730Y3400374D1*
X2421273Y3393078D1*
X2428570Y3384534D1*
X2434440Y3374955D1*
X2438740Y3364574D1*
X2441363Y3353650D1*
X2442216Y3343173D1*
X2729150Y3343166D1*
X2938491Y3552492D1*
X2938471Y3628391D1*
X3378080Y3697956D2*
X3377379Y3688801D1*
X3375683Y3679777D1*
X3373014Y3670991D1*
X3369404Y3662549D1*
X3368692Y3661148D1*
X3379333Y3660274D1*
X3390258Y3657651D1*
X3400638Y3653351D1*
X3410218Y3647481D1*
X3411891Y3646162D1*
X3462329Y3646155D1*
X3552934Y3736732D1*
X3554351Y3744440D1*
X3557237Y3753539D1*
X3358833Y3753361D1*
X3364286Y3745974D1*
X3368901Y3738036D1*
X3372624Y3729643D1*
X3375410Y3720894D1*
X3377225Y3711893D1*
X3378048Y3702749D1*
X3378080Y3697956D1*
X2174312Y2731177D2*
X2180349Y2735277D1*
X2186111Y2738503D1*
X2192108Y2741268D1*
X2198303Y2743553D1*
X2204485Y2745297D1*
X2144151Y2745292D1*
X2150280Y2743553D1*
X2156475Y2741268D1*
X2162472Y2738503D1*
X2168233Y2735277D1*
X2174271Y2731177D1*
X1643804Y2639201D2*
X1641742Y2647493D1*
X1640482Y2656588D1*
X1640220Y2665766D1*
X1640960Y2674917D1*
X1642694Y2683934D1*
X1645401Y2692708D1*
X1649047Y2701135D1*
X1653591Y2709113D1*
X1658977Y2716549D1*
X1665142Y2723354D1*
X1672012Y2729446D1*
X1679505Y2734752D1*
X1687531Y2739210D1*
X1695996Y2742767D1*
X1704444Y2745291D1*
X1631908Y2745467D1*
X1623136Y2746856D1*
X1614689Y2749601D1*
X1606776Y2753633D1*
X1599590Y2758853D1*
X1583335Y2774861D1*
X1510436Y2847761D1*
X1510425Y2539939D1*
X1590503Y2620051D1*
X1598304Y2626713D1*
X1607052Y2632074D1*
X1616530Y2636000D1*
X1626506Y2638395D1*
X1636754Y2639199D1*
X1744125Y2745292D2*
X1751869Y2743019D1*
X1760366Y2739540D1*
X1768433Y2735154D1*
X1774285Y2731193D1*
X1781070Y2735714D1*
X1789193Y2739995D1*
X1797733Y2743366D1*
X1804444Y2745291D1*
X1744114Y2745292D1*
X1844125D2*
X1851869Y2743019D1*
X1860366Y2739540D1*
X1868433Y2735154D1*
X1874285Y2731193D1*
X1881070Y2735714D1*
X1889193Y2739995D1*
X1897733Y2743366D1*
X1904444Y2745291D1*
X1844159Y2745292D1*
X1944125D2*
X1951869Y2743019D1*
X1960366Y2739540D1*
X1968433Y2735154D1*
X1974285Y2731193D1*
X1981070Y2735714D1*
X1989193Y2739995D1*
X1997733Y2743366D1*
X2004444Y2745291D1*
X1944133Y2745292D1*
X2044125D2*
X2051869Y2743019D1*
X2060366Y2739540D1*
X2068433Y2735154D1*
X2074285Y2731193D1*
X2080349Y2735277D1*
X2086111Y2738503D1*
X2092108Y2741268D1*
X2098303Y2743553D1*
X2104485Y2745297D1*
X2044178Y2745292D1*
X1356925Y2963752D2*
X1350442Y2959301D1*
X1344681Y2956074D1*
X1338684Y2953310D1*
X1332488Y2951024D1*
X1326133Y2949232D1*
X1319656Y2947943D1*
X1313098Y2947167D1*
X1306500Y2946908D1*
X1299902Y2947167D1*
X1293344Y2947943D1*
X1286867Y2949232D1*
X1280512Y2951024D1*
X1274316Y2953310D1*
X1268319Y2956074D1*
X1262558Y2959301D1*
X1257067Y2962970D1*
X1251881Y2967058D1*
X1247032Y2971540D1*
X1242550Y2976389D1*
X1238462Y2981575D1*
X1234793Y2987066D1*
X1231566Y2992827D1*
X1228802Y2998824D1*
X1226516Y3005020D1*
X1224724Y3011375D1*
X1223435Y3017852D1*
X1222659Y3024409D1*
X1222400Y3031008D1*
X1222659Y3037606D1*
X1223435Y3044164D1*
X1224724Y3050641D1*
X1226516Y3056996D1*
X1228802Y3063192D1*
X1231566Y3069188D1*
X1234793Y3074950D1*
X1238893Y3080988D1*
X1234448Y3087633D1*
X1230149Y3095746D1*
X1226760Y3104280D1*
X1224322Y3113132D1*
X1222863Y3122197D1*
X1222401Y3131367D1*
X1222941Y3140533D1*
X1224477Y3149585D1*
X1226991Y3158416D1*
X1230453Y3166920D1*
X1234821Y3174996D1*
X1238879Y3181009D1*
X1234793Y3187066D1*
X1231566Y3192827D1*
X1227346Y3202769D1*
X1137942Y3202715D1*
X1143433Y3199046D1*
X1148619Y3194958D1*
X1153468Y3190476D1*
X1157950Y3185626D1*
X1162038Y3180441D1*
X1165707Y3174950D1*
X1168934Y3169188D1*
X1171698Y3163192D1*
X1173984Y3156996D1*
X1175776Y3150641D1*
X1177065Y3144164D1*
X1177841Y3137606D1*
X1178100Y3131008D1*
X1177841Y3124409D1*
X1177065Y3117852D1*
X1175776Y3111375D1*
X1173984Y3105020D1*
X1171698Y3098824D1*
X1168934Y3092827D1*
X1165707Y3087066D1*
X1161607Y3081028D1*
X1166236Y3074075D1*
X1170500Y3065943D1*
X1173853Y3057396D1*
X1176254Y3048533D1*
X1177674Y3039462D1*
X1178100Y3031008D1*
X1177599Y3021840D1*
X1176101Y3012781D1*
X1173625Y3003939D1*
X1170199Y2995420D1*
X1165866Y2987326D1*
X1161620Y2981008D1*
X1165707Y2974950D1*
X1168934Y2969188D1*
X1171698Y2963192D1*
X1173984Y2956996D1*
X1175776Y2950641D1*
X1177065Y2944164D1*
X1177841Y2937606D1*
X1178100Y2931008D1*
X1177841Y2924409D1*
X1177065Y2917852D1*
X1175776Y2911375D1*
X1173984Y2905020D1*
X1171698Y2898824D1*
X1168934Y2892827D1*
X1165707Y2887066D1*
X1161607Y2881028D1*
X1166236Y2874075D1*
X1170500Y2865943D1*
X1173853Y2857396D1*
X1176254Y2848533D1*
X1177674Y2839462D1*
X1178100Y2831008D1*
X1177599Y2821840D1*
X1176101Y2812781D1*
X1173625Y2803939D1*
X1170199Y2795420D1*
X1165866Y2787326D1*
X1161620Y2781008D1*
X1165707Y2774950D1*
X1168934Y2769188D1*
X1171698Y2763192D1*
X1173984Y2756996D1*
X1175776Y2750641D1*
X1177065Y2744164D1*
X1177841Y2737606D1*
X1178100Y2731008D1*
X1177841Y2724409D1*
X1177065Y2717852D1*
X1175776Y2711375D1*
X1173984Y2705020D1*
X1171698Y2698824D1*
X1168934Y2692827D1*
X1165707Y2687066D1*
X1162038Y2681575D1*
X1157950Y2676389D1*
X1150607Y2668896D1*
X1150600Y2417631D1*
X1161891Y2418437D1*
X1168256Y2418187D1*
X1174582Y2417438D1*
X1180830Y2416196D1*
X1186961Y2414467D1*
X1192937Y2412262D1*
X1198722Y2409595D1*
X1204280Y2406482D1*
X1209577Y2402943D1*
X1214579Y2399000D1*
X1219257Y2394676D1*
X1223581Y2389998D1*
X1227525Y2384995D1*
X1231064Y2379699D1*
X1234176Y2374141D1*
X1236843Y2368356D1*
X1239048Y2362380D1*
X1240777Y2356249D1*
X1242020Y2350001D1*
X1242769Y2343675D1*
X1243019Y2337310D1*
X1242769Y2330945D1*
X1242020Y2324619D1*
X1240777Y2318371D1*
X1239048Y2312240D1*
X1236843Y2306264D1*
X1234176Y2300479D1*
X1231064Y2294921D1*
X1227525Y2289624D1*
X1220591Y2281387D1*
X1229632Y2282210D1*
X1238813Y2282050D1*
X1247921Y2280892D1*
X1256849Y2278747D1*
X1261244Y2277295D1*
X1258971Y2286557D1*
X1258263Y2295552D1*
X1258441Y2437895D1*
X1259852Y2446808D1*
X1262641Y2455390D1*
X1266737Y2463430D1*
X1272041Y2470730D1*
X1288098Y2487037D1*
X1356937Y2555877D1*
X1356914Y2963685D1*
X1092977Y3920931D2*
X1082957Y3917069D1*
X1072337Y3914127D1*
X1061480Y3912247D1*
X1050490Y3911447D1*
X1039474Y3911735D1*
X1028541Y3913108D1*
X1017796Y3915552D1*
X1007345Y3919044D1*
X997289Y3923549D1*
X987726Y3929024D1*
X978750Y3935416D1*
X970448Y3942662D1*
X962902Y3950691D1*
X956183Y3959425D1*
X950359Y3968779D1*
X945486Y3978662D1*
X941611Y3988977D1*
X938772Y3999624D1*
X936997Y4010499D1*
X936303Y4021497D1*
X936697Y4032509D1*
X938175Y4043428D1*
X940723Y4054149D1*
X944315Y4064566D1*
X948917Y4074578D1*
X954485Y4084087D1*
X960963Y4093001D1*
X968288Y4101233D1*
X976390Y4108702D1*
X985188Y4115336D1*
X994598Y4121069D1*
X998351Y4123014D1*
X989282Y4128047D1*
X980202Y4134290D1*
X971782Y4141398D1*
X964104Y4149301D1*
X957242Y4157924D1*
X951265Y4167181D1*
X946230Y4176982D1*
X942185Y4187232D1*
X939172Y4197831D1*
X937218Y4208676D1*
X936343Y4219660D1*
X936556Y4230677D1*
X937854Y4241619D1*
X940225Y4252380D1*
X942310Y4259164D1*
X470375Y4258640D1*
X469737Y4157811D1*
X476235Y4160844D1*
X482430Y4163130D1*
X488786Y4164922D1*
X495262Y4166210D1*
X501820Y4166986D1*
X508419Y4167246D1*
X515017Y4166986D1*
X521575Y4166210D1*
X528051Y4164922D1*
X534407Y4163130D1*
X540602Y4160844D1*
X546599Y4158079D1*
X552361Y4154853D1*
X558398Y4150753D1*
X564477Y4154853D1*
X570238Y4158079D1*
X576235Y4160844D1*
X582430Y4163130D1*
X588786Y4164922D1*
X595262Y4166210D1*
X601820Y4166986D1*
X608419Y4167246D1*
X615017Y4166986D1*
X621575Y4166210D1*
X628051Y4164922D1*
X634407Y4163130D1*
X640602Y4160844D1*
X646599Y4158079D1*
X652361Y4154853D1*
X657851Y4151184D1*
X663037Y4147096D1*
X667886Y4142613D1*
X672369Y4137764D1*
X676457Y4132578D1*
X680126Y4127088D1*
X683352Y4121326D1*
X686117Y4115329D1*
X688402Y4109134D1*
X690195Y4102778D1*
X691483Y4096302D1*
X692259Y4089744D1*
X692519Y4083146D1*
X692259Y4076547D1*
X691483Y4069990D1*
X690195Y4063513D1*
X688402Y4057157D1*
X686117Y4050962D1*
X683352Y4044965D1*
X680441Y4039766D1*
X799705Y4039573D1*
X808477Y4038183D1*
X816924Y4035439D1*
X824837Y4031407D1*
X832023Y4026186D1*
X848278Y4010178D1*
X1011965Y3846490D1*
X1068509Y3846487D1*
X1069453Y3857011D1*
X1070695Y3863259D1*
X1072424Y3869390D1*
X1074629Y3875366D1*
X1077296Y3881151D1*
X1080409Y3886709D1*
X1083948Y3892006D1*
X1087891Y3897008D1*
X1092965Y3902379D1*
X1092981Y3920933D1*
X4232139Y2906058D2*
X4224353Y2902576D1*
X4215622Y2899735D1*
X4206633Y2897862D1*
X4197494Y2896980D1*
X4188313Y2897100D1*
X4179200Y2898220D1*
X4170263Y2900327D1*
X4161609Y2903396D1*
X4159380Y2904369D1*
Y2727917D1*
X4165689Y2726205D1*
X4176069Y2721905D1*
X4185648Y2716035D1*
X4194192Y2708738D1*
X4201489Y2700194D1*
X4207359Y2690615D1*
X4211659Y2680235D1*
X4214281Y2669310D1*
X4215163Y2658109D1*
X4214281Y2646908D1*
X4211659Y2635983D1*
X4207359Y2625603D1*
X4201489Y2616023D1*
X4200170Y2614351D1*
X4200163Y1775394D1*
X4232165Y1807418D1*
X4232145Y2906088D1*
X464179Y3307400D2*
X473314Y3306718D1*
X481172Y3305301D1*
X481346Y3377792D1*
X482735Y3386565D1*
X485480Y3395012D1*
X489512Y3402925D1*
X494733Y3410111D1*
X510741Y3426365D1*
X535328Y3450953D1*
X535329Y3488907D1*
X530880Y3495366D1*
X525779Y3505377D1*
X523041Y3513462D1*
X485209Y3513647D1*
X476296Y3515058D1*
X467698Y3517854D1*
X465543Y3516036D1*
X464179Y3307374D1*
X864494Y3332000D2*
X860628Y3327096D1*
X856199Y3322305D1*
X851408Y3317876D1*
X845966Y3313624D1*
X848546Y3311639D1*
X856993Y3314384D1*
X865765Y3315773D1*
X888579Y3315948D1*
X1270101Y3315773D1*
X1274531Y3315248D1*
X1276779Y3316078D1*
X1260869Y3331988D1*
X864499Y3331993D1*
X1378378Y1826217D2*
D21*
X1465375D1*
X3942112Y3111241D2*
Y3028181D1*
X3855114D2*
X4029109D1*
X2356412Y4208795D2*
X2439472D1*
X463280Y2787997D2*
Y2547074D1*
X461705Y2250768D2*
Y2009844D1*
X2178583Y2063003D2*
Y1978939D1*
Y2063003D2*
X2262647D1*
X2178583Y2163003D2*
X2262647D1*
X3263896Y4122675D2*
Y4038610D1*
Y4122675D2*
X3347960D1*
X3263896Y4222675D2*
X3347960D1*
X3319000Y3540072D2*
Y3456008D1*
X3234936D2*
X3403064D1*
X3234936Y3356008D2*
X3403064D1*
X3234936Y3156008D2*
X3319000D1*
X1632766Y1870025D2*
Y1785961D1*
X1548702D2*
X1632766D1*
X3234936Y2756008D2*
X3403064D1*
X2894000Y3699793D2*
Y3615729D1*
X3294000Y3699793D2*
Y3615729D1*
Y3699793D2*
X3378064D1*
X2124291Y3747634D2*
Y3579505D1*
X1640227Y2663570D2*
X1724291D1*
X4113896Y4122675D2*
Y4038610D1*
Y4122675D2*
X4197960D1*
X2282766Y1970025D2*
Y1885961D1*
X2366831D1*
X1222436Y3131008D2*
X1306500D1*
X2182766Y1970025D2*
Y1885961D1*
X1047892Y4023017D2*
Y3911453D1*
X936328Y4023017D2*
X1047892D1*
X4216182Y3796379D2*
Y3712315D1*
X4116182Y3796379D2*
Y3712315D1*
X4032118D2*
X4116182D1*
X4194000Y3065072D2*
Y2896944D1*
X936328Y4223017D2*
X1047892D1*
X1094000Y3031008D2*
X1178064D1*
X1094000Y2831008D2*
X1178064D1*
X1232768Y2282232D2*
Y2114104D1*
X1148704Y2198168D2*
X1316832D1*
X1094000Y1931008D2*
Y1849916D1*
Y1931008D2*
X1175092D1*
X462563Y3307380D2*
Y3066457D1*
X3822465Y3169911D2*
Y3078976D1*
Y3169911D2*
X3885840D1*
X4056775Y1521139D2*
D20*
X4082973D1*
X4204151D2*
X4270001D1*
X2197795Y1481270D2*
X4082973D1*
X4204151D2*
X4270001D1*
X1651314Y1441402D2*
X1870820D1*
X2197795D2*
X2888352D1*
X3316484D2*
X3810289D1*
X4204151D2*
X4270001D1*
X2197795Y1401533D2*
X2243011D1*
X2417191D2*
X2888352D1*
X3316484D2*
X3770421D1*
X4207237D2*
X4270001D1*
X2197795Y1361664D2*
X2243011D1*
X2417191D2*
X2476581D1*
X2658655D2*
X2888352D1*
X3316484D2*
X3702062D1*
X4207237D2*
X4270001D1*
X2197795Y1321795D2*
X2243011D1*
X2417191D2*
X2476581D1*
X2808292D2*
X2888352D1*
X3316484D2*
X3689000D1*
X4207237D2*
X4270001D1*
X2197795Y1281927D2*
X2243011D1*
X2417191D2*
X2476581D1*
X2821426D2*
X3059914D1*
X3181093D2*
X3310530D1*
X3603701D2*
X3696966D1*
X4229163D2*
X4270001D1*
X2197795Y1242058D2*
X2243011D1*
X2417191D2*
X2476581D1*
X2814249D2*
X3059914D1*
X3181093D2*
X3310530D1*
X3647552D2*
X3739597D1*
X4229163D2*
X4270001D1*
X2219433Y1202189D2*
X2243011D1*
X2658655D2*
X2689984D1*
X2777037D2*
X2812098D1*
X4229163D2*
X4270001D1*
X2658655Y1162320D2*
X2812098D1*
X4229163D2*
X4270001D1*
X2658655Y1122451D2*
X2812098D1*
X3939290D2*
X4270001D1*
X2459462Y1082583D2*
X2812098D1*
X4027458D2*
X4270001D1*
X2417191Y1042714D2*
X3261081D1*
X2441054Y1002845D2*
X3364786D1*
X2480921Y962976D2*
X2985993D1*
X2097534Y923108D2*
X2324396D1*
X2510131D2*
X2985993D1*
X2513181Y883239D2*
X2669494D1*
X3738662D2*
X3818111D1*
X2513181Y843370D2*
X2656863D1*
X4076798D2*
X4270001D1*
X2513181Y803501D2*
X2551041D1*
X2637448D2*
X2664471D1*
X4109202D2*
X4270001D1*
X4114441Y763633D2*
X4270001D1*
X2097534Y723764D2*
X2326836D1*
X4099082D2*
X4270001D1*
X2499078Y683895D2*
X2542464D1*
X3977256D2*
X4270001D1*
X2522403Y644026D2*
X2566435D1*
X3545138D2*
X3616586D1*
X3901038D2*
X4270001D1*
X2522869Y604157D2*
X2566435D1*
X3901038D2*
X4116991D1*
X2501016Y564289D2*
X2796273D1*
X3364067D2*
X3456578D1*
X3901038D2*
X4090149D1*
X3364067Y524420D2*
X3500070D1*
X3901038D2*
X4081214D1*
X3056934Y484551D2*
X3616586D1*
X3901038D2*
X4085951D1*
X3997965Y1143262D2*
X3914498D1*
X3942513Y1115235D1*
X3971823Y1115056D1*
X3980595Y1113666D1*
X3989042Y1110922D1*
X3996955Y1106889D1*
X4004141Y1101669D1*
X4020396Y1085661D1*
X4052646Y1053410D1*
X4273995Y1053419D1*
X4274000Y1561037D1*
X4200163Y1561008D1*
Y1422796D1*
X4201671Y1417640D1*
X4203061Y1408867D1*
X4203235Y1386054D1*
Y1309441D1*
X4225147Y1309454D1*
Y1143262D1*
X3997932Y1143298D1*
X3734649Y848730D2*
X3973241D1*
Y837742D1*
X3980510Y843128D1*
X3988438Y847761D1*
X3996823Y851501D1*
X4005566Y854305D1*
X4014563Y856140D1*
X4023706Y856982D1*
X4032886Y856823D1*
X4041995Y855664D1*
X4050922Y853520D1*
X4059563Y850414D1*
X4067814Y846385D1*
X4075576Y841481D1*
X4082757Y835760D1*
X4089272Y829290D1*
X4095043Y822148D1*
X4100001Y814420D1*
X4104087Y806197D1*
X4107252Y797578D1*
X4109458Y788665D1*
X4110680Y779565D1*
X4110921Y771104D1*
X4110220Y761949D1*
X4108525Y752925D1*
X4105856Y744140D1*
X4102245Y735698D1*
X4097736Y727699D1*
X4092381Y720241D1*
X4086245Y713410D1*
X4079402Y707289D1*
X4071931Y701950D1*
X4063924Y697458D1*
X4055474Y693865D1*
X4046683Y691215D1*
X4037655Y689539D1*
X4028499Y688857D1*
X4019323Y689178D1*
X4010236Y690497D1*
X4001347Y692798D1*
X3992763Y696055D1*
X3984584Y700228D1*
X3976909Y705268D1*
X3973243Y708140D1*
X3973241Y682538D1*
X3576397D1*
X3539505Y645488D1*
X3565247Y621919D1*
X3620621Y621426D1*
X3620593Y651084D1*
X3897021D1*
Y477018D1*
X3620593D1*
X3620489Y508222D1*
X3538018Y509164D1*
X3529259Y510635D1*
X3520838Y513458D1*
X3512962Y517564D1*
X3505813Y522862D1*
X3437416Y585534D1*
X3372268Y585532D1*
X3360061Y573316D1*
X3360067Y504774D1*
X3083639D1*
Y515288D1*
X3019383Y451008D1*
X4105781D1*
X4102251Y456551D1*
X4097821Y464595D1*
X4094018Y472955D1*
X4090865Y481581D1*
X4088380Y490423D1*
X4086577Y499428D1*
X4085468Y508545D1*
X4085059Y517720D1*
X4085352Y526899D1*
X4086345Y536030D1*
X4088033Y545057D1*
X4090405Y553930D1*
X4093448Y562595D1*
X4097145Y571002D1*
X4101473Y579103D1*
X4106407Y586849D1*
X4111919Y594195D1*
X4117975Y601099D1*
X4124541Y607521D1*
X4131579Y613421D1*
X4139047Y618767D1*
X4146902Y623527D1*
X4155097Y627673D1*
X4163585Y631180D1*
X4172316Y634029D1*
X4181239Y636203D1*
X4190302Y637688D1*
X4199452Y638477D1*
X4208636Y638565D1*
X4217799Y637950D1*
X4226889Y636638D1*
X4235852Y634635D1*
X4244636Y631952D1*
X4253189Y628607D1*
X4261462Y624618D1*
X4269406Y620009D1*
X4273988Y616859D1*
X4274000Y879381D1*
X4098541Y879353D1*
X4098534Y877303D1*
X3822106D1*
Y914371D1*
X3748926Y914403D1*
X3741626Y913346D1*
X3737168Y913172D1*
X3734658Y908417D1*
Y848742D1*
X3094443Y1475593D2*
X3312473D1*
Y1309401D1*
X3177082D1*
X3177099Y1232116D1*
X3313831Y1232148D1*
Y1151014D1*
X3314528Y1151732D1*
Y1318449D1*
X3590956D1*
Y1285471D1*
X3599846Y1281847D1*
X3607418Y1277206D1*
X3614184Y1271426D1*
X3683706Y1201655D1*
X3685886Y1199010D1*
X3693799Y1203042D1*
X3702246Y1205787D1*
X3711019Y1207176D1*
X3733832Y1207351D1*
X3764513D1*
X3764702Y1217219D1*
X3766091Y1225991D1*
X3768843Y1234454D1*
X3767619Y1236401D1*
X3761293Y1237149D1*
X3755045Y1238392D1*
X3748914Y1240121D1*
X3742938Y1242326D1*
X3737153Y1244993D1*
X3731595Y1248106D1*
X3726299Y1251645D1*
X3721296Y1255588D1*
X3716618Y1259912D1*
X3712294Y1264590D1*
X3708351Y1269593D1*
X3704812Y1274889D1*
X3701699Y1280447D1*
X3699032Y1286232D1*
X3696827Y1292208D1*
X3695098Y1298339D1*
X3693856Y1304587D1*
X3693107Y1310913D1*
X3692857Y1317278D1*
X3693107Y1323643D1*
X3693856Y1329969D1*
X3695098Y1336217D1*
X3696827Y1342348D1*
X3699032Y1348324D1*
X3701699Y1354109D1*
X3704812Y1359667D1*
X3708351Y1364964D1*
X3712294Y1369966D1*
X3716618Y1374644D1*
X3721296Y1378968D1*
X3726299Y1382912D1*
X3731595Y1386451D1*
X3737153Y1389563D1*
X3742938Y1392230D1*
X3748914Y1394435D1*
X3755045Y1396164D1*
X3761293Y1397407D1*
X3771175Y1398295D1*
X3820593Y1447466D1*
X3827778Y1452686D1*
X3835692Y1456718D1*
X3844139Y1459463D1*
X3852911Y1460852D1*
X3875724Y1461027D1*
X4086975D1*
X4086963Y1555320D1*
X4032373Y1501008D1*
X4024073Y1494978D1*
X4014932Y1490320D1*
X4005175Y1487150D1*
X3995042Y1485545D1*
X3971539Y1485343D1*
X2193801D1*
X2193777Y1239464D1*
X2215431Y1239469D1*
Y1169961D1*
X2223504Y1171859D1*
X2232358Y1172555D1*
X2247035D1*
X2247014Y1422476D1*
X2413207D1*
Y1200404D1*
X2431431Y1218383D1*
X2438617Y1223603D1*
X2446530Y1227636D1*
X2454977Y1230380D1*
X2463749Y1231769D1*
X2480570Y1231944D1*
X2480587Y1368676D1*
X2654653D1*
Y1305699D1*
X2658249Y1313986D1*
X2662793Y1321965D1*
X2668179Y1329401D1*
X2674344Y1336205D1*
X2681214Y1342297D1*
X2688707Y1347604D1*
X2696734Y1352062D1*
X2705199Y1355619D1*
X2714001Y1358231D1*
X2723035Y1359868D1*
X2732195Y1360511D1*
X2741369Y1360152D1*
X2750450Y1358794D1*
X2759329Y1356455D1*
X2767900Y1353161D1*
X2776061Y1348953D1*
X2783714Y1343880D1*
X2790769Y1338004D1*
X2797141Y1331393D1*
X2802754Y1324127D1*
X2807542Y1316292D1*
X2811447Y1307982D1*
X2814423Y1299296D1*
X2816434Y1290337D1*
X2817457Y1281213D1*
X2817513Y1272748D1*
X2816612Y1263610D1*
X2814720Y1254626D1*
X2811860Y1245901D1*
X2808066Y1237540D1*
X2803383Y1229642D1*
X2797866Y1222302D1*
X2791583Y1215607D1*
X2784607Y1209637D1*
X2777022Y1204462D1*
X2768918Y1200146D1*
X2760392Y1196739D1*
X2751545Y1194281D1*
X2742483Y1192803D1*
X2733314Y1192321D1*
X2724147Y1192842D1*
X2715091Y1194359D1*
X2706255Y1196854D1*
X2697744Y1200298D1*
X2689658Y1204649D1*
X2682095Y1209855D1*
X2675145Y1215855D1*
X2668890Y1222577D1*
X2663405Y1229941D1*
X2658756Y1237858D1*
X2654997Y1246236D1*
X2654655Y1247157D1*
X2654653Y1092248D1*
X2480587D1*
Y1107714D1*
X2445561Y1072916D1*
X2438375Y1067696D1*
X2430462Y1063664D1*
X2422015Y1060919D1*
X2413225Y1059529D1*
X2413207Y1026710D1*
X2489680Y950210D1*
X2496467Y942263D1*
X2501928Y933353D1*
X2505927Y923697D1*
X2508367Y913535D1*
X2509186Y903096D1*
X2508981Y736116D1*
X2507347Y725794D1*
X2504117Y715854D1*
X2499373Y706543D1*
X2493230Y698088D1*
X2489665Y694234D1*
X2491562Y687077D1*
X2496411Y682595D1*
X2500894Y677746D1*
X2504982Y672560D1*
X2508651Y667069D1*
X2511877Y661308D1*
X2514642Y655311D1*
X2516927Y649116D1*
X2518720Y642760D1*
X2520008Y636283D1*
X2520784Y629726D1*
X2521044Y623127D1*
X2520784Y616529D1*
X2520008Y609971D1*
X2518720Y603495D1*
X2516927Y597139D1*
X2514642Y590944D1*
X2511877Y584947D1*
X2508651Y579185D1*
X2504982Y573695D1*
X2500894Y568509D1*
X2496411Y563660D1*
X2491562Y559177D1*
X2486376Y555089D1*
X2480886Y551420D1*
X2475124Y548194D1*
X2469127Y545429D1*
X2462932Y543143D1*
X2456576Y541351D1*
X2450100Y540063D1*
X2443542Y539287D1*
X2436944Y539027D1*
X2430345Y539287D1*
X2423787Y540063D1*
X2417311Y541351D1*
X2410955Y543143D1*
X2404760Y545429D1*
X2398763Y548194D1*
X2393001Y551420D1*
X2386964Y555520D1*
X2380886Y551420D1*
X2375124Y548194D1*
X2369127Y545429D1*
X2362932Y543143D1*
X2356576Y541351D1*
X2345617Y539532D1*
X2335254Y529190D1*
X2830763Y529184D1*
X2821917Y535770D1*
X2817068Y540253D1*
X2812585Y545102D1*
X2808497Y550288D1*
X2804828Y555778D1*
X2801602Y561540D1*
X2798837Y567537D1*
X2796552Y573732D1*
X2794759Y580088D1*
X2793471Y586564D1*
X2792552Y596756D1*
X2570449Y596765D1*
Y658019D1*
X2551212Y677467D1*
X2545991Y684652D1*
X2541953Y692582D1*
X2539806Y697087D1*
X2533202Y706177D1*
X2528101Y716188D1*
X2524629Y726873D1*
X2522871Y737970D1*
Y749206D1*
X2524629Y760303D1*
X2528101Y770988D1*
X2533202Y780999D1*
X2539806Y790088D1*
X2547750Y798033D1*
X2556840Y804637D1*
X2566851Y809738D1*
X2577536Y813210D1*
X2588633Y814967D1*
X2599868D1*
X2610965Y813210D1*
X2621651Y809738D1*
X2631662Y804637D1*
X2640751Y798033D1*
X2648696Y790088D1*
X2655300Y780999D1*
X2660400Y770988D1*
X2662312Y770831D1*
X2695218D1*
X2687826Y776906D1*
X2681425Y783490D1*
X2675781Y790732D1*
X2670960Y798546D1*
X2667019Y806839D1*
X2664006Y815512D1*
X2661957Y824462D1*
X2660895Y833583D1*
X2660834Y842764D1*
X2661774Y851898D1*
X2663704Y860874D1*
X2666602Y869587D1*
X2670432Y877932D1*
X2675148Y885810D1*
X2680696Y893126D1*
X2687008Y899794D1*
X2694009Y905735D1*
X2701616Y910876D1*
X2709739Y915158D1*
X2718279Y918529D1*
X2727136Y920948D1*
X2736205Y922388D1*
X2745376Y922831D1*
X2754540Y922271D1*
X2763589Y920715D1*
X2772415Y918182D1*
X2780912Y914702D1*
X2788979Y910317D1*
X2794831Y906356D1*
X2800895Y910439D1*
X2806657Y913666D1*
X2812654Y916431D1*
X2818849Y918716D1*
X2825205Y920509D1*
X2831681Y921797D1*
X2838239Y922573D1*
X2844837Y922832D1*
X2851436Y922573D1*
X2857993Y921797D1*
X2864470Y920509D1*
X2870826Y918716D1*
X2877021Y916431D1*
X2883018Y913666D1*
X2888779Y910439D1*
X2894817Y906339D1*
X2900895Y910439D1*
X2906657Y913666D1*
X2912654Y916431D1*
X2918849Y918716D1*
X2925205Y920509D1*
X2931681Y921797D1*
X2938239Y922573D1*
X2944837Y922832D1*
X2951436Y922573D1*
X2957993Y921797D1*
X2964470Y920509D1*
X2970826Y918716D1*
X2977021Y916431D1*
X2983018Y913666D1*
X2990002Y909622D1*
X2989988Y973299D1*
X3368817D1*
X3368789Y1022102D1*
X3331387Y1022118D1*
Y1037799D1*
X3283752Y1037961D1*
X3274980Y1039351D1*
X3266533Y1042095D1*
X3258619Y1046128D1*
X3251434Y1051348D1*
X3244441Y1058095D1*
X3092533Y1058082D1*
X3092542Y1055296D1*
X2816114D1*
Y1229362D1*
X3037412D1*
X3037403Y1232148D1*
X3063921D1*
X3063899Y1309429D1*
X2892344Y1309401D1*
Y1475593D1*
X3094443D1*
X2041028Y1284229D2*
Y1261335D1*
X2050157Y1259927D1*
X2058604Y1257183D1*
X2062655Y1255314D1*
X2063018Y1257423D1*
Y1470108D1*
X2041020Y1470093D1*
X2041021Y1284196D1*
X1874836Y1261482D2*
Y1470098D1*
X1610409Y1470093D1*
X1618055Y1467003D1*
X1624523Y1463521D1*
X1630598Y1459392D1*
X1636217Y1454659D1*
X1641318Y1449373D1*
X1645848Y1443591D1*
X1649759Y1437373D1*
X1653009Y1430785D1*
X1655564Y1423898D1*
X1657397Y1416784D1*
X1658488Y1409520D1*
X1658827Y1400741D1*
X1658614Y1357702D1*
X1657670Y1350417D1*
X1655981Y1343268D1*
X1653566Y1336331D1*
X1650449Y1329679D1*
X1647219Y1324230D1*
X1679823Y1324225D1*
X1679819Y1414073D1*
X1853885D1*
Y1261458D1*
X1874827Y1261491D1*
X2136937Y755504D2*
X2130472Y751168D1*
X2122368Y746852D1*
X2113842Y743445D1*
X2104995Y740987D1*
X2095933Y739509D1*
X2093539Y739291D1*
X2093723Y695271D1*
X2101845Y699553D1*
X2110385Y702924D1*
X2119243Y705343D1*
X2128311Y706783D1*
X2137482Y707226D1*
X2146647Y706666D1*
X2155696Y705110D1*
X2164521Y702577D1*
X2173018Y699097D1*
X2181085Y694712D1*
X2186938Y690751D1*
X2193001Y694834D1*
X2198763Y698061D1*
X2204760Y700826D1*
X2210955Y703111D1*
X2217311Y704904D1*
X2223787Y706192D1*
X2230345Y706968D1*
X2236944Y707227D1*
X2243542Y706968D1*
X2250100Y706192D1*
X2256576Y704904D1*
X2262932Y703111D1*
X2269127Y700826D1*
X2275124Y698061D1*
X2280886Y694834D1*
X2286923Y690734D1*
X2293001Y694834D1*
X2298763Y698061D1*
X2304760Y700826D1*
X2309721Y702656D1*
X2353158Y746100D1*
X2343001Y751420D1*
X2336964Y755520D1*
X2330886Y751420D1*
X2325124Y748194D1*
X2319127Y745429D1*
X2312932Y743143D1*
X2306576Y741351D1*
X2300100Y740063D1*
X2293542Y739287D1*
X2286944Y739027D1*
X2280345Y739287D1*
X2273787Y740063D1*
X2267311Y741351D1*
X2260955Y743143D1*
X2254760Y745429D1*
X2248763Y748194D1*
X2243001Y751420D1*
X2236964Y755520D1*
X2230886Y751420D1*
X2225124Y748194D1*
X2219127Y745429D1*
X2212932Y743143D1*
X2206576Y741351D1*
X2200100Y740063D1*
X2193542Y739287D1*
X2186944Y739027D1*
X2180345Y739287D1*
X2173787Y740063D1*
X2167311Y741351D1*
X2160955Y743143D1*
X2154760Y745429D1*
X2148763Y748194D1*
X2143001Y751420D1*
X2136964Y755520D1*
X2093539Y906964D2*
X2102097Y905851D1*
X2111025Y903706D1*
X2119665Y900600D1*
X2127916Y896572D1*
X2135678Y891667D1*
X2136938Y890751D1*
X2143001Y894834D1*
X2148763Y898061D1*
X2154760Y900826D1*
X2160955Y903111D1*
X2167311Y904904D1*
X2173787Y906192D1*
X2180345Y906968D1*
X2186944Y907227D1*
X2193542Y906968D1*
X2200100Y906192D1*
X2206576Y904904D1*
X2212932Y903111D1*
X2219127Y900826D1*
X2225124Y898061D1*
X2230886Y894834D1*
X2236923Y890734D1*
X2243001Y894834D1*
X2248763Y898061D1*
X2254760Y900826D1*
X2260955Y903111D1*
X2267311Y904904D1*
X2273787Y906192D1*
X2280345Y906968D1*
X2286944Y907227D1*
X2293542Y906968D1*
X2300100Y906192D1*
X2306576Y904904D1*
X2312932Y903111D1*
X2319127Y900826D1*
X2325124Y898061D1*
X2330886Y894834D1*
X2336923Y890734D1*
X2343001Y894834D1*
X2351972Y899540D1*
X2308334Y943183D1*
X2123172Y943399D1*
X2112850Y945034D1*
X2102911Y948264D1*
X2093582Y953019D1*
X2093544Y906945D1*
X3859633Y765634D2*
D22*
X3973212Y682559D1*
Y848709D2*
X3746054Y682559D1*
X3813925Y564051D2*
X3896997Y477044D1*
Y651058D2*
X3730854Y477044D1*
X2892373Y1475572D2*
X3005951Y1392497D1*
X2892373Y1309422D1*
X2247036Y1422447D2*
X2413185Y1195290D1*
Y1422447D2*
X2330110Y1308869D1*
X2480613Y1368651D2*
X2567619Y1285580D1*
X2654627Y1368651D2*
X2567619Y1285580D1*
X1957932Y1397804D2*
X2041007Y1284225D1*
X2674051Y1335864D2*
X2792936Y1216979D1*
Y1335864D2*
X2674051Y1216979D1*
X3967399Y832383D2*
X4086284Y713499D1*
Y832383D2*
X3967399Y713499D1*
X1587542Y1382894D2*
X1647236Y1324199D1*
Y1441588D2*
X1587542Y1382894D1*
X4223394Y966386D2*
X4140323Y879379D1*
X2816139Y1229336D2*
X2899210Y1142329D1*
X2982281Y1229336D2*
X2816139Y1055322D1*
X3314552Y1318423D2*
X3397623Y1231416D1*
X3480695Y1318423D2*
X3314552Y1144409D1*
X1679845Y1414049D2*
X1766852Y1330978D1*
X1853859Y1414049D2*
X1766852Y1330978D1*
X2685395Y898175D2*
X2744837Y838732D1*
X2804280Y898175D2*
X2685395Y779290D1*
X2086944Y823127D2*
X2146386Y763685D1*
Y882570D2*
X2086944Y823127D1*
X2196386Y682570D2*
X2136944Y623127D1*
D25*
X1022320Y1489035D3*
Y1296122D3*
D26*
X1325904Y915542D3*
Y1025778D3*
D25*
X1025257Y1130060D3*
Y937147D3*
D26*
X1378378Y1826217D3*
Y1715980D3*
X3942112Y3028181D3*
Y2917945D3*
D27*
X1607974Y1134652D3*
X1497738D3*
D26*
X1269907Y538886D3*
Y649122D3*
D25*
X1022320Y744648D3*
Y551735D3*
D26*
X3802690Y3516362D3*
Y3626598D3*
D29*
X3918626Y1226358D3*
X4111539D3*
X3666719Y765634D3*
X3859633D3*
D27*
X3703689Y564051D3*
X3813925D3*
D29*
X3198865Y1392497D3*
X3005951D3*
X3296509Y890203D3*
X3103596D3*
D27*
X1988214Y3799562D3*
X1877978D3*
D26*
X1800407Y4174504D3*
Y4064268D3*
D27*
X2246176Y4208795D3*
X2356412D3*
D25*
X2330110Y1115955D3*
Y1308869D3*
D26*
X2567619Y1285580D3*
Y1175344D3*
D25*
X1957932Y1204891D3*
Y1397804D3*
D27*
X2653545Y683798D3*
X2763781D3*
D30*
X463280Y2667535D3*
D31*
X760756Y2861680D3*
X728273Y2775626D3*
X630899Y2482958D3*
D30*
X898913Y2517848D3*
D27*
X3276971Y591807D3*
X3166735D3*
D26*
X2128398Y1156373D3*
Y1046136D3*
D30*
X461705Y2130306D3*
D31*
X759181Y2324450D3*
X726698Y2238396D3*
X629324Y1945728D3*
D30*
X897339Y1980618D3*
D32*
X3332766Y2385961D3*
X3913896Y4122675D3*
X1632766Y2385961D3*
X1732766D3*
X2876535Y599720D3*
X3713898Y4222675D3*
X1832766Y2385961D3*
X3713898Y4122675D3*
X1932766Y2385961D3*
X2178583Y2063003D3*
D33*
X1634197Y4216571D3*
D32*
X3913896Y4222675D3*
X2178583Y2163003D3*
X2863898Y4222675D3*
X2078583Y2063003D3*
Y2163003D3*
X3167507Y2508657D3*
X2863898Y4122675D3*
X1978583Y2063003D3*
Y2163003D3*
X3271782Y2507526D3*
X2032766Y2385961D3*
X2963896Y4222675D3*
X2132766Y2385961D3*
X2733493Y1276421D3*
X2232766Y2385961D3*
X1412655Y506047D3*
X2332766Y2385961D3*
X1270495Y764453D3*
X2432766Y2385961D3*
X1424091Y986971D3*
X2532766Y2385961D3*
X1024537Y1636870D3*
X3063896Y4122675D3*
X2632766Y2385961D3*
X3263896Y4122675D3*
X2732766Y2385961D3*
X3163898Y4222675D3*
X2832766Y2385961D3*
X2963896Y4122675D3*
X2932766Y2385961D3*
X3063896Y4222675D3*
X3032766Y2385961D3*
X3163898Y4122675D3*
X3132766Y2385961D3*
X3263896Y4222675D3*
X3232766Y2385961D3*
X3432766D3*
X3319000Y3456008D3*
X3532766Y2385961D3*
X3319000Y3356008D3*
X3632766Y2385961D3*
X3319000Y3256008D3*
X3732766Y2385961D3*
X3319000Y3156008D3*
X3832766Y2385961D3*
X3319000Y3056008D3*
X3932766Y2385961D3*
X3319000Y2956008D3*
X1632766Y1785961D3*
X3319000Y2856008D3*
X1732766Y1785961D3*
X3319000Y2756008D3*
X1832766Y1785961D3*
X2794000Y3699793D3*
X1932766Y1785961D3*
X2894000Y3699793D3*
X2032766Y1785961D3*
X2994000Y3699793D3*
X2132766Y1785961D3*
X3094000Y3699793D3*
X2232766Y1785961D3*
X3194000Y3699793D3*
X2332766Y1785961D3*
X3294000Y3699793D3*
X2432766Y1785961D3*
X2224291Y3663570D3*
X2532766Y1785961D3*
X1724291Y3663570D3*
X2632766Y1785961D3*
X1824291Y3663570D3*
X2732766Y1785961D3*
X1924291Y3663570D3*
X2832766Y1785961D3*
D33*
X1634197Y4016571D3*
D32*
X2932766Y1785961D3*
X2024291Y3663570D3*
X3032766Y1785961D3*
X2124291Y3663570D3*
X3132766Y1785961D3*
X2224291Y2663570D3*
X3232766Y1785961D3*
X1724291Y2663570D3*
X3332766Y1785961D3*
X1824291Y2663570D3*
X3432766Y1785961D3*
X1924291Y2663570D3*
X3813896Y4222675D3*
X3532766Y1785961D3*
X3632766D3*
X2024291Y2663570D3*
X4113896Y4122675D3*
X3732766Y1785961D3*
X4013898Y4222675D3*
X3832766Y1785961D3*
X3932766D3*
X2124291Y2663570D3*
X3230010Y1631039D3*
D33*
X1434197Y4016571D3*
D32*
X3330010Y1631039D3*
X3430010D3*
X1882766Y1885961D3*
X1306500Y3031008D3*
X2282766Y1885961D3*
X1306500Y3131008D3*
X1982766Y1885961D3*
D33*
X1434197Y4216571D3*
D32*
X2082766Y1885961D3*
D33*
X1534197Y4116571D3*
X1247892Y4223017D3*
D32*
X2182766Y1885961D3*
D33*
X1247892Y4023017D3*
X1047892D3*
D32*
X4216182Y3712315D3*
Y3612315D3*
Y3512315D3*
Y3412315D3*
Y3312315D3*
X3813896Y4122675D3*
X3319000Y2656008D3*
X4013898Y4122675D3*
X4113896Y4222675D3*
X4116182Y3712315D3*
Y3612315D3*
Y3412315D3*
Y3512315D3*
Y3312315D3*
X1306500Y3231008D3*
X4194000Y2981008D3*
X4094000D3*
D33*
X1047892Y4223017D3*
X1147892Y4123017D3*
D32*
X1094000Y2931008D3*
Y3131008D3*
Y3031008D3*
X3130010Y1631039D3*
X508419Y3683147D3*
X608419D3*
X3839545Y2546232D3*
X3940192Y2543001D3*
X529978Y1491374D3*
Y1391374D3*
X508419Y3783146D3*
X529978Y1291374D3*
X608419Y3883146D3*
X529978Y1191374D3*
X608419Y4083146D3*
X529978Y1091374D3*
X508419Y3983147D3*
X529978Y991374D3*
Y891374D3*
X1094000Y2831008D3*
X629978Y891374D3*
X608419Y3783146D3*
X629978Y991374D3*
X508419Y3883146D3*
X629978Y1091374D3*
X608419Y3983147D3*
X629978Y1191374D3*
X508419Y4083146D3*
X629978Y1291374D3*
X1232768Y2198168D3*
X629978Y1391374D3*
X1094000Y2731008D3*
X629978Y1491374D3*
Y1591374D3*
X529978D3*
D34*
X1149581Y3844320D3*
X1529415Y3831521D3*
X1094000Y2031008D3*
X1161891Y2337310D3*
X3773984Y1317278D3*
X1094000Y1931008D3*
X1544000Y881008D3*
Y781008D3*
D32*
X4026841Y772941D3*
D83*
X1487542Y1382894D3*
D35*
X1537542D3*
X1587542D3*
D37*
X3715459Y1100018D3*
X3640656D3*
X3678058Y1009467D3*
X3470585Y1094387D3*
X3395782D3*
X3433184Y1003836D3*
D27*
X1499593Y1237192D3*
X1609829D3*
D26*
X1325236Y1255890D3*
Y1145654D3*
X1316718Y1507097D3*
Y1396861D3*
X3699198Y3516327D3*
Y3626563D3*
X1834013Y3341189D3*
Y3451425D3*
X1972693Y3338500D3*
Y3448736D3*
X2120432Y3343837D3*
Y3454073D3*
D27*
X4015438Y964336D3*
X3905202D3*
X4113157Y966386D3*
X4223394D3*
X3120499Y1145115D3*
X3230735D3*
X2899210Y1142329D3*
X3009446D3*
X3397623Y1231416D3*
X3507860D3*
D26*
X3430530Y668629D3*
Y778865D3*
X1970585Y4208795D3*
Y4098559D3*
X2088696Y4208795D3*
Y4098559D3*
X1766852Y1330978D3*
Y1220741D3*
X1762021Y1132535D3*
Y1022299D3*
D32*
X2744837Y838732D3*
X2844837D3*
X2944837D3*
D30*
X462563Y3186919D3*
D31*
X760039Y3381063D3*
X727556Y3295009D3*
X630182Y3002341D3*
D30*
X898197Y3037231D3*
D32*
X1736944Y623127D3*
X1786944Y823127D3*
X1836944Y623127D3*
X1886944Y823127D3*
X1936944Y623127D3*
X1986944Y823127D3*
X2036944Y623127D3*
X2086944Y823127D3*
X2136944Y623127D3*
X2186944Y823127D3*
X2236944Y623127D3*
X2286944Y823127D3*
X2336944Y623127D3*
X2386944Y823127D3*
X2436944Y623127D3*
D39*
X3522465Y3169911D3*
X3572465D3*
X3622465D3*
X3672465D3*
X3722465D3*
X3772465D3*
X3822465D3*
Y3382509D3*
X3772465D3*
X3722465D3*
X3672465D3*
X3622465D3*
X3572465D3*
X3522465D3*
D40*
X2075454Y3895689D3*
Y3915374D3*
Y3935059D3*
Y3954744D3*
Y3974429D3*
X1902226D3*
Y3954744D3*
Y3935059D3*
Y3915374D3*
Y3895689D3*
D42*
X2364286Y4090685D3*
Y3842654D3*
M02*
