G04 DipTrace 3.3.1.1*
G04 TopDimension.gbr*
%MOIN*%
G04 #@! TF.FileFunction,Drawing,Top*
G04 #@! TF.Part,Single*
%ADD13C,0.001378*%
%ADD78C,0.006176*%
%FSLAX26Y26*%
G04*
G70*
G90*
G75*
G01*
G04 TopDimension*
%LPD*%
X394000Y4331008D2*
D13*
Y4583837D1*
X4331008Y4331008D2*
Y4583837D1*
X2362504Y4564152D2*
X433370D1*
G36*
X394000D2*
X433370Y4572026D1*
Y4556278D1*
X394000Y4564152D1*
G37*
X2362504D2*
D13*
X4291638D1*
G36*
X4331008D2*
X4291638Y4556278D1*
Y4572026D1*
X4331008Y4564152D1*
G37*
X394000Y4331008D2*
D13*
X163790D1*
X394000Y394000D2*
X163790D1*
X183475Y2362504D2*
Y4291638D1*
G36*
Y4331008D2*
X191349Y4291638D1*
X175601D1*
X183475Y4331008D1*
G37*
Y2362504D2*
D13*
Y433370D1*
G36*
Y394000D2*
X175601Y433370D1*
X191349D1*
X183475Y394000D1*
G37*
X3294000Y3699793D2*
D13*
Y3825693D1*
X3319000Y3456008D2*
Y3825693D1*
X3294000Y3806008D2*
X3319000D1*
X3234945D2*
X3254630D1*
G36*
X3294000D2*
X3254630Y3798134D1*
Y3813882D1*
X3294000Y3806008D1*
G37*
X3378055D2*
D13*
X3358370D1*
G36*
X3319000D2*
X3358370Y3813882D1*
Y3798134D1*
X3319000Y3806008D1*
G37*
X3518801D2*
D13*
X3319000D1*
X3294000Y3699793D2*
X3388685D1*
X3319000Y3456008D2*
X3388685D1*
X3369000Y3699793D2*
Y3456008D1*
Y3758848D2*
Y3739163D1*
G36*
Y3699793D2*
X3361126Y3739163D1*
X3376874D1*
X3369000Y3699793D1*
G37*
Y3396953D2*
D13*
Y3416638D1*
G36*
Y3456008D2*
X3376874Y3416638D1*
X3361126D1*
X3369000Y3456008D1*
G37*
X2290174Y4616511D2*
D78*
X2311176D1*
X2299724Y4601212D1*
X2305472D1*
X2309275Y4599311D1*
X2311176Y4597410D1*
X2313122Y4591662D1*
Y4587859D1*
X2311176Y4582111D1*
X2307374Y4578264D1*
X2301626Y4576363D1*
X2295877D1*
X2290174Y4578264D1*
X2288272Y4580210D1*
X2286327Y4584012D1*
X2327374Y4580210D2*
X2325473Y4578264D1*
X2327374Y4576363D1*
X2329320Y4578264D1*
X2327374Y4580210D1*
X2366565Y4603158D2*
X2364619Y4597410D1*
X2360816Y4593563D1*
X2355068Y4591662D1*
X2353167D1*
X2347419Y4593563D1*
X2343617Y4597410D1*
X2341671Y4603158D1*
Y4605059D1*
X2343617Y4610807D1*
X2347419Y4614610D1*
X2353167Y4616511D1*
X2355068D1*
X2360816Y4614610D1*
X2364619Y4610807D1*
X2366565Y4603158D1*
Y4593563D1*
X2364619Y4584012D1*
X2360816Y4578264D1*
X2355068Y4576363D1*
X2351266D1*
X2345518Y4578264D1*
X2343617Y4582111D1*
X2382763Y4616511D2*
X2403765D1*
X2392313Y4601212D1*
X2398061D1*
X2401864Y4599311D1*
X2403765Y4597410D1*
X2405711Y4591662D1*
Y4587859D1*
X2403765Y4582111D1*
X2399963Y4578264D1*
X2394215Y4576363D1*
X2388467D1*
X2382763Y4578264D1*
X2380861Y4580210D1*
X2378916Y4584012D1*
X2425711Y4576363D2*
X2444857Y4616511D1*
X2418062D1*
X131117Y2290174D2*
Y2311176D1*
X146415Y2299724D1*
Y2305472D1*
X148316Y2309275D1*
X150218Y2311176D1*
X155966Y2313122D1*
X159768D1*
X165516Y2311176D1*
X169363Y2307374D1*
X171264Y2301626D1*
Y2295877D1*
X169363Y2290174D1*
X167418Y2288272D1*
X163615Y2286327D1*
X167418Y2327374D2*
X169363Y2325473D1*
X171264Y2327374D1*
X169363Y2329320D1*
X167418Y2327374D1*
X144470Y2366565D2*
X150218Y2364619D1*
X154064Y2360816D1*
X155966Y2355068D1*
Y2353167D1*
X154064Y2347419D1*
X150218Y2343617D1*
X144470Y2341671D1*
X142568D1*
X136820Y2343617D1*
X133018Y2347419D1*
X131117Y2353167D1*
Y2355068D1*
X133018Y2360816D1*
X136820Y2364619D1*
X144470Y2366565D1*
X154064D1*
X163615Y2364619D1*
X169363Y2360816D1*
X171264Y2355068D1*
Y2351266D1*
X169363Y2345518D1*
X165516Y2343617D1*
X131117Y2382763D2*
Y2403765D1*
X146415Y2392313D1*
Y2398061D1*
X148316Y2401864D1*
X150218Y2403765D1*
X155966Y2405711D1*
X159768D1*
X165516Y2403765D1*
X169363Y2399963D1*
X171264Y2394215D1*
Y2388467D1*
X169363Y2382763D1*
X167418Y2380861D1*
X163615Y2378916D1*
X171264Y2425711D2*
X131117Y2444857D1*
Y2418062D1*
X3379130Y3858366D2*
X3373382Y3856465D1*
X3369535Y3850717D1*
X3367634Y3841167D1*
Y3835419D1*
X3369535Y3825868D1*
X3373382Y3820120D1*
X3379130Y3818219D1*
X3382932D1*
X3388680Y3820120D1*
X3392483Y3825868D1*
X3394428Y3835419D1*
Y3841167D1*
X3392483Y3850717D1*
X3388680Y3856465D1*
X3382932Y3858366D1*
X3379130D1*
X3392483Y3850717D2*
X3369535Y3825868D1*
X3408681Y3822065D2*
X3406780Y3820120D1*
X3408681Y3818219D1*
X3410626Y3820120D1*
X3408681Y3822065D1*
X3434474Y3858366D2*
X3428726Y3856465D1*
X3424879Y3850717D1*
X3422978Y3841167D1*
Y3835419D1*
X3424879Y3825868D1*
X3428726Y3820120D1*
X3434474Y3818219D1*
X3438276D1*
X3444024Y3820120D1*
X3447827Y3825868D1*
X3449773Y3835419D1*
Y3841167D1*
X3447827Y3850717D1*
X3444024Y3856465D1*
X3438276Y3858366D1*
X3434474D1*
X3447827Y3850717D2*
X3424879Y3825868D1*
X3464069Y3848816D2*
Y3850717D1*
X3465971Y3854564D1*
X3467872Y3856465D1*
X3471719Y3858366D1*
X3479368D1*
X3483171Y3856465D1*
X3485072Y3854564D1*
X3487017Y3850717D1*
Y3846915D1*
X3485072Y3843068D1*
X3481269Y3837364D1*
X3462124Y3818219D1*
X3488919D1*
X3524218Y3858366D2*
X3505117D1*
X3503215Y3841167D1*
X3505117Y3843068D1*
X3510865Y3845013D1*
X3516569D1*
X3522317Y3843068D1*
X3526163Y3839265D1*
X3528065Y3833517D1*
Y3829715D1*
X3526163Y3823967D1*
X3522317Y3820120D1*
X3516569Y3818219D1*
X3510865D1*
X3505117Y3820120D1*
X3503215Y3822065D1*
X3501270Y3825868D1*
X3421359Y3645433D2*
X3419457Y3651181D1*
X3413709Y3655028D1*
X3404159Y3656929D1*
X3398411D1*
X3388860Y3655028D1*
X3383112Y3651181D1*
X3381211Y3645433D1*
Y3641631D1*
X3383112Y3635883D1*
X3388860Y3632080D1*
X3398411Y3630135D1*
X3404159D1*
X3413709Y3632080D1*
X3419457Y3635883D1*
X3421359Y3641631D1*
Y3645433D1*
X3413709Y3632080D2*
X3388860Y3655028D1*
X3385058Y3615882D2*
X3383112Y3617783D1*
X3381211Y3615882D1*
X3383112Y3613936D1*
X3385058Y3615882D1*
X3411808Y3599639D2*
X3413709D1*
X3417556Y3597738D1*
X3419457Y3595837D1*
X3421359Y3591990D1*
Y3584341D1*
X3419457Y3580538D1*
X3417556Y3578637D1*
X3413709Y3576692D1*
X3409907D1*
X3406060Y3578637D1*
X3400356Y3582440D1*
X3381211Y3601585D1*
Y3574790D1*
Y3543294D2*
X3421359D1*
X3394608Y3562439D1*
Y3533743D1*
X3381211Y3502246D2*
X3421359D1*
X3394608Y3521392D1*
Y3492696D1*
M02*
