%TF.GenerationSoftware,KiCad,Pcbnew,9.0.7*%
%TF.CreationDate,2026-01-03T11:51:17-05:00*%
%TF.ProjectId,DualClockLO,4475616c-436c-46f6-936b-4c4f2e6b6963,rev?*%
%TF.SameCoordinates,Original*%
%TF.FileFunction,Copper,L3,Inr*%
%TF.FilePolarity,Positive*%
%FSLAX46Y46*%
G04 Gerber Fmt 4.6, Leading zero omitted, Abs format (unit mm)*
G04 Created by KiCad (PCBNEW 9.0.7) date 2026-01-03 11:51:17*
%MOMM*%
%LPD*%
G01*
G04 APERTURE LIST*
%TA.AperFunction,ComponentPad*%
%ADD10R,1.700000X1.700000*%
%TD*%
%TA.AperFunction,ComponentPad*%
%ADD11C,1.700000*%
%TD*%
%TA.AperFunction,ViaPad*%
%ADD12C,0.600000*%
%TD*%
G04 APERTURE END LIST*
D10*
%TO.N,/0{slash}RX0*%
%TO.C,J3*%
X115570000Y-79756000D03*
D11*
%TO.N,/1{slash}RX90*%
X118110000Y-79756000D03*
%TO.N,GND*%
X120650000Y-79756000D03*
%TO.N,/CLK2*%
X123190000Y-79756000D03*
%TO.N,/CLK3*%
X125730000Y-79756000D03*
%TO.N,GND*%
X128270000Y-79756000D03*
%TD*%
D10*
%TO.N,GND*%
%TO.C,J4*%
X128270000Y-100076000D03*
D11*
%TO.N,/CLK7*%
X125730000Y-100076000D03*
%TO.N,/6{slash}CW*%
X123190000Y-100076000D03*
%TO.N,GND*%
X120650000Y-100076000D03*
%TO.N,/5{slash}TX0*%
X118110000Y-100076000D03*
%TO.N,/4{slash}TX90*%
X115570000Y-100076000D03*
%TD*%
D10*
%TO.N,Net-(J5-Pin_1)*%
%TO.C,J5*%
X123825001Y-83312000D03*
D11*
%TO.N,Net-(J5-Pin_2)*%
X126365001Y-83312000D03*
%TO.N,GND*%
X128905000Y-83312000D03*
%TD*%
D10*
%TO.N,/SCL*%
%TO.C,J2*%
X140970000Y-79756000D03*
D11*
%TO.N,/SDA*%
X138430000Y-79756000D03*
%TO.N,+3V3*%
X135890001Y-79756000D03*
%TO.N,GND*%
X133350000Y-79756000D03*
%TD*%
D12*
%TO.N,GND*%
X137160000Y-87630000D03*
X124714000Y-101600000D03*
X137160000Y-85471000D03*
X130810000Y-85090000D03*
X128905000Y-87503000D03*
X139700000Y-83058000D03*
X117390000Y-89535000D03*
X142748000Y-79756000D03*
X131318000Y-87503000D03*
X121920000Y-89535000D03*
X118999000Y-91567000D03*
X142240000Y-83058000D03*
X132842000Y-90170000D03*
X125095000Y-93345000D03*
X130810000Y-81280000D03*
X116840000Y-91186000D03*
X119507000Y-81153000D03*
X124460000Y-95885000D03*
X114554000Y-85217000D03*
X114681000Y-93345000D03*
X116840000Y-96520000D03*
X132334000Y-97536000D03*
X116840000Y-93345000D03*
X137668000Y-98552000D03*
X126111000Y-85090000D03*
X141224000Y-86360000D03*
X138938000Y-85471000D03*
X114173000Y-81534000D03*
X130810000Y-83185000D03*
X122174000Y-85090000D03*
X137160000Y-83058000D03*
X145923000Y-91567000D03*
X126873000Y-87503000D03*
X115697000Y-81915000D03*
X146685000Y-86741000D03*
X127508000Y-96647000D03*
X124460000Y-98425000D03*
X121666000Y-96520000D03*
X125730000Y-81280000D03*
X133350000Y-84709000D03*
X124333000Y-78105000D03*
X144526000Y-95758000D03*
X123428735Y-90820265D03*
X128270000Y-81280000D03*
X138049000Y-95758000D03*
X131953000Y-95885000D03*
X116840000Y-78105000D03*
X137922000Y-90170000D03*
X119126000Y-93853000D03*
X114681000Y-96520000D03*
X123825000Y-85090000D03*
X138938000Y-87630000D03*
X124460000Y-88646000D03*
X116840000Y-101727000D03*
X131318000Y-78105000D03*
X119126000Y-96520000D03*
X141732000Y-100584000D03*
X141224000Y-88392000D03*
X128270000Y-85090000D03*
%TO.N,+3V3*%
X134874000Y-89154000D03*
X135636000Y-83312000D03*
X130556000Y-89154000D03*
X141224000Y-87376000D03*
X117983000Y-81153000D03*
X114935000Y-91567000D03*
X141732000Y-98806000D03*
X123444000Y-92329000D03*
%TO.N,/SCL*%
X140716000Y-85368000D03*
%TO.N,/6{slash}CW*%
X117863313Y-90179965D03*
%TO.N,/4{slash}TX90*%
X120315999Y-89947120D03*
X118557175Y-90777882D03*
%TO.N,/CLK7*%
X116840000Y-88519000D03*
%TD*%
%TA.AperFunction,Conductor*%
%TO.N,+3V3*%
G36*
X130488475Y-77769185D02*
G01*
X130534230Y-77821989D01*
X130544174Y-77891147D01*
X130543053Y-77897691D01*
X130517500Y-78026153D01*
X130517500Y-78183846D01*
X130548261Y-78338489D01*
X130548264Y-78338501D01*
X130608602Y-78484172D01*
X130608609Y-78484185D01*
X130696210Y-78615288D01*
X130696213Y-78615292D01*
X130807707Y-78726786D01*
X130807711Y-78726789D01*
X130938814Y-78814390D01*
X130938827Y-78814397D01*
X131050327Y-78860581D01*
X131084503Y-78874737D01*
X131224227Y-78902530D01*
X131239153Y-78905499D01*
X131239156Y-78905500D01*
X131239158Y-78905500D01*
X131396844Y-78905500D01*
X131396845Y-78905499D01*
X131551497Y-78874737D01*
X131697179Y-78814394D01*
X131828289Y-78726789D01*
X131939789Y-78615289D01*
X132027394Y-78484179D01*
X132087737Y-78338497D01*
X132118500Y-78183842D01*
X132118500Y-78026158D01*
X132118500Y-78026155D01*
X132118499Y-78026153D01*
X132092947Y-77897691D01*
X132099174Y-77828100D01*
X132142037Y-77772922D01*
X132207927Y-77749678D01*
X132214564Y-77749500D01*
X147747500Y-77749500D01*
X147814539Y-77769185D01*
X147860294Y-77821989D01*
X147871500Y-77873500D01*
X147871500Y-101958500D01*
X147851815Y-102025539D01*
X147799011Y-102071294D01*
X147747500Y-102082500D01*
X125566176Y-102082500D01*
X125499137Y-102062815D01*
X125453382Y-102010011D01*
X125443438Y-101940853D01*
X125451615Y-101911048D01*
X125483735Y-101833501D01*
X125483737Y-101833497D01*
X125514500Y-101678842D01*
X125514500Y-101550500D01*
X125534185Y-101483461D01*
X125586989Y-101437706D01*
X125638500Y-101426500D01*
X125836286Y-101426500D01*
X125836287Y-101426500D01*
X126046243Y-101393246D01*
X126248412Y-101327557D01*
X126437816Y-101231051D01*
X126609792Y-101106104D01*
X126723329Y-100992566D01*
X126784648Y-100959084D01*
X126854340Y-100964068D01*
X126910274Y-101005939D01*
X126927189Y-101036917D01*
X126976202Y-101168328D01*
X126976206Y-101168335D01*
X127062452Y-101283544D01*
X127062455Y-101283547D01*
X127177664Y-101369793D01*
X127177671Y-101369797D01*
X127312517Y-101420091D01*
X127312516Y-101420091D01*
X127319444Y-101420835D01*
X127372127Y-101426500D01*
X129167872Y-101426499D01*
X129227483Y-101420091D01*
X129362331Y-101369796D01*
X129477546Y-101283546D01*
X129563796Y-101168331D01*
X129614091Y-101033483D01*
X129620500Y-100973873D01*
X129620499Y-100505153D01*
X140931500Y-100505153D01*
X140931500Y-100662846D01*
X140962261Y-100817489D01*
X140962264Y-100817501D01*
X141022602Y-100963172D01*
X141022609Y-100963185D01*
X141110210Y-101094288D01*
X141110213Y-101094292D01*
X141221707Y-101205786D01*
X141221711Y-101205789D01*
X141352814Y-101293390D01*
X141352827Y-101293397D01*
X141435298Y-101327557D01*
X141498503Y-101353737D01*
X141653153Y-101384499D01*
X141653156Y-101384500D01*
X141653158Y-101384500D01*
X141810844Y-101384500D01*
X141810845Y-101384499D01*
X141965497Y-101353737D01*
X142111179Y-101293394D01*
X142242289Y-101205789D01*
X142353789Y-101094289D01*
X142441394Y-100963179D01*
X142443845Y-100957263D01*
X142501735Y-100817501D01*
X142501737Y-100817497D01*
X142532500Y-100662842D01*
X142532500Y-100505158D01*
X142532500Y-100505155D01*
X142532499Y-100505153D01*
X142531288Y-100499066D01*
X142501737Y-100350503D01*
X142501735Y-100350498D01*
X142441397Y-100204827D01*
X142441390Y-100204814D01*
X142353789Y-100073711D01*
X142353786Y-100073707D01*
X142249792Y-99969713D01*
X144699500Y-99969713D01*
X144699500Y-100182287D01*
X144732754Y-100392243D01*
X144769442Y-100505158D01*
X144798444Y-100594414D01*
X144894951Y-100783820D01*
X145019890Y-100955786D01*
X145170213Y-101106109D01*
X145342179Y-101231048D01*
X145342181Y-101231049D01*
X145342184Y-101231051D01*
X145531588Y-101327557D01*
X145733757Y-101393246D01*
X145943713Y-101426500D01*
X145943714Y-101426500D01*
X146156286Y-101426500D01*
X146156287Y-101426500D01*
X146366243Y-101393246D01*
X146568412Y-101327557D01*
X146757816Y-101231051D01*
X146844138Y-101168335D01*
X146929786Y-101106109D01*
X146929788Y-101106106D01*
X146929792Y-101106104D01*
X147080104Y-100955792D01*
X147080106Y-100955788D01*
X147080109Y-100955786D01*
X147205048Y-100783820D01*
X147205047Y-100783820D01*
X147205051Y-100783816D01*
X147301557Y-100594412D01*
X147367246Y-100392243D01*
X147400500Y-100182287D01*
X147400500Y-99969713D01*
X147367246Y-99759757D01*
X147301557Y-99557588D01*
X147205051Y-99368184D01*
X147205049Y-99368181D01*
X147205048Y-99368179D01*
X147080109Y-99196213D01*
X146929786Y-99045890D01*
X146757820Y-98920951D01*
X146568414Y-98824444D01*
X146568413Y-98824443D01*
X146568412Y-98824443D01*
X146366243Y-98758754D01*
X146366241Y-98758753D01*
X146366240Y-98758753D01*
X146204957Y-98733208D01*
X146156287Y-98725500D01*
X145943713Y-98725500D01*
X145895042Y-98733208D01*
X145733760Y-98758753D01*
X145531585Y-98824444D01*
X145342179Y-98920951D01*
X145170213Y-99045890D01*
X145019890Y-99196213D01*
X144894951Y-99368179D01*
X144798444Y-99557585D01*
X144732753Y-99759760D01*
X144714563Y-99874609D01*
X144699500Y-99969713D01*
X142249792Y-99969713D01*
X142242292Y-99962213D01*
X142242288Y-99962210D01*
X142111185Y-99874609D01*
X142111172Y-99874602D01*
X141965501Y-99814264D01*
X141965489Y-99814261D01*
X141810845Y-99783500D01*
X141810842Y-99783500D01*
X141653158Y-99783500D01*
X141653155Y-99783500D01*
X141498510Y-99814261D01*
X141498498Y-99814264D01*
X141352827Y-99874602D01*
X141352814Y-99874609D01*
X141221711Y-99962210D01*
X141221707Y-99962213D01*
X141110213Y-100073707D01*
X141110210Y-100073711D01*
X141022609Y-100204814D01*
X141022602Y-100204827D01*
X140962264Y-100350498D01*
X140962261Y-100350510D01*
X140931500Y-100505153D01*
X129620499Y-100505153D01*
X129620499Y-100073711D01*
X129620499Y-99178129D01*
X129620498Y-99178123D01*
X129620032Y-99173789D01*
X129614091Y-99118517D01*
X129612810Y-99115083D01*
X129563797Y-98983671D01*
X129563793Y-98983664D01*
X129477547Y-98868455D01*
X129477544Y-98868452D01*
X129362335Y-98782206D01*
X129362328Y-98782202D01*
X129227482Y-98731908D01*
X129227483Y-98731908D01*
X129167883Y-98725501D01*
X129167881Y-98725500D01*
X129167873Y-98725500D01*
X129167864Y-98725500D01*
X127372129Y-98725500D01*
X127372123Y-98725501D01*
X127312516Y-98731908D01*
X127177671Y-98782202D01*
X127177664Y-98782206D01*
X127062455Y-98868452D01*
X127062452Y-98868455D01*
X126976206Y-98983664D01*
X126976203Y-98983669D01*
X126927189Y-99115083D01*
X126885317Y-99171016D01*
X126819853Y-99195433D01*
X126751580Y-99180581D01*
X126723326Y-99159430D01*
X126609786Y-99045890D01*
X126437820Y-98920951D01*
X126248414Y-98824444D01*
X126248413Y-98824443D01*
X126248412Y-98824443D01*
X126046243Y-98758754D01*
X126046241Y-98758753D01*
X126046240Y-98758753D01*
X125884957Y-98733208D01*
X125836287Y-98725500D01*
X125623713Y-98725500D01*
X125560355Y-98735534D01*
X125413761Y-98758753D01*
X125413758Y-98758753D01*
X125413757Y-98758754D01*
X125404532Y-98761751D01*
X125396906Y-98764229D01*
X125395021Y-98764282D01*
X125393438Y-98765299D01*
X125360256Y-98765274D01*
X125327065Y-98766221D01*
X125325452Y-98765248D01*
X125323569Y-98765247D01*
X125295660Y-98747281D01*
X125267234Y-98730138D01*
X125266402Y-98728447D01*
X125264819Y-98727428D01*
X125251053Y-98697226D01*
X125236408Y-98667436D01*
X125236374Y-98665019D01*
X125235842Y-98663851D01*
X125236183Y-98651276D01*
X125235868Y-98628557D01*
X125236334Y-98625328D01*
X125260500Y-98503842D01*
X125260500Y-98473153D01*
X136867500Y-98473153D01*
X136867500Y-98630846D01*
X136898261Y-98785489D01*
X136898264Y-98785501D01*
X136958602Y-98931172D01*
X136958609Y-98931185D01*
X137046210Y-99062288D01*
X137046213Y-99062292D01*
X137157707Y-99173786D01*
X137157711Y-99173789D01*
X137288814Y-99261390D01*
X137288827Y-99261397D01*
X137434498Y-99321735D01*
X137434503Y-99321737D01*
X137589153Y-99352499D01*
X137589156Y-99352500D01*
X137589158Y-99352500D01*
X137746844Y-99352500D01*
X137746845Y-99352499D01*
X137901497Y-99321737D01*
X138047179Y-99261394D01*
X138178289Y-99173789D01*
X138289789Y-99062289D01*
X138377394Y-98931179D01*
X138437737Y-98785497D01*
X138468500Y-98630842D01*
X138468500Y-98473158D01*
X138468500Y-98473155D01*
X138468499Y-98473153D01*
X138441317Y-98336500D01*
X138437737Y-98318503D01*
X138407456Y-98245397D01*
X138377397Y-98172827D01*
X138377390Y-98172814D01*
X138289789Y-98041711D01*
X138289786Y-98041707D01*
X138178292Y-97930213D01*
X138178288Y-97930210D01*
X138047185Y-97842609D01*
X138047172Y-97842602D01*
X137901501Y-97782264D01*
X137901489Y-97782261D01*
X137746845Y-97751500D01*
X137746842Y-97751500D01*
X137589158Y-97751500D01*
X137589155Y-97751500D01*
X137434510Y-97782261D01*
X137434498Y-97782264D01*
X137288827Y-97842602D01*
X137288814Y-97842609D01*
X137157711Y-97930210D01*
X137157707Y-97930213D01*
X137046213Y-98041707D01*
X137046210Y-98041711D01*
X136958609Y-98172814D01*
X136958602Y-98172827D01*
X136898264Y-98318498D01*
X136898261Y-98318510D01*
X136867500Y-98473153D01*
X125260500Y-98473153D01*
X125260500Y-98346158D01*
X125260500Y-98346155D01*
X125260499Y-98346153D01*
X125240457Y-98245397D01*
X125229737Y-98191503D01*
X125215771Y-98157786D01*
X125169397Y-98045827D01*
X125169390Y-98045814D01*
X125081789Y-97914711D01*
X125081786Y-97914707D01*
X124970292Y-97803213D01*
X124970288Y-97803210D01*
X124839185Y-97715609D01*
X124839172Y-97715602D01*
X124693501Y-97655264D01*
X124693489Y-97655261D01*
X124538845Y-97624500D01*
X124538842Y-97624500D01*
X124381158Y-97624500D01*
X124381155Y-97624500D01*
X124226510Y-97655261D01*
X124226498Y-97655264D01*
X124080827Y-97715602D01*
X124080814Y-97715609D01*
X123949711Y-97803210D01*
X123949707Y-97803213D01*
X123838213Y-97914707D01*
X123838210Y-97914711D01*
X123750609Y-98045814D01*
X123750602Y-98045827D01*
X123690264Y-98191498D01*
X123690261Y-98191510D01*
X123659500Y-98346153D01*
X123659500Y-98503846D01*
X123683023Y-98622105D01*
X123676796Y-98691697D01*
X123633933Y-98746874D01*
X123568043Y-98770118D01*
X123523091Y-98764228D01*
X123506240Y-98758753D01*
X123344957Y-98733208D01*
X123296287Y-98725500D01*
X123083713Y-98725500D01*
X123035042Y-98733208D01*
X122873760Y-98758753D01*
X122671585Y-98824444D01*
X122482179Y-98920951D01*
X122310213Y-99045890D01*
X122159890Y-99196213D01*
X122034949Y-99368182D01*
X122030484Y-99376946D01*
X121982509Y-99427742D01*
X121914688Y-99444536D01*
X121848553Y-99421998D01*
X121809516Y-99376946D01*
X121805050Y-99368182D01*
X121680109Y-99196213D01*
X121529786Y-99045890D01*
X121357820Y-98920951D01*
X121168414Y-98824444D01*
X121168413Y-98824443D01*
X121168412Y-98824443D01*
X120966243Y-98758754D01*
X120966241Y-98758753D01*
X120966240Y-98758753D01*
X120804957Y-98733208D01*
X120756287Y-98725500D01*
X120543713Y-98725500D01*
X120495042Y-98733208D01*
X120333760Y-98758753D01*
X120131585Y-98824444D01*
X119942179Y-98920951D01*
X119770213Y-99045890D01*
X119619890Y-99196213D01*
X119494949Y-99368182D01*
X119490484Y-99376946D01*
X119442509Y-99427742D01*
X119374688Y-99444536D01*
X119308553Y-99421998D01*
X119269516Y-99376946D01*
X119265050Y-99368182D01*
X119140109Y-99196213D01*
X118989786Y-99045890D01*
X118817820Y-98920951D01*
X118628414Y-98824444D01*
X118628413Y-98824443D01*
X118628412Y-98824443D01*
X118426243Y-98758754D01*
X118426241Y-98758753D01*
X118426240Y-98758753D01*
X118264957Y-98733208D01*
X118216287Y-98725500D01*
X118003713Y-98725500D01*
X117955042Y-98733208D01*
X117793760Y-98758753D01*
X117591585Y-98824444D01*
X117402179Y-98920951D01*
X117230213Y-99045890D01*
X117079890Y-99196213D01*
X116954949Y-99368182D01*
X116950484Y-99376946D01*
X116902509Y-99427742D01*
X116834688Y-99444536D01*
X116768553Y-99421998D01*
X116729516Y-99376946D01*
X116725050Y-99368182D01*
X116600109Y-99196213D01*
X116449786Y-99045890D01*
X116277820Y-98920951D01*
X116088414Y-98824444D01*
X116088413Y-98824443D01*
X116088412Y-98824443D01*
X115886243Y-98758754D01*
X115886241Y-98758753D01*
X115886240Y-98758753D01*
X115724957Y-98733208D01*
X115676287Y-98725500D01*
X115463713Y-98725500D01*
X115415042Y-98733208D01*
X115253760Y-98758753D01*
X115051585Y-98824444D01*
X114862179Y-98920951D01*
X114690213Y-99045890D01*
X114539890Y-99196213D01*
X114414951Y-99368179D01*
X114318444Y-99557585D01*
X114252753Y-99759760D01*
X114234563Y-99874609D01*
X114219500Y-99969713D01*
X114219500Y-100182287D01*
X114252754Y-100392243D01*
X114289442Y-100505158D01*
X114318444Y-100594414D01*
X114414951Y-100783820D01*
X114539890Y-100955786D01*
X114690213Y-101106109D01*
X114862179Y-101231048D01*
X114862181Y-101231049D01*
X114862184Y-101231051D01*
X115051588Y-101327557D01*
X115253757Y-101393246D01*
X115463713Y-101426500D01*
X115463714Y-101426500D01*
X115676286Y-101426500D01*
X115676287Y-101426500D01*
X115886243Y-101393246D01*
X115903087Y-101387772D01*
X115972927Y-101385776D01*
X116032761Y-101421856D01*
X116063590Y-101484556D01*
X116063023Y-101529894D01*
X116039500Y-101648153D01*
X116039500Y-101805846D01*
X116065053Y-101934309D01*
X116058826Y-102003900D01*
X116015963Y-102059078D01*
X115950073Y-102082322D01*
X115943436Y-102082500D01*
X113916500Y-102082500D01*
X113849461Y-102062815D01*
X113803706Y-102010011D01*
X113792500Y-101958500D01*
X113792500Y-97039901D01*
X113812185Y-96972862D01*
X113864989Y-96927107D01*
X113934147Y-96917163D01*
X113997703Y-96946188D01*
X114019602Y-96971011D01*
X114059207Y-97030284D01*
X114059213Y-97030292D01*
X114170707Y-97141786D01*
X114170711Y-97141789D01*
X114301814Y-97229390D01*
X114301827Y-97229397D01*
X114447498Y-97289735D01*
X114447503Y-97289737D01*
X114602153Y-97320499D01*
X114602156Y-97320500D01*
X114602158Y-97320500D01*
X114759844Y-97320500D01*
X114759845Y-97320499D01*
X114914497Y-97289737D01*
X115060179Y-97229394D01*
X115191289Y-97141789D01*
X115302789Y-97030289D01*
X115390394Y-96899179D01*
X115450737Y-96753497D01*
X115481500Y-96598842D01*
X115481500Y-96441158D01*
X115481500Y-96441155D01*
X115481499Y-96441153D01*
X116039500Y-96441153D01*
X116039500Y-96598846D01*
X116070261Y-96753489D01*
X116070264Y-96753501D01*
X116130602Y-96899172D01*
X116130609Y-96899185D01*
X116218210Y-97030288D01*
X116218213Y-97030292D01*
X116329707Y-97141786D01*
X116329711Y-97141789D01*
X116460814Y-97229390D01*
X116460827Y-97229397D01*
X116606498Y-97289735D01*
X116606503Y-97289737D01*
X116761153Y-97320499D01*
X116761156Y-97320500D01*
X116761158Y-97320500D01*
X116918844Y-97320500D01*
X116918845Y-97320499D01*
X117073497Y-97289737D01*
X117219179Y-97229394D01*
X117350289Y-97141789D01*
X117461789Y-97030289D01*
X117549394Y-96899179D01*
X117609737Y-96753497D01*
X117640500Y-96598842D01*
X117640500Y-96441158D01*
X117640500Y-96441155D01*
X117640499Y-96441153D01*
X118325500Y-96441153D01*
X118325500Y-96598846D01*
X118356261Y-96753489D01*
X118356264Y-96753501D01*
X118416602Y-96899172D01*
X118416609Y-96899185D01*
X118504210Y-97030288D01*
X118504213Y-97030292D01*
X118615707Y-97141786D01*
X118615711Y-97141789D01*
X118746814Y-97229390D01*
X118746827Y-97229397D01*
X118892498Y-97289735D01*
X118892503Y-97289737D01*
X119047153Y-97320499D01*
X119047156Y-97320500D01*
X119047158Y-97320500D01*
X119204844Y-97320500D01*
X119204845Y-97320499D01*
X119359497Y-97289737D01*
X119505179Y-97229394D01*
X119636289Y-97141789D01*
X119747789Y-97030289D01*
X119835394Y-96899179D01*
X119895737Y-96753497D01*
X119926500Y-96598842D01*
X119926500Y-96441158D01*
X119926500Y-96441155D01*
X119926499Y-96441153D01*
X120865500Y-96441153D01*
X120865500Y-96598846D01*
X120896261Y-96753489D01*
X120896264Y-96753501D01*
X120956602Y-96899172D01*
X120956609Y-96899185D01*
X121044210Y-97030288D01*
X121044213Y-97030292D01*
X121155707Y-97141786D01*
X121155711Y-97141789D01*
X121286814Y-97229390D01*
X121286827Y-97229397D01*
X121432498Y-97289735D01*
X121432503Y-97289737D01*
X121587153Y-97320499D01*
X121587156Y-97320500D01*
X121587158Y-97320500D01*
X121744844Y-97320500D01*
X121744845Y-97320499D01*
X121899497Y-97289737D01*
X122045179Y-97229394D01*
X122176289Y-97141789D01*
X122287789Y-97030289D01*
X122375394Y-96899179D01*
X122435737Y-96753497D01*
X122466500Y-96598842D01*
X122466500Y-96441158D01*
X122466500Y-96441155D01*
X122466499Y-96441153D01*
X122435738Y-96286510D01*
X122435737Y-96286503D01*
X122426487Y-96264172D01*
X122375397Y-96140827D01*
X122375390Y-96140814D01*
X122287789Y-96009711D01*
X122287786Y-96009707D01*
X122176290Y-95898211D01*
X122045185Y-95810609D01*
X122045172Y-95810602D01*
X122034431Y-95806153D01*
X123659500Y-95806153D01*
X123659500Y-95963846D01*
X123690261Y-96118489D01*
X123690264Y-96118501D01*
X123750602Y-96264172D01*
X123750609Y-96264185D01*
X123838210Y-96395288D01*
X123838213Y-96395292D01*
X123949707Y-96506786D01*
X123949711Y-96506789D01*
X124080814Y-96594390D01*
X124080827Y-96594397D01*
X124226498Y-96654735D01*
X124226503Y-96654737D01*
X124381153Y-96685499D01*
X124381156Y-96685500D01*
X124381158Y-96685500D01*
X124538844Y-96685500D01*
X124538845Y-96685499D01*
X124693497Y-96654737D01*
X124828436Y-96598844D01*
X124839172Y-96594397D01*
X124839172Y-96594396D01*
X124839179Y-96594394D01*
X124878451Y-96568153D01*
X126707500Y-96568153D01*
X126707500Y-96725846D01*
X126738261Y-96880489D01*
X126738264Y-96880501D01*
X126798602Y-97026172D01*
X126798609Y-97026185D01*
X126886210Y-97157288D01*
X126886213Y-97157292D01*
X126997707Y-97268786D01*
X126997711Y-97268789D01*
X127128814Y-97356390D01*
X127128827Y-97356397D01*
X127274498Y-97416735D01*
X127274503Y-97416737D01*
X127429153Y-97447499D01*
X127429156Y-97447500D01*
X127429158Y-97447500D01*
X127586844Y-97447500D01*
X127586845Y-97447499D01*
X127741497Y-97416737D01*
X127887179Y-97356394D01*
X128018289Y-97268789D01*
X128129789Y-97157289D01*
X128217394Y-97026179D01*
X128277737Y-96880497D01*
X128308500Y-96725842D01*
X128308500Y-96568158D01*
X128308500Y-96568155D01*
X128308499Y-96568153D01*
X128288457Y-96467397D01*
X128277737Y-96413503D01*
X128263771Y-96379786D01*
X128217397Y-96267827D01*
X128217390Y-96267814D01*
X128129789Y-96136711D01*
X128129786Y-96136707D01*
X128018292Y-96025213D01*
X128018288Y-96025210D01*
X127887185Y-95937609D01*
X127887172Y-95937602D01*
X127831703Y-95914627D01*
X127741501Y-95877264D01*
X127741489Y-95877261D01*
X127586845Y-95846500D01*
X127586842Y-95846500D01*
X127429158Y-95846500D01*
X127429155Y-95846500D01*
X127274510Y-95877261D01*
X127274498Y-95877264D01*
X127128827Y-95937602D01*
X127128814Y-95937609D01*
X126997711Y-96025210D01*
X126997707Y-96025213D01*
X126886213Y-96136707D01*
X126886210Y-96136711D01*
X126798609Y-96267814D01*
X126798602Y-96267827D01*
X126738264Y-96413498D01*
X126738261Y-96413510D01*
X126707500Y-96568153D01*
X124878451Y-96568153D01*
X124970289Y-96506789D01*
X124970292Y-96506786D01*
X125002694Y-96474385D01*
X125081786Y-96395292D01*
X125081789Y-96395289D01*
X125169394Y-96264179D01*
X125229737Y-96118497D01*
X125260500Y-95963842D01*
X125260500Y-95806158D01*
X125260500Y-95806155D01*
X125260499Y-95806153D01*
X131152500Y-95806153D01*
X131152500Y-95963846D01*
X131183261Y-96118489D01*
X131183264Y-96118501D01*
X131243602Y-96264172D01*
X131243609Y-96264185D01*
X131331210Y-96395288D01*
X131331213Y-96395292D01*
X131442707Y-96506786D01*
X131442711Y-96506789D01*
X131573814Y-96594390D01*
X131573827Y-96594397D01*
X131719498Y-96654735D01*
X131719503Y-96654737D01*
X131805440Y-96671831D01*
X131867351Y-96704215D01*
X131901925Y-96764931D01*
X131898186Y-96834700D01*
X131857320Y-96891373D01*
X131850143Y-96896548D01*
X131823712Y-96914209D01*
X131823707Y-96914213D01*
X131712213Y-97025707D01*
X131712210Y-97025711D01*
X131624609Y-97156814D01*
X131624602Y-97156827D01*
X131564264Y-97302498D01*
X131564261Y-97302510D01*
X131533500Y-97457153D01*
X131533500Y-97614846D01*
X131564261Y-97769489D01*
X131564264Y-97769501D01*
X131624602Y-97915172D01*
X131624609Y-97915185D01*
X131712210Y-98046288D01*
X131712213Y-98046292D01*
X131823707Y-98157786D01*
X131823711Y-98157789D01*
X131954814Y-98245390D01*
X131954827Y-98245397D01*
X132100498Y-98305735D01*
X132100503Y-98305737D01*
X132255153Y-98336499D01*
X132255156Y-98336500D01*
X132255158Y-98336500D01*
X132412844Y-98336500D01*
X132412845Y-98336499D01*
X132567497Y-98305737D01*
X132713179Y-98245394D01*
X132844289Y-98157789D01*
X132955789Y-98046289D01*
X133043394Y-97915179D01*
X133103737Y-97769497D01*
X133134500Y-97614842D01*
X133134500Y-97457158D01*
X133134500Y-97457155D01*
X133134499Y-97457153D01*
X133114457Y-97356397D01*
X133103737Y-97302503D01*
X133073456Y-97229397D01*
X133043397Y-97156827D01*
X133043390Y-97156814D01*
X132955789Y-97025711D01*
X132955786Y-97025707D01*
X132844292Y-96914213D01*
X132844288Y-96914210D01*
X132713185Y-96826609D01*
X132713172Y-96826602D01*
X132567501Y-96766264D01*
X132567491Y-96766261D01*
X132481558Y-96749168D01*
X132419647Y-96716783D01*
X132385073Y-96656067D01*
X132388813Y-96586298D01*
X132429680Y-96529626D01*
X132436860Y-96524448D01*
X132463289Y-96506789D01*
X132574789Y-96395289D01*
X132662394Y-96264179D01*
X132722737Y-96118497D01*
X132753500Y-95963842D01*
X132753500Y-95806158D01*
X132753500Y-95806155D01*
X132753499Y-95806153D01*
X132731839Y-95697257D01*
X132728238Y-95679153D01*
X137248500Y-95679153D01*
X137248500Y-95836846D01*
X137279261Y-95991489D01*
X137279264Y-95991501D01*
X137339602Y-96137172D01*
X137339609Y-96137185D01*
X137427210Y-96268288D01*
X137427213Y-96268292D01*
X137538707Y-96379786D01*
X137538711Y-96379789D01*
X137669814Y-96467390D01*
X137669827Y-96467397D01*
X137815498Y-96527735D01*
X137815503Y-96527737D01*
X137970153Y-96558499D01*
X137970156Y-96558500D01*
X137970158Y-96558500D01*
X138127844Y-96558500D01*
X138127845Y-96558499D01*
X138282497Y-96527737D01*
X138428179Y-96467394D01*
X138559289Y-96379789D01*
X138670789Y-96268289D01*
X138758394Y-96137179D01*
X138818737Y-95991497D01*
X138849500Y-95836842D01*
X138849500Y-95679158D01*
X138849500Y-95679155D01*
X138849499Y-95679153D01*
X143725500Y-95679153D01*
X143725500Y-95836846D01*
X143756261Y-95991489D01*
X143756264Y-95991501D01*
X143816602Y-96137172D01*
X143816609Y-96137185D01*
X143904210Y-96268288D01*
X143904213Y-96268292D01*
X144015707Y-96379786D01*
X144015711Y-96379789D01*
X144146814Y-96467390D01*
X144146827Y-96467397D01*
X144292498Y-96527735D01*
X144292503Y-96527737D01*
X144447153Y-96558499D01*
X144447156Y-96558500D01*
X144447158Y-96558500D01*
X144604844Y-96558500D01*
X144604845Y-96558499D01*
X144759497Y-96527737D01*
X144905179Y-96467394D01*
X145036289Y-96379789D01*
X145147789Y-96268289D01*
X145235394Y-96137179D01*
X145295737Y-95991497D01*
X145326500Y-95836842D01*
X145326500Y-95679158D01*
X145326500Y-95679155D01*
X145326499Y-95679153D01*
X145295738Y-95524510D01*
X145295737Y-95524503D01*
X145287996Y-95505814D01*
X145235397Y-95378827D01*
X145235390Y-95378814D01*
X145147789Y-95247711D01*
X145147786Y-95247707D01*
X145036292Y-95136213D01*
X145036288Y-95136210D01*
X144905185Y-95048609D01*
X144905172Y-95048602D01*
X144759501Y-94988264D01*
X144759489Y-94988261D01*
X144604845Y-94957500D01*
X144604842Y-94957500D01*
X144447158Y-94957500D01*
X144447155Y-94957500D01*
X144292510Y-94988261D01*
X144292498Y-94988264D01*
X144146827Y-95048602D01*
X144146814Y-95048609D01*
X144015711Y-95136210D01*
X144015707Y-95136213D01*
X143904213Y-95247707D01*
X143904210Y-95247711D01*
X143816609Y-95378814D01*
X143816602Y-95378827D01*
X143756264Y-95524498D01*
X143756261Y-95524510D01*
X143725500Y-95679153D01*
X138849499Y-95679153D01*
X138818738Y-95524510D01*
X138818737Y-95524503D01*
X138810996Y-95505814D01*
X138758397Y-95378827D01*
X138758390Y-95378814D01*
X138670789Y-95247711D01*
X138670786Y-95247707D01*
X138559292Y-95136213D01*
X138559288Y-95136210D01*
X138428185Y-95048609D01*
X138428172Y-95048602D01*
X138282501Y-94988264D01*
X138282489Y-94988261D01*
X138127845Y-94957500D01*
X138127842Y-94957500D01*
X137970158Y-94957500D01*
X137970155Y-94957500D01*
X137815510Y-94988261D01*
X137815498Y-94988264D01*
X137669827Y-95048602D01*
X137669814Y-95048609D01*
X137538711Y-95136210D01*
X137538707Y-95136213D01*
X137427213Y-95247707D01*
X137427210Y-95247711D01*
X137339609Y-95378814D01*
X137339602Y-95378827D01*
X137279264Y-95524498D01*
X137279261Y-95524510D01*
X137248500Y-95679153D01*
X132728238Y-95679153D01*
X132722738Y-95651508D01*
X132722737Y-95651507D01*
X132722737Y-95651503D01*
X132722735Y-95651498D01*
X132662397Y-95505827D01*
X132662390Y-95505814D01*
X132574789Y-95374711D01*
X132574786Y-95374707D01*
X132463292Y-95263213D01*
X132463288Y-95263210D01*
X132332185Y-95175609D01*
X132332172Y-95175602D01*
X132186501Y-95115264D01*
X132186489Y-95115261D01*
X132031845Y-95084500D01*
X132031842Y-95084500D01*
X131874158Y-95084500D01*
X131874155Y-95084500D01*
X131719510Y-95115261D01*
X131719498Y-95115264D01*
X131573827Y-95175602D01*
X131573814Y-95175609D01*
X131442711Y-95263210D01*
X131442707Y-95263213D01*
X131331213Y-95374707D01*
X131331210Y-95374711D01*
X131243609Y-95505814D01*
X131243602Y-95505827D01*
X131183264Y-95651498D01*
X131183261Y-95651510D01*
X131152500Y-95806153D01*
X125260499Y-95806153D01*
X125249381Y-95750261D01*
X125229737Y-95651503D01*
X125229735Y-95651498D01*
X125169397Y-95505827D01*
X125169390Y-95505814D01*
X125081789Y-95374711D01*
X125081786Y-95374707D01*
X124970292Y-95263213D01*
X124970288Y-95263210D01*
X124839185Y-95175609D01*
X124839172Y-95175602D01*
X124693501Y-95115264D01*
X124693489Y-95115261D01*
X124538845Y-95084500D01*
X124538842Y-95084500D01*
X124381158Y-95084500D01*
X124381155Y-95084500D01*
X124226510Y-95115261D01*
X124226498Y-95115264D01*
X124080827Y-95175602D01*
X124080814Y-95175609D01*
X123949711Y-95263210D01*
X123949707Y-95263213D01*
X123838213Y-95374707D01*
X123838210Y-95374711D01*
X123750609Y-95505814D01*
X123750602Y-95505827D01*
X123690264Y-95651498D01*
X123690261Y-95651510D01*
X123659500Y-95806153D01*
X122034431Y-95806153D01*
X121899501Y-95750264D01*
X121899489Y-95750261D01*
X121744845Y-95719500D01*
X121744842Y-95719500D01*
X121587158Y-95719500D01*
X121587155Y-95719500D01*
X121432510Y-95750261D01*
X121432498Y-95750264D01*
X121286827Y-95810602D01*
X121286814Y-95810609D01*
X121155711Y-95898210D01*
X121155707Y-95898213D01*
X121044213Y-96009707D01*
X121044210Y-96009711D01*
X120956609Y-96140814D01*
X120956602Y-96140827D01*
X120896264Y-96286498D01*
X120896261Y-96286510D01*
X120865500Y-96441153D01*
X119926499Y-96441153D01*
X119895738Y-96286510D01*
X119895737Y-96286503D01*
X119886487Y-96264172D01*
X119835397Y-96140827D01*
X119835390Y-96140814D01*
X119747789Y-96009711D01*
X119747786Y-96009707D01*
X119636292Y-95898213D01*
X119636288Y-95898210D01*
X119505185Y-95810609D01*
X119505172Y-95810602D01*
X119359501Y-95750264D01*
X119359489Y-95750261D01*
X119204845Y-95719500D01*
X119204842Y-95719500D01*
X119047158Y-95719500D01*
X119047155Y-95719500D01*
X118892510Y-95750261D01*
X118892498Y-95750264D01*
X118746827Y-95810602D01*
X118746814Y-95810609D01*
X118615711Y-95898210D01*
X118615707Y-95898213D01*
X118504213Y-96009707D01*
X118504210Y-96009711D01*
X118416609Y-96140814D01*
X118416602Y-96140827D01*
X118356264Y-96286498D01*
X118356261Y-96286510D01*
X118325500Y-96441153D01*
X117640499Y-96441153D01*
X117609738Y-96286510D01*
X117609737Y-96286503D01*
X117600487Y-96264172D01*
X117549397Y-96140827D01*
X117549390Y-96140814D01*
X117461789Y-96009711D01*
X117461786Y-96009707D01*
X117350292Y-95898213D01*
X117350288Y-95898210D01*
X117219185Y-95810609D01*
X117219172Y-95810602D01*
X117073501Y-95750264D01*
X117073489Y-95750261D01*
X116918845Y-95719500D01*
X116918842Y-95719500D01*
X116761158Y-95719500D01*
X116761155Y-95719500D01*
X116606510Y-95750261D01*
X116606498Y-95750264D01*
X116460827Y-95810602D01*
X116460814Y-95810609D01*
X116329711Y-95898210D01*
X116329707Y-95898213D01*
X116218213Y-96009707D01*
X116218210Y-96009711D01*
X116130609Y-96140814D01*
X116130602Y-96140827D01*
X116070264Y-96286498D01*
X116070261Y-96286510D01*
X116039500Y-96441153D01*
X115481499Y-96441153D01*
X115450738Y-96286510D01*
X115450737Y-96286503D01*
X115441487Y-96264172D01*
X115390397Y-96140827D01*
X115390390Y-96140814D01*
X115302789Y-96009711D01*
X115302786Y-96009707D01*
X115191292Y-95898213D01*
X115191288Y-95898210D01*
X115060185Y-95810609D01*
X115060172Y-95810602D01*
X114914501Y-95750264D01*
X114914489Y-95750261D01*
X114759845Y-95719500D01*
X114759842Y-95719500D01*
X114602158Y-95719500D01*
X114602155Y-95719500D01*
X114447510Y-95750261D01*
X114447498Y-95750264D01*
X114301827Y-95810602D01*
X114301814Y-95810609D01*
X114170711Y-95898210D01*
X114170707Y-95898213D01*
X114059213Y-96009707D01*
X114059210Y-96009711D01*
X114019602Y-96068989D01*
X113965990Y-96113794D01*
X113896665Y-96122501D01*
X113833637Y-96092346D01*
X113796918Y-96032903D01*
X113792500Y-96000098D01*
X113792500Y-93864901D01*
X113812185Y-93797862D01*
X113864989Y-93752107D01*
X113934147Y-93742163D01*
X113997703Y-93771188D01*
X114019602Y-93796011D01*
X114059207Y-93855284D01*
X114059213Y-93855292D01*
X114170707Y-93966786D01*
X114170711Y-93966789D01*
X114301814Y-94054390D01*
X114301827Y-94054397D01*
X114447498Y-94114735D01*
X114447503Y-94114737D01*
X114602153Y-94145499D01*
X114602156Y-94145500D01*
X114602158Y-94145500D01*
X114759844Y-94145500D01*
X114759845Y-94145499D01*
X114914497Y-94114737D01*
X115060179Y-94054394D01*
X115191289Y-93966789D01*
X115302789Y-93855289D01*
X115390394Y-93724179D01*
X115450737Y-93578497D01*
X115481500Y-93423842D01*
X115481500Y-93266158D01*
X115481500Y-93266155D01*
X115481499Y-93266153D01*
X116039500Y-93266153D01*
X116039500Y-93423846D01*
X116070261Y-93578489D01*
X116070264Y-93578501D01*
X116130602Y-93724172D01*
X116130609Y-93724185D01*
X116218210Y-93855288D01*
X116218213Y-93855292D01*
X116329707Y-93966786D01*
X116329711Y-93966789D01*
X116460814Y-94054390D01*
X116460827Y-94054397D01*
X116606498Y-94114735D01*
X116606503Y-94114737D01*
X116761153Y-94145499D01*
X116761156Y-94145500D01*
X116761158Y-94145500D01*
X116918844Y-94145500D01*
X116918845Y-94145499D01*
X117073497Y-94114737D01*
X117219179Y-94054394D01*
X117350289Y-93966789D01*
X117461789Y-93855289D01*
X117516002Y-93774153D01*
X118325500Y-93774153D01*
X118325500Y-93931846D01*
X118356261Y-94086489D01*
X118356264Y-94086501D01*
X118416602Y-94232172D01*
X118416609Y-94232185D01*
X118504210Y-94363288D01*
X118504213Y-94363292D01*
X118615707Y-94474786D01*
X118615711Y-94474789D01*
X118746814Y-94562390D01*
X118746827Y-94562397D01*
X118892498Y-94622735D01*
X118892503Y-94622737D01*
X119047153Y-94653499D01*
X119047156Y-94653500D01*
X119047158Y-94653500D01*
X119204844Y-94653500D01*
X119204845Y-94653499D01*
X119359497Y-94622737D01*
X119505179Y-94562394D01*
X119636289Y-94474789D01*
X119747789Y-94363289D01*
X119835394Y-94232179D01*
X119895737Y-94086497D01*
X119926500Y-93931842D01*
X119926500Y-93774158D01*
X119926500Y-93774155D01*
X119926499Y-93774153D01*
X119915850Y-93720616D01*
X119895737Y-93619503D01*
X119878749Y-93578489D01*
X119835397Y-93473827D01*
X119835390Y-93473814D01*
X119747792Y-93342716D01*
X119747789Y-93342711D01*
X119747784Y-93342706D01*
X119747781Y-93342702D01*
X119671232Y-93266153D01*
X124294500Y-93266153D01*
X124294500Y-93423846D01*
X124325261Y-93578489D01*
X124325264Y-93578501D01*
X124385602Y-93724172D01*
X124385609Y-93724185D01*
X124473210Y-93855288D01*
X124473213Y-93855292D01*
X124584707Y-93966786D01*
X124584711Y-93966789D01*
X124715814Y-94054390D01*
X124715827Y-94054397D01*
X124861498Y-94114735D01*
X124861503Y-94114737D01*
X125016153Y-94145499D01*
X125016156Y-94145500D01*
X125016158Y-94145500D01*
X125173844Y-94145500D01*
X125173845Y-94145499D01*
X125328497Y-94114737D01*
X125474179Y-94054394D01*
X125605289Y-93966789D01*
X125716789Y-93855289D01*
X125804394Y-93724179D01*
X125864737Y-93578497D01*
X125895500Y-93423842D01*
X125895500Y-93266158D01*
X125895500Y-93266155D01*
X125895499Y-93266153D01*
X125888549Y-93231213D01*
X125864737Y-93111503D01*
X125853039Y-93083261D01*
X125804397Y-92965827D01*
X125804390Y-92965814D01*
X125716789Y-92834711D01*
X125716786Y-92834707D01*
X125605292Y-92723213D01*
X125605288Y-92723210D01*
X125474185Y-92635609D01*
X125474172Y-92635602D01*
X125328501Y-92575264D01*
X125328489Y-92575261D01*
X125173845Y-92544500D01*
X125173842Y-92544500D01*
X125016158Y-92544500D01*
X125016155Y-92544500D01*
X124861510Y-92575261D01*
X124861498Y-92575264D01*
X124715827Y-92635602D01*
X124715814Y-92635609D01*
X124584711Y-92723210D01*
X124584707Y-92723213D01*
X124473213Y-92834707D01*
X124473210Y-92834711D01*
X124385609Y-92965814D01*
X124385602Y-92965827D01*
X124325264Y-93111498D01*
X124325261Y-93111510D01*
X124294500Y-93266153D01*
X119671232Y-93266153D01*
X119636292Y-93231213D01*
X119636288Y-93231210D01*
X119505185Y-93143609D01*
X119505172Y-93143602D01*
X119359501Y-93083264D01*
X119359489Y-93083261D01*
X119204845Y-93052500D01*
X119204842Y-93052500D01*
X119047158Y-93052500D01*
X119047155Y-93052500D01*
X118892510Y-93083261D01*
X118892498Y-93083264D01*
X118746827Y-93143602D01*
X118746814Y-93143609D01*
X118615711Y-93231210D01*
X118615707Y-93231213D01*
X118504213Y-93342707D01*
X118504210Y-93342711D01*
X118416609Y-93473814D01*
X118416602Y-93473827D01*
X118356264Y-93619498D01*
X118356261Y-93619510D01*
X118325500Y-93774153D01*
X117516002Y-93774153D01*
X117549394Y-93724179D01*
X117609737Y-93578497D01*
X117640500Y-93423842D01*
X117640500Y-93266158D01*
X117640500Y-93266155D01*
X117640499Y-93266153D01*
X117633549Y-93231213D01*
X117609737Y-93111503D01*
X117598039Y-93083261D01*
X117549397Y-92965827D01*
X117549390Y-92965814D01*
X117461789Y-92834711D01*
X117461786Y-92834707D01*
X117350292Y-92723213D01*
X117350288Y-92723210D01*
X117219185Y-92635609D01*
X117219172Y-92635602D01*
X117073501Y-92575264D01*
X117073489Y-92575261D01*
X116918845Y-92544500D01*
X116918842Y-92544500D01*
X116761158Y-92544500D01*
X116761155Y-92544500D01*
X116606510Y-92575261D01*
X116606498Y-92575264D01*
X116460827Y-92635602D01*
X116460814Y-92635609D01*
X116329711Y-92723210D01*
X116329707Y-92723213D01*
X116218213Y-92834707D01*
X116218210Y-92834711D01*
X116130609Y-92965814D01*
X116130602Y-92965827D01*
X116070264Y-93111498D01*
X116070261Y-93111510D01*
X116039500Y-93266153D01*
X115481499Y-93266153D01*
X115474549Y-93231213D01*
X115450737Y-93111503D01*
X115439039Y-93083261D01*
X115390397Y-92965827D01*
X115390390Y-92965814D01*
X115302789Y-92834711D01*
X115302786Y-92834707D01*
X115191292Y-92723213D01*
X115191288Y-92723210D01*
X115060185Y-92635609D01*
X115060172Y-92635602D01*
X114914501Y-92575264D01*
X114914489Y-92575261D01*
X114759845Y-92544500D01*
X114759842Y-92544500D01*
X114602158Y-92544500D01*
X114602155Y-92544500D01*
X114447510Y-92575261D01*
X114447498Y-92575264D01*
X114301827Y-92635602D01*
X114301814Y-92635609D01*
X114170711Y-92723210D01*
X114170707Y-92723213D01*
X114059213Y-92834707D01*
X114059210Y-92834711D01*
X114019602Y-92893989D01*
X113965990Y-92938794D01*
X113896665Y-92947501D01*
X113833637Y-92917346D01*
X113796918Y-92857903D01*
X113792500Y-92825098D01*
X113792500Y-88440153D01*
X116039500Y-88440153D01*
X116039500Y-88597846D01*
X116070261Y-88752489D01*
X116070264Y-88752501D01*
X116130602Y-88898172D01*
X116130609Y-88898185D01*
X116218210Y-89029288D01*
X116218213Y-89029292D01*
X116329707Y-89140786D01*
X116329711Y-89140789D01*
X116460814Y-89228390D01*
X116460827Y-89228397D01*
X116527542Y-89256031D01*
X116581946Y-89299872D01*
X116604011Y-89366166D01*
X116601708Y-89394782D01*
X116589500Y-89456158D01*
X116589500Y-89613846D01*
X116620261Y-89768489D01*
X116620264Y-89768501D01*
X116680602Y-89914172D01*
X116680609Y-89914185D01*
X116768210Y-90045288D01*
X116768213Y-90045292D01*
X116879709Y-90156788D01*
X116882116Y-90158396D01*
X116883092Y-90159564D01*
X116884419Y-90160653D01*
X116884212Y-90160904D01*
X116926922Y-90212007D01*
X116935632Y-90281332D01*
X116905479Y-90344360D01*
X116846037Y-90381081D01*
X116813228Y-90385500D01*
X116761155Y-90385500D01*
X116606510Y-90416261D01*
X116606498Y-90416264D01*
X116460827Y-90476602D01*
X116460814Y-90476609D01*
X116329711Y-90564210D01*
X116329707Y-90564213D01*
X116218213Y-90675707D01*
X116218210Y-90675711D01*
X116130609Y-90806814D01*
X116130602Y-90806827D01*
X116070264Y-90952498D01*
X116070261Y-90952510D01*
X116039500Y-91107153D01*
X116039500Y-91264846D01*
X116070261Y-91419489D01*
X116070264Y-91419501D01*
X116130602Y-91565172D01*
X116130609Y-91565185D01*
X116218210Y-91696288D01*
X116218213Y-91696292D01*
X116329707Y-91807786D01*
X116329711Y-91807789D01*
X116460814Y-91895390D01*
X116460827Y-91895397D01*
X116583442Y-91946185D01*
X116606503Y-91955737D01*
X116761153Y-91986499D01*
X116761156Y-91986500D01*
X116761158Y-91986500D01*
X116918844Y-91986500D01*
X116918845Y-91986499D01*
X117073497Y-91955737D01*
X117219179Y-91895394D01*
X117350289Y-91807789D01*
X117461789Y-91696289D01*
X117549394Y-91565179D01*
X117609737Y-91419497D01*
X117640500Y-91264842D01*
X117640500Y-91255617D01*
X117660185Y-91188578D01*
X117712989Y-91142823D01*
X117782147Y-91132879D01*
X117845703Y-91161904D01*
X117867602Y-91186726D01*
X117935385Y-91288170D01*
X117935388Y-91288174D01*
X118046883Y-91399669D01*
X118046886Y-91399671D01*
X118143391Y-91464154D01*
X118188196Y-91517764D01*
X118198500Y-91567255D01*
X118198500Y-91645846D01*
X118229261Y-91800489D01*
X118229264Y-91800501D01*
X118289602Y-91946172D01*
X118289609Y-91946185D01*
X118377210Y-92077288D01*
X118377213Y-92077292D01*
X118488707Y-92188786D01*
X118488711Y-92188789D01*
X118619814Y-92276390D01*
X118619827Y-92276397D01*
X118765498Y-92336735D01*
X118765503Y-92336737D01*
X118920153Y-92367499D01*
X118920156Y-92367500D01*
X118920158Y-92367500D01*
X119077844Y-92367500D01*
X119077845Y-92367499D01*
X119232497Y-92336737D01*
X119378179Y-92276394D01*
X119509289Y-92188789D01*
X119620789Y-92077289D01*
X119708394Y-91946179D01*
X119768737Y-91800497D01*
X119799500Y-91645842D01*
X119799500Y-91488158D01*
X119799500Y-91488155D01*
X119799499Y-91488153D01*
X119785841Y-91419489D01*
X119768737Y-91333503D01*
X119767517Y-91330557D01*
X119708397Y-91187827D01*
X119708390Y-91187814D01*
X119620789Y-91056711D01*
X119620786Y-91056707D01*
X119509292Y-90945213D01*
X119509288Y-90945210D01*
X119412784Y-90880727D01*
X119367979Y-90827114D01*
X119357675Y-90777625D01*
X119357675Y-90699037D01*
X119357674Y-90699035D01*
X119353945Y-90680288D01*
X119326912Y-90544385D01*
X119326910Y-90544380D01*
X119266572Y-90398709D01*
X119266565Y-90398696D01*
X119178964Y-90267593D01*
X119178961Y-90267589D01*
X119067467Y-90156095D01*
X119067463Y-90156092D01*
X118936360Y-90068491D01*
X118936347Y-90068484D01*
X118790676Y-90008146D01*
X118790666Y-90008143D01*
X118711743Y-89992444D01*
X118704708Y-89988764D01*
X118696773Y-89988481D01*
X118674190Y-89972800D01*
X118649832Y-89960059D01*
X118644440Y-89952143D01*
X118639382Y-89948631D01*
X118621373Y-89918277D01*
X118617794Y-89909636D01*
X118617793Y-89909635D01*
X118600661Y-89868273D01*
X119515499Y-89868273D01*
X119515499Y-90025966D01*
X119546260Y-90180609D01*
X119546263Y-90180621D01*
X119606601Y-90326292D01*
X119606608Y-90326305D01*
X119694209Y-90457408D01*
X119694212Y-90457412D01*
X119805706Y-90568906D01*
X119805710Y-90568909D01*
X119936813Y-90656510D01*
X119936826Y-90656517D01*
X120082497Y-90716855D01*
X120082502Y-90716857D01*
X120205978Y-90741418D01*
X120237152Y-90747619D01*
X120237155Y-90747620D01*
X120237157Y-90747620D01*
X120394843Y-90747620D01*
X120394844Y-90747619D01*
X120426019Y-90741418D01*
X122628235Y-90741418D01*
X122628235Y-90899111D01*
X122658996Y-91053754D01*
X122658999Y-91053766D01*
X122719337Y-91199437D01*
X122719344Y-91199450D01*
X122806945Y-91330553D01*
X122806948Y-91330557D01*
X122918442Y-91442051D01*
X122918446Y-91442054D01*
X123049549Y-91529655D01*
X123049562Y-91529662D01*
X123140321Y-91567255D01*
X123195238Y-91590002D01*
X123349888Y-91620764D01*
X123349891Y-91620765D01*
X123349893Y-91620765D01*
X123507579Y-91620765D01*
X123507580Y-91620764D01*
X123662232Y-91590002D01*
X123807914Y-91529659D01*
X123870032Y-91488153D01*
X145122500Y-91488153D01*
X145122500Y-91645846D01*
X145153261Y-91800489D01*
X145153264Y-91800501D01*
X145213602Y-91946172D01*
X145213609Y-91946185D01*
X145301210Y-92077288D01*
X145301213Y-92077292D01*
X145412707Y-92188786D01*
X145412711Y-92188789D01*
X145543814Y-92276390D01*
X145543827Y-92276397D01*
X145689498Y-92336735D01*
X145689503Y-92336737D01*
X145844153Y-92367499D01*
X145844156Y-92367500D01*
X145844158Y-92367500D01*
X146001844Y-92367500D01*
X146001845Y-92367499D01*
X146156497Y-92336737D01*
X146302179Y-92276394D01*
X146433289Y-92188789D01*
X146544789Y-92077289D01*
X146632394Y-91946179D01*
X146692737Y-91800497D01*
X146723500Y-91645842D01*
X146723500Y-91488158D01*
X146723500Y-91488155D01*
X146723499Y-91488153D01*
X146709841Y-91419489D01*
X146692737Y-91333503D01*
X146691517Y-91330557D01*
X146632397Y-91187827D01*
X146632390Y-91187814D01*
X146544789Y-91056711D01*
X146544786Y-91056707D01*
X146433292Y-90945213D01*
X146433288Y-90945210D01*
X146302185Y-90857609D01*
X146302172Y-90857602D01*
X146156501Y-90797264D01*
X146156489Y-90797261D01*
X146001845Y-90766500D01*
X146001842Y-90766500D01*
X145844158Y-90766500D01*
X145844155Y-90766500D01*
X145689510Y-90797261D01*
X145689498Y-90797264D01*
X145543827Y-90857602D01*
X145543814Y-90857609D01*
X145412711Y-90945210D01*
X145412707Y-90945213D01*
X145301213Y-91056707D01*
X145301210Y-91056711D01*
X145213609Y-91187814D01*
X145213602Y-91187827D01*
X145153264Y-91333498D01*
X145153261Y-91333510D01*
X145122500Y-91488153D01*
X123870032Y-91488153D01*
X123939024Y-91442054D01*
X123961589Y-91419489D01*
X123986694Y-91394385D01*
X124050521Y-91330557D01*
X124050524Y-91330554D01*
X124138129Y-91199444D01*
X124198472Y-91053762D01*
X124229235Y-90899107D01*
X124229235Y-90741423D01*
X124229235Y-90741420D01*
X124229234Y-90741418D01*
X124217075Y-90680292D01*
X124198472Y-90586768D01*
X124191073Y-90568906D01*
X124138132Y-90441092D01*
X124138125Y-90441079D01*
X124050524Y-90309976D01*
X124050521Y-90309972D01*
X123939027Y-90198478D01*
X123939021Y-90198473D01*
X123923597Y-90188167D01*
X123807920Y-90110874D01*
X123807907Y-90110867D01*
X123760312Y-90091153D01*
X132041500Y-90091153D01*
X132041500Y-90248846D01*
X132072261Y-90403489D01*
X132072264Y-90403501D01*
X132132602Y-90549172D01*
X132132609Y-90549185D01*
X132220210Y-90680288D01*
X132220213Y-90680292D01*
X132331707Y-90791786D01*
X132331711Y-90791789D01*
X132462814Y-90879390D01*
X132462827Y-90879397D01*
X132608498Y-90939735D01*
X132608503Y-90939737D01*
X132763153Y-90970499D01*
X132763156Y-90970500D01*
X132763158Y-90970500D01*
X132920844Y-90970500D01*
X132920845Y-90970499D01*
X133075497Y-90939737D01*
X133221179Y-90879394D01*
X133352289Y-90791789D01*
X133463789Y-90680289D01*
X133551394Y-90549179D01*
X133611737Y-90403497D01*
X133642500Y-90248842D01*
X133642500Y-90091158D01*
X133642500Y-90091155D01*
X133642499Y-90091153D01*
X137121500Y-90091153D01*
X137121500Y-90248846D01*
X137152261Y-90403489D01*
X137152264Y-90403501D01*
X137212602Y-90549172D01*
X137212609Y-90549185D01*
X137300210Y-90680288D01*
X137300213Y-90680292D01*
X137411707Y-90791786D01*
X137411711Y-90791789D01*
X137542814Y-90879390D01*
X137542827Y-90879397D01*
X137688498Y-90939735D01*
X137688503Y-90939737D01*
X137843153Y-90970499D01*
X137843156Y-90970500D01*
X137843158Y-90970500D01*
X138000844Y-90970500D01*
X138000845Y-90970499D01*
X138155497Y-90939737D01*
X138301179Y-90879394D01*
X138432289Y-90791789D01*
X138543789Y-90680289D01*
X138631394Y-90549179D01*
X138691737Y-90403497D01*
X138722500Y-90248842D01*
X138722500Y-90091158D01*
X138722500Y-90091155D01*
X138722499Y-90091153D01*
X138709532Y-90025966D01*
X138691737Y-89936503D01*
X138682487Y-89914172D01*
X138631397Y-89790827D01*
X138631390Y-89790814D01*
X138543789Y-89659711D01*
X138543786Y-89659707D01*
X138432292Y-89548213D01*
X138432288Y-89548210D01*
X138301185Y-89460609D01*
X138301172Y-89460602D01*
X138155501Y-89400264D01*
X138155489Y-89400261D01*
X138000845Y-89369500D01*
X138000842Y-89369500D01*
X137843158Y-89369500D01*
X137843155Y-89369500D01*
X137688510Y-89400261D01*
X137688498Y-89400264D01*
X137542827Y-89460602D01*
X137542814Y-89460609D01*
X137411711Y-89548210D01*
X137411707Y-89548213D01*
X137300213Y-89659707D01*
X137300210Y-89659711D01*
X137212609Y-89790814D01*
X137212602Y-89790827D01*
X137152264Y-89936498D01*
X137152261Y-89936510D01*
X137121500Y-90091153D01*
X133642499Y-90091153D01*
X133629532Y-90025966D01*
X133611737Y-89936503D01*
X133602487Y-89914172D01*
X133551397Y-89790827D01*
X133551390Y-89790814D01*
X133463789Y-89659711D01*
X133463786Y-89659707D01*
X133352292Y-89548213D01*
X133352288Y-89548210D01*
X133221185Y-89460609D01*
X133221172Y-89460602D01*
X133075501Y-89400264D01*
X133075489Y-89400261D01*
X132920845Y-89369500D01*
X132920842Y-89369500D01*
X132763158Y-89369500D01*
X132763155Y-89369500D01*
X132608510Y-89400261D01*
X132608498Y-89400264D01*
X132462827Y-89460602D01*
X132462814Y-89460609D01*
X132331711Y-89548210D01*
X132331707Y-89548213D01*
X132220213Y-89659707D01*
X132220210Y-89659711D01*
X132132609Y-89790814D01*
X132132602Y-89790827D01*
X132072264Y-89936498D01*
X132072261Y-89936510D01*
X132041500Y-90091153D01*
X123760312Y-90091153D01*
X123662236Y-90050529D01*
X123662224Y-90050526D01*
X123507580Y-90019765D01*
X123507577Y-90019765D01*
X123349893Y-90019765D01*
X123349890Y-90019765D01*
X123195245Y-90050526D01*
X123195233Y-90050529D01*
X123049562Y-90110867D01*
X123049549Y-90110874D01*
X122918446Y-90198475D01*
X122918442Y-90198478D01*
X122806948Y-90309972D01*
X122806945Y-90309976D01*
X122719344Y-90441079D01*
X122719337Y-90441092D01*
X122658999Y-90586763D01*
X122658996Y-90586775D01*
X122628235Y-90741418D01*
X120426019Y-90741418D01*
X120549496Y-90716857D01*
X120695178Y-90656514D01*
X120695184Y-90656510D01*
X120731524Y-90632229D01*
X120778184Y-90601050D01*
X120826288Y-90568909D01*
X120937788Y-90457409D01*
X121025393Y-90326299D01*
X121085736Y-90180617D01*
X121098182Y-90118049D01*
X121130567Y-90056138D01*
X121191282Y-90021564D01*
X121261052Y-90025303D01*
X121307480Y-90054559D01*
X121409707Y-90156786D01*
X121409711Y-90156789D01*
X121540814Y-90244390D01*
X121540827Y-90244397D01*
X121686498Y-90304735D01*
X121686503Y-90304737D01*
X121841153Y-90335499D01*
X121841156Y-90335500D01*
X121841158Y-90335500D01*
X121998844Y-90335500D01*
X121998845Y-90335499D01*
X122153497Y-90304737D01*
X122288436Y-90248844D01*
X122299172Y-90244397D01*
X122299172Y-90244396D01*
X122299179Y-90244394D01*
X122430289Y-90156789D01*
X122541789Y-90045289D01*
X122629394Y-89914179D01*
X122689737Y-89768497D01*
X122720500Y-89613842D01*
X122720500Y-89456158D01*
X122720500Y-89456155D01*
X122720499Y-89456153D01*
X122706080Y-89383666D01*
X122689737Y-89301503D01*
X122663320Y-89237726D01*
X122629397Y-89155827D01*
X122629390Y-89155814D01*
X122541789Y-89024711D01*
X122541786Y-89024707D01*
X122430292Y-88913213D01*
X122430288Y-88913210D01*
X122299185Y-88825609D01*
X122299172Y-88825602D01*
X122153501Y-88765264D01*
X122153489Y-88765261D01*
X121998845Y-88734500D01*
X121998842Y-88734500D01*
X121841158Y-88734500D01*
X121841155Y-88734500D01*
X121686510Y-88765261D01*
X121686498Y-88765264D01*
X121540827Y-88825602D01*
X121540814Y-88825609D01*
X121409711Y-88913210D01*
X121409707Y-88913213D01*
X121298213Y-89024707D01*
X121298210Y-89024711D01*
X121210609Y-89155814D01*
X121210602Y-89155827D01*
X121150264Y-89301498D01*
X121150261Y-89301507D01*
X121137816Y-89364072D01*
X121105430Y-89425983D01*
X121044714Y-89460556D01*
X120974944Y-89456815D01*
X120928518Y-89427560D01*
X120826291Y-89325333D01*
X120826287Y-89325330D01*
X120695184Y-89237729D01*
X120695171Y-89237722D01*
X120549500Y-89177384D01*
X120549488Y-89177381D01*
X120394844Y-89146620D01*
X120394841Y-89146620D01*
X120237157Y-89146620D01*
X120237154Y-89146620D01*
X120082509Y-89177381D01*
X120082497Y-89177384D01*
X119936826Y-89237722D01*
X119936813Y-89237729D01*
X119805710Y-89325330D01*
X119805706Y-89325333D01*
X119694212Y-89436827D01*
X119694209Y-89436831D01*
X119606608Y-89567934D01*
X119606601Y-89567947D01*
X119546263Y-89713618D01*
X119546260Y-89713630D01*
X119515499Y-89868273D01*
X118600661Y-89868273D01*
X118572710Y-89800792D01*
X118572703Y-89800779D01*
X118485102Y-89669676D01*
X118485099Y-89669672D01*
X118373605Y-89558178D01*
X118373601Y-89558175D01*
X118242490Y-89470569D01*
X118239244Y-89468834D01*
X118237862Y-89467477D01*
X118237427Y-89467186D01*
X118237482Y-89467103D01*
X118189400Y-89419872D01*
X118176080Y-89383671D01*
X118159737Y-89301503D01*
X118129456Y-89228397D01*
X118099397Y-89155827D01*
X118099390Y-89155814D01*
X118011789Y-89024711D01*
X118011786Y-89024707D01*
X117900292Y-88913213D01*
X117900288Y-88913210D01*
X117769185Y-88825609D01*
X117769175Y-88825604D01*
X117702456Y-88797968D01*
X117681338Y-88780950D01*
X117658180Y-88766844D01*
X117654538Y-88759353D01*
X117648053Y-88754127D01*
X117639488Y-88728395D01*
X117627632Y-88704006D01*
X117627790Y-88693248D01*
X117625988Y-88687833D01*
X117626782Y-88668722D01*
X117627352Y-88663938D01*
X117640500Y-88597842D01*
X117640500Y-88567153D01*
X123659500Y-88567153D01*
X123659500Y-88724846D01*
X123690261Y-88879489D01*
X123690264Y-88879501D01*
X123750602Y-89025172D01*
X123750609Y-89025185D01*
X123838210Y-89156288D01*
X123838213Y-89156292D01*
X123949707Y-89267786D01*
X123949711Y-89267789D01*
X124080814Y-89355390D01*
X124080827Y-89355397D01*
X124226498Y-89415735D01*
X124226503Y-89415737D01*
X124381153Y-89446499D01*
X124381156Y-89446500D01*
X124381158Y-89446500D01*
X124538844Y-89446500D01*
X124538845Y-89446499D01*
X124693497Y-89415737D01*
X124839179Y-89355394D01*
X124970289Y-89267789D01*
X125081789Y-89156289D01*
X125169394Y-89025179D01*
X125229737Y-88879497D01*
X125260500Y-88724842D01*
X125260500Y-88567158D01*
X125260500Y-88567155D01*
X125260499Y-88567153D01*
X125233317Y-88430500D01*
X125229737Y-88412503D01*
X125199456Y-88339397D01*
X125169397Y-88266827D01*
X125169390Y-88266814D01*
X125081789Y-88135711D01*
X125081786Y-88135707D01*
X124970292Y-88024213D01*
X124970288Y-88024210D01*
X124839185Y-87936609D01*
X124839172Y-87936602D01*
X124693501Y-87876264D01*
X124693489Y-87876261D01*
X124538845Y-87845500D01*
X124538842Y-87845500D01*
X124381158Y-87845500D01*
X124381155Y-87845500D01*
X124226510Y-87876261D01*
X124226498Y-87876264D01*
X124080827Y-87936602D01*
X124080814Y-87936609D01*
X123949711Y-88024210D01*
X123949707Y-88024213D01*
X123838213Y-88135707D01*
X123838210Y-88135711D01*
X123750609Y-88266814D01*
X123750602Y-88266827D01*
X123690264Y-88412498D01*
X123690261Y-88412510D01*
X123659500Y-88567153D01*
X117640500Y-88567153D01*
X117640500Y-88440158D01*
X117640500Y-88440155D01*
X117640499Y-88440153D01*
X117620457Y-88339397D01*
X117609737Y-88285503D01*
X117595771Y-88251786D01*
X117549397Y-88139827D01*
X117549390Y-88139814D01*
X117461789Y-88008711D01*
X117461786Y-88008707D01*
X117350292Y-87897213D01*
X117350288Y-87897210D01*
X117219185Y-87809609D01*
X117219172Y-87809602D01*
X117073501Y-87749264D01*
X117073489Y-87749261D01*
X116918845Y-87718500D01*
X116918842Y-87718500D01*
X116761158Y-87718500D01*
X116761155Y-87718500D01*
X116606510Y-87749261D01*
X116606498Y-87749264D01*
X116460827Y-87809602D01*
X116460814Y-87809609D01*
X116329711Y-87897210D01*
X116329707Y-87897213D01*
X116218213Y-88008707D01*
X116218210Y-88008711D01*
X116130609Y-88139814D01*
X116130602Y-88139827D01*
X116070264Y-88285498D01*
X116070261Y-88285510D01*
X116039500Y-88440153D01*
X113792500Y-88440153D01*
X113792500Y-87424153D01*
X126072500Y-87424153D01*
X126072500Y-87581846D01*
X126103261Y-87736489D01*
X126103264Y-87736501D01*
X126163602Y-87882172D01*
X126163609Y-87882185D01*
X126251210Y-88013288D01*
X126251213Y-88013292D01*
X126362707Y-88124786D01*
X126362711Y-88124789D01*
X126493814Y-88212390D01*
X126493827Y-88212397D01*
X126625220Y-88266821D01*
X126639503Y-88272737D01*
X126794153Y-88303499D01*
X126794156Y-88303500D01*
X126794158Y-88303500D01*
X126951844Y-88303500D01*
X126951845Y-88303499D01*
X127106497Y-88272737D01*
X127252179Y-88212394D01*
X127383289Y-88124789D01*
X127494789Y-88013289D01*
X127582394Y-87882179D01*
X127584845Y-87876263D01*
X127615161Y-87803072D01*
X127642737Y-87736497D01*
X127673500Y-87581842D01*
X127673500Y-87424158D01*
X127673500Y-87424155D01*
X127673499Y-87424153D01*
X128104500Y-87424153D01*
X128104500Y-87581846D01*
X128135261Y-87736489D01*
X128135264Y-87736501D01*
X128195602Y-87882172D01*
X128195609Y-87882185D01*
X128283210Y-88013288D01*
X128283213Y-88013292D01*
X128394707Y-88124786D01*
X128394711Y-88124789D01*
X128525814Y-88212390D01*
X128525827Y-88212397D01*
X128657220Y-88266821D01*
X128671503Y-88272737D01*
X128826153Y-88303499D01*
X128826156Y-88303500D01*
X128826158Y-88303500D01*
X128983844Y-88303500D01*
X128983845Y-88303499D01*
X129138497Y-88272737D01*
X129284179Y-88212394D01*
X129415289Y-88124789D01*
X129526789Y-88013289D01*
X129614394Y-87882179D01*
X129616845Y-87876263D01*
X129647161Y-87803072D01*
X129674737Y-87736497D01*
X129705500Y-87581842D01*
X129705500Y-87424158D01*
X129705500Y-87424155D01*
X129705499Y-87424153D01*
X130517500Y-87424153D01*
X130517500Y-87581846D01*
X130548261Y-87736489D01*
X130548264Y-87736501D01*
X130608602Y-87882172D01*
X130608609Y-87882185D01*
X130696210Y-88013288D01*
X130696213Y-88013292D01*
X130807707Y-88124786D01*
X130807711Y-88124789D01*
X130938814Y-88212390D01*
X130938827Y-88212397D01*
X131070220Y-88266821D01*
X131084503Y-88272737D01*
X131239153Y-88303499D01*
X131239156Y-88303500D01*
X131239158Y-88303500D01*
X131396844Y-88303500D01*
X131396845Y-88303499D01*
X131551497Y-88272737D01*
X131697179Y-88212394D01*
X131828289Y-88124789D01*
X131939789Y-88013289D01*
X132027394Y-87882179D01*
X132029845Y-87876263D01*
X132060161Y-87803072D01*
X132087737Y-87736497D01*
X132118500Y-87581842D01*
X132118500Y-87551153D01*
X136359500Y-87551153D01*
X136359500Y-87708846D01*
X136390261Y-87863489D01*
X136390264Y-87863501D01*
X136450602Y-88009172D01*
X136450609Y-88009185D01*
X136538210Y-88140288D01*
X136538213Y-88140292D01*
X136649707Y-88251786D01*
X136649711Y-88251789D01*
X136780814Y-88339390D01*
X136780827Y-88339397D01*
X136926498Y-88399735D01*
X136926503Y-88399737D01*
X137081153Y-88430499D01*
X137081156Y-88430500D01*
X137081158Y-88430500D01*
X137238844Y-88430500D01*
X137238845Y-88430499D01*
X137393497Y-88399737D01*
X137539179Y-88339394D01*
X137670289Y-88251789D01*
X137781789Y-88140289D01*
X137869394Y-88009179D01*
X137899455Y-87936606D01*
X137929737Y-87863497D01*
X137930340Y-87861510D01*
X137930938Y-87860596D01*
X137932068Y-87857870D01*
X137932585Y-87858084D01*
X137968637Y-87803072D01*
X138032450Y-87774615D01*
X138101517Y-87785176D01*
X138153910Y-87831401D01*
X138167660Y-87861510D01*
X138168262Y-87863497D01*
X138228602Y-88009172D01*
X138228609Y-88009185D01*
X138316210Y-88140288D01*
X138316213Y-88140292D01*
X138427707Y-88251786D01*
X138427711Y-88251789D01*
X138558814Y-88339390D01*
X138558827Y-88339397D01*
X138704498Y-88399735D01*
X138704503Y-88399737D01*
X138859153Y-88430499D01*
X138859156Y-88430500D01*
X138859158Y-88430500D01*
X139016844Y-88430500D01*
X139016845Y-88430499D01*
X139171497Y-88399737D01*
X139317179Y-88339394D01*
X139356451Y-88313153D01*
X140423500Y-88313153D01*
X140423500Y-88470846D01*
X140454261Y-88625489D01*
X140454264Y-88625501D01*
X140514602Y-88771172D01*
X140514609Y-88771185D01*
X140602210Y-88902288D01*
X140602213Y-88902292D01*
X140713707Y-89013786D01*
X140713711Y-89013789D01*
X140844814Y-89101390D01*
X140844827Y-89101397D01*
X140990498Y-89161735D01*
X140990503Y-89161737D01*
X141145153Y-89192499D01*
X141145156Y-89192500D01*
X141145158Y-89192500D01*
X141302844Y-89192500D01*
X141302845Y-89192499D01*
X141457497Y-89161737D01*
X141603179Y-89101394D01*
X141734289Y-89013789D01*
X141845789Y-88902289D01*
X141933394Y-88771179D01*
X141935845Y-88765263D01*
X141993735Y-88625501D01*
X141993737Y-88625497D01*
X142024500Y-88470842D01*
X142024500Y-88313158D01*
X142024500Y-88313155D01*
X142024499Y-88313153D01*
X142015283Y-88266821D01*
X141993737Y-88158503D01*
X141938112Y-88024211D01*
X141933397Y-88012827D01*
X141933390Y-88012814D01*
X141845789Y-87881711D01*
X141845786Y-87881707D01*
X141734292Y-87770213D01*
X141734288Y-87770210D01*
X141603185Y-87682609D01*
X141603172Y-87682602D01*
X141457501Y-87622264D01*
X141457489Y-87622261D01*
X141302845Y-87591500D01*
X141302842Y-87591500D01*
X141145158Y-87591500D01*
X141145155Y-87591500D01*
X140990510Y-87622261D01*
X140990498Y-87622264D01*
X140844827Y-87682602D01*
X140844814Y-87682609D01*
X140713711Y-87770210D01*
X140713707Y-87770213D01*
X140602213Y-87881707D01*
X140602210Y-87881711D01*
X140514609Y-88012814D01*
X140514602Y-88012827D01*
X140454264Y-88158498D01*
X140454261Y-88158510D01*
X140423500Y-88313153D01*
X139356451Y-88313153D01*
X139448289Y-88251789D01*
X139448292Y-88251786D01*
X139480694Y-88219385D01*
X139559786Y-88140292D01*
X139559789Y-88140289D01*
X139647394Y-88009179D01*
X139707737Y-87863497D01*
X139738500Y-87708842D01*
X139738500Y-87551158D01*
X139738500Y-87551155D01*
X139738499Y-87551153D01*
X139730459Y-87510735D01*
X139707737Y-87396503D01*
X139693771Y-87362786D01*
X139647397Y-87250827D01*
X139647390Y-87250814D01*
X139559789Y-87119711D01*
X139559786Y-87119707D01*
X139448292Y-87008213D01*
X139448288Y-87008210D01*
X139317185Y-86920609D01*
X139317172Y-86920602D01*
X139171501Y-86860264D01*
X139171489Y-86860261D01*
X139016845Y-86829500D01*
X139016842Y-86829500D01*
X138859158Y-86829500D01*
X138859155Y-86829500D01*
X138704510Y-86860261D01*
X138704498Y-86860264D01*
X138558827Y-86920602D01*
X138558814Y-86920609D01*
X138427711Y-87008210D01*
X138427707Y-87008213D01*
X138316213Y-87119707D01*
X138316210Y-87119711D01*
X138228609Y-87250814D01*
X138228602Y-87250827D01*
X138168262Y-87396503D01*
X138167659Y-87398493D01*
X138167059Y-87399407D01*
X138165932Y-87402130D01*
X138165415Y-87401916D01*
X138129359Y-87456930D01*
X138065546Y-87485384D01*
X137996479Y-87474821D01*
X137944088Y-87428595D01*
X137930341Y-87398493D01*
X137929737Y-87396503D01*
X137869397Y-87250827D01*
X137869390Y-87250814D01*
X137781789Y-87119711D01*
X137781786Y-87119707D01*
X137670292Y-87008213D01*
X137670288Y-87008210D01*
X137539185Y-86920609D01*
X137539172Y-86920602D01*
X137393501Y-86860264D01*
X137393489Y-86860261D01*
X137238845Y-86829500D01*
X137238842Y-86829500D01*
X137081158Y-86829500D01*
X137081155Y-86829500D01*
X136926510Y-86860261D01*
X136926498Y-86860264D01*
X136780827Y-86920602D01*
X136780814Y-86920609D01*
X136649711Y-87008210D01*
X136649707Y-87008213D01*
X136538213Y-87119707D01*
X136538210Y-87119711D01*
X136450609Y-87250814D01*
X136450602Y-87250827D01*
X136390264Y-87396498D01*
X136390261Y-87396510D01*
X136359500Y-87551153D01*
X132118500Y-87551153D01*
X132118500Y-87424158D01*
X132118500Y-87424155D01*
X132118499Y-87424153D01*
X132087738Y-87269510D01*
X132087737Y-87269503D01*
X132042587Y-87160500D01*
X132027397Y-87123827D01*
X132027390Y-87123814D01*
X131939789Y-86992711D01*
X131939786Y-86992707D01*
X131828292Y-86881213D01*
X131828288Y-86881210D01*
X131697185Y-86793609D01*
X131697172Y-86793602D01*
X131551501Y-86733264D01*
X131551489Y-86733261D01*
X131396845Y-86702500D01*
X131396842Y-86702500D01*
X131239158Y-86702500D01*
X131239155Y-86702500D01*
X131084510Y-86733261D01*
X131084498Y-86733264D01*
X130938827Y-86793602D01*
X130938814Y-86793609D01*
X130807711Y-86881210D01*
X130807707Y-86881213D01*
X130696213Y-86992707D01*
X130696210Y-86992711D01*
X130608609Y-87123814D01*
X130608602Y-87123827D01*
X130548264Y-87269498D01*
X130548261Y-87269510D01*
X130517500Y-87424153D01*
X129705499Y-87424153D01*
X129674738Y-87269510D01*
X129674737Y-87269503D01*
X129629587Y-87160500D01*
X129614397Y-87123827D01*
X129614390Y-87123814D01*
X129526789Y-86992711D01*
X129526786Y-86992707D01*
X129415292Y-86881213D01*
X129415288Y-86881210D01*
X129284185Y-86793609D01*
X129284172Y-86793602D01*
X129138501Y-86733264D01*
X129138489Y-86733261D01*
X128983845Y-86702500D01*
X128983842Y-86702500D01*
X128826158Y-86702500D01*
X128826155Y-86702500D01*
X128671510Y-86733261D01*
X128671498Y-86733264D01*
X128525827Y-86793602D01*
X128525814Y-86793609D01*
X128394711Y-86881210D01*
X128394707Y-86881213D01*
X128283213Y-86992707D01*
X128283210Y-86992711D01*
X128195609Y-87123814D01*
X128195602Y-87123827D01*
X128135264Y-87269498D01*
X128135261Y-87269510D01*
X128104500Y-87424153D01*
X127673499Y-87424153D01*
X127642738Y-87269510D01*
X127642737Y-87269503D01*
X127597587Y-87160500D01*
X127582397Y-87123827D01*
X127582390Y-87123814D01*
X127494789Y-86992711D01*
X127494786Y-86992707D01*
X127383292Y-86881213D01*
X127383288Y-86881210D01*
X127252185Y-86793609D01*
X127252172Y-86793602D01*
X127106501Y-86733264D01*
X127106489Y-86733261D01*
X126951845Y-86702500D01*
X126951842Y-86702500D01*
X126794158Y-86702500D01*
X126794155Y-86702500D01*
X126639510Y-86733261D01*
X126639498Y-86733264D01*
X126493827Y-86793602D01*
X126493814Y-86793609D01*
X126362711Y-86881210D01*
X126362707Y-86881213D01*
X126251213Y-86992707D01*
X126251210Y-86992711D01*
X126163609Y-87123814D01*
X126163602Y-87123827D01*
X126103264Y-87269498D01*
X126103261Y-87269510D01*
X126072500Y-87424153D01*
X113792500Y-87424153D01*
X113792500Y-85886941D01*
X113812185Y-85819902D01*
X113864989Y-85774147D01*
X113934147Y-85764203D01*
X113997703Y-85793228D01*
X114004181Y-85799260D01*
X114043707Y-85838786D01*
X114043711Y-85838789D01*
X114174814Y-85926390D01*
X114174827Y-85926397D01*
X114320498Y-85986735D01*
X114320503Y-85986737D01*
X114475153Y-86017499D01*
X114475156Y-86017500D01*
X114475158Y-86017500D01*
X114632844Y-86017500D01*
X114632845Y-86017499D01*
X114787497Y-85986737D01*
X114933179Y-85926394D01*
X115064289Y-85838789D01*
X115175789Y-85727289D01*
X115263394Y-85596179D01*
X115323737Y-85450497D01*
X115354500Y-85295842D01*
X115354500Y-85138158D01*
X115354500Y-85138155D01*
X115354499Y-85138153D01*
X115345283Y-85091821D01*
X115323737Y-84983503D01*
X115271631Y-84857707D01*
X115263397Y-84837827D01*
X115263390Y-84837814D01*
X115175789Y-84706711D01*
X115175786Y-84706707D01*
X115064292Y-84595213D01*
X115064288Y-84595210D01*
X114933185Y-84507609D01*
X114933172Y-84507602D01*
X114787501Y-84447264D01*
X114787489Y-84447261D01*
X114632845Y-84416500D01*
X114632842Y-84416500D01*
X114475158Y-84416500D01*
X114475155Y-84416500D01*
X114320510Y-84447261D01*
X114320498Y-84447264D01*
X114174827Y-84507602D01*
X114174814Y-84507609D01*
X114043711Y-84595210D01*
X114043707Y-84595213D01*
X114004181Y-84634740D01*
X113942858Y-84668225D01*
X113873166Y-84663241D01*
X113817233Y-84621369D01*
X113792816Y-84555905D01*
X113792500Y-84547059D01*
X113792500Y-82425590D01*
X113812185Y-82358551D01*
X113864989Y-82312796D01*
X113934147Y-82302852D01*
X113940673Y-82303969D01*
X114011290Y-82318016D01*
X114094155Y-82334500D01*
X114094158Y-82334500D01*
X114251844Y-82334500D01*
X114251845Y-82334499D01*
X114406497Y-82303737D01*
X114552179Y-82243394D01*
X114683289Y-82155789D01*
X114726715Y-82112363D01*
X114788038Y-82078877D01*
X114857729Y-82083861D01*
X114913663Y-82125732D01*
X114928958Y-82152590D01*
X114987604Y-82294176D01*
X114987609Y-82294185D01*
X115075210Y-82425288D01*
X115075213Y-82425292D01*
X115186707Y-82536786D01*
X115186711Y-82536789D01*
X115317814Y-82624390D01*
X115317827Y-82624397D01*
X115449220Y-82678821D01*
X115463503Y-82684737D01*
X115618153Y-82715499D01*
X115618156Y-82715500D01*
X115618158Y-82715500D01*
X115775844Y-82715500D01*
X115775845Y-82715499D01*
X115930497Y-82684737D01*
X116076179Y-82624394D01*
X116207289Y-82536789D01*
X116318789Y-82425289D01*
X116406394Y-82294179D01*
X116408845Y-82288263D01*
X116463591Y-82156091D01*
X116466737Y-82148497D01*
X116497500Y-81993842D01*
X116497500Y-81836158D01*
X116497500Y-81836155D01*
X116497499Y-81836153D01*
X116485292Y-81774786D01*
X116466737Y-81681503D01*
X116420500Y-81569876D01*
X116406397Y-81535827D01*
X116406390Y-81535814D01*
X116318789Y-81404711D01*
X116318786Y-81404707D01*
X116232259Y-81318180D01*
X116198774Y-81256857D01*
X116203758Y-81187165D01*
X116245630Y-81131232D01*
X116311094Y-81106815D01*
X116319940Y-81106499D01*
X116467871Y-81106499D01*
X116467872Y-81106499D01*
X116527483Y-81100091D01*
X116662331Y-81049796D01*
X116777546Y-80963546D01*
X116863796Y-80848331D01*
X116912810Y-80716916D01*
X116954681Y-80660984D01*
X117020145Y-80636566D01*
X117088418Y-80651417D01*
X117116673Y-80672569D01*
X117230213Y-80786109D01*
X117402179Y-80911048D01*
X117402181Y-80911049D01*
X117402184Y-80911051D01*
X117591588Y-81007557D01*
X117793757Y-81073246D01*
X118003713Y-81106500D01*
X118003714Y-81106500D01*
X118216286Y-81106500D01*
X118216287Y-81106500D01*
X118426243Y-81073246D01*
X118544185Y-81034923D01*
X118614022Y-81032929D01*
X118673855Y-81069009D01*
X118704684Y-81131709D01*
X118706500Y-81152855D01*
X118706500Y-81231846D01*
X118737261Y-81386489D01*
X118737264Y-81386501D01*
X118797602Y-81532172D01*
X118797609Y-81532185D01*
X118885210Y-81663288D01*
X118885213Y-81663292D01*
X118996707Y-81774786D01*
X118996711Y-81774789D01*
X119127814Y-81862390D01*
X119127827Y-81862397D01*
X119273498Y-81922735D01*
X119273503Y-81922737D01*
X119428153Y-81953499D01*
X119428156Y-81953500D01*
X119428158Y-81953500D01*
X119585844Y-81953500D01*
X119585845Y-81953499D01*
X119740497Y-81922737D01*
X119886179Y-81862394D01*
X120017289Y-81774789D01*
X120128789Y-81663289D01*
X120216394Y-81532179D01*
X120276737Y-81386497D01*
X120307500Y-81231842D01*
X120307500Y-81214272D01*
X120327185Y-81147233D01*
X120379989Y-81101478D01*
X120449147Y-81091534D01*
X120450835Y-81091789D01*
X120543713Y-81106500D01*
X120543714Y-81106500D01*
X120756286Y-81106500D01*
X120756287Y-81106500D01*
X120966243Y-81073246D01*
X121168412Y-81007557D01*
X121357816Y-80911051D01*
X121444138Y-80848335D01*
X121529786Y-80786109D01*
X121529788Y-80786106D01*
X121529792Y-80786104D01*
X121680104Y-80635792D01*
X121680106Y-80635788D01*
X121680109Y-80635786D01*
X121803902Y-80465397D01*
X121805051Y-80463816D01*
X121809514Y-80455054D01*
X121857488Y-80404259D01*
X121925308Y-80387463D01*
X121991444Y-80409999D01*
X122030486Y-80455056D01*
X122034951Y-80463820D01*
X122159890Y-80635786D01*
X122310213Y-80786109D01*
X122482179Y-80911048D01*
X122482181Y-80911049D01*
X122482184Y-80911051D01*
X122671588Y-81007557D01*
X122873757Y-81073246D01*
X123083713Y-81106500D01*
X123083714Y-81106500D01*
X123296286Y-81106500D01*
X123296287Y-81106500D01*
X123506243Y-81073246D01*
X123708412Y-81007557D01*
X123897816Y-80911051D01*
X123984138Y-80848335D01*
X124069786Y-80786109D01*
X124069788Y-80786106D01*
X124069792Y-80786104D01*
X124220104Y-80635792D01*
X124220106Y-80635788D01*
X124220109Y-80635786D01*
X124343902Y-80465397D01*
X124345051Y-80463816D01*
X124349514Y-80455054D01*
X124397488Y-80404259D01*
X124465308Y-80387463D01*
X124531444Y-80409999D01*
X124570486Y-80455056D01*
X124574951Y-80463820D01*
X124699890Y-80635786D01*
X124699896Y-80635792D01*
X124850208Y-80786104D01*
X124938629Y-80850345D01*
X124981294Y-80905674D01*
X124987273Y-80975287D01*
X124980305Y-80998114D01*
X124960263Y-81046501D01*
X124960261Y-81046505D01*
X124929500Y-81201153D01*
X124929500Y-81358846D01*
X124960261Y-81513489D01*
X124960264Y-81513501D01*
X125020602Y-81659172D01*
X125020609Y-81659185D01*
X125108210Y-81790288D01*
X125108213Y-81790292D01*
X125219707Y-81901786D01*
X125219711Y-81901789D01*
X125350814Y-81989390D01*
X125350827Y-81989397D01*
X125488258Y-82046322D01*
X125515267Y-82068086D01*
X125542453Y-82089862D01*
X125542513Y-82090042D01*
X125542662Y-82090162D01*
X125553651Y-82123180D01*
X125564713Y-82156091D01*
X125564666Y-82156275D01*
X125564727Y-82156457D01*
X125556100Y-82190254D01*
X125547634Y-82223841D01*
X125547487Y-82224002D01*
X125547448Y-82224156D01*
X125525570Y-82251388D01*
X125519931Y-82256668D01*
X125485209Y-82281896D01*
X125370238Y-82396866D01*
X125368757Y-82398254D01*
X125339305Y-82413105D01*
X125310351Y-82428915D01*
X125308250Y-82428764D01*
X125306370Y-82429713D01*
X125273563Y-82426284D01*
X125240659Y-82423931D01*
X125238973Y-82422668D01*
X125236879Y-82422450D01*
X125211126Y-82401822D01*
X125184726Y-82382059D01*
X125183384Y-82379601D01*
X125182346Y-82378770D01*
X125181410Y-82375988D01*
X125167811Y-82351082D01*
X125118798Y-82219671D01*
X125118794Y-82219664D01*
X125032548Y-82104455D01*
X125032545Y-82104452D01*
X124917336Y-82018206D01*
X124917329Y-82018202D01*
X124782483Y-81967908D01*
X124782484Y-81967908D01*
X124722884Y-81961501D01*
X124722882Y-81961500D01*
X124722874Y-81961500D01*
X124722865Y-81961500D01*
X122927130Y-81961500D01*
X122927124Y-81961501D01*
X122867517Y-81967908D01*
X122732672Y-82018202D01*
X122732665Y-82018206D01*
X122617456Y-82104452D01*
X122617453Y-82104455D01*
X122531207Y-82219664D01*
X122531203Y-82219671D01*
X122480909Y-82354517D01*
X122474502Y-82414116D01*
X122474501Y-82414135D01*
X122474501Y-84182496D01*
X122454816Y-84249535D01*
X122402012Y-84295290D01*
X122332854Y-84305234D01*
X122326310Y-84304113D01*
X122252846Y-84289500D01*
X122252842Y-84289500D01*
X122095158Y-84289500D01*
X122095155Y-84289500D01*
X121940510Y-84320261D01*
X121940498Y-84320264D01*
X121794827Y-84380602D01*
X121794814Y-84380609D01*
X121663711Y-84468210D01*
X121663707Y-84468213D01*
X121552213Y-84579707D01*
X121552210Y-84579711D01*
X121464609Y-84710814D01*
X121464602Y-84710827D01*
X121404264Y-84856498D01*
X121404261Y-84856510D01*
X121373500Y-85011153D01*
X121373500Y-85168846D01*
X121404261Y-85323489D01*
X121404264Y-85323501D01*
X121464602Y-85469172D01*
X121464609Y-85469185D01*
X121552210Y-85600288D01*
X121552213Y-85600292D01*
X121663707Y-85711786D01*
X121663711Y-85711789D01*
X121794814Y-85799390D01*
X121794827Y-85799397D01*
X121917442Y-85850185D01*
X121940503Y-85859737D01*
X122033765Y-85878288D01*
X122095153Y-85890499D01*
X122095156Y-85890500D01*
X122095158Y-85890500D01*
X122252844Y-85890500D01*
X122252845Y-85890499D01*
X122407497Y-85859737D01*
X122553179Y-85799394D01*
X122684289Y-85711789D01*
X122795789Y-85600289D01*
X122883394Y-85469179D01*
X122884938Y-85465450D01*
X122928778Y-85411047D01*
X122995072Y-85388981D01*
X123062771Y-85406259D01*
X123110383Y-85457395D01*
X123114062Y-85465451D01*
X123115605Y-85469178D01*
X123115609Y-85469185D01*
X123203210Y-85600288D01*
X123203213Y-85600292D01*
X123314707Y-85711786D01*
X123314711Y-85711789D01*
X123445814Y-85799390D01*
X123445827Y-85799397D01*
X123568442Y-85850185D01*
X123591503Y-85859737D01*
X123684765Y-85878288D01*
X123746153Y-85890499D01*
X123746156Y-85890500D01*
X123746158Y-85890500D01*
X123903844Y-85890500D01*
X123903845Y-85890499D01*
X124058497Y-85859737D01*
X124204179Y-85799394D01*
X124335289Y-85711789D01*
X124446789Y-85600289D01*
X124534394Y-85469179D01*
X124594737Y-85323497D01*
X124625500Y-85168842D01*
X124625500Y-85011158D01*
X124625500Y-85011155D01*
X124625499Y-85011153D01*
X124615465Y-84960711D01*
X124594737Y-84856503D01*
X124594735Y-84856498D01*
X124585396Y-84833951D01*
X124577927Y-84764482D01*
X124609202Y-84702003D01*
X124669291Y-84666351D01*
X124699957Y-84662499D01*
X124722872Y-84662499D01*
X124722873Y-84662499D01*
X124782484Y-84656091D01*
X124917332Y-84605796D01*
X125032547Y-84519546D01*
X125118797Y-84404331D01*
X125167811Y-84272916D01*
X125187733Y-84246303D01*
X125206903Y-84219126D01*
X125208591Y-84218441D01*
X125209682Y-84216984D01*
X125240833Y-84205364D01*
X125271650Y-84192866D01*
X125273439Y-84193202D01*
X125275146Y-84192566D01*
X125307636Y-84199633D01*
X125340316Y-84205779D01*
X125342207Y-84207153D01*
X125343419Y-84207417D01*
X125369157Y-84226122D01*
X125370428Y-84227323D01*
X125485209Y-84342104D01*
X125514151Y-84363131D01*
X125519967Y-84368627D01*
X125533706Y-84392178D01*
X125550354Y-84413767D01*
X125551053Y-84421913D01*
X125555175Y-84428978D01*
X125554000Y-84456220D01*
X125556333Y-84483380D01*
X125552517Y-84490611D01*
X125552165Y-84498783D01*
X125536448Y-84521065D01*
X125523727Y-84545175D01*
X125522485Y-84546435D01*
X125489214Y-84579706D01*
X125489210Y-84579711D01*
X125401609Y-84710814D01*
X125401602Y-84710827D01*
X125341264Y-84856498D01*
X125341261Y-84856510D01*
X125310500Y-85011153D01*
X125310500Y-85168846D01*
X125341261Y-85323489D01*
X125341264Y-85323501D01*
X125401602Y-85469172D01*
X125401609Y-85469185D01*
X125489210Y-85600288D01*
X125489213Y-85600292D01*
X125600707Y-85711786D01*
X125600711Y-85711789D01*
X125731814Y-85799390D01*
X125731827Y-85799397D01*
X125854442Y-85850185D01*
X125877503Y-85859737D01*
X125970765Y-85878288D01*
X126032153Y-85890499D01*
X126032156Y-85890500D01*
X126032158Y-85890500D01*
X126189844Y-85890500D01*
X126189845Y-85890499D01*
X126344497Y-85859737D01*
X126490179Y-85799394D01*
X126621289Y-85711789D01*
X126732789Y-85600289D01*
X126820394Y-85469179D01*
X126880737Y-85323497D01*
X126911500Y-85168842D01*
X126911500Y-85011158D01*
X126911500Y-85011155D01*
X126911499Y-85011153D01*
X126901465Y-84960711D01*
X126880737Y-84856503D01*
X126880735Y-84856498D01*
X126824873Y-84721633D01*
X126817404Y-84652164D01*
X126848679Y-84589685D01*
X126883139Y-84563696D01*
X126883409Y-84563558D01*
X126883413Y-84563557D01*
X127072817Y-84467051D01*
X127100056Y-84447261D01*
X127244787Y-84342109D01*
X127244789Y-84342106D01*
X127244793Y-84342104D01*
X127395105Y-84191792D01*
X127395107Y-84191788D01*
X127395110Y-84191786D01*
X127520049Y-84019820D01*
X127520051Y-84019817D01*
X127520052Y-84019816D01*
X127524513Y-84011058D01*
X127572484Y-83960262D01*
X127640304Y-83943464D01*
X127706441Y-83965998D01*
X127745484Y-84011054D01*
X127749949Y-84019817D01*
X127874890Y-84191786D01*
X127887620Y-84204516D01*
X127921105Y-84265839D01*
X127916121Y-84335531D01*
X127874249Y-84391464D01*
X127868830Y-84395299D01*
X127759711Y-84468210D01*
X127759707Y-84468213D01*
X127648213Y-84579707D01*
X127648210Y-84579711D01*
X127560609Y-84710814D01*
X127560602Y-84710827D01*
X127500264Y-84856498D01*
X127500261Y-84856510D01*
X127469500Y-85011153D01*
X127469500Y-85168846D01*
X127500261Y-85323489D01*
X127500264Y-85323501D01*
X127560602Y-85469172D01*
X127560609Y-85469185D01*
X127648210Y-85600288D01*
X127648213Y-85600292D01*
X127759707Y-85711786D01*
X127759711Y-85711789D01*
X127890814Y-85799390D01*
X127890827Y-85799397D01*
X128013442Y-85850185D01*
X128036503Y-85859737D01*
X128129765Y-85878288D01*
X128191153Y-85890499D01*
X128191156Y-85890500D01*
X128191158Y-85890500D01*
X128348844Y-85890500D01*
X128348845Y-85890499D01*
X128503497Y-85859737D01*
X128649179Y-85799394D01*
X128780289Y-85711789D01*
X128891789Y-85600289D01*
X128979394Y-85469179D01*
X129039737Y-85323497D01*
X129070500Y-85168842D01*
X129070500Y-85011158D01*
X129070499Y-85011153D01*
X130009500Y-85011153D01*
X130009500Y-85168846D01*
X130040261Y-85323489D01*
X130040264Y-85323501D01*
X130100602Y-85469172D01*
X130100609Y-85469185D01*
X130188210Y-85600288D01*
X130188213Y-85600292D01*
X130299707Y-85711786D01*
X130299711Y-85711789D01*
X130430814Y-85799390D01*
X130430827Y-85799397D01*
X130553442Y-85850185D01*
X130576503Y-85859737D01*
X130669765Y-85878288D01*
X130731153Y-85890499D01*
X130731156Y-85890500D01*
X130731158Y-85890500D01*
X130888844Y-85890500D01*
X130888845Y-85890499D01*
X131043497Y-85859737D01*
X131189179Y-85799394D01*
X131320289Y-85711789D01*
X131431789Y-85600289D01*
X131519394Y-85469179D01*
X131579737Y-85323497D01*
X131610500Y-85168842D01*
X131610500Y-85011158D01*
X131610500Y-85011155D01*
X131610499Y-85011153D01*
X131600465Y-84960711D01*
X131579737Y-84856503D01*
X131534053Y-84746211D01*
X131519397Y-84710827D01*
X131519393Y-84710820D01*
X131516647Y-84706711D01*
X131465493Y-84630153D01*
X132549500Y-84630153D01*
X132549500Y-84787846D01*
X132580261Y-84942489D01*
X132580264Y-84942501D01*
X132640602Y-85088172D01*
X132640609Y-85088185D01*
X132728210Y-85219288D01*
X132728213Y-85219292D01*
X132839707Y-85330786D01*
X132839711Y-85330789D01*
X132970814Y-85418390D01*
X132970827Y-85418397D01*
X133116498Y-85478735D01*
X133116503Y-85478737D01*
X133271153Y-85509499D01*
X133271156Y-85509500D01*
X133271158Y-85509500D01*
X133428844Y-85509500D01*
X133428845Y-85509499D01*
X133583497Y-85478737D01*
X133729179Y-85418394D01*
X133768451Y-85392153D01*
X136359500Y-85392153D01*
X136359500Y-85549846D01*
X136390261Y-85704489D01*
X136390264Y-85704501D01*
X136450602Y-85850172D01*
X136450609Y-85850185D01*
X136538210Y-85981288D01*
X136538213Y-85981292D01*
X136649707Y-86092786D01*
X136649711Y-86092789D01*
X136780814Y-86180390D01*
X136780827Y-86180397D01*
X136890642Y-86225883D01*
X136926503Y-86240737D01*
X137081153Y-86271499D01*
X137081156Y-86271500D01*
X137081158Y-86271500D01*
X137238844Y-86271500D01*
X137238845Y-86271499D01*
X137393497Y-86240737D01*
X137539179Y-86180394D01*
X137670289Y-86092789D01*
X137781789Y-85981289D01*
X137869394Y-85850179D01*
X137915772Y-85738213D01*
X137929737Y-85704497D01*
X137930340Y-85702510D01*
X137930938Y-85701596D01*
X137932068Y-85698870D01*
X137932585Y-85699084D01*
X137968637Y-85644072D01*
X138032450Y-85615615D01*
X138101517Y-85626176D01*
X138153910Y-85672401D01*
X138167660Y-85702510D01*
X138168262Y-85704497D01*
X138228602Y-85850172D01*
X138228609Y-85850185D01*
X138316210Y-85981288D01*
X138316213Y-85981292D01*
X138427707Y-86092786D01*
X138427711Y-86092789D01*
X138558814Y-86180390D01*
X138558827Y-86180397D01*
X138668642Y-86225883D01*
X138704503Y-86240737D01*
X138859153Y-86271499D01*
X138859156Y-86271500D01*
X138859158Y-86271500D01*
X139016844Y-86271500D01*
X139016845Y-86271499D01*
X139171497Y-86240737D01*
X139317179Y-86180394D01*
X139448289Y-86092789D01*
X139559789Y-85981289D01*
X139647394Y-85850179D01*
X139707737Y-85704497D01*
X139719214Y-85646796D01*
X139751598Y-85584888D01*
X139812314Y-85550314D01*
X139882083Y-85554053D01*
X139938756Y-85594919D01*
X139955392Y-85623538D01*
X140006602Y-85747172D01*
X140006609Y-85747185D01*
X140094210Y-85878288D01*
X140094213Y-85878292D01*
X140205707Y-85989786D01*
X140205711Y-85989789D01*
X140336816Y-86077391D01*
X140336817Y-86077391D01*
X140336821Y-86077394D01*
X140360330Y-86087131D01*
X140414732Y-86130970D01*
X140436798Y-86197264D01*
X140434494Y-86225883D01*
X140423500Y-86281153D01*
X140423500Y-86438846D01*
X140454261Y-86593489D01*
X140454264Y-86593501D01*
X140514602Y-86739172D01*
X140514609Y-86739185D01*
X140602210Y-86870288D01*
X140602213Y-86870292D01*
X140713707Y-86981786D01*
X140713711Y-86981789D01*
X140844814Y-87069390D01*
X140844827Y-87069397D01*
X140976220Y-87123821D01*
X140990503Y-87129737D01*
X141145153Y-87160499D01*
X141145156Y-87160500D01*
X141145158Y-87160500D01*
X141302844Y-87160500D01*
X141302845Y-87160499D01*
X141457497Y-87129737D01*
X141603179Y-87069394D01*
X141734289Y-86981789D01*
X141845789Y-86870289D01*
X141933394Y-86739179D01*
X141935845Y-86733263D01*
X141965299Y-86662153D01*
X145884500Y-86662153D01*
X145884500Y-86819846D01*
X145915261Y-86974489D01*
X145915264Y-86974501D01*
X145975602Y-87120172D01*
X145975609Y-87120185D01*
X146063210Y-87251288D01*
X146063213Y-87251292D01*
X146174707Y-87362786D01*
X146174711Y-87362789D01*
X146305814Y-87450390D01*
X146305827Y-87450397D01*
X146451498Y-87510735D01*
X146451503Y-87510737D01*
X146606153Y-87541499D01*
X146606156Y-87541500D01*
X146606158Y-87541500D01*
X146763844Y-87541500D01*
X146763845Y-87541499D01*
X146918497Y-87510737D01*
X147064179Y-87450394D01*
X147195289Y-87362789D01*
X147306789Y-87251289D01*
X147394394Y-87120179D01*
X147454737Y-86974497D01*
X147485500Y-86819842D01*
X147485500Y-86662158D01*
X147485500Y-86662155D01*
X147485499Y-86662153D01*
X147474850Y-86608619D01*
X147454737Y-86507503D01*
X147426297Y-86438842D01*
X147394397Y-86361827D01*
X147394390Y-86361814D01*
X147306789Y-86230711D01*
X147306786Y-86230707D01*
X147195292Y-86119213D01*
X147195288Y-86119210D01*
X147064185Y-86031609D01*
X147064172Y-86031602D01*
X146918501Y-85971264D01*
X146918489Y-85971261D01*
X146763845Y-85940500D01*
X146763842Y-85940500D01*
X146606158Y-85940500D01*
X146606155Y-85940500D01*
X146451510Y-85971261D01*
X146451498Y-85971264D01*
X146305827Y-86031602D01*
X146305814Y-86031609D01*
X146174711Y-86119210D01*
X146174707Y-86119213D01*
X146063213Y-86230707D01*
X146063210Y-86230711D01*
X145975609Y-86361814D01*
X145975602Y-86361827D01*
X145915264Y-86507498D01*
X145915261Y-86507510D01*
X145884500Y-86662153D01*
X141965299Y-86662153D01*
X141987473Y-86608619D01*
X141987475Y-86608615D01*
X141987674Y-86608133D01*
X141993737Y-86593497D01*
X142024500Y-86438842D01*
X142024500Y-86281158D01*
X142024500Y-86281155D01*
X142024499Y-86281153D01*
X142014465Y-86230711D01*
X141993737Y-86126503D01*
X141973396Y-86077394D01*
X141933397Y-85980827D01*
X141933390Y-85980814D01*
X141845789Y-85849711D01*
X141845786Y-85849707D01*
X141734292Y-85738213D01*
X141734288Y-85738210D01*
X141603185Y-85650609D01*
X141603181Y-85650607D01*
X141603179Y-85650606D01*
X141579668Y-85640867D01*
X141525267Y-85597028D01*
X141503201Y-85530734D01*
X141505504Y-85502119D01*
X141516500Y-85446842D01*
X141516500Y-85289158D01*
X141516500Y-85289155D01*
X141516499Y-85289153D01*
X141506621Y-85239493D01*
X141485737Y-85134503D01*
X141466546Y-85088172D01*
X141425397Y-84988827D01*
X141425390Y-84988814D01*
X141337789Y-84857711D01*
X141337786Y-84857707D01*
X141226292Y-84746213D01*
X141226288Y-84746210D01*
X141095185Y-84658609D01*
X141095172Y-84658602D01*
X140949501Y-84598264D01*
X140949489Y-84598261D01*
X140794845Y-84567500D01*
X140794842Y-84567500D01*
X140637158Y-84567500D01*
X140637155Y-84567500D01*
X140482510Y-84598261D01*
X140482498Y-84598264D01*
X140336827Y-84658602D01*
X140336814Y-84658609D01*
X140205711Y-84746210D01*
X140205707Y-84746213D01*
X140094213Y-84857707D01*
X140094210Y-84857711D01*
X140006609Y-84988814D01*
X140006602Y-84988827D01*
X139946264Y-85134498D01*
X139946261Y-85134507D01*
X139934785Y-85192202D01*
X139902399Y-85254112D01*
X139841683Y-85288686D01*
X139771914Y-85284945D01*
X139715242Y-85244078D01*
X139698607Y-85215461D01*
X139647397Y-85091827D01*
X139647390Y-85091814D01*
X139559789Y-84960711D01*
X139559786Y-84960707D01*
X139448292Y-84849213D01*
X139448288Y-84849210D01*
X139317185Y-84761609D01*
X139317172Y-84761602D01*
X139171501Y-84701264D01*
X139171489Y-84701261D01*
X139016845Y-84670500D01*
X139016842Y-84670500D01*
X138859158Y-84670500D01*
X138859155Y-84670500D01*
X138704510Y-84701261D01*
X138704498Y-84701264D01*
X138558827Y-84761602D01*
X138558814Y-84761609D01*
X138427711Y-84849210D01*
X138427707Y-84849213D01*
X138316213Y-84960707D01*
X138316210Y-84960711D01*
X138228609Y-85091814D01*
X138228602Y-85091827D01*
X138168262Y-85237503D01*
X138167659Y-85239493D01*
X138167059Y-85240407D01*
X138165932Y-85243130D01*
X138165415Y-85242916D01*
X138129359Y-85297930D01*
X138065546Y-85326384D01*
X137996479Y-85315821D01*
X137944088Y-85269595D01*
X137930341Y-85239493D01*
X137929737Y-85237503D01*
X137869397Y-85091827D01*
X137869390Y-85091814D01*
X137781789Y-84960711D01*
X137781786Y-84960707D01*
X137670292Y-84849213D01*
X137670288Y-84849210D01*
X137539185Y-84761609D01*
X137539172Y-84761602D01*
X137393501Y-84701264D01*
X137393489Y-84701261D01*
X137238845Y-84670500D01*
X137238842Y-84670500D01*
X137081158Y-84670500D01*
X137081155Y-84670500D01*
X136926510Y-84701261D01*
X136926498Y-84701264D01*
X136780827Y-84761602D01*
X136780814Y-84761609D01*
X136649711Y-84849210D01*
X136649707Y-84849213D01*
X136538213Y-84960707D01*
X136538210Y-84960711D01*
X136450609Y-85091814D01*
X136450602Y-85091827D01*
X136390264Y-85237498D01*
X136390261Y-85237510D01*
X136359500Y-85392153D01*
X133768451Y-85392153D01*
X133860289Y-85330789D01*
X133875257Y-85315821D01*
X133892694Y-85298385D01*
X133971786Y-85219292D01*
X133971789Y-85219289D01*
X134059394Y-85088179D01*
X134119737Y-84942497D01*
X134150500Y-84787842D01*
X134150500Y-84630158D01*
X134150500Y-84630155D01*
X134150499Y-84630153D01*
X134143549Y-84595213D01*
X134119737Y-84475503D01*
X134100466Y-84428978D01*
X134059397Y-84329827D01*
X134059390Y-84329814D01*
X133971789Y-84198711D01*
X133971786Y-84198707D01*
X133860292Y-84087213D01*
X133860288Y-84087210D01*
X133729185Y-83999609D01*
X133729172Y-83999602D01*
X133583501Y-83939264D01*
X133583489Y-83939261D01*
X133428845Y-83908500D01*
X133428842Y-83908500D01*
X133271158Y-83908500D01*
X133271155Y-83908500D01*
X133116510Y-83939261D01*
X133116498Y-83939264D01*
X132970827Y-83999602D01*
X132970814Y-83999609D01*
X132839711Y-84087210D01*
X132839707Y-84087213D01*
X132728213Y-84198707D01*
X132728210Y-84198711D01*
X132640609Y-84329814D01*
X132640602Y-84329827D01*
X132580264Y-84475498D01*
X132580261Y-84475510D01*
X132549500Y-84630153D01*
X131465493Y-84630153D01*
X131431789Y-84579711D01*
X131431786Y-84579707D01*
X131320292Y-84468213D01*
X131320288Y-84468210D01*
X131189185Y-84380609D01*
X131189172Y-84380602D01*
X131043501Y-84320264D01*
X131043489Y-84320261D01*
X130888845Y-84289500D01*
X130888842Y-84289500D01*
X130731158Y-84289500D01*
X130731155Y-84289500D01*
X130576510Y-84320261D01*
X130576498Y-84320264D01*
X130430827Y-84380602D01*
X130430814Y-84380609D01*
X130299711Y-84468210D01*
X130299707Y-84468213D01*
X130188213Y-84579707D01*
X130188210Y-84579711D01*
X130100609Y-84710814D01*
X130100602Y-84710827D01*
X130040264Y-84856498D01*
X130040261Y-84856510D01*
X130009500Y-85011153D01*
X129070499Y-85011153D01*
X129039737Y-84856503D01*
X129019057Y-84806576D01*
X129016786Y-84797163D01*
X129018038Y-84771556D01*
X129015298Y-84746066D01*
X129019717Y-84737236D01*
X129020200Y-84727376D01*
X129035097Y-84706511D01*
X129046573Y-84683587D01*
X129055063Y-84678549D01*
X129060801Y-84670514D01*
X129084612Y-84661016D01*
X129106661Y-84647934D01*
X129117923Y-84645610D01*
X129221243Y-84629246D01*
X129423412Y-84563557D01*
X129612816Y-84467051D01*
X129640055Y-84447261D01*
X129784786Y-84342109D01*
X129784788Y-84342106D01*
X129784792Y-84342104D01*
X129935104Y-84191792D01*
X129935106Y-84191788D01*
X129935109Y-84191786D01*
X130060050Y-84019817D01*
X130064512Y-84011061D01*
X130138544Y-83865763D01*
X130186518Y-83814967D01*
X130254339Y-83798172D01*
X130317920Y-83818956D01*
X130430814Y-83894390D01*
X130430827Y-83894397D01*
X130549287Y-83943464D01*
X130576503Y-83954737D01*
X130731153Y-83985499D01*
X130731156Y-83985500D01*
X130731158Y-83985500D01*
X130888844Y-83985500D01*
X130888845Y-83985499D01*
X131043497Y-83954737D01*
X131189179Y-83894394D01*
X131320289Y-83806789D01*
X131431789Y-83695289D01*
X131519394Y-83564179D01*
X131579737Y-83418497D01*
X131610500Y-83263842D01*
X131610500Y-83106158D01*
X131610500Y-83106155D01*
X131610499Y-83106153D01*
X131588839Y-82997257D01*
X131585238Y-82979153D01*
X136359500Y-82979153D01*
X136359500Y-83136846D01*
X136390261Y-83291489D01*
X136390264Y-83291501D01*
X136450602Y-83437172D01*
X136450609Y-83437185D01*
X136538210Y-83568288D01*
X136538213Y-83568292D01*
X136649707Y-83679786D01*
X136649711Y-83679789D01*
X136780814Y-83767390D01*
X136780827Y-83767397D01*
X136926498Y-83827735D01*
X136926503Y-83827737D01*
X137081153Y-83858499D01*
X137081156Y-83858500D01*
X137081158Y-83858500D01*
X137238844Y-83858500D01*
X137238845Y-83858499D01*
X137393497Y-83827737D01*
X137539179Y-83767394D01*
X137670289Y-83679789D01*
X137781789Y-83568289D01*
X137869394Y-83437179D01*
X137929737Y-83291497D01*
X137960500Y-83136842D01*
X137960500Y-82979158D01*
X137960500Y-82979155D01*
X137960499Y-82979153D01*
X138899500Y-82979153D01*
X138899500Y-83136846D01*
X138930261Y-83291489D01*
X138930264Y-83291501D01*
X138990602Y-83437172D01*
X138990609Y-83437185D01*
X139078210Y-83568288D01*
X139078213Y-83568292D01*
X139189707Y-83679786D01*
X139189711Y-83679789D01*
X139320814Y-83767390D01*
X139320827Y-83767397D01*
X139466498Y-83827735D01*
X139466503Y-83827737D01*
X139621153Y-83858499D01*
X139621156Y-83858500D01*
X139621158Y-83858500D01*
X139778844Y-83858500D01*
X139778845Y-83858499D01*
X139933497Y-83827737D01*
X140079179Y-83767394D01*
X140210289Y-83679789D01*
X140321789Y-83568289D01*
X140409394Y-83437179D01*
X140469737Y-83291497D01*
X140500500Y-83136842D01*
X140500500Y-82979158D01*
X140500500Y-82979155D01*
X140500499Y-82979153D01*
X141439500Y-82979153D01*
X141439500Y-83136846D01*
X141470261Y-83291489D01*
X141470264Y-83291501D01*
X141530602Y-83437172D01*
X141530609Y-83437185D01*
X141618210Y-83568288D01*
X141618213Y-83568292D01*
X141729707Y-83679786D01*
X141729711Y-83679789D01*
X141860814Y-83767390D01*
X141860827Y-83767397D01*
X142006498Y-83827735D01*
X142006503Y-83827737D01*
X142161153Y-83858499D01*
X142161156Y-83858500D01*
X142161158Y-83858500D01*
X142318844Y-83858500D01*
X142318845Y-83858499D01*
X142473497Y-83827737D01*
X142619179Y-83767394D01*
X142750289Y-83679789D01*
X142861789Y-83568289D01*
X142949394Y-83437179D01*
X143009737Y-83291497D01*
X143040500Y-83136842D01*
X143040500Y-82979158D01*
X143040500Y-82979155D01*
X143040499Y-82979153D01*
X143034998Y-82951498D01*
X143009737Y-82824503D01*
X142964587Y-82715500D01*
X142949397Y-82678827D01*
X142949390Y-82678814D01*
X142861789Y-82547711D01*
X142861786Y-82547707D01*
X142750292Y-82436213D01*
X142750288Y-82436210D01*
X142619185Y-82348609D01*
X142619172Y-82348602D01*
X142473501Y-82288264D01*
X142473489Y-82288261D01*
X142318845Y-82257500D01*
X142318842Y-82257500D01*
X142161158Y-82257500D01*
X142161155Y-82257500D01*
X142006510Y-82288261D01*
X142006498Y-82288264D01*
X141860827Y-82348602D01*
X141860814Y-82348609D01*
X141729711Y-82436210D01*
X141729707Y-82436213D01*
X141618213Y-82547707D01*
X141618210Y-82547711D01*
X141530609Y-82678814D01*
X141530602Y-82678827D01*
X141470264Y-82824498D01*
X141470261Y-82824510D01*
X141439500Y-82979153D01*
X140500499Y-82979153D01*
X140494998Y-82951498D01*
X140469737Y-82824503D01*
X140424587Y-82715500D01*
X140409397Y-82678827D01*
X140409390Y-82678814D01*
X140321789Y-82547711D01*
X140321786Y-82547707D01*
X140210292Y-82436213D01*
X140210288Y-82436210D01*
X140079185Y-82348609D01*
X140079172Y-82348602D01*
X139933501Y-82288264D01*
X139933489Y-82288261D01*
X139778845Y-82257500D01*
X139778842Y-82257500D01*
X139621158Y-82257500D01*
X139621155Y-82257500D01*
X139466510Y-82288261D01*
X139466498Y-82288264D01*
X139320827Y-82348602D01*
X139320814Y-82348609D01*
X139189711Y-82436210D01*
X139189707Y-82436213D01*
X139078213Y-82547707D01*
X139078210Y-82547711D01*
X138990609Y-82678814D01*
X138990602Y-82678827D01*
X138930264Y-82824498D01*
X138930261Y-82824510D01*
X138899500Y-82979153D01*
X137960499Y-82979153D01*
X137954998Y-82951498D01*
X137929737Y-82824503D01*
X137884587Y-82715500D01*
X137869397Y-82678827D01*
X137869390Y-82678814D01*
X137781789Y-82547711D01*
X137781786Y-82547707D01*
X137670292Y-82436213D01*
X137670288Y-82436210D01*
X137539185Y-82348609D01*
X137539172Y-82348602D01*
X137393501Y-82288264D01*
X137393489Y-82288261D01*
X137238845Y-82257500D01*
X137238842Y-82257500D01*
X137081158Y-82257500D01*
X137081155Y-82257500D01*
X136926510Y-82288261D01*
X136926498Y-82288264D01*
X136780827Y-82348602D01*
X136780814Y-82348609D01*
X136649711Y-82436210D01*
X136649707Y-82436213D01*
X136538213Y-82547707D01*
X136538210Y-82547711D01*
X136450609Y-82678814D01*
X136450602Y-82678827D01*
X136390264Y-82824498D01*
X136390261Y-82824510D01*
X136359500Y-82979153D01*
X131585238Y-82979153D01*
X131579738Y-82951508D01*
X131579737Y-82951507D01*
X131579737Y-82951503D01*
X131579735Y-82951498D01*
X131519397Y-82805827D01*
X131519390Y-82805814D01*
X131431789Y-82674711D01*
X131431786Y-82674707D01*
X131320292Y-82563213D01*
X131320288Y-82563210D01*
X131189185Y-82475609D01*
X131189172Y-82475602D01*
X131043501Y-82415264D01*
X131043489Y-82415261D01*
X130888845Y-82384500D01*
X130888842Y-82384500D01*
X130731158Y-82384500D01*
X130731155Y-82384500D01*
X130576510Y-82415261D01*
X130576498Y-82415264D01*
X130430827Y-82475602D01*
X130430814Y-82475609D01*
X130299711Y-82563210D01*
X130299706Y-82563214D01*
X130246320Y-82616600D01*
X130184997Y-82650084D01*
X130115305Y-82645099D01*
X130059372Y-82603228D01*
X130058322Y-82601803D01*
X129935109Y-82432214D01*
X129935105Y-82432209D01*
X129784786Y-82281890D01*
X129612820Y-82156951D01*
X129423414Y-82060444D01*
X129423413Y-82060443D01*
X129423412Y-82060443D01*
X129221243Y-81994754D01*
X129221241Y-81994753D01*
X129221240Y-81994753D01*
X129059957Y-81969208D01*
X129011287Y-81961500D01*
X129009378Y-81961500D01*
X129008678Y-81961294D01*
X129006424Y-81961117D01*
X129006461Y-81960643D01*
X128942339Y-81941815D01*
X128896584Y-81889011D01*
X128886640Y-81819853D01*
X128906276Y-81768609D01*
X128979390Y-81659185D01*
X128979390Y-81659184D01*
X128979394Y-81659179D01*
X129039737Y-81513497D01*
X129070500Y-81358842D01*
X129070500Y-81201158D01*
X129070500Y-81201155D01*
X129070499Y-81201153D01*
X130009500Y-81201153D01*
X130009500Y-81358846D01*
X130040261Y-81513489D01*
X130040264Y-81513501D01*
X130100602Y-81659172D01*
X130100609Y-81659185D01*
X130188210Y-81790288D01*
X130188213Y-81790292D01*
X130299707Y-81901786D01*
X130299711Y-81901789D01*
X130430814Y-81989390D01*
X130430827Y-81989397D01*
X130563350Y-82044289D01*
X130576503Y-82049737D01*
X130722999Y-82078877D01*
X130731153Y-82080499D01*
X130731156Y-82080500D01*
X130731158Y-82080500D01*
X130888844Y-82080500D01*
X130888845Y-82080499D01*
X131043497Y-82049737D01*
X131178436Y-81993844D01*
X131189172Y-81989397D01*
X131189172Y-81989396D01*
X131189179Y-81989394D01*
X131320289Y-81901789D01*
X131431789Y-81790289D01*
X131519394Y-81659179D01*
X131579737Y-81513497D01*
X131610500Y-81358842D01*
X131610500Y-81201158D01*
X131610500Y-81201155D01*
X131610499Y-81201153D01*
X131600892Y-81152855D01*
X131579737Y-81046503D01*
X131563605Y-81007557D01*
X131519397Y-80900827D01*
X131519390Y-80900814D01*
X131431789Y-80769711D01*
X131431786Y-80769707D01*
X131320292Y-80658213D01*
X131320288Y-80658210D01*
X131189185Y-80570609D01*
X131189172Y-80570602D01*
X131043501Y-80510264D01*
X131043489Y-80510261D01*
X130888845Y-80479500D01*
X130888842Y-80479500D01*
X130731158Y-80479500D01*
X130731155Y-80479500D01*
X130576510Y-80510261D01*
X130576498Y-80510264D01*
X130430827Y-80570602D01*
X130430814Y-80570609D01*
X130299711Y-80658210D01*
X130299707Y-80658213D01*
X130188213Y-80769707D01*
X130188210Y-80769711D01*
X130100609Y-80900814D01*
X130100602Y-80900827D01*
X130040264Y-81046498D01*
X130040261Y-81046510D01*
X130009500Y-81201153D01*
X129070499Y-81201153D01*
X129060892Y-81152855D01*
X129039737Y-81046503D01*
X129019693Y-80998114D01*
X129012225Y-80928647D01*
X129043500Y-80866168D01*
X129061364Y-80850349D01*
X129149792Y-80786104D01*
X129300104Y-80635792D01*
X129300106Y-80635788D01*
X129300109Y-80635786D01*
X129423902Y-80465397D01*
X129425051Y-80463816D01*
X129521557Y-80274412D01*
X129587246Y-80072243D01*
X129620500Y-79862287D01*
X129620500Y-79649713D01*
X131999500Y-79649713D01*
X131999500Y-79862287D01*
X132032754Y-80072243D01*
X132095803Y-80266288D01*
X132098444Y-80274414D01*
X132194951Y-80463820D01*
X132319890Y-80635786D01*
X132470213Y-80786109D01*
X132642179Y-80911048D01*
X132642181Y-80911049D01*
X132642184Y-80911051D01*
X132831588Y-81007557D01*
X133033757Y-81073246D01*
X133243713Y-81106500D01*
X133243714Y-81106500D01*
X133456286Y-81106500D01*
X133456287Y-81106500D01*
X133666243Y-81073246D01*
X133868412Y-81007557D01*
X134057816Y-80911051D01*
X134144138Y-80848335D01*
X134229786Y-80786109D01*
X134229788Y-80786106D01*
X134229792Y-80786104D01*
X134380104Y-80635792D01*
X134380106Y-80635788D01*
X134380109Y-80635786D01*
X134503902Y-80465397D01*
X134505051Y-80463816D01*
X134509795Y-80454504D01*
X134557767Y-80403708D01*
X134625587Y-80386911D01*
X134691723Y-80409446D01*
X134730766Y-80454503D01*
X134735374Y-80463547D01*
X134774729Y-80517716D01*
X135407038Y-79885408D01*
X135424076Y-79948993D01*
X135489902Y-80063007D01*
X135582994Y-80156099D01*
X135697008Y-80221925D01*
X135760591Y-80238962D01*
X135128283Y-80871269D01*
X135128283Y-80871270D01*
X135182450Y-80910624D01*
X135371783Y-81007095D01*
X135573871Y-81072757D01*
X135783755Y-81106000D01*
X135996247Y-81106000D01*
X136206128Y-81072757D01*
X136206131Y-81072757D01*
X136408218Y-81007095D01*
X136597555Y-80910622D01*
X136651717Y-80871270D01*
X136651718Y-80871270D01*
X136019409Y-80238962D01*
X136082994Y-80221925D01*
X136197008Y-80156099D01*
X136290100Y-80063007D01*
X136355926Y-79948993D01*
X136372963Y-79885409D01*
X137005271Y-80517717D01*
X137005271Y-80517716D01*
X137044624Y-80463553D01*
X137049231Y-80454511D01*
X137097202Y-80403712D01*
X137165022Y-80386912D01*
X137231158Y-80409446D01*
X137270202Y-80454501D01*
X137274949Y-80463817D01*
X137399890Y-80635786D01*
X137550213Y-80786109D01*
X137722179Y-80911048D01*
X137722181Y-80911049D01*
X137722184Y-80911051D01*
X137911588Y-81007557D01*
X138113757Y-81073246D01*
X138323713Y-81106500D01*
X138323714Y-81106500D01*
X138536286Y-81106500D01*
X138536287Y-81106500D01*
X138746243Y-81073246D01*
X138948412Y-81007557D01*
X139137816Y-80911051D01*
X139309792Y-80786104D01*
X139423329Y-80672566D01*
X139484648Y-80639084D01*
X139554340Y-80644068D01*
X139610274Y-80685939D01*
X139627189Y-80716917D01*
X139676202Y-80848328D01*
X139676206Y-80848335D01*
X139762452Y-80963544D01*
X139762455Y-80963547D01*
X139877664Y-81049793D01*
X139877671Y-81049797D01*
X140012517Y-81100091D01*
X140012516Y-81100091D01*
X140019444Y-81100835D01*
X140072127Y-81106500D01*
X141867872Y-81106499D01*
X141927483Y-81100091D01*
X142062331Y-81049796D01*
X142177546Y-80963546D01*
X142263796Y-80848331D01*
X142314091Y-80713483D01*
X142320500Y-80653873D01*
X142320499Y-80630958D01*
X142340181Y-80563922D01*
X142392983Y-80518165D01*
X142462141Y-80508218D01*
X142491951Y-80516396D01*
X142496222Y-80518165D01*
X142514503Y-80525737D01*
X142669153Y-80556499D01*
X142669156Y-80556500D01*
X142669158Y-80556500D01*
X142826844Y-80556500D01*
X142826845Y-80556499D01*
X142981497Y-80525737D01*
X143127179Y-80465394D01*
X143258289Y-80377789D01*
X143369789Y-80266289D01*
X143457394Y-80135179D01*
X143517737Y-79989497D01*
X143548500Y-79834842D01*
X143548500Y-79677158D01*
X143543041Y-79649713D01*
X144699500Y-79649713D01*
X144699500Y-79862287D01*
X144732754Y-80072243D01*
X144795803Y-80266288D01*
X144798444Y-80274414D01*
X144894951Y-80463820D01*
X145019890Y-80635786D01*
X145170213Y-80786109D01*
X145342179Y-80911048D01*
X145342181Y-80911049D01*
X145342184Y-80911051D01*
X145531588Y-81007557D01*
X145733757Y-81073246D01*
X145943713Y-81106500D01*
X145943714Y-81106500D01*
X146156286Y-81106500D01*
X146156287Y-81106500D01*
X146366243Y-81073246D01*
X146568412Y-81007557D01*
X146757816Y-80911051D01*
X146844138Y-80848335D01*
X146929786Y-80786109D01*
X146929788Y-80786106D01*
X146929792Y-80786104D01*
X147080104Y-80635792D01*
X147080106Y-80635788D01*
X147080109Y-80635786D01*
X147203902Y-80465397D01*
X147205051Y-80463816D01*
X147301557Y-80274412D01*
X147367246Y-80072243D01*
X147400500Y-79862287D01*
X147400500Y-79649713D01*
X147367246Y-79439757D01*
X147301557Y-79237588D01*
X147205051Y-79048184D01*
X147205049Y-79048181D01*
X147205048Y-79048179D01*
X147080109Y-78876213D01*
X146929786Y-78725890D01*
X146757820Y-78600951D01*
X146568414Y-78504444D01*
X146568413Y-78504443D01*
X146568412Y-78504443D01*
X146366243Y-78438754D01*
X146366241Y-78438753D01*
X146366240Y-78438753D01*
X146204957Y-78413208D01*
X146156287Y-78405500D01*
X145943713Y-78405500D01*
X145895042Y-78413208D01*
X145733760Y-78438753D01*
X145531585Y-78504444D01*
X145342179Y-78600951D01*
X145170213Y-78725890D01*
X145019890Y-78876213D01*
X144894951Y-79048179D01*
X144798444Y-79237585D01*
X144732753Y-79439760D01*
X144731291Y-79448993D01*
X144699500Y-79649713D01*
X143543041Y-79649713D01*
X143517737Y-79522503D01*
X143517735Y-79522498D01*
X143457397Y-79376827D01*
X143457390Y-79376814D01*
X143369789Y-79245711D01*
X143369786Y-79245707D01*
X143258292Y-79134213D01*
X143258288Y-79134210D01*
X143127185Y-79046609D01*
X143127172Y-79046602D01*
X142981501Y-78986264D01*
X142981489Y-78986261D01*
X142826845Y-78955500D01*
X142826842Y-78955500D01*
X142669158Y-78955500D01*
X142669155Y-78955500D01*
X142514510Y-78986261D01*
X142514498Y-78986264D01*
X142491951Y-78995604D01*
X142422482Y-79003073D01*
X142360003Y-78971798D01*
X142324351Y-78911709D01*
X142320499Y-78881043D01*
X142320499Y-78858129D01*
X142320498Y-78858123D01*
X142320497Y-78858116D01*
X142314091Y-78798517D01*
X142312810Y-78795083D01*
X142263797Y-78663671D01*
X142263793Y-78663664D01*
X142177547Y-78548455D01*
X142177544Y-78548452D01*
X142062335Y-78462206D01*
X142062328Y-78462202D01*
X141927482Y-78411908D01*
X141927483Y-78411908D01*
X141867883Y-78405501D01*
X141867881Y-78405500D01*
X141867873Y-78405500D01*
X141867864Y-78405500D01*
X140072129Y-78405500D01*
X140072123Y-78405501D01*
X140012516Y-78411908D01*
X139877671Y-78462202D01*
X139877664Y-78462206D01*
X139762455Y-78548452D01*
X139762452Y-78548455D01*
X139676206Y-78663664D01*
X139676203Y-78663669D01*
X139627189Y-78795083D01*
X139585317Y-78851016D01*
X139519853Y-78875433D01*
X139451580Y-78860581D01*
X139423326Y-78839430D01*
X139309786Y-78725890D01*
X139137820Y-78600951D01*
X138948414Y-78504444D01*
X138948413Y-78504443D01*
X138948412Y-78504443D01*
X138746243Y-78438754D01*
X138746241Y-78438753D01*
X138746240Y-78438753D01*
X138584957Y-78413208D01*
X138536287Y-78405500D01*
X138323713Y-78405500D01*
X138275042Y-78413208D01*
X138113760Y-78438753D01*
X137911585Y-78504444D01*
X137722179Y-78600951D01*
X137550213Y-78725890D01*
X137399890Y-78876213D01*
X137274950Y-79048181D01*
X137270201Y-79057501D01*
X137222223Y-79108294D01*
X137154402Y-79125086D01*
X137088268Y-79102545D01*
X137049232Y-79057491D01*
X137044625Y-79048449D01*
X137005271Y-78994282D01*
X137005270Y-78994282D01*
X136372963Y-79626590D01*
X136355926Y-79563007D01*
X136290100Y-79448993D01*
X136197008Y-79355901D01*
X136082994Y-79290075D01*
X136019410Y-79273037D01*
X136651717Y-78640728D01*
X136597551Y-78601375D01*
X136408218Y-78504904D01*
X136206130Y-78439242D01*
X135996247Y-78406000D01*
X135783755Y-78406000D01*
X135573873Y-78439242D01*
X135573870Y-78439242D01*
X135371783Y-78504904D01*
X135182440Y-78601380D01*
X135128283Y-78640727D01*
X135128283Y-78640728D01*
X135760592Y-79273037D01*
X135697008Y-79290075D01*
X135582994Y-79355901D01*
X135489902Y-79448993D01*
X135424076Y-79563007D01*
X135407038Y-79626591D01*
X134774729Y-78994282D01*
X134774728Y-78994282D01*
X134735381Y-79048440D01*
X134730763Y-79057503D01*
X134682785Y-79108296D01*
X134614964Y-79125088D01*
X134548830Y-79102547D01*
X134509796Y-79057496D01*
X134505050Y-79048182D01*
X134380109Y-78876213D01*
X134229786Y-78725890D01*
X134057820Y-78600951D01*
X133868414Y-78504444D01*
X133868413Y-78504443D01*
X133868412Y-78504443D01*
X133666243Y-78438754D01*
X133666241Y-78438753D01*
X133666240Y-78438753D01*
X133504957Y-78413208D01*
X133456287Y-78405500D01*
X133243713Y-78405500D01*
X133195042Y-78413208D01*
X133033760Y-78438753D01*
X132831585Y-78504444D01*
X132642179Y-78600951D01*
X132470213Y-78725890D01*
X132319890Y-78876213D01*
X132194951Y-79048179D01*
X132098444Y-79237585D01*
X132032753Y-79439760D01*
X132031291Y-79448993D01*
X131999500Y-79649713D01*
X129620500Y-79649713D01*
X129587246Y-79439757D01*
X129521557Y-79237588D01*
X129425051Y-79048184D01*
X129425049Y-79048181D01*
X129425048Y-79048179D01*
X129300109Y-78876213D01*
X129149786Y-78725890D01*
X128977820Y-78600951D01*
X128788414Y-78504444D01*
X128788413Y-78504443D01*
X128788412Y-78504443D01*
X128586243Y-78438754D01*
X128586241Y-78438753D01*
X128586240Y-78438753D01*
X128424957Y-78413208D01*
X128376287Y-78405500D01*
X128163713Y-78405500D01*
X128115042Y-78413208D01*
X127953760Y-78438753D01*
X127751585Y-78504444D01*
X127562179Y-78600951D01*
X127390213Y-78725890D01*
X127239890Y-78876213D01*
X127114949Y-79048182D01*
X127110484Y-79056946D01*
X127062509Y-79107742D01*
X126994688Y-79124536D01*
X126928553Y-79101998D01*
X126889516Y-79056946D01*
X126885050Y-79048182D01*
X126760109Y-78876213D01*
X126609786Y-78725890D01*
X126437820Y-78600951D01*
X126248414Y-78504444D01*
X126248413Y-78504443D01*
X126248412Y-78504443D01*
X126046243Y-78438754D01*
X126046241Y-78438753D01*
X126046240Y-78438753D01*
X125884957Y-78413208D01*
X125836287Y-78405500D01*
X125623713Y-78405500D01*
X125575042Y-78413208D01*
X125413760Y-78438753D01*
X125413757Y-78438754D01*
X125260932Y-78488410D01*
X125191092Y-78490405D01*
X125131259Y-78454325D01*
X125100431Y-78391624D01*
X125103318Y-78344823D01*
X125101549Y-78344472D01*
X125133499Y-78183846D01*
X125133500Y-78183844D01*
X125133500Y-78026155D01*
X125133499Y-78026153D01*
X125107947Y-77897691D01*
X125114174Y-77828100D01*
X125157037Y-77772922D01*
X125222927Y-77749678D01*
X125229564Y-77749500D01*
X130421436Y-77749500D01*
X130488475Y-77769185D01*
G37*
%TD.AperFunction*%
%TD*%
M02*
