%TF.GenerationSoftware,KiCad,Pcbnew,9.0.7*%
%TF.CreationDate,2026-01-03T11:49:46-05:00*%
%TF.ProjectId,T41-RF-board-Attenuator-daughterboard,5434312d-5246-42d6-926f-6172642d4174,rev?*%
%TF.SameCoordinates,Original*%
%TF.FileFunction,Copper,L1,Top*%
%TF.FilePolarity,Positive*%
%FSLAX46Y46*%
G04 Gerber Fmt 4.6, Leading zero omitted, Abs format (unit mm)*
G04 Created by KiCad (PCBNEW 9.0.7) date 2026-01-03 11:49:46*
%MOMM*%
%LPD*%
G01*
G04 APERTURE LIST*
G04 Aperture macros list*
%AMRoundRect*
0 Rectangle with rounded corners*
0 $1 Rounding radius*
0 $2 $3 $4 $5 $6 $7 $8 $9 X,Y pos of 4 corners*
0 Add a 4 corners polygon primitive as box body*
4,1,4,$2,$3,$4,$5,$6,$7,$8,$9,$2,$3,0*
0 Add four circle primitives for the rounded corners*
1,1,$1+$1,$2,$3*
1,1,$1+$1,$4,$5*
1,1,$1+$1,$6,$7*
1,1,$1+$1,$8,$9*
0 Add four rect primitives between the rounded corners*
20,1,$1+$1,$2,$3,$4,$5,0*
20,1,$1+$1,$4,$5,$6,$7,0*
20,1,$1+$1,$6,$7,$8,$9,0*
20,1,$1+$1,$8,$9,$2,$3,0*%
G04 Aperture macros list end*
%TA.AperFunction,SMDPad,CuDef*%
%ADD10RoundRect,0.200000X0.275000X-0.200000X0.275000X0.200000X-0.275000X0.200000X-0.275000X-0.200000X0*%
%TD*%
%TA.AperFunction,ComponentPad*%
%ADD11R,1.700000X1.700000*%
%TD*%
%TA.AperFunction,ComponentPad*%
%ADD12C,1.700000*%
%TD*%
%TA.AperFunction,SMDPad,CuDef*%
%ADD13RoundRect,0.200000X-0.275000X0.200000X-0.275000X-0.200000X0.275000X-0.200000X0.275000X0.200000X0*%
%TD*%
%TA.AperFunction,SMDPad,CuDef*%
%ADD14RoundRect,0.062500X-0.337500X-0.062500X0.337500X-0.062500X0.337500X0.062500X-0.337500X0.062500X0*%
%TD*%
%TA.AperFunction,SMDPad,CuDef*%
%ADD15RoundRect,0.062500X-0.062500X-0.337500X0.062500X-0.337500X0.062500X0.337500X-0.062500X0.337500X0*%
%TD*%
%TA.AperFunction,SMDPad,CuDef*%
%ADD16R,2.200000X2.200000*%
%TD*%
%TA.AperFunction,SMDPad,CuDef*%
%ADD17RoundRect,0.225000X0.250000X-0.225000X0.250000X0.225000X-0.250000X0.225000X-0.250000X-0.225000X0*%
%TD*%
%TA.AperFunction,ViaPad*%
%ADD18C,0.600000*%
%TD*%
%TA.AperFunction,Conductor*%
%ADD19C,0.500000*%
%TD*%
%TA.AperFunction,Conductor*%
%ADD20C,0.200000*%
%TD*%
%TA.AperFunction,Conductor*%
%ADD21C,0.150000*%
%TD*%
G04 APERTURE END LIST*
D10*
%TO.P,L1,1,1*%
%TO.N,+3V3*%
X87503000Y-71945000D03*
%TO.P,L1,2,2*%
%TO.N,Net-(U1-LE)*%
X87503000Y-70295000D03*
%TD*%
D11*
%TO.P,J1,1,Pin_1*%
%TO.N,/TC0.5*%
X83820000Y-63500000D03*
D12*
%TO.P,J1,2,Pin_2*%
%TO.N,Net-(J1-Pin_2)*%
X83820000Y-66040000D03*
%TO.P,J1,3,Pin_3*%
%TO.N,GND*%
X83820000Y-68580000D03*
%TO.P,J1,4,Pin_4*%
%TO.N,+3V3*%
X83820000Y-71120000D03*
%TO.P,J1,5,Pin_5*%
%TO.N,GND*%
X83820000Y-73660000D03*
%TO.P,J1,6,Pin_6*%
%TO.N,/TC16*%
X83820000Y-76200000D03*
%TD*%
D11*
%TO.P,J2,1,Pin_1*%
%TO.N,/TC1*%
X93980000Y-63500000D03*
D12*
%TO.P,J2,2,Pin_2*%
%TO.N,/TC2*%
X93980000Y-66040000D03*
%TO.P,J2,3,Pin_3*%
%TO.N,/TC4*%
X93980000Y-68579999D03*
%TO.P,J2,4,Pin_4*%
%TO.N,/TC8*%
X93980000Y-71120000D03*
%TO.P,J2,5,Pin_5*%
%TO.N,Net-(J2-Pin_5)*%
X93980000Y-73660000D03*
%TO.P,J2,6,Pin_6*%
%TO.N,GND*%
X93980000Y-76200000D03*
%TD*%
D13*
%TO.P,R2,1*%
%TO.N,Net-(U1-C16)*%
X88265000Y-74486000D03*
%TO.P,R2,2*%
%TO.N,/TC16*%
X88265000Y-76136000D03*
%TD*%
D14*
%TO.P,U1,1,C16*%
%TO.N,Net-(U1-C16)*%
X86966000Y-65466000D03*
%TO.P,U1,2,RF1*%
%TO.N,Net-(J1-Pin_2)*%
X86966000Y-65966000D03*
%TO.P,U1,3,Data*%
%TO.N,Net-(U1-Data)*%
X86966000Y-66466000D03*
%TO.P,U1,4,Clock*%
%TO.N,unconnected-(U1-Clock-Pad4)*%
X86966000Y-66966000D03*
%TO.P,U1,5,LE*%
%TO.N,Net-(U1-LE)*%
X86966000Y-67466000D03*
D15*
%TO.P,U1,6,VDD*%
X87916000Y-68416000D03*
%TO.P,U1,7,PUP1*%
%TO.N,GND*%
X88416000Y-68416000D03*
%TO.P,U1,8,PUP2*%
X88916000Y-68416000D03*
%TO.P,U1,9,VDD*%
%TO.N,Net-(U1-LE)*%
X89416000Y-68416000D03*
%TO.P,U1,10,GND*%
%TO.N,GND*%
X89916000Y-68416000D03*
D14*
%TO.P,U1,11,GND*%
X90866000Y-67466000D03*
%TO.P,U1,12,VSS*%
X90866000Y-66966000D03*
%TO.P,U1,13,P/S*%
X90866000Y-66466000D03*
%TO.P,U1,14,RF2*%
%TO.N,Net-(J2-Pin_5)*%
X90866000Y-65966000D03*
%TO.P,U1,15,C8*%
%TO.N,/TC8*%
X90866000Y-65466000D03*
D15*
%TO.P,U1,16,C4*%
%TO.N,/TC4*%
X89916000Y-64516000D03*
%TO.P,U1,17,C2*%
%TO.N,/TC2*%
X89416000Y-64516000D03*
%TO.P,U1,18,GND*%
%TO.N,GND*%
X88916000Y-64516000D03*
%TO.P,U1,19,C1*%
%TO.N,/TC1*%
X88416000Y-64516000D03*
%TO.P,U1,20,C0.5*%
%TO.N,/TC0.5*%
X87916000Y-64516000D03*
D16*
%TO.P,U1,21,GND*%
%TO.N,GND*%
X88916000Y-66466000D03*
%TD*%
D17*
%TO.P,C2,1*%
%TO.N,GND*%
X89027000Y-71895000D03*
%TO.P,C2,2*%
%TO.N,Net-(U1-LE)*%
X89027000Y-70345000D03*
%TD*%
%TO.P,C1,1*%
%TO.N,GND*%
X90551000Y-71895000D03*
%TO.P,C1,2*%
%TO.N,Net-(U1-LE)*%
X90551000Y-70345000D03*
%TD*%
D10*
%TO.P,R1,1*%
%TO.N,GND*%
X89789000Y-76136000D03*
%TO.P,R1,2*%
%TO.N,Net-(U1-Data)*%
X89789000Y-74486000D03*
%TD*%
D18*
%TO.N,GND*%
X91846400Y-72085200D03*
X95300800Y-72440800D03*
X85471000Y-77063600D03*
X85648800Y-62280800D03*
X89916000Y-76962000D03*
X95300800Y-62128400D03*
X91186000Y-75234800D03*
X89036171Y-63023300D03*
X86360000Y-64100000D03*
X90932000Y-64008000D03*
X86664800Y-68986400D03*
X95351600Y-67259200D03*
X89789000Y-72517000D03*
X82397600Y-75133200D03*
X90932000Y-68580000D03*
X82397600Y-62128400D03*
X88637393Y-69252771D03*
%TD*%
D19*
%TO.N,+3V3*%
X86678000Y-71120000D02*
X87503000Y-71945000D01*
X83820000Y-71120000D02*
X86678000Y-71120000D01*
D20*
%TO.N,GND*%
X90866000Y-67466000D02*
X90866000Y-68514000D01*
X88916000Y-68974164D02*
X88637393Y-69252771D01*
X90411000Y-71895000D02*
X89789000Y-72517000D01*
X88916000Y-66466000D02*
X86550000Y-64100000D01*
X88916000Y-66466000D02*
X90932000Y-64450000D01*
X86550000Y-64100000D02*
X86360000Y-64100000D01*
X89789000Y-76835000D02*
X89916000Y-76962000D01*
X88916000Y-64516000D02*
X88916000Y-63143471D01*
X90866000Y-66466000D02*
X90866000Y-67466000D01*
X89027000Y-71895000D02*
X89167000Y-71895000D01*
X88916000Y-63143471D02*
X89036171Y-63023300D01*
X88416000Y-69031378D02*
X88637393Y-69252771D01*
X90768000Y-68416000D02*
X90932000Y-68580000D01*
X89789000Y-76136000D02*
X89789000Y-76835000D01*
X90866000Y-68514000D02*
X90932000Y-68580000D01*
X88416000Y-68416000D02*
X88416000Y-69031378D01*
X89167000Y-71895000D02*
X89789000Y-72517000D01*
X90932000Y-64450000D02*
X90932000Y-64008000D01*
X88916000Y-66564000D02*
X90932000Y-68580000D01*
X90551000Y-71895000D02*
X90411000Y-71895000D01*
X90866000Y-66466000D02*
X90866000Y-68514000D01*
X88916000Y-66466000D02*
X88916000Y-66564000D01*
X88916000Y-68416000D02*
X88916000Y-68974164D01*
X89027000Y-71895000D02*
X90551000Y-71895000D01*
X89916000Y-68416000D02*
X90768000Y-68416000D01*
%TO.N,/TC8*%
X90866000Y-65466000D02*
X91348898Y-65466000D01*
X92456000Y-69596000D02*
X93980000Y-71120000D01*
X92095000Y-66695000D02*
X92456000Y-67056000D01*
X91348898Y-65466000D02*
X92095000Y-66212102D01*
X92456000Y-67056000D02*
X92456000Y-69596000D01*
X92095000Y-66212102D02*
X92095000Y-66695000D01*
%TO.N,/TC16*%
X87439000Y-76200000D02*
X87503000Y-76136000D01*
X87503000Y-76136000D02*
X88265000Y-76136000D01*
X83820000Y-76200000D02*
X87439000Y-76200000D01*
%TO.N,/TC2*%
X92202000Y-63500000D02*
X92202000Y-64262000D01*
X91694000Y-62992000D02*
X92202000Y-63500000D01*
X92202000Y-64262000D02*
X93980000Y-66040000D01*
X89416000Y-63492000D02*
X89916000Y-62992000D01*
X89416000Y-64516000D02*
X89416000Y-63492000D01*
X89916000Y-62992000D02*
X91694000Y-62992000D01*
%TO.N,/TC1*%
X88416000Y-64516000D02*
X88416000Y-62793528D01*
X92902300Y-62422300D02*
X93980000Y-63500000D01*
X88416000Y-62793528D02*
X88787228Y-62422300D01*
X88787228Y-62422300D02*
X92902300Y-62422300D01*
%TO.N,Net-(J2-Pin_5)*%
X91281798Y-65966000D02*
X91694000Y-66378202D01*
X91694000Y-66378202D02*
X91694000Y-70643890D01*
X91694000Y-70643890D02*
X93980000Y-72929890D01*
X90866000Y-65966000D02*
X91281798Y-65966000D01*
X93980000Y-72929890D02*
X93980000Y-73660000D01*
%TO.N,/TC4*%
X90531000Y-63393000D02*
X91333000Y-63393000D01*
X91694000Y-63754000D02*
X91694000Y-64516000D01*
X91333000Y-63393000D02*
X91694000Y-63754000D01*
X91694000Y-64516000D02*
X92710000Y-65532000D01*
X93980000Y-67667760D02*
X93980000Y-68579999D01*
X92710000Y-65532000D02*
X92710000Y-66397760D01*
X89916000Y-64516000D02*
X89916000Y-64008000D01*
X92710000Y-66397760D02*
X93980000Y-67667760D01*
X89916000Y-64008000D02*
X90531000Y-63393000D01*
%TO.N,/TC0.5*%
X86900000Y-63500000D02*
X87916000Y-64516000D01*
X83820000Y-63500000D02*
X86900000Y-63500000D01*
D21*
%TO.N,Net-(U1-Data)*%
X82694000Y-71645000D02*
X82694000Y-67825595D01*
X89789000Y-73724000D02*
X89113000Y-73048000D01*
X82694000Y-67825595D02*
X83155923Y-67363672D01*
X83583000Y-72534000D02*
X82694000Y-71645000D01*
X89789000Y-73724000D02*
X89789000Y-74486000D01*
X85687884Y-67363672D02*
X86585556Y-66466000D01*
X86585556Y-66466000D02*
X86966000Y-66466000D01*
X84800405Y-73048000D02*
X84286405Y-72534000D01*
X84286405Y-72534000D02*
X83583000Y-72534000D01*
X83155923Y-67363672D02*
X85687884Y-67363672D01*
X89113000Y-73048000D02*
X84800405Y-73048000D01*
%TO.N,Net-(U1-C16)*%
X84933000Y-74486000D02*
X88265000Y-74486000D01*
X82237000Y-73957405D02*
X83353595Y-75074000D01*
X83353595Y-75074000D02*
X84345000Y-75074000D01*
X82237000Y-65337000D02*
X82660000Y-64914000D01*
X86966000Y-65466000D02*
X86414000Y-64914000D01*
X84345000Y-75074000D02*
X84933000Y-74486000D01*
X82660000Y-64914000D02*
X86414000Y-64914000D01*
X82237000Y-65337000D02*
X82237000Y-73957405D01*
D20*
%TO.N,Net-(J1-Pin_2)*%
X83894000Y-65966000D02*
X83820000Y-66040000D01*
X86966000Y-65966000D02*
X83894000Y-65966000D01*
%TO.N,Net-(U1-LE)*%
X87916000Y-69882000D02*
X87503000Y-70295000D01*
X86966000Y-67466000D02*
X87916000Y-68416000D01*
X87916000Y-68416000D02*
X87916000Y-69882000D01*
X87553000Y-70345000D02*
X87503000Y-70295000D01*
X89416000Y-68416000D02*
X89416000Y-69956000D01*
X89027000Y-70345000D02*
X87553000Y-70345000D01*
X90551000Y-70345000D02*
X89027000Y-70345000D01*
X89416000Y-69956000D02*
X89027000Y-70345000D01*
%TD*%
%TA.AperFunction,Conductor*%
%TO.N,GND*%
G36*
X95657739Y-61861185D02*
G01*
X95703494Y-61913989D01*
X95714700Y-61965500D01*
X95714700Y-77683700D01*
X95695015Y-77750739D01*
X95642211Y-77796494D01*
X95590700Y-77807700D01*
X82285500Y-77807700D01*
X82218461Y-77788015D01*
X82172706Y-77735211D01*
X82161500Y-77683700D01*
X82161500Y-74995147D01*
X82181185Y-74928108D01*
X82233989Y-74882353D01*
X82303147Y-74872409D01*
X82366703Y-74901434D01*
X82373181Y-74907466D01*
X82713337Y-75247622D01*
X82746822Y-75308945D01*
X82741838Y-75378637D01*
X82725975Y-75408188D01*
X82664948Y-75492184D01*
X82568444Y-75681585D01*
X82502753Y-75883760D01*
X82469500Y-76093713D01*
X82469500Y-76306286D01*
X82502735Y-76516127D01*
X82502754Y-76516243D01*
X82538288Y-76625606D01*
X82568444Y-76718414D01*
X82664951Y-76907820D01*
X82789890Y-77079786D01*
X82940213Y-77230109D01*
X83112179Y-77355048D01*
X83112181Y-77355049D01*
X83112184Y-77355051D01*
X83301588Y-77451557D01*
X83503757Y-77517246D01*
X83713713Y-77550500D01*
X83713714Y-77550500D01*
X83926286Y-77550500D01*
X83926287Y-77550500D01*
X84136243Y-77517246D01*
X84338412Y-77451557D01*
X84527816Y-77355051D01*
X84582572Y-77315269D01*
X84699786Y-77230109D01*
X84699788Y-77230106D01*
X84699792Y-77230104D01*
X84850104Y-77079792D01*
X84850106Y-77079788D01*
X84850109Y-77079786D01*
X84922986Y-76979478D01*
X84975051Y-76907816D01*
X84975349Y-76907230D01*
X84995235Y-76868205D01*
X85043209Y-76817409D01*
X85105719Y-76800500D01*
X87352333Y-76800500D01*
X87359939Y-76800500D01*
X87359943Y-76800501D01*
X87412484Y-76800501D01*
X87451854Y-76812061D01*
X87479521Y-76820186D01*
X87479523Y-76820187D01*
X87479524Y-76820189D01*
X87500158Y-76836815D01*
X87554815Y-76891472D01*
X87700394Y-76979478D01*
X87862804Y-77030086D01*
X87933384Y-77036500D01*
X87933387Y-77036500D01*
X88596613Y-77036500D01*
X88596616Y-77036500D01*
X88667196Y-77030086D01*
X88829606Y-76979478D01*
X88963336Y-76898634D01*
X89030887Y-76880799D01*
X89091633Y-76898635D01*
X89224604Y-76979019D01*
X89224603Y-76979019D01*
X89386894Y-77029590D01*
X89386892Y-77029590D01*
X89457418Y-77035999D01*
X90039000Y-77035999D01*
X90120581Y-77035999D01*
X90191102Y-77029591D01*
X90191107Y-77029590D01*
X90353396Y-76979018D01*
X90498877Y-76891072D01*
X90619072Y-76770877D01*
X90707019Y-76625395D01*
X90757590Y-76463106D01*
X90764000Y-76392572D01*
X90764000Y-76386000D01*
X90039000Y-76386000D01*
X90039000Y-77035999D01*
X89457418Y-77035999D01*
X89538999Y-77035998D01*
X89539000Y-77035998D01*
X89539000Y-76260000D01*
X89558685Y-76192961D01*
X89611489Y-76147206D01*
X89663000Y-76136000D01*
X89789000Y-76136000D01*
X89789000Y-76010000D01*
X89808685Y-75942961D01*
X89861489Y-75897206D01*
X89913000Y-75886000D01*
X90763999Y-75886000D01*
X90763999Y-75879417D01*
X90757591Y-75808897D01*
X90757590Y-75808892D01*
X90707018Y-75646603D01*
X90619072Y-75501122D01*
X90516984Y-75399034D01*
X90483499Y-75337711D01*
X90488483Y-75268019D01*
X90516983Y-75223673D01*
X90619472Y-75121185D01*
X90707478Y-74975606D01*
X90758086Y-74813196D01*
X90764500Y-74742616D01*
X90764500Y-74229384D01*
X90758086Y-74158804D01*
X90707478Y-73996394D01*
X90619472Y-73850815D01*
X90619470Y-73850813D01*
X90619469Y-73850811D01*
X90499188Y-73730530D01*
X90407485Y-73675092D01*
X90360299Y-73623563D01*
X90351862Y-73601069D01*
X90351240Y-73598751D01*
X90325281Y-73501865D01*
X90278665Y-73421124D01*
X90249515Y-73370635D01*
X90142365Y-73263485D01*
X89865804Y-72986924D01*
X89832319Y-72925601D01*
X89837303Y-72855909D01*
X89879175Y-72799976D01*
X89944639Y-72775559D01*
X89992489Y-72781537D01*
X90153393Y-72834855D01*
X90252683Y-72844999D01*
X90801000Y-72844999D01*
X90849308Y-72844999D01*
X90849322Y-72844998D01*
X90948607Y-72834855D01*
X91109481Y-72781547D01*
X91109492Y-72781542D01*
X91253728Y-72692575D01*
X91253732Y-72692572D01*
X91373572Y-72572732D01*
X91373575Y-72572728D01*
X91462542Y-72428492D01*
X91462547Y-72428481D01*
X91515855Y-72267606D01*
X91525999Y-72168322D01*
X91526000Y-72168309D01*
X91526000Y-72145000D01*
X90801000Y-72145000D01*
X90801000Y-72844999D01*
X90252683Y-72844999D01*
X90300999Y-72844998D01*
X90301000Y-72844998D01*
X90301000Y-72145000D01*
X89151000Y-72145000D01*
X89083961Y-72125315D01*
X89038206Y-72072511D01*
X89027000Y-72021000D01*
X89027000Y-71769000D01*
X89046685Y-71701961D01*
X89099489Y-71656206D01*
X89151000Y-71645000D01*
X91525999Y-71645000D01*
X91525999Y-71624486D01*
X91545684Y-71557447D01*
X91598488Y-71511692D01*
X91667646Y-71501748D01*
X91731202Y-71530773D01*
X91737680Y-71536805D01*
X92888132Y-72687257D01*
X92921617Y-72748580D01*
X92916633Y-72818272D01*
X92900770Y-72847822D01*
X92824950Y-72952181D01*
X92728444Y-73141585D01*
X92662753Y-73343760D01*
X92650500Y-73421124D01*
X92629500Y-73553713D01*
X92629500Y-73766287D01*
X92662754Y-73976243D01*
X92669301Y-73996394D01*
X92728444Y-74178414D01*
X92824951Y-74367820D01*
X92949890Y-74539786D01*
X93100213Y-74690109D01*
X93272179Y-74815048D01*
X93272181Y-74815049D01*
X93272184Y-74815051D01*
X93281493Y-74819794D01*
X93332290Y-74867766D01*
X93349087Y-74935587D01*
X93326552Y-75001722D01*
X93281505Y-75040760D01*
X93272446Y-75045376D01*
X93272440Y-75045380D01*
X93218282Y-75084727D01*
X93218282Y-75084728D01*
X93850591Y-75717037D01*
X93787007Y-75734075D01*
X93672993Y-75799901D01*
X93579901Y-75892993D01*
X93514075Y-76007007D01*
X93497037Y-76070591D01*
X92864728Y-75438282D01*
X92864727Y-75438282D01*
X92825380Y-75492439D01*
X92728904Y-75681782D01*
X92663242Y-75883869D01*
X92663242Y-75883872D01*
X92630000Y-76093753D01*
X92630000Y-76306246D01*
X92663242Y-76516127D01*
X92663242Y-76516130D01*
X92728904Y-76718217D01*
X92825375Y-76907550D01*
X92864728Y-76961716D01*
X93497037Y-76329408D01*
X93514075Y-76392993D01*
X93579901Y-76507007D01*
X93672993Y-76600099D01*
X93787007Y-76665925D01*
X93850590Y-76682962D01*
X93218282Y-77315269D01*
X93218282Y-77315270D01*
X93272449Y-77354624D01*
X93461782Y-77451095D01*
X93663870Y-77516757D01*
X93873754Y-77550000D01*
X94086246Y-77550000D01*
X94296127Y-77516757D01*
X94296130Y-77516757D01*
X94498217Y-77451095D01*
X94687554Y-77354622D01*
X94741716Y-77315270D01*
X94741717Y-77315270D01*
X94109408Y-76682962D01*
X94172993Y-76665925D01*
X94287007Y-76600099D01*
X94380099Y-76507007D01*
X94445925Y-76392993D01*
X94462962Y-76329408D01*
X95095270Y-76961717D01*
X95095270Y-76961716D01*
X95134622Y-76907554D01*
X95231095Y-76718217D01*
X95296757Y-76516130D01*
X95296757Y-76516127D01*
X95330000Y-76306246D01*
X95330000Y-76093753D01*
X95296757Y-75883872D01*
X95296757Y-75883869D01*
X95231095Y-75681782D01*
X95134624Y-75492449D01*
X95095270Y-75438282D01*
X95095269Y-75438282D01*
X94462962Y-76070590D01*
X94445925Y-76007007D01*
X94380099Y-75892993D01*
X94287007Y-75799901D01*
X94172993Y-75734075D01*
X94109409Y-75717037D01*
X94741716Y-75084728D01*
X94687547Y-75045373D01*
X94687547Y-75045372D01*
X94678500Y-75040763D01*
X94627706Y-74992788D01*
X94610912Y-74924966D01*
X94633451Y-74858832D01*
X94678508Y-74819793D01*
X94687816Y-74815051D01*
X94787519Y-74742613D01*
X94859786Y-74690109D01*
X94859788Y-74690106D01*
X94859792Y-74690104D01*
X95010104Y-74539792D01*
X95010106Y-74539788D01*
X95010109Y-74539786D01*
X95135048Y-74367820D01*
X95135047Y-74367820D01*
X95135051Y-74367816D01*
X95231557Y-74178412D01*
X95297246Y-73976243D01*
X95330500Y-73766287D01*
X95330500Y-73553713D01*
X95297246Y-73343757D01*
X95231557Y-73141588D01*
X95135051Y-72952184D01*
X95135049Y-72952181D01*
X95135048Y-72952179D01*
X95010109Y-72780213D01*
X94859786Y-72629890D01*
X94687820Y-72504951D01*
X94687115Y-72504591D01*
X94679054Y-72500485D01*
X94628259Y-72452512D01*
X94611463Y-72384692D01*
X94633999Y-72318556D01*
X94679054Y-72279515D01*
X94687816Y-72275051D01*
X94709789Y-72259086D01*
X94859786Y-72150109D01*
X94859788Y-72150106D01*
X94859792Y-72150104D01*
X95010104Y-71999792D01*
X95010106Y-71999788D01*
X95010109Y-71999786D01*
X95135048Y-71827820D01*
X95135047Y-71827820D01*
X95135051Y-71827816D01*
X95231557Y-71638412D01*
X95297246Y-71436243D01*
X95330500Y-71226287D01*
X95330500Y-71013713D01*
X95297246Y-70803757D01*
X95231557Y-70601588D01*
X95135051Y-70412184D01*
X95135049Y-70412181D01*
X95135048Y-70412179D01*
X95010109Y-70240213D01*
X94859786Y-70089890D01*
X94687817Y-69964949D01*
X94679052Y-69960483D01*
X94628257Y-69912508D01*
X94611462Y-69844687D01*
X94634000Y-69778552D01*
X94679056Y-69739513D01*
X94687816Y-69735050D01*
X94687818Y-69735048D01*
X94687821Y-69735047D01*
X94859786Y-69610108D01*
X94859788Y-69610105D01*
X94859792Y-69610103D01*
X95010104Y-69459791D01*
X95010106Y-69459787D01*
X95010109Y-69459785D01*
X95135048Y-69287819D01*
X95135047Y-69287819D01*
X95135051Y-69287815D01*
X95231557Y-69098411D01*
X95297246Y-68896242D01*
X95330500Y-68686286D01*
X95330500Y-68473712D01*
X95297246Y-68263756D01*
X95231557Y-68061587D01*
X95135051Y-67872183D01*
X95135049Y-67872180D01*
X95135048Y-67872178D01*
X95010109Y-67700212D01*
X94859786Y-67549889D01*
X94687817Y-67424948D01*
X94679054Y-67420483D01*
X94628258Y-67372508D01*
X94611464Y-67304687D01*
X94634002Y-67238552D01*
X94679058Y-67199513D01*
X94687816Y-67195051D01*
X94709789Y-67179086D01*
X94859786Y-67070109D01*
X94859788Y-67070106D01*
X94859792Y-67070104D01*
X95010104Y-66919792D01*
X95010106Y-66919788D01*
X95010109Y-66919786D01*
X95135048Y-66747820D01*
X95135047Y-66747820D01*
X95135051Y-66747816D01*
X95231557Y-66558412D01*
X95297246Y-66356243D01*
X95330500Y-66146287D01*
X95330500Y-65933713D01*
X95297246Y-65723757D01*
X95231557Y-65521588D01*
X95135051Y-65332184D01*
X95135049Y-65332181D01*
X95135048Y-65332179D01*
X95010109Y-65160213D01*
X94896569Y-65046673D01*
X94863084Y-64985350D01*
X94868068Y-64915658D01*
X94909940Y-64859725D01*
X94940915Y-64842810D01*
X95072331Y-64793796D01*
X95187546Y-64707546D01*
X95273796Y-64592331D01*
X95324091Y-64457483D01*
X95330500Y-64397873D01*
X95330499Y-62602128D01*
X95324091Y-62542517D01*
X95308046Y-62499499D01*
X95273797Y-62407671D01*
X95273793Y-62407664D01*
X95187547Y-62292455D01*
X95187544Y-62292452D01*
X95072335Y-62206206D01*
X95072328Y-62206202D01*
X94937482Y-62155908D01*
X94937483Y-62155908D01*
X94877883Y-62149501D01*
X94877881Y-62149500D01*
X94877873Y-62149500D01*
X94877865Y-62149500D01*
X93530097Y-62149500D01*
X93500656Y-62140855D01*
X93470670Y-62134332D01*
X93465654Y-62130577D01*
X93463058Y-62129815D01*
X93442416Y-62113181D01*
X93389890Y-62060655D01*
X93389888Y-62060652D01*
X93382417Y-62053181D01*
X93379733Y-62048265D01*
X93374397Y-62041757D01*
X93374395Y-62041754D01*
X93375701Y-62040882D01*
X93348932Y-61991858D01*
X93353916Y-61922166D01*
X93395788Y-61866233D01*
X93461252Y-61841816D01*
X93470098Y-61841500D01*
X95590700Y-61841500D01*
X95657739Y-61861185D01*
G37*
%TD.AperFunction*%
%TA.AperFunction,Conductor*%
G36*
X86153412Y-67843130D02*
G01*
X86179861Y-67868651D01*
X86211956Y-67910478D01*
X86226964Y-67930036D01*
X86344571Y-68020279D01*
X86481528Y-68077009D01*
X86591599Y-68091500D01*
X86690902Y-68091499D01*
X86757940Y-68111183D01*
X86778583Y-68127818D01*
X87254181Y-68603416D01*
X87287666Y-68664739D01*
X87290500Y-68691096D01*
X87290500Y-68790401D01*
X87304990Y-68900470D01*
X87304991Y-68900472D01*
X87306059Y-68903051D01*
X87315500Y-68950507D01*
X87315500Y-69270500D01*
X87295815Y-69337539D01*
X87243011Y-69383294D01*
X87191500Y-69394500D01*
X87171384Y-69394500D01*
X87152145Y-69396248D01*
X87100807Y-69400913D01*
X86938393Y-69451522D01*
X86792811Y-69539530D01*
X86672530Y-69659811D01*
X86584522Y-69805393D01*
X86533913Y-69967807D01*
X86527500Y-70038386D01*
X86527500Y-70245500D01*
X86507815Y-70312539D01*
X86455011Y-70358294D01*
X86403500Y-70369500D01*
X85007221Y-70369500D01*
X84940182Y-70349815D01*
X84906903Y-70318385D01*
X84850107Y-70240211D01*
X84699786Y-70089890D01*
X84527817Y-69964949D01*
X84518504Y-69960204D01*
X84467707Y-69912230D01*
X84450912Y-69844409D01*
X84473449Y-69778274D01*
X84518507Y-69739232D01*
X84527555Y-69734622D01*
X84581716Y-69695270D01*
X84581717Y-69695270D01*
X83949409Y-69062962D01*
X84012993Y-69045925D01*
X84127007Y-68980099D01*
X84220099Y-68887007D01*
X84285925Y-68772993D01*
X84302962Y-68709409D01*
X84935270Y-69341717D01*
X84935270Y-69341716D01*
X84974622Y-69287554D01*
X85071095Y-69098217D01*
X85136757Y-68896130D01*
X85136757Y-68896127D01*
X85170000Y-68686246D01*
X85170000Y-68473753D01*
X85136757Y-68263872D01*
X85136757Y-68263869D01*
X85083997Y-68101490D01*
X85082002Y-68031649D01*
X85118082Y-67971816D01*
X85180783Y-67940988D01*
X85201928Y-67939172D01*
X85763648Y-67939172D01*
X85763650Y-67939172D01*
X85910019Y-67899953D01*
X86019486Y-67836751D01*
X86087385Y-67820278D01*
X86153412Y-67843130D01*
G37*
%TD.AperFunction*%
%TA.AperFunction,Conductor*%
G36*
X90889254Y-68026901D02*
G01*
X90909476Y-68027706D01*
X90933683Y-68039947D01*
X90936877Y-68040885D01*
X90939133Y-68042703D01*
X90940972Y-68043633D01*
X91040634Y-68113433D01*
X91084253Y-68168014D01*
X91093500Y-68215000D01*
X91093500Y-69282292D01*
X91073815Y-69349331D01*
X91021011Y-69395086D01*
X90955527Y-69404501D01*
X90955442Y-69405339D01*
X90952087Y-69404996D01*
X90951853Y-69405030D01*
X90951098Y-69404895D01*
X90849352Y-69394500D01*
X90432431Y-69394500D01*
X90365392Y-69374815D01*
X90319637Y-69322011D01*
X90309693Y-69252853D01*
X90338718Y-69189297D01*
X90356946Y-69172123D01*
X90379678Y-69154680D01*
X90469843Y-69037175D01*
X90526521Y-68900342D01*
X90526521Y-68900341D01*
X90540999Y-68790377D01*
X90541000Y-68790363D01*
X90541000Y-68541000D01*
X90165500Y-68541000D01*
X90156844Y-68538458D01*
X90147914Y-68539747D01*
X90123838Y-68528766D01*
X90098461Y-68521315D01*
X90092554Y-68514498D01*
X90084344Y-68510754D01*
X90070026Y-68488500D01*
X90052706Y-68468511D01*
X90050423Y-68458029D01*
X90046540Y-68451994D01*
X90041500Y-68417062D01*
X90041499Y-68415062D01*
X90061150Y-68348013D01*
X90113931Y-68302231D01*
X90165499Y-68291000D01*
X90541000Y-68291000D01*
X90541000Y-68215000D01*
X90560685Y-68147961D01*
X90613489Y-68102206D01*
X90665000Y-68091000D01*
X90741000Y-68091000D01*
X90774481Y-68057519D01*
X90835804Y-68024034D01*
X90862162Y-68021200D01*
X90869838Y-68021200D01*
X90889254Y-68026901D01*
G37*
%TD.AperFunction*%
%TA.AperFunction,Conductor*%
G36*
X91036539Y-64013185D02*
G01*
X91082294Y-64065989D01*
X91093500Y-64117500D01*
X91093500Y-64429330D01*
X91093499Y-64429348D01*
X91093499Y-64595054D01*
X91093498Y-64595054D01*
X91093499Y-64595057D01*
X91117440Y-64684408D01*
X91115778Y-64754256D01*
X91076616Y-64812119D01*
X91012388Y-64839623D01*
X90997666Y-64840500D01*
X90665499Y-64840500D01*
X90598460Y-64820815D01*
X90552705Y-64768011D01*
X90541499Y-64716500D01*
X90541499Y-64283097D01*
X90550143Y-64253656D01*
X90556667Y-64223670D01*
X90560421Y-64218654D01*
X90561184Y-64216058D01*
X90577813Y-64195420D01*
X90743417Y-64029816D01*
X90804739Y-63996334D01*
X90831097Y-63993500D01*
X90969500Y-63993500D01*
X91036539Y-64013185D01*
G37*
%TD.AperFunction*%
%TA.AperFunction,Conductor*%
G36*
X88286469Y-61861185D02*
G01*
X88332224Y-61913989D01*
X88342168Y-61983147D01*
X88313143Y-62046703D01*
X88307115Y-62053176D01*
X88154089Y-62206202D01*
X88040217Y-62320074D01*
X88040214Y-62320076D01*
X88040215Y-62320077D01*
X87935478Y-62424814D01*
X87935475Y-62424818D01*
X87892359Y-62499499D01*
X87892359Y-62499500D01*
X87856423Y-62561743D01*
X87815499Y-62714471D01*
X87815499Y-62714473D01*
X87815499Y-62882574D01*
X87815500Y-62882587D01*
X87815500Y-63266903D01*
X87795815Y-63333942D01*
X87743011Y-63379697D01*
X87673853Y-63389641D01*
X87610297Y-63360616D01*
X87603819Y-63354584D01*
X87387590Y-63138355D01*
X87387588Y-63138352D01*
X87268717Y-63019481D01*
X87268716Y-63019480D01*
X87181904Y-62969360D01*
X87181904Y-62969359D01*
X87181900Y-62969358D01*
X87131785Y-62940423D01*
X86979057Y-62899499D01*
X86820943Y-62899499D01*
X86813347Y-62899499D01*
X86813331Y-62899500D01*
X85294499Y-62899500D01*
X85227460Y-62879815D01*
X85181705Y-62827011D01*
X85170499Y-62775500D01*
X85170499Y-62602129D01*
X85170498Y-62602123D01*
X85170497Y-62602116D01*
X85164091Y-62542517D01*
X85148046Y-62499499D01*
X85113797Y-62407671D01*
X85113793Y-62407664D01*
X85027547Y-62292455D01*
X85027544Y-62292452D01*
X84912335Y-62206206D01*
X84912328Y-62206202D01*
X84777482Y-62155908D01*
X84777483Y-62155908D01*
X84717883Y-62149501D01*
X84717881Y-62149500D01*
X84717873Y-62149500D01*
X84717864Y-62149500D01*
X82922129Y-62149500D01*
X82922123Y-62149501D01*
X82862516Y-62155908D01*
X82727671Y-62206202D01*
X82727664Y-62206206D01*
X82612455Y-62292452D01*
X82612452Y-62292455D01*
X82526206Y-62407664D01*
X82526202Y-62407671D01*
X82475908Y-62542517D01*
X82469501Y-62602116D01*
X82469501Y-62602123D01*
X82469500Y-62602135D01*
X82469500Y-64287862D01*
X82466118Y-64299379D01*
X82467259Y-64311328D01*
X82456456Y-64332282D01*
X82449815Y-64354901D01*
X82439944Y-64364312D01*
X82435244Y-64373431D01*
X82407501Y-64395248D01*
X82347501Y-64429890D01*
X82279601Y-64446364D01*
X82213574Y-64423512D01*
X82170383Y-64368592D01*
X82161500Y-64322504D01*
X82161500Y-61965500D01*
X82181185Y-61898461D01*
X82233989Y-61852706D01*
X82285500Y-61841500D01*
X88219430Y-61841500D01*
X88286469Y-61861185D01*
G37*
%TD.AperFunction*%
%TD*%
M02*
