G04 DipTrace 3.3.1.1*
G04 BottomMask.gbr*
%MOIN*%
G04 #@! TF.FileFunction,Soldermask,Bot*
G04 #@! TF.Part,Single*
%AMOUTLINE1*
4,1,8,
-0.023701,-0.031191,
-0.011506,-0.043386,
0.011506,-0.043386,
0.023701,-0.031191,
0.023701,0.031191,
0.011506,0.043386,
-0.011506,0.043386,
-0.023701,0.031191,
-0.023701,-0.031191,
0*%
%ADD49C,0.125*%
%ADD55O,0.047402X0.086772*%
%ADD57C,0.067087*%
%ADD59R,0.067087X0.067087*%
%ADD69C,0.067087*%
%ADD71C,0.128031*%
%ADD73C,0.073031*%
%ADD75O,0.145827X0.071024*%
%ADD77O,0.071024X0.145827*%
%ADD97OUTLINE1*%
%FSLAX26Y26*%
G04*
G70*
G90*
G75*
G01*
G04 BotMask*
%LPD*%
D49*
X4205203Y518499D3*
X555026Y543555D3*
D77*
X462579Y3186934D3*
D75*
X760055Y3381079D3*
X727572Y3295025D3*
X630198Y3002357D3*
D77*
X898213Y3037247D3*
X463295Y2667551D3*
D75*
X760772Y2861696D3*
X728289Y2775642D3*
X630915Y2482974D3*
D77*
X898929Y2517864D3*
D73*
X3332782Y2385976D3*
X3913912Y4122690D3*
X1632782Y2385976D3*
X1732782D3*
X2876551Y599736D3*
X3713913Y4222690D3*
X1832782Y2385976D3*
X3713913Y4122690D3*
X1932782Y2385976D3*
X2178598Y2063018D3*
D71*
X1634213Y4216587D3*
D73*
X3913912Y4222690D3*
X2178598Y2163018D3*
X2863913Y4222690D3*
X2078598Y2063018D3*
Y2163018D3*
X3167522Y2508673D3*
X2863913Y4122690D3*
X1978598Y2063018D3*
Y2163018D3*
X3271798Y2507542D3*
X2032782Y2385976D3*
X2963912Y4222690D3*
X2132782Y2385976D3*
X2733509Y1276437D3*
X2232782Y2385976D3*
X1412671Y506063D3*
X2332782Y2385976D3*
X1270510Y764469D3*
X2432782Y2385976D3*
X1449945Y956654D3*
X2532782Y2385976D3*
X1024552Y1636886D3*
X3063912Y4122690D3*
X2632782Y2385976D3*
X3263912Y4122690D3*
X2732782Y2385976D3*
X3163913Y4222690D3*
X2832782Y2385976D3*
X2963912Y4122690D3*
X2932782Y2385976D3*
X3063912Y4222690D3*
X3032782Y2385976D3*
X3163913Y4122690D3*
X3132782Y2385976D3*
X3263912Y4222690D3*
X3232782Y2385976D3*
X3432782D3*
X3299058Y3464675D3*
X3532782Y2385976D3*
X3299058Y3364675D3*
X3632782Y2385976D3*
X3299058Y3264675D3*
X3732782Y2385976D3*
X3299058Y3164675D3*
X3832782Y2385976D3*
X3299058Y3064675D3*
X3932782Y2385976D3*
X3299058Y2964675D3*
X1632782Y1785976D3*
X3299058Y2864675D3*
X1732782Y1785976D3*
X3299058Y2764675D3*
X1832782Y1785976D3*
X2799058Y3664675D3*
X1932782Y1785976D3*
X2899058Y3664675D3*
X2032782Y1785976D3*
X2999058Y3664675D3*
X2132782Y1785976D3*
X3099058Y3664675D3*
X2232782Y1785976D3*
X3199058Y3664675D3*
X2332782Y1785976D3*
X3299058Y3664675D3*
X2432782Y1785976D3*
X2224307Y3663585D3*
X2532782Y1785976D3*
X1724307Y3663585D3*
X2632782Y1785976D3*
X1824307Y3663585D3*
X2732782Y1785976D3*
X1924307Y3663585D3*
X2832782Y1785976D3*
D71*
X1634213Y4016587D3*
D73*
X2932782Y1785976D3*
X2024307Y3663585D3*
X3032782Y1785976D3*
X2124307Y3663585D3*
X3132782Y1785976D3*
X2224307Y2663585D3*
X3232782Y1785976D3*
X1724307Y2663585D3*
X3332782Y1785976D3*
X1824307Y2663585D3*
X3432782Y1785976D3*
X1924307Y2663585D3*
X3813912Y4222690D3*
X3532782Y1785976D3*
X3632782D3*
X2024307Y2663585D3*
X4113912Y4122690D3*
X3732782Y1785976D3*
X4013913Y4222690D3*
X3832782Y1785976D3*
X3932782D3*
X2124307Y2663585D3*
X3230026Y1631055D3*
D71*
X1434213Y4016587D3*
D73*
X3330026Y1631055D3*
X3430026D3*
X1882782Y1885976D3*
X1324476Y3057188D3*
X2282782Y1885976D3*
X1324478Y3155312D3*
X1982782Y1885976D3*
D71*
X1434213Y4216587D3*
D73*
X2082782Y1885976D3*
D71*
X1534213Y4116587D3*
X1247908Y4223033D3*
D73*
X2182782Y1885976D3*
D71*
X1247908Y4023033D3*
X1047908D3*
D73*
X4216198Y3712331D3*
Y3612331D3*
Y3512331D3*
Y3412331D3*
Y3312331D3*
X3813912Y4122690D3*
X3299058Y2664675D3*
X4013913Y4122690D3*
X4113912Y4222690D3*
X4116198Y3712331D3*
Y3612331D3*
Y3412331D3*
Y3512331D3*
Y3312331D3*
X1322287Y3254297D3*
X4190038Y2988339D3*
X4071928D3*
D71*
X1047908Y4223033D3*
X1147908Y4123033D3*
D73*
X1111602Y2924975D3*
Y3113205D3*
Y3019091D3*
X3130026Y1631055D3*
X508434Y3683163D3*
X608434D3*
X3839560Y2546248D3*
X3940207Y2543017D3*
X529993Y1491390D3*
Y1391390D3*
X508434Y3783161D3*
X529993Y1291390D3*
X608434Y3883161D3*
X529993Y1191390D3*
X608434Y4083161D3*
X529993Y1091390D3*
X508434Y3983163D3*
X529993Y991390D3*
Y891390D3*
X1111602Y2830861D3*
X629993Y891390D3*
X608434Y3783161D3*
X629993Y991390D3*
X508434Y3883161D3*
X629993Y1091390D3*
X608434Y3983163D3*
X629993Y1191390D3*
X508434Y4083161D3*
X629993Y1291390D3*
X1232783Y2198184D3*
X629993Y1391390D3*
X1111602Y2736745D3*
X629993Y1491390D3*
Y1591390D3*
X529993D3*
D69*
X1149597Y3844336D3*
X1529430Y3831537D3*
X3481665Y2732430D3*
D73*
X3914346Y758276D3*
X2674337Y768232D3*
X2774337D3*
X2874337D3*
D77*
X461720Y2130322D3*
D75*
X759197Y2324466D3*
X726714Y2238412D3*
X629340Y1945744D3*
D77*
X897354Y1980634D3*
D73*
X1642591Y623143D3*
X1692591Y823143D3*
X1742591Y623143D3*
X1792591Y823143D3*
X1842591Y623143D3*
X1892591Y823143D3*
X1942591Y623143D3*
X1992591Y823143D3*
X2042591Y623143D3*
X2092591Y823143D3*
X2142591Y623143D3*
X2192591Y823143D3*
X2242591Y623143D3*
X2292591Y823143D3*
X2342591Y623143D3*
D69*
X1161907Y2337325D3*
D59*
X1138903Y1933307D3*
D57*
Y2012047D3*
D97*
X1487558Y1382909D3*
D55*
X1537558D3*
X1587558D3*
D69*
X3787158Y1289332D3*
M02*
