G04 DipTrace 3.3.1.1*
G04 Bottom.gbr*
%MOIN*%
G04 #@! TF.FileFunction,Copper,L2,Bot*
G04 #@! TF.Part,Single*
G04 #@! TA.AperFunction,ComponentPad*
%ADD17C,0.1*%
%ADD18R,0.066929X0.066929*%
%ADD19C,0.066929*%
%FSLAX26Y26*%
G04*
G70*
G90*
G75*
G01*
G04 Bottom*
%LPD*%
D17*
X472756Y1348740D3*
Y866457D3*
Y1102677D3*
D18*
X994409Y4203071D3*
D19*
Y4025906D3*
X1250315D3*
Y4203071D3*
D18*
X1703071D3*
D19*
Y4025906D3*
X1958976D3*
Y4203071D3*
D18*
X2411732D3*
D19*
Y4025906D3*
X2667638D3*
Y4203071D3*
D18*
X994409Y3494409D3*
D19*
Y3317244D3*
X1250315D3*
Y3494409D3*
D18*
X1703071D3*
D19*
Y3317244D3*
X1958976D3*
Y3494409D3*
D18*
X2411732D3*
D19*
Y3317244D3*
X2667638D3*
Y3494409D3*
D18*
X955039Y2785748D3*
D19*
Y2608583D3*
X1210945D3*
Y2785748D3*
D18*
X1683386D3*
D19*
Y2608583D3*
X1939291D3*
Y2785748D3*
D18*
X2411732D3*
D19*
Y2608583D3*
X2667638D3*
Y2785748D3*
D18*
X994409Y2077087D3*
D19*
Y1899921D3*
X1250315D3*
Y2077087D3*
D18*
X1703071D3*
D19*
Y1899921D3*
X1958976D3*
Y2077087D3*
D18*
X2411732D3*
D19*
Y1899921D3*
X2667638D3*
Y2077087D3*
D18*
X1703071Y1368425D3*
D19*
Y1191260D3*
X1958976D3*
Y1368425D3*
D18*
X2411732D3*
D19*
Y1191260D3*
X2667638D3*
Y1368425D3*
D18*
X979723Y659764D3*
D19*
Y482598D3*
X1235629D3*
Y659764D3*
D18*
X1695728D3*
D19*
Y482598D3*
X1951634D3*
Y659764D3*
D18*
X2411732D3*
D19*
Y482598D3*
X2667638D3*
Y659764D3*
D18*
X974724Y1368425D3*
D19*
Y1191260D3*
X1230630D3*
Y1368425D3*
M02*
