G04 DipTrace 3.3.1.1*
G04 Top.gbr*
%MOIN*%
G04 #@! TF.FileFunction,Copper,L1,Top*
G04 #@! TF.Part,Single*
G04 #@! TA.AperFunction,Conductor*
%ADD14C,0.027559*%
%ADD15C,0.019685*%
%ADD16R,0.070866X0.062992*%
G04 #@! TA.AperFunction,ComponentPad*
%ADD17C,0.1*%
%ADD18R,0.066929X0.066929*%
%ADD19C,0.066929*%
%FSLAX26Y26*%
G04*
G70*
G90*
G75*
G01*
G04 Top*
%LPD*%
X737076Y3851568D2*
D14*
X571181D1*
Y4183386D1*
X649921Y4262126D1*
X994409D1*
Y4203071D1*
X1250315D1*
X737076Y3851568D2*
X630236D1*
X574190D1*
X584142Y3609403D2*
X639178D1*
X737076Y3707301D1*
Y3741332D1*
X1703071Y4203071D2*
X1958976D1*
X737076Y3741332D2*
Y3719360D1*
X879875Y3862159D1*
Y4088579D1*
X930451Y4139154D1*
X1354337D1*
X1418255Y4203071D1*
X1703071D1*
X584142Y3499167D2*
X604146D1*
X609231Y3504252D1*
X738504D1*
X2411732Y4203071D2*
X2667638D1*
X738504Y3504252D2*
X719436D1*
X928428Y3713244D1*
Y4070559D1*
X949715Y4091846D1*
X1446171D1*
X1471215Y4116891D1*
X2325552D1*
X2411732Y4203071D1*
X575646Y3294287D2*
Y3347056D1*
X622605Y3394016D1*
X738504D1*
X994409Y3494409D2*
X1250315D1*
X738504Y3394016D2*
X790081D1*
X890475Y3494409D1*
X994409D1*
X575646Y3184051D2*
X624440D1*
X627891Y3187503D1*
X741566D1*
X1703071Y3494409D2*
X1958976D1*
X741566Y3187503D2*
Y3214709D1*
X931353Y3404496D1*
X1440117D1*
X1530030Y3494409D1*
X1703071D1*
X1230630Y1191260D2*
X1703071D1*
X2667638Y4025906D2*
X2746904Y3946639D1*
Y3599291D1*
Y3396510D1*
X2667638Y3317244D1*
X955039Y2608583D2*
X1210945D1*
X1958976Y4025906D2*
X2411732D1*
X1958976Y1899921D2*
X2411732D1*
X1250315Y3317244D2*
X1703071D1*
X994409Y1899921D2*
X1250315D1*
X994409Y4025906D2*
X1250315D1*
X979723Y482598D2*
X1235629D1*
X2411732Y4025906D2*
X2667638D1*
X1250315Y3317244D2*
X994409D1*
X1703071D2*
X1958976D1*
X2411732D2*
X2667638D1*
X2411732Y2608583D2*
X2667638D1*
X2411732Y1899921D2*
X2667638D1*
X974724Y1191260D2*
X1230630D1*
X2411732D2*
X2667638D1*
X1958976D2*
X2283899D1*
X2411732D1*
X1703071D2*
X1958976D1*
X2667638Y2608583D2*
X2758017Y2518203D1*
Y1990301D1*
X2667638Y1899921D1*
Y3317244D2*
X2682717D1*
X2751301Y3248660D1*
Y3006556D1*
Y2678189D1*
X2676164Y2603052D1*
X2673168D1*
X2667638Y2608583D1*
X1683386D2*
X1939291D1*
X1210945D2*
X1683386D1*
X1703071Y1899921D2*
X1958976D1*
X1250315D2*
X1703071D1*
Y4025906D2*
X1958976D1*
X1250315D2*
X1703071D1*
X551920Y1563261D2*
X612354D1*
X728846Y1446769D1*
Y1199134D1*
D15*
Y1196017D1*
X974724D1*
D14*
Y1191260D1*
X1230630D2*
X1224566D1*
Y892508D1*
X1361415Y755659D1*
Y547184D1*
X1296829Y482598D1*
X1235629D1*
X846772Y827087D2*
X798416D1*
X756058Y869445D1*
X472756D1*
Y866457D1*
X846772Y827087D2*
Y797559D1*
X905827Y738504D1*
Y550341D1*
X973570Y482598D1*
X979723D1*
X2667638Y1899921D2*
X2750609Y1816950D1*
Y1266573D1*
X2681777Y1197741D1*
X2667638D1*
Y1191260D1*
X1958976Y3317244D2*
X2065747D1*
X2102909Y3354407D1*
Y3351623D1*
X2350577Y3599291D1*
X2746904D1*
X1939291Y2608583D2*
X1944651D1*
X2342625Y3006556D1*
X2751301D1*
X2656685Y3317244D2*
X2667638D1*
X577457Y3033945D2*
X622143D1*
X665466Y3077266D1*
X741566D1*
X2411732Y3494409D2*
X2667638D1*
X741566Y3077266D2*
X1994589D1*
X2411732Y3494409D1*
X1210945Y2785748D2*
X955039D1*
X577303Y2783526D2*
Y2923709D1*
X577457D1*
X955039Y2785748D2*
X796891D1*
X794669Y2783526D1*
X577303D1*
X1683386Y2785748D2*
X1750315D1*
X1939291D1*
X577303Y2673290D2*
X841913D1*
X859575Y2690951D1*
X1426974D1*
X1521770Y2785748D1*
X1683386D1*
X581651Y2555630D2*
X577303D1*
Y2673290D1*
X581651Y2445394D2*
X587583D1*
X596776Y2436201D1*
X746436D1*
X2411732Y2785748D2*
X2667638D1*
X746436Y2436201D2*
X2062185D1*
X2411732Y2785748D1*
X746436Y2325965D2*
Y2317444D1*
X826001Y2237878D1*
X897392D1*
X994409Y2140861D1*
Y2077087D1*
X1250315D1*
X746436Y2325965D2*
X732751D1*
X732020Y2326696D1*
X577930D1*
Y2216459D2*
Y2136202D1*
X747705D1*
X1703071Y2077087D2*
X1958976D1*
X747705Y2136202D2*
Y2147400D1*
X766615D1*
X901409Y2012606D1*
X1437276D1*
X1498692Y2074022D1*
X1706135D1*
X1703071Y2077087D1*
X592890Y2023760D2*
X725677D1*
X727883Y2025966D1*
X747705D1*
X2411732Y2077087D2*
X2667638D1*
X747705Y2025966D2*
X794682D1*
X859361Y1961287D1*
X2295933D1*
X2411732Y2077087D1*
X974724Y1368425D2*
X1063008D1*
Y1647848D1*
X794919Y1915937D1*
X742385D1*
Y1920886D1*
X1230630Y1368425D2*
X974724D1*
X742385Y1920886D2*
X636783D1*
Y1913524D1*
X592890D1*
X742385Y1810650D2*
X771640D1*
X833029Y1749261D1*
X835122D1*
X1703071Y1368425D2*
X1958976D1*
X835122Y1749261D2*
X870188D1*
X907151Y1712298D1*
Y1312370D1*
X921573Y1297948D1*
X1430060D1*
X1498692Y1366579D1*
X1699738D1*
Y1371759D1*
X1703071Y1368425D1*
X472756Y1102677D2*
X571181Y1004252D1*
X630236D1*
X845172D1*
X935354D1*
X979723Y959883D1*
Y659764D1*
X935354Y1004252D2*
Y994409D1*
X846772D1*
Y1140079D1*
X979723Y659764D2*
X1235629D1*
X846772Y937323D2*
X845172D1*
Y1004252D1*
X630236Y1199134D2*
Y1004252D1*
X1695728Y482598D2*
X1951634D1*
X630236Y1309370D2*
X472756D1*
Y1348740D1*
X551920Y1673497D2*
Y1728232D1*
X485657Y1794495D1*
Y3744427D1*
X564894D1*
X567988Y3741332D1*
X574190D1*
X472756Y1348740D2*
Y1673497D1*
X551920D1*
X2667638Y1368425D2*
X2411732D1*
X2293738Y1250430D1*
X856730D1*
X856614Y1250315D1*
X846772D1*
X856614D2*
X850131D1*
Y1639025D1*
X835122D1*
X1951634Y659764D2*
X1695728D1*
X2411732Y482598D2*
X2667638D1*
Y659764D2*
X2391232D1*
X2411732D1*
D16*
X630236Y1309370D3*
Y1199134D3*
D17*
X472756Y1348740D3*
Y866457D3*
Y1102677D3*
D16*
X574190Y3851568D3*
Y3741332D3*
X737076D3*
Y3851568D3*
X584142Y3499167D3*
Y3609403D3*
X738504Y3504252D3*
Y3394016D3*
X575646Y3294287D3*
Y3184051D3*
X741566Y3187503D3*
Y3077266D3*
X577457Y3033945D3*
Y2923709D3*
X577303Y2673290D3*
Y2783526D3*
X581651Y2445394D3*
Y2555630D3*
X746436Y2325965D3*
Y2436201D3*
X577930Y2326696D3*
Y2216459D3*
X747705Y2136202D3*
Y2025966D3*
X592890Y2023760D3*
Y1913524D3*
X742385Y1920886D3*
Y1810650D3*
X835122Y1749261D3*
Y1639025D3*
X846772Y1250315D3*
Y1140079D3*
X551920Y1673497D3*
Y1563261D3*
D18*
X994409Y4203071D3*
D19*
Y4025906D3*
X1250315D3*
Y4203071D3*
D18*
X1703071D3*
D19*
Y4025906D3*
X1958976D3*
Y4203071D3*
D18*
X2411732D3*
D19*
Y4025906D3*
X2667638D3*
Y4203071D3*
D18*
X994409Y3494409D3*
D19*
Y3317244D3*
X1250315D3*
Y3494409D3*
D18*
X1703071D3*
D19*
Y3317244D3*
X1958976D3*
Y3494409D3*
D18*
X2411732D3*
D19*
Y3317244D3*
X2667638D3*
Y3494409D3*
D18*
X955039Y2785748D3*
D19*
Y2608583D3*
X1210945D3*
Y2785748D3*
D18*
X1683386D3*
D19*
Y2608583D3*
X1939291D3*
Y2785748D3*
D18*
X2411732D3*
D19*
Y2608583D3*
X2667638D3*
Y2785748D3*
D18*
X994409Y2077087D3*
D19*
Y1899921D3*
X1250315D3*
Y2077087D3*
D18*
X1703071D3*
D19*
Y1899921D3*
X1958976D3*
Y2077087D3*
D18*
X2411732D3*
D19*
Y1899921D3*
X2667638D3*
Y2077087D3*
D18*
X1703071Y1368425D3*
D19*
Y1191260D3*
X1958976D3*
Y1368425D3*
D18*
X2411732D3*
D19*
Y1191260D3*
X2667638D3*
Y1368425D3*
D18*
X979723Y659764D3*
D19*
Y482598D3*
X1235629D3*
Y659764D3*
D18*
X1695728D3*
D19*
Y482598D3*
X1951634D3*
Y659764D3*
D18*
X2411732D3*
D19*
Y482598D3*
X2667638D3*
Y659764D3*
D18*
X974724Y1368425D3*
D19*
Y1191260D3*
X1230630D3*
Y1368425D3*
D16*
X846772Y827087D3*
Y937323D3*
M02*
