G04 DipTrace 3.3.1.1*
G04 TopDimension.gbr*
%MOIN*%
G04 #@! TF.FileFunction,Drawing,Top*
G04 #@! TF.Part,Single*
%ADD13C,0.001378*%
%ADD35C,0.006176*%
%FSLAX26Y26*%
G04*
G70*
G90*
G75*
G01*
G04 TopDimension*
%LPD*%
X394016Y4331024D2*
D13*
X216850D1*
X394016Y394016D2*
X216850D1*
X236535Y2362520D2*
Y4291654D1*
G36*
Y4331024D2*
X244409Y4291654D1*
X228661D1*
X236535Y4331024D1*
G37*
Y2362520D2*
D13*
Y433386D1*
G36*
Y394016D2*
X228661Y433386D1*
X244409D1*
X236535Y394016D1*
G37*
X1102677Y1279843D2*
D13*
X649921D1*
X748346Y571829D2*
X649921D1*
X669606Y925836D2*
Y1240472D1*
G36*
Y1279843D2*
X677480Y1240472D1*
X661732D1*
X669606Y1279843D1*
G37*
Y925836D2*
D13*
Y611199D1*
G36*
Y571829D2*
X661732Y611199D1*
X677480D1*
X669606Y571829D1*
G37*
X394016Y4331024D2*
D13*
Y4516115D1*
X3012126Y4331024D2*
Y4516115D1*
X1703071Y4496430D2*
X433386D1*
G36*
X394016D2*
X433386Y4504304D1*
Y4488556D1*
X394016Y4496430D1*
G37*
X1703071D2*
D13*
X2972756D1*
G36*
X3012126D2*
X2972756Y4488556D1*
Y4504304D1*
X3012126Y4496430D1*
G37*
X191826Y2321664D2*
D35*
X189881Y2325511D1*
X184177Y2331259D1*
X224325D1*
X184177Y2355106D2*
X186078Y2349358D1*
X191826Y2345512D1*
X201377Y2343610D1*
X207125D1*
X216675Y2345512D1*
X222423Y2349358D1*
X224325Y2355106D1*
Y2358909D1*
X222423Y2364657D1*
X216675Y2368459D1*
X207125Y2370405D1*
X201377D1*
X191826Y2368459D1*
X186078Y2364657D1*
X184177Y2358909D1*
Y2355106D1*
X191826Y2368459D2*
X216675Y2345512D1*
X184177Y2394252D2*
X186078Y2388504D1*
X191826Y2384658D1*
X201377Y2382756D1*
X207125D1*
X216675Y2384658D1*
X222423Y2388504D1*
X224325Y2394252D1*
Y2398055D1*
X222423Y2403803D1*
X216675Y2407606D1*
X207125Y2409551D1*
X201377D1*
X191826Y2407606D1*
X186078Y2403803D1*
X184177Y2398055D1*
Y2394252D1*
X191826Y2407606D2*
X216675Y2384658D1*
X624897Y858281D2*
X622952Y862128D1*
X617248Y867876D1*
X657396D1*
Y887876D2*
X617248Y907022D1*
Y880227D1*
X653549Y921275D2*
X655494Y919373D1*
X657396Y921275D1*
X655494Y923220D1*
X653549Y921275D1*
X630601Y960465D2*
X636349Y958519D1*
X640196Y954717D1*
X642097Y948969D1*
Y947067D1*
X640196Y941319D1*
X636349Y937517D1*
X630601Y935571D1*
X628700D1*
X622952Y937517D1*
X619149Y941319D1*
X617248Y947067D1*
Y948969D1*
X619149Y954717D1*
X622952Y958519D1*
X630601Y960465D1*
X640196D1*
X649746Y958519D1*
X655494Y954717D1*
X657396Y948969D1*
Y945166D1*
X655494Y939418D1*
X651648Y937517D1*
X617248Y982367D2*
X619149Y976663D1*
X622952Y974717D1*
X626798D1*
X630601Y976663D1*
X632546Y980465D1*
X634448Y988115D1*
X636349Y993863D1*
X640196Y997665D1*
X643998Y999567D1*
X649746D1*
X653549Y997665D1*
X655494Y995764D1*
X657396Y990016D1*
Y982367D1*
X655494Y976663D1*
X653549Y974717D1*
X649746Y972816D1*
X643998D1*
X640196Y974717D1*
X636349Y978564D1*
X634448Y984268D1*
X632546Y991917D1*
X630601Y995764D1*
X626798Y997665D1*
X622952D1*
X619149Y995764D1*
X617248Y990016D1*
Y982367D1*
X1670410Y4543085D2*
X1668508Y4546888D1*
X1662760Y4548789D1*
X1658958D1*
X1653210Y4546888D1*
X1649363Y4541140D1*
X1647462Y4531589D1*
Y4522039D1*
X1649363Y4514389D1*
X1653210Y4510542D1*
X1658958Y4508641D1*
X1660859D1*
X1666563Y4510542D1*
X1670410Y4514389D1*
X1672311Y4520137D1*
Y4522039D1*
X1670410Y4527787D1*
X1666563Y4531589D1*
X1660859Y4533490D1*
X1658958D1*
X1653210Y4531589D1*
X1649363Y4527787D1*
X1647462Y4522039D1*
X1707610Y4543085D2*
X1705709Y4546888D1*
X1699961Y4548789D1*
X1696158D1*
X1690410Y4546888D1*
X1686564Y4541140D1*
X1684662Y4531589D1*
Y4522039D1*
X1686564Y4514389D1*
X1690410Y4510542D1*
X1696158Y4508641D1*
X1698060D1*
X1703763Y4510542D1*
X1707610Y4514389D1*
X1709511Y4520137D1*
Y4522039D1*
X1707610Y4527787D1*
X1703763Y4531589D1*
X1698060Y4533490D1*
X1696158D1*
X1690410Y4531589D1*
X1686564Y4527787D1*
X1684662Y4522039D1*
X1723764Y4512488D2*
X1721863Y4510542D1*
X1723764Y4508641D1*
X1725710Y4510542D1*
X1723764Y4512488D1*
X1761009Y4548789D2*
X1741908D1*
X1740007Y4531589D1*
X1741908Y4533490D1*
X1747656Y4535436D1*
X1753360D1*
X1759108Y4533490D1*
X1762954Y4529688D1*
X1764856Y4523940D1*
Y4520137D1*
X1762954Y4514389D1*
X1759108Y4510542D1*
X1753360Y4508641D1*
X1747656D1*
X1741908Y4510542D1*
X1740007Y4512488D1*
X1738061Y4516291D1*
M02*
