G04 DipTrace 4.2.0.1*
G04 TopSilk.gbr*
%MOIN*%
G04 #@! TF.FileFunction,Legend,Top*
G04 #@! TF.Part,Single*
%ADD10C,0.009843*%
%ADD17C,0.001312*%
%ADD57C,0.00772*%
%ADD58C,0.009264*%
%ADD59C,0.012351*%
%ADD60C,0.006176*%
%FSLAX26Y26*%
G04*
G70*
G90*
G75*
G01*
G04 TopSilk*
%LPD*%
X1808831Y2122307D2*
D10*
X1631665D1*
Y1728606D1*
X1808831D1*
Y2122307D1*
X1773398D2*
Y1728606D1*
X2866139Y1728622D2*
X3043304D1*
Y2122323D1*
X2866139D1*
Y1728622D1*
X2901572D2*
Y2122323D1*
X1295720Y1926231D2*
X1288634D1*
X1204382D2*
X1197295D1*
X1204382Y2083617D2*
X1197295D1*
X1295720D2*
X1288634D1*
X1197295Y1926231D2*
Y2083617D1*
X1295720Y1926231D2*
Y2083617D1*
X2602450Y828727D2*
X2595364D1*
X2511112D2*
X2504025D1*
X2511112Y986113D2*
X2504025D1*
X2602450D2*
X2595364D1*
X2504025Y828727D2*
Y986113D1*
X2602450Y828727D2*
Y986113D1*
X1584810Y826761D2*
X1577723D1*
X1493471D2*
X1486385D1*
X1493471Y984147D2*
X1486385D1*
X1584810D2*
X1577723D1*
X1486385Y826761D2*
Y984147D1*
X1584810Y826761D2*
Y984147D1*
X1169291Y2695276D2*
X992126D1*
Y2301575D1*
X1169291D1*
Y2695276D1*
X1133858D2*
Y2301575D1*
X1376762Y2422831D2*
X1304251Y2422530D1*
X1301029Y2423366D2*
Y2580850D1*
X1375551Y2457333D2*
X1302278D1*
X1376945Y2583728D2*
X1303420Y2583528D1*
X1377197Y2425039D2*
X1376945Y2583728D1*
X689228Y2489361D2*
Y2512920D1*
X626299Y2489361D2*
Y2512920D1*
X403675Y1885875D2*
X803675D1*
Y2285875D1*
X403675D1*
Y1885875D1*
X1920415Y904239D2*
X1857486D1*
X1920415Y896790D2*
X1857486D1*
X1920415D2*
Y920349D1*
X1857486Y896790D2*
Y920349D1*
X2247025Y880667D2*
X2184096D1*
X2247025Y873218D2*
X2184096D1*
X2247025D2*
Y896777D1*
X2184096Y873218D2*
Y896777D1*
X1207827Y1651542D2*
Y1714471D1*
X1200378Y1651542D2*
Y1714471D1*
Y1651542D2*
X1223937D1*
X1200378Y1714471D2*
X1223937D1*
X1822835Y1728622D2*
X2000000D1*
Y2122323D1*
X1822835D1*
Y1728622D1*
X1858268D2*
Y2122323D1*
X585555Y1770320D2*
Y1795621D1*
X685655Y1770320D2*
X585555D1*
X685655D2*
Y1795621D1*
X585555Y695621D2*
Y720921D1*
X685655D2*
X585555D1*
X685655Y695621D2*
Y720921D1*
X810605Y695621D2*
X460605D1*
X810605Y1795621D2*
X460605D1*
X810605Y695621D2*
Y1795621D1*
X490705Y1325921D2*
X460605D1*
X490705Y1165320D2*
Y1325921D1*
Y1165320D2*
X460605D1*
Y695621D2*
Y1165320D1*
Y1325921D2*
Y1795621D1*
X1346618Y901461D2*
D17*
G02X1346618Y901461I196850J0D01*
G01*
X2356387Y903869D2*
G02X2356387Y903869I196850J0D01*
G01*
X1056094Y2004138D2*
G02X1056094Y2004138I196850J0D01*
G01*
X2676144Y1788803D2*
D58*
Y1728515D1*
X2694671Y1768707D2*
Y1728515D1*
Y1757233D2*
X2703293Y1765855D1*
X2709063Y1768707D1*
X2717619D1*
X2723389Y1765855D1*
X2726241Y1757233D1*
Y1728515D1*
X2628620Y2140531D2*
X2622850Y2137680D1*
X2617146Y2131909D1*
X2614228Y2126206D1*
X2611376Y2117584D1*
Y2103191D1*
X2614228Y2094636D1*
X2617146Y2088866D1*
X2622850Y2083162D1*
X2628620Y2080243D1*
X2640094D1*
X2645798Y2083162D1*
X2651568Y2088866D1*
X2654420Y2094636D1*
X2657272Y2103191D1*
Y2117584D1*
X2654420Y2126206D1*
X2651568Y2131909D1*
X2645798Y2137680D1*
X2640094Y2140531D1*
X2628620D1*
X2675799Y2120435D2*
Y2091717D1*
X2678651Y2083162D1*
X2684421Y2080243D1*
X2693043D1*
X2698747Y2083162D1*
X2707369Y2091717D1*
Y2120435D2*
Y2080243D1*
X2734518Y2140531D2*
Y2091717D1*
X2737370Y2083162D1*
X2743140Y2080243D1*
X2748844D1*
X2725896Y2120435D2*
X2745992D1*
X2630533Y1952072D2*
X2627681Y1957776D1*
X2621911Y1963546D1*
X2616207Y1966398D1*
X2604733D1*
X2598963Y1963546D1*
X2593259Y1957776D1*
X2590341Y1952072D1*
X2587489Y1943450D1*
Y1929058D1*
X2590341Y1920502D1*
X2593259Y1914732D1*
X2598963Y1909028D1*
X2604733Y1906110D1*
X2616207D1*
X2621911Y1909028D1*
X2627681Y1914732D1*
X2630533Y1920502D1*
Y1929058D1*
X2616207D1*
X2649060Y1946302D2*
Y1906110D1*
Y1934828D2*
X2657682Y1943450D1*
X2663452Y1946302D1*
X2672008D1*
X2677778Y1943450D1*
X2680630Y1934828D1*
Y1906110D1*
X2733579Y1966398D2*
Y1906110D1*
Y1937680D2*
X2727875Y1943450D1*
X2722105Y1946302D1*
X2713483D1*
X2707779Y1943450D1*
X2702009Y1937680D1*
X2699157Y1929058D1*
Y1923354D1*
X2702009Y1914732D1*
X2707779Y1909028D1*
X2713483Y1906110D1*
X2722105D1*
X2727875Y1909028D1*
X2733579Y1914732D1*
X2129220Y1844458D2*
Y1784170D1*
X2147747Y1824362D2*
Y1784170D1*
Y1812888D2*
X2156369Y1821510D1*
X2162139Y1824362D1*
X2170695D1*
X2176465Y1821510D1*
X2179317Y1812888D1*
Y1784170D1*
X2146464Y2064457D2*
X2140694Y2061605D1*
X2134990Y2055835D1*
X2132072Y2050131D1*
X2129220Y2041509D1*
Y2027117D1*
X2132072Y2018561D1*
X2134990Y2012791D1*
X2140694Y2007087D1*
X2146464Y2004169D1*
X2157938D1*
X2163642Y2007087D1*
X2169412Y2012791D1*
X2172264Y2018561D1*
X2175116Y2027117D1*
Y2041509D1*
X2172264Y2050131D1*
X2169412Y2055835D1*
X2163642Y2061605D1*
X2157938Y2064457D1*
X2146464D1*
X2193643Y2044361D2*
Y2015643D1*
X2196495Y2007087D1*
X2202265Y2004169D1*
X2210887D1*
X2216591Y2007087D1*
X2225213Y2015643D1*
Y2044361D2*
Y2004169D1*
X2252362Y2064457D2*
Y2015643D1*
X2255214Y2007087D1*
X2260984Y2004169D1*
X2266688D1*
X2243740Y2044361D2*
X2263836D1*
X2167953Y1942901D2*
X2165101Y1948605D1*
X2159331Y1954375D1*
X2153627Y1957227D1*
X2142153D1*
X2136383Y1954375D1*
X2130679Y1948605D1*
X2127761Y1942901D1*
X2124909Y1934279D1*
Y1919887D1*
X2127761Y1911331D1*
X2130679Y1905561D1*
X2136383Y1899857D1*
X2142153Y1896939D1*
X2153627D1*
X2159331Y1899857D1*
X2165101Y1905561D1*
X2167953Y1911331D1*
Y1919887D1*
X2153627D1*
X2186480Y1937131D2*
Y1896939D1*
Y1925657D2*
X2195102Y1934279D1*
X2200872Y1937131D1*
X2209428D1*
X2215198Y1934279D1*
X2218050Y1925657D1*
Y1896939D1*
X2270999Y1957227D2*
Y1896939D1*
Y1928509D2*
X2265295Y1934279D1*
X2259525Y1937131D1*
X2250903D1*
X2245199Y1934279D1*
X2239429Y1928509D1*
X2236577Y1919887D1*
Y1914183D1*
X2239429Y1905561D1*
X2245199Y1899857D1*
X2250903Y1896939D1*
X2259525D1*
X2265295Y1899857D1*
X2270999Y1905561D1*
X1385327Y2235547D2*
Y2183881D1*
X1359527Y2209681D2*
X1411193D1*
X1446745Y1141543D2*
Y1089877D1*
X1420945Y1115677D2*
X1472611D1*
X1873170Y2709220D2*
D59*
Y2628836D1*
X1846375Y2709220D2*
X1899965D1*
X1962958Y2628836D2*
Y2709132D1*
X1924667Y2655631D1*
X1982059D1*
X2006762Y2693833D2*
X2014456Y2697724D1*
X2025952Y2709132D1*
Y2628836D1*
X2128416Y2667127D2*
X2162904D1*
X2174312Y2670930D1*
X2178203Y2674821D1*
X2182005Y2682426D1*
Y2693922D1*
X2178203Y2701527D1*
X2174312Y2705418D1*
X2162904Y2709220D1*
X2128416D1*
Y2628836D1*
X2225809Y2682426D2*
X2218204Y2678623D1*
X2210511Y2670930D1*
X2206708Y2659434D1*
Y2651829D1*
X2210511Y2640332D1*
X2218204Y2632727D1*
X2225809Y2628836D1*
X2237305D1*
X2244999Y2632727D1*
X2252604Y2640332D1*
X2256495Y2651829D1*
Y2659434D1*
X2252604Y2670930D1*
X2244999Y2678623D1*
X2237305Y2682426D1*
X2225809D1*
X2281198D2*
X2296496Y2628836D1*
X2311795Y2682426D1*
X2327093Y2628836D1*
X2342392Y2682426D1*
X2367095Y2659434D2*
X2412991D1*
Y2667127D1*
X2409188Y2674821D1*
X2405386Y2678623D1*
X2397692Y2682426D1*
X2386196D1*
X2378591Y2678623D1*
X2370897Y2670930D1*
X2367095Y2659434D1*
Y2651829D1*
X2370897Y2640332D1*
X2378591Y2632727D1*
X2386196Y2628836D1*
X2397692D1*
X2405386Y2632727D1*
X2412991Y2640332D1*
X2437693Y2682426D2*
Y2628836D1*
Y2659434D2*
X2441584Y2670930D1*
X2449190Y2678623D1*
X2456883Y2682426D1*
X2468379D1*
X2624433Y2697724D2*
X2616828Y2705418D1*
X2605332Y2709220D1*
X2590033D1*
X2578537Y2705418D1*
X2570843Y2697724D1*
Y2690119D1*
X2574734Y2682426D1*
X2578537Y2678623D1*
X2586142Y2674821D1*
X2609134Y2667127D1*
X2616828Y2663325D1*
X2620630Y2659434D1*
X2624433Y2651829D1*
Y2640332D1*
X2616828Y2632727D1*
X2605332Y2628836D1*
X2590033D1*
X2578537Y2632727D1*
X2570843Y2640332D1*
X2649136Y2682426D2*
Y2644135D1*
X2652938Y2632727D1*
X2660632Y2628836D1*
X2672128D1*
X2679733Y2632727D1*
X2691229Y2644135D1*
Y2682426D2*
Y2628836D1*
X2715932Y2682426D2*
Y2602042D1*
Y2670930D2*
X2723625Y2678535D1*
X2731230Y2682426D1*
X2742726D1*
X2750420Y2678535D1*
X2758025Y2670930D1*
X2761916Y2659434D1*
Y2651740D1*
X2758025Y2640332D1*
X2750420Y2632639D1*
X2742726Y2628836D1*
X2731230D1*
X2723625Y2632639D1*
X2715932Y2640332D1*
X2786619Y2682426D2*
Y2602042D1*
Y2670930D2*
X2794312Y2678535D1*
X2801917Y2682426D1*
X2813413D1*
X2821107Y2678535D1*
X2828712Y2670930D1*
X2832603Y2659434D1*
Y2651740D1*
X2828712Y2640332D1*
X2821107Y2632639D1*
X2813413Y2628836D1*
X2801917D1*
X2794312Y2632639D1*
X2786619Y2640332D1*
X2857306Y2709220D2*
Y2628836D1*
X2885900Y2682426D2*
X2908803Y2628836D1*
X2901198Y2613538D1*
X2893505Y2605844D1*
X2885900Y2602042D1*
X2882009D1*
X2931795Y2682426D2*
X2908803Y2628836D1*
X1016300Y918484D2*
D58*
X1013448Y924188D1*
X1007678Y929958D1*
X1001974Y932810D1*
X990501D1*
X984730Y929958D1*
X979027Y924188D1*
X976108Y918484D1*
X973256Y909862D1*
Y895470D1*
X976108Y886914D1*
X979027Y881144D1*
X984730Y875440D1*
X990501Y872522D1*
X1001974D1*
X1007678Y875440D1*
X1013448Y881144D1*
X1016300Y886914D1*
Y895470D1*
X1001974D1*
X1034827Y912714D2*
Y872522D1*
Y901240D2*
X1043450Y909862D1*
X1049220Y912714D1*
X1057775D1*
X1063546Y909862D1*
X1066397Y901240D1*
Y872522D1*
X1119346Y932810D2*
Y872522D1*
Y904092D2*
X1113643Y909862D1*
X1107872Y912714D1*
X1099250D1*
X1093547Y909862D1*
X1087776Y904092D1*
X1084925Y895470D1*
Y889766D1*
X1087776Y881144D1*
X1093547Y875440D1*
X1099250Y872522D1*
X1107872D1*
X1113643Y875440D1*
X1119346Y881144D1*
X993984Y1127622D2*
D57*
Y1084567D1*
X972484Y1106067D2*
X1015539D1*
X1035787Y1131187D2*
X1062040D1*
X1047725Y1112064D1*
X1054910D1*
X1059664Y1109687D1*
X1062040Y1107311D1*
X1064472Y1100126D1*
Y1095373D1*
X1062040Y1088188D1*
X1057287Y1083379D1*
X1050102Y1081002D1*
X1042917D1*
X1035787Y1083379D1*
X1033411Y1085811D1*
X1030979Y1090564D1*
X1082288Y1085811D2*
X1079911Y1083379D1*
X1082288Y1081002D1*
X1084720Y1083379D1*
X1082288Y1085811D1*
X1104967Y1131187D2*
X1131220D1*
X1116906Y1112064D1*
X1124091D1*
X1128844Y1109687D1*
X1131220Y1107311D1*
X1133652Y1100126D1*
Y1095373D1*
X1131220Y1088188D1*
X1126467Y1083379D1*
X1119282Y1081002D1*
X1112097D1*
X1104967Y1083379D1*
X1102591Y1085811D1*
X1100159Y1090564D1*
X993984Y1355116D2*
Y1312061D1*
X972484Y1333561D2*
X1015539D1*
X1059664Y1358681D2*
X1035787D1*
X1033411Y1337181D1*
X1035787Y1339558D1*
X1042972Y1341990D1*
X1050102D1*
X1057287Y1339558D1*
X1062095Y1334804D1*
X1064472Y1327619D1*
Y1322866D1*
X1062095Y1315681D1*
X1057287Y1310873D1*
X1050102Y1308496D1*
X1042972D1*
X1035787Y1310873D1*
X1033411Y1313305D1*
X1030979Y1318058D1*
X993984Y1517988D2*
Y1474933D1*
X972484Y1496433D2*
X1015539D1*
X1030979Y1511991D2*
X1035787Y1514423D1*
X1042972Y1521553D1*
Y1471368D1*
X1060843Y1509614D2*
Y1511991D1*
X1063220Y1516799D1*
X1065596Y1519176D1*
X1070405Y1521553D1*
X1079967D1*
X1084720Y1519176D1*
X1087096Y1516799D1*
X1089528Y1511991D1*
Y1507238D1*
X1087096Y1502429D1*
X1082343Y1495300D1*
X1058411Y1471368D1*
X1091905D1*
X1556625Y2669205D2*
D58*
X1579573Y2608917D1*
X1602521Y2669205D1*
X1638292Y2669138D2*
X1629670Y2666286D1*
X1623900Y2657664D1*
X1621048Y2643339D1*
Y2634716D1*
X1623900Y2620391D1*
X1629670Y2611769D1*
X1638292Y2608917D1*
X1643996D1*
X1652618Y2611769D1*
X1658322Y2620391D1*
X1661240Y2634716D1*
Y2643339D1*
X1658322Y2657664D1*
X1652618Y2666286D1*
X1643996Y2669138D1*
X1638292D1*
X1658322Y2657664D2*
X1623900Y2620391D1*
X1679767Y2657664D2*
X1685537Y2660583D1*
X1694159Y2669138D1*
Y2608917D1*
X1712687Y2657664D2*
X1718457Y2660583D1*
X1727079Y2669138D1*
Y2608917D1*
X2142153Y2366422D2*
X2133531Y2363570D1*
X2127761Y2354948D1*
X2124909Y2340622D1*
Y2332000D1*
X2127761Y2317674D1*
X2133531Y2309052D1*
X2142153Y2306200D1*
X2147857D1*
X2156479Y2309052D1*
X2162182Y2317674D1*
X2165101Y2332000D1*
Y2340622D1*
X2162182Y2354948D1*
X2156479Y2363570D1*
X2147857Y2366422D1*
X2142153D1*
X2162182Y2354948D2*
X2127761Y2317674D1*
X2195102Y2306200D2*
X2223820Y2366422D1*
X2183628D1*
X2242347Y2336311D2*
X2275509D1*
X2311280Y2366422D2*
X2302658Y2363570D1*
X2296888Y2354948D1*
X2294036Y2340622D1*
Y2332000D1*
X2296888Y2317674D1*
X2302658Y2309052D1*
X2311280Y2306200D1*
X2316984D1*
X2325606Y2309052D1*
X2331309Y2317674D1*
X2334228Y2332000D1*
Y2340622D1*
X2331309Y2354948D1*
X2325606Y2363570D1*
X2316984Y2366422D1*
X2311280D1*
X2331309Y2354948D2*
X2296888Y2317674D1*
X2387177Y2366422D2*
X2358525D1*
X2355673Y2340622D1*
X2358525Y2343474D1*
X2367147Y2346392D1*
X2375703D1*
X2384325Y2343474D1*
X2390095Y2337770D1*
X2392947Y2329148D1*
Y2323444D1*
X2390095Y2314822D1*
X2384325Y2309052D1*
X2375703Y2306200D1*
X2367147D1*
X2358525Y2309052D1*
X2355673Y2311970D1*
X2352755Y2317674D1*
X2411474Y2336311D2*
X2444636D1*
X2466081Y2352096D2*
Y2354948D1*
X2468933Y2360718D1*
X2471785Y2363570D1*
X2477555Y2366422D1*
X2489029D1*
X2494733Y2363570D1*
X2497585Y2360718D1*
X2500503Y2354948D1*
Y2349244D1*
X2497585Y2343474D1*
X2491881Y2334918D1*
X2463163Y2306200D1*
X2503355D1*
X2524800Y2352096D2*
Y2354948D1*
X2527652Y2360718D1*
X2530504Y2363570D1*
X2536274Y2366422D1*
X2547748D1*
X2553452Y2363570D1*
X2556304Y2360718D1*
X2559222Y2354948D1*
Y2349244D1*
X2556304Y2343474D1*
X2550600Y2334918D1*
X2521882Y2306200D1*
X2562074D1*
X2212539Y2483494D2*
X2189525Y2543782D1*
X2166577Y2483494D1*
X2175199Y2503590D2*
X2203917D1*
X2274110Y2529456D2*
X2271258Y2535160D1*
X2265488Y2540930D1*
X2259784Y2543782D1*
X2248310D1*
X2242540Y2540930D1*
X2236836Y2535160D1*
X2233918Y2529456D1*
X2231066Y2520834D1*
Y2506442D1*
X2233918Y2497886D1*
X2236836Y2492116D1*
X2242540Y2486412D1*
X2248310Y2483494D1*
X2259784D1*
X2265488Y2486412D1*
X2271258Y2492116D1*
X2274110Y2497886D1*
X2306963Y2543716D2*
X2298407Y2540864D1*
X2295489Y2535160D1*
Y2529390D1*
X2298407Y2523686D1*
X2304111Y2520768D1*
X2315585Y2517916D1*
X2324207Y2515064D1*
X2329911Y2509294D1*
X2332763Y2503590D1*
Y2494968D1*
X2329911Y2489264D1*
X2327059Y2486346D1*
X2318437Y2483494D1*
X2306963D1*
X2298407Y2486346D1*
X2295489Y2489264D1*
X2292637Y2494968D1*
Y2503590D1*
X2295489Y2509294D1*
X2301259Y2515064D1*
X2309815Y2517916D1*
X2321289Y2520768D1*
X2327059Y2523686D1*
X2329911Y2529390D1*
Y2535160D1*
X2327059Y2540864D1*
X2318437Y2543716D1*
X2306963D1*
X2394334Y2529456D2*
X2391482Y2535160D1*
X2385712Y2540930D1*
X2380008Y2543782D1*
X2368534D1*
X2362764Y2540930D1*
X2357060Y2535160D1*
X2354142Y2529456D1*
X2351290Y2520834D1*
Y2506442D1*
X2354142Y2497886D1*
X2357060Y2492116D1*
X2362764Y2486412D1*
X2368534Y2483494D1*
X2380008D1*
X2385712Y2486412D1*
X2391482Y2492116D1*
X2394334Y2497886D1*
Y2506442D1*
X2380008D1*
X2412861Y2543782D2*
X2435809Y2515064D1*
Y2483494D1*
X2458757Y2543782D2*
X2435809Y2515064D1*
X870957Y1988276D2*
X868105Y1993980D1*
X862334Y1999750D1*
X856631Y2002602D1*
X845157D1*
X839387Y1999750D1*
X833683Y1993980D1*
X830765Y1988276D1*
X827913Y1979654D1*
Y1965262D1*
X830765Y1956707D1*
X833683Y1950936D1*
X839387Y1945233D1*
X845157Y1942314D1*
X856631D1*
X862334Y1945233D1*
X868105Y1950936D1*
X870957Y1956707D1*
Y1965262D1*
X856631D1*
X889484Y1982506D2*
Y1942314D1*
Y1971032D2*
X898106Y1979654D1*
X903876Y1982506D1*
X912432D1*
X918202Y1979654D1*
X921054Y1971032D1*
Y1942314D1*
X974003Y2002602D2*
Y1942314D1*
Y1973884D2*
X968299Y1979654D1*
X962529Y1982506D1*
X953907D1*
X948203Y1979654D1*
X942433Y1973884D1*
X939581Y1965262D1*
Y1959558D1*
X942433Y1950936D1*
X948203Y1945233D1*
X953907Y1942314D1*
X962529D1*
X968299Y1945233D1*
X974003Y1950936D1*
X856836Y2225751D2*
D57*
Y2182696D1*
X835336Y2204195D2*
X878391D1*
X893830Y2219754D2*
X898639Y2222186D1*
X905824Y2229315D1*
Y2179131D1*
X923695Y2217377D2*
Y2219754D1*
X926072Y2224562D1*
X928448Y2226939D1*
X933257Y2229315D1*
X942818D1*
X947571Y2226939D1*
X949948Y2224562D1*
X952380Y2219754D1*
Y2215001D1*
X949948Y2210192D1*
X945195Y2203062D1*
X921263Y2179131D1*
X954756D1*
X970196Y2204223D2*
X997830D1*
X1013270Y2229371D2*
Y2179131D1*
X1028709Y2212624D2*
Y2179131D1*
Y2203062D2*
X1035894Y2210247D1*
X1040702Y2212624D1*
X1047832D1*
X1052641Y2210247D1*
X1055017Y2203062D1*
Y2179131D1*
X2629235Y1131344D2*
D58*
X2680901D1*
X2655101Y1105544D2*
Y1157210D1*
X845151Y2522824D2*
D60*
Y2482632D1*
X858548D1*
X864296Y2484578D1*
X868143Y2488380D1*
X870044Y2492227D1*
X871946Y2497931D1*
Y2507526D1*
X870044Y2513274D1*
X868143Y2517076D1*
X864296Y2520923D1*
X858548Y2522824D1*
X845151D1*
X877996Y2641909D2*
X876095Y2645711D1*
X872248Y2649558D1*
X868446Y2651459D1*
X860797D1*
X856950Y2649558D1*
X853147Y2645711D1*
X851202Y2641909D1*
X849300Y2636161D1*
Y2626566D1*
X851202Y2620862D1*
X853147Y2617015D1*
X856950Y2613213D1*
X860797Y2611267D1*
X868446D1*
X872248Y2613213D1*
X876095Y2617015D1*
X877996Y2620862D1*
Y2626566D1*
X868446D1*
X870780Y2407189D2*
X866978Y2411036D1*
X861230Y2412937D1*
X853580D1*
X847832Y2411036D1*
X843985Y2407189D1*
Y2403386D1*
X845931Y2399540D1*
X847832Y2397638D1*
X851635Y2395737D1*
X863131Y2391890D1*
X866978Y2389989D1*
X868879Y2388044D1*
X870780Y2384241D1*
Y2378493D1*
X866978Y2374690D1*
X861230Y2372745D1*
X853580D1*
X847832Y2374690D1*
X843985Y2378493D1*
X545125Y1710456D2*
D57*
X549933Y1712888D1*
X557118Y1720018D1*
Y1669833D1*
X638306Y645960D2*
Y607713D1*
X635929Y600528D1*
X633498Y598152D1*
X628744Y595720D1*
X623936D1*
X619183Y598152D1*
X616806Y600528D1*
X614374Y607713D1*
Y612467D1*
X653745Y636343D2*
X658554Y638775D1*
X665739Y645905D1*
Y595720D1*
X949860Y1282347D2*
Y1232106D1*
X933114Y1282347D2*
X966607D1*
X982046Y1256038D2*
X1003601D1*
X1010731Y1258415D1*
X1013163Y1260847D1*
X1015539Y1265600D1*
Y1272785D1*
X1013163Y1277538D1*
X1010731Y1279970D1*
X1003601Y1282347D1*
X982046D1*
Y1232106D1*
X1030979Y1272730D2*
X1035787Y1275161D1*
X1042972Y1282291D1*
Y1232106D1*
X1060843Y1270353D2*
Y1272730D1*
X1063220Y1277538D1*
X1065596Y1279915D1*
X1070405Y1282291D1*
X1079967D1*
X1084720Y1279915D1*
X1087096Y1277538D1*
X1089528Y1272730D1*
Y1267976D1*
X1087096Y1263168D1*
X1082343Y1256038D1*
X1058411Y1232106D1*
X1091905D1*
X949860Y1054936D2*
Y1004696D1*
X933114Y1054936D2*
X966607D1*
X982046Y1028628D2*
X1003601D1*
X1010731Y1031004D1*
X1013163Y1033436D1*
X1015539Y1038189D1*
Y1045374D1*
X1013163Y1050128D1*
X1010731Y1052559D1*
X1003601Y1054936D1*
X982046D1*
Y1004696D1*
X1030979Y1045319D2*
X1035787Y1047751D1*
X1042972Y1054881D1*
Y1004696D1*
X1082343D2*
Y1054881D1*
X1058411Y1021443D1*
X1094281D1*
X1558442Y1735299D2*
X1608682D1*
Y1763984D1*
Y1817670D2*
X1558442D1*
X1608682Y1798546D1*
X1558442Y1779423D1*
X1608682D1*
X1568059Y1833109D2*
X1565627Y1837917D1*
X1558498Y1845102D1*
X1608682D1*
X1568059Y1860542D2*
X1565627Y1865350D1*
X1558498Y1872535D1*
X1608682D1*
X1568059Y1887974D2*
X1565627Y1892783D1*
X1558498Y1899968D1*
X1608682D1*
Y1924969D2*
X1558498Y1948900D1*
Y1915407D1*
Y2017749D2*
Y2044002D1*
X1577621Y2029687D1*
Y2036872D1*
X1579997Y2041626D1*
X1582374Y2044002D1*
X1589559Y2046434D1*
X1594312D1*
X1601497Y2044002D1*
X1606306Y2039249D1*
X1608682Y2032064D1*
Y2024879D1*
X1606306Y2017749D1*
X1603874Y2015373D1*
X1599121Y2012941D1*
X1603874Y2064250D2*
X1606306Y2061873D1*
X1608682Y2064250D1*
X1606306Y2066682D1*
X1603874Y2064250D1*
X1558498Y2086929D2*
Y2113182D1*
X1577621Y2098868D1*
Y2106053D1*
X1579997Y2110806D1*
X1582374Y2113182D1*
X1589559Y2115614D1*
X1594312D1*
X1601497Y2113182D1*
X1606306Y2108429D1*
X1608682Y2101244D1*
Y2094059D1*
X1606306Y2086929D1*
X1603874Y2084553D1*
X1599121Y2082121D1*
X2792916Y1736329D2*
X2843156D1*
Y1765014D1*
Y1818699D2*
X2792916D1*
X2843156Y1799576D1*
X2792916Y1780453D1*
X2843156D1*
Y1843700D2*
X2792971Y1867632D1*
Y1834139D1*
Y1895009D2*
X2795348Y1887880D1*
X2800101Y1885448D1*
X2804910D1*
X2809663Y1887880D1*
X2812095Y1892633D1*
X2814471Y1902194D1*
X2816848Y1909379D1*
X2821656Y1914133D1*
X2826409Y1916509D1*
X2833594D1*
X2838348Y1914133D1*
X2840779Y1911756D1*
X2843156Y1904571D1*
Y1895009D1*
X2840779Y1887880D1*
X2838348Y1885448D1*
X2833594Y1883071D1*
X2826409D1*
X2821656Y1885448D1*
X2816848Y1890256D1*
X2814471Y1897386D1*
X2812095Y1906948D1*
X2809663Y1911756D1*
X2804910Y1914133D1*
X2800101D1*
X2795348Y1911756D1*
X2792971Y1904571D1*
Y1895009D1*
Y1946319D2*
X2795348Y1939134D1*
X2802533Y1934325D1*
X2814471Y1931948D1*
X2821656D1*
X2833594Y1934325D1*
X2840779Y1939134D1*
X2843156Y1946319D1*
Y1951072D1*
X2840779Y1958257D1*
X2833594Y1963010D1*
X2821656Y1965442D1*
X2814471D1*
X2802533Y1963010D1*
X2795348Y1958257D1*
X2792971Y1951072D1*
Y1946319D1*
X2802533Y1963010D2*
X2833594Y1934325D1*
X2792971Y2009566D2*
Y1985690D1*
X2814471Y1983313D1*
X2812095Y1985690D1*
X2809663Y1992875D1*
Y2000004D1*
X2812095Y2007189D1*
X2816848Y2011998D1*
X2824033Y2014374D1*
X2828786D1*
X2835971Y2011998D1*
X2840779Y2007189D1*
X2843156Y2000004D1*
Y1992875D1*
X2840779Y1985690D1*
X2838348Y1983313D1*
X2833594Y1980881D1*
X2804854Y2065684D2*
X2800101Y2063307D1*
X2795293Y2058499D1*
X2792916Y2053745D1*
Y2044184D1*
X2795293Y2039375D1*
X2800101Y2034622D1*
X2804854Y2032190D1*
X2812039Y2029814D1*
X2824033D1*
X2831163Y2032190D1*
X2835971Y2034622D1*
X2840724Y2039375D1*
X2843156Y2044184D1*
Y2053745D1*
X2840724Y2058499D1*
X2835971Y2063307D1*
X2831163Y2065684D1*
X2792916Y2097870D2*
X2843156D1*
X2792916Y2081123D2*
Y2114616D1*
X1136010Y2009142D2*
X1131257Y2006766D1*
X1126449Y2001957D1*
X1124072Y1997204D1*
Y1987643D1*
X1126449Y1982834D1*
X1131257Y1978081D1*
X1136010Y1975649D1*
X1143195Y1973273D1*
X1155189D1*
X1162319Y1975649D1*
X1167127Y1978081D1*
X1171880Y1982834D1*
X1174312Y1987643D1*
Y1997204D1*
X1171880Y2001957D1*
X1167127Y2006766D1*
X1162319Y2009142D1*
X1133689Y2024582D2*
X1131257Y2029390D1*
X1124127Y2036575D1*
X1174312D1*
X1322296Y1830233D2*
X1319864Y1835042D1*
X1312734Y1842227D1*
X1362919D1*
X1312734Y1872036D2*
X1315111Y1864851D1*
X1322296Y1860042D1*
X1334234Y1857666D1*
X1341419D1*
X1353358Y1860042D1*
X1360543Y1864851D1*
X1362919Y1872036D1*
Y1876789D1*
X1360543Y1883974D1*
X1353358Y1888727D1*
X1341419Y1891159D1*
X1334234D1*
X1322296Y1888727D1*
X1315111Y1883974D1*
X1312734Y1876789D1*
Y1872036D1*
X1322296Y1888727D2*
X1353358Y1860042D1*
X1329426Y1906598D2*
X1353358D1*
X1360487Y1908975D1*
X1362919Y1913783D1*
Y1920969D1*
X1360487Y1925722D1*
X1353358Y1932907D1*
X1329426D2*
X1362919D1*
X1312679Y1979463D2*
Y1948346D1*
X1362919D1*
X1336611D2*
Y1967469D1*
X1312734Y2072188D2*
Y2048311D1*
X1334234Y2045935D1*
X1331858Y2048311D1*
X1329426Y2055496D1*
Y2062626D1*
X1331858Y2069811D1*
X1336611Y2074620D1*
X1343796Y2076996D1*
X1348549D1*
X1355734Y2074620D1*
X1360543Y2069811D1*
X1362919Y2062626D1*
Y2055496D1*
X1360543Y2048311D1*
X1358111Y2045935D1*
X1353358Y2043503D1*
X1312734Y2106806D2*
X1315111Y2099621D1*
X1322296Y2094812D1*
X1334234Y2092436D1*
X1341419D1*
X1353358Y2094812D1*
X1360543Y2099621D1*
X1362919Y2106806D1*
Y2111559D1*
X1360543Y2118744D1*
X1353358Y2123497D1*
X1341419Y2125929D1*
X1334234D1*
X1322296Y2123497D1*
X1315111Y2118744D1*
X1312734Y2111559D1*
Y2106806D1*
X1322296Y2123497D2*
X1353358Y2094812D1*
X1312679Y2141368D2*
X1362919Y2160491D1*
X1312679Y2179615D1*
X2442740Y900889D2*
X2437987Y898512D1*
X2433178Y893704D1*
X2430802Y888950D1*
Y879389D1*
X2433178Y874580D1*
X2437987Y869827D1*
X2442740Y867395D1*
X2449925Y865019D1*
X2461919D1*
X2469048Y867395D1*
X2473857Y869827D1*
X2478610Y874580D1*
X2481042Y879389D1*
Y888950D1*
X2478610Y893704D1*
X2473857Y898512D1*
X2469048Y900889D1*
X2442795Y918760D2*
X2440419D1*
X2435610Y921136D1*
X2433234Y923513D1*
X2430857Y928321D1*
Y937883D1*
X2433234Y942636D1*
X2435610Y945013D1*
X2440419Y947445D1*
X2445172D1*
X2449980Y945013D1*
X2457110Y940260D1*
X2481042Y916328D1*
Y949821D1*
X2629026Y732729D2*
X2626594Y737538D1*
X2619464Y744723D1*
X2669649D1*
X2619464Y774532D2*
X2621841Y767347D1*
X2629026Y762539D1*
X2640964Y760162D1*
X2648149D1*
X2660087Y762539D1*
X2667272Y767347D1*
X2669649Y774532D1*
Y779285D1*
X2667272Y786470D1*
X2660087Y791223D1*
X2648149Y793655D1*
X2640964D1*
X2629026Y791223D1*
X2621841Y786470D1*
X2619464Y779285D1*
Y774532D1*
X2629026Y791223D2*
X2660087Y762539D1*
X2636155Y809095D2*
X2660087D1*
X2667217Y811471D1*
X2669649Y816280D1*
Y823465D1*
X2667217Y828218D1*
X2660087Y835403D1*
X2636155D2*
X2669649D1*
X2619409Y881959D2*
Y850842D1*
X2669649D1*
X2643341D2*
Y869965D1*
X2619464Y974684D2*
Y950807D1*
X2640964Y948431D1*
X2638587Y950807D1*
X2636155Y957993D1*
Y965122D1*
X2638587Y972307D1*
X2643341Y977116D1*
X2650526Y979492D1*
X2655279D1*
X2662464Y977116D1*
X2667272Y972307D1*
X2669649Y965122D1*
Y957993D1*
X2667272Y950807D1*
X2664840Y948431D1*
X2660087Y945999D1*
X2619464Y1009302D2*
X2621841Y1002117D1*
X2629026Y997308D1*
X2640964Y994932D1*
X2648149D1*
X2660087Y997308D1*
X2667272Y1002117D1*
X2669649Y1009302D1*
Y1014055D1*
X2667272Y1021240D1*
X2660087Y1025993D1*
X2648149Y1028425D1*
X2640964D1*
X2629026Y1025993D1*
X2621841Y1021240D1*
X2619464Y1014055D1*
Y1009302D1*
X2629026Y1025993D2*
X2660087Y997308D1*
X2619409Y1043864D2*
X2669649Y1062987D1*
X2619409Y1082111D1*
X1425100Y898923D2*
X1420346Y896546D1*
X1415538Y891738D1*
X1413161Y886985D1*
Y877423D1*
X1415538Y872614D1*
X1420346Y867861D1*
X1425100Y865429D1*
X1432285Y863053D1*
X1444278D1*
X1451408Y865429D1*
X1456216Y867861D1*
X1460970Y872614D1*
X1463401Y877423D1*
Y886985D1*
X1460970Y891738D1*
X1456216Y896546D1*
X1451408Y898923D1*
X1413217Y919170D2*
Y945423D1*
X1432340Y931109D1*
Y938294D1*
X1434717Y943047D1*
X1437093Y945423D1*
X1444278Y947855D1*
X1449031D1*
X1456216Y945423D1*
X1461025Y940670D1*
X1463401Y933485D1*
Y926300D1*
X1461025Y919170D1*
X1458593Y916794D1*
X1453840Y914362D1*
X1611385Y730763D2*
X1608953Y735572D1*
X1601824Y742757D1*
X1652008D1*
X1601824Y772566D2*
X1604200Y765381D1*
X1611385Y760573D1*
X1623324Y758196D1*
X1630509D1*
X1642447Y760573D1*
X1649632Y765381D1*
X1652008Y772566D1*
Y777319D1*
X1649632Y784504D1*
X1642447Y789258D1*
X1630509Y791689D1*
X1623324D1*
X1611385Y789258D1*
X1604200Y784504D1*
X1601824Y777319D1*
Y772566D1*
X1611385Y789258D2*
X1642447Y760573D1*
X1618515Y807129D2*
X1642447D1*
X1649577Y809505D1*
X1652008Y814314D1*
Y821499D1*
X1649577Y826252D1*
X1642447Y833437D1*
X1618515D2*
X1652008D1*
X1601768Y879993D2*
Y848876D1*
X1652008D1*
X1625700D2*
Y867999D1*
X1601824Y972718D2*
Y948842D1*
X1623324Y946465D1*
X1620947Y948842D1*
X1618515Y956027D1*
Y963156D1*
X1620947Y970341D1*
X1625700Y975150D1*
X1632885Y977526D1*
X1637638D1*
X1644823Y975150D1*
X1649632Y970341D1*
X1652008Y963156D1*
Y956027D1*
X1649632Y948842D1*
X1647200Y946465D1*
X1642447Y944033D1*
X1601824Y1007336D2*
X1604200Y1000151D1*
X1611385Y995342D1*
X1623324Y992966D1*
X1630509D1*
X1642447Y995342D1*
X1649632Y1000151D1*
X1652008Y1007336D1*
Y1012089D1*
X1649632Y1019274D1*
X1642447Y1024027D1*
X1630509Y1026459D1*
X1623324D1*
X1611385Y1024027D1*
X1604200Y1019274D1*
X1601824Y1012089D1*
Y1007336D1*
X1611385Y1024027D2*
X1642447Y995342D1*
X1601768Y1041898D2*
X1652008Y1061022D1*
X1601768Y1080145D1*
X918903Y2342720D2*
Y2311603D1*
X969143D1*
X942835D2*
Y2330726D1*
X918903Y2372529D2*
X921224Y2367776D1*
X926033Y2362967D1*
X930841Y2360591D1*
X938026Y2358159D1*
X949964D1*
X957149Y2360591D1*
X961903Y2362967D1*
X966711Y2367776D1*
X969088Y2372529D1*
Y2382090D1*
X966711Y2386899D1*
X961903Y2391652D1*
X957149Y2394029D1*
X949964Y2396461D1*
X938026D1*
X930841Y2394029D1*
X926033Y2391652D1*
X921224Y2386899D1*
X918903Y2382090D1*
Y2372529D1*
X959526Y2379714D2*
X973896Y2394029D1*
X945211Y2411900D2*
Y2433455D1*
X942835Y2440585D1*
X940403Y2443017D1*
X935650Y2445393D1*
X928465D1*
X923711Y2443017D1*
X921279Y2440585D1*
X918903Y2433455D1*
Y2411900D1*
X969143D1*
Y2484764D2*
X918958D1*
X952396Y2460832D1*
Y2496702D1*
X969143Y2521703D2*
X918958Y2545635D1*
Y2512142D1*
X935650Y2561074D2*
X985890D1*
X942835D2*
X938081Y2565883D1*
X935650Y2570636D1*
Y2577821D1*
X938081Y2582629D1*
X942835Y2587382D1*
X950020Y2589814D1*
X954828D1*
X961958Y2587382D1*
X966766Y2582629D1*
X969143Y2577821D1*
Y2570636D1*
X966766Y2565883D1*
X961958Y2561074D1*
X918958Y2619624D2*
X921335Y2612439D1*
X928520Y2607630D1*
X940458Y2605254D1*
X947643D1*
X959581Y2607630D1*
X966766Y2612439D1*
X969143Y2619624D1*
Y2624377D1*
X966766Y2631562D1*
X959581Y2636315D1*
X947643Y2638747D1*
X940458D1*
X928520Y2636315D1*
X921335Y2631562D1*
X918958Y2624377D1*
Y2619624D1*
X928520Y2636315D2*
X959581Y2607630D1*
X926088Y2682871D2*
X921335Y2680494D1*
X918958Y2673309D1*
Y2668556D1*
X921335Y2661371D1*
X928520Y2656563D1*
X940458Y2654186D1*
X952396D1*
X961958Y2656563D1*
X966766Y2661371D1*
X969143Y2668556D1*
Y2670933D1*
X966766Y2678063D1*
X961958Y2682871D1*
X954773Y2685248D1*
X952396D1*
X945211Y2682871D1*
X940458Y2678063D1*
X938081Y2670933D1*
Y2668556D1*
X940458Y2661371D1*
X945211Y2656563D1*
X952396Y2654186D1*
X1227806Y2469537D2*
X1278046D1*
Y2486284D1*
X1275614Y2493469D1*
X1270861Y2498277D1*
X1266052Y2500654D1*
X1258923Y2503030D1*
X1246929D1*
X1239744Y2500654D1*
X1234991Y2498277D1*
X1230182Y2493469D1*
X1227806Y2486284D1*
Y2469537D1*
X1237423Y2518470D2*
X1234991Y2523278D1*
X1227861Y2530463D1*
X1278046D1*
X1410902Y2416109D2*
X1418087Y2413677D1*
X1422896Y2408923D1*
X1425272Y2401738D1*
Y2399362D1*
X1422896Y2392177D1*
X1418087Y2387424D1*
X1410902Y2384992D1*
X1408526D1*
X1401341Y2387424D1*
X1396587Y2392177D1*
X1394211Y2399362D1*
Y2401738D1*
X1396587Y2408923D1*
X1401341Y2413677D1*
X1410902Y2416109D1*
X1422896D1*
X1434834Y2413677D1*
X1442019Y2408923D1*
X1444396Y2401738D1*
Y2396985D1*
X1442019Y2389800D1*
X1437211Y2387424D1*
X1439587Y2433924D2*
X1442019Y2431548D1*
X1444396Y2433924D1*
X1442019Y2436356D1*
X1439587Y2433924D1*
X1403772Y2451795D2*
X1401341Y2456604D1*
X1394211Y2463789D1*
X1444396D1*
X1394156Y2479228D2*
X1444396Y2498351D1*
X1394156Y2517475D1*
Y2581515D2*
Y2615008D1*
X1444396Y2581515D1*
Y2615008D1*
X573039Y2470677D2*
Y2492177D1*
X570607Y2499362D1*
X568231Y2501794D1*
X563478Y2504171D1*
X558669D1*
X553916Y2501794D1*
X551484Y2499362D1*
X549108Y2492177D1*
Y2470677D1*
X599348D1*
X573039Y2487424D2*
X599348Y2504171D1*
X558725Y2519610D2*
X556293Y2524418D1*
X549163Y2531603D1*
X599348D1*
X719772Y2421745D2*
X717341Y2426553D1*
X710211Y2433738D1*
X760396D1*
X710211Y2463548D2*
X712587Y2456363D1*
X719772Y2451554D1*
X731711Y2449178D1*
X738896D1*
X750834Y2451554D1*
X758019Y2456363D1*
X760396Y2463548D1*
Y2468301D1*
X758019Y2475486D1*
X750834Y2480239D1*
X738896Y2482671D1*
X731711D1*
X719772Y2480239D1*
X712587Y2475486D1*
X710211Y2468301D1*
Y2463548D1*
X719772Y2480239D2*
X750834Y2451554D1*
X710211Y2512480D2*
X712587Y2505295D1*
X719772Y2500487D1*
X731711Y2498110D1*
X738896D1*
X750834Y2500487D1*
X758019Y2505295D1*
X760396Y2512480D1*
Y2517233D1*
X758019Y2524418D1*
X750834Y2529172D1*
X738896Y2531603D1*
X731711D1*
X719772Y2529172D1*
X712587Y2524418D1*
X710211Y2517233D1*
Y2512480D1*
X719772Y2529172D2*
X750834Y2500487D1*
X710156Y2547043D2*
X760396D1*
X710156Y2580536D2*
X743649Y2547043D1*
X731655Y2558981D2*
X760396Y2580536D1*
X591174Y2359098D2*
Y2320852D1*
X588798Y2313667D1*
X586366Y2311290D1*
X581612Y2308858D1*
X576804D1*
X572051Y2311290D1*
X569674Y2313667D1*
X567242Y2320852D1*
Y2325605D1*
X609045Y2347105D2*
Y2349482D1*
X611422Y2354290D1*
X613798Y2356667D1*
X618607Y2359043D1*
X628168D1*
X632922Y2356667D1*
X635298Y2354290D1*
X637730Y2349482D1*
Y2344728D1*
X635298Y2339920D1*
X630545Y2332790D1*
X606613Y2308858D1*
X640107D1*
X1882419Y1056469D2*
X1880042Y1061222D1*
X1875234Y1066030D1*
X1870481Y1068407D1*
X1860919D1*
X1856111Y1066030D1*
X1851357Y1061222D1*
X1848925Y1056469D1*
X1846549Y1049284D1*
Y1037290D1*
X1848925Y1030160D1*
X1851357Y1025352D1*
X1856111Y1020599D1*
X1860919Y1018167D1*
X1870481D1*
X1875234Y1020599D1*
X1880042Y1025352D1*
X1882419Y1030160D1*
X1926543Y1068352D2*
X1902666D1*
X1900290Y1046852D1*
X1902666Y1049228D1*
X1909852Y1051660D1*
X1916981D1*
X1924166Y1049228D1*
X1928975Y1044475D1*
X1931351Y1037290D1*
Y1032537D1*
X1928975Y1025352D1*
X1924166Y1020543D1*
X1916981Y1018167D1*
X1909852D1*
X1902666Y1020543D1*
X1900290Y1022975D1*
X1897858Y1027728D1*
X1818582Y804941D2*
X1811397Y802565D1*
X1806588Y795380D1*
X1804211Y783442D1*
Y776257D1*
X1806588Y764318D1*
X1811397Y757133D1*
X1818582Y754757D1*
X1823335D1*
X1830520Y757133D1*
X1835273Y764318D1*
X1837705Y776257D1*
Y783442D1*
X1835273Y795380D1*
X1830520Y802565D1*
X1823335Y804941D1*
X1818582D1*
X1835273Y795380D2*
X1806588Y764318D1*
X1855521Y759565D2*
X1853144Y757133D1*
X1855521Y754757D1*
X1857953Y757133D1*
X1855521Y759565D1*
X1873392Y795380D2*
X1878200Y797812D1*
X1885385Y804941D1*
Y754757D1*
X1900824Y788250D2*
Y764318D1*
X1903201Y757189D1*
X1908010Y754757D1*
X1915195D1*
X1919948Y757189D1*
X1927133Y764318D1*
Y788250D2*
Y754757D1*
X1973689Y804997D2*
X1942572D1*
Y754757D1*
Y781065D2*
X1961695D1*
X2207841Y1032896D2*
X2205464Y1037650D1*
X2200656Y1042458D1*
X2195903Y1044835D1*
X2186341D1*
X2181532Y1042458D1*
X2176779Y1037650D1*
X2174347Y1032896D1*
X2171971Y1025711D1*
Y1013718D1*
X2174347Y1006588D1*
X2176779Y1001780D1*
X2181532Y997026D1*
X2186341Y994595D1*
X2195903D1*
X2200656Y997026D1*
X2205464Y1001780D1*
X2207841Y1006588D1*
X2247212Y994595D2*
Y1044779D1*
X2223280Y1011341D1*
X2259150D1*
X2145192Y781369D2*
X2138007Y778993D1*
X2133198Y771808D1*
X2130822Y759869D1*
Y752684D1*
X2133198Y740746D1*
X2138007Y733561D1*
X2145192Y731185D1*
X2149945D1*
X2157130Y733561D1*
X2161883Y740746D1*
X2164315Y752684D1*
Y759869D1*
X2161883Y771808D1*
X2157130Y778993D1*
X2149945Y781369D1*
X2145192D1*
X2161883Y771808D2*
X2133198Y740746D1*
X2182131Y735993D2*
X2179754Y733561D1*
X2182131Y731185D1*
X2184563Y733561D1*
X2182131Y735993D1*
X2200002Y771808D2*
X2204810Y774239D1*
X2211995Y781369D1*
Y731185D1*
X2227435Y764678D2*
Y740746D1*
X2229811Y733616D1*
X2234620Y731185D1*
X2241805D1*
X2246558Y733616D1*
X2253743Y740746D1*
Y764678D2*
Y731185D1*
X2300299Y781425D2*
X2269182D1*
Y731185D1*
Y757493D2*
X2288306D1*
X1064258Y1677691D2*
X1059505Y1675315D1*
X1054697Y1670506D1*
X1052320Y1665753D1*
Y1656191D1*
X1054697Y1651383D1*
X1059505Y1646630D1*
X1064258Y1644198D1*
X1071443Y1641821D1*
X1083437D1*
X1090567Y1644198D1*
X1095375Y1646630D1*
X1100128Y1651383D1*
X1102560Y1656191D1*
Y1665753D1*
X1100128Y1670506D1*
X1095375Y1675315D1*
X1090567Y1677691D1*
X1059505Y1721815D2*
X1054752Y1719439D1*
X1052376Y1712254D1*
Y1707500D1*
X1054752Y1700315D1*
X1061937Y1695507D1*
X1073875Y1693130D1*
X1085814D1*
X1095375Y1695507D1*
X1100184Y1700315D1*
X1102560Y1707500D1*
Y1709877D1*
X1100184Y1717007D1*
X1095375Y1721815D1*
X1088190Y1724192D1*
X1085814D1*
X1078629Y1721815D1*
X1073875Y1717007D1*
X1071499Y1709877D1*
Y1707500D1*
X1073875Y1700315D1*
X1078629Y1695507D1*
X1085814Y1693130D1*
X1371939Y1753375D2*
X1369563Y1760560D1*
X1362378Y1765369D1*
X1350440Y1767745D1*
X1343255D1*
X1331316Y1765369D1*
X1324131Y1760560D1*
X1321755Y1753375D1*
Y1748622D1*
X1324131Y1741437D1*
X1331316Y1736684D1*
X1343255Y1734252D1*
X1350440D1*
X1362378Y1736684D1*
X1369563Y1741437D1*
X1371939Y1748622D1*
Y1753375D1*
X1362378Y1736684D2*
X1331316Y1765369D1*
X1326563Y1716436D2*
X1324131Y1718813D1*
X1321755Y1716436D1*
X1324131Y1714004D1*
X1326563Y1716436D1*
X1362378Y1698565D2*
X1364810Y1693756D1*
X1371939Y1686571D1*
X1321755D1*
X1355248Y1671132D2*
X1331316D1*
X1324187Y1668756D1*
X1321755Y1663947D1*
Y1656762D1*
X1324187Y1652009D1*
X1331316Y1644824D1*
X1355248D2*
X1321755D1*
X1371995Y1598268D2*
Y1629385D1*
X1321755D1*
X1348063D2*
Y1610261D1*
X1749612Y1884259D2*
X1785481D1*
X1792667Y1886636D1*
X1797420Y1891445D1*
X1799852Y1898630D1*
Y1903383D1*
X1797420Y1910568D1*
X1792667Y1915376D1*
X1785481Y1917753D1*
X1749612D1*
X1749667Y1961877D2*
Y1938001D1*
X1771167Y1935624D1*
X1768790Y1938001D1*
X1766358Y1945186D1*
Y1952315D1*
X1768790Y1959500D1*
X1773543Y1964309D1*
X1780728Y1966685D1*
X1785481D1*
X1792667Y1964309D1*
X1797475Y1959500D1*
X1799852Y1952315D1*
Y1945186D1*
X1797475Y1938001D1*
X1795043Y1935624D1*
X1790290Y1933192D1*
X2067199Y1664117D2*
X2016959D1*
X2067199Y1644994D1*
X2016959Y1625871D1*
X2067199D1*
X2016959Y1679556D2*
X2067199D1*
X2028897Y1730866D2*
X2024144Y1728489D1*
X2019335Y1723681D1*
X2016959Y1718927D1*
Y1709366D1*
X2019335Y1704557D1*
X2024144Y1699804D1*
X2028897Y1697372D1*
X2036082Y1694996D1*
X2048075D1*
X2055205Y1697372D1*
X2060014Y1699804D1*
X2064767Y1704557D1*
X2067199Y1709366D1*
Y1718927D1*
X2064767Y1723681D1*
X2060014Y1728489D1*
X2055205Y1730866D1*
X2028952Y1748737D2*
X2026576D1*
X2021767Y1751113D1*
X2019391Y1753490D1*
X2017014Y1758298D1*
Y1767860D1*
X2019391Y1772613D1*
X2021767Y1774990D1*
X2026576Y1777422D1*
X2031329D1*
X2036137Y1774990D1*
X2043267Y1770237D1*
X2067199Y1746305D1*
Y1779798D1*
X2033705Y1826354D2*
X2040890Y1823922D1*
X2045699Y1819169D1*
X2048075Y1811984D1*
Y1809608D1*
X2045699Y1802422D1*
X2040890Y1797669D1*
X2033705Y1795237D1*
X2031329D1*
X2024144Y1797669D1*
X2019391Y1802422D1*
X2017014Y1809608D1*
Y1811984D1*
X2019391Y1819169D1*
X2024144Y1823922D1*
X2033705Y1826354D1*
X2045699D1*
X2057637Y1823922D1*
X2064822Y1819169D1*
X2067199Y1811984D1*
Y1807231D1*
X2064822Y1800046D1*
X2060014Y1797669D1*
X2017014Y1846602D2*
Y1872855D1*
X2036137Y1858540D1*
Y1865725D1*
X2038514Y1870478D1*
X2040890Y1872855D1*
X2048075Y1875287D1*
X2052829D1*
X2060014Y1872855D1*
X2064822Y1868102D1*
X2067199Y1860917D1*
Y1853732D1*
X2064822Y1846602D1*
X2062390Y1844225D1*
X2057637Y1841793D1*
X2026576Y1890726D2*
X2024144Y1895534D1*
X2017014Y1902720D1*
X2067199D1*
X2017014Y1932529D2*
X2019391Y1925344D1*
X2026576Y1920535D1*
X2038514Y1918159D1*
X2045699D1*
X2057637Y1920535D1*
X2064822Y1925344D1*
X2067199Y1932529D1*
Y1937282D1*
X2064822Y1944467D1*
X2057637Y1949220D1*
X2045699Y1951652D1*
X2038514D1*
X2026576Y1949220D1*
X2019391Y1944467D1*
X2017014Y1937282D1*
Y1932529D1*
X2026576Y1949220D2*
X2057637Y1920535D1*
X2042106Y1967091D2*
Y1994726D1*
X2017014Y2014974D2*
Y2041227D1*
X2036137Y2026912D1*
Y2034097D1*
X2038514Y2038850D1*
X2040890Y2041227D1*
X2048075Y2043659D1*
X2052829D1*
X2060014Y2041227D1*
X2064822Y2036474D1*
X2067199Y2029289D1*
Y2022104D1*
X2064822Y2014974D1*
X2062390Y2012597D1*
X2057637Y2010165D1*
X2062390Y2061475D2*
X2064822Y2059098D1*
X2067199Y2061475D1*
X2064822Y2063906D1*
X2062390Y2061475D1*
X2017014Y2084154D2*
Y2110407D1*
X2036137Y2096092D1*
Y2103277D1*
X2038514Y2108031D1*
X2040890Y2110407D1*
X2048075Y2112839D1*
X2052829D1*
X2060014Y2110407D1*
X2064822Y2105654D1*
X2067199Y2098469D1*
Y2091284D1*
X2064822Y2084154D1*
X2062390Y2081777D1*
X2057637Y2079346D1*
X2016959Y2128278D2*
X2067199Y2140272D1*
X2016959Y2152210D1*
X2067199Y2164148D1*
X2016959Y2176142D1*
Y2208328D2*
X2067199D1*
X2016959Y2191581D2*
Y2225074D1*
M02*
