G04 DipTrace 3.3.1.1*
G04 Bottom.gbr*
%MOIN*%
G04 #@! TF.FileFunction,Copper,L2,Bot*
G04 #@! TF.Part,Single*
%AMOUTLINE0*
4,1,8,
-0.019685,-0.029528,
-0.009843,-0.03937,
0.009843,-0.03937,
0.019685,-0.029528,
0.019685,0.029528,
0.009843,0.03937,
-0.009843,0.03937,
-0.019685,0.029528,
-0.019685,-0.029528,
0*%
%AMOUTLINE3*
4,1,8,
0.029528,-0.019685,
0.03937,-0.009843,
0.03937,0.009843,
0.029528,0.019685,
-0.029528,0.019685,
-0.03937,0.009843,
-0.03937,-0.009843,
-0.029528,-0.019685,
0.029528,-0.019685,
0*%
G04 #@! TA.AperFunction,Conductor*
%ADD13C,0.03937*%
%ADD14C,0.029528*%
%ADD15C,0.07*%
G04 #@! TA.AperFunction,CopperBalancing*
%ADD20C,0.04*%
%ADD21C,0.013*%
G04 #@! TA.AperFunction,ComponentPad*
%ADD27C,0.12*%
%ADD28C,0.07874*%
%ADD29R,0.059055X0.059055*%
%ADD30C,0.059055*%
%ADD31C,0.08*%
%ADD33C,0.066929*%
%ADD36C,0.11811*%
%ADD38C,0.098425*%
%ADD40O,0.03937X0.07874*%
%ADD43C,0.074803*%
%ADD44O,0.07874X0.03937*%
%ADD45C,0.07874*%
G04 #@! TA.AperFunction,ViaPad*
%ADD47C,0.059055*%
G04 #@! TA.AperFunction,ComponentPad*
%ADD102OUTLINE0*%
%ADD105OUTLINE3*%
%FSLAX26Y26*%
G04*
G70*
G90*
G75*
G01*
G04 Bottom*
%LPD*%
X3099810Y3991152D2*
D13*
Y3957516D1*
X3045155Y3902861D1*
X2962310D1*
Y3795274D1*
Y3529705D1*
X3049164Y3442850D1*
X2835425Y3229112D1*
Y1970543D1*
X2744567Y1879685D1*
X2716835Y4094787D2*
X2962310D1*
Y3902861D1*
Y3795274D2*
X2886622D1*
Y3795671D1*
X1333819Y2814846D2*
D14*
X1337623D1*
X1384878Y2862101D1*
Y3216474D1*
X1385735Y3217331D1*
Y3598605D1*
X1385303Y3599037D1*
Y3728264D1*
X2401874Y4252268D2*
D13*
X2308669D1*
Y3961482D1*
X2405189D1*
Y3950476D1*
X2096996Y2785197D2*
Y2740101D1*
X2647260D1*
X2771467Y2615894D1*
Y2025329D1*
X2627854Y1881717D1*
Y1857227D1*
X2361549Y1590921D1*
X1871196D1*
X1807236Y1526962D1*
Y874298D1*
X1883706Y797828D1*
X2011906D1*
X2113693Y696041D1*
Y638765D1*
X4058430Y3381427D2*
Y3575068D1*
X4228361Y3176285D2*
X4028361D1*
X4233227Y973825D2*
Y826199D1*
X4171022Y763995D1*
X3733047D1*
X3514626D1*
X3461806D1*
X3426304Y728493D1*
Y648332D1*
X3312546Y2962436D2*
X3188682Y2838572D1*
Y2125579D1*
X3133381Y2070277D1*
Y1909798D1*
X3127664D1*
X4028361Y3176285D2*
X3818986D1*
X3696542D1*
X3405310D1*
X3312546Y3083521D1*
Y2962436D1*
X4233227Y973825D2*
X4233283Y1065614D1*
Y1187226D1*
X4028361Y2976285D2*
X4228361D1*
X3696542Y3176285D2*
Y3165386D1*
X3712118D1*
Y2831056D1*
X3630667Y2749605D1*
X4028361Y3176285D2*
Y2976285D1*
X1146314Y586604D2*
Y977421D1*
X3091282Y1733093D2*
X3084680D1*
Y1421210D1*
X3078854D1*
Y949896D1*
X3002147D1*
X3127664Y1909798D2*
Y1769475D1*
X3091282Y1733093D1*
X1624054Y2136286D2*
Y2140953D1*
X1422150D1*
X1156815D1*
X1011694Y2286073D1*
X1896996Y2785197D2*
X1841483D1*
X1571328D1*
X1317367Y2531236D1*
X1122474Y2336343D1*
Y2332239D1*
X1076308Y2286073D1*
X1011694D1*
X489234Y3678016D2*
D14*
X689234D1*
X489234Y3878016D2*
X689234D1*
X489234Y3678016D2*
Y3878016D1*
X3426304Y648332D2*
D13*
Y654101D1*
X3317394Y545190D1*
X3024196D1*
X1913693Y638765D2*
X1922348D1*
X1732644Y828469D1*
Y841255D1*
X3411976Y3175697D2*
X3405310Y3176285D1*
X3002147Y949896D2*
X3024196D1*
Y545190D1*
X3853364Y3264044D2*
X3818986Y3176285D1*
X3733047Y771168D2*
Y763995D1*
X3514626Y765343D2*
Y763995D1*
X1175879Y2264846D2*
Y2336343D1*
X1122474D1*
X1425546Y2068026D2*
X1422150Y2140953D1*
X1573434Y2791029D2*
X1571328Y2785197D1*
X1339348Y2571833D2*
X1317367Y2531236D1*
X2019201Y3531524D2*
D14*
Y3444294D1*
Y3426358D1*
X1841483D1*
D13*
Y2785197D1*
X2001327Y3444294D2*
D14*
X2019201D1*
X3772333Y2833094D2*
D13*
X3712118Y2831056D1*
X689234Y3878016D2*
Y3678016D1*
X3353428Y3548848D2*
Y3361402D1*
X3452231Y3262598D1*
X4125831D1*
X4225362Y3362130D1*
Y3740047D1*
X3829497Y4207248D2*
D14*
Y3961159D1*
X4006860Y3783797D1*
Y3777114D1*
X4043927Y3740047D1*
X4225362D1*
X1049836Y4220201D2*
D15*
X1363176D1*
X1467971Y4115406D1*
D13*
Y4079777D1*
X1694000Y3853748D1*
Y3731008D1*
X1737073D1*
Y3657803D1*
X4261802Y1065598D2*
X4233283Y1065614D1*
X1632577Y975961D2*
D14*
Y1240398D1*
X1919201Y3531524D2*
Y3642081D1*
X1913455Y3647827D1*
Y3811322D1*
X1299323Y1451231D2*
X1288507D1*
X1001135Y1738602D1*
Y2063598D1*
X1006151Y2068614D1*
X2924388Y2073752D2*
D13*
Y2340005D1*
X3021877Y2437493D1*
X1228544Y3727838D2*
D14*
Y3708719D1*
X1135927Y3616102D1*
Y3585332D1*
X1539423Y1480370D2*
X1540822Y1087354D1*
X1140385D1*
X805335Y1422404D1*
X2210260Y1477927D2*
Y1473677D1*
X2232627Y1451310D1*
X2858408D1*
X2971098Y1338619D1*
Y1215542D1*
Y1159100D1*
X2918677Y1106678D1*
Y963148D1*
X2899895Y944366D1*
X2971098Y1215542D2*
X2984916D1*
X3371810Y4147533D2*
X3243463D1*
X3243087Y4147909D1*
X3099390D1*
D47*
X2744567Y1879685D3*
X4058430Y3381427D3*
Y3575068D3*
X3630667Y2749605D3*
X1146314Y586604D3*
Y977421D3*
X1624054Y2136286D3*
X3024196Y545190D3*
X1632577Y975961D3*
Y1240398D3*
D3*
X734283Y3981534D3*
X3439077Y4258202D3*
X2094000Y2632643D3*
X847470Y3494340D3*
X1573274Y3564285D3*
X1139293Y3177115D3*
X1112432Y2890958D3*
X1734934Y3538844D3*
X2294000Y2632643D3*
X3021877Y2437493D3*
X3537479Y1870814D3*
X4102752Y1841298D3*
X3537479Y1399864D3*
X4103864D3*
X1115605Y1918277D3*
X916522Y795896D3*
X2237831Y2022843D3*
X1057340Y2747341D3*
X1735703Y3403874D3*
X3792831Y3046255D3*
X3411976Y3175697D3*
X2384277Y2022843D3*
X916811Y1824054D3*
X2262636Y1734127D3*
X3641127Y2632041D3*
X776978Y936772D3*
X2774507Y568386D3*
X1741287Y3039783D3*
X2169399Y3024525D3*
X1634029Y2016461D3*
X1928072Y3953450D3*
X2177430Y3874176D3*
X2530723Y2022843D3*
X2770647Y3626542D3*
X2751786Y3460579D3*
X2555648Y3281496D3*
X2677169Y2022843D3*
X1941650Y3191955D3*
X3183618Y3263633D3*
X3335337Y3264883D3*
X4212171Y3343453D3*
X3471178Y3560154D3*
X4076062Y2794676D3*
X3810887Y2027797D3*
X3822951Y1399864D3*
X3537479Y1713829D3*
X4101808Y1607252D3*
X2505121Y568386D3*
X657434Y811752D3*
X640617Y1088381D3*
X1414659Y1989173D3*
X519660Y2066739D3*
Y2531008D3*
X522769Y2890600D3*
X519660Y1911983D3*
X1241903Y2070671D3*
X1994000Y2632643D3*
X2594000D3*
X2754522Y2839719D3*
X1958685Y1998644D3*
X2494000Y2632643D3*
X2347652Y2937870D3*
X2533972Y2841660D3*
X2586391Y2976028D3*
X3092290Y2882136D3*
X2924388Y2073752D3*
X3125089Y2973621D3*
X3021047Y2970119D3*
X2921234Y2769551D3*
X3925785Y2857458D3*
X3622381Y3025276D3*
X3642378Y3437496D3*
X3853364Y3264044D3*
X3909167Y3044126D3*
X2255522Y1385585D3*
X3619438Y2889846D3*
X3359383Y2627664D3*
X2581231Y1646240D3*
X2702761Y1512352D3*
X3296205Y774080D3*
X4254155Y743884D3*
X3934009Y490051D3*
X3733047Y771168D3*
X3514626Y765343D3*
X1272423Y922346D3*
X1372110Y1861413D3*
X513096Y1232287D3*
X1204232Y1652033D3*
X1705465Y1366409D3*
X3537479Y1556846D3*
X985227Y1396045D3*
X2341556Y1529063D3*
X2104853Y1385585D3*
X2176430Y782470D3*
X2314765D3*
X2453098D3*
X2591432D3*
X2729765D3*
X2909201Y568386D3*
X2659677Y688359D3*
X2370428Y568386D3*
X2639814D3*
X3537479Y2027797D3*
X4095627D3*
X3797126Y1874476D3*
X3800054Y1558303D3*
X3329696Y1694014D3*
Y1910980D3*
Y1477050D3*
X2017638Y1864525D3*
X2188522Y1863241D3*
X1486219Y1838173D3*
X1489398Y1650728D3*
X1651702Y1676211D3*
X1797835Y1664563D3*
X1655301Y1848198D3*
X1787974Y1844909D3*
X2406192Y1385585D3*
X952790Y2583718D3*
X2556861Y1385585D3*
X1211285Y2579772D3*
X1573434Y2791029D3*
X822203Y2492804D3*
X665680Y2299146D3*
X519660Y2221496D3*
Y2376252D3*
X975182Y2396684D3*
X1175879Y2264846D3*
X1119331Y2073318D3*
X1425546Y2068026D3*
X1221600Y1951993D3*
X720287Y1293841D3*
X845890Y1177783D3*
X943312Y1050228D3*
X1059495Y935948D3*
X1269127Y702463D3*
X1411178Y586454D3*
X2124010Y478887D3*
X1772881Y481374D3*
X1370676Y480430D3*
X1529188Y2524853D3*
X1064944Y2581967D3*
X1339348Y2571833D3*
X1841686Y3197072D3*
X1839753Y3110071D3*
X2037646Y3089450D3*
X2087155Y3194293D3*
X2267717Y3106924D3*
X2511458Y3166412D3*
X3050684Y3144117D3*
X3218541Y3162138D3*
X2086810Y2898517D3*
X1746126Y2933501D3*
X942009Y3170394D3*
X927493Y3408001D3*
X2002971Y3390046D3*
X2001327Y3444294D3*
X2106537Y3441007D3*
X2127908Y3368675D3*
X2945940Y3241231D3*
X2238050Y3371962D3*
X2329008Y3283816D3*
X2442995Y3284361D3*
X1737073Y3657803D3*
X2672551Y3314449D3*
X632618Y3500999D3*
X2670769Y3527643D3*
X2362270Y3704031D3*
X2490076Y3705747D3*
X522086Y2758959D3*
X2174488Y3712651D3*
X4218896Y3960699D3*
X2007902Y3707320D3*
X2059600Y3841680D3*
X2879757Y3619185D3*
X2860340Y3459617D3*
X2760509Y2723211D3*
X2761913Y2976028D3*
X2906563Y2971433D3*
X2915344Y2879094D3*
X3087735Y2769402D3*
X2350013Y3871846D3*
X2241463Y4028051D3*
X2249407Y4133953D3*
X2058785Y4088944D3*
X3353428Y3548848D3*
X3505530Y3364946D3*
X2641332Y2840369D3*
X2394000Y2632643D3*
X2194000D3*
X3505724Y2629853D3*
X3780906Y2632041D3*
X1147505Y489252D3*
X1012322Y664648D3*
X1405469Y921535D3*
X4012728Y2635459D3*
X4121518Y2643402D3*
X3772333Y2833094D3*
X3383776Y2027797D3*
X3668516D3*
X3953257D3*
X3329696Y1802497D3*
Y1585533D3*
X3401581Y1399864D3*
X3682495D3*
X3963407D3*
X1411140Y705836D3*
X1570471Y483860D3*
X1959463Y480430D3*
X539560Y953626D3*
X519660Y1757227D3*
X1954184Y1385585D3*
X515283Y1587748D3*
X513096Y1417676D3*
X761438Y1589890D3*
X1487165Y1739627D3*
X1707257Y1480029D3*
X921602Y1961765D3*
X1385735Y3217331D3*
X1732644Y841255D3*
X3002147Y949896D3*
X3127664Y1909798D3*
X3091282Y1733093D3*
X1299323Y1451231D3*
X1135927Y3585332D3*
X1540822Y1087354D3*
X2984916Y1215542D3*
X2210260Y1477927D3*
X2899895Y944366D3*
X2912295Y1706302D3*
X4261802Y1065598D3*
X554742Y3971139D2*
D20*
X623713D1*
X754724D2*
X1769998D1*
X791290Y3931270D2*
X1769998D1*
X804029Y3891402D2*
X1762642D1*
X801661Y3851533D2*
X1716387D1*
X782965Y3811664D2*
X1188495D1*
X1421273D2*
X1706268D1*
X753720Y3771795D2*
X1155302D1*
X1456476D2*
X1716028D1*
X790932Y3731927D2*
X1153256D1*
X1460602D2*
X1760811D1*
X803957Y3692058D2*
X1114035D1*
X1458664D2*
X1769998D1*
X801804Y3652189D2*
X1076249D1*
X1455650D2*
X1769998D1*
X783432Y3612320D2*
X1055436D1*
X1230010D2*
X1314950D1*
X1455650D2*
X1769998D1*
X529443Y3572451D2*
X649012D1*
X729426D2*
X1051812D1*
X1220035D2*
X1315381D1*
X1456117D2*
X1769998D1*
X457388Y3532583D2*
X1070292D1*
X1201554D2*
X1315381D1*
X1456117D2*
X1769998D1*
X457388Y3492714D2*
X1315381D1*
X1456117D2*
X1769998D1*
X457388Y3452845D2*
X1315381D1*
X1456117D2*
X1769998D1*
X457388Y3412976D2*
X583667D1*
X882867D2*
X1028415D1*
X1456117D2*
X1769998D1*
X457388Y3373108D2*
X546993D1*
X919505D2*
X1017184D1*
X1456117D2*
X1769998D1*
X457388Y3333239D2*
X538309D1*
X928224D2*
X1017184D1*
X1456117D2*
X1769998D1*
X457388Y3293370D2*
X547998D1*
X918536D2*
X1025724D1*
X1456117D2*
X1769998D1*
X457388Y3253501D2*
X587399D1*
X879135D2*
X1309101D1*
X1462361D2*
X1769998D1*
X457388Y3213633D2*
X1300704D1*
X1470793D2*
X1769998D1*
X457388Y3173764D2*
X1313300D1*
X1458162D2*
X1769998D1*
X457388Y3133895D2*
X1314520D1*
X1455255D2*
X1769998D1*
X457388Y3094026D2*
X1314520D1*
X1455255D2*
X1769998D1*
X457388Y3054157D2*
X1314520D1*
X1455255D2*
X1769998D1*
X457388Y3014289D2*
X1314520D1*
X1455255D2*
X1769998D1*
X457388Y2974420D2*
X1314520D1*
X1455255D2*
X1769998D1*
X457388Y2934551D2*
X692288D1*
X983055D2*
X1314520D1*
X1455255D2*
X1769998D1*
X457388Y2894682D2*
X685219D1*
X992529D2*
X1131762D1*
X1455255D2*
X1769998D1*
X457388Y2854814D2*
X685219D1*
X992385D2*
X1102947D1*
X1454825D2*
X1769998D1*
X457388Y2814945D2*
X698388D1*
X976740D2*
X1101763D1*
X1435591D2*
X1769998D1*
X498511Y2775076D2*
X1102731D1*
X1406202D2*
X1769998D1*
X800818Y3876179D2*
X800093Y3865183D1*
X798287Y3854313D1*
X795418Y3843674D1*
X791514Y3833370D1*
X786613Y3823501D1*
X780762Y3814163D1*
X774019Y3805448D1*
X766449Y3797441D1*
X758127Y3790219D1*
X749132Y3783853D1*
X739554Y3778405D1*
X738776Y3778019D1*
X748113Y3772819D1*
X757176Y3766551D1*
X765576Y3759419D1*
X773231Y3751493D1*
X780068Y3742852D1*
X786019Y3733578D1*
X791027Y3723762D1*
X795042Y3713500D1*
X798026Y3702893D1*
X799949Y3692043D1*
X800792Y3681056D1*
X800592Y3670672D1*
X799325Y3659726D1*
X796984Y3648958D1*
X793593Y3638474D1*
X789185Y3628375D1*
X783803Y3618760D1*
X777498Y3609722D1*
X770333Y3601351D1*
X762377Y3593727D1*
X753708Y3586925D1*
X744411Y3581010D1*
X734575Y3576042D1*
X724298Y3572067D1*
X713678Y3569126D1*
X702821Y3567246D1*
X691831Y3566446D1*
X680815Y3566734D1*
X669882Y3568106D1*
X659137Y3570550D1*
X648686Y3574042D1*
X638630Y3578548D1*
X629068Y3584023D1*
X620092Y3590415D1*
X611790Y3597660D1*
X604243Y3605689D1*
X597524Y3614423D1*
X591700Y3623778D1*
X589185Y3628375D1*
X583803Y3618760D1*
X577498Y3609722D1*
X570333Y3601351D1*
X562377Y3593727D1*
X553708Y3586925D1*
X544411Y3581010D1*
X534575Y3576042D1*
X524298Y3572067D1*
X513678Y3569126D1*
X502821Y3567246D1*
X491831Y3566446D1*
X480815Y3566734D1*
X469882Y3568106D1*
X459137Y3570550D1*
X453373Y3572337D1*
X453370Y2775854D1*
X1110364Y2763671D1*
X1108300Y2768948D1*
X1106410Y2776822D1*
X1105774Y2784894D1*
X1105933Y2847997D1*
X1107200Y2855994D1*
X1109702Y2863695D1*
X1113378Y2870910D1*
X1118137Y2877460D1*
X1130730Y2890278D1*
X1136887Y2895537D1*
X1143791Y2899767D1*
X1151272Y2902866D1*
X1159145Y2904756D1*
X1167233Y2905391D1*
X1190950Y2905232D1*
X1198948Y2903966D1*
X1206648Y2901463D1*
X1213863Y2897788D1*
X1217244Y2895527D1*
X1227461Y2900398D1*
X1238099Y2903855D1*
X1249148Y2905605D1*
X1260333D1*
X1271382Y2903855D1*
X1282020Y2900398D1*
X1291987Y2895320D1*
X1294223Y2893826D1*
X1301460Y2898055D1*
X1311795Y2902335D1*
X1318533Y2904123D1*
X1318514Y3171889D1*
X1313450Y3180500D1*
X1310783Y3186285D1*
X1308578Y3192261D1*
X1306849Y3198392D1*
X1305606Y3204640D1*
X1304857Y3210966D1*
X1304607Y3217331D1*
X1304857Y3223696D1*
X1305606Y3230022D1*
X1306849Y3236270D1*
X1308578Y3242401D1*
X1310783Y3248377D1*
X1313450Y3254162D1*
X1319369Y3263920D1*
X1319371Y3319206D1*
X1317046Y3310040D1*
X1312765Y3299705D1*
X1306920Y3290168D1*
X1299656Y3281662D1*
X1291150Y3274397D1*
X1281612Y3268553D1*
X1271278Y3264272D1*
X1260401Y3261661D1*
X1249250Y3260783D1*
X1238098Y3261661D1*
X1227221Y3264272D1*
X1216887Y3268553D1*
X1209767Y3272782D1*
X1202530Y3268553D1*
X1192195Y3264272D1*
X1181318Y3261661D1*
X1170167Y3260783D1*
X1159016Y3261661D1*
X1148139Y3264272D1*
X1137804Y3268553D1*
X1133588Y3270914D1*
X1129289Y3267954D1*
X1122075Y3264278D1*
X1114374Y3261776D1*
X1106377Y3260509D1*
X1082643Y3260350D1*
X1074571Y3260985D1*
X1066698Y3262875D1*
X1059217Y3265974D1*
X1052314Y3270205D1*
X1046146Y3275475D1*
X1033564Y3288281D1*
X1028805Y3294832D1*
X1025129Y3302046D1*
X1022626Y3309747D1*
X1021360Y3317744D1*
X1021201Y3349352D1*
X1021360Y3384896D1*
X1022626Y3392893D1*
X1025129Y3400594D1*
X1028804Y3407809D1*
X1033564Y3414359D1*
X1046157Y3427177D1*
X1052314Y3432436D1*
X1059217Y3436666D1*
X1066698Y3439765D1*
X1074571Y3441655D1*
X1082659Y3442290D1*
X1106377Y3442131D1*
X1114374Y3440865D1*
X1122075Y3438362D1*
X1129289Y3434687D1*
X1132671Y3432426D1*
X1142887Y3437297D1*
X1153526Y3440754D1*
X1164574Y3442503D1*
X1175760D1*
X1186808Y3440754D1*
X1197447Y3437297D1*
X1207413Y3432219D1*
X1209649Y3430725D1*
X1216887Y3434954D1*
X1227221Y3439234D1*
X1238098Y3441846D1*
X1249250Y3442723D1*
X1260401Y3441846D1*
X1271278Y3439234D1*
X1281612Y3434954D1*
X1291150Y3429109D1*
X1299656Y3421844D1*
X1306920Y3413338D1*
X1312765Y3403801D1*
X1317046Y3393466D1*
X1319371Y3384026D1*
X1319144Y3593830D1*
X1318939Y3617409D1*
Y3638473D1*
X1311818Y3637521D1*
X1300632D1*
X1289584Y3639271D1*
X1278945Y3642728D1*
X1269646Y3647432D1*
X1265347Y3644472D1*
X1258133Y3640796D1*
X1254316Y3639390D1*
X1249487Y3635810D1*
X1215359Y3601682D1*
X1216804Y3591697D1*
X1217054Y3585332D1*
X1216804Y3578967D1*
X1216055Y3572641D1*
X1214813Y3566393D1*
X1213083Y3560262D1*
X1210879Y3554286D1*
X1208212Y3548501D1*
X1205099Y3542943D1*
X1201560Y3537646D1*
X1197616Y3532644D1*
X1193292Y3527966D1*
X1188615Y3523642D1*
X1183612Y3519698D1*
X1178316Y3516159D1*
X1172758Y3513047D1*
X1166973Y3510380D1*
X1160996Y3508175D1*
X1154865Y3506446D1*
X1148618Y3505203D1*
X1142292Y3504455D1*
X1135927Y3504204D1*
X1129561Y3504455D1*
X1123235Y3505203D1*
X1116988Y3506446D1*
X1110857Y3508175D1*
X1104880Y3510380D1*
X1099095Y3513047D1*
X1093537Y3516159D1*
X1088241Y3519698D1*
X1083238Y3523642D1*
X1078561Y3527966D1*
X1074237Y3532644D1*
X1070293Y3537646D1*
X1066754Y3542943D1*
X1063641Y3548501D1*
X1060974Y3554286D1*
X1058770Y3560262D1*
X1057041Y3566393D1*
X1055798Y3572641D1*
X1055049Y3578967D1*
X1054799Y3585332D1*
X1055049Y3591697D1*
X1055798Y3598023D1*
X1057041Y3604271D1*
X1058770Y3610402D1*
X1060974Y3616378D1*
X1063641Y3622163D1*
X1066754Y3627721D1*
X1072588Y3635929D1*
X1074614Y3641499D1*
X1079342Y3650777D1*
X1085463Y3659202D1*
X1101992Y3676020D1*
X1157281Y3731310D1*
X1157418Y3761415D1*
X1158684Y3769412D1*
X1161186Y3777112D1*
X1164862Y3784327D1*
X1169622Y3790878D1*
X1182214Y3803695D1*
X1188371Y3808954D1*
X1195275Y3813185D1*
X1202756Y3816283D1*
X1210629Y3818173D1*
X1218717Y3818808D1*
X1242435Y3818650D1*
X1250432Y3817383D1*
X1258133Y3814881D1*
X1265347Y3811205D1*
X1268728Y3808944D1*
X1278945Y3813815D1*
X1289584Y3817272D1*
X1300632Y3819022D1*
X1311818D1*
X1322866Y3817272D1*
X1333504Y3813815D1*
X1343471Y3808737D1*
X1345707Y3807243D1*
X1352945Y3811472D1*
X1363279Y3815753D1*
X1374156Y3818364D1*
X1385307Y3819242D1*
X1396459Y3818364D1*
X1407336Y3815753D1*
X1417670Y3811472D1*
X1427208Y3805627D1*
X1435714Y3798363D1*
X1442978Y3789857D1*
X1448823Y3780319D1*
X1453104Y3769985D1*
X1455715Y3759108D1*
X1456593Y3747956D1*
X1456373Y3702994D1*
X1454623Y3691945D1*
X1451673Y3682681D1*
X1451667Y3606150D1*
X1452098Y3598585D1*
X1452099Y3263985D1*
X1458020Y3254162D1*
X1460687Y3248377D1*
X1462892Y3242401D1*
X1464621Y3236270D1*
X1465864Y3230022D1*
X1466612Y3223696D1*
X1466862Y3217331D1*
X1466612Y3210966D1*
X1465864Y3204640D1*
X1464621Y3198392D1*
X1462892Y3192261D1*
X1460687Y3186285D1*
X1458020Y3180500D1*
X1454908Y3174942D1*
X1451230Y3169469D1*
X1451242Y2862101D1*
X1450425Y2851719D1*
X1447994Y2841593D1*
X1444009Y2831972D1*
X1438567Y2823093D1*
X1431789Y2815161D1*
X1404781Y2788151D1*
X1403139Y2778528D1*
X1399682Y2767890D1*
X1394871Y2758400D1*
X1773964Y2751382D1*
X1774000Y3728983D1*
X1762792Y3732732D1*
X1756727Y3735528D1*
X1750899Y3738792D1*
X1745345Y3742503D1*
X1740100Y3746638D1*
X1735195Y3751172D1*
X1730662Y3756077D1*
X1726526Y3761322D1*
X1722816Y3766875D1*
X1719552Y3772703D1*
X1716756Y3778769D1*
X1714444Y3785035D1*
X1712631Y3791464D1*
X1711328Y3798014D1*
X1710543Y3804647D1*
X1710281Y3811322D1*
X1710543Y3817996D1*
X1711328Y3824629D1*
X1712631Y3831179D1*
X1714444Y3837608D1*
X1716756Y3843874D1*
X1719552Y3849940D1*
X1722816Y3855768D1*
X1726526Y3861321D1*
X1730662Y3866567D1*
X1735195Y3871471D1*
X1740100Y3876005D1*
X1745345Y3880140D1*
X1750899Y3883851D1*
X1756727Y3887115D1*
X1762792Y3889911D1*
X1774006Y3893618D1*
X1774000Y4010817D1*
X453345Y3996266D1*
X453370Y3983716D1*
X463308Y3986563D1*
X474139Y3988590D1*
X485117Y3989540D1*
X496135Y3989402D1*
X507086Y3988179D1*
X517863Y3985881D1*
X528361Y3982532D1*
X538477Y3978164D1*
X548113Y3972819D1*
X557176Y3966551D1*
X565576Y3959419D1*
X573231Y3951493D1*
X580068Y3942852D1*
X586019Y3933578D1*
X589231Y3927557D1*
X593866Y3935978D1*
X600047Y3945100D1*
X607098Y3953569D1*
X614949Y3961300D1*
X623524Y3968220D1*
X632740Y3974261D1*
X642507Y3979363D1*
X652729Y3983477D1*
X663308Y3986563D1*
X674139Y3988590D1*
X685117Y3989540D1*
X696135Y3989402D1*
X707086Y3988179D1*
X717863Y3985881D1*
X728361Y3982532D1*
X738477Y3978164D1*
X748113Y3972819D1*
X757176Y3966551D1*
X765576Y3959419D1*
X773231Y3951493D1*
X780068Y3942852D1*
X786019Y3933578D1*
X791027Y3923762D1*
X795042Y3913500D1*
X798026Y3902893D1*
X799949Y3892043D1*
X800792Y3881056D1*
X800818Y3876179D1*
X1157259Y3741602D2*
Y3741634D1*
X1021201Y3365084D2*
Y3365115D1*
Y3339493D2*
Y3339525D1*
X1105775Y2828185D2*
Y2828216D1*
Y2802594D2*
Y2802626D1*
X714145Y2803086D2*
X701814Y2815602D1*
X697412Y2821479D1*
X693888Y2827921D1*
X691314Y2834798D1*
X689742Y2841971D1*
X689205Y2849301D1*
X689335Y2912127D1*
X690378Y2919395D1*
X692441Y2926442D1*
X695484Y2933125D1*
X699444Y2939308D1*
X704248Y2944872D1*
X716849Y2957288D1*
X722726Y2961691D1*
X729168Y2965215D1*
X736045Y2967789D1*
X743217Y2969360D1*
X750548Y2969898D1*
X774004Y2969767D1*
X781272Y2968725D1*
X788319Y2966662D1*
X795002Y2963619D1*
X799699Y2960726D1*
X805808Y2962561D1*
X816143Y2966842D1*
X827019Y2969453D1*
X838171Y2970331D1*
X849322Y2969453D1*
X860199Y2966842D1*
X870534Y2962561D1*
X877653Y2958332D1*
X884891Y2962561D1*
X895225Y2966842D1*
X906102Y2969453D1*
X917253Y2970331D1*
X928405Y2969453D1*
X939282Y2966842D1*
X949616Y2962561D1*
X959154Y2956717D1*
X967660Y2949452D1*
X974924Y2940946D1*
X980769Y2931409D1*
X985050Y2921074D1*
X987661Y2910197D1*
X988539Y2899046D1*
X988319Y2854083D1*
X986569Y2843035D1*
X983112Y2832396D1*
X978034Y2822430D1*
X971459Y2813380D1*
X963549Y2805470D1*
X954500Y2798895D1*
X944533Y2793817D1*
X933895Y2790361D1*
X922846Y2788611D1*
X911661D1*
X900612Y2790361D1*
X889974Y2793817D1*
X880007Y2798895D1*
X877771Y2800390D1*
X870534Y2796161D1*
X860199Y2791880D1*
X849322Y2789269D1*
X838171Y2788391D1*
X827019Y2789269D1*
X816143Y2791880D1*
X805808Y2796161D1*
X801526Y2798454D1*
X795376Y2794443D1*
X788719Y2791345D1*
X781689Y2789223D1*
X774429Y2788121D1*
X761146Y2787958D1*
X746976Y2788088D1*
X739707Y2789131D1*
X732660Y2791194D1*
X725977Y2794237D1*
X719794Y2798198D1*
X714231Y2803001D1*
X923948Y3327124D2*
X923109Y3320030D1*
X921715Y3313025D1*
X919776Y3306150D1*
X917304Y3299448D1*
X914313Y3292962D1*
X910823Y3286729D1*
X906855Y3280790D1*
X902433Y3275181D1*
X897584Y3269936D1*
X892339Y3265087D1*
X886729Y3260665D1*
X880790Y3256696D1*
X874558Y3253206D1*
X868071Y3250216D1*
X861370Y3247743D1*
X854495Y3245805D1*
X847489Y3244411D1*
X840396Y3243572D1*
X833259Y3243291D1*
X826121Y3243572D1*
X819028Y3244411D1*
X812022Y3245805D1*
X805147Y3247743D1*
X798446Y3250216D1*
X791959Y3253206D1*
X783337Y3258293D1*
X774558Y3253206D1*
X768071Y3250216D1*
X761370Y3247743D1*
X754495Y3245805D1*
X747489Y3244411D1*
X740396Y3243572D1*
X733259Y3243291D1*
X726121Y3243572D1*
X719028Y3244411D1*
X712022Y3245805D1*
X705147Y3247743D1*
X698446Y3250216D1*
X691959Y3253206D1*
X683337Y3258293D1*
X675282Y3253579D1*
X666934Y3249754D1*
X658243Y3246789D1*
X649298Y3244716D1*
X640189Y3243555D1*
X631010Y3243319D1*
X621853Y3244009D1*
X612813Y3245618D1*
X603981Y3248131D1*
X595447Y3251521D1*
X587299Y3255755D1*
X579619Y3260788D1*
X572485Y3266569D1*
X565971Y3273041D1*
X560142Y3280136D1*
X555058Y3287783D1*
X550771Y3295903D1*
X547324Y3304414D1*
X544753Y3313229D1*
X543084Y3322259D1*
X542333Y3331410D1*
X542509Y3340591D1*
X543609Y3349707D1*
X545623Y3358666D1*
X548530Y3367376D1*
X552300Y3375749D1*
X556895Y3383699D1*
X562268Y3391146D1*
X568364Y3398013D1*
X575121Y3404230D1*
X582471Y3409734D1*
X590338Y3414470D1*
X598643Y3418388D1*
X607300Y3421449D1*
X616222Y3423622D1*
X625317Y3424884D1*
X634493Y3425223D1*
X643657Y3424635D1*
X652715Y3423126D1*
X661574Y3420712D1*
X670145Y3417417D1*
X678340Y3413275D1*
X683251Y3410261D1*
X691959Y3415316D1*
X698446Y3418307D1*
X705147Y3420779D1*
X712022Y3422718D1*
X719028Y3424111D1*
X726121Y3424951D1*
X733259Y3425231D1*
X740396Y3424951D1*
X747489Y3424111D1*
X754495Y3422718D1*
X761370Y3420779D1*
X768071Y3418307D1*
X774558Y3415316D1*
X783180Y3410229D1*
X791959Y3415316D1*
X798446Y3418307D1*
X805147Y3420779D1*
X812022Y3422718D1*
X819028Y3424111D1*
X826121Y3424951D1*
X833259Y3425231D1*
X840396Y3424951D1*
X847489Y3424111D1*
X854495Y3422718D1*
X861370Y3420779D1*
X868071Y3418307D1*
X874558Y3415316D1*
X880790Y3411826D1*
X886729Y3407857D1*
X892339Y3403435D1*
X897584Y3398587D1*
X902433Y3393341D1*
X906855Y3387732D1*
X910823Y3381793D1*
X914313Y3375561D1*
X917304Y3369074D1*
X919776Y3362372D1*
X921715Y3355498D1*
X923109Y3348492D1*
X923948Y3341399D1*
X924229Y3334261D1*
X923948Y3327124D1*
X689234Y3989580D2*
D21*
Y3878016D1*
X800798D1*
X689234Y3678016D2*
Y3566452D1*
Y3678016D2*
X800798D1*
X489234D2*
Y3566452D1*
Y3989580D2*
Y3878016D1*
X760490Y2969933D2*
Y2787923D1*
X689170Y2878928D2*
X760490D1*
X633259Y3425195D2*
Y3243327D1*
X542324Y3334261D2*
X633259D1*
X1835308Y4231769D2*
D20*
X2233374D1*
X2969141D2*
X3339073D1*
X3404524D2*
X3744385D1*
X3989580D2*
X4024031D1*
X1835308Y4191900D2*
X2233374D1*
X2944417D2*
X3019596D1*
X3452967D2*
X3744385D1*
X3991912D2*
X4013804D1*
X1835308Y4152031D2*
X2233374D1*
X3464702D2*
X3744385D1*
X3971673D2*
X4014055D1*
X1835308Y4112163D2*
X2233374D1*
X3457489D2*
X4024856D1*
X1835308Y4072294D2*
X2233374D1*
X3194243D2*
X3282304D1*
X3461293D2*
X4048898D1*
X1835308Y4032425D2*
X2233374D1*
X3184338D2*
X3280116D1*
X3463517D2*
X4098526D1*
X1835308Y3992556D2*
X2233374D1*
X3194781D2*
X3291024D1*
X3452573D2*
X4267612D1*
X1835308Y3952688D2*
X2233912D1*
X3186097D2*
X3278967D1*
X3464666D2*
X4267612D1*
X1835308Y3912819D2*
X2252572D1*
X3159327D2*
X3285857D1*
X3457776D2*
X4267612D1*
X1976082Y3872950D2*
X2366181D1*
X2759147D2*
X2847065D1*
X3120070D2*
X3319229D1*
X3424368D2*
X4160965D1*
X1999694Y3833081D2*
X2326170D1*
X3063732D2*
X4141515D1*
X2000555Y3793213D2*
X2316123D1*
X3037608D2*
X4140224D1*
X1983833Y3753344D2*
X2325919D1*
X3037608D2*
X3561519D1*
X3912070D2*
X4140224D1*
X1983833Y3713475D2*
X2370990D1*
X2439383D2*
X2528449D1*
X2596878D2*
X2685945D1*
X2754338D2*
X2860701D1*
X3037608D2*
X3544833D1*
X3928792D2*
X4140224D1*
X1983833Y3673606D2*
X2887040D1*
X3037608D2*
X3547812D1*
X3925813D2*
X4140224D1*
X1989574Y3633738D2*
X2887040D1*
X3037608D2*
X3573433D1*
X3900192D2*
X3998409D1*
X4118476D2*
X4267612D1*
X2186722Y3593869D2*
X2887040D1*
X3037608D2*
X3975515D1*
X4141334D2*
X4267612D1*
X2209329Y3554000D2*
X2887040D1*
X3042811D2*
X3976089D1*
X4140760D2*
X4267612D1*
X2210478Y3514131D2*
X2888763D1*
X3306452D2*
X3983159D1*
X4133726D2*
X4267612D1*
X2191351Y3474262D2*
X2912949D1*
X3336452D2*
X3983159D1*
X4133726D2*
X4267612D1*
X1835308Y3434394D2*
X2935879D1*
X3341762D2*
X3983159D1*
X4133726D2*
X4267612D1*
X1835308Y3394525D2*
X2896011D1*
X3327911D2*
X3974367D1*
X4142482D2*
X4267612D1*
X1835308Y3354656D2*
X2856144D1*
X3065777D2*
X3133206D1*
X3165140D2*
X3233215D1*
X3265114D2*
X3977848D1*
X4139001D2*
X4267612D1*
X1835308Y3314787D2*
X2816277D1*
X3025910D2*
X4008170D1*
X4108715D2*
X4267612D1*
X1835308Y3274919D2*
X2776804D1*
X2986042D2*
X3972142D1*
X4084565D2*
X4172161D1*
X1835308Y3235050D2*
X2760405D1*
X2946175D2*
X3929476D1*
X1835308Y3195181D2*
X2760154D1*
X2910722D2*
X3914369D1*
X1835308Y3155312D2*
X2760154D1*
X2910722D2*
X3914763D1*
X1835308Y3115444D2*
X2760154D1*
X2910722D2*
X3930803D1*
X1835308Y3075575D2*
X2760154D1*
X2910722D2*
X3973398D1*
X1835308Y3035706D2*
X2760154D1*
X2910722D2*
X3254638D1*
X3570452D2*
X3929906D1*
X1835308Y2995837D2*
X2760154D1*
X2910722D2*
X3223921D1*
X3601169D2*
X3914476D1*
X1835308Y2955969D2*
X2760154D1*
X2910722D2*
X3217821D1*
X3607270D2*
X3914620D1*
X1835308Y2916100D2*
X2760154D1*
X2910722D2*
X3230272D1*
X3594818D2*
X3930373D1*
X1835308Y2876231D2*
X2760154D1*
X2910722D2*
X3279506D1*
X3345602D2*
X3379479D1*
X3445611D2*
X3479488D1*
X3545620D2*
X3974941D1*
X4081802D2*
X4149876D1*
X2176208Y2836362D2*
X2760154D1*
X2910722D2*
X3849023D1*
X3944437D2*
X4125296D1*
X2694878Y2796493D2*
X2760154D1*
X2910722D2*
X3792183D1*
X4001278D2*
X4119052D1*
X2735535Y2756625D2*
X2760154D1*
X2910722D2*
X3769684D1*
X4023741D2*
X4127664D1*
X2910722Y2716756D2*
X3762435D1*
X4031026D2*
X4156264D1*
X1835308Y2676887D2*
X2060053D1*
X2998817D2*
X3767638D1*
X4025787D2*
X4267612D1*
X457966Y2637018D2*
X2645540D1*
X2998817D2*
X3787231D1*
X4006230D2*
X4267612D1*
X457930Y2597150D2*
X1907761D1*
X2998817D2*
X3298919D1*
X4164084D2*
X4267612D1*
X457930Y2557281D2*
X583455D1*
X720207D2*
X937775D1*
X1074528D2*
X1890177D1*
X2998817D2*
X3283812D1*
X4179192D2*
X4267612D1*
X457930Y2517412D2*
X564221D1*
X739405D2*
X918541D1*
X1093762D2*
X1890177D1*
X3039833D2*
X3283812D1*
X4179192D2*
X4267612D1*
X457930Y2477543D2*
X566266D1*
X737396D2*
X920587D1*
X1091716D2*
X1890177D1*
X3096422D2*
X3283812D1*
X4179192D2*
X4267612D1*
X457894Y2437675D2*
X591780D1*
X711846D2*
X946136D1*
X1066167D2*
X1890177D1*
X3107008D2*
X3283812D1*
X4179192D2*
X4267612D1*
X457894Y2397806D2*
X1890177D1*
X3096638D2*
X3283812D1*
X4179192D2*
X4267612D1*
X457894Y2357937D2*
X962177D1*
X1061215D2*
X1890177D1*
X3047117D2*
X3283812D1*
X4179192D2*
X4267612D1*
X457858Y2318068D2*
X928876D1*
X1094515D2*
X1890177D1*
X3007250D2*
X3283812D1*
X4179192D2*
X4267612D1*
X457858Y2278199D2*
X922991D1*
X1100400D2*
X1890177D1*
X2999678D2*
X3283812D1*
X457858Y2238331D2*
X937309D1*
X1086082D2*
X1890177D1*
X2999678D2*
X3283812D1*
X457858Y2198462D2*
X1890177D1*
X2999678D2*
X3283812D1*
X457822Y2158593D2*
X1890177D1*
X2999678D2*
X3283812D1*
X457822Y2118724D2*
X579077D1*
X724549D2*
X933397D1*
X1078906D2*
X1890177D1*
X2999678D2*
X3194998D1*
X457822Y2078856D2*
X563360D1*
X740267D2*
X917716D1*
X1094587D2*
X1890788D1*
X3009367D2*
X3140777D1*
X4178187D2*
X4267612D1*
X457822Y2038987D2*
X568096D1*
X735566D2*
X922417D1*
X1089886D2*
X1925057D1*
X3001688D2*
X3122584D1*
X4132147D2*
X4267612D1*
X457786Y1999118D2*
X598777D1*
X704885D2*
X930778D1*
X1071513D2*
X2640444D1*
X2960206D2*
X3120682D1*
X3348006D2*
X4267612D1*
X457786Y1959249D2*
X930778D1*
X1071513D2*
X1463730D1*
X1615087D2*
X1818086D1*
X1969443D2*
X2451227D1*
X2937384D2*
X3134103D1*
X3334586D2*
X4267612D1*
X457786Y1919381D2*
X930778D1*
X1071513D2*
X1450560D1*
X1628293D2*
X1804881D1*
X1982613D2*
X2420474D1*
X2968136D2*
X3172750D1*
X3295938D2*
X4267612D1*
X457750Y1879512D2*
X930778D1*
X1071513D2*
X1457414D1*
X1621439D2*
X1811735D1*
X1975759D2*
X2412328D1*
X2976282D2*
X4267612D1*
X457750Y1839643D2*
X722542D1*
X888109D2*
X930778D1*
X1242430D2*
X1277563D1*
X1427879D2*
X1493119D1*
X1585734D2*
X1847439D1*
X1940054D2*
X2021370D1*
X2174557D2*
X2420618D1*
X2967993D2*
X4267612D1*
X457750Y1799774D2*
X703200D1*
X907487D2*
X930778D1*
X1467101D2*
X1983010D1*
X2212918D2*
X2451693D1*
X2675214D2*
X2726566D1*
X2762556D2*
X2806014D1*
X2936917D2*
X4267612D1*
X457750Y1759906D2*
X701944D1*
X908743D2*
X930778D1*
X1483679D2*
X1837141D1*
X2229137D2*
X2425713D1*
X2635346D2*
X4267612D1*
X457714Y1720037D2*
X717985D1*
X892703D2*
X933433D1*
X1486658D2*
X1813170D1*
X2231829D2*
X2385846D1*
X2595479D2*
X4267612D1*
X457714Y1680168D2*
X772385D1*
X838266D2*
X961710D1*
X1192623D2*
X1228473D1*
X1476969D2*
X1812093D1*
X2221817D2*
X2345978D1*
X2555612D2*
X4267612D1*
X457714Y1640299D2*
X1001577D1*
X1197288D2*
X1254597D1*
X1450881D2*
X1815754D1*
X2515744D2*
X4267612D1*
X457714Y1600430D2*
X1041445D1*
X1237155D2*
X1339571D1*
X1365907D2*
X1775886D1*
X2588410D2*
X2800200D1*
X2942766D2*
X4267612D1*
X457679Y1560562D2*
X1081312D1*
X1277022D2*
X1507042D1*
X1571811D2*
X1740361D1*
X2615610D2*
X2773000D1*
X2969930D2*
X4267612D1*
X457679Y1520693D2*
X778916D1*
X831735D2*
X1121179D1*
X1345238D2*
X1460536D1*
X1618317D2*
X1731964D1*
X2377770D2*
X2412436D1*
X2621854D2*
X2766756D1*
X2976174D2*
X4267612D1*
X457679Y1480824D2*
X719169D1*
X891483D2*
X1073489D1*
X1378862D2*
X1450345D1*
X1628472D2*
X1731964D1*
X1982828D2*
X2125183D1*
X2965911D2*
X3176877D1*
X3291812D2*
X4267612D1*
X457643Y1440955D2*
X702231D1*
X908420D2*
X1056588D1*
X1383814D2*
X1460034D1*
X1618819D2*
X1731964D1*
X1973140D2*
X2134046D1*
X2966629D2*
X3135502D1*
X3333186D2*
X4267612D1*
X457643Y1401087D2*
X702806D1*
X924496D2*
X1057126D1*
X1367092D2*
X1469328D1*
X1610063D2*
X1731964D1*
X1928571D2*
X2180229D1*
X3006496D2*
X3121005D1*
X3347647D2*
X4267612D1*
X457643Y1361218D2*
X721214D1*
X964363D2*
X1075535D1*
X1243793D2*
X1469471D1*
X1610207D2*
X1731964D1*
X1882532D2*
X1906397D1*
X3037500D2*
X3122046D1*
X4175137D2*
X4267612D1*
X457643Y1321349D2*
X808520D1*
X1004231D2*
X1469615D1*
X1641901D2*
X1731964D1*
X3041448D2*
X3139091D1*
X4198605D2*
X4267612D1*
X457607Y1281480D2*
X848424D1*
X1044098D2*
X1469758D1*
X1706520D2*
X1731964D1*
X3041448D2*
X3188575D1*
X3280113D2*
X3303261D1*
X457607Y1241612D2*
X888291D1*
X1083965D2*
X1469902D1*
X3065741D2*
X3303261D1*
X457607Y1201743D2*
X928158D1*
X1123833D2*
X1470045D1*
X1707920D2*
X1731964D1*
X3068863D2*
X3303261D1*
X457607Y1161874D2*
X968026D1*
X1163700D2*
X1470189D1*
X1702932D2*
X1731964D1*
X3049773D2*
X3303261D1*
X457571Y1122005D2*
X1007893D1*
X1702932D2*
X1731964D1*
X2785414D2*
X2850115D1*
X3030144D2*
X3303261D1*
X457571Y1082136D2*
X1047760D1*
X1702932D2*
X1731964D1*
X2785414D2*
X2848321D1*
X2991999D2*
X3303261D1*
X457571Y1042268D2*
X1087628D1*
X1702932D2*
X1731964D1*
X2785414D2*
X2848321D1*
X2989057D2*
X3303261D1*
X457535Y1002399D2*
X1551861D1*
X2785414D2*
X2839207D1*
X2989057D2*
X3303261D1*
X457535Y962530D2*
X1548560D1*
X2785414D2*
X2816815D1*
X2989021D2*
X3303261D1*
X457535Y922661D2*
X1567399D1*
X1697728D2*
X1731964D1*
X2785414D2*
X2817712D1*
X2982059D2*
X3303261D1*
X457535Y882793D2*
X1731964D1*
X2785414D2*
X2843082D1*
X2956725D2*
X3303261D1*
X4198677D2*
X4267612D1*
X457499Y842924D2*
X1739213D1*
X2784625D2*
X3303404D1*
X4198569D2*
X4267612D1*
X457499Y803055D2*
X1773662D1*
X2746695D2*
X3328272D1*
X4173701D2*
X4267612D1*
X457499Y763186D2*
X1813529D1*
X2151376D2*
X3879776D1*
X3913649D2*
X4267612D1*
X457463Y723318D2*
X1876147D1*
X2183564D2*
X3370795D1*
X3681801D2*
X3798283D1*
X3995178D2*
X4267612D1*
X679694Y683449D2*
X1830466D1*
X2196949D2*
X3338391D1*
X3714240D2*
X3772339D1*
X4021122D2*
X4047678D1*
X712169Y643580D2*
X1818840D1*
X2208540D2*
X3331466D1*
X3721166D2*
X3762758D1*
X728281Y603711D2*
X1825765D1*
X2201650D2*
X3343021D1*
X3709575D2*
X3765844D1*
X733090Y563843D2*
X1858097D1*
X2169283D2*
X3388593D1*
X3464020D2*
X3488567D1*
X3564029D2*
X3588576D1*
X3664038D2*
X3782566D1*
X727671Y523974D2*
X3822039D1*
X3971386D2*
X3999773D1*
X710770Y484105D2*
X4016710D1*
X4026740Y2704387D2*
X4025770Y2695254D1*
X4024161Y2686211D1*
X4021918Y2677305D1*
X4019054Y2668579D1*
X4015582Y2660076D1*
X4011520Y2651838D1*
X4006888Y2643907D1*
X4001709Y2636322D1*
X3996009Y2629121D1*
X3989815Y2622339D1*
X3983160Y2616009D1*
X3977487Y2611329D1*
X4129122Y2611186D1*
X4136872Y2609958D1*
X4144334Y2607534D1*
X4151324Y2603972D1*
X4157672Y2599360D1*
X4163220Y2593812D1*
X4167832Y2587465D1*
X4171394Y2580474D1*
X4173818Y2573012D1*
X4175045Y2565263D1*
X4175200Y2533781D1*
Y2291670D1*
X4183806Y2296569D1*
X4191696Y2300207D1*
X4199848Y2303214D1*
X4208210Y2305573D1*
X4216732Y2307268D1*
X4225360Y2308289D1*
X4234042Y2308630D1*
X4242724Y2308289D1*
X4251352Y2307268D1*
X4259874Y2305573D1*
X4271580Y2301981D1*
X4271598Y2695584D1*
X4259493Y2691965D1*
X4250972Y2690270D1*
X4242343Y2689249D1*
X4233661Y2688908D1*
X4224980Y2689249D1*
X4216351Y2690270D1*
X4207829Y2691965D1*
X4199467Y2694324D1*
X4191316Y2697331D1*
X4183425Y2700969D1*
X4175844Y2705214D1*
X4168620Y2710041D1*
X4161797Y2715420D1*
X4155416Y2721318D1*
X4149519Y2727698D1*
X4144140Y2734522D1*
X4139312Y2741746D1*
X4135067Y2749327D1*
X4131429Y2757217D1*
X4128422Y2765369D1*
X4126064Y2773731D1*
X4124369Y2782253D1*
X4123347Y2790881D1*
X4123006Y2799563D1*
X4123347Y2808245D1*
X4124369Y2816873D1*
X4126064Y2825395D1*
X4128422Y2833757D1*
X4131429Y2841909D1*
X4135067Y2849799D1*
X4139312Y2857380D1*
X4144140Y2864604D1*
X4149519Y2871428D1*
X4155416Y2877808D1*
X4163796Y2885282D1*
X4156373Y2891007D1*
X4148314Y2898522D1*
X4141035Y2906795D1*
X4134608Y2915746D1*
X4129095Y2925287D1*
X4128313Y2926644D1*
X4122930Y2917029D1*
X4116625Y2907992D1*
X4109460Y2899620D1*
X4101504Y2891996D1*
X4092835Y2885194D1*
X4083538Y2879279D1*
X4073702Y2874311D1*
X4063425Y2870336D1*
X4052806Y2867395D1*
X4041948Y2865515D1*
X4030958Y2864715D1*
X4019943Y2865003D1*
X4009009Y2866375D1*
X3998265Y2868820D1*
X3987814Y2872311D1*
X3977758Y2876817D1*
X3968195Y2882292D1*
X3959219Y2888684D1*
X3950917Y2895929D1*
X3943370Y2903958D1*
X3936652Y2912692D1*
X3930827Y2922047D1*
X3925954Y2931929D1*
X3922079Y2942245D1*
X3919240Y2952892D1*
X3917465Y2963767D1*
X3916771Y2974764D1*
X3917165Y2985777D1*
X3918643Y2996696D1*
X3921191Y3007417D1*
X3924784Y3017834D1*
X3929386Y3027846D1*
X3934953Y3037355D1*
X3941431Y3046269D1*
X3948757Y3054501D1*
X3956858Y3061970D1*
X3965657Y3068603D1*
X3975067Y3074337D1*
X3978819Y3076282D1*
X3969750Y3081314D1*
X3960670Y3087557D1*
X3952250Y3094665D1*
X3944572Y3102569D1*
X3937711Y3111191D1*
X3931734Y3120448D1*
X3926698Y3130250D1*
X3922654Y3140500D1*
X3919640Y3151099D1*
X3917686Y3161943D1*
X3916811Y3172928D1*
X3917024Y3183945D1*
X3918322Y3194887D1*
X3920693Y3205648D1*
X3924114Y3216123D1*
X3928551Y3226209D1*
X3933961Y3235809D1*
X3940291Y3244828D1*
X3947480Y3253180D1*
X3955457Y3260781D1*
X3964145Y3267559D1*
X3973460Y3273447D1*
X3983309Y3278387D1*
X3993598Y3282332D1*
X4004225Y3285244D1*
X4015088Y3287093D1*
X4026080Y3287861D1*
X4037095Y3287542D1*
X4048024Y3286139D1*
X4058762Y3283664D1*
X4069203Y3280143D1*
X4079246Y3275609D1*
X4088793Y3270106D1*
X4097751Y3263689D1*
X4106033Y3256420D1*
X4113557Y3248370D1*
X4120250Y3239616D1*
X4126048Y3230246D1*
X4128359Y3225826D1*
X4132993Y3234247D1*
X4139174Y3243369D1*
X4146225Y3251838D1*
X4154076Y3259569D1*
X4162651Y3266489D1*
X4171868Y3272530D1*
X4181634Y3277632D1*
X4191857Y3281746D1*
X4202435Y3284832D1*
X4213266Y3286859D1*
X4224244Y3287809D1*
X4235262Y3287671D1*
X4246213Y3286448D1*
X4256990Y3284150D1*
X4267488Y3280801D1*
X4271602Y3279163D1*
X4271582Y3658920D1*
X4144235D1*
Y3818787D1*
X4144485Y3825153D1*
X4145233Y3831479D1*
X4146476Y3837726D1*
X4148205Y3843857D1*
X4150410Y3849834D1*
X4153077Y3855619D1*
X4156190Y3861176D1*
X4159729Y3866473D1*
X4163672Y3871476D1*
X4167996Y3876153D1*
X4172674Y3880477D1*
X4177677Y3884421D1*
X4182973Y3887960D1*
X4188531Y3891073D1*
X4194316Y3893739D1*
X4200292Y3895944D1*
X4206423Y3897673D1*
X4212671Y3898916D1*
X4218997Y3899665D1*
X4225362Y3899915D1*
X4231727Y3899665D1*
X4238053Y3898916D1*
X4244301Y3897673D1*
X4250432Y3895944D1*
X4256408Y3893739D1*
X4262193Y3891073D1*
X4271579Y3885403D1*
X4271598Y4048346D1*
X4261409Y4041019D1*
X4253592Y4036196D1*
X4245508Y4031835D1*
X4237184Y4027952D1*
X4228649Y4024559D1*
X4219930Y4021669D1*
X4211059Y4019290D1*
X4202064Y4017430D1*
X4192976Y4016097D1*
X4183826Y4015294D1*
X4174645Y4015025D1*
X4165464Y4015290D1*
X4156314Y4016088D1*
X4147225Y4017417D1*
X4138229Y4019272D1*
X4129357Y4021646D1*
X4120637Y4024533D1*
X4112100Y4027921D1*
X4103774Y4031801D1*
X4095688Y4036157D1*
X4087869Y4040976D1*
X4080343Y4046242D1*
X4073136Y4051937D1*
X4066272Y4058040D1*
X4059775Y4064533D1*
X4053666Y4071392D1*
X4047967Y4078595D1*
X4042695Y4086116D1*
X4037870Y4093932D1*
X4033508Y4102015D1*
X4029622Y4110338D1*
X4026228Y4118872D1*
X4023335Y4127590D1*
X4020953Y4136461D1*
X4019092Y4145455D1*
X4017756Y4154543D1*
X4016951Y4163693D1*
X4016680Y4172874D1*
X4016942Y4182055D1*
X4017738Y4191205D1*
X4019065Y4200294D1*
X4020917Y4209291D1*
X4023290Y4218164D1*
X4026174Y4226884D1*
X4029561Y4235422D1*
X4033438Y4243749D1*
X4037793Y4251836D1*
X4042610Y4259656D1*
X4051365Y4271604D1*
X3957624D1*
X3965603Y4264614D1*
X3969927Y4259936D1*
X3973871Y4254934D1*
X3977410Y4249637D1*
X3980523Y4244079D1*
X3983190Y4238294D1*
X3985394Y4232318D1*
X3987124Y4226187D1*
X3988366Y4219939D1*
X3989115Y4213613D1*
X3989365Y4207248D1*
X3989115Y4200883D1*
X3988366Y4194557D1*
X3987124Y4188309D1*
X3985394Y4182178D1*
X3983190Y4176202D1*
X3980523Y4170417D1*
X3977410Y4164859D1*
X3973871Y4159562D1*
X3969927Y4154560D1*
X3965603Y4149882D1*
X3960926Y4145558D1*
X3955923Y4141614D1*
X3950627Y4138075D1*
X3945069Y4134963D1*
X3939284Y4132296D1*
X3933307Y4130091D1*
X3927176Y4128362D1*
X3920929Y4127119D1*
X3910649Y4126215D1*
X3901439Y4126120D1*
X3748370D1*
Y4271602D1*
X2966718Y4271619D1*
X2968109Y4261616D1*
X2968372Y4254942D1*
X2968109Y4248268D1*
X2967324Y4241635D1*
X2966021Y4235084D1*
X2964208Y4228656D1*
X2961896Y4222389D1*
X2959100Y4216324D1*
X2955837Y4210496D1*
X2952126Y4204943D1*
X2947991Y4199697D1*
X2943457Y4194793D1*
X2938552Y4190259D1*
X2933307Y4186124D1*
X2927753Y4182413D1*
X2921926Y4179149D1*
X2915493Y4176217D1*
X2921926Y4173255D1*
X2927753Y4169991D1*
X2933573Y4166071D1*
X2967903Y4165853D1*
X2978951Y4164103D1*
X2989589Y4160646D1*
X2999556Y4155568D1*
X3004227Y4152445D1*
X3008619Y4153513D1*
X3010368Y4164561D1*
X3013825Y4175200D1*
X3018903Y4185167D1*
X3025478Y4194216D1*
X3033388Y4202126D1*
X3042438Y4208701D1*
X3052404Y4213779D1*
X3063043Y4217236D1*
X3074091Y4218986D1*
X3098057Y4219205D1*
X3124647Y4218986D1*
X3135695Y4217236D1*
X3145000Y4214271D1*
X3248314Y4214066D1*
X3271022Y4213897D1*
X3312469D1*
X3319495Y4219537D1*
X3325305Y4223419D1*
X3331403Y4226834D1*
X3337749Y4229760D1*
X3344305Y4232178D1*
X3351031Y4234075D1*
X3357885Y4235439D1*
X3364825Y4236260D1*
X3371808Y4236534D1*
X3378791Y4236260D1*
X3385731Y4235439D1*
X3392585Y4234075D1*
X3399311Y4232178D1*
X3405868Y4229760D1*
X3412214Y4226834D1*
X3418312Y4223419D1*
X3424122Y4219537D1*
X3429610Y4215210D1*
X3434742Y4210466D1*
X3439486Y4205335D1*
X3443812Y4199847D1*
X3447695Y4194036D1*
X3451109Y4187939D1*
X3454035Y4181592D1*
X3456454Y4175036D1*
X3458351Y4168310D1*
X3459714Y4161456D1*
X3460536Y4154516D1*
X3460810Y4147533D1*
X3460536Y4140550D1*
X3459714Y4133610D1*
X3458351Y4126756D1*
X3456454Y4120030D1*
X3454035Y4113473D1*
X3451109Y4107127D1*
X3445405Y4097602D1*
X3451109Y4087939D1*
X3454035Y4081592D1*
X3456454Y4075036D1*
X3458351Y4068310D1*
X3459714Y4061456D1*
X3460536Y4054516D1*
X3460810Y4047533D1*
X3460536Y4040550D1*
X3459714Y4033610D1*
X3458351Y4026756D1*
X3456454Y4020030D1*
X3454035Y4013473D1*
X3451109Y4007127D1*
X3445405Y3997602D1*
X3451109Y3987939D1*
X3454035Y3981592D1*
X3456454Y3975036D1*
X3458351Y3968310D1*
X3459714Y3961456D1*
X3460536Y3954516D1*
X3460810Y3947533D1*
X3460536Y3940550D1*
X3459714Y3933610D1*
X3458351Y3926756D1*
X3456454Y3920030D1*
X3454035Y3913473D1*
X3451109Y3907127D1*
X3447695Y3901030D1*
X3443812Y3895219D1*
X3439486Y3889731D1*
X3434742Y3884599D1*
X3429610Y3879855D1*
X3424122Y3875529D1*
X3418312Y3871646D1*
X3412214Y3868232D1*
X3405868Y3865306D1*
X3399311Y3862887D1*
X3392585Y3860990D1*
X3385731Y3859627D1*
X3378791Y3858806D1*
X3371808Y3858531D1*
X3364825Y3858806D1*
X3357885Y3859627D1*
X3351031Y3860990D1*
X3344305Y3862887D1*
X3337749Y3865306D1*
X3331403Y3868232D1*
X3325305Y3871646D1*
X3319495Y3875529D1*
X3314006Y3879855D1*
X3308875Y3884599D1*
X3304131Y3889731D1*
X3299805Y3895219D1*
X3295922Y3901030D1*
X3292507Y3907127D1*
X3289582Y3913473D1*
X3287163Y3920030D1*
X3285266Y3926756D1*
X3283903Y3933610D1*
X3283081Y3940550D1*
X3282807Y3947533D1*
X3283081Y3954516D1*
X3283903Y3961456D1*
X3285266Y3968310D1*
X3287163Y3975036D1*
X3289582Y3981592D1*
X3292507Y3987939D1*
X3298212Y3997463D1*
X3292507Y4007127D1*
X3289582Y4013473D1*
X3287163Y4020030D1*
X3285266Y4026756D1*
X3283903Y4033610D1*
X3283081Y4040550D1*
X3282807Y4047533D1*
X3283081Y4054516D1*
X3283903Y4061456D1*
X3285266Y4068310D1*
X3287163Y4075036D1*
X3289421Y4081157D1*
X3238236Y4081376D1*
X3215528Y4081546D1*
X3189224D1*
X3190119Y4074431D1*
Y4063245D1*
X3188369Y4052196D1*
X3184913Y4041558D1*
X3180208Y4032259D1*
X3183168Y4027960D1*
X3186844Y4020746D1*
X3189346Y4013045D1*
X3190613Y4005048D1*
X3190772Y3981314D1*
X3190137Y3973242D1*
X3188247Y3965369D1*
X3185148Y3957888D1*
X3180917Y3950984D1*
X3175647Y3944816D1*
X3168177Y3937345D1*
X3165669Y3930236D1*
X3160590Y3920269D1*
X3154015Y3911220D1*
X3137224Y3894118D1*
X3091451Y3848655D1*
X3082401Y3842080D1*
X3072434Y3837002D1*
X3061796Y3833545D1*
X3050748Y3831796D1*
X3033564Y3831576D1*
X3033595Y3559264D1*
X3061865Y3530962D1*
X3069941Y3529393D1*
X3076667Y3527496D1*
X3083223Y3525077D1*
X3089570Y3522151D1*
X3099095Y3516447D1*
X3108758Y3522151D1*
X3115105Y3525077D1*
X3121661Y3527496D1*
X3128387Y3529393D1*
X3135241Y3530756D1*
X3142181Y3531578D1*
X3149164Y3531852D1*
X3156147Y3531578D1*
X3163087Y3530756D1*
X3169941Y3529393D1*
X3176667Y3527496D1*
X3183223Y3525077D1*
X3189570Y3522151D1*
X3199095Y3516447D1*
X3208758Y3522151D1*
X3215105Y3525077D1*
X3221661Y3527496D1*
X3228387Y3529393D1*
X3235241Y3530756D1*
X3242181Y3531578D1*
X3249164Y3531852D1*
X3256147Y3531578D1*
X3263087Y3530756D1*
X3269941Y3529393D1*
X3276667Y3527496D1*
X3283223Y3525077D1*
X3289570Y3522151D1*
X3295667Y3518737D1*
X3301478Y3514854D1*
X3306966Y3510528D1*
X3312098Y3505784D1*
X3316841Y3500652D1*
X3321168Y3495164D1*
X3325050Y3489354D1*
X3328465Y3483256D1*
X3331391Y3476910D1*
X3333810Y3470353D1*
X3335706Y3463627D1*
X3337070Y3456773D1*
X3337891Y3449833D1*
X3338166Y3442850D1*
X3337891Y3435867D1*
X3337070Y3428927D1*
X3335706Y3422073D1*
X3333810Y3415347D1*
X3331391Y3408791D1*
X3328465Y3402445D1*
X3325050Y3396347D1*
X3321168Y3390537D1*
X3316841Y3385048D1*
X3312098Y3379917D1*
X3306966Y3375173D1*
X3301478Y3370847D1*
X3295667Y3366964D1*
X3289570Y3363549D1*
X3283223Y3360624D1*
X3276667Y3358205D1*
X3269941Y3356308D1*
X3263087Y3354945D1*
X3256147Y3354123D1*
X3249164Y3353849D1*
X3242181Y3354123D1*
X3235241Y3354945D1*
X3228387Y3356308D1*
X3221661Y3358205D1*
X3215105Y3360624D1*
X3208758Y3363549D1*
X3199233Y3369254D1*
X3189570Y3363549D1*
X3183223Y3360624D1*
X3176667Y3358205D1*
X3169941Y3356308D1*
X3163087Y3354945D1*
X3156147Y3354123D1*
X3149164Y3353849D1*
X3142181Y3354123D1*
X3135241Y3354945D1*
X3128387Y3356308D1*
X3121661Y3358205D1*
X3115105Y3360624D1*
X3108758Y3363549D1*
X3099233Y3369254D1*
X3089570Y3363549D1*
X3083223Y3360624D1*
X3076667Y3358205D1*
X3069941Y3356308D1*
X3061921Y3354807D1*
X2906703Y3199577D1*
X2906710Y2707176D1*
X2994818Y2707150D1*
Y2513959D1*
X3002938Y2516379D1*
X3009185Y2517622D1*
X3015511Y2518371D1*
X3021877Y2518621D1*
X3028242Y2518371D1*
X3034568Y2517622D1*
X3040815Y2516379D1*
X3046946Y2514650D1*
X3052923Y2512446D1*
X3058708Y2509779D1*
X3064266Y2506666D1*
X3069562Y2503127D1*
X3074565Y2499183D1*
X3079242Y2494859D1*
X3083567Y2490182D1*
X3087510Y2485179D1*
X3091049Y2479882D1*
X3094162Y2474325D1*
X3096829Y2468540D1*
X3099034Y2462563D1*
X3100763Y2456432D1*
X3102005Y2450185D1*
X3102754Y2443859D1*
X3103004Y2437493D1*
X3102754Y2431128D1*
X3102005Y2424802D1*
X3100763Y2418555D1*
X3099034Y2412424D1*
X3096829Y2406447D1*
X3094162Y2400662D1*
X3091049Y2395104D1*
X3087510Y2389808D1*
X3083567Y2384805D1*
X3079242Y2380128D1*
X3074565Y2375804D1*
X3069562Y2371860D1*
X3064266Y2368321D1*
X3058708Y2365208D1*
X3052923Y2362541D1*
X3044959Y2359776D1*
X2995679Y2310483D1*
X2995674Y2112464D1*
X2999341Y2104798D1*
X3001545Y2098822D1*
X3003274Y2092691D1*
X3004517Y2086443D1*
X3005266Y2080117D1*
X3005516Y2073752D1*
X3005266Y2067387D1*
X3004517Y2061061D1*
X3003274Y2054813D1*
X3001545Y2048682D1*
X2999341Y2042706D1*
X2996674Y2036921D1*
X2993561Y2031363D1*
X2990022Y2026066D1*
X2986078Y2021064D1*
X2981754Y2016386D1*
X2977077Y2012062D1*
X2972074Y2008118D1*
X2966777Y2004579D1*
X2961220Y2001467D1*
X2955435Y1998800D1*
X2949458Y1996595D1*
X2943327Y1994866D1*
X2937080Y1993623D1*
X2930754Y1992874D1*
X2924388Y1992624D1*
X2918023Y1992874D1*
X2906694Y1994618D1*
X2906710Y1974134D1*
X2917239Y1969510D1*
X2924146Y1965642D1*
X2930727Y1961244D1*
X2936944Y1956344D1*
X2942756Y1950970D1*
X2948130Y1945158D1*
X2953030Y1938941D1*
X2957428Y1932359D1*
X2961296Y1925453D1*
X2964610Y1918264D1*
X2967350Y1910838D1*
X2969498Y1903219D1*
X2971043Y1895456D1*
X2971973Y1887595D1*
X2972284Y1879685D1*
X2971973Y1871775D1*
X2971043Y1863914D1*
X2969498Y1856151D1*
X2967350Y1848532D1*
X2964610Y1841106D1*
X2961296Y1833917D1*
X2957428Y1827011D1*
X2953030Y1820429D1*
X2948130Y1814212D1*
X2942756Y1808400D1*
X2936944Y1803027D1*
X2930727Y1798126D1*
X2924146Y1793728D1*
X2917239Y1789860D1*
X2910050Y1786546D1*
X2902624Y1783807D1*
X2895005Y1781658D1*
X2887242Y1780114D1*
X2879381Y1779183D1*
X2871471Y1778872D1*
X2863561Y1779183D1*
X2855701Y1780114D1*
X2847937Y1781658D1*
X2840318Y1783807D1*
X2832892Y1786546D1*
X2825703Y1789860D1*
X2818797Y1793728D1*
X2812215Y1798126D1*
X2805999Y1803027D1*
X2800186Y1808400D1*
X2793951Y1815305D1*
X2786956Y1810512D1*
X2781398Y1807400D1*
X2775613Y1804733D1*
X2769637Y1802528D1*
X2763506Y1800799D1*
X2757258Y1799556D1*
X2750932Y1798808D1*
X2744567Y1798557D1*
X2738202Y1798808D1*
X2731876Y1799556D1*
X2725628Y1800799D1*
X2719497Y1802528D1*
X2713521Y1804733D1*
X2707736Y1807400D1*
X2702178Y1810512D1*
X2696881Y1814051D1*
X2689010Y1820647D1*
X2685525Y1815327D1*
X2678261Y1806821D1*
X2495187Y1623748D1*
X2501370Y1624926D1*
X2509231Y1625856D1*
X2517140Y1626167D1*
X2525050Y1625856D1*
X2532911Y1624926D1*
X2540675Y1623381D1*
X2548293Y1621233D1*
X2555720Y1618493D1*
X2562908Y1615179D1*
X2569815Y1611311D1*
X2576397Y1606913D1*
X2582613Y1602013D1*
X2588426Y1596640D1*
X2593799Y1590827D1*
X2598700Y1584610D1*
X2603097Y1578029D1*
X2606965Y1571122D1*
X2610279Y1563934D1*
X2613019Y1556507D1*
X2615168Y1548889D1*
X2616712Y1541125D1*
X2617642Y1533264D1*
X2617953Y1525354D1*
X2617651Y1517661D1*
X2770926Y1517674D1*
X2770659Y1525354D1*
X2770969Y1533264D1*
X2771900Y1541125D1*
X2773444Y1548889D1*
X2775593Y1556507D1*
X2778332Y1563934D1*
X2781646Y1571122D1*
X2785514Y1578029D1*
X2789912Y1584610D1*
X2794813Y1590827D1*
X2800186Y1596640D1*
X2805999Y1602013D1*
X2812215Y1606913D1*
X2818797Y1611311D1*
X2825703Y1615179D1*
X2832892Y1618493D1*
X2840318Y1621233D1*
X2847937Y1623381D1*
X2855701Y1624926D1*
X2863561Y1625856D1*
X2871471Y1626167D1*
X2879381Y1625856D1*
X2887242Y1624926D1*
X2895005Y1623381D1*
X2902624Y1621233D1*
X2910050Y1618493D1*
X2917239Y1615179D1*
X2924146Y1611311D1*
X2930727Y1606913D1*
X2936944Y1602013D1*
X2942756Y1596640D1*
X2948130Y1590827D1*
X2953030Y1584610D1*
X2957428Y1578029D1*
X2961296Y1571122D1*
X2964610Y1563934D1*
X2967350Y1556507D1*
X2969498Y1548889D1*
X2971043Y1541125D1*
X2971973Y1533264D1*
X2972284Y1525354D1*
X2971973Y1517445D1*
X2971043Y1509584D1*
X2969498Y1501820D1*
X2967350Y1494202D1*
X2964610Y1486775D1*
X2961296Y1479586D1*
X2957428Y1472680D1*
X2953030Y1466098D1*
X2946010Y1457588D1*
X3018025Y1385546D1*
X3024788Y1377627D1*
X3030229Y1368748D1*
X3034214Y1359127D1*
X3036645Y1349001D1*
X3037462Y1338619D1*
X3037604Y1277232D1*
X3042282Y1272908D1*
X3046606Y1268230D1*
X3050550Y1263228D1*
X3054089Y1257931D1*
X3057201Y1252373D1*
X3059868Y1246588D1*
X3062073Y1240612D1*
X3063802Y1234481D1*
X3065045Y1228233D1*
X3065793Y1221907D1*
X3066044Y1215542D1*
X3065793Y1209177D1*
X3065045Y1202851D1*
X3063802Y1196603D1*
X3062073Y1190472D1*
X3059868Y1184496D1*
X3057201Y1178711D1*
X3054089Y1173153D1*
X3050550Y1167856D1*
X3046606Y1162854D1*
X3042282Y1158176D1*
X3037233Y1153559D1*
X3035629Y1143607D1*
X3032411Y1133703D1*
X3027683Y1124425D1*
X3021562Y1116000D1*
X3005033Y1099182D1*
X2985041Y1079119D1*
X2984836Y957941D1*
X2983207Y947656D1*
X2980772Y938001D1*
X2980024Y931675D1*
X2978781Y925427D1*
X2977052Y919296D1*
X2974847Y913320D1*
X2972180Y907535D1*
X2969068Y901977D1*
X2965529Y896681D1*
X2961585Y891678D1*
X2957261Y887000D1*
X2952583Y882676D1*
X2947581Y878733D1*
X2942284Y875194D1*
X2936726Y872081D1*
X2930941Y869414D1*
X2924965Y867209D1*
X2918834Y865480D1*
X2912586Y864237D1*
X2906260Y863489D1*
X2899895Y863239D1*
X2893530Y863489D1*
X2887204Y864237D1*
X2880956Y865480D1*
X2874825Y867209D1*
X2868849Y869414D1*
X2863064Y872081D1*
X2857506Y875194D1*
X2852209Y878733D1*
X2847207Y882676D1*
X2842529Y887000D1*
X2838205Y891678D1*
X2834261Y896681D1*
X2830722Y901977D1*
X2827610Y907535D1*
X2824943Y913320D1*
X2822738Y919296D1*
X2821009Y925427D1*
X2819766Y931675D1*
X2819018Y938001D1*
X2818767Y944366D1*
X2819018Y950731D1*
X2819766Y957057D1*
X2821009Y963305D1*
X2822738Y969436D1*
X2824943Y975412D1*
X2827610Y981197D1*
X2830722Y986755D1*
X2834261Y992052D1*
X2838205Y997054D1*
X2842529Y1001732D1*
X2847207Y1006056D1*
X2852313Y1010069D1*
X2852518Y1111885D1*
X2854147Y1122171D1*
X2857365Y1132075D1*
X2862093Y1141353D1*
X2865000Y1145702D1*
X2863324Y1147147D1*
X2781401D1*
X2781427Y851772D1*
X2780811Y843950D1*
X2778979Y836321D1*
X2775977Y829072D1*
X2771877Y822382D1*
X2766782Y816416D1*
X2760816Y811321D1*
X2754126Y807221D1*
X2746877Y804219D1*
X2739248Y802387D1*
X2731427Y801772D1*
X2108800D1*
X2164099Y746447D1*
X2171364Y737941D1*
X2177208Y728403D1*
X2181489Y718069D1*
X2184100Y707192D1*
X2184978Y696041D1*
Y695287D1*
X2191258Y686297D1*
X2194748Y680065D1*
X2197738Y673578D1*
X2200211Y666876D1*
X2202149Y660002D1*
X2203543Y652996D1*
X2204383Y645903D1*
X2204663Y638765D1*
X2204383Y631628D1*
X2203543Y624534D1*
X2202149Y617529D1*
X2200211Y610654D1*
X2197738Y603952D1*
X2194748Y597466D1*
X2191258Y591233D1*
X2187289Y585294D1*
X2182867Y579685D1*
X2178018Y574440D1*
X2172773Y569591D1*
X2167164Y565169D1*
X2161225Y561200D1*
X2154992Y557710D1*
X2148506Y554720D1*
X2141804Y552247D1*
X2134929Y550309D1*
X2127924Y548915D1*
X2120830Y548075D1*
X2113693Y547795D1*
X2106555Y548075D1*
X2099462Y548915D1*
X2092456Y550309D1*
X2085582Y552247D1*
X2078880Y554720D1*
X2072393Y557710D1*
X2063772Y562797D1*
X2054992Y557710D1*
X2048506Y554720D1*
X2041804Y552247D1*
X2034929Y550309D1*
X2027924Y548915D1*
X2020830Y548075D1*
X2013693Y547795D1*
X2006555Y548075D1*
X1999462Y548915D1*
X1992456Y550309D1*
X1985582Y552247D1*
X1978880Y554720D1*
X1972393Y557710D1*
X1963772Y562797D1*
X1955716Y558083D1*
X1947369Y554258D1*
X1938678Y551293D1*
X1929732Y549220D1*
X1920624Y548059D1*
X1911444Y547823D1*
X1902288Y548513D1*
X1893247Y550122D1*
X1884416Y552635D1*
X1875882Y556025D1*
X1867733Y560259D1*
X1860053Y565292D1*
X1852920Y571073D1*
X1846405Y577545D1*
X1840576Y584640D1*
X1835492Y592287D1*
X1831205Y600407D1*
X1827759Y608918D1*
X1825187Y617733D1*
X1823518Y626763D1*
X1822768Y635914D1*
X1822943Y645095D1*
X1824044Y654211D1*
X1826058Y663170D1*
X1828964Y671880D1*
X1832734Y680253D1*
X1837329Y688203D1*
X1842702Y695650D1*
X1848798Y702517D1*
X1855556Y708734D1*
X1862906Y714238D1*
X1870773Y718974D1*
X1879077Y722892D1*
X1887735Y725953D1*
X1889813Y726542D1*
X1878113Y726763D1*
X1867065Y728513D1*
X1856426Y731969D1*
X1846460Y737047D1*
X1837410Y743622D1*
X1820308Y760413D1*
X1753031Y828002D1*
X1746456Y837052D1*
X1741377Y847018D1*
X1737921Y857657D1*
X1736171Y868705D1*
X1735951Y892671D1*
X1736171Y1532555D1*
X1737921Y1543603D1*
X1741377Y1554242D1*
X1746456Y1564208D1*
X1753031Y1573258D1*
X1769821Y1590360D1*
X1824900Y1645127D1*
X1829313Y1648604D1*
X1828754Y1650293D1*
X1824041Y1658174D1*
X1820205Y1666516D1*
X1817291Y1675223D1*
X1815332Y1684194D1*
X1814351Y1693323D1*
X1814361Y1702505D1*
X1815359Y1711632D1*
X1817336Y1720599D1*
X1820268Y1729300D1*
X1824120Y1737635D1*
X1828848Y1745506D1*
X1834397Y1752821D1*
X1840703Y1759496D1*
X1847691Y1765452D1*
X1855280Y1770620D1*
X1863382Y1774940D1*
X1871902Y1778362D1*
X1880742Y1780846D1*
X1889798Y1782362D1*
X1898964Y1782893D1*
X1908135Y1782434D1*
X1917202Y1780988D1*
X1926061Y1778574D1*
X1934608Y1775219D1*
X1942743Y1770962D1*
X1950373Y1765853D1*
X1957407Y1759952D1*
X1963764Y1753327D1*
X1968581Y1747175D1*
X1971408Y1762561D1*
X1973916Y1771396D1*
X1977041Y1780032D1*
X1980766Y1788427D1*
X1985074Y1796539D1*
X1989941Y1804328D1*
X1995346Y1811754D1*
X2001259Y1818781D1*
X2007653Y1825375D1*
X2014495Y1831501D1*
X2021752Y1837131D1*
X2029387Y1842236D1*
X2037363Y1846790D1*
X2045640Y1850771D1*
X2054176Y1854160D1*
X2062930Y1856939D1*
X2071858Y1859095D1*
X2080916Y1860616D1*
X2090058Y1861496D1*
X2099239Y1861730D1*
X2108414Y1861317D1*
X2117538Y1860259D1*
X2126564Y1858561D1*
X2135448Y1856231D1*
X2144146Y1853282D1*
X2152615Y1849727D1*
X2160812Y1845585D1*
X2168697Y1840876D1*
X2176231Y1835623D1*
X2183377Y1829853D1*
X2190098Y1823594D1*
X2196362Y1816877D1*
X2202138Y1809736D1*
X2207396Y1802205D1*
X2212111Y1794323D1*
X2216259Y1786129D1*
X2219819Y1777663D1*
X2222775Y1768967D1*
X2225111Y1760085D1*
X2226816Y1751060D1*
X2227880Y1741937D1*
X2228307Y1731396D1*
X2227984Y1722218D1*
X2227015Y1713084D1*
X2225405Y1704042D1*
X2223162Y1695136D1*
X2220298Y1686409D1*
X2216826Y1677906D1*
X2212764Y1669669D1*
X2208403Y1662203D1*
X2332056Y1662206D1*
X2463919Y1794104D1*
X2457884Y1798126D1*
X2451668Y1803027D1*
X2445855Y1808400D1*
X2440482Y1814212D1*
X2435581Y1820429D1*
X2431184Y1827011D1*
X2427316Y1833917D1*
X2424002Y1841106D1*
X2421262Y1848532D1*
X2419113Y1856151D1*
X2417569Y1863914D1*
X2416639Y1871775D1*
X2416328Y1879685D1*
X2416639Y1887595D1*
X2417569Y1895456D1*
X2419113Y1903219D1*
X2421262Y1910838D1*
X2424002Y1918264D1*
X2427316Y1925453D1*
X2431184Y1932359D1*
X2435581Y1938941D1*
X2440482Y1945158D1*
X2445855Y1950970D1*
X2451668Y1956344D1*
X2457884Y1961244D1*
X2464466Y1965642D1*
X2471372Y1969510D1*
X2478561Y1972824D1*
X2485988Y1975564D1*
X2493606Y1977712D1*
X2501370Y1979256D1*
X2509231Y1980187D1*
X2517140Y1980498D1*
X2525050Y1980187D1*
X2532911Y1979256D1*
X2540675Y1977712D1*
X2548293Y1975564D1*
X2555720Y1972824D1*
X2562908Y1969510D1*
X2569815Y1965642D1*
X2576397Y1961244D1*
X2582613Y1956344D1*
X2588426Y1950970D1*
X2592225Y1946861D1*
X2681963Y2036638D1*
X1940259Y2036793D1*
X1932510Y2038021D1*
X1925048Y2040445D1*
X1918057Y2044007D1*
X1911710Y2048619D1*
X1906162Y2054167D1*
X1901550Y2060514D1*
X1897988Y2067505D1*
X1895564Y2074967D1*
X1894337Y2082716D1*
X1894182Y2114198D1*
X1894336Y2563003D1*
X1895564Y2570752D1*
X1897988Y2578214D1*
X1901550Y2585205D1*
X1906162Y2591553D1*
X1911710Y2597100D1*
X1918057Y2601712D1*
X1925048Y2605274D1*
X1932510Y2607699D1*
X1940259Y2608926D1*
X1971741Y2609080D1*
X2677476D1*
X2617713Y2668836D1*
X2096996Y2668816D1*
X2085845Y2669694D1*
X2074968Y2672305D1*
X2064633Y2676586D1*
X2055096Y2682430D1*
X2046590Y2689695D1*
X2039325Y2698201D1*
X2036205Y2702874D1*
X2025107Y2698679D1*
X2018233Y2696740D1*
X2011227Y2695347D1*
X2004133Y2694507D1*
X1996996Y2694227D1*
X1989859Y2694507D1*
X1982765Y2695347D1*
X1975760Y2696740D1*
X1968885Y2698679D1*
X1962183Y2701151D1*
X1955697Y2704142D1*
X1947075Y2709229D1*
X1939019Y2704515D1*
X1930672Y2700689D1*
X1921981Y2697725D1*
X1913036Y2695652D1*
X1903927Y2694491D1*
X1894747Y2694255D1*
X1885591Y2694945D1*
X1876551Y2696554D1*
X1867719Y2699067D1*
X1859185Y2702457D1*
X1851037Y2706690D1*
X1843356Y2711723D1*
X1836223Y2717505D1*
X1831323Y2722254D1*
X1831261Y2675895D1*
X1830344Y2671284D1*
X1828376Y2667015D1*
X1825465Y2663322D1*
X1821773Y2660412D1*
X1817503Y2658443D1*
X1812886Y2657526D1*
X975419Y2655307D1*
X453988Y2653961D1*
X453468Y670383D1*
X462718Y679857D1*
X469576Y685967D1*
X476777Y691669D1*
X484298Y696942D1*
X492112Y701769D1*
X500194Y706134D1*
X508516Y710021D1*
X517050Y713418D1*
X525767Y716313D1*
X534637Y718696D1*
X543631Y720560D1*
X552718Y721898D1*
X561868Y722705D1*
X571049Y722979D1*
X580230Y722719D1*
X589381Y721925D1*
X598470Y720601D1*
X607467Y718750D1*
X616341Y716380D1*
X625062Y713498D1*
X633600Y710113D1*
X641928Y706238D1*
X650016Y701886D1*
X657838Y697070D1*
X665366Y691808D1*
X672576Y686117D1*
X679443Y680017D1*
X685943Y673528D1*
X692055Y666672D1*
X697758Y659472D1*
X703033Y651952D1*
X707862Y644139D1*
X712229Y636058D1*
X716118Y627738D1*
X719517Y619205D1*
X722415Y610488D1*
X724800Y601619D1*
X726666Y592625D1*
X728006Y583538D1*
X728816Y574389D1*
X729092Y565052D1*
X728825Y555871D1*
X728024Y546721D1*
X726693Y537633D1*
X724836Y528638D1*
X722459Y519766D1*
X719571Y511047D1*
X716180Y502510D1*
X712299Y494186D1*
X707940Y486100D1*
X703119Y478282D1*
X697851Y470758D1*
X692155Y463553D1*
X682777Y453417D1*
X4044615Y453410D1*
X4035317Y463564D1*
X4029618Y470767D1*
X4024346Y478288D1*
X4019521Y486104D1*
X4015159Y494187D1*
X4011273Y502510D1*
X4007878Y511044D1*
X4004986Y519762D1*
X4002604Y528633D1*
X4000743Y537627D1*
X3998895Y552541D1*
X3989815Y542263D1*
X3983160Y535933D1*
X3976075Y530088D1*
X3968597Y524757D1*
X3960761Y519966D1*
X3952608Y515738D1*
X3944177Y512095D1*
X3935510Y509054D1*
X3926651Y506632D1*
X3917643Y504839D1*
X3908531Y503685D1*
X3899361Y503176D1*
X3890178Y503314D1*
X3881027Y504098D1*
X3871954Y505525D1*
X3863004Y507587D1*
X3854221Y510274D1*
X3845650Y513573D1*
X3837332Y517467D1*
X3829309Y521937D1*
X3821620Y526962D1*
X3814305Y532515D1*
X3807399Y538570D1*
X3800936Y545096D1*
X3794949Y552061D1*
X3789468Y559430D1*
X3784518Y567167D1*
X3780127Y575233D1*
X3776313Y583589D1*
X3773098Y592192D1*
X3770497Y601000D1*
X3768522Y609970D1*
X3767185Y619057D1*
X3766490Y628215D1*
X3766442Y637399D1*
X3767040Y646564D1*
X3768283Y655664D1*
X3770163Y664654D1*
X3772672Y673489D1*
X3775797Y682126D1*
X3779522Y690521D1*
X3783830Y698632D1*
X3788697Y706421D1*
X3794101Y713847D1*
X3800015Y720874D1*
X3806409Y727468D1*
X3813251Y733594D1*
X3820508Y739224D1*
X3828143Y744329D1*
X3836119Y748883D1*
X3844396Y752865D1*
X3852932Y756253D1*
X3861686Y759032D1*
X3870614Y761188D1*
X3879671Y762709D1*
X3888814Y763589D1*
X3897995Y763823D1*
X3907170Y763410D1*
X3916294Y762352D1*
X3925320Y760654D1*
X3934204Y758324D1*
X3942902Y755375D1*
X3951370Y751820D1*
X3959568Y747678D1*
X3967453Y742969D1*
X3974987Y737717D1*
X3982133Y731946D1*
X3988854Y725687D1*
X3995118Y718970D1*
X4000894Y711829D1*
X4006152Y704299D1*
X4010867Y696417D1*
X4015015Y688222D1*
X4018575Y679756D1*
X4021531Y671060D1*
X4023867Y662178D1*
X4025472Y653682D1*
X4035217Y666564D1*
X4041319Y673429D1*
X4047810Y679928D1*
X4054668Y686038D1*
X4061869Y691740D1*
X4069390Y697013D1*
X4077204Y701840D1*
X4085286Y706204D1*
X4093608Y710092D1*
X4102142Y713489D1*
X4110859Y716384D1*
X4119729Y718767D1*
X4128723Y720631D1*
X4137810Y721969D1*
X4146960Y722776D1*
X4156141Y723050D1*
X4165322Y722790D1*
X4174473Y721996D1*
X4183562Y720672D1*
X4192558Y718821D1*
X4201432Y716451D1*
X4210154Y713569D1*
X4218692Y710184D1*
X4227020Y706309D1*
X4235108Y701956D1*
X4242930Y697141D1*
X4250458Y691879D1*
X4257668Y686188D1*
X4264534Y680088D1*
X4271584Y672983D1*
X4271598Y891328D1*
X4263463Y888027D1*
X4254659Y885416D1*
X4245637Y883706D1*
X4236489Y882914D1*
X4227308Y883048D1*
X4218187Y884107D1*
X4209219Y886081D1*
X4200495Y888948D1*
X4194669Y891436D1*
X4194521Y842425D1*
X4193293Y834675D1*
X4190869Y827214D1*
X4187307Y820223D1*
X4182695Y813875D1*
X4177147Y808327D1*
X4170800Y803716D1*
X4163809Y800154D1*
X4156347Y797729D1*
X4148598Y796502D1*
X4117115Y796348D1*
X3353350Y796502D1*
X3345601Y797729D1*
X3338139Y800154D1*
X3331148Y803716D1*
X3324800Y808327D1*
X3319253Y813875D1*
X3314641Y820223D1*
X3311079Y827214D1*
X3308654Y834675D1*
X3307427Y842425D1*
X3307273Y873907D1*
Y1300749D1*
X3299383Y1294426D1*
X3292158Y1289599D1*
X3284578Y1285353D1*
X3276687Y1281716D1*
X3268536Y1278708D1*
X3260173Y1276350D1*
X3251651Y1274655D1*
X3243023Y1273634D1*
X3234341Y1273292D1*
X3225659Y1273634D1*
X3217031Y1274655D1*
X3208509Y1276350D1*
X3200147Y1278708D1*
X3191995Y1281716D1*
X3184105Y1285353D1*
X3176524Y1289599D1*
X3169300Y1294426D1*
X3162476Y1299805D1*
X3156096Y1305703D1*
X3150198Y1312083D1*
X3144819Y1318906D1*
X3139992Y1326130D1*
X3135747Y1333711D1*
X3132109Y1341602D1*
X3129102Y1349753D1*
X3126743Y1358116D1*
X3125048Y1366637D1*
X3124027Y1375266D1*
X3123686Y1383948D1*
X3124027Y1392629D1*
X3125048Y1401258D1*
X3126743Y1409779D1*
X3129102Y1418142D1*
X3132109Y1426293D1*
X3135747Y1434184D1*
X3139992Y1441765D1*
X3144819Y1448989D1*
X3150198Y1455812D1*
X3156096Y1462192D1*
X3162476Y1468090D1*
X3169300Y1473469D1*
X3176524Y1478297D1*
X3184105Y1482542D1*
X3191995Y1486180D1*
X3200147Y1489187D1*
X3208509Y1491545D1*
X3217031Y1493240D1*
X3225659Y1494262D1*
X3234341Y1494603D1*
X3243023Y1494262D1*
X3251651Y1493240D1*
X3260173Y1491545D1*
X3268536Y1489187D1*
X3276687Y1486180D1*
X3284578Y1482542D1*
X3292158Y1478297D1*
X3299383Y1473469D1*
X3306206Y1468090D1*
X3312586Y1462192D1*
X3318484Y1455812D1*
X3323863Y1448989D1*
X3328690Y1441765D1*
X3332936Y1434184D1*
X3336573Y1426293D1*
X3339580Y1418142D1*
X3341939Y1409779D1*
X3343634Y1401258D1*
X3344655Y1392629D1*
X3344996Y1383948D1*
X3344655Y1375266D1*
X3343662Y1366873D1*
X3349451Y1368173D1*
X3357288Y1368788D1*
X4148598Y1368635D1*
X4156347Y1367407D1*
X4163809Y1364983D1*
X4170800Y1361421D1*
X4177147Y1356809D1*
X4182695Y1351261D1*
X4187307Y1344914D1*
X4190869Y1337923D1*
X4193293Y1330461D1*
X4194521Y1322712D1*
X4194675Y1290907D1*
X4202785Y1293595D1*
X4213515Y1296101D1*
X4224441Y1297527D1*
X4235455Y1297860D1*
X4246448Y1297095D1*
X4257310Y1295241D1*
X4267934Y1292316D1*
X4271598Y1291034D1*
Y2093878D1*
X4259874Y2090377D1*
X4251352Y2088682D1*
X4242724Y2087661D1*
X4234042Y2087320D1*
X4225360Y2087661D1*
X4216732Y2088682D1*
X4208210Y2090377D1*
X4199848Y2092736D1*
X4191696Y2095743D1*
X4183806Y2099381D1*
X4175181Y2104324D1*
X4175045Y2084976D1*
X4173818Y2077227D1*
X4171394Y2069765D1*
X4167832Y2062774D1*
X4163220Y2056427D1*
X4157672Y2050879D1*
X4151324Y2046267D1*
X4144334Y2042705D1*
X4136872Y2040280D1*
X4129122Y2039053D1*
X4097640Y2038899D1*
X3342130D1*
X3343634Y2031179D1*
X3344655Y2022551D1*
X3344996Y2013869D1*
X3344655Y2005187D1*
X3343634Y1996558D1*
X3341939Y1988037D1*
X3339580Y1979674D1*
X3336573Y1971523D1*
X3332936Y1963632D1*
X3328690Y1956052D1*
X3323863Y1948827D1*
X3318484Y1942004D1*
X3312586Y1935624D1*
X3306206Y1929726D1*
X3299383Y1924347D1*
X3292158Y1919520D1*
X3284578Y1915274D1*
X3276687Y1911637D1*
X3268536Y1908629D1*
X3260173Y1906271D1*
X3251651Y1904576D1*
X3243023Y1903555D1*
X3234341Y1903214D1*
X3225659Y1903555D1*
X3217031Y1904576D1*
X3208509Y1906271D1*
X3200147Y1908629D1*
X3191995Y1911637D1*
X3184105Y1915274D1*
X3176524Y1919520D1*
X3169300Y1924347D1*
X3162476Y1929726D1*
X3156096Y1935624D1*
X3150198Y1942004D1*
X3144819Y1948827D1*
X3139992Y1956052D1*
X3135747Y1963632D1*
X3132109Y1971523D1*
X3129102Y1979674D1*
X3126743Y1988037D1*
X3125048Y1996558D1*
X3124027Y2005187D1*
X3123686Y2013869D1*
X3124027Y2022551D1*
X3125048Y2031179D1*
X3126743Y2039701D1*
X3129102Y2048063D1*
X3132109Y2056215D1*
X3135747Y2064105D1*
X3139992Y2071686D1*
X3144819Y2078910D1*
X3150198Y2085734D1*
X3156096Y2092114D1*
X3162476Y2098012D1*
X3169300Y2103391D1*
X3176524Y2108218D1*
X3184105Y2112463D1*
X3191995Y2116101D1*
X3200147Y2119108D1*
X3208509Y2121466D1*
X3217031Y2123162D1*
X3225659Y2124183D1*
X3234341Y2124524D1*
X3243023Y2124183D1*
X3251651Y2123162D1*
X3260173Y2121466D1*
X3268536Y2119108D1*
X3276687Y2116101D1*
X3287805Y2110656D1*
X3287952Y2565263D1*
X3289179Y2573012D1*
X3291604Y2580474D1*
X3295166Y2587465D1*
X3299778Y2593812D1*
X3305325Y2599360D1*
X3311673Y2603972D1*
X3318664Y2607534D1*
X3326126Y2609958D1*
X3333875Y2611186D1*
X3365357Y2611340D1*
X3815883D1*
X3807399Y2618646D1*
X3800936Y2625172D1*
X3794949Y2632137D1*
X3789468Y2639506D1*
X3784518Y2647243D1*
X3780127Y2655309D1*
X3776313Y2663665D1*
X3773098Y2672268D1*
X3770497Y2681077D1*
X3768522Y2690046D1*
X3767185Y2699133D1*
X3766490Y2708291D1*
X3766442Y2717475D1*
X3767040Y2726640D1*
X3768283Y2735740D1*
X3770163Y2744730D1*
X3772672Y2753565D1*
X3775797Y2762202D1*
X3779522Y2770597D1*
X3783830Y2778709D1*
X3788697Y2786497D1*
X3794101Y2793923D1*
X3800015Y2800951D1*
X3806409Y2807544D1*
X3813251Y2813671D1*
X3820508Y2819300D1*
X3828143Y2824405D1*
X3836119Y2828959D1*
X3844396Y2832941D1*
X3852932Y2836329D1*
X3861686Y2839108D1*
X3870614Y2841264D1*
X3879671Y2842786D1*
X3888814Y2843666D1*
X3897995Y2843900D1*
X3907170Y2843486D1*
X3916294Y2842428D1*
X3925320Y2840730D1*
X3934204Y2838401D1*
X3942902Y2835451D1*
X3951370Y2831897D1*
X3959568Y2827754D1*
X3967453Y2823045D1*
X3974987Y2817793D1*
X3982133Y2812022D1*
X3988854Y2805763D1*
X3995118Y2799046D1*
X4000894Y2791905D1*
X4006152Y2784375D1*
X4010867Y2776493D1*
X4015015Y2768298D1*
X4018575Y2759832D1*
X4021531Y2751136D1*
X4023867Y2742254D1*
X4025571Y2733229D1*
X4026636Y2724107D1*
X4027063Y2713566D1*
X4026740Y2704387D1*
X1482744Y1721269D2*
X1481774Y1712136D1*
X1480164Y1703093D1*
X1477922Y1694187D1*
X1475057Y1685461D1*
X1471586Y1676958D1*
X1467524Y1668720D1*
X1462892Y1660789D1*
X1457713Y1653204D1*
X1452013Y1646003D1*
X1445819Y1639221D1*
X1439164Y1632891D1*
X1432079Y1627046D1*
X1424601Y1621715D1*
X1416765Y1616924D1*
X1408612Y1612696D1*
X1400181Y1609053D1*
X1391514Y1606012D1*
X1382655Y1603590D1*
X1373647Y1601797D1*
X1364535Y1600643D1*
X1355365Y1600134D1*
X1346182Y1600272D1*
X1337031Y1601056D1*
X1327958Y1602483D1*
X1319008Y1604545D1*
X1310225Y1607232D1*
X1301654Y1610531D1*
X1293336Y1614425D1*
X1285313Y1618895D1*
X1277624Y1623920D1*
X1270309Y1629473D1*
X1263403Y1635528D1*
X1256940Y1642054D1*
X1250953Y1649019D1*
X1245472Y1656388D1*
X1240522Y1664125D1*
X1236130Y1672191D1*
X1232317Y1680547D1*
X1229102Y1689150D1*
X1225892Y1700726D1*
X1218922Y1695176D1*
X1212340Y1690778D1*
X1205433Y1686910D1*
X1198245Y1683596D1*
X1190818Y1680856D1*
X1183200Y1678708D1*
X1175436Y1677163D1*
X1167575Y1676233D1*
X1157595Y1676004D1*
X1301268Y1532322D1*
X1312014Y1531360D1*
X1318262Y1530117D1*
X1324393Y1528388D1*
X1330369Y1526183D1*
X1336154Y1523516D1*
X1341712Y1520404D1*
X1347008Y1516865D1*
X1352011Y1512921D1*
X1356689Y1508597D1*
X1361013Y1503919D1*
X1364956Y1498917D1*
X1368495Y1493620D1*
X1371608Y1488062D1*
X1374275Y1482277D1*
X1376480Y1476301D1*
X1378209Y1470170D1*
X1379452Y1463922D1*
X1380200Y1457596D1*
X1380450Y1451231D1*
X1380200Y1444866D1*
X1379452Y1438540D1*
X1378209Y1432292D1*
X1376480Y1426161D1*
X1374275Y1420185D1*
X1371608Y1414400D1*
X1368495Y1408842D1*
X1364956Y1403545D1*
X1361013Y1398543D1*
X1356689Y1393865D1*
X1352011Y1389541D1*
X1347008Y1385597D1*
X1341712Y1382058D1*
X1336154Y1378946D1*
X1330369Y1376279D1*
X1324393Y1374074D1*
X1318262Y1372345D1*
X1312014Y1371102D1*
X1305688Y1370354D1*
X1299323Y1370103D1*
X1292958Y1370354D1*
X1286632Y1371102D1*
X1280384Y1372345D1*
X1274253Y1374074D1*
X1268277Y1376279D1*
X1262492Y1378946D1*
X1253106Y1384616D1*
X1249490Y1376636D1*
X1245622Y1369730D1*
X1241224Y1363148D1*
X1236324Y1356932D1*
X1230951Y1351119D1*
X1225138Y1345746D1*
X1218922Y1340845D1*
X1212340Y1336447D1*
X1205433Y1332580D1*
X1198245Y1329266D1*
X1190818Y1326526D1*
X1183200Y1324377D1*
X1175436Y1322833D1*
X1167575Y1321902D1*
X1159665Y1321592D1*
X1151756Y1321902D1*
X1143895Y1322833D1*
X1136131Y1324377D1*
X1128513Y1326526D1*
X1121086Y1329266D1*
X1113897Y1332580D1*
X1106991Y1336447D1*
X1100409Y1340845D1*
X1094193Y1345746D1*
X1088380Y1351119D1*
X1083007Y1356932D1*
X1078106Y1363148D1*
X1073708Y1369730D1*
X1069841Y1376636D1*
X1066527Y1383825D1*
X1063787Y1391251D1*
X1061638Y1398870D1*
X1060094Y1406634D1*
X1059164Y1414495D1*
X1058853Y1422404D1*
X1059164Y1430314D1*
X1060094Y1438175D1*
X1061638Y1445938D1*
X1063787Y1453557D1*
X1066527Y1460984D1*
X1069841Y1468172D1*
X1073708Y1475079D1*
X1078106Y1481660D1*
X1083007Y1487877D1*
X1088380Y1493689D1*
X1094193Y1499063D1*
X1100409Y1503963D1*
X1106991Y1508361D1*
X1113897Y1512229D1*
X1121086Y1515543D1*
X1127845Y1518037D1*
X950672Y1695503D1*
X944551Y1703927D1*
X939823Y1713206D1*
X936605Y1723110D1*
X934976Y1733396D1*
X934771Y1756975D1*
Y2022339D1*
X930358Y2029996D1*
X927562Y2036061D1*
X925250Y2042328D1*
X923437Y2048756D1*
X922134Y2055307D1*
X921349Y2061940D1*
X921086Y2068614D1*
X921349Y2075288D1*
X922134Y2081921D1*
X923437Y2088472D1*
X925250Y2094901D1*
X927562Y2101167D1*
X930358Y2107233D1*
X933621Y2113060D1*
X937332Y2118614D1*
X941467Y2123859D1*
X946001Y2128764D1*
X950906Y2133298D1*
X956151Y2137433D1*
X961705Y2141144D1*
X967532Y2144407D1*
X973598Y2147204D1*
X979865Y2149515D1*
X986293Y2151328D1*
X992844Y2152631D1*
X999477Y2153417D1*
X1006151Y2153679D1*
X1012825Y2153417D1*
X1019458Y2152631D1*
X1026009Y2151328D1*
X1032437Y2149515D1*
X1038704Y2147204D1*
X1044769Y2144407D1*
X1050597Y2141144D1*
X1056151Y2137433D1*
X1061396Y2133298D1*
X1066301Y2128764D1*
X1070835Y2123859D1*
X1074970Y2118614D1*
X1078680Y2113060D1*
X1081944Y2107233D1*
X1084740Y2101167D1*
X1087052Y2094901D1*
X1088865Y2088472D1*
X1090168Y2081921D1*
X1090953Y2075288D1*
X1091215Y2068614D1*
X1090953Y2061940D1*
X1090168Y2055307D1*
X1088865Y2048756D1*
X1087052Y2042328D1*
X1084740Y2036061D1*
X1081944Y2029996D1*
X1078680Y2024168D1*
X1074970Y2018614D1*
X1067487Y2009748D1*
X1067499Y1817612D1*
X1073708Y1829409D1*
X1078106Y1835991D1*
X1083007Y1842207D1*
X1088380Y1848020D1*
X1094193Y1853393D1*
X1100409Y1858294D1*
X1106991Y1862692D1*
X1113897Y1866560D1*
X1121086Y1869874D1*
X1128513Y1872613D1*
X1136131Y1874762D1*
X1143895Y1876306D1*
X1151756Y1877237D1*
X1159665Y1877548D1*
X1167575Y1877237D1*
X1175436Y1876306D1*
X1183200Y1874762D1*
X1190818Y1872613D1*
X1198245Y1869874D1*
X1205433Y1866560D1*
X1212340Y1862692D1*
X1218922Y1858294D1*
X1225138Y1853393D1*
X1230951Y1848020D1*
X1236324Y1842207D1*
X1241224Y1835991D1*
X1245622Y1829409D1*
X1249490Y1822503D1*
X1253114Y1814473D1*
X1262413Y1824426D1*
X1269255Y1830553D1*
X1276512Y1836182D1*
X1284147Y1841287D1*
X1292123Y1845841D1*
X1300400Y1849823D1*
X1308936Y1853211D1*
X1317690Y1855990D1*
X1326618Y1858146D1*
X1335675Y1859667D1*
X1344818Y1860547D1*
X1353999Y1860781D1*
X1363174Y1860368D1*
X1372297Y1859310D1*
X1381324Y1857612D1*
X1390208Y1855282D1*
X1398906Y1852333D1*
X1407374Y1848778D1*
X1415572Y1844636D1*
X1423457Y1839927D1*
X1430991Y1834675D1*
X1438137Y1828904D1*
X1444858Y1822645D1*
X1451122Y1815928D1*
X1456898Y1808787D1*
X1462156Y1801257D1*
X1466871Y1793375D1*
X1471019Y1785180D1*
X1474579Y1776714D1*
X1477535Y1768018D1*
X1479871Y1759136D1*
X1481575Y1750111D1*
X1482640Y1740988D1*
X1483067Y1730448D1*
X1482744Y1721269D1*
X4144235Y3818841D2*
X4144271Y3821175D1*
X4194678Y1056219D2*
X4203769Y1059894D1*
X4212596Y1062425D1*
X4221633Y1064054D1*
X4230788Y1064763D1*
X4239968Y1064545D1*
X4249079Y1063404D1*
X4258028Y1061349D1*
X4266725Y1058403D1*
X4271596Y1056306D1*
X4271598Y1083451D1*
X4263408Y1080750D1*
X4252669Y1078282D1*
X4241738Y1076894D1*
X4230722Y1076600D1*
X4219733Y1077403D1*
X4208877Y1079296D1*
X4198264Y1082258D1*
X4194671Y1083527D1*
X4194675Y1056224D1*
X1847086Y3743876D2*
X1839791Y3738792D1*
X1831334Y3734316D1*
X1831323Y3545641D1*
X1832658Y3552301D1*
X1834555Y3559027D1*
X1836974Y3565583D1*
X1839900Y3571929D1*
X1843314Y3578027D1*
X1847197Y3583837D1*
X1852839Y3590749D1*
X1852837Y3620839D1*
X1850340Y3627319D1*
X1847909Y3637445D1*
X1847092Y3647827D1*
Y3743817D1*
X1831334Y3888327D2*
X1839791Y3883851D1*
X1845345Y3880140D1*
X1854364Y3872516D1*
X1863456Y3880140D1*
X1869009Y3883851D1*
X1874837Y3887115D1*
X1880903Y3889911D1*
X1887169Y3892223D1*
X1893597Y3894036D1*
X1900148Y3895339D1*
X1906781Y3896124D1*
X1913455Y3896386D1*
X1920129Y3896124D1*
X1926762Y3895339D1*
X1933313Y3894036D1*
X1939742Y3892223D1*
X1946008Y3889911D1*
X1952074Y3887115D1*
X1957901Y3883851D1*
X1963455Y3880140D1*
X1968700Y3876005D1*
X1973605Y3871471D1*
X1978139Y3866567D1*
X1982274Y3861321D1*
X1985985Y3855768D1*
X1989248Y3849940D1*
X1992045Y3843874D1*
X1994357Y3837608D1*
X1996170Y3831179D1*
X1997473Y3824629D1*
X1998258Y3817996D1*
X1998520Y3811322D1*
X1998258Y3804647D1*
X1997473Y3798014D1*
X1996170Y3791464D1*
X1994357Y3785035D1*
X1992045Y3778769D1*
X1989248Y3772703D1*
X1985985Y3766875D1*
X1979835Y3758228D1*
X1979819Y3669112D1*
X1982316Y3662589D1*
X1984748Y3652463D1*
X1985564Y3642061D1*
X1985565Y3613912D1*
X1993345Y3616687D1*
X2002257Y3618897D1*
X2011350Y3620178D1*
X2020526Y3620515D1*
X2029688Y3619905D1*
X2038738Y3618354D1*
X2047580Y3615879D1*
X2056121Y3612506D1*
X2064268Y3608271D1*
X2069198Y3605152D1*
X2078795Y3610825D1*
X2085141Y3613750D1*
X2091698Y3616169D1*
X2098424Y3618066D1*
X2105278Y3619429D1*
X2112218Y3620251D1*
X2119201Y3620525D1*
X2126184Y3620251D1*
X2133124Y3619429D1*
X2139978Y3618066D1*
X2146704Y3616169D1*
X2153260Y3613750D1*
X2159607Y3610825D1*
X2165704Y3607410D1*
X2171515Y3603527D1*
X2177003Y3599201D1*
X2182134Y3594457D1*
X2186878Y3589326D1*
X2191205Y3583837D1*
X2195087Y3578027D1*
X2198502Y3571929D1*
X2201428Y3565583D1*
X2203846Y3559027D1*
X2205743Y3552301D1*
X2207107Y3545447D1*
X2207928Y3538507D1*
X2208202Y3531524D1*
X2207928Y3524541D1*
X2207107Y3517601D1*
X2205743Y3510747D1*
X2203846Y3504021D1*
X2201428Y3497464D1*
X2198502Y3491118D1*
X2195087Y3485020D1*
X2191205Y3479210D1*
X2186878Y3473722D1*
X2182134Y3468590D1*
X2177003Y3463846D1*
X2171515Y3459520D1*
X2165704Y3455637D1*
X2159607Y3452223D1*
X2153260Y3449297D1*
X2146704Y3446878D1*
X2139978Y3444981D1*
X2133124Y3443618D1*
X2126184Y3442796D1*
X2119201Y3442522D1*
X2112218Y3442796D1*
X2105278Y3443618D1*
X2098424Y3444981D1*
X2091698Y3446878D1*
X2085141Y3449297D1*
X2078795Y3452223D1*
X2069270Y3457927D1*
X2061664Y3453305D1*
X2053379Y3449346D1*
X2044730Y3446262D1*
X2035809Y3444085D1*
X2026712Y3442840D1*
X2017534Y3442538D1*
X2008375Y3443183D1*
X1999330Y3444768D1*
X1990498Y3447277D1*
X1981970Y3450683D1*
X1973839Y3454949D1*
X1969205Y3457892D1*
X1959607Y3452223D1*
X1953260Y3449297D1*
X1946704Y3446878D1*
X1939978Y3444981D1*
X1933124Y3443618D1*
X1926184Y3442796D1*
X1919201Y3442522D1*
X1912218Y3442796D1*
X1905278Y3443618D1*
X1898424Y3444981D1*
X1891698Y3446878D1*
X1885141Y3449297D1*
X1878795Y3452223D1*
X1872698Y3455637D1*
X1866887Y3459520D1*
X1861399Y3463846D1*
X1856267Y3468590D1*
X1851523Y3473722D1*
X1847197Y3479210D1*
X1843314Y3485020D1*
X1839900Y3491118D1*
X1836974Y3497464D1*
X1834555Y3504021D1*
X1832658Y3510747D1*
X1831322Y3517467D1*
X1831323Y2848125D1*
X1837458Y2853977D1*
X1844695Y2859629D1*
X1852465Y2864522D1*
X1860689Y2868607D1*
X1869282Y2871843D1*
X1878158Y2874195D1*
X1887226Y2875641D1*
X1896394Y2876165D1*
X1905567Y2875762D1*
X1914654Y2874437D1*
X1923560Y2872202D1*
X1932196Y2869081D1*
X1940473Y2865105D1*
X1946988Y2861196D1*
X1955697Y2866252D1*
X1962183Y2869242D1*
X1968885Y2871715D1*
X1975760Y2873653D1*
X1982765Y2875047D1*
X1989859Y2875886D1*
X1996996Y2876167D1*
X2004133Y2875886D1*
X2011227Y2875047D1*
X2018233Y2873653D1*
X2025107Y2871715D1*
X2031809Y2869242D1*
X2038296Y2866252D1*
X2046917Y2861165D1*
X2055697Y2866252D1*
X2062183Y2869242D1*
X2068885Y2871715D1*
X2075760Y2873653D1*
X2082765Y2875047D1*
X2089859Y2875886D1*
X2096996Y2876167D1*
X2104133Y2875886D1*
X2111227Y2875047D1*
X2118233Y2873653D1*
X2125107Y2871715D1*
X2131809Y2869242D1*
X2138296Y2866252D1*
X2144528Y2862762D1*
X2150467Y2858793D1*
X2156076Y2854371D1*
X2161322Y2849522D1*
X2166170Y2844277D1*
X2170592Y2838668D1*
X2174561Y2832729D1*
X2178051Y2826496D1*
X2181041Y2820010D1*
X2184051Y2811401D1*
X2647260Y2811386D1*
X2658411Y2810509D1*
X2669288Y2807897D1*
X2679623Y2803617D1*
X2689160Y2797772D1*
X2697666Y2790507D1*
X2764120Y2724053D1*
X2764140Y3229112D1*
X2765018Y3240263D1*
X2767629Y3251140D1*
X2771910Y3261474D1*
X2777754Y3271012D1*
X2785035Y3279533D1*
X2948351Y3442850D1*
X2908104Y3483409D1*
X2901529Y3492458D1*
X2896451Y3502425D1*
X2892994Y3513064D1*
X2891244Y3524112D1*
X2891025Y3548077D1*
Y3710740D1*
X2879948Y3710868D1*
X2873315Y3711653D1*
X2866764Y3712956D1*
X2860336Y3714769D1*
X2854069Y3717081D1*
X2848004Y3719878D1*
X2842176Y3723141D1*
X2836622Y3726852D1*
X2831377Y3730987D1*
X2826472Y3735521D1*
X2821938Y3740426D1*
X2817803Y3745671D1*
X2814093Y3751224D1*
X2810829Y3757052D1*
X2808033Y3763118D1*
X2805721Y3769384D1*
X2803689Y3776913D1*
X2801051Y3766710D1*
X2798739Y3760443D1*
X2795943Y3754378D1*
X2792679Y3748550D1*
X2788968Y3742996D1*
X2784833Y3737751D1*
X2780299Y3732846D1*
X2775395Y3728312D1*
X2770149Y3724177D1*
X2764596Y3720467D1*
X2758768Y3717203D1*
X2752702Y3714407D1*
X2746436Y3712095D1*
X2740008Y3710282D1*
X2733457Y3708979D1*
X2726824Y3708194D1*
X2720150Y3707931D1*
X2713476Y3708194D1*
X2706843Y3708979D1*
X2700292Y3710282D1*
X2693863Y3712095D1*
X2687597Y3714407D1*
X2681531Y3717203D1*
X2675703Y3720467D1*
X2670150Y3724177D1*
X2664905Y3728312D1*
X2660000Y3732846D1*
X2655466Y3737751D1*
X2651331Y3742996D1*
X2647620Y3748550D1*
X2644357Y3754378D1*
X2641425Y3760810D1*
X2638462Y3754378D1*
X2635199Y3748550D1*
X2631488Y3742996D1*
X2627353Y3737751D1*
X2622819Y3732846D1*
X2617914Y3728312D1*
X2612669Y3724177D1*
X2607115Y3720467D1*
X2601288Y3717203D1*
X2595222Y3714407D1*
X2588956Y3712095D1*
X2582527Y3710282D1*
X2575976Y3708979D1*
X2569343Y3708194D1*
X2562669Y3707931D1*
X2555995Y3708194D1*
X2549362Y3708979D1*
X2542811Y3710282D1*
X2536383Y3712095D1*
X2530116Y3714407D1*
X2524051Y3717203D1*
X2518223Y3720467D1*
X2512670Y3724177D1*
X2507424Y3728312D1*
X2502520Y3732846D1*
X2497986Y3737751D1*
X2493851Y3742996D1*
X2490140Y3748550D1*
X2486876Y3754378D1*
X2483944Y3760810D1*
X2480982Y3754378D1*
X2477718Y3748550D1*
X2474008Y3742996D1*
X2469873Y3737751D1*
X2465339Y3732846D1*
X2460434Y3728312D1*
X2455189Y3724177D1*
X2449635Y3720467D1*
X2443807Y3717203D1*
X2437742Y3714407D1*
X2431475Y3712095D1*
X2425047Y3710282D1*
X2418496Y3708979D1*
X2411863Y3708194D1*
X2405189Y3707931D1*
X2398515Y3708194D1*
X2391882Y3708979D1*
X2385331Y3710282D1*
X2378903Y3712095D1*
X2372636Y3714407D1*
X2366570Y3717203D1*
X2360743Y3720467D1*
X2355189Y3724177D1*
X2349944Y3728312D1*
X2345039Y3732846D1*
X2340505Y3737751D1*
X2336370Y3742996D1*
X2332660Y3748550D1*
X2329396Y3754378D1*
X2326600Y3760443D1*
X2324288Y3766710D1*
X2322475Y3773138D1*
X2321172Y3779689D1*
X2320387Y3786322D1*
X2320124Y3792996D1*
X2320387Y3799670D1*
X2321172Y3806303D1*
X2322475Y3812854D1*
X2324288Y3819282D1*
X2326600Y3825549D1*
X2329396Y3831615D1*
X2332660Y3837442D1*
X2336370Y3842996D1*
X2340505Y3848241D1*
X2345039Y3853146D1*
X2349944Y3857680D1*
X2355189Y3861815D1*
X2360743Y3865526D1*
X2366570Y3868789D1*
X2373003Y3871721D1*
X2366570Y3874683D1*
X2360743Y3877947D1*
X2355189Y3881658D1*
X2349944Y3885793D1*
X2345173Y3890203D1*
X2303076Y3890416D1*
X2292028Y3892166D1*
X2281390Y3895623D1*
X2271423Y3900701D1*
X2262373Y3907276D1*
X2254464Y3915186D1*
X2247889Y3924235D1*
X2242810Y3934202D1*
X2239354Y3944840D1*
X2237604Y3955889D1*
X2237384Y3979854D1*
X2237604Y4257861D1*
X2239360Y4268930D1*
X2233855Y4271631D1*
X1831342Y4271637D1*
X1831323Y3888407D1*
X1978556Y1473696D2*
X1977771Y1467063D1*
X1976468Y1460512D1*
X1974654Y1454084D1*
X1972343Y1447817D1*
X1969546Y1441752D1*
X1966283Y1435924D1*
X1962572Y1430370D1*
X1958437Y1425125D1*
X1953903Y1420220D1*
X1948998Y1415686D1*
X1943753Y1411551D1*
X1938199Y1407841D1*
X1932372Y1404577D1*
X1926306Y1401781D1*
X1920040Y1399469D1*
X1913611Y1397656D1*
X1907060Y1396353D1*
X1900427Y1395568D1*
X1893753Y1395306D1*
X1887079Y1395568D1*
X1878527Y1396735D1*
X1878521Y903833D1*
X1894025Y888517D1*
X1894179Y1328136D1*
X1895406Y1335885D1*
X1897831Y1343347D1*
X1901393Y1350338D1*
X1906005Y1356685D1*
X1911552Y1362233D1*
X1917900Y1366845D1*
X1924891Y1370407D1*
X1932353Y1372831D1*
X1940102Y1374059D1*
X1971584Y1374213D1*
X2735349Y1374059D1*
X2743099Y1372831D1*
X2750561Y1370407D1*
X2757552Y1366845D1*
X2763910Y1362223D1*
X2765374Y1366569D1*
Y1384978D1*
X2232627Y1384946D1*
X2222246Y1385763D1*
X2212120Y1388194D1*
X2202499Y1392179D1*
X2191321Y1399041D1*
X2185190Y1400770D1*
X2179214Y1402974D1*
X2173429Y1405641D1*
X2167871Y1408754D1*
X2162574Y1412293D1*
X2157572Y1416237D1*
X2152894Y1420561D1*
X2148570Y1425238D1*
X2144626Y1430241D1*
X2141087Y1435537D1*
X2137975Y1441095D1*
X2135308Y1446880D1*
X2133103Y1452857D1*
X2131374Y1458988D1*
X2130131Y1465235D1*
X2129382Y1471561D1*
X2129132Y1477927D1*
X2129382Y1484292D1*
X2130131Y1490618D1*
X2131374Y1496865D1*
X2133103Y1502996D1*
X2135308Y1508973D1*
X2137975Y1514758D1*
X2140710Y1519643D1*
X1969227Y1519636D1*
X1972343Y1512923D1*
X1974654Y1506656D1*
X1976468Y1500228D1*
X1977771Y1493677D1*
X1978556Y1487044D1*
X1978818Y1480370D1*
X1978556Y1473696D1*
Y1906767D2*
X1977771Y1900134D1*
X1976468Y1893583D1*
X1974654Y1887155D1*
X1972343Y1880888D1*
X1969546Y1874822D1*
X1966283Y1868995D1*
X1962572Y1863441D1*
X1958437Y1858196D1*
X1953903Y1853291D1*
X1948998Y1848757D1*
X1943753Y1844622D1*
X1938199Y1840911D1*
X1932372Y1837648D1*
X1926306Y1834852D1*
X1920040Y1832540D1*
X1913611Y1830727D1*
X1907060Y1829424D1*
X1900427Y1828639D1*
X1893753Y1828376D1*
X1887079Y1828639D1*
X1880446Y1829424D1*
X1873895Y1830727D1*
X1867467Y1832540D1*
X1861200Y1834852D1*
X1855135Y1837648D1*
X1849307Y1840911D1*
X1843754Y1844622D1*
X1838508Y1848757D1*
X1833604Y1853291D1*
X1829070Y1858196D1*
X1824935Y1863441D1*
X1821224Y1868995D1*
X1817960Y1874822D1*
X1815164Y1880888D1*
X1812852Y1887155D1*
X1811039Y1893583D1*
X1809736Y1900134D1*
X1808951Y1906767D1*
X1808689Y1913441D1*
X1808951Y1920115D1*
X1809736Y1926748D1*
X1811039Y1933299D1*
X1812852Y1939727D1*
X1815164Y1945994D1*
X1817960Y1952059D1*
X1821224Y1957887D1*
X1824935Y1963441D1*
X1829070Y1968686D1*
X1833604Y1973591D1*
X1838508Y1978125D1*
X1843754Y1982260D1*
X1849307Y1985970D1*
X1855135Y1989234D1*
X1861200Y1992030D1*
X1867467Y1994342D1*
X1873895Y1996155D1*
X1880446Y1997458D1*
X1887079Y1998243D1*
X1893753Y1998506D1*
X1900427Y1998243D1*
X1907060Y1997458D1*
X1913611Y1996155D1*
X1920040Y1994342D1*
X1926306Y1992030D1*
X1932372Y1989234D1*
X1938199Y1985970D1*
X1943753Y1982260D1*
X1948998Y1978125D1*
X1953903Y1973591D1*
X1958437Y1968686D1*
X1962572Y1963441D1*
X1966283Y1957887D1*
X1969546Y1952059D1*
X1972343Y1945994D1*
X1974654Y1939727D1*
X1976468Y1933299D1*
X1977771Y1926748D1*
X1978556Y1920115D1*
X1978818Y1913441D1*
X1978556Y1906767D1*
X1624225Y1473696D2*
X1623440Y1467063D1*
X1622137Y1460512D1*
X1620324Y1454084D1*
X1618012Y1447817D1*
X1615216Y1441752D1*
X1611952Y1435924D1*
X1605964Y1427481D1*
X1606368Y1317155D1*
X1613639Y1319284D1*
X1619886Y1320526D1*
X1626212Y1321275D1*
X1632577Y1321525D1*
X1638943Y1321275D1*
X1645269Y1320526D1*
X1651516Y1319284D1*
X1657647Y1317555D1*
X1663624Y1315350D1*
X1669409Y1312683D1*
X1674966Y1309570D1*
X1680263Y1306031D1*
X1685266Y1302088D1*
X1689943Y1297763D1*
X1694267Y1293086D1*
X1698211Y1288083D1*
X1701750Y1282787D1*
X1704863Y1277229D1*
X1707530Y1271444D1*
X1709734Y1265467D1*
X1711463Y1259336D1*
X1712706Y1253089D1*
X1713455Y1246763D1*
X1713705Y1240398D1*
X1713455Y1234032D1*
X1712706Y1227706D1*
X1711463Y1221459D1*
X1709734Y1215328D1*
X1707530Y1209351D1*
X1704863Y1203566D1*
X1698944Y1193809D1*
X1698941Y1022617D1*
X1704863Y1012792D1*
X1707530Y1007007D1*
X1709734Y1001030D1*
X1711463Y994899D1*
X1712706Y988652D1*
X1713455Y982326D1*
X1713705Y975961D1*
X1713455Y969595D1*
X1712706Y963269D1*
X1711463Y957022D1*
X1709734Y950891D1*
X1707530Y944914D1*
X1704863Y939129D1*
X1701750Y933572D1*
X1698211Y928275D1*
X1694267Y923272D1*
X1689943Y918595D1*
X1685266Y914271D1*
X1680263Y910327D1*
X1674966Y906788D1*
X1669409Y903675D1*
X1663624Y901009D1*
X1657647Y898804D1*
X1651516Y897075D1*
X1645269Y895832D1*
X1638943Y895083D1*
X1632577Y894833D1*
X1626212Y895083D1*
X1619886Y895832D1*
X1613639Y897075D1*
X1607508Y898804D1*
X1601531Y901009D1*
X1595746Y903675D1*
X1590188Y906788D1*
X1584892Y910327D1*
X1579889Y914271D1*
X1575212Y918595D1*
X1570888Y923272D1*
X1566944Y928275D1*
X1563405Y933572D1*
X1560292Y939129D1*
X1557625Y944914D1*
X1555421Y950891D1*
X1553691Y957022D1*
X1552449Y963269D1*
X1551700Y969595D1*
X1551450Y975961D1*
X1551700Y982326D1*
X1552449Y988652D1*
X1553691Y994899D1*
X1555421Y1001030D1*
X1558136Y1008114D1*
X1547187Y1006477D1*
X1540822Y1006227D1*
X1534456Y1006477D1*
X1528130Y1007226D1*
X1521883Y1008468D1*
X1515752Y1010197D1*
X1509775Y1012402D1*
X1503990Y1015069D1*
X1494232Y1020988D1*
X1135178Y1021195D1*
X1124892Y1022824D1*
X1114988Y1026042D1*
X1105709Y1030770D1*
X1097285Y1036891D1*
X1080467Y1053419D1*
X812086Y1321800D1*
X805335Y1321592D1*
X797425Y1321902D1*
X789564Y1322833D1*
X781800Y1324377D1*
X774182Y1326526D1*
X766755Y1329266D1*
X759567Y1332580D1*
X752660Y1336447D1*
X746078Y1340845D1*
X739862Y1345746D1*
X734049Y1351119D1*
X728676Y1356932D1*
X723776Y1363148D1*
X719378Y1369730D1*
X715510Y1376636D1*
X712196Y1383825D1*
X709456Y1391251D1*
X707308Y1398870D1*
X705763Y1406634D1*
X704833Y1414495D1*
X704522Y1422404D1*
X704833Y1430314D1*
X705763Y1438175D1*
X707308Y1445938D1*
X709456Y1453557D1*
X712196Y1460984D1*
X715510Y1468172D1*
X719378Y1475079D1*
X723776Y1481660D1*
X728676Y1487877D1*
X734049Y1493689D1*
X739862Y1499063D1*
X746078Y1503963D1*
X752660Y1508361D1*
X759567Y1512229D1*
X766755Y1515543D1*
X774182Y1518283D1*
X781800Y1520431D1*
X789564Y1521976D1*
X797425Y1522906D1*
X805335Y1523217D1*
X813244Y1522906D1*
X821105Y1521976D1*
X828869Y1520431D1*
X836487Y1518283D1*
X843914Y1515543D1*
X851103Y1512229D1*
X858009Y1508361D1*
X864591Y1503963D1*
X870807Y1499063D1*
X876620Y1493689D1*
X881993Y1487877D1*
X886894Y1481660D1*
X891292Y1475079D1*
X895159Y1468172D1*
X898473Y1460984D1*
X901213Y1453557D1*
X903362Y1445938D1*
X904906Y1438175D1*
X905836Y1430314D1*
X906147Y1422404D1*
X905884Y1415700D1*
X1167944Y1153718D1*
X1474215D1*
X1473249Y1426903D1*
X1466893Y1435924D1*
X1463629Y1441752D1*
X1460833Y1447817D1*
X1458521Y1454084D1*
X1456708Y1460512D1*
X1455405Y1467063D1*
X1454620Y1473696D1*
X1454358Y1480370D1*
X1454620Y1487044D1*
X1455405Y1493677D1*
X1456708Y1500228D1*
X1458521Y1506656D1*
X1460833Y1512923D1*
X1463629Y1518989D1*
X1466893Y1524816D1*
X1470604Y1530370D1*
X1474739Y1535615D1*
X1479273Y1540520D1*
X1484178Y1545054D1*
X1489423Y1549189D1*
X1494976Y1552900D1*
X1500804Y1556163D1*
X1506870Y1558959D1*
X1513136Y1561271D1*
X1519565Y1563084D1*
X1526116Y1564387D1*
X1532748Y1565172D1*
X1539423Y1565435D1*
X1546097Y1565172D1*
X1552730Y1564387D1*
X1559281Y1563084D1*
X1565709Y1561271D1*
X1571975Y1558959D1*
X1578041Y1556163D1*
X1583869Y1552900D1*
X1589422Y1549189D1*
X1594668Y1545054D1*
X1599572Y1540520D1*
X1604106Y1535615D1*
X1608241Y1530370D1*
X1611952Y1524816D1*
X1615216Y1518989D1*
X1618012Y1512923D1*
X1620324Y1506656D1*
X1622137Y1500228D1*
X1623440Y1493677D1*
X1624225Y1487044D1*
X1624487Y1480370D1*
X1624225Y1473696D1*
Y1906767D2*
X1623440Y1900134D1*
X1622137Y1893583D1*
X1620324Y1887155D1*
X1618012Y1880888D1*
X1615216Y1874822D1*
X1611952Y1868995D1*
X1608241Y1863441D1*
X1604106Y1858196D1*
X1599572Y1853291D1*
X1594668Y1848757D1*
X1589422Y1844622D1*
X1583869Y1840911D1*
X1578041Y1837648D1*
X1571975Y1834852D1*
X1565709Y1832540D1*
X1559281Y1830727D1*
X1552730Y1829424D1*
X1546097Y1828639D1*
X1539423Y1828376D1*
X1532748Y1828639D1*
X1526116Y1829424D1*
X1519565Y1830727D1*
X1513136Y1832540D1*
X1506870Y1834852D1*
X1500804Y1837648D1*
X1494976Y1840911D1*
X1489423Y1844622D1*
X1484178Y1848757D1*
X1479273Y1853291D1*
X1474739Y1858196D1*
X1470604Y1863441D1*
X1466893Y1868995D1*
X1463629Y1874822D1*
X1460833Y1880888D1*
X1458521Y1887155D1*
X1456708Y1893583D1*
X1455405Y1900134D1*
X1454620Y1906767D1*
X1454358Y1913441D1*
X1454620Y1920115D1*
X1455405Y1926748D1*
X1456708Y1933299D1*
X1458521Y1939727D1*
X1460833Y1945994D1*
X1463629Y1952059D1*
X1466893Y1957887D1*
X1470604Y1963441D1*
X1474739Y1968686D1*
X1479273Y1973591D1*
X1484178Y1978125D1*
X1489423Y1982260D1*
X1494976Y1985970D1*
X1500804Y1989234D1*
X1506870Y1992030D1*
X1513136Y1994342D1*
X1519565Y1996155D1*
X1526116Y1997458D1*
X1532748Y1998243D1*
X1539423Y1998506D1*
X1546097Y1998243D1*
X1552730Y1997458D1*
X1559281Y1996155D1*
X1565709Y1994342D1*
X1571975Y1992030D1*
X1578041Y1989234D1*
X1583869Y1985970D1*
X1589422Y1982260D1*
X1594668Y1978125D1*
X1599572Y1973591D1*
X1604106Y1968686D1*
X1608241Y1963441D1*
X1611952Y1957887D1*
X1615216Y1952059D1*
X1618012Y1945994D1*
X1620324Y1939727D1*
X1622137Y1933299D1*
X1623440Y1926748D1*
X1624225Y1920115D1*
X1624487Y1913441D1*
X1624225Y1906767D1*
X2803632Y3934482D2*
X2801051Y3924190D1*
X2798739Y3917924D1*
X2795943Y3911858D1*
X2792679Y3906030D1*
X2788968Y3900477D1*
X2784833Y3895231D1*
X2780299Y3890327D1*
X2775395Y3885793D1*
X2770149Y3881658D1*
X2764596Y3877947D1*
X2758768Y3874683D1*
X2752335Y3871752D1*
X2758768Y3868789D1*
X2764596Y3865526D1*
X2770149Y3861815D1*
X2775395Y3857680D1*
X2780299Y3853146D1*
X2784833Y3848241D1*
X2788968Y3842996D1*
X2792679Y3837442D1*
X2795943Y3831615D1*
X2798739Y3825549D1*
X2801051Y3819282D1*
X2803083Y3811754D1*
X2805721Y3821957D1*
X2808033Y3828223D1*
X2810829Y3834289D1*
X2814093Y3840117D1*
X2817803Y3845670D1*
X2821938Y3850916D1*
X2826472Y3855820D1*
X2831377Y3860354D1*
X2836622Y3864489D1*
X2842176Y3868200D1*
X2848004Y3871464D1*
X2854436Y3874395D1*
X2848004Y3877358D1*
X2842176Y3880621D1*
X2836622Y3884332D1*
X2831377Y3888467D1*
X2826472Y3893001D1*
X2821938Y3897906D1*
X2817803Y3903151D1*
X2814093Y3908705D1*
X2810829Y3914532D1*
X2808033Y3920598D1*
X2805721Y3926865D1*
X2803689Y3934393D1*
X2763708Y4023503D2*
X2770149Y4019295D1*
X2775395Y4015160D1*
X2780299Y4010626D1*
X2784833Y4005721D1*
X2788968Y4000476D1*
X2792679Y3994922D1*
X2795943Y3989095D1*
X2798739Y3983029D1*
X2801051Y3976763D1*
X2803083Y3969234D1*
X2805721Y3979437D1*
X2808033Y3985704D1*
X2810829Y3991769D1*
X2814093Y3997597D1*
X2817803Y4003151D1*
X2821938Y4008396D1*
X2826472Y4013301D1*
X2831377Y4017835D1*
X2838900Y4023492D1*
X2763763Y4023502D1*
X1090953Y2495011D2*
X1090168Y2488378D1*
X1088865Y2481827D1*
X1087052Y2475399D1*
X1084740Y2469132D1*
X1081944Y2463067D1*
X1078680Y2457239D1*
X1074970Y2451685D1*
X1070835Y2446440D1*
X1066301Y2441535D1*
X1061396Y2437001D1*
X1056151Y2432866D1*
X1050597Y2429156D1*
X1044769Y2425892D1*
X1038704Y2423096D1*
X1032437Y2420784D1*
X1026009Y2418971D1*
X1019458Y2417668D1*
X1012825Y2416883D1*
X1006151Y2416620D1*
X999477Y2416883D1*
X992844Y2417668D1*
X986293Y2418971D1*
X979865Y2420784D1*
X973598Y2423096D1*
X967532Y2425892D1*
X961705Y2429156D1*
X956151Y2432866D1*
X950906Y2437001D1*
X946001Y2441535D1*
X941467Y2446440D1*
X937332Y2451685D1*
X933621Y2457239D1*
X930358Y2463067D1*
X927562Y2469132D1*
X925250Y2475399D1*
X923437Y2481827D1*
X922134Y2488378D1*
X921349Y2495011D1*
X921086Y2501685D1*
X921349Y2508359D1*
X922134Y2514992D1*
X923437Y2521543D1*
X925250Y2527971D1*
X927562Y2534238D1*
X930358Y2540304D1*
X933621Y2546131D1*
X937332Y2551685D1*
X941467Y2556930D1*
X946001Y2561835D1*
X950906Y2566369D1*
X956151Y2570504D1*
X961705Y2574215D1*
X967532Y2577478D1*
X973598Y2580274D1*
X979865Y2582586D1*
X986293Y2584399D1*
X992844Y2585702D1*
X999477Y2586487D1*
X1006151Y2586750D1*
X1012825Y2586487D1*
X1019458Y2585702D1*
X1026009Y2584399D1*
X1032437Y2582586D1*
X1038704Y2580274D1*
X1044769Y2577478D1*
X1050597Y2574215D1*
X1056151Y2570504D1*
X1061396Y2566369D1*
X1066301Y2561835D1*
X1070835Y2556930D1*
X1074970Y2551685D1*
X1078680Y2546131D1*
X1081944Y2540304D1*
X1084740Y2534238D1*
X1087052Y2527971D1*
X1088865Y2521543D1*
X1090168Y2514992D1*
X1090953Y2508359D1*
X1091215Y2501685D1*
X1090953Y2495011D1*
X736865Y2066777D2*
X736171Y2057621D1*
X734495Y2048594D1*
X731856Y2039799D1*
X728284Y2031341D1*
X723821Y2023317D1*
X718519Y2015820D1*
X712440Y2008939D1*
X705655Y2002752D1*
X698243Y1997334D1*
X690289Y1992745D1*
X681888Y1989041D1*
X673136Y1986264D1*
X664136Y1984446D1*
X654992Y1983609D1*
X645812Y1983762D1*
X636701Y1984904D1*
X627767Y1987021D1*
X619113Y1990089D1*
X610839Y1994072D1*
X603044Y1998923D1*
X595816Y2004586D1*
X589242Y2010996D1*
X583396Y2018076D1*
X578347Y2025746D1*
X574155Y2033914D1*
X570867Y2042488D1*
X568523Y2051365D1*
X567149Y2060444D1*
X566762Y2069617D1*
X567365Y2078779D1*
X568953Y2087823D1*
X571506Y2096643D1*
X574995Y2105136D1*
X579379Y2113204D1*
X584607Y2120752D1*
X590618Y2127693D1*
X597342Y2133945D1*
X604701Y2139436D1*
X612609Y2144102D1*
X620974Y2147889D1*
X629698Y2150752D1*
X638680Y2152658D1*
X647815Y2153584D1*
X656996Y2153521D1*
X666118Y2152469D1*
X675073Y2150439D1*
X683756Y2147456D1*
X692068Y2143555D1*
X699911Y2138780D1*
X707194Y2133188D1*
X713831Y2126843D1*
X719746Y2119821D1*
X724869Y2112201D1*
X729142Y2104074D1*
X732513Y2095533D1*
X734944Y2086679D1*
X736407Y2077614D1*
X736885Y2068614D1*
X736865Y2066777D1*
X736623Y2495011D2*
X735837Y2488378D1*
X734534Y2481827D1*
X732721Y2475399D1*
X730410Y2469132D1*
X727613Y2463067D1*
X724350Y2457239D1*
X720639Y2451685D1*
X716504Y2446440D1*
X711970Y2441535D1*
X707065Y2437001D1*
X701820Y2432866D1*
X696266Y2429156D1*
X690439Y2425892D1*
X684373Y2423096D1*
X678107Y2420784D1*
X671678Y2418971D1*
X665127Y2417668D1*
X658494Y2416883D1*
X651820Y2416620D1*
X645146Y2416883D1*
X638513Y2417668D1*
X631962Y2418971D1*
X625534Y2420784D1*
X619267Y2423096D1*
X613202Y2425892D1*
X607374Y2429156D1*
X601821Y2432866D1*
X596575Y2437001D1*
X591670Y2441535D1*
X587137Y2446440D1*
X583002Y2451685D1*
X579291Y2457239D1*
X576027Y2463067D1*
X573231Y2469132D1*
X570919Y2475399D1*
X569106Y2481827D1*
X567803Y2488378D1*
X567018Y2495011D1*
X566756Y2501685D1*
X567018Y2508359D1*
X567803Y2514992D1*
X569106Y2521543D1*
X570919Y2527971D1*
X573231Y2534238D1*
X576027Y2540304D1*
X579291Y2546131D1*
X583002Y2551685D1*
X587137Y2556930D1*
X591670Y2561835D1*
X596575Y2566369D1*
X601821Y2570504D1*
X607374Y2574215D1*
X613202Y2577478D1*
X619267Y2580274D1*
X625534Y2582586D1*
X631962Y2584399D1*
X638513Y2585702D1*
X645146Y2586487D1*
X651820Y2586750D1*
X658494Y2586487D1*
X665127Y2585702D1*
X671678Y2584399D1*
X678107Y2582586D1*
X684373Y2580274D1*
X690439Y2577478D1*
X696266Y2574215D1*
X701820Y2570504D1*
X707065Y2566369D1*
X711970Y2561835D1*
X716504Y2556930D1*
X720639Y2551685D1*
X724350Y2546131D1*
X727613Y2540304D1*
X730410Y2534238D1*
X732721Y2527971D1*
X734534Y2521543D1*
X735837Y2514992D1*
X736623Y2508359D1*
X736885Y2501685D1*
X736623Y2495011D1*
X1096739Y2284236D2*
X1096046Y2275081D1*
X1094369Y2266053D1*
X1091730Y2257259D1*
X1088158Y2248800D1*
X1083695Y2240776D1*
X1078393Y2233279D1*
X1072314Y2226398D1*
X1065529Y2220212D1*
X1058117Y2214793D1*
X1050163Y2210205D1*
X1041762Y2206500D1*
X1033010Y2203723D1*
X1024010Y2201905D1*
X1014866Y2201068D1*
X1005686Y2201221D1*
X996575Y2202363D1*
X987641Y2204481D1*
X978987Y2207548D1*
X970713Y2211531D1*
X962918Y2216382D1*
X955690Y2222046D1*
X949116Y2228455D1*
X943270Y2235536D1*
X938221Y2243205D1*
X934029Y2251374D1*
X930741Y2259947D1*
X928397Y2268824D1*
X927023Y2277903D1*
X926636Y2287077D1*
X927239Y2296239D1*
X928827Y2305282D1*
X931380Y2314102D1*
X934869Y2322595D1*
X939253Y2330663D1*
X944481Y2338211D1*
X950492Y2345152D1*
X957216Y2351404D1*
X964575Y2356896D1*
X972483Y2361562D1*
X980848Y2365348D1*
X989572Y2368211D1*
X998554Y2370117D1*
X1007689Y2371044D1*
X1016870Y2370980D1*
X1025992Y2369928D1*
X1034947Y2367898D1*
X1043630Y2364915D1*
X1051942Y2361014D1*
X1059785Y2356239D1*
X1067068Y2350647D1*
X1073705Y2344303D1*
X1079620Y2337280D1*
X1084743Y2329660D1*
X1089016Y2321533D1*
X1092387Y2312992D1*
X1094818Y2304138D1*
X1096281Y2295074D1*
X1096759Y2286073D1*
X1096739Y2284236D1*
X2416630Y1517661D2*
X2416328Y1525354D1*
X2416639Y1533264D1*
X2417569Y1541125D1*
X2418806Y1547342D1*
X2407845Y1536716D1*
X2398795Y1530141D1*
X2388828Y1525062D1*
X2378190Y1521606D1*
X2367142Y1519856D1*
X2343176Y1519636D1*
X2279840D1*
X2287745Y1517674D1*
X2416606D1*
X905836Y1768825D2*
X904906Y1760964D1*
X903362Y1753201D1*
X901213Y1745582D1*
X898473Y1738156D1*
X895159Y1730967D1*
X891292Y1724060D1*
X886894Y1717479D1*
X881993Y1711262D1*
X876620Y1705450D1*
X870807Y1700076D1*
X864591Y1695176D1*
X858009Y1690778D1*
X851103Y1686910D1*
X843914Y1683596D1*
X836487Y1680856D1*
X828869Y1678708D1*
X821105Y1677163D1*
X813244Y1676233D1*
X805335Y1675922D1*
X797425Y1676233D1*
X789564Y1677163D1*
X781800Y1678708D1*
X774182Y1680856D1*
X766755Y1683596D1*
X759567Y1686910D1*
X752660Y1690778D1*
X746078Y1695176D1*
X739862Y1700076D1*
X734049Y1705450D1*
X728676Y1711262D1*
X723776Y1717479D1*
X719378Y1724060D1*
X715510Y1730967D1*
X712196Y1738156D1*
X709456Y1745582D1*
X707308Y1753201D1*
X705763Y1760964D1*
X704833Y1768825D1*
X704522Y1776735D1*
X704833Y1784645D1*
X705763Y1792505D1*
X707308Y1800269D1*
X709456Y1807888D1*
X712196Y1815314D1*
X715510Y1822503D1*
X719378Y1829409D1*
X723776Y1835991D1*
X728676Y1842207D1*
X734049Y1848020D1*
X739862Y1853393D1*
X746078Y1858294D1*
X752660Y1862692D1*
X759567Y1866560D1*
X766755Y1869874D1*
X774182Y1872613D1*
X781800Y1874762D1*
X789564Y1876306D1*
X797425Y1877237D1*
X805335Y1877548D1*
X813244Y1877237D1*
X821105Y1876306D1*
X828869Y1874762D1*
X836487Y1872613D1*
X843914Y1869874D1*
X851103Y1866560D1*
X858009Y1862692D1*
X864591Y1858294D1*
X870807Y1853393D1*
X876620Y1848020D1*
X881993Y1842207D1*
X886894Y1835991D1*
X891292Y1829409D1*
X895159Y1822503D1*
X898473Y1815314D1*
X901213Y1807888D1*
X903362Y1800269D1*
X904906Y1792505D1*
X905836Y1784645D1*
X906147Y1776735D1*
X905836Y1768825D1*
X3925537Y3693055D2*
X3924716Y3686115D1*
X3923352Y3679261D1*
X3921455Y3672535D1*
X3919036Y3665979D1*
X3916111Y3659632D1*
X3912696Y3653535D1*
X3908813Y3647724D1*
X3904487Y3642236D1*
X3899743Y3637104D1*
X3894612Y3632361D1*
X3889124Y3628034D1*
X3883313Y3624152D1*
X3877216Y3620737D1*
X3870869Y3617811D1*
X3864313Y3615393D1*
X3857587Y3613496D1*
X3850733Y3612132D1*
X3843793Y3611311D1*
X3836810Y3611036D1*
X3829827Y3611311D1*
X3822887Y3612132D1*
X3816033Y3613496D1*
X3809307Y3615393D1*
X3802750Y3617811D1*
X3796404Y3620737D1*
X3786879Y3626442D1*
X3777216Y3620737D1*
X3770869Y3617811D1*
X3764313Y3615393D1*
X3757587Y3613496D1*
X3750733Y3612132D1*
X3743793Y3611311D1*
X3736810Y3611036D1*
X3729827Y3611311D1*
X3722887Y3612132D1*
X3716033Y3613496D1*
X3709307Y3615393D1*
X3702750Y3617811D1*
X3696404Y3620737D1*
X3686879Y3626442D1*
X3677216Y3620737D1*
X3670869Y3617811D1*
X3664313Y3615393D1*
X3657587Y3613496D1*
X3650733Y3612132D1*
X3643793Y3611311D1*
X3636810Y3611036D1*
X3629827Y3611311D1*
X3622887Y3612132D1*
X3616033Y3613496D1*
X3609307Y3615393D1*
X3602750Y3617811D1*
X3596404Y3620737D1*
X3590307Y3624152D1*
X3584496Y3628034D1*
X3579008Y3632361D1*
X3573876Y3637104D1*
X3569132Y3642236D1*
X3564806Y3647724D1*
X3560923Y3653535D1*
X3557509Y3659632D1*
X3554583Y3665979D1*
X3552164Y3672535D1*
X3550267Y3679261D1*
X3548904Y3686115D1*
X3548082Y3693055D1*
X3547808Y3700038D1*
X3548082Y3707021D1*
X3548904Y3713961D1*
X3550267Y3720815D1*
X3552164Y3727541D1*
X3554583Y3734097D1*
X3557509Y3740444D1*
X3560923Y3746541D1*
X3564806Y3752352D1*
X3569132Y3757840D1*
X3573876Y3762972D1*
X3579008Y3767715D1*
X3584496Y3772042D1*
X3590307Y3775924D1*
X3596404Y3779339D1*
X3602750Y3782265D1*
X3609307Y3784684D1*
X3616033Y3786581D1*
X3622887Y3787944D1*
X3629827Y3788765D1*
X3636810Y3789040D1*
X3643793Y3788765D1*
X3650733Y3787944D1*
X3657587Y3786581D1*
X3664313Y3784684D1*
X3670869Y3782265D1*
X3677216Y3779339D1*
X3686740Y3773634D1*
X3696404Y3779339D1*
X3702750Y3782265D1*
X3709307Y3784684D1*
X3716033Y3786581D1*
X3722887Y3787944D1*
X3729827Y3788765D1*
X3736810Y3789040D1*
X3743793Y3788765D1*
X3750733Y3787944D1*
X3757587Y3786581D1*
X3764313Y3784684D1*
X3770869Y3782265D1*
X3777216Y3779339D1*
X3786740Y3773634D1*
X3796404Y3779339D1*
X3802750Y3782265D1*
X3809307Y3784684D1*
X3816033Y3786581D1*
X3822887Y3787944D1*
X3829827Y3788765D1*
X3836810Y3789040D1*
X3843793Y3788765D1*
X3850733Y3787944D1*
X3857587Y3786581D1*
X3864313Y3784684D1*
X3870869Y3782265D1*
X3877216Y3779339D1*
X3883313Y3775924D1*
X3889124Y3772042D1*
X3894612Y3767715D1*
X3899743Y3762972D1*
X3904487Y3757840D1*
X3908813Y3752352D1*
X3912696Y3746541D1*
X3916111Y3740444D1*
X3919036Y3734097D1*
X3921455Y3727541D1*
X3923352Y3720815D1*
X3924716Y3713961D1*
X3925537Y3707021D1*
X3925811Y3700038D1*
X3925537Y3693055D1*
X3603236Y2955298D2*
X3602396Y2948205D1*
X3601002Y2941199D1*
X3599064Y2934324D1*
X3596591Y2927623D1*
X3593601Y2921136D1*
X3590111Y2914904D1*
X3586142Y2908965D1*
X3581720Y2903355D1*
X3576871Y2898110D1*
X3571626Y2893262D1*
X3566017Y2888839D1*
X3560078Y2884871D1*
X3553845Y2881381D1*
X3547359Y2878390D1*
X3540657Y2875918D1*
X3533782Y2873979D1*
X3526777Y2872586D1*
X3519683Y2871746D1*
X3512546Y2871466D1*
X3505409Y2871746D1*
X3498315Y2872586D1*
X3491309Y2873979D1*
X3484435Y2875918D1*
X3477733Y2878390D1*
X3471246Y2881381D1*
X3462625Y2886468D1*
X3453845Y2881381D1*
X3447359Y2878390D1*
X3440657Y2875918D1*
X3433782Y2873979D1*
X3426777Y2872586D1*
X3419683Y2871746D1*
X3412546Y2871466D1*
X3405409Y2871746D1*
X3398315Y2872586D1*
X3391309Y2873979D1*
X3384435Y2875918D1*
X3377733Y2878390D1*
X3371246Y2881381D1*
X3362625Y2886468D1*
X3354569Y2881754D1*
X3346222Y2877928D1*
X3337531Y2874964D1*
X3328585Y2872891D1*
X3319477Y2871730D1*
X3310297Y2871493D1*
X3301141Y2872183D1*
X3292100Y2873793D1*
X3283269Y2876306D1*
X3274735Y2879696D1*
X3266586Y2883929D1*
X3258906Y2888962D1*
X3251773Y2894744D1*
X3245258Y2901215D1*
X3239429Y2908311D1*
X3234345Y2915957D1*
X3230058Y2924078D1*
X3226612Y2932589D1*
X3224041Y2941404D1*
X3222371Y2950433D1*
X3221621Y2959585D1*
X3221796Y2968766D1*
X3222897Y2977882D1*
X3224911Y2986841D1*
X3227817Y2995551D1*
X3231587Y3003924D1*
X3236182Y3011874D1*
X3241555Y3019320D1*
X3247651Y3026187D1*
X3254409Y3032405D1*
X3261759Y3037909D1*
X3269626Y3042644D1*
X3277930Y3046562D1*
X3286588Y3049624D1*
X3295509Y3051796D1*
X3304605Y3053058D1*
X3313781Y3053397D1*
X3322944Y3052810D1*
X3332002Y3051301D1*
X3340861Y3048887D1*
X3349432Y3045592D1*
X3357628Y3041450D1*
X3362538Y3038435D1*
X3371246Y3043491D1*
X3377733Y3046481D1*
X3384435Y3048953D1*
X3391309Y3050892D1*
X3398315Y3052286D1*
X3405409Y3053125D1*
X3412546Y3053406D1*
X3419683Y3053125D1*
X3426777Y3052286D1*
X3433782Y3050892D1*
X3440657Y3048953D1*
X3447359Y3046481D1*
X3453845Y3043491D1*
X3462467Y3038404D1*
X3471246Y3043491D1*
X3477733Y3046481D1*
X3484435Y3048953D1*
X3491309Y3050892D1*
X3498315Y3052286D1*
X3505409Y3053125D1*
X3512546Y3053406D1*
X3519683Y3053125D1*
X3526777Y3052286D1*
X3533782Y3050892D1*
X3540657Y3048953D1*
X3547359Y3046481D1*
X3553845Y3043491D1*
X3560078Y3040000D1*
X3566017Y3036032D1*
X3571626Y3031610D1*
X3576871Y3026761D1*
X3581720Y3021516D1*
X3586142Y3015907D1*
X3590111Y3009967D1*
X3593601Y3003735D1*
X3596591Y2997248D1*
X3599064Y2990547D1*
X3601002Y2983672D1*
X3602396Y2976667D1*
X3603236Y2969573D1*
X3603516Y2962436D1*
X3603236Y2955298D1*
X3716994Y641195D2*
X3716155Y634101D1*
X3714761Y627095D1*
X3712822Y620221D1*
X3710350Y613519D1*
X3707359Y607032D1*
X3703869Y600800D1*
X3699901Y594861D1*
X3695479Y589252D1*
X3690630Y584006D1*
X3685385Y579158D1*
X3679775Y574736D1*
X3673836Y570767D1*
X3667604Y567277D1*
X3661117Y564287D1*
X3654416Y561814D1*
X3647541Y559875D1*
X3640535Y558482D1*
X3633442Y557642D1*
X3626304Y557362D1*
X3619167Y557642D1*
X3612074Y558482D1*
X3605068Y559875D1*
X3598193Y561814D1*
X3591492Y564287D1*
X3585005Y567277D1*
X3576383Y572364D1*
X3567604Y567277D1*
X3561117Y564287D1*
X3554416Y561814D1*
X3547541Y559875D1*
X3540535Y558482D1*
X3533442Y557642D1*
X3526304Y557362D1*
X3519167Y557642D1*
X3512074Y558482D1*
X3505068Y559875D1*
X3498193Y561814D1*
X3491492Y564287D1*
X3485005Y567277D1*
X3476383Y572364D1*
X3468328Y567650D1*
X3459980Y563825D1*
X3451289Y560860D1*
X3442344Y558787D1*
X3433235Y557626D1*
X3424056Y557390D1*
X3414899Y558080D1*
X3405859Y559689D1*
X3397027Y562202D1*
X3388493Y565592D1*
X3380345Y569825D1*
X3372665Y574859D1*
X3365531Y580640D1*
X3359017Y587112D1*
X3353188Y594207D1*
X3348104Y601854D1*
X3343817Y609974D1*
X3340370Y618485D1*
X3337799Y627300D1*
X3336130Y636329D1*
X3335379Y645481D1*
X3335555Y654662D1*
X3336655Y663778D1*
X3338669Y672737D1*
X3341576Y681447D1*
X3345346Y689820D1*
X3349941Y697770D1*
X3355314Y705217D1*
X3361410Y712084D1*
X3368167Y718301D1*
X3375517Y723805D1*
X3383384Y728541D1*
X3391689Y732459D1*
X3400346Y735520D1*
X3409268Y737693D1*
X3418363Y738955D1*
X3427539Y739294D1*
X3436703Y738706D1*
X3445761Y737197D1*
X3454620Y734783D1*
X3463191Y731488D1*
X3471386Y727346D1*
X3476297Y724332D1*
X3485005Y729387D1*
X3491492Y732377D1*
X3498193Y734850D1*
X3505068Y736789D1*
X3512074Y738182D1*
X3519167Y739022D1*
X3526304Y739302D1*
X3533442Y739022D1*
X3540535Y738182D1*
X3547541Y736789D1*
X3554416Y734850D1*
X3561117Y732377D1*
X3567604Y729387D1*
X3576226Y724300D1*
X3585005Y729387D1*
X3591492Y732377D1*
X3598193Y734850D1*
X3605068Y736789D1*
X3612074Y738182D1*
X3619167Y739022D1*
X3626304Y739302D1*
X3633442Y739022D1*
X3640535Y738182D1*
X3647541Y736789D1*
X3654416Y734850D1*
X3661117Y732377D1*
X3667604Y729387D1*
X3673836Y725897D1*
X3679775Y721928D1*
X3685385Y717506D1*
X3690630Y712658D1*
X3695479Y707412D1*
X3699901Y701803D1*
X3703869Y695864D1*
X3707359Y689632D1*
X3710350Y683145D1*
X3712822Y676443D1*
X3714761Y669569D1*
X3716155Y662563D1*
X3716994Y655469D1*
X3717275Y648332D1*
X3716994Y641195D1*
X3987145Y3420146D2*
Y3536339D1*
X3983478Y3544022D1*
X3981274Y3549998D1*
X3979544Y3556129D1*
X3978302Y3562377D1*
X3977553Y3568703D1*
X3977303Y3575068D1*
X3977553Y3581433D1*
X3978302Y3587759D1*
X3979544Y3594007D1*
X3981274Y3600138D1*
X3983478Y3606114D1*
X3986145Y3611899D1*
X3989258Y3617457D1*
X3992797Y3622754D1*
X3996741Y3627756D1*
X4001065Y3632434D1*
X4005742Y3636758D1*
X4010745Y3640702D1*
X4016041Y3644241D1*
X4021599Y3647353D1*
X4027384Y3650020D1*
X4033361Y3652225D1*
X4039492Y3653954D1*
X4045739Y3655197D1*
X4052065Y3655946D1*
X4058430Y3656196D1*
X4064796Y3655946D1*
X4071122Y3655197D1*
X4077369Y3653954D1*
X4083500Y3652225D1*
X4089477Y3650020D1*
X4095262Y3647353D1*
X4100819Y3644241D1*
X4106116Y3640702D1*
X4111119Y3636758D1*
X4115796Y3632434D1*
X4120120Y3627756D1*
X4124064Y3622754D1*
X4127603Y3617457D1*
X4130716Y3611899D1*
X4133383Y3606114D1*
X4135587Y3600138D1*
X4137316Y3594007D1*
X4138559Y3587759D1*
X4139308Y3581433D1*
X4139558Y3575068D1*
X4139308Y3568703D1*
X4138559Y3562377D1*
X4137316Y3556129D1*
X4135587Y3549998D1*
X4133383Y3544022D1*
X4129706Y3536435D1*
X4129716Y3420156D1*
X4133383Y3412473D1*
X4135587Y3406496D1*
X4137316Y3400365D1*
X4138559Y3394118D1*
X4139308Y3387792D1*
X4139558Y3381427D1*
X4139308Y3375061D1*
X4138559Y3368735D1*
X4137316Y3362488D1*
X4135587Y3356357D1*
X4133383Y3350380D1*
X4130716Y3344595D1*
X4127603Y3339037D1*
X4124064Y3333741D1*
X4120120Y3328738D1*
X4115796Y3324061D1*
X4111119Y3319737D1*
X4106116Y3315793D1*
X4100819Y3312254D1*
X4095262Y3309141D1*
X4089477Y3306474D1*
X4083500Y3304270D1*
X4077369Y3302541D1*
X4071122Y3301298D1*
X4064796Y3300549D1*
X4058430Y3300299D1*
X4052065Y3300549D1*
X4045739Y3301298D1*
X4039492Y3302541D1*
X4033361Y3304270D1*
X4027384Y3306474D1*
X4021599Y3309141D1*
X4016041Y3312254D1*
X4010745Y3315793D1*
X4005742Y3319737D1*
X4001065Y3324061D1*
X3996741Y3328738D1*
X3992797Y3333741D1*
X3989258Y3339037D1*
X3986145Y3344595D1*
X3983478Y3350380D1*
X3981274Y3356357D1*
X3979544Y3362488D1*
X3978302Y3368735D1*
X3977553Y3375061D1*
X3977303Y3381427D1*
X3977553Y3387792D1*
X3978302Y3394118D1*
X3979544Y3400365D1*
X3981274Y3406496D1*
X3983478Y3412473D1*
X3987154Y3420060D1*
X1606364Y1317133D2*
X1613639Y1319284D1*
X1619886Y1320526D1*
X1626212Y1321275D1*
X1632577Y1321525D1*
X1638943Y1321275D1*
X1645269Y1320526D1*
X1651516Y1319284D1*
X1657647Y1317555D1*
X1663624Y1315350D1*
X1669409Y1312683D1*
X1674966Y1309570D1*
X1680263Y1306031D1*
X1685266Y1302088D1*
X1689943Y1297763D1*
X1694267Y1293086D1*
X1698211Y1288083D1*
X1701750Y1282787D1*
X1704863Y1277229D1*
X1707530Y1271444D1*
X1709734Y1265467D1*
X1711463Y1259336D1*
X1712706Y1253089D1*
X1713455Y1246763D1*
X1713705Y1240398D1*
X1713455Y1234032D1*
X1712706Y1227706D1*
X1711463Y1221459D1*
X1709734Y1215328D1*
X1707530Y1209351D1*
X1704863Y1203566D1*
X1698944Y1193809D1*
X4228361Y3287849D2*
D21*
Y3176285D1*
X4028361Y2976285D2*
Y2864721D1*
X3916797Y2976285D2*
X4028361D1*
Y3287849D2*
Y3176285D1*
X3916797D2*
X4028361D1*
X4225362Y3740047D2*
Y3658956D1*
X4144271Y3740047D2*
X4225362D1*
X4233227Y1064760D2*
Y882891D1*
X3829497Y4207248D2*
Y4126156D1*
X3748406Y4207248D2*
X3829497D1*
X4233283Y1297845D2*
Y1076606D1*
X1899297Y1782858D2*
Y1697829D1*
X1814268D2*
X1899297D1*
X651820Y2153643D2*
Y1983585D1*
X566792Y2068614D2*
X736849D1*
X1011694Y2371102D2*
Y2201045D1*
X926666Y2286073D2*
X1096723D1*
X1896996Y2876131D2*
Y2694263D1*
X1913693Y638765D2*
Y547831D1*
X1822759Y638765D2*
X1913693D1*
X3312546Y3053370D2*
Y2871502D1*
X3221612Y2962436D2*
X3312546D1*
X3426304Y739266D2*
Y557398D1*
X3335370Y648332D2*
X3426304D1*
X2019201Y3620489D2*
Y3442558D1*
D27*
X689234Y3878016D3*
Y3678016D3*
X489234D3*
Y3878016D3*
X589234Y3778016D3*
D28*
X1049836Y4220201D3*
X949836D3*
X849836D3*
D27*
X4228361Y3176285D3*
Y2976285D3*
X4028361D3*
Y3176285D3*
X4128361Y3076285D3*
D29*
X4225362Y3740047D3*
D30*
Y3818787D3*
D28*
X4233227Y973825D3*
D29*
X3829497Y4207248D3*
D30*
X3908238D3*
D31*
X1467971Y4115406D3*
X1667971D3*
D33*
X1795345Y3811322D3*
X1913455D3*
D36*
X3234341Y2013869D3*
D33*
X1893753Y1480370D3*
D36*
X3234341Y1383948D3*
X4234042Y2197975D3*
X4233283Y1187226D3*
D33*
X2883307Y4254942D3*
X2405189Y3950476D3*
X2883307Y4097462D3*
X2405189Y3792996D3*
X1893753Y1913441D3*
X1539423Y1480370D3*
Y1913441D3*
X1899297Y1697829D3*
X2562669Y3950476D3*
Y3792996D3*
D36*
X4233661Y2799563D3*
D38*
X805335Y1422404D3*
D33*
X2720150Y3950476D3*
Y3792996D3*
X2886622Y3953151D3*
Y3795671D3*
X1006151Y2068614D3*
Y2501685D3*
X651820Y2068614D3*
Y2501685D3*
X1011694Y2286073D3*
D38*
X2517140Y1525354D3*
D33*
X2401874Y4252268D3*
Y4094787D3*
X2559354Y4252268D3*
Y4094787D3*
X2716835Y4252268D3*
Y4094787D3*
D38*
X2871471Y1525354D3*
X2517140Y1879685D3*
X2871471D3*
X1159665Y1422404D3*
X805335Y1776735D3*
X1159665D3*
D102*
X1228544Y3727838D3*
D40*
X1306225Y3728272D3*
X1385307D3*
D102*
X1092486Y3351320D3*
D40*
X1170167Y3351753D3*
X1249250D3*
D102*
X1177059Y2814421D3*
D40*
X1254740Y2814854D3*
X1333823D3*
D102*
X760490Y2878928D3*
D40*
X838171Y2879361D3*
X917253D3*
D43*
X3049164Y3442850D3*
X3149164D3*
X3249164D3*
D105*
X3099802Y3991156D3*
D44*
X3099369Y4068838D3*
Y4147920D3*
D43*
X3836810Y3700038D3*
X3736810D3*
X3636810D3*
D45*
X833259Y3334261D3*
X733259D3*
X633259D3*
X2096996Y2785197D3*
X1996996D3*
X1896996D3*
X2113693Y638765D3*
X2013693D3*
X1913693D3*
X3512546Y2962436D3*
X3412546D3*
X3312546D3*
D29*
X2913690Y2526022D3*
Y2626022D3*
D45*
X3626304Y648332D3*
X3526304D3*
X3426304D3*
D29*
X2846501Y1228274D3*
Y1328274D3*
D43*
X1919201Y3531524D3*
X2019201D3*
X2119201D3*
X3371808Y4147533D3*
Y4047533D3*
Y3947533D3*
M02*
