M48
INCH
T01C0.0197
T02C0.0276
T03C0.0354
T04C0.0394
T05C0.045
T06C0.0591
T07C0.06
T08C0.1575
T09C0.1969
%
T01
X+007343Y+039815
X+006326Y+035010
X+006333Y+033343
X+007333Y+033343
X+008333Y+033343
X+009275Y+034080
X+008475Y+034943
X+011359Y+035853
X+011393Y+031771
X+009420Y+031704
X+011124Y+028910
X+010573Y+027473
X+010649Y+025820
X+009528Y+025837
X+008222Y+024928
X+009752Y+023967
X+011759Y+022648
X+011193Y+020733
X+012419Y+020707
X+012216Y+019520
X+011156Y+019183
X+009216Y+019618
X+009168Y+018241
X+007614Y+015899
X+005153Y+015877
X+005197Y+017572
X+005197Y+019120
X+005197Y+020667
X+005197Y+022215
X+005197Y+023763
X+005197Y+025310
X+005221Y+027590
X+005228Y+028906
X+006657Y+022991
X+012113Y+025798
X+013393Y+025718
X+015292Y+025249
X+015734Y+027910
X+017461Y+029335
X+017413Y+030398
X+018398Y+031101
X+018417Y+031971
X+019416Y+031920
X+020376Y+030895
X+020872Y+031943
X+021279Y+033687
X+021065Y+034410
X+020013Y+034443
X+020030Y+033900
X+022380Y+033720
X+023290Y+032838
X+024430Y+032844
X+025556Y+032815
X+026726Y+033144
X+027518Y+034606
X+026708Y+035276
X+027706Y+036265
X+028798Y+036192
X+028603Y+034596
X+029459Y+032412
X+030507Y+031441
X+032185Y+031621
X+031836Y+032636
X+033353Y+032649
X+034120Y+031757
X+035055Y+033649
X+036424Y+034375
X+034712Y+035602
X+033534Y+035488
X+038534Y+032640
X+037928Y+030463
X+039092Y+030441
X+039258Y+028575
X+037723Y+028331
X+036194Y+028898
X+035125Y+029624
X+034125Y+029624
X+033125Y+029624
X+031251Y+029736
X+030923Y+028821
X+030877Y+027694
X+029212Y+027696
X+029153Y+028791
X+029066Y+029714
X+030210Y+029701
X+027619Y+029760
X+027545Y+028397
X+026413Y+028404
X+025340Y+028417
X+025864Y+029760
X+025115Y+031664
X+022677Y+031069
X+021694Y+030245
X+020868Y+028985
X+020970Y+027852
X+019970Y+027852
X+018970Y+027852
X+019940Y+026326
X+020940Y+026326
X+021940Y+026326
X+022940Y+026326
X+023940Y+026326
X+024940Y+026326
X+025940Y+026326
X+027605Y+027232
X+030219Y+024375
X+029244Y+020738
X+026772Y+020228
X+025307Y+020228
X+023843Y+020228
X+022378Y+020228
X+021885Y+018632
X+022626Y+017341
X+023416Y+015291
X+022103Y+014779
X+022555Y+013856
X+024062Y+013856
X+025569Y+013856
X+027028Y+015124
X+025812Y+016462
X+027446Y+018797
X+029123Y+017063
X+030913Y+017331
X+031277Y+019098
X+033297Y+019110
X+033297Y+018025
X+033297Y+016940
X+033297Y+015855
X+033297Y+014770
X+034016Y+013999
X+035375Y+013999
X+036825Y+013999
X+038230Y+013999
X+039634Y+013999
X+041039Y+013999
X+041018Y+016073
X+041028Y+018413
X+040956Y+020278
X+039533Y+020278
X+038109Y+020278
X+036685Y+020278
X+035375Y+020278
X+033838Y+020278
X+035375Y+018708
X+035375Y+017138
X+035375Y+015568
X+038001Y+015583
X+037971Y+018745
X+037809Y+026320
X+036411Y+026320
X+036307Y+027496
X+035057Y+026299
X+033594Y+026277
X+036224Y+030253
X+040761Y+027947
X+041215Y+026434
X+040127Y+026355
X+042122Y+033435
X+040584Y+033814
X+040584Y+035751
X+042189Y+039607
X+034391Y+042582
X+024901Y+037057
X+023623Y+037040
X+023500Y+038718
X+021774Y+038742
X+020596Y+038417
X+020079Y+037073
X+021745Y+037127
X+022415Y+040281
X+022494Y+041340
X+020588Y+040889
X+019281Y+039535
X+017371Y+036578
X+017349Y+035388
X+017357Y+034039
X+015733Y+035643
X+013857Y+032173
X+023477Y+029379
X+019587Y+019986
X+020176Y+018645
X+017880Y+018449
X+016553Y+018482
X+014862Y+018382
X+014872Y+017396
X+014894Y+016507
X+016517Y+016762
X+017978Y+016646
X+017073Y+014800
X+017055Y+013664
X+016326Y+012404
X+015408Y+010874
X+016326Y+009760
X+017326Y+008413
X+019137Y+006388
X+020137Y+006388
X+021137Y+006388
X+021764Y+007825
X+023148Y+007825
X+024531Y+007825
X+025914Y+007825
X+026597Y+006884
X+027298Y+007825
X+027745Y+005684
X+026398Y+005684
X+025051Y+005684
X+023704Y+005684
X+021240Y+004789
X+019595Y+004804
X+017729Y+004814
X+015705Y+004839
X+014112Y+005865
X+013707Y+004804
X+011475Y+004893
X+011463Y+005866
X+010123Y+006646
X+009165Y+007959
X+007770Y+009368
X+006574Y+008118
X+005396Y+009536
X+006406Y+010884
X+005131Y+012323
X+005131Y+014177
X+007203Y+012938
X+008459Y+011778
X+009433Y+010502
X+010595Y+009359
X+011463Y+009774
X+012724Y+009223
X+014055Y+009215
X+014111Y+007058
X+012691Y+007025
X+012993Y+014512
X+012042Y+016520
X+013721Y+018614
X+014147Y+019892
X+014255Y+020680
X+016241Y+021363
X+016340Y+020165
X+019542Y+013856
X+021049Y+013856
X+029849Y+012155
X+030021Y+009499
X+028999Y+009444
X+029092Y+005684
X+030242Y+005452
X+032962Y+007741
X+034263Y+006483
X+035263Y+006483
X+036263Y+006483
X+035146Y+007653
X+037330Y+007712
X+039340Y+004901
X+042542Y+007439
X+042618Y+010656
X+009852Y+013960
T02
X+012285Y+037278
X+013062Y+037283
X+013853Y+037283
X+012492Y+033518
X+011702Y+033518
X+010925Y+033513
X+009173Y+028794
X+008382Y+028794
X+007605Y+028789
X+011771Y+028144
X+012547Y+028149
X+013338Y+028149
X+030998Y+039912
X+030994Y+040688
X+030994Y+041479
T03
X+010498Y+042202
X+009498Y+042202
X+008498Y+042202
X+017953Y+038113
X+019135Y+038113
X+019192Y+035315
X+020192Y+035315
X+021192Y+035315
X+024052Y+037930
X+024052Y+039505
X+024019Y+040948
X+024019Y+042523
X+025594Y+042523
X+025594Y+040948
X+025627Y+039505
X+025627Y+037930
X+027201Y+037930
X+027201Y+039505
X+027168Y+040948
X+027168Y+042523
X+028833Y+042549
X+028833Y+040975
X+028866Y+039532
X+028866Y+037957
X+030492Y+034429
X+031492Y+034429
X+032492Y+034429
X+036368Y+037000
X+037368Y+037000
X+038368Y+037000
X+042254Y+037400
X+042254Y+038188
X+039082Y+042072
X+038295Y+042072
X+033718Y+041475
X+033718Y+040475
X+033718Y+039475
X+029137Y+026260
X+029137Y+025260
X+018938Y+019134
X+018993Y+016978
X+018938Y+014804
X+015394Y+014804
X+015394Y+019134
X+010062Y+020686
X+010117Y+022861
X+010062Y+025017
X+006518Y+025017
X+006518Y+020686
X+028465Y+013283
X+028465Y+012283
X+042332Y+009738
T04
X+008053Y+014224
X+011597Y+014224
X+011597Y+017767
X+008053Y+017767
X+025171Y+018797
X+025171Y+015254
X+028715Y+015254
X+028715Y+018797
T05
X+014680Y+041154
X+016680Y+041154
T06
X+032343Y+020139
X+032343Y+013839
X+042333Y+011872
X+042340Y+021980
X+042337Y+027996
T07
X+006892Y+038780
X+005892Y+037780
X+004892Y+036780
X+004892Y+038780
X+006892Y+036780
X+040284Y+031763
X+041284Y+030763
X+040284Y+029763
X+042284Y+029763
X+042284Y+031763
T08
X+038967Y+027136
X+020980Y+017314
X+013527Y+017304
X+038967Y+006335
T09
X+005712Y+005651
X+041563Y+005651
X+041746Y+041730
X+005493Y+041732
T00
M30
