G04 DipTrace 3.3.1.1*
G04 TopSilk.gbr*
%MOIN*%
G04 #@! TF.FileFunction,Legend,Top*
G04 #@! TF.Part,Single*
%ADD10C,0.009843*%
%ADD12C,0.003*%
%ADD22C,0.001312*%
%ADD25C,0.02362*%
%ADD32C,0.011811*%
%ADD41C,0.015404*%
%ADD46C,0.005*%
%ADD96C,0.006176*%
%ADD97C,0.012351*%
%ADD98C,0.009264*%
%ADD99C,0.015439*%
%ADD100C,0.004632*%
%ADD101C,0.003088*%
%FSLAX26Y26*%
G04*
G70*
G90*
G75*
G01*
G04 TopSilk*
%LPD*%
X1071735Y3771440D2*
D10*
X1134664D1*
X1071735Y3778888D2*
X1134664D1*
X1071735D2*
Y3755329D1*
X1134664Y3778888D2*
Y3755329D1*
X1288373Y3590597D2*
Y3527668D1*
X1295822Y3590597D2*
Y3527668D1*
Y3590597D2*
X1272263D1*
X1295822Y3527668D2*
X1272263D1*
X1443705Y3106316D2*
X1506634D1*
X1443705Y3113765D2*
X1506634D1*
X1443705D2*
Y3090206D1*
X1506634Y3113765D2*
Y3090206D1*
X785814Y3149467D2*
Y3086538D1*
X793262Y3149467D2*
Y3086538D1*
Y3149467D2*
X769703D1*
X793262Y3086538D2*
X769703D1*
X547881Y3147584D2*
Y3084655D1*
X555329Y3147584D2*
Y3084655D1*
Y3147584D2*
X531770D1*
X555329Y3084655D2*
X531770D1*
X1261823Y3107836D2*
Y3044907D1*
X1269272Y3107836D2*
Y3044907D1*
Y3107836D2*
X1245713D1*
X1269272Y3044907D2*
X1245713D1*
X1041665Y3102776D2*
Y3039846D1*
X1049114Y3102776D2*
Y3039846D1*
Y3102776D2*
X1025555D1*
X1049114Y3039846D2*
X1025555D1*
X770764Y2634474D2*
Y2571545D1*
X778213Y2634474D2*
Y2571545D1*
Y2634474D2*
X754654D1*
X778213Y2571545D2*
X754654D1*
X1958789Y3266709D2*
Y3329638D1*
X1951340Y3266709D2*
Y3329638D1*
Y3266709D2*
X1974899D1*
X1951340Y3329638D2*
X1974899D1*
X2304747Y3476472D2*
X2367676D1*
X2304747Y3483921D2*
X2367676D1*
X2304747D2*
Y3460362D1*
X2367676Y3483921D2*
Y3460362D1*
X2682446Y3355763D2*
X2601739Y3355731D1*
X2682446Y3355763D2*
Y3572268D1*
X2639130Y3615563D2*
X2682446Y3572268D1*
X2639130Y3615563D2*
X2601739D1*
X2503311Y3355731D2*
X2422604Y3355763D1*
Y3572268D1*
X2465919Y3615563D2*
X2422604Y3572268D1*
X2503311Y3615563D2*
X2465919D1*
D25*
X2609599Y3639218D3*
X3715486Y4107470D2*
D10*
X3652556D1*
X3715486Y4100021D2*
X3652556D1*
X3715486D2*
Y4123580D1*
X3652556Y4100021D2*
Y4123580D1*
X1957386Y3023890D2*
Y2960961D1*
X1964835Y3023890D2*
Y2960961D1*
Y3023890D2*
X1941276D1*
X1964835Y2960961D2*
X1941276D1*
X1591151Y555139D2*
Y618068D1*
X1583702Y555139D2*
Y618068D1*
Y555139D2*
X1607261D1*
X1583702Y618068D2*
X1607261D1*
X1229322Y2496530D2*
Y2433601D1*
X1236770Y2496530D2*
Y2433601D1*
Y2496530D2*
X1213211D1*
X1236770Y2433601D2*
X1213211D1*
X841825Y1937882D2*
X778896D1*
X841825Y1930433D2*
X778896D1*
X841825D2*
Y1953992D1*
X778896Y1930433D2*
Y1953992D1*
X1116810Y1260983D2*
X1179739D1*
X1116810Y1268432D2*
X1179739D1*
X1116810D2*
Y1244873D1*
X1179739Y1268432D2*
Y1244873D1*
X1420795Y1281356D2*
Y1344285D1*
X1413346Y1281356D2*
Y1344285D1*
Y1281356D2*
X1436906D1*
X1413346Y1344285D2*
X1436906D1*
X1411491Y1007235D2*
Y1070164D1*
X1404042Y1007235D2*
Y1070164D1*
Y1007235D2*
X1427601D1*
X1404042Y1070164D2*
X1427601D1*
X1503130Y2205703D2*
X1440201D1*
X1503130Y2198255D2*
X1440201D1*
X1503130D2*
Y2221814D1*
X1440201Y2198255D2*
Y2221814D1*
X2369657Y610146D2*
Y673075D1*
X2362209Y610146D2*
Y673075D1*
Y610146D2*
X2385768D1*
X2362209Y673075D2*
X2385768D1*
X2369499Y2757525D2*
Y2820454D1*
X2362050Y2757525D2*
Y2820454D1*
Y2757525D2*
X2385609D1*
X2362050Y2820454D2*
X2385609D1*
X3758188Y456571D2*
Y519500D1*
X3750739Y456571D2*
Y519500D1*
Y456571D2*
X3774298D1*
X3750739Y519500D2*
X3774298D1*
X3653388Y3127924D2*
Y3190853D1*
X3645940Y3127924D2*
Y3190853D1*
Y3127924D2*
X3669499D1*
X3645940Y3190853D2*
X3669499D1*
X3450966Y2722121D2*
Y2785050D1*
X3443517Y2722121D2*
Y2785050D1*
Y2722121D2*
X3467076D1*
X3443517Y2785050D2*
X3467076D1*
X2942785Y2366025D2*
X2879856D1*
X2942785Y2358576D2*
X2879856D1*
X2942785D2*
Y2382135D1*
X2879856Y2358576D2*
Y2382135D1*
X2105928Y2009508D2*
Y1946579D1*
X2113377Y2009508D2*
Y1946579D1*
Y2009508D2*
X2089818D1*
X2113377Y1946579D2*
X2089818D1*
X2369860Y1903214D2*
Y1840285D1*
X2377308Y1903214D2*
Y1840285D1*
Y1903214D2*
X2353749D1*
X2377308Y1840285D2*
X2353749D1*
X3260110Y1704630D2*
X3197181D1*
X3260110Y1697181D2*
X3197181D1*
X3260110D2*
Y1720740D1*
X3197181Y1697181D2*
Y1720740D1*
X3055762Y1568944D2*
X3118692D1*
X3055762Y1576392D2*
X3118692D1*
X3055762D2*
Y1552833D1*
X3118692Y1576392D2*
Y1552833D1*
X2053979Y1442795D2*
Y1505724D1*
X2046530Y1442795D2*
Y1505724D1*
Y1442795D2*
X2070089D1*
X2046530Y1505724D2*
X2070089D1*
X2916227Y1111852D2*
Y1048923D1*
X2923676Y1111852D2*
Y1048923D1*
Y1111852D2*
X2900117D1*
X2923676Y1048923D2*
X2900117D1*
X3086997Y687142D2*
Y624213D1*
X3094446Y687142D2*
Y624213D1*
Y687142D2*
X3070887D1*
X3094446Y624213D2*
X3070887D1*
X1916791Y4141797D2*
X1979720D1*
X1916791Y4149245D2*
X1979720D1*
X1916791D2*
Y4125686D1*
X1979720Y4149245D2*
Y4125686D1*
X2286255Y3985910D2*
X2205548Y3985878D1*
X2286255Y3985910D2*
Y4202415D1*
X2242939Y4245710D2*
X2286255Y4202415D1*
X2242939Y4245710D2*
X2205548D1*
X2107119Y3985878D2*
X2026412Y3985910D1*
Y4202415D1*
X2069728Y4245710D2*
X2026412Y4202415D1*
X2107119Y4245710D2*
X2069728D1*
D25*
X2213408Y4269365D3*
X3856354Y3465295D2*
D10*
Y3528224D1*
X3848906Y3465295D2*
Y3528224D1*
Y3465295D2*
X3872465D1*
X3848906Y3528224D2*
X3872465D1*
X4178118Y3866031D2*
X4272606D1*
Y3692803D1*
X4178118D1*
Y3866031D1*
X3955482Y4254492D2*
X3782253D1*
Y4160004D1*
X3955482D1*
Y4254492D1*
X1367971Y4315406D2*
X1767971D1*
Y3915406D1*
X1367971D1*
Y4315406D1*
X1559794Y3317373D2*
Y3293814D1*
X1622723Y3317373D2*
Y3293814D1*
X1725986Y3869453D2*
D32*
X1987402D1*
Y3754376D1*
X1725986D1*
Y3869453D1*
X1498576Y2570950D2*
D10*
X1530076D1*
X1498576Y2626068D2*
X1530076D1*
X1393087Y2322127D2*
X1424587D1*
X1393087Y2377245D2*
X1424587D1*
X1521835Y932680D2*
Y901180D1*
X1576953Y932680D2*
Y901180D1*
X1411535Y1150098D2*
X1443035D1*
X1411535Y1205217D2*
X1443035D1*
X3221098Y2591408D2*
Y2622908D1*
X3165980Y2591408D2*
Y2622908D1*
X3053033Y2578283D2*
Y2609783D1*
X2997915Y2578283D2*
Y2609783D1*
X3008738Y1306694D2*
X3040238D1*
X3008738Y1361812D2*
X3040238D1*
X2879396Y835041D2*
Y803541D1*
X2934514Y835041D2*
Y803541D1*
X1190233Y3660166D2*
G02X1427124Y3660596I118353J50772D01*
G01*
X1427561Y3660925D2*
X1191057Y3661001D1*
X1054175Y3283648D2*
G02X1291066Y3284078I118353J50772D01*
G01*
X1291504Y3284407D2*
X1055000Y3284483D1*
X1138749Y2746749D2*
G02X1375639Y2747179I118353J50772D01*
G01*
X1376077Y2747508D2*
X1139573Y2747584D1*
X952298Y2931021D2*
G02X715339Y2930599I-118390J-50785D01*
G01*
X947660Y2934632D2*
X711062Y2934705D1*
D41*
X3937089Y4084385D3*
X3927888Y4034242D2*
D10*
X3809783D1*
Y4014546D1*
X3927888D1*
Y4034242D1*
X2952314Y3549150D2*
X3346014D1*
Y3371984D1*
X2952314D1*
Y3549150D1*
Y3513717D2*
X3346014D1*
X3167474Y3952846D2*
G02X3167044Y4189736I-50772J118353D01*
G01*
X3166715Y4190174D2*
X3166639Y3953670D1*
X3933660Y3593739D2*
X3539959D1*
Y3770904D1*
X3933660D1*
Y3593739D1*
Y3629172D2*
X3539959D1*
X1528213Y3767490D2*
Y3743930D1*
X1591142Y3767490D2*
Y3743930D1*
X1164575Y4032143D2*
X1188134D1*
X1164575Y4095072D2*
X1188134D1*
X1162146Y3890738D2*
X1185705D1*
X1162146Y3953667D2*
X1185705D1*
X1001529Y3759064D2*
Y3782623D1*
X938600Y3759064D2*
Y3782623D1*
X1008497Y3526979D2*
X984938D1*
X1008497Y3464050D2*
X984938D1*
X1380589Y3422060D2*
X1404148D1*
X1380589Y3484990D2*
X1404148D1*
X1444953Y3348283D2*
X1421394D1*
X1444953Y3285354D2*
X1421394D1*
X983259Y3224025D2*
X483259D1*
Y3444497D1*
X983259D1*
Y3224025D1*
X827232Y2736894D2*
X803673D1*
X827232Y2673965D2*
X803673D1*
X1560062Y3114791D2*
Y3091232D1*
X1622991Y3114791D2*
Y3091232D1*
X1435900Y2990958D2*
X1412341D1*
X1435900Y2928029D2*
X1412341D1*
X1056369Y3004419D2*
X1032810D1*
X1056369Y2941490D2*
X1032810D1*
X796207Y3048400D2*
X772648D1*
X796207Y2985471D2*
X772648D1*
X1231437Y4188123D2*
X1254996D1*
X1231437Y4251052D2*
X1254996D1*
X4032583Y3982903D2*
X4009024D1*
X4032583Y3919974D2*
X4009024D1*
X3660463Y3944081D2*
X3636904D1*
X3660463Y3881152D2*
X3636904D1*
X2246996Y2674961D2*
X1746996D1*
Y2895433D1*
X2246996D1*
Y2674961D1*
X1739395Y2571240D2*
X1762954D1*
X1739395Y2634169D2*
X1762954D1*
X2263693Y528529D2*
X1763693D1*
Y749001D1*
X2263693D1*
Y528529D1*
X1606102Y757924D2*
X1582543D1*
X1606102Y694995D2*
X1582543D1*
X1235312Y1105533D2*
Y1081974D1*
X1298241Y1105533D2*
Y1081974D1*
X1277500Y2226671D2*
Y2203112D1*
X1340429Y2226671D2*
Y2203112D1*
X3662546Y2852199D2*
X3162546D1*
Y3072672D1*
X3662546D1*
Y2852199D1*
X3263008Y2779980D2*
X3239449D1*
X3263008Y2717051D2*
X3239449D1*
X2876190Y2488522D2*
D46*
X2951190D1*
Y2663522D1*
X2876190D1*
Y2488522D1*
X3776304Y538096D2*
D10*
X3276304D1*
Y758568D1*
X3776304D1*
Y538096D1*
X3097518Y783488D2*
X3073959D1*
X3097518Y720559D2*
X3073959D1*
X2809001Y1190774D2*
D46*
X2884001D1*
Y1365774D1*
X2809001D1*
Y1190774D1*
X3070676Y3659285D2*
D10*
X3047117D1*
X3070676Y3596356D2*
X3047117D1*
X3069709Y3856541D2*
X3046150D1*
X3069709Y3793612D2*
X3046150D1*
X3361928Y3716864D2*
Y3740423D1*
X3298999Y3716864D2*
Y3740423D1*
X3510361Y3725446D2*
Y3749005D1*
X3447432Y3725446D2*
Y3749005D1*
X4092333Y3740581D2*
Y3764140D1*
X4029404Y3740581D2*
Y3764140D1*
X1822350Y3637823D2*
X2216051D1*
Y3460657D1*
X1822350D1*
Y3637823D1*
Y3602390D2*
X2216051D1*
X3287365Y4244383D2*
X3464522D1*
Y3850682D1*
X3287365D1*
Y4244383D1*
X3320391D2*
Y3850682D1*
X882655Y3759060D2*
Y3782619D1*
X819726Y3759060D2*
Y3782619D1*
X921638Y3965954D2*
X898079D1*
X921638Y3903025D2*
X898079D1*
X3313081Y2092609D2*
D22*
X4291638D1*
Y1305207D1*
X3313081D1*
Y2092609D1*
X2405361Y1882180D2*
X2993991D1*
Y1518735D1*
X2405361D1*
Y1882180D1*
X1557042Y1952811D2*
X1872003D1*
Y1441000D1*
X1557042D1*
Y1952811D1*
X3294906Y643720D2*
G02X3294906Y643720I39370J0D01*
G01*
X3334276Y683091D2*
Y604350D1*
X3180182Y2963134D2*
G02X3180182Y2963134I39370J0D01*
G01*
X3219552Y3002504D2*
Y2923764D1*
X669440Y2541055D2*
X984400D1*
Y2029244D1*
X669440D1*
Y2541055D1*
X1775987Y644281D2*
G02X1775987Y644281I39370J0D01*
G01*
X1815357Y683651D2*
Y604911D1*
X698614Y1716719D2*
X1287244D1*
Y1480499D1*
X698614D1*
Y1716719D1*
X1761634Y2781253D2*
G02X1761634Y2781253I39370J0D01*
G01*
X1801004Y2820623D2*
Y2741883D1*
X2555391Y2780174D2*
D12*
G02X2555391Y2780174I46869J0D01*
G01*
X500895Y3334959D2*
D22*
G02X500895Y3334959I39370J0D01*
G01*
X540265Y3374329D2*
Y3295589D1*
X1106574Y3657377D2*
D96*
X1104673Y3661180D1*
X1100826Y3665027D1*
X1097024Y3666928D1*
X1089374D1*
X1085528Y3665027D1*
X1081725Y3661180D1*
X1079780Y3657377D1*
X1077878Y3651629D1*
Y3642034D1*
X1079780Y3636331D1*
X1081725Y3632484D1*
X1085528Y3628681D1*
X1089374Y3626736D1*
X1097024D1*
X1100826Y3628681D1*
X1104673Y3632484D1*
X1106574Y3636331D1*
X1118926Y3659234D2*
X1122773Y3661180D1*
X1128521Y3666884D1*
Y3626736D1*
X1393774Y3553907D2*
X1389971Y3552006D1*
X1386125Y3548159D1*
X1384223Y3544357D1*
Y3536708D1*
X1386124Y3532861D1*
X1389971Y3529058D1*
X1393774Y3527113D1*
X1399522Y3525212D1*
X1409117D1*
X1414820Y3527113D1*
X1418667Y3529058D1*
X1422470Y3532861D1*
X1424415Y3536708D1*
Y3544357D1*
X1422470Y3548159D1*
X1418667Y3552006D1*
X1414820Y3553907D1*
X1393818Y3568204D2*
X1391917D1*
X1388070Y3570106D1*
X1386169Y3572007D1*
X1384267Y3575854D1*
Y3583503D1*
X1386169Y3587305D1*
X1388070Y3589207D1*
X1391917Y3591152D1*
X1395719D1*
X1399566Y3589207D1*
X1405270Y3585404D1*
X1424415Y3566259D1*
Y3593053D1*
X1390708Y3096761D2*
X1386906Y3094859D1*
X1383059Y3091013D1*
X1381158Y3087210D1*
Y3079561D1*
X1383059Y3075714D1*
X1386906Y3071911D1*
X1390708Y3069966D1*
X1396456Y3068065D1*
X1406051D1*
X1411755Y3069966D1*
X1415602Y3071911D1*
X1419404Y3075714D1*
X1421350Y3079561D1*
Y3087210D1*
X1419404Y3091013D1*
X1415602Y3094859D1*
X1411755Y3096761D1*
X1381202Y3112959D2*
Y3133961D1*
X1396501Y3122509D1*
Y3128257D1*
X1398402Y3132060D1*
X1400303Y3133961D1*
X1406051Y3135907D1*
X1409854D1*
X1415602Y3133961D1*
X1419449Y3130159D1*
X1421350Y3124411D1*
Y3118662D1*
X1419449Y3112959D1*
X1417503Y3111057D1*
X1413701Y3109112D1*
X775307Y3202464D2*
X773406Y3206266D1*
X769559Y3210113D1*
X765757Y3212014D1*
X758107D1*
X754261Y3210113D1*
X750458Y3206266D1*
X748513Y3202464D1*
X746611Y3196716D1*
Y3187121D1*
X748513Y3181417D1*
X750458Y3177570D1*
X754261Y3173768D1*
X758107Y3171822D1*
X765757D1*
X769559Y3173768D1*
X773406Y3177570D1*
X775307Y3181417D1*
X806804Y3171822D2*
Y3211970D1*
X787659Y3185219D1*
X816355D1*
X538325Y3200580D2*
X536424Y3204383D1*
X532577Y3208230D1*
X528774Y3210131D1*
X521125D1*
X517278Y3208230D1*
X513476Y3204383D1*
X511530Y3200580D1*
X509629Y3194832D1*
Y3185238D1*
X511530Y3179534D1*
X513476Y3175687D1*
X517278Y3171884D1*
X521125Y3169939D1*
X528774D1*
X532577Y3171884D1*
X536424Y3175687D1*
X538325Y3179534D1*
X573624Y3210087D2*
X554523D1*
X552622Y3192887D1*
X554523Y3194788D1*
X560271Y3196734D1*
X565975D1*
X571723Y3194788D1*
X575570Y3190986D1*
X577471Y3185238D1*
Y3181435D1*
X575570Y3175687D1*
X571723Y3171840D1*
X565975Y3169939D1*
X560271D1*
X554523Y3171840D1*
X552622Y3173786D1*
X550676Y3177588D1*
X1253240Y3160832D2*
X1251339Y3164635D1*
X1247492Y3168482D1*
X1243689Y3170383D1*
X1236040D1*
X1232193Y3168482D1*
X1228391Y3164635D1*
X1226445Y3160832D1*
X1224544Y3155084D1*
Y3145490D1*
X1226445Y3139786D1*
X1228391Y3135939D1*
X1232193Y3132136D1*
X1236040Y3130191D1*
X1243689D1*
X1247492Y3132136D1*
X1251339Y3135939D1*
X1253240Y3139786D1*
X1288539Y3164635D2*
X1286638Y3168437D1*
X1280890Y3170339D1*
X1277087D1*
X1271339Y3168437D1*
X1267492Y3162689D1*
X1265591Y3153139D1*
Y3143588D1*
X1267492Y3135939D1*
X1271339Y3132092D1*
X1277087Y3130191D1*
X1278989D1*
X1284692Y3132092D1*
X1288539Y3135939D1*
X1290440Y3141687D1*
Y3143588D1*
X1288539Y3149336D1*
X1284692Y3153139D1*
X1278989Y3155040D1*
X1277087D1*
X1271339Y3153139D1*
X1267492Y3149336D1*
X1265591Y3143588D1*
X1032110Y3155772D2*
X1030208Y3159575D1*
X1026362Y3163421D1*
X1022559Y3165323D1*
X1014910D1*
X1011063Y3163421D1*
X1007260Y3159575D1*
X1005315Y3155772D1*
X1003414Y3150024D1*
Y3140429D1*
X1005315Y3134725D1*
X1007260Y3130879D1*
X1011063Y3127076D1*
X1014910Y3125131D1*
X1022559D1*
X1026362Y3127076D1*
X1030208Y3130879D1*
X1032110Y3134725D1*
X1052110Y3125131D2*
X1071256Y3165278D1*
X1044461D1*
X630791Y2597806D2*
X626989Y2595905D1*
X623142Y2592058D1*
X621240Y2588256D1*
Y2580606D1*
X623142Y2576760D1*
X626988Y2572957D1*
X630791Y2571012D1*
X636539Y2569110D1*
X646134D1*
X651838Y2571012D1*
X655684Y2572957D1*
X659487Y2576760D1*
X661433Y2580606D1*
Y2588256D1*
X659487Y2592058D1*
X655684Y2595905D1*
X651838Y2597806D1*
X621285Y2619708D2*
X623186Y2614004D1*
X626989Y2612059D1*
X630835D1*
X634638Y2614004D1*
X636583Y2617807D1*
X638485Y2625456D1*
X640386Y2631204D1*
X644233Y2635007D1*
X648035Y2636908D1*
X653783D1*
X657586Y2635007D1*
X659531Y2633106D1*
X661432Y2627358D1*
Y2619708D1*
X659531Y2614004D1*
X657586Y2612059D1*
X653783Y2610158D1*
X648035D1*
X644233Y2612059D1*
X640386Y2615906D1*
X638485Y2621610D1*
X636583Y2629259D1*
X634638Y2633106D1*
X630835Y2635007D1*
X626989D1*
X623186Y2633106D1*
X621285Y2627358D1*
Y2619708D1*
X1958845Y3382634D2*
X1956944Y3386437D1*
X1953097Y3390283D1*
X1949294Y3392185D1*
X1941645D1*
X1937798Y3390283D1*
X1933996Y3386437D1*
X1932050Y3382634D1*
X1930149Y3376886D1*
Y3367291D1*
X1932050Y3361588D1*
X1933996Y3357741D1*
X1937798Y3353938D1*
X1941645Y3351993D1*
X1949294D1*
X1953097Y3353938D1*
X1956944Y3357741D1*
X1958845Y3361588D1*
X1996090Y3378787D2*
X1994144Y3373039D1*
X1990342Y3369193D1*
X1984594Y3367291D1*
X1982692D1*
X1976944Y3369193D1*
X1973142Y3373039D1*
X1971196Y3378787D1*
Y3380689D1*
X1973142Y3386437D1*
X1976944Y3390239D1*
X1982692Y3392141D1*
X1984594D1*
X1990342Y3390239D1*
X1994144Y3386437D1*
X1996090Y3378787D1*
Y3369193D1*
X1994144Y3359642D1*
X1990342Y3353894D1*
X1984594Y3351993D1*
X1980791D1*
X1975043Y3353894D1*
X1973142Y3357741D1*
X2251750Y3455944D2*
X2247948Y3454042D1*
X2244101Y3450196D1*
X2242200Y3446393D1*
Y3438744D1*
X2244101Y3434897D1*
X2247948Y3431095D1*
X2251750Y3429149D1*
X2257498Y3427248D1*
X2267093D1*
X2272797Y3429149D1*
X2276644Y3431095D1*
X2280446Y3434897D1*
X2282392Y3438744D1*
Y3446393D1*
X2280446Y3450196D1*
X2276644Y3454042D1*
X2272797Y3455944D1*
X2249893Y3468295D2*
X2247948Y3472142D1*
X2242244Y3477890D1*
X2282392D1*
X2242244Y3501737D2*
X2244145Y3495989D1*
X2249893Y3492142D1*
X2259444Y3490241D1*
X2265192D1*
X2274742Y3492142D1*
X2280491Y3495989D1*
X2282392Y3501737D1*
Y3505540D1*
X2280491Y3511288D1*
X2274742Y3515090D1*
X2265192Y3517036D1*
X2259444D1*
X2249893Y3515090D1*
X2244145Y3511288D1*
X2242244Y3505540D1*
Y3501737D1*
X2249893Y3515090D2*
X2274742Y3492142D1*
X2544927Y3700049D2*
X2543025Y3703851D1*
X2539179Y3707698D1*
X2535376Y3709599D1*
X2527727D1*
X2523880Y3707698D1*
X2520078Y3703851D1*
X2518132Y3700049D1*
X2516231Y3694301D1*
Y3684706D1*
X2518132Y3679002D1*
X2520078Y3675155D1*
X2523880Y3671353D1*
X2527727Y3669407D1*
X2535376D1*
X2539179Y3671353D1*
X2543025Y3675155D1*
X2544927Y3679002D1*
X2557278Y3701906D2*
X2561125Y3703851D1*
X2566873Y3709555D1*
Y3669407D1*
X2579224Y3701906D2*
X2583071Y3703851D1*
X2588819Y3709555D1*
Y3669407D1*
X3658272Y4247443D2*
X3656371Y4251245D1*
X3652524Y4255092D1*
X3648722Y4256993D1*
X3641072D1*
X3637226Y4255092D1*
X3633423Y4251245D1*
X3631478Y4247443D1*
X3629576Y4241695D1*
Y4232100D1*
X3631478Y4226396D1*
X3633423Y4222549D1*
X3637226Y4218747D1*
X3641072Y4216801D1*
X3648722D1*
X3652524Y4218747D1*
X3656371Y4222549D1*
X3658272Y4226396D1*
X3672569Y4247398D2*
Y4249300D1*
X3674470Y4253146D1*
X3676372Y4255048D1*
X3680218Y4256949D1*
X3687868D1*
X3691670Y4255048D1*
X3693572Y4253146D1*
X3695517Y4249300D1*
Y4245497D1*
X3693572Y4241650D1*
X3689769Y4235947D1*
X3670624Y4216801D1*
X3697418D1*
X3728915D2*
Y4256949D1*
X3709770Y4230198D1*
X3738466D1*
X1925884Y3076886D2*
X1923983Y3080689D1*
X1920136Y3084535D1*
X1916333Y3086437D1*
X1908684D1*
X1904837Y3084535D1*
X1901035Y3080689D1*
X1899089Y3076886D1*
X1897188Y3071138D1*
Y3061543D1*
X1899089Y3055840D1*
X1901035Y3051993D1*
X1904837Y3048190D1*
X1908684Y3046245D1*
X1916333D1*
X1920136Y3048190D1*
X1923983Y3051993D1*
X1925884Y3055840D1*
X1938235Y3078743D2*
X1942082Y3080689D1*
X1947830Y3086393D1*
Y3046245D1*
X1971678Y3086393D2*
X1965929Y3084491D1*
X1962083Y3078743D1*
X1960181Y3069193D1*
Y3063445D1*
X1962083Y3053894D1*
X1965929Y3048146D1*
X1971678Y3046245D1*
X1975480D1*
X1981228Y3048146D1*
X1985031Y3053894D1*
X1986976Y3063445D1*
Y3069193D1*
X1985031Y3078743D1*
X1981228Y3084491D1*
X1975480Y3086393D1*
X1971678D1*
X1985031Y3078743D2*
X1962083Y3053894D1*
X1999328Y3078743D2*
X2003174Y3080689D1*
X2008922Y3086393D1*
Y3046245D1*
X1559710Y671065D2*
X1557809Y674867D1*
X1553962Y678714D1*
X1550160Y680615D1*
X1542511D1*
X1538664Y678714D1*
X1534861Y674867D1*
X1532916Y671065D1*
X1531014Y665317D1*
Y655722D1*
X1532916Y650018D1*
X1534861Y646171D1*
X1538664Y642369D1*
X1542511Y640423D1*
X1550160D1*
X1553962Y642369D1*
X1557809Y646171D1*
X1559710Y650018D1*
X1572062Y672922D2*
X1575909Y674867D1*
X1581657Y680571D1*
Y640423D1*
X1605504Y680571D2*
X1599756Y678670D1*
X1595909Y672922D1*
X1594008Y663371D1*
Y657623D1*
X1595909Y648073D1*
X1599756Y642324D1*
X1605504Y640423D1*
X1609307D1*
X1615055Y642324D1*
X1618857Y648073D1*
X1620803Y657623D1*
Y663371D1*
X1618857Y672922D1*
X1615055Y678670D1*
X1609307Y680571D1*
X1605504D1*
X1618857Y672922D2*
X1595909Y648073D1*
X1635100Y671020D2*
Y672922D1*
X1637001Y676768D1*
X1638902Y678670D1*
X1642749Y680571D1*
X1650398D1*
X1654201Y678670D1*
X1656102Y676768D1*
X1658047Y672922D1*
Y669119D1*
X1656102Y665272D1*
X1652299Y659569D1*
X1633154Y640423D1*
X1659949D1*
X1189220Y2549527D2*
X1187318Y2553329D1*
X1183472Y2557176D1*
X1179669Y2559077D1*
X1172020D1*
X1168173Y2557176D1*
X1164370Y2553329D1*
X1162425Y2549527D1*
X1160524Y2543779D1*
Y2534184D1*
X1162425Y2528480D1*
X1164370Y2524633D1*
X1168173Y2520831D1*
X1172020Y2518885D1*
X1179669D1*
X1183472Y2520831D1*
X1187318Y2524633D1*
X1189220Y2528480D1*
X1201571Y2551384D2*
X1205418Y2553329D1*
X1211166Y2559033D1*
Y2518885D1*
X1235013Y2559033D2*
X1229265Y2557132D1*
X1225418Y2551384D1*
X1223517Y2541833D1*
Y2536085D1*
X1225418Y2526534D1*
X1229265Y2520786D1*
X1235013Y2518885D1*
X1238816D1*
X1244564Y2520786D1*
X1248366Y2526534D1*
X1250312Y2536085D1*
Y2541833D1*
X1248366Y2551384D1*
X1244564Y2557132D1*
X1238816Y2559033D1*
X1235013D1*
X1248366Y2551384D2*
X1225418Y2526534D1*
X1266510Y2559033D2*
X1287512D1*
X1276061Y2543734D1*
X1281809D1*
X1285611Y2541833D1*
X1287512Y2539932D1*
X1289458Y2534184D1*
Y2530381D1*
X1287512Y2524633D1*
X1283710Y2520786D1*
X1277962Y2518885D1*
X1272214D1*
X1266510Y2520786D1*
X1264609Y2522732D1*
X1262663Y2526534D1*
X725900Y1905491D2*
X722097Y1903590D1*
X718251Y1899743D1*
X716349Y1895940D1*
Y1888291D1*
X718251Y1884444D1*
X722097Y1880642D1*
X725900Y1878696D1*
X731648Y1876795D1*
X741243D1*
X746947Y1878696D1*
X750793Y1880642D1*
X754596Y1884444D1*
X756541Y1888291D1*
Y1895940D1*
X754596Y1899743D1*
X750793Y1903590D1*
X746947Y1905491D1*
X724043Y1917842D2*
X722097Y1921689D1*
X716394Y1927437D1*
X756541D1*
X716394Y1951284D2*
X718295Y1945536D1*
X724043Y1941690D1*
X733594Y1939788D1*
X739342D1*
X748892Y1941690D1*
X754640Y1945536D1*
X756541Y1951284D1*
Y1955087D1*
X754640Y1960835D1*
X748892Y1964638D1*
X739342Y1966583D1*
X733594D1*
X724043Y1964638D1*
X718295Y1960835D1*
X716394Y1955087D1*
Y1951284D1*
X724043Y1964638D2*
X748892Y1941690D1*
X756541Y1998080D2*
X716394D1*
X743144Y1978934D1*
Y2007630D1*
X1063813Y1220881D2*
X1060011Y1218980D1*
X1056164Y1215133D1*
X1054263Y1211331D1*
Y1203681D1*
X1056164Y1199835D1*
X1060011Y1196032D1*
X1063813Y1194087D1*
X1069561Y1192185D1*
X1079156D1*
X1084860Y1194087D1*
X1088707Y1196032D1*
X1092509Y1199835D1*
X1094455Y1203681D1*
Y1211331D1*
X1092509Y1215133D1*
X1088707Y1218980D1*
X1084860Y1220881D1*
X1061956Y1233233D2*
X1060011Y1237079D1*
X1054307Y1242827D1*
X1094455D1*
X1054307Y1266675D2*
X1056208Y1260927D1*
X1061956Y1257080D1*
X1071507Y1255179D1*
X1077255D1*
X1086805Y1257080D1*
X1092554Y1260927D1*
X1094455Y1266675D1*
Y1270477D1*
X1092554Y1276225D1*
X1086805Y1280028D1*
X1077255Y1281973D1*
X1071507D1*
X1061956Y1280028D1*
X1056208Y1276225D1*
X1054307Y1270477D1*
Y1266675D1*
X1061956Y1280028D2*
X1086805Y1257080D1*
X1054307Y1317273D2*
Y1298171D1*
X1071507Y1296270D1*
X1069606Y1298171D1*
X1067660Y1303920D1*
Y1309623D1*
X1069606Y1315371D1*
X1073408Y1319218D1*
X1079156Y1321119D1*
X1082959D1*
X1088707Y1319218D1*
X1092553Y1315371D1*
X1094455Y1309623D1*
Y1303919D1*
X1092553Y1298171D1*
X1090608Y1296270D1*
X1086805Y1294325D1*
X1390328Y1397281D2*
X1388426Y1401084D1*
X1384580Y1404930D1*
X1380777Y1406832D1*
X1373128D1*
X1369281Y1404930D1*
X1365478Y1401084D1*
X1363533Y1397281D1*
X1361632Y1391533D1*
Y1381938D1*
X1363533Y1376235D1*
X1365478Y1372388D1*
X1369281Y1368585D1*
X1373128Y1366640D1*
X1380777D1*
X1384580Y1368585D1*
X1388426Y1372388D1*
X1390328Y1376235D1*
X1402679Y1399138D2*
X1406526Y1401084D1*
X1412274Y1406788D1*
Y1366640D1*
X1436121Y1406788D2*
X1430373Y1404886D1*
X1426526Y1399138D1*
X1424625Y1389588D1*
Y1383840D1*
X1426526Y1374289D1*
X1430373Y1368541D1*
X1436121Y1366640D1*
X1439924D1*
X1445672Y1368541D1*
X1449474Y1374289D1*
X1451420Y1383840D1*
Y1389588D1*
X1449474Y1399138D1*
X1445672Y1404886D1*
X1439924Y1406788D1*
X1436121D1*
X1449474Y1399138D2*
X1426526Y1374289D1*
X1486719Y1401084D2*
X1484818Y1404886D1*
X1479070Y1406788D1*
X1475267D1*
X1469519Y1404886D1*
X1465672Y1399138D1*
X1463771Y1389588D1*
Y1380037D1*
X1465672Y1372388D1*
X1469519Y1368541D1*
X1475267Y1366640D1*
X1477169D1*
X1482872Y1368541D1*
X1486719Y1372388D1*
X1488620Y1378136D1*
Y1380037D1*
X1486719Y1385785D1*
X1482872Y1389588D1*
X1477169Y1391489D1*
X1475267D1*
X1469519Y1389588D1*
X1465672Y1385785D1*
X1463771Y1380037D1*
X1380050Y1123160D2*
X1378149Y1126963D1*
X1374302Y1130810D1*
X1370500Y1132711D1*
X1362850D1*
X1359004Y1130810D1*
X1355201Y1126963D1*
X1353256Y1123160D1*
X1351354Y1117412D1*
Y1107818D1*
X1353256Y1102114D1*
X1355201Y1098267D1*
X1359004Y1094464D1*
X1362850Y1092519D1*
X1370500D1*
X1374302Y1094464D1*
X1378149Y1098267D1*
X1380050Y1102114D1*
X1392402Y1125017D2*
X1396248Y1126963D1*
X1401997Y1132667D1*
Y1092519D1*
X1425844Y1132667D2*
X1420096Y1130766D1*
X1416249Y1125017D1*
X1414348Y1115467D1*
Y1109719D1*
X1416249Y1100168D1*
X1420096Y1094420D1*
X1425844Y1092519D1*
X1429647D1*
X1435395Y1094420D1*
X1439197Y1100168D1*
X1441143Y1109719D1*
Y1115467D1*
X1439197Y1125017D1*
X1435395Y1130766D1*
X1429647Y1132667D1*
X1425844D1*
X1439197Y1125017D2*
X1416249Y1100168D1*
X1461143Y1092519D2*
X1480289Y1132667D1*
X1453494D1*
X1387204Y2174285D2*
X1383402Y2172384D1*
X1379555Y2168537D1*
X1377654Y2164735D1*
Y2157085D1*
X1379555Y2153239D1*
X1383402Y2149436D1*
X1387204Y2147490D1*
X1392952Y2145589D1*
X1402547D1*
X1408251Y2147490D1*
X1412098Y2149436D1*
X1415900Y2153239D1*
X1417846Y2157085D1*
Y2164735D1*
X1415900Y2168537D1*
X1412098Y2172384D1*
X1408251Y2174285D1*
X1385347Y2186637D2*
X1383402Y2190483D1*
X1377698Y2196231D1*
X1417846D1*
X1377698Y2220079D2*
X1379599Y2214331D1*
X1385347Y2210484D1*
X1394898Y2208583D1*
X1400646D1*
X1410197Y2210484D1*
X1415945Y2214331D1*
X1417846Y2220079D1*
Y2223881D1*
X1415945Y2229629D1*
X1410197Y2233432D1*
X1400646Y2235377D1*
X1394898D1*
X1385347Y2233432D1*
X1379599Y2229629D1*
X1377698Y2223881D1*
Y2220079D1*
X1385347Y2233432D2*
X1410197Y2210484D1*
X1377698Y2257279D2*
X1379599Y2251575D1*
X1383402Y2249630D1*
X1387249D1*
X1391051Y2251575D1*
X1392997Y2255378D1*
X1394898Y2263027D1*
X1396799Y2268775D1*
X1400646Y2272578D1*
X1404449Y2274479D1*
X1410197D1*
X1413999Y2272578D1*
X1415945Y2270677D1*
X1417846Y2264929D1*
Y2257279D1*
X1415945Y2251575D1*
X1413999Y2249630D1*
X1410197Y2247729D1*
X1404449D1*
X1400646Y2249630D1*
X1396799Y2253477D1*
X1394898Y2259181D1*
X1392997Y2266830D1*
X1391051Y2270677D1*
X1387249Y2272578D1*
X1383402D1*
X1379599Y2270677D1*
X1377698Y2264929D1*
Y2257279D1*
X2339168Y726071D2*
X2337266Y729874D1*
X2333420Y733720D1*
X2329617Y735622D1*
X2321968D1*
X2318121Y733720D1*
X2314318Y729874D1*
X2312373Y726071D1*
X2310472Y720323D1*
Y710728D1*
X2312373Y705025D1*
X2314318Y701178D1*
X2318121Y697375D1*
X2321968Y695430D1*
X2329617D1*
X2333420Y697375D1*
X2337266Y701178D1*
X2339168Y705025D1*
X2351519Y727928D2*
X2355366Y729874D1*
X2361114Y735578D1*
Y695430D1*
X2384961Y735578D2*
X2379213Y733676D1*
X2375366Y727928D1*
X2373465Y718378D1*
Y712630D1*
X2375366Y703079D1*
X2379213Y697331D1*
X2384961Y695430D1*
X2388764D1*
X2394512Y697331D1*
X2398314Y703079D1*
X2400260Y712630D1*
Y718378D1*
X2398314Y727928D1*
X2394512Y733676D1*
X2388764Y735578D1*
X2384961D1*
X2398314Y727928D2*
X2375366Y703079D1*
X2437505Y722224D2*
X2435559Y716476D1*
X2431757Y712630D1*
X2426009Y710728D1*
X2424107D1*
X2418359Y712630D1*
X2414557Y716476D1*
X2412611Y722224D1*
Y724126D1*
X2414557Y729874D1*
X2418359Y733676D1*
X2424107Y735578D1*
X2426009D1*
X2431757Y733676D1*
X2435559Y729874D1*
X2437505Y722224D1*
Y712630D1*
X2435559Y703079D1*
X2431757Y697331D1*
X2426009Y695430D1*
X2422206D1*
X2416458Y697331D1*
X2414557Y701178D1*
X2346658Y2873450D2*
X2344757Y2877253D1*
X2340910Y2881100D1*
X2337108Y2883001D1*
X2329458D1*
X2325612Y2881100D1*
X2321809Y2877253D1*
X2319863Y2873450D1*
X2317962Y2867702D1*
Y2858108D1*
X2319863Y2852404D1*
X2321809Y2848557D1*
X2325612Y2844755D1*
X2329458Y2842809D1*
X2337108D1*
X2340910Y2844755D1*
X2344757Y2848557D1*
X2346658Y2852404D1*
X2359010Y2875308D2*
X2362856Y2877253D1*
X2368604Y2882957D1*
Y2842809D1*
X2380956Y2875308D2*
X2384802Y2877253D1*
X2390551Y2882957D1*
Y2842809D1*
X2414398Y2882957D2*
X2408650Y2881056D1*
X2404803Y2875308D1*
X2402902Y2865757D1*
Y2860009D1*
X2404803Y2850458D1*
X2408650Y2844710D1*
X2414398Y2842809D1*
X2418201D1*
X2423949Y2844710D1*
X2427751Y2850458D1*
X2429697Y2860009D1*
Y2865757D1*
X2427751Y2875308D1*
X2423949Y2881056D1*
X2418201Y2882957D1*
X2414398D1*
X2427751Y2875308D2*
X2404803Y2850458D1*
X3743947Y572496D2*
X3742046Y576299D1*
X3738199Y580146D1*
X3734396Y582047D1*
X3726747D1*
X3722900Y580146D1*
X3719098Y576299D1*
X3717152Y572496D1*
X3715251Y566748D1*
Y557154D1*
X3717152Y551450D1*
X3719098Y547603D1*
X3722900Y543800D1*
X3726747Y541855D1*
X3734396D1*
X3738199Y543800D1*
X3742046Y547603D1*
X3743947Y551450D1*
X3756298Y574353D2*
X3760145Y576299D1*
X3765893Y582003D1*
Y541855D1*
X3778245Y574353D2*
X3782091Y576299D1*
X3787839Y582003D1*
Y541855D1*
X3800191Y574353D2*
X3804038Y576299D1*
X3809786Y582003D1*
Y541855D1*
X3630548Y3243849D2*
X3628647Y3247652D1*
X3624800Y3251499D1*
X3620997Y3253400D1*
X3613348D1*
X3609501Y3251499D1*
X3605699Y3247652D1*
X3603753Y3243849D1*
X3601852Y3238101D1*
Y3228507D1*
X3603753Y3222803D1*
X3605699Y3218956D1*
X3609501Y3215153D1*
X3613348Y3213208D1*
X3620997D1*
X3624800Y3215153D1*
X3628647Y3218956D1*
X3630548Y3222803D1*
X3642899Y3245706D2*
X3646746Y3247652D1*
X3652494Y3253356D1*
Y3213208D1*
X3664845Y3245706D2*
X3668692Y3247652D1*
X3674440Y3253356D1*
Y3213208D1*
X3688737Y3243805D2*
Y3245706D1*
X3690638Y3249553D1*
X3692540Y3251454D1*
X3696386Y3253356D1*
X3704036D1*
X3707838Y3251454D1*
X3709740Y3249553D1*
X3711685Y3245706D1*
Y3241904D1*
X3709740Y3238057D1*
X3705937Y3232353D1*
X3686792Y3213208D1*
X3713586D1*
X3419525Y2695035D2*
X3417624Y2698837D1*
X3413777Y2702684D1*
X3409975Y2704585D1*
X3402326D1*
X3398479Y2702684D1*
X3394676Y2698837D1*
X3392731Y2695035D1*
X3390829Y2689287D1*
Y2679692D1*
X3392731Y2673988D1*
X3394676Y2670141D1*
X3398479Y2666339D1*
X3402326Y2664393D1*
X3409975D1*
X3413777Y2666339D1*
X3417624Y2670141D1*
X3419525Y2673988D1*
X3433822Y2694990D2*
Y2696892D1*
X3435724Y2700739D1*
X3437625Y2702640D1*
X3441472Y2704541D1*
X3449121D1*
X3452923Y2702640D1*
X3454825Y2700739D1*
X3456770Y2696892D1*
Y2693089D1*
X3454825Y2689242D1*
X3451022Y2683539D1*
X3431877Y2664393D1*
X3458671D1*
X3482519Y2704541D2*
X3476771Y2702640D1*
X3472924Y2696892D1*
X3471023Y2687341D1*
Y2681593D1*
X3472924Y2672043D1*
X3476771Y2666295D1*
X3482519Y2664393D1*
X3486321D1*
X3492070Y2666295D1*
X3495872Y2672043D1*
X3497818Y2681593D1*
Y2687341D1*
X3495872Y2696892D1*
X3492070Y2702640D1*
X3486321Y2704541D1*
X3482519D1*
X3495872Y2696892D2*
X3472924Y2672043D1*
X3510169Y2696892D2*
X3514016Y2698837D1*
X3519764Y2704541D1*
Y2664393D1*
X2826859Y2325985D2*
X2823057Y2324083D1*
X2819210Y2320237D1*
X2817309Y2316434D1*
Y2308785D1*
X2819210Y2304938D1*
X2823057Y2301135D1*
X2826859Y2299190D1*
X2832607Y2297289D1*
X2842202D1*
X2847906Y2299190D1*
X2851753Y2301135D1*
X2855555Y2304938D1*
X2857501Y2308785D1*
Y2316434D1*
X2855555Y2320237D1*
X2851753Y2324083D1*
X2847906Y2325985D1*
X2826904Y2340281D2*
X2825002D1*
X2821156Y2342183D1*
X2819254Y2344084D1*
X2817353Y2347931D1*
Y2355580D1*
X2819254Y2359383D1*
X2821156Y2361284D1*
X2825002Y2363229D1*
X2828805D1*
X2832652Y2361284D1*
X2838355Y2357481D1*
X2857501Y2338336D1*
Y2365131D1*
X2817353Y2388978D2*
X2819254Y2383230D1*
X2825002Y2379383D1*
X2834553Y2377482D1*
X2840301D1*
X2849851Y2379383D1*
X2855599Y2383230D1*
X2857501Y2388978D1*
Y2392781D1*
X2855599Y2398529D1*
X2849851Y2402331D1*
X2840301Y2404277D1*
X2834553D1*
X2825002Y2402331D1*
X2819254Y2398529D1*
X2817353Y2392781D1*
Y2388978D1*
X2825002Y2402331D2*
X2849851Y2379383D1*
X2826904Y2418574D2*
X2825002D1*
X2821155Y2420475D1*
X2819254Y2422376D1*
X2817353Y2426223D1*
Y2433872D1*
X2819254Y2437675D1*
X2821155Y2439576D1*
X2825002Y2441521D1*
X2828805D1*
X2832652Y2439576D1*
X2838355Y2435773D1*
X2857501Y2416628D1*
Y2443423D1*
X2057226Y1919493D2*
X2055325Y1923295D1*
X2051478Y1927142D1*
X2047675Y1929043D1*
X2040026D1*
X2036179Y1927142D1*
X2032377Y1923295D1*
X2030431Y1919493D1*
X2028530Y1913745D1*
Y1904150D1*
X2030431Y1898446D1*
X2032377Y1894599D1*
X2036179Y1890797D1*
X2040026Y1888851D1*
X2047675D1*
X2051478Y1890797D1*
X2055325Y1894599D1*
X2057226Y1898446D1*
X2071523Y1919448D2*
Y1921350D1*
X2073424Y1925197D1*
X2075325Y1927098D1*
X2079172Y1928999D1*
X2086821D1*
X2090624Y1927098D1*
X2092525Y1925197D1*
X2094471Y1921350D1*
Y1917547D1*
X2092525Y1913700D1*
X2088723Y1907997D1*
X2069577Y1888851D1*
X2096372D1*
X2120220Y1928999D2*
X2114471Y1927098D1*
X2110625Y1921350D1*
X2108723Y1911799D1*
Y1906051D1*
X2110625Y1896501D1*
X2114471Y1890753D1*
X2120220Y1888851D1*
X2124022D1*
X2129770Y1890753D1*
X2133573Y1896501D1*
X2135518Y1906051D1*
Y1911799D1*
X2133573Y1921350D1*
X2129770Y1927098D1*
X2124022Y1928999D1*
X2120220D1*
X2133573Y1921350D2*
X2110625Y1896501D1*
X2151716Y1928999D2*
X2172719D1*
X2161267Y1913700D1*
X2167015D1*
X2170817Y1911799D1*
X2172719Y1909898D1*
X2174664Y1904150D1*
Y1900347D1*
X2172719Y1894599D1*
X2168916Y1890753D1*
X2163168Y1888851D1*
X2157420D1*
X2151716Y1890753D1*
X2149815Y1892698D1*
X2147870Y1896501D1*
X2320207Y1956210D2*
X2318306Y1960013D1*
X2314459Y1963860D1*
X2310657Y1965761D1*
X2303007D1*
X2299160Y1963860D1*
X2295358Y1960013D1*
X2293412Y1956210D1*
X2291511Y1950462D1*
Y1940867D1*
X2293412Y1935164D1*
X2295358Y1931317D1*
X2299160Y1927514D1*
X2303007Y1925569D1*
X2310657D1*
X2314459Y1927514D1*
X2318306Y1931317D1*
X2320207Y1935164D1*
X2334504Y1956166D2*
Y1958067D1*
X2336405Y1961914D1*
X2338307Y1963815D1*
X2342153Y1965717D1*
X2349803D1*
X2353605Y1963815D1*
X2355506Y1961914D1*
X2357452Y1958067D1*
Y1954265D1*
X2355506Y1950418D1*
X2351704Y1944714D1*
X2332559Y1925569D1*
X2359353D1*
X2383201Y1965717D2*
X2377453Y1963815D1*
X2373606Y1958067D1*
X2371705Y1948517D1*
Y1942769D1*
X2373606Y1933218D1*
X2377453Y1927470D1*
X2383201Y1925569D1*
X2387003D1*
X2392751Y1927470D1*
X2396554Y1933218D1*
X2398499Y1942769D1*
Y1948517D1*
X2396554Y1958067D1*
X2392751Y1963815D1*
X2387003Y1965717D1*
X2383201D1*
X2396554Y1958067D2*
X2373606Y1933218D1*
X2429996Y1925569D2*
Y1965717D1*
X2410851Y1938966D1*
X2439547D1*
X3144185Y1664590D2*
X3140382Y1662688D1*
X3136535Y1658842D1*
X3134634Y1655039D1*
Y1647390D1*
X3136535Y1643543D1*
X3140382Y1639740D1*
X3144185Y1637795D1*
X3149933Y1635894D1*
X3159528D1*
X3165231Y1637795D1*
X3169078Y1639740D1*
X3172881Y1643543D1*
X3174826Y1647390D1*
Y1655039D1*
X3172881Y1658842D1*
X3169078Y1662688D1*
X3165231Y1664590D1*
X3144229Y1678886D2*
X3142328D1*
X3138481Y1680788D1*
X3136580Y1682689D1*
X3134678Y1686536D1*
Y1694185D1*
X3136580Y1697988D1*
X3138481Y1699889D1*
X3142328Y1701834D1*
X3146130D1*
X3149977Y1699889D1*
X3155681Y1696086D1*
X3174826Y1676941D1*
Y1703736D1*
X3134678Y1727583D2*
X3136580Y1721835D1*
X3142328Y1717988D1*
X3151878Y1716087D1*
X3157626D1*
X3167177Y1717988D1*
X3172925Y1721835D1*
X3174826Y1727583D1*
Y1731386D1*
X3172925Y1737134D1*
X3167177Y1740936D1*
X3157626Y1742882D1*
X3151878D1*
X3142328Y1740936D1*
X3136580Y1737134D1*
X3134678Y1731386D1*
Y1727583D1*
X3142328Y1740936D2*
X3167177Y1717988D1*
X3134678Y1778181D2*
Y1759080D1*
X3151878Y1757179D1*
X3149977Y1759080D1*
X3148032Y1764828D1*
Y1770532D1*
X3149977Y1776280D1*
X3153780Y1780126D1*
X3159528Y1782028D1*
X3163330D1*
X3169078Y1780126D1*
X3172925Y1776280D1*
X3174826Y1770532D1*
Y1764828D1*
X3172925Y1759080D1*
X3170979Y1757179D1*
X3167177Y1755233D1*
X3002766Y1521215D2*
X2998964Y1519313D1*
X2995117Y1515467D1*
X2993216Y1511664D1*
Y1504015D1*
X2995117Y1500168D1*
X2998964Y1496365D1*
X3002766Y1494420D1*
X3008514Y1492519D1*
X3018109D1*
X3023813Y1494420D1*
X3027659Y1496365D1*
X3031462Y1500168D1*
X3033408Y1504015D1*
Y1511664D1*
X3031462Y1515466D1*
X3027660Y1519313D1*
X3023813Y1521215D1*
X3002810Y1535511D2*
X3000909D1*
X2997062Y1537413D1*
X2995161Y1539314D1*
X2993260Y1543161D1*
Y1550810D1*
X2995161Y1554613D1*
X2997062Y1556514D1*
X3000909Y1558459D1*
X3004712D1*
X3008558Y1556514D1*
X3014262Y1552711D1*
X3033408Y1533566D1*
Y1560361D1*
X2993260Y1584208D2*
X2995161Y1578460D1*
X3000909Y1574613D1*
X3010460Y1572712D1*
X3016208D1*
X3025758Y1574613D1*
X3031506Y1578460D1*
X3033408Y1584208D1*
Y1588011D1*
X3031506Y1593759D1*
X3025758Y1597561D1*
X3016208Y1599507D1*
X3010460D1*
X3000909Y1597561D1*
X2995161Y1593759D1*
X2993260Y1588011D1*
Y1584208D1*
X3000909Y1597561D2*
X3025758Y1574613D1*
X2998964Y1634806D2*
X2995161Y1632905D1*
X2993260Y1627157D1*
Y1623354D1*
X2995161Y1617606D1*
X3000909Y1613759D1*
X3010460Y1611858D1*
X3020010D1*
X3027659Y1613759D1*
X3031506Y1617606D1*
X3033408Y1623354D1*
Y1625255D1*
X3031506Y1630959D1*
X3027659Y1634806D1*
X3021911Y1636707D1*
X3020010D1*
X3014262Y1634806D1*
X3010460Y1630959D1*
X3008558Y1625255D1*
Y1623354D1*
X3010460Y1617606D1*
X3014262Y1613759D1*
X3020010Y1611858D1*
X2013939Y1558721D2*
X2012037Y1562523D1*
X2008191Y1566370D1*
X2004388Y1568271D1*
X1996739D1*
X1992892Y1566370D1*
X1989089Y1562523D1*
X1987144Y1558721D1*
X1985243Y1552973D1*
Y1543378D1*
X1987144Y1537674D1*
X1989089Y1533827D1*
X1992892Y1530025D1*
X1996739Y1528079D1*
X2004388D1*
X2008191Y1530025D1*
X2012037Y1533827D1*
X2013939Y1537674D1*
X2028235Y1558677D2*
Y1560578D1*
X2030137Y1564425D1*
X2032038Y1566326D1*
X2035885Y1568227D1*
X2043534D1*
X2047337Y1566326D1*
X2049238Y1564425D1*
X2051183Y1560578D1*
Y1556775D1*
X2049238Y1552929D1*
X2045435Y1547225D1*
X2026290Y1528079D1*
X2053085D1*
X2076932Y1568227D2*
X2071184Y1566326D1*
X2067337Y1560578D1*
X2065436Y1551027D1*
Y1545279D1*
X2067337Y1535729D1*
X2071184Y1529981D1*
X2076932Y1528079D1*
X2080735D1*
X2086483Y1529981D1*
X2090285Y1535729D1*
X2092231Y1545279D1*
Y1551027D1*
X2090285Y1560578D1*
X2086483Y1566326D1*
X2080735Y1568227D1*
X2076932D1*
X2090285Y1560578D2*
X2067337Y1535729D1*
X2112231Y1528079D2*
X2131377Y1568227D1*
X2104582D1*
X2867547Y1164848D2*
X2865646Y1168651D1*
X2861799Y1172497D1*
X2857997Y1174399D1*
X2850347D1*
X2846501Y1172497D1*
X2842698Y1168651D1*
X2840753Y1164848D1*
X2838851Y1159100D1*
Y1149505D1*
X2840753Y1143801D1*
X2842698Y1139955D1*
X2846501Y1136152D1*
X2850347Y1134207D1*
X2857997D1*
X2861799Y1136152D1*
X2865646Y1139955D1*
X2867547Y1143801D1*
X2881844Y1164804D2*
Y1166705D1*
X2883745Y1170552D1*
X2885647Y1172453D1*
X2889493Y1174354D1*
X2897143D1*
X2900945Y1172453D1*
X2902847Y1170552D1*
X2904792Y1166705D1*
Y1162903D1*
X2902847Y1159056D1*
X2899044Y1153352D1*
X2879899Y1134207D1*
X2906693D1*
X2930541Y1174354D2*
X2924793Y1172453D1*
X2920946Y1166705D1*
X2919045Y1157155D1*
Y1151407D1*
X2920946Y1141856D1*
X2924793Y1136108D1*
X2930541Y1134207D1*
X2934343D1*
X2940091Y1136108D1*
X2943894Y1141856D1*
X2945839Y1151407D1*
Y1157155D1*
X2943894Y1166705D1*
X2940091Y1172453D1*
X2934343Y1174354D1*
X2930541D1*
X2943894Y1166705D2*
X2920946Y1141856D1*
X2967741Y1174354D2*
X2962038Y1172453D1*
X2960092Y1168651D1*
Y1164804D1*
X2962038Y1161001D1*
X2965840Y1159056D1*
X2973489Y1157155D1*
X2979237Y1155253D1*
X2983040Y1151407D1*
X2984941Y1147604D1*
Y1141856D1*
X2983040Y1138053D1*
X2981139Y1136108D1*
X2975391Y1134207D1*
X2967741D1*
X2962038Y1136108D1*
X2960092Y1138053D1*
X2958191Y1141856D1*
Y1147604D1*
X2960092Y1151407D1*
X2963939Y1155253D1*
X2969643Y1157155D1*
X2977292Y1159056D1*
X2981139Y1161001D1*
X2983040Y1164804D1*
Y1168651D1*
X2981139Y1172453D1*
X2975391Y1174354D1*
X2967741D1*
X3039246Y597127D2*
X3037345Y600929D1*
X3033498Y604776D1*
X3029696Y606677D1*
X3022046D1*
X3018200Y604776D1*
X3014397Y600929D1*
X3012452Y597127D1*
X3010550Y591379D1*
Y581784D1*
X3012452Y576080D1*
X3014397Y572233D1*
X3018200Y568431D1*
X3022046Y566485D1*
X3029696D1*
X3033498Y568431D1*
X3037345Y572233D1*
X3039246Y576080D1*
X3053543Y597082D2*
Y598984D1*
X3055444Y602830D1*
X3057346Y604732D1*
X3061192Y606633D1*
X3068842D1*
X3072644Y604732D1*
X3074545Y602830D1*
X3076491Y598984D1*
Y595181D1*
X3074545Y591334D1*
X3070743Y585631D1*
X3051598Y566485D1*
X3078392D1*
X3102240Y606633D2*
X3096492Y604732D1*
X3092645Y598984D1*
X3090744Y589433D1*
Y583685D1*
X3092645Y574134D1*
X3096492Y568386D1*
X3102240Y566485D1*
X3106042D1*
X3111790Y568386D1*
X3115593Y574134D1*
X3117538Y583685D1*
Y589433D1*
X3115593Y598984D1*
X3111790Y604732D1*
X3106042Y606633D1*
X3102240D1*
X3115593Y598984D2*
X3092645Y574134D1*
X3154783Y593280D2*
X3152838Y587532D1*
X3149035Y583685D1*
X3143287Y581784D1*
X3141386D1*
X3135638Y583685D1*
X3131835Y587532D1*
X3129890Y593280D1*
Y595181D1*
X3131835Y600929D1*
X3135638Y604732D1*
X3141386Y606633D1*
X3143287D1*
X3149035Y604732D1*
X3152838Y600929D1*
X3154783Y593280D1*
Y583685D1*
X3152838Y574134D1*
X3149035Y568386D1*
X3143287Y566485D1*
X3139484D1*
X3133736Y568386D1*
X3131835Y572233D1*
X1863795Y4093095D2*
X1859992Y4091194D1*
X1856146Y4087347D1*
X1854244Y4083544D1*
Y4075895D1*
X1856146Y4072048D1*
X1859992Y4068246D1*
X1863795Y4066300D1*
X1869543Y4064399D1*
X1879138D1*
X1884842Y4066300D1*
X1888688Y4068246D1*
X1892491Y4072048D1*
X1894436Y4075895D1*
Y4083544D1*
X1892491Y4087347D1*
X1888688Y4091194D1*
X1884842Y4093095D1*
X1854289Y4109293D2*
Y4130295D1*
X1869587Y4118844D1*
Y4124592D1*
X1871489Y4128394D1*
X1873390Y4130295D1*
X1879138Y4132241D1*
X1882940D1*
X1888688Y4130295D1*
X1892535Y4126493D1*
X1894436Y4120745D1*
Y4114997D1*
X1892535Y4109293D1*
X1890590Y4107392D1*
X1886787Y4105446D1*
X1854289Y4156088D2*
X1856190Y4150340D1*
X1861938Y4146494D1*
X1871489Y4144592D1*
X1877237D1*
X1886787Y4146493D1*
X1892535Y4150340D1*
X1894436Y4156088D1*
Y4159891D1*
X1892535Y4165639D1*
X1886787Y4169441D1*
X1877237Y4171387D1*
X1871489D1*
X1861938Y4169441D1*
X1856190Y4165639D1*
X1854289Y4159891D1*
Y4156088D1*
X1861938Y4169441D2*
X1886787Y4146493D1*
X1854289Y4195234D2*
X1856190Y4189486D1*
X1861938Y4185640D1*
X1871489Y4183738D1*
X1877237D1*
X1886787Y4185640D1*
X1892535Y4189486D1*
X1894436Y4195234D1*
Y4199037D1*
X1892535Y4204785D1*
X1886787Y4208587D1*
X1877237Y4210533D1*
X1871489D1*
X1861938Y4208587D1*
X1856190Y4204785D1*
X1854289Y4199037D1*
Y4195234D1*
X1861938Y4208587D2*
X1886787Y4185640D1*
X2309372Y4083487D2*
X2305570Y4081586D1*
X2301723Y4077739D1*
X2299822Y4073937D1*
Y4066288D1*
X2301723Y4062441D1*
X2305570Y4058638D1*
X2309372Y4056693D1*
X2315120Y4054792D1*
X2324715D1*
X2330419Y4056693D1*
X2334266Y4058638D1*
X2338068Y4062441D1*
X2340014Y4066288D1*
Y4073937D1*
X2338068Y4077739D1*
X2334266Y4081586D1*
X2330419Y4083487D1*
X2299866Y4099686D2*
Y4120688D1*
X2315164Y4109236D1*
Y4114984D1*
X2317066Y4118787D1*
X2318967Y4120688D1*
X2324715Y4122633D1*
X2328518D1*
X2334266Y4120688D1*
X2338112Y4116885D1*
X2340014Y4111137D1*
Y4105389D1*
X2338112Y4099686D1*
X2336167Y4097784D1*
X2332364Y4095839D1*
X2299866Y4146481D2*
X2301767Y4140733D1*
X2307515Y4136886D1*
X2317066Y4134985D1*
X2322814D1*
X2332364Y4136886D1*
X2338112Y4140733D1*
X2340014Y4146481D1*
Y4150283D1*
X2338112Y4156031D1*
X2332364Y4159834D1*
X2322814Y4161779D1*
X2317066D1*
X2307515Y4159834D1*
X2301767Y4156031D1*
X2299866Y4150283D1*
Y4146481D1*
X2307515Y4159834D2*
X2332364Y4136886D1*
X2307515Y4174131D2*
X2305570Y4177978D1*
X2299866Y4183726D1*
X2340014D1*
X3816314Y3438209D2*
X3814413Y3442012D1*
X3810566Y3445859D1*
X3806763Y3447760D1*
X3799114D1*
X3795267Y3445859D1*
X3791465Y3442012D1*
X3789519Y3438209D1*
X3787618Y3432461D1*
Y3422866D1*
X3789519Y3417163D1*
X3791465Y3413316D1*
X3795267Y3409513D1*
X3799114Y3407568D1*
X3806763D1*
X3810566Y3409513D1*
X3814413Y3413316D1*
X3816314Y3417163D1*
X3832512Y3447716D2*
X3853514D1*
X3842063Y3432417D1*
X3847811D1*
X3851613Y3430516D1*
X3853514Y3428614D1*
X3855460Y3422866D1*
Y3419064D1*
X3853514Y3413316D1*
X3849712Y3409469D1*
X3843964Y3407568D1*
X3838216D1*
X3832512Y3409469D1*
X3830611Y3411415D1*
X3828665Y3415217D1*
X3879307Y3447716D2*
X3873559Y3445814D1*
X3869713Y3440066D1*
X3867811Y3430516D1*
Y3424768D1*
X3869713Y3415217D1*
X3873559Y3409469D1*
X3879307Y3407568D1*
X3883110D1*
X3888858Y3409469D1*
X3892661Y3415217D1*
X3894606Y3424768D1*
Y3430516D1*
X3892661Y3440066D1*
X3888858Y3445814D1*
X3883110Y3447716D1*
X3879307D1*
X3892661Y3440066D2*
X3869713Y3415217D1*
X3908903Y3438165D2*
Y3440066D1*
X3910804Y3443913D1*
X3912705Y3445814D1*
X3916552Y3447716D1*
X3924202D1*
X3928004Y3445814D1*
X3929905Y3443913D1*
X3931851Y3440066D1*
Y3436264D1*
X3929905Y3432417D1*
X3926103Y3426713D1*
X3906957Y3407568D1*
X3933752D1*
X587833Y3996594D2*
Y3965997D1*
X585932Y3960249D1*
X583986Y3958348D1*
X580184Y3956402D1*
X576337D1*
X572535Y3958348D1*
X570633Y3960249D1*
X568688Y3965997D1*
Y3969800D1*
X600185Y3988901D2*
X604031Y3990846D1*
X609779Y3996550D1*
Y3956402D1*
X939836Y4318149D2*
Y4287552D1*
X937934Y4281804D1*
X935989Y4279903D1*
X932186Y4277957D1*
X928340D1*
X924537Y4279903D1*
X922636Y4281804D1*
X920690Y4287552D1*
Y4291355D1*
X954132Y4308555D2*
Y4310456D1*
X956034Y4314303D1*
X957935Y4316204D1*
X961782Y4318105D1*
X969431D1*
X973234Y4316204D1*
X975135Y4314303D1*
X977080Y4310456D1*
Y4306653D1*
X975135Y4302807D1*
X971332Y4297103D1*
X952187Y4277957D1*
X978982D1*
X4118361Y3294863D2*
Y3264266D1*
X4116459Y3258518D1*
X4114514Y3256617D1*
X4110711Y3254671D1*
X4106864D1*
X4103062Y3256617D1*
X4101161Y3258518D1*
X4099215Y3264266D1*
Y3268069D1*
X4134559Y3294819D2*
X4155561D1*
X4144109Y3279520D1*
X4149857D1*
X4153660Y3277619D1*
X4155561Y3275718D1*
X4157507Y3269970D1*
Y3266167D1*
X4155561Y3260419D1*
X4151759Y3256573D1*
X4146011Y3254671D1*
X4140263D1*
X4134559Y3256573D1*
X4132657Y3258518D1*
X4130712Y3262321D1*
X4214411Y3924610D2*
Y3894013D1*
X4212510Y3888265D1*
X4210564Y3886363D1*
X4206762Y3884418D1*
X4202915D1*
X4199113Y3886363D1*
X4197211Y3888265D1*
X4195266Y3894013D1*
Y3897815D1*
X4245908Y3884418D2*
Y3924566D1*
X4226763Y3897815D1*
X4255459D1*
X3859840Y4313071D2*
Y4282473D1*
X3857939Y4276725D1*
X3855993Y4274824D1*
X3852191Y4272879D1*
X3848344D1*
X3844541Y4274824D1*
X3842640Y4276725D1*
X3840694Y4282473D1*
Y4286276D1*
X3895139Y4307323D2*
X3893238Y4311125D1*
X3887490Y4313026D1*
X3883687D1*
X3877939Y4311125D1*
X3874093Y4305377D1*
X3872191Y4295826D1*
Y4286276D1*
X3874093Y4278627D1*
X3877939Y4274780D1*
X3883687Y4272879D1*
X3885589D1*
X3891292Y4274780D1*
X3895139Y4278627D1*
X3897040Y4284375D1*
Y4286276D1*
X3895139Y4292024D1*
X3891292Y4295826D1*
X3885589Y4297728D1*
X3883687D1*
X3877939Y4295826D1*
X3874093Y4292024D1*
X3872191Y4286276D1*
X1557971Y3901839D2*
Y3871241D1*
X1556070Y3865493D1*
X1554124Y3863592D1*
X1550321Y3861647D1*
X1546475D1*
X1542672Y3863592D1*
X1540771Y3865493D1*
X1538825Y3871241D1*
Y3875044D1*
X1577971Y3861647D2*
X1597117Y3901794D1*
X1570322D1*
X1640259Y3283146D2*
X1680451D1*
Y3306094D1*
X1647952Y3318446D2*
X1646007Y3322292D1*
X1640303Y3328040D1*
X1680451D1*
X1825647Y3928032D2*
Y3887840D1*
X1848595D1*
X1862892Y3918437D2*
Y3920338D1*
X1864793Y3924185D1*
X1866695Y3926086D1*
X1870541Y3927988D1*
X1878191D1*
X1881993Y3926086D1*
X1883894Y3924185D1*
X1885840Y3920338D1*
Y3916536D1*
X1883894Y3912689D1*
X1880092Y3906985D1*
X1860947Y3887840D1*
X1887741D1*
X1461357Y2688615D2*
Y2648423D1*
X1484305D1*
X1496657Y2680922D2*
X1500503Y2682867D1*
X1506251Y2688571D1*
Y2648423D1*
X1530099Y2688571D2*
X1524351Y2686670D1*
X1520504Y2680922D1*
X1518603Y2671371D1*
Y2665623D1*
X1520504Y2656073D1*
X1524351Y2650324D1*
X1530099Y2648423D1*
X1533901D1*
X1539649Y2650324D1*
X1543452Y2656073D1*
X1545397Y2665623D1*
Y2671371D1*
X1543452Y2680922D1*
X1539649Y2686670D1*
X1533901Y2688571D1*
X1530099D1*
X1543452Y2680922D2*
X1520504Y2656073D1*
X1557749Y2680922D2*
X1561596Y2682867D1*
X1567344Y2688571D1*
Y2648423D1*
X1347269Y2439792D2*
Y2399600D1*
X1370217D1*
X1382568Y2432099D2*
X1386415Y2434044D1*
X1392163Y2439748D1*
Y2399600D1*
X1416011Y2439748D2*
X1410263Y2437847D1*
X1406416Y2432099D1*
X1404515Y2422548D1*
Y2416800D1*
X1406416Y2407250D1*
X1410263Y2401502D1*
X1416011Y2399600D1*
X1419813D1*
X1425561Y2401502D1*
X1429364Y2407250D1*
X1431309Y2416800D1*
Y2422548D1*
X1429364Y2432099D1*
X1425561Y2437847D1*
X1419813Y2439748D1*
X1416011D1*
X1429364Y2432099D2*
X1406416Y2407250D1*
X1445606Y2430198D2*
Y2432099D1*
X1447507Y2435946D1*
X1449409Y2437847D1*
X1453255Y2439748D1*
X1460905D1*
X1464707Y2437847D1*
X1466609Y2435946D1*
X1468554Y2432099D1*
Y2428296D1*
X1466609Y2424450D1*
X1462806Y2418746D1*
X1443661Y2399600D1*
X1470455D1*
X1459351Y855313D2*
X1499543D1*
Y878260D1*
X1467044Y890612D2*
X1465099Y894459D1*
X1459395Y900207D1*
X1499543D1*
X1459395Y924054D2*
X1461296Y918306D1*
X1467044Y914459D1*
X1476595Y912558D1*
X1482343D1*
X1491893Y914459D1*
X1497641Y918306D1*
X1499543Y924054D1*
Y927857D1*
X1497641Y933605D1*
X1491893Y937407D1*
X1482343Y939353D1*
X1476595D1*
X1467044Y937407D1*
X1461296Y933605D1*
X1459395Y927857D1*
Y924054D1*
X1467044Y937407D2*
X1491893Y914459D1*
X1459395Y955551D2*
Y976553D1*
X1474694Y965101D1*
Y970849D1*
X1476595Y974652D1*
X1478496Y976553D1*
X1484244Y978499D1*
X1488047D1*
X1493795Y976553D1*
X1497641Y972751D1*
X1499543Y967003D1*
Y961255D1*
X1497641Y955551D1*
X1495696Y953649D1*
X1491893Y951704D1*
X1364766Y1267764D2*
Y1227571D1*
X1387714D1*
X1400065Y1260070D2*
X1403912Y1262015D1*
X1409660Y1267719D1*
Y1227571D1*
X1433508Y1267719D2*
X1427759Y1265818D1*
X1423913Y1260070D1*
X1422011Y1250519D1*
Y1244771D1*
X1423913Y1235221D1*
X1427759Y1229473D1*
X1433508Y1227571D1*
X1437310D1*
X1443058Y1229473D1*
X1446861Y1235221D1*
X1448806Y1244771D1*
Y1250519D1*
X1446861Y1260070D1*
X1443058Y1265818D1*
X1437310Y1267719D1*
X1433508D1*
X1446861Y1260070D2*
X1423913Y1235221D1*
X1480303Y1227571D2*
Y1267719D1*
X1461158Y1240969D1*
X1489853D1*
X3103433Y2545589D2*
X3143625D1*
Y2568537D1*
X3113028Y2582834D2*
X3111127D1*
X3107280Y2584735D1*
X3105379Y2586637D1*
X3103478Y2590483D1*
Y2598133D1*
X3105379Y2601935D1*
X3107280Y2603837D1*
X3111127Y2605782D1*
X3114929D1*
X3118776Y2603837D1*
X3124480Y2600034D1*
X3143625Y2580889D1*
Y2607683D1*
X3103478Y2631531D2*
X3105379Y2625783D1*
X3111127Y2621936D1*
X3120677Y2620035D1*
X3126426D1*
X3135976Y2621936D1*
X3141724Y2625783D1*
X3143625Y2631531D1*
Y2635333D1*
X3141724Y2641081D1*
X3135976Y2644884D1*
X3126426Y2646829D1*
X3120677D1*
X3111127Y2644884D1*
X3105379Y2641081D1*
X3103478Y2635333D1*
Y2631531D1*
X3111127Y2644884D2*
X3135976Y2621936D1*
X3111127Y2659181D2*
X3109181Y2663028D1*
X3103478Y2668776D1*
X3143625D1*
X2955249Y2735313D2*
Y2695121D1*
X2978197D1*
X2992494Y2725719D2*
Y2727620D1*
X2994395Y2731467D1*
X2996297Y2733368D1*
X3000143Y2735269D1*
X3007793D1*
X3011595Y2733368D1*
X3013496Y2731467D1*
X3015442Y2727620D1*
Y2723817D1*
X3013496Y2719971D1*
X3009694Y2714267D1*
X2990549Y2695121D1*
X3017343D1*
X3041191Y2735269D2*
X3035443Y2733368D1*
X3031596Y2727620D1*
X3029695Y2718069D1*
Y2712321D1*
X3031596Y2702771D1*
X3035443Y2697023D1*
X3041191Y2695121D1*
X3044993D1*
X3050741Y2697023D1*
X3054544Y2702771D1*
X3056489Y2712321D1*
Y2718069D1*
X3054544Y2727620D1*
X3050741Y2733368D1*
X3044993Y2735269D1*
X3041191D1*
X3054544Y2727620D2*
X3031596Y2702771D1*
X3070786Y2725719D2*
Y2727620D1*
X3072687Y2731467D1*
X3074589Y2733368D1*
X3078435Y2735269D1*
X3086085D1*
X3089887Y2733368D1*
X3091789Y2731467D1*
X3093734Y2727620D1*
Y2723817D1*
X3091789Y2719971D1*
X3087986Y2714267D1*
X3068841Y2695121D1*
X3095635D1*
X2954320Y1424359D2*
Y1384167D1*
X2977268D1*
X2991565Y1414765D2*
Y1416666D1*
X2993466Y1420513D1*
X2995367Y1422414D1*
X2999214Y1424315D1*
X3006863D1*
X3010666Y1422414D1*
X3012567Y1420513D1*
X3014513Y1416666D1*
Y1412863D1*
X3012567Y1409016D1*
X3008765Y1403313D1*
X2989619Y1384167D1*
X3016414D1*
X3040262Y1424315D2*
X3034513Y1422414D1*
X3030667Y1416666D1*
X3028765Y1407115D1*
Y1401367D1*
X3030667Y1391817D1*
X3034513Y1386069D1*
X3040262Y1384167D1*
X3044064D1*
X3049812Y1386069D1*
X3053615Y1391817D1*
X3055560Y1401367D1*
Y1407115D1*
X3053615Y1416666D1*
X3049812Y1422414D1*
X3044064Y1424315D1*
X3040262D1*
X3053615Y1416666D2*
X3030667Y1391817D1*
X3071758Y1424315D2*
X3092761D1*
X3081309Y1409016D1*
X3087057D1*
X3090859Y1407115D1*
X3092761Y1405214D1*
X3094706Y1399466D1*
Y1395663D1*
X3092761Y1389915D1*
X3088958Y1386069D1*
X3083210Y1384167D1*
X3077462D1*
X3071758Y1386069D1*
X3069857Y1388014D1*
X3067912Y1391817D1*
X2816912Y748123D2*
X2857104D1*
Y771071D1*
X2826507Y785368D2*
X2824606D1*
X2820759Y787269D1*
X2818858Y789170D1*
X2816957Y793017D1*
Y800666D1*
X2818858Y804469D1*
X2820759Y806370D1*
X2824606Y808315D1*
X2828408D1*
X2832255Y806370D1*
X2837959Y802567D1*
X2857104Y783422D1*
Y810217D1*
X2816957Y834064D2*
X2818858Y828316D1*
X2824606Y824469D1*
X2834157Y822568D1*
X2839905D1*
X2849455Y824469D1*
X2855203Y828316D1*
X2857104Y834064D1*
Y837867D1*
X2855203Y843615D1*
X2849455Y847417D1*
X2839905Y849363D1*
X2834156D1*
X2824606Y847417D1*
X2818858Y843615D1*
X2816957Y837867D1*
Y834064D1*
X2824606Y847417D2*
X2849455Y824469D1*
X2857104Y880860D2*
X2816957D1*
X2843707Y861714D1*
Y890410D1*
X1293789Y3898300D2*
X1289986Y3896443D1*
X1286140Y3892597D1*
X1284238Y3888750D1*
X1282293Y3883002D1*
Y3873451D1*
X1284238Y3867703D1*
X1286140Y3863901D1*
X1289986Y3860054D1*
X1293789Y3858153D1*
X1301438D1*
X1305285Y3860054D1*
X1309087Y3863901D1*
X1310989Y3867703D1*
X1312934Y3873451D1*
Y3883002D1*
X1310989Y3888750D1*
X1309087Y3892597D1*
X1305285Y3896443D1*
X1301438Y3898300D1*
X1293789D1*
X1299537Y3865802D2*
X1310989Y3854306D1*
X1325286Y3890607D2*
X1329132Y3892552D1*
X1334880Y3898256D1*
Y3858108D1*
X1149131Y3521782D2*
X1145329Y3519925D1*
X1141482Y3516078D1*
X1139581Y3512231D1*
X1137635Y3506483D1*
Y3496933D1*
X1139581Y3491185D1*
X1141482Y3487382D1*
X1145329Y3483535D1*
X1149131Y3481634D1*
X1156780D1*
X1160627Y3483535D1*
X1164430Y3487382D1*
X1166331Y3491185D1*
X1168277Y3496933D1*
Y3506483D1*
X1166331Y3512231D1*
X1164430Y3516078D1*
X1160627Y3519925D1*
X1156780Y3521782D1*
X1149131D1*
X1154879Y3489284D2*
X1166331Y3477787D1*
X1182573Y3512187D2*
Y3514088D1*
X1184475Y3517935D1*
X1186376Y3519837D1*
X1190223Y3521738D1*
X1197872D1*
X1201675Y3519837D1*
X1203576Y3517935D1*
X1205521Y3514088D1*
Y3510286D1*
X1203576Y3506439D1*
X1199773Y3500735D1*
X1180628Y3481590D1*
X1207423D1*
X1233705Y2984883D2*
X1229902Y2983026D1*
X1226055Y2979179D1*
X1224154Y2975332D1*
X1222209Y2969584D1*
Y2960034D1*
X1224154Y2954286D1*
X1226055Y2950483D1*
X1229902Y2946637D1*
X1233705Y2944735D1*
X1241354D1*
X1245201Y2946637D1*
X1249003Y2950483D1*
X1250905Y2954286D1*
X1252850Y2960034D1*
Y2969584D1*
X1250905Y2975332D1*
X1249003Y2979179D1*
X1245201Y2983026D1*
X1241354Y2984883D1*
X1233705D1*
X1239453Y2952385D2*
X1250905Y2940889D1*
X1269048Y2984839D2*
X1290051D1*
X1278599Y2969540D1*
X1284347D1*
X1288149Y2967639D1*
X1290051Y2965738D1*
X1291996Y2959990D1*
Y2956187D1*
X1290051Y2950439D1*
X1286248Y2946592D1*
X1280500Y2944691D1*
X1274752D1*
X1269048Y2946592D1*
X1267147Y2948538D1*
X1265201Y2952340D1*
X646507Y2818711D2*
X648364Y2814908D1*
X652211Y2811062D1*
X656058Y2809160D1*
X661806Y2807215D1*
X671356D1*
X677105Y2809160D1*
X680907Y2811062D1*
X684754Y2814908D1*
X686655Y2818711D1*
Y2826360D1*
X684754Y2830207D1*
X680907Y2834009D1*
X677105Y2835911D1*
X671357Y2837856D1*
X661806D1*
X656058Y2835911D1*
X652211Y2834009D1*
X648364Y2830207D1*
X646507Y2826360D1*
Y2818711D1*
X679006Y2824459D2*
X690502Y2835911D1*
X686699Y2869353D2*
X646552D1*
X673302Y2850208D1*
Y2878903D1*
X3751205Y3979710D2*
X3753062Y3975908D1*
X3756909Y3972061D1*
X3760756Y3970159D1*
X3766504Y3968214D1*
X3776054D1*
X3781802Y3970159D1*
X3785605Y3972061D1*
X3789452Y3975907D1*
X3791353Y3979710D1*
Y3987359D1*
X3789452Y3991206D1*
X3785605Y3995009D1*
X3781802Y3996910D1*
X3776054Y3998855D1*
X3766504D1*
X3760756Y3996910D1*
X3756909Y3995009D1*
X3753062Y3991206D1*
X3751205Y3987359D1*
Y3979710D1*
X3783704Y3985458D2*
X3795200Y3996910D1*
X3758899Y4011207D2*
X3756953Y4015054D1*
X3751249Y4020802D1*
X3791397Y4020801D1*
X3751249Y4044649D2*
X3753151Y4038901D1*
X3758899Y4035054D1*
X3768449Y4033153D1*
X3774197D1*
X3783748Y4035054D1*
X3789496Y4038901D1*
X3791397Y4044649D1*
Y4048451D1*
X3789496Y4054200D1*
X3783748Y4058002D1*
X3774197Y4059948D1*
X3768449D1*
X3758899Y4058002D1*
X3753151Y4054200D1*
X3751249Y4048452D1*
Y4044649D1*
X3758899Y4058002D2*
X3783748Y4035054D1*
X3758899Y4072299D2*
X3756953Y4076146D1*
X3751249Y4081894D1*
X3791397D1*
X3359581Y3406623D2*
X3361438Y3402821D1*
X3365285Y3398974D1*
X3369132Y3397073D1*
X3374880Y3395127D1*
X3384431D1*
X3390179Y3397073D1*
X3393981Y3398974D1*
X3397828Y3402821D1*
X3399729Y3406623D1*
Y3414272D1*
X3397828Y3418119D1*
X3393981Y3421922D1*
X3390179Y3423823D1*
X3384431Y3425769D1*
X3374880D1*
X3369132Y3423823D1*
X3365285Y3421922D1*
X3361438Y3418119D1*
X3359581Y3414273D1*
Y3406623D1*
X3392080Y3412371D2*
X3403576Y3423823D1*
X3359626Y3441967D2*
Y3462969D1*
X3374924Y3451517D1*
Y3457265D1*
X3376826Y3461068D1*
X3378727Y3462969D1*
X3384475Y3464915D1*
X3388277D1*
X3394025Y3462969D1*
X3397872Y3459167D1*
X3399773Y3453418D1*
Y3447670D1*
X3397872Y3441967D1*
X3395927Y3440065D1*
X3392124Y3438120D1*
X3359626Y3488762D2*
X3361527Y3483014D1*
X3367275Y3479167D1*
X3376826Y3477266D1*
X3382574D1*
X3392124Y3479167D1*
X3397872Y3483014D1*
X3399773Y3488762D1*
Y3492565D1*
X3397872Y3498313D1*
X3392124Y3502115D1*
X3382574Y3504061D1*
X3376826D1*
X3367275Y3502115D1*
X3361527Y3498313D1*
X3359626Y3492565D1*
Y3488762D1*
X3367275Y3502115D2*
X3392124Y3479167D1*
X3367275Y3516412D2*
X3365329Y3520259D1*
X3359626Y3526007D1*
X3399773D1*
X2893735Y3384699D2*
X2933927D1*
X2893735Y3371302D2*
Y3398096D1*
Y3410448D2*
X2933927D1*
X2914782Y3422799D2*
Y3440043D1*
X2912881Y3445747D1*
X2910935Y3447693D1*
X2907133Y3449594D1*
X2901385D1*
X2897582Y3447693D1*
X2895637Y3445747D1*
X2893735Y3440043D1*
Y3422799D1*
X2933927D1*
X2901429Y3461945D2*
X2899483Y3465792D1*
X2893779Y3471540D1*
X2933927D1*
X2903330Y3485837D2*
X2901429D1*
X2897582Y3487738D1*
X2895681Y3489639D1*
X2893779Y3493486D1*
Y3501136D1*
X2895681Y3504938D1*
X2897582Y3506839D1*
X2901429Y3508785D1*
X2905231D1*
X2909078Y3506839D1*
X2914782Y3503037D1*
X2933927Y3483891D1*
Y3510686D1*
Y3530687D2*
X2893779Y3549832D1*
Y3523038D1*
X3051859Y4258562D2*
X3048057Y4256705D1*
X3044210Y4252858D1*
X3042309Y4249011D1*
X3040363Y4243263D1*
Y4233713D1*
X3042309Y4227965D1*
X3044210Y4224162D1*
X3048057Y4220315D1*
X3051859Y4218414D1*
X3059508D1*
X3063355Y4220315D1*
X3067158Y4224162D1*
X3069059Y4227965D1*
X3071005Y4233713D1*
Y4243263D1*
X3069059Y4249011D1*
X3067158Y4252858D1*
X3063355Y4256705D1*
X3059508Y4258562D1*
X3051859D1*
X3057607Y4226063D2*
X3069059Y4214567D1*
X3087203Y4258518D2*
X3108205D1*
X3096753Y4243219D1*
X3102501D1*
X3106304Y4241318D1*
X3108205Y4239417D1*
X3110151Y4233668D1*
Y4229866D1*
X3108205Y4224118D1*
X3104403Y4220271D1*
X3098655Y4218370D1*
X3092906D1*
X3087203Y4220271D1*
X3085301Y4222217D1*
X3083356Y4226019D1*
X3133998Y4258518D2*
X3128250Y4256616D1*
X3124403Y4250868D1*
X3122502Y4241318D1*
Y4235570D1*
X3124403Y4226019D1*
X3128250Y4220271D1*
X3133998Y4218370D1*
X3137801D1*
X3143549Y4220271D1*
X3147351Y4226019D1*
X3149297Y4235570D1*
Y4241318D1*
X3147351Y4250868D1*
X3143549Y4256616D1*
X3137801Y4258518D1*
X3133998D1*
X3147351Y4250868D2*
X3124403Y4226019D1*
X3163594Y4248967D2*
Y4250868D1*
X3165495Y4254715D1*
X3167396Y4256616D1*
X3171243Y4258518D1*
X3178892D1*
X3182695Y4256616D1*
X3184596Y4254715D1*
X3186541Y4250868D1*
Y4247066D1*
X3184596Y4243219D1*
X3180793Y4237515D1*
X3161648Y4218370D1*
X3188443D1*
X3674266Y3580172D2*
X3670463Y3578315D1*
X3666617Y3574468D1*
X3664715Y3570621D1*
X3662770Y3564873D1*
Y3555323D1*
X3664715Y3549575D1*
X3666617Y3545772D1*
X3670463Y3541925D1*
X3674266Y3540024D1*
X3681915D1*
X3685762Y3541925D1*
X3689565Y3545772D1*
X3691466Y3549575D1*
X3693411Y3555323D1*
Y3564873D1*
X3691466Y3570621D1*
X3689565Y3574468D1*
X3685762Y3578315D1*
X3681915Y3580172D1*
X3674266D1*
X3680014Y3547673D2*
X3691466Y3536177D1*
X3709609Y3580128D2*
X3730612D1*
X3719160Y3564829D1*
X3724908D1*
X3728711Y3562928D1*
X3730612Y3561027D1*
X3732557Y3555278D1*
Y3551476D1*
X3730612Y3545728D1*
X3726809Y3541881D1*
X3721061Y3539980D1*
X3715313D1*
X3709609Y3541881D1*
X3707708Y3543827D1*
X3705763Y3547629D1*
X3756405Y3580128D2*
X3750657Y3578226D1*
X3746810Y3572478D1*
X3744909Y3562928D1*
Y3557180D1*
X3746810Y3547629D1*
X3750657Y3541881D1*
X3756405Y3539980D1*
X3760207D1*
X3765955Y3541881D1*
X3769758Y3547629D1*
X3771703Y3557180D1*
Y3562928D1*
X3769758Y3572478D1*
X3765955Y3578226D1*
X3760207Y3580128D1*
X3756405D1*
X3769758Y3572478D2*
X3746810Y3547629D1*
X3787902Y3580128D2*
X3808904D1*
X3797452Y3564829D1*
X3803200D1*
X3807003Y3562928D1*
X3808904Y3561027D1*
X3810850Y3555278D1*
Y3551476D1*
X3808904Y3545728D1*
X3805101Y3541881D1*
X3799353Y3539980D1*
X3793605D1*
X3787902Y3541881D1*
X3786000Y3543827D1*
X3784055Y3547629D1*
X3947227Y3546261D2*
X3987419D1*
X3966372Y3558612D2*
Y3575812D1*
X3964427Y3581560D1*
X3962526Y3583506D1*
X3958723Y3585407D1*
X3954876D1*
X3951074Y3583506D1*
X3949128Y3581560D1*
X3947227Y3575812D1*
Y3558612D1*
X3987419D1*
X3966372Y3572010D2*
X3987419Y3585407D1*
X3947227Y3622652D2*
Y3597758D1*
X3987419D1*
X3966372D2*
Y3613057D1*
X3947227Y3635003D2*
X3975923D1*
X3981671Y3636904D1*
X3985474Y3640751D1*
X3987419Y3646499D1*
Y3650302D1*
X3985474Y3656050D1*
X3981671Y3659897D1*
X3975923Y3661798D1*
X3947227D1*
X3960624Y3699043D2*
X3966372Y3697097D1*
X3970219Y3693295D1*
X3972120Y3687547D1*
Y3685645D1*
X3970219Y3679897D1*
X3966372Y3676095D1*
X3960624Y3674149D1*
X3958723D1*
X3952975Y3676095D1*
X3949173Y3679897D1*
X3947271Y3685645D1*
Y3687547D1*
X3949173Y3693295D1*
X3952975Y3697097D1*
X3960624Y3699043D1*
X3970219D1*
X3979770Y3697097D1*
X3985518Y3693295D1*
X3987419Y3687547D1*
Y3683744D1*
X3985518Y3677996D1*
X3981671Y3676095D1*
X3947271Y3722890D2*
X3949173Y3717142D1*
X3954921Y3713295D1*
X3964471Y3711394D1*
X3970219D1*
X3979770Y3713295D1*
X3985518Y3717142D1*
X3987419Y3722890D1*
Y3726693D1*
X3985518Y3732441D1*
X3979770Y3736243D1*
X3970219Y3738189D1*
X3964471D1*
X3954921Y3736243D1*
X3949173Y3732441D1*
X3947271Y3726693D1*
Y3722890D1*
X3954921Y3736243D2*
X3979770Y3713295D1*
X3956822Y3752486D2*
X3954921D1*
X3951074Y3754387D1*
X3949173Y3756288D1*
X3947271Y3760135D1*
Y3767784D1*
X3949173Y3771587D1*
X3951074Y3773488D1*
X3954921Y3775434D1*
X3958723D1*
X3962570Y3773488D1*
X3968274Y3769685D1*
X3987419Y3750540D1*
Y3777335D1*
Y3808832D2*
X3947271D1*
X3974022Y3789686D1*
Y3818382D1*
X1484811Y3731340D2*
Y3748540D1*
X1482866Y3754288D1*
X1480964Y3756233D1*
X1477162Y3758134D1*
X1473315D1*
X1469512Y3756233D1*
X1467567Y3754288D1*
X1465666Y3748540D1*
Y3731340D1*
X1505858D1*
X1484811Y3744737D2*
X1505858Y3758134D1*
X1473359Y3770486D2*
X1471414Y3774332D1*
X1465710Y3780080D1*
X1505858D1*
X1143384Y4138474D2*
X1160584D1*
X1166332Y4140419D1*
X1168277Y4142321D1*
X1170179Y4146123D1*
Y4149970D1*
X1168277Y4153772D1*
X1166332Y4155718D1*
X1160584Y4157619D1*
X1143384D1*
Y4117427D1*
X1156781Y4138474D2*
X1170179Y4117427D1*
X1184476Y4148024D2*
Y4149926D1*
X1186377Y4153772D1*
X1188278Y4155674D1*
X1192125Y4157575D1*
X1199774D1*
X1203577Y4155674D1*
X1205478Y4153772D1*
X1207423Y4149926D1*
Y4146123D1*
X1205478Y4142276D1*
X1201675Y4136573D1*
X1182530Y4117427D1*
X1209325D1*
X1140955Y3997068D2*
X1158155D1*
X1163903Y3999014D1*
X1165848Y4000915D1*
X1167749Y4004718D1*
Y4008564D1*
X1165848Y4012367D1*
X1163903Y4014312D1*
X1158155Y4016214D1*
X1140955D1*
Y3976022D1*
X1154352Y3997068D2*
X1167749Y3976022D1*
X1183948Y4016169D2*
X1204950D1*
X1193498Y4000871D1*
X1199246D1*
X1203049Y3998970D1*
X1204950Y3997068D1*
X1206896Y3991320D1*
Y3987518D1*
X1204950Y3981770D1*
X1201148Y3977923D1*
X1195400Y3976022D1*
X1189651D1*
X1183948Y3977923D1*
X1182046Y3979868D1*
X1180101Y3983671D1*
X927094Y3651517D2*
X944293D1*
X950041Y3653463D1*
X951987Y3655364D1*
X953888Y3659167D1*
Y3663013D1*
X951987Y3666816D1*
X950041Y3668761D1*
X944293Y3670663D1*
X927094D1*
Y3630471D1*
X940491Y3651517D2*
X953888Y3630471D1*
X966240Y3662969D2*
X970086Y3664915D1*
X975834Y3670618D1*
Y3630471D1*
X1011134Y3664915D2*
X1009232Y3668717D1*
X1003484Y3670618D1*
X999682D1*
X993934Y3668717D1*
X990087Y3662969D1*
X988186Y3653419D1*
Y3643868D1*
X990087Y3636219D1*
X993934Y3632372D1*
X999682Y3630471D1*
X1001583D1*
X1007287Y3632372D1*
X1011134Y3636219D1*
X1013035Y3641967D1*
Y3643868D1*
X1011134Y3649616D1*
X1007287Y3653419D1*
X1001583Y3655320D1*
X999682D1*
X993934Y3653419D1*
X990087Y3649616D1*
X988186Y3643868D1*
X963747Y3427369D2*
X980947D1*
X986695Y3429315D1*
X988641Y3431216D1*
X990542Y3435018D1*
Y3438865D1*
X988641Y3442668D1*
X986695Y3444613D1*
X980947Y3446514D1*
X963747D1*
Y3406322D1*
X977145Y3427369D2*
X990542Y3406322D1*
X1025841Y3446470D2*
X1006740D1*
X1004839Y3429270D1*
X1006740Y3431172D1*
X1012488Y3433117D1*
X1018192D1*
X1023940Y3431172D1*
X1027787Y3427369D1*
X1029688Y3421621D1*
Y3417818D1*
X1027787Y3412070D1*
X1023940Y3408224D1*
X1018192Y3406322D1*
X1012488D1*
X1006740Y3408224D1*
X1004839Y3410169D1*
X1002894Y3413972D1*
X1511695Y3421527D2*
Y3438727D1*
X1509750Y3444475D1*
X1507849Y3446421D1*
X1504046Y3448322D1*
X1500199D1*
X1496397Y3446421D1*
X1494451Y3444475D1*
X1492550Y3438727D1*
Y3421527D1*
X1532742D1*
X1511695Y3434925D2*
X1532742Y3448322D1*
X1498298Y3483621D2*
X1494495Y3481720D1*
X1492594Y3475972D1*
Y3472170D1*
X1494495Y3466421D1*
X1500243Y3462575D1*
X1509794Y3460673D1*
X1519345D1*
X1526994Y3462575D1*
X1530841Y3466421D1*
X1532742Y3472169D1*
Y3474071D1*
X1530841Y3479775D1*
X1526994Y3483621D1*
X1521246Y3485523D1*
X1519345D1*
X1513597Y3483621D1*
X1509794Y3479775D1*
X1507893Y3474071D1*
Y3472169D1*
X1509794Y3466421D1*
X1513597Y3462575D1*
X1519345Y3460673D1*
X1400203Y3391685D2*
X1417403D1*
X1423151Y3393631D1*
X1425096Y3395532D1*
X1426998Y3399334D1*
Y3403181D1*
X1425096Y3406984D1*
X1423151Y3408929D1*
X1417403Y3410830D1*
X1400203D1*
Y3370638D1*
X1413600Y3391685D2*
X1426998Y3370638D1*
X1446998D2*
X1466144Y3410786D1*
X1439349D1*
X700310Y3483930D2*
X717510D1*
X723258Y3485876D1*
X725204Y3487777D1*
X727105Y3491580D1*
Y3495427D1*
X725204Y3499229D1*
X723258Y3501175D1*
X717510Y3503076D1*
X700310D1*
Y3462884D1*
X713708Y3483930D2*
X727105Y3462884D1*
X749007Y3503032D2*
X743303Y3501130D1*
X741358Y3497328D1*
Y3493481D1*
X743303Y3489679D1*
X747106Y3487733D1*
X754755Y3485832D1*
X760503Y3483930D1*
X764306Y3480084D1*
X766207Y3476281D1*
Y3470533D1*
X764306Y3466731D1*
X762404Y3464785D1*
X756656Y3462884D1*
X749007D1*
X743303Y3464785D1*
X741358Y3466731D1*
X739456Y3470533D1*
Y3476281D1*
X741358Y3480084D1*
X745204Y3483930D1*
X750908Y3485832D1*
X758557Y3487733D1*
X762404Y3489679D1*
X764306Y3493481D1*
Y3497328D1*
X762404Y3501130D1*
X756656Y3503032D1*
X749007D1*
X934779Y2673410D2*
Y2690609D1*
X932834Y2696357D1*
X930933Y2698303D1*
X927130Y2700204D1*
X923283D1*
X919481Y2698303D1*
X917535Y2696357D1*
X915634Y2690609D1*
Y2673410D1*
X955826D1*
X934779Y2686807D2*
X955826Y2700204D1*
X929031Y2737449D2*
X934779Y2735503D1*
X938626Y2731701D1*
X940527Y2725953D1*
Y2724052D1*
X938626Y2718304D1*
X934779Y2714501D1*
X929031Y2712556D1*
X927130D1*
X921382Y2714501D1*
X917579Y2718304D1*
X915678Y2724052D1*
Y2725953D1*
X917579Y2731701D1*
X921382Y2735503D1*
X929031Y2737449D1*
X938626D1*
X948177Y2735503D1*
X953925Y2731701D1*
X955826Y2725953D1*
Y2722150D1*
X953925Y2716402D1*
X950078Y2714501D1*
X1659672Y3059068D2*
Y3076268D1*
X1657726Y3082016D1*
X1655825Y3083962D1*
X1652022Y3085863D1*
X1648176D1*
X1644373Y3083962D1*
X1642428Y3082016D1*
X1640526Y3076268D1*
Y3059068D1*
X1680718D1*
X1659672Y3072466D2*
X1680718Y3085863D1*
X1648220Y3098214D2*
X1646274Y3102061D1*
X1640571Y3107809D1*
X1680718D1*
X1640571Y3131657D2*
X1642472Y3125909D1*
X1648220Y3122062D1*
X1657770Y3120161D1*
X1663518D1*
X1673069Y3122062D1*
X1678817Y3125909D1*
X1680718Y3131657D1*
Y3135459D1*
X1678817Y3141207D1*
X1673069Y3145010D1*
X1663518Y3146955D1*
X1657770D1*
X1648220Y3145010D1*
X1642472Y3141207D1*
X1640571Y3135459D1*
Y3131657D1*
X1648220Y3145010D2*
X1673069Y3122062D1*
X1543447Y2924150D2*
Y2941350D1*
X1541502Y2947098D1*
X1539601Y2949043D1*
X1535798Y2950945D1*
X1531951D1*
X1528149Y2949043D1*
X1526203Y2947098D1*
X1524302Y2941350D1*
Y2924150D1*
X1564494D1*
X1543447Y2937547D2*
X1564494Y2950945D1*
X1531995Y2963296D2*
X1530050Y2967143D1*
X1524346Y2972891D1*
X1564494D1*
X1531995Y2985242D2*
X1530050Y2989089D1*
X1524346Y2994837D1*
X1564494D1*
X1000646Y2904809D2*
X1017846D1*
X1023594Y2906754D1*
X1025539Y2908655D1*
X1027440Y2912458D1*
Y2916305D1*
X1025539Y2920107D1*
X1023594Y2922053D1*
X1017846Y2923954D1*
X1000646D1*
Y2883762D1*
X1014043Y2904809D2*
X1027440Y2883762D1*
X1039792Y2916261D2*
X1043639Y2918206D1*
X1049387Y2923910D1*
Y2883762D1*
X1063684Y2914359D2*
Y2916261D1*
X1065585Y2920107D1*
X1067486Y2922009D1*
X1071333Y2923910D1*
X1078982D1*
X1082785Y2922009D1*
X1084686Y2920107D1*
X1086631Y2916261D1*
Y2912458D1*
X1084686Y2908611D1*
X1080883Y2902907D1*
X1061738Y2883762D1*
X1088533D1*
X658381Y2972992D2*
Y2990192D1*
X656435Y2995940D1*
X654534Y2997886D1*
X650731Y2999787D1*
X646885D1*
X643082Y2997886D1*
X641137Y2995940D1*
X639235Y2990192D1*
Y2972992D1*
X679427D1*
X658381Y2986390D2*
X679427Y2999787D1*
X646929Y3012138D2*
X644983Y3015985D1*
X639279Y3021733D1*
X679427D1*
X639279Y3037931D2*
Y3058934D1*
X654578Y3047482D1*
Y3053230D1*
X656479Y3057032D1*
X658381Y3058934D1*
X664129Y3060879D1*
X667931D1*
X673679Y3058934D1*
X677526Y3055131D1*
X679427Y3049383D1*
Y3043635D1*
X677526Y3037931D1*
X675580Y3036030D1*
X671778Y3034085D1*
X1198322Y4294454D2*
X1215522D1*
X1221270Y4296400D1*
X1223216Y4298301D1*
X1225117Y4302103D1*
Y4305950D1*
X1223216Y4309753D1*
X1221270Y4311698D1*
X1215522Y4313599D1*
X1198322D1*
Y4273407D1*
X1211720Y4294454D2*
X1225117Y4273407D1*
X1237469Y4305906D2*
X1241315Y4307851D1*
X1247063Y4313555D1*
Y4273407D1*
X1278560D2*
Y4313555D1*
X1259415Y4286805D1*
X1288111D1*
X3976860Y4026304D2*
X3994060D1*
X3999808Y4028250D1*
X4001753Y4030151D1*
X4003654Y4033954D1*
Y4037801D1*
X4001753Y4041603D1*
X3999808Y4043549D1*
X3994060Y4045450D1*
X3976860D1*
Y4005258D1*
X3990257Y4026304D2*
X4003654Y4005258D1*
X4016006Y4037756D2*
X4019853Y4039702D1*
X4025601Y4045406D1*
Y4005258D1*
X4060900Y4045406D2*
X4041799D1*
X4039897Y4028206D1*
X4041799Y4030107D1*
X4047547Y4032053D1*
X4053251D1*
X4058999Y4030107D1*
X4062845Y4026304D1*
X4064747Y4020556D1*
Y4016754D1*
X4062845Y4011006D1*
X4058999Y4007159D1*
X4053251Y4005258D1*
X4047547D1*
X4041799Y4007159D1*
X4039897Y4009105D1*
X4037952Y4012907D1*
X3522636Y3869624D2*
X3522637Y3886824D1*
X3520691Y3892572D1*
X3518790Y3894517D1*
X3514987Y3896419D1*
X3511140D1*
X3507338Y3894517D1*
X3505392Y3892572D1*
X3503491Y3886824D1*
Y3869624D1*
X3543683D1*
X3522637Y3883021D2*
X3543683Y3896419D1*
X3511185Y3908770D2*
X3509239Y3912617D1*
X3503535Y3918365D1*
X3543683D1*
X3516888Y3955610D2*
X3522637Y3953664D1*
X3526483Y3949862D1*
X3528385Y3944114D1*
Y3942212D1*
X3526483Y3936464D1*
X3522637Y3932662D1*
X3516888Y3930716D1*
X3514987D1*
X3509239Y3932662D1*
X3505437Y3936464D1*
X3503535Y3942212D1*
Y3944114D1*
X3505437Y3949862D1*
X3509239Y3953664D1*
X3516888Y3955610D1*
X3526483D1*
X3536034Y3953664D1*
X3541782Y3949862D1*
X3543683Y3944114D1*
Y3940311D1*
X3541782Y3934563D1*
X3537935Y3932662D1*
X1933480Y2934866D2*
X1950679D1*
X1956427Y2936812D1*
X1958373Y2938713D1*
X1960274Y2942515D1*
Y2946362D1*
X1958373Y2950165D1*
X1956427Y2952110D1*
X1950679Y2954012D1*
X1933480D1*
Y2913820D1*
X1946877Y2934866D2*
X1960274Y2913820D1*
X1972626Y2946318D2*
X1976472Y2948264D1*
X1982220Y2953967D1*
Y2913820D1*
X2006068Y2953967D2*
X2000320Y2952066D1*
X1996473Y2946318D1*
X1994572Y2936767D1*
Y2931019D1*
X1996473Y2921469D1*
X2000320Y2915721D1*
X2006068Y2913820D1*
X2009870D1*
X2015618Y2915721D1*
X2019421Y2921469D1*
X2021366Y2931019D1*
Y2936767D1*
X2019421Y2946318D1*
X2015618Y2952066D1*
X2009870Y2953967D1*
X2006068D1*
X2019421Y2946318D2*
X1996473Y2921469D1*
X2045214Y2953967D2*
X2039466Y2952066D1*
X2035619Y2946318D1*
X2033718Y2936767D1*
Y2931019D1*
X2035619Y2921469D1*
X2039466Y2915721D1*
X2045214Y2913820D1*
X2049016D1*
X2054765Y2915721D1*
X2058567Y2921469D1*
X2060513Y2931019D1*
Y2936767D1*
X2058567Y2946318D1*
X2054765Y2952066D1*
X2049016Y2953967D1*
X2045214D1*
X2058567Y2946318D2*
X2035619Y2921469D1*
X1696258Y2677571D2*
X1713458D1*
X1719206Y2679516D1*
X1721151Y2681418D1*
X1723053Y2685220D1*
Y2689067D1*
X1721151Y2692869D1*
X1719206Y2694815D1*
X1713458Y2696716D1*
X1696258D1*
Y2656524D1*
X1709655Y2677571D2*
X1723053Y2656524D1*
X1735404Y2689023D2*
X1739251Y2690968D1*
X1744999Y2696672D1*
Y2656524D1*
X1768846Y2696672D2*
X1763098Y2694771D1*
X1759252Y2689023D1*
X1757350Y2679472D1*
Y2673724D1*
X1759252Y2664174D1*
X1763098Y2658426D1*
X1768846Y2656524D1*
X1772649D1*
X1778397Y2658426D1*
X1782199Y2664174D1*
X1784145Y2673724D1*
Y2679472D1*
X1782199Y2689023D1*
X1778397Y2694771D1*
X1772649Y2696672D1*
X1768846D1*
X1782199Y2689023D2*
X1759252Y2664174D1*
X1796496Y2689023D2*
X1800343Y2690968D1*
X1806091Y2696672D1*
Y2656524D1*
X1950176Y788434D2*
X1967376D1*
X1973124Y790380D1*
X1975070Y792281D1*
X1976971Y796084D1*
Y799930D1*
X1975070Y803733D1*
X1973124Y805679D1*
X1967376Y807580D1*
X1950176D1*
Y767388D1*
X1963574Y788434D2*
X1976971Y767388D1*
X1989322Y799886D2*
X1993169Y801832D1*
X1998917Y807536D1*
Y767388D1*
X2022765Y807536D2*
X2017017Y805634D1*
X2013170Y799886D1*
X2011269Y790336D1*
Y784588D1*
X2013170Y775037D1*
X2017017Y769289D1*
X2022765Y767388D1*
X2026567D1*
X2032315Y769289D1*
X2036118Y775037D1*
X2038063Y784588D1*
Y790336D1*
X2036118Y799886D1*
X2032315Y805634D1*
X2026567Y807536D1*
X2022765D1*
X2036118Y799886D2*
X2013170Y775037D1*
X2052360Y797985D2*
Y799886D1*
X2054261Y803733D1*
X2056163Y805634D1*
X2060010Y807536D1*
X2067659D1*
X2071461Y805634D1*
X2073363Y803733D1*
X2075308Y799886D1*
Y796084D1*
X2073363Y792237D1*
X2069560Y786533D1*
X2050415Y767388D1*
X2077209D1*
X1530806Y801325D2*
X1548006D1*
X1553754Y803271D1*
X1555700Y805172D1*
X1557601Y808975D1*
Y812822D1*
X1555700Y816624D1*
X1553754Y818570D1*
X1548006Y820471D1*
X1530806D1*
Y780279D1*
X1544204Y801325D2*
X1557601Y780279D1*
X1569952Y812777D2*
X1573799Y814723D1*
X1579547Y820427D1*
Y780279D1*
X1603395Y820427D2*
X1597647Y818525D1*
X1593800Y812777D1*
X1591899Y803227D1*
Y797479D1*
X1593800Y787928D1*
X1597647Y782180D1*
X1603395Y780279D1*
X1607197D1*
X1612945Y782180D1*
X1616748Y787928D1*
X1618693Y797479D1*
Y803227D1*
X1616748Y812777D1*
X1612945Y818525D1*
X1607197Y820427D1*
X1603395D1*
X1616748Y812777D2*
X1593800Y787928D1*
X1634891Y820427D2*
X1655894D1*
X1644442Y805128D1*
X1650190D1*
X1653993Y803227D1*
X1655894Y801325D1*
X1657839Y795577D1*
Y791775D1*
X1655894Y786027D1*
X1652091Y782180D1*
X1646343Y780279D1*
X1640595D1*
X1634891Y782180D1*
X1632990Y784126D1*
X1631045Y787928D1*
X1191911Y1031210D2*
Y1048410D1*
X1189965Y1054158D1*
X1188064Y1056103D1*
X1184261Y1058004D1*
X1180415D1*
X1176612Y1056103D1*
X1174667Y1054158D1*
X1172765Y1048410D1*
Y1031210D1*
X1212957D1*
X1191911Y1044607D2*
X1212957Y1058004D1*
X1180459Y1070356D2*
X1178513Y1074202D1*
X1172810Y1079950D1*
X1212957D1*
X1172810Y1103798D2*
X1174711Y1098050D1*
X1180459Y1094203D1*
X1190010Y1092302D1*
X1195758D1*
X1205308Y1094203D1*
X1211056Y1098050D1*
X1212957Y1103798D1*
Y1107600D1*
X1211056Y1113348D1*
X1205308Y1117151D1*
X1195758Y1119096D1*
X1190010D1*
X1180459Y1117151D1*
X1174711Y1113348D1*
X1172810Y1107600D1*
Y1103798D1*
X1180459Y1117151D2*
X1205308Y1094203D1*
X1178513Y1154396D2*
X1174711Y1152495D1*
X1172810Y1146746D1*
Y1142944D1*
X1174711Y1137196D1*
X1180459Y1133349D1*
X1190010Y1131448D1*
X1199560D1*
X1207209Y1133349D1*
X1211056Y1137196D1*
X1212957Y1142944D1*
Y1144845D1*
X1211056Y1150549D1*
X1207209Y1154396D1*
X1201461Y1156297D1*
X1199560D1*
X1193812Y1154396D1*
X1190010Y1150549D1*
X1188108Y1144845D1*
Y1142944D1*
X1190010Y1137196D1*
X1193812Y1133349D1*
X1199560Y1131448D1*
X1234098Y2151375D2*
Y2168575D1*
X1232153Y2174323D1*
X1230252Y2176268D1*
X1226449Y2178169D1*
X1222602D1*
X1218800Y2176268D1*
X1216854Y2174323D1*
X1214953Y2168575D1*
Y2151375D1*
X1255145D1*
X1234098Y2164772D2*
X1255145Y2178169D1*
X1222647Y2190521D2*
X1220701Y2194367D1*
X1214997Y2200116D1*
X1255145Y2200115D1*
X1214997Y2223963D2*
X1216899Y2218215D1*
X1222647Y2214368D1*
X1232197Y2212467D1*
X1237945D1*
X1247496Y2214368D1*
X1253244Y2218215D1*
X1255145Y2223963D1*
Y2227765D1*
X1253244Y2233513D1*
X1247496Y2237316D1*
X1237945Y2239262D1*
X1232197D1*
X1222647Y2237316D1*
X1216899Y2233514D1*
X1214997Y2227765D1*
Y2223963D1*
X1222647Y2237316D2*
X1247496Y2214368D1*
X1255145Y2259262D2*
X1214997Y2278408D1*
Y2251613D1*
X3340429Y3112105D2*
X3357629D1*
X3363377Y3114050D1*
X3365323Y3115952D1*
X3367224Y3119754D1*
Y3123601D1*
X3365323Y3127404D1*
X3363377Y3129349D1*
X3357629Y3131250D1*
X3340429D1*
Y3091058D1*
X3353827Y3112105D2*
X3367224Y3091058D1*
X3381521Y3121656D2*
Y3123557D1*
X3383422Y3127404D1*
X3385324Y3129305D1*
X3389170Y3131206D1*
X3396820D1*
X3400622Y3129305D1*
X3402523Y3127404D1*
X3404469Y3123557D1*
Y3119754D1*
X3402523Y3115908D1*
X3398721Y3110204D1*
X3379576Y3091058D1*
X3406370D1*
X3430218Y3131206D2*
X3424470Y3129305D1*
X3420623Y3123557D1*
X3418722Y3114006D1*
Y3108258D1*
X3420623Y3098708D1*
X3424470Y3092960D1*
X3430218Y3091058D1*
X3434020D1*
X3439768Y3092960D1*
X3443571Y3098708D1*
X3445516Y3108258D1*
Y3114006D1*
X3443571Y3123557D1*
X3439768Y3129305D1*
X3434020Y3131206D1*
X3430218D1*
X3443571Y3123557D2*
X3420623Y3098708D1*
X3469364Y3131206D2*
X3463616Y3129305D1*
X3459769Y3123557D1*
X3457868Y3114006D1*
Y3108258D1*
X3459769Y3098708D1*
X3463616Y3092960D1*
X3469364Y3091058D1*
X3473166D1*
X3478914Y3092960D1*
X3482717Y3098708D1*
X3484662Y3108258D1*
Y3114006D1*
X3482717Y3123557D1*
X3478914Y3129305D1*
X3473166Y3131206D1*
X3469364D1*
X3482717Y3123557D2*
X3459769Y3098708D1*
X3187712Y2823382D2*
X3204912D1*
X3210660Y2825327D1*
X3212605Y2827229D1*
X3214507Y2831031D1*
Y2834878D1*
X3212605Y2838681D1*
X3210660Y2840626D1*
X3204912Y2842527D1*
X3187712D1*
Y2802335D1*
X3201109Y2823382D2*
X3214507Y2802335D1*
X3228803Y2832932D2*
Y2834834D1*
X3230705Y2838681D1*
X3232606Y2840582D1*
X3236453Y2842483D1*
X3244102D1*
X3247905Y2840582D1*
X3249806Y2838681D1*
X3251751Y2834834D1*
Y2831031D1*
X3249806Y2827184D1*
X3246003Y2821481D1*
X3226858Y2802335D1*
X3253653D1*
X3277500Y2842483D2*
X3271752Y2840582D1*
X3267905Y2834834D1*
X3266004Y2825283D1*
Y2819535D1*
X3267905Y2809985D1*
X3271752Y2804237D1*
X3277500Y2802335D1*
X3281303D1*
X3287051Y2804237D1*
X3290853Y2809985D1*
X3292799Y2819535D1*
Y2825283D1*
X3290853Y2834834D1*
X3287051Y2840582D1*
X3281303Y2842483D1*
X3277500D1*
X3290853Y2834834D2*
X3267905Y2809985D1*
X3305150Y2834834D2*
X3308997Y2836779D1*
X3314745Y2842483D1*
Y2802335D1*
X2836757Y2503906D2*
Y2521106D1*
X2834812Y2526854D1*
X2832910Y2528799D1*
X2829108Y2530701D1*
X2825261D1*
X2821459Y2528799D1*
X2819513Y2526854D1*
X2817612Y2521106D1*
Y2503906D1*
X2857804D1*
X2836757Y2517303D2*
X2857804Y2530701D1*
X2827207Y2544998D2*
X2825305D1*
X2821459Y2546899D1*
X2819557Y2548800D1*
X2817656Y2552647D1*
Y2560296D1*
X2819557Y2564099D1*
X2821459Y2566000D1*
X2825305Y2567945D1*
X2829108D1*
X2832955Y2566000D1*
X2838659Y2562197D1*
X2857804Y2543052D1*
Y2569847D1*
X2817656Y2593694D2*
X2819557Y2587946D1*
X2825305Y2584099D1*
X2834856Y2582198D1*
X2840604D1*
X2850155Y2584099D1*
X2855903Y2587946D1*
X2857804Y2593694D1*
Y2597497D1*
X2855903Y2603245D1*
X2850155Y2607047D1*
X2840604Y2608993D1*
X2834856D1*
X2825305Y2607047D1*
X2819557Y2603245D1*
X2817656Y2597497D1*
Y2593694D1*
X2825305Y2607047D2*
X2850155Y2584099D1*
X2827207Y2623290D2*
X2825305D1*
X2821459Y2625191D1*
X2819557Y2627092D1*
X2817656Y2630939D1*
Y2638588D1*
X2819557Y2642391D1*
X2821459Y2644292D1*
X2825305Y2646237D1*
X2829108D1*
X2832955Y2644292D1*
X2838658Y2640489D1*
X2857804Y2621344D1*
Y2648139D1*
X3236871Y576216D2*
Y593416D1*
X3234926Y599164D1*
X3233025Y601109D1*
X3229222Y603010D1*
X3225375D1*
X3221573Y601109D1*
X3219627Y599164D1*
X3217726Y593416D1*
Y576216D1*
X3257918D1*
X3236871Y589613D2*
X3257918Y603010D1*
X3227321Y617307D2*
X3225420D1*
X3221573Y619208D1*
X3219672Y621110D1*
X3217770Y624957D1*
Y632606D1*
X3219672Y636408D1*
X3221573Y638310D1*
X3225420Y640255D1*
X3229222D1*
X3233069Y638310D1*
X3238773Y634507D1*
X3257918Y615362D1*
Y642156D1*
X3217770Y666004D2*
X3219672Y660256D1*
X3225420Y656409D1*
X3234970Y654508D1*
X3240718D1*
X3250269Y656409D1*
X3256017Y660256D1*
X3257918Y666004D1*
Y669806D1*
X3256017Y675554D1*
X3250269Y679357D1*
X3240718Y681302D1*
X3234970D1*
X3225420Y679357D1*
X3219672Y675554D1*
X3217770Y669806D1*
Y666004D1*
X3225420Y679357D2*
X3250269Y656409D1*
X3217770Y697501D2*
Y718503D1*
X3233069Y707051D1*
Y712799D1*
X3234970Y716602D1*
X3236871Y718503D1*
X3242619Y720448D1*
X3246422D1*
X3252170Y718503D1*
X3256017Y714700D1*
X3257918Y708952D1*
Y703204D1*
X3256017Y697501D1*
X3254071Y695599D1*
X3250269Y693654D1*
X3012672Y826890D2*
X3029872D1*
X3035620Y828835D1*
X3037565Y830737D1*
X3039466Y834539D1*
Y838386D1*
X3037565Y842188D1*
X3035620Y844134D1*
X3029872Y846035D1*
X3012672D1*
Y805843D1*
X3026069Y826890D2*
X3039466Y805843D1*
X3053763Y836440D2*
Y838342D1*
X3055665Y842188D1*
X3057566Y844090D1*
X3061413Y845991D1*
X3069062D1*
X3072864Y844090D1*
X3074766Y842188D1*
X3076711Y838342D1*
Y834539D1*
X3074766Y830692D1*
X3070963Y824989D1*
X3051818Y805843D1*
X3078613D1*
X3102460Y845991D2*
X3096712Y844090D1*
X3092865Y838342D1*
X3090964Y828791D1*
Y823043D1*
X3092865Y813492D1*
X3096712Y807744D1*
X3102460Y805843D1*
X3106263D1*
X3112011Y807744D1*
X3115813Y813492D1*
X3117759Y823043D1*
Y828791D1*
X3115813Y838342D1*
X3112011Y844090D1*
X3106263Y845991D1*
X3102460D1*
X3115813Y838342D2*
X3092865Y813492D1*
X3149255Y805843D2*
Y845991D1*
X3130110Y819240D1*
X3158806D1*
X2769568Y1206158D2*
Y1223358D1*
X2767623Y1229106D1*
X2765722Y1231051D1*
X2761919Y1232953D1*
X2758072D1*
X2754270Y1231051D1*
X2752324Y1229106D1*
X2750423Y1223358D1*
Y1206158D1*
X2790615D1*
X2769568Y1219555D2*
X2790615Y1232953D1*
X2760018Y1247249D2*
X2758116D1*
X2754270Y1249151D1*
X2752368Y1251052D1*
X2750467Y1254899D1*
Y1262548D1*
X2752368Y1266351D1*
X2754270Y1268252D1*
X2758116Y1270197D1*
X2761919D1*
X2765766Y1268252D1*
X2771470Y1264449D1*
X2790615Y1245304D1*
Y1272099D1*
X2750467Y1295946D2*
X2752368Y1290198D1*
X2758116Y1286351D1*
X2767667Y1284450D1*
X2773415D1*
X2782966Y1286351D1*
X2788714Y1290198D1*
X2790615Y1295946D1*
Y1299749D1*
X2788714Y1305497D1*
X2782966Y1309299D1*
X2773415Y1311245D1*
X2767667D1*
X2758116Y1309299D1*
X2752368Y1305497D1*
X2750467Y1299749D1*
Y1295946D1*
X2758116Y1309299D2*
X2782966Y1286351D1*
X2750467Y1346544D2*
Y1327443D1*
X2767667Y1325542D1*
X2765766Y1327443D1*
X2763820Y1333191D1*
Y1338895D1*
X2765766Y1344643D1*
X2769568Y1348489D1*
X2775316Y1350391D1*
X2779119D1*
X2784867Y1348489D1*
X2788714Y1344643D1*
X2790615Y1338895D1*
Y1333191D1*
X2788714Y1327443D1*
X2786768Y1325542D1*
X2782966Y1323596D1*
X2995380Y3702686D2*
X3012580D1*
X3018328Y3704632D1*
X3020273Y3706533D1*
X3022174Y3710336D1*
Y3714182D1*
X3020273Y3717985D1*
X3018328Y3719930D1*
X3012580Y3721832D1*
X2995380D1*
Y3681640D1*
X3008777Y3702686D2*
X3022174Y3681640D1*
X3038373Y3721788D2*
X3059375D1*
X3047923Y3706489D1*
X3053671D1*
X3057474Y3704588D1*
X3059375Y3702686D1*
X3061321Y3696938D1*
Y3693136D1*
X3059375Y3687388D1*
X3055573Y3683541D1*
X3049825Y3681640D1*
X3044076D1*
X3038373Y3683541D1*
X3036471Y3685486D1*
X3034526Y3689289D1*
X3085168Y3721788D2*
X3079420Y3719886D1*
X3075573Y3714138D1*
X3073672Y3704588D1*
Y3698840D1*
X3075573Y3689289D1*
X3079420Y3683541D1*
X3085168Y3681640D1*
X3088971D1*
X3094719Y3683541D1*
X3098521Y3689289D1*
X3100467Y3698840D1*
Y3704588D1*
X3098521Y3714138D1*
X3094719Y3719886D1*
X3088971Y3721788D1*
X3085168D1*
X3098521Y3714138D2*
X3075573Y3689289D1*
X3112818Y3714138D2*
X3116665Y3716084D1*
X3122413Y3721788D1*
Y3681640D1*
X2985813Y3899942D2*
X3003013D1*
X3008761Y3901888D1*
X3010706Y3903789D1*
X3012607Y3907592D1*
Y3911438D1*
X3010706Y3915241D1*
X3008761Y3917186D1*
X3003013Y3919088D1*
X2985813D1*
Y3878896D1*
X2999210Y3899942D2*
X3012607Y3878896D1*
X3028806Y3919043D2*
X3049808D1*
X3038356Y3903745D1*
X3044104D1*
X3047907Y3901844D1*
X3049808Y3899942D1*
X3051753Y3894194D1*
Y3890392D1*
X3049808Y3884644D1*
X3046005Y3880797D1*
X3040257Y3878896D1*
X3034509D1*
X3028806Y3880797D1*
X3026904Y3882742D1*
X3024959Y3886545D1*
X3075601Y3919043D2*
X3069853Y3917142D1*
X3066006Y3911394D1*
X3064105Y3901844D1*
Y3896096D1*
X3066006Y3886545D1*
X3069853Y3880797D1*
X3075601Y3878896D1*
X3079403D1*
X3085151Y3880797D1*
X3088954Y3886545D1*
X3090900Y3896096D1*
Y3901844D1*
X3088954Y3911394D1*
X3085151Y3917142D1*
X3079403Y3919043D1*
X3075601D1*
X3088954Y3911394D2*
X3066006Y3886545D1*
X3105196Y3909493D2*
Y3911394D1*
X3107098Y3915241D1*
X3108999Y3917142D1*
X3112846Y3919043D1*
X3120495D1*
X3124298Y3917142D1*
X3126199Y3915241D1*
X3128144Y3911394D1*
Y3907592D1*
X3126199Y3903745D1*
X3122396Y3898041D1*
X3103251Y3878896D1*
X3130046D1*
X3255597Y3656527D2*
Y3673727D1*
X3253652Y3679475D1*
X3251750Y3681420D1*
X3247948Y3683321D1*
X3244101D1*
X3240299Y3681420D1*
X3238353Y3679475D1*
X3236452Y3673727D1*
Y3656527D1*
X3276644D1*
X3255597Y3669924D2*
X3276644Y3683321D1*
X3236496Y3699520D2*
Y3720522D1*
X3251795Y3709070D1*
Y3714818D1*
X3253696Y3718621D1*
X3255597Y3720522D1*
X3261345Y3722467D1*
X3265148D1*
X3270896Y3720522D1*
X3274742Y3716719D1*
X3276644Y3710971D1*
Y3705223D1*
X3274743Y3699519D1*
X3272797Y3697618D1*
X3268994Y3695673D1*
X3236496Y3746315D2*
X3238397Y3740567D1*
X3244145Y3736720D1*
X3253696Y3734819D1*
X3259444D1*
X3268994Y3736720D1*
X3274742Y3740567D1*
X3276644Y3746315D1*
Y3750117D1*
X3274742Y3755865D1*
X3268994Y3759668D1*
X3259444Y3761613D1*
X3253696D1*
X3244145Y3759668D1*
X3238397Y3755865D1*
X3236496Y3750117D1*
Y3746315D1*
X3244145Y3759668D2*
X3268994Y3736720D1*
X3236496Y3777812D2*
Y3798814D1*
X3251795Y3787362D1*
Y3793110D1*
X3253696Y3796913D1*
X3255597Y3798814D1*
X3261345Y3800759D1*
X3265148D1*
X3270896Y3798814D1*
X3274742Y3795011D1*
X3276644Y3789263D1*
Y3783515D1*
X3274742Y3777812D1*
X3272797Y3775910D1*
X3268994Y3773965D1*
X3404030Y3664159D2*
Y3681359D1*
X3402085Y3687107D1*
X3400183Y3689052D1*
X3396381Y3690953D1*
X3392534D1*
X3388732Y3689052D1*
X3386786Y3687107D1*
X3384885Y3681359D1*
Y3664159D1*
X3425077D1*
X3404030Y3677556D2*
X3425077Y3690953D1*
X3384929Y3707152D2*
Y3728154D1*
X3400228Y3716702D1*
Y3722450D1*
X3402129Y3726253D1*
X3404030Y3728154D1*
X3409778Y3730099D1*
X3413581D1*
X3419329Y3728154D1*
X3423176Y3724351D1*
X3425077Y3718603D1*
Y3712855D1*
X3423176Y3707151D1*
X3421230Y3705250D1*
X3417428Y3703305D1*
X3384929Y3753947D2*
X3386830Y3748199D1*
X3392578Y3744352D1*
X3402129Y3742451D1*
X3407877D1*
X3417428Y3744352D1*
X3423176Y3748199D1*
X3425077Y3753947D1*
Y3757749D1*
X3423176Y3763497D1*
X3417428Y3767300D1*
X3407877Y3769245D1*
X3402129D1*
X3392578Y3767300D1*
X3386830Y3763497D1*
X3384929Y3757749D1*
Y3753947D1*
X3392578Y3767300D2*
X3417428Y3744352D1*
X3425077Y3800742D2*
X3384929D1*
X3411679Y3781597D1*
Y3810293D1*
X3989725Y3878408D2*
X4006925D1*
X4012673Y3880354D1*
X4014618Y3882255D1*
X4016520Y3886057D1*
Y3889904D1*
X4014618Y3893707D1*
X4012673Y3895652D1*
X4006925Y3897554D1*
X3989725D1*
Y3857362D1*
X4003122Y3878408D2*
X4016520Y3857362D1*
X4032718Y3897509D2*
X4053720D1*
X4042268Y3882211D1*
X4048017D1*
X4051819Y3880309D1*
X4053720Y3878408D1*
X4055666Y3872660D1*
Y3868858D1*
X4053720Y3863110D1*
X4049918Y3859263D1*
X4044170Y3857362D1*
X4038422D1*
X4032718Y3859263D1*
X4030817Y3861208D1*
X4028871Y3865011D1*
X4079513Y3897509D2*
X4073765Y3895608D1*
X4069918Y3889860D1*
X4068017Y3880309D1*
Y3874561D1*
X4069918Y3865011D1*
X4073765Y3859263D1*
X4079513Y3857362D1*
X4083316D1*
X4089064Y3859263D1*
X4092866Y3865011D1*
X4094812Y3874561D1*
Y3880309D1*
X4092866Y3889860D1*
X4089064Y3895608D1*
X4083316Y3897509D1*
X4079513D1*
X4092866Y3889860D2*
X4069918Y3865011D1*
X4130111Y3891805D2*
X4128210Y3895608D1*
X4122462Y3897509D1*
X4118659D1*
X4112911Y3895608D1*
X4109065Y3889860D1*
X4107163Y3880309D1*
Y3870759D1*
X4109065Y3863110D1*
X4112911Y3859263D1*
X4118659Y3857362D1*
X4120561D1*
X4126264Y3859263D1*
X4130111Y3863110D1*
X4132012Y3868858D1*
Y3870759D1*
X4130111Y3876507D1*
X4126264Y3880309D1*
X4120561Y3882211D1*
X4118659D1*
X4112911Y3880309D1*
X4109065Y3876507D1*
X4107163Y3870759D1*
X1994830Y3696401D2*
Y3667705D1*
X1996732Y3661957D1*
X2000578Y3658155D1*
X2006326Y3656209D1*
X2010129D1*
X2015877Y3658155D1*
X2019724Y3661957D1*
X2021625Y3667705D1*
Y3696401D1*
X2033976Y3688708D2*
X2037823Y3690653D1*
X2043571Y3696357D1*
Y3656209D1*
X1916582Y3447091D2*
Y3406899D1*
X1939530D1*
X1982479D2*
Y3447091D1*
X1967180Y3406899D1*
X1951882Y3447091D1*
Y3406899D1*
X2002480D2*
X2021625Y3447046D1*
X1994830D1*
X2043527D2*
X2037823Y3445145D1*
X2035878Y3441342D1*
Y3437496D1*
X2037823Y3433693D1*
X2041626Y3431748D1*
X2049275Y3429846D1*
X2055023Y3427945D1*
X2058826Y3424098D1*
X2060727Y3420296D1*
Y3414548D1*
X2058826Y3410745D1*
X2056924Y3408800D1*
X2051176Y3406899D1*
X2043527D1*
X2037823Y3408800D1*
X2035878Y3410745D1*
X2033976Y3414548D1*
Y3420296D1*
X2035878Y3424098D1*
X2039724Y3427945D1*
X2045428Y3429846D1*
X2053078Y3431748D1*
X2056924Y3433693D1*
X2058826Y3437496D1*
Y3441342D1*
X2056924Y3445145D1*
X2051176Y3447046D1*
X2043527D1*
X2073078Y3439397D2*
X2076925Y3441342D1*
X2082673Y3447046D1*
Y3406899D1*
X2117972Y3447046D2*
X2098871D1*
X2096970Y3429846D1*
X2098871Y3431748D1*
X2104619Y3433693D1*
X2110323D1*
X2116071Y3431748D1*
X2119918Y3427945D1*
X2121819Y3422197D1*
Y3418395D1*
X2119918Y3412647D1*
X2116071Y3408800D1*
X2110323Y3406899D1*
X2104619D1*
X2098871Y3408800D1*
X2096970Y3410745D1*
X2095024Y3414548D1*
X3315017Y4302962D2*
Y4274266D1*
X3316918Y4268518D1*
X3320765Y4264715D1*
X3326513Y4262770D1*
X3330315D1*
X3336063Y4264715D1*
X3339910Y4268518D1*
X3341811Y4274266D1*
Y4302962D1*
X3356108Y4293367D2*
Y4295268D1*
X3358009Y4299115D1*
X3359911Y4301016D1*
X3363757Y4302917D1*
X3371407D1*
X3375209Y4301016D1*
X3377110Y4299115D1*
X3379056Y4295268D1*
Y4291466D1*
X3377110Y4287619D1*
X3373308Y4281915D1*
X3354163Y4262770D1*
X3380957D1*
X817269Y3651513D2*
X834469D1*
X840217Y3653459D1*
X842163Y3655360D1*
X844064Y3659163D1*
Y3663009D1*
X842163Y3666812D1*
X840217Y3668757D1*
X834469Y3670659D1*
X817269D1*
Y3630467D1*
X830667Y3651513D2*
X844064Y3630467D1*
X875561D2*
Y3670615D1*
X856415Y3643864D1*
X885111D1*
X865915Y4009356D2*
X883115D1*
X888863Y4011301D1*
X890808Y4013202D1*
X892709Y4017005D1*
Y4020852D1*
X890808Y4024654D1*
X888863Y4026600D1*
X883115Y4028501D1*
X865915D1*
Y3988309D1*
X879312Y4009356D2*
X892709Y3988309D1*
X905061Y4020808D2*
X908908Y4022753D1*
X914656Y4028457D1*
Y3988309D1*
X934656D2*
X953802Y4028457D1*
X927007D1*
X1686004Y1797574D2*
D97*
Y1717190D1*
X1659209Y1797574D2*
X1712798D1*
X1745195Y1797485D2*
X1787199D1*
X1764296Y1766888D1*
X1775792D1*
X1783397Y1763086D1*
X1787199Y1759283D1*
X1791090Y1747787D1*
Y1740182D1*
X1787199Y1728686D1*
X1779594Y1720992D1*
X1768098Y1717190D1*
X1756602D1*
X1745195Y1720992D1*
X1741392Y1724883D1*
X1737501Y1732488D1*
X3028181Y2472671D2*
D98*
X3025329Y2478375D1*
X3019559Y2484145D1*
X3013855Y2486997D1*
X3002381D1*
X2996611Y2484145D1*
X2990907Y2478375D1*
X2987989Y2472671D1*
X2985137Y2464049D1*
Y2449657D1*
X2987989Y2441102D1*
X2990907Y2435331D1*
X2996611Y2429628D1*
X3002381Y2426709D1*
X3013855D1*
X3019559Y2429628D1*
X3025329Y2435331D1*
X3028181Y2441102D1*
Y2449657D1*
X3013855D1*
X2947039Y1257054D2*
X2944187Y1262758D1*
X2938417Y1268528D1*
X2932713Y1271380D1*
X2921239D1*
X2915469Y1268528D1*
X2909765Y1262758D1*
X2906847Y1257054D1*
X2903995Y1248432D1*
Y1234040D1*
X2906847Y1225484D1*
X2909765Y1219714D1*
X2915469Y1214010D1*
X2921239Y1211092D1*
X2932713D1*
X2938417Y1214010D1*
X2944187Y1219714D1*
X2947039Y1225484D1*
Y1234040D1*
X2932713D1*
X2980115Y2349942D2*
Y2289654D1*
X3000211D1*
X3008833Y2292572D1*
X3014603Y2298276D1*
X3017455Y2304046D1*
X3020307Y2312602D1*
Y2326994D1*
X3017455Y2335616D1*
X3014603Y2341320D1*
X3008833Y2347090D1*
X3000211Y2349942D1*
X2980115D1*
X2986783Y1064483D2*
Y1004195D1*
X3006879D1*
X3015501Y1007113D1*
X3021271Y1012817D1*
X3024123Y1018587D1*
X3026975Y1027143D1*
Y1041535D1*
X3024123Y1050157D1*
X3021271Y1055861D1*
X3015501Y1061631D1*
X3006879Y1064483D1*
X2986783D1*
X2970372Y969617D2*
X2964669Y975387D1*
X2956046Y978239D1*
X2944573D1*
X2935950Y975387D1*
X2930180Y969617D1*
Y963913D1*
X2933099Y958143D1*
X2935950Y955291D1*
X2941654Y952439D1*
X2958898Y946669D1*
X2964669Y943817D1*
X2967520Y940899D1*
X2970372Y935195D1*
Y926573D1*
X2964669Y920869D1*
X2956046Y917951D1*
X2944573D1*
X2935950Y920869D1*
X2930180Y926573D1*
X3021401Y2223591D2*
X3015697Y2229361D1*
X3007075Y2232213D1*
X2995601D1*
X2986979Y2229361D1*
X2981209Y2223591D1*
Y2217887D1*
X2984127Y2212117D1*
X2986979Y2209265D1*
X2992683Y2206413D1*
X3009927Y2200643D1*
X3015697Y2197791D1*
X3018549Y2194872D1*
X3021401Y2189169D1*
Y2180547D1*
X3015697Y2174843D1*
X3007075Y2171925D1*
X2995601D1*
X2986979Y2174843D1*
X2981209Y2180547D1*
X1732735Y2047696D2*
X1727032Y2044910D1*
X1721261Y2039140D1*
X1718410Y2033370D1*
X1715491Y2024748D1*
Y2010422D1*
X1718410Y2001800D1*
X1721261Y1996096D1*
X1727032Y1990326D1*
X1732735Y1987474D1*
X1744209D1*
X1749980Y1990326D1*
X1755683Y1996096D1*
X1758535Y2001800D1*
X1761453Y2010422D1*
Y2024748D1*
X1758535Y2033370D1*
X1755683Y2039140D1*
X1749980Y2044910D1*
X1744209Y2047696D1*
X1732735D1*
X1741357Y1998948D2*
X1758535Y1981704D1*
X1779981Y2036155D2*
X1785751Y2039073D1*
X1794373Y2047629D1*
Y1987407D1*
X1830144Y2047629D2*
X1821522Y2044777D1*
X1815752Y2036155D1*
X1812900Y2021829D1*
Y2013207D1*
X1815752Y1998881D1*
X1821522Y1990259D1*
X1830144Y1987407D1*
X1835848D1*
X1844470Y1990259D1*
X1850174Y1998881D1*
X1853092Y2013207D1*
Y2021829D1*
X1850174Y2036155D1*
X1844470Y2044777D1*
X1835848Y2047629D1*
X1830144D1*
X1850174Y2036155D2*
X1815752Y1998881D1*
X1871619Y2036155D2*
X1877389Y2039073D1*
X1886011Y2047629D1*
Y1987407D1*
X3889409Y810982D2*
X3883705Y808196D1*
X3877935Y802426D1*
X3875083Y796656D1*
X3872165Y788034D1*
Y773708D1*
X3875083Y765086D1*
X3877935Y759382D1*
X3883705Y753612D1*
X3889409Y750760D1*
X3900883D1*
X3906653Y753612D1*
X3912357Y759382D1*
X3915208Y765086D1*
X3918127Y773708D1*
Y788034D1*
X3915208Y796656D1*
X3912357Y802426D1*
X3906653Y808196D1*
X3900883Y810982D1*
X3889409D1*
X3898031Y762234D2*
X3915208Y744990D1*
X3939572Y796589D2*
Y799441D1*
X3942424Y805211D1*
X3945276Y808063D1*
X3951046Y810915D1*
X3962520D1*
X3968224Y808063D1*
X3971076Y805211D1*
X3973994Y799441D1*
Y793737D1*
X3971076Y787967D1*
X3965372Y779412D1*
X3936654Y750694D1*
X3976846D1*
X4012617Y810915D2*
X4003995Y808063D1*
X3998225Y799441D1*
X3995373Y785115D1*
Y776493D1*
X3998225Y762168D1*
X4003995Y753545D1*
X4012617Y750694D1*
X4018321D1*
X4026943Y753545D1*
X4032647Y762168D1*
X4035565Y776493D1*
Y785115D1*
X4032647Y799441D1*
X4026943Y808063D1*
X4018321Y810915D1*
X4012617D1*
X4032647Y799441D2*
X3998225Y762168D1*
X4057010Y796589D2*
Y799441D1*
X4059862Y805211D1*
X4062714Y808063D1*
X4068484Y810915D1*
X4079958D1*
X4085662Y808063D1*
X4088514Y805211D1*
X4091432Y799441D1*
Y793737D1*
X4088514Y787967D1*
X4082810Y779412D1*
X4054092Y750694D1*
X4094284D1*
X1337281Y4125512D2*
X1334429Y4131216D1*
X1328659Y4136986D1*
X1322955Y4139838D1*
X1311481D1*
X1305711Y4136986D1*
X1300008Y4131216D1*
X1297089Y4125512D1*
X1294237Y4116890D1*
Y4102498D1*
X1297089Y4093942D1*
X1300008Y4088172D1*
X1305711Y4082468D1*
X1311481Y4079550D1*
X1322955D1*
X1328659Y4082468D1*
X1334429Y4088172D1*
X1337281Y4093942D1*
Y4102498D1*
X1322955D1*
X4040456Y2895091D2*
X4034686Y2892239D1*
X4028982Y2886469D1*
X4026064Y2880766D1*
X4023212Y2872143D1*
Y2857751D1*
X4026064Y2849196D1*
X4028982Y2843425D1*
X4034686Y2837722D1*
X4040456Y2834803D1*
X4051930D1*
X4057634Y2837722D1*
X4063404Y2843425D1*
X4066256Y2849196D1*
X4069107Y2857751D1*
Y2872143D1*
X4066256Y2880766D1*
X4063404Y2886469D1*
X4057634Y2892239D1*
X4051930Y2895091D1*
X4040456D1*
X4087635Y2874995D2*
Y2846277D1*
X4090486Y2837722D1*
X4096257Y2834803D1*
X4104879D1*
X4110582Y2837722D1*
X4119205Y2846277D1*
Y2874995D2*
Y2834803D1*
X4146354Y2895091D2*
Y2846277D1*
X4149206Y2837722D1*
X4154976Y2834803D1*
X4160680D1*
X4137732Y2874995D2*
X4157828D1*
X1598042Y1273695D2*
X1595190Y1279399D1*
X1589420Y1285169D1*
X1583716Y1288021D1*
X1572242D1*
X1566472Y1285169D1*
X1560768Y1279399D1*
X1557850Y1273695D1*
X1554998Y1265073D1*
Y1250681D1*
X1557850Y1242125D1*
X1560768Y1236355D1*
X1566472Y1230651D1*
X1572242Y1227733D1*
X1583716D1*
X1589420Y1230651D1*
X1595190Y1236355D1*
X1598042Y1242125D1*
Y1250681D1*
X1583716D1*
X1576722Y1125770D2*
Y1065482D1*
X1596818D1*
X1605440Y1068401D1*
X1611211Y1074104D1*
X1614062Y1079874D1*
X1616914Y1088430D1*
Y1102822D1*
X1614062Y1111444D1*
X1611211Y1117148D1*
X1605440Y1122918D1*
X1596818Y1125770D1*
X1576722D1*
X1609822Y972657D2*
X1604119Y978428D1*
X1595497Y981279D1*
X1584023D1*
X1575401Y978428D1*
X1569630Y972657D1*
Y966954D1*
X1572549Y961183D1*
X1575401Y958332D1*
X1581104Y955480D1*
X1598349Y949710D1*
X1604119Y946858D1*
X1606971Y943939D1*
X1609822Y938236D1*
Y929614D1*
X1604119Y923910D1*
X1595497Y920991D1*
X1584023D1*
X1575401Y923910D1*
X1569630Y929614D1*
X3870021Y3822459D2*
D96*
X3868120Y3826261D1*
X3864273Y3830108D1*
X3860471Y3832009D1*
X3852821D1*
X3848975Y3830108D1*
X3845172Y3826261D1*
X3843227Y3822459D1*
X3841325Y3816711D1*
Y3807116D1*
X3843227Y3801412D1*
X3845172Y3797565D1*
X3848975Y3793763D1*
X3852821Y3791817D1*
X3860471D1*
X3864273Y3793763D1*
X3868120Y3797565D1*
X3870021Y3801412D1*
Y3807116D1*
X3860471D1*
X3639801Y3823832D2*
X3635999Y3827679D1*
X3630251Y3829580D1*
X3622601D1*
X3616853Y3827679D1*
X3613006Y3823832D1*
Y3820029D1*
X3614952Y3816183D1*
X3616853Y3814281D1*
X3620656Y3812380D1*
X3632152Y3808533D1*
X3635999Y3806632D1*
X3637900Y3804687D1*
X3639801Y3800884D1*
Y3795136D1*
X3635999Y3791334D1*
X3630251Y3789388D1*
X3622601D1*
X3616853Y3791334D1*
X3613006Y3795136D1*
X3730476Y3839447D2*
Y3799255D1*
X3743874D1*
X3749622Y3801201D1*
X3753468Y3805004D1*
X3755370Y3808850D1*
X3757271Y3814554D1*
Y3824149D1*
X3755370Y3829897D1*
X3753468Y3833699D1*
X3749622Y3837546D1*
X3743874Y3839447D1*
X3730476D1*
X3046276Y3303436D2*
Y3343628D1*
X3029032D1*
X3023283Y3341682D1*
X3021382Y3339781D1*
X3019481Y3335978D1*
Y3330230D1*
X3021382Y3326384D1*
X3023283Y3324482D1*
X3029031Y3322581D1*
X3023283Y3320636D1*
X3021382Y3318734D1*
X3019481Y3314932D1*
Y3311085D1*
X3021382Y3307283D1*
X3023283Y3305337D1*
X3029031Y3303436D1*
X3046276D1*
Y3322581D2*
X3029031D1*
X3260317Y3308053D2*
X3285167D1*
Y3348245D1*
X3260318D1*
X3285167Y3327198D2*
X3269868D1*
X3147891Y3316930D2*
X3149792Y3313127D1*
X3153639Y3309281D1*
X3157441Y3307379D1*
X3165091D1*
X3168937Y3309281D1*
X3172740Y3313127D1*
X3174685Y3316930D1*
X3176587Y3322678D1*
Y3332273D1*
X3174685Y3337977D1*
X3172740Y3341823D1*
X3168937Y3345626D1*
X3165091Y3347571D1*
X3157441D1*
X3153639Y3345626D1*
X3149792Y3341823D1*
X3147891Y3337977D1*
X4137849Y3550156D2*
Y3509964D1*
X4124451Y3550156D2*
X4151246D1*
X4163597Y3525263D2*
X4186545D1*
Y3529110D1*
X4184644Y3532956D1*
X4182743Y3534858D1*
X4178896Y3536759D1*
X4173148D1*
X4169345Y3534858D1*
X4165499Y3531011D1*
X4163597Y3525263D1*
Y3521460D1*
X4165499Y3515712D1*
X4169345Y3511910D1*
X4173148Y3509964D1*
X4178896D1*
X4182743Y3511910D1*
X4186545Y3515712D1*
X4198897Y3536759D2*
Y3509964D1*
Y3529110D2*
X4204645Y3534858D1*
X4208492Y3536759D1*
X4214195D1*
X4218042Y3534858D1*
X4219943Y3529110D1*
Y3509964D1*
Y3529110D2*
X4225691Y3534858D1*
X4229538Y3536759D1*
X4235242D1*
X4239089Y3534858D1*
X4241034Y3529110D1*
Y3509964D1*
X4253386Y3536759D2*
Y3496567D1*
Y3531011D2*
X4257232Y3534813D1*
X4261035Y3536759D1*
X4266783D1*
X4270630Y3534813D1*
X4274432Y3531011D1*
X4276378Y3525263D1*
Y3521416D1*
X4274432Y3515712D1*
X4270630Y3511865D1*
X4266783Y3509964D1*
X4261035D1*
X4257232Y3511865D1*
X4253386Y3515712D1*
X1823697Y4300515D2*
D98*
Y4248849D1*
X1797897Y4274649D2*
X1849563D1*
X1871008Y4290467D2*
Y4293319D1*
X1873860Y4299089D1*
X1876712Y4301941D1*
X1882482Y4304793D1*
X1893956D1*
X1899660Y4301941D1*
X1902512Y4299089D1*
X1905430Y4293319D1*
Y4287615D1*
X1902512Y4281845D1*
X1896808Y4273290D1*
X1868090Y4244572D1*
X1908282D1*
X1961231Y4304793D2*
X1932579D1*
X1929727Y4278993D1*
X1932579Y4281845D1*
X1941201Y4284764D1*
X1949757D1*
X1958379Y4281845D1*
X1964149Y4276141D1*
X1967001Y4267519D1*
Y4261816D1*
X1964149Y4253194D1*
X1958379Y4247423D1*
X1949757Y4244572D1*
X1941201D1*
X1932579Y4247423D1*
X1929727Y4250342D1*
X1926809Y4256045D1*
X781116Y2338646D2*
D97*
Y2258262D1*
X754321Y2338646D2*
X807911D1*
X832614Y2323259D2*
X840307Y2327150D1*
X851803Y2338557D1*
Y2258262D1*
X3759637Y1744121D2*
Y1663737D1*
X3732842Y1744121D2*
X3786432D1*
X3857030Y1744032D2*
X3818828D1*
X3815025Y1709632D1*
X3818828Y1713435D1*
X3830324Y1717326D1*
X3841732D1*
X3853228Y1713435D1*
X3860921Y1705830D1*
X3864724Y1694334D1*
Y1686729D1*
X3860921Y1675233D1*
X3853228Y1667539D1*
X3841732Y1663737D1*
X3830324D1*
X3818828Y1667539D1*
X3815025Y1671430D1*
X3811134Y1679035D1*
X2508036Y4019111D2*
D98*
X2533836D1*
X2542458Y4022030D1*
X2545376Y4024881D1*
X2548228Y4030585D1*
Y4036355D1*
X2545376Y4042059D1*
X2542458Y4044977D1*
X2533836Y4047829D1*
X2508036D1*
Y3987541D1*
X2528132Y4019111D2*
X2548228Y3987541D1*
X2572525Y4047763D2*
X2604029D1*
X2586851Y4024815D1*
X2595473D1*
X2601177Y4021963D1*
X2604029Y4019111D1*
X2606947Y4010489D1*
Y4004785D1*
X2604029Y3996163D1*
X2598325Y3990393D1*
X2589703Y3987541D1*
X2581081D1*
X2572525Y3990393D1*
X2569673Y3993311D1*
X2566755Y3999015D1*
X2642718Y4047763D2*
X2634096Y4044911D1*
X2628326Y4036289D1*
X2625474Y4021963D1*
Y4013341D1*
X2628326Y3999015D1*
X2634096Y3990393D1*
X2642718Y3987541D1*
X2648422D1*
X2657044Y3990393D1*
X2662748Y3999015D1*
X2665666Y4013341D1*
Y4021963D1*
X2662748Y4036289D1*
X2657044Y4044911D1*
X2648422Y4047763D1*
X2642718D1*
X2662748Y4036289D2*
X2628326Y3999015D1*
X2701437Y4047763D2*
X2692815Y4044911D1*
X2687045Y4036289D1*
X2684193Y4021963D1*
Y4013341D1*
X2687045Y3999015D1*
X2692815Y3990393D1*
X2701437Y3987541D1*
X2707141D1*
X2715763Y3990393D1*
X2721467Y3999015D1*
X2724385Y4013341D1*
Y4021963D1*
X2721467Y4036289D1*
X2715763Y4044911D1*
X2707141Y4047763D1*
X2701437D1*
X2721467Y4036289D2*
X2687045Y3999015D1*
X2257296Y3247100D2*
D99*
Y3146620D1*
X2223802Y3247100D2*
X2290789D1*
X2369531Y3146620D2*
Y3246989D1*
X2321667Y3180113D1*
X2393407D1*
X2424286Y3227866D2*
X2433903Y3232730D1*
X2448273Y3246989D1*
Y3146620D1*
X2581217Y3223113D2*
Y3227866D1*
X2585970Y3237483D1*
X2590723Y3242236D1*
X2600340Y3246989D1*
X2619463D1*
X2628970Y3242236D1*
X2633723Y3237483D1*
X2638587Y3227866D1*
Y3218360D1*
X2633723Y3208743D1*
X2624217Y3194483D1*
X2576353Y3146620D1*
X2643340D1*
X2702959Y3246989D2*
X2688588Y3242236D1*
X2678972Y3227866D1*
X2674218Y3203989D1*
Y3189619D1*
X2678972Y3165743D1*
X2688588Y3151373D1*
X2702959Y3146620D1*
X2712465D1*
X2726835Y3151373D1*
X2736341Y3165743D1*
X2741205Y3189619D1*
Y3203989D1*
X2736341Y3227866D1*
X2726835Y3242236D1*
X2712465Y3246989D1*
X2702959D1*
X2736341Y3227866D2*
X2678972Y3165743D1*
X2772084Y3247100D2*
X2796071Y3146620D1*
X2819947Y3247100D1*
X2843823Y3146620D1*
X2867810Y3247100D1*
X2995891Y3194483D2*
X3039001D1*
X3053261Y3199236D1*
X3058124Y3204100D1*
X3062877Y3213606D1*
Y3227976D1*
X3058124Y3237483D1*
X3053261Y3242346D1*
X3039001Y3247100D1*
X2995891D1*
Y3146620D1*
X3170360D2*
X3132002Y3247100D1*
X3093756Y3146620D1*
X3108126Y3180113D2*
X3155989D1*
X2360595Y3092887D2*
D98*
X2383543Y3032599D1*
X2406491Y3092887D1*
X2442262Y3092821D2*
X2433640Y3089969D1*
X2427870Y3081347D1*
X2425018Y3067021D1*
Y3058399D1*
X2427870Y3044073D1*
X2433640Y3035451D1*
X2442262Y3032599D1*
X2447966D1*
X2456588Y3035451D1*
X2462292Y3044073D1*
X2465210Y3058399D1*
Y3067021D1*
X2462292Y3081347D1*
X2456588Y3089969D1*
X2447966Y3092821D1*
X2442262D1*
X2462292Y3081347D2*
X2427870Y3044073D1*
X2483737Y3081347D2*
X2489507Y3084265D1*
X2498129Y3092821D1*
Y3032599D1*
X2533900Y3092821D2*
X2525278Y3089969D1*
X2519508Y3081347D1*
X2516656Y3067021D1*
Y3058399D1*
X2519508Y3044073D1*
X2525278Y3035451D1*
X2533900Y3032599D1*
X2539604D1*
X2548226Y3035451D1*
X2553930Y3044073D1*
X2556848Y3058399D1*
Y3067021D1*
X2553930Y3081347D1*
X2548226Y3089969D1*
X2539604Y3092821D1*
X2533900D1*
X2553930Y3081347D2*
X2519508Y3044073D1*
X2650941Y3092821D2*
X2642319Y3089969D1*
X2636548Y3081347D1*
X2633697Y3067021D1*
Y3058399D1*
X2636548Y3044073D1*
X2642319Y3035451D1*
X2650941Y3032599D1*
X2656644D1*
X2665267Y3035451D1*
X2670970Y3044073D1*
X2673889Y3058399D1*
Y3067021D1*
X2670970Y3081347D1*
X2665267Y3089969D1*
X2656644Y3092821D1*
X2650941D1*
X2670970Y3081347D2*
X2636548Y3044073D1*
X2726838Y3084265D2*
X2723986Y3089969D1*
X2715364Y3092821D1*
X2709660D1*
X2701038Y3089969D1*
X2695268Y3081347D1*
X2692416Y3067021D1*
Y3052695D1*
X2695268Y3041221D1*
X2701038Y3035451D1*
X2709660Y3032599D1*
X2712512D1*
X2721067Y3035451D1*
X2726838Y3041221D1*
X2729689Y3049843D1*
Y3052695D1*
X2726838Y3061317D1*
X2721067Y3067021D1*
X2712512Y3069873D1*
X2709660D1*
X2701038Y3067021D1*
X2695268Y3061317D1*
X2692416Y3052695D1*
X2748217Y3062710D2*
X2781378D1*
X2802824Y3078495D2*
Y3081347D1*
X2805676Y3087117D1*
X2808527Y3089969D1*
X2814298Y3092821D1*
X2825772D1*
X2831475Y3089969D1*
X2834327Y3087117D1*
X2837245Y3081347D1*
Y3075643D1*
X2834327Y3069873D1*
X2828623Y3061317D1*
X2799905Y3032599D1*
X2840097D1*
X2858624Y3062710D2*
X2891786D1*
X2913232Y3078495D2*
Y3081347D1*
X2916083Y3087117D1*
X2918935Y3089969D1*
X2924705Y3092821D1*
X2936179D1*
X2941883Y3089969D1*
X2944735Y3087117D1*
X2947653Y3081347D1*
Y3075643D1*
X2944735Y3069873D1*
X2939031Y3061317D1*
X2910313Y3032599D1*
X2950505D1*
X2971951Y3078495D2*
Y3081347D1*
X2974803Y3087117D1*
X2977654Y3089969D1*
X2983425Y3092821D1*
X2994899D1*
X3000602Y3089969D1*
X3003454Y3087117D1*
X3006372Y3081347D1*
Y3075643D1*
X3003454Y3069873D1*
X2997750Y3061317D1*
X2969032Y3032599D1*
X3009224D1*
X2522261Y2892514D2*
X2499246Y2952802D1*
X2476298Y2892514D1*
X2484920Y2912610D2*
X2513639D1*
X2583832Y2938476D2*
X2580980Y2944180D1*
X2575210Y2949950D1*
X2569506Y2952802D1*
X2558032D1*
X2552262Y2949950D1*
X2546558Y2944180D1*
X2543640Y2938476D1*
X2540788Y2929854D1*
Y2915462D1*
X2543640Y2906906D1*
X2546558Y2901136D1*
X2552262Y2895432D1*
X2558032Y2892514D1*
X2569506D1*
X2575210Y2895432D1*
X2580980Y2901136D1*
X2583832Y2906906D1*
X2616685Y2952735D2*
X2608129Y2949884D1*
X2605211Y2944180D1*
Y2938410D1*
X2608129Y2932706D1*
X2613833Y2929788D1*
X2625307Y2926936D1*
X2633929Y2924084D1*
X2639632Y2918314D1*
X2642484Y2912610D1*
Y2903988D1*
X2639632Y2898284D1*
X2636781Y2895366D1*
X2628159Y2892514D1*
X2616685D1*
X2608129Y2895366D1*
X2605211Y2898284D1*
X2602359Y2903988D1*
Y2912610D1*
X2605211Y2918314D1*
X2610981Y2924084D1*
X2619536Y2926936D1*
X2631010Y2929788D1*
X2636781Y2932706D1*
X2639632Y2938410D1*
Y2944180D1*
X2636781Y2949884D1*
X2628159Y2952735D1*
X2616685D1*
X2704055Y2938476D2*
X2701203Y2944180D1*
X2695433Y2949950D1*
X2689730Y2952802D1*
X2678256D1*
X2672485Y2949950D1*
X2666782Y2944180D1*
X2663863Y2938476D1*
X2661011Y2929854D1*
Y2915462D1*
X2663863Y2906906D1*
X2666782Y2901136D1*
X2672485Y2895432D1*
X2678256Y2892514D1*
X2689730D1*
X2695433Y2895432D1*
X2701203Y2901136D1*
X2704055Y2906906D1*
Y2915462D1*
X2689730D1*
X2722582Y2952802D2*
X2745530Y2924084D1*
Y2892514D1*
X2768478Y2952802D2*
X2745530Y2924084D1*
X1617412Y2480266D2*
X1614560Y2485970D1*
X1608790Y2491740D1*
X1603086Y2494592D1*
X1591612D1*
X1585842Y2491740D1*
X1580138Y2485970D1*
X1577220Y2480266D1*
X1574368Y2471644D1*
Y2457252D1*
X1577220Y2448696D1*
X1580138Y2442926D1*
X1585842Y2437222D1*
X1591612Y2434304D1*
X1603086D1*
X1608790Y2437222D1*
X1614560Y2442926D1*
X1617412Y2448696D1*
Y2457252D1*
X1603086D1*
X1574368Y2343228D2*
Y2282940D1*
X1594464D1*
X1603086Y2285859D1*
X1608856Y2291562D1*
X1611708Y2297332D1*
X1614560Y2305888D1*
Y2320280D1*
X1611708Y2328902D1*
X1608856Y2334606D1*
X1603086Y2340376D1*
X1594464Y2343228D1*
X1574368D1*
X1609027Y2168972D2*
X1603323Y2174743D1*
X1594701Y2177594D1*
X1583227D1*
X1574605Y2174743D1*
X1568835Y2168972D1*
Y2163269D1*
X1571753Y2157498D1*
X1574605Y2154647D1*
X1580309Y2151795D1*
X1597553Y2146024D1*
X1603323Y2143173D1*
X1606175Y2140254D1*
X1609027Y2134551D1*
Y2125928D1*
X1603323Y2120225D1*
X1594701Y2117306D1*
X1583227D1*
X1574605Y2120225D1*
X1568835Y2125928D1*
X550619Y1672209D2*
D97*
Y1591825D1*
X523824Y1672209D2*
X577413D1*
X606007Y1653019D2*
Y1656822D1*
X609810Y1664515D1*
X613612Y1668318D1*
X621306Y1672120D1*
X636604D1*
X644209Y1668318D1*
X648012Y1664515D1*
X651903Y1656822D1*
Y1649216D1*
X648012Y1641523D1*
X640407Y1630115D1*
X602116Y1591825D1*
X655705D1*
X2393564Y806707D2*
D98*
X2387860Y803922D1*
X2382090Y798152D1*
X2379238Y792381D1*
X2376319Y783759D1*
Y769434D1*
X2379238Y760811D1*
X2382090Y755108D1*
X2387860Y749338D1*
X2393564Y746486D1*
X2405037D1*
X2410808Y749338D1*
X2416511Y755108D1*
X2419363Y760811D1*
X2422282Y769434D1*
Y783759D1*
X2419363Y792381D1*
X2416511Y798152D1*
X2410808Y803922D1*
X2405037Y806707D1*
X2393564D1*
X2402186Y757960D2*
X2419363Y740715D1*
X2440809Y795167D2*
X2446579Y798085D1*
X2455201Y806641D1*
Y746419D1*
X2490972Y806641D2*
X2482350Y803789D1*
X2476580Y795167D1*
X2473728Y780841D1*
Y772219D1*
X2476580Y757893D1*
X2482350Y749271D1*
X2490972Y746419D1*
X2496676D1*
X2505298Y749271D1*
X2511002Y757893D1*
X2513920Y772219D1*
Y780841D1*
X2511002Y795167D1*
X2505298Y803789D1*
X2496676Y806641D1*
X2490972D1*
X2511002Y795167D2*
X2476580Y757893D1*
X2535365Y792315D2*
Y795167D1*
X2538217Y800937D1*
X2541069Y803789D1*
X2546839Y806641D1*
X2558313D1*
X2564017Y803789D1*
X2566869Y800937D1*
X2569787Y795167D1*
Y789463D1*
X2566869Y783693D1*
X2561165Y775137D1*
X2532447Y746419D1*
X2572639D1*
X2756703Y1785167D2*
D97*
Y1704783D1*
X2729908Y1785167D2*
X2783497D1*
X2846491Y1704783D2*
Y1785078D1*
X2808200Y1731577D1*
X2865592D1*
X3583125Y2695803D2*
D98*
X3577421Y2693017D1*
X3571651Y2687247D1*
X3568799Y2681477D1*
X3565881Y2672855D1*
Y2658529D1*
X3568799Y2649907D1*
X3571651Y2644203D1*
X3577421Y2638433D1*
X3583125Y2635581D1*
X3594599D1*
X3600369Y2638433D1*
X3606073Y2644203D1*
X3608925Y2649907D1*
X3611843Y2658529D1*
Y2672855D1*
X3608925Y2681477D1*
X3606073Y2687247D1*
X3600369Y2693017D1*
X3594599Y2695803D1*
X3583125D1*
X3591747Y2647055D2*
X3608925Y2629811D1*
X3633288Y2681411D2*
Y2684263D1*
X3636140Y2690033D1*
X3638992Y2692885D1*
X3644762Y2695737D1*
X3656236D1*
X3661940Y2692885D1*
X3664792Y2690033D1*
X3667710Y2684263D1*
Y2678559D1*
X3664792Y2672789D1*
X3659088Y2664233D1*
X3630370Y2635515D1*
X3670562D1*
X3706333Y2695737D2*
X3697711Y2692885D1*
X3691941Y2684263D1*
X3689089Y2669937D1*
Y2661315D1*
X3691941Y2646989D1*
X3697711Y2638367D1*
X3706333Y2635515D1*
X3712037D1*
X3720659Y2638367D1*
X3726363Y2646989D1*
X3729281Y2661315D1*
Y2669937D1*
X3726363Y2684263D1*
X3720659Y2692885D1*
X3712037Y2695737D1*
X3706333D1*
X3726363Y2684263D2*
X3691941Y2646989D1*
X3747808Y2684263D2*
X3753578Y2687181D1*
X3762200Y2695737D1*
Y2635515D1*
X3517727Y4282883D2*
D100*
Y4259935D1*
X3516301Y4255624D1*
X3514842Y4254198D1*
X3511990Y4252739D1*
X3509105D1*
X3506253Y4254198D1*
X3504827Y4255624D1*
X3503368Y4259935D1*
Y4262787D1*
X3526991Y4267098D2*
X3539924D1*
X3544202Y4268524D1*
X3545661Y4269983D1*
X3547087Y4272835D1*
Y4277146D1*
X3545661Y4279997D1*
X3544202Y4281457D1*
X3539924Y4282883D1*
X3526991D1*
Y4252739D1*
X3556351Y4277112D2*
X3559236Y4278572D1*
X3563547Y4282849D1*
Y4252739D1*
X4251139Y872288D2*
D98*
X4248287Y877992D1*
X4242517Y883762D1*
X4236813Y886614D1*
X4225339D1*
X4219569Y883762D1*
X4213865Y877992D1*
X4210947Y872288D1*
X4208095Y863666D1*
Y849274D1*
X4210947Y840718D1*
X4213865Y834948D1*
X4219569Y829244D1*
X4225339Y826326D1*
X4236813D1*
X4242517Y829244D1*
X4248287Y834948D1*
X4251139Y840718D1*
Y849274D1*
X4236813D1*
X903034Y4150642D2*
X865693D1*
Y4090354D1*
Y4121924D2*
X888641D1*
X955983Y4130546D2*
Y4090354D1*
Y4121924D2*
X950279Y4127694D1*
X944509Y4130546D1*
X935953D1*
X930183Y4127694D1*
X924479Y4121924D1*
X921561Y4113302D1*
Y4107598D1*
X924479Y4098976D1*
X930183Y4093272D1*
X935953Y4090354D1*
X944509D1*
X950279Y4093272D1*
X955983Y4098976D1*
X974510Y4130546D2*
Y4090354D1*
Y4119072D2*
X983132Y4127694D1*
X988902Y4130546D1*
X997458D1*
X1003228Y4127694D1*
X1006080Y4119072D1*
Y4090354D1*
X2616104Y2803625D2*
D96*
X2614203Y2807428D1*
X2610356Y2811275D1*
X2606553Y2813176D1*
X2598904D1*
X2595057Y2811275D1*
X2591255Y2807428D1*
X2589309Y2803625D1*
X2587408Y2797877D1*
Y2788282D1*
X2589309Y2782579D1*
X2591255Y2778732D1*
X2595057Y2774929D1*
X2598904Y2772984D1*
X2606553D1*
X2610356Y2774929D1*
X2614203Y2778732D1*
X2616104Y2782579D1*
X2708162Y2803581D2*
Y2805482D1*
X2710064Y2809329D1*
X2711965Y2811230D1*
X2715812Y2813132D1*
X2723461D1*
X2727264Y2811230D1*
X2729165Y2809329D1*
X2731110Y2805482D1*
Y2801680D1*
X2729165Y2797833D1*
X2725362Y2792129D1*
X2706217Y2772984D1*
X2733012D1*
X2756859Y2813132D2*
X2751111Y2811230D1*
X2747264Y2805482D1*
X2745363Y2795932D1*
Y2790184D1*
X2747264Y2780633D1*
X2751111Y2774885D1*
X2756859Y2772984D1*
X2760662D1*
X2766410Y2774885D1*
X2770212Y2780633D1*
X2772158Y2790184D1*
Y2795932D1*
X2770212Y2805482D1*
X2766410Y2811230D1*
X2760662Y2813132D1*
X2756859D1*
X2770212Y2805482D2*
X2747264Y2780633D1*
X2786455Y2803581D2*
Y2805482D1*
X2788356Y2809329D1*
X2790257Y2811230D1*
X2794104Y2813132D1*
X2801753D1*
X2805556Y2811230D1*
X2807457Y2809329D1*
X2809402Y2805482D1*
Y2801680D1*
X2807457Y2797833D1*
X2803654Y2792129D1*
X2784509Y2772984D1*
X2811304D1*
X2825601Y2803581D2*
Y2805482D1*
X2827502Y2809329D1*
X2829403Y2811230D1*
X2833250Y2813132D1*
X2840899D1*
X2844702Y2811230D1*
X2846603Y2809329D1*
X2848549Y2805482D1*
Y2801680D1*
X2846603Y2797833D1*
X2842801Y2792129D1*
X2823655Y2772984D1*
X2850450D1*
X3943376Y4309379D2*
D100*
Y4279235D1*
X3933328Y4309379D2*
X3953424D1*
X3962687Y4299331D2*
X3978472Y4279235D1*
Y4299331D2*
X3962687Y4279235D1*
X3987736Y4295020D2*
X4000636D1*
X4004947Y4296479D1*
X4006406Y4297905D1*
X4007832Y4300757D1*
Y4303642D1*
X4006406Y4306494D1*
X4004947Y4307953D1*
X4000636Y4309379D1*
X3987736D1*
Y4279235D1*
X3997784Y4295020D2*
X4007832Y4279235D1*
X4017095Y4299331D2*
X4032880Y4279235D1*
Y4299331D2*
X4017095Y4279235D1*
X1239497Y3645334D2*
D96*
X1214648D1*
Y3605142D1*
X1239497D1*
X1214648Y3626189D2*
X1229947D1*
X1298437Y3647738D2*
Y3607546D1*
X1315681D1*
X1321429Y3609491D1*
X1323330Y3611392D1*
X1325231Y3615195D1*
Y3620943D1*
X1323330Y3624790D1*
X1321429Y3626691D1*
X1315681Y3628592D1*
X1321429Y3630538D1*
X1323330Y3632439D1*
X1325231Y3636241D1*
Y3640088D1*
X1323330Y3643891D1*
X1321429Y3645836D1*
X1315681Y3647738D1*
X1298437D1*
Y3628592D2*
X1315681D1*
X1400722Y3638718D2*
X1398820Y3642521D1*
X1394973Y3646368D1*
X1391171Y3648269D1*
X1383522D1*
X1379675Y3646368D1*
X1375872Y3642521D1*
X1373927Y3638718D1*
X1372026Y3632970D1*
Y3623375D1*
X1373927Y3617672D1*
X1375872Y3613825D1*
X1379675Y3610022D1*
X1383522Y3608077D1*
X1391171D1*
X1394973Y3610022D1*
X1398820Y3613825D1*
X1400722Y3617672D1*
X1103440Y3268816D2*
X1078590D1*
Y3228624D1*
X1103440D1*
X1078590Y3249671D2*
X1093889D1*
X1162379Y3271219D2*
Y3231027D1*
X1179623D1*
X1185371Y3232973D1*
X1187272Y3234874D1*
X1189174Y3238676D1*
Y3244425D1*
X1187272Y3248271D1*
X1185371Y3250173D1*
X1179623Y3252074D1*
X1185371Y3254019D1*
X1187272Y3255921D1*
X1189174Y3259723D1*
Y3263570D1*
X1187272Y3267372D1*
X1185371Y3269318D1*
X1179623Y3271219D1*
X1162379D1*
Y3252074D2*
X1179623D1*
X1264664Y3262200D2*
X1262762Y3266002D1*
X1258916Y3269849D1*
X1255113Y3271750D1*
X1247464D1*
X1243617Y3269849D1*
X1239815Y3266002D1*
X1237869Y3262200D1*
X1235968Y3256452D1*
Y3246857D1*
X1237869Y3241153D1*
X1239815Y3237306D1*
X1243617Y3233504D1*
X1247464Y3231558D1*
X1255113D1*
X1258916Y3233504D1*
X1262762Y3237306D1*
X1264664Y3241153D1*
X1188013Y2731917D2*
X1163164D1*
Y2691725D1*
X1188013D1*
X1163164Y2712772D2*
X1178463D1*
X1246953Y2734320D2*
Y2694128D1*
X1264197D1*
X1269945Y2696074D1*
X1271846Y2697975D1*
X1273747Y2701778D1*
Y2707526D1*
X1271846Y2711372D1*
X1269945Y2713274D1*
X1264197Y2715175D1*
X1269945Y2717120D1*
X1271846Y2719022D1*
X1273747Y2722824D1*
Y2726671D1*
X1271846Y2730473D1*
X1269945Y2732419D1*
X1264197Y2734320D1*
X1246953D1*
Y2715175D2*
X1264197D1*
X1349237Y2725301D2*
X1347336Y2729103D1*
X1343489Y2732950D1*
X1339687Y2734851D1*
X1332037D1*
X1328191Y2732950D1*
X1324388Y2729103D1*
X1322443Y2725301D1*
X1320541Y2719553D1*
Y2709958D1*
X1322443Y2704254D1*
X1324388Y2700408D1*
X1328191Y2696605D1*
X1332037Y2694659D1*
X1339687D1*
X1343489Y2696605D1*
X1347336Y2700408D1*
X1349237Y2704254D1*
X920821Y2826430D2*
X895972D1*
Y2786238D1*
X920821D1*
X895972Y2807285D2*
X911270D1*
X830426Y2813911D2*
Y2773719D1*
X847670D1*
X853418Y2775664D1*
X855320Y2777566D1*
X857221Y2781368D1*
Y2787116D1*
X855320Y2790963D1*
X853418Y2792864D1*
X847670Y2794766D1*
X853418Y2796711D1*
X855320Y2798612D1*
X857221Y2802415D1*
Y2806262D1*
X855320Y2810064D1*
X853418Y2812010D1*
X847670Y2813911D1*
X830426D1*
Y2794766D2*
X847670D1*
X783373Y2819812D2*
X781472Y2823615D1*
X777625Y2827461D1*
X773823Y2829363D1*
X766174D1*
X762327Y2827461D1*
X758524Y2823615D1*
X756579Y2819812D1*
X754678Y2814064D1*
Y2804469D1*
X756579Y2798765D1*
X758524Y2794919D1*
X762327Y2791116D1*
X766174Y2789171D1*
X773823D1*
X777625Y2791116D1*
X781472Y2794919D1*
X783373Y2798765D1*
X3918310Y4110353D2*
D101*
X3898214D1*
Y4101731D1*
X3899187Y4098857D1*
X3900138Y4097906D1*
X3902039Y4096956D1*
X3904913D1*
X3906836Y4097906D1*
X3907787Y4098857D1*
X3908737Y4101731D1*
X3909710Y4098857D1*
X3910661Y4097906D1*
X3912562Y4096956D1*
X3914486D1*
X3916387Y4097906D1*
X3917360Y4098857D1*
X3918310Y4101731D1*
Y4110353D1*
X3908738D2*
X3908737Y4101731D1*
X3843300Y4097928D2*
Y4110353D1*
X3823204D1*
Y4097928D1*
X3833727Y4110353D2*
Y4102704D1*
X3876030Y3939757D2*
X3877931Y3940707D1*
X3879854Y3942631D1*
X3880805Y3944532D1*
Y3948357D1*
X3879854Y3950280D1*
X3877931Y3952181D1*
X3876030Y3953154D1*
X3873156Y3954105D1*
X3868358D1*
X3865506Y3953154D1*
X3863583Y3952181D1*
X3861682Y3950280D1*
X3860709Y3948357D1*
Y3944532D1*
X3861682Y3942631D1*
X3863583Y3940707D1*
X3865506Y3939757D1*
X3182306Y4002110D2*
D96*
Y3977261D1*
X3222498D1*
Y4002110D1*
X3201451Y3977261D2*
X3201452Y3992560D1*
X3179903Y4061050D2*
X3220095D1*
Y4078294D1*
X3218149Y4084042D1*
X3216248Y4085943D1*
X3212446Y4087844D1*
X3206698D1*
X3202851Y4085943D1*
X3200950Y4084042D1*
X3199048Y4078294D1*
X3197103Y4084042D1*
X3195202Y4085943D1*
X3191399Y4087844D1*
X3187552D1*
X3183750Y4085943D1*
X3181804Y4084042D1*
X3179903Y4078294D1*
Y4061050D1*
X3199048D2*
Y4078294D1*
X3188922Y4163334D2*
X3185120Y4161433D1*
X3181273Y4157586D1*
X3179372Y4153784D1*
Y4146135D1*
X3181273Y4142288D1*
X3185120Y4138485D1*
X3188922Y4136540D1*
X3194670Y4134639D1*
X3204265D1*
X3209969Y4136540D1*
X3213816Y4138485D1*
X3217618Y4142288D1*
X3219564Y4146135D1*
Y4153784D1*
X3217618Y4157586D1*
X3213816Y4161433D1*
X3209969Y4163334D1*
X3265181Y3929955D2*
X3249839Y3970147D1*
X3234540Y3929955D1*
X3240288Y3943352D2*
X3259433D1*
X3246520Y4176525D2*
Y4136333D1*
X3249369Y4069596D2*
X3245522Y4067695D1*
X3241720Y4063848D1*
X3239774Y4060045D1*
X3237873Y4054297D1*
Y4044702D1*
X3239774Y4038999D1*
X3241720Y4035152D1*
X3245522Y4031349D1*
X3249369Y4029404D1*
X3257018D1*
X3260821Y4031349D1*
X3264668Y4035152D1*
X3266569Y4038999D1*
X3268470Y4044702D1*
Y4054297D1*
X3266569Y4060045D1*
X3264668Y4063848D1*
X3260821Y4067695D1*
X3257018Y4069596D1*
X3249369D1*
M02*
