G04 DipTrace 3.3.1.1*
G04 Bottom.gbr*
%MOIN*%
G04 #@! TF.FileFunction,Copper,L2,Bot*
G04 #@! TF.Part,Single*
G04 #@! TA.AperFunction,Conductor*
%ADD14C,0.027559*%
G04 #@! TA.AperFunction,ComponentPad*
%ADD17C,0.05*%
%ADD18R,0.066929X0.066929*%
%ADD19C,0.066929*%
G04 #@! TA.AperFunction,ViaPad*
%ADD20C,0.04*%
%FSLAX26Y26*%
G04*
G70*
G90*
G75*
G01*
G04 Bottom*
%LPD*%
X1222864Y925757D2*
D14*
X494000D1*
Y931008D1*
D20*
X1222864Y925757D3*
D17*
X494000Y1031008D3*
Y831008D3*
Y931008D3*
D18*
X994394Y4203055D3*
D19*
Y4025890D3*
X1250299D3*
Y4203055D3*
D18*
X1703055D3*
D19*
Y4025890D3*
X1958961D3*
Y4203055D3*
D18*
X2411717D3*
D19*
Y4025890D3*
X2667622D3*
Y4203055D3*
D18*
X994394Y3494394D3*
D19*
Y3317228D3*
X1250299D3*
Y3494394D3*
D18*
X1703055D3*
D19*
Y3317228D3*
X1958961D3*
Y3494394D3*
D18*
X2411717D3*
D19*
Y3317228D3*
X2667622D3*
Y3494394D3*
D18*
X994394Y2785732D3*
D19*
Y2608567D3*
X1250299D3*
Y2785732D3*
D18*
X1703055D3*
D19*
Y2608567D3*
X1958961D3*
Y2785732D3*
D18*
X2411717D3*
D19*
Y2608567D3*
X2667622D3*
Y2785732D3*
D18*
X994394Y2077071D3*
D19*
Y1899906D3*
X1250299D3*
Y2077071D3*
D18*
X1703055D3*
D19*
Y1899906D3*
X1958961D3*
Y2077071D3*
D18*
X2411717D3*
D19*
Y1899906D3*
X2667622D3*
Y2077071D3*
D18*
X1703055Y1368409D3*
D19*
Y1191244D3*
X1958961D3*
Y1368409D3*
D18*
X2411717D3*
D19*
Y1191244D3*
X2667622D3*
Y1368409D3*
D18*
X994394Y659748D3*
D19*
Y482583D3*
X1250299D3*
Y659748D3*
D18*
X1703055D3*
D19*
Y482583D3*
X1958961D3*
Y659748D3*
D18*
X2411717D3*
D19*
Y482583D3*
X2667622D3*
Y659748D3*
D18*
X994394Y1368409D3*
D19*
Y1191244D3*
X1250299D3*
Y1368409D3*
M02*
