G04 DipTrace 3.3.1.1*
G04 TopMask.gbr*
%MOIN*%
G04 #@! TF.FileFunction,Soldermask,Top*
G04 #@! TF.Part,Single*
%ADD22C,0.137795*%
%ADD28C,0.074929*%
%ADD30R,0.074929X0.074929*%
%ADD32C,0.058*%
%ADD34R,0.078866X0.070992*%
%FSLAX26Y26*%
G04*
G70*
G90*
G75*
G01*
G04 TopMask*
%LPD*%
D34*
X630220Y1309354D3*
Y1199118D3*
D22*
X748331Y571814D3*
X743487Y4114526D3*
X2913685Y570950D3*
X2907113Y4114068D3*
D32*
X494000Y1031008D3*
Y831008D3*
Y931008D3*
D34*
X574175Y3851552D3*
Y3741316D3*
X737060D3*
Y3851552D3*
X584126Y3499151D3*
Y3609387D3*
X738488Y3504236D3*
Y3394000D3*
X575630Y3294272D3*
Y3184035D3*
X741550Y3187487D3*
Y3077251D3*
X577441Y3033929D3*
Y2923693D3*
X577287Y2673274D3*
Y2783510D3*
X581635Y2445378D3*
Y2555614D3*
X746420Y2325949D3*
Y2436185D3*
X577915Y2326680D3*
Y2216444D3*
X747689Y2136186D3*
Y2025950D3*
X592874Y2023744D3*
Y1913508D3*
X742369Y1920870D3*
Y1810634D3*
X835106Y1749245D3*
Y1639009D3*
X846756Y1250299D3*
Y1140063D3*
X551904Y1673482D3*
Y1563245D3*
D30*
X994394Y4203055D3*
D28*
Y4025890D3*
X1250299D3*
Y4203055D3*
D30*
X1703055D3*
D28*
Y4025890D3*
X1958961D3*
Y4203055D3*
D30*
X2411717D3*
D28*
Y4025890D3*
X2667622D3*
Y4203055D3*
D30*
X994394Y3494394D3*
D28*
Y3317228D3*
X1250299D3*
Y3494394D3*
D30*
X1703055D3*
D28*
Y3317228D3*
X1958961D3*
Y3494394D3*
D30*
X2411717D3*
D28*
Y3317228D3*
X2667622D3*
Y3494394D3*
D30*
X994394Y2785732D3*
D28*
Y2608567D3*
X1250299D3*
Y2785732D3*
D30*
X1703055D3*
D28*
Y2608567D3*
X1958961D3*
Y2785732D3*
D30*
X2411717D3*
D28*
Y2608567D3*
X2667622D3*
Y2785732D3*
D30*
X994394Y2077071D3*
D28*
Y1899906D3*
X1250299D3*
Y2077071D3*
D30*
X1703055D3*
D28*
Y1899906D3*
X1958961D3*
Y2077071D3*
D30*
X2411717D3*
D28*
Y1899906D3*
X2667622D3*
Y2077071D3*
D30*
X1703055Y1368409D3*
D28*
Y1191244D3*
X1958961D3*
Y1368409D3*
D30*
X2411717D3*
D28*
Y1191244D3*
X2667622D3*
Y1368409D3*
D30*
X994394Y659748D3*
D28*
Y482583D3*
X1250299D3*
Y659748D3*
D30*
X1703055D3*
D28*
Y482583D3*
X1958961D3*
Y659748D3*
D30*
X2411717D3*
D28*
Y482583D3*
X2667622D3*
Y659748D3*
D30*
X994394Y1368409D3*
D28*
Y1191244D3*
X1250299D3*
Y1368409D3*
D34*
X703789Y841861D3*
Y952097D3*
X1071014Y1036824D3*
Y926588D3*
X1395012Y1032113D3*
Y921877D3*
M02*
