G04 DipTrace 3.3.1.1*
G04 TopSilk.gbr*
%MOIN*%
G04 #@! TF.FileFunction,Legend,Top*
G04 #@! TF.Part,Single*
%ADD10C,0.009843*%
%ADD12C,0.003*%
%ADD36C,0.00772*%
%ADD37C,0.009264*%
%ADD38C,0.012351*%
%FSLAX26Y26*%
G04*
G70*
G90*
G75*
G01*
G04 TopSilk*
%LPD*%
X598756Y1258567D2*
D10*
X661685D1*
X598756Y1266016D2*
X661685D1*
X598756D2*
Y1242457D1*
X661685Y1266016D2*
Y1242457D1*
X542710Y3808214D2*
Y3784655D1*
X605639Y3808214D2*
Y3784655D1*
X768525D2*
Y3808214D1*
X705596Y3784655D2*
Y3808214D1*
X615591Y3542490D2*
Y3566049D1*
X552661Y3542490D2*
Y3566049D1*
X707024Y3460898D2*
Y3437339D1*
X769953Y3460898D2*
Y3437339D1*
X544165Y3250933D2*
Y3227374D1*
X607094Y3250933D2*
Y3227374D1*
X710085Y3144148D2*
Y3120589D1*
X773014Y3144148D2*
Y3120589D1*
X545976Y2990591D2*
Y2967031D1*
X608906Y2990591D2*
Y2967031D1*
X608752Y2716613D2*
Y2740172D1*
X545823Y2716613D2*
Y2740172D1*
X613100Y2488717D2*
Y2512276D1*
X550171Y2488717D2*
Y2512276D1*
X777885Y2369287D2*
Y2392846D1*
X714955Y2369287D2*
Y2392846D1*
X546450Y2283341D2*
Y2259782D1*
X609379Y2283341D2*
Y2259782D1*
X716224Y2092848D2*
Y2069289D1*
X779154Y2092848D2*
Y2069289D1*
X561409Y1980406D2*
Y1956846D1*
X624339Y1980406D2*
Y1956846D1*
X710904Y1877531D2*
Y1853972D1*
X773833Y1877531D2*
Y1853972D1*
X803642Y1705907D2*
Y1682348D1*
X866571Y1705907D2*
Y1682348D1*
X815291Y1206961D2*
Y1183402D1*
X878220Y1206961D2*
Y1183402D1*
X520440Y1630143D2*
Y1606584D1*
X583369Y1630143D2*
Y1606584D1*
X1051484Y4114472D2*
G02X1051484Y4114472I70862J0D01*
G01*
X1031791Y3996355D2*
X1212902D1*
X1240472Y4075076D2*
Y4153845D1*
X1212902Y4232590D2*
X1047546D1*
X1004221Y4153845D2*
Y4075076D1*
X1063300Y4114460D2*
G02X1063300Y4114460I59046J0D01*
G01*
X1760146Y4114472D2*
G02X1760146Y4114472I70862J0D01*
G01*
X1740453Y3996355D2*
X1921563D1*
X1949133Y4075076D2*
Y4153845D1*
X1921563Y4232590D2*
X1756207D1*
X1712883Y4153845D2*
Y4075076D1*
X1771961Y4114460D2*
G02X1771961Y4114460I59046J0D01*
G01*
X2468807Y4114472D2*
G02X2468807Y4114472I70862J0D01*
G01*
X2449114Y3996355D2*
X2630224D1*
X2657794Y4075076D2*
Y4153845D1*
X2630224Y4232590D2*
X2464869D1*
X2421544Y4153845D2*
Y4075076D1*
X2480623Y4114460D2*
G02X2480623Y4114460I59046J0D01*
G01*
X1051484Y3405811D2*
G02X1051484Y3405811I70862J0D01*
G01*
X1031791Y3287694D2*
X1212902D1*
X1240472Y3366414D2*
Y3445183D1*
X1212902Y3523928D2*
X1047546D1*
X1004221Y3445183D2*
Y3366414D1*
X1063300Y3405799D2*
G02X1063300Y3405799I59046J0D01*
G01*
X1760146Y3405811D2*
G02X1760146Y3405811I70862J0D01*
G01*
X1740453Y3287694D2*
X1921563D1*
X1949133Y3366414D2*
Y3445183D1*
X1921563Y3523928D2*
X1756207D1*
X1712883Y3445183D2*
Y3366414D1*
X1771961Y3405799D2*
G02X1771961Y3405799I59046J0D01*
G01*
X2468807Y3405811D2*
G02X2468807Y3405811I70862J0D01*
G01*
X2449114Y3287694D2*
X2630224D1*
X2657794Y3366414D2*
Y3445183D1*
X2630224Y3523928D2*
X2464869D1*
X2421544Y3445183D2*
Y3366414D1*
X2480623Y3405799D2*
G02X2480623Y3405799I59046J0D01*
G01*
X1051484Y2697150D2*
G02X1051484Y2697150I70862J0D01*
G01*
X1031791Y2579032D2*
X1212902D1*
X1240472Y2657753D2*
Y2736522D1*
X1212902Y2815267D2*
X1047546D1*
X1004221Y2736522D2*
Y2657753D1*
X1063300Y2697137D2*
G02X1063300Y2697137I59046J0D01*
G01*
X1760146Y2697150D2*
G02X1760146Y2697150I70862J0D01*
G01*
X1740453Y2579032D2*
X1921563D1*
X1949133Y2657753D2*
Y2736522D1*
X1921563Y2815267D2*
X1756207D1*
X1712883Y2736522D2*
Y2657753D1*
X1771961Y2697137D2*
G02X1771961Y2697137I59046J0D01*
G01*
X2468807Y2697150D2*
G02X2468807Y2697150I70862J0D01*
G01*
X2449114Y2579032D2*
X2630224D1*
X2657794Y2657753D2*
Y2736522D1*
X2630224Y2815267D2*
X2464869D1*
X2421544Y2736522D2*
Y2657753D1*
X2480623Y2697137D2*
G02X2480623Y2697137I59046J0D01*
G01*
X1051484Y1988488D2*
G02X1051484Y1988488I70862J0D01*
G01*
X1031791Y1870371D2*
X1212902D1*
X1240472Y1949091D2*
Y2027861D1*
X1212902Y2106606D2*
X1047546D1*
X1004221Y2027861D2*
Y1949091D1*
X1063300Y1988476D2*
G02X1063300Y1988476I59046J0D01*
G01*
X1760146Y1988488D2*
G02X1760146Y1988488I70862J0D01*
G01*
X1740453Y1870371D2*
X1921563D1*
X1949133Y1949091D2*
Y2027861D1*
X1921563Y2106606D2*
X1756207D1*
X1712883Y2027861D2*
Y1949091D1*
X1771961Y1988476D2*
G02X1771961Y1988476I59046J0D01*
G01*
X2468807Y1988488D2*
G02X2468807Y1988488I70862J0D01*
G01*
X2449114Y1870371D2*
X2630224D1*
X2657794Y1949091D2*
Y2027861D1*
X2630224Y2106606D2*
X2464869D1*
X2421544Y2027861D2*
Y1949091D1*
X2480623Y1988476D2*
G02X2480623Y1988476I59046J0D01*
G01*
X1760146Y1279827D2*
G02X1760146Y1279827I70862J0D01*
G01*
X1740453Y1161709D2*
X1921563D1*
X1949133Y1240430D2*
Y1319199D1*
X1921563Y1397944D2*
X1756207D1*
X1712883Y1319199D2*
Y1240430D1*
X1771961Y1279815D2*
G02X1771961Y1279815I59046J0D01*
G01*
X2468807Y1279827D2*
G02X2468807Y1279827I70862J0D01*
G01*
X2449114Y1161709D2*
X2630224D1*
X2657794Y1240430D2*
Y1319199D1*
X2630224Y1397944D2*
X2464869D1*
X2421544Y1319199D2*
Y1240430D1*
X2480623Y1279815D2*
G02X2480623Y1279815I59046J0D01*
G01*
X1051484Y571165D2*
G02X1051484Y571165I70862J0D01*
G01*
X1031791Y453048D2*
X1212902D1*
X1240472Y531769D2*
Y610538D1*
X1212902Y689283D2*
X1047546D1*
X1004221Y610538D2*
Y531769D1*
X1063300Y571153D2*
G02X1063300Y571153I59046J0D01*
G01*
X1760146Y571165D2*
G02X1760146Y571165I70862J0D01*
G01*
X1740453Y453048D2*
X1921563D1*
X1949133Y531769D2*
Y610538D1*
X1921563Y689283D2*
X1756207D1*
X1712883Y610538D2*
Y531769D1*
X1771961Y571153D2*
G02X1771961Y571153I59046J0D01*
G01*
X2468807Y571165D2*
G02X2468807Y571165I70862J0D01*
G01*
X2449114Y453048D2*
X2630224D1*
X2657794Y531769D2*
Y610538D1*
X2630224Y689283D2*
X2464869D1*
X2421544Y610538D2*
Y531769D1*
X2480623Y571153D2*
G02X2480623Y571153I59046J0D01*
G01*
X1051484Y1279827D2*
G02X1051484Y1279827I70862J0D01*
G01*
X1031791Y1161709D2*
X1212902D1*
X1240472Y1240430D2*
Y1319199D1*
X1212902Y1397944D2*
X1047546D1*
X1004221Y1319199D2*
Y1240430D1*
X1063300Y1279815D2*
G02X1063300Y1279815I59046J0D01*
G01*
X735253Y892648D2*
X672324D1*
X735253Y885199D2*
X672324D1*
X735253D2*
Y908759D1*
X672324Y885199D2*
Y908759D1*
X1039550Y993486D2*
Y969927D1*
X1102479Y993486D2*
Y969927D1*
X1363547Y988774D2*
Y965215D1*
X1426476Y988774D2*
Y965215D1*
X2272720Y1051664D2*
D12*
X2289220D1*
X2332720D2*
X2347720D1*
X2406220D2*
X2422720D1*
X2559220D2*
X2577220D1*
X2679220D2*
X2694220D1*
X2746720D2*
X2758720D1*
X2805220D2*
X2820220D1*
X2868220D2*
X2883220D1*
X2199220Y1050164D2*
X2211220D1*
X2268753D2*
X2293825D1*
X2329323D2*
X2351118D1*
X2402072D2*
X2428024D1*
X2448220D2*
X2458720D1*
X2503720D2*
X2514220D1*
X2554329D2*
X2581605D1*
X2674681D2*
X2697850D1*
X2743323D2*
X2762118D1*
X2800681D2*
X2823850D1*
X2863681D2*
X2886850D1*
X2198471Y1048664D2*
X2211790D1*
X2265306D2*
X2297942D1*
X2326515D2*
X2353926D1*
X2398393D2*
X2432624D1*
X2449151D2*
X2459702D1*
X2502739D2*
X2513239D1*
X2550079D2*
X2585461D1*
X2671246D2*
X2701024D1*
X2740515D2*
X2764926D1*
X2797246D2*
X2827024D1*
X2860246D2*
X2890024D1*
X2197848Y1047164D2*
X2212429D1*
X2262442D2*
X2301267D1*
X2324294D2*
X2356147D1*
X2395309D2*
X2436358D1*
X2450012D2*
X2460703D1*
X2501738D2*
X2512238D1*
X2546603D2*
X2588838D1*
X2668740D2*
X2703580D1*
X2738294D2*
X2767141D1*
X2794740D2*
X2829580D1*
X2857740D2*
X2892580D1*
X2197264Y1045664D2*
X2213079D1*
X2260070D2*
X2303881D1*
X2322460D2*
X2357981D1*
X2392700D2*
X2439052D1*
X2450862D2*
X2461721D1*
X2500720D2*
X2511220D1*
X2543819D2*
X2559810D1*
X2576631D2*
X2591788D1*
X2667944D2*
X2705486D1*
X2736460D2*
X2768928D1*
X2793944D2*
X2831486D1*
X2856944D2*
X2894486D1*
X2196730Y1044164D2*
X2213663D1*
X2258098D2*
X2304991D1*
X2320868D2*
X2334515D1*
X2345926D2*
X2359573D1*
X2390465D2*
X2441010D1*
X2451778D2*
X2462662D1*
X2499779D2*
X2510279D1*
X2541477D2*
X2555061D1*
X2581380D2*
X2594310D1*
X2667523D2*
X2706858D1*
X2734868D2*
X2770376D1*
X2793523D2*
X2832858D1*
X2856523D2*
X2895858D1*
X2196233Y1042664D2*
X2214182D1*
X2256380D2*
X2274578D1*
X2287426D2*
X2305382D1*
X2319508D2*
X2332144D1*
X2348297D2*
X2360933D1*
X2388562D2*
X2406753D1*
X2420631D2*
X2441641D1*
X2452753D2*
X2463520D1*
X2498921D2*
X2509421D1*
X2539316D2*
X2551109D1*
X2585326D2*
X2596537D1*
X2667337D2*
X2681309D1*
X2692426D2*
X2707897D1*
X2733508D2*
X2747021D1*
X2757100D2*
X2771521D1*
X2793337D2*
X2807316D1*
X2818426D2*
X2833897D1*
X2856337D2*
X2870316D1*
X2881426D2*
X2896897D1*
X2195667Y1041164D2*
X2214714D1*
X2254838D2*
X2270952D1*
X2291297D2*
X2305582D1*
X2318405D2*
X2330194D1*
X2350241D2*
X2362036D1*
X2386918D2*
X2403306D1*
X2425380D2*
X2441977D1*
X2453675D2*
X2464367D1*
X2498074D2*
X2508574D1*
X2537304D2*
X2547819D1*
X2588563D2*
X2598646D1*
X2667263D2*
X2676544D1*
X2694797D2*
X2708765D1*
X2732405D2*
X2744697D1*
X2759651D2*
X2772460D1*
X2793263D2*
X2802618D1*
X2820797D2*
X2834765D1*
X2856263D2*
X2865618D1*
X2883797D2*
X2897765D1*
X2195022Y1039664D2*
X2215225D1*
X2253492D2*
X2268059D1*
X2294741D2*
X2305668D1*
X2317532D2*
X2328648D1*
X2351741D2*
X2362909D1*
X2385524D2*
X2400442D1*
X2429326D2*
X2442126D1*
X2454519D2*
X2465280D1*
X2497161D2*
X2507661D1*
X2535493D2*
X2545026D1*
X2591165D2*
X2600587D1*
X2667235D2*
X2672471D1*
X2696747D2*
X2709515D1*
X2731526D2*
X2742891D1*
X2761630D2*
X2773288D1*
X2793235D2*
X2798842D1*
X2822747D2*
X2835515D1*
X2856235D2*
X2861842D1*
X2885747D2*
X2898515D1*
X2194367Y1038164D2*
X2215708D1*
X2252343D2*
X2265809D1*
X2297735D2*
X2305702D1*
X2316894D2*
X2327460D1*
X2352790D2*
X2363541D1*
X2384355D2*
X2398076D1*
X2432563D2*
X2442186D1*
X2455315D2*
X2466254D1*
X2496187D2*
X2506687D1*
X2533842D2*
X2542577D1*
X2593255D2*
X2602201D1*
X2667220D2*
X2668720D1*
X2698293D2*
X2710140D1*
X2730842D2*
X2741566D1*
X2763054D2*
X2774023D1*
X2793225D2*
X2795845D1*
X2824293D2*
X2836140D1*
X2856225D2*
X2858845D1*
X2887293D2*
X2899140D1*
X2193780Y1036664D2*
X2202215D1*
X2206778D2*
X2216223D1*
X2251275D2*
X2263965D1*
X2300237D2*
X2305714D1*
X2316473D2*
X2326553D1*
X2353529D2*
X2363909D1*
X2383285D2*
X2396156D1*
X2435165D2*
X2442208D1*
X2456089D2*
X2467175D1*
X2495266D2*
X2505766D1*
X2532324D2*
X2540416D1*
X2595031D2*
X2603497D1*
X2699481D2*
X2710674D1*
X2730282D2*
X2740589D1*
X2764120D2*
X2774642D1*
X2793220D2*
D3*
X2825481D2*
X2836674D1*
X2856220D2*
D3*
X2888481D2*
X2899674D1*
X2193260Y1035164D2*
X2202162D1*
X2206970D2*
X2216728D1*
X2250232D2*
X2262370D1*
X2302321D2*
X2305718D1*
X2316101D2*
X2325907D1*
X2354149D2*
X2364090D1*
X2382286D2*
X2394624D1*
X2437257D2*
X2442216D1*
X2456895D2*
X2468019D1*
X2494422D2*
X2504916D1*
X2530987D2*
X2538543D1*
X2596648D2*
X2604676D1*
X2700388D2*
X2711205D1*
X2729742D2*
X2739865D1*
X2764958D2*
X2775175D1*
X2826388D2*
X2837205D1*
X2889388D2*
X2900205D1*
X2192728Y1033664D2*
X2201971D1*
X2207335D2*
X2217209D1*
X2249289D2*
X2261009D1*
X2304220D2*
X2305720D1*
X2315668D2*
X2325540D1*
X2354645D2*
X2364170D1*
X2381480D2*
X2393394D1*
X2439045D2*
X2442219D1*
X2457790D2*
X2468815D1*
X2493626D2*
X2504073D1*
X2529841D2*
X2536911D1*
X2598194D2*
X2605890D1*
X2701034D2*
X2711665D1*
X2729272D2*
X2739290D1*
X2765618D2*
X2775705D1*
X2827034D2*
X2837665D1*
X2890034D2*
X2900665D1*
X2192216Y1032164D2*
X2201606D1*
X2207773D2*
X2217724D1*
X2248480D2*
X2259899D1*
X2315304D2*
X2325410D1*
X2354945D2*
X2364202D1*
X2380840D2*
X2392300D1*
X2440720D2*
X2442220D1*
X2458758D2*
X2469589D1*
X2492852D2*
X2503161D1*
X2528775D2*
X2535521D1*
X2599705D2*
X2607070D1*
X2701406D2*
X2711958D1*
X2728925D2*
X2738744D1*
X2766166D2*
X2776165D1*
X2827406D2*
X2837958D1*
X2890406D2*
X2900958D1*
X2191733Y1030664D2*
X2201168D1*
X2208225D2*
X2218229D1*
X2247825D2*
X2258974D1*
X2315222D2*
X2325527D1*
X2355047D2*
X2364214D1*
X2380209D2*
X2391292D1*
X2459676D2*
X2470395D1*
X2492046D2*
X2502187D1*
X2527732D2*
X2534354D1*
X2563720D2*
X2575720D1*
X2601159D2*
X2608146D1*
X2701590D2*
X2712108D1*
X2728583D2*
X2738278D1*
X2766702D2*
X2776464D1*
X2827590D2*
X2838108D1*
X2890590D2*
X2901108D1*
X2191218Y1029164D2*
X2200716D1*
X2208730D2*
X2218709D1*
X2247276D2*
X2258150D1*
X2315437D2*
X2325913D1*
X2354926D2*
X2364212D1*
X2379538D2*
X2390482D1*
X2460525D2*
X2471290D1*
X2491151D2*
X2501266D1*
X2526783D2*
X2533279D1*
X2560091D2*
X2579516D1*
X2602470D2*
X2609183D1*
X2701670D2*
X2712170D1*
X2728156D2*
X2737984D1*
X2767164D2*
X2776667D1*
X2827670D2*
X2838170D1*
X2890670D2*
X2901170D1*
X2190712Y1027664D2*
X2200211D1*
X2209231D2*
X2219224D1*
X2246739D2*
X2257423D1*
X2315763D2*
X2326535D1*
X2354589D2*
X2364161D1*
X2378879D2*
X2389846D1*
X2461368D2*
X2472258D1*
X2490183D2*
X2500416D1*
X2525928D2*
X2532234D1*
X2556917D2*
X2582569D1*
X2603605D2*
X2610215D1*
X2701696D2*
X2712145D1*
X2727743D2*
X2737827D1*
X2767457D2*
X2776926D1*
X2827696D2*
X2838145D1*
X2890696D2*
X2901145D1*
X2190232Y1026164D2*
X2199710D1*
X2209710D2*
X2219729D1*
X2246271D2*
X2256851D1*
X2316050D2*
X2327401D1*
X2354162D2*
X2363965D1*
X2378335D2*
X2389262D1*
X2462280D2*
X2473176D1*
X2489265D2*
X2499573D1*
X2525128D2*
X2531283D1*
X2554361D2*
X2583873D1*
X2604668D2*
X2611155D1*
X2701655D2*
X2711965D1*
X2727471D2*
X2737706D1*
X2767608D2*
X2777313D1*
X2827655D2*
X2837965D1*
X2890655D2*
X2900965D1*
X2189717Y1024664D2*
X2199231D1*
X2210224D2*
X2220209D1*
X2245925D2*
X2256457D1*
X2316376D2*
X2328538D1*
X2353708D2*
X2363547D1*
X2377951D2*
X2388729D1*
X2463254D2*
X2474025D1*
X2488415D2*
X2498661D1*
X2524358D2*
X2530428D1*
X2552449D2*
X2584328D1*
X2605710D2*
X2611961D1*
X2701468D2*
X2711609D1*
X2727328D2*
X2737487D1*
X2767676D2*
X2777708D1*
X2827468D2*
X2837609D1*
X2890468D2*
X2900609D1*
X2189212Y1023164D2*
X2198717D1*
X2210729D2*
X2220724D1*
X2245583D2*
X2256095D1*
X2316854D2*
X2329915D1*
X2353152D2*
X2362919D1*
X2377593D2*
X2388238D1*
X2464175D2*
X2474868D1*
X2487573D2*
X2497687D1*
X2523605D2*
X2529628D1*
X2551030D2*
X2564015D1*
X2575445D2*
X2584561D1*
X2606653D2*
X2612617D1*
X2701105D2*
X2711220D1*
X2727263D2*
X2737117D1*
X2767704D2*
X2777974D1*
X2827105D2*
X2837220D1*
X2890105D2*
X2900220D1*
X2188732Y1021664D2*
X2198212D1*
X2211209D2*
X2221229D1*
X2245156D2*
X2255660D1*
X2317513D2*
X2331585D1*
X2352455D2*
X2362101D1*
X2377159D2*
X2387725D1*
X2465025D2*
X2475780D1*
X2486661D2*
X2496766D1*
X2522900D2*
X2528858D1*
X2549853D2*
X2561644D1*
X2579418D2*
X2584664D1*
X2607461D2*
X2613165D1*
X2700668D2*
X2710906D1*
X2727231D2*
X2736729D1*
X2767715D2*
X2778114D1*
X2826668D2*
X2836906D1*
X2889668D2*
X2899906D1*
X2188217Y1020164D2*
X2197732D1*
X2211724D2*
X2221709D1*
X2244743D2*
X2255245D1*
X2318393D2*
X2333680D1*
X2351540D2*
X2361159D1*
X2376745D2*
X2387272D1*
X2465868D2*
X2476766D1*
X2485675D2*
X2495916D1*
X2522292D2*
X2528105D1*
X2548811D2*
X2559694D1*
X2583220D2*
X2584720D1*
X2608116D2*
X2613701D1*
X2700210D2*
X2710576D1*
X2727168D2*
X2736466D1*
X2767718D2*
X2778178D1*
X2826210D2*
X2836576D1*
X2889210D2*
X2899576D1*
X2187712Y1018664D2*
X2197217D1*
X2212229D2*
X2222224D1*
X2244471D2*
X2254972D1*
X2319536D2*
X2336333D1*
X2350226D2*
X2360194D1*
X2376472D2*
X2386982D1*
X2466780D2*
X2477796D1*
X2484645D2*
X2495073D1*
X2521764D2*
X2527406D1*
X2547989D2*
X2558148D1*
X2608665D2*
X2614170D1*
X2699653D2*
X2710148D1*
X2726973D2*
X2736326D1*
X2767726D2*
X2778205D1*
X2825653D2*
X2836148D1*
X2888653D2*
X2899148D1*
X2187232Y1017164D2*
X2196712D1*
X2212709D2*
X2222729D1*
X2244328D2*
X2254828D1*
X2320903D2*
X2339779D1*
X2348208D2*
X2359105D1*
X2376328D2*
X2386832D1*
X2467754D2*
X2479065D1*
X2483375D2*
X2494161D1*
X2521235D2*
X2526845D1*
X2547349D2*
X2556960D1*
X2609201D2*
X2614516D1*
X2698961D2*
X2709678D1*
X2726612D2*
X2736263D1*
X2767779D2*
X2778215D1*
X2824961D2*
X2835678D1*
X2887961D2*
X2898678D1*
X2186717Y1015664D2*
X2196232D1*
X2213224D2*
X2223209D1*
X2244263D2*
X2254763D1*
X2322459D2*
X2344206D1*
X2345251D2*
X2357706D1*
X2376263D2*
X2386765D1*
X2468675D2*
X2480763D1*
X2481678D2*
X2493181D1*
X2520775D2*
X2526455D1*
X2546769D2*
X2556053D1*
X2609664D2*
X2614858D1*
X2698116D2*
X2709163D1*
X2726227D2*
X2736236D1*
X2767970D2*
X2778219D1*
X2824116D2*
X2835163D1*
X2887116D2*
X2898163D1*
X2186212Y1014164D2*
X2195717D1*
X2213729D2*
X2223724D1*
X2244236D2*
X2254736D1*
X2324067D2*
X2355986D1*
X2376236D2*
X2386737D1*
X2469525D2*
X2492213D1*
X2520483D2*
X2526094D1*
X2546282D2*
X2555407D1*
X2609963D2*
X2615285D1*
X2697165D2*
X2708463D1*
X2725965D2*
X2736226D1*
X2768329D2*
X2778220D1*
X2823165D2*
X2834463D1*
X2886165D2*
X2897463D1*
X2185732Y1012664D2*
X2195212D1*
X2214209D2*
X2224229D1*
X2244226D2*
X2254726D1*
X2325488D2*
X2354110D1*
X2376226D2*
X2386726D1*
X2470368D2*
X2491225D1*
X2520333D2*
X2525660D1*
X2545929D2*
X2555034D1*
X2610167D2*
X2615698D1*
X2696201D2*
X2707596D1*
X2725826D2*
X2736222D1*
X2768714D2*
X2778220D1*
X2822201D2*
X2833596D1*
X2885201D2*
X2896596D1*
X2185217Y1011164D2*
X2194732D1*
X2214724D2*
X2224709D1*
X2244222D2*
X2254722D1*
X2326720D2*
X2352220D1*
X2376222D2*
X2386722D1*
X2471280D2*
X2490214D1*
X2520265D2*
X2525245D1*
X2545584D2*
X2554846D1*
X2610426D2*
X2615970D1*
X2695170D2*
X2706679D1*
X2725763D2*
X2736221D1*
X2768976D2*
X2778220D1*
X2821170D2*
X2832679D1*
X2884170D2*
X2895679D1*
X2184712Y1009664D2*
X2194217D1*
X2215229D2*
X2225224D1*
X2244221D2*
X2254721D1*
X2324528D2*
X2354645D1*
X2376221D2*
X2386721D1*
X2472254D2*
X2489276D1*
X2520237D2*
X2524972D1*
X2545156D2*
X2554713D1*
X2610813D2*
X2616113D1*
X2694016D2*
X2705712D1*
X2725736D2*
X2736221D1*
X2769109D2*
X2778220D1*
X2820016D2*
X2831712D1*
X2883016D2*
X2894712D1*
X2184232Y1008164D2*
X2193712D1*
X2215709D2*
X2225729D1*
X2244221D2*
X2254721D1*
X2322597D2*
X2333021D1*
X2335426D2*
X2356947D1*
X2376221D2*
X2386721D1*
X2412220D2*
X2442220D1*
X2473175D2*
X2488425D1*
X2520226D2*
X2524828D1*
X2544744D2*
X2554495D1*
X2611208D2*
X2616178D1*
X2692858D2*
X2704703D1*
X2725726D2*
X2736221D1*
X2769120D2*
X2778220D1*
X2818858D2*
X2830703D1*
X2881858D2*
X2893703D1*
X2183717Y1006664D2*
X2193232D1*
X2216224D2*
X2226209D1*
X2244221D2*
X2254721D1*
X2320885D2*
X2330697D1*
X2339303D2*
X2359048D1*
X2376221D2*
X2386721D1*
X2412220D2*
X2442220D1*
X2474019D2*
X2487633D1*
X2520222D2*
X2524763D1*
X2544471D2*
X2554177D1*
X2611474D2*
X2616205D1*
X2691785D2*
X2703716D1*
X2725728D2*
X2736220D1*
X2768955D2*
X2778220D1*
X2817785D2*
X2829716D1*
X2880785D2*
X2892716D1*
X2183212Y1005164D2*
X2192723D1*
X2216734D2*
X2226724D1*
X2244220D2*
X2254720D1*
X2319341D2*
X2328891D1*
X2342799D2*
X2360855D1*
X2376220D2*
X2386720D1*
X2412220D2*
X2442220D1*
X2474810D2*
X2486917D1*
X2520221D2*
X2524736D1*
X2544334D2*
X2553979D1*
X2611608D2*
X2616215D1*
X2690698D2*
X2702669D1*
X2725780D2*
X2736220D1*
X2768606D2*
X2778220D1*
X2816698D2*
X2828669D1*
X2879698D2*
X2891669D1*
X2182732Y1003664D2*
X2192271D1*
X2217273D2*
X2227229D1*
X2244220D2*
X2254720D1*
X2317999D2*
X2327560D1*
X2345984D2*
X2362336D1*
X2376220D2*
X2386720D1*
X2412220D2*
X2442220D1*
X2475525D2*
X2486355D1*
X2520221D2*
X2524726D1*
X2544322D2*
X2554075D1*
X2611620D2*
X2616219D1*
X2689470D2*
X2701459D1*
X2725970D2*
X2736220D1*
X2768225D2*
X2778220D1*
X2815470D2*
X2827459D1*
X2878470D2*
X2890459D1*
X2182217Y1002164D2*
X2191980D1*
X2218027D2*
X2227709D1*
X2244220D2*
X2254726D1*
X2316902D2*
X2326536D1*
X2348834D2*
X2363497D1*
X2376220D2*
X2386726D1*
X2412220D2*
X2442220D1*
X2476086D2*
X2486015D1*
X2520221D2*
X2524722D1*
X2544486D2*
X2554320D1*
X2611455D2*
X2616220D1*
X2688113D2*
X2700109D1*
X2726330D2*
X2736220D1*
X2767965D2*
X2778220D1*
X2814113D2*
X2826109D1*
X2877113D2*
X2889109D1*
X2181712Y1000664D2*
X2191823D1*
X2219056D2*
X2228224D1*
X2244226D2*
X2254779D1*
X2316025D2*
X2325673D1*
X2351209D2*
X2364394D1*
X2376226D2*
X2386779D1*
X2412220D2*
X2442220D1*
X2476426D2*
X2485845D1*
X2520220D2*
X2524727D1*
X2544835D2*
X2554518D1*
X2611106D2*
X2616220D1*
X2686678D2*
X2698676D1*
X2726714D2*
X2736220D1*
X2767826D2*
X2778220D1*
X2812678D2*
X2824676D1*
X2875678D2*
X2887676D1*
X2181232Y999164D2*
X2228729D1*
X2244279D2*
X2254970D1*
X2315341D2*
X2324931D1*
X2352987D2*
X2365041D1*
X2376279D2*
X2386970D1*
X2431720D2*
X2442220D1*
X2476596D2*
X2485769D1*
X2520220D2*
X2524779D1*
X2545216D2*
X2554636D1*
X2610725D2*
X2616215D1*
X2685210D2*
X2697204D1*
X2726976D2*
X2736226D1*
X2767762D2*
X2778220D1*
X2811210D2*
X2823204D1*
X2874210D2*
X2886204D1*
X2180717Y997664D2*
X2229209D1*
X2244470D2*
X2255329D1*
X2314782D2*
X2324360D1*
X2354181D2*
X2365466D1*
X2376470D2*
X2387335D1*
X2431720D2*
X2442220D1*
X2476672D2*
X2485738D1*
X2520220D2*
X2524970D1*
X2545482D2*
X2554743D1*
X2610465D2*
X2616162D1*
X2683773D2*
X2695715D1*
X2727115D2*
X2736279D1*
X2767736D2*
X2778215D1*
X2809773D2*
X2821715D1*
X2872773D2*
X2884715D1*
X2180212Y996164D2*
X2229724D1*
X2244835D2*
X2255720D1*
X2314242D2*
X2324017D1*
X2354986D2*
X2365840D1*
X2376835D2*
X2387773D1*
X2431720D2*
X2442220D1*
X2476702D2*
X2485727D1*
X2520226D2*
X2525330D1*
X2545674D2*
X2554962D1*
X2610320D2*
X2615971D1*
X2682468D2*
X2694224D1*
X2727178D2*
X2736470D1*
X2767726D2*
X2778162D1*
X2808468D2*
X2820224D1*
X2871468D2*
X2883224D1*
X2179732Y994664D2*
X2230229D1*
X2245273D2*
X2256034D1*
X2313777D2*
X2323845D1*
X2355633D2*
X2366279D1*
X2377273D2*
X2388225D1*
X2431720D2*
X2442220D1*
X2476714D2*
X2485723D1*
X2520279D2*
X2525720D1*
X2545934D2*
X2555389D1*
X2610204D2*
X2615611D1*
X2681329D2*
X2692773D1*
X2727211D2*
X2736829D1*
X2767722D2*
X2777971D1*
X2807329D2*
X2818773D1*
X2870329D2*
X2881773D1*
X2179217Y993164D2*
X2230709D1*
X2245725D2*
X2256370D1*
X2313484D2*
X2323769D1*
X2356139D2*
X2366695D1*
X2377725D2*
X2388730D1*
X2431720D2*
X2442220D1*
X2476718D2*
X2485721D1*
X2520470D2*
X2526034D1*
X2546372D2*
X2556027D1*
X2609986D2*
X2615221D1*
X2680214D2*
X2691411D1*
X2727273D2*
X2737214D1*
X2767715D2*
X2777611D1*
X2806214D2*
X2817411D1*
X2869214D2*
X2880411D1*
X2178712Y991664D2*
X2231224D1*
X2246230D2*
X2256846D1*
X2313333D2*
X2323738D1*
X2356448D2*
X2366963D1*
X2378230D2*
X2389236D1*
X2431720D2*
X2442220D1*
X2476720D2*
X2485721D1*
X2520835D2*
X2526370D1*
X2546964D2*
X2556904D1*
X2609611D2*
X2614907D1*
X2678976D2*
X2690080D1*
X2727468D2*
X2737482D1*
X2767662D2*
X2777227D1*
X2804976D2*
X2816080D1*
X2867976D2*
X2879080D1*
X2178232Y990164D2*
X2187163D1*
X2221778D2*
X2231729D1*
X2246731D2*
X2257454D1*
X2313271D2*
X2323733D1*
X2356599D2*
X2367054D1*
X2378731D2*
X2389768D1*
X2431720D2*
X2442220D1*
X2476720D2*
X2485721D1*
X2521273D2*
X2526846D1*
X2547647D2*
X2558137D1*
X2609170D2*
X2614576D1*
X2677615D2*
X2688605D1*
X2727829D2*
X2737673D1*
X2767471D2*
X2776959D1*
X2803615D2*
X2814605D1*
X2866615D2*
X2877605D1*
X2177717Y988664D2*
X2186971D1*
X2221970D2*
X2232209D1*
X2247216D2*
X2258144D1*
X2313296D2*
X2323781D1*
X2356617D2*
X2366928D1*
X2379216D2*
X2390474D1*
X2431720D2*
X2442220D1*
X2476720D2*
X2485720D1*
X2521731D2*
X2527454D1*
X2548422D2*
X2559678D1*
X2583220D2*
X2584720D1*
X2608710D2*
X2614148D1*
X2676178D2*
X2686982D1*
X2728220D2*
X2737928D1*
X2767106D2*
X2776768D1*
X2802178D2*
X2812982D1*
X2865178D2*
X2875982D1*
X2177212Y987164D2*
X2186612D1*
X2222335D2*
X2232724D1*
X2247777D2*
X2258921D1*
X2313476D2*
X2323977D1*
X2356448D2*
X2366595D1*
X2379777D2*
X2391344D1*
X2431720D2*
X2442220D1*
X2476720D2*
X2485720D1*
X2522282D2*
X2528138D1*
X2549362D2*
X2563645D1*
X2577488D2*
X2584720D1*
X2608153D2*
X2613684D1*
X2674705D2*
X2685360D1*
X2728534D2*
X2738320D1*
X2766668D2*
X2776513D1*
X2800705D2*
X2811360D1*
X2863705D2*
X2874360D1*
X2176732Y985664D2*
X2186221D1*
X2222773D2*
X2233229D1*
X2248426D2*
X2259856D1*
X2313837D2*
X2324394D1*
X2356047D2*
X2366215D1*
X2380426D2*
X2392267D1*
X2431720D2*
X2442220D1*
X2476720D2*
X2485720D1*
X2522928D2*
X2528862D1*
X2550574D2*
X2569741D1*
X2569767D2*
X2584709D1*
X2607461D2*
X2613215D1*
X2673209D2*
X2683784D1*
X2728865D2*
X2738767D1*
X2766210D2*
X2776121D1*
X2799209D2*
X2809784D1*
X2862209D2*
X2872784D1*
X2176217Y984164D2*
X2185907D1*
X2223225D2*
X2233709D1*
X2249133D2*
X2261016D1*
X2304220D2*
X2305720D1*
X2314273D2*
X2325028D1*
X2355469D2*
X2365905D1*
X2381133D2*
X2393293D1*
X2431720D2*
X2442220D1*
X2476720D2*
X2485720D1*
X2523628D2*
X2529606D1*
X2552106D2*
X2584586D1*
X2606616D2*
X2612655D1*
X2671666D2*
X2682247D1*
X2729293D2*
X2739229D1*
X2765659D2*
X2775674D1*
X2797666D2*
X2808247D1*
X2860666D2*
X2871247D1*
X2175712Y982664D2*
X2185576D1*
X2223730D2*
X2234224D1*
X2249917D2*
X2262351D1*
X2302477D2*
X2305720D1*
X2314732D2*
X2325899D1*
X2354785D2*
X2365570D1*
X2381917D2*
X2394552D1*
X2431715D2*
X2442220D1*
X2476720D2*
X2485720D1*
X2524358D2*
X2530401D1*
X2554004D2*
X2584287D1*
X2605665D2*
X2611961D1*
X2670029D2*
X2680731D1*
X2729757D2*
X2739788D1*
X2765007D2*
X2775212D1*
X2796029D2*
X2806731D1*
X2859029D2*
X2869731D1*
X2175232Y981164D2*
X2185148D1*
X2224231D2*
X2234729D1*
X2250855D2*
X2263839D1*
X2300488D2*
X2305720D1*
X2315282D2*
X2327037D1*
X2353954D2*
X2365089D1*
X2382855D2*
X2396154D1*
X2431638D2*
X2442220D1*
X2476720D2*
X2485720D1*
X2525105D2*
X2531293D1*
X2556326D2*
X2582655D1*
X2604701D2*
X2611117D1*
X2668367D2*
X2679224D1*
X2730226D2*
X2740492D1*
X2764243D2*
X2774659D1*
X2794367D2*
X2805224D1*
X2857367D2*
X2868224D1*
X2174717Y979664D2*
X2184684D1*
X2224710D2*
X2235209D1*
X2252015D2*
X2265664D1*
X2298053D2*
X2305720D1*
X2315928D2*
X2328456D1*
X2352958D2*
X2364428D1*
X2384015D2*
X2398311D1*
X2431445D2*
X2442220D1*
X2476720D2*
X2485720D1*
X2525900D2*
X2532264D1*
X2559124D2*
X2580175D1*
X2603664D2*
X2610165D1*
X2666900D2*
X2677722D1*
X2730786D2*
X2741483D1*
X2763175D2*
X2774014D1*
X2792900D2*
X2803722D1*
X2855900D2*
X2866722D1*
X2174212Y978164D2*
X2184221D1*
X2225224D2*
X2235724D1*
X2253345D2*
X2268468D1*
X2294616D2*
X2305715D1*
X2316633D2*
X2330526D1*
X2350618D2*
X2363548D1*
X2385345D2*
X2401598D1*
X2430089D2*
X2442215D1*
X2476720D2*
X2485720D1*
X2526792D2*
X2533235D1*
X2562220D2*
X2577220D1*
X2602457D2*
X2609201D1*
X2665773D2*
X2676221D1*
X2731486D2*
X2742802D1*
X2761742D2*
X2773308D1*
X2791773D2*
X2802221D1*
X2854773D2*
X2865221D1*
X2173732Y976664D2*
X2183713D1*
X2225729D2*
X2236229D1*
X2254769D2*
X2273414D1*
X2289137D2*
X2305650D1*
X2317417D2*
X2334220D1*
X2346632D2*
X2362411D1*
X2386775D2*
X2407263D1*
X2424320D2*
X2442150D1*
X2476720D2*
X2485720D1*
X2527764D2*
X2534275D1*
X2601108D2*
X2608170D1*
X2665005D2*
X2674721D1*
X2732383D2*
X2746431D1*
X2757857D2*
X2772524D1*
X2791005D2*
X2800721D1*
X2854005D2*
X2863721D1*
X2173217Y975164D2*
X2183211D1*
X2226209D2*
X2236709D1*
X2256244D2*
X2281217D1*
X2280981D2*
X2305492D1*
X2318361D2*
X2340257D1*
X2340367D2*
X2361085D1*
X2388303D2*
X2416237D1*
X2414909D2*
X2441992D1*
X2476720D2*
X2485720D1*
X2528735D2*
X2535489D1*
X2599676D2*
X2607016D1*
X2664574D2*
X2715220D1*
X2733526D2*
X2751963D1*
X2752131D2*
X2771586D1*
X2790574D2*
X2841220D1*
X2853574D2*
X2904220D1*
X2172712Y973664D2*
X2182731D1*
X2226724D2*
X2237224D1*
X2257797D2*
X2304733D1*
X2319580D2*
X2359606D1*
X2390041D2*
X2441210D1*
X2476720D2*
X2485720D1*
X2529775D2*
X2536891D1*
X2598204D2*
X2605858D1*
X2664366D2*
X2715220D1*
X2734854D2*
X2770420D1*
X2790366D2*
X2841220D1*
X2853366D2*
X2904220D1*
X2172231Y972164D2*
X2182223D1*
X2227233D2*
X2237733D1*
X2259601D2*
X2302880D1*
X2321165D2*
X2357882D1*
X2392158D2*
X2439133D1*
X2476720D2*
X2485720D1*
X2530983D2*
X2538520D1*
X2596709D2*
X2604779D1*
X2664277D2*
X2715220D1*
X2736341D2*
X2769026D1*
X2790277D2*
X2841220D1*
X2853277D2*
X2904220D1*
X2171709Y970664D2*
X2181767D1*
X2227755D2*
X2238255D1*
X2261958D2*
X2300334D1*
X2323255D2*
X2355728D1*
X2394764D2*
X2436164D1*
X2476720D2*
X2485720D1*
X2532338D2*
X2540410D1*
X2595154D2*
X2603639D1*
X2664241D2*
X2715220D1*
X2738116D2*
X2767295D1*
X2790241D2*
X2841220D1*
X2853241D2*
X2904220D1*
X2171192Y969164D2*
X2181454D1*
X2228426D2*
X2238926D1*
X2265053D2*
X2297069D1*
X2325948D2*
X2353008D1*
X2397982D2*
X2432277D1*
X2476720D2*
X2485720D1*
X2533823D2*
X2542534D1*
X2593406D2*
X2602220D1*
X2664227D2*
X2715220D1*
X2740439D2*
X2764990D1*
X2790227D2*
X2841220D1*
X2853227D2*
X2904220D1*
X2170720Y967664D2*
X2181220D1*
X2229220D2*
X2239720D1*
X2268756D2*
X2293260D1*
X2329193D2*
X2349753D1*
X2401898D2*
X2427670D1*
X2476720D2*
X2485720D1*
X2535493D2*
X2544913D1*
X2591285D2*
X2600498D1*
X2664220D2*
X2715220D1*
X2743407D2*
X2762030D1*
X2790220D2*
X2841220D1*
X2853220D2*
X2904220D1*
X2272720Y966164D2*
X2289220D1*
X2332720D2*
X2346220D1*
X2406220D2*
X2422720D1*
X2537394D2*
X2547726D1*
X2588610D2*
X2598620D1*
X2746720D2*
X2758720D1*
X2539472Y964664D2*
X2551671D1*
X2584728D2*
X2596635D1*
X2541656Y963164D2*
X2558349D1*
X2578076D2*
X2594397D1*
X2543993Y961664D2*
X2568875D1*
X2567560D2*
X2591832D1*
X2546734Y960164D2*
X2588938D1*
X2550227Y958664D2*
X2585570D1*
X2554519Y957164D2*
X2581584D1*
X2559220Y955664D2*
X2577220D1*
X2272720Y1051664D2*
X2268753Y1050164D1*
X2265306Y1048664D1*
X2262442Y1047164D1*
X2260070Y1045664D1*
X2258098Y1044164D1*
X2256380Y1042664D1*
X2254838Y1041164D1*
X2253492Y1039664D1*
X2252343Y1038164D1*
X2251275Y1036664D1*
X2250232Y1035164D1*
X2249289Y1033664D1*
X2248480Y1032164D1*
X2247825Y1030664D1*
X2247276Y1029164D1*
X2246739Y1027664D1*
X2246271Y1026164D1*
X2245925Y1024664D1*
X2245583Y1023164D1*
X2245156Y1021664D1*
X2244743Y1020164D1*
X2244471Y1018664D1*
X2244328Y1017164D1*
X2244263Y1015664D1*
X2244236Y1014164D1*
X2244226Y1012664D1*
X2244222Y1011164D1*
X2244221Y1009664D1*
Y1008164D1*
Y1006664D1*
X2244220Y1005164D1*
Y1003664D1*
Y1002164D1*
X2244226Y1000664D1*
X2244279Y999164D1*
X2244470Y997664D1*
X2244835Y996164D1*
X2245273Y994664D1*
X2245725Y993164D1*
X2246230Y991664D1*
X2246731Y990164D1*
X2247216Y988664D1*
X2247777Y987164D1*
X2248426Y985664D1*
X2249133Y984164D1*
X2249917Y982664D1*
X2250855Y981164D1*
X2252015Y979664D1*
X2253345Y978164D1*
X2254769Y976664D1*
X2256244Y975164D1*
X2257797Y973664D1*
X2259601Y972164D1*
X2261958Y970664D1*
X2265053Y969164D1*
X2268756Y967664D1*
X2272720Y966164D1*
X2289220Y1051664D2*
X2293825Y1050164D1*
X2297942Y1048664D1*
X2301267Y1047164D1*
X2303881Y1045664D1*
X2304991Y1044164D1*
X2305382Y1042664D1*
X2305582Y1041164D1*
X2305668Y1039664D1*
X2305702Y1038164D1*
X2305714Y1036664D1*
X2305718Y1035164D1*
X2305720Y1033664D1*
X2332720Y1051664D2*
X2329323Y1050164D1*
X2326515Y1048664D1*
X2324294Y1047164D1*
X2322460Y1045664D1*
X2320868Y1044164D1*
X2319508Y1042664D1*
X2318405Y1041164D1*
X2317532Y1039664D1*
X2316894Y1038164D1*
X2316473Y1036664D1*
X2316101Y1035164D1*
X2315668Y1033664D1*
X2315304Y1032164D1*
X2315222Y1030664D1*
X2315437Y1029164D1*
X2315763Y1027664D1*
X2316050Y1026164D1*
X2316376Y1024664D1*
X2316854Y1023164D1*
X2317513Y1021664D1*
X2318393Y1020164D1*
X2319536Y1018664D1*
X2320903Y1017164D1*
X2322459Y1015664D1*
X2324067Y1014164D1*
X2325488Y1012664D1*
X2326720Y1011164D1*
X2324528Y1009664D1*
X2322597Y1008164D1*
X2320885Y1006664D1*
X2319341Y1005164D1*
X2317999Y1003664D1*
X2316902Y1002164D1*
X2316025Y1000664D1*
X2315341Y999164D1*
X2314782Y997664D1*
X2314242Y996164D1*
X2313777Y994664D1*
X2313484Y993164D1*
X2313333Y991664D1*
X2313271Y990164D1*
X2313296Y988664D1*
X2313476Y987164D1*
X2313837Y985664D1*
X2314273Y984164D1*
X2314732Y982664D1*
X2315282Y981164D1*
X2315928Y979664D1*
X2316633Y978164D1*
X2317417Y976664D1*
X2318361Y975164D1*
X2319580Y973664D1*
X2321165Y972164D1*
X2323255Y970664D1*
X2325948Y969164D1*
X2329193Y967664D1*
X2332720Y966164D1*
X2347720Y1051664D2*
X2351118Y1050164D1*
X2353926Y1048664D1*
X2356147Y1047164D1*
X2357981Y1045664D1*
X2359573Y1044164D1*
X2360933Y1042664D1*
X2362036Y1041164D1*
X2362909Y1039664D1*
X2363541Y1038164D1*
X2363909Y1036664D1*
X2364090Y1035164D1*
X2364170Y1033664D1*
X2364202Y1032164D1*
X2364214Y1030664D1*
X2364212Y1029164D1*
X2364161Y1027664D1*
X2363965Y1026164D1*
X2363547Y1024664D1*
X2362919Y1023164D1*
X2362101Y1021664D1*
X2361159Y1020164D1*
X2360194Y1018664D1*
X2359105Y1017164D1*
X2357706Y1015664D1*
X2355986Y1014164D1*
X2354110Y1012664D1*
X2352220Y1011164D1*
X2354645Y1009664D1*
X2356947Y1008164D1*
X2359048Y1006664D1*
X2360855Y1005164D1*
X2362336Y1003664D1*
X2363497Y1002164D1*
X2364394Y1000664D1*
X2365041Y999164D1*
X2365466Y997664D1*
X2365840Y996164D1*
X2366279Y994664D1*
X2366695Y993164D1*
X2366963Y991664D1*
X2367054Y990164D1*
X2366928Y988664D1*
X2366595Y987164D1*
X2366215Y985664D1*
X2365905Y984164D1*
X2365570Y982664D1*
X2365089Y981164D1*
X2364428Y979664D1*
X2363548Y978164D1*
X2362411Y976664D1*
X2361085Y975164D1*
X2359606Y973664D1*
X2357882Y972164D1*
X2355728Y970664D1*
X2353008Y969164D1*
X2349753Y967664D1*
X2346220Y966164D1*
X2406220Y1051664D2*
X2402072Y1050164D1*
X2398393Y1048664D1*
X2395309Y1047164D1*
X2392700Y1045664D1*
X2390465Y1044164D1*
X2388562Y1042664D1*
X2386918Y1041164D1*
X2385524Y1039664D1*
X2384355Y1038164D1*
X2383285Y1036664D1*
X2382286Y1035164D1*
X2381480Y1033664D1*
X2380840Y1032164D1*
X2380209Y1030664D1*
X2379538Y1029164D1*
X2378879Y1027664D1*
X2378335Y1026164D1*
X2377951Y1024664D1*
X2377593Y1023164D1*
X2377159Y1021664D1*
X2376745Y1020164D1*
X2376472Y1018664D1*
X2376328Y1017164D1*
X2376263Y1015664D1*
X2376236Y1014164D1*
X2376226Y1012664D1*
X2376222Y1011164D1*
X2376221Y1009664D1*
Y1008164D1*
Y1006664D1*
X2376220Y1005164D1*
Y1003664D1*
Y1002164D1*
X2376226Y1000664D1*
X2376279Y999164D1*
X2376470Y997664D1*
X2376835Y996164D1*
X2377273Y994664D1*
X2377725Y993164D1*
X2378230Y991664D1*
X2378731Y990164D1*
X2379216Y988664D1*
X2379777Y987164D1*
X2380426Y985664D1*
X2381133Y984164D1*
X2381917Y982664D1*
X2382855Y981164D1*
X2384015Y979664D1*
X2385345Y978164D1*
X2386775Y976664D1*
X2388303Y975164D1*
X2390041Y973664D1*
X2392158Y972164D1*
X2394764Y970664D1*
X2397982Y969164D1*
X2401898Y967664D1*
X2406220Y966164D1*
X2422720Y1051664D2*
X2428024Y1050164D1*
X2432624Y1048664D1*
X2436358Y1047164D1*
X2439052Y1045664D1*
X2441010Y1044164D1*
X2441641Y1042664D1*
X2441977Y1041164D1*
X2442126Y1039664D1*
X2442186Y1038164D1*
X2442208Y1036664D1*
X2442216Y1035164D1*
X2442219Y1033664D1*
X2442220Y1032164D1*
X2559220Y1051664D2*
X2554329Y1050164D1*
X2550079Y1048664D1*
X2546603Y1047164D1*
X2543819Y1045664D1*
X2541477Y1044164D1*
X2539316Y1042664D1*
X2537304Y1041164D1*
X2535493Y1039664D1*
X2533842Y1038164D1*
X2532324Y1036664D1*
X2530987Y1035164D1*
X2529841Y1033664D1*
X2528775Y1032164D1*
X2527732Y1030664D1*
X2526783Y1029164D1*
X2525928Y1027664D1*
X2525128Y1026164D1*
X2524358Y1024664D1*
X2523605Y1023164D1*
X2522900Y1021664D1*
X2522292Y1020164D1*
X2521764Y1018664D1*
X2521235Y1017164D1*
X2520775Y1015664D1*
X2520483Y1014164D1*
X2520333Y1012664D1*
X2520265Y1011164D1*
X2520237Y1009664D1*
X2520226Y1008164D1*
X2520222Y1006664D1*
X2520221Y1005164D1*
Y1003664D1*
Y1002164D1*
X2520220Y1000664D1*
Y999164D1*
Y997664D1*
X2520226Y996164D1*
X2520279Y994664D1*
X2520470Y993164D1*
X2520835Y991664D1*
X2521273Y990164D1*
X2521731Y988664D1*
X2522282Y987164D1*
X2522928Y985664D1*
X2523628Y984164D1*
X2524358Y982664D1*
X2525105Y981164D1*
X2525900Y979664D1*
X2526792Y978164D1*
X2527764Y976664D1*
X2528735Y975164D1*
X2529775Y973664D1*
X2530983Y972164D1*
X2532338Y970664D1*
X2533823Y969164D1*
X2535493Y967664D1*
X2537394Y966164D1*
X2539472Y964664D1*
X2541656Y963164D1*
X2543993Y961664D1*
X2546734Y960164D1*
X2550227Y958664D1*
X2554519Y957164D1*
X2559220Y955664D1*
X2577220Y1051664D2*
X2581605Y1050164D1*
X2585461Y1048664D1*
X2588838Y1047164D1*
X2591788Y1045664D1*
X2594310Y1044164D1*
X2596537Y1042664D1*
X2598646Y1041164D1*
X2600587Y1039664D1*
X2602201Y1038164D1*
X2603497Y1036664D1*
X2604676Y1035164D1*
X2605890Y1033664D1*
X2607070Y1032164D1*
X2608146Y1030664D1*
X2609183Y1029164D1*
X2610215Y1027664D1*
X2611155Y1026164D1*
X2611961Y1024664D1*
X2612617Y1023164D1*
X2613165Y1021664D1*
X2613701Y1020164D1*
X2614170Y1018664D1*
X2614516Y1017164D1*
X2614858Y1015664D1*
X2615285Y1014164D1*
X2615698Y1012664D1*
X2615970Y1011164D1*
X2616113Y1009664D1*
X2616178Y1008164D1*
X2616205Y1006664D1*
X2616215Y1005164D1*
X2616219Y1003664D1*
X2616220Y1002164D1*
Y1000664D1*
X2616215Y999164D1*
X2616162Y997664D1*
X2615971Y996164D1*
X2615611Y994664D1*
X2615221Y993164D1*
X2614907Y991664D1*
X2614576Y990164D1*
X2614148Y988664D1*
X2613684Y987164D1*
X2613215Y985664D1*
X2612655Y984164D1*
X2611961Y982664D1*
X2611117Y981164D1*
X2610165Y979664D1*
X2609201Y978164D1*
X2608170Y976664D1*
X2607016Y975164D1*
X2605858Y973664D1*
X2604779Y972164D1*
X2603639Y970664D1*
X2602220Y969164D1*
X2600498Y967664D1*
X2598620Y966164D1*
X2596635Y964664D1*
X2594397Y963164D1*
X2591832Y961664D1*
X2588938Y960164D1*
X2585570Y958664D1*
X2581584Y957164D1*
X2577220Y955664D1*
X2679220Y1051664D2*
X2674681Y1050164D1*
X2671246Y1048664D1*
X2668740Y1047164D1*
X2667944Y1045664D1*
X2667523Y1044164D1*
X2667337Y1042664D1*
X2667263Y1041164D1*
X2667235Y1039664D1*
X2667220Y1038164D1*
X2694220Y1051664D2*
X2697850Y1050164D1*
X2701024Y1048664D1*
X2703580Y1047164D1*
X2705486Y1045664D1*
X2706858Y1044164D1*
X2707897Y1042664D1*
X2708765Y1041164D1*
X2709515Y1039664D1*
X2710140Y1038164D1*
X2710674Y1036664D1*
X2711205Y1035164D1*
X2711665Y1033664D1*
X2711958Y1032164D1*
X2712108Y1030664D1*
X2712170Y1029164D1*
X2712145Y1027664D1*
X2711965Y1026164D1*
X2711609Y1024664D1*
X2711220Y1023164D1*
X2710906Y1021664D1*
X2710576Y1020164D1*
X2710148Y1018664D1*
X2709678Y1017164D1*
X2709163Y1015664D1*
X2708463Y1014164D1*
X2707596Y1012664D1*
X2706679Y1011164D1*
X2705712Y1009664D1*
X2704703Y1008164D1*
X2703716Y1006664D1*
X2702669Y1005164D1*
X2701459Y1003664D1*
X2700109Y1002164D1*
X2698676Y1000664D1*
X2697204Y999164D1*
X2695715Y997664D1*
X2694224Y996164D1*
X2692773Y994664D1*
X2691411Y993164D1*
X2690080Y991664D1*
X2688605Y990164D1*
X2686982Y988664D1*
X2685360Y987164D1*
X2683784Y985664D1*
X2682247Y984164D1*
X2680731Y982664D1*
X2679224Y981164D1*
X2677722Y979664D1*
X2676221Y978164D1*
X2674721Y976664D1*
X2673220Y975164D1*
X2746720Y1051664D2*
X2743323Y1050164D1*
X2740515Y1048664D1*
X2738294Y1047164D1*
X2736460Y1045664D1*
X2734868Y1044164D1*
X2733508Y1042664D1*
X2732405Y1041164D1*
X2731526Y1039664D1*
X2730842Y1038164D1*
X2730282Y1036664D1*
X2729742Y1035164D1*
X2729272Y1033664D1*
X2728925Y1032164D1*
X2728583Y1030664D1*
X2728156Y1029164D1*
X2727743Y1027664D1*
X2727471Y1026164D1*
X2727328Y1024664D1*
X2727263Y1023164D1*
X2727231Y1021664D1*
X2727168Y1020164D1*
X2726973Y1018664D1*
X2726612Y1017164D1*
X2726227Y1015664D1*
X2725965Y1014164D1*
X2725826Y1012664D1*
X2725763Y1011164D1*
X2725736Y1009664D1*
X2725726Y1008164D1*
X2725728Y1006664D1*
X2725780Y1005164D1*
X2725970Y1003664D1*
X2726330Y1002164D1*
X2726714Y1000664D1*
X2726976Y999164D1*
X2727115Y997664D1*
X2727178Y996164D1*
X2727211Y994664D1*
X2727273Y993164D1*
X2727468Y991664D1*
X2727829Y990164D1*
X2728220Y988664D1*
X2728534Y987164D1*
X2728865Y985664D1*
X2729293Y984164D1*
X2729757Y982664D1*
X2730226Y981164D1*
X2730786Y979664D1*
X2731486Y978164D1*
X2732383Y976664D1*
X2733526Y975164D1*
X2734854Y973664D1*
X2736341Y972164D1*
X2738116Y970664D1*
X2740439Y969164D1*
X2743407Y967664D1*
X2746720Y966164D1*
X2758720Y1051664D2*
X2762118Y1050164D1*
X2764926Y1048664D1*
X2767141Y1047164D1*
X2768928Y1045664D1*
X2770376Y1044164D1*
X2771521Y1042664D1*
X2772460Y1041164D1*
X2773288Y1039664D1*
X2774023Y1038164D1*
X2774642Y1036664D1*
X2775175Y1035164D1*
X2775705Y1033664D1*
X2776165Y1032164D1*
X2776464Y1030664D1*
X2776667Y1029164D1*
X2776926Y1027664D1*
X2777313Y1026164D1*
X2777708Y1024664D1*
X2777974Y1023164D1*
X2778114Y1021664D1*
X2778178Y1020164D1*
X2778205Y1018664D1*
X2778215Y1017164D1*
X2778219Y1015664D1*
X2778220Y1014164D1*
Y1012664D1*
Y1011164D1*
Y1009664D1*
Y1008164D1*
Y1006664D1*
Y1005164D1*
Y1003664D1*
Y1002164D1*
Y1000664D1*
Y999164D1*
X2778215Y997664D1*
X2778162Y996164D1*
X2777971Y994664D1*
X2777611Y993164D1*
X2777227Y991664D1*
X2776959Y990164D1*
X2776768Y988664D1*
X2776513Y987164D1*
X2776121Y985664D1*
X2775674Y984164D1*
X2775212Y982664D1*
X2774659Y981164D1*
X2774014Y979664D1*
X2773308Y978164D1*
X2772524Y976664D1*
X2771586Y975164D1*
X2770420Y973664D1*
X2769026Y972164D1*
X2767295Y970664D1*
X2764990Y969164D1*
X2762030Y967664D1*
X2758720Y966164D1*
X2805220Y1051664D2*
X2800681Y1050164D1*
X2797246Y1048664D1*
X2794740Y1047164D1*
X2793944Y1045664D1*
X2793523Y1044164D1*
X2793337Y1042664D1*
X2793263Y1041164D1*
X2793235Y1039664D1*
X2793225Y1038164D1*
X2793220Y1036664D1*
X2820220Y1051664D2*
X2823850Y1050164D1*
X2827024Y1048664D1*
X2829580Y1047164D1*
X2831486Y1045664D1*
X2832858Y1044164D1*
X2833897Y1042664D1*
X2834765Y1041164D1*
X2835515Y1039664D1*
X2836140Y1038164D1*
X2836674Y1036664D1*
X2837205Y1035164D1*
X2837665Y1033664D1*
X2837958Y1032164D1*
X2838108Y1030664D1*
X2838170Y1029164D1*
X2838145Y1027664D1*
X2837965Y1026164D1*
X2837609Y1024664D1*
X2837220Y1023164D1*
X2836906Y1021664D1*
X2836576Y1020164D1*
X2836148Y1018664D1*
X2835678Y1017164D1*
X2835163Y1015664D1*
X2834463Y1014164D1*
X2833596Y1012664D1*
X2832679Y1011164D1*
X2831712Y1009664D1*
X2830703Y1008164D1*
X2829716Y1006664D1*
X2828669Y1005164D1*
X2827459Y1003664D1*
X2826109Y1002164D1*
X2824676Y1000664D1*
X2823204Y999164D1*
X2821715Y997664D1*
X2820224Y996164D1*
X2818773Y994664D1*
X2817411Y993164D1*
X2816080Y991664D1*
X2814605Y990164D1*
X2812982Y988664D1*
X2811360Y987164D1*
X2809784Y985664D1*
X2808247Y984164D1*
X2806731Y982664D1*
X2805224Y981164D1*
X2803722Y979664D1*
X2802221Y978164D1*
X2800721Y976664D1*
X2799220Y975164D1*
X2868220Y1051664D2*
X2863681Y1050164D1*
X2860246Y1048664D1*
X2857740Y1047164D1*
X2856944Y1045664D1*
X2856523Y1044164D1*
X2856337Y1042664D1*
X2856263Y1041164D1*
X2856235Y1039664D1*
X2856225Y1038164D1*
X2856220Y1036664D1*
X2883220Y1051664D2*
X2886850Y1050164D1*
X2890024Y1048664D1*
X2892580Y1047164D1*
X2894486Y1045664D1*
X2895858Y1044164D1*
X2896897Y1042664D1*
X2897765Y1041164D1*
X2898515Y1039664D1*
X2899140Y1038164D1*
X2899674Y1036664D1*
X2900205Y1035164D1*
X2900665Y1033664D1*
X2900958Y1032164D1*
X2901108Y1030664D1*
X2901170Y1029164D1*
X2901145Y1027664D1*
X2900965Y1026164D1*
X2900609Y1024664D1*
X2900220Y1023164D1*
X2899906Y1021664D1*
X2899576Y1020164D1*
X2899148Y1018664D1*
X2898678Y1017164D1*
X2898163Y1015664D1*
X2897463Y1014164D1*
X2896596Y1012664D1*
X2895679Y1011164D1*
X2894712Y1009664D1*
X2893703Y1008164D1*
X2892716Y1006664D1*
X2891669Y1005164D1*
X2890459Y1003664D1*
X2889109Y1002164D1*
X2887676Y1000664D1*
X2886204Y999164D1*
X2884715Y997664D1*
X2883224Y996164D1*
X2881773Y994664D1*
X2880411Y993164D1*
X2879080Y991664D1*
X2877605Y990164D1*
X2875982Y988664D1*
X2874360Y987164D1*
X2872784Y985664D1*
X2871247Y984164D1*
X2869731Y982664D1*
X2868224Y981164D1*
X2866722Y979664D1*
X2865221Y978164D1*
X2863721Y976664D1*
X2862220Y975164D1*
X2199220Y1050164D2*
X2198471Y1048664D1*
X2197848Y1047164D1*
X2197264Y1045664D1*
X2196730Y1044164D1*
X2196233Y1042664D1*
X2195667Y1041164D1*
X2195022Y1039664D1*
X2194367Y1038164D1*
X2193780Y1036664D1*
X2193260Y1035164D1*
X2192728Y1033664D1*
X2192216Y1032164D1*
X2191733Y1030664D1*
X2191218Y1029164D1*
X2190712Y1027664D1*
X2190232Y1026164D1*
X2189717Y1024664D1*
X2189212Y1023164D1*
X2188732Y1021664D1*
X2188217Y1020164D1*
X2187712Y1018664D1*
X2187232Y1017164D1*
X2186717Y1015664D1*
X2186212Y1014164D1*
X2185732Y1012664D1*
X2185217Y1011164D1*
X2184712Y1009664D1*
X2184232Y1008164D1*
X2183717Y1006664D1*
X2183212Y1005164D1*
X2182732Y1003664D1*
X2182217Y1002164D1*
X2181712Y1000664D1*
X2181232Y999164D1*
X2180717Y997664D1*
X2180212Y996164D1*
X2179732Y994664D1*
X2179217Y993164D1*
X2178712Y991664D1*
X2178232Y990164D1*
X2177717Y988664D1*
X2177212Y987164D1*
X2176732Y985664D1*
X2176217Y984164D1*
X2175712Y982664D1*
X2175232Y981164D1*
X2174717Y979664D1*
X2174212Y978164D1*
X2173732Y976664D1*
X2173217Y975164D1*
X2172712Y973664D1*
X2172231Y972164D1*
X2171709Y970664D1*
X2171192Y969164D1*
X2170720Y967664D1*
X2211220Y1050164D2*
X2211790Y1048664D1*
X2212429Y1047164D1*
X2213079Y1045664D1*
X2213663Y1044164D1*
X2214182Y1042664D1*
X2214714Y1041164D1*
X2215225Y1039664D1*
X2215708Y1038164D1*
X2216223Y1036664D1*
X2216728Y1035164D1*
X2217209Y1033664D1*
X2217724Y1032164D1*
X2218229Y1030664D1*
X2218709Y1029164D1*
X2219224Y1027664D1*
X2219729Y1026164D1*
X2220209Y1024664D1*
X2220724Y1023164D1*
X2221229Y1021664D1*
X2221709Y1020164D1*
X2222224Y1018664D1*
X2222729Y1017164D1*
X2223209Y1015664D1*
X2223724Y1014164D1*
X2224229Y1012664D1*
X2224709Y1011164D1*
X2225224Y1009664D1*
X2225729Y1008164D1*
X2226209Y1006664D1*
X2226724Y1005164D1*
X2227229Y1003664D1*
X2227709Y1002164D1*
X2228224Y1000664D1*
X2228729Y999164D1*
X2229209Y997664D1*
X2229724Y996164D1*
X2230229Y994664D1*
X2230709Y993164D1*
X2231224Y991664D1*
X2231729Y990164D1*
X2232209Y988664D1*
X2232724Y987164D1*
X2233229Y985664D1*
X2233709Y984164D1*
X2234224Y982664D1*
X2234729Y981164D1*
X2235209Y979664D1*
X2235724Y978164D1*
X2236229Y976664D1*
X2236709Y975164D1*
X2237224Y973664D1*
X2237733Y972164D1*
X2238255Y970664D1*
X2238926Y969164D1*
X2239720Y967664D1*
X2448220Y1050164D2*
X2449151Y1048664D1*
X2450012Y1047164D1*
X2450862Y1045664D1*
X2451778Y1044164D1*
X2452753Y1042664D1*
X2453675Y1041164D1*
X2454519Y1039664D1*
X2455315Y1038164D1*
X2456089Y1036664D1*
X2456895Y1035164D1*
X2457790Y1033664D1*
X2458758Y1032164D1*
X2459676Y1030664D1*
X2460525Y1029164D1*
X2461368Y1027664D1*
X2462280Y1026164D1*
X2463254Y1024664D1*
X2464175Y1023164D1*
X2465025Y1021664D1*
X2465868Y1020164D1*
X2466780Y1018664D1*
X2467754Y1017164D1*
X2468675Y1015664D1*
X2469525Y1014164D1*
X2470368Y1012664D1*
X2471280Y1011164D1*
X2472254Y1009664D1*
X2473175Y1008164D1*
X2474019Y1006664D1*
X2474810Y1005164D1*
X2475525Y1003664D1*
X2476086Y1002164D1*
X2476426Y1000664D1*
X2476596Y999164D1*
X2476672Y997664D1*
X2476702Y996164D1*
X2476714Y994664D1*
X2476718Y993164D1*
X2476720Y991664D1*
Y990164D1*
Y988664D1*
Y987164D1*
Y985664D1*
Y984164D1*
Y982664D1*
Y981164D1*
Y979664D1*
Y978164D1*
Y976664D1*
Y975164D1*
Y973664D1*
Y972164D1*
Y970664D1*
Y969164D1*
Y967664D1*
X2458720Y1050164D2*
X2459702Y1048664D1*
X2460703Y1047164D1*
X2461721Y1045664D1*
X2462662Y1044164D1*
X2463520Y1042664D1*
X2464367Y1041164D1*
X2465280Y1039664D1*
X2466254Y1038164D1*
X2467175Y1036664D1*
X2468019Y1035164D1*
X2468815Y1033664D1*
X2469589Y1032164D1*
X2470395Y1030664D1*
X2471290Y1029164D1*
X2472258Y1027664D1*
X2473176Y1026164D1*
X2474025Y1024664D1*
X2474868Y1023164D1*
X2475780Y1021664D1*
X2476766Y1020164D1*
X2477796Y1018664D1*
X2479065Y1017164D1*
X2480763Y1015664D1*
X2482720Y1014164D1*
X2503720Y1050164D2*
X2502739Y1048664D1*
X2501738Y1047164D1*
X2500720Y1045664D1*
X2499779Y1044164D1*
X2498921Y1042664D1*
X2498074Y1041164D1*
X2497161Y1039664D1*
X2496187Y1038164D1*
X2495266Y1036664D1*
X2494422Y1035164D1*
X2493626Y1033664D1*
X2492852Y1032164D1*
X2492046Y1030664D1*
X2491151Y1029164D1*
X2490183Y1027664D1*
X2489265Y1026164D1*
X2488415Y1024664D1*
X2487573Y1023164D1*
X2486661Y1021664D1*
X2485675Y1020164D1*
X2484645Y1018664D1*
X2483375Y1017164D1*
X2481678Y1015664D1*
X2479720Y1014164D1*
X2514220Y1050164D2*
X2513239Y1048664D1*
X2512238Y1047164D1*
X2511220Y1045664D1*
X2510279Y1044164D1*
X2509421Y1042664D1*
X2508574Y1041164D1*
X2507661Y1039664D1*
X2506687Y1038164D1*
X2505766Y1036664D1*
X2504916Y1035164D1*
X2504073Y1033664D1*
X2503161Y1032164D1*
X2502187Y1030664D1*
X2501266Y1029164D1*
X2500416Y1027664D1*
X2499573Y1026164D1*
X2498661Y1024664D1*
X2497687Y1023164D1*
X2496766Y1021664D1*
X2495916Y1020164D1*
X2495073Y1018664D1*
X2494161Y1017164D1*
X2493181Y1015664D1*
X2492213Y1014164D1*
X2491225Y1012664D1*
X2490214Y1011164D1*
X2489276Y1009664D1*
X2488425Y1008164D1*
X2487633Y1006664D1*
X2486917Y1005164D1*
X2486355Y1003664D1*
X2486015Y1002164D1*
X2485845Y1000664D1*
X2485769Y999164D1*
X2485738Y997664D1*
X2485727Y996164D1*
X2485723Y994664D1*
X2485721Y993164D1*
Y991664D1*
Y990164D1*
X2485720Y988664D1*
Y987164D1*
Y985664D1*
Y984164D1*
Y982664D1*
Y981164D1*
Y979664D1*
Y978164D1*
Y976664D1*
Y975164D1*
Y973664D1*
Y972164D1*
Y970664D1*
Y969164D1*
Y967664D1*
X2565220Y1047164D2*
X2559810Y1045664D1*
X2555061Y1044164D1*
X2551109Y1042664D1*
X2547819Y1041164D1*
X2545026Y1039664D1*
X2542577Y1038164D1*
X2540416Y1036664D1*
X2538543Y1035164D1*
X2536911Y1033664D1*
X2535521Y1032164D1*
X2534354Y1030664D1*
X2533279Y1029164D1*
X2532234Y1027664D1*
X2531283Y1026164D1*
X2530428Y1024664D1*
X2529628Y1023164D1*
X2528858Y1021664D1*
X2528105Y1020164D1*
X2527406Y1018664D1*
X2526845Y1017164D1*
X2526455Y1015664D1*
X2526094Y1014164D1*
X2525660Y1012664D1*
X2525245Y1011164D1*
X2524972Y1009664D1*
X2524828Y1008164D1*
X2524763Y1006664D1*
X2524736Y1005164D1*
X2524726Y1003664D1*
X2524722Y1002164D1*
X2524727Y1000664D1*
X2524779Y999164D1*
X2524970Y997664D1*
X2525330Y996164D1*
X2525720Y994664D1*
X2526034Y993164D1*
X2526370Y991664D1*
X2526846Y990164D1*
X2527454Y988664D1*
X2528138Y987164D1*
X2528862Y985664D1*
X2529606Y984164D1*
X2530401Y982664D1*
X2531293Y981164D1*
X2532264Y979664D1*
X2533235Y978164D1*
X2534275Y976664D1*
X2535489Y975164D1*
X2536891Y973664D1*
X2538520Y972164D1*
X2540410Y970664D1*
X2542534Y969164D1*
X2544913Y967664D1*
X2547726Y966164D1*
X2551671Y964664D1*
X2558349Y963164D1*
X2568875Y961664D1*
X2581720Y960164D1*
X2571220Y1047164D2*
X2576631Y1045664D1*
X2581380Y1044164D1*
X2585326Y1042664D1*
X2588563Y1041164D1*
X2591165Y1039664D1*
X2593255Y1038164D1*
X2595031Y1036664D1*
X2596648Y1035164D1*
X2598194Y1033664D1*
X2599705Y1032164D1*
X2601159Y1030664D1*
X2602470Y1029164D1*
X2603605Y1027664D1*
X2604668Y1026164D1*
X2605710Y1024664D1*
X2606653Y1023164D1*
X2607461Y1021664D1*
X2608116Y1020164D1*
X2608665Y1018664D1*
X2609201Y1017164D1*
X2609664Y1015664D1*
X2609963Y1014164D1*
X2610167Y1012664D1*
X2610426Y1011164D1*
X2610813Y1009664D1*
X2611208Y1008164D1*
X2611474Y1006664D1*
X2611608Y1005164D1*
X2611620Y1003664D1*
X2611455Y1002164D1*
X2611106Y1000664D1*
X2610725Y999164D1*
X2610465Y997664D1*
X2610320Y996164D1*
X2610204Y994664D1*
X2609986Y993164D1*
X2609611Y991664D1*
X2609170Y990164D1*
X2608710Y988664D1*
X2608153Y987164D1*
X2607461Y985664D1*
X2606616Y984164D1*
X2605665Y982664D1*
X2604701Y981164D1*
X2603664Y979664D1*
X2602457Y978164D1*
X2601108Y976664D1*
X2599676Y975164D1*
X2598204Y973664D1*
X2596709Y972164D1*
X2595154Y970664D1*
X2593406Y969164D1*
X2591285Y967664D1*
X2588610Y966164D1*
X2584728Y964664D1*
X2578076Y963164D1*
X2567560Y961664D1*
X2554720Y960164D1*
X2337220Y1045664D2*
X2334515Y1044164D1*
X2332144Y1042664D1*
X2330194Y1041164D1*
X2328648Y1039664D1*
X2327460Y1038164D1*
X2326553Y1036664D1*
X2325907Y1035164D1*
X2325540Y1033664D1*
X2325410Y1032164D1*
X2325527Y1030664D1*
X2325913Y1029164D1*
X2326535Y1027664D1*
X2327401Y1026164D1*
X2328538Y1024664D1*
X2329915Y1023164D1*
X2331585Y1021664D1*
X2333680Y1020164D1*
X2336333Y1018664D1*
X2339779Y1017164D1*
X2344206Y1015664D1*
X2349220Y1014164D1*
X2343220Y1045664D2*
X2345926Y1044164D1*
X2348297Y1042664D1*
X2350241Y1041164D1*
X2351741Y1039664D1*
X2352790Y1038164D1*
X2353529Y1036664D1*
X2354149Y1035164D1*
X2354645Y1033664D1*
X2354945Y1032164D1*
X2355047Y1030664D1*
X2354926Y1029164D1*
X2354589Y1027664D1*
X2354162Y1026164D1*
X2353708Y1024664D1*
X2353152Y1023164D1*
X2352455Y1021664D1*
X2351540Y1020164D1*
X2350226Y1018664D1*
X2348208Y1017164D1*
X2345251Y1015664D1*
X2341720Y1014164D1*
X2278720Y1044164D2*
X2274578Y1042664D1*
X2270952Y1041164D1*
X2268059Y1039664D1*
X2265809Y1038164D1*
X2263965Y1036664D1*
X2262370Y1035164D1*
X2261009Y1033664D1*
X2259899Y1032164D1*
X2258974Y1030664D1*
X2258150Y1029164D1*
X2257423Y1027664D1*
X2256851Y1026164D1*
X2256457Y1024664D1*
X2256095Y1023164D1*
X2255660Y1021664D1*
X2255245Y1020164D1*
X2254972Y1018664D1*
X2254828Y1017164D1*
X2254763Y1015664D1*
X2254736Y1014164D1*
X2254726Y1012664D1*
X2254722Y1011164D1*
X2254721Y1009664D1*
Y1008164D1*
Y1006664D1*
X2254720Y1005164D1*
Y1003664D1*
X2254726Y1002164D1*
X2254779Y1000664D1*
X2254970Y999164D1*
X2255329Y997664D1*
X2255720Y996164D1*
X2256034Y994664D1*
X2256370Y993164D1*
X2256846Y991664D1*
X2257454Y990164D1*
X2258144Y988664D1*
X2258921Y987164D1*
X2259856Y985664D1*
X2261016Y984164D1*
X2262351Y982664D1*
X2263839Y981164D1*
X2265664Y979664D1*
X2268468Y978164D1*
X2273414Y976664D1*
X2281217Y975164D1*
X2290720Y973664D1*
X2283220Y1044164D2*
X2287426Y1042664D1*
X2291297Y1041164D1*
X2294741Y1039664D1*
X2297735Y1038164D1*
X2300237Y1036664D1*
X2302321Y1035164D1*
X2304220Y1033664D1*
X2410720Y1044164D2*
X2406753Y1042664D1*
X2403306Y1041164D1*
X2400442Y1039664D1*
X2398076Y1038164D1*
X2396156Y1036664D1*
X2394624Y1035164D1*
X2393394Y1033664D1*
X2392300Y1032164D1*
X2391292Y1030664D1*
X2390482Y1029164D1*
X2389846Y1027664D1*
X2389262Y1026164D1*
X2388729Y1024664D1*
X2388238Y1023164D1*
X2387725Y1021664D1*
X2387272Y1020164D1*
X2386982Y1018664D1*
X2386832Y1017164D1*
X2386765Y1015664D1*
X2386737Y1014164D1*
X2386726Y1012664D1*
X2386722Y1011164D1*
X2386721Y1009664D1*
Y1008164D1*
Y1006664D1*
X2386720Y1005164D1*
Y1003664D1*
X2386726Y1002164D1*
X2386779Y1000664D1*
X2386970Y999164D1*
X2387335Y997664D1*
X2387773Y996164D1*
X2388225Y994664D1*
X2388730Y993164D1*
X2389236Y991664D1*
X2389768Y990164D1*
X2390474Y988664D1*
X2391344Y987164D1*
X2392267Y985664D1*
X2393293Y984164D1*
X2394552Y982664D1*
X2396154Y981164D1*
X2398311Y979664D1*
X2401598Y978164D1*
X2407263Y976664D1*
X2416237Y975164D1*
X2427220Y973664D1*
X2415220Y1044164D2*
X2420631Y1042664D1*
X2425380Y1041164D1*
X2429326Y1039664D1*
X2432563Y1038164D1*
X2435165Y1036664D1*
X2437257Y1035164D1*
X2439045Y1033664D1*
X2440720Y1032164D1*
X2686720Y1044164D2*
X2681309Y1042664D1*
X2676544Y1041164D1*
X2672471Y1039664D1*
X2668720Y1038164D1*
X2689720Y1044164D2*
X2692426Y1042664D1*
X2694797Y1041164D1*
X2696747Y1039664D1*
X2698293Y1038164D1*
X2699481Y1036664D1*
X2700388Y1035164D1*
X2701034Y1033664D1*
X2701406Y1032164D1*
X2701590Y1030664D1*
X2701670Y1029164D1*
X2701696Y1027664D1*
X2701655Y1026164D1*
X2701468Y1024664D1*
X2701105Y1023164D1*
X2700668Y1021664D1*
X2700210Y1020164D1*
X2699653Y1018664D1*
X2698961Y1017164D1*
X2698116Y1015664D1*
X2697165Y1014164D1*
X2696201Y1012664D1*
X2695170Y1011164D1*
X2694016Y1009664D1*
X2692858Y1008164D1*
X2691785Y1006664D1*
X2690698Y1005164D1*
X2689470Y1003664D1*
X2688113Y1002164D1*
X2686678Y1000664D1*
X2685210Y999164D1*
X2683773Y997664D1*
X2682468Y996164D1*
X2681329Y994664D1*
X2680214Y993164D1*
X2678976Y991664D1*
X2677615Y990164D1*
X2676178Y988664D1*
X2674705Y987164D1*
X2673209Y985664D1*
X2671666Y984164D1*
X2670029Y982664D1*
X2668367Y981164D1*
X2666900Y979664D1*
X2665773Y978164D1*
X2665005Y976664D1*
X2664574Y975164D1*
X2664366Y973664D1*
X2664277Y972164D1*
X2664241Y970664D1*
X2664227Y969164D1*
X2664220Y967664D1*
X2749720Y1044164D2*
X2747021Y1042664D1*
X2744697Y1041164D1*
X2742891Y1039664D1*
X2741566Y1038164D1*
X2740589Y1036664D1*
X2739865Y1035164D1*
X2739290Y1033664D1*
X2738744Y1032164D1*
X2738278Y1030664D1*
X2737984Y1029164D1*
X2737827Y1027664D1*
X2737706Y1026164D1*
X2737487Y1024664D1*
X2737117Y1023164D1*
X2736729Y1021664D1*
X2736466Y1020164D1*
X2736326Y1018664D1*
X2736263Y1017164D1*
X2736236Y1015664D1*
X2736226Y1014164D1*
X2736222Y1012664D1*
X2736221Y1011164D1*
Y1009664D1*
Y1008164D1*
X2736220Y1006664D1*
Y1005164D1*
Y1003664D1*
Y1002164D1*
Y1000664D1*
X2736226Y999164D1*
X2736279Y997664D1*
X2736470Y996164D1*
X2736829Y994664D1*
X2737214Y993164D1*
X2737482Y991664D1*
X2737673Y990164D1*
X2737928Y988664D1*
X2738320Y987164D1*
X2738767Y985664D1*
X2739229Y984164D1*
X2739788Y982664D1*
X2740492Y981164D1*
X2741483Y979664D1*
X2742802Y978164D1*
X2746431Y976664D1*
X2751963Y975164D1*
X2758720Y973664D1*
X2754220Y1044164D2*
X2757100Y1042664D1*
X2759651Y1041164D1*
X2761630Y1039664D1*
X2763054Y1038164D1*
X2764120Y1036664D1*
X2764958Y1035164D1*
X2765618Y1033664D1*
X2766166Y1032164D1*
X2766702Y1030664D1*
X2767164Y1029164D1*
X2767457Y1027664D1*
X2767608Y1026164D1*
X2767676Y1024664D1*
X2767704Y1023164D1*
X2767715Y1021664D1*
X2767718Y1020164D1*
X2767726Y1018664D1*
X2767779Y1017164D1*
X2767970Y1015664D1*
X2768329Y1014164D1*
X2768714Y1012664D1*
X2768976Y1011164D1*
X2769109Y1009664D1*
X2769120Y1008164D1*
X2768955Y1006664D1*
X2768606Y1005164D1*
X2768225Y1003664D1*
X2767965Y1002164D1*
X2767826Y1000664D1*
X2767762Y999164D1*
X2767736Y997664D1*
X2767726Y996164D1*
X2767722Y994664D1*
X2767715Y993164D1*
X2767662Y991664D1*
X2767471Y990164D1*
X2767106Y988664D1*
X2766668Y987164D1*
X2766210Y985664D1*
X2765659Y984164D1*
X2765007Y982664D1*
X2764243Y981164D1*
X2763175Y979664D1*
X2761742Y978164D1*
X2757857Y976664D1*
X2752131Y975164D1*
X2745220Y973664D1*
X2812720Y1044164D2*
X2807316Y1042664D1*
X2802618Y1041164D1*
X2798842Y1039664D1*
X2795845Y1038164D1*
X2793220Y1036664D1*
X2815720Y1044164D2*
X2818426Y1042664D1*
X2820797Y1041164D1*
X2822747Y1039664D1*
X2824293Y1038164D1*
X2825481Y1036664D1*
X2826388Y1035164D1*
X2827034Y1033664D1*
X2827406Y1032164D1*
X2827590Y1030664D1*
X2827670Y1029164D1*
X2827696Y1027664D1*
X2827655Y1026164D1*
X2827468Y1024664D1*
X2827105Y1023164D1*
X2826668Y1021664D1*
X2826210Y1020164D1*
X2825653Y1018664D1*
X2824961Y1017164D1*
X2824116Y1015664D1*
X2823165Y1014164D1*
X2822201Y1012664D1*
X2821170Y1011164D1*
X2820016Y1009664D1*
X2818858Y1008164D1*
X2817785Y1006664D1*
X2816698Y1005164D1*
X2815470Y1003664D1*
X2814113Y1002164D1*
X2812678Y1000664D1*
X2811210Y999164D1*
X2809773Y997664D1*
X2808468Y996164D1*
X2807329Y994664D1*
X2806214Y993164D1*
X2804976Y991664D1*
X2803615Y990164D1*
X2802178Y988664D1*
X2800705Y987164D1*
X2799209Y985664D1*
X2797666Y984164D1*
X2796029Y982664D1*
X2794367Y981164D1*
X2792900Y979664D1*
X2791773Y978164D1*
X2791005Y976664D1*
X2790574Y975164D1*
X2790366Y973664D1*
X2790277Y972164D1*
X2790241Y970664D1*
X2790227Y969164D1*
X2790220Y967664D1*
X2875720Y1044164D2*
X2870316Y1042664D1*
X2865618Y1041164D1*
X2861842Y1039664D1*
X2858845Y1038164D1*
X2856220Y1036664D1*
X2878720Y1044164D2*
X2881426Y1042664D1*
X2883797Y1041164D1*
X2885747Y1039664D1*
X2887293Y1038164D1*
X2888481Y1036664D1*
X2889388Y1035164D1*
X2890034Y1033664D1*
X2890406Y1032164D1*
X2890590Y1030664D1*
X2890670Y1029164D1*
X2890696Y1027664D1*
X2890655Y1026164D1*
X2890468Y1024664D1*
X2890105Y1023164D1*
X2889668Y1021664D1*
X2889210Y1020164D1*
X2888653Y1018664D1*
X2887961Y1017164D1*
X2887116Y1015664D1*
X2886165Y1014164D1*
X2885201Y1012664D1*
X2884170Y1011164D1*
X2883016Y1009664D1*
X2881858Y1008164D1*
X2880785Y1006664D1*
X2879698Y1005164D1*
X2878470Y1003664D1*
X2877113Y1002164D1*
X2875678Y1000664D1*
X2874210Y999164D1*
X2872773Y997664D1*
X2871468Y996164D1*
X2870329Y994664D1*
X2869214Y993164D1*
X2867976Y991664D1*
X2866615Y990164D1*
X2865178Y988664D1*
X2863705Y987164D1*
X2862209Y985664D1*
X2860666Y984164D1*
X2859029Y982664D1*
X2857367Y981164D1*
X2855900Y979664D1*
X2854773Y978164D1*
X2854005Y976664D1*
X2853574Y975164D1*
X2853366Y973664D1*
X2853277Y972164D1*
X2853241Y970664D1*
X2853227Y969164D1*
X2853220Y967664D1*
X2202220Y1038164D2*
X2202215Y1036664D1*
X2202162Y1035164D1*
X2201971Y1033664D1*
X2201606Y1032164D1*
X2201168Y1030664D1*
X2200716Y1029164D1*
X2200211Y1027664D1*
X2199710Y1026164D1*
X2199231Y1024664D1*
X2198717Y1023164D1*
X2198212Y1021664D1*
X2197732Y1020164D1*
X2197217Y1018664D1*
X2196712Y1017164D1*
X2196232Y1015664D1*
X2195717Y1014164D1*
X2195212Y1012664D1*
X2194732Y1011164D1*
X2194217Y1009664D1*
X2193712Y1008164D1*
X2193232Y1006664D1*
X2192723Y1005164D1*
X2192271Y1003664D1*
X2191980Y1002164D1*
X2191823Y1000664D1*
X2191720Y999164D1*
X2206720Y1038164D2*
X2206778Y1036664D1*
X2206970Y1035164D1*
X2207335Y1033664D1*
X2207773Y1032164D1*
X2208225Y1030664D1*
X2208730Y1029164D1*
X2209231Y1027664D1*
X2209710Y1026164D1*
X2210224Y1024664D1*
X2210729Y1023164D1*
X2211209Y1021664D1*
X2211724Y1020164D1*
X2212229Y1018664D1*
X2212709Y1017164D1*
X2213224Y1015664D1*
X2213729Y1014164D1*
X2214209Y1012664D1*
X2214724Y1011164D1*
X2215229Y1009664D1*
X2215709Y1008164D1*
X2216224Y1006664D1*
X2216734Y1005164D1*
X2217273Y1003664D1*
X2218027Y1002164D1*
X2219056Y1000664D1*
X2220220Y999164D1*
X2563720Y1030664D2*
X2560091Y1029164D1*
X2556917Y1027664D1*
X2554361Y1026164D1*
X2552449Y1024664D1*
X2551030Y1023164D1*
X2549853Y1021664D1*
X2548811Y1020164D1*
X2547989Y1018664D1*
X2547349Y1017164D1*
X2546769Y1015664D1*
X2546282Y1014164D1*
X2545929Y1012664D1*
X2545584Y1011164D1*
X2545156Y1009664D1*
X2544744Y1008164D1*
X2544471Y1006664D1*
X2544334Y1005164D1*
X2544322Y1003664D1*
X2544486Y1002164D1*
X2544835Y1000664D1*
X2545216Y999164D1*
X2545482Y997664D1*
X2545674Y996164D1*
X2545934Y994664D1*
X2546372Y993164D1*
X2546964Y991664D1*
X2547647Y990164D1*
X2548422Y988664D1*
X2549362Y987164D1*
X2550574Y985664D1*
X2552106Y984164D1*
X2554004Y982664D1*
X2556326Y981164D1*
X2559124Y979664D1*
X2562220Y978164D1*
X2575720Y1030664D2*
X2579516Y1029164D1*
X2582569Y1027664D1*
X2583873Y1026164D1*
X2584328Y1024664D1*
X2584561Y1023164D1*
X2584664Y1021664D1*
X2584720Y1020164D1*
X2566720Y1024664D2*
X2564015Y1023164D1*
X2561644Y1021664D1*
X2559694Y1020164D1*
X2558148Y1018664D1*
X2556960Y1017164D1*
X2556053Y1015664D1*
X2555407Y1014164D1*
X2555034Y1012664D1*
X2554846Y1011164D1*
X2554713Y1009664D1*
X2554495Y1008164D1*
X2554177Y1006664D1*
X2553979Y1005164D1*
X2554075Y1003664D1*
X2554320Y1002164D1*
X2554518Y1000664D1*
X2554636Y999164D1*
X2554743Y997664D1*
X2554962Y996164D1*
X2555389Y994664D1*
X2556027Y993164D1*
X2556904Y991664D1*
X2558137Y990164D1*
X2559678Y988664D1*
X2563645Y987164D1*
X2569741Y985664D1*
X2577220Y984164D1*
X2571220Y1024664D2*
X2575445Y1023164D1*
X2579418Y1021664D1*
X2583220Y1020164D1*
X2335720Y1009664D2*
X2333021Y1008164D1*
X2330697Y1006664D1*
X2328891Y1005164D1*
X2327560Y1003664D1*
X2326536Y1002164D1*
X2325673Y1000664D1*
X2324931Y999164D1*
X2324360Y997664D1*
X2324017Y996164D1*
X2323845Y994664D1*
X2323769Y993164D1*
X2323738Y991664D1*
X2323733Y990164D1*
X2323781Y988664D1*
X2323977Y987164D1*
X2324394Y985664D1*
X2325028Y984164D1*
X2325899Y982664D1*
X2327037Y981164D1*
X2328456Y979664D1*
X2330526Y978164D1*
X2334220Y976664D1*
X2340257Y975164D1*
X2347720Y973664D1*
X2331220Y1009664D2*
X2335426Y1008164D1*
X2339303Y1006664D1*
X2342799Y1005164D1*
X2345984Y1003664D1*
X2348834Y1002164D1*
X2351209Y1000664D1*
X2352987Y999164D1*
X2354181Y997664D1*
X2354986Y996164D1*
X2355633Y994664D1*
X2356139Y993164D1*
X2356448Y991664D1*
X2356599Y990164D1*
X2356617Y988664D1*
X2356448Y987164D1*
X2356047Y985664D1*
X2355469Y984164D1*
X2354785Y982664D1*
X2353954Y981164D1*
X2352958Y979664D1*
X2350618Y978164D1*
X2346632Y976664D1*
X2340367Y975164D1*
X2332720Y973664D1*
X2412220Y1008164D2*
Y1006664D1*
Y1005164D1*
Y1003664D1*
Y1002164D1*
Y1000664D1*
X2442220Y1008164D2*
Y1006664D1*
Y1005164D1*
Y1003664D1*
Y1002164D1*
Y1000664D1*
Y999164D1*
Y997664D1*
Y996164D1*
Y994664D1*
Y993164D1*
Y991664D1*
Y990164D1*
Y988664D1*
Y987164D1*
Y985664D1*
Y984164D1*
Y982664D1*
Y981164D1*
Y979664D1*
X2442215Y978164D1*
X2442150Y976664D1*
X2441992Y975164D1*
X2441210Y973664D1*
X2439133Y972164D1*
X2436164Y970664D1*
X2432277Y969164D1*
X2427670Y967664D1*
X2422720Y966164D1*
X2431720Y1000664D2*
Y999164D1*
Y997664D1*
Y996164D1*
Y994664D1*
Y993164D1*
Y991664D1*
Y990164D1*
Y988664D1*
Y987164D1*
Y985664D1*
Y984164D1*
X2431715Y982664D1*
X2431638Y981164D1*
X2431445Y979664D1*
X2430089Y978164D1*
X2424320Y976664D1*
X2414909Y975164D1*
X2403220Y973664D1*
X2187220Y991664D2*
X2187163Y990164D1*
X2186971Y988664D1*
X2186612Y987164D1*
X2186221Y985664D1*
X2185907Y984164D1*
X2185576Y982664D1*
X2185148Y981164D1*
X2184684Y979664D1*
X2184221Y978164D1*
X2183713Y976664D1*
X2183211Y975164D1*
X2182731Y973664D1*
X2182223Y972164D1*
X2181767Y970664D1*
X2181454Y969164D1*
X2181220Y967664D1*
X2221720Y991664D2*
X2221778Y990164D1*
X2221970Y988664D1*
X2222335Y987164D1*
X2222773Y985664D1*
X2223225Y984164D1*
X2223730Y982664D1*
X2224231Y981164D1*
X2224710Y979664D1*
X2225224Y978164D1*
X2225729Y976664D1*
X2226209Y975164D1*
X2226724Y973664D1*
X2227233Y972164D1*
X2227755Y970664D1*
X2228426Y969164D1*
X2229220Y967664D1*
X2583220Y988664D2*
X2577488Y987164D1*
X2569767Y985664D1*
X2560720Y984164D1*
X2584720Y988664D2*
Y987164D1*
X2584709Y985664D1*
X2584586Y984164D1*
X2584287Y982664D1*
X2582655Y981164D1*
X2580175Y979664D1*
X2577220Y978164D1*
X2304220Y984164D2*
X2302477Y982664D1*
X2300488Y981164D1*
X2298053Y979664D1*
X2294616Y978164D1*
X2289137Y976664D1*
X2280981Y975164D1*
X2271220Y973664D1*
X2305720Y984164D2*
Y982664D1*
Y981164D1*
Y979664D1*
X2305715Y978164D1*
X2305650Y976664D1*
X2305492Y975164D1*
X2304733Y973664D1*
X2302880Y972164D1*
X2300334Y970664D1*
X2297069Y969164D1*
X2293260Y967664D1*
X2289220Y966164D1*
X2715220Y975164D2*
Y973664D1*
Y972164D1*
Y970664D1*
Y969164D1*
Y967664D1*
X2841220Y975164D2*
Y973664D1*
Y972164D1*
Y970664D1*
Y969164D1*
Y967664D1*
X2904220Y975164D2*
Y973664D1*
Y972164D1*
Y970664D1*
Y969164D1*
Y967664D1*
X533503Y1258455D2*
D36*
X528749Y1256078D1*
X523941Y1251270D1*
X521564Y1246517D1*
Y1236955D1*
X523941Y1232147D1*
X528749Y1227393D1*
X533503Y1224962D1*
X540688Y1222585D1*
X552681D1*
X559811Y1224962D1*
X564619Y1227393D1*
X569373Y1232147D1*
X571804Y1236955D1*
Y1246517D1*
X569373Y1251270D1*
X564619Y1256078D1*
X559811Y1258455D1*
X531181Y1273894D2*
X528749Y1278703D1*
X521620Y1285888D1*
X571804D1*
X489450Y3765971D2*
Y3787471D1*
X487018Y3794656D1*
X484642Y3797088D1*
X479889Y3799465D1*
X475080D1*
X470327Y3797088D1*
X467895Y3794656D1*
X465518Y3787471D1*
Y3765971D1*
X515758D1*
X489450Y3782718D2*
X515758Y3799465D1*
X475135Y3814904D2*
X472703Y3819712D1*
X465574Y3826897D1*
X515758D1*
X652336Y3755222D2*
Y3776721D1*
X649904Y3783906D1*
X647528Y3786338D1*
X642774Y3788715D1*
X637966D1*
X633213Y3786338D1*
X630781Y3783906D1*
X628404Y3776721D1*
Y3755222D1*
X678644D1*
X652336Y3771968D2*
X678644Y3788715D1*
X640398Y3806586D2*
X638021D1*
X633213Y3808963D1*
X630836Y3811339D1*
X628460Y3816148D1*
Y3825709D1*
X630836Y3830462D1*
X633213Y3832839D1*
X638021Y3835271D1*
X642774D1*
X647583Y3832839D1*
X654713Y3828086D1*
X678644Y3804154D1*
Y3837647D1*
X499402Y3513056D2*
Y3534556D1*
X496970Y3541741D1*
X494593Y3544173D1*
X489840Y3546550D1*
X485032D1*
X480278Y3544173D1*
X477846Y3541741D1*
X475470Y3534556D1*
Y3513056D1*
X525710D1*
X499402Y3529803D2*
X525710Y3546549D1*
X475525Y3566797D2*
Y3593050D1*
X494648Y3578735D1*
Y3585920D1*
X497025Y3590674D1*
X499402Y3593050D1*
X506587Y3595482D1*
X511340D1*
X518525Y3593050D1*
X523333Y3588297D1*
X525710Y3581112D1*
Y3573927D1*
X523333Y3566797D1*
X520901Y3564421D1*
X516148Y3561989D1*
X653764Y3406717D2*
Y3428217D1*
X651332Y3435402D1*
X648955Y3437834D1*
X644202Y3440210D1*
X639394D1*
X634641Y3437834D1*
X632209Y3435402D1*
X629832Y3428217D1*
Y3406717D1*
X680072D1*
X653764Y3423464D2*
X680072Y3440210D1*
Y3479581D2*
X629887D1*
X663325Y3455649D1*
Y3491519D1*
X490905Y3197941D2*
X490906Y3219441D1*
X488474Y3226626D1*
X486097Y3229057D1*
X481344Y3231434D1*
X476535D1*
X471782Y3229057D1*
X469350Y3226626D1*
X466974Y3219441D1*
Y3197941D1*
X517214D1*
X490906Y3214687D2*
X517214Y3231434D1*
X467029Y3275558D2*
Y3251682D1*
X488529Y3249305D1*
X486152Y3251682D1*
X483721Y3258867D1*
Y3265996D1*
X486152Y3273182D1*
X490906Y3277990D1*
X498091Y3280367D1*
X502844D1*
X510029Y3277990D1*
X514837Y3273181D1*
X517214Y3265996D1*
Y3258867D1*
X514837Y3251682D1*
X512405Y3249305D1*
X507652Y3246873D1*
X656825Y3092372D2*
Y3113872D1*
X654394Y3121057D1*
X652017Y3123489D1*
X647264Y3125865D1*
X642455D1*
X637702Y3123489D1*
X635270Y3121057D1*
X632894Y3113872D1*
Y3092372D1*
X683134D1*
X656825Y3109119D2*
X683134Y3125865D1*
X640079Y3169989D2*
X635326Y3167613D1*
X632949Y3160428D1*
Y3155674D1*
X635326Y3148489D1*
X642511Y3143681D1*
X654449Y3141304D1*
X666387D1*
X675949Y3143681D1*
X680757Y3148489D1*
X683134Y3155674D1*
Y3158051D1*
X680757Y3165181D1*
X675949Y3169989D1*
X668764Y3172366D1*
X666387D1*
X659202Y3169989D1*
X654449Y3165181D1*
X652072Y3158051D1*
Y3155674D1*
X654449Y3148489D1*
X659202Y3143681D1*
X666387Y3141304D1*
X492717Y2937598D2*
Y2959098D1*
X490285Y2966283D1*
X487908Y2968715D1*
X483155Y2971091D1*
X478346Y2971092D1*
X473593Y2968715D1*
X471161Y2966283D1*
X468785Y2959098D1*
Y2937598D1*
X519025D1*
X492717Y2954345D2*
X519025Y2971091D1*
Y2996092D2*
X468840Y3020024D1*
Y2986531D1*
X492563Y2687207D2*
Y2708707D1*
X490131Y2715892D1*
X487755Y2718324D1*
X483001Y2720700D1*
X478193D1*
X473440Y2718324D1*
X471008Y2715892D1*
X468631Y2708707D1*
Y2687207D1*
X518871D1*
X492563Y2703954D2*
X518871Y2720700D1*
X468687Y2748078D2*
X471063Y2740948D1*
X475816Y2738516D1*
X480625D1*
X485378Y2740948D1*
X487810Y2745701D1*
X490186Y2755263D1*
X492563Y2762448D1*
X497371Y2767201D1*
X502125Y2769578D1*
X509310D1*
X514063Y2767201D1*
X516495Y2764825D1*
X518871Y2757640D1*
Y2748078D1*
X516495Y2740948D1*
X514063Y2738516D1*
X509310Y2736140D1*
X502125D1*
X497371Y2738516D1*
X492563Y2743325D1*
X490186Y2750455D1*
X487810Y2760016D1*
X485378Y2764825D1*
X480625Y2767201D1*
X475816D1*
X471063Y2764825D1*
X468687Y2757640D1*
Y2748078D1*
X496911Y2460472D2*
Y2481971D1*
X494479Y2489156D1*
X492102Y2491588D1*
X487349Y2493965D1*
X482541D1*
X477788Y2491588D1*
X475356Y2489156D1*
X472979Y2481971D1*
Y2460472D1*
X523219D1*
X496911Y2477218D2*
X523219Y2493965D1*
X489726Y2540521D2*
X496911Y2538089D1*
X501719Y2533336D1*
X504096Y2526151D1*
Y2523774D1*
X501719Y2516589D1*
X496911Y2511836D1*
X489726Y2509404D1*
X487349D1*
X480164Y2511836D1*
X475411Y2516589D1*
X473034Y2523774D1*
Y2526151D1*
X475411Y2533336D1*
X480164Y2538089D1*
X489726Y2540521D1*
X501719D1*
X513657Y2538089D1*
X520842Y2533336D1*
X523219Y2526151D1*
Y2521397D1*
X520842Y2514212D1*
X516034Y2511836D1*
X661696Y2326138D2*
Y2347638D1*
X659264Y2354823D1*
X656887Y2357254D1*
X652134Y2359631D1*
X647325D1*
X642572Y2357254D1*
X640140Y2354823D1*
X637764Y2347638D1*
Y2326138D1*
X688004D1*
X661696Y2342884D2*
X688004Y2359631D1*
X647381Y2375070D2*
X644949Y2379879D1*
X637819Y2387064D1*
X688004D1*
X637819Y2416873D2*
X640196Y2409688D1*
X647381Y2404880D1*
X659319Y2402503D1*
X666504D1*
X678442Y2404880D1*
X685627Y2409688D1*
X688004Y2416873D1*
Y2421626D1*
X685627Y2428811D1*
X678442Y2433564D1*
X666504Y2435996D1*
X659319D1*
X647381Y2433564D1*
X640196Y2428811D1*
X637819Y2421626D1*
Y2416873D1*
X647381Y2433564D2*
X678442Y2404880D1*
X493190Y2227382D2*
Y2248882D1*
X490758Y2256067D1*
X488382Y2258499D1*
X483629Y2260876D1*
X478820D1*
X474067Y2258499D1*
X471635Y2256067D1*
X469259Y2248882D1*
Y2227382D1*
X519499D1*
X493190Y2244129D2*
X519499Y2260876D1*
X478876Y2276315D2*
X476444Y2281123D1*
X469314Y2288308D1*
X519499D1*
X478876Y2303748D2*
X476444Y2308556D1*
X469314Y2315741D1*
X519499D1*
X662965Y2026139D2*
Y2047639D1*
X660533Y2054824D1*
X658156Y2057256D1*
X653403Y2059632D1*
X648595D1*
X643841Y2057256D1*
X641409Y2054824D1*
X639033Y2047639D1*
Y2026139D1*
X689273D1*
X662965Y2042886D2*
X689273Y2059632D1*
X648650Y2075072D2*
X646218Y2079880D1*
X639088Y2087065D1*
X689273D1*
X651026Y2104936D2*
X648650D1*
X643841Y2107313D1*
X641465Y2109689D1*
X639088Y2114498D1*
Y2124059D1*
X641465Y2128813D1*
X643841Y2131189D1*
X648650Y2133621D1*
X653403D1*
X658211Y2131189D1*
X665341Y2126436D1*
X689273Y2102504D1*
Y2135998D1*
X508150Y1913697D2*
Y1935197D1*
X505718Y1942382D1*
X503341Y1944813D1*
X498588Y1947190D1*
X493780D1*
X489026Y1944814D1*
X486595Y1942382D1*
X484218Y1935197D1*
Y1913697D1*
X534458D1*
X508150Y1930443D2*
X534458Y1947190D1*
X493835Y1962629D2*
X491403Y1967438D1*
X484273Y1974623D1*
X534458D1*
X484273Y1994870D2*
Y2021123D1*
X503396Y2006809D1*
Y2013994D1*
X505773Y2018747D1*
X508150Y2021123D1*
X515335Y2023555D1*
X520088D1*
X527273Y2021123D1*
X532081Y2016370D1*
X534458Y2009185D1*
Y2002000D1*
X532081Y1994870D1*
X529649Y1992494D1*
X524896Y1990062D1*
X657644Y1809634D2*
Y1831134D1*
X655213Y1838319D1*
X652836Y1840751D1*
X648083Y1843128D1*
X643274D1*
X638521Y1840751D1*
X636089Y1838319D1*
X633713Y1831134D1*
Y1809634D1*
X683953D1*
X657644Y1826381D2*
X683953Y1843128D1*
X643330Y1858567D2*
X640898Y1863375D1*
X633768Y1870560D1*
X683953D1*
Y1909931D2*
X633768D1*
X667206Y1886000D1*
Y1921870D1*
X750382Y1639198D2*
Y1660698D1*
X747950Y1667883D1*
X745573Y1670315D1*
X740820Y1672691D1*
X736012D1*
X731259Y1670315D1*
X728827Y1667883D1*
X726450Y1660698D1*
Y1639198D1*
X776690D1*
X750382Y1655945D2*
X776690Y1672691D1*
X736067Y1688131D2*
X733635Y1692939D1*
X726505Y1700124D1*
X776690D1*
X726505Y1744248D2*
Y1720372D1*
X748005Y1717995D1*
X745629Y1720372D1*
X743197Y1727557D1*
Y1734687D1*
X745629Y1741872D1*
X750382Y1746680D1*
X757567Y1749057D1*
X762320D1*
X769505Y1746680D1*
X774314Y1741872D1*
X776690Y1734687D1*
Y1727557D1*
X774314Y1720372D1*
X771882Y1717995D1*
X767129Y1715563D1*
X762031Y1141468D2*
X762032Y1162968D1*
X759600Y1170153D1*
X757223Y1172585D1*
X752470Y1174961D1*
X747661D1*
X742908Y1172585D1*
X740476Y1170153D1*
X738100Y1162968D1*
Y1141468D1*
X788340D1*
X762032Y1158214D2*
X788340Y1174961D1*
X747717Y1190400D2*
X745285Y1195209D1*
X738155Y1202394D1*
X788340D1*
X745285Y1246518D2*
X740532Y1244141D1*
X738155Y1236956D1*
Y1232203D1*
X740532Y1225018D1*
X747717Y1220210D1*
X759655Y1217833D1*
X771593D1*
X781155Y1220210D1*
X785963Y1225018D1*
X788340Y1232203D1*
Y1234580D1*
X785963Y1241709D1*
X781155Y1246518D1*
X773970Y1248895D1*
X771593D1*
X764408Y1246518D1*
X759655Y1241709D1*
X757278Y1234580D1*
Y1232203D1*
X759655Y1225018D1*
X764408Y1220210D1*
X771593Y1217833D1*
X467180Y1564623D2*
Y1586122D1*
X464748Y1593307D1*
X462371Y1595739D1*
X457618Y1598116D1*
X452810D1*
X448057Y1595739D1*
X445625Y1593307D1*
X443248Y1586122D1*
Y1564623D1*
X493488D1*
X467180Y1581369D2*
X493488Y1598116D1*
X452865Y1613555D2*
X450433Y1618364D1*
X443303Y1625549D1*
X493488D1*
X459995Y1672105D2*
X467180Y1669673D1*
X471988Y1664920D1*
X474365Y1657734D1*
Y1655358D1*
X471988Y1648173D1*
X467180Y1643420D1*
X459995Y1640988D1*
X457618D1*
X450433Y1643420D1*
X445680Y1648173D1*
X443303Y1655358D1*
Y1657735D1*
X445680Y1664920D1*
X450433Y1669673D1*
X459995Y1672105D1*
X471988D1*
X483926Y1669673D1*
X491111Y1664920D1*
X493488Y1657734D1*
Y1652981D1*
X491112Y1645796D1*
X486303Y1643420D1*
X1125377Y4302558D2*
X1120624Y4307366D1*
X1113439Y4309743D1*
X1103877D1*
X1096692Y4307366D1*
X1091883Y4302558D1*
Y4297805D1*
X1094315Y4292996D1*
X1096692Y4290620D1*
X1101445Y4288243D1*
X1115815Y4283434D1*
X1120624Y4281058D1*
X1123000Y4278626D1*
X1125377Y4273873D1*
Y4266688D1*
X1120624Y4261935D1*
X1113439Y4259503D1*
X1103877D1*
X1096692Y4261935D1*
X1091883Y4266688D1*
X1140816Y4300126D2*
X1145624Y4302558D1*
X1152809Y4309687D1*
Y4259503D1*
X1823288Y4302558D2*
X1818535Y4307366D1*
X1811350Y4309743D1*
X1801788D1*
X1794603Y4307366D1*
X1789795Y4302558D1*
Y4297805D1*
X1792227Y4292996D1*
X1794603Y4290620D1*
X1799357Y4288243D1*
X1813727Y4283434D1*
X1818535Y4281058D1*
X1820912Y4278626D1*
X1823288Y4273873D1*
Y4266688D1*
X1818535Y4261935D1*
X1811350Y4259503D1*
X1801788D1*
X1794603Y4261935D1*
X1789795Y4266688D1*
X1841159Y4297749D2*
Y4300126D1*
X1843536Y4304934D1*
X1845913Y4307311D1*
X1850721Y4309687D1*
X1860283D1*
X1865036Y4307311D1*
X1867412Y4304934D1*
X1869844Y4300126D1*
Y4295373D1*
X1867412Y4290564D1*
X1862659Y4283434D1*
X1838727Y4259503D1*
X1872221D1*
X2531950Y4302558D2*
X2527196Y4307366D1*
X2520011Y4309743D1*
X2510450D1*
X2503265Y4307366D1*
X2498456Y4302558D1*
Y4297805D1*
X2500888Y4292996D1*
X2503265Y4290620D1*
X2508018Y4288243D1*
X2522388Y4283434D1*
X2527196Y4281058D1*
X2529573Y4278626D1*
X2531950Y4273873D1*
Y4266688D1*
X2527196Y4261935D1*
X2520011Y4259503D1*
X2510450D1*
X2503265Y4261935D1*
X2498456Y4266688D1*
X2552197Y4309687D2*
X2578450D1*
X2564136Y4290564D1*
X2571321D1*
X2576074Y4288188D1*
X2578450Y4285811D1*
X2580882Y4278626D1*
Y4273873D1*
X2578450Y4266688D1*
X2573697Y4261879D1*
X2566512Y4259503D1*
X2559327D1*
X2552197Y4261879D1*
X2549821Y4264311D1*
X2547389Y4269064D1*
X1113439Y3593896D2*
X1108685Y3598705D1*
X1101500Y3601081D1*
X1091939D1*
X1084754Y3598705D1*
X1079945Y3593896D1*
Y3589143D1*
X1082377Y3584335D1*
X1084754Y3581958D1*
X1089507Y3579581D1*
X1103877Y3574773D1*
X1108685Y3572396D1*
X1111062Y3569965D1*
X1113439Y3565211D1*
Y3558026D1*
X1108685Y3553273D1*
X1101500Y3550841D1*
X1091939D1*
X1084754Y3553273D1*
X1079945Y3558026D1*
X1152809Y3550841D2*
Y3601026D1*
X1128878Y3567588D1*
X1164748D1*
X1823288Y3593896D2*
X1818535Y3598705D1*
X1811350Y3601081D1*
X1801788D1*
X1794603Y3598705D1*
X1789795Y3593896D1*
Y3589143D1*
X1792227Y3584335D1*
X1794603Y3581958D1*
X1799357Y3579581D1*
X1813727Y3574773D1*
X1818535Y3572396D1*
X1820912Y3569965D1*
X1823288Y3565211D1*
Y3558026D1*
X1818535Y3553273D1*
X1811350Y3550841D1*
X1801788D1*
X1794603Y3553273D1*
X1789795Y3558026D1*
X1867412Y3601026D2*
X1843536D1*
X1841159Y3579526D1*
X1843536Y3581903D1*
X1850721Y3584335D1*
X1857851D1*
X1865036Y3581903D1*
X1869844Y3577150D1*
X1872221Y3569965D1*
Y3565211D1*
X1869844Y3558026D1*
X1865036Y3553218D1*
X1857851Y3550841D1*
X1850721D1*
X1843536Y3553218D1*
X1841159Y3555650D1*
X1838727Y3560403D1*
X2533166Y3593896D2*
X2528412Y3598705D1*
X2521227Y3601081D1*
X2511666D1*
X2504481Y3598705D1*
X2499672Y3593896D1*
Y3589143D1*
X2502104Y3584335D1*
X2504481Y3581958D1*
X2509234Y3579581D1*
X2523604Y3574773D1*
X2528412Y3572396D1*
X2530789Y3569965D1*
X2533166Y3565211D1*
Y3558026D1*
X2528412Y3553273D1*
X2521227Y3550841D1*
X2511666D1*
X2504481Y3553273D1*
X2499672Y3558026D1*
X2577290Y3593896D2*
X2574913Y3598649D1*
X2567728Y3601026D1*
X2562975D1*
X2555790Y3598649D1*
X2550981Y3591464D1*
X2548605Y3579526D1*
Y3567588D1*
X2550981Y3558026D1*
X2555790Y3553218D1*
X2562975Y3550841D1*
X2565352D1*
X2572481Y3553218D1*
X2577290Y3558026D1*
X2579666Y3565211D1*
Y3567588D1*
X2577290Y3574773D1*
X2572481Y3579526D1*
X2565352Y3581903D1*
X2562975D1*
X2555790Y3579526D1*
X2550981Y3574773D1*
X2548605Y3567588D1*
X1114627Y2885235D2*
X1109874Y2890043D1*
X1102689Y2892420D1*
X1093127D1*
X1085942Y2890043D1*
X1081133Y2885235D1*
Y2880482D1*
X1083565Y2875673D1*
X1085942Y2873297D1*
X1090695Y2870920D1*
X1105065Y2866112D1*
X1109874Y2863735D1*
X1112250Y2861303D1*
X1114627Y2856550D1*
Y2849365D1*
X1109874Y2844612D1*
X1102689Y2842180D1*
X1093127D1*
X1085942Y2844612D1*
X1081133Y2849365D1*
X1139628Y2842180D2*
X1163559Y2892365D1*
X1130066D1*
X1823316Y2885235D2*
X1818563Y2890043D1*
X1811378Y2892420D1*
X1801816D1*
X1794631Y2890043D1*
X1789823Y2885235D1*
Y2880482D1*
X1792254Y2875673D1*
X1794631Y2873297D1*
X1799384Y2870920D1*
X1813754Y2866112D1*
X1818563Y2863735D1*
X1820939Y2861303D1*
X1823316Y2856550D1*
Y2849365D1*
X1818563Y2844612D1*
X1811378Y2842180D1*
X1801816D1*
X1794631Y2844612D1*
X1789823Y2849365D1*
X1850693Y2892365D2*
X1843564Y2889988D1*
X1841132Y2885235D1*
Y2880426D1*
X1843564Y2875673D1*
X1848317Y2873241D1*
X1857878Y2870865D1*
X1865063Y2868488D1*
X1869817Y2863680D1*
X1872193Y2858927D1*
Y2851742D1*
X1869817Y2846988D1*
X1867440Y2844557D1*
X1860255Y2842180D1*
X1850693D1*
X1843564Y2844557D1*
X1841132Y2846988D1*
X1838755Y2851742D1*
Y2858927D1*
X1841132Y2863680D1*
X1845940Y2868488D1*
X1853070Y2870865D1*
X1862632Y2873241D1*
X1867440Y2875673D1*
X1869817Y2880426D1*
Y2885235D1*
X1867440Y2889988D1*
X1860255Y2892365D1*
X1850693D1*
X2533138Y2885235D2*
X2528385Y2890043D1*
X2521200Y2892420D1*
X2511638D1*
X2504453Y2890043D1*
X2499645Y2885235D1*
Y2880482D1*
X2502076Y2875673D1*
X2504453Y2873297D1*
X2509206Y2870920D1*
X2523576Y2866112D1*
X2528385Y2863735D1*
X2530761Y2861303D1*
X2533138Y2856550D1*
Y2849365D1*
X2528385Y2844612D1*
X2521200Y2842180D1*
X2511638D1*
X2504453Y2844612D1*
X2499645Y2849365D1*
X2579694Y2875673D2*
X2577262Y2868488D1*
X2572509Y2863680D1*
X2565324Y2861303D1*
X2562947D1*
X2555762Y2863680D1*
X2551009Y2868488D1*
X2548577Y2875673D1*
Y2878050D1*
X2551009Y2885235D1*
X2555762Y2889988D1*
X2562947Y2892365D1*
X2565324D1*
X2572509Y2889988D1*
X2577262Y2885235D1*
X2579694Y2875673D1*
Y2863680D1*
X2577262Y2851742D1*
X2572509Y2844557D1*
X2565324Y2842180D1*
X2560571D1*
X2553386Y2844557D1*
X2551009Y2849365D1*
X1100910Y2176573D2*
X1096157Y2181382D1*
X1088972Y2183759D1*
X1079411D1*
X1072226Y2181382D1*
X1067417Y2176573D1*
Y2171820D1*
X1069849Y2167012D1*
X1072226Y2164635D1*
X1076979Y2162259D1*
X1091349Y2157450D1*
X1096157Y2155074D1*
X1098534Y2152642D1*
X1100910Y2147889D1*
Y2140704D1*
X1096157Y2135950D1*
X1088972Y2133519D1*
X1079411D1*
X1072226Y2135950D1*
X1067417Y2140704D1*
X1116350Y2174142D2*
X1121158Y2176573D1*
X1128343Y2183703D1*
Y2133519D1*
X1158153Y2183703D2*
X1150967Y2181327D1*
X1146159Y2174142D1*
X1143782Y2162203D1*
Y2155018D1*
X1146159Y2143080D1*
X1150967Y2135895D1*
X1158153Y2133519D1*
X1162906D1*
X1170091Y2135895D1*
X1174844Y2143080D1*
X1177276Y2155018D1*
Y2162203D1*
X1174844Y2174142D1*
X1170091Y2181327D1*
X1162906Y2183703D1*
X1158153D1*
X1174844Y2174142D2*
X1146159Y2143080D1*
X1820322Y2176573D2*
X1815569Y2181382D1*
X1808384Y2183759D1*
X1798822D1*
X1791637Y2181382D1*
X1786828Y2176573D1*
Y2171820D1*
X1789260Y2167012D1*
X1791637Y2164635D1*
X1796390Y2162259D1*
X1810760Y2157450D1*
X1815569Y2155074D1*
X1817945Y2152642D1*
X1820322Y2147889D1*
Y2140704D1*
X1815569Y2135950D1*
X1808384Y2133519D1*
X1798822D1*
X1791637Y2135950D1*
X1786828Y2140704D1*
X1835761Y2174142D2*
X1840570Y2176573D1*
X1847755Y2183703D1*
Y2133519D1*
X1863194Y2174142D2*
X1868002Y2176573D1*
X1875187Y2183703D1*
Y2133519D1*
X2518233Y2176573D2*
X2513480Y2181382D1*
X2506295Y2183759D1*
X2496733D1*
X2489548Y2181382D1*
X2484740Y2176573D1*
Y2171820D1*
X2487172Y2167012D1*
X2489548Y2164635D1*
X2494302Y2162259D1*
X2508672Y2157450D1*
X2513480Y2155074D1*
X2515857Y2152642D1*
X2518233Y2147889D1*
Y2140704D1*
X2513480Y2135950D1*
X2506295Y2133519D1*
X2496733D1*
X2489548Y2135950D1*
X2484740Y2140704D1*
X2533673Y2174142D2*
X2538481Y2176573D1*
X2545666Y2183703D1*
Y2133519D1*
X2563537Y2171765D2*
Y2174142D1*
X2565914Y2178950D1*
X2568290Y2181327D1*
X2573099Y2183703D1*
X2582660D1*
X2587414Y2181327D1*
X2589790Y2178950D1*
X2592222Y2174142D1*
Y2169388D1*
X2589790Y2164580D1*
X2585037Y2157450D1*
X2561105Y2133519D1*
X2594599D1*
X1808384Y1467912D2*
X1803630Y1472721D1*
X1796445Y1475097D1*
X1786884D1*
X1779699Y1472721D1*
X1774890Y1467912D1*
Y1463159D1*
X1777322Y1458350D1*
X1779699Y1455974D1*
X1784452Y1453597D1*
X1798822Y1448789D1*
X1803630Y1446412D1*
X1806007Y1443980D1*
X1808384Y1439227D1*
Y1432042D1*
X1803630Y1427289D1*
X1796445Y1424857D1*
X1786884D1*
X1779699Y1427289D1*
X1774890Y1432042D1*
X1823823Y1465480D2*
X1828631Y1467912D1*
X1835816Y1475042D1*
Y1424857D1*
X1875187D2*
Y1475042D1*
X1851256Y1441604D1*
X1887125D1*
X2518233Y1467912D2*
X2513480Y1472721D1*
X2506295Y1475097D1*
X2496733D1*
X2489548Y1472721D1*
X2484740Y1467912D1*
Y1463159D1*
X2487172Y1458350D1*
X2489548Y1455974D1*
X2494302Y1453597D1*
X2508672Y1448789D1*
X2513480Y1446412D1*
X2515857Y1443980D1*
X2518233Y1439227D1*
Y1432042D1*
X2513480Y1427289D1*
X2506295Y1424857D1*
X2496733D1*
X2489548Y1427289D1*
X2484740Y1432042D1*
X2533673Y1465480D2*
X2538481Y1467912D1*
X2545666Y1475042D1*
Y1424857D1*
X2589790Y1475042D2*
X2565914D1*
X2563537Y1453542D1*
X2565914Y1455919D1*
X2573099Y1458350D1*
X2580229D1*
X2587414Y1455919D1*
X2592222Y1451165D1*
X2594599Y1443980D1*
Y1439227D1*
X2592222Y1432042D1*
X2587414Y1427234D1*
X2580229Y1424857D1*
X2573099D1*
X2565914Y1427234D1*
X2563537Y1429666D1*
X2561105Y1434419D1*
X1102126Y759251D2*
X1097373Y764059D1*
X1090188Y766436D1*
X1080627D1*
X1073442Y764059D1*
X1068633Y759251D1*
Y754497D1*
X1071065Y749689D1*
X1073442Y747312D1*
X1078195Y744936D1*
X1092565Y740127D1*
X1097373Y737751D1*
X1099750Y735319D1*
X1102126Y730566D1*
Y723381D1*
X1097373Y718628D1*
X1090188Y716196D1*
X1080627D1*
X1073442Y718628D1*
X1068633Y723381D1*
X1117566Y756819D2*
X1122374Y759251D1*
X1129559Y766380D1*
Y716196D1*
X1173683Y759251D2*
X1171307Y764004D1*
X1164122Y766380D1*
X1159368D1*
X1152183Y764004D1*
X1147375Y756819D1*
X1144998Y744881D1*
Y732942D1*
X1147375Y723381D1*
X1152183Y718572D1*
X1159368Y716196D1*
X1161745D1*
X1168875Y718572D1*
X1173683Y723381D1*
X1176060Y730566D1*
Y732942D1*
X1173683Y740127D1*
X1168875Y744881D1*
X1161745Y747257D1*
X1159368D1*
X1152183Y744881D1*
X1147375Y740127D1*
X1144998Y732942D1*
X1809572Y759251D2*
X1804819Y764059D1*
X1797634Y766436D1*
X1788072D1*
X1780887Y764059D1*
X1776079Y759251D1*
Y754497D1*
X1778510Y749689D1*
X1780887Y747312D1*
X1785640Y744936D1*
X1800010Y740127D1*
X1804819Y737751D1*
X1807195Y735319D1*
X1809572Y730566D1*
Y723381D1*
X1804819Y718628D1*
X1797634Y716196D1*
X1788072D1*
X1780887Y718628D1*
X1776079Y723381D1*
X1825011Y756819D2*
X1829820Y759251D1*
X1837005Y766380D1*
Y716196D1*
X1862005D2*
X1885937Y766380D1*
X1852444D1*
X2518261Y759251D2*
X2513508Y764059D1*
X2506323Y766436D1*
X2496761D1*
X2489576Y764059D1*
X2484768Y759251D1*
Y754497D1*
X2487199Y749689D1*
X2489576Y747312D1*
X2494329Y744936D1*
X2508699Y740127D1*
X2513508Y737751D1*
X2515884Y735319D1*
X2518261Y730566D1*
Y723381D1*
X2513508Y718628D1*
X2506323Y716196D1*
X2496761D1*
X2489576Y718628D1*
X2484768Y723381D1*
X2533700Y756819D2*
X2538509Y759251D1*
X2545694Y766380D1*
Y716196D1*
X2573071Y766380D2*
X2565941Y764004D1*
X2563510Y759251D1*
Y754442D1*
X2565941Y749689D1*
X2570695Y747257D1*
X2580256Y744881D1*
X2587441Y742504D1*
X2592194Y737696D1*
X2594571Y732942D1*
Y725757D1*
X2592194Y721004D1*
X2589818Y718572D1*
X2582633Y716196D1*
X2573071D1*
X2565941Y718572D1*
X2563510Y721004D1*
X2561133Y725757D1*
Y732942D1*
X2563510Y737696D1*
X2568318Y742504D1*
X2575448Y744881D1*
X2585009Y747257D1*
X2589818Y749689D1*
X2592194Y754442D1*
Y759251D1*
X2589818Y764004D1*
X2582633Y766380D1*
X2573071D1*
X1100910Y1467912D2*
X1096157Y1472721D1*
X1088972Y1475097D1*
X1079411D1*
X1072226Y1472721D1*
X1067417Y1467912D1*
Y1463159D1*
X1069849Y1458350D1*
X1072226Y1455974D1*
X1076979Y1453597D1*
X1091349Y1448789D1*
X1096157Y1446412D1*
X1098534Y1443980D1*
X1100910Y1439227D1*
Y1432042D1*
X1096157Y1427289D1*
X1088972Y1424857D1*
X1079411D1*
X1072226Y1427289D1*
X1067417Y1432042D1*
X1116350Y1465480D2*
X1121158Y1467912D1*
X1128343Y1475042D1*
Y1424857D1*
X1148591Y1475042D2*
X1174844D1*
X1160529Y1455919D1*
X1167714D1*
X1172467Y1453542D1*
X1174844Y1451165D1*
X1177276Y1443980D1*
Y1439227D1*
X1174844Y1432042D1*
X1170091Y1427234D1*
X1162906Y1424857D1*
X1155721D1*
X1148591Y1427234D1*
X1146214Y1429666D1*
X1143782Y1434419D1*
X768119Y890448D2*
X763366Y888071D1*
X758557Y883263D1*
X756181Y878510D1*
Y868948D1*
X758557Y864140D1*
X763366Y859386D1*
X768119Y856954D1*
X775304Y854578D1*
X787297D1*
X794427Y856954D1*
X799235Y859386D1*
X803989Y864139D1*
X806421Y868948D1*
Y878510D1*
X803989Y883263D1*
X799236Y888071D1*
X794427Y890448D1*
X768174Y908319D2*
X765797D1*
X760989Y910695D1*
X758612Y913072D1*
X756236Y917880D1*
Y927442D1*
X758612Y932195D1*
X760989Y934572D1*
X765797Y937004D1*
X770551D1*
X775359Y934572D1*
X782489Y929819D1*
X806421Y905887D1*
Y939380D1*
X986290Y926777D2*
Y948277D1*
X983858Y955462D1*
X981482Y957894D1*
X976728Y960270D1*
X971920D1*
X967167Y957894D1*
X964735Y955462D1*
X962358Y948277D1*
Y926777D1*
X1012598D1*
X986290Y943523D2*
X1012598Y960270D1*
X971975Y975709D2*
X969543Y980518D1*
X962414Y987703D1*
X1012598D1*
Y1012704D2*
X962414Y1036635D1*
Y1003142D1*
X1310287Y922093D2*
Y943593D1*
X1307856Y950778D1*
X1305479Y953210D1*
X1300726Y955586D1*
X1295917D1*
X1291164Y953210D1*
X1288732Y950778D1*
X1286356Y943593D1*
Y922093D1*
X1336596D1*
X1310287Y938840D2*
X1336596Y955586D1*
X1295973Y971026D2*
X1293541Y975834D1*
X1286411Y983019D1*
X1336596D1*
X1286411Y1010397D2*
X1288788Y1003267D1*
X1293541Y1000835D1*
X1298349D1*
X1303102Y1003267D1*
X1305534Y1008020D1*
X1307911Y1017582D1*
X1310287Y1024767D1*
X1315096Y1029520D1*
X1319849Y1031896D1*
X1327034D1*
X1331787Y1029520D1*
X1334219Y1027143D1*
X1336596Y1019958D1*
Y1010397D1*
X1334219Y1003267D1*
X1331787Y1000835D1*
X1327034Y998458D1*
X1319849D1*
X1315096Y1000835D1*
X1310287Y1005643D1*
X1307911Y1012773D1*
X1305534Y1022335D1*
X1303102Y1027143D1*
X1298349Y1029520D1*
X1293541D1*
X1288788Y1027143D1*
X1286411Y1019958D1*
Y1010397D1*
X622905Y948566D2*
D37*
X620053Y954270D1*
X614283Y960040D1*
X608579Y962892D1*
X597106D1*
X591335Y960040D1*
X585632Y954270D1*
X582713Y948566D1*
X579861Y939944D1*
Y925552D1*
X582713Y916997D1*
X585632Y911226D1*
X591335Y905523D1*
X597106Y902604D1*
X608579D1*
X614283Y905523D1*
X620053Y911226D1*
X622905Y916997D1*
Y925552D1*
X608579D1*
X516661Y767529D2*
X510891Y764677D1*
X505187Y758907D1*
X502268Y753203D1*
X499417Y744581D1*
Y730189D1*
X502268Y721633D1*
X505187Y715863D1*
X510891Y710159D1*
X516661Y707241D1*
X528135D1*
X533838Y710159D1*
X539609Y715863D1*
X542460Y721633D1*
X545312Y730189D1*
Y744581D1*
X542460Y753203D1*
X539609Y758907D1*
X533838Y764677D1*
X528135Y767529D1*
X516661D1*
X563839Y747433D2*
Y718715D1*
X566691Y710159D1*
X572462Y707241D1*
X581084D1*
X586787Y710159D1*
X595409Y718715D1*
Y747433D2*
Y707241D1*
X622559Y767529D2*
Y718715D1*
X625410Y710159D1*
X631181Y707241D1*
X636884D1*
X613937Y747433D2*
X634033D1*
X1113321Y3932863D2*
X1119091Y3935781D1*
X1127713Y3944337D1*
Y3884115D1*
X1825273Y3933465D2*
Y3936317D1*
X1828125Y3942087D1*
X1830977Y3944939D1*
X1836747Y3947791D1*
X1848221D1*
X1853925Y3944939D1*
X1856777Y3942087D1*
X1859695Y3936317D1*
Y3930613D1*
X1856777Y3924843D1*
X1851073Y3916287D1*
X1822355Y3887569D1*
X1862547D1*
X2530597Y3951245D2*
X2562101D1*
X2544923Y3928297D1*
X2553545D1*
X2559249Y3925445D1*
X2562101Y3922593D1*
X2565019Y3913971D1*
Y3908267D1*
X2562101Y3899645D1*
X2556397Y3893875D1*
X2547775Y3891023D1*
X2539153D1*
X2530597Y3893875D1*
X2527746Y3896793D1*
X2524827Y3902497D1*
X1121438Y3177124D2*
Y3237346D1*
X1092720Y3197220D1*
X1135764D1*
X1828810Y3235879D2*
X1800158D1*
X1797306Y3210079D1*
X1800158Y3212931D1*
X1808780Y3215849D1*
X1817336D1*
X1825958Y3212931D1*
X1831728Y3207227D1*
X1834580Y3198605D1*
Y3192901D1*
X1831728Y3184279D1*
X1825958Y3178509D1*
X1817336Y3175657D1*
X1808780D1*
X1800158Y3178509D1*
X1797306Y3181427D1*
X1794388Y3187131D1*
X2555257Y3217307D2*
X2552405Y3223011D1*
X2543783Y3225863D1*
X2538079D1*
X2529457Y3223011D1*
X2523687Y3214389D1*
X2520835Y3200063D1*
Y3185737D1*
X2523687Y3174263D1*
X2529457Y3168493D1*
X2538079Y3165641D1*
X2540931D1*
X2549487Y3168493D1*
X2555257Y3174263D1*
X2558109Y3182885D1*
Y3185737D1*
X2555257Y3194359D1*
X2549487Y3200063D1*
X2540931Y3202915D1*
X2538079D1*
X2529457Y3200063D1*
X2523687Y3194359D1*
X2520835Y3185737D1*
X1083992Y2460434D2*
X1112710Y2520655D1*
X1072518D1*
X1787615Y2529909D2*
X1779059Y2527057D1*
X1776141Y2521353D1*
Y2515583D1*
X1779059Y2509879D1*
X1784763Y2506961D1*
X1796237Y2504109D1*
X1804859Y2501257D1*
X1810563Y2495487D1*
X1813415Y2489783D1*
Y2481161D1*
X1810563Y2475457D1*
X1807711Y2472539D1*
X1799089Y2469687D1*
X1787615D1*
X1779059Y2472539D1*
X1776141Y2475457D1*
X1773289Y2481161D1*
Y2489783D1*
X1776141Y2495487D1*
X1781911Y2501257D1*
X1790467Y2504109D1*
X1801941Y2506961D1*
X1807711Y2509879D1*
X1810563Y2515583D1*
Y2521353D1*
X1807711Y2527057D1*
X1799089Y2529909D1*
X1787615D1*
X2559988Y2513404D2*
X2557069Y2504782D1*
X2551366Y2499012D1*
X2542744Y2496160D1*
X2539892D1*
X2531270Y2499012D1*
X2525566Y2504782D1*
X2522648Y2513404D1*
Y2516256D1*
X2525566Y2524878D1*
X2531270Y2530582D1*
X2539892Y2533434D1*
X2542744D1*
X2551366Y2530582D1*
X2557069Y2524878D1*
X2559988Y2513404D1*
Y2499012D1*
X2557069Y2484686D1*
X2551366Y2476064D1*
X2542744Y2473212D1*
X2537040D1*
X2528418Y2476064D1*
X2525566Y2481834D1*
X1070989Y1807433D2*
X1076759Y1810352D1*
X1085381Y1818907D1*
Y1758686D1*
X1121152Y1818907D2*
X1112530Y1816055D1*
X1106760Y1807433D1*
X1103908Y1793108D1*
Y1784486D1*
X1106760Y1770160D1*
X1112530Y1761538D1*
X1121152Y1758686D1*
X1126856D1*
X1135478Y1761538D1*
X1141182Y1770160D1*
X1144100Y1784486D1*
Y1793108D1*
X1141182Y1807433D1*
X1135478Y1816055D1*
X1126856Y1818907D1*
X1121152D1*
X1141182Y1807433D2*
X1106760Y1770160D1*
X1814531Y1813304D2*
X1820301Y1816222D1*
X1828923Y1824777D1*
Y1764556D1*
X1847450Y1813304D2*
X1853220Y1816222D1*
X1861842Y1824777D1*
Y1764556D1*
X2499191Y1793705D2*
X2504961Y1796623D1*
X2513583Y1805179D1*
Y1744957D1*
X2535028Y1790853D2*
Y1793705D1*
X2537880Y1799475D1*
X2540732Y1802327D1*
X2546502Y1805179D1*
X2557976D1*
X2563680Y1802327D1*
X2566532Y1799475D1*
X2569450Y1793705D1*
Y1788001D1*
X2566532Y1782231D1*
X2560828Y1773675D1*
X2532110Y1744957D1*
X2572302D1*
X1070142Y1123298D2*
X1075912Y1126216D1*
X1084534Y1134772D1*
Y1074551D1*
X1108832Y1134772D2*
X1140335D1*
X1123158Y1111824D1*
X1131780D1*
X1137483Y1108972D1*
X1140335Y1106120D1*
X1143254Y1097498D1*
Y1091795D1*
X1140335Y1083173D1*
X1134632Y1077402D1*
X1126009Y1074551D1*
X1117387D1*
X1108832Y1077402D1*
X1105980Y1080321D1*
X1103062Y1086024D1*
X1793980Y1111399D2*
X1799750Y1114318D1*
X1808372Y1122873D1*
Y1062652D1*
X1855617D2*
Y1122873D1*
X1826899Y1082748D1*
X1869943D1*
X2504006Y1117910D2*
X2509776Y1120828D1*
X2518398Y1129384D1*
Y1069162D1*
X2571347Y1129384D2*
X2542695D1*
X2539843Y1103584D1*
X2542695Y1106436D1*
X2551317Y1109354D1*
X2559873D1*
X2568495Y1106436D1*
X2574265Y1100732D1*
X2577117Y1092110D1*
Y1086406D1*
X2574265Y1077784D1*
X2568495Y1072014D1*
X2559873Y1069162D1*
X2551317D1*
X2542695Y1072014D1*
X2539843Y1074932D1*
X2536925Y1080636D1*
X1070896Y849693D2*
X1076666Y852612D1*
X1085288Y861167D1*
Y800946D1*
X1138237Y852612D2*
X1135385Y858315D1*
X1126763Y861167D1*
X1121059D1*
X1112437Y858315D1*
X1106667Y849693D1*
X1103815Y835367D1*
Y821042D1*
X1106667Y809568D1*
X1112437Y803797D1*
X1121059Y800946D1*
X1123911D1*
X1132467Y803797D1*
X1138237Y809568D1*
X1141089Y818190D1*
Y821042D1*
X1138237Y829664D1*
X1132467Y835367D1*
X1123911Y838219D1*
X1121059D1*
X1112437Y835367D1*
X1106667Y829664D1*
X1103815Y821042D1*
X1241952Y1642264D2*
D38*
Y1561880D1*
X1215157Y1642264D2*
X1268747D1*
X1331740Y1561880D2*
Y1642175D1*
X1293449Y1588674D1*
X1350841D1*
X1375544Y1626877D2*
X1383238Y1630768D1*
X1394734Y1642175D1*
Y1561880D1*
X1550787Y1630768D2*
X1543182Y1638461D1*
X1531686Y1642264D1*
X1516388D1*
X1504892Y1638461D1*
X1497198Y1630768D1*
Y1623163D1*
X1501089Y1615469D1*
X1504892Y1611667D1*
X1512497Y1607864D1*
X1535489Y1600170D1*
X1543182Y1596368D1*
X1546985Y1592477D1*
X1550787Y1584872D1*
Y1573376D1*
X1543182Y1565771D1*
X1531686Y1561880D1*
X1516388D1*
X1504892Y1565771D1*
X1497198Y1573376D1*
X1575490Y1615469D2*
X1590789Y1561880D1*
X1606087Y1615469D1*
X1621386Y1561880D1*
X1636685Y1615469D1*
X1661387Y1642264D2*
X1665190Y1638461D1*
X1669081Y1642264D1*
X1665190Y1646155D1*
X1661387Y1642264D1*
X1665190Y1615469D2*
Y1561880D1*
X1705280Y1642264D2*
Y1577178D1*
X1709082Y1565771D1*
X1716776Y1561880D1*
X1724381D1*
X1693784Y1615469D2*
X1720578D1*
X1795068Y1603973D2*
X1787374Y1611667D1*
X1779681Y1615469D1*
X1768273D1*
X1760580Y1611667D1*
X1752975Y1603973D1*
X1749084Y1592477D1*
Y1584872D1*
X1752975Y1573376D1*
X1760580Y1565771D1*
X1768273Y1561880D1*
X1779681D1*
X1787374Y1565771D1*
X1795068Y1573376D1*
X1819771Y1642264D2*
Y1561880D1*
Y1600170D2*
X1831267Y1611667D1*
X1838960Y1615469D1*
X1850456D1*
X1858062Y1611667D1*
X1861864Y1600170D1*
Y1561880D1*
X2025523D2*
Y1642264D1*
X1994926Y1561880D1*
X1964328Y1642264D1*
Y1561880D1*
X2096121Y1615469D2*
Y1561880D1*
Y1603973D2*
X2088516Y1611667D1*
X2080823Y1615469D1*
X2069415D1*
X2061722Y1611667D1*
X2054117Y1603973D1*
X2050226Y1592477D1*
Y1584872D1*
X2054117Y1573376D1*
X2061722Y1565771D1*
X2069415Y1561880D1*
X2080823D1*
X2088516Y1565771D1*
X2096121Y1573376D1*
X2132320Y1642264D2*
Y1577178D1*
X2136123Y1565771D1*
X2143816Y1561880D1*
X2151421D1*
X2120824Y1615469D2*
X2147619D1*
X2176124D2*
Y1561880D1*
Y1592477D2*
X2180015Y1603973D1*
X2187620Y1611667D1*
X2195314Y1615469D1*
X2206810D1*
X2231513Y1642264D2*
X2235315Y1638461D1*
X2239206Y1642264D1*
X2235315Y1646155D1*
X2231513Y1642264D1*
X2235315Y1615469D2*
Y1561880D1*
X2263909Y1615469D2*
X2306002Y1561880D1*
Y1615469D2*
X2263909Y1561880D1*
X2408467Y1642264D2*
X2439064Y1561880D1*
X2469661Y1642264D1*
X2517356Y1642175D2*
X2505860Y1638373D1*
X2498166Y1626877D1*
X2494364Y1607776D1*
Y1596279D1*
X2498166Y1577178D1*
X2505860Y1565682D1*
X2517356Y1561880D1*
X2524961D1*
X2536457Y1565682D1*
X2544062Y1577178D1*
X2547953Y1596279D1*
Y1607776D1*
X2544062Y1626877D1*
X2536457Y1638373D1*
X2524961Y1642175D1*
X2517356D1*
X2544062Y1626877D2*
X2498166Y1577178D1*
X2572656Y1626877D2*
X2580349Y1630768D1*
X2591846Y1642175D1*
Y1561880D1*
X2616548Y1626877D2*
X2624242Y1630768D1*
X2635738Y1642175D1*
Y1561880D1*
X1638377Y1034484D2*
D37*
X1629755Y1031632D1*
X1623985Y1023010D1*
X1621133Y1008684D1*
Y1000062D1*
X1623985Y985736D1*
X1629755Y977114D1*
X1638377Y974262D1*
X1644081D1*
X1652703Y977114D1*
X1658407Y985736D1*
X1661325Y1000062D1*
Y1008684D1*
X1658407Y1023010D1*
X1652703Y1031632D1*
X1644081Y1034484D1*
X1638377D1*
X1658407Y1023010D2*
X1623985Y985736D1*
X1691326Y974262D2*
X1720044Y1034484D1*
X1679852D1*
X1738571Y1004373D2*
X1771733D1*
X1790260Y1023010D2*
X1796030Y1025928D1*
X1804652Y1034484D1*
Y974262D1*
X1823179Y1023010D2*
X1828950Y1025928D1*
X1837572Y1034484D1*
Y974262D1*
X1856099Y1004373D2*
X1889260D1*
X1910706Y1020158D2*
Y1023010D1*
X1913558Y1028780D1*
X1916410Y1031632D1*
X1922180Y1034484D1*
X1933654D1*
X1939357Y1031632D1*
X1942209Y1028780D1*
X1945128Y1023010D1*
Y1017306D1*
X1942209Y1011536D1*
X1936506Y1002980D1*
X1907787Y974262D1*
X1947979D1*
X1969425Y1020158D2*
Y1023010D1*
X1972277Y1028780D1*
X1975129Y1031632D1*
X1980899Y1034484D1*
X1992373D1*
X1998077Y1031632D1*
X2000928Y1028780D1*
X2003847Y1023010D1*
Y1017306D1*
X2000928Y1011536D1*
X1995225Y1002980D1*
X1966507Y974262D1*
X2006699D1*
X583274Y1101611D2*
Y1049945D1*
X557474Y1075745D2*
X609140D1*
X633437Y1105889D2*
X664941D1*
X647763Y1082941D1*
X656385D1*
X662089Y1080089D1*
X664941Y1077237D1*
X667859Y1068615D1*
Y1062911D1*
X664941Y1054289D1*
X659237Y1048519D1*
X650615Y1045667D1*
X641993D1*
X633437Y1048519D1*
X630586Y1051437D1*
X627667Y1057141D1*
X689238Y1051437D2*
X686386Y1048519D1*
X689238Y1045667D1*
X692157Y1048519D1*
X689238Y1051437D1*
X716454Y1105889D2*
X747957D1*
X730780Y1082941D1*
X739402D1*
X745106Y1080089D1*
X747957Y1077237D1*
X750876Y1068615D1*
Y1062911D1*
X747957Y1054289D1*
X742254Y1048519D1*
X733632Y1045667D1*
X725010D1*
X716454Y1048519D1*
X713602Y1051437D1*
X710684Y1057141D1*
X1789965Y847376D2*
X1795735Y850294D1*
X1804357Y858850D1*
Y798628D1*
X1834358D2*
X1863076Y858850D1*
X1822884D1*
X2496012Y835877D2*
X2501782Y838795D1*
X2510405Y847351D1*
Y787129D1*
X2543257Y847351D2*
X2534702Y844499D1*
X2531784Y838795D1*
Y833025D1*
X2534702Y827321D1*
X2540406Y824403D1*
X2551880Y821551D1*
X2560502Y818699D1*
X2566205Y812929D1*
X2569057Y807225D1*
Y798603D1*
X2566205Y792899D1*
X2563353Y789981D1*
X2554731Y787129D1*
X2543257D1*
X2534702Y789981D1*
X2531784Y792899D1*
X2528932Y798603D1*
Y807225D1*
X2531784Y812929D1*
X2537554Y818699D1*
X2546109Y821551D1*
X2557583Y824403D1*
X2563353Y827321D1*
X2566205Y833025D1*
Y838795D1*
X2563353Y844499D1*
X2554731Y847351D1*
X2543257D1*
M02*
