M48
; DRILL file KiCad 10.0.1 date 2026-09-07T00:35:15
; FORMAT={-:-/ absolute / metric / decimal}
; #@! TF.CreationDate,2026-09-07T00:35:15-05:00
; #@! TF.GenerationSoftware,Kicad,Pcbnew,10.0.1
; #@! TF.FileFunction,Plated,1,4,PTH
FMAT,2
METRIC
; #@! TA.AperFunction,Plated,PTH,ViaDrill
T1C0.300
; #@! TA.AperFunction,Plated,PTH,ComponentDrill
T2C1.000
%
G90
G05
T1
X114.173Y-81.534
X114.554Y-85.217
X114.681Y-93.345
X114.681Y-96.52
X114.935Y-91.567
X115.697Y-81.915
X116.84Y-78.105
X116.84Y-88.519
X116.84Y-91.186
X116.84Y-93.345
X116.84Y-96.52
X116.84Y-101.727
X117.39Y-89.535
X117.863Y-90.18
X117.983Y-81.153
X118.557Y-90.778
X118.999Y-91.567
X119.126Y-93.853
X119.126Y-96.52
X119.507Y-81.153
X120.316Y-89.947
X121.666Y-96.52
X121.92Y-89.535
X122.174Y-85.09
X123.429Y-90.82
X123.444Y-92.329
X123.79Y-96.55
X123.825Y-85.09
X124.333Y-78.105
X124.46Y-88.646
X124.46Y-98.425
X124.714Y-101.6
X125.095Y-93.345
X125.73Y-81.28
X126.111Y-85.09
X126.873Y-87.503
X128.27Y-81.28
X128.27Y-85.09
X128.905Y-87.503
X129.06Y-93.28
X129.15Y-91.45
X130.556Y-89.154
X130.81Y-81.28
X130.81Y-83.185
X130.81Y-85.09
X131.318Y-78.105
X131.318Y-87.503
X132.334Y-97.536
X132.44Y-88.71
X132.85Y-90.1
X133.35Y-84.709
X133.73Y-95.12
X134.874Y-89.154
X134.98Y-92.31
X135.01Y-96.84
X135.44Y-90.68
X135.636Y-83.312
X137.16Y-83.058
X137.16Y-85.471
X137.16Y-87.63
X137.17Y-90.02
X137.668Y-98.552
X138.87Y-90.02
X138.938Y-85.471
X138.938Y-87.63
X139.42Y-98.79
X139.7Y-83.058
X140.37Y-91.67
X140.716Y-85.368
X141.224Y-86.36
X141.224Y-87.376
X141.224Y-88.392
X141.732Y-98.806
X141.732Y-100.584
X142.24Y-83.058
X142.748Y-79.756
X144.01Y-98.37
X145.923Y-91.567
X146.05Y-93.64
X146.07Y-95.1
X146.15Y-96.72
X146.685Y-86.741
T2
X115.57Y-79.756
X115.57Y-100.076
X118.11Y-79.756
X118.11Y-100.076
X120.65Y-79.756
X120.65Y-100.076
X123.19Y-79.756
X123.19Y-100.076
X123.825Y-83.312
X125.73Y-79.756
X125.73Y-100.076
X126.365Y-83.312
X126.585Y-96.4
X128.27Y-79.756
X128.27Y-100.076
X128.905Y-83.312
X129.125Y-96.4
X133.35Y-79.756
X135.89Y-79.756
X138.43Y-79.756
X140.97Y-79.756
M30
