%TF.GenerationSoftware,KiCad,Pcbnew,10.0.1*%
%TF.CreationDate,2026-09-07T00:35:18-05:00*%
%TF.ProjectId,T41-si5351A-B-GM-Oscillator-daughterboard,5434312d-7369-4353-9335-31412d422d47,rev?*%
%TF.SameCoordinates,Original*%
%TF.FileFunction,Paste,Top*%
%TF.FilePolarity,Positive*%
%FSLAX46Y46*%
G04 Gerber Fmt 4.6, Leading zero omitted, Abs format (unit mm)*
G04 Created by KiCad (PCBNEW 10.0.1) date 2026-09-07 00:35:18*
%MOMM*%
%LPD*%
G01*
G04 APERTURE LIST*
G04 Aperture macros list*
%AMRoundRect*
0 Rectangle with rounded corners*
0 $1 Rounding radius*
0 $2 $3 $4 $5 $6 $7 $8 $9 X,Y pos of 4 corners*
0 Add a 4 corners polygon primitive as box body*
4,1,4,$2,$3,$4,$5,$6,$7,$8,$9,$2,$3,0*
0 Add four circle primitives for the rounded corners*
1,1,$1+$1,$2,$3*
1,1,$1+$1,$4,$5*
1,1,$1+$1,$6,$7*
1,1,$1+$1,$8,$9*
0 Add four rect primitives between the rounded corners*
20,1,$1+$1,$2,$3,$4,$5,0*
20,1,$1+$1,$4,$5,$6,$7,0*
20,1,$1+$1,$6,$7,$8,$9,0*
20,1,$1+$1,$8,$9,$2,$3,0*%
G04 Aperture macros list end*
%ADD10RoundRect,0.218750X0.218750X0.256250X-0.218750X0.256250X-0.218750X-0.256250X0.218750X-0.256250X0*%
%ADD11R,1.000000X1.000000*%
%ADD12R,0.600000X0.650000*%
%ADD13R,1.000000X0.600000*%
%ADD14RoundRect,0.225000X-0.225000X-0.250000X0.225000X-0.250000X0.225000X0.250000X-0.225000X0.250000X0*%
%ADD15RoundRect,0.250000X0.295000X0.295000X-0.295000X0.295000X-0.295000X-0.295000X0.295000X-0.295000X0*%
%ADD16RoundRect,0.062500X0.337500X0.062500X-0.337500X0.062500X-0.337500X-0.062500X0.337500X-0.062500X0*%
%ADD17RoundRect,0.062500X0.062500X0.337500X-0.062500X0.337500X-0.062500X-0.337500X0.062500X-0.337500X0*%
%ADD18RoundRect,0.225000X0.250000X-0.225000X0.250000X0.225000X-0.250000X0.225000X-0.250000X-0.225000X0*%
%ADD19RoundRect,0.218750X0.256250X-0.218750X0.256250X0.218750X-0.256250X0.218750X-0.256250X-0.218750X0*%
%ADD20RoundRect,0.218750X-0.218750X-0.256250X0.218750X-0.256250X0.218750X0.256250X-0.218750X0.256250X0*%
%ADD21RoundRect,0.200000X-0.275000X0.200000X-0.275000X-0.200000X0.275000X-0.200000X0.275000X0.200000X0*%
%ADD22RoundRect,0.200000X0.275000X-0.200000X0.275000X0.200000X-0.275000X0.200000X-0.275000X-0.200000X0*%
%ADD23RoundRect,0.218750X-0.256250X0.218750X-0.256250X-0.218750X0.256250X-0.218750X0.256250X0.218750X0*%
%ADD24RoundRect,0.200000X-0.250000X0.200000X-0.250000X-0.200000X0.250000X-0.200000X0.250000X0.200000X0*%
%ADD25RoundRect,0.225000X-0.250000X0.225000X-0.250000X-0.225000X0.250000X-0.225000X0.250000X0.225000X0*%
%ADD26R,0.850000X1.090000*%
%ADD27RoundRect,0.150000X0.625000X-0.150000X0.625000X0.150000X-0.625000X0.150000X-0.625000X-0.150000X0*%
%ADD28RoundRect,0.250000X0.650000X-0.350000X0.650000X0.350000X-0.650000X0.350000X-0.650000X-0.350000X0*%
G04 APERTURE END LIST*
D10*
%TO.C,L2*%
X122580501Y-92456000D03*
X121005499Y-92456000D03*
%TD*%
D11*
%TO.C,U2*%
X136652000Y-98522000D03*
D12*
X135002001Y-98347000D03*
X133801999Y-98347000D03*
D11*
X132152000Y-98522000D03*
D13*
X132152000Y-99822000D03*
D11*
X132152000Y-101122000D03*
D12*
X133801999Y-101297000D03*
X135002001Y-101297000D03*
D11*
X136652000Y-101122000D03*
D13*
X136652000Y-99822000D03*
%TD*%
D14*
%TO.C,C4*%
X121031000Y-90805000D03*
X122581000Y-90805000D03*
%TD*%
D15*
%TO.C,U1*%
X120391000Y-87884000D03*
X120391000Y-86534000D03*
X119041000Y-87884000D03*
X119041000Y-86534000D03*
D16*
X121666000Y-88209000D03*
X121666000Y-87709000D03*
X121666000Y-87209000D03*
X121666000Y-86709000D03*
X121666000Y-86209000D03*
D17*
X120716000Y-85259000D03*
X120216000Y-85259000D03*
X119716000Y-85259000D03*
X119216000Y-85259000D03*
X118716000Y-85259000D03*
D16*
X117766000Y-86209000D03*
X117766000Y-86709000D03*
X117766000Y-87209000D03*
X117766000Y-87709000D03*
X117766000Y-88209000D03*
D17*
X118716000Y-89159000D03*
X119216000Y-89159000D03*
X119716000Y-89159000D03*
X120216000Y-89159000D03*
X120716000Y-89159000D03*
%TD*%
D18*
%TO.C,C5*%
X114808000Y-87516000D03*
X114808000Y-85966000D03*
%TD*%
D19*
%TO.C,L4*%
X114808000Y-90576501D03*
X114808000Y-89001499D03*
%TD*%
D20*
%TO.C,L1*%
X139420499Y-98806000D03*
X140995501Y-98806000D03*
%TD*%
D14*
%TO.C,C1*%
X139458501Y-100584000D03*
X141008501Y-100584000D03*
%TD*%
D21*
%TO.C,R1*%
X134874000Y-83503000D03*
X134874000Y-85153000D03*
%TD*%
D22*
%TO.C,R2*%
X134874000Y-88201000D03*
X134874000Y-86551000D03*
%TD*%
D23*
%TO.C,L3*%
X117221000Y-82270499D03*
X117221000Y-83845501D03*
%TD*%
D24*
%TO.C,U3*%
X139090000Y-94230000D03*
X137240000Y-94230000D03*
X137240000Y-95680000D03*
X139090000Y-95680000D03*
%TD*%
D25*
%TO.C,C2*%
X127100000Y-91950000D03*
X127100000Y-93500000D03*
%TD*%
D26*
%TO.C,U4*%
X133735000Y-92235000D03*
X131005000Y-92235000D03*
X131005000Y-94025000D03*
X133735000Y-94025000D03*
%TD*%
D27*
%TO.C,J1*%
X142780000Y-88368000D03*
X142780000Y-87368000D03*
X142780000Y-86368000D03*
X142780000Y-85368000D03*
D28*
X146655000Y-89668000D03*
X146655000Y-84068000D03*
%TD*%
D18*
%TO.C,C3*%
X118745000Y-83833000D03*
X118745000Y-82283000D03*
%TD*%
M02*
