G04 DipTrace 3.3.1.1*
G04 BottomMask.gbr*
%MOIN*%
G04 #@! TF.FileFunction,Soldermask,Bot*
G04 #@! TF.Part,Single*
%ADD39C,0.15748*%
%ADD49C,0.078031*%
%ADD51R,0.078031X0.078031*%
%ADD55C,0.067087*%
%ADD57C,0.128031*%
%ADD61C,0.067087*%
%ADD63R,0.067087X0.067087*%
%ADD65O,0.145827X0.071024*%
%ADD67O,0.071024X0.145827*%
%ADD69C,0.068031*%
%ADD73R,0.071024X0.071024*%
%ADD75C,0.071024*%
%FSLAX26Y26*%
G04*
G70*
G90*
G75*
G01*
G04 BotMask*
%LPD*%
D75*
X1099308Y1612374D3*
D73*
Y1712374D3*
D75*
X2281464Y2950752D3*
D73*
X2181464D3*
D75*
X1243306Y3042506D3*
D73*
Y2942506D3*
D75*
X2483709Y2775435D3*
D73*
X2383709D3*
D75*
X2297475Y2060412D3*
D73*
X2197475D3*
D75*
X862273Y2365414D3*
D73*
X962273D3*
D75*
X2300987Y1812166D3*
D73*
X2200987D3*
D75*
X2874978Y793615D3*
D73*
Y893615D3*
D75*
X1757457Y2308849D3*
D73*
Y2408849D3*
D75*
X1100052Y1273668D3*
D73*
Y1373668D3*
D39*
X4192063Y540385D3*
X547793Y536681D3*
D69*
X523056Y1902283D3*
Y1802283D3*
Y1702283D3*
Y1602283D3*
Y1502283D3*
Y1402283D3*
Y1302283D3*
X623056D3*
Y1402283D3*
Y1502283D3*
Y1602283D3*
Y1702283D3*
Y1802283D3*
Y1902283D3*
Y2002283D3*
X523056D3*
D67*
X459659Y2886577D3*
D65*
X757135Y3080722D3*
X724652Y2994668D3*
X627278Y2702000D3*
D67*
X895293Y2736890D3*
D63*
X519448Y2383307D3*
D61*
Y2462047D3*
D57*
X4218808Y868297D3*
X4018808D3*
Y1068297D3*
X4218808D3*
X4118808Y968297D3*
D55*
X2682310Y2993533D3*
X2577241Y2454309D3*
D57*
X4044625Y3047474D3*
Y2847474D3*
D55*
X2667455Y2056429D3*
X2551921Y1803933D3*
X1401549Y3051044D3*
X733730Y2469925D3*
X920992Y1787427D3*
X1312087Y1187179D3*
X3738663Y2363902D3*
X4039437Y2314029D3*
X3788301Y731585D3*
X3401930Y1354836D3*
X3797499Y1255944D3*
X4205280Y1315639D3*
X1171474Y2365042D3*
X2921727Y2639668D3*
D57*
X3844625Y2847474D3*
D55*
X2657429Y1930161D3*
D57*
X3844625Y3047474D3*
D55*
X2598740Y862753D3*
X1144417Y1015831D3*
X870316Y1897088D3*
X1548139Y3056668D3*
X3618470Y659791D3*
X3629470Y2966828D3*
X3884797Y2290298D3*
D57*
X3944625Y2947474D3*
D51*
X3387545Y875293D3*
D49*
Y975293D3*
Y1075293D3*
X3787545D3*
Y875293D3*
M02*
