M48
INCH
T01C0.0191
T02C0.0354
T03C0.0394
T04C0.06
T05C0.1575
%
T01
X+023904Y+023553
X+023920Y+022089
X+022444Y+022044
X+021212Y+022081
X+020175Y+022120
X+018473Y+022120
X+017001Y+022097
X+016932Y+021226
X+015357Y+022013
X+014749Y+023051
X+013345Y+023178
X+012275Y+022568
X+011827Y+021200
X+010633Y+020832
X+010925Y+019908
X+009611Y+020162
X+008271Y+020832
X+007919Y+018991
X+007136Y+022510
X+005015Y+022578
X+010633Y+022407
X+010564Y+024472
X+011271Y+025066
X+010585Y+025845
X+010676Y+027136
X+012333Y+026604
X+013528Y+025271
X+014733Y+025907
X+014183Y+027030
X+017213Y+025835
X+016701Y+024684
X+020291Y+025508
X+019706Y+027213
X+017789Y+028215
X+019726Y+029680
X+022368Y+030728
X+024104Y+030147
X+024297Y+030900
X+026876Y+028771
X+027956Y+027525
X+027562Y+025557
X+028743Y+024376
X+029924Y+023194
X+031106Y+024376
X+031106Y+026344
X+032254Y+026982
X+032254Y+027894
X+032292Y+028901
X+032273Y+030061
X+030930Y+029932
X+031106Y+027919
X+033585Y+027438
X+035067Y+027343
X+035091Y+028485
X+036797Y+027362
X+038108Y+027343
X+039439Y+027442
X+040731Y+027191
X+040395Y+024962
X+038980Y+023588
X+038980Y+021226
X+039373Y+020045
X+038192Y+020045
X+036816Y+020405
X+035891Y+019821
X+034255Y+020832
X+033074Y+021226
X+033117Y+019782
X+031443Y+018824
X+030781Y+018355
X+031443Y+017561
X+031494Y+016110
X+030728Y+016149
X+029924Y+015320
X+029137Y+015714
X+028396Y+014760
X+027654Y+013981
X+028320Y+012936
X+029924Y+013352
X+031106Y+013352
X+032425Y+013563
X+033223Y+014190
X+034485Y+013097
X+035713Y+011909
X+035568Y+010876
X+036379Y+010198
X+035637Y+009229
X+035399Y+008284
X+034742Y+007069
X+033664Y+007031
X+032287Y+007053
X+032287Y+005478
X+030712Y+007053
X+029114Y+005949
X+026989Y+007914
X+025200Y+008234
X+025200Y+009809
X+027027Y+009837
X+028296Y+009893
X+028320Y+010598
X+029531Y+010990
X+029531Y+010202
X+030712Y+010202
X+031106Y+011777
X+029531Y+011777
X+026875Y+011510
X+026495Y+013183
X+024346Y+014394
X+024019Y+014927
X+023231Y+014139
X+022444Y+013352
X+022075Y+014785
X+021139Y+014773
X+019944Y+014865
X+019784Y+016048
X+019800Y+017653
X+020768Y+018166
X+020868Y+019244
X+020082Y+020045
X+019688Y+018864
X+018507Y+019257
X+015490Y+018961
X+015072Y+019949
X+014749Y+020711
X+013114Y+019930
X+013761Y+018980
X+012164Y+019018
X+012765Y+016905
X+012785Y+016050
X+012791Y+015178
X+014176Y+014139
X+015357Y+012958
X+016539Y+011777
X+018507Y+011777
X+018507Y+012565
X+018607Y+014874
X+016783Y+014893
X+015737Y+014855
X+016194Y+015984
X+011898Y+016775
X+009896Y+014758
X+008110Y+011465
X+013286Y+011005
X+021263Y+011777
X+022050Y+009809
X+025200Y+006659
X+025200Y+005084
X+025482Y+015594
X+023231Y+016108
X+024607Y+017979
X+024766Y+019061
X+025200Y+019651
X+023625Y+019651
X+022050Y+019651
X+022236Y+023535
X+022206Y+024943
X+023122Y+026332
X+025402Y+023392
X+025416Y+021998
X+026767Y+022861
X+027540Y+021850
X+028481Y+020933
X+028350Y+019651
X+027503Y+019648
X+027169Y+018470
X+027548Y+017561
X+028350Y+018470
X+030196Y+019856
X+030193Y+020412
X+031106Y+022013
X+033074Y+022801
X+033074Y+024376
X+033861Y+024376
X+034649Y+024769
X+035436Y+023982
X+036617Y+023982
X+036617Y+025143
X+033074Y+025950
X+034205Y+017496
X+034322Y+015568
X+036277Y+016241
X+036899Y+016863
X+037100Y+015904
X+036376Y+015087
X+037070Y+013733
X+037070Y+012604
X+037158Y+011871
X+038773Y+012137
X+039762Y+013753
X+039705Y+014817
X+039667Y+016034
X+038442Y+015569
X+039233Y+017298
X+040432Y+019064
X+041342Y+019651
X+041342Y+018076
X+041342Y+016502
X+041342Y+014927
X+041342Y+021226
X+041342Y+023194
X+031574Y+015062
X+039040Y+009020
X+038868Y+007747
X+038070Y+006302
X+036379Y+005732
X+040085Y+004953
X+041244Y+007804
T02
X+005231Y+019023
X+006231Y+019023
X+006231Y+020023
X+005231Y+020023
X+005231Y+018023
X+006231Y+018023
X+006231Y+017023
X+006231Y+016023
X+006231Y+015023
X+005231Y+015023
X+005231Y+016023
X+005231Y+017023
X+005231Y+014023
X+006231Y+014023
X+006231Y+013023
X+005231Y+013023
X+009210Y+017874
X+008703Y+018971
X+011715Y+023650
X+007337Y+024699
X+005194Y+024620
X+005194Y+023833
X+014015Y+030510
X+015481Y+030567
X+026823Y+029935
X+029217Y+026397
X+025772Y+024543
X+026675Y+020564
X+026574Y+019302
X+025519Y+018039
X+025987Y+008628
X+033875Y+008753
X+033875Y+009753
X+033875Y+010753
X+034019Y+013548
X+037975Y+012559
X+037875Y+010753
X+037875Y+008753
X+037883Y+007316
X+036185Y+006598
X+042053Y+013156
X+040394Y+023140
X+038848Y+022903
X+037387Y+023639
X+036295Y+029668
X+013121Y+011872
X+011444Y+010158
T03
X+010993Y+016124
X+010993Y+017124
X+011001Y+013737
X+011001Y+012737
X+009623Y+023654
X+008623Y+023654
X+008953Y+026995G85X+008953Y+027743
X+006647Y+027020G85X+005899Y+027020
X+004597Y+028492G85X+004597Y+029240
X+007621Y+029947G85X+006873Y+029947
X+007945Y+030807G85X+007197Y+030807
X+012433Y+030425
X+012433Y+029425
X+017575Y+024088
X+017575Y+023088
X+021975Y+020604
X+022975Y+020604
X+023010Y+018122
X+022010Y+018122
X+023837Y+027754
X+024837Y+027754
X+022815Y+029508
X+021815Y+029508
X+028750Y+008936
X+028750Y+007936
T04
X+042188Y+008683
X+041188Y+009683
X+040188Y+008683
X+040188Y+010683
X+042188Y+010683
X+040446Y+028475
X+039446Y+029475
X+038446Y+030475
X+040446Y+030475
X+038446Y+028475
T05
X+041921Y+005404
X+005478Y+005367
T00
M30
