G04 DipTrace 3.3.1.1*
G04 TopPaste.gbr*
%MOIN*%
G04 #@! TF.FileFunction,Paste,Top*
G04 #@! TF.Part,Single*
%ADD46R,0.062835X0.007717*%
%ADD48R,0.070709X0.015591*%
%ADD54R,0.017559X0.033307*%
%ADD60R,0.039213X0.054961*%
%ADD64R,0.051024X0.051024*%
%ADD72R,0.054961X0.062835*%
%ADD78R,0.062835X0.054961*%
%FSLAX26Y26*%
G04*
G70*
G90*
G75*
G01*
G04 TopPaste*
%LPD*%
D78*
X917080Y1570293D3*
Y1680529D3*
X1394370Y2783604D3*
Y2893840D3*
X3350161Y1751715D3*
Y1861951D3*
X1071315Y3080022D3*
Y2969786D3*
D72*
X3363513Y1507483D3*
X3253277D3*
D78*
X1540311Y2743022D3*
Y2632786D3*
X1371000Y1690482D3*
Y1800718D3*
X3253615Y1715832D3*
Y1826068D3*
X3060705Y893534D3*
Y783298D3*
D72*
X864825Y2544446D3*
X975062D3*
X3366546Y1605375D3*
X3256310D3*
D78*
X1474336Y1606400D3*
Y1496164D3*
X1950930Y2412722D3*
Y2302486D3*
X1405440Y2181373D3*
Y2071136D3*
X2547261Y1280436D3*
Y1170199D3*
X1603146Y2415312D3*
Y2305076D3*
X3543622Y2634407D3*
Y2524171D3*
X4149436Y2624210D3*
Y2513974D3*
X917270Y1276139D3*
Y1386375D3*
D72*
X3820157Y1834215D3*
X3930394D3*
D78*
X1895373Y2117269D3*
Y2007033D3*
D72*
X3614844Y1888051D3*
X3725080D3*
D60*
X1603825Y2502512D3*
X1485715D3*
X1755361Y1983437D3*
X1637251D3*
X3313627Y2635367D3*
X3431738D3*
X3355055Y1267345D3*
X3236945D3*
D64*
X2668583Y1426562D3*
X2667248Y1494159D3*
D54*
X2259644Y1172707D3*
X2334448D3*
X2297046Y1263259D3*
D72*
X2478913Y2942434D3*
X2589149D3*
D78*
X1541793Y2825772D3*
Y2936008D3*
X2059278Y2668378D3*
Y2778614D3*
D72*
X1155560Y2771291D3*
X1265796D3*
X1729815Y2969257D3*
X1840051D3*
X2470540Y2589197D3*
X2580776D3*
D78*
X3218514Y1010209D3*
Y1120445D3*
X3586152Y2160298D3*
Y2270534D3*
D72*
X2438578Y2055415D3*
X2548814D3*
D78*
X4041400Y2092365D3*
Y2202601D3*
X1543105Y1691348D3*
Y1801584D3*
X2073152Y1556463D3*
Y1666699D3*
X962024Y2234138D3*
Y2123902D3*
X3216605Y786448D3*
Y896684D3*
D72*
X1695159Y1825083D3*
X1805395D3*
X2440744Y1723497D3*
X2550980D3*
X1806484Y2559077D3*
X1916721D3*
D78*
X2114355Y2302608D3*
Y2412844D3*
X2543109Y1382196D3*
Y1492432D3*
D48*
X1672690Y2850602D3*
Y2800602D3*
Y2750602D3*
Y2700602D3*
X1885289D3*
Y2750602D3*
Y2800602D3*
Y2850602D3*
X1679161Y1705274D3*
Y1655274D3*
Y1605274D3*
Y1555274D3*
X1891760D3*
Y1605274D3*
Y1655274D3*
Y1705274D3*
D46*
X3551903Y1769891D3*
Y1744301D3*
Y1718710D3*
Y1693119D3*
Y1667529D3*
Y1641938D3*
Y1616348D3*
Y1590757D3*
X3780257D3*
X3780249Y1616348D3*
Y1641938D3*
Y1667529D3*
Y1693119D3*
Y1718710D3*
Y1744301D3*
Y1769891D3*
X3745702Y2644678D3*
Y2619088D3*
Y2593497D3*
Y2567907D3*
Y2542316D3*
Y2516726D3*
X3745710Y2491135D3*
X3974049D3*
Y2516726D3*
Y2542316D3*
Y2567907D3*
Y2593497D3*
Y2619088D3*
Y2644678D3*
D78*
X2209959Y2668458D3*
Y2778695D3*
X2197551Y1557782D3*
Y1668018D3*
M02*
