G04 DipTrace 3.3.1.1*
G04 TopSilk.gbr*
%MOIN*%
G04 #@! TF.FileFunction,Legend,Top*
G04 #@! TF.Part,Single*
%ADD10C,0.009843*%
%ADD12C,0.003*%
%ADD31C,0.015404*%
%ADD33C,0.025013*%
%ADD79C,0.006176*%
%ADD80C,0.004632*%
%ADD81C,0.009264*%
%ADD82C,0.003088*%
%FSLAX26Y26*%
G04*
G70*
G90*
G75*
G01*
G04 TopSilk*
%LPD*%
X948545Y1621080D2*
D10*
X885616D1*
X948545Y1613631D2*
X885616D1*
X948545D2*
Y1637190D1*
X885616Y1613631D2*
Y1637190D1*
X1039308Y1732314D2*
Y1592434D1*
X1159308Y1732314D2*
Y1592434D1*
X1039308D2*
G03X1159308Y1592434I60000J-60D01*
G01*
Y1732314D2*
G03X1039308Y1732314I-60000J60D01*
G01*
X1425834Y2834391D2*
X1362905D1*
X1425834Y2826942D2*
X1362905D1*
X1425834D2*
Y2850501D1*
X1362905Y2826942D2*
Y2850501D1*
X2161524Y2890752D2*
X2301404D1*
X2161524Y3010752D2*
X2301404D1*
Y2890752D2*
G03X2301404Y3010752I60J60000D01*
G01*
X2161524D2*
G03X2161524Y2890752I-60J-60000D01*
G01*
X3381626Y1802503D2*
X3318697D1*
X3381626Y1795054D2*
X3318697D1*
X3381626D2*
Y1818613D1*
X3318697Y1795054D2*
Y1818613D1*
X1303306Y2922566D2*
Y3062446D1*
X1183306Y2922566D2*
Y3062446D1*
X1303306D2*
G03X1183306Y3062446I-60000J60D01*
G01*
Y2922566D2*
G03X1303306Y2922566I60000J-60D01*
G01*
X2363769Y2715435D2*
X2503649D1*
X2363769Y2835435D2*
X2503649D1*
Y2715435D2*
G03X2503649Y2835435I60J60000D01*
G01*
X2363769D2*
G03X2363769Y2715435I-60J-60000D01*
G01*
X1039850Y3029235D2*
X1102780D1*
X1039850Y3036684D2*
X1102780D1*
X1039850D2*
Y3013125D1*
X1102780Y3036684D2*
Y3013125D1*
X3312726Y1538948D2*
Y1476018D1*
X3320175Y1538948D2*
Y1476018D1*
Y1538948D2*
X3296615D1*
X3320175Y1476018D2*
X3296615D1*
X1508846Y2692235D2*
X1571776D1*
X1508846Y2699684D2*
X1571776D1*
X1508846D2*
Y2676125D1*
X1571776Y2699684D2*
Y2676125D1*
X1402465Y1741269D2*
X1339535D1*
X1402465Y1733820D2*
X1339535D1*
X1402465D2*
Y1757379D1*
X1339535Y1733820D2*
Y1757379D1*
X2177535Y2000412D2*
X2317415D1*
X2177535Y2120412D2*
X2317415D1*
Y2000412D2*
G03X2317415Y2120412I60J60000D01*
G01*
X2177535D2*
G03X2177535Y2000412I-60J-60000D01*
G01*
X3285080Y1766619D2*
X3222151D1*
X3285080Y1759171D2*
X3222151D1*
X3285080D2*
Y1782730D1*
X3222151Y1759171D2*
Y1782730D1*
X982213Y2425414D2*
X842333D1*
X982213Y2305414D2*
X842333D1*
Y2425414D2*
G03X842333Y2305414I-60J-60000D01*
G01*
X982213D2*
G03X982213Y2425414I60J60000D01*
G01*
X3029240Y842747D2*
X3092169D1*
X3029240Y850196D2*
X3092169D1*
X3029240D2*
Y826636D1*
X3092169Y850196D2*
Y826636D1*
X2181047Y1752166D2*
X2320927D1*
X2181047Y1872166D2*
X2320927D1*
Y1752166D2*
G03X2320927Y1872166I60J60000D01*
G01*
X2181047D2*
G03X2181047Y1752166I-60J-60000D01*
G01*
X2814978Y913555D2*
Y773675D1*
X2934978Y913555D2*
Y773675D1*
X2814978D2*
G03X2934978Y773675I60000J-60D01*
G01*
Y913555D2*
G03X2814978Y913555I-60000J60D01*
G01*
X915613Y2512982D2*
Y2575911D1*
X908164Y2512982D2*
Y2575911D1*
Y2512982D2*
X931723D1*
X908164Y2575911D2*
X931723D1*
X3315759Y1636840D2*
Y1573911D1*
X3323207Y1636840D2*
Y1573911D1*
Y1636840D2*
X3299648D1*
X3323207Y1573911D2*
X3299648D1*
X1442871Y1555613D2*
X1505801D1*
X1442871Y1563062D2*
X1505801D1*
X1442871D2*
Y1539503D1*
X1505801Y1563062D2*
Y1539503D1*
X1919466Y2361934D2*
X1982395D1*
X1919466Y2369383D2*
X1982395D1*
X1919466D2*
Y2345824D1*
X1982395Y2369383D2*
Y2345824D1*
X1697457Y2428789D2*
Y2288909D1*
X1817457Y2428789D2*
Y2288909D1*
X1697457D2*
G03X1817457Y2288909I60000J-60D01*
G01*
Y2428789D2*
G03X1697457Y2428789I-60000J60D01*
G01*
X1373975Y2130585D2*
X1436904D1*
X1373975Y2138034D2*
X1436904D1*
X1373975D2*
Y2114475D1*
X1436904Y2138034D2*
Y2114475D1*
X2515797Y1229648D2*
X2578726D1*
X2515797Y1237097D2*
X2578726D1*
X2515797D2*
Y1213538D1*
X2578726Y1237097D2*
Y1213538D1*
X1571681Y2364525D2*
X1634610D1*
X1571681Y2371974D2*
X1634610D1*
X1571681D2*
Y2348415D1*
X1634610Y2371974D2*
Y2348415D1*
X3512157Y2583619D2*
X3575087D1*
X3512157Y2591068D2*
X3575087D1*
X3512157D2*
Y2567509D1*
X3575087Y2591068D2*
Y2567509D1*
X4117971Y2573423D2*
X4180900D1*
X4117971Y2580871D2*
X4180900D1*
X4117971D2*
Y2557312D1*
X4180900Y2580871D2*
Y2557312D1*
X948735Y1326927D2*
X885806D1*
X948735Y1319478D2*
X885806D1*
X948735D2*
Y1343037D1*
X885806Y1319478D2*
Y1343037D1*
X1040052Y1393608D2*
Y1253728D1*
X1160052Y1393608D2*
Y1253728D1*
X1040052D2*
G03X1160052Y1253728I60000J-60D01*
G01*
Y1393608D2*
G03X1040052Y1393608I-60000J60D01*
G01*
X3870945Y1802751D2*
Y1865680D1*
X3863496Y1802751D2*
Y1865680D1*
Y1802751D2*
X3887055D1*
X3863496Y1865680D2*
X3887055D1*
X1863908Y2066482D2*
X1926837D1*
X1863908Y2073930D2*
X1926837D1*
X1863908D2*
Y2050371D1*
X1926837Y2073930D2*
Y2050371D1*
X3665631Y1856587D2*
Y1919516D1*
X3658182Y1856587D2*
Y1919516D1*
Y1856587D2*
X3681741D1*
X3658182Y1919516D2*
X3681741D1*
X523006Y2176983D2*
Y2202283D1*
X623106Y2176983D2*
X523006D1*
X623106D2*
Y2202283D1*
X523006Y1102283D2*
Y1127583D1*
X623106D2*
X523006D1*
X623106Y1102283D2*
Y1127583D1*
X748056Y1102283D2*
X398056D1*
X748056Y2202283D2*
X398056D1*
X748056Y1102283D2*
Y2202283D1*
X428156Y1732583D2*
X398056D1*
X428156Y1571983D2*
Y1732583D1*
Y1571983D2*
X398056D1*
Y1102283D2*
Y1571983D1*
Y1732583D2*
Y2202283D1*
X403115Y2802146D2*
X429576Y2800340D1*
X401801Y2980031D2*
Y2803443D1*
X948487Y2660986D2*
X432479Y2661959D1*
X430343Y3118921D2*
X431658Y2991702D1*
X948104Y3124108D2*
X431658Y3122812D1*
X432972Y2664552D2*
X431658Y2793069D1*
X949638Y3118921D2*
X948487Y2664876D1*
X401801Y2983921D2*
X431658Y2982624D1*
X472203Y2509291D2*
X566692D1*
Y2336063D1*
X472203D1*
Y2509291D1*
X1560545Y2530102D2*
X1529045D1*
X1560545Y2474984D2*
X1529045D1*
X1712081Y2011028D2*
X1680581D1*
X1712081Y1955909D2*
X1680581D1*
X3356908Y2607777D2*
X3388408D1*
X3356908Y2662895D2*
X3388408D1*
X3311775Y1294936D2*
X3280275D1*
X3311775Y1239818D2*
X3280275D1*
D31*
X2228795Y1157994D3*
X2237996Y1208137D2*
D10*
X2356101D1*
Y1227833D1*
X2237996D1*
Y1208137D1*
X2522252Y2910970D2*
X2545811D1*
X2522252Y2973899D2*
X2545811D1*
X1573257Y2869110D2*
Y2892669D1*
X1510328Y2869110D2*
Y2892669D1*
X2090743Y2711717D2*
Y2735276D1*
X2027814Y2711717D2*
Y2735276D1*
X1198899Y2739826D2*
X1222458D1*
X1198899Y2802755D2*
X1222458D1*
X1773154Y2937793D2*
X1796713D1*
X1773154Y3000722D2*
X1796713D1*
X2513879Y2557732D2*
X2537438D1*
X2513879Y2620661D2*
X2537438D1*
X3249979Y1053547D2*
Y1077106D1*
X3187050Y1053547D2*
Y1077106D1*
X3617617Y2203636D2*
Y2227196D1*
X3554688Y2203636D2*
Y2227196D1*
X2481916Y2023951D2*
X2505475D1*
X2481916Y2086880D2*
X2505475D1*
X4072865Y2135703D2*
Y2159262D1*
X4009936Y2135703D2*
Y2159262D1*
X1574570Y1734686D2*
Y1758245D1*
X1511640Y1734686D2*
Y1758245D1*
X2104616Y1599801D2*
Y1623360D1*
X2041687Y1599801D2*
Y1623360D1*
X930559Y2190799D2*
Y2167240D1*
X993489Y2190799D2*
Y2167240D1*
X3248070Y829786D2*
Y853345D1*
X3185140Y829786D2*
Y853345D1*
X1738497Y1793618D2*
X1762056D1*
X1738497Y1856547D2*
X1762056D1*
X2484083Y1692033D2*
X2507642D1*
X2484083Y1754962D2*
X2507642D1*
X1849823Y2527612D2*
X1873382D1*
X1849823Y2590541D2*
X1873382D1*
X2145819Y2345946D2*
Y2369505D1*
X2082890Y2345946D2*
Y2369505D1*
X2574573Y1425534D2*
Y1449093D1*
X2511644Y1425534D2*
Y1449093D1*
D33*
X3306300Y875298D3*
X3837545Y800293D2*
D10*
Y1150293D1*
X3337566D1*
Y840298D1*
X3377532Y800293D1*
X3837545D1*
X1727801Y2874030D2*
Y2677175D1*
X1830178Y2874030D2*
Y2677175D1*
X1727801D2*
X1830178D1*
X1759295Y2874030D2*
X1727801D1*
X1798684D2*
X1830178D1*
X1759295D2*
G03X1798684Y2874030I19694J9D01*
G01*
X1734272Y1728701D2*
Y1531847D1*
X1836649Y1728701D2*
Y1531847D1*
X1734272D2*
X1836649D1*
X1765766Y1728701D2*
X1734272D1*
X1805155D2*
X1836649D1*
X1765766D2*
G03X1805155Y1728701I19694J9D01*
G01*
X3603094Y1786624D2*
Y1574024D1*
X3729066Y1786624D2*
Y1574024D1*
X3603094D2*
X3729066D1*
X3603094Y1786624D2*
X3646391D1*
X3685769D2*
X3729066D1*
X3646391D2*
G03X3685769Y1786624I19689J23D01*
G01*
X3796891Y2666333D2*
Y2469481D1*
X3922860Y2666333D2*
Y2469481D1*
X3796891D2*
X3922860D1*
X3796891Y2666333D2*
X3840187D1*
X3879564D2*
X3922860D1*
X3840187D2*
G03X3879564Y2666333I19688J3D01*
G01*
X2241424Y2719246D2*
X2178495D1*
X2241424Y2711797D2*
X2178495D1*
X2241424D2*
Y2735356D1*
X2178495Y2711797D2*
Y2735356D1*
X2229016Y1608569D2*
X2166086D1*
X2229016Y1601120D2*
X2166086D1*
X2229016D2*
Y1624680D1*
X2166086Y1601120D2*
Y1624680D1*
X2969465Y2822325D2*
D12*
G02X2969465Y2822325I46869J0D01*
G01*
X832620Y1628786D2*
D79*
X828817Y1626885D1*
X824970Y1623038D1*
X823069Y1619235D1*
Y1611586D1*
X824970Y1607739D1*
X828817Y1603937D1*
X832619Y1601991D1*
X838368Y1600090D1*
X847962D1*
X853666Y1601991D1*
X857513Y1603937D1*
X861315Y1607739D1*
X863261Y1611586D1*
Y1619235D1*
X861315Y1623038D1*
X857513Y1626885D1*
X853666Y1628786D1*
X830762Y1641137D2*
X828817Y1644984D1*
X823113Y1650732D1*
X863261D1*
X1094083Y1841402D2*
X1092182Y1845205D1*
X1088335Y1849052D1*
X1084533Y1850953D1*
X1076883D1*
X1073037Y1849052D1*
X1069234Y1845205D1*
X1067289Y1841402D1*
X1065387Y1835654D1*
Y1826059D1*
X1067289Y1820356D1*
X1069234Y1816509D1*
X1073037Y1812706D1*
X1076883Y1810761D1*
X1084533D1*
X1088335Y1812706D1*
X1092182Y1816509D1*
X1094083Y1820356D1*
X1108380Y1841358D2*
Y1843259D1*
X1110281Y1847106D1*
X1112183Y1849007D1*
X1116029Y1850909D1*
X1123679D1*
X1127481Y1849007D1*
X1129383Y1847106D1*
X1131328Y1843259D1*
Y1839457D1*
X1129383Y1835610D1*
X1125580Y1829906D1*
X1106435Y1810761D1*
X1133229D1*
X1309909Y2833497D2*
X1306106Y2831596D1*
X1302259Y2827749D1*
X1300358Y2823946D1*
Y2816297D1*
X1302259Y2812450D1*
X1306106Y2808648D1*
X1309909Y2806702D1*
X1315657Y2804801D1*
X1325251D1*
X1330955Y2806702D1*
X1334802Y2808648D1*
X1338605Y2812450D1*
X1340550Y2816297D1*
Y2823946D1*
X1338605Y2827749D1*
X1334802Y2831596D1*
X1330955Y2833497D1*
X1300402Y2849695D2*
Y2870698D1*
X1315701Y2859246D1*
Y2864994D1*
X1317602Y2868796D1*
X1319503Y2870697D1*
X1325251Y2872643D1*
X1329054D1*
X1334802Y2870697D1*
X1338649Y2866895D1*
X1340550Y2861147D1*
Y2855399D1*
X1338649Y2849695D1*
X1336703Y2847794D1*
X1332901Y2845848D1*
X2225288Y3059780D2*
X2223387Y3063582D1*
X2219540Y3067429D1*
X2215738Y3069330D1*
X2208088D1*
X2204242Y3067429D1*
X2200439Y3063582D1*
X2198494Y3059780D1*
X2196592Y3054032D1*
Y3044437D1*
X2198494Y3038733D1*
X2200439Y3034886D1*
X2204242Y3031084D1*
X2208088Y3029138D1*
X2215738D1*
X2219540Y3031084D1*
X2223387Y3034886D1*
X2225288Y3038733D1*
X2256785Y3029138D2*
Y3069286D1*
X2237640Y3042536D1*
X2266336D1*
X3408712Y1801608D2*
X3404910Y1799707D1*
X3401063Y1795860D1*
X3399161Y1792058D1*
Y1784409D1*
X3401063Y1780562D1*
X3404909Y1776759D1*
X3408712Y1774814D1*
X3414460Y1772912D1*
X3424055D1*
X3429759Y1774814D1*
X3433605Y1776759D1*
X3437408Y1780562D1*
X3439354Y1784408D1*
Y1792058D1*
X3437408Y1795860D1*
X3433605Y1799707D1*
X3429759Y1801608D1*
X3399206Y1836908D2*
Y1817807D1*
X3416406Y1815905D1*
X3414504Y1817806D1*
X3412559Y1823555D1*
Y1829258D1*
X3414504Y1835006D1*
X3418307Y1838853D1*
X3424055Y1840754D1*
X3427857D1*
X3433605Y1838853D1*
X3437452Y1835006D1*
X3439353Y1829258D1*
Y1823554D1*
X3437452Y1817806D1*
X3435507Y1815905D1*
X3431704Y1813960D1*
X1239053Y2839389D2*
X1237152Y2843191D1*
X1233305Y2847038D1*
X1229503Y2848939D1*
X1221853D1*
X1218007Y2847038D1*
X1214204Y2843191D1*
X1212259Y2839389D1*
X1210357Y2833641D1*
Y2824046D1*
X1212259Y2818342D1*
X1214204Y2814495D1*
X1218007Y2810693D1*
X1221853Y2808747D1*
X1229503D1*
X1233305Y2810693D1*
X1237152Y2814495D1*
X1239053Y2818342D1*
X1274353Y2843191D2*
X1272451Y2846994D1*
X1266703Y2848895D1*
X1262901D1*
X1257153Y2846994D1*
X1253306Y2841246D1*
X1251405Y2831695D1*
Y2822145D1*
X1253306Y2814495D1*
X1257153Y2810649D1*
X1262901Y2808747D1*
X1264802D1*
X1270506Y2810649D1*
X1274353Y2814495D1*
X1276254Y2820243D1*
Y2822145D1*
X1274353Y2827893D1*
X1270506Y2831695D1*
X1264802Y2833597D1*
X1262901D1*
X1257153Y2831695D1*
X1253306Y2827893D1*
X1251405Y2822145D1*
X2428484Y2884463D2*
X2426583Y2888265D1*
X2422736Y2892112D1*
X2418934Y2894013D1*
X2411285D1*
X2407438Y2892112D1*
X2403635Y2888265D1*
X2401690Y2884463D1*
X2399788Y2878715D1*
Y2869120D1*
X2401690Y2863416D1*
X2403635Y2859569D1*
X2407438Y2855767D1*
X2411285Y2853821D1*
X2418934D1*
X2422736Y2855767D1*
X2426583Y2859569D1*
X2428484Y2863416D1*
X2448485Y2853821D2*
X2467630Y2893969D1*
X2440836D1*
X986854Y3019701D2*
X983052Y3017800D1*
X979205Y3013953D1*
X977303Y3010151D1*
Y3002501D1*
X979205Y2998655D1*
X983051Y2994852D1*
X986854Y2992907D1*
X992602Y2991005D1*
X1002197D1*
X1007901Y2992907D1*
X1011747Y2994852D1*
X1015550Y2998655D1*
X1017495Y3002501D1*
Y3010151D1*
X1015550Y3013953D1*
X1011747Y3017800D1*
X1007901Y3019701D1*
X977348Y3041603D2*
X979249Y3035899D1*
X983052Y3033954D1*
X986898D1*
X990701Y3035899D1*
X992646Y3039702D1*
X994548Y3047351D1*
X996449Y3053099D1*
X1000296Y3056902D1*
X1004098Y3058803D1*
X1009846D1*
X1013649Y3056902D1*
X1015594Y3055001D1*
X1017495Y3049253D1*
Y3041603D1*
X1015594Y3035899D1*
X1013649Y3033954D1*
X1009846Y3032053D1*
X1004098D1*
X1000296Y3033954D1*
X996449Y3037801D1*
X994548Y3043505D1*
X992646Y3051154D1*
X990701Y3055001D1*
X986898Y3056902D1*
X983052D1*
X979249Y3055001D1*
X977348Y3049253D1*
Y3041603D1*
X3172753Y1503209D2*
X3168950Y1501307D1*
X3165104Y1497461D1*
X3163202Y1493658D1*
Y1486009D1*
X3165104Y1482162D1*
X3168950Y1478359D1*
X3172753Y1476414D1*
X3178501Y1474513D1*
X3188096D1*
X3193800Y1476414D1*
X3197646Y1478359D1*
X3201449Y1482162D1*
X3203394Y1486009D1*
Y1493658D1*
X3201449Y1497461D1*
X3197646Y1501307D1*
X3193800Y1503209D1*
X3176600Y1540453D2*
X3182348Y1538508D1*
X3186195Y1534705D1*
X3188096Y1528957D1*
Y1527056D1*
X3186195Y1521308D1*
X3182348Y1517505D1*
X3176600Y1515560D1*
X3174699D1*
X3168950Y1517505D1*
X3165148Y1521308D1*
X3163247Y1527056D1*
Y1528957D1*
X3165148Y1534705D1*
X3168950Y1538508D1*
X3176600Y1540453D1*
X3186195D1*
X3195745Y1538508D1*
X3201493Y1534705D1*
X3203394Y1528957D1*
Y1525155D1*
X3201493Y1519407D1*
X3197646Y1517505D1*
X1455850Y2671706D2*
X1452048Y2669805D1*
X1448201Y2665958D1*
X1446300Y2662156D1*
Y2654506D1*
X1448201Y2650660D1*
X1452048Y2646857D1*
X1455850Y2644912D1*
X1461598Y2643010D1*
X1471193D1*
X1476897Y2644912D1*
X1480743Y2646857D1*
X1484546Y2650660D1*
X1486492Y2654506D1*
Y2662156D1*
X1484546Y2665958D1*
X1480744Y2669805D1*
X1476897Y2671706D1*
X1453993Y2684058D2*
X1452048Y2687904D1*
X1446344Y2693652D1*
X1486492D1*
X1446344Y2717500D2*
X1448245Y2711752D1*
X1453993Y2707905D1*
X1463544Y2706004D1*
X1469292D1*
X1478842Y2707905D1*
X1484590Y2711752D1*
X1486492Y2717500D1*
Y2721302D1*
X1484590Y2727050D1*
X1478842Y2730853D1*
X1469292Y2732798D1*
X1463544D1*
X1453993Y2730853D1*
X1448245Y2727050D1*
X1446344Y2721302D1*
Y2717500D1*
X1453993Y2730853D2*
X1478842Y2707905D1*
X1286539Y1738002D2*
X1282737Y1736100D1*
X1278890Y1732254D1*
X1276989Y1728451D1*
X1276988Y1720802D1*
X1278890Y1716955D1*
X1282737Y1713152D1*
X1286539Y1711207D1*
X1292287Y1709306D1*
X1301882D1*
X1307586Y1711207D1*
X1311432Y1713152D1*
X1315235Y1716955D1*
X1317181Y1720802D1*
Y1728451D1*
X1315235Y1732254D1*
X1311433Y1736100D1*
X1307586Y1738002D1*
X1284682Y1750353D2*
X1282737Y1754200D1*
X1277033Y1759948D1*
X1317181D1*
X1284682Y1772299D2*
X1282737Y1776146D1*
X1277033Y1781894D1*
X1317180D1*
X2231277Y2169440D2*
X2229375Y2173243D1*
X2225528Y2177089D1*
X2221726Y2178991D1*
X2214077D1*
X2210230Y2177089D1*
X2206427Y2173243D1*
X2204482Y2169440D1*
X2202581Y2163692D1*
Y2154097D1*
X2204482Y2148393D1*
X2206427Y2144547D1*
X2210230Y2140744D1*
X2214077Y2138799D1*
X2221726D1*
X2225528Y2140744D1*
X2229375Y2144547D1*
X2231277Y2148393D1*
X2243628Y2171297D2*
X2247475Y2173243D1*
X2253223Y2178946D1*
Y2138799D1*
X2267520Y2169396D2*
Y2171297D1*
X2269421Y2175144D1*
X2271322Y2177045D1*
X2275169Y2178946D1*
X2282818D1*
X2286621Y2177045D1*
X2288522Y2175144D1*
X2290468Y2171297D1*
Y2167495D1*
X2288522Y2163648D1*
X2284719Y2157944D1*
X2265574Y2138799D1*
X2292369D1*
X3169155Y1754752D2*
X3165352Y1752851D1*
X3161505Y1749004D1*
X3159604Y1745202D1*
Y1737552D1*
X3161505Y1733705D1*
X3165352Y1729903D1*
X3169155Y1727957D1*
X3174903Y1726056D1*
X3184497D1*
X3190201Y1727957D1*
X3194048Y1729903D1*
X3197851Y1733705D1*
X3199796Y1737552D1*
Y1745201D1*
X3197851Y1749004D1*
X3194048Y1752851D1*
X3190201Y1754752D1*
X3167298Y1767103D2*
X3165352Y1770950D1*
X3159648Y1776698D1*
X3199796D1*
X3159648Y1792896D2*
Y1813899D1*
X3174947Y1802447D1*
Y1808195D1*
X3176848Y1811997D1*
X3178749Y1813899D1*
X3184497Y1815844D1*
X3188300D1*
X3194048Y1813899D1*
X3197895Y1810096D1*
X3199796Y1804348D1*
Y1798600D1*
X3197895Y1792896D1*
X3195949Y1790995D1*
X3192147Y1789050D1*
X895124Y2474442D2*
X893223Y2478245D1*
X889376Y2482091D1*
X885573Y2483993D1*
X877924D1*
X874077Y2482091D1*
X870275Y2478245D1*
X868329Y2474442D1*
X866428Y2468694D1*
Y2459099D1*
X868329Y2453396D1*
X870275Y2449549D1*
X874077Y2445746D1*
X877924Y2443801D1*
X885573D1*
X889376Y2445746D1*
X893223Y2449549D1*
X895124Y2453396D1*
X907475Y2476299D2*
X911322Y2478245D1*
X917070Y2483949D1*
Y2443801D1*
X948567D2*
Y2483949D1*
X929421Y2457198D1*
X958117D1*
X2976244Y822218D2*
X2972441Y820317D1*
X2968595Y816470D1*
X2966693Y812667D1*
Y805018D1*
X2968594Y801171D1*
X2972441Y797369D1*
X2976244Y795423D1*
X2981992Y793522D1*
X2991587D1*
X2997290Y795423D1*
X3001137Y797369D1*
X3004940Y801171D1*
X3006885Y805018D1*
Y812667D1*
X3004940Y816470D1*
X3001137Y820317D1*
X2997290Y822218D1*
X2974387Y834569D2*
X2972441Y838416D1*
X2966737Y844164D1*
X3006885D1*
X2966737Y879463D2*
Y860362D1*
X2983937Y858461D1*
X2982036Y860362D1*
X2980091Y866110D1*
Y871814D1*
X2982036Y877562D1*
X2985839Y881409D1*
X2991587Y883310D1*
X2995389D1*
X3001137Y881409D1*
X3004984Y877562D1*
X3006885Y871814D1*
Y866110D1*
X3004984Y860362D1*
X3003038Y858461D1*
X2999236Y856515D1*
X2235762Y1921194D2*
X2233860Y1924997D1*
X2230014Y1928843D1*
X2226211Y1930745D1*
X2218562D1*
X2214715Y1928843D1*
X2210912Y1924997D1*
X2208967Y1921194D1*
X2207066Y1915446D1*
Y1905851D1*
X2208967Y1900148D1*
X2210912Y1896301D1*
X2214715Y1892498D1*
X2218562Y1890553D1*
X2226211D1*
X2230014Y1892498D1*
X2233860Y1896301D1*
X2235762Y1900148D1*
X2248113Y1923051D2*
X2251960Y1924997D1*
X2257708Y1930701D1*
Y1890553D1*
X2293007Y1924997D2*
X2291106Y1928799D1*
X2285358Y1930701D1*
X2281555D1*
X2275807Y1928799D1*
X2271961Y1923051D1*
X2270059Y1913501D1*
Y1903950D1*
X2271961Y1896301D1*
X2275807Y1892454D1*
X2281555Y1890553D1*
X2283457D1*
X2289160Y1892454D1*
X2293007Y1896301D1*
X2294908Y1902049D1*
Y1903950D1*
X2293007Y1909698D1*
X2289160Y1913501D1*
X2283457Y1915402D1*
X2281555D1*
X2275807Y1913501D1*
X2271961Y1909698D1*
X2270059Y1903950D1*
X2858780Y1022643D2*
X2856878Y1026445D1*
X2853032Y1030292D1*
X2849229Y1032193D1*
X2841580D1*
X2837733Y1030292D1*
X2833930Y1026445D1*
X2831985Y1022643D1*
X2830084Y1016895D1*
Y1007300D1*
X2831985Y1001596D1*
X2833930Y997749D1*
X2837733Y993947D1*
X2841580Y992001D1*
X2849229D1*
X2853032Y993947D1*
X2856878Y997749D1*
X2858780Y1001596D1*
X2871131Y1024500D2*
X2874978Y1026445D1*
X2880726Y1032149D1*
Y992001D1*
X2900727D2*
X2919872Y1032149D1*
X2893077D1*
X903768Y2628907D2*
X901866Y2632710D1*
X898019Y2636556D1*
X894217Y2638458D1*
X886568D1*
X882721Y2636556D1*
X878918Y2632710D1*
X876973Y2628907D1*
X875072Y2623159D1*
Y2613564D1*
X876973Y2607861D1*
X878918Y2604014D1*
X882721Y2600211D1*
X886568Y2598266D1*
X894217D1*
X898019Y2600211D1*
X901866Y2604014D1*
X903768Y2607861D1*
X916119Y2630764D2*
X919966Y2632710D1*
X925714Y2638414D1*
Y2598266D1*
X947616Y2638414D2*
X941912Y2636512D1*
X939966Y2632710D1*
Y2628863D1*
X941912Y2625060D1*
X945714Y2623115D1*
X953364Y2621214D1*
X959112Y2619312D1*
X962914Y2615466D1*
X964816Y2611663D1*
Y2605915D1*
X962914Y2602112D1*
X961013Y2600167D1*
X955265Y2598266D1*
X947616D1*
X941912Y2600167D1*
X939966Y2602112D1*
X938065Y2605915D1*
Y2611663D1*
X939966Y2615466D1*
X943813Y2619312D1*
X949517Y2621214D1*
X957166Y2623115D1*
X961013Y2625060D1*
X962914Y2628863D1*
Y2632710D1*
X961013Y2636512D1*
X955265Y2638414D1*
X947616D1*
X3175786Y1590128D2*
X3171983Y1588227D1*
X3168137Y1584380D1*
X3166235Y1580577D1*
Y1572928D1*
X3168136Y1569081D1*
X3171983Y1565279D1*
X3175786Y1563333D1*
X3181534Y1561432D1*
X3191129D1*
X3196832Y1563333D1*
X3200679Y1565279D1*
X3204482Y1569081D1*
X3206427Y1572928D1*
Y1580577D1*
X3204482Y1584380D1*
X3200679Y1588227D1*
X3196832Y1590128D1*
X3173929Y1602479D2*
X3171983Y1606326D1*
X3166279Y1612074D1*
X3206427D1*
X3179633Y1649319D2*
X3185381Y1647373D1*
X3189227Y1643571D1*
X3191129Y1637823D1*
Y1635921D1*
X3189227Y1630173D1*
X3185381Y1626371D1*
X3179633Y1624425D1*
X3177731D1*
X3171983Y1626371D1*
X3168181Y1630173D1*
X3166279Y1635922D1*
Y1637823D1*
X3168181Y1643571D1*
X3171983Y1647373D1*
X3179633Y1649319D1*
X3189227D1*
X3198778Y1647373D1*
X3204526Y1643571D1*
X3206427Y1637823D1*
Y1634020D1*
X3204526Y1628272D1*
X3200679Y1626371D1*
X1389875Y1526484D2*
X1386073Y1524583D1*
X1382226Y1520736D1*
X1380324Y1516934D1*
Y1509284D1*
X1382226Y1505438D1*
X1386072Y1501635D1*
X1389875Y1499690D1*
X1395623Y1497788D1*
X1405218D1*
X1410922Y1499690D1*
X1414768Y1501635D1*
X1418571Y1505438D1*
X1420516Y1509284D1*
Y1516934D1*
X1418571Y1520736D1*
X1414768Y1524583D1*
X1410922Y1526484D1*
X1389919Y1540781D2*
X1388018D1*
X1384171Y1542682D1*
X1382270Y1544584D1*
X1380369Y1548430D1*
Y1556080D1*
X1382270Y1559882D1*
X1384171Y1561783D1*
X1388018Y1563729D1*
X1391821D1*
X1395667Y1561783D1*
X1401371Y1557981D1*
X1420516Y1538835D1*
Y1565630D1*
X1380369Y1589478D2*
X1382270Y1583730D1*
X1388018Y1579883D1*
X1397569Y1577982D1*
X1403317D1*
X1412867Y1579883D1*
X1418615Y1583730D1*
X1420516Y1589478D1*
Y1593280D1*
X1418615Y1599028D1*
X1412867Y1602831D1*
X1403317Y1604776D1*
X1397569D1*
X1388018Y1602831D1*
X1382270Y1599028D1*
X1380369Y1593280D1*
Y1589478D1*
X1388018Y1602831D2*
X1412867Y1579883D1*
X1866470Y2341406D2*
X1862667Y2339504D1*
X1858820Y2335658D1*
X1856919Y2331855D1*
Y2324206D1*
X1858820Y2320359D1*
X1862667Y2316556D1*
X1866470Y2314611D1*
X1872218Y2312710D1*
X1881812D1*
X1887516Y2314611D1*
X1891363Y2316556D1*
X1895166Y2320359D1*
X1897111Y2324206D1*
Y2331855D1*
X1895166Y2335658D1*
X1891363Y2339504D1*
X1887516Y2341406D1*
X1866514Y2355702D2*
X1864613D1*
X1860766Y2357604D1*
X1858865Y2359505D1*
X1856963Y2363352D1*
Y2371001D1*
X1858865Y2374804D1*
X1860766Y2376705D1*
X1864613Y2378650D1*
X1868415D1*
X1872262Y2376705D1*
X1877966Y2372902D1*
X1897111Y2353757D1*
Y2380552D1*
X1864613Y2392903D2*
X1862667Y2396750D1*
X1856963Y2402498D1*
X1897111D1*
X1732659Y2537877D2*
X1730757Y2541680D1*
X1726911Y2545526D1*
X1723108Y2547428D1*
X1715459D1*
X1711612Y2545526D1*
X1707809Y2541680D1*
X1705864Y2537877D1*
X1703963Y2532129D1*
Y2522534D1*
X1705864Y2516830D1*
X1707809Y2512984D1*
X1711612Y2509181D1*
X1715459Y2507236D1*
X1723108D1*
X1726911Y2509181D1*
X1730757Y2512984D1*
X1732659Y2516830D1*
X1746955Y2537833D2*
Y2539734D1*
X1748857Y2543581D1*
X1750758Y2545482D1*
X1754605Y2547383D1*
X1762254D1*
X1766057Y2545482D1*
X1767958Y2543581D1*
X1769903Y2539734D1*
Y2535931D1*
X1767958Y2532085D1*
X1764155Y2526381D1*
X1745010Y2507236D1*
X1771805D1*
X1786102Y2537833D2*
Y2539734D1*
X1788003Y2543581D1*
X1789904Y2545482D1*
X1793751Y2547383D1*
X1801400D1*
X1805203Y2545482D1*
X1807104Y2543581D1*
X1809049Y2539734D1*
Y2535931D1*
X1807104Y2532085D1*
X1803301Y2526381D1*
X1784156Y2507236D1*
X1810951D1*
X1320979Y2101457D2*
X1317176Y2099555D1*
X1313329Y2095709D1*
X1311428Y2091906D1*
Y2084257D1*
X1313329Y2080410D1*
X1317176Y2076607D1*
X1320979Y2074662D1*
X1326727Y2072761D1*
X1336321D1*
X1342025Y2074662D1*
X1345872Y2076607D1*
X1349675Y2080410D1*
X1351620Y2084257D1*
Y2091906D1*
X1349675Y2095709D1*
X1345872Y2099555D1*
X1342025Y2101457D1*
X1321023Y2115753D2*
X1319122D1*
X1315275Y2117655D1*
X1313374Y2119556D1*
X1311472Y2123403D1*
Y2131052D1*
X1313374Y2134855D1*
X1315275Y2136756D1*
X1319122Y2138701D1*
X1322924D1*
X1326771Y2136756D1*
X1332475Y2132953D1*
X1351620Y2113808D1*
Y2140603D1*
X1311472Y2156801D2*
Y2177803D1*
X1326771Y2166351D1*
Y2172099D1*
X1328672Y2175902D1*
X1330574Y2177803D1*
X1336322Y2179749D1*
X1340124D1*
X1345872Y2177803D1*
X1349719Y2174001D1*
X1351620Y2168253D1*
Y2162505D1*
X1349719Y2156801D1*
X1347773Y2154899D1*
X1343971Y2152954D1*
X2462800Y1199569D2*
X2458998Y1197668D1*
X2455151Y1193821D1*
X2453250Y1190018D1*
Y1182369D1*
X2455151Y1178522D1*
X2458998Y1174720D1*
X2462800Y1172774D1*
X2468548Y1170873D1*
X2478143D1*
X2483847Y1172774D1*
X2487694Y1174720D1*
X2491496Y1178522D1*
X2493442Y1182369D1*
Y1190018D1*
X2491496Y1193821D1*
X2487694Y1197668D1*
X2483847Y1199569D1*
X2462844Y1213866D2*
X2460943D1*
X2457096Y1215767D1*
X2455195Y1217668D1*
X2453294Y1221515D1*
Y1229164D1*
X2455195Y1232967D1*
X2457096Y1234868D1*
X2460943Y1236814D1*
X2464746D1*
X2468593Y1234868D1*
X2474296Y1231066D1*
X2493442Y1211920D1*
Y1238715D1*
Y1270212D2*
X2453294D1*
X2480044Y1251066D1*
Y1279762D1*
X1518685Y2335396D2*
X1514882Y2333495D1*
X1511035Y2329648D1*
X1509134Y2325846D1*
Y2318196D1*
X1511035Y2314350D1*
X1514882Y2310547D1*
X1518685Y2308602D1*
X1524433Y2306700D1*
X1534028D1*
X1539731Y2308602D1*
X1543578Y2310547D1*
X1547381Y2314350D1*
X1549326Y2318196D1*
Y2325846D1*
X1547381Y2329648D1*
X1543578Y2333495D1*
X1539731Y2335396D1*
X1518729Y2349693D2*
X1516828D1*
X1512981Y2351594D1*
X1511080Y2353496D1*
X1509178Y2357342D1*
Y2364992D1*
X1511080Y2368794D1*
X1512981Y2370695D1*
X1516828Y2372641D1*
X1520630D1*
X1524477Y2370695D1*
X1530181Y2366893D1*
X1549326Y2347748D1*
Y2374542D1*
X1509178Y2409842D2*
Y2390740D1*
X1526378Y2388839D1*
X1524477Y2390740D1*
X1522532Y2396488D1*
Y2402192D1*
X1524477Y2407940D1*
X1528280Y2411787D1*
X1534028Y2413688D1*
X1537830D1*
X1543578Y2411787D1*
X1547425Y2407940D1*
X1549326Y2402192D1*
Y2396488D1*
X1547425Y2390740D1*
X1545479Y2388839D1*
X1541677Y2386894D1*
X3459161Y2555463D2*
X3455359Y2553562D1*
X3451512Y2549715D1*
X3449611Y2545913D1*
Y2538264D1*
X3451512Y2534417D1*
X3455359Y2530614D1*
X3459161Y2528669D1*
X3464909Y2526768D1*
X3474504D1*
X3480208Y2528669D1*
X3484055Y2530614D1*
X3487857Y2534417D1*
X3489803Y2538264D1*
Y2545913D1*
X3487857Y2549715D1*
X3484055Y2553562D1*
X3480208Y2555463D1*
X3459205Y2569760D2*
X3457304D1*
X3453457Y2571662D1*
X3451556Y2573563D1*
X3449655Y2577410D1*
Y2585059D1*
X3451556Y2588861D1*
X3453457Y2590763D1*
X3457304Y2592708D1*
X3461107D1*
X3464953Y2590763D1*
X3470657Y2586960D1*
X3489803Y2567815D1*
Y2594609D1*
X3455359Y2629909D2*
X3451556Y2628007D1*
X3449655Y2622259D1*
Y2618457D1*
X3451556Y2612709D1*
X3457304Y2608862D1*
X3466855Y2606961D1*
X3476405D1*
X3484055Y2608862D1*
X3487901Y2612709D1*
X3489803Y2618457D1*
Y2620358D1*
X3487901Y2626062D1*
X3484055Y2629909D1*
X3478306Y2631810D1*
X3476405D1*
X3470657Y2629909D1*
X3466855Y2626062D1*
X3464953Y2620358D1*
Y2618457D1*
X3466855Y2612709D1*
X3470657Y2608862D1*
X3476405Y2606961D1*
X4207986Y2544294D2*
X4204184Y2542393D1*
X4200337Y2538546D1*
X4198436Y2534743D1*
Y2527094D1*
X4200337Y2523247D1*
X4204184Y2519445D1*
X4207986Y2517499D1*
X4213734Y2515598D1*
X4223329D1*
X4229033Y2517499D1*
X4232880Y2519445D1*
X4236682Y2523247D1*
X4238628Y2527094D1*
Y2534743D1*
X4236682Y2538546D1*
X4232880Y2542393D1*
X4229033Y2544294D1*
X4208031Y2558591D2*
X4206129D1*
X4202283Y2560492D1*
X4200381Y2562393D1*
X4198480Y2566240D1*
Y2573889D1*
X4200381Y2577692D1*
X4202283Y2579593D1*
X4206129Y2581539D1*
X4209932D1*
X4213779Y2579593D1*
X4219482Y2575791D1*
X4238628Y2556645D1*
Y2583440D1*
Y2603441D2*
X4198480Y2622586D1*
Y2595791D1*
X832809Y1307410D2*
X829007Y1305509D1*
X825160Y1301662D1*
X823259Y1297859D1*
Y1290210D1*
X825160Y1286363D1*
X829007Y1282561D1*
X832809Y1280615D1*
X838557Y1278714D1*
X848152D1*
X853856Y1280615D1*
X857703Y1282561D1*
X861505Y1286363D1*
X863451Y1290210D1*
Y1297859D1*
X861505Y1301662D1*
X857703Y1305509D1*
X853856Y1307410D1*
X832854Y1321707D2*
X830952D1*
X827106Y1323608D1*
X825204Y1325509D1*
X823303Y1329356D1*
Y1337005D1*
X825204Y1340808D1*
X827106Y1342709D1*
X830952Y1344655D1*
X834755D1*
X838602Y1342709D1*
X844306Y1338907D1*
X863451Y1319761D1*
Y1346556D1*
X836656Y1383801D2*
X842404Y1381855D1*
X846251Y1378053D1*
X848152Y1372305D1*
Y1370403D1*
X846251Y1364655D1*
X842404Y1360853D1*
X836656Y1358907D1*
X834755D1*
X829007Y1360853D1*
X825204Y1364655D1*
X823303Y1370403D1*
Y1372305D1*
X825204Y1378053D1*
X829007Y1381855D1*
X836656Y1383801D1*
X846251D1*
X855802Y1381855D1*
X861550Y1378053D1*
X863451Y1372305D1*
Y1368502D1*
X861550Y1362754D1*
X857703Y1360853D1*
X1075276Y1502696D2*
X1073375Y1506498D1*
X1069528Y1510345D1*
X1065725Y1512246D1*
X1058076D1*
X1054229Y1510345D1*
X1050427Y1506498D1*
X1048481Y1502696D1*
X1046580Y1496948D1*
Y1487353D1*
X1048481Y1481649D1*
X1050427Y1477802D1*
X1054229Y1474000D1*
X1058076Y1472054D1*
X1065725D1*
X1069528Y1474000D1*
X1073375Y1477802D1*
X1075276Y1481649D1*
X1089573Y1502651D2*
Y1504553D1*
X1091474Y1508400D1*
X1093375Y1510301D1*
X1097222Y1512202D1*
X1104872D1*
X1108674Y1510301D1*
X1110575Y1508400D1*
X1112521Y1504553D1*
Y1500750D1*
X1110575Y1496903D1*
X1106773Y1491200D1*
X1087627Y1472054D1*
X1114422D1*
X1136324Y1512202D2*
X1130620Y1510301D1*
X1128675Y1506498D1*
Y1502651D1*
X1130620Y1498849D1*
X1134423Y1496903D1*
X1142072Y1495002D1*
X1147820Y1493101D1*
X1151623Y1489254D1*
X1153524Y1485452D1*
Y1479704D1*
X1151623Y1475901D1*
X1149721Y1473956D1*
X1143973Y1472054D1*
X1136324D1*
X1130620Y1473956D1*
X1128675Y1475901D1*
X1126774Y1479704D1*
Y1485452D1*
X1128675Y1489254D1*
X1132522Y1493101D1*
X1138225Y1495002D1*
X1145875Y1496903D1*
X1149721Y1498849D1*
X1151623Y1502651D1*
Y1506498D1*
X1149721Y1510301D1*
X1143973Y1512202D1*
X1136324D1*
X3850477Y1918676D2*
X3848576Y1922479D1*
X3844729Y1926325D1*
X3840927Y1928227D1*
X3833278D1*
X3829431Y1926325D1*
X3825628Y1922479D1*
X3823683Y1918676D1*
X3821782Y1912928D1*
Y1903333D1*
X3823683Y1897630D1*
X3825628Y1893783D1*
X3829431Y1889980D1*
X3833278Y1888035D1*
X3840927D1*
X3844729Y1889980D1*
X3848576Y1893783D1*
X3850477Y1897630D1*
X3866676Y1928183D2*
X3887678D1*
X3876226Y1912884D1*
X3881974D1*
X3885777Y1910983D1*
X3887678Y1909081D1*
X3889624Y1903333D1*
Y1899531D1*
X3887678Y1893783D1*
X3883876Y1889936D1*
X3878127Y1888035D1*
X3872379D1*
X3866676Y1889936D1*
X3864774Y1891882D1*
X3862829Y1895684D1*
X3913471Y1928183D2*
X3907723Y1926281D1*
X3903876Y1920533D1*
X3901975Y1910983D1*
Y1905235D1*
X3903876Y1895684D1*
X3907723Y1889936D1*
X3913471Y1888035D1*
X3917274D1*
X3923022Y1889936D1*
X3926824Y1895684D1*
X3928770Y1905235D1*
Y1910983D1*
X3926824Y1920533D1*
X3923022Y1926281D1*
X3917274Y1928183D1*
X3913471D1*
X3926824Y1920533D2*
X3903876Y1895684D1*
X1810912Y2045953D2*
X1807109Y2044052D1*
X1803262Y2040205D1*
X1801361Y2036402D1*
Y2028753D1*
X1803262Y2024906D1*
X1807109Y2021104D1*
X1810912Y2019158D1*
X1816660Y2017257D1*
X1826255D1*
X1831958Y2019158D1*
X1835805Y2021104D1*
X1839608Y2024906D1*
X1841553Y2028753D1*
Y2036402D1*
X1839608Y2040205D1*
X1835805Y2044052D1*
X1831958Y2045953D1*
X1801405Y2062151D2*
Y2083153D1*
X1816704Y2071702D1*
Y2077450D1*
X1818605Y2081252D1*
X1820507Y2083153D1*
X1826255Y2085099D1*
X1830057D1*
X1835805Y2083153D1*
X1839652Y2079351D1*
X1841553Y2073603D1*
Y2067855D1*
X1839652Y2062151D1*
X1837706Y2060250D1*
X1833904Y2058304D1*
X1809055Y2097450D2*
X1807109Y2101297D1*
X1801405Y2107045D1*
X1841553D1*
X3645164Y1972512D2*
X3643263Y1976315D1*
X3639416Y1980161D1*
X3635613Y1982063D1*
X3627964D1*
X3624117Y1980161D1*
X3620315Y1976315D1*
X3618369Y1972512D1*
X3616468Y1966764D1*
Y1957169D1*
X3618369Y1951465D1*
X3620315Y1947619D1*
X3624117Y1943816D1*
X3627964Y1941871D1*
X3635613D1*
X3639416Y1943816D1*
X3643263Y1947619D1*
X3645164Y1951465D1*
X3661362Y1982018D2*
X3682364D1*
X3670913Y1966720D1*
X3676661D1*
X3680463Y1964819D1*
X3682364Y1962917D1*
X3684310Y1957169D1*
Y1953367D1*
X3682364Y1947619D1*
X3678562Y1943772D1*
X3672814Y1941871D1*
X3667066D1*
X3661362Y1943772D1*
X3659461Y1945717D1*
X3657515Y1949520D1*
X3698607Y1972468D2*
Y1974369D1*
X3700508Y1978216D1*
X3702409Y1980117D1*
X3706256Y1982018D1*
X3713905D1*
X3717708Y1980117D1*
X3719609Y1978216D1*
X3721555Y1974369D1*
Y1970567D1*
X3719609Y1966720D1*
X3715807Y1961016D1*
X3696661Y1941871D1*
X3723456D1*
X571656Y2260862D2*
Y2230265D1*
X569755Y2224517D1*
X567809Y2222615D1*
X564007Y2220670D1*
X560160D1*
X556357Y2222615D1*
X554456Y2224517D1*
X552511Y2230265D1*
Y2234067D1*
X584007Y2253168D2*
X587854Y2255114D1*
X593602Y2260818D1*
Y2220670D1*
X665719Y2647419D2*
Y2616822D1*
X663818Y2611074D1*
X661872Y2609173D1*
X658070Y2607227D1*
X654223D1*
X650420Y2609173D1*
X648519Y2611074D1*
X646573Y2616822D1*
Y2620625D1*
X680016Y2637824D2*
Y2639726D1*
X681917Y2643573D1*
X683818Y2645474D1*
X687665Y2647375D1*
X695314D1*
X699117Y2645474D1*
X701018Y2643573D1*
X702964Y2639726D1*
Y2635923D1*
X701018Y2632076D1*
X697216Y2626373D1*
X678070Y2607227D1*
X704865D1*
X509447Y2567870D2*
Y2537273D1*
X507546Y2531525D1*
X505600Y2529623D1*
X501798Y2527678D1*
X497951D1*
X494149Y2529623D1*
X492247Y2531525D1*
X490302Y2537273D1*
Y2541075D1*
X525645Y2567826D2*
X546648D1*
X535196Y2552527D1*
X540944D1*
X544746Y2550626D1*
X546648Y2548724D1*
X548593Y2542976D1*
Y2539174D1*
X546648Y2533426D1*
X542845Y2529579D1*
X537097Y2527678D1*
X531349D1*
X525645Y2529579D1*
X523744Y2531525D1*
X521799Y2535327D1*
X1522323Y2592586D2*
Y2552394D1*
X1545271D1*
X1557623Y2584893D2*
X1561469Y2586838D1*
X1567217Y2592542D1*
Y2552394D1*
X1665259Y2073512D2*
Y2033320D1*
X1688207D1*
X1702504Y2063917D2*
Y2065818D1*
X1704405Y2069665D1*
X1706306Y2071566D1*
X1710153Y2073467D1*
X1717802D1*
X1721605Y2071566D1*
X1723506Y2069665D1*
X1725451Y2065818D1*
Y2062015D1*
X1723506Y2058169D1*
X1719703Y2052465D1*
X1700558Y2033320D1*
X1727353D1*
X3341635Y2725442D2*
Y2685250D1*
X3364583D1*
X3380781Y2725398D2*
X3401784D1*
X3390332Y2710099D1*
X3396080D1*
X3399883Y2708198D1*
X3401784Y2706297D1*
X3403729Y2700549D1*
Y2696746D1*
X3401784Y2690998D1*
X3397981Y2687151D1*
X3392233Y2685250D1*
X3386485D1*
X3380781Y2687151D1*
X3378880Y2689097D1*
X3376935Y2692899D1*
X3154744Y1235348D2*
X3194936D1*
Y1258295D1*
Y1289792D2*
X3154789D1*
X3181539Y1270647D1*
Y1299343D1*
X2162515Y1171982D2*
X2164372Y1168179D1*
X2168219Y1164332D1*
X2172065Y1162431D1*
X2177813Y1160486D1*
X2187364D1*
X2193112Y1162431D1*
X2196914Y1164332D1*
X2200761Y1168179D1*
X2202663Y1171982D1*
Y1179631D1*
X2200761Y1183478D1*
X2196915Y1187280D1*
X2193112Y1189182D1*
X2187364Y1191127D1*
X2177813D1*
X2172065Y1189182D1*
X2168219Y1187280D1*
X2164372Y1183478D1*
X2162515Y1179631D1*
Y1171982D1*
X2195013Y1177730D2*
X2206509Y1189181D1*
X2170208Y1203478D2*
X2168263Y1207325D1*
X2162559Y1213073D1*
X2202707D1*
X2162559Y1236921D2*
X2164460Y1231173D1*
X2170208Y1227326D1*
X2179759Y1225425D1*
X2185507D1*
X2195057Y1227326D1*
X2200805Y1231173D1*
X2202707Y1236921D1*
Y1240723D1*
X2200805Y1246471D1*
X2195057Y1250274D1*
X2185507Y1252219D1*
X2179759D1*
X2170208Y1250274D1*
X2164460Y1246471D1*
X2162559Y1240723D1*
Y1236921D1*
X2170208Y1250274D2*
X2195057Y1227326D1*
X2170208Y1264571D2*
X2168263Y1268417D1*
X2162559Y1274165D1*
X2202707D1*
X2509661Y3017300D2*
X2526861D1*
X2532609Y3019246D1*
X2534554Y3021147D1*
X2536456Y3024950D1*
Y3028796D1*
X2534554Y3032599D1*
X2532609Y3034544D1*
X2526861Y3036446D1*
X2509661D1*
Y2996254D1*
X2523058Y3017300D2*
X2536456Y2996254D1*
X2548807Y3028752D2*
X2552654Y3030698D1*
X2558402Y3036402D1*
Y2996254D1*
X1466926Y2847920D2*
X1466927Y2865119D1*
X1464981Y2870867D1*
X1463080Y2872813D1*
X1459277Y2874714D1*
X1455430D1*
X1451628Y2872813D1*
X1449682Y2870867D1*
X1447781Y2865119D1*
Y2847920D1*
X1487973D1*
X1466927Y2861317D2*
X1487973Y2874714D1*
X1457376Y2889011D2*
X1455475D1*
X1451628Y2890912D1*
X1449727Y2892814D1*
X1447825Y2896660D1*
Y2904310D1*
X1449727Y2908112D1*
X1451628Y2910013D1*
X1455475Y2911959D1*
X1459277D1*
X1463124Y2910013D1*
X1468828Y2906211D1*
X1487973Y2887065D1*
Y2913860D1*
X2127424Y2690526D2*
Y2707726D1*
X2125478Y2713474D1*
X2123577Y2715419D1*
X2119774Y2717320D1*
X2115928D1*
X2112125Y2715419D1*
X2110180Y2713474D1*
X2108278Y2707726D1*
Y2690526D1*
X2148470D1*
X2127424Y2703923D2*
X2148470Y2717320D1*
X2108323Y2733519D2*
Y2754521D1*
X2123621Y2743069D1*
Y2748817D1*
X2125522Y2752620D1*
X2127424Y2754521D1*
X2133172Y2756466D1*
X2136974D1*
X2142722Y2754521D1*
X2146569Y2750718D1*
X2148470Y2744970D1*
Y2739222D1*
X2146569Y2733519D1*
X2144624Y2731617D1*
X2140821Y2729672D1*
X1176757Y2703145D2*
X1193957D1*
X1199705Y2705091D1*
X1201650Y2706992D1*
X1203552Y2710795D1*
Y2714641D1*
X1201650Y2718444D1*
X1199705Y2720389D1*
X1193957Y2722291D1*
X1176757D1*
Y2682099D1*
X1190154Y2703145D2*
X1203552Y2682099D1*
X1235049D2*
Y2722246D1*
X1215903Y2695496D1*
X1244599D1*
X1751963Y3044123D2*
X1769163D1*
X1774911Y3046069D1*
X1776856Y3047970D1*
X1778757Y3051773D1*
Y3055619D1*
X1776856Y3059422D1*
X1774911Y3061367D1*
X1769163Y3063269D1*
X1751963D1*
Y3023077D1*
X1765360Y3044123D2*
X1778757Y3023077D1*
X1814057Y3063225D2*
X1794956D1*
X1793054Y3046025D1*
X1794956Y3047926D1*
X1800704Y3049871D1*
X1806407D1*
X1812155Y3047926D1*
X1816002Y3044123D1*
X1817903Y3038375D1*
Y3034573D1*
X1816002Y3028825D1*
X1812155Y3024978D1*
X1806407Y3023077D1*
X1800704D1*
X1794956Y3024978D1*
X1793054Y3026924D1*
X1791109Y3030726D1*
X2493661Y2664063D2*
X2510860D1*
X2516608Y2666009D1*
X2518554Y2667910D1*
X2520455Y2671712D1*
Y2675559D1*
X2518554Y2679362D1*
X2516608Y2681307D1*
X2510860Y2683208D1*
X2493661D1*
Y2643016D1*
X2507058Y2664063D2*
X2520455Y2643016D1*
X2555755Y2677460D2*
X2553853Y2681263D1*
X2548105Y2683164D1*
X2544303D1*
X2538555Y2681263D1*
X2534708Y2675515D1*
X2532807Y2665964D1*
Y2656414D1*
X2534708Y2648764D1*
X2538555Y2644918D1*
X2544303Y2643016D1*
X2546204D1*
X2551908Y2644918D1*
X2555755Y2648764D1*
X2557656Y2654513D1*
Y2656414D1*
X2555755Y2662162D1*
X2551908Y2665964D1*
X2546204Y2667866D1*
X2544303D1*
X2538555Y2665964D1*
X2534708Y2662162D1*
X2532807Y2656414D1*
X3143648Y1032357D2*
Y1049556D1*
X3141703Y1055304D1*
X3139802Y1057250D1*
X3135999Y1059151D1*
X3132152D1*
X3128350Y1057250D1*
X3126404Y1055304D1*
X3124503Y1049556D1*
Y1032357D1*
X3164695D1*
X3143648Y1045754D2*
X3164695Y1059151D1*
Y1079152D2*
X3124547Y1098297D1*
Y1071503D1*
X3511286Y2182468D2*
Y2199668D1*
X3509341Y2205416D1*
X3507439Y2207361D1*
X3503637Y2209263D1*
X3499790D1*
X3495988Y2207361D1*
X3494042Y2205416D1*
X3492141Y2199668D1*
Y2182468D1*
X3532333D1*
X3511286Y2195865D2*
X3532333Y2209262D1*
X3492185Y2231164D2*
X3494086Y2225461D1*
X3497889Y2223515D1*
X3501736D1*
X3505538Y2225461D1*
X3507484Y2229263D1*
X3509385Y2236912D1*
X3511286Y2242660D1*
X3515133Y2246463D1*
X3518935Y2248364D1*
X3524683D1*
X3528486Y2246463D1*
X3530431Y2244562D1*
X3532333Y2238814D1*
Y2231164D1*
X3530431Y2225461D1*
X3528486Y2223515D1*
X3524683Y2221614D1*
X3518935D1*
X3515133Y2223515D1*
X3511286Y2227362D1*
X3509385Y2233066D1*
X3507484Y2240715D1*
X3505538Y2244562D1*
X3501736Y2246463D1*
X3497889D1*
X3494086Y2244562D1*
X3492185Y2238814D1*
Y2231164D1*
X2461676Y2130281D2*
X2478876D1*
X2484624Y2132227D1*
X2486569Y2134128D1*
X2488471Y2137931D1*
Y2141777D1*
X2486569Y2145580D1*
X2484624Y2147525D1*
X2478876Y2149427D1*
X2461676D1*
Y2109235D1*
X2475073Y2130281D2*
X2488471Y2109235D1*
X2525716Y2136029D2*
X2523770Y2130281D1*
X2519967Y2126434D1*
X2514219Y2124533D1*
X2512318D1*
X2506570Y2126434D1*
X2502768Y2130281D1*
X2500822Y2136029D1*
Y2137931D1*
X2502768Y2143679D1*
X2506570Y2147481D1*
X2512318Y2149382D1*
X2514219D1*
X2519967Y2147481D1*
X2523770Y2143679D1*
X2525716Y2136029D1*
Y2126434D1*
X2523770Y2116884D1*
X2519967Y2111136D1*
X2514219Y2109235D1*
X2510417D1*
X2504669Y2111136D1*
X2502768Y2114983D1*
X3966534Y2103540D2*
Y2120739D1*
X3964589Y2126487D1*
X3962687Y2128433D1*
X3958885Y2130334D1*
X3955038D1*
X3951236Y2128433D1*
X3949290Y2126487D1*
X3947389Y2120739D1*
Y2103540D1*
X3987581D1*
X3966534Y2116937D2*
X3987581Y2130334D1*
X3955082Y2142686D2*
X3953137Y2146532D1*
X3947433Y2152280D1*
X3987581D1*
X3947433Y2176128D2*
X3949334Y2170380D1*
X3955082Y2166533D1*
X3964633Y2164632D1*
X3970381D1*
X3979931Y2166533D1*
X3985679Y2170380D1*
X3987581Y2176128D1*
Y2179930D1*
X3985679Y2185678D1*
X3979931Y2189481D1*
X3970381Y2191426D1*
X3964633D1*
X3955082Y2189481D1*
X3949334Y2185678D1*
X3947433Y2179930D1*
Y2176128D1*
X3955082Y2189481D2*
X3979931Y2166533D1*
X1468239Y1711122D2*
Y1728322D1*
X1466293Y1734070D1*
X1464392Y1736016D1*
X1460590Y1737917D1*
X1456743D1*
X1452940Y1736016D1*
X1450995Y1734070D1*
X1449093Y1728322D1*
Y1711122D1*
X1489285D1*
X1468239Y1724520D2*
X1489286Y1737917D1*
X1456787Y1750269D2*
X1454842Y1754115D1*
X1449138Y1759863D1*
X1489285D1*
X1456787Y1772215D2*
X1454842Y1776061D1*
X1449138Y1781809D1*
X1489285D1*
X1998286Y1567637D2*
Y1584837D1*
X1996340Y1590585D1*
X1994439Y1592531D1*
X1990636Y1594432D1*
X1986790D1*
X1982987Y1592531D1*
X1981041Y1590585D1*
X1979140Y1584837D1*
Y1567637D1*
X2019332D1*
X1998286Y1581035D2*
X2019332Y1594432D1*
X1986834Y1606783D2*
X1984888Y1610630D1*
X1979184Y1616378D1*
X2019332D1*
X1988735Y1630675D2*
X1986834D1*
X1982987Y1632576D1*
X1981086Y1634478D1*
X1979184Y1638324D1*
Y1645974D1*
X1981086Y1649776D1*
X1982987Y1651677D1*
X1986834Y1653623D1*
X1990636D1*
X1994483Y1651677D1*
X2000187Y1647875D1*
X2019332Y1628729D1*
Y1655524D1*
X887158Y2135077D2*
Y2152276D1*
X885212Y2158024D1*
X883311Y2159970D1*
X879509Y2161871D1*
X875662D1*
X871859Y2159970D1*
X869914Y2158024D1*
X868013Y2152276D1*
X868012Y2135077D1*
X908204D1*
X887158Y2148474D2*
X908205Y2161871D1*
X875706Y2174223D2*
X873761Y2178069D1*
X868057Y2183817D1*
X908205D1*
X868057Y2200016D2*
Y2221018D1*
X883355Y2209566D1*
Y2215314D1*
X885257Y2219117D1*
X887158Y2221018D1*
X892906Y2222963D1*
X896708D1*
X902456Y2221018D1*
X906303Y2217215D1*
X908205Y2211467D1*
Y2205719D1*
X906303Y2200015D1*
X904358Y2198114D1*
X900555Y2196169D1*
X3141739Y796672D2*
Y813872D1*
X3139793Y819620D1*
X3137892Y821565D1*
X3134090Y823466D1*
X3130243D1*
X3126440Y821565D1*
X3124495Y819620D1*
X3122593Y813872D1*
Y796672D1*
X3162785D1*
X3141739Y810069D2*
X3162786Y823466D1*
X3130287Y835818D2*
X3128342Y839664D1*
X3122638Y845412D1*
X3162785D1*
Y876909D2*
X3122638D1*
X3149388Y857764D1*
Y886460D1*
X1706333Y1899949D2*
X1723533D1*
X1729281Y1901894D1*
X1731227Y1903796D1*
X1733128Y1907598D1*
Y1911445D1*
X1731227Y1915247D1*
X1729281Y1917193D1*
X1723533Y1919094D1*
X1706333D1*
Y1878902D1*
X1719731Y1899949D2*
X1733128Y1878902D1*
X1745480Y1911401D2*
X1749326Y1913346D1*
X1755074Y1919050D1*
Y1878902D1*
X1790374Y1919050D2*
X1771272D1*
X1769371Y1901850D1*
X1771272Y1903751D1*
X1777020Y1905697D1*
X1782724D1*
X1788472Y1903751D1*
X1792319Y1899949D1*
X1794220Y1894201D1*
Y1890398D1*
X1792319Y1884650D1*
X1788472Y1880803D1*
X1782724Y1878902D1*
X1777020D1*
X1771272Y1880803D1*
X1769371Y1882749D1*
X1767426Y1886552D1*
X2452891Y1655352D2*
X2470091D1*
X2475839Y1657297D1*
X2477785Y1659199D1*
X2479686Y1663001D1*
Y1666848D1*
X2477785Y1670651D1*
X2475839Y1672596D1*
X2470091Y1674497D1*
X2452891D1*
Y1634305D1*
X2466289Y1655352D2*
X2479686Y1634305D1*
X2492038Y1666804D2*
X2495884Y1668749D1*
X2501632Y1674453D1*
Y1634305D1*
X2536932Y1668749D2*
X2535030Y1672552D1*
X2529282Y1674453D1*
X2525480D1*
X2519732Y1672552D1*
X2515885Y1666804D1*
X2513984Y1657253D1*
Y1647703D1*
X2515885Y1640053D1*
X2519732Y1636207D1*
X2525480Y1634305D1*
X2527381D1*
X2533085Y1636207D1*
X2536932Y1640053D1*
X2538833Y1645801D1*
Y1647703D1*
X2536932Y1653451D1*
X2533085Y1657253D1*
X2527381Y1659155D1*
X2525480D1*
X2519732Y1657253D1*
X2515885Y1653451D1*
X2513984Y1647703D1*
X1817659Y2633943D2*
X1834859D1*
X1840607Y2635888D1*
X1842552Y2637790D1*
X1844454Y2641592D1*
Y2645439D1*
X1842552Y2649242D1*
X1840607Y2651187D1*
X1834859Y2653088D1*
X1817659D1*
Y2612896D1*
X1831056Y2633943D2*
X1844454Y2612896D1*
X1856805Y2645395D2*
X1860652Y2647340D1*
X1866400Y2653044D1*
Y2612896D1*
X1886401D2*
X1905546Y2653044D1*
X1878751D1*
X2039489Y2313804D2*
Y2331004D1*
X2037543Y2336752D1*
X2035642Y2338698D1*
X2031839Y2340599D1*
X2027993D1*
X2024190Y2338698D1*
X2022244Y2336752D1*
X2020343Y2331004D1*
Y2313804D1*
X2060535D1*
X2039489Y2327202D2*
X2060535Y2340599D1*
X2028037Y2352951D2*
X2026091Y2356797D1*
X2020387Y2362545D1*
X2060535D1*
X2020387Y2384447D2*
X2022289Y2378743D1*
X2026091Y2376798D1*
X2029938D1*
X2033741Y2378743D1*
X2035686Y2382546D1*
X2037587Y2390195D1*
X2039489Y2395943D1*
X2043335Y2399746D1*
X2047138Y2401647D1*
X2052886D1*
X2056688Y2399746D1*
X2058634Y2397845D1*
X2060535Y2392097D1*
Y2384447D1*
X2058634Y2378743D1*
X2056688Y2376798D1*
X2052886Y2374897D1*
X2047138D1*
X2043335Y2376798D1*
X2039489Y2380645D1*
X2037587Y2386348D1*
X2035686Y2393998D1*
X2033741Y2397845D1*
X2029938Y2399746D1*
X2026091D1*
X2022289Y2397845D1*
X2020387Y2392097D1*
Y2384447D1*
X2468243Y1394321D2*
Y1411521D1*
X2466297Y1417269D1*
X2464396Y1419214D1*
X2460594Y1421116D1*
X2456747D1*
X2452944Y1419214D1*
X2450999Y1417269D1*
X2449097Y1411521D1*
Y1394321D1*
X2489289D1*
X2468243Y1407718D2*
X2489289Y1421116D1*
X2456791Y1433467D2*
X2454845Y1437314D1*
X2449142Y1443062D1*
X2489289D1*
X2462495Y1480307D2*
X2468243Y1478361D1*
X2472090Y1474558D1*
X2473991Y1468810D1*
Y1466909D1*
X2472090Y1461161D1*
X2468243Y1457359D1*
X2462495Y1455413D1*
X2460594D1*
X2454845Y1457359D1*
X2451043Y1461161D1*
X2449142Y1466909D1*
Y1468810D1*
X2451043Y1474558D1*
X2454845Y1478361D1*
X2462495Y1480307D1*
X2472090Y1480306D1*
X2481640Y1478361D1*
X2487388Y1474558D1*
X2489289Y1468810D1*
Y1465008D1*
X2487388Y1459260D1*
X2483541Y1457359D1*
X3554696Y1208871D2*
Y1168679D1*
X3541299Y1208871D2*
X3568094D1*
X3580445Y1201178D2*
X3584292Y1203123D1*
X3590040Y1208827D1*
Y1168679D1*
X1754619Y2932608D2*
Y2903912D1*
X1756520Y2898164D1*
X1760367Y2894361D1*
X1766115Y2892416D1*
X1769918D1*
X1775666Y2894361D1*
X1779512Y2898164D1*
X1781414Y2903912D1*
Y2932608D1*
X1793765Y2924914D2*
X1797612Y2926860D1*
X1803360Y2932564D1*
Y2892416D1*
X1752490Y1787280D2*
Y1758584D1*
X1754392Y1752836D1*
X1758238Y1749033D1*
X1763986Y1747088D1*
X1767789D1*
X1773537Y1749033D1*
X1777384Y1752836D1*
X1779285Y1758584D1*
Y1787280D1*
X1793582Y1777685D2*
Y1779586D1*
X1795483Y1783433D1*
X1797384Y1785334D1*
X1801231Y1787236D1*
X1808880D1*
X1812683Y1785334D1*
X1814584Y1783433D1*
X1816530Y1779586D1*
Y1775784D1*
X1814584Y1771937D1*
X1810782Y1766233D1*
X1791636Y1747088D1*
X1818431D1*
X3633110Y1845202D2*
Y1816507D1*
X3635011Y1810759D1*
X3638858Y1806956D1*
X3644606Y1805010D1*
X3648408D1*
X3654156Y1806956D1*
X3658003Y1810759D1*
X3659904Y1816507D1*
Y1845202D1*
X3676103Y1845158D2*
X3697105D1*
X3685653Y1829860D1*
X3691401D1*
X3695204Y1827958D1*
X3697105Y1826057D1*
X3699050Y1820309D1*
Y1816507D1*
X3697105Y1810759D1*
X3693302Y1806912D1*
X3687554Y1805010D1*
X3681806D1*
X3676103Y1806912D1*
X3674201Y1808857D1*
X3672256Y1812660D1*
X3825954Y2724911D2*
Y2696215D1*
X3827856Y2690467D1*
X3831702Y2686665D1*
X3837450Y2684719D1*
X3841253D1*
X3847001Y2686665D1*
X3850848Y2690467D1*
X3852749Y2696215D1*
Y2724911D1*
X3884246Y2684719D2*
Y2724867D1*
X3865100Y2698116D1*
X3893796D1*
X2184211Y2859219D2*
X2182309Y2863021D1*
X2178463Y2866868D1*
X2174660Y2868769D1*
X2167011D1*
X2163164Y2866868D1*
X2159361Y2863021D1*
X2157416Y2859219D1*
X2155515Y2853470D1*
Y2843876D1*
X2157416Y2838172D1*
X2159361Y2834325D1*
X2163164Y2830523D1*
X2167011Y2828577D1*
X2174660D1*
X2178463Y2830523D1*
X2182309Y2834325D1*
X2184211Y2838172D1*
X2200409Y2868725D2*
X2221411D1*
X2209959Y2853426D1*
X2215707D1*
X2219510Y2851525D1*
X2221411Y2849624D1*
X2223357Y2843876D1*
Y2840073D1*
X2221411Y2834325D1*
X2217609Y2830478D1*
X2211861Y2828577D1*
X2206113D1*
X2200409Y2830478D1*
X2198508Y2832424D1*
X2196562Y2836226D1*
X2254854Y2828577D2*
Y2868725D1*
X2235708Y2841974D1*
X2264404D1*
X2256102Y1588102D2*
X2252299Y1586201D1*
X2248452Y1582354D1*
X2246551Y1578551D1*
Y1570902D1*
X2248452Y1567055D1*
X2252299Y1563253D1*
X2256102Y1561307D1*
X2261850Y1559406D1*
X2271444D1*
X2277148Y1561307D1*
X2280995Y1563253D1*
X2284798Y1567055D1*
X2286743Y1570902D1*
Y1578551D1*
X2284798Y1582354D1*
X2280995Y1586201D1*
X2277148Y1588102D1*
X2246595Y1604300D2*
Y1625303D1*
X2261894Y1613851D1*
Y1619599D1*
X2263795Y1623401D1*
X2265696Y1625302D1*
X2271445Y1627248D1*
X2275247D1*
X2280995Y1625302D1*
X2284842Y1621500D1*
X2286743Y1615752D1*
Y1610004D1*
X2284842Y1604300D1*
X2282896Y1602399D1*
X2279094Y1600453D1*
X2246595Y1643446D2*
Y1664449D1*
X2261894Y1652997D1*
Y1658745D1*
X2263795Y1662547D1*
X2265696Y1664449D1*
X2271445Y1666394D1*
X2275247D1*
X2280995Y1664449D1*
X2284842Y1660646D1*
X2286743Y1654898D1*
Y1649150D1*
X2284842Y1643446D1*
X2282896Y1641545D1*
X2279094Y1639599D1*
X791503Y1514548D2*
D80*
X790077Y1517400D1*
X787192Y1520285D1*
X784340Y1521711D1*
X778603D1*
X775718Y1520285D1*
X772866Y1517400D1*
X771407Y1514548D1*
X769981Y1510237D1*
Y1503041D1*
X771407Y1498763D1*
X772866Y1495878D1*
X775718Y1493026D1*
X778603Y1491567D1*
X784340D1*
X787192Y1493026D1*
X790077Y1495878D1*
X791503Y1498763D1*
Y1503041D1*
X784340D1*
X800767Y1511663D2*
Y1491567D1*
Y1505926D2*
X805078Y1510237D1*
X807963Y1511663D1*
X812241D1*
X815126Y1510237D1*
X816552Y1505926D1*
Y1491567D1*
X843026Y1521711D2*
Y1491567D1*
Y1507352D2*
X840174Y1510237D1*
X837289Y1511663D1*
X832978D1*
X830126Y1510237D1*
X827241Y1507352D1*
X825815Y1503041D1*
Y1500189D1*
X827241Y1495878D1*
X830126Y1493026D1*
X832978Y1491567D1*
X837289D1*
X840174Y1493026D1*
X843026Y1495878D1*
X782881Y1618020D2*
Y1592187D1*
X769981Y1605087D2*
X795814D1*
X822289Y1620159D2*
X807963D1*
X806537Y1607259D1*
X807963Y1608685D1*
X812274Y1610144D1*
X816552D1*
X820863Y1608685D1*
X823748Y1605833D1*
X825174Y1601522D1*
Y1598670D1*
X823748Y1594359D1*
X820863Y1591474D1*
X816552Y1590048D1*
X812274D1*
X807963Y1591474D1*
X806537Y1592933D1*
X805078Y1595785D1*
X782881Y1805878D2*
Y1780045D1*
X769981Y1792945D2*
X795814D1*
X805078Y1802280D2*
X807963Y1803739D1*
X812274Y1808017D1*
Y1777907D1*
X822997Y1800854D2*
Y1802280D1*
X824422Y1805165D1*
X825848Y1806591D1*
X828734Y1808017D1*
X834470D1*
X837322Y1806591D1*
X838748Y1805165D1*
X840207Y1802280D1*
Y1799428D1*
X838748Y1796543D1*
X835896Y1792266D1*
X821537Y1777907D1*
X841633D1*
X2727098Y3101004D2*
D81*
Y3040716D1*
X2707002Y3101004D2*
X2747194D1*
X2794439Y3040716D2*
Y3100938D1*
X2765721Y3060812D1*
X2808765D1*
X2827292Y3089464D2*
X2833062Y3092382D1*
X2841684Y3100938D1*
Y3040716D1*
X2955806Y3101004D2*
X2918532D1*
Y3040716D1*
X2955806D1*
X2918532Y3072286D2*
X2941480D1*
X2974333Y3080908D2*
X3005903Y3040716D1*
Y3080908D2*
X2974333Y3040716D1*
X3058919Y3072286D2*
X3053148Y3078056D1*
X3047378Y3080908D1*
X3038823D1*
X3033052Y3078056D1*
X3027349Y3072286D1*
X3024430Y3063664D1*
Y3057960D1*
X3027349Y3049338D1*
X3033052Y3043634D1*
X3038823Y3040716D1*
X3047378D1*
X3053148Y3043634D1*
X3058919Y3049338D1*
X3077446Y3101004D2*
X3080298Y3098152D1*
X3083216Y3101004D1*
X3080298Y3103922D1*
X3077446Y3101004D1*
X3080298Y3080908D2*
Y3040716D1*
X3110365Y3101004D2*
Y3052190D1*
X3113217Y3043634D1*
X3118987Y3040716D1*
X3124691D1*
X3101743Y3080908D2*
X3121839D1*
X3143218Y3063664D2*
X3177640D1*
Y3069434D1*
X3174788Y3075204D1*
X3171936Y3078056D1*
X3166166Y3080908D1*
X3157544D1*
X3151840Y3078056D1*
X3146070Y3072286D1*
X3143218Y3063664D1*
Y3057960D1*
X3146070Y3049338D1*
X3151840Y3043634D1*
X3157544Y3040716D1*
X3166166D1*
X3171936Y3043634D1*
X3177640Y3049338D1*
X3196167Y3080908D2*
Y3040716D1*
Y3063664D2*
X3199085Y3072286D1*
X3204789Y3078056D1*
X3210559Y3080908D1*
X3219181D1*
X2721829Y2962697D2*
D79*
X2737128Y2922505D1*
X2752427Y2962697D1*
X2776274Y2962653D2*
X2770526Y2960751D1*
X2766679Y2955003D1*
X2764778Y2945453D1*
Y2939705D1*
X2766679Y2930154D1*
X2770526Y2924406D1*
X2776274Y2922505D1*
X2780077D1*
X2785825Y2924406D1*
X2789627Y2930154D1*
X2791573Y2939705D1*
Y2945453D1*
X2789627Y2955003D1*
X2785825Y2960751D1*
X2780077Y2962653D1*
X2776274D1*
X2789627Y2955003D2*
X2766679Y2930154D1*
X2803924Y2955003D2*
X2807771Y2956949D1*
X2813519Y2962653D1*
Y2922505D1*
X2837366Y2962653D2*
X2831618Y2960751D1*
X2827771Y2955003D1*
X2825870Y2945453D1*
Y2939705D1*
X2827771Y2930154D1*
X2831618Y2924406D1*
X2837366Y2922505D1*
X2841169D1*
X2846917Y2924406D1*
X2850719Y2930154D1*
X2852665Y2939705D1*
Y2945453D1*
X2850719Y2955003D1*
X2846917Y2960751D1*
X2841169Y2962653D1*
X2837366D1*
X2850719Y2955003D2*
X2827771Y2930154D1*
X2764013Y2816238D2*
X2748670Y2856430D1*
X2733371Y2816238D1*
X2739119Y2829636D2*
X2758265D1*
X2805060Y2846880D2*
X2803159Y2850682D1*
X2799312Y2854529D1*
X2795510Y2856430D1*
X2787860D1*
X2784013Y2854529D1*
X2780211Y2850682D1*
X2778265Y2846880D1*
X2776364Y2841132D1*
Y2831537D1*
X2778265Y2825833D1*
X2780211Y2821986D1*
X2784013Y2818184D1*
X2787860Y2816238D1*
X2795510D1*
X2799312Y2818184D1*
X2803159Y2821986D1*
X2805060Y2825833D1*
X2826962Y2856386D2*
X2821258Y2854485D1*
X2819313Y2850682D1*
Y2846836D1*
X2821258Y2843033D1*
X2825061Y2841088D1*
X2832710Y2839186D1*
X2838458Y2837285D1*
X2842261Y2833438D1*
X2844162Y2829636D1*
Y2823888D1*
X2842261Y2820085D1*
X2840359Y2818140D1*
X2834611Y2816238D1*
X2826962D1*
X2821258Y2818140D1*
X2819313Y2820085D1*
X2817411Y2823888D1*
Y2829636D1*
X2819313Y2833438D1*
X2823160Y2837285D1*
X2828863Y2839186D1*
X2836513Y2841088D1*
X2840359Y2843033D1*
X2842261Y2846836D1*
Y2850682D1*
X2840359Y2854485D1*
X2834611Y2856386D1*
X2826962D1*
X2885209Y2846880D2*
X2883308Y2850682D1*
X2879461Y2854529D1*
X2875659Y2856430D1*
X2868009D1*
X2864163Y2854529D1*
X2860360Y2850682D1*
X2858415Y2846880D1*
X2856513Y2841132D1*
Y2831537D1*
X2858415Y2825833D1*
X2860360Y2821986D1*
X2864163Y2818184D1*
X2868009Y2816238D1*
X2875659D1*
X2879461Y2818184D1*
X2883308Y2821986D1*
X2885209Y2825833D1*
Y2831537D1*
X2875659D1*
X2897561Y2856430D2*
X2912859Y2837285D1*
Y2816238D1*
X2928158Y2856430D2*
X2912859Y2837285D1*
X3030177Y2845776D2*
X3028276Y2849579D1*
X3024429Y2853425D1*
X3020627Y2855327D1*
X3012978D1*
X3009131Y2853425D1*
X3005328Y2849579D1*
X3003383Y2845776D1*
X3001482Y2840028D1*
Y2830433D1*
X3003383Y2824730D1*
X3005328Y2820883D1*
X3009131Y2817080D1*
X3012978Y2815135D1*
X3020627D1*
X3024429Y2817080D1*
X3028276Y2820883D1*
X3030177Y2824730D1*
X3122236Y2845732D2*
Y2847633D1*
X3124137Y2851480D1*
X3126038Y2853381D1*
X3129885Y2855283D1*
X3137535D1*
X3141337Y2853381D1*
X3143238Y2851480D1*
X3145184Y2847633D1*
Y2843831D1*
X3143238Y2839984D1*
X3139436Y2834280D1*
X3120290Y2815135D1*
X3147085D1*
X3170933Y2855283D2*
X3165185Y2853381D1*
X3161338Y2847633D1*
X3159437Y2838083D1*
Y2832335D1*
X3161338Y2822784D1*
X3165185Y2817036D1*
X3170933Y2815135D1*
X3174735D1*
X3180483Y2817036D1*
X3184286Y2822784D1*
X3186231Y2832335D1*
Y2838083D1*
X3184286Y2847633D1*
X3180483Y2853381D1*
X3174735Y2855283D1*
X3170933D1*
X3184286Y2847633D2*
X3161338Y2822784D1*
X3200528Y2845732D2*
Y2847633D1*
X3202429Y2851480D1*
X3204331Y2853381D1*
X3208177Y2855283D1*
X3215827D1*
X3219629Y2853381D1*
X3221530Y2851480D1*
X3223476Y2847633D1*
Y2843831D1*
X3221530Y2839984D1*
X3217728Y2834280D1*
X3198583Y2815135D1*
X3225377D1*
X3239674Y2845732D2*
Y2847633D1*
X3241575Y2851480D1*
X3243477Y2853381D1*
X3247323Y2855283D1*
X3254973D1*
X3258775Y2853381D1*
X3260677Y2851480D1*
X3262622Y2847633D1*
Y2843831D1*
X3260677Y2839984D1*
X3256874Y2834280D1*
X3237729Y2815135D1*
X3264523D1*
X2995724Y2960149D2*
X2989976Y2958247D1*
X2986130Y2952499D1*
X2984228Y2942949D1*
Y2937201D1*
X2986130Y2927650D1*
X2989976Y2921902D1*
X2995724Y2920001D1*
X2999527D1*
X3005275Y2921902D1*
X3009077Y2927650D1*
X3011023Y2937201D1*
Y2942949D1*
X3009077Y2952499D1*
X3005275Y2958247D1*
X2999527Y2960149D1*
X2995724D1*
X3009077Y2952499D2*
X2986130Y2927650D1*
X3046322Y2954445D2*
X3044421Y2958247D1*
X3038673Y2960149D1*
X3034870D1*
X3029122Y2958247D1*
X3025276Y2952499D1*
X3023374Y2942949D1*
Y2933398D1*
X3025276Y2925749D1*
X3029122Y2921902D1*
X3034870Y2920001D1*
X3036772D1*
X3042475Y2921902D1*
X3046322Y2925749D1*
X3048224Y2931497D1*
Y2933398D1*
X3046322Y2939146D1*
X3042475Y2942949D1*
X3036772Y2944850D1*
X3034870D1*
X3029122Y2942949D1*
X3025276Y2939146D1*
X3023374Y2933398D1*
X3060575Y2940075D2*
X3082683D1*
X3106530Y2960149D2*
X3100782Y2958247D1*
X3096935Y2952499D1*
X3095034Y2942949D1*
Y2937201D1*
X3096935Y2927650D1*
X3100782Y2921902D1*
X3106530Y2920001D1*
X3110333D1*
X3116081Y2921902D1*
X3119883Y2927650D1*
X3121829Y2937201D1*
Y2942949D1*
X3119883Y2952499D1*
X3116081Y2958247D1*
X3110333Y2960149D1*
X3106530D1*
X3119883Y2952499D2*
X3096935Y2927650D1*
X3134180Y2952499D2*
X3138027Y2954445D1*
X3143775Y2960149D1*
Y2920001D1*
X3156126Y2940075D2*
X3178234D1*
X3192531Y2950598D2*
Y2952499D1*
X3194432Y2956346D1*
X3196334Y2958247D1*
X3200180Y2960149D1*
X3207830D1*
X3211632Y2958247D1*
X3213534Y2956346D1*
X3215479Y2952499D1*
Y2948697D1*
X3213534Y2944850D1*
X3209731Y2939146D1*
X3190586Y2920001D1*
X3217380D1*
X3231677Y2950598D2*
Y2952499D1*
X3233578Y2956346D1*
X3235480Y2958247D1*
X3239326Y2960149D1*
X3246976D1*
X3250778Y2958247D1*
X3252680Y2956346D1*
X3254625Y2952499D1*
Y2948697D1*
X3252680Y2944850D1*
X3248877Y2939146D1*
X3229732Y2920001D1*
X3256526D1*
X791503Y1304604D2*
D80*
X790077Y1307456D1*
X787192Y1310341D1*
X784340Y1311767D1*
X778603D1*
X775718Y1310341D1*
X772866Y1307456D1*
X771407Y1304604D1*
X769981Y1300293D1*
Y1293097D1*
X771407Y1288819D1*
X772866Y1285934D1*
X775718Y1283082D1*
X778603Y1281623D1*
X784340D1*
X787192Y1283082D1*
X790077Y1285934D1*
X791503Y1288819D1*
Y1293097D1*
X784340D1*
X800767Y1301719D2*
Y1281623D1*
Y1295982D2*
X805078Y1300293D1*
X807963Y1301719D1*
X812241D1*
X815126Y1300293D1*
X816552Y1295982D1*
Y1281623D1*
X843026Y1311767D2*
Y1281623D1*
Y1297408D2*
X840174Y1300293D1*
X837289Y1301719D1*
X832978D1*
X830126Y1300293D1*
X827241Y1297408D1*
X825815Y1293097D1*
Y1290245D1*
X827241Y1285934D1*
X830126Y1283082D1*
X832978Y1281623D1*
X837289D1*
X840174Y1283082D1*
X843026Y1285934D1*
X782881Y1407124D2*
Y1381291D1*
X769981Y1394191D2*
X795814D1*
X807963Y1409263D2*
X823715D1*
X815126Y1397789D1*
X819437D1*
X822289Y1396363D1*
X823715Y1394937D1*
X825174Y1390626D1*
Y1387774D1*
X823715Y1383463D1*
X820863Y1380578D1*
X816552Y1379152D1*
X812241D1*
X807963Y1380578D1*
X806537Y1382037D1*
X805078Y1384889D1*
X835863Y1382037D2*
X834437Y1380578D1*
X835863Y1379152D1*
X837322Y1380578D1*
X835863Y1382037D1*
X849471Y1409263D2*
X865223D1*
X856634Y1397789D1*
X860945D1*
X863797Y1396363D1*
X865223Y1394937D1*
X866682Y1390626D1*
Y1387774D1*
X865223Y1383463D1*
X862371Y1380578D1*
X858060Y1379152D1*
X853749D1*
X849471Y1380578D1*
X848045Y1382037D1*
X846586Y1384889D1*
X799093Y1724979D2*
X797667Y1727831D1*
X794782Y1730716D1*
X791930Y1732142D1*
X786193D1*
X783308Y1730716D1*
X780456Y1727831D1*
X778997Y1724979D1*
X777571Y1720668D1*
Y1713471D1*
X778997Y1709194D1*
X780456Y1706309D1*
X783308Y1703457D1*
X786193Y1701998D1*
X791930D1*
X794782Y1703457D1*
X797667Y1706309D1*
X799093Y1709194D1*
Y1713471D1*
X791930D1*
X808356Y1722094D2*
Y1701998D1*
Y1716357D2*
X812667Y1720668D1*
X815552Y1722094D1*
X819830D1*
X822715Y1720668D1*
X824141Y1716357D1*
Y1701998D1*
X850616Y1732142D2*
Y1701998D1*
Y1717783D2*
X847764Y1720668D1*
X844879Y1722094D1*
X840568D1*
X837716Y1720668D1*
X834831Y1717783D1*
X833405Y1713471D1*
Y1710620D1*
X834831Y1706309D1*
X837716Y1703457D1*
X840568Y1701998D1*
X844879D1*
X847764Y1703457D1*
X850616Y1706309D1*
X780029Y2010058D2*
Y1979914D1*
X769981Y2010058D2*
X790077D1*
X799341Y2000010D2*
X815126Y1979914D1*
Y2000010D2*
X799341Y1979914D1*
X824389Y1995699D2*
X837289D1*
X841600Y1997158D1*
X843059Y1998584D1*
X844485Y2001436D1*
Y2004321D1*
X843059Y2007173D1*
X841600Y2008632D1*
X837289Y2010058D1*
X824389D1*
Y1979914D1*
X834437Y1995699D2*
X844485Y1979914D1*
X853749Y2000010D2*
X869534Y1979914D1*
Y2000010D2*
X853749Y1979914D1*
X3492647Y2845462D2*
D81*
X3489795Y2851165D1*
X3484025Y2856935D1*
X3478321Y2859787D1*
X3466847D1*
X3461077Y2856935D1*
X3455373Y2851165D1*
X3452455Y2845462D1*
X3449603Y2836839D1*
Y2822447D1*
X3452455Y2813892D1*
X3455373Y2808121D1*
X3461077Y2802418D1*
X3466847Y2799499D1*
X3478321D1*
X3484025Y2802418D1*
X3489795Y2808121D1*
X3492647Y2813892D1*
X3511174Y2859787D2*
Y2799499D1*
X3545596D1*
X3564123Y2859787D2*
Y2799499D1*
X3604315Y2859787D2*
X3564123Y2819595D1*
X3578449Y2833988D2*
X3604315Y2799499D1*
X3622842Y2789551D2*
X3677360D1*
X3695887Y2848247D2*
X3701657Y2851165D1*
X3710279Y2859721D1*
Y2799499D1*
X3957813Y732770D2*
X3983613D1*
X3992235Y735688D1*
X3995153Y738540D1*
X3998005Y744244D1*
Y750014D1*
X3995153Y755718D1*
X3992235Y758636D1*
X3983613Y761488D1*
X3957813D1*
Y701200D1*
X3977909Y732770D2*
X3998005Y701200D1*
X4053872Y761488D2*
X4016532D1*
Y701200D1*
Y732770D2*
X4039480D1*
X4147964Y761488D2*
X4142194Y758636D1*
X4136490Y752866D1*
X4133572Y747162D1*
X4130720Y738540D1*
Y724148D1*
X4133572Y715592D1*
X4136490Y709822D1*
X4142194Y704118D1*
X4147964Y701200D1*
X4159438D1*
X4165142Y704118D1*
X4170912Y709822D1*
X4173764Y715592D1*
X4176616Y724148D1*
Y738540D1*
X4173764Y747162D1*
X4170912Y752866D1*
X4165142Y758636D1*
X4159438Y761488D1*
X4147964D1*
X4195143Y741392D2*
Y712674D1*
X4197995Y704118D1*
X4203765Y701200D1*
X4212387D1*
X4218091Y704118D1*
X4226713Y712674D1*
Y741392D2*
Y701200D1*
X4253862Y761488D2*
Y712674D1*
X4256714Y704118D1*
X4262484Y701200D1*
X4268188D1*
X4245240Y741392D2*
X4265336D1*
X4100866Y1231140D2*
Y1185245D1*
X4098014Y1176623D1*
X4095095Y1173771D1*
X4089392Y1170852D1*
X4083621D1*
X4077918Y1173771D1*
X4075066Y1176623D1*
X4072148Y1185245D1*
Y1190948D1*
X4148111Y1170852D2*
Y1231074D1*
X4119393Y1190948D1*
X4162437D1*
X946022Y1870175D2*
D79*
Y1829983D1*
X932625Y1870175D2*
X959420D1*
X971771Y1849128D2*
X989015D1*
X994719Y1851030D1*
X996664Y1852975D1*
X998566Y1856778D1*
Y1862526D1*
X996664Y1866328D1*
X994719Y1868274D1*
X989015Y1870175D1*
X971771D1*
Y1829983D1*
X1010917Y1862481D2*
X1014764Y1864427D1*
X1020512Y1870131D1*
Y1829983D1*
X1034809Y1860580D2*
Y1862481D1*
X1036710Y1866328D1*
X1038611Y1868229D1*
X1042458Y1870131D1*
X1050107D1*
X1053910Y1868229D1*
X1055811Y1866328D1*
X1057757Y1862481D1*
Y1858679D1*
X1055811Y1854832D1*
X1052009Y1849128D1*
X1032863Y1829983D1*
X1059658D1*
X692781Y2402500D2*
Y2362308D1*
X679383Y2402500D2*
X706178D1*
X718529Y2381453D2*
X735773D1*
X741477Y2383354D1*
X743423Y2385300D1*
X745324Y2389102D1*
Y2394851D1*
X743423Y2398653D1*
X741477Y2400599D1*
X735773Y2402500D1*
X718529D1*
Y2362308D1*
X757675Y2394806D2*
X761522Y2396752D1*
X767270Y2402456D1*
Y2362308D1*
X1348593Y3004073D2*
Y2963881D1*
X1335196Y3004073D2*
X1361991D1*
X1374342Y2983026D2*
X1391586D1*
X1397290Y2984927D1*
X1399235Y2986873D1*
X1401137Y2990676D1*
Y2996424D1*
X1399235Y3000226D1*
X1397290Y3002172D1*
X1391586Y3004073D1*
X1374342D1*
Y2963881D1*
X1415434Y2994478D2*
Y2996379D1*
X1417335Y3000226D1*
X1419236Y3002127D1*
X1423083Y3004029D1*
X1430732D1*
X1434535Y3002127D1*
X1436436Y3000226D1*
X1438381Y2996379D1*
Y2992577D1*
X1436436Y2988730D1*
X1432633Y2983026D1*
X1413488Y2963881D1*
X1440283D1*
X2550012Y3101015D2*
Y3060823D1*
X2536615Y3101015D2*
X2563409D1*
X2575761Y3079968D2*
X2593005D1*
X2598708Y3081869D1*
X2600654Y3083815D1*
X2602555Y3087618D1*
Y3093366D1*
X2600654Y3097168D1*
X2598708Y3099114D1*
X2593005Y3101015D1*
X2575761D1*
Y3060823D1*
X2618753Y3100971D2*
X2639756D1*
X2628304Y3085672D1*
X2634052D1*
X2637855Y3083771D1*
X2639756Y3081869D1*
X2641701Y3076121D1*
Y3072319D1*
X2639756Y3066571D1*
X2635953Y3062724D1*
X2630205Y3060823D1*
X2624457D1*
X2618753Y3062724D1*
X2616852Y3064670D1*
X2614907Y3068472D1*
X2386080Y2514199D2*
Y2474007D1*
X2372682Y2514199D2*
X2399477D1*
X2411828Y2493153D2*
X2429072D1*
X2434776Y2495054D1*
X2436722Y2497000D1*
X2438623Y2500802D1*
Y2506550D1*
X2436722Y2510353D1*
X2434776Y2512298D1*
X2429072Y2514199D1*
X2411828D1*
Y2474007D1*
X2470120D2*
Y2514155D1*
X2450974Y2487405D1*
X2479670D1*
X2728577Y2064280D2*
Y2024088D1*
X2715180Y2064280D2*
X2741975D1*
X2754326Y2043233D2*
X2771570D1*
X2777274Y2045135D1*
X2779219Y2047080D1*
X2781121Y2050883D1*
Y2056631D1*
X2779219Y2060433D1*
X2777274Y2062379D1*
X2771570Y2064280D1*
X2754326D1*
Y2024088D1*
X2816420Y2064236D2*
X2797319D1*
X2795418Y2047036D1*
X2797319Y2048937D1*
X2803067Y2050883D1*
X2808771D1*
X2814519Y2048937D1*
X2818365Y2045135D1*
X2820267Y2039387D1*
Y2035584D1*
X2818365Y2029836D1*
X2814519Y2025989D1*
X2808771Y2024088D1*
X2803067D1*
X2797319Y2025989D1*
X2795418Y2027935D1*
X2793472Y2031737D1*
X2487902Y1886180D2*
Y1845988D1*
X2474504Y1886180D2*
X2501299D1*
X2513650Y1865133D2*
X2530895D1*
X2536598Y1867034D1*
X2538544Y1868980D1*
X2540445Y1872783D1*
Y1878531D1*
X2538544Y1882333D1*
X2536598Y1884279D1*
X2530895Y1886180D1*
X2513650D1*
Y1845988D1*
X2575744Y1880432D2*
X2573843Y1884234D1*
X2568095Y1886136D1*
X2564293D1*
X2558545Y1884234D1*
X2554698Y1878486D1*
X2552796Y1868936D1*
Y1859385D1*
X2554698Y1851736D1*
X2558545Y1847889D1*
X2564293Y1845988D1*
X2566194D1*
X2571898Y1847889D1*
X2575744Y1851736D1*
X2577646Y1857484D1*
Y1859385D1*
X2575744Y1865133D1*
X2571898Y1868936D1*
X2566194Y1870837D1*
X2564293D1*
X2558545Y1868936D1*
X2554698Y1865133D1*
X2552796Y1859385D1*
X3699442Y2291755D2*
Y2251563D1*
X3686045Y2291755D2*
X3712839D1*
X3725191Y2270708D2*
X3742435D1*
X3748139Y2272609D1*
X3750084Y2274555D1*
X3751985Y2278357D1*
Y2284105D1*
X3750084Y2287908D1*
X3748139Y2289853D1*
X3742435Y2291755D1*
X3725191D1*
Y2251563D1*
X3771986D2*
X3791131Y2291710D1*
X3764337D1*
X4068224Y2391328D2*
Y2351136D1*
X4054827Y2391328D2*
X4081621D1*
X4093973Y2370281D2*
X4111217D1*
X4116921Y2372183D1*
X4118866Y2374128D1*
X4120767Y2377931D1*
Y2383679D1*
X4118866Y2387481D1*
X4116921Y2389427D1*
X4111217Y2391328D1*
X4093973D1*
Y2351136D1*
X4142669Y2391284D2*
X4136966Y2389383D1*
X4135020Y2385580D1*
Y2381733D1*
X4136966Y2377931D1*
X4140768Y2375985D1*
X4148417Y2374084D1*
X4154165Y2372183D1*
X4157968Y2368336D1*
X4159869Y2364533D1*
Y2358785D1*
X4157968Y2354983D1*
X4156067Y2353037D1*
X4150319Y2351136D1*
X4142669D1*
X4136966Y2353037D1*
X4135020Y2354983D1*
X4133119Y2358785D1*
Y2364533D1*
X4135020Y2368336D1*
X4138867Y2372183D1*
X4144571Y2374084D1*
X4152220Y2375985D1*
X4156067Y2377931D1*
X4157968Y2381733D1*
Y2385580D1*
X4156067Y2389383D1*
X4150319Y2391284D1*
X4142669D1*
X3258679Y1384304D2*
Y1344112D1*
X3245282Y1384304D2*
X3272077D1*
X3284428Y1363258D2*
X3301672D1*
X3307376Y1365159D1*
X3309322Y1367105D1*
X3311223Y1370907D1*
Y1376655D1*
X3309322Y1380458D1*
X3307376Y1382403D1*
X3301672Y1384304D1*
X3284428D1*
Y1344112D1*
X3348468Y1370907D2*
X3346522Y1365159D1*
X3342720Y1361312D1*
X3336972Y1359411D1*
X3335070D1*
X3329322Y1361312D1*
X3325520Y1365159D1*
X3323574Y1370907D1*
Y1372808D1*
X3325520Y1378556D1*
X3329322Y1382359D1*
X3335070Y1384260D1*
X3336972D1*
X3342720Y1382359D1*
X3346522Y1378556D1*
X3348468Y1370907D1*
Y1361312D1*
X3346522Y1351762D1*
X3342720Y1346014D1*
X3336972Y1344112D1*
X3333169D1*
X3327421Y1346014D1*
X3325520Y1349860D1*
X3880931Y1284299D2*
Y1244107D1*
X3867534Y1284299D2*
X3894329D1*
X3906680Y1263253D2*
X3923924D1*
X3929628Y1265154D1*
X3931574Y1267099D1*
X3933475Y1270902D1*
Y1276650D1*
X3931574Y1280452D1*
X3929628Y1282398D1*
X3923924Y1284299D1*
X3906680D1*
Y1244107D1*
X3945826Y1276606D2*
X3949673Y1278551D1*
X3955421Y1284255D1*
Y1244107D1*
X3979268Y1284255D2*
X3973520Y1282354D1*
X3969674Y1276606D1*
X3967772Y1267055D1*
Y1261307D1*
X3969674Y1251756D1*
X3973520Y1246008D1*
X3979268Y1244107D1*
X3983071D1*
X3988819Y1246008D1*
X3992622Y1251756D1*
X3994567Y1261307D1*
Y1267055D1*
X3992622Y1276606D1*
X3988819Y1282354D1*
X3983071Y1284255D1*
X3979268D1*
X3992622Y1276606D2*
X3969674Y1251756D1*
X3755000Y676863D2*
Y636671D1*
X3741602Y676863D2*
X3768397D1*
X3780748Y655817D2*
X3797992D1*
X3803696Y657718D1*
X3805642Y659664D1*
X3807543Y663466D1*
Y669214D1*
X3805642Y673017D1*
X3803696Y674962D1*
X3797992Y676863D1*
X3780748D1*
Y636671D1*
X3819894Y669170D2*
X3823741Y671115D1*
X3829489Y676819D1*
Y636671D1*
X3841841Y669170D2*
X3845687Y671115D1*
X3851435Y676819D1*
Y636671D1*
X4168179Y2973892D2*
D81*
Y2927997D1*
X4165327Y2919374D1*
X4162409Y2916523D1*
X4156705Y2913604D1*
X4150935D1*
X4145231Y2916523D1*
X4142379Y2919374D1*
X4139461Y2927997D1*
Y2933700D1*
X4192476Y2973826D2*
X4223980D1*
X4206802Y2950878D1*
X4215424D1*
X4221128Y2948026D1*
X4223980Y2945174D1*
X4226898Y2936552D1*
Y2930848D1*
X4223980Y2922226D1*
X4218276Y2916456D1*
X4209654Y2913604D1*
X4201032D1*
X4192476Y2916456D1*
X4189625Y2919374D1*
X4186706Y2925078D1*
X1162286Y1239853D2*
D79*
Y1199661D1*
X1148888Y1239853D2*
X1175683D1*
X1188034Y1218806D2*
X1205279D1*
X1210982Y1220708D1*
X1212928Y1222653D1*
X1214829Y1226456D1*
Y1232204D1*
X1212928Y1236006D1*
X1210982Y1237952D1*
X1205279Y1239853D1*
X1188034D1*
Y1199661D1*
X1227181Y1232159D2*
X1231027Y1234105D1*
X1236775Y1239809D1*
Y1199661D1*
X1252973Y1239809D2*
X1273976D1*
X1262524Y1224510D1*
X1268272D1*
X1272075Y1222609D1*
X1273976Y1220708D1*
X1275921Y1214960D1*
Y1211157D1*
X1273976Y1205409D1*
X1270173Y1201562D1*
X1264425Y1199661D1*
X1258677D1*
X1252973Y1201562D1*
X1251072Y1203508D1*
X1249127Y1207310D1*
X2735009Y1477244D2*
Y1446647D1*
X2733108Y1440899D1*
X2731162Y1438998D1*
X2727360Y1437052D1*
X2723513D1*
X2719710Y1438998D1*
X2717809Y1440899D1*
X2715863Y1446647D1*
Y1450449D1*
X2747360Y1456197D2*
X2764604D1*
X2770308Y1458099D1*
X2772254Y1460044D1*
X2774155Y1463847D1*
Y1469595D1*
X2772254Y1473397D1*
X2770308Y1475343D1*
X2764604Y1477244D1*
X2747360D1*
Y1437052D1*
X2786506Y1469551D2*
X2790353Y1471496D1*
X2796101Y1477200D1*
Y1437052D1*
X4155965Y1427924D2*
X4154064Y1431727D1*
X4150217Y1435574D1*
X4146414Y1437475D1*
X4138765D1*
X4134918Y1435574D1*
X4131116Y1431727D1*
X4129170Y1427924D1*
X4127269Y1422176D1*
Y1412582D1*
X4129170Y1406878D1*
X4131116Y1403031D1*
X4134918Y1399229D1*
X4138765Y1397283D1*
X4146414D1*
X4150217Y1399229D1*
X4154064Y1403031D1*
X4155965Y1406878D1*
Y1412582D1*
X4146414D1*
X4168316Y1424078D2*
Y1397283D1*
Y1416428D2*
X4174064Y1422176D1*
X4177911Y1424078D1*
X4183615D1*
X4187462Y1422176D1*
X4189363Y1416428D1*
Y1397283D1*
X4224662Y1437475D2*
Y1397283D1*
Y1418330D2*
X4220860Y1422176D1*
X4217013Y1424078D1*
X4211265D1*
X4207462Y1422176D1*
X4203616Y1418330D1*
X4201714Y1412582D1*
Y1408779D1*
X4203616Y1403031D1*
X4207462Y1399229D1*
X4211265Y1397283D1*
X4217013D1*
X4220860Y1399229D1*
X4224662Y1403031D1*
X1185709Y2457674D2*
X1183808Y2461476D1*
X1179961Y2465323D1*
X1176158Y2467224D1*
X1168509D1*
X1164662Y2465323D1*
X1160860Y2461476D1*
X1158914Y2457674D1*
X1157013Y2451926D1*
Y2442331D1*
X1158914Y2436627D1*
X1160860Y2432780D1*
X1164662Y2428978D1*
X1168509Y2427032D1*
X1176158D1*
X1179961Y2428978D1*
X1183808Y2432780D1*
X1185709Y2436627D1*
Y2442331D1*
X1176158D1*
X1198060Y2453827D2*
Y2427032D1*
Y2446178D2*
X1203808Y2451926D1*
X1207655Y2453827D1*
X1213359D1*
X1217206Y2451926D1*
X1219107Y2446178D1*
Y2427032D1*
X1254406Y2467224D2*
Y2427032D1*
Y2448079D2*
X1250604Y2451926D1*
X1246757Y2453827D1*
X1241009D1*
X1237206Y2451926D1*
X1233360Y2448079D1*
X1231458Y2442331D1*
Y2438528D1*
X1233360Y2432780D1*
X1237206Y2428978D1*
X1241009Y2427032D1*
X1246757D1*
X1250604Y2428978D1*
X1254406Y2432780D1*
X2786381Y2643043D2*
X2784480Y2646845D1*
X2780633Y2650692D1*
X2776830Y2652593D1*
X2769181D1*
X2765334Y2650692D1*
X2761532Y2646845D1*
X2759586Y2643043D1*
X2757685Y2637295D1*
Y2627700D1*
X2759586Y2621996D1*
X2761532Y2618149D1*
X2765334Y2614347D1*
X2769181Y2612401D1*
X2776830D1*
X2780633Y2614347D1*
X2784480Y2618149D1*
X2786381Y2621996D1*
Y2627700D1*
X2776830D1*
X2798732Y2639196D2*
Y2612401D1*
Y2631547D2*
X2804480Y2637295D1*
X2808327Y2639196D1*
X2814031D1*
X2817878Y2637295D1*
X2819779Y2631547D1*
Y2612401D1*
X2855078Y2652593D2*
Y2612401D1*
Y2633448D2*
X2851276Y2637295D1*
X2847429Y2639196D1*
X2841681D1*
X2837878Y2637295D1*
X2834032Y2633448D1*
X2832130Y2627700D1*
Y2623897D1*
X2834032Y2618149D1*
X2837878Y2614347D1*
X2841681Y2612401D1*
X2847429D1*
X2851276Y2614347D1*
X2855078Y2618149D1*
X2737998Y1903442D2*
X2736096Y1907244D1*
X2732250Y1911091D1*
X2728447Y1912992D1*
X2720798D1*
X2716951Y1911091D1*
X2713149Y1907244D1*
X2711203Y1903442D1*
X2709302Y1897693D1*
Y1888099D1*
X2711203Y1882395D1*
X2713149Y1878548D1*
X2716951Y1874746D1*
X2720798Y1872800D1*
X2728447D1*
X2732250Y1874746D1*
X2736096Y1878548D1*
X2737998Y1882395D1*
Y1888099D1*
X2728447D1*
X2750349Y1899595D2*
Y1872800D1*
Y1891945D2*
X2756097Y1897693D1*
X2759944Y1899595D1*
X2765648D1*
X2769494Y1897693D1*
X2771396Y1891945D1*
Y1872800D1*
X2806695Y1912992D2*
Y1872800D1*
Y1893847D2*
X2802893Y1897693D1*
X2799046Y1899595D1*
X2793298D1*
X2789495Y1897693D1*
X2785648Y1893847D1*
X2783747Y1888099D1*
Y1884296D1*
X2785648Y1878548D1*
X2789495Y1874746D1*
X2793298Y1872800D1*
X2799046D1*
X2802893Y1874746D1*
X2806695Y1878548D1*
X2549410Y964012D2*
X2547509Y967815D1*
X2543662Y971662D1*
X2539859Y973563D1*
X2532210D1*
X2528363Y971662D1*
X2524561Y967815D1*
X2522615Y964012D1*
X2520714Y958264D1*
Y948670D1*
X2522615Y942966D1*
X2524561Y939119D1*
X2528363Y935316D1*
X2532210Y933371D1*
X2539859D1*
X2543662Y935316D1*
X2547509Y939119D1*
X2549410Y942966D1*
Y948670D1*
X2539859D1*
X2561761Y960166D2*
Y933371D1*
Y952516D2*
X2567509Y958264D1*
X2571356Y960166D1*
X2577060D1*
X2580907Y958264D1*
X2582808Y952516D1*
Y933371D1*
X2618107Y973563D2*
Y933371D1*
Y954418D2*
X2614305Y958264D1*
X2610458Y960166D1*
X2604710D1*
X2600907Y958264D1*
X2597060Y954418D1*
X2595159Y948670D1*
Y944867D1*
X2597060Y939119D1*
X2600907Y935316D1*
X2604710Y933371D1*
X2610458D1*
X2614305Y935316D1*
X2618107Y939119D1*
X1123236Y936436D2*
X1121335Y940239D1*
X1117488Y944086D1*
X1113686Y945987D1*
X1106037D1*
X1102190Y944086D1*
X1098387Y940239D1*
X1096442Y936436D1*
X1094540Y930688D1*
Y921093D1*
X1096442Y915390D1*
X1098387Y911543D1*
X1102190Y907740D1*
X1106037Y905795D1*
X1113686D1*
X1117488Y907740D1*
X1121335Y911543D1*
X1123236Y915390D1*
Y921093D1*
X1113686D1*
X1135588Y932589D2*
Y905795D1*
Y924940D2*
X1141336Y930688D1*
X1145183Y932589D1*
X1150886D1*
X1154733Y930688D1*
X1156634Y924940D1*
Y905795D1*
X1191934Y945987D2*
Y905795D1*
Y926841D2*
X1188131Y930688D1*
X1184284Y932589D1*
X1178536D1*
X1174734Y930688D1*
X1170887Y926841D1*
X1168986Y921093D1*
Y917291D1*
X1170887Y911543D1*
X1174734Y907740D1*
X1178536Y905795D1*
X1184284D1*
X1188131Y907740D1*
X1191934Y911543D1*
X960447Y1949243D2*
X958545Y1953046D1*
X954698Y1956893D1*
X950896Y1958794D1*
X943247D1*
X939400Y1956893D1*
X935597Y1953046D1*
X933652Y1949243D1*
X931751Y1943495D1*
Y1933901D1*
X933652Y1928197D1*
X935597Y1924350D1*
X939400Y1920547D1*
X943247Y1918602D1*
X950896D1*
X954698Y1920547D1*
X958545Y1924350D1*
X960447Y1928197D1*
Y1933901D1*
X950896D1*
X972798Y1945397D2*
Y1918602D1*
Y1937747D2*
X978546Y1943495D1*
X982393Y1945397D1*
X988097D1*
X991943Y1943495D1*
X993845Y1937747D1*
Y1918602D1*
X1029144Y1958794D2*
Y1918602D1*
Y1939649D2*
X1025341Y1943495D1*
X1021495Y1945397D1*
X1015747D1*
X1011944Y1943495D1*
X1008097Y1939649D1*
X1006196Y1933901D1*
Y1930098D1*
X1008097Y1924350D1*
X1011944Y1920547D1*
X1015747Y1918602D1*
X1021495D1*
X1025341Y1920547D1*
X1029144Y1924350D1*
X1627145Y3075222D2*
X1625243Y3079025D1*
X1621397Y3082872D1*
X1617594Y3084773D1*
X1609945D1*
X1606098Y3082872D1*
X1602296Y3079025D1*
X1600350Y3075222D1*
X1598449Y3069474D1*
Y3059880D1*
X1600350Y3054176D1*
X1602296Y3050329D1*
X1606098Y3046526D1*
X1609945Y3044581D1*
X1617594D1*
X1621397Y3046526D1*
X1625243Y3050329D1*
X1627145Y3054176D1*
Y3059880D1*
X1617594D1*
X1639496Y3071376D2*
Y3044581D1*
Y3063726D2*
X1645244Y3069474D1*
X1649091Y3071376D1*
X1654795D1*
X1658641Y3069474D1*
X1660543Y3063726D1*
Y3044581D1*
X1695842Y3084773D2*
Y3044581D1*
Y3065628D2*
X1692039Y3069474D1*
X1688193Y3071376D1*
X1682445D1*
X1678642Y3069474D1*
X1674795Y3065628D1*
X1672894Y3059880D1*
Y3056077D1*
X1674795Y3050329D1*
X1678642Y3046526D1*
X1682445Y3044581D1*
X1688193D1*
X1692039Y3046526D1*
X1695842Y3050329D1*
X3604878Y752423D2*
X3602977Y756226D1*
X3599130Y760072D1*
X3595328Y761974D1*
X3587678D1*
X3583832Y760072D1*
X3580029Y756226D1*
X3578084Y752423D1*
X3576182Y746675D1*
Y737080D1*
X3578084Y731377D1*
X3580029Y727530D1*
X3583832Y723727D1*
X3587678Y721782D1*
X3595328D1*
X3599130Y723727D1*
X3602977Y727530D1*
X3604878Y731377D1*
Y737080D1*
X3595328D1*
X3617230Y748576D2*
Y721782D1*
Y740927D2*
X3622978Y746675D1*
X3626824Y748576D1*
X3632528D1*
X3636375Y746675D1*
X3638276Y740927D1*
Y721782D1*
X3673576Y761974D2*
Y721782D1*
Y742828D2*
X3669773Y746675D1*
X3665926Y748576D1*
X3660178D1*
X3656376Y746675D1*
X3652529Y742828D1*
X3650628Y737080D1*
Y733278D1*
X3652529Y727530D1*
X3656376Y723727D1*
X3660178Y721782D1*
X3665926D1*
X3669773Y723727D1*
X3673576Y727530D1*
X3615878Y3059460D2*
X3613977Y3063262D1*
X3610130Y3067109D1*
X3606328Y3069010D1*
X3598678D1*
X3594832Y3067109D1*
X3591029Y3063262D1*
X3589084Y3059460D1*
X3587182Y3053712D1*
Y3044117D1*
X3589084Y3038413D1*
X3591029Y3034567D1*
X3594832Y3030764D1*
X3598678Y3028818D1*
X3606328D1*
X3610130Y3030764D1*
X3613977Y3034567D1*
X3615878Y3038413D1*
Y3044117D1*
X3606328D1*
X3628230Y3055613D2*
Y3028818D1*
Y3047964D2*
X3633978Y3053712D1*
X3637824Y3055613D1*
X3643528D1*
X3647375Y3053712D1*
X3649276Y3047964D1*
Y3028818D1*
X3684576Y3069010D2*
Y3028818D1*
Y3049865D2*
X3680773Y3053712D1*
X3676926Y3055613D1*
X3671178D1*
X3667376Y3053712D1*
X3663529Y3049865D1*
X3661628Y3044117D1*
Y3040315D1*
X3663529Y3034567D1*
X3667376Y3030764D1*
X3671178Y3028818D1*
X3676926D1*
X3680773Y3030764D1*
X3684576Y3034567D1*
X3866021Y2230876D2*
X3864120Y2234678D1*
X3860273Y2238525D1*
X3856471Y2240426D1*
X3848821D1*
X3844975Y2238525D1*
X3841172Y2234678D1*
X3839227Y2230876D1*
X3837325Y2225128D1*
Y2215533D1*
X3839227Y2209829D1*
X3841172Y2205983D1*
X3844975Y2202180D1*
X3848821Y2200234D1*
X3856471D1*
X3860273Y2202180D1*
X3864120Y2205983D1*
X3866021Y2209829D1*
Y2215533D1*
X3856471D1*
X3878373Y2227029D2*
Y2200234D1*
Y2219380D2*
X3884121Y2225128D1*
X3887968Y2227029D1*
X3893671D1*
X3897518Y2225128D1*
X3899419Y2219380D1*
Y2200234D1*
X3934719Y2240426D2*
Y2200234D1*
Y2221281D2*
X3930916Y2225128D1*
X3927069Y2227029D1*
X3921321D1*
X3917519Y2225128D1*
X3913672Y2221281D1*
X3911771Y2215533D1*
Y2211731D1*
X3913672Y2205983D1*
X3917519Y2202180D1*
X3921321Y2200234D1*
X3927069D1*
X3930916Y2202180D1*
X3934719Y2205983D1*
X601444Y2513030D2*
D80*
Y2482886D1*
X591396Y2513030D2*
X611492D1*
X620755Y2502982D2*
X636540Y2482886D1*
Y2502982D2*
X620755Y2482886D1*
X645804Y2498670D2*
X658704D1*
X663015Y2500130D1*
X664474Y2501556D1*
X665900Y2504407D1*
Y2507293D1*
X664474Y2510144D1*
X663015Y2511604D1*
X658704Y2513030D1*
X645804D1*
Y2482886D1*
X655852Y2498670D2*
X665900Y2482886D1*
X675164Y2502982D2*
X690949Y2482886D1*
Y2502982D2*
X675164Y2482886D1*
X532083Y2892576D2*
X530657Y2895428D1*
X527772Y2898313D1*
X524920Y2899739D1*
X519183D1*
X516298Y2898313D1*
X513446Y2895428D1*
X511987Y2892576D1*
X510561Y2888265D1*
Y2881069D1*
X511987Y2876791D1*
X513446Y2873906D1*
X516298Y2871054D1*
X519183Y2869595D1*
X524920D1*
X527772Y2871054D1*
X530657Y2873906D1*
X532083Y2876791D1*
X548510Y2889691D2*
X545658Y2888265D1*
X542773Y2885380D1*
X541347Y2881069D1*
Y2878217D1*
X542773Y2873906D1*
X545658Y2871054D1*
X548510Y2869595D1*
X552821D1*
X555706Y2871054D1*
X558558Y2873906D1*
X560017Y2878217D1*
Y2881069D1*
X558558Y2885380D1*
X555706Y2888265D1*
X552821Y2889691D1*
X548510D1*
X569280D2*
Y2869595D1*
Y2883954D2*
X573591Y2888265D1*
X576476Y2889691D1*
X580754D1*
X583639Y2888265D1*
X585065Y2883954D1*
Y2869595D1*
Y2883954D2*
X589376Y2888265D1*
X592261Y2889691D1*
X596539D1*
X599424Y2888265D1*
X600883Y2883954D1*
Y2869595D1*
X606401Y2784098D2*
Y2753954D1*
X596353Y2784098D2*
X616449D1*
X625712D2*
X627138Y2782672D1*
X628597Y2784098D1*
X627138Y2785557D1*
X625712Y2784098D1*
X627138Y2774050D2*
Y2753954D1*
X637861Y2774050D2*
Y2743906D1*
Y2769739D2*
X640746Y2772590D1*
X643598Y2774050D1*
X647909D1*
X650794Y2772590D1*
X653646Y2769739D1*
X655105Y2765427D1*
Y2762542D1*
X653646Y2758265D1*
X650794Y2755379D1*
X647909Y2753954D1*
X643598D1*
X640746Y2755379D1*
X637861Y2758265D1*
X582109Y3098185D2*
X595009D1*
X599320Y3099644D1*
X600779Y3101070D1*
X602205Y3103922D1*
Y3106807D1*
X600779Y3109659D1*
X599320Y3111118D1*
X595009Y3112544D1*
X582109D1*
Y3082400D1*
X592157Y3098185D2*
X602205Y3082400D1*
X611468Y3112544D2*
X612894Y3111118D1*
X614353Y3112544D1*
X612894Y3114003D1*
X611468Y3112544D1*
X612894Y3102496D2*
Y3082400D1*
X623617Y3102496D2*
Y3082400D1*
Y3096759D2*
X627928Y3101070D1*
X630813Y3102496D1*
X635091D1*
X637976Y3101070D1*
X639402Y3096759D1*
Y3082400D1*
X665876Y3101070D2*
Y3078089D1*
X664450Y3073811D1*
X663024Y3072352D1*
X660139Y3070926D1*
X655828D1*
X652976Y3072352D1*
X665876Y3096759D2*
X663024Y3099611D1*
X660139Y3101070D1*
X655828D1*
X652976Y3099611D1*
X650091Y3096759D1*
X648665Y3092448D1*
Y3089563D1*
X650091Y3085285D1*
X652976Y3082400D1*
X655828Y3080974D1*
X660139D1*
X663024Y3082400D1*
X665876Y3085285D1*
X863140Y2855044D2*
X860288Y2857929D1*
X855977Y2859355D1*
X850240D1*
X845929Y2857929D1*
X843044Y2855044D1*
Y2852192D1*
X844503Y2849307D1*
X845929Y2847881D1*
X848781Y2846455D1*
X857403Y2843570D1*
X860288Y2842144D1*
X861714Y2840685D1*
X863140Y2837833D1*
Y2833522D1*
X860288Y2830670D1*
X855977Y2829211D1*
X850240D1*
X845929Y2830670D1*
X843044Y2833522D1*
X872403Y2849307D2*
X878140Y2829211D1*
X883877Y2849307D1*
X889614Y2829211D1*
X895351Y2849307D1*
X834652Y3005559D2*
X831800Y3008444D1*
X827489Y3009870D1*
X821752D1*
X817441Y3008444D1*
X814556Y3005559D1*
Y3002707D1*
X816015Y2999822D1*
X817441Y2998396D1*
X820293Y2996970D1*
X828915Y2994085D1*
X831800Y2992659D1*
X833226Y2991199D1*
X834652Y2988348D1*
Y2984037D1*
X831800Y2981185D1*
X827489Y2979726D1*
X821752D1*
X817441Y2981185D1*
X814556Y2984037D1*
X843916Y2999822D2*
X849653Y2979726D1*
X855390Y2999822D1*
X861127Y2979726D1*
X866864Y2999822D1*
X2247574Y1132026D2*
D82*
X2267670D1*
Y1140648D1*
X2266698Y1143522D1*
X2265747Y1144473D1*
X2263846Y1145424D1*
X2260972D1*
X2259048Y1144473D1*
X2258098Y1143522D1*
X2257147Y1140648D1*
X2256174Y1143522D1*
X2255224Y1144473D1*
X2253322Y1145424D1*
X2251399D1*
X2249498Y1144473D1*
X2248525Y1143522D1*
X2247574Y1140648D1*
Y1132026D1*
X2257147D2*
Y1140648D1*
X2322585Y1144451D2*
Y1132026D1*
X2342681D1*
Y1144451D1*
X2332157Y1132026D2*
Y1139676D1*
X2289855Y1302623D2*
X2287954Y1301672D1*
X2286030Y1299749D1*
X2285080Y1297847D1*
Y1294023D1*
X2286030Y1292099D1*
X2287954Y1290198D1*
X2289855Y1289225D1*
X2292729Y1288275D1*
X2297526D1*
X2300378Y1289225D1*
X2302301Y1290198D1*
X2304203Y1292099D1*
X2305176Y1294023D1*
Y1297847D1*
X2304203Y1299748D1*
X2302302Y1301672D1*
X2300378Y1302622D1*
M02*
