M48
INCH
T01C0.0191
T02C0.02
T03C0.0394
T04C0.1378
%
T01
X+012229Y+009258
T02
X+004940Y+010310
X+004940Y+009310
X+004940Y+008310
T03
X+009944Y+042031
X+009944Y+040259
X+012503Y+040259
X+012503Y+042031
X+017031Y+042031
X+017031Y+040259
X+019590Y+040259
X+019590Y+042031
X+024117Y+042031
X+024117Y+040259
X+026676Y+040259
X+026676Y+042031
X+026676Y+034944
X+026676Y+033172
X+024117Y+033172
X+024117Y+034944
X+019590Y+034944
X+019590Y+033172
X+017031Y+033172
X+017031Y+034944
X+012503Y+034944
X+012503Y+033172
X+009944Y+033172
X+009944Y+034944
X+009944Y+027857
X+009944Y+026086
X+012503Y+026086
X+012503Y+027857
X+017031Y+027857
X+017031Y+026086
X+019590Y+026086
X+019590Y+027857
X+024117Y+027857
X+024117Y+026086
X+026676Y+026086
X+026676Y+027857
X+026676Y+020771
X+026676Y+018999
X+024117Y+018999
X+024117Y+020771
X+019590Y+020771
X+019590Y+018999
X+017031Y+018999
X+017031Y+020771
X+012503Y+020771
X+012503Y+018999
X+009944Y+018999
X+009944Y+020771
X+009944Y+013684
X+009944Y+011912
X+012503Y+011912
X+012503Y+013684
X+017031Y+013684
X+017031Y+011912
X+019590Y+011912
X+019590Y+013684
X+024117Y+013684
X+024117Y+011912
X+026676Y+011912
X+026676Y+013684
X+026676Y+006597
X+026676Y+004826
X+024117Y+004826
X+024117Y+006597
X+019590Y+006597
X+019590Y+004826
X+017031Y+004826
X+017031Y+006597
X+012503Y+006597
X+012503Y+004826
X+009944Y+004826
X+009944Y+006597
T04
X+007483Y+005718
X+029137Y+005710
X+029071Y+041141
X+007435Y+041145
T00
M30
