G04 #@! TF.GenerationSoftware,KiCad,Pcbnew,9.0.8*
G04 #@! TF.CreationDate,2026-04-10T17:10:50+03:00*
G04 #@! TF.ProjectId,T41-RF-board-Dual-Attenuator-daughterboard,5434312d-5246-42d6-926f-6172642d4475,rev?*
G04 #@! TF.SameCoordinates,Original*
G04 #@! TF.FileFunction,Copper,L2,Bot*
G04 #@! TF.FilePolarity,Positive*
%FSLAX46Y46*%
G04 Gerber Fmt 4.6, Leading zero omitted, Abs format (unit mm)*
G04 Created by KiCad (PCBNEW 9.0.8) date 2026-04-10 17:10:50*
%MOMM*%
%LPD*%
G01*
G04 APERTURE LIST*
G04 #@! TA.AperFunction,ComponentPad*
%ADD10R,1.700000X1.700000*%
G04 #@! TD*
G04 #@! TA.AperFunction,ComponentPad*
%ADD11C,1.700000*%
G04 #@! TD*
G04 #@! TA.AperFunction,ViaPad*
%ADD12C,0.400000*%
G04 #@! TD*
G04 #@! TA.AperFunction,Conductor*
%ADD13C,0.120000*%
G04 #@! TD*
G04 #@! TA.AperFunction,Conductor*
%ADD14C,0.400000*%
G04 #@! TD*
G04 #@! TA.AperFunction,Conductor*
%ADD15C,0.300000*%
G04 #@! TD*
G04 APERTURE END LIST*
D10*
G04 #@! TO.P,J1,1,Pin_1*
G04 #@! TO.N,/TC0.5*
X83820000Y-63500000D03*
D11*
G04 #@! TO.P,J1,2,Pin_2*
G04 #@! TO.N,/RFin*
X83820000Y-66040000D03*
G04 #@! TO.P,J1,3,Pin_3*
G04 #@! TO.N,GND*
X83820000Y-68580000D03*
G04 #@! TO.P,J1,4,Pin_4*
G04 #@! TO.N,+3V3*
X83820000Y-71120000D03*
G04 #@! TO.P,J1,5,Pin_5*
G04 #@! TO.N,GND*
X83820000Y-73660000D03*
G04 #@! TO.P,J1,6,Pin_6*
G04 #@! TO.N,/TC16*
X83820000Y-76200000D03*
G04 #@! TD*
D10*
G04 #@! TO.P,J2,1,Pin_1*
G04 #@! TO.N,/TC1*
X93980000Y-63500000D03*
D11*
G04 #@! TO.P,J2,2,Pin_2*
G04 #@! TO.N,/TC2*
X93980000Y-66040000D03*
G04 #@! TO.P,J2,3,Pin_3*
G04 #@! TO.N,/TC4*
X93980000Y-68579999D03*
G04 #@! TO.P,J2,4,Pin_4*
G04 #@! TO.N,/TC8*
X93980000Y-71120000D03*
G04 #@! TO.P,J2,5,Pin_5*
G04 #@! TO.N,/RFout*
X93980000Y-73660000D03*
G04 #@! TO.P,J2,6,Pin_6*
G04 #@! TO.N,GND*
X93980000Y-76200000D03*
G04 #@! TD*
D12*
G04 #@! TO.N,GND*
X87540000Y-75520000D03*
X85020000Y-72820000D03*
X82560000Y-69840000D03*
X87110000Y-72620000D03*
X88310000Y-67320000D03*
X91150000Y-65830000D03*
X85970000Y-62130000D03*
X92710000Y-69100000D03*
X91160000Y-71120000D03*
X87120000Y-69000000D03*
X88800000Y-63110000D03*
X87240000Y-74260000D03*
X82590000Y-67190000D03*
X94870000Y-65210000D03*
X90810000Y-73770000D03*
X84720000Y-65080000D03*
X94790000Y-72740000D03*
X82420000Y-77510000D03*
X82640000Y-75010000D03*
X89660000Y-68520000D03*
X85030000Y-68140000D03*
X88490000Y-72120000D03*
X86665000Y-63080000D03*
X90980000Y-75260000D03*
X87420000Y-62130000D03*
X85790000Y-65850000D03*
X88650000Y-68520000D03*
X88330000Y-75440000D03*
X95340000Y-64290000D03*
X86665000Y-64600000D03*
X94920000Y-75280000D03*
X91160000Y-68830000D03*
X85130000Y-74970000D03*
X94740000Y-76930000D03*
X90980000Y-67320000D03*
X91100000Y-72630000D03*
X93110000Y-75300000D03*
X91050000Y-70000000D03*
X92070000Y-63490000D03*
X91820000Y-76460000D03*
X92870000Y-62200000D03*
X94410000Y-69860000D03*
X88100000Y-77550000D03*
X87750000Y-63100000D03*
X89160000Y-68530000D03*
X89570000Y-75420000D03*
X85650000Y-72810000D03*
X93650000Y-67330000D03*
X90100000Y-63600000D03*
X95220000Y-62240000D03*
X88685000Y-76550000D03*
X85020000Y-71230000D03*
X92790000Y-73870000D03*
X85030000Y-66580000D03*
X88130000Y-74570000D03*
X82550000Y-62220000D03*
X92510000Y-65000000D03*
X88480000Y-73630000D03*
X85090000Y-63100000D03*
X90760000Y-76470000D03*
X82570000Y-64880000D03*
X85650000Y-71220000D03*
X85750000Y-76640000D03*
X88140000Y-71110000D03*
X87400000Y-64380000D03*
X88180000Y-65830000D03*
X88490000Y-72630000D03*
X95420000Y-77590000D03*
X87160000Y-65410000D03*
X91125000Y-64790000D03*
X85150000Y-76640000D03*
X85030000Y-69850000D03*
X89160000Y-73960000D03*
X88970000Y-64540000D03*
X88320000Y-66830000D03*
G04 #@! TO.N,/TC8*
X92095000Y-74134644D03*
G04 #@! TO.N,/TC2*
X92869124Y-72340000D03*
G04 #@! TO.N,/TC1*
X92116557Y-70060239D03*
X92400000Y-66630000D03*
G04 #@! TO.N,/TC0.5*
X91660000Y-69695000D03*
X91680000Y-65190000D03*
G04 #@! TO.N,Net-(U2-Data)*
X87001611Y-69690000D03*
X86200000Y-67960000D03*
G04 #@! TO.N,/VDD*
X86420000Y-74150000D03*
X87720000Y-70650000D03*
X87145942Y-67830000D03*
X87520000Y-66040000D03*
G04 #@! TO.N,/RFin*
X90150000Y-64800000D03*
G04 #@! TO.N,/X16.2*
X89040000Y-75860000D03*
X91090000Y-70570000D03*
G04 #@! TD*
D13*
G04 #@! TO.N,/TC8*
X92300000Y-72240000D02*
X92740000Y-71800000D01*
X92095000Y-74134644D02*
X92300000Y-73929644D01*
X92740000Y-71800000D02*
X93270000Y-71800000D01*
X92300000Y-73929644D02*
X92300000Y-72240000D01*
X93950000Y-71120000D02*
X93980000Y-71120000D01*
X93270000Y-71800000D02*
X93950000Y-71120000D01*
G04 #@! TO.N,/TC2*
X95170000Y-71640000D02*
X95170000Y-67230000D01*
X95170000Y-67230000D02*
X93980000Y-66040000D01*
X94530000Y-72280000D02*
X95170000Y-71640000D01*
X92869124Y-72340000D02*
X92929124Y-72280000D01*
X92929124Y-72280000D02*
X94530000Y-72280000D01*
G04 #@! TO.N,/TC1*
X92740000Y-63490000D02*
X93970000Y-63490000D01*
X93970000Y-63490000D02*
X93980000Y-63500000D01*
X92090000Y-64140000D02*
X92740000Y-63490000D01*
X92090000Y-70033682D02*
X92090000Y-66810000D01*
X92090000Y-66810000D02*
X92090000Y-64140000D01*
X92090000Y-66630000D02*
X92090000Y-66810000D01*
X92116557Y-70060239D02*
X92090000Y-70033682D01*
X92400000Y-66630000D02*
X92090000Y-66630000D01*
G04 #@! TO.N,/TC0.5*
X91680000Y-63690000D02*
X90560000Y-62570000D01*
X90560000Y-62570000D02*
X84750000Y-62570000D01*
X84750000Y-62570000D02*
X83820000Y-63500000D01*
X91680000Y-65190000D02*
X91680000Y-63690000D01*
X91680000Y-65190000D02*
X91680000Y-69675000D01*
X91680000Y-69675000D02*
X91660000Y-69695000D01*
G04 #@! TO.N,Net-(U2-Data)*
X86210000Y-69300000D02*
X86600000Y-69690000D01*
X86200000Y-67960000D02*
X86210000Y-67970000D01*
X86600000Y-69690000D02*
X87001611Y-69690000D01*
X86210000Y-67970000D02*
X86210000Y-69300000D01*
D14*
G04 #@! TO.N,/VDD*
X86420000Y-74150000D02*
X86420000Y-71950000D01*
X87700000Y-70470000D02*
X87700000Y-68010000D01*
X86420000Y-71950000D02*
X87720000Y-70650000D01*
X87700000Y-68010000D02*
X87700000Y-66220000D01*
X87720000Y-70490000D02*
X87700000Y-70470000D01*
X87700000Y-66220000D02*
X87520000Y-66040000D01*
X87145942Y-67830000D02*
X87700000Y-67830000D01*
X87720000Y-70650000D02*
X87720000Y-70490000D01*
D13*
X87700000Y-67830000D02*
X87700000Y-68010000D01*
D15*
G04 #@! TO.N,/RFin*
X90150000Y-64708528D02*
X90150000Y-64800000D01*
X86398528Y-63770000D02*
X89211472Y-63770000D01*
X83820000Y-66040000D02*
X84521472Y-66040000D01*
X84945736Y-65864264D02*
X85244264Y-65565736D01*
X85595736Y-64324264D02*
X85974264Y-63945736D01*
X85420000Y-65141472D02*
X85420000Y-64748528D01*
X89635736Y-63945736D02*
X89974264Y-64284264D01*
X85974264Y-63945736D02*
G75*
G02*
X86398528Y-63770020I424236J-424264D01*
G01*
X85420000Y-64748528D02*
G75*
G02*
X85595722Y-64324250I600000J28D01*
G01*
X85244264Y-65565736D02*
G75*
G03*
X85419980Y-65141472I-424264J424236D01*
G01*
X90150000Y-64708528D02*
G75*
G03*
X89974278Y-64284250I-600000J28D01*
G01*
X84521472Y-66040000D02*
G75*
G03*
X84945750Y-65864278I28J600000D01*
G01*
X89211472Y-63770000D02*
G75*
G02*
X89635750Y-63945722I28J-600000D01*
G01*
D13*
G04 #@! TO.N,/X16.2*
X91180000Y-73260000D02*
X90620000Y-73260000D01*
X91220000Y-70570000D02*
X91575000Y-70925000D01*
X89040000Y-74840000D02*
X89040000Y-75860000D01*
X91090000Y-70570000D02*
X91220000Y-70570000D01*
X90620000Y-73260000D02*
X89040000Y-74840000D01*
X91575000Y-72865000D02*
X91180000Y-73260000D01*
X91575000Y-70925000D02*
X91575000Y-72865000D01*
G04 #@! TD*
G04 #@! TA.AperFunction,Conductor*
G04 #@! TO.N,GND*
G36*
X95623026Y-61863174D02*
G01*
X95644700Y-61915500D01*
X95644700Y-77733700D01*
X95623026Y-77786026D01*
X95570700Y-77807700D01*
X82165500Y-77807700D01*
X82113174Y-77786026D01*
X82091500Y-77733700D01*
X82091500Y-76101460D01*
X82819500Y-76101460D01*
X82819500Y-76298539D01*
X82857947Y-76491829D01*
X82857950Y-76491839D01*
X82933367Y-76673913D01*
X83042860Y-76837781D01*
X83182218Y-76977139D01*
X83346086Y-77086632D01*
X83527008Y-77161572D01*
X83528165Y-77162051D01*
X83721459Y-77200500D01*
X83721461Y-77200500D01*
X83918539Y-77200500D01*
X83918541Y-77200500D01*
X84111835Y-77162051D01*
X84293914Y-77086632D01*
X84457782Y-76977139D01*
X84597139Y-76837782D01*
X84706632Y-76673914D01*
X84782051Y-76491835D01*
X84820500Y-76298541D01*
X84820500Y-76101459D01*
X84782051Y-75908165D01*
X84742986Y-75813853D01*
X88689500Y-75813853D01*
X88689500Y-75906146D01*
X88713384Y-75995284D01*
X88713386Y-75995289D01*
X88759528Y-76075208D01*
X88759529Y-76075209D01*
X88759531Y-76075212D01*
X88824788Y-76140469D01*
X88904712Y-76186614D01*
X88904713Y-76186614D01*
X88904715Y-76186615D01*
X88949284Y-76198557D01*
X88993853Y-76210499D01*
X88993854Y-76210500D01*
X88993856Y-76210500D01*
X89086146Y-76210500D01*
X89086146Y-76210499D01*
X89175288Y-76186614D01*
X89255212Y-76140469D01*
X89294172Y-76101509D01*
X92980000Y-76101509D01*
X92980000Y-76298490D01*
X93018427Y-76491682D01*
X93018430Y-76491693D01*
X93093809Y-76673675D01*
X93117426Y-76709019D01*
X93497037Y-76329408D01*
X93514075Y-76392993D01*
X93579901Y-76507007D01*
X93672993Y-76600099D01*
X93787007Y-76665925D01*
X93850590Y-76682962D01*
X93470979Y-77062572D01*
X93470979Y-77062573D01*
X93506323Y-77086189D01*
X93688306Y-77161569D01*
X93688317Y-77161572D01*
X93881510Y-77200000D01*
X94078490Y-77200000D01*
X94271682Y-77161572D01*
X94271693Y-77161569D01*
X94453675Y-77086190D01*
X94489020Y-77062573D01*
X94109409Y-76682962D01*
X94172993Y-76665925D01*
X94287007Y-76600099D01*
X94380099Y-76507007D01*
X94445925Y-76392993D01*
X94462962Y-76329409D01*
X94842573Y-76709020D01*
X94866190Y-76673675D01*
X94941569Y-76491693D01*
X94941572Y-76491682D01*
X94980000Y-76298490D01*
X94980000Y-76101509D01*
X94941572Y-75908317D01*
X94941569Y-75908306D01*
X94866189Y-75726323D01*
X94842572Y-75690979D01*
X94462962Y-76070589D01*
X94445925Y-76007007D01*
X94380099Y-75892993D01*
X94287007Y-75799901D01*
X94172993Y-75734075D01*
X94109407Y-75717037D01*
X94489019Y-75337426D01*
X94489019Y-75337425D01*
X94453675Y-75313809D01*
X94271693Y-75238430D01*
X94271682Y-75238427D01*
X94078490Y-75200000D01*
X93881510Y-75200000D01*
X93688317Y-75238427D01*
X93688306Y-75238430D01*
X93506322Y-75313810D01*
X93470979Y-75337425D01*
X93470979Y-75337426D01*
X93850590Y-75717037D01*
X93787007Y-75734075D01*
X93672993Y-75799901D01*
X93579901Y-75892993D01*
X93514075Y-76007007D01*
X93497037Y-76070590D01*
X93117426Y-75690979D01*
X93117425Y-75690979D01*
X93093810Y-75726322D01*
X93018430Y-75908306D01*
X93018427Y-75908317D01*
X92980000Y-76101509D01*
X89294172Y-76101509D01*
X89320469Y-76075212D01*
X89322752Y-76071257D01*
X89328749Y-76060873D01*
X89366613Y-75995289D01*
X89366614Y-75995288D01*
X89390499Y-75906146D01*
X89390500Y-75906146D01*
X89390500Y-75813854D01*
X89390499Y-75813853D01*
X89366615Y-75724715D01*
X89366613Y-75724710D01*
X89320471Y-75644791D01*
X89320470Y-75644790D01*
X89320469Y-75644788D01*
X89272173Y-75596492D01*
X89250500Y-75544168D01*
X89250500Y-74957844D01*
X89272174Y-74905518D01*
X90089195Y-74088497D01*
X91744500Y-74088497D01*
X91744500Y-74180790D01*
X91768384Y-74269928D01*
X91768386Y-74269933D01*
X91814528Y-74349852D01*
X91814529Y-74349853D01*
X91814531Y-74349856D01*
X91879788Y-74415113D01*
X91879790Y-74415114D01*
X91879791Y-74415115D01*
X91917937Y-74437139D01*
X91959712Y-74461258D01*
X91959713Y-74461258D01*
X91959715Y-74461259D01*
X92004284Y-74473201D01*
X92048853Y-74485143D01*
X92048854Y-74485144D01*
X92048856Y-74485144D01*
X92141146Y-74485144D01*
X92141146Y-74485143D01*
X92230288Y-74461258D01*
X92310212Y-74415113D01*
X92375469Y-74349856D01*
X92421614Y-74269932D01*
X92445499Y-74180790D01*
X92445500Y-74180790D01*
X92445500Y-74112487D01*
X92467173Y-74060162D01*
X92478453Y-74048883D01*
X92510500Y-73971514D01*
X92510500Y-73887773D01*
X92510500Y-73561460D01*
X92979500Y-73561460D01*
X92979500Y-73758539D01*
X93017947Y-73951829D01*
X93017950Y-73951839D01*
X93093367Y-74133913D01*
X93202860Y-74297781D01*
X93342218Y-74437139D01*
X93506086Y-74546632D01*
X93687008Y-74621572D01*
X93688165Y-74622051D01*
X93881459Y-74660500D01*
X93881461Y-74660500D01*
X94078539Y-74660500D01*
X94078541Y-74660500D01*
X94271835Y-74622051D01*
X94453914Y-74546632D01*
X94617782Y-74437139D01*
X94757139Y-74297782D01*
X94866632Y-74133914D01*
X94942051Y-73951835D01*
X94980500Y-73758541D01*
X94980500Y-73561459D01*
X94942051Y-73368165D01*
X94866632Y-73186086D01*
X94757139Y-73022218D01*
X94617782Y-72882861D01*
X94528389Y-72823130D01*
X94453913Y-72773367D01*
X94271839Y-72697950D01*
X94271829Y-72697947D01*
X94142388Y-72672200D01*
X94078541Y-72659500D01*
X93881459Y-72659500D01*
X93826662Y-72670399D01*
X93688170Y-72697947D01*
X93688160Y-72697950D01*
X93506086Y-72773367D01*
X93342218Y-72882860D01*
X93342217Y-72882862D01*
X93202862Y-73022217D01*
X93202860Y-73022218D01*
X93093367Y-73186086D01*
X93017950Y-73368160D01*
X93017947Y-73368170D01*
X92979500Y-73561460D01*
X92510500Y-73561460D01*
X92510500Y-72655708D01*
X92532174Y-72603382D01*
X92584500Y-72581708D01*
X92636824Y-72603381D01*
X92653912Y-72620469D01*
X92653914Y-72620470D01*
X92653915Y-72620471D01*
X92721514Y-72659500D01*
X92733836Y-72666614D01*
X92733837Y-72666614D01*
X92733839Y-72666615D01*
X92778408Y-72678557D01*
X92822977Y-72690499D01*
X92822978Y-72690500D01*
X92822980Y-72690500D01*
X92915270Y-72690500D01*
X92915270Y-72690499D01*
X93004412Y-72666614D01*
X93084336Y-72620469D01*
X93149593Y-72555212D01*
X93165593Y-72527500D01*
X93210526Y-72493021D01*
X93229679Y-72490500D01*
X94571870Y-72490500D01*
X94571871Y-72490500D01*
X94649239Y-72458453D01*
X95278830Y-71828859D01*
X95278833Y-71828858D01*
X95289238Y-71818453D01*
X95289239Y-71818453D01*
X95348453Y-71759239D01*
X95380500Y-71681871D01*
X95380500Y-67188129D01*
X95348453Y-67110761D01*
X95289239Y-67051547D01*
X94863501Y-66625809D01*
X94841827Y-66573483D01*
X94854298Y-66532372D01*
X94866632Y-66513914D01*
X94942051Y-66331835D01*
X94980500Y-66138541D01*
X94980500Y-65941459D01*
X94942051Y-65748165D01*
X94866632Y-65566086D01*
X94757139Y-65402218D01*
X94617782Y-65262861D01*
X94577801Y-65236146D01*
X94453913Y-65153367D01*
X94271839Y-65077950D01*
X94271829Y-65077947D01*
X94142388Y-65052200D01*
X94078541Y-65039500D01*
X93881459Y-65039500D01*
X93826662Y-65050399D01*
X93688170Y-65077947D01*
X93688160Y-65077950D01*
X93506086Y-65153367D01*
X93342218Y-65262860D01*
X93342217Y-65262862D01*
X93202862Y-65402217D01*
X93202860Y-65402218D01*
X93093367Y-65566086D01*
X93017950Y-65748160D01*
X93017947Y-65748170D01*
X92979500Y-65941460D01*
X92979500Y-66138539D01*
X93017947Y-66331829D01*
X93017950Y-66331839D01*
X93093367Y-66513913D01*
X93202860Y-66677781D01*
X93342218Y-66817139D01*
X93506086Y-66926632D01*
X93578469Y-66956614D01*
X93688165Y-67002051D01*
X93881459Y-67040500D01*
X93881461Y-67040500D01*
X94078539Y-67040500D01*
X94078541Y-67040500D01*
X94271835Y-67002051D01*
X94453914Y-66926632D01*
X94472372Y-66914298D01*
X94527918Y-66903249D01*
X94565809Y-66923501D01*
X94937826Y-67295518D01*
X94959500Y-67347844D01*
X94959500Y-68001126D01*
X94937826Y-68053452D01*
X94885500Y-68075126D01*
X94833174Y-68053452D01*
X94823971Y-68042238D01*
X94757139Y-67942217D01*
X94617781Y-67802859D01*
X94453913Y-67693366D01*
X94271839Y-67617949D01*
X94271829Y-67617946D01*
X94142388Y-67592199D01*
X94078541Y-67579499D01*
X93881459Y-67579499D01*
X93826662Y-67590398D01*
X93688170Y-67617946D01*
X93688160Y-67617949D01*
X93506086Y-67693366D01*
X93342218Y-67802859D01*
X93342217Y-67802861D01*
X93202862Y-67942216D01*
X93202860Y-67942217D01*
X93093367Y-68106085D01*
X93017950Y-68288159D01*
X93017947Y-68288169D01*
X92979500Y-68481459D01*
X92979500Y-68678538D01*
X93017947Y-68871828D01*
X93017950Y-68871838D01*
X93093367Y-69053912D01*
X93163499Y-69158871D01*
X93202861Y-69217781D01*
X93342218Y-69357138D01*
X93506086Y-69466631D01*
X93688165Y-69542050D01*
X93881459Y-69580499D01*
X93881461Y-69580499D01*
X94078539Y-69580499D01*
X94078541Y-69580499D01*
X94271835Y-69542050D01*
X94453914Y-69466631D01*
X94617782Y-69357138D01*
X94757139Y-69217781D01*
X94823971Y-69117758D01*
X94871063Y-69086293D01*
X94926612Y-69097342D01*
X94958078Y-69144434D01*
X94959500Y-69158871D01*
X94959500Y-70541127D01*
X94937826Y-70593453D01*
X94885500Y-70615127D01*
X94833174Y-70593453D01*
X94823971Y-70582239D01*
X94757139Y-70482218D01*
X94617781Y-70342860D01*
X94453913Y-70233367D01*
X94271839Y-70157950D01*
X94271829Y-70157947D01*
X94142388Y-70132200D01*
X94078541Y-70119500D01*
X93881459Y-70119500D01*
X93826662Y-70130399D01*
X93688170Y-70157947D01*
X93688160Y-70157950D01*
X93506086Y-70233367D01*
X93342218Y-70342860D01*
X93342217Y-70342862D01*
X93202862Y-70482217D01*
X93202860Y-70482218D01*
X93093367Y-70646086D01*
X93017950Y-70828160D01*
X93017947Y-70828170D01*
X92979500Y-71021460D01*
X92979500Y-71218539D01*
X93017947Y-71411829D01*
X93017949Y-71411835D01*
X93049159Y-71487182D01*
X93049159Y-71543818D01*
X93009111Y-71583867D01*
X92980792Y-71589500D01*
X92781871Y-71589500D01*
X92698129Y-71589500D01*
X92687473Y-71593914D01*
X92620761Y-71621546D01*
X92620760Y-71621548D01*
X92121548Y-72120760D01*
X92121546Y-72120761D01*
X92089500Y-72198129D01*
X92089500Y-73716471D01*
X92067826Y-73768797D01*
X92034653Y-73787949D01*
X91959715Y-73808028D01*
X91959710Y-73808030D01*
X91879791Y-73854172D01*
X91814528Y-73919435D01*
X91768386Y-73999354D01*
X91768384Y-73999359D01*
X91744500Y-74088497D01*
X90089195Y-74088497D01*
X90685518Y-73492174D01*
X90737844Y-73470500D01*
X91221870Y-73470500D01*
X91221871Y-73470500D01*
X91299239Y-73438453D01*
X91753453Y-72984239D01*
X91785500Y-72906871D01*
X91785500Y-72823130D01*
X91785500Y-70883129D01*
X91753453Y-70805761D01*
X91694239Y-70746547D01*
X91443155Y-70495463D01*
X91424003Y-70462290D01*
X91416614Y-70434712D01*
X91370469Y-70354788D01*
X91305212Y-70289531D01*
X91305209Y-70289529D01*
X91305208Y-70289528D01*
X91225289Y-70243386D01*
X91225284Y-70243384D01*
X91136146Y-70219500D01*
X91136144Y-70219500D01*
X91043856Y-70219500D01*
X91043854Y-70219500D01*
X90954715Y-70243384D01*
X90954710Y-70243386D01*
X90874791Y-70289528D01*
X90809528Y-70354791D01*
X90763386Y-70434710D01*
X90763384Y-70434715D01*
X90739500Y-70523853D01*
X90739500Y-70616146D01*
X90763384Y-70705284D01*
X90763386Y-70705289D01*
X90809528Y-70785208D01*
X90809529Y-70785209D01*
X90809531Y-70785212D01*
X90874788Y-70850469D01*
X90874790Y-70850470D01*
X90874791Y-70850471D01*
X90939728Y-70887963D01*
X90954712Y-70896614D01*
X90954713Y-70896614D01*
X90954715Y-70896615D01*
X90967927Y-70900155D01*
X91043853Y-70920499D01*
X91043854Y-70920500D01*
X91043856Y-70920500D01*
X91136145Y-70920500D01*
X91153364Y-70915886D01*
X91202659Y-70902677D01*
X91212571Y-70903982D01*
X91221811Y-70900155D01*
X91239657Y-70907547D01*
X91258810Y-70910068D01*
X91274137Y-70921829D01*
X91342826Y-70990518D01*
X91364500Y-71042844D01*
X91364500Y-72747156D01*
X91342826Y-72799482D01*
X91114482Y-73027826D01*
X91062156Y-73049500D01*
X90661870Y-73049500D01*
X90578129Y-73049500D01*
X90555469Y-73058886D01*
X90500761Y-73081546D01*
X90500760Y-73081548D01*
X88861548Y-74720760D01*
X88861546Y-74720761D01*
X88829500Y-74798129D01*
X88829500Y-75544168D01*
X88807826Y-75596492D01*
X88759531Y-75644788D01*
X88759528Y-75644791D01*
X88713386Y-75724710D01*
X88713384Y-75724715D01*
X88689500Y-75813853D01*
X84742986Y-75813853D01*
X84706632Y-75726086D01*
X84597139Y-75562218D01*
X84457782Y-75422861D01*
X84329920Y-75337426D01*
X84293913Y-75313367D01*
X84111839Y-75237950D01*
X84111829Y-75237947D01*
X83982388Y-75212200D01*
X83918541Y-75199500D01*
X83721459Y-75199500D01*
X83666662Y-75210399D01*
X83528170Y-75237947D01*
X83528160Y-75237950D01*
X83346086Y-75313367D01*
X83182218Y-75422860D01*
X83182217Y-75422862D01*
X83042862Y-75562217D01*
X83042860Y-75562218D01*
X82933367Y-75726086D01*
X82857950Y-75908160D01*
X82857947Y-75908170D01*
X82819500Y-76101460D01*
X82091500Y-76101460D01*
X82091500Y-73561509D01*
X82820000Y-73561509D01*
X82820000Y-73758490D01*
X82858427Y-73951682D01*
X82858430Y-73951693D01*
X82933809Y-74133675D01*
X82957426Y-74169019D01*
X83337037Y-73789408D01*
X83354075Y-73852993D01*
X83419901Y-73967007D01*
X83512993Y-74060099D01*
X83627007Y-74125925D01*
X83690590Y-74142962D01*
X83310979Y-74522572D01*
X83310979Y-74522573D01*
X83346323Y-74546189D01*
X83528306Y-74621569D01*
X83528317Y-74621572D01*
X83721510Y-74660000D01*
X83918490Y-74660000D01*
X84111682Y-74621572D01*
X84111693Y-74621569D01*
X84293675Y-74546190D01*
X84329020Y-74522573D01*
X83949409Y-74142962D01*
X84012993Y-74125925D01*
X84127007Y-74060099D01*
X84220099Y-73967007D01*
X84285925Y-73852993D01*
X84302962Y-73789409D01*
X84682573Y-74169020D01*
X84706190Y-74133675D01*
X84781569Y-73951693D01*
X84781572Y-73951682D01*
X84820000Y-73758490D01*
X84820000Y-73561509D01*
X84781572Y-73368317D01*
X84781569Y-73368306D01*
X84706189Y-73186323D01*
X84682572Y-73150979D01*
X84302962Y-73530589D01*
X84285925Y-73467007D01*
X84220099Y-73352993D01*
X84127007Y-73259901D01*
X84012993Y-73194075D01*
X83949407Y-73177037D01*
X84329019Y-72797426D01*
X84329019Y-72797425D01*
X84293675Y-72773809D01*
X84111693Y-72698430D01*
X84111682Y-72698427D01*
X83918490Y-72660000D01*
X83721510Y-72660000D01*
X83528317Y-72698427D01*
X83528306Y-72698430D01*
X83346322Y-72773810D01*
X83310979Y-72797425D01*
X83310979Y-72797426D01*
X83690590Y-73177037D01*
X83627007Y-73194075D01*
X83512993Y-73259901D01*
X83419901Y-73352993D01*
X83354075Y-73467007D01*
X83337037Y-73530590D01*
X82957426Y-73150979D01*
X82957425Y-73150979D01*
X82933810Y-73186322D01*
X82858430Y-73368306D01*
X82858427Y-73368317D01*
X82820000Y-73561509D01*
X82091500Y-73561509D01*
X82091500Y-71021460D01*
X82819500Y-71021460D01*
X82819500Y-71218539D01*
X82857947Y-71411829D01*
X82857950Y-71411839D01*
X82933367Y-71593913D01*
X83042860Y-71757781D01*
X83182218Y-71897139D01*
X83346086Y-72006632D01*
X83478663Y-72061547D01*
X83528165Y-72082051D01*
X83721459Y-72120500D01*
X83721461Y-72120500D01*
X83918539Y-72120500D01*
X83918541Y-72120500D01*
X84111835Y-72082051D01*
X84293914Y-72006632D01*
X84457782Y-71897139D01*
X84597139Y-71757782D01*
X84706632Y-71593914D01*
X84782051Y-71411835D01*
X84820500Y-71218541D01*
X84820500Y-71021459D01*
X84782051Y-70828165D01*
X84749033Y-70748453D01*
X84706632Y-70646086D01*
X84597139Y-70482218D01*
X84457781Y-70342860D01*
X84293913Y-70233367D01*
X84111839Y-70157950D01*
X84111829Y-70157947D01*
X83982388Y-70132200D01*
X83918541Y-70119500D01*
X83721459Y-70119500D01*
X83666662Y-70130399D01*
X83528170Y-70157947D01*
X83528160Y-70157950D01*
X83346086Y-70233367D01*
X83182218Y-70342860D01*
X83182217Y-70342862D01*
X83042862Y-70482217D01*
X83042860Y-70482218D01*
X82933367Y-70646086D01*
X82857950Y-70828160D01*
X82857947Y-70828170D01*
X82819500Y-71021460D01*
X82091500Y-71021460D01*
X82091500Y-68481509D01*
X82820000Y-68481509D01*
X82820000Y-68678490D01*
X82858427Y-68871682D01*
X82858430Y-68871693D01*
X82933809Y-69053675D01*
X82957426Y-69089019D01*
X83337037Y-68709408D01*
X83354075Y-68772993D01*
X83419901Y-68887007D01*
X83512993Y-68980099D01*
X83627007Y-69045925D01*
X83690590Y-69062962D01*
X83310979Y-69442572D01*
X83310979Y-69442573D01*
X83346323Y-69466189D01*
X83528306Y-69541569D01*
X83528317Y-69541572D01*
X83721510Y-69580000D01*
X83918490Y-69580000D01*
X84111682Y-69541572D01*
X84111693Y-69541569D01*
X84293675Y-69466190D01*
X84329020Y-69442573D01*
X83949409Y-69062962D01*
X84012993Y-69045925D01*
X84127007Y-68980099D01*
X84220099Y-68887007D01*
X84285925Y-68772993D01*
X84302962Y-68709409D01*
X84682573Y-69089020D01*
X84706190Y-69053675D01*
X84781569Y-68871693D01*
X84781572Y-68871682D01*
X84820000Y-68678490D01*
X84820000Y-68481509D01*
X84781572Y-68288317D01*
X84781569Y-68288306D01*
X84706189Y-68106323D01*
X84682572Y-68070979D01*
X84302962Y-68450589D01*
X84285925Y-68387007D01*
X84220099Y-68272993D01*
X84127007Y-68179901D01*
X84012993Y-68114075D01*
X83949408Y-68097037D01*
X84132593Y-67913853D01*
X85849500Y-67913853D01*
X85849500Y-68006146D01*
X85873384Y-68095284D01*
X85873386Y-68095289D01*
X85919528Y-68175208D01*
X85919529Y-68175209D01*
X85919531Y-68175212D01*
X85977826Y-68233507D01*
X85999500Y-68285832D01*
X85999500Y-69341870D01*
X85999499Y-69341870D01*
X86031546Y-69419238D01*
X86031547Y-69419239D01*
X86421547Y-69809239D01*
X86480761Y-69868453D01*
X86558129Y-69900500D01*
X86685779Y-69900500D01*
X86738103Y-69922173D01*
X86786399Y-69970469D01*
X86786401Y-69970470D01*
X86786402Y-69970471D01*
X86861960Y-70014095D01*
X86866323Y-70016614D01*
X86866324Y-70016614D01*
X86866326Y-70016615D01*
X86884983Y-70021614D01*
X86955464Y-70040499D01*
X86955465Y-70040500D01*
X86955467Y-70040500D01*
X87047757Y-70040500D01*
X87047757Y-70040499D01*
X87136899Y-70016614D01*
X87216823Y-69970469D01*
X87223175Y-69964116D01*
X87275500Y-69942443D01*
X87327826Y-69964117D01*
X87349500Y-70016443D01*
X87349500Y-70494165D01*
X87327826Y-70546491D01*
X86139530Y-71734787D01*
X86126254Y-71757783D01*
X86110492Y-71785084D01*
X86100615Y-71802191D01*
X86093385Y-71814713D01*
X86093384Y-71814715D01*
X86069500Y-71903853D01*
X86069500Y-74196146D01*
X86093384Y-74285284D01*
X86093386Y-74285289D01*
X86139528Y-74365208D01*
X86139529Y-74365209D01*
X86139531Y-74365212D01*
X86204788Y-74430469D01*
X86204790Y-74430470D01*
X86204791Y-74430471D01*
X86258113Y-74461257D01*
X86284712Y-74476614D01*
X86284713Y-74476614D01*
X86284715Y-74476615D01*
X86316543Y-74485143D01*
X86373853Y-74500499D01*
X86373854Y-74500500D01*
X86373856Y-74500500D01*
X86466146Y-74500500D01*
X86466146Y-74500499D01*
X86555288Y-74476614D01*
X86635212Y-74430469D01*
X86700469Y-74365212D01*
X86746614Y-74285288D01*
X86770499Y-74196146D01*
X86770500Y-74196146D01*
X86770500Y-72125834D01*
X86792174Y-72073508D01*
X87378501Y-71487181D01*
X88000470Y-70865212D01*
X88046614Y-70785288D01*
X88051780Y-70766007D01*
X88056485Y-70748452D01*
X88070500Y-70696143D01*
X88070500Y-70443857D01*
X88068048Y-70434707D01*
X88053021Y-70378622D01*
X88050500Y-70359470D01*
X88050500Y-66173854D01*
X88050499Y-66173853D01*
X88026998Y-66086146D01*
X88026614Y-66084712D01*
X88023641Y-66079562D01*
X88022017Y-66076750D01*
X87980471Y-66004790D01*
X87980470Y-66004789D01*
X87980469Y-66004787D01*
X87735212Y-65759530D01*
X87715519Y-65748160D01*
X87655289Y-65713386D01*
X87655284Y-65713384D01*
X87566146Y-65689500D01*
X87566144Y-65689500D01*
X87473856Y-65689500D01*
X87473854Y-65689500D01*
X87384715Y-65713384D01*
X87384710Y-65713386D01*
X87304787Y-65759530D01*
X87239530Y-65824787D01*
X87199925Y-65893386D01*
X87193387Y-65904709D01*
X87193384Y-65904716D01*
X87169500Y-65993853D01*
X87169500Y-66086146D01*
X87180410Y-66126861D01*
X87180410Y-66126862D01*
X87193384Y-66175283D01*
X87193386Y-66175288D01*
X87239530Y-66255212D01*
X87327826Y-66343508D01*
X87349500Y-66395834D01*
X87349500Y-67405500D01*
X87327826Y-67457826D01*
X87275500Y-67479500D01*
X87099796Y-67479500D01*
X87010657Y-67503384D01*
X87010652Y-67503386D01*
X86930733Y-67549528D01*
X86865470Y-67614791D01*
X86819328Y-67694710D01*
X86819326Y-67694715D01*
X86795442Y-67783853D01*
X86795442Y-67876146D01*
X86819326Y-67965284D01*
X86819328Y-67965289D01*
X86865470Y-68045208D01*
X86865471Y-68045209D01*
X86865473Y-68045212D01*
X86930730Y-68110469D01*
X86930732Y-68110470D01*
X86930733Y-68110471D01*
X87010652Y-68156613D01*
X87010654Y-68156614D01*
X87010655Y-68156614D01*
X87010657Y-68156615D01*
X87055226Y-68168557D01*
X87099795Y-68180499D01*
X87099796Y-68180500D01*
X87099798Y-68180500D01*
X87275500Y-68180500D01*
X87327826Y-68202174D01*
X87349500Y-68254500D01*
X87349500Y-69363557D01*
X87327826Y-69415883D01*
X87275500Y-69437557D01*
X87223175Y-69415883D01*
X87216823Y-69409531D01*
X87216820Y-69409529D01*
X87216819Y-69409528D01*
X87136900Y-69363386D01*
X87136895Y-69363384D01*
X87047757Y-69339500D01*
X87047755Y-69339500D01*
X86955467Y-69339500D01*
X86955465Y-69339500D01*
X86866326Y-69363384D01*
X86866321Y-69363386D01*
X86786402Y-69409528D01*
X86754136Y-69441794D01*
X86701810Y-69463467D01*
X86649485Y-69441793D01*
X86442174Y-69234482D01*
X86420500Y-69182156D01*
X86420500Y-68265832D01*
X86442173Y-68213507D01*
X86480469Y-68175212D01*
X86526614Y-68095288D01*
X86550499Y-68006146D01*
X86550500Y-68006146D01*
X86550500Y-67913854D01*
X86550499Y-67913853D01*
X86526615Y-67824715D01*
X86526613Y-67824710D01*
X86480471Y-67744791D01*
X86480470Y-67744790D01*
X86480469Y-67744788D01*
X86415212Y-67679531D01*
X86415209Y-67679529D01*
X86415208Y-67679528D01*
X86335289Y-67633386D01*
X86335284Y-67633384D01*
X86246146Y-67609500D01*
X86246144Y-67609500D01*
X86153856Y-67609500D01*
X86153854Y-67609500D01*
X86064715Y-67633384D01*
X86064710Y-67633386D01*
X85984791Y-67679528D01*
X85919528Y-67744791D01*
X85873386Y-67824710D01*
X85873384Y-67824715D01*
X85849500Y-67913853D01*
X84132593Y-67913853D01*
X84189766Y-67856680D01*
X84329019Y-67717426D01*
X84329019Y-67717425D01*
X84293675Y-67693809D01*
X84111693Y-67618430D01*
X84111682Y-67618427D01*
X83918490Y-67580000D01*
X83721510Y-67580000D01*
X83528317Y-67618427D01*
X83528306Y-67618430D01*
X83346322Y-67693810D01*
X83310979Y-67717425D01*
X83310979Y-67717426D01*
X83690590Y-68097037D01*
X83627007Y-68114075D01*
X83512993Y-68179901D01*
X83419901Y-68272993D01*
X83354075Y-68387007D01*
X83337037Y-68450590D01*
X82957426Y-68070979D01*
X82957425Y-68070979D01*
X82933810Y-68106322D01*
X82858430Y-68288306D01*
X82858427Y-68288317D01*
X82820000Y-68481509D01*
X82091500Y-68481509D01*
X82091500Y-65941460D01*
X82819500Y-65941460D01*
X82819500Y-66138539D01*
X82857947Y-66331829D01*
X82857950Y-66331839D01*
X82933367Y-66513913D01*
X83042860Y-66677781D01*
X83182218Y-66817139D01*
X83346086Y-66926632D01*
X83418469Y-66956614D01*
X83528165Y-67002051D01*
X83721459Y-67040500D01*
X83721461Y-67040500D01*
X83918539Y-67040500D01*
X83918541Y-67040500D01*
X84111835Y-67002051D01*
X84293914Y-66926632D01*
X84457782Y-66817139D01*
X84597139Y-66677782D01*
X84706632Y-66513914D01*
X84782051Y-66331835D01*
X84782051Y-66331834D01*
X84783192Y-66329080D01*
X84823240Y-66289031D01*
X84828680Y-66287024D01*
X84867144Y-66274527D01*
X84993437Y-66210177D01*
X85108109Y-66126863D01*
X85158222Y-66076749D01*
X85191877Y-66043095D01*
X85191878Y-66043092D01*
X85417002Y-65817968D01*
X85417007Y-65817964D01*
X85423093Y-65811877D01*
X85423095Y-65811877D01*
X85456749Y-65778222D01*
X85506863Y-65728109D01*
X85590177Y-65613437D01*
X85654527Y-65487144D01*
X85696918Y-65356676D01*
X85698324Y-65352350D01*
X85698324Y-65352348D01*
X85698327Y-65352340D01*
X85720501Y-65212342D01*
X85720500Y-65141471D01*
X85720500Y-65093877D01*
X85720500Y-64753377D01*
X85721133Y-64743719D01*
X85729433Y-64680670D01*
X85734431Y-64662014D01*
X85756900Y-64607770D01*
X85766549Y-64591056D01*
X85805279Y-64540583D01*
X85811649Y-64533322D01*
X85847960Y-64497012D01*
X85847967Y-64497002D01*
X86153093Y-64191877D01*
X86153096Y-64191876D01*
X86183334Y-64161636D01*
X86190583Y-64155279D01*
X86241056Y-64116549D01*
X86257770Y-64106900D01*
X86312014Y-64084431D01*
X86330667Y-64079433D01*
X86375610Y-64073517D01*
X86393720Y-64071133D01*
X86403378Y-64070500D01*
X86446122Y-64070500D01*
X89163878Y-64070500D01*
X89206622Y-64070500D01*
X89216280Y-64071133D01*
X89240121Y-64074271D01*
X89279330Y-64079433D01*
X89297987Y-64084432D01*
X89352225Y-64106898D01*
X89368946Y-64116552D01*
X89419407Y-64155272D01*
X89426675Y-64161646D01*
X89456904Y-64191876D01*
X89456906Y-64191877D01*
X89728122Y-64463093D01*
X89728124Y-64463096D01*
X89756795Y-64491766D01*
X89758351Y-64493322D01*
X89764727Y-64500592D01*
X89803446Y-64551051D01*
X89813103Y-64567778D01*
X89826812Y-64600876D01*
X89826811Y-64657513D01*
X89824042Y-64663129D01*
X89823384Y-64664716D01*
X89799500Y-64753853D01*
X89799500Y-64846146D01*
X89823384Y-64935284D01*
X89823386Y-64935289D01*
X89869528Y-65015208D01*
X89869529Y-65015209D01*
X89869531Y-65015212D01*
X89934788Y-65080469D01*
X89934790Y-65080470D01*
X89934791Y-65080471D01*
X90014710Y-65126613D01*
X90014712Y-65126614D01*
X90014713Y-65126614D01*
X90014715Y-65126615D01*
X90052062Y-65136622D01*
X90103853Y-65150499D01*
X90103854Y-65150500D01*
X90103856Y-65150500D01*
X90196146Y-65150500D01*
X90196146Y-65150499D01*
X90285288Y-65126614D01*
X90365212Y-65080469D01*
X90430469Y-65015212D01*
X90476614Y-64935288D01*
X90500499Y-64846146D01*
X90500500Y-64846146D01*
X90500500Y-64753854D01*
X90500499Y-64753853D01*
X90500371Y-64753377D01*
X90476614Y-64664712D01*
X90475700Y-64663129D01*
X90453391Y-64624488D01*
X90444388Y-64599064D01*
X90438007Y-64558778D01*
X90428327Y-64497660D01*
X90428325Y-64497655D01*
X90428324Y-64497649D01*
X90384528Y-64362859D01*
X90384527Y-64362858D01*
X90384527Y-64362856D01*
X90320177Y-64236563D01*
X90236863Y-64121891D01*
X90186749Y-64071778D01*
X90153095Y-64038123D01*
X90153092Y-64038121D01*
X89881878Y-63766907D01*
X89881877Y-63766905D01*
X89848222Y-63733251D01*
X89798109Y-63683137D01*
X89749925Y-63648129D01*
X89683439Y-63599824D01*
X89557140Y-63535471D01*
X89557141Y-63535471D01*
X89422350Y-63491675D01*
X89422341Y-63491673D01*
X89422340Y-63491673D01*
X89282342Y-63469499D01*
X89282341Y-63469499D01*
X89211471Y-63469500D01*
X86398529Y-63469500D01*
X86327658Y-63469499D01*
X86187660Y-63491673D01*
X86187649Y-63491675D01*
X86052859Y-63535471D01*
X85926561Y-63599824D01*
X85926560Y-63599824D01*
X85811894Y-63683134D01*
X85761779Y-63733250D01*
X85761778Y-63733251D01*
X85728122Y-63766906D01*
X85416905Y-64078123D01*
X85383251Y-64111778D01*
X85383250Y-64111779D01*
X85333134Y-64161894D01*
X85249824Y-64276560D01*
X85249824Y-64276561D01*
X85185471Y-64402859D01*
X85141675Y-64537649D01*
X85141673Y-64537660D01*
X85119499Y-64677658D01*
X85119500Y-64748527D01*
X85119500Y-65136622D01*
X85118867Y-65146281D01*
X85110566Y-65209330D01*
X85105566Y-65227990D01*
X85083102Y-65282223D01*
X85073443Y-65298953D01*
X85034734Y-65349399D01*
X85028352Y-65356676D01*
X84998122Y-65386906D01*
X84815376Y-65569651D01*
X84763050Y-65591325D01*
X84710724Y-65569651D01*
X84701521Y-65558437D01*
X84631408Y-65453506D01*
X84597139Y-65402218D01*
X84457782Y-65262861D01*
X84417801Y-65236146D01*
X84293913Y-65153367D01*
X84111839Y-65077950D01*
X84111829Y-65077947D01*
X83982388Y-65052200D01*
X83918541Y-65039500D01*
X83721459Y-65039500D01*
X83666662Y-65050399D01*
X83528170Y-65077947D01*
X83528160Y-65077950D01*
X83346086Y-65153367D01*
X83182218Y-65262860D01*
X83182217Y-65262862D01*
X83042862Y-65402217D01*
X83042860Y-65402218D01*
X82933367Y-65566086D01*
X82857950Y-65748160D01*
X82857947Y-65748170D01*
X82819500Y-65941460D01*
X82091500Y-65941460D01*
X82091500Y-62635180D01*
X82819500Y-62635180D01*
X82819500Y-64364820D01*
X82828233Y-64408722D01*
X82861496Y-64458504D01*
X82911278Y-64491767D01*
X82955180Y-64500500D01*
X82955181Y-64500500D01*
X84684819Y-64500500D01*
X84684820Y-64500500D01*
X84728722Y-64491767D01*
X84778504Y-64458504D01*
X84811767Y-64408722D01*
X84820500Y-64364820D01*
X84820500Y-62854500D01*
X84842174Y-62802174D01*
X84894500Y-62780500D01*
X90442156Y-62780500D01*
X90494482Y-62802174D01*
X91447826Y-63755518D01*
X91469500Y-63807844D01*
X91469500Y-64874168D01*
X91447826Y-64926492D01*
X91399531Y-64974788D01*
X91399528Y-64974791D01*
X91353386Y-65054710D01*
X91353384Y-65054715D01*
X91329500Y-65143853D01*
X91329500Y-65236146D01*
X91353384Y-65325284D01*
X91353386Y-65325289D01*
X91399528Y-65405208D01*
X91399529Y-65405209D01*
X91399531Y-65405212D01*
X91447826Y-65453507D01*
X91469500Y-65505832D01*
X91469500Y-69359168D01*
X91447826Y-69411494D01*
X91444790Y-69414529D01*
X91444788Y-69414531D01*
X91395852Y-69463467D01*
X91379528Y-69479791D01*
X91333386Y-69559710D01*
X91333384Y-69559715D01*
X91309500Y-69648853D01*
X91309500Y-69741146D01*
X91333384Y-69830284D01*
X91333386Y-69830289D01*
X91379528Y-69910208D01*
X91379529Y-69910209D01*
X91379531Y-69910212D01*
X91444788Y-69975469D01*
X91444790Y-69975470D01*
X91444791Y-69975471D01*
X91524710Y-70021613D01*
X91524712Y-70021614D01*
X91524713Y-70021614D01*
X91524715Y-70021615D01*
X91553941Y-70029446D01*
X91613853Y-70045499D01*
X91613854Y-70045500D01*
X91693145Y-70045500D01*
X91745471Y-70067174D01*
X91762767Y-70102242D01*
X91764801Y-70101698D01*
X91789941Y-70195523D01*
X91789943Y-70195528D01*
X91836085Y-70275447D01*
X91836086Y-70275448D01*
X91836088Y-70275451D01*
X91901345Y-70340708D01*
X91901347Y-70340709D01*
X91901348Y-70340710D01*
X91981267Y-70386852D01*
X91981269Y-70386853D01*
X91981270Y-70386853D01*
X91981272Y-70386854D01*
X92025841Y-70398796D01*
X92070410Y-70410738D01*
X92070411Y-70410739D01*
X92070413Y-70410739D01*
X92162703Y-70410739D01*
X92162703Y-70410738D01*
X92251845Y-70386853D01*
X92331769Y-70340708D01*
X92397026Y-70275451D01*
X92443171Y-70195527D01*
X92467056Y-70106385D01*
X92467057Y-70106385D01*
X92467057Y-70014093D01*
X92467056Y-70014092D01*
X92443172Y-69924954D01*
X92443170Y-69924949D01*
X92397028Y-69845030D01*
X92397027Y-69845029D01*
X92397026Y-69845027D01*
X92331769Y-69779770D01*
X92331768Y-69779769D01*
X92331765Y-69779766D01*
X92329448Y-69777988D01*
X92328711Y-69776712D01*
X92328340Y-69776341D01*
X92328439Y-69776241D01*
X92301132Y-69728937D01*
X92300500Y-69719283D01*
X92300500Y-67054500D01*
X92322174Y-67002174D01*
X92374500Y-66980500D01*
X92446146Y-66980500D01*
X92446146Y-66980499D01*
X92535288Y-66956614D01*
X92615212Y-66910469D01*
X92680469Y-66845212D01*
X92726614Y-66765288D01*
X92750499Y-66676146D01*
X92750500Y-66676146D01*
X92750500Y-66583854D01*
X92750499Y-66583853D01*
X92747720Y-66573483D01*
X92726614Y-66494712D01*
X92680469Y-66414788D01*
X92615212Y-66349531D01*
X92615209Y-66349529D01*
X92615208Y-66349528D01*
X92535289Y-66303386D01*
X92535284Y-66303384D01*
X92446146Y-66279500D01*
X92446144Y-66279500D01*
X92374500Y-66279500D01*
X92322174Y-66257826D01*
X92300500Y-66205500D01*
X92300500Y-64257844D01*
X92322174Y-64205518D01*
X92805518Y-63722174D01*
X92857844Y-63700500D01*
X92905500Y-63700500D01*
X92957826Y-63722174D01*
X92979500Y-63774500D01*
X92979500Y-64364820D01*
X92988233Y-64408722D01*
X93021496Y-64458504D01*
X93071278Y-64491767D01*
X93115180Y-64500500D01*
X93115181Y-64500500D01*
X94844819Y-64500500D01*
X94844820Y-64500500D01*
X94888722Y-64491767D01*
X94938504Y-64458504D01*
X94971767Y-64408722D01*
X94980500Y-64364820D01*
X94980500Y-62635180D01*
X94971767Y-62591278D01*
X94938504Y-62541496D01*
X94888722Y-62508233D01*
X94844820Y-62499500D01*
X93115180Y-62499500D01*
X93093229Y-62503866D01*
X93071277Y-62508233D01*
X93021496Y-62541495D01*
X93021495Y-62541496D01*
X92988233Y-62591277D01*
X92979500Y-62635180D01*
X92979500Y-63205500D01*
X92957826Y-63257826D01*
X92905500Y-63279500D01*
X92698129Y-63279500D01*
X92675469Y-63288886D01*
X92620761Y-63311546D01*
X92620760Y-63311548D01*
X92016826Y-63915482D01*
X91964500Y-63937156D01*
X91912174Y-63915482D01*
X91890500Y-63863156D01*
X91890500Y-63648129D01*
X91858453Y-63570761D01*
X90679238Y-62391546D01*
X90633917Y-62372773D01*
X90601871Y-62359500D01*
X84708129Y-62359500D01*
X84708125Y-62359500D01*
X84676083Y-62372773D01*
X84630766Y-62391543D01*
X84630763Y-62391545D01*
X84544482Y-62477826D01*
X84492156Y-62499500D01*
X82955180Y-62499500D01*
X82933229Y-62503866D01*
X82911277Y-62508233D01*
X82861496Y-62541495D01*
X82861495Y-62541496D01*
X82828233Y-62591277D01*
X82828233Y-62591278D01*
X82819500Y-62635180D01*
X82091500Y-62635180D01*
X82091500Y-61915500D01*
X82113174Y-61863174D01*
X82165500Y-61841500D01*
X95570700Y-61841500D01*
X95623026Y-61863174D01*
G37*
G04 #@! TD.AperFunction*
G04 #@! TD*
M02*
