G04 #@! TF.GenerationSoftware,KiCad,Pcbnew,9.0.8*
G04 #@! TF.CreationDate,2026-04-10T17:10:50+03:00*
G04 #@! TF.ProjectId,T41-RF-board-Dual-Attenuator-daughterboard,5434312d-5246-42d6-926f-6172642d4475,rev?*
G04 #@! TF.SameCoordinates,Original*
G04 #@! TF.FileFunction,Legend,Bot*
G04 #@! TF.FilePolarity,Positive*
%FSLAX46Y46*%
G04 Gerber Fmt 4.6, Leading zero omitted, Abs format (unit mm)*
G04 Created by KiCad (PCBNEW 9.0.8) date 2026-04-10 17:10:50*
%MOMM*%
%LPD*%
G01*
G04 APERTURE LIST*
%ADD10C,0.100000*%
%ADD11R,1.700000X1.700000*%
%ADD12C,1.700000*%
G04 APERTURE END LIST*
D10*
X85864077Y-66401371D02*
X86064077Y-66115657D01*
X86206934Y-66401371D02*
X86206934Y-65801371D01*
X86206934Y-65801371D02*
X85978363Y-65801371D01*
X85978363Y-65801371D02*
X85921220Y-65829942D01*
X85921220Y-65829942D02*
X85892649Y-65858514D01*
X85892649Y-65858514D02*
X85864077Y-65915657D01*
X85864077Y-65915657D02*
X85864077Y-66001371D01*
X85864077Y-66001371D02*
X85892649Y-66058514D01*
X85892649Y-66058514D02*
X85921220Y-66087085D01*
X85921220Y-66087085D02*
X85978363Y-66115657D01*
X85978363Y-66115657D02*
X86206934Y-66115657D01*
X85406934Y-66087085D02*
X85606934Y-66087085D01*
X85606934Y-66401371D02*
X85606934Y-65801371D01*
X85606934Y-65801371D02*
X85321220Y-65801371D01*
X86146649Y-76561371D02*
X86489506Y-76561371D01*
X86318077Y-76561371D02*
X86318077Y-75961371D01*
X86318077Y-75961371D02*
X86375220Y-76047085D01*
X86375220Y-76047085D02*
X86432363Y-76104228D01*
X86432363Y-76104228D02*
X86489506Y-76132800D01*
X85632363Y-75961371D02*
X85746648Y-75961371D01*
X85746648Y-75961371D02*
X85803791Y-75989942D01*
X85803791Y-75989942D02*
X85832363Y-76018514D01*
X85832363Y-76018514D02*
X85889505Y-76104228D01*
X85889505Y-76104228D02*
X85918077Y-76218514D01*
X85918077Y-76218514D02*
X85918077Y-76447085D01*
X85918077Y-76447085D02*
X85889505Y-76504228D01*
X85889505Y-76504228D02*
X85860934Y-76532800D01*
X85860934Y-76532800D02*
X85803791Y-76561371D01*
X85803791Y-76561371D02*
X85689505Y-76561371D01*
X85689505Y-76561371D02*
X85632363Y-76532800D01*
X85632363Y-76532800D02*
X85603791Y-76504228D01*
X85603791Y-76504228D02*
X85575220Y-76447085D01*
X85575220Y-76447085D02*
X85575220Y-76304228D01*
X85575220Y-76304228D02*
X85603791Y-76247085D01*
X85603791Y-76247085D02*
X85632363Y-76218514D01*
X85632363Y-76218514D02*
X85689505Y-76189942D01*
X85689505Y-76189942D02*
X85803791Y-76189942D01*
X85803791Y-76189942D02*
X85860934Y-76218514D01*
X85860934Y-76218514D02*
X85889505Y-76247085D01*
X85889505Y-76247085D02*
X85918077Y-76304228D01*
X86600649Y-63261371D02*
X86543506Y-63261371D01*
X86543506Y-63261371D02*
X86486363Y-63289942D01*
X86486363Y-63289942D02*
X86457792Y-63318514D01*
X86457792Y-63318514D02*
X86429220Y-63375657D01*
X86429220Y-63375657D02*
X86400649Y-63489942D01*
X86400649Y-63489942D02*
X86400649Y-63632800D01*
X86400649Y-63632800D02*
X86429220Y-63747085D01*
X86429220Y-63747085D02*
X86457792Y-63804228D01*
X86457792Y-63804228D02*
X86486363Y-63832800D01*
X86486363Y-63832800D02*
X86543506Y-63861371D01*
X86543506Y-63861371D02*
X86600649Y-63861371D01*
X86600649Y-63861371D02*
X86657792Y-63832800D01*
X86657792Y-63832800D02*
X86686363Y-63804228D01*
X86686363Y-63804228D02*
X86714934Y-63747085D01*
X86714934Y-63747085D02*
X86743506Y-63632800D01*
X86743506Y-63632800D02*
X86743506Y-63489942D01*
X86743506Y-63489942D02*
X86714934Y-63375657D01*
X86714934Y-63375657D02*
X86686363Y-63318514D01*
X86686363Y-63318514D02*
X86657792Y-63289942D01*
X86657792Y-63289942D02*
X86600649Y-63261371D01*
X86143505Y-63804228D02*
X86114934Y-63832800D01*
X86114934Y-63832800D02*
X86143505Y-63861371D01*
X86143505Y-63861371D02*
X86172077Y-63832800D01*
X86172077Y-63832800D02*
X86143505Y-63804228D01*
X86143505Y-63804228D02*
X86143505Y-63861371D01*
X85572077Y-63261371D02*
X85857791Y-63261371D01*
X85857791Y-63261371D02*
X85886363Y-63547085D01*
X85886363Y-63547085D02*
X85857791Y-63518514D01*
X85857791Y-63518514D02*
X85800649Y-63489942D01*
X85800649Y-63489942D02*
X85657791Y-63489942D01*
X85657791Y-63489942D02*
X85600649Y-63518514D01*
X85600649Y-63518514D02*
X85572077Y-63547085D01*
X85572077Y-63547085D02*
X85543506Y-63604228D01*
X85543506Y-63604228D02*
X85543506Y-63747085D01*
X85543506Y-63747085D02*
X85572077Y-63804228D01*
X85572077Y-63804228D02*
X85600649Y-63832800D01*
X85600649Y-63832800D02*
X85657791Y-63861371D01*
X85657791Y-63861371D02*
X85800649Y-63861371D01*
X85800649Y-63861371D02*
X85857791Y-63832800D01*
X85857791Y-63832800D02*
X85886363Y-63804228D01*
X87280077Y-70881371D02*
X86908649Y-70881371D01*
X86908649Y-70881371D02*
X87108649Y-71109942D01*
X87108649Y-71109942D02*
X87022934Y-71109942D01*
X87022934Y-71109942D02*
X86965792Y-71138514D01*
X86965792Y-71138514D02*
X86937220Y-71167085D01*
X86937220Y-71167085D02*
X86908649Y-71224228D01*
X86908649Y-71224228D02*
X86908649Y-71367085D01*
X86908649Y-71367085D02*
X86937220Y-71424228D01*
X86937220Y-71424228D02*
X86965792Y-71452800D01*
X86965792Y-71452800D02*
X87022934Y-71481371D01*
X87022934Y-71481371D02*
X87194363Y-71481371D01*
X87194363Y-71481371D02*
X87251506Y-71452800D01*
X87251506Y-71452800D02*
X87280077Y-71424228D01*
X86737220Y-70881371D02*
X86537220Y-71481371D01*
X86537220Y-71481371D02*
X86337220Y-70881371D01*
X86194362Y-70881371D02*
X85822934Y-70881371D01*
X85822934Y-70881371D02*
X86022934Y-71109942D01*
X86022934Y-71109942D02*
X85937219Y-71109942D01*
X85937219Y-71109942D02*
X85880077Y-71138514D01*
X85880077Y-71138514D02*
X85851505Y-71167085D01*
X85851505Y-71167085D02*
X85822934Y-71224228D01*
X85822934Y-71224228D02*
X85822934Y-71367085D01*
X85822934Y-71367085D02*
X85851505Y-71424228D01*
X85851505Y-71424228D02*
X85880077Y-71452800D01*
X85880077Y-71452800D02*
X85937219Y-71481371D01*
X85937219Y-71481371D02*
X86108648Y-71481371D01*
X86108648Y-71481371D02*
X86165791Y-71452800D01*
X86165791Y-71452800D02*
X86194362Y-71424228D01*
X87162649Y-68369942D02*
X87219792Y-68341371D01*
X87219792Y-68341371D02*
X87305506Y-68341371D01*
X87305506Y-68341371D02*
X87391220Y-68369942D01*
X87391220Y-68369942D02*
X87448363Y-68427085D01*
X87448363Y-68427085D02*
X87476934Y-68484228D01*
X87476934Y-68484228D02*
X87505506Y-68598514D01*
X87505506Y-68598514D02*
X87505506Y-68684228D01*
X87505506Y-68684228D02*
X87476934Y-68798514D01*
X87476934Y-68798514D02*
X87448363Y-68855657D01*
X87448363Y-68855657D02*
X87391220Y-68912800D01*
X87391220Y-68912800D02*
X87305506Y-68941371D01*
X87305506Y-68941371D02*
X87248363Y-68941371D01*
X87248363Y-68941371D02*
X87162649Y-68912800D01*
X87162649Y-68912800D02*
X87134077Y-68884228D01*
X87134077Y-68884228D02*
X87134077Y-68684228D01*
X87134077Y-68684228D02*
X87248363Y-68684228D01*
X86876934Y-68941371D02*
X86876934Y-68341371D01*
X86876934Y-68341371D02*
X86534077Y-68941371D01*
X86534077Y-68941371D02*
X86534077Y-68341371D01*
X86248363Y-68941371D02*
X86248363Y-68341371D01*
X86248363Y-68341371D02*
X86105506Y-68341371D01*
X86105506Y-68341371D02*
X86019792Y-68369942D01*
X86019792Y-68369942D02*
X85962649Y-68427085D01*
X85962649Y-68427085D02*
X85934078Y-68484228D01*
X85934078Y-68484228D02*
X85905506Y-68598514D01*
X85905506Y-68598514D02*
X85905506Y-68684228D01*
X85905506Y-68684228D02*
X85934078Y-68798514D01*
X85934078Y-68798514D02*
X85962649Y-68855657D01*
X85962649Y-68855657D02*
X86019792Y-68912800D01*
X86019792Y-68912800D02*
X86105506Y-68941371D01*
X86105506Y-68941371D02*
X86248363Y-68941371D01*
X87162649Y-73195942D02*
X87219792Y-73167371D01*
X87219792Y-73167371D02*
X87305506Y-73167371D01*
X87305506Y-73167371D02*
X87391220Y-73195942D01*
X87391220Y-73195942D02*
X87448363Y-73253085D01*
X87448363Y-73253085D02*
X87476934Y-73310228D01*
X87476934Y-73310228D02*
X87505506Y-73424514D01*
X87505506Y-73424514D02*
X87505506Y-73510228D01*
X87505506Y-73510228D02*
X87476934Y-73624514D01*
X87476934Y-73624514D02*
X87448363Y-73681657D01*
X87448363Y-73681657D02*
X87391220Y-73738800D01*
X87391220Y-73738800D02*
X87305506Y-73767371D01*
X87305506Y-73767371D02*
X87248363Y-73767371D01*
X87248363Y-73767371D02*
X87162649Y-73738800D01*
X87162649Y-73738800D02*
X87134077Y-73710228D01*
X87134077Y-73710228D02*
X87134077Y-73510228D01*
X87134077Y-73510228D02*
X87248363Y-73510228D01*
X86876934Y-73767371D02*
X86876934Y-73167371D01*
X86876934Y-73167371D02*
X86534077Y-73767371D01*
X86534077Y-73767371D02*
X86534077Y-73167371D01*
X86248363Y-73767371D02*
X86248363Y-73167371D01*
X86248363Y-73167371D02*
X86105506Y-73167371D01*
X86105506Y-73167371D02*
X86019792Y-73195942D01*
X86019792Y-73195942D02*
X85962649Y-73253085D01*
X85962649Y-73253085D02*
X85934078Y-73310228D01*
X85934078Y-73310228D02*
X85905506Y-73424514D01*
X85905506Y-73424514D02*
X85905506Y-73510228D01*
X85905506Y-73510228D02*
X85934078Y-73624514D01*
X85934078Y-73624514D02*
X85962649Y-73681657D01*
X85962649Y-73681657D02*
X86019792Y-73738800D01*
X86019792Y-73738800D02*
X86105506Y-73767371D01*
X86105506Y-73767371D02*
X86248363Y-73767371D01*
X92140496Y-74089371D02*
X92340496Y-73803657D01*
X92483353Y-74089371D02*
X92483353Y-73489371D01*
X92483353Y-73489371D02*
X92254782Y-73489371D01*
X92254782Y-73489371D02*
X92197639Y-73517942D01*
X92197639Y-73517942D02*
X92169068Y-73546514D01*
X92169068Y-73546514D02*
X92140496Y-73603657D01*
X92140496Y-73603657D02*
X92140496Y-73689371D01*
X92140496Y-73689371D02*
X92169068Y-73746514D01*
X92169068Y-73746514D02*
X92197639Y-73775085D01*
X92197639Y-73775085D02*
X92254782Y-73803657D01*
X92254782Y-73803657D02*
X92483353Y-73803657D01*
X91683353Y-73775085D02*
X91883353Y-73775085D01*
X91883353Y-74089371D02*
X91883353Y-73489371D01*
X91883353Y-73489371D02*
X91597639Y-73489371D01*
X92423068Y-63929371D02*
X92765925Y-63929371D01*
X92594496Y-63929371D02*
X92594496Y-63329371D01*
X92594496Y-63329371D02*
X92651639Y-63415085D01*
X92651639Y-63415085D02*
X92708782Y-63472228D01*
X92708782Y-63472228D02*
X92765925Y-63500800D01*
X92765925Y-65926514D02*
X92737353Y-65897942D01*
X92737353Y-65897942D02*
X92680211Y-65869371D01*
X92680211Y-65869371D02*
X92537353Y-65869371D01*
X92537353Y-65869371D02*
X92480211Y-65897942D01*
X92480211Y-65897942D02*
X92451639Y-65926514D01*
X92451639Y-65926514D02*
X92423068Y-65983657D01*
X92423068Y-65983657D02*
X92423068Y-66040800D01*
X92423068Y-66040800D02*
X92451639Y-66126514D01*
X92451639Y-66126514D02*
X92794496Y-66469371D01*
X92794496Y-66469371D02*
X92423068Y-66469371D01*
X92480211Y-68609371D02*
X92480211Y-69009371D01*
X92623068Y-68380800D02*
X92765925Y-68809371D01*
X92765925Y-68809371D02*
X92394496Y-68809371D01*
X92651639Y-71206514D02*
X92708782Y-71177942D01*
X92708782Y-71177942D02*
X92737353Y-71149371D01*
X92737353Y-71149371D02*
X92765925Y-71092228D01*
X92765925Y-71092228D02*
X92765925Y-71063657D01*
X92765925Y-71063657D02*
X92737353Y-71006514D01*
X92737353Y-71006514D02*
X92708782Y-70977942D01*
X92708782Y-70977942D02*
X92651639Y-70949371D01*
X92651639Y-70949371D02*
X92537353Y-70949371D01*
X92537353Y-70949371D02*
X92480211Y-70977942D01*
X92480211Y-70977942D02*
X92451639Y-71006514D01*
X92451639Y-71006514D02*
X92423068Y-71063657D01*
X92423068Y-71063657D02*
X92423068Y-71092228D01*
X92423068Y-71092228D02*
X92451639Y-71149371D01*
X92451639Y-71149371D02*
X92480211Y-71177942D01*
X92480211Y-71177942D02*
X92537353Y-71206514D01*
X92537353Y-71206514D02*
X92651639Y-71206514D01*
X92651639Y-71206514D02*
X92708782Y-71235085D01*
X92708782Y-71235085D02*
X92737353Y-71263657D01*
X92737353Y-71263657D02*
X92765925Y-71320800D01*
X92765925Y-71320800D02*
X92765925Y-71435085D01*
X92765925Y-71435085D02*
X92737353Y-71492228D01*
X92737353Y-71492228D02*
X92708782Y-71520800D01*
X92708782Y-71520800D02*
X92651639Y-71549371D01*
X92651639Y-71549371D02*
X92537353Y-71549371D01*
X92537353Y-71549371D02*
X92480211Y-71520800D01*
X92480211Y-71520800D02*
X92451639Y-71492228D01*
X92451639Y-71492228D02*
X92423068Y-71435085D01*
X92423068Y-71435085D02*
X92423068Y-71320800D01*
X92423068Y-71320800D02*
X92451639Y-71263657D01*
X92451639Y-71263657D02*
X92480211Y-71235085D01*
X92480211Y-71235085D02*
X92537353Y-71206514D01*
X92423068Y-76057942D02*
X92480211Y-76029371D01*
X92480211Y-76029371D02*
X92565925Y-76029371D01*
X92565925Y-76029371D02*
X92651639Y-76057942D01*
X92651639Y-76057942D02*
X92708782Y-76115085D01*
X92708782Y-76115085D02*
X92737353Y-76172228D01*
X92737353Y-76172228D02*
X92765925Y-76286514D01*
X92765925Y-76286514D02*
X92765925Y-76372228D01*
X92765925Y-76372228D02*
X92737353Y-76486514D01*
X92737353Y-76486514D02*
X92708782Y-76543657D01*
X92708782Y-76543657D02*
X92651639Y-76600800D01*
X92651639Y-76600800D02*
X92565925Y-76629371D01*
X92565925Y-76629371D02*
X92508782Y-76629371D01*
X92508782Y-76629371D02*
X92423068Y-76600800D01*
X92423068Y-76600800D02*
X92394496Y-76572228D01*
X92394496Y-76572228D02*
X92394496Y-76372228D01*
X92394496Y-76372228D02*
X92508782Y-76372228D01*
X92137353Y-76629371D02*
X92137353Y-76029371D01*
X92137353Y-76029371D02*
X91794496Y-76629371D01*
X91794496Y-76629371D02*
X91794496Y-76029371D01*
X91508782Y-76629371D02*
X91508782Y-76029371D01*
X91508782Y-76029371D02*
X91365925Y-76029371D01*
X91365925Y-76029371D02*
X91280211Y-76057942D01*
X91280211Y-76057942D02*
X91223068Y-76115085D01*
X91223068Y-76115085D02*
X91194497Y-76172228D01*
X91194497Y-76172228D02*
X91165925Y-76286514D01*
X91165925Y-76286514D02*
X91165925Y-76372228D01*
X91165925Y-76372228D02*
X91194497Y-76486514D01*
X91194497Y-76486514D02*
X91223068Y-76543657D01*
X91223068Y-76543657D02*
X91280211Y-76600800D01*
X91280211Y-76600800D02*
X91365925Y-76629371D01*
X91365925Y-76629371D02*
X91508782Y-76629371D01*
X88245405Y-62152931D02*
X88245405Y-62495789D01*
X88845405Y-62324360D02*
X88245405Y-62324360D01*
X88445405Y-62952932D02*
X88845405Y-62952932D01*
X88216834Y-62810074D02*
X88645405Y-62667217D01*
X88645405Y-62667217D02*
X88645405Y-63038646D01*
X88845405Y-63581503D02*
X88845405Y-63238646D01*
X88845405Y-63410075D02*
X88245405Y-63410075D01*
X88245405Y-63410075D02*
X88331119Y-63352932D01*
X88331119Y-63352932D02*
X88388262Y-63295789D01*
X88388262Y-63295789D02*
X88416834Y-63238646D01*
X88845405Y-64295790D02*
X88245405Y-64295790D01*
X88245405Y-64295790D02*
X88245405Y-64438647D01*
X88245405Y-64438647D02*
X88273976Y-64524361D01*
X88273976Y-64524361D02*
X88331119Y-64581504D01*
X88331119Y-64581504D02*
X88388262Y-64610075D01*
X88388262Y-64610075D02*
X88502548Y-64638647D01*
X88502548Y-64638647D02*
X88588262Y-64638647D01*
X88588262Y-64638647D02*
X88702548Y-64610075D01*
X88702548Y-64610075D02*
X88759691Y-64581504D01*
X88759691Y-64581504D02*
X88816834Y-64524361D01*
X88816834Y-64524361D02*
X88845405Y-64438647D01*
X88845405Y-64438647D02*
X88845405Y-64295790D01*
X88445405Y-65152933D02*
X88845405Y-65152933D01*
X88445405Y-64895790D02*
X88759691Y-64895790D01*
X88759691Y-64895790D02*
X88816834Y-64924361D01*
X88816834Y-64924361D02*
X88845405Y-64981504D01*
X88845405Y-64981504D02*
X88845405Y-65067218D01*
X88845405Y-65067218D02*
X88816834Y-65124361D01*
X88816834Y-65124361D02*
X88788262Y-65152933D01*
X88845405Y-65695790D02*
X88531119Y-65695790D01*
X88531119Y-65695790D02*
X88473976Y-65667218D01*
X88473976Y-65667218D02*
X88445405Y-65610075D01*
X88445405Y-65610075D02*
X88445405Y-65495790D01*
X88445405Y-65495790D02*
X88473976Y-65438647D01*
X88816834Y-65695790D02*
X88845405Y-65638647D01*
X88845405Y-65638647D02*
X88845405Y-65495790D01*
X88845405Y-65495790D02*
X88816834Y-65438647D01*
X88816834Y-65438647D02*
X88759691Y-65410075D01*
X88759691Y-65410075D02*
X88702548Y-65410075D01*
X88702548Y-65410075D02*
X88645405Y-65438647D01*
X88645405Y-65438647D02*
X88616834Y-65495790D01*
X88616834Y-65495790D02*
X88616834Y-65638647D01*
X88616834Y-65638647D02*
X88588262Y-65695790D01*
X88845405Y-66067218D02*
X88816834Y-66010075D01*
X88816834Y-66010075D02*
X88759691Y-65981504D01*
X88759691Y-65981504D02*
X88245405Y-65981504D01*
X88673976Y-66724361D02*
X88673976Y-67010076D01*
X88845405Y-66667218D02*
X88245405Y-66867218D01*
X88245405Y-66867218D02*
X88845405Y-67067218D01*
X88445405Y-67181504D02*
X88445405Y-67410076D01*
X88245405Y-67267219D02*
X88759691Y-67267219D01*
X88759691Y-67267219D02*
X88816834Y-67295790D01*
X88816834Y-67295790D02*
X88845405Y-67352933D01*
X88845405Y-67352933D02*
X88845405Y-67410076D01*
X88445405Y-67524361D02*
X88445405Y-67752933D01*
X88245405Y-67610076D02*
X88759691Y-67610076D01*
X88759691Y-67610076D02*
X88816834Y-67638647D01*
X88816834Y-67638647D02*
X88845405Y-67695790D01*
X88845405Y-67695790D02*
X88845405Y-67752933D01*
X88788262Y-67952933D02*
X88816834Y-67981504D01*
X88816834Y-67981504D02*
X88845405Y-67952933D01*
X88845405Y-67952933D02*
X88816834Y-67924361D01*
X88816834Y-67924361D02*
X88788262Y-67952933D01*
X88788262Y-67952933D02*
X88845405Y-67952933D01*
X88531119Y-68895790D02*
X88559691Y-68981504D01*
X88559691Y-68981504D02*
X88588262Y-69010075D01*
X88588262Y-69010075D02*
X88645405Y-69038647D01*
X88645405Y-69038647D02*
X88731119Y-69038647D01*
X88731119Y-69038647D02*
X88788262Y-69010075D01*
X88788262Y-69010075D02*
X88816834Y-68981504D01*
X88816834Y-68981504D02*
X88845405Y-68924361D01*
X88845405Y-68924361D02*
X88845405Y-68695790D01*
X88845405Y-68695790D02*
X88245405Y-68695790D01*
X88245405Y-68695790D02*
X88245405Y-68895790D01*
X88245405Y-68895790D02*
X88273976Y-68952933D01*
X88273976Y-68952933D02*
X88302548Y-68981504D01*
X88302548Y-68981504D02*
X88359691Y-69010075D01*
X88359691Y-69010075D02*
X88416834Y-69010075D01*
X88416834Y-69010075D02*
X88473976Y-68981504D01*
X88473976Y-68981504D02*
X88502548Y-68952933D01*
X88502548Y-68952933D02*
X88531119Y-68895790D01*
X88531119Y-68895790D02*
X88531119Y-68695790D01*
X88845405Y-69295790D02*
X88445405Y-69295790D01*
X88559691Y-69295790D02*
X88502548Y-69324361D01*
X88502548Y-69324361D02*
X88473976Y-69352933D01*
X88473976Y-69352933D02*
X88445405Y-69410075D01*
X88445405Y-69410075D02*
X88445405Y-69467218D01*
X88845405Y-69924362D02*
X88245405Y-69924362D01*
X88816834Y-69924362D02*
X88845405Y-69867219D01*
X88845405Y-69867219D02*
X88845405Y-69752933D01*
X88845405Y-69752933D02*
X88816834Y-69695790D01*
X88816834Y-69695790D02*
X88788262Y-69667219D01*
X88788262Y-69667219D02*
X88731119Y-69638647D01*
X88731119Y-69638647D02*
X88559691Y-69638647D01*
X88559691Y-69638647D02*
X88502548Y-69667219D01*
X88502548Y-69667219D02*
X88473976Y-69695790D01*
X88473976Y-69695790D02*
X88445405Y-69752933D01*
X88445405Y-69752933D02*
X88445405Y-69867219D01*
X88445405Y-69867219D02*
X88473976Y-69924362D01*
X89211371Y-62152931D02*
X89811371Y-62352931D01*
X89811371Y-62352931D02*
X89211371Y-62552931D01*
X89811371Y-63067217D02*
X89811371Y-62724360D01*
X89811371Y-62895789D02*
X89211371Y-62895789D01*
X89211371Y-62895789D02*
X89297085Y-62838646D01*
X89297085Y-62838646D02*
X89354228Y-62781503D01*
X89354228Y-62781503D02*
X89382800Y-62724360D01*
X89754228Y-63324361D02*
X89782800Y-63352932D01*
X89782800Y-63352932D02*
X89811371Y-63324361D01*
X89811371Y-63324361D02*
X89782800Y-63295789D01*
X89782800Y-63295789D02*
X89754228Y-63324361D01*
X89754228Y-63324361D02*
X89811371Y-63324361D01*
X89811371Y-63924360D02*
X89811371Y-63581503D01*
X89811371Y-63752932D02*
X89211371Y-63752932D01*
X89211371Y-63752932D02*
X89297085Y-63695789D01*
X89297085Y-63695789D02*
X89354228Y-63638646D01*
X89354228Y-63638646D02*
X89382800Y-63581503D01*
X90985405Y-62218646D02*
X90385405Y-62218646D01*
X90385405Y-62218646D02*
X90813976Y-62418646D01*
X90813976Y-62418646D02*
X90385405Y-62618646D01*
X90385405Y-62618646D02*
X90985405Y-62618646D01*
X90985405Y-62990074D02*
X90956834Y-62932931D01*
X90956834Y-62932931D02*
X90928262Y-62904360D01*
X90928262Y-62904360D02*
X90871119Y-62875788D01*
X90871119Y-62875788D02*
X90699691Y-62875788D01*
X90699691Y-62875788D02*
X90642548Y-62904360D01*
X90642548Y-62904360D02*
X90613976Y-62932931D01*
X90613976Y-62932931D02*
X90585405Y-62990074D01*
X90585405Y-62990074D02*
X90585405Y-63075788D01*
X90585405Y-63075788D02*
X90613976Y-63132931D01*
X90613976Y-63132931D02*
X90642548Y-63161503D01*
X90642548Y-63161503D02*
X90699691Y-63190074D01*
X90699691Y-63190074D02*
X90871119Y-63190074D01*
X90871119Y-63190074D02*
X90928262Y-63161503D01*
X90928262Y-63161503D02*
X90956834Y-63132931D01*
X90956834Y-63132931D02*
X90985405Y-63075788D01*
X90985405Y-63075788D02*
X90985405Y-62990074D01*
X90985405Y-63704360D02*
X90385405Y-63704360D01*
X90956834Y-63704360D02*
X90985405Y-63647217D01*
X90985405Y-63647217D02*
X90985405Y-63532931D01*
X90985405Y-63532931D02*
X90956834Y-63475788D01*
X90956834Y-63475788D02*
X90928262Y-63447217D01*
X90928262Y-63447217D02*
X90871119Y-63418645D01*
X90871119Y-63418645D02*
X90699691Y-63418645D01*
X90699691Y-63418645D02*
X90642548Y-63447217D01*
X90642548Y-63447217D02*
X90613976Y-63475788D01*
X90613976Y-63475788D02*
X90585405Y-63532931D01*
X90585405Y-63532931D02*
X90585405Y-63647217D01*
X90585405Y-63647217D02*
X90613976Y-63704360D01*
X90985405Y-63990074D02*
X90585405Y-63990074D01*
X90385405Y-63990074D02*
X90413976Y-63961502D01*
X90413976Y-63961502D02*
X90442548Y-63990074D01*
X90442548Y-63990074D02*
X90413976Y-64018645D01*
X90413976Y-64018645D02*
X90385405Y-63990074D01*
X90385405Y-63990074D02*
X90442548Y-63990074D01*
X90585405Y-64190073D02*
X90585405Y-64418645D01*
X90985405Y-64275788D02*
X90471119Y-64275788D01*
X90471119Y-64275788D02*
X90413976Y-64304359D01*
X90413976Y-64304359D02*
X90385405Y-64361502D01*
X90385405Y-64361502D02*
X90385405Y-64418645D01*
X90985405Y-64618645D02*
X90585405Y-64618645D01*
X90385405Y-64618645D02*
X90413976Y-64590073D01*
X90413976Y-64590073D02*
X90442548Y-64618645D01*
X90442548Y-64618645D02*
X90413976Y-64647216D01*
X90413976Y-64647216D02*
X90385405Y-64618645D01*
X90385405Y-64618645D02*
X90442548Y-64618645D01*
X90956834Y-65132930D02*
X90985405Y-65075787D01*
X90985405Y-65075787D02*
X90985405Y-64961502D01*
X90985405Y-64961502D02*
X90956834Y-64904359D01*
X90956834Y-64904359D02*
X90899691Y-64875787D01*
X90899691Y-64875787D02*
X90671119Y-64875787D01*
X90671119Y-64875787D02*
X90613976Y-64904359D01*
X90613976Y-64904359D02*
X90585405Y-64961502D01*
X90585405Y-64961502D02*
X90585405Y-65075787D01*
X90585405Y-65075787D02*
X90613976Y-65132930D01*
X90613976Y-65132930D02*
X90671119Y-65161502D01*
X90671119Y-65161502D02*
X90728262Y-65161502D01*
X90728262Y-65161502D02*
X90785405Y-64875787D01*
X90985405Y-65675788D02*
X90385405Y-65675788D01*
X90956834Y-65675788D02*
X90985405Y-65618645D01*
X90985405Y-65618645D02*
X90985405Y-65504359D01*
X90985405Y-65504359D02*
X90956834Y-65447216D01*
X90956834Y-65447216D02*
X90928262Y-65418645D01*
X90928262Y-65418645D02*
X90871119Y-65390073D01*
X90871119Y-65390073D02*
X90699691Y-65390073D01*
X90699691Y-65390073D02*
X90642548Y-65418645D01*
X90642548Y-65418645D02*
X90613976Y-65447216D01*
X90613976Y-65447216D02*
X90585405Y-65504359D01*
X90585405Y-65504359D02*
X90585405Y-65618645D01*
X90585405Y-65618645D02*
X90613976Y-65675788D01*
X90985405Y-66418645D02*
X90385405Y-66418645D01*
X90613976Y-66418645D02*
X90585405Y-66475788D01*
X90585405Y-66475788D02*
X90585405Y-66590073D01*
X90585405Y-66590073D02*
X90613976Y-66647216D01*
X90613976Y-66647216D02*
X90642548Y-66675788D01*
X90642548Y-66675788D02*
X90699691Y-66704359D01*
X90699691Y-66704359D02*
X90871119Y-66704359D01*
X90871119Y-66704359D02*
X90928262Y-66675788D01*
X90928262Y-66675788D02*
X90956834Y-66647216D01*
X90956834Y-66647216D02*
X90985405Y-66590073D01*
X90985405Y-66590073D02*
X90985405Y-66475788D01*
X90985405Y-66475788D02*
X90956834Y-66418645D01*
X90585405Y-66904359D02*
X90985405Y-67047216D01*
X90585405Y-67190073D02*
X90985405Y-67047216D01*
X90985405Y-67047216D02*
X91128262Y-66990073D01*
X91128262Y-66990073D02*
X91156834Y-66961502D01*
X91156834Y-66961502D02*
X91185405Y-66904359D01*
X91351371Y-62332931D02*
X91351371Y-62447217D01*
X91351371Y-62447217D02*
X91379942Y-62504360D01*
X91379942Y-62504360D02*
X91437085Y-62561503D01*
X91437085Y-62561503D02*
X91551371Y-62590074D01*
X91551371Y-62590074D02*
X91751371Y-62590074D01*
X91751371Y-62590074D02*
X91865657Y-62561503D01*
X91865657Y-62561503D02*
X91922800Y-62504360D01*
X91922800Y-62504360D02*
X91951371Y-62447217D01*
X91951371Y-62447217D02*
X91951371Y-62332931D01*
X91951371Y-62332931D02*
X91922800Y-62275789D01*
X91922800Y-62275789D02*
X91865657Y-62218646D01*
X91865657Y-62218646D02*
X91751371Y-62190074D01*
X91751371Y-62190074D02*
X91551371Y-62190074D01*
X91551371Y-62190074D02*
X91437085Y-62218646D01*
X91437085Y-62218646D02*
X91379942Y-62275789D01*
X91379942Y-62275789D02*
X91351371Y-62332931D01*
X91951371Y-62847217D02*
X91351371Y-62847217D01*
X91637085Y-62847217D02*
X91637085Y-63190074D01*
X91951371Y-63190074D02*
X91351371Y-63190074D01*
X91351371Y-63761502D02*
X91351371Y-63475788D01*
X91351371Y-63475788D02*
X91637085Y-63447216D01*
X91637085Y-63447216D02*
X91608514Y-63475788D01*
X91608514Y-63475788D02*
X91579942Y-63532931D01*
X91579942Y-63532931D02*
X91579942Y-63675788D01*
X91579942Y-63675788D02*
X91608514Y-63732931D01*
X91608514Y-63732931D02*
X91637085Y-63761502D01*
X91637085Y-63761502D02*
X91694228Y-63790073D01*
X91694228Y-63790073D02*
X91837085Y-63790073D01*
X91837085Y-63790073D02*
X91894228Y-63761502D01*
X91894228Y-63761502D02*
X91922800Y-63732931D01*
X91922800Y-63732931D02*
X91951371Y-63675788D01*
X91951371Y-63675788D02*
X91951371Y-63532931D01*
X91951371Y-63532931D02*
X91922800Y-63475788D01*
X91922800Y-63475788D02*
X91894228Y-63447216D01*
X91951371Y-64047217D02*
X91351371Y-64047217D01*
X91951371Y-64390074D02*
X91608514Y-64132931D01*
X91351371Y-64390074D02*
X91694228Y-64047217D01*
X91637085Y-64847217D02*
X91665657Y-64932931D01*
X91665657Y-64932931D02*
X91694228Y-64961502D01*
X91694228Y-64961502D02*
X91751371Y-64990074D01*
X91751371Y-64990074D02*
X91837085Y-64990074D01*
X91837085Y-64990074D02*
X91894228Y-64961502D01*
X91894228Y-64961502D02*
X91922800Y-64932931D01*
X91922800Y-64932931D02*
X91951371Y-64875788D01*
X91951371Y-64875788D02*
X91951371Y-64647217D01*
X91951371Y-64647217D02*
X91351371Y-64647217D01*
X91351371Y-64647217D02*
X91351371Y-64847217D01*
X91351371Y-64847217D02*
X91379942Y-64904360D01*
X91379942Y-64904360D02*
X91408514Y-64932931D01*
X91408514Y-64932931D02*
X91465657Y-64961502D01*
X91465657Y-64961502D02*
X91522800Y-64961502D01*
X91522800Y-64961502D02*
X91579942Y-64932931D01*
X91579942Y-64932931D02*
X91608514Y-64904360D01*
X91608514Y-64904360D02*
X91637085Y-64847217D01*
X91637085Y-64847217D02*
X91637085Y-64647217D01*
X91408514Y-65675788D02*
X91379942Y-65704360D01*
X91379942Y-65704360D02*
X91351371Y-65761503D01*
X91351371Y-65761503D02*
X91351371Y-65904360D01*
X91351371Y-65904360D02*
X91379942Y-65961503D01*
X91379942Y-65961503D02*
X91408514Y-65990074D01*
X91408514Y-65990074D02*
X91465657Y-66018645D01*
X91465657Y-66018645D02*
X91522800Y-66018645D01*
X91522800Y-66018645D02*
X91608514Y-65990074D01*
X91608514Y-65990074D02*
X91951371Y-65647217D01*
X91951371Y-65647217D02*
X91951371Y-66018645D01*
X91351371Y-66532932D02*
X91351371Y-66418646D01*
X91351371Y-66418646D02*
X91379942Y-66361503D01*
X91379942Y-66361503D02*
X91408514Y-66332932D01*
X91408514Y-66332932D02*
X91494228Y-66275789D01*
X91494228Y-66275789D02*
X91608514Y-66247217D01*
X91608514Y-66247217D02*
X91837085Y-66247217D01*
X91837085Y-66247217D02*
X91894228Y-66275789D01*
X91894228Y-66275789D02*
X91922800Y-66304360D01*
X91922800Y-66304360D02*
X91951371Y-66361503D01*
X91951371Y-66361503D02*
X91951371Y-66475789D01*
X91951371Y-66475789D02*
X91922800Y-66532932D01*
X91922800Y-66532932D02*
X91894228Y-66561503D01*
X91894228Y-66561503D02*
X91837085Y-66590074D01*
X91837085Y-66590074D02*
X91694228Y-66590074D01*
X91694228Y-66590074D02*
X91637085Y-66561503D01*
X91637085Y-66561503D02*
X91608514Y-66532932D01*
X91608514Y-66532932D02*
X91579942Y-66475789D01*
X91579942Y-66475789D02*
X91579942Y-66361503D01*
X91579942Y-66361503D02*
X91608514Y-66304360D01*
X91608514Y-66304360D02*
X91637085Y-66275789D01*
X91637085Y-66275789D02*
X91694228Y-66247217D01*
X91351371Y-66961503D02*
X91351371Y-67018646D01*
X91351371Y-67018646D02*
X91379942Y-67075789D01*
X91379942Y-67075789D02*
X91408514Y-67104361D01*
X91408514Y-67104361D02*
X91465657Y-67132932D01*
X91465657Y-67132932D02*
X91579942Y-67161503D01*
X91579942Y-67161503D02*
X91722800Y-67161503D01*
X91722800Y-67161503D02*
X91837085Y-67132932D01*
X91837085Y-67132932D02*
X91894228Y-67104361D01*
X91894228Y-67104361D02*
X91922800Y-67075789D01*
X91922800Y-67075789D02*
X91951371Y-67018646D01*
X91951371Y-67018646D02*
X91951371Y-66961503D01*
X91951371Y-66961503D02*
X91922800Y-66904361D01*
X91922800Y-66904361D02*
X91894228Y-66875789D01*
X91894228Y-66875789D02*
X91837085Y-66847218D01*
X91837085Y-66847218D02*
X91722800Y-66818646D01*
X91722800Y-66818646D02*
X91579942Y-66818646D01*
X91579942Y-66818646D02*
X91465657Y-66847218D01*
X91465657Y-66847218D02*
X91408514Y-66875789D01*
X91408514Y-66875789D02*
X91379942Y-66904361D01*
X91379942Y-66904361D02*
X91351371Y-66961503D01*
X91551371Y-67675790D02*
X91951371Y-67675790D01*
X91322800Y-67532932D02*
X91751371Y-67390075D01*
X91751371Y-67390075D02*
X91751371Y-67761504D01*
X91351371Y-68104361D02*
X91351371Y-68161504D01*
X91351371Y-68161504D02*
X91379942Y-68218647D01*
X91379942Y-68218647D02*
X91408514Y-68247219D01*
X91408514Y-68247219D02*
X91465657Y-68275790D01*
X91465657Y-68275790D02*
X91579942Y-68304361D01*
X91579942Y-68304361D02*
X91722800Y-68304361D01*
X91722800Y-68304361D02*
X91837085Y-68275790D01*
X91837085Y-68275790D02*
X91894228Y-68247219D01*
X91894228Y-68247219D02*
X91922800Y-68218647D01*
X91922800Y-68218647D02*
X91951371Y-68161504D01*
X91951371Y-68161504D02*
X91951371Y-68104361D01*
X91951371Y-68104361D02*
X91922800Y-68047219D01*
X91922800Y-68047219D02*
X91894228Y-68018647D01*
X91894228Y-68018647D02*
X91837085Y-67990076D01*
X91837085Y-67990076D02*
X91722800Y-67961504D01*
X91722800Y-67961504D02*
X91579942Y-67961504D01*
X91579942Y-67961504D02*
X91465657Y-67990076D01*
X91465657Y-67990076D02*
X91408514Y-68018647D01*
X91408514Y-68018647D02*
X91379942Y-68047219D01*
X91379942Y-68047219D02*
X91351371Y-68104361D01*
X91351371Y-68818648D02*
X91351371Y-68704362D01*
X91351371Y-68704362D02*
X91379942Y-68647219D01*
X91379942Y-68647219D02*
X91408514Y-68618648D01*
X91408514Y-68618648D02*
X91494228Y-68561505D01*
X91494228Y-68561505D02*
X91608514Y-68532933D01*
X91608514Y-68532933D02*
X91837085Y-68532933D01*
X91837085Y-68532933D02*
X91894228Y-68561505D01*
X91894228Y-68561505D02*
X91922800Y-68590076D01*
X91922800Y-68590076D02*
X91951371Y-68647219D01*
X91951371Y-68647219D02*
X91951371Y-68761505D01*
X91951371Y-68761505D02*
X91922800Y-68818648D01*
X91922800Y-68818648D02*
X91894228Y-68847219D01*
X91894228Y-68847219D02*
X91837085Y-68875790D01*
X91837085Y-68875790D02*
X91694228Y-68875790D01*
X91694228Y-68875790D02*
X91637085Y-68847219D01*
X91637085Y-68847219D02*
X91608514Y-68818648D01*
X91608514Y-68818648D02*
X91579942Y-68761505D01*
X91579942Y-68761505D02*
X91579942Y-68647219D01*
X91579942Y-68647219D02*
X91608514Y-68590076D01*
X91608514Y-68590076D02*
X91637085Y-68561505D01*
X91637085Y-68561505D02*
X91694228Y-68532933D01*
%LPC*%
D11*
G04 #@! TO.C,J1*
X83820000Y-63500000D03*
D12*
X83820000Y-66040000D03*
X83820000Y-68580000D03*
X83820000Y-71120000D03*
X83820000Y-73660000D03*
X83820000Y-76200000D03*
G04 #@! TD*
D11*
G04 #@! TO.C,J2*
X93980000Y-63500000D03*
D12*
X93980000Y-66040000D03*
X93980000Y-68579999D03*
X93980000Y-71120000D03*
X93980000Y-73660000D03*
X93980000Y-76200000D03*
G04 #@! TD*
%LPD*%
M02*
