M48
; DRILL file {KiCad 9.0.8} date 2026-04-10T17:10:50+0300
; FORMAT={-:-/ absolute / metric / decimal}
; #@! TF.CreationDate,2026-04-10T17:10:50+03:00
; #@! TF.GenerationSoftware,Kicad,Pcbnew,9.0.8
; #@! TF.FileFunction,Plated,1,2,PTH
FMAT,2
METRIC
; #@! TA.AperFunction,Plated,PTH,ViaDrill
T1C0.200
; #@! TA.AperFunction,Plated,PTH,ComponentDrill
T2C1.000
%
G90
G05
T1
X82.42Y-77.51
X82.55Y-62.22
X82.56Y-69.84
X82.57Y-64.88
X82.59Y-67.19
X82.64Y-75.01
X84.72Y-65.08
X85.02Y-71.23
X85.02Y-72.82
X85.03Y-66.58
X85.03Y-68.14
X85.03Y-69.85
X85.09Y-63.1
X85.13Y-74.97
X85.15Y-76.64
X85.65Y-71.22
X85.65Y-72.81
X85.75Y-76.64
X85.79Y-65.85
X85.97Y-62.13
X86.2Y-67.96
X86.42Y-74.15
X86.665Y-63.08
X86.665Y-64.6
X87.002Y-69.69
X87.11Y-72.62
X87.12Y-69.0
X87.146Y-67.83
X87.16Y-65.41
X87.24Y-74.26
X87.4Y-64.38
X87.42Y-62.13
X87.52Y-66.04
X87.54Y-75.52
X87.72Y-70.65
X87.75Y-63.1
X88.1Y-77.55
X88.13Y-74.57
X88.14Y-71.11
X88.18Y-65.83
X88.31Y-67.32
X88.32Y-66.83
X88.33Y-75.44
X88.48Y-73.63
X88.49Y-72.12
X88.49Y-72.63
X88.65Y-68.52
X88.685Y-76.55
X88.8Y-63.11
X88.97Y-64.54
X89.04Y-75.86
X89.16Y-68.53
X89.16Y-73.96
X89.57Y-75.42
X89.66Y-68.52
X90.1Y-63.6
X90.15Y-64.8
X90.76Y-76.47
X90.81Y-73.77
X90.98Y-67.32
X90.98Y-75.26
X91.05Y-70.0
X91.09Y-70.57
X91.1Y-72.63
X91.125Y-64.79
X91.15Y-65.83
X91.16Y-68.83
X91.16Y-71.12
X91.66Y-69.695
X91.68Y-65.19
X91.82Y-76.46
X92.07Y-63.49
X92.095Y-74.135
X92.117Y-70.06
X92.4Y-66.63
X92.51Y-65.0
X92.71Y-69.1
X92.79Y-73.87
X92.869Y-72.34
X92.87Y-62.2
X93.11Y-75.3
X93.65Y-67.33
X94.41Y-69.86
X94.74Y-76.93
X94.79Y-72.74
X94.87Y-65.21
X94.92Y-75.28
X95.22Y-62.24
X95.34Y-64.29
X95.42Y-77.59
T2
X83.82Y-63.5
X83.82Y-66.04
X83.82Y-68.58
X83.82Y-71.12
X83.82Y-73.66
X83.82Y-76.2
X93.98Y-63.5
X93.98Y-66.04
X93.98Y-68.58
X93.98Y-71.12
X93.98Y-73.66
X93.98Y-76.2
M30
