G04 #@! TF.GenerationSoftware,KiCad,Pcbnew,9.0.8*
G04 #@! TF.CreationDate,2026-04-10T17:10:50+03:00*
G04 #@! TF.ProjectId,T41-RF-board-Dual-Attenuator-daughterboard,5434312d-5246-42d6-926f-6172642d4475,rev?*
G04 #@! TF.SameCoordinates,Original*
G04 #@! TF.FileFunction,Paste,Top*
G04 #@! TF.FilePolarity,Positive*
%FSLAX46Y46*%
G04 Gerber Fmt 4.6, Leading zero omitted, Abs format (unit mm)*
G04 Created by KiCad (PCBNEW 9.0.8) date 2026-04-10 17:10:50*
%MOMM*%
%LPD*%
G01*
G04 APERTURE LIST*
G04 Aperture macros list*
%AMRoundRect*
0 Rectangle with rounded corners*
0 $1 Rounding radius*
0 $2 $3 $4 $5 $6 $7 $8 $9 X,Y pos of 4 corners*
0 Add a 4 corners polygon primitive as box body*
4,1,4,$2,$3,$4,$5,$6,$7,$8,$9,$2,$3,0*
0 Add four circle primitives for the rounded corners*
1,1,$1+$1,$2,$3*
1,1,$1+$1,$4,$5*
1,1,$1+$1,$6,$7*
1,1,$1+$1,$8,$9*
0 Add four rect primitives between the rounded corners*
20,1,$1+$1,$2,$3,$4,$5,0*
20,1,$1+$1,$4,$5,$6,$7,0*
20,1,$1+$1,$6,$7,$8,$9,0*
20,1,$1+$1,$8,$9,$2,$3,0*%
G04 Aperture macros list end*
%ADD10RoundRect,0.200000X-0.275000X0.200000X-0.275000X-0.200000X0.275000X-0.200000X0.275000X0.200000X0*%
%ADD11RoundRect,0.225000X-0.225000X-0.250000X0.225000X-0.250000X0.225000X0.250000X-0.225000X0.250000X0*%
%ADD12RoundRect,0.200000X-0.200000X-0.275000X0.200000X-0.275000X0.200000X0.275000X-0.200000X0.275000X0*%
%ADD13RoundRect,0.200000X0.200000X0.275000X-0.200000X0.275000X-0.200000X-0.275000X0.200000X-0.275000X0*%
%ADD14RoundRect,0.062500X-0.062500X0.337500X-0.062500X-0.337500X0.062500X-0.337500X0.062500X0.337500X0*%
%ADD15RoundRect,0.062500X-0.337500X0.062500X-0.337500X-0.062500X0.337500X-0.062500X0.337500X0.062500X0*%
%ADD16RoundRect,0.200000X0.275000X-0.200000X0.275000X0.200000X-0.275000X0.200000X-0.275000X-0.200000X0*%
%ADD17RoundRect,0.225000X0.250000X-0.225000X0.250000X0.225000X-0.250000X0.225000X-0.250000X-0.225000X0*%
%ADD18RoundRect,0.225000X-0.250000X0.225000X-0.250000X-0.225000X0.250000X-0.225000X0.250000X0.225000X0*%
G04 APERTURE END LIST*
D10*
G04 #@! TO.C,L1*
X86420000Y-71945000D03*
X86420000Y-73595000D03*
G04 #@! TD*
D11*
G04 #@! TO.C,C3*
X86665000Y-63920000D03*
X88215000Y-63920000D03*
G04 #@! TD*
D12*
G04 #@! TO.C,R2*
X89895000Y-62320000D03*
X91545000Y-62320000D03*
G04 #@! TD*
D13*
G04 #@! TO.C,R3*
X89505000Y-76550000D03*
X87855000Y-76550000D03*
G04 #@! TD*
D14*
G04 #@! TO.C,U2*
X90660000Y-70680000D03*
X90160000Y-70680000D03*
X89660000Y-70680000D03*
X89160000Y-70680000D03*
X88660000Y-70680000D03*
D15*
X87710000Y-71630000D03*
X87710000Y-72130000D03*
X87710000Y-72630000D03*
X87710000Y-73130000D03*
X87710000Y-73630000D03*
D14*
X88660000Y-74580000D03*
X89160000Y-74580000D03*
X89660000Y-74580000D03*
X90160000Y-74580000D03*
X90660000Y-74580000D03*
D15*
X91610000Y-73630000D03*
X91610000Y-73130000D03*
X91610000Y-72630000D03*
X91610000Y-72130000D03*
X91610000Y-71630000D03*
G04 #@! TD*
D14*
G04 #@! TO.C,U1*
X90650000Y-65380000D03*
X90150000Y-65380000D03*
X89650000Y-65380000D03*
X89150000Y-65380000D03*
X88650000Y-65380000D03*
D15*
X87700000Y-66330000D03*
X87700000Y-66830000D03*
X87700000Y-67330000D03*
X87700000Y-67830000D03*
X87700000Y-68330000D03*
D14*
X88650000Y-69280000D03*
X89150000Y-69280000D03*
X89650000Y-69280000D03*
X90150000Y-69280000D03*
X90650000Y-69280000D03*
D15*
X91600000Y-68330000D03*
X91600000Y-67830000D03*
X91600000Y-67330000D03*
X91600000Y-66830000D03*
X91600000Y-66330000D03*
G04 #@! TD*
D16*
G04 #@! TO.C,R4*
X86400000Y-67065000D03*
X86400000Y-65415000D03*
G04 #@! TD*
D17*
G04 #@! TO.C,C2*
X86440000Y-76635000D03*
X86440000Y-75085000D03*
G04 #@! TD*
D18*
G04 #@! TO.C,C1*
X86450000Y-68915000D03*
X86450000Y-70465000D03*
G04 #@! TD*
D13*
G04 #@! TO.C,R1*
X88245000Y-62340000D03*
X86595000Y-62340000D03*
G04 #@! TD*
M02*
