G04 #@! TF.GenerationSoftware,KiCad,Pcbnew,9.0.8*
G04 #@! TF.CreationDate,2026-04-10T17:10:50+03:00*
G04 #@! TF.ProjectId,T41-RF-board-Dual-Attenuator-daughterboard,5434312d-5246-42d6-926f-6172642d4475,rev?*
G04 #@! TF.SameCoordinates,Original*
G04 #@! TF.FileFunction,Legend,Top*
G04 #@! TF.FilePolarity,Positive*
%FSLAX46Y46*%
G04 Gerber Fmt 4.6, Leading zero omitted, Abs format (unit mm)*
G04 Created by KiCad (PCBNEW 9.0.8) date 2026-04-10 17:10:50*
%MOMM*%
%LPD*%
G01*
G04 APERTURE LIST*
G04 Aperture macros list*
%AMRoundRect*
0 Rectangle with rounded corners*
0 $1 Rounding radius*
0 $2 $3 $4 $5 $6 $7 $8 $9 X,Y pos of 4 corners*
0 Add a 4 corners polygon primitive as box body*
4,1,4,$2,$3,$4,$5,$6,$7,$8,$9,$2,$3,0*
0 Add four circle primitives for the rounded corners*
1,1,$1+$1,$2,$3*
1,1,$1+$1,$4,$5*
1,1,$1+$1,$6,$7*
1,1,$1+$1,$8,$9*
0 Add four rect primitives between the rounded corners*
20,1,$1+$1,$2,$3,$4,$5,0*
20,1,$1+$1,$4,$5,$6,$7,0*
20,1,$1+$1,$6,$7,$8,$9,0*
20,1,$1+$1,$8,$9,$2,$3,0*%
G04 Aperture macros list end*
%ADD10C,0.100000*%
%ADD11C,0.120000*%
%ADD12C,0.080000*%
%ADD13RoundRect,0.200000X-0.275000X0.200000X-0.275000X-0.200000X0.275000X-0.200000X0.275000X0.200000X0*%
%ADD14R,1.700000X1.700000*%
%ADD15C,1.700000*%
%ADD16RoundRect,0.225000X-0.225000X-0.250000X0.225000X-0.250000X0.225000X0.250000X-0.225000X0.250000X0*%
%ADD17RoundRect,0.200000X-0.200000X-0.275000X0.200000X-0.275000X0.200000X0.275000X-0.200000X0.275000X0*%
%ADD18RoundRect,0.200000X0.200000X0.275000X-0.200000X0.275000X-0.200000X-0.275000X0.200000X-0.275000X0*%
%ADD19RoundRect,0.062500X-0.062500X0.337500X-0.062500X-0.337500X0.062500X-0.337500X0.062500X0.337500X0*%
%ADD20RoundRect,0.062500X-0.337500X0.062500X-0.337500X-0.062500X0.337500X-0.062500X0.337500X0.062500X0*%
%ADD21R,2.200000X2.200000*%
%ADD22RoundRect,0.200000X0.275000X-0.200000X0.275000X0.200000X-0.275000X0.200000X-0.275000X-0.200000X0*%
%ADD23RoundRect,0.225000X0.250000X-0.225000X0.250000X0.225000X-0.250000X0.225000X-0.250000X-0.225000X0*%
%ADD24RoundRect,0.225000X-0.250000X0.225000X-0.250000X-0.225000X0.250000X-0.225000X0.250000X0.225000X0*%
G04 APERTURE END LIST*
D10*
X81811371Y-64137068D02*
X81811371Y-64079925D01*
X81811371Y-64079925D02*
X81839942Y-64022782D01*
X81839942Y-64022782D02*
X81868514Y-63994211D01*
X81868514Y-63994211D02*
X81925657Y-63965639D01*
X81925657Y-63965639D02*
X82039942Y-63937068D01*
X82039942Y-63937068D02*
X82182800Y-63937068D01*
X82182800Y-63937068D02*
X82297085Y-63965639D01*
X82297085Y-63965639D02*
X82354228Y-63994211D01*
X82354228Y-63994211D02*
X82382800Y-64022782D01*
X82382800Y-64022782D02*
X82411371Y-64079925D01*
X82411371Y-64079925D02*
X82411371Y-64137068D01*
X82411371Y-64137068D02*
X82382800Y-64194211D01*
X82382800Y-64194211D02*
X82354228Y-64222782D01*
X82354228Y-64222782D02*
X82297085Y-64251353D01*
X82297085Y-64251353D02*
X82182800Y-64279925D01*
X82182800Y-64279925D02*
X82039942Y-64279925D01*
X82039942Y-64279925D02*
X81925657Y-64251353D01*
X81925657Y-64251353D02*
X81868514Y-64222782D01*
X81868514Y-64222782D02*
X81839942Y-64194211D01*
X81839942Y-64194211D02*
X81811371Y-64137068D01*
X82354228Y-63679924D02*
X82382800Y-63651353D01*
X82382800Y-63651353D02*
X82411371Y-63679924D01*
X82411371Y-63679924D02*
X82382800Y-63708496D01*
X82382800Y-63708496D02*
X82354228Y-63679924D01*
X82354228Y-63679924D02*
X82411371Y-63679924D01*
X81811371Y-63108496D02*
X81811371Y-63394210D01*
X81811371Y-63394210D02*
X82097085Y-63422782D01*
X82097085Y-63422782D02*
X82068514Y-63394210D01*
X82068514Y-63394210D02*
X82039942Y-63337068D01*
X82039942Y-63337068D02*
X82039942Y-63194210D01*
X82039942Y-63194210D02*
X82068514Y-63137068D01*
X82068514Y-63137068D02*
X82097085Y-63108496D01*
X82097085Y-63108496D02*
X82154228Y-63079925D01*
X82154228Y-63079925D02*
X82297085Y-63079925D01*
X82297085Y-63079925D02*
X82354228Y-63108496D01*
X82354228Y-63108496D02*
X82382800Y-63137068D01*
X82382800Y-63137068D02*
X82411371Y-63194210D01*
X82411371Y-63194210D02*
X82411371Y-63337068D01*
X82411371Y-63337068D02*
X82382800Y-63394210D01*
X82382800Y-63394210D02*
X82354228Y-63422782D01*
X82411371Y-66678496D02*
X82125657Y-66878496D01*
X82411371Y-67021353D02*
X81811371Y-67021353D01*
X81811371Y-67021353D02*
X81811371Y-66792782D01*
X81811371Y-66792782D02*
X81839942Y-66735639D01*
X81839942Y-66735639D02*
X81868514Y-66707068D01*
X81868514Y-66707068D02*
X81925657Y-66678496D01*
X81925657Y-66678496D02*
X82011371Y-66678496D01*
X82011371Y-66678496D02*
X82068514Y-66707068D01*
X82068514Y-66707068D02*
X82097085Y-66735639D01*
X82097085Y-66735639D02*
X82125657Y-66792782D01*
X82125657Y-66792782D02*
X82125657Y-67021353D01*
X82097085Y-66221353D02*
X82097085Y-66421353D01*
X82411371Y-66421353D02*
X81811371Y-66421353D01*
X81811371Y-66421353D02*
X81811371Y-66135639D01*
X82411371Y-65592782D02*
X82411371Y-65935639D01*
X82411371Y-65764210D02*
X81811371Y-65764210D01*
X81811371Y-65764210D02*
X81897085Y-65821353D01*
X81897085Y-65821353D02*
X81954228Y-65878496D01*
X81954228Y-65878496D02*
X81982800Y-65935639D01*
X81849942Y-73607068D02*
X81821371Y-73664211D01*
X81821371Y-73664211D02*
X81821371Y-73749925D01*
X81821371Y-73749925D02*
X81849942Y-73835639D01*
X81849942Y-73835639D02*
X81907085Y-73892782D01*
X81907085Y-73892782D02*
X81964228Y-73921353D01*
X81964228Y-73921353D02*
X82078514Y-73949925D01*
X82078514Y-73949925D02*
X82164228Y-73949925D01*
X82164228Y-73949925D02*
X82278514Y-73921353D01*
X82278514Y-73921353D02*
X82335657Y-73892782D01*
X82335657Y-73892782D02*
X82392800Y-73835639D01*
X82392800Y-73835639D02*
X82421371Y-73749925D01*
X82421371Y-73749925D02*
X82421371Y-73692782D01*
X82421371Y-73692782D02*
X82392800Y-73607068D01*
X82392800Y-73607068D02*
X82364228Y-73578496D01*
X82364228Y-73578496D02*
X82164228Y-73578496D01*
X82164228Y-73578496D02*
X82164228Y-73692782D01*
X81859942Y-68607068D02*
X81831371Y-68664211D01*
X81831371Y-68664211D02*
X81831371Y-68749925D01*
X81831371Y-68749925D02*
X81859942Y-68835639D01*
X81859942Y-68835639D02*
X81917085Y-68892782D01*
X81917085Y-68892782D02*
X81974228Y-68921353D01*
X81974228Y-68921353D02*
X82088514Y-68949925D01*
X82088514Y-68949925D02*
X82174228Y-68949925D01*
X82174228Y-68949925D02*
X82288514Y-68921353D01*
X82288514Y-68921353D02*
X82345657Y-68892782D01*
X82345657Y-68892782D02*
X82402800Y-68835639D01*
X82402800Y-68835639D02*
X82431371Y-68749925D01*
X82431371Y-68749925D02*
X82431371Y-68692782D01*
X82431371Y-68692782D02*
X82402800Y-68607068D01*
X82402800Y-68607068D02*
X82374228Y-68578496D01*
X82374228Y-68578496D02*
X82174228Y-68578496D01*
X82174228Y-68578496D02*
X82174228Y-68692782D01*
X81831371Y-72108496D02*
X81831371Y-71737068D01*
X81831371Y-71737068D02*
X82059942Y-71937068D01*
X82059942Y-71937068D02*
X82059942Y-71851353D01*
X82059942Y-71851353D02*
X82088514Y-71794211D01*
X82088514Y-71794211D02*
X82117085Y-71765639D01*
X82117085Y-71765639D02*
X82174228Y-71737068D01*
X82174228Y-71737068D02*
X82317085Y-71737068D01*
X82317085Y-71737068D02*
X82374228Y-71765639D01*
X82374228Y-71765639D02*
X82402800Y-71794211D01*
X82402800Y-71794211D02*
X82431371Y-71851353D01*
X82431371Y-71851353D02*
X82431371Y-72022782D01*
X82431371Y-72022782D02*
X82402800Y-72079925D01*
X82402800Y-72079925D02*
X82374228Y-72108496D01*
X81831371Y-71565639D02*
X82431371Y-71365639D01*
X82431371Y-71365639D02*
X81831371Y-71165639D01*
X81831371Y-71022781D02*
X81831371Y-70651353D01*
X81831371Y-70651353D02*
X82059942Y-70851353D01*
X82059942Y-70851353D02*
X82059942Y-70765638D01*
X82059942Y-70765638D02*
X82088514Y-70708496D01*
X82088514Y-70708496D02*
X82117085Y-70679924D01*
X82117085Y-70679924D02*
X82174228Y-70651353D01*
X82174228Y-70651353D02*
X82317085Y-70651353D01*
X82317085Y-70651353D02*
X82374228Y-70679924D01*
X82374228Y-70679924D02*
X82402800Y-70708496D01*
X82402800Y-70708496D02*
X82431371Y-70765638D01*
X82431371Y-70765638D02*
X82431371Y-70937067D01*
X82431371Y-70937067D02*
X82402800Y-70994210D01*
X82402800Y-70994210D02*
X82374228Y-71022781D01*
X82431371Y-76357068D02*
X82431371Y-76699925D01*
X82431371Y-76528496D02*
X81831371Y-76528496D01*
X81831371Y-76528496D02*
X81917085Y-76585639D01*
X81917085Y-76585639D02*
X81974228Y-76642782D01*
X81974228Y-76642782D02*
X82002800Y-76699925D01*
X81831371Y-75842782D02*
X81831371Y-75957067D01*
X81831371Y-75957067D02*
X81859942Y-76014210D01*
X81859942Y-76014210D02*
X81888514Y-76042782D01*
X81888514Y-76042782D02*
X81974228Y-76099924D01*
X81974228Y-76099924D02*
X82088514Y-76128496D01*
X82088514Y-76128496D02*
X82317085Y-76128496D01*
X82317085Y-76128496D02*
X82374228Y-76099924D01*
X82374228Y-76099924D02*
X82402800Y-76071353D01*
X82402800Y-76071353D02*
X82431371Y-76014210D01*
X82431371Y-76014210D02*
X82431371Y-75899924D01*
X82431371Y-75899924D02*
X82402800Y-75842782D01*
X82402800Y-75842782D02*
X82374228Y-75814210D01*
X82374228Y-75814210D02*
X82317085Y-75785639D01*
X82317085Y-75785639D02*
X82174228Y-75785639D01*
X82174228Y-75785639D02*
X82117085Y-75814210D01*
X82117085Y-75814210D02*
X82088514Y-75842782D01*
X82088514Y-75842782D02*
X82059942Y-75899924D01*
X82059942Y-75899924D02*
X82059942Y-76014210D01*
X82059942Y-76014210D02*
X82088514Y-76071353D01*
X82088514Y-76071353D02*
X82117085Y-76099924D01*
X82117085Y-76099924D02*
X82174228Y-76128496D01*
X95408514Y-66189925D02*
X95379942Y-66161353D01*
X95379942Y-66161353D02*
X95351371Y-66104211D01*
X95351371Y-66104211D02*
X95351371Y-65961353D01*
X95351371Y-65961353D02*
X95379942Y-65904211D01*
X95379942Y-65904211D02*
X95408514Y-65875639D01*
X95408514Y-65875639D02*
X95465657Y-65847068D01*
X95465657Y-65847068D02*
X95522800Y-65847068D01*
X95522800Y-65847068D02*
X95608514Y-65875639D01*
X95608514Y-65875639D02*
X95951371Y-66218496D01*
X95951371Y-66218496D02*
X95951371Y-65847068D01*
X95608514Y-71275639D02*
X95579942Y-71332782D01*
X95579942Y-71332782D02*
X95551371Y-71361353D01*
X95551371Y-71361353D02*
X95494228Y-71389925D01*
X95494228Y-71389925D02*
X95465657Y-71389925D01*
X95465657Y-71389925D02*
X95408514Y-71361353D01*
X95408514Y-71361353D02*
X95379942Y-71332782D01*
X95379942Y-71332782D02*
X95351371Y-71275639D01*
X95351371Y-71275639D02*
X95351371Y-71161353D01*
X95351371Y-71161353D02*
X95379942Y-71104211D01*
X95379942Y-71104211D02*
X95408514Y-71075639D01*
X95408514Y-71075639D02*
X95465657Y-71047068D01*
X95465657Y-71047068D02*
X95494228Y-71047068D01*
X95494228Y-71047068D02*
X95551371Y-71075639D01*
X95551371Y-71075639D02*
X95579942Y-71104211D01*
X95579942Y-71104211D02*
X95608514Y-71161353D01*
X95608514Y-71161353D02*
X95608514Y-71275639D01*
X95608514Y-71275639D02*
X95637085Y-71332782D01*
X95637085Y-71332782D02*
X95665657Y-71361353D01*
X95665657Y-71361353D02*
X95722800Y-71389925D01*
X95722800Y-71389925D02*
X95837085Y-71389925D01*
X95837085Y-71389925D02*
X95894228Y-71361353D01*
X95894228Y-71361353D02*
X95922800Y-71332782D01*
X95922800Y-71332782D02*
X95951371Y-71275639D01*
X95951371Y-71275639D02*
X95951371Y-71161353D01*
X95951371Y-71161353D02*
X95922800Y-71104211D01*
X95922800Y-71104211D02*
X95894228Y-71075639D01*
X95894228Y-71075639D02*
X95837085Y-71047068D01*
X95837085Y-71047068D02*
X95722800Y-71047068D01*
X95722800Y-71047068D02*
X95665657Y-71075639D01*
X95665657Y-71075639D02*
X95637085Y-71104211D01*
X95637085Y-71104211D02*
X95608514Y-71161353D01*
X95951371Y-74198496D02*
X95665657Y-74398496D01*
X95951371Y-74541353D02*
X95351371Y-74541353D01*
X95351371Y-74541353D02*
X95351371Y-74312782D01*
X95351371Y-74312782D02*
X95379942Y-74255639D01*
X95379942Y-74255639D02*
X95408514Y-74227068D01*
X95408514Y-74227068D02*
X95465657Y-74198496D01*
X95465657Y-74198496D02*
X95551371Y-74198496D01*
X95551371Y-74198496D02*
X95608514Y-74227068D01*
X95608514Y-74227068D02*
X95637085Y-74255639D01*
X95637085Y-74255639D02*
X95665657Y-74312782D01*
X95665657Y-74312782D02*
X95665657Y-74541353D01*
X95637085Y-73741353D02*
X95637085Y-73941353D01*
X95951371Y-73941353D02*
X95351371Y-73941353D01*
X95351371Y-73941353D02*
X95351371Y-73655639D01*
X95408514Y-73455639D02*
X95379942Y-73427067D01*
X95379942Y-73427067D02*
X95351371Y-73369925D01*
X95351371Y-73369925D02*
X95351371Y-73227067D01*
X95351371Y-73227067D02*
X95379942Y-73169925D01*
X95379942Y-73169925D02*
X95408514Y-73141353D01*
X95408514Y-73141353D02*
X95465657Y-73112782D01*
X95465657Y-73112782D02*
X95522800Y-73112782D01*
X95522800Y-73112782D02*
X95608514Y-73141353D01*
X95608514Y-73141353D02*
X95951371Y-73484210D01*
X95951371Y-73484210D02*
X95951371Y-73112782D01*
X95379942Y-76257068D02*
X95351371Y-76314211D01*
X95351371Y-76314211D02*
X95351371Y-76399925D01*
X95351371Y-76399925D02*
X95379942Y-76485639D01*
X95379942Y-76485639D02*
X95437085Y-76542782D01*
X95437085Y-76542782D02*
X95494228Y-76571353D01*
X95494228Y-76571353D02*
X95608514Y-76599925D01*
X95608514Y-76599925D02*
X95694228Y-76599925D01*
X95694228Y-76599925D02*
X95808514Y-76571353D01*
X95808514Y-76571353D02*
X95865657Y-76542782D01*
X95865657Y-76542782D02*
X95922800Y-76485639D01*
X95922800Y-76485639D02*
X95951371Y-76399925D01*
X95951371Y-76399925D02*
X95951371Y-76342782D01*
X95951371Y-76342782D02*
X95922800Y-76257068D01*
X95922800Y-76257068D02*
X95894228Y-76228496D01*
X95894228Y-76228496D02*
X95694228Y-76228496D01*
X95694228Y-76228496D02*
X95694228Y-76342782D01*
X95971371Y-63217068D02*
X95971371Y-63559925D01*
X95971371Y-63388496D02*
X95371371Y-63388496D01*
X95371371Y-63388496D02*
X95457085Y-63445639D01*
X95457085Y-63445639D02*
X95514228Y-63502782D01*
X95514228Y-63502782D02*
X95542800Y-63559925D01*
X95581371Y-68554211D02*
X95981371Y-68554211D01*
X95352800Y-68697068D02*
X95781371Y-68839925D01*
X95781371Y-68839925D02*
X95781371Y-68468496D01*
X85872371Y-72059999D02*
X85872371Y-72345713D01*
X85872371Y-72345713D02*
X85272371Y-72345713D01*
X85872371Y-71545714D02*
X85872371Y-71888571D01*
X85872371Y-71717142D02*
X85272371Y-71717142D01*
X85272371Y-71717142D02*
X85358085Y-71774285D01*
X85358085Y-71774285D02*
X85415228Y-71831428D01*
X85415228Y-71831428D02*
X85443800Y-71888571D01*
X85470000Y-64135228D02*
X85441428Y-64163800D01*
X85441428Y-64163800D02*
X85355714Y-64192371D01*
X85355714Y-64192371D02*
X85298571Y-64192371D01*
X85298571Y-64192371D02*
X85212857Y-64163800D01*
X85212857Y-64163800D02*
X85155714Y-64106657D01*
X85155714Y-64106657D02*
X85127143Y-64049514D01*
X85127143Y-64049514D02*
X85098571Y-63935228D01*
X85098571Y-63935228D02*
X85098571Y-63849514D01*
X85098571Y-63849514D02*
X85127143Y-63735228D01*
X85127143Y-63735228D02*
X85155714Y-63678085D01*
X85155714Y-63678085D02*
X85212857Y-63620942D01*
X85212857Y-63620942D02*
X85298571Y-63592371D01*
X85298571Y-63592371D02*
X85355714Y-63592371D01*
X85355714Y-63592371D02*
X85441428Y-63620942D01*
X85441428Y-63620942D02*
X85470000Y-63649514D01*
X85670000Y-63592371D02*
X86041428Y-63592371D01*
X86041428Y-63592371D02*
X85841428Y-63820942D01*
X85841428Y-63820942D02*
X85927143Y-63820942D01*
X85927143Y-63820942D02*
X85984286Y-63849514D01*
X85984286Y-63849514D02*
X86012857Y-63878085D01*
X86012857Y-63878085D02*
X86041428Y-63935228D01*
X86041428Y-63935228D02*
X86041428Y-64078085D01*
X86041428Y-64078085D02*
X86012857Y-64135228D01*
X86012857Y-64135228D02*
X85984286Y-64163800D01*
X85984286Y-64163800D02*
X85927143Y-64192371D01*
X85927143Y-64192371D02*
X85755714Y-64192371D01*
X85755714Y-64192371D02*
X85698571Y-64163800D01*
X85698571Y-64163800D02*
X85670000Y-64135228D01*
X90730000Y-63592371D02*
X90530000Y-63306657D01*
X90387143Y-63592371D02*
X90387143Y-62992371D01*
X90387143Y-62992371D02*
X90615714Y-62992371D01*
X90615714Y-62992371D02*
X90672857Y-63020942D01*
X90672857Y-63020942D02*
X90701428Y-63049514D01*
X90701428Y-63049514D02*
X90730000Y-63106657D01*
X90730000Y-63106657D02*
X90730000Y-63192371D01*
X90730000Y-63192371D02*
X90701428Y-63249514D01*
X90701428Y-63249514D02*
X90672857Y-63278085D01*
X90672857Y-63278085D02*
X90615714Y-63306657D01*
X90615714Y-63306657D02*
X90387143Y-63306657D01*
X90958571Y-63049514D02*
X90987143Y-63020942D01*
X90987143Y-63020942D02*
X91044286Y-62992371D01*
X91044286Y-62992371D02*
X91187143Y-62992371D01*
X91187143Y-62992371D02*
X91244286Y-63020942D01*
X91244286Y-63020942D02*
X91272857Y-63049514D01*
X91272857Y-63049514D02*
X91301428Y-63106657D01*
X91301428Y-63106657D02*
X91301428Y-63163800D01*
X91301428Y-63163800D02*
X91272857Y-63249514D01*
X91272857Y-63249514D02*
X90930000Y-63592371D01*
X90930000Y-63592371D02*
X91301428Y-63592371D01*
X90750000Y-76862371D02*
X90550000Y-76576657D01*
X90407143Y-76862371D02*
X90407143Y-76262371D01*
X90407143Y-76262371D02*
X90635714Y-76262371D01*
X90635714Y-76262371D02*
X90692857Y-76290942D01*
X90692857Y-76290942D02*
X90721428Y-76319514D01*
X90721428Y-76319514D02*
X90750000Y-76376657D01*
X90750000Y-76376657D02*
X90750000Y-76462371D01*
X90750000Y-76462371D02*
X90721428Y-76519514D01*
X90721428Y-76519514D02*
X90692857Y-76548085D01*
X90692857Y-76548085D02*
X90635714Y-76576657D01*
X90635714Y-76576657D02*
X90407143Y-76576657D01*
X90950000Y-76262371D02*
X91321428Y-76262371D01*
X91321428Y-76262371D02*
X91121428Y-76490942D01*
X91121428Y-76490942D02*
X91207143Y-76490942D01*
X91207143Y-76490942D02*
X91264286Y-76519514D01*
X91264286Y-76519514D02*
X91292857Y-76548085D01*
X91292857Y-76548085D02*
X91321428Y-76605228D01*
X91321428Y-76605228D02*
X91321428Y-76748085D01*
X91321428Y-76748085D02*
X91292857Y-76805228D01*
X91292857Y-76805228D02*
X91264286Y-76833800D01*
X91264286Y-76833800D02*
X91207143Y-76862371D01*
X91207143Y-76862371D02*
X91035714Y-76862371D01*
X91035714Y-76862371D02*
X90978571Y-76833800D01*
X90978571Y-76833800D02*
X90950000Y-76805228D01*
X90992857Y-74932371D02*
X90992857Y-75418085D01*
X90992857Y-75418085D02*
X91021428Y-75475228D01*
X91021428Y-75475228D02*
X91050000Y-75503800D01*
X91050000Y-75503800D02*
X91107142Y-75532371D01*
X91107142Y-75532371D02*
X91221428Y-75532371D01*
X91221428Y-75532371D02*
X91278571Y-75503800D01*
X91278571Y-75503800D02*
X91307142Y-75475228D01*
X91307142Y-75475228D02*
X91335714Y-75418085D01*
X91335714Y-75418085D02*
X91335714Y-74932371D01*
X91592856Y-74989514D02*
X91621428Y-74960942D01*
X91621428Y-74960942D02*
X91678571Y-74932371D01*
X91678571Y-74932371D02*
X91821428Y-74932371D01*
X91821428Y-74932371D02*
X91878571Y-74960942D01*
X91878571Y-74960942D02*
X91907142Y-74989514D01*
X91907142Y-74989514D02*
X91935713Y-75046657D01*
X91935713Y-75046657D02*
X91935713Y-75103800D01*
X91935713Y-75103800D02*
X91907142Y-75189514D01*
X91907142Y-75189514D02*
X91564285Y-75532371D01*
X91564285Y-75532371D02*
X91935713Y-75532371D01*
X91072857Y-64402371D02*
X91072857Y-64888085D01*
X91072857Y-64888085D02*
X91101428Y-64945228D01*
X91101428Y-64945228D02*
X91130000Y-64973800D01*
X91130000Y-64973800D02*
X91187142Y-65002371D01*
X91187142Y-65002371D02*
X91301428Y-65002371D01*
X91301428Y-65002371D02*
X91358571Y-64973800D01*
X91358571Y-64973800D02*
X91387142Y-64945228D01*
X91387142Y-64945228D02*
X91415714Y-64888085D01*
X91415714Y-64888085D02*
X91415714Y-64402371D01*
X92015713Y-65002371D02*
X91672856Y-65002371D01*
X91844285Y-65002371D02*
X91844285Y-64402371D01*
X91844285Y-64402371D02*
X91787142Y-64488085D01*
X91787142Y-64488085D02*
X91729999Y-64545228D01*
X91729999Y-64545228D02*
X91672856Y-64573800D01*
X85792371Y-67219999D02*
X85506657Y-67419999D01*
X85792371Y-67562856D02*
X85192371Y-67562856D01*
X85192371Y-67562856D02*
X85192371Y-67334285D01*
X85192371Y-67334285D02*
X85220942Y-67277142D01*
X85220942Y-67277142D02*
X85249514Y-67248571D01*
X85249514Y-67248571D02*
X85306657Y-67219999D01*
X85306657Y-67219999D02*
X85392371Y-67219999D01*
X85392371Y-67219999D02*
X85449514Y-67248571D01*
X85449514Y-67248571D02*
X85478085Y-67277142D01*
X85478085Y-67277142D02*
X85506657Y-67334285D01*
X85506657Y-67334285D02*
X85506657Y-67562856D01*
X85392371Y-66705714D02*
X85792371Y-66705714D01*
X85163800Y-66848571D02*
X85592371Y-66991428D01*
X85592371Y-66991428D02*
X85592371Y-66619999D01*
X85765228Y-75079999D02*
X85793800Y-75108571D01*
X85793800Y-75108571D02*
X85822371Y-75194285D01*
X85822371Y-75194285D02*
X85822371Y-75251428D01*
X85822371Y-75251428D02*
X85793800Y-75337142D01*
X85793800Y-75337142D02*
X85736657Y-75394285D01*
X85736657Y-75394285D02*
X85679514Y-75422856D01*
X85679514Y-75422856D02*
X85565228Y-75451428D01*
X85565228Y-75451428D02*
X85479514Y-75451428D01*
X85479514Y-75451428D02*
X85365228Y-75422856D01*
X85365228Y-75422856D02*
X85308085Y-75394285D01*
X85308085Y-75394285D02*
X85250942Y-75337142D01*
X85250942Y-75337142D02*
X85222371Y-75251428D01*
X85222371Y-75251428D02*
X85222371Y-75194285D01*
X85222371Y-75194285D02*
X85250942Y-75108571D01*
X85250942Y-75108571D02*
X85279514Y-75079999D01*
X85279514Y-74851428D02*
X85250942Y-74822856D01*
X85250942Y-74822856D02*
X85222371Y-74765714D01*
X85222371Y-74765714D02*
X85222371Y-74622856D01*
X85222371Y-74622856D02*
X85250942Y-74565714D01*
X85250942Y-74565714D02*
X85279514Y-74537142D01*
X85279514Y-74537142D02*
X85336657Y-74508571D01*
X85336657Y-74508571D02*
X85393800Y-74508571D01*
X85393800Y-74508571D02*
X85479514Y-74537142D01*
X85479514Y-74537142D02*
X85822371Y-74879999D01*
X85822371Y-74879999D02*
X85822371Y-74508571D01*
X85785228Y-69039999D02*
X85813800Y-69068571D01*
X85813800Y-69068571D02*
X85842371Y-69154285D01*
X85842371Y-69154285D02*
X85842371Y-69211428D01*
X85842371Y-69211428D02*
X85813800Y-69297142D01*
X85813800Y-69297142D02*
X85756657Y-69354285D01*
X85756657Y-69354285D02*
X85699514Y-69382856D01*
X85699514Y-69382856D02*
X85585228Y-69411428D01*
X85585228Y-69411428D02*
X85499514Y-69411428D01*
X85499514Y-69411428D02*
X85385228Y-69382856D01*
X85385228Y-69382856D02*
X85328085Y-69354285D01*
X85328085Y-69354285D02*
X85270942Y-69297142D01*
X85270942Y-69297142D02*
X85242371Y-69211428D01*
X85242371Y-69211428D02*
X85242371Y-69154285D01*
X85242371Y-69154285D02*
X85270942Y-69068571D01*
X85270942Y-69068571D02*
X85299514Y-69039999D01*
X85842371Y-68468571D02*
X85842371Y-68811428D01*
X85842371Y-68639999D02*
X85242371Y-68639999D01*
X85242371Y-68639999D02*
X85328085Y-68697142D01*
X85328085Y-68697142D02*
X85385228Y-68754285D01*
X85385228Y-68754285D02*
X85413800Y-68811428D01*
X85430000Y-62612371D02*
X85230000Y-62326657D01*
X85087143Y-62612371D02*
X85087143Y-62012371D01*
X85087143Y-62012371D02*
X85315714Y-62012371D01*
X85315714Y-62012371D02*
X85372857Y-62040942D01*
X85372857Y-62040942D02*
X85401428Y-62069514D01*
X85401428Y-62069514D02*
X85430000Y-62126657D01*
X85430000Y-62126657D02*
X85430000Y-62212371D01*
X85430000Y-62212371D02*
X85401428Y-62269514D01*
X85401428Y-62269514D02*
X85372857Y-62298085D01*
X85372857Y-62298085D02*
X85315714Y-62326657D01*
X85315714Y-62326657D02*
X85087143Y-62326657D01*
X86001428Y-62612371D02*
X85658571Y-62612371D01*
X85830000Y-62612371D02*
X85830000Y-62012371D01*
X85830000Y-62012371D02*
X85772857Y-62098085D01*
X85772857Y-62098085D02*
X85715714Y-62155228D01*
X85715714Y-62155228D02*
X85658571Y-62183800D01*
D11*
G04 #@! TO.C,L1*
X85897500Y-72532742D02*
X85897500Y-73007258D01*
X86942500Y-72532742D02*
X86942500Y-73007258D01*
D12*
G04 #@! TO.C,J1*
X82440000Y-62120000D02*
X83820000Y-62120000D01*
X82440000Y-62470000D02*
X82440000Y-62120000D01*
X82440000Y-64770000D02*
X85200000Y-64770000D01*
X82440000Y-65380000D02*
X82440000Y-64770000D01*
X82440000Y-76880000D02*
X82440000Y-77580000D01*
X82440000Y-77580000D02*
X85200000Y-77580000D01*
X85200000Y-65380000D02*
X85200000Y-64770000D01*
X85200000Y-77580000D02*
X85200000Y-76880000D01*
D11*
G04 #@! TO.C,C3*
X87299420Y-63410000D02*
X87580580Y-63410000D01*
X87299420Y-64430000D02*
X87580580Y-64430000D01*
D12*
G04 #@! TO.C,J2*
X92600000Y-62120000D02*
X93980000Y-62120001D01*
X92600000Y-64770000D02*
X92600000Y-77580000D01*
X92600000Y-64770000D02*
X95360000Y-64770000D01*
X92600000Y-77580000D02*
X95360000Y-77580000D01*
X92600001Y-63500000D02*
X92600000Y-62120000D01*
X95360000Y-64770000D02*
X95360000Y-65580000D01*
X95360000Y-76770000D02*
X95360000Y-77580000D01*
D11*
G04 #@! TO.C,R2*
X90482742Y-61797500D02*
X90957258Y-61797500D01*
X90482742Y-62842500D02*
X90957258Y-62842500D01*
G04 #@! TO.C,R3*
X88917258Y-76027500D02*
X88442742Y-76027500D01*
X88917258Y-77072500D02*
X88442742Y-77072500D01*
G04 #@! TO.C,U2*
X87550000Y-70520000D02*
X88275000Y-70520000D01*
X87550000Y-71245000D02*
X87550000Y-70520000D01*
X87550000Y-74015000D02*
X87550000Y-74740000D01*
X87550000Y-74740000D02*
X88275000Y-74740000D01*
X91770000Y-71245000D02*
X91770000Y-70520000D01*
X91770000Y-74015000D02*
X91770000Y-74740000D01*
X91770000Y-74740000D02*
X91045000Y-74740000D01*
G04 #@! TO.C,U1*
X87540000Y-65220000D02*
X88265000Y-65220000D01*
X87540000Y-65945000D02*
X87540000Y-65220000D01*
X87540000Y-68715000D02*
X87540000Y-69440000D01*
X87540000Y-69440000D02*
X88265000Y-69440000D01*
X91760000Y-65945000D02*
X91760000Y-65220000D01*
X91760000Y-68715000D02*
X91760000Y-69440000D01*
X91760000Y-69440000D02*
X91035000Y-69440000D01*
G04 #@! TO.C,R4*
X85877500Y-66477258D02*
X85877500Y-66002742D01*
X86922500Y-66477258D02*
X86922500Y-66002742D01*
G04 #@! TO.C,C2*
X85930000Y-76000581D02*
X85930000Y-75719419D01*
X86950000Y-76000581D02*
X86950000Y-75719419D01*
G04 #@! TO.C,C1*
X85940000Y-69549419D02*
X85940000Y-69830581D01*
X86960000Y-69549419D02*
X86960000Y-69830581D01*
G04 #@! TO.C,R1*
X87657258Y-61817500D02*
X87182742Y-61817500D01*
X87657258Y-62862500D02*
X87182742Y-62862500D01*
G04 #@! TD*
%LPC*%
D13*
G04 #@! TO.C,L1*
X86420000Y-71945000D03*
X86420000Y-73595000D03*
G04 #@! TD*
D14*
G04 #@! TO.C,J1*
X83820000Y-63500000D03*
D15*
X83820000Y-66040000D03*
X83820000Y-68580000D03*
X83820000Y-71120000D03*
X83820000Y-73660000D03*
X83820000Y-76200000D03*
G04 #@! TD*
D16*
G04 #@! TO.C,C3*
X86665000Y-63920000D03*
X88215000Y-63920000D03*
G04 #@! TD*
D14*
G04 #@! TO.C,J2*
X93980000Y-63500000D03*
D15*
X93980000Y-66040000D03*
X93980000Y-68579999D03*
X93980000Y-71120000D03*
X93980000Y-73660000D03*
X93980000Y-76200000D03*
G04 #@! TD*
D17*
G04 #@! TO.C,R2*
X89895000Y-62320000D03*
X91545000Y-62320000D03*
G04 #@! TD*
D18*
G04 #@! TO.C,R3*
X89505000Y-76550000D03*
X87855000Y-76550000D03*
G04 #@! TD*
D19*
G04 #@! TO.C,U2*
X90660000Y-70680000D03*
X90160000Y-70680000D03*
X89660000Y-70680000D03*
X89160000Y-70680000D03*
X88660000Y-70680000D03*
D20*
X87710000Y-71630000D03*
X87710000Y-72130000D03*
X87710000Y-72630000D03*
X87710000Y-73130000D03*
X87710000Y-73630000D03*
D19*
X88660000Y-74580000D03*
X89160000Y-74580000D03*
X89660000Y-74580000D03*
X90160000Y-74580000D03*
X90660000Y-74580000D03*
D20*
X91610000Y-73630000D03*
X91610000Y-73130000D03*
X91610000Y-72630000D03*
X91610000Y-72130000D03*
X91610000Y-71630000D03*
D21*
X89660000Y-72630000D03*
G04 #@! TD*
D19*
G04 #@! TO.C,U1*
X90650000Y-65380000D03*
X90150000Y-65380000D03*
X89650000Y-65380000D03*
X89150000Y-65380000D03*
X88650000Y-65380000D03*
D20*
X87700000Y-66330000D03*
X87700000Y-66830000D03*
X87700000Y-67330000D03*
X87700000Y-67830000D03*
X87700000Y-68330000D03*
D19*
X88650000Y-69280000D03*
X89150000Y-69280000D03*
X89650000Y-69280000D03*
X90150000Y-69280000D03*
X90650000Y-69280000D03*
D20*
X91600000Y-68330000D03*
X91600000Y-67830000D03*
X91600000Y-67330000D03*
X91600000Y-66830000D03*
X91600000Y-66330000D03*
D21*
X89650000Y-67330000D03*
G04 #@! TD*
D22*
G04 #@! TO.C,R4*
X86400000Y-67065000D03*
X86400000Y-65415000D03*
G04 #@! TD*
D23*
G04 #@! TO.C,C2*
X86440000Y-76635000D03*
X86440000Y-75085000D03*
G04 #@! TD*
D24*
G04 #@! TO.C,C1*
X86450000Y-68915000D03*
X86450000Y-70465000D03*
G04 #@! TD*
D18*
G04 #@! TO.C,R1*
X88245000Y-62340000D03*
X86595000Y-62340000D03*
G04 #@! TD*
%LPD*%
M02*
