G04 #@! TF.GenerationSoftware,KiCad,Pcbnew,9.0.8*
G04 #@! TF.CreationDate,2026-04-10T17:10:50+03:00*
G04 #@! TF.ProjectId,T41-RF-board-Dual-Attenuator-daughterboard,5434312d-5246-42d6-926f-6172642d4475,rev?*
G04 #@! TF.SameCoordinates,Original*
G04 #@! TF.FileFunction,Copper,L1,Top*
G04 #@! TF.FilePolarity,Positive*
%FSLAX46Y46*%
G04 Gerber Fmt 4.6, Leading zero omitted, Abs format (unit mm)*
G04 Created by KiCad (PCBNEW 9.0.8) date 2026-04-10 17:10:50*
%MOMM*%
%LPD*%
G01*
G04 APERTURE LIST*
G04 Aperture macros list*
%AMRoundRect*
0 Rectangle with rounded corners*
0 $1 Rounding radius*
0 $2 $3 $4 $5 $6 $7 $8 $9 X,Y pos of 4 corners*
0 Add a 4 corners polygon primitive as box body*
4,1,4,$2,$3,$4,$5,$6,$7,$8,$9,$2,$3,0*
0 Add four circle primitives for the rounded corners*
1,1,$1+$1,$2,$3*
1,1,$1+$1,$4,$5*
1,1,$1+$1,$6,$7*
1,1,$1+$1,$8,$9*
0 Add four rect primitives between the rounded corners*
20,1,$1+$1,$2,$3,$4,$5,0*
20,1,$1+$1,$4,$5,$6,$7,0*
20,1,$1+$1,$6,$7,$8,$9,0*
20,1,$1+$1,$8,$9,$2,$3,0*%
G04 Aperture macros list end*
G04 #@! TA.AperFunction,SMDPad,CuDef*
%ADD10RoundRect,0.200000X-0.275000X0.200000X-0.275000X-0.200000X0.275000X-0.200000X0.275000X0.200000X0*%
G04 #@! TD*
G04 #@! TA.AperFunction,ComponentPad*
%ADD11R,1.700000X1.700000*%
G04 #@! TD*
G04 #@! TA.AperFunction,ComponentPad*
%ADD12C,1.700000*%
G04 #@! TD*
G04 #@! TA.AperFunction,SMDPad,CuDef*
%ADD13RoundRect,0.225000X-0.225000X-0.250000X0.225000X-0.250000X0.225000X0.250000X-0.225000X0.250000X0*%
G04 #@! TD*
G04 #@! TA.AperFunction,SMDPad,CuDef*
%ADD14RoundRect,0.200000X-0.200000X-0.275000X0.200000X-0.275000X0.200000X0.275000X-0.200000X0.275000X0*%
G04 #@! TD*
G04 #@! TA.AperFunction,SMDPad,CuDef*
%ADD15RoundRect,0.200000X0.200000X0.275000X-0.200000X0.275000X-0.200000X-0.275000X0.200000X-0.275000X0*%
G04 #@! TD*
G04 #@! TA.AperFunction,SMDPad,CuDef*
%ADD16RoundRect,0.062500X-0.062500X0.337500X-0.062500X-0.337500X0.062500X-0.337500X0.062500X0.337500X0*%
G04 #@! TD*
G04 #@! TA.AperFunction,SMDPad,CuDef*
%ADD17RoundRect,0.062500X-0.337500X0.062500X-0.337500X-0.062500X0.337500X-0.062500X0.337500X0.062500X0*%
G04 #@! TD*
G04 #@! TA.AperFunction,SMDPad,CuDef*
%ADD18R,2.200000X2.200000*%
G04 #@! TD*
G04 #@! TA.AperFunction,SMDPad,CuDef*
%ADD19RoundRect,0.200000X0.275000X-0.200000X0.275000X0.200000X-0.275000X0.200000X-0.275000X-0.200000X0*%
G04 #@! TD*
G04 #@! TA.AperFunction,SMDPad,CuDef*
%ADD20RoundRect,0.225000X0.250000X-0.225000X0.250000X0.225000X-0.250000X0.225000X-0.250000X-0.225000X0*%
G04 #@! TD*
G04 #@! TA.AperFunction,SMDPad,CuDef*
%ADD21RoundRect,0.225000X-0.250000X0.225000X-0.250000X-0.225000X0.250000X-0.225000X0.250000X0.225000X0*%
G04 #@! TD*
G04 #@! TA.AperFunction,ViaPad*
%ADD22C,0.400000*%
G04 #@! TD*
G04 #@! TA.AperFunction,Conductor*
%ADD23C,0.500000*%
G04 #@! TD*
G04 #@! TA.AperFunction,Conductor*
%ADD24C,0.120000*%
G04 #@! TD*
G04 #@! TA.AperFunction,Conductor*
%ADD25C,0.300000*%
G04 #@! TD*
G04 #@! TA.AperFunction,Conductor*
%ADD26C,0.200000*%
G04 #@! TD*
G04 #@! TA.AperFunction,Conductor*
%ADD27C,0.150000*%
G04 #@! TD*
G04 APERTURE END LIST*
D10*
G04 #@! TO.P,L1,1,1*
G04 #@! TO.N,+3V3*
X86420000Y-71945000D03*
G04 #@! TO.P,L1,2,2*
G04 #@! TO.N,/VDD*
X86420000Y-73595000D03*
G04 #@! TD*
D11*
G04 #@! TO.P,J1,1,Pin_1*
G04 #@! TO.N,/TC0.5*
X83820000Y-63500000D03*
D12*
G04 #@! TO.P,J1,2,Pin_2*
G04 #@! TO.N,/RFin*
X83820000Y-66040000D03*
G04 #@! TO.P,J1,3,Pin_3*
G04 #@! TO.N,GND*
X83820000Y-68580000D03*
G04 #@! TO.P,J1,4,Pin_4*
G04 #@! TO.N,+3V3*
X83820000Y-71120000D03*
G04 #@! TO.P,J1,5,Pin_5*
G04 #@! TO.N,GND*
X83820000Y-73660000D03*
G04 #@! TO.P,J1,6,Pin_6*
G04 #@! TO.N,/TC16*
X83820000Y-76200000D03*
G04 #@! TD*
D13*
G04 #@! TO.P,C3,1*
G04 #@! TO.N,GND*
X86665000Y-63920000D03*
G04 #@! TO.P,C3,2*
G04 #@! TO.N,/VDD*
X88215000Y-63920000D03*
G04 #@! TD*
D11*
G04 #@! TO.P,J2,1,Pin_1*
G04 #@! TO.N,/TC1*
X93980000Y-63500000D03*
D12*
G04 #@! TO.P,J2,2,Pin_2*
G04 #@! TO.N,/TC2*
X93980000Y-66040000D03*
G04 #@! TO.P,J2,3,Pin_3*
G04 #@! TO.N,/TC4*
X93980000Y-68579999D03*
G04 #@! TO.P,J2,4,Pin_4*
G04 #@! TO.N,/TC8*
X93980000Y-71120000D03*
G04 #@! TO.P,J2,5,Pin_5*
G04 #@! TO.N,/RFout*
X93980000Y-73660000D03*
G04 #@! TO.P,J2,6,Pin_6*
G04 #@! TO.N,GND*
X93980000Y-76200000D03*
G04 #@! TD*
D14*
G04 #@! TO.P,R2,1*
G04 #@! TO.N,/X16.1*
X89895000Y-62320000D03*
G04 #@! TO.P,R2,2*
G04 #@! TO.N,/TC16*
X91545000Y-62320000D03*
G04 #@! TD*
D15*
G04 #@! TO.P,R3,1*
G04 #@! TO.N,/X16.2*
X89505000Y-76550000D03*
G04 #@! TO.P,R3,2*
G04 #@! TO.N,/TC16*
X87855000Y-76550000D03*
G04 #@! TD*
D16*
G04 #@! TO.P,U2,1,C16*
G04 #@! TO.N,/X16.2*
X90660000Y-70680000D03*
G04 #@! TO.P,U2,2,RF1*
G04 #@! TO.N,Net-(U1-RF2)*
X90160000Y-70680000D03*
G04 #@! TO.P,U2,3,Data*
G04 #@! TO.N,Net-(U2-Data)*
X89660000Y-70680000D03*
G04 #@! TO.P,U2,4,Clock*
G04 #@! TO.N,unconnected-(U2-Clock-Pad4)*
X89160000Y-70680000D03*
G04 #@! TO.P,U2,5,LE*
G04 #@! TO.N,/VDD*
X88660000Y-70680000D03*
D17*
G04 #@! TO.P,U2,6,VDD*
X87710000Y-71630000D03*
G04 #@! TO.P,U2,7,PUP1*
G04 #@! TO.N,GND*
X87710000Y-72130000D03*
G04 #@! TO.P,U2,8,PUP2*
X87710000Y-72630000D03*
G04 #@! TO.P,U2,9,VDD*
G04 #@! TO.N,/VDD*
X87710000Y-73130000D03*
G04 #@! TO.P,U2,10,GND*
G04 #@! TO.N,GND*
X87710000Y-73630000D03*
D16*
G04 #@! TO.P,U2,11,GND*
X88660000Y-74580000D03*
G04 #@! TO.P,U2,12,VSS*
X89160000Y-74580000D03*
G04 #@! TO.P,U2,13,P/S*
X89660000Y-74580000D03*
G04 #@! TO.P,U2,14,RF2*
G04 #@! TO.N,/RFout*
X90160000Y-74580000D03*
G04 #@! TO.P,U2,15,C8*
G04 #@! TO.N,/TC8*
X90660000Y-74580000D03*
D17*
G04 #@! TO.P,U2,16,C4*
G04 #@! TO.N,/TC4*
X91610000Y-73630000D03*
G04 #@! TO.P,U2,17,C2*
G04 #@! TO.N,/TC2*
X91610000Y-73130000D03*
G04 #@! TO.P,U2,18,GND*
G04 #@! TO.N,GND*
X91610000Y-72630000D03*
G04 #@! TO.P,U2,19,C1*
G04 #@! TO.N,/TC1*
X91610000Y-72130000D03*
G04 #@! TO.P,U2,20,C0.5*
G04 #@! TO.N,/TC0.5*
X91610000Y-71630000D03*
D18*
G04 #@! TO.P,U2,21,GND*
G04 #@! TO.N,GND*
X89660000Y-72630000D03*
G04 #@! TD*
D16*
G04 #@! TO.P,U1,1,C16*
G04 #@! TO.N,/X16.1*
X90650000Y-65380000D03*
G04 #@! TO.P,U1,2,RF1*
G04 #@! TO.N,/RFin*
X90150000Y-65380000D03*
G04 #@! TO.P,U1,3,Data*
G04 #@! TO.N,/XDAT*
X89650000Y-65380000D03*
G04 #@! TO.P,U1,4,Clock*
G04 #@! TO.N,unconnected-(U1-Clock-Pad4)*
X89150000Y-65380000D03*
G04 #@! TO.P,U1,5,LE*
G04 #@! TO.N,/VDD*
X88650000Y-65380000D03*
D17*
G04 #@! TO.P,U1,6,VDD*
X87700000Y-66330000D03*
G04 #@! TO.P,U1,7,PUP1*
G04 #@! TO.N,GND*
X87700000Y-66830000D03*
G04 #@! TO.P,U1,8,PUP2*
X87700000Y-67330000D03*
G04 #@! TO.P,U1,9,VDD*
G04 #@! TO.N,/VDD*
X87700000Y-67830000D03*
G04 #@! TO.P,U1,10,GND*
G04 #@! TO.N,GND*
X87700000Y-68330000D03*
D16*
G04 #@! TO.P,U1,11,GND*
X88650000Y-69280000D03*
G04 #@! TO.P,U1,12,VSS*
X89150000Y-69280000D03*
G04 #@! TO.P,U1,13,P/S*
X89650000Y-69280000D03*
G04 #@! TO.P,U1,14,RF2*
G04 #@! TO.N,Net-(U1-RF2)*
X90150000Y-69280000D03*
G04 #@! TO.P,U1,15,C8*
G04 #@! TO.N,/TC8*
X90650000Y-69280000D03*
D17*
G04 #@! TO.P,U1,16,C4*
G04 #@! TO.N,/TC4*
X91600000Y-68330000D03*
G04 #@! TO.P,U1,17,C2*
G04 #@! TO.N,/TC2*
X91600000Y-67830000D03*
G04 #@! TO.P,U1,18,GND*
G04 #@! TO.N,GND*
X91600000Y-67330000D03*
G04 #@! TO.P,U1,19,C1*
G04 #@! TO.N,/TC1*
X91600000Y-66830000D03*
G04 #@! TO.P,U1,20,C0.5*
G04 #@! TO.N,/TC0.5*
X91600000Y-66330000D03*
D18*
G04 #@! TO.P,U1,21,GND*
G04 #@! TO.N,GND*
X89650000Y-67330000D03*
G04 #@! TD*
D19*
G04 #@! TO.P,R4,1*
G04 #@! TO.N,Net-(U2-Data)*
X86400000Y-67065000D03*
G04 #@! TO.P,R4,2*
G04 #@! TO.N,GND*
X86400000Y-65415000D03*
G04 #@! TD*
D20*
G04 #@! TO.P,C2,1*
G04 #@! TO.N,GND*
X86440000Y-76635000D03*
G04 #@! TO.P,C2,2*
G04 #@! TO.N,/VDD*
X86440000Y-75085000D03*
G04 #@! TD*
D21*
G04 #@! TO.P,C1,1*
G04 #@! TO.N,GND*
X86450000Y-68915000D03*
G04 #@! TO.P,C1,2*
G04 #@! TO.N,/VDD*
X86450000Y-70465000D03*
G04 #@! TD*
D15*
G04 #@! TO.P,R1,1*
G04 #@! TO.N,/XDAT*
X88245000Y-62340000D03*
G04 #@! TO.P,R1,2*
G04 #@! TO.N,GND*
X86595000Y-62340000D03*
G04 #@! TD*
D22*
G04 #@! TO.N,GND*
X87540000Y-75520000D03*
X85020000Y-72820000D03*
X82560000Y-69840000D03*
X87110000Y-72620000D03*
X88310000Y-67320000D03*
X91150000Y-65830000D03*
X85970000Y-62130000D03*
X92710000Y-69100000D03*
X91160000Y-71120000D03*
X87120000Y-69000000D03*
X88800000Y-63110000D03*
X87240000Y-74260000D03*
X82590000Y-67190000D03*
X94870000Y-65210000D03*
X90810000Y-73770000D03*
X84720000Y-65080000D03*
X94790000Y-72740000D03*
X82420000Y-77510000D03*
X82640000Y-75010000D03*
X89660000Y-68520000D03*
X85030000Y-68140000D03*
X88490000Y-72120000D03*
X86665000Y-63080000D03*
X90980000Y-75260000D03*
X87420000Y-62130000D03*
X85790000Y-65850000D03*
X88650000Y-68520000D03*
X88330000Y-75440000D03*
X95340000Y-64290000D03*
X86665000Y-64600000D03*
X94920000Y-75280000D03*
X91160000Y-68830000D03*
X85130000Y-74970000D03*
X94740000Y-76930000D03*
X90980000Y-67320000D03*
X91100000Y-72630000D03*
X93110000Y-75300000D03*
X91050000Y-70000000D03*
X92070000Y-63490000D03*
X91820000Y-76460000D03*
X92870000Y-62200000D03*
X94410000Y-69860000D03*
X88100000Y-77550000D03*
X87750000Y-63100000D03*
X89160000Y-68530000D03*
X89570000Y-75420000D03*
X85650000Y-72810000D03*
X93650000Y-67330000D03*
X90100000Y-63600000D03*
X95220000Y-62240000D03*
X88685000Y-76550000D03*
X85020000Y-71230000D03*
X92790000Y-73870000D03*
X85030000Y-66580000D03*
X88130000Y-74570000D03*
X82550000Y-62220000D03*
X92510000Y-65000000D03*
X88480000Y-73630000D03*
X85090000Y-63100000D03*
X90760000Y-76470000D03*
X82570000Y-64880000D03*
X85650000Y-71220000D03*
X85750000Y-76640000D03*
X88140000Y-71110000D03*
X87400000Y-64380000D03*
X88180000Y-65830000D03*
X88490000Y-72630000D03*
X95420000Y-77590000D03*
X87160000Y-65410000D03*
X91125000Y-64790000D03*
X85150000Y-76640000D03*
X85030000Y-69850000D03*
X89160000Y-73960000D03*
X88970000Y-64540000D03*
X88320000Y-66830000D03*
G04 #@! TO.N,/TC8*
X92095000Y-74134644D03*
G04 #@! TO.N,/TC2*
X92869124Y-72340000D03*
G04 #@! TO.N,/TC1*
X92116557Y-70060239D03*
X92400000Y-66630000D03*
G04 #@! TO.N,/TC0.5*
X91660000Y-69695000D03*
X91680000Y-65190000D03*
G04 #@! TO.N,Net-(U2-Data)*
X87001611Y-69690000D03*
X86200000Y-67960000D03*
G04 #@! TO.N,/VDD*
X86420000Y-74150000D03*
X87720000Y-70650000D03*
X87145942Y-67830000D03*
X87520000Y-66040000D03*
G04 #@! TO.N,/RFin*
X90150000Y-64800000D03*
G04 #@! TO.N,/X16.2*
X89040000Y-75860000D03*
X91090000Y-70570000D03*
G04 #@! TD*
D23*
G04 #@! TO.N,+3V3*
X83840000Y-71120000D02*
X84665000Y-71945000D01*
X83820000Y-71120000D02*
X83840000Y-71120000D01*
X84665000Y-71945000D02*
X86420000Y-71945000D01*
D24*
G04 #@! TO.N,GND*
X89160000Y-73960000D02*
X89160000Y-73130000D01*
D25*
X86385000Y-62130000D02*
X85970000Y-62130000D01*
D24*
X87120000Y-69000000D02*
X86535000Y-69000000D01*
X89150000Y-68540000D02*
X89160000Y-68530000D01*
X88650000Y-68330000D02*
X89650000Y-67330000D01*
X86535000Y-69000000D02*
X86450000Y-68915000D01*
X88660000Y-73810000D02*
X88480000Y-73630000D01*
D23*
X86665000Y-64600000D02*
X86665000Y-64705000D01*
D24*
X86435000Y-76640000D02*
X86440000Y-76635000D01*
X87710000Y-72130000D02*
X88480000Y-72130000D01*
X89650000Y-68530000D02*
X89660000Y-68520000D01*
X89470000Y-73960000D02*
X89160000Y-73960000D01*
X88310000Y-67320000D02*
X89640000Y-67320000D01*
X89650000Y-67330000D02*
X89650000Y-67520000D01*
X87710000Y-67320000D02*
X87700000Y-67330000D01*
X87710000Y-72630000D02*
X87120000Y-72630000D01*
X86665000Y-62410000D02*
X86595000Y-62340000D01*
X89150000Y-66830000D02*
X89650000Y-67330000D01*
X87700000Y-66830000D02*
X89150000Y-66830000D01*
D23*
X86665000Y-63920000D02*
X86665000Y-63080000D01*
D24*
X89660000Y-72630000D02*
X91100000Y-72630000D01*
D23*
X86665000Y-64705000D02*
X86400000Y-64970000D01*
D25*
X86595000Y-62340000D02*
X86385000Y-62130000D01*
D24*
X86630000Y-63920000D02*
X86665000Y-63920000D01*
D23*
X86665000Y-64600000D02*
X86665000Y-63920000D01*
D24*
X91600000Y-67330000D02*
X90990000Y-67330000D01*
X88660000Y-74580000D02*
X88660000Y-73810000D01*
X87120000Y-72630000D02*
X87110000Y-72620000D01*
X89150000Y-69280000D02*
X89150000Y-68540000D01*
X88310000Y-67320000D02*
X87710000Y-67320000D01*
X89660000Y-74580000D02*
X89660000Y-74150000D01*
D23*
X86665000Y-63080000D02*
X86665000Y-62410000D01*
D24*
X89660000Y-67320000D02*
X89650000Y-67330000D01*
X87700000Y-68330000D02*
X88650000Y-68330000D01*
X87710000Y-73630000D02*
X88480000Y-73630000D01*
D25*
X85750000Y-76640000D02*
X86435000Y-76640000D01*
D24*
X89160000Y-73130000D02*
X89660000Y-72630000D01*
X90980000Y-67320000D02*
X89660000Y-67320000D01*
X89160000Y-74580000D02*
X89160000Y-73960000D01*
X88650000Y-69280000D02*
X88650000Y-68520000D01*
X89650000Y-69280000D02*
X89650000Y-68530000D01*
D23*
X86400000Y-64970000D02*
X86400000Y-65415000D01*
D24*
X91610000Y-72630000D02*
X91100000Y-72630000D01*
X88480000Y-72130000D02*
X88490000Y-72120000D01*
X90990000Y-67330000D02*
X90980000Y-67320000D01*
X89650000Y-67520000D02*
X88650000Y-68520000D01*
X87710000Y-72630000D02*
X88490000Y-72630000D01*
X89660000Y-74150000D02*
X89470000Y-73960000D01*
X89640000Y-67320000D02*
X89650000Y-67330000D01*
G04 #@! TO.N,/TC8*
X90911752Y-74340000D02*
X90670000Y-74340000D01*
X91984386Y-74134644D02*
X91929030Y-74190000D01*
X90670000Y-74570000D02*
X90660000Y-74580000D01*
X90670000Y-74340000D02*
X90670000Y-74570000D01*
X91061752Y-74190000D02*
X90911752Y-74340000D01*
X91929030Y-74190000D02*
X91061752Y-74190000D01*
X92095000Y-74134644D02*
X91984386Y-74134644D01*
X92140000Y-69280000D02*
X93980000Y-71120000D01*
X90650000Y-69280000D02*
X92140000Y-69280000D01*
G04 #@! TO.N,/TC16*
X84980000Y-76200000D02*
X83820000Y-76200000D01*
X87240000Y-75910000D02*
X85270000Y-75910000D01*
X92920000Y-64790000D02*
X92640000Y-64510000D01*
X95540000Y-76870000D02*
X95540000Y-65119461D01*
X87855000Y-76550000D02*
X87855000Y-76595000D01*
X88620000Y-77360000D02*
X95050000Y-77360000D01*
X92640000Y-64510000D02*
X92640000Y-63415000D01*
X87855000Y-76595000D02*
X88620000Y-77360000D01*
X87855000Y-76525000D02*
X87240000Y-75910000D01*
X95050000Y-77360000D02*
X95540000Y-76870000D01*
X85270000Y-75910000D02*
X84980000Y-76200000D01*
X87855000Y-76550000D02*
X87855000Y-76525000D01*
X95540000Y-65119461D02*
X95210539Y-64790000D01*
X92640000Y-63415000D02*
X91545000Y-62320000D01*
X87855000Y-76550000D02*
X87925000Y-76620000D01*
X95210539Y-64790000D02*
X92920000Y-64790000D01*
G04 #@! TO.N,/TC2*
X92869124Y-72340000D02*
X92739124Y-72470000D01*
X91610000Y-67840000D02*
X92370000Y-67840000D01*
X93980000Y-66230000D02*
X93980000Y-66040000D01*
X92739124Y-72510876D02*
X92120000Y-73130000D01*
X92120000Y-73130000D02*
X91610000Y-73130000D01*
X91600000Y-67830000D02*
X91610000Y-67840000D01*
X92370000Y-67840000D02*
X93980000Y-66230000D01*
X92739124Y-72470000D02*
X92739124Y-72510876D01*
G04 #@! TO.N,/TC1*
X91970000Y-66830000D02*
X91600000Y-66830000D01*
X92170000Y-66630000D02*
X91970000Y-66830000D01*
X92070000Y-72130000D02*
X91610000Y-72130000D01*
X92360000Y-71840000D02*
X92070000Y-72130000D01*
X92116557Y-70060239D02*
X92360000Y-70303682D01*
X92360000Y-70303682D02*
X92360000Y-71840000D01*
X92400000Y-66630000D02*
X92170000Y-66630000D01*
G04 #@! TO.N,/TC4*
X93600000Y-72300000D02*
X94530000Y-72300000D01*
X95040000Y-71790000D02*
X95040000Y-69639999D01*
X94530000Y-72300000D02*
X95040000Y-71790000D01*
X91610000Y-73630000D02*
X92270000Y-73630000D01*
X92270000Y-73630000D02*
X93600000Y-72300000D01*
X95040000Y-69639999D02*
X93980000Y-68579999D01*
X93730001Y-68330000D02*
X93980000Y-68579999D01*
X91600000Y-68330000D02*
X93730001Y-68330000D01*
G04 #@! TO.N,/TC0.5*
X91680000Y-65190000D02*
X91680000Y-66300000D01*
X91680000Y-66300000D02*
X91650000Y-66330000D01*
X91650000Y-66330000D02*
X91600000Y-66330000D01*
X91660000Y-71580000D02*
X91610000Y-71630000D01*
X91660000Y-69695000D02*
X91660000Y-71580000D01*
G04 #@! TO.N,/XDAT*
X90320000Y-63130000D02*
X89630000Y-63130000D01*
X89950000Y-64360000D02*
X90340000Y-64360000D01*
X90580000Y-64120000D02*
X90580000Y-63390000D01*
X90580000Y-63390000D02*
X90320000Y-63130000D01*
X89240000Y-62740000D02*
X89240000Y-62510000D01*
X89070000Y-62340000D02*
X88245000Y-62340000D01*
X89240000Y-62510000D02*
X89070000Y-62340000D01*
X89650000Y-65380000D02*
X89650000Y-64660000D01*
X89630000Y-63130000D02*
X89240000Y-62740000D01*
X90340000Y-64360000D02*
X90580000Y-64120000D01*
X89650000Y-64660000D02*
X89950000Y-64360000D01*
G04 #@! TO.N,Net-(U1-RF2)*
X90150000Y-70670000D02*
X90160000Y-70680000D01*
D26*
X90150000Y-69280000D02*
X90150000Y-70670000D01*
D24*
G04 #@! TO.N,Net-(U2-Data)*
X86400000Y-67760000D02*
X86200000Y-67960000D01*
X88250000Y-70010000D02*
X88255000Y-70005000D01*
X88255000Y-70005000D02*
X89364030Y-70005000D01*
X87001611Y-69690000D02*
X87321611Y-70010000D01*
X87321611Y-70010000D02*
X88250000Y-70010000D01*
X86400000Y-67065000D02*
X86400000Y-67760000D01*
X89660000Y-70300970D02*
X89660000Y-70680000D01*
X89364030Y-70005000D02*
X89660000Y-70300970D01*
D27*
G04 #@! TO.N,/VDD*
X87880000Y-65380000D02*
X88265000Y-65380000D01*
X87530000Y-66030000D02*
X87530000Y-65730000D01*
D23*
X86420000Y-73595000D02*
X86420000Y-74150000D01*
D27*
X88650000Y-65380000D02*
X88265000Y-65380000D01*
D24*
X87720000Y-70650000D02*
X87750000Y-70680000D01*
X87710000Y-73130000D02*
X86930000Y-73130000D01*
X86465000Y-73595000D02*
X86420000Y-73595000D01*
X87720000Y-70650000D02*
X87720000Y-71440000D01*
X87720000Y-70650000D02*
X87720000Y-70640000D01*
X87710000Y-71450000D02*
X87710000Y-71630000D01*
X86930000Y-73130000D02*
X86465000Y-73595000D01*
D27*
X87520000Y-66040000D02*
X87530000Y-66030000D01*
D24*
X87720000Y-71440000D02*
X87710000Y-71450000D01*
X87520000Y-66040000D02*
X87700000Y-66220000D01*
D23*
X86420000Y-74150000D02*
X86420000Y-75065000D01*
D27*
X88215000Y-63920000D02*
X88215000Y-65330000D01*
D24*
X87720000Y-70640000D02*
X87545000Y-70465000D01*
X87750000Y-70680000D02*
X88660000Y-70680000D01*
X87700000Y-66220000D02*
X87700000Y-66330000D01*
D27*
X88215000Y-65330000D02*
X88265000Y-65380000D01*
D24*
X87545000Y-70465000D02*
X86450000Y-70465000D01*
X87145942Y-67830000D02*
X87700000Y-67830000D01*
X86420000Y-75065000D02*
X86440000Y-75085000D01*
D27*
X87530000Y-65730000D02*
X87880000Y-65380000D01*
D26*
G04 #@! TO.N,/RFin*
X90150000Y-65380000D02*
X90150000Y-64800000D01*
D25*
G04 #@! TO.N,/RFout*
X90665685Y-75780000D02*
X91686497Y-75780000D01*
X90277268Y-75557268D02*
X90382843Y-75662843D01*
X90160009Y-75247790D02*
X90160101Y-75261482D01*
X93972182Y-73660000D02*
X93980000Y-73660000D01*
X91969340Y-75662842D02*
X93972182Y-73660000D01*
X90160000Y-74580000D02*
X90160000Y-75245104D01*
X90160110Y-75264169D02*
X90160110Y-75274425D01*
X90277268Y-75557268D02*
G75*
G02*
X90160090Y-75274425I282832J282868D01*
G01*
X90382843Y-75662843D02*
G75*
G03*
X90665685Y-75780010I282857J282843D01*
G01*
X90160101Y-75261482D02*
G75*
G02*
X90160110Y-75264169I-360801J-2518D01*
G01*
X91686497Y-75780000D02*
G75*
G03*
X91969342Y-75662844I3J400000D01*
G01*
X90160009Y-75247790D02*
G75*
G02*
X90160000Y-75245104I360691J2590D01*
G01*
D24*
G04 #@! TO.N,/X16.1*
X90650000Y-65380000D02*
X90650000Y-64593248D01*
X90900000Y-62770000D02*
X90450000Y-62320000D01*
X90900000Y-64343248D02*
X90900000Y-62770000D01*
X90450000Y-62320000D02*
X89895000Y-62320000D01*
X90650000Y-64593248D02*
X90900000Y-64343248D01*
G04 #@! TO.N,/X16.2*
X91090000Y-70570000D02*
X90980000Y-70680000D01*
X89530000Y-76350000D02*
X89530000Y-76505000D01*
X89040000Y-75860000D02*
X89530000Y-76350000D01*
X89530000Y-76505000D02*
X89505000Y-76530000D01*
X90980000Y-70680000D02*
X90660000Y-70680000D01*
X89505000Y-76530000D02*
X89505000Y-76550000D01*
G04 #@! TD*
G04 #@! TA.AperFunction,Conductor*
G04 #@! TO.N,GND*
G36*
X87697902Y-61863174D02*
G01*
X87719576Y-61915500D01*
X87712057Y-61947998D01*
X87704427Y-61963607D01*
X87694500Y-62031735D01*
X87694500Y-62648264D01*
X87704427Y-62716393D01*
X87704427Y-62716394D01*
X87755801Y-62821482D01*
X87755802Y-62821483D01*
X87838517Y-62904198D01*
X87943607Y-62955573D01*
X88011740Y-62965500D01*
X88011746Y-62965500D01*
X88478254Y-62965500D01*
X88478260Y-62965500D01*
X88546393Y-62955573D01*
X88651483Y-62904198D01*
X88734198Y-62821483D01*
X88785573Y-62716393D01*
X88795500Y-62648260D01*
X88795500Y-62624500D01*
X88817174Y-62572174D01*
X88869500Y-62550500D01*
X88952156Y-62550500D01*
X89004482Y-62572174D01*
X89007826Y-62575518D01*
X89029500Y-62627844D01*
X89029500Y-62781870D01*
X89029499Y-62781870D01*
X89061546Y-62859238D01*
X89061547Y-62859239D01*
X89510761Y-63308453D01*
X89588129Y-63340500D01*
X89671870Y-63340500D01*
X90202156Y-63340500D01*
X90254482Y-63362174D01*
X90347826Y-63455518D01*
X90369500Y-63507844D01*
X90369500Y-64002156D01*
X90347826Y-64054482D01*
X90274482Y-64127826D01*
X90222156Y-64149500D01*
X89991871Y-64149500D01*
X89908129Y-64149500D01*
X89885469Y-64158886D01*
X89830761Y-64181546D01*
X89830760Y-64181548D01*
X89471548Y-64540760D01*
X89471546Y-64540761D01*
X89439500Y-64618129D01*
X89439500Y-64799558D01*
X89417826Y-64851884D01*
X89365500Y-64873558D01*
X89324389Y-64861087D01*
X89295610Y-64841858D01*
X89236677Y-64830136D01*
X89233480Y-64829500D01*
X89066520Y-64829500D01*
X89063323Y-64830136D01*
X89004391Y-64841857D01*
X88941112Y-64884139D01*
X88885563Y-64895188D01*
X88858888Y-64884139D01*
X88795608Y-64841857D01*
X88736677Y-64830136D01*
X88733480Y-64829500D01*
X88566520Y-64829500D01*
X88566519Y-64829500D01*
X88528935Y-64836975D01*
X88521502Y-64835496D01*
X88514500Y-64838397D01*
X88494557Y-64830136D01*
X88473386Y-64825925D01*
X88469175Y-64819623D01*
X88462174Y-64816723D01*
X88453913Y-64796779D01*
X88441922Y-64778832D01*
X88440500Y-64764397D01*
X88440500Y-64614618D01*
X88462174Y-64562292D01*
X88503829Y-64541392D01*
X88548625Y-64534866D01*
X88661211Y-64479826D01*
X88749826Y-64391211D01*
X88804866Y-64278625D01*
X88815500Y-64205636D01*
X88815500Y-63634364D01*
X88804866Y-63561375D01*
X88749826Y-63448789D01*
X88661211Y-63360174D01*
X88661210Y-63360173D01*
X88548626Y-63305134D01*
X88475640Y-63294500D01*
X88475636Y-63294500D01*
X87954364Y-63294500D01*
X87954359Y-63294500D01*
X87881374Y-63305134D01*
X87881373Y-63305134D01*
X87768789Y-63360173D01*
X87680173Y-63448789D01*
X87625134Y-63561373D01*
X87625134Y-63561374D01*
X87614500Y-63634359D01*
X87614500Y-64205640D01*
X87625134Y-64278625D01*
X87625134Y-64278626D01*
X87680173Y-64391210D01*
X87680174Y-64391211D01*
X87768789Y-64479826D01*
X87881375Y-64534866D01*
X87926170Y-64541392D01*
X87974822Y-64570382D01*
X87989500Y-64614618D01*
X87989500Y-65080499D01*
X87967826Y-65132825D01*
X87915500Y-65154499D01*
X87835146Y-65154499D01*
X87786594Y-65174608D01*
X87786595Y-65174609D01*
X87752267Y-65188828D01*
X87752265Y-65188829D01*
X87688830Y-65252264D01*
X87338830Y-65602263D01*
X87328774Y-65626536D01*
X87328775Y-65626537D01*
X87304499Y-65685146D01*
X87304499Y-65729168D01*
X87282825Y-65781493D01*
X87239531Y-65824787D01*
X87239529Y-65824790D01*
X87193386Y-65904710D01*
X87193384Y-65904715D01*
X87169500Y-65993853D01*
X87169500Y-65993856D01*
X87169500Y-66086144D01*
X87176946Y-66113934D01*
X87177425Y-66115721D01*
X87170031Y-66171874D01*
X87167486Y-66175966D01*
X87163473Y-66181973D01*
X87161857Y-66184392D01*
X87149500Y-66246520D01*
X87149500Y-66413479D01*
X87161857Y-66475608D01*
X87204140Y-66538888D01*
X87208935Y-66546065D01*
X87279391Y-66593142D01*
X87341520Y-66605500D01*
X87341521Y-66605500D01*
X88058479Y-66605500D01*
X88058480Y-66605500D01*
X88120609Y-66593142D01*
X88191065Y-66546065D01*
X88238142Y-66475609D01*
X88250500Y-66413480D01*
X88250500Y-66246520D01*
X91049500Y-66246520D01*
X91049500Y-66413479D01*
X91061857Y-66475608D01*
X91104139Y-66538888D01*
X91115188Y-66594437D01*
X91104139Y-66621112D01*
X91061857Y-66684391D01*
X91049500Y-66746520D01*
X91049500Y-66913479D01*
X91061857Y-66975608D01*
X91105217Y-67040500D01*
X91108935Y-67046065D01*
X91179391Y-67093142D01*
X91241520Y-67105500D01*
X91241521Y-67105500D01*
X91958479Y-67105500D01*
X91958480Y-67105500D01*
X92020609Y-67093142D01*
X92091065Y-67046065D01*
X92138142Y-66975609D01*
X92138142Y-66975608D01*
X92142191Y-66969549D01*
X92144682Y-66971213D01*
X92176657Y-66939223D01*
X92233295Y-66939208D01*
X92241987Y-66943493D01*
X92264712Y-66956614D01*
X92264714Y-66956614D01*
X92264715Y-66956615D01*
X92284361Y-66961879D01*
X92353853Y-66980499D01*
X92353854Y-66980500D01*
X92353856Y-66980500D01*
X92446146Y-66980500D01*
X92446146Y-66980499D01*
X92535288Y-66956614D01*
X92615212Y-66910469D01*
X92680469Y-66845212D01*
X92726614Y-66765288D01*
X92750499Y-66676146D01*
X92750500Y-66676146D01*
X92750500Y-66583854D01*
X92750499Y-66583853D01*
X92726615Y-66494715D01*
X92726613Y-66494710D01*
X92680471Y-66414791D01*
X92680470Y-66414790D01*
X92680469Y-66414788D01*
X92615212Y-66349531D01*
X92615209Y-66349529D01*
X92615208Y-66349528D01*
X92535289Y-66303386D01*
X92535284Y-66303384D01*
X92446146Y-66279500D01*
X92446144Y-66279500D01*
X92353856Y-66279500D01*
X92353854Y-66279500D01*
X92264715Y-66303384D01*
X92264707Y-66303387D01*
X92261333Y-66305336D01*
X92205179Y-66312724D01*
X92160249Y-66278242D01*
X92150694Y-66248496D01*
X92150500Y-66246526D01*
X92150500Y-66246520D01*
X92138142Y-66184391D01*
X92091065Y-66113935D01*
X92020609Y-66066858D01*
X92020608Y-66066857D01*
X91958477Y-66054499D01*
X91957243Y-66054378D01*
X91956873Y-66054180D01*
X91954915Y-66053791D01*
X91955033Y-66053196D01*
X91907295Y-66027678D01*
X91890500Y-65980735D01*
X91890500Y-65505832D01*
X91912173Y-65453507D01*
X91960469Y-65405212D01*
X92006614Y-65325288D01*
X92030499Y-65236146D01*
X92030500Y-65236146D01*
X92030500Y-65143854D01*
X92030499Y-65143853D01*
X92006615Y-65054715D01*
X92006613Y-65054710D01*
X91960471Y-64974791D01*
X91960470Y-64974790D01*
X91960469Y-64974788D01*
X91895212Y-64909531D01*
X91895209Y-64909529D01*
X91895208Y-64909528D01*
X91815289Y-64863386D01*
X91815284Y-64863384D01*
X91726146Y-64839500D01*
X91726144Y-64839500D01*
X91633856Y-64839500D01*
X91633854Y-64839500D01*
X91544715Y-64863384D01*
X91544710Y-64863386D01*
X91464791Y-64909528D01*
X91399528Y-64974791D01*
X91353386Y-65054710D01*
X91353384Y-65054715D01*
X91329500Y-65143853D01*
X91329500Y-65236146D01*
X91353384Y-65325284D01*
X91353386Y-65325289D01*
X91399528Y-65405208D01*
X91399529Y-65405209D01*
X91399531Y-65405212D01*
X91447826Y-65453507D01*
X91469500Y-65505832D01*
X91469500Y-65980500D01*
X91447826Y-66032826D01*
X91395500Y-66054500D01*
X91241520Y-66054500D01*
X91231213Y-66056550D01*
X91179391Y-66066857D01*
X91108935Y-66113934D01*
X91108934Y-66113935D01*
X91061857Y-66184391D01*
X91049500Y-66246520D01*
X88250500Y-66246520D01*
X88238142Y-66184391D01*
X88191065Y-66113935D01*
X88120609Y-66066858D01*
X88120608Y-66066857D01*
X88070837Y-66056957D01*
X88058480Y-66054500D01*
X88058479Y-66054500D01*
X87943380Y-66054500D01*
X87891054Y-66032826D01*
X87873874Y-65997973D01*
X87871756Y-65998541D01*
X87846615Y-65904715D01*
X87846613Y-65904710D01*
X87811894Y-65844576D01*
X87804501Y-65788424D01*
X87823652Y-65755252D01*
X87951731Y-65627174D01*
X88004057Y-65605500D01*
X88211527Y-65605500D01*
X88220144Y-65605500D01*
X88220146Y-65605501D01*
X88300501Y-65605501D01*
X88315826Y-65611849D01*
X88352826Y-65627175D01*
X88374500Y-65679501D01*
X88374500Y-65738479D01*
X88386857Y-65800608D01*
X88416236Y-65844576D01*
X88433935Y-65871065D01*
X88504391Y-65918142D01*
X88566520Y-65930500D01*
X88566521Y-65930500D01*
X88733479Y-65930500D01*
X88733480Y-65930500D01*
X88795609Y-65918142D01*
X88858889Y-65875859D01*
X88914437Y-65864811D01*
X88941110Y-65875859D01*
X89004391Y-65918142D01*
X89066520Y-65930500D01*
X89066521Y-65930500D01*
X89233479Y-65930500D01*
X89233480Y-65930500D01*
X89295609Y-65918142D01*
X89358889Y-65875859D01*
X89414437Y-65864811D01*
X89441110Y-65875859D01*
X89504391Y-65918142D01*
X89566520Y-65930500D01*
X89566521Y-65930500D01*
X89733479Y-65930500D01*
X89733480Y-65930500D01*
X89795609Y-65918142D01*
X89858889Y-65875859D01*
X89914437Y-65864811D01*
X89941110Y-65875859D01*
X90004391Y-65918142D01*
X90066520Y-65930500D01*
X90066521Y-65930500D01*
X90233479Y-65930500D01*
X90233480Y-65930500D01*
X90295609Y-65918142D01*
X90358889Y-65875859D01*
X90414437Y-65864811D01*
X90441110Y-65875859D01*
X90504391Y-65918142D01*
X90566520Y-65930500D01*
X90566521Y-65930500D01*
X90733479Y-65930500D01*
X90733480Y-65930500D01*
X90795609Y-65918142D01*
X90866065Y-65871065D01*
X90913142Y-65800609D01*
X90925500Y-65738480D01*
X90925500Y-65021520D01*
X90913142Y-64959391D01*
X90872970Y-64899270D01*
X90860500Y-64858159D01*
X90860500Y-64711092D01*
X90882174Y-64658766D01*
X91078452Y-64462488D01*
X91078453Y-64462487D01*
X91110500Y-64385119D01*
X91110500Y-64301378D01*
X91110500Y-62989046D01*
X91132174Y-62936720D01*
X91184500Y-62915046D01*
X91216999Y-62922565D01*
X91243607Y-62935573D01*
X91311740Y-62945500D01*
X91311746Y-62945500D01*
X91778254Y-62945500D01*
X91778260Y-62945500D01*
X91824043Y-62938829D01*
X91878947Y-62952732D01*
X91887038Y-62959730D01*
X92407826Y-63480518D01*
X92429500Y-63532844D01*
X92429500Y-64551870D01*
X92429499Y-64551870D01*
X92461546Y-64629238D01*
X92461547Y-64629239D01*
X92741547Y-64909239D01*
X92800761Y-64968453D01*
X92878129Y-65000500D01*
X92878130Y-65000500D01*
X92961871Y-65000500D01*
X93503119Y-65000500D01*
X93555445Y-65022174D01*
X93577119Y-65074500D01*
X93555445Y-65126826D01*
X93531437Y-65142867D01*
X93506086Y-65153367D01*
X93342218Y-65262860D01*
X93342217Y-65262862D01*
X93202862Y-65402217D01*
X93202860Y-65402218D01*
X93093367Y-65566086D01*
X93017950Y-65748160D01*
X93017947Y-65748170D01*
X92986809Y-65904715D01*
X92979500Y-65941459D01*
X92979500Y-66138541D01*
X92992200Y-66202388D01*
X93017947Y-66331829D01*
X93017950Y-66331839D01*
X93093367Y-66513913D01*
X93123841Y-66559521D01*
X93181804Y-66646268D01*
X93192853Y-66701815D01*
X93172601Y-66739705D01*
X92304482Y-67607826D01*
X92252156Y-67629500D01*
X92136808Y-67629500D01*
X92095696Y-67617029D01*
X92020608Y-67566857D01*
X91970837Y-67556957D01*
X91958480Y-67554500D01*
X91241520Y-67554500D01*
X91231213Y-67556550D01*
X91179391Y-67566857D01*
X91108935Y-67613934D01*
X91108934Y-67613935D01*
X91061857Y-67684391D01*
X91049500Y-67746520D01*
X91049500Y-67913479D01*
X91061857Y-67975608D01*
X91104139Y-68038888D01*
X91115188Y-68094437D01*
X91104139Y-68121112D01*
X91061857Y-68184391D01*
X91049500Y-68246520D01*
X91049500Y-68413479D01*
X91061857Y-68475608D01*
X91105217Y-68540500D01*
X91108935Y-68546065D01*
X91179391Y-68593142D01*
X91241520Y-68605500D01*
X91241521Y-68605500D01*
X91958479Y-68605500D01*
X91958480Y-68605500D01*
X92020609Y-68593142D01*
X92080729Y-68552970D01*
X92121841Y-68540500D01*
X92905500Y-68540500D01*
X92957826Y-68562174D01*
X92979500Y-68614500D01*
X92979500Y-68678538D01*
X93017947Y-68871828D01*
X93017950Y-68871838D01*
X93093367Y-69053912D01*
X93168134Y-69165808D01*
X93202861Y-69217781D01*
X93342218Y-69357138D01*
X93506086Y-69466631D01*
X93688165Y-69542050D01*
X93881459Y-69580499D01*
X93881461Y-69580499D01*
X94078539Y-69580499D01*
X94078541Y-69580499D01*
X94271835Y-69542050D01*
X94453914Y-69466631D01*
X94472372Y-69454297D01*
X94527918Y-69443248D01*
X94565809Y-69463500D01*
X94807826Y-69705517D01*
X94829500Y-69757843D01*
X94829500Y-70375927D01*
X94807826Y-70428253D01*
X94755500Y-70449927D01*
X94703174Y-70428253D01*
X94617781Y-70342860D01*
X94453913Y-70233367D01*
X94271839Y-70157950D01*
X94271829Y-70157947D01*
X94138230Y-70131373D01*
X94078541Y-70119500D01*
X93881459Y-70119500D01*
X93831186Y-70129500D01*
X93688170Y-70157947D01*
X93688160Y-70157950D01*
X93506085Y-70233367D01*
X93487624Y-70245702D01*
X93432074Y-70256748D01*
X93394189Y-70236497D01*
X92259238Y-69101546D01*
X92188797Y-69072369D01*
X92181871Y-69069500D01*
X92181870Y-69069500D01*
X90999500Y-69069500D01*
X90947174Y-69047826D01*
X90925500Y-68995500D01*
X90925500Y-68921520D01*
X90913142Y-68859391D01*
X90866065Y-68788935D01*
X90866064Y-68788934D01*
X90795608Y-68741857D01*
X90745837Y-68731957D01*
X90733480Y-68729500D01*
X90566520Y-68729500D01*
X90556213Y-68731550D01*
X90504391Y-68741857D01*
X90441112Y-68784139D01*
X90385563Y-68795188D01*
X90358888Y-68784139D01*
X90295608Y-68741857D01*
X90245837Y-68731957D01*
X90233480Y-68729500D01*
X90066520Y-68729500D01*
X90056213Y-68731550D01*
X90004391Y-68741857D01*
X89933935Y-68788934D01*
X89933934Y-68788935D01*
X89886857Y-68859391D01*
X89874500Y-68921520D01*
X89874500Y-69638479D01*
X89886857Y-69700607D01*
X89886857Y-69700608D01*
X89886858Y-69700609D01*
X89887027Y-69700862D01*
X89887204Y-69701445D01*
X89889647Y-69707343D01*
X89889066Y-69707583D01*
X89899500Y-69741976D01*
X89899500Y-70064126D01*
X89877826Y-70116452D01*
X89825500Y-70138126D01*
X89773174Y-70116452D01*
X89483268Y-69826546D01*
X89437947Y-69807773D01*
X89405901Y-69794500D01*
X88296871Y-69794500D01*
X88213129Y-69794500D01*
X88205981Y-69795922D01*
X88205918Y-69795605D01*
X88186339Y-69799500D01*
X87439455Y-69799500D01*
X87387129Y-69777826D01*
X87373785Y-69764482D01*
X87352111Y-69712156D01*
X87352111Y-69643854D01*
X87352110Y-69643853D01*
X87350670Y-69638480D01*
X87328225Y-69554712D01*
X87320915Y-69542051D01*
X87282082Y-69474791D01*
X87282081Y-69474790D01*
X87282080Y-69474788D01*
X87216823Y-69409531D01*
X87216820Y-69409529D01*
X87216819Y-69409528D01*
X87136900Y-69363386D01*
X87136895Y-69363384D01*
X87047757Y-69339500D01*
X87047755Y-69339500D01*
X86955467Y-69339500D01*
X86955465Y-69339500D01*
X86866326Y-69363384D01*
X86866321Y-69363386D01*
X86786402Y-69409528D01*
X86721139Y-69474791D01*
X86674997Y-69554710D01*
X86674995Y-69554715D01*
X86651111Y-69643853D01*
X86651111Y-69736146D01*
X86660543Y-69771347D01*
X86653151Y-69827500D01*
X86608218Y-69861978D01*
X86589065Y-69864500D01*
X86164359Y-69864500D01*
X86091374Y-69875134D01*
X86091373Y-69875134D01*
X85978789Y-69930173D01*
X85890173Y-70018789D01*
X85835134Y-70131373D01*
X85835134Y-70131374D01*
X85824500Y-70204359D01*
X85824500Y-70725640D01*
X85835134Y-70798625D01*
X85835134Y-70798626D01*
X85890173Y-70911210D01*
X85890174Y-70911211D01*
X85978789Y-70999826D01*
X86091375Y-71054866D01*
X86164364Y-71065500D01*
X86164370Y-71065500D01*
X86735630Y-71065500D01*
X86735636Y-71065500D01*
X86808625Y-71054866D01*
X86921211Y-70999826D01*
X87009826Y-70911211D01*
X87064866Y-70798625D01*
X87073577Y-70738829D01*
X87102569Y-70690177D01*
X87146804Y-70675500D01*
X87307186Y-70675500D01*
X87359512Y-70697174D01*
X87378664Y-70730347D01*
X87393384Y-70785284D01*
X87393386Y-70785289D01*
X87439528Y-70865208D01*
X87439529Y-70865209D01*
X87439531Y-70865212D01*
X87487826Y-70913507D01*
X87509500Y-70965832D01*
X87509500Y-71280500D01*
X87487826Y-71332826D01*
X87435500Y-71354500D01*
X87351520Y-71354500D01*
X87341213Y-71356550D01*
X87289391Y-71366857D01*
X87218935Y-71413934D01*
X87218934Y-71413935D01*
X87171857Y-71484391D01*
X87159500Y-71546520D01*
X87159500Y-71577244D01*
X87137826Y-71629570D01*
X87085500Y-71651244D01*
X87033174Y-71629570D01*
X87019019Y-71609745D01*
X86988110Y-71546520D01*
X86984198Y-71538517D01*
X86901483Y-71455802D01*
X86901482Y-71455801D01*
X86796394Y-71404427D01*
X86728264Y-71394500D01*
X86728260Y-71394500D01*
X86111740Y-71394500D01*
X86111735Y-71394500D01*
X86043606Y-71404427D01*
X86043605Y-71404427D01*
X85938517Y-71455801D01*
X85871493Y-71522826D01*
X85819167Y-71544500D01*
X84861545Y-71544500D01*
X84809219Y-71522826D01*
X84792462Y-71506069D01*
X84770788Y-71453743D01*
X84776422Y-71425422D01*
X84782051Y-71411835D01*
X84820500Y-71218541D01*
X84820500Y-71021459D01*
X84782051Y-70828165D01*
X84774871Y-70810832D01*
X84706632Y-70646086D01*
X84597139Y-70482218D01*
X84457781Y-70342860D01*
X84293913Y-70233367D01*
X84111839Y-70157950D01*
X84111829Y-70157947D01*
X83978230Y-70131373D01*
X83918541Y-70119500D01*
X83721459Y-70119500D01*
X83671186Y-70129500D01*
X83528170Y-70157947D01*
X83528160Y-70157950D01*
X83346086Y-70233367D01*
X83182218Y-70342860D01*
X83182217Y-70342862D01*
X83042862Y-70482217D01*
X83042860Y-70482218D01*
X82933367Y-70646086D01*
X82857950Y-70828160D01*
X82857947Y-70828170D01*
X82819500Y-71021460D01*
X82819500Y-71218539D01*
X82857947Y-71411829D01*
X82857950Y-71411839D01*
X82933367Y-71593913D01*
X83013259Y-71713479D01*
X83042861Y-71757782D01*
X83182218Y-71897139D01*
X83346086Y-72006632D01*
X83528165Y-72082051D01*
X83721459Y-72120500D01*
X83721461Y-72120500D01*
X83918539Y-72120500D01*
X83918541Y-72120500D01*
X84111835Y-72082051D01*
X84153711Y-72064704D01*
X84210345Y-72064704D01*
X84234350Y-72080743D01*
X84419087Y-72265480D01*
X84419089Y-72265481D01*
X84419090Y-72265482D01*
X84468230Y-72293853D01*
X84510412Y-72318207D01*
X84612273Y-72345500D01*
X85819167Y-72345500D01*
X85871493Y-72367174D01*
X85938517Y-72434198D01*
X86043607Y-72485573D01*
X86111740Y-72495500D01*
X86111746Y-72495500D01*
X86728254Y-72495500D01*
X86728260Y-72495500D01*
X86796393Y-72485573D01*
X86901483Y-72434198D01*
X86984198Y-72351483D01*
X87035573Y-72246393D01*
X87045500Y-72178260D01*
X87045500Y-71830446D01*
X87067174Y-71778120D01*
X87119500Y-71756446D01*
X87171826Y-71778120D01*
X87181027Y-71789332D01*
X87198576Y-71815595D01*
X87214139Y-71838888D01*
X87218935Y-71846065D01*
X87289391Y-71893142D01*
X87351520Y-71905500D01*
X87351521Y-71905500D01*
X88068479Y-71905500D01*
X88068480Y-71905500D01*
X88130609Y-71893142D01*
X88201065Y-71846065D01*
X88248142Y-71775609D01*
X88260500Y-71713480D01*
X88260500Y-71546520D01*
X88248142Y-71484391D01*
X88201065Y-71413935D01*
X88197929Y-71411839D01*
X88130608Y-71366857D01*
X88080837Y-71356957D01*
X88068480Y-71354500D01*
X88068479Y-71354500D01*
X88004500Y-71354500D01*
X87952174Y-71332826D01*
X87930500Y-71280500D01*
X87930500Y-70965833D01*
X87952174Y-70913507D01*
X87953507Y-70912174D01*
X88005833Y-70890500D01*
X88310500Y-70890500D01*
X88362826Y-70912174D01*
X88384500Y-70964500D01*
X88384500Y-71038479D01*
X88396857Y-71100608D01*
X88410000Y-71120277D01*
X88443935Y-71171065D01*
X88514391Y-71218142D01*
X88576520Y-71230500D01*
X88576521Y-71230500D01*
X88743479Y-71230500D01*
X88743480Y-71230500D01*
X88805609Y-71218142D01*
X88868889Y-71175859D01*
X88924437Y-71164811D01*
X88951110Y-71175859D01*
X89014391Y-71218142D01*
X89076520Y-71230500D01*
X89076521Y-71230500D01*
X89243479Y-71230500D01*
X89243480Y-71230500D01*
X89305609Y-71218142D01*
X89368889Y-71175859D01*
X89424437Y-71164811D01*
X89451110Y-71175859D01*
X89514391Y-71218142D01*
X89576520Y-71230500D01*
X89576521Y-71230500D01*
X89743479Y-71230500D01*
X89743480Y-71230500D01*
X89805609Y-71218142D01*
X89868889Y-71175859D01*
X89924437Y-71164811D01*
X89951110Y-71175859D01*
X90014391Y-71218142D01*
X90076520Y-71230500D01*
X90076521Y-71230500D01*
X90243479Y-71230500D01*
X90243480Y-71230500D01*
X90305609Y-71218142D01*
X90368889Y-71175859D01*
X90424437Y-71164811D01*
X90451110Y-71175859D01*
X90514391Y-71218142D01*
X90576520Y-71230500D01*
X90576521Y-71230500D01*
X90743479Y-71230500D01*
X90743480Y-71230500D01*
X90805609Y-71218142D01*
X90876065Y-71171065D01*
X90923142Y-71100609D01*
X90935500Y-71038480D01*
X90935500Y-70987904D01*
X90957174Y-70935578D01*
X91009500Y-70913904D01*
X91028647Y-70916424D01*
X91043856Y-70920500D01*
X91043857Y-70920500D01*
X91136146Y-70920500D01*
X91136146Y-70920499D01*
X91225288Y-70896614D01*
X91305212Y-70850469D01*
X91323175Y-70832505D01*
X91375500Y-70810832D01*
X91427826Y-70832506D01*
X91449500Y-70884832D01*
X91449500Y-71280500D01*
X91427826Y-71332826D01*
X91375500Y-71354500D01*
X91251520Y-71354500D01*
X91241213Y-71356550D01*
X91189391Y-71366857D01*
X91118935Y-71413934D01*
X91118934Y-71413935D01*
X91071857Y-71484391D01*
X91059500Y-71546520D01*
X91059500Y-71713479D01*
X91071857Y-71775608D01*
X91114139Y-71838888D01*
X91125188Y-71894437D01*
X91114139Y-71921112D01*
X91071857Y-71984391D01*
X91059500Y-72046520D01*
X91059500Y-72213479D01*
X91071857Y-72275608D01*
X91115217Y-72340500D01*
X91118935Y-72346065D01*
X91189391Y-72393142D01*
X91251520Y-72405500D01*
X91251521Y-72405500D01*
X91968479Y-72405500D01*
X91968480Y-72405500D01*
X92030609Y-72393142D01*
X92099304Y-72347241D01*
X92112082Y-72340412D01*
X92189239Y-72308453D01*
X92538453Y-71959239D01*
X92570500Y-71881871D01*
X92570500Y-71798129D01*
X92570500Y-70261811D01*
X92538453Y-70184443D01*
X92538449Y-70184439D01*
X92536429Y-70181414D01*
X92535718Y-70177841D01*
X92535664Y-70177710D01*
X92535690Y-70177699D01*
X92525380Y-70125865D01*
X92556846Y-70078773D01*
X92612395Y-70067724D01*
X92650284Y-70087976D01*
X93096497Y-70534189D01*
X93118171Y-70586515D01*
X93105702Y-70627624D01*
X93093367Y-70646085D01*
X93017950Y-70828160D01*
X93017947Y-70828170D01*
X92979500Y-71021460D01*
X92979500Y-71218539D01*
X93017947Y-71411829D01*
X93017950Y-71411839D01*
X93093367Y-71593913D01*
X93202860Y-71757781D01*
X93342218Y-71897139D01*
X93487449Y-71994179D01*
X93518915Y-72041271D01*
X93507866Y-72096820D01*
X93485359Y-72115312D01*
X93486820Y-72117499D01*
X93480759Y-72121548D01*
X93329026Y-72273281D01*
X93276700Y-72294955D01*
X93224374Y-72273281D01*
X93205222Y-72240108D01*
X93195738Y-72204712D01*
X93149593Y-72124788D01*
X93084336Y-72059531D01*
X93084333Y-72059529D01*
X93084332Y-72059528D01*
X93004413Y-72013386D01*
X93004408Y-72013384D01*
X92915270Y-71989500D01*
X92915268Y-71989500D01*
X92822980Y-71989500D01*
X92822978Y-71989500D01*
X92733839Y-72013384D01*
X92733834Y-72013386D01*
X92653915Y-72059528D01*
X92588652Y-72124791D01*
X92542510Y-72204710D01*
X92542508Y-72204715D01*
X92518624Y-72293853D01*
X92518624Y-72386144D01*
X92519257Y-72390953D01*
X92516449Y-72391322D01*
X92510187Y-72438576D01*
X92498459Y-72453847D01*
X92104318Y-72847988D01*
X92051992Y-72869662D01*
X92037556Y-72868240D01*
X92030609Y-72866858D01*
X91968480Y-72854500D01*
X91251520Y-72854500D01*
X91241213Y-72856550D01*
X91189391Y-72866857D01*
X91118935Y-72913934D01*
X91118934Y-72913935D01*
X91071857Y-72984391D01*
X91059500Y-73046520D01*
X91059500Y-73213479D01*
X91071857Y-73275608D01*
X91114139Y-73338888D01*
X91125188Y-73394437D01*
X91114139Y-73421112D01*
X91071857Y-73484391D01*
X91059500Y-73546520D01*
X91059500Y-73713479D01*
X91071857Y-73775608D01*
X91118934Y-73846064D01*
X91124089Y-73851219D01*
X91122023Y-73853284D01*
X91147267Y-73891062D01*
X91136219Y-73946611D01*
X91089127Y-73978078D01*
X91074689Y-73979500D01*
X91019881Y-73979500D01*
X90997221Y-73988886D01*
X90942513Y-74011546D01*
X90912448Y-74041611D01*
X90860122Y-74063284D01*
X90819011Y-74050813D01*
X90805608Y-74041857D01*
X90755837Y-74031957D01*
X90743480Y-74029500D01*
X90576520Y-74029500D01*
X90566213Y-74031550D01*
X90514391Y-74041857D01*
X90451112Y-74084139D01*
X90395563Y-74095188D01*
X90368888Y-74084139D01*
X90305608Y-74041857D01*
X90255837Y-74031957D01*
X90243480Y-74029500D01*
X90076520Y-74029500D01*
X90066213Y-74031550D01*
X90014391Y-74041857D01*
X89943935Y-74088934D01*
X89943934Y-74088935D01*
X89896857Y-74159391D01*
X89884500Y-74221520D01*
X89884500Y-74438377D01*
X89880380Y-74459098D01*
X89881234Y-74459327D01*
X89859500Y-74540435D01*
X89859500Y-75203641D01*
X89859455Y-75206230D01*
X89859324Y-75209963D01*
X89859250Y-75210248D01*
X89859260Y-75211786D01*
X89859245Y-75212221D01*
X89859498Y-75247931D01*
X89859500Y-75248455D01*
X89859500Y-75288737D01*
X89859600Y-75290255D01*
X89859592Y-75311651D01*
X89859607Y-75311699D01*
X89859610Y-75317593D01*
X89859608Y-75317596D01*
X89859610Y-75317617D01*
X89859610Y-75343418D01*
X89886529Y-75478748D01*
X89886531Y-75478754D01*
X89939335Y-75606235D01*
X90001653Y-75699500D01*
X90015997Y-75720967D01*
X90026576Y-75731546D01*
X90032587Y-75737557D01*
X90032595Y-75737566D01*
X90036808Y-75741779D01*
X90051885Y-75756856D01*
X90064782Y-75769753D01*
X90098436Y-75803408D01*
X90098438Y-75803409D01*
X90170357Y-75875328D01*
X90170356Y-75875328D01*
X90197855Y-75902826D01*
X90219143Y-75924114D01*
X90333874Y-76000775D01*
X90461357Y-76053580D01*
X90596692Y-76080500D01*
X90596694Y-76080500D01*
X91755488Y-76080500D01*
X91755489Y-76080500D01*
X91890825Y-76053580D01*
X91924083Y-76039803D01*
X91948943Y-76029507D01*
X92018305Y-76000776D01*
X92018310Y-76000774D01*
X92133042Y-75924112D01*
X92181828Y-75875326D01*
X92215482Y-75841671D01*
X93474259Y-74582892D01*
X93526584Y-74561219D01*
X93554902Y-74566852D01*
X93688160Y-74622049D01*
X93688165Y-74622051D01*
X93881459Y-74660500D01*
X93881461Y-74660500D01*
X94078539Y-74660500D01*
X94078541Y-74660500D01*
X94271835Y-74622051D01*
X94453914Y-74546632D01*
X94617782Y-74437139D01*
X94757139Y-74297782D01*
X94866632Y-74133914D01*
X94942051Y-73951835D01*
X94980500Y-73758541D01*
X94980500Y-73561459D01*
X94942051Y-73368165D01*
X94939569Y-73362174D01*
X94866632Y-73186086D01*
X94757139Y-73022218D01*
X94617781Y-72882860D01*
X94453913Y-72773367D01*
X94271839Y-72697950D01*
X94271829Y-72697947D01*
X94142388Y-72672200D01*
X94078541Y-72659500D01*
X93881459Y-72659500D01*
X93786601Y-72678368D01*
X93692215Y-72697143D01*
X93636666Y-72686094D01*
X93605200Y-72639002D01*
X93616249Y-72583453D01*
X93625448Y-72572243D01*
X93665519Y-72532173D01*
X93717844Y-72510500D01*
X94571870Y-72510500D01*
X94571871Y-72510500D01*
X94649239Y-72478453D01*
X95203174Y-71924518D01*
X95255500Y-71902844D01*
X95307826Y-71924518D01*
X95329500Y-71976844D01*
X95329500Y-76752156D01*
X95307826Y-76804482D01*
X94984482Y-77127826D01*
X94932156Y-77149500D01*
X94562105Y-77149500D01*
X94509779Y-77127826D01*
X94488105Y-77075500D01*
X94488461Y-77068247D01*
X94489019Y-77062572D01*
X94109409Y-76682962D01*
X94172993Y-76665925D01*
X94287007Y-76600099D01*
X94380099Y-76507007D01*
X94445925Y-76392993D01*
X94462962Y-76329409D01*
X94842573Y-76709020D01*
X94866190Y-76673675D01*
X94941569Y-76491693D01*
X94941572Y-76491682D01*
X94980000Y-76298490D01*
X94980000Y-76101509D01*
X94941572Y-75908317D01*
X94941569Y-75908306D01*
X94866189Y-75726323D01*
X94842572Y-75690979D01*
X94462962Y-76070589D01*
X94445925Y-76007007D01*
X94380099Y-75892993D01*
X94287007Y-75799901D01*
X94172993Y-75734075D01*
X94109407Y-75717037D01*
X94489019Y-75337426D01*
X94489019Y-75337425D01*
X94453675Y-75313809D01*
X94271693Y-75238430D01*
X94271682Y-75238427D01*
X94078490Y-75200000D01*
X93881510Y-75200000D01*
X93688317Y-75238427D01*
X93688306Y-75238430D01*
X93506322Y-75313810D01*
X93470979Y-75337425D01*
X93470979Y-75337426D01*
X93850590Y-75717037D01*
X93787007Y-75734075D01*
X93672993Y-75799901D01*
X93579901Y-75892993D01*
X93514075Y-76007007D01*
X93497037Y-76070590D01*
X93117426Y-75690979D01*
X93117425Y-75690979D01*
X93093810Y-75726322D01*
X93018430Y-75908306D01*
X93018427Y-75908317D01*
X92980000Y-76101509D01*
X92980000Y-76298490D01*
X93018427Y-76491682D01*
X93018430Y-76491693D01*
X93093809Y-76673675D01*
X93117426Y-76709019D01*
X93497037Y-76329408D01*
X93514075Y-76392993D01*
X93579901Y-76507007D01*
X93672993Y-76600099D01*
X93787007Y-76665925D01*
X93850590Y-76682962D01*
X93470979Y-77062572D01*
X93471538Y-77068247D01*
X93455096Y-77122446D01*
X93405147Y-77149144D01*
X93397894Y-77149500D01*
X90053697Y-77149500D01*
X90001371Y-77127826D01*
X89979697Y-77075500D01*
X89991960Y-77037214D01*
X89991505Y-77036992D01*
X89993031Y-77033868D01*
X89993469Y-77032504D01*
X89994193Y-77031487D01*
X89994198Y-77031483D01*
X90045573Y-76926393D01*
X90055500Y-76858260D01*
X90055500Y-76241740D01*
X90045573Y-76173607D01*
X89994198Y-76068517D01*
X89911483Y-75985802D01*
X89911482Y-75985801D01*
X89806394Y-75934427D01*
X89738264Y-75924500D01*
X89738260Y-75924500D01*
X89464500Y-75924500D01*
X89412174Y-75902826D01*
X89390500Y-75850500D01*
X89390500Y-75813854D01*
X89390499Y-75813853D01*
X89366615Y-75724715D01*
X89366613Y-75724710D01*
X89320471Y-75644791D01*
X89320470Y-75644790D01*
X89320469Y-75644788D01*
X89255212Y-75579531D01*
X89255209Y-75579529D01*
X89255208Y-75579528D01*
X89175289Y-75533386D01*
X89175284Y-75533384D01*
X89086146Y-75509500D01*
X89086144Y-75509500D01*
X88993856Y-75509500D01*
X88993854Y-75509500D01*
X88904715Y-75533384D01*
X88904710Y-75533386D01*
X88824791Y-75579528D01*
X88759528Y-75644791D01*
X88713386Y-75724710D01*
X88713384Y-75724715D01*
X88689500Y-75813853D01*
X88689500Y-75906146D01*
X88713384Y-75995284D01*
X88713386Y-75995289D01*
X88759528Y-76075208D01*
X88759529Y-76075209D01*
X88759531Y-76075212D01*
X88824788Y-76140469D01*
X88904712Y-76186614D01*
X88904722Y-76186616D01*
X88908810Y-76188310D01*
X88948864Y-76228354D01*
X88954500Y-76256681D01*
X88954500Y-76858264D01*
X88964427Y-76926393D01*
X88964427Y-76926394D01*
X89015801Y-77031481D01*
X89016531Y-77032504D01*
X89016737Y-77033396D01*
X89018495Y-77036992D01*
X89017663Y-77037398D01*
X89029293Y-77087685D01*
X88999299Y-77135728D01*
X88956303Y-77149500D01*
X88737844Y-77149500D01*
X88685518Y-77127826D01*
X88427174Y-76869482D01*
X88405500Y-76817156D01*
X88405500Y-76241746D01*
X88405500Y-76241740D01*
X88395573Y-76173607D01*
X88344198Y-76068517D01*
X88261483Y-75985802D01*
X88261482Y-75985801D01*
X88156394Y-75934427D01*
X88088264Y-75924500D01*
X88088260Y-75924500D01*
X87621740Y-75924500D01*
X87621734Y-75924500D01*
X87621732Y-75924501D01*
X87597776Y-75927991D01*
X87542872Y-75914087D01*
X87534782Y-75907090D01*
X87359238Y-75731546D01*
X87313917Y-75712773D01*
X87281871Y-75699500D01*
X87010189Y-75699500D01*
X86957863Y-75677826D01*
X86936189Y-75625500D01*
X86957863Y-75573174D01*
X86968820Y-75562217D01*
X86999826Y-75531211D01*
X87054866Y-75418625D01*
X87065500Y-75345636D01*
X87065500Y-74824364D01*
X87054866Y-74751375D01*
X86999826Y-74638789D01*
X86911211Y-74550174D01*
X86911210Y-74550173D01*
X86861998Y-74526114D01*
X86824509Y-74483661D01*
X86820500Y-74459634D01*
X86820500Y-74169980D01*
X86842174Y-74117654D01*
X86861996Y-74103501D01*
X86901483Y-74084198D01*
X86984198Y-74001483D01*
X87035573Y-73896393D01*
X87045500Y-73828260D01*
X87045500Y-73414500D01*
X87067174Y-73362174D01*
X87119500Y-73340500D01*
X87188159Y-73340500D01*
X87229270Y-73352970D01*
X87289391Y-73393142D01*
X87351520Y-73405500D01*
X87351521Y-73405500D01*
X88068479Y-73405500D01*
X88068480Y-73405500D01*
X88130609Y-73393142D01*
X88201065Y-73346065D01*
X88248142Y-73275609D01*
X88260500Y-73213480D01*
X88260500Y-73046520D01*
X88248142Y-72984391D01*
X88201065Y-72913935D01*
X88190730Y-72907029D01*
X88130608Y-72866857D01*
X88080837Y-72856957D01*
X88068480Y-72854500D01*
X87351520Y-72854500D01*
X87341213Y-72856550D01*
X87289391Y-72866857D01*
X87229271Y-72907029D01*
X87188159Y-72919500D01*
X86971870Y-72919500D01*
X86888129Y-72919500D01*
X86865469Y-72928886D01*
X86810761Y-72951546D01*
X86810760Y-72951548D01*
X86739482Y-73022826D01*
X86687156Y-73044500D01*
X86111735Y-73044500D01*
X86043606Y-73054427D01*
X86043605Y-73054427D01*
X85938517Y-73105801D01*
X85855801Y-73188517D01*
X85804427Y-73293605D01*
X85804427Y-73293606D01*
X85794500Y-73361735D01*
X85794500Y-73828264D01*
X85804427Y-73896393D01*
X85804427Y-73896394D01*
X85855801Y-74001482D01*
X85855802Y-74001483D01*
X85938517Y-74084198D01*
X85978000Y-74103499D01*
X86015490Y-74145951D01*
X86019500Y-74169980D01*
X86019500Y-74479190D01*
X85997826Y-74531516D01*
X85978002Y-74545670D01*
X85968788Y-74550174D01*
X85880173Y-74638789D01*
X85825134Y-74751373D01*
X85825134Y-74751374D01*
X85814500Y-74824359D01*
X85814500Y-75345640D01*
X85825134Y-75418625D01*
X85825134Y-75418626D01*
X85880173Y-75531210D01*
X85922137Y-75573174D01*
X85943811Y-75625500D01*
X85922137Y-75677826D01*
X85869811Y-75699500D01*
X85311871Y-75699500D01*
X85228129Y-75699500D01*
X85205469Y-75708886D01*
X85150761Y-75731546D01*
X85150760Y-75731548D01*
X84914482Y-75967826D01*
X84862156Y-75989500D01*
X84858960Y-75989500D01*
X84806634Y-75967826D01*
X84786382Y-75929937D01*
X84782052Y-75908170D01*
X84782051Y-75908169D01*
X84782051Y-75908165D01*
X84754508Y-75841671D01*
X84706632Y-75726086D01*
X84597139Y-75562218D01*
X84457781Y-75422860D01*
X84293913Y-75313367D01*
X84111839Y-75237950D01*
X84111829Y-75237947D01*
X83967753Y-75209289D01*
X83918541Y-75199500D01*
X83721459Y-75199500D01*
X83672247Y-75209289D01*
X83528170Y-75237947D01*
X83528160Y-75237950D01*
X83346086Y-75313367D01*
X83182218Y-75422860D01*
X83182217Y-75422862D01*
X83042862Y-75562217D01*
X83042860Y-75562218D01*
X82933367Y-75726086D01*
X82857950Y-75908160D01*
X82857947Y-75908170D01*
X82819500Y-76101460D01*
X82819500Y-76298539D01*
X82857947Y-76491829D01*
X82857950Y-76491839D01*
X82933367Y-76673913D01*
X83042860Y-76837781D01*
X83182218Y-76977139D01*
X83346086Y-77086632D01*
X83497004Y-77149144D01*
X83528165Y-77162051D01*
X83721459Y-77200500D01*
X83721461Y-77200500D01*
X83918539Y-77200500D01*
X83918541Y-77200500D01*
X84111835Y-77162051D01*
X84293914Y-77086632D01*
X84457782Y-76977139D01*
X84597139Y-76837782D01*
X84706632Y-76673914D01*
X84782051Y-76491835D01*
X84786382Y-76470063D01*
X84817848Y-76422971D01*
X84858960Y-76410500D01*
X85021870Y-76410500D01*
X85021871Y-76410500D01*
X85099239Y-76378453D01*
X85335518Y-76142174D01*
X85387844Y-76120500D01*
X87122156Y-76120500D01*
X87174482Y-76142174D01*
X87282826Y-76250518D01*
X87304500Y-76302844D01*
X87304500Y-76858264D01*
X87314427Y-76926393D01*
X87314427Y-76926394D01*
X87365801Y-77031482D01*
X87365802Y-77031483D01*
X87448517Y-77114198D01*
X87553607Y-77165573D01*
X87621740Y-77175500D01*
X87621746Y-77175500D01*
X88088257Y-77175500D01*
X88088260Y-77175500D01*
X88094764Y-77174552D01*
X88149668Y-77188454D01*
X88157761Y-77195453D01*
X88500761Y-77538453D01*
X88578129Y-77570500D01*
X95091870Y-77570500D01*
X95091871Y-77570500D01*
X95169239Y-77538453D01*
X95518374Y-77189316D01*
X95570700Y-77167643D01*
X95623026Y-77189317D01*
X95644700Y-77241643D01*
X95644700Y-77733700D01*
X95623026Y-77786026D01*
X95570700Y-77807700D01*
X82165500Y-77807700D01*
X82113174Y-77786026D01*
X82091500Y-77733700D01*
X82091500Y-73561509D01*
X82820000Y-73561509D01*
X82820000Y-73758490D01*
X82858427Y-73951682D01*
X82858430Y-73951693D01*
X82933809Y-74133675D01*
X82957426Y-74169019D01*
X83337037Y-73789408D01*
X83354075Y-73852993D01*
X83419901Y-73967007D01*
X83512993Y-74060099D01*
X83627007Y-74125925D01*
X83690590Y-74142962D01*
X83310979Y-74522572D01*
X83310979Y-74522573D01*
X83346323Y-74546189D01*
X83528306Y-74621569D01*
X83528317Y-74621572D01*
X83721510Y-74660000D01*
X83918490Y-74660000D01*
X84111682Y-74621572D01*
X84111693Y-74621569D01*
X84293675Y-74546190D01*
X84329020Y-74522573D01*
X83949409Y-74142962D01*
X84012993Y-74125925D01*
X84127007Y-74060099D01*
X84220099Y-73967007D01*
X84285925Y-73852993D01*
X84302962Y-73789409D01*
X84682573Y-74169020D01*
X84706190Y-74133675D01*
X84781569Y-73951693D01*
X84781572Y-73951682D01*
X84820000Y-73758490D01*
X84820000Y-73561509D01*
X84781572Y-73368317D01*
X84781569Y-73368306D01*
X84706189Y-73186323D01*
X84682572Y-73150979D01*
X84302962Y-73530589D01*
X84285925Y-73467007D01*
X84220099Y-73352993D01*
X84127007Y-73259901D01*
X84012993Y-73194075D01*
X83949407Y-73177037D01*
X84329019Y-72797426D01*
X84329019Y-72797425D01*
X84293675Y-72773809D01*
X84111693Y-72698430D01*
X84111682Y-72698427D01*
X83918490Y-72660000D01*
X83721510Y-72660000D01*
X83528317Y-72698427D01*
X83528306Y-72698430D01*
X83346322Y-72773810D01*
X83310979Y-72797425D01*
X83310979Y-72797426D01*
X83690590Y-73177037D01*
X83627007Y-73194075D01*
X83512993Y-73259901D01*
X83419901Y-73352993D01*
X83354075Y-73467007D01*
X83337037Y-73530590D01*
X82957426Y-73150979D01*
X82957425Y-73150979D01*
X82933810Y-73186322D01*
X82858430Y-73368306D01*
X82858427Y-73368317D01*
X82820000Y-73561509D01*
X82091500Y-73561509D01*
X82091500Y-68481509D01*
X82820000Y-68481509D01*
X82820000Y-68678490D01*
X82858427Y-68871682D01*
X82858430Y-68871693D01*
X82933809Y-69053675D01*
X82957426Y-69089019D01*
X83337037Y-68709408D01*
X83354075Y-68772993D01*
X83419901Y-68887007D01*
X83512993Y-68980099D01*
X83627007Y-69045925D01*
X83690590Y-69062962D01*
X83310979Y-69442572D01*
X83310979Y-69442573D01*
X83346323Y-69466189D01*
X83528306Y-69541569D01*
X83528317Y-69541572D01*
X83721510Y-69580000D01*
X83918490Y-69580000D01*
X84111682Y-69541572D01*
X84111693Y-69541569D01*
X84293675Y-69466190D01*
X84329020Y-69442573D01*
X83949409Y-69062962D01*
X84012993Y-69045925D01*
X84127007Y-68980099D01*
X84220099Y-68887007D01*
X84285925Y-68772993D01*
X84302962Y-68709409D01*
X84682573Y-69089020D01*
X84706190Y-69053675D01*
X84781569Y-68871693D01*
X84781572Y-68871682D01*
X84820000Y-68678490D01*
X84820000Y-68481509D01*
X84781572Y-68288317D01*
X84781569Y-68288306D01*
X84706189Y-68106323D01*
X84682572Y-68070979D01*
X84302962Y-68450589D01*
X84285925Y-68387007D01*
X84220099Y-68272993D01*
X84127007Y-68179901D01*
X84012993Y-68114075D01*
X83949407Y-68097037D01*
X84329019Y-67717426D01*
X84329019Y-67717425D01*
X84293675Y-67693809D01*
X84111693Y-67618430D01*
X84111682Y-67618427D01*
X83918490Y-67580000D01*
X83721510Y-67580000D01*
X83528317Y-67618427D01*
X83528306Y-67618430D01*
X83346322Y-67693810D01*
X83310979Y-67717425D01*
X83310979Y-67717426D01*
X83690590Y-68097037D01*
X83627007Y-68114075D01*
X83512993Y-68179901D01*
X83419901Y-68272993D01*
X83354075Y-68387007D01*
X83337037Y-68450590D01*
X82957426Y-68070979D01*
X82957425Y-68070979D01*
X82933810Y-68106322D01*
X82858430Y-68288306D01*
X82858427Y-68288317D01*
X82820000Y-68481509D01*
X82091500Y-68481509D01*
X82091500Y-65941459D01*
X82819500Y-65941459D01*
X82819500Y-66138541D01*
X82832200Y-66202388D01*
X82857947Y-66331829D01*
X82857950Y-66331839D01*
X82933367Y-66513913D01*
X83042860Y-66677781D01*
X83182218Y-66817139D01*
X83346086Y-66926632D01*
X83483506Y-66983553D01*
X83528165Y-67002051D01*
X83721459Y-67040500D01*
X83721461Y-67040500D01*
X83918539Y-67040500D01*
X83918541Y-67040500D01*
X84111835Y-67002051D01*
X84293914Y-66926632D01*
X84435938Y-66831735D01*
X85774500Y-66831735D01*
X85774500Y-67298264D01*
X85784427Y-67366393D01*
X85784427Y-67366394D01*
X85835801Y-67471482D01*
X85918517Y-67554198D01*
X85954095Y-67571591D01*
X85991585Y-67614044D01*
X85988076Y-67670572D01*
X85973921Y-67690397D01*
X85919531Y-67744787D01*
X85919529Y-67744790D01*
X85873386Y-67824710D01*
X85873384Y-67824715D01*
X85849500Y-67913853D01*
X85849500Y-68006146D01*
X85873384Y-68095284D01*
X85873386Y-68095289D01*
X85919528Y-68175208D01*
X85919529Y-68175209D01*
X85919531Y-68175212D01*
X85984788Y-68240469D01*
X86064712Y-68286614D01*
X86064713Y-68286614D01*
X86064715Y-68286615D01*
X86109284Y-68298557D01*
X86153853Y-68310499D01*
X86153854Y-68310500D01*
X86153856Y-68310500D01*
X86246146Y-68310500D01*
X86246146Y-68310499D01*
X86335288Y-68286614D01*
X86415212Y-68240469D01*
X86480469Y-68175212D01*
X86526614Y-68095288D01*
X86550499Y-68006146D01*
X86550500Y-68006146D01*
X86550500Y-67937843D01*
X86572173Y-67885518D01*
X86578453Y-67879239D01*
X86610500Y-67801870D01*
X86610500Y-67718129D01*
X86610500Y-67689500D01*
X86620345Y-67665730D01*
X86628360Y-67641289D01*
X86630965Y-67640092D01*
X86632174Y-67637174D01*
X86678893Y-67615713D01*
X86681696Y-67615500D01*
X86708260Y-67615500D01*
X86737214Y-67611281D01*
X86739745Y-67611089D01*
X86764415Y-67619178D01*
X86789585Y-67625551D01*
X86790977Y-67627888D01*
X86793563Y-67628736D01*
X86805287Y-67651901D01*
X86818578Y-67674204D01*
X86818370Y-67677750D01*
X86819139Y-67679269D01*
X86818094Y-67682453D01*
X86816831Y-67704028D01*
X86795442Y-67783856D01*
X86795442Y-67876146D01*
X86819326Y-67965284D01*
X86819328Y-67965289D01*
X86865470Y-68045208D01*
X86865471Y-68045209D01*
X86865473Y-68045212D01*
X86930730Y-68110469D01*
X86930732Y-68110470D01*
X86930733Y-68110471D01*
X87010652Y-68156613D01*
X87010654Y-68156614D01*
X87010655Y-68156614D01*
X87010657Y-68156615D01*
X87055226Y-68168557D01*
X87099795Y-68180499D01*
X87099796Y-68180500D01*
X87099798Y-68180500D01*
X87192088Y-68180500D01*
X87192088Y-68180499D01*
X87281230Y-68156614D01*
X87314626Y-68137332D01*
X87352590Y-68115414D01*
X87389590Y-68105500D01*
X88058479Y-68105500D01*
X88058480Y-68105500D01*
X88120609Y-68093142D01*
X88191065Y-68046065D01*
X88238142Y-67975609D01*
X88250500Y-67913480D01*
X88250500Y-67746520D01*
X88238142Y-67684391D01*
X88191065Y-67613935D01*
X88181923Y-67607826D01*
X88120608Y-67566857D01*
X88070837Y-67556957D01*
X88058480Y-67554500D01*
X88058479Y-67554500D01*
X87389590Y-67554500D01*
X87352590Y-67544586D01*
X87281231Y-67503386D01*
X87281226Y-67503384D01*
X87192088Y-67479500D01*
X87192086Y-67479500D01*
X87099798Y-67479500D01*
X87099797Y-67479500D01*
X87096276Y-67480443D01*
X87040124Y-67473044D01*
X87005650Y-67428107D01*
X87010650Y-67376461D01*
X87015573Y-67366393D01*
X87025500Y-67298260D01*
X87025500Y-66831740D01*
X87015573Y-66763607D01*
X86964198Y-66658517D01*
X86881483Y-66575802D01*
X86881482Y-66575801D01*
X86776394Y-66524427D01*
X86708264Y-66514500D01*
X86708260Y-66514500D01*
X86091740Y-66514500D01*
X86091735Y-66514500D01*
X86023606Y-66524427D01*
X86023605Y-66524427D01*
X85918517Y-66575801D01*
X85835801Y-66658517D01*
X85784427Y-66763605D01*
X85784427Y-66763606D01*
X85774500Y-66831735D01*
X84435938Y-66831735D01*
X84457782Y-66817139D01*
X84597139Y-66677782D01*
X84706632Y-66513914D01*
X84782051Y-66331835D01*
X84820500Y-66138541D01*
X84820500Y-65941459D01*
X84782051Y-65748165D01*
X84755947Y-65685145D01*
X84706632Y-65566086D01*
X84597139Y-65402218D01*
X84457781Y-65262860D01*
X84293913Y-65153367D01*
X84111839Y-65077950D01*
X84111829Y-65077947D01*
X83982388Y-65052200D01*
X83918541Y-65039500D01*
X83721459Y-65039500D01*
X83687867Y-65046182D01*
X83528170Y-65077947D01*
X83528160Y-65077950D01*
X83346086Y-65153367D01*
X83182218Y-65262860D01*
X83182217Y-65262862D01*
X83042862Y-65402217D01*
X83042860Y-65402218D01*
X82933367Y-65566086D01*
X82857950Y-65748160D01*
X82857947Y-65748170D01*
X82826809Y-65904715D01*
X82819500Y-65941459D01*
X82091500Y-65941459D01*
X82091500Y-62635180D01*
X82819500Y-62635180D01*
X82819500Y-64364820D01*
X82828233Y-64408722D01*
X82861496Y-64458504D01*
X82911278Y-64491767D01*
X82955180Y-64500500D01*
X82955181Y-64500500D01*
X84684819Y-64500500D01*
X84684820Y-64500500D01*
X84728722Y-64491767D01*
X84778504Y-64458504D01*
X84811767Y-64408722D01*
X84820500Y-64364820D01*
X84820500Y-62635180D01*
X84811767Y-62591278D01*
X84778504Y-62541496D01*
X84728722Y-62508233D01*
X84684820Y-62499500D01*
X82955180Y-62499500D01*
X82933229Y-62503866D01*
X82911277Y-62508233D01*
X82861496Y-62541495D01*
X82861495Y-62541496D01*
X82828233Y-62591277D01*
X82819500Y-62635180D01*
X82091500Y-62635180D01*
X82091500Y-61915500D01*
X82113174Y-61863174D01*
X82165500Y-61841500D01*
X87645576Y-61841500D01*
X87697902Y-61863174D01*
G37*
G04 #@! TD.AperFunction*
G04 #@! TA.AperFunction,Conductor*
G36*
X92996891Y-73305452D02*
G01*
X93018565Y-73357778D01*
X93017143Y-73372215D01*
X93007417Y-73421112D01*
X92979500Y-73561459D01*
X92979500Y-73758541D01*
X92991233Y-73817528D01*
X93017947Y-73951829D01*
X93017950Y-73951839D01*
X93068567Y-74074039D01*
X93068567Y-74130676D01*
X93052526Y-74154683D01*
X91790508Y-75416702D01*
X91790505Y-75416705D01*
X91760281Y-75446928D01*
X91753009Y-75453306D01*
X91743979Y-75460236D01*
X91727234Y-75469902D01*
X91721237Y-75472385D01*
X91702589Y-75477381D01*
X91691310Y-75478866D01*
X91681650Y-75479499D01*
X91632946Y-75479499D01*
X91632934Y-75479500D01*
X90670534Y-75479500D01*
X90660871Y-75478866D01*
X90649588Y-75477380D01*
X90630934Y-75472382D01*
X90624939Y-75469899D01*
X90608209Y-75460240D01*
X90599176Y-75453309D01*
X90591896Y-75446925D01*
X90559096Y-75414124D01*
X90559085Y-75414114D01*
X90523410Y-75378439D01*
X90523409Y-75378437D01*
X90493180Y-75348209D01*
X90486801Y-75340935D01*
X90479870Y-75331902D01*
X90470213Y-75315175D01*
X90467724Y-75309166D01*
X90462729Y-75290519D01*
X90462694Y-75290255D01*
X90461307Y-75279721D01*
X90460677Y-75270587D01*
X90460612Y-75261335D01*
X90460610Y-75260815D01*
X90460610Y-75220457D01*
X90460509Y-75218927D01*
X90460512Y-75212221D01*
X90460518Y-75197621D01*
X90460516Y-75197617D01*
X90460517Y-75197566D01*
X90482211Y-75145249D01*
X90534545Y-75123594D01*
X90548944Y-75125014D01*
X90576520Y-75130500D01*
X90576523Y-75130500D01*
X90743479Y-75130500D01*
X90743480Y-75130500D01*
X90805609Y-75118142D01*
X90876065Y-75071065D01*
X90923142Y-75000609D01*
X90935500Y-74938480D01*
X90935500Y-74607451D01*
X90957174Y-74555125D01*
X90981179Y-74539085D01*
X91030991Y-74518453D01*
X91127270Y-74422174D01*
X91179596Y-74400500D01*
X91835624Y-74400500D01*
X91874920Y-74413841D01*
X91875587Y-74412688D01*
X91955971Y-74459098D01*
X91959712Y-74461258D01*
X91959713Y-74461258D01*
X91959715Y-74461259D01*
X91969986Y-74464011D01*
X92048853Y-74485143D01*
X92048854Y-74485144D01*
X92048856Y-74485144D01*
X92141146Y-74485144D01*
X92141146Y-74485143D01*
X92230288Y-74461258D01*
X92310212Y-74415113D01*
X92375469Y-74349856D01*
X92421614Y-74269932D01*
X92445499Y-74180790D01*
X92445500Y-74180790D01*
X92445500Y-74088498D01*
X92445499Y-74088497D01*
X92421615Y-73999359D01*
X92421613Y-73999354D01*
X92375470Y-73919434D01*
X92375469Y-73919432D01*
X92375466Y-73919429D01*
X92372521Y-73915591D01*
X92374771Y-73913863D01*
X92356542Y-73869854D01*
X92378216Y-73817528D01*
X92389071Y-73808620D01*
X92389237Y-73808453D01*
X92389239Y-73808453D01*
X92892240Y-73305451D01*
X92944565Y-73283778D01*
X92996891Y-73305452D01*
G37*
G04 #@! TD.AperFunction*
G04 #@! TA.AperFunction,Conductor*
G36*
X91307819Y-69512174D02*
G01*
X91329493Y-69564500D01*
X91326971Y-69583653D01*
X91309500Y-69648853D01*
X91309500Y-69741146D01*
X91333384Y-69830284D01*
X91333386Y-69830289D01*
X91379528Y-69910208D01*
X91379529Y-69910209D01*
X91379531Y-69910212D01*
X91427826Y-69958507D01*
X91449500Y-70010832D01*
X91449500Y-70255168D01*
X91427826Y-70307494D01*
X91375500Y-70329168D01*
X91323175Y-70307494D01*
X91305212Y-70289531D01*
X91305209Y-70289529D01*
X91305208Y-70289528D01*
X91225289Y-70243386D01*
X91225284Y-70243384D01*
X91136146Y-70219500D01*
X91136144Y-70219500D01*
X91043856Y-70219500D01*
X91043854Y-70219500D01*
X90970087Y-70239266D01*
X90913934Y-70231874D01*
X90889405Y-70208900D01*
X90876065Y-70188935D01*
X90876064Y-70188934D01*
X90805608Y-70141857D01*
X90752896Y-70131373D01*
X90743480Y-70129500D01*
X90576520Y-70129500D01*
X90567104Y-70131373D01*
X90514389Y-70141858D01*
X90507657Y-70144647D01*
X90506883Y-70142779D01*
X90460060Y-70152090D01*
X90412969Y-70120622D01*
X90400500Y-70079513D01*
X90400500Y-69885857D01*
X90422174Y-69833531D01*
X90474500Y-69811857D01*
X90502822Y-69817491D01*
X90504384Y-69818137D01*
X90504391Y-69818142D01*
X90566520Y-69830500D01*
X90566521Y-69830500D01*
X90733479Y-69830500D01*
X90733480Y-69830500D01*
X90795609Y-69818142D01*
X90866065Y-69771065D01*
X90913142Y-69700609D01*
X90925500Y-69638480D01*
X90925500Y-69564500D01*
X90947174Y-69512174D01*
X90999500Y-69490500D01*
X91255493Y-69490500D01*
X91307819Y-69512174D01*
G37*
G04 #@! TD.AperFunction*
G04 #@! TA.AperFunction,Conductor*
G36*
X95145021Y-65022174D02*
G01*
X95307826Y-65184979D01*
X95329500Y-65237305D01*
X95329500Y-69453155D01*
X95307826Y-69505481D01*
X95255500Y-69527155D01*
X95203174Y-69505481D01*
X94863501Y-69165808D01*
X94841827Y-69113482D01*
X94854298Y-69072371D01*
X94866632Y-69053913D01*
X94942051Y-68871834D01*
X94980500Y-68678540D01*
X94980500Y-68481458D01*
X94942051Y-68288164D01*
X94866632Y-68106085D01*
X94757139Y-67942217D01*
X94617782Y-67802860D01*
X94616301Y-67801870D01*
X94453913Y-67693366D01*
X94271839Y-67617949D01*
X94271829Y-67617946D01*
X94142388Y-67592199D01*
X94078541Y-67579499D01*
X93881459Y-67579499D01*
X93826662Y-67590398D01*
X93688170Y-67617946D01*
X93688160Y-67617949D01*
X93506086Y-67693366D01*
X93342218Y-67802859D01*
X93342217Y-67802861D01*
X93202862Y-67942216D01*
X93202860Y-67942217D01*
X93160146Y-68006144D01*
X93106378Y-68086612D01*
X93059288Y-68118078D01*
X93044851Y-68119500D01*
X92566844Y-68119500D01*
X92514518Y-68097826D01*
X92492844Y-68045500D01*
X92514518Y-67993174D01*
X92762905Y-67744787D01*
X93524138Y-66983552D01*
X93576463Y-66961879D01*
X93604777Y-66967511D01*
X93688165Y-67002051D01*
X93881459Y-67040500D01*
X93881461Y-67040500D01*
X94078539Y-67040500D01*
X94078541Y-67040500D01*
X94271835Y-67002051D01*
X94453914Y-66926632D01*
X94617782Y-66817139D01*
X94757139Y-66677782D01*
X94866632Y-66513914D01*
X94942051Y-66331835D01*
X94980500Y-66138541D01*
X94980500Y-65941459D01*
X94942051Y-65748165D01*
X94915947Y-65685145D01*
X94866632Y-65566086D01*
X94757139Y-65402218D01*
X94617781Y-65262860D01*
X94453913Y-65153367D01*
X94428563Y-65142867D01*
X94388514Y-65102819D01*
X94388514Y-65046182D01*
X94428562Y-65006133D01*
X94456881Y-65000500D01*
X95092695Y-65000500D01*
X95145021Y-65022174D01*
G37*
G04 #@! TD.AperFunction*
G04 #@! TA.AperFunction,Conductor*
G36*
X95623026Y-61863174D02*
G01*
X95644700Y-61915500D01*
X95644700Y-64747817D01*
X95623026Y-64800143D01*
X95570700Y-64821817D01*
X95518374Y-64800143D01*
X95329777Y-64611546D01*
X95265176Y-64584788D01*
X95252410Y-64579500D01*
X95252409Y-64579500D01*
X94996102Y-64579500D01*
X94943776Y-64557826D01*
X94922102Y-64505500D01*
X94934573Y-64464388D01*
X94947477Y-64445073D01*
X94971767Y-64408722D01*
X94980500Y-64364820D01*
X94980500Y-62635180D01*
X94971767Y-62591278D01*
X94938504Y-62541496D01*
X94888722Y-62508233D01*
X94844820Y-62499500D01*
X93115180Y-62499500D01*
X93093229Y-62503866D01*
X93071277Y-62508233D01*
X93021496Y-62541495D01*
X93021495Y-62541496D01*
X92988233Y-62591277D01*
X92979500Y-62635180D01*
X92979500Y-63312539D01*
X92957826Y-63364865D01*
X92905500Y-63386539D01*
X92853174Y-63364865D01*
X92837133Y-63340858D01*
X92832463Y-63329585D01*
X92818453Y-63295761D01*
X92759239Y-63236547D01*
X92117174Y-62594482D01*
X92095500Y-62542156D01*
X92095500Y-62011746D01*
X92095500Y-62011740D01*
X92085573Y-61943607D01*
X92085571Y-61943602D01*
X92083876Y-61938113D01*
X92087047Y-61937133D01*
X92084210Y-61891477D01*
X92121697Y-61849021D01*
X92154202Y-61841500D01*
X95570700Y-61841500D01*
X95623026Y-61863174D01*
G37*
G04 #@! TD.AperFunction*
G04 #@! TD*
M02*
