%TF.GenerationSoftware,KiCad,Pcbnew,9.0.8*%
%TF.CreationDate,2026-04-10T17:10:50+03:00*%
%TF.ProjectId,T41-RF-board-Dual-Attenuator-daughterboard,5434312d-5246-42d6-926f-6172642d4475,rev?*%
%TF.SameCoordinates,Original*%
%TF.FileFunction,Drillmap*%
%TF.FilePolarity,Positive*%
%FSLAX45Y45*%
G04 Gerber Fmt 4.5, Leading zero omitted, Abs format (unit mm)*
G04 Created by KiCad (PCBNEW 9.0.8) date 2026-04-10 17:10:50*
%MOMM*%
%LPD*%
G01*
G04 APERTURE LIST*
%ADD10C,0.050000*%
%ADD11C,0.200000*%
%ADD12C,0.100000*%
G04 APERTURE END LIST*
D10*
X8159100Y-6134100D02*
X9614520Y-6134100D01*
X9614520Y-7830820D01*
X8159100Y-7830820D01*
X8159100Y-6134100D01*
D11*
D12*
X8232000Y-7741000D02*
X8252000Y-7761000D01*
X8252000Y-7741000D02*
X8232000Y-7761000D01*
X8245000Y-6212000D02*
X8265000Y-6232000D01*
X8265000Y-6212000D02*
X8245000Y-6232000D01*
X8246000Y-6974000D02*
X8266000Y-6994000D01*
X8266000Y-6974000D02*
X8246000Y-6994000D01*
X8247000Y-6478000D02*
X8267000Y-6498000D01*
X8267000Y-6478000D02*
X8247000Y-6498000D01*
X8249000Y-6709000D02*
X8269000Y-6729000D01*
X8269000Y-6709000D02*
X8249000Y-6729000D01*
X8254000Y-7491000D02*
X8274000Y-7511000D01*
X8274000Y-7491000D02*
X8254000Y-7511000D01*
X8462000Y-6498000D02*
X8482000Y-6518000D01*
X8482000Y-6498000D02*
X8462000Y-6518000D01*
X8492000Y-7113000D02*
X8512000Y-7133000D01*
X8512000Y-7113000D02*
X8492000Y-7133000D01*
X8492000Y-7272000D02*
X8512000Y-7292000D01*
X8512000Y-7272000D02*
X8492000Y-7292000D01*
X8493000Y-6648000D02*
X8513000Y-6668000D01*
X8513000Y-6648000D02*
X8493000Y-6668000D01*
X8493000Y-6804000D02*
X8513000Y-6824000D01*
X8513000Y-6804000D02*
X8493000Y-6824000D01*
X8493000Y-6975000D02*
X8513000Y-6995000D01*
X8513000Y-6975000D02*
X8493000Y-6995000D01*
X8499000Y-6300000D02*
X8519000Y-6320000D01*
X8519000Y-6300000D02*
X8499000Y-6320000D01*
X8503000Y-7487000D02*
X8523000Y-7507000D01*
X8523000Y-7487000D02*
X8503000Y-7507000D01*
X8505000Y-7654000D02*
X8525000Y-7674000D01*
X8525000Y-7654000D02*
X8505000Y-7674000D01*
X8555000Y-7112000D02*
X8575000Y-7132000D01*
X8575000Y-7112000D02*
X8555000Y-7132000D01*
X8555000Y-7271000D02*
X8575000Y-7291000D01*
X8575000Y-7271000D02*
X8555000Y-7291000D01*
X8565000Y-7654000D02*
X8585000Y-7674000D01*
X8585000Y-7654000D02*
X8565000Y-7674000D01*
X8569000Y-6575000D02*
X8589000Y-6595000D01*
X8589000Y-6575000D02*
X8569000Y-6595000D01*
X8587000Y-6203000D02*
X8607000Y-6223000D01*
X8607000Y-6203000D02*
X8587000Y-6223000D01*
X8610000Y-6786000D02*
X8630000Y-6806000D01*
X8630000Y-6786000D02*
X8610000Y-6806000D01*
X8632000Y-7405000D02*
X8652000Y-7425000D01*
X8652000Y-7405000D02*
X8632000Y-7425000D01*
X8656500Y-6298000D02*
X8676500Y-6318000D01*
X8676500Y-6298000D02*
X8656500Y-6318000D01*
X8656500Y-6450000D02*
X8676500Y-6470000D01*
X8676500Y-6450000D02*
X8656500Y-6470000D01*
X8690161Y-6959000D02*
X8710161Y-6979000D01*
X8710161Y-6959000D02*
X8690161Y-6979000D01*
X8701000Y-7252000D02*
X8721000Y-7272000D01*
X8721000Y-7252000D02*
X8701000Y-7272000D01*
X8702000Y-6890000D02*
X8722000Y-6910000D01*
X8722000Y-6890000D02*
X8702000Y-6910000D01*
X8704594Y-6773000D02*
X8724594Y-6793000D01*
X8724594Y-6773000D02*
X8704594Y-6793000D01*
X8706000Y-6531000D02*
X8726000Y-6551000D01*
X8726000Y-6531000D02*
X8706000Y-6551000D01*
X8714000Y-7416000D02*
X8734000Y-7436000D01*
X8734000Y-7416000D02*
X8714000Y-7436000D01*
X8730000Y-6428000D02*
X8750000Y-6448000D01*
X8750000Y-6428000D02*
X8730000Y-6448000D01*
X8732000Y-6203000D02*
X8752000Y-6223000D01*
X8752000Y-6203000D02*
X8732000Y-6223000D01*
X8742000Y-6594000D02*
X8762000Y-6614000D01*
X8762000Y-6594000D02*
X8742000Y-6614000D01*
X8744000Y-7542000D02*
X8764000Y-7562000D01*
X8764000Y-7542000D02*
X8744000Y-7562000D01*
X8762000Y-7055000D02*
X8782000Y-7075000D01*
X8782000Y-7055000D02*
X8762000Y-7075000D01*
X8765000Y-6300000D02*
X8785000Y-6320000D01*
X8785000Y-6300000D02*
X8765000Y-6320000D01*
X8800000Y-7745000D02*
X8820000Y-7765000D01*
X8820000Y-7745000D02*
X8800000Y-7765000D01*
X8803000Y-7447000D02*
X8823000Y-7467000D01*
X8823000Y-7447000D02*
X8803000Y-7467000D01*
X8804000Y-7101000D02*
X8824000Y-7121000D01*
X8824000Y-7101000D02*
X8804000Y-7121000D01*
X8808000Y-6573000D02*
X8828000Y-6593000D01*
X8828000Y-6573000D02*
X8808000Y-6593000D01*
X8821000Y-6722000D02*
X8841000Y-6742000D01*
X8841000Y-6722000D02*
X8821000Y-6742000D01*
X8822000Y-6673000D02*
X8842000Y-6693000D01*
X8842000Y-6673000D02*
X8822000Y-6693000D01*
X8823000Y-7534000D02*
X8843000Y-7554000D01*
X8843000Y-7534000D02*
X8823000Y-7554000D01*
X8838000Y-7353000D02*
X8858000Y-7373000D01*
X8858000Y-7353000D02*
X8838000Y-7373000D01*
X8839000Y-7202000D02*
X8859000Y-7222000D01*
X8859000Y-7202000D02*
X8839000Y-7222000D01*
X8839000Y-7253000D02*
X8859000Y-7273000D01*
X8859000Y-7253000D02*
X8839000Y-7273000D01*
X8855000Y-6842000D02*
X8875000Y-6862000D01*
X8875000Y-6842000D02*
X8855000Y-6862000D01*
X8858500Y-7645000D02*
X8878500Y-7665000D01*
X8878500Y-7645000D02*
X8858500Y-7665000D01*
X8870000Y-6301000D02*
X8890000Y-6321000D01*
X8890000Y-6301000D02*
X8870000Y-6321000D01*
X8887000Y-6444000D02*
X8907000Y-6464000D01*
X8907000Y-6444000D02*
X8887000Y-6464000D01*
X8894000Y-7576000D02*
X8914000Y-7596000D01*
X8914000Y-7576000D02*
X8894000Y-7596000D01*
X8906000Y-6843000D02*
X8926000Y-6863000D01*
X8926000Y-6843000D02*
X8906000Y-6863000D01*
X8906000Y-7386000D02*
X8926000Y-7406000D01*
X8926000Y-7386000D02*
X8906000Y-7406000D01*
X8947000Y-7532000D02*
X8967000Y-7552000D01*
X8967000Y-7532000D02*
X8947000Y-7552000D01*
X8956000Y-6842000D02*
X8976000Y-6862000D01*
X8976000Y-6842000D02*
X8956000Y-6862000D01*
X9000000Y-6350000D02*
X9020000Y-6370000D01*
X9020000Y-6350000D02*
X9000000Y-6370000D01*
X9005000Y-6470000D02*
X9025000Y-6490000D01*
X9025000Y-6470000D02*
X9005000Y-6490000D01*
X9066000Y-7637000D02*
X9086000Y-7657000D01*
X9086000Y-7637000D02*
X9066000Y-7657000D01*
X9071000Y-7367000D02*
X9091000Y-7387000D01*
X9091000Y-7367000D02*
X9071000Y-7387000D01*
X9088000Y-6722000D02*
X9108000Y-6742000D01*
X9108000Y-6722000D02*
X9088000Y-6742000D01*
X9088000Y-7516000D02*
X9108000Y-7536000D01*
X9108000Y-7516000D02*
X9088000Y-7536000D01*
X9095000Y-6990000D02*
X9115000Y-7010000D01*
X9115000Y-6990000D02*
X9095000Y-7010000D01*
X9099000Y-7047000D02*
X9119000Y-7067000D01*
X9119000Y-7047000D02*
X9099000Y-7067000D01*
X9100000Y-7253000D02*
X9120000Y-7273000D01*
X9120000Y-7253000D02*
X9100000Y-7273000D01*
X9102500Y-6469000D02*
X9122500Y-6489000D01*
X9122500Y-6469000D02*
X9102500Y-6489000D01*
X9105000Y-6573000D02*
X9125000Y-6593000D01*
X9125000Y-6573000D02*
X9105000Y-6593000D01*
X9106000Y-6873000D02*
X9126000Y-6893000D01*
X9126000Y-6873000D02*
X9106000Y-6893000D01*
X9106000Y-7102000D02*
X9126000Y-7122000D01*
X9126000Y-7102000D02*
X9106000Y-7122000D01*
X9156000Y-6959500D02*
X9176000Y-6979500D01*
X9176000Y-6959500D02*
X9156000Y-6979500D01*
X9158000Y-6509000D02*
X9178000Y-6529000D01*
X9178000Y-6509000D02*
X9158000Y-6529000D01*
X9172000Y-7636000D02*
X9192000Y-7656000D01*
X9192000Y-7636000D02*
X9172000Y-7656000D01*
X9197000Y-6339000D02*
X9217000Y-6359000D01*
X9217000Y-6339000D02*
X9197000Y-6359000D01*
X9199500Y-7403464D02*
X9219500Y-7423464D01*
X9219500Y-7403464D02*
X9199500Y-7423464D01*
X9201656Y-6996024D02*
X9221656Y-7016024D01*
X9221656Y-6996024D02*
X9201656Y-7016024D01*
X9230000Y-6653000D02*
X9250000Y-6673000D01*
X9250000Y-6653000D02*
X9230000Y-6673000D01*
X9241000Y-6490000D02*
X9261000Y-6510000D01*
X9261000Y-6490000D02*
X9241000Y-6510000D01*
X9261000Y-6900000D02*
X9281000Y-6920000D01*
X9281000Y-6900000D02*
X9261000Y-6920000D01*
X9269000Y-7377000D02*
X9289000Y-7397000D01*
X9289000Y-7377000D02*
X9269000Y-7397000D01*
X9276912Y-7224000D02*
X9296912Y-7244000D01*
X9296912Y-7224000D02*
X9276912Y-7244000D01*
X9277000Y-6210000D02*
X9297000Y-6230000D01*
X9297000Y-6210000D02*
X9277000Y-6230000D01*
X9301000Y-7520000D02*
X9321000Y-7540000D01*
X9321000Y-7520000D02*
X9301000Y-7540000D01*
X9355000Y-6723000D02*
X9375000Y-6743000D01*
X9375000Y-6723000D02*
X9355000Y-6743000D01*
X9431000Y-6976000D02*
X9451000Y-6996000D01*
X9451000Y-6976000D02*
X9431000Y-6996000D01*
X9464000Y-7683000D02*
X9484000Y-7703000D01*
X9484000Y-7683000D02*
X9464000Y-7703000D01*
X9469000Y-7264000D02*
X9489000Y-7284000D01*
X9489000Y-7264000D02*
X9469000Y-7284000D01*
X9477000Y-6511000D02*
X9497000Y-6531000D01*
X9497000Y-6511000D02*
X9477000Y-6531000D01*
X9482000Y-7518000D02*
X9502000Y-7538000D01*
X9502000Y-7518000D02*
X9482000Y-7538000D01*
X9512000Y-6214000D02*
X9532000Y-6234000D01*
X9532000Y-6214000D02*
X9512000Y-6234000D01*
X9524000Y-6419000D02*
X9544000Y-6439000D01*
X9544000Y-6419000D02*
X9524000Y-6439000D01*
X9532000Y-7749000D02*
X9552000Y-7769000D01*
X9552000Y-7749000D02*
X9532000Y-7769000D01*
X8432000Y-6350000D02*
G75*
G02*
X8332000Y-6350000I-50000J0D01*
G01*
X8332000Y-6350000D02*
G75*
G02*
X8432000Y-6350000I50000J0D01*
G01*
X8432000Y-6604000D02*
G75*
G02*
X8332000Y-6604000I-50000J0D01*
G01*
X8332000Y-6604000D02*
G75*
G02*
X8432000Y-6604000I50000J0D01*
G01*
X8432000Y-6858000D02*
G75*
G02*
X8332000Y-6858000I-50000J0D01*
G01*
X8332000Y-6858000D02*
G75*
G02*
X8432000Y-6858000I50000J0D01*
G01*
X8432000Y-7112000D02*
G75*
G02*
X8332000Y-7112000I-50000J0D01*
G01*
X8332000Y-7112000D02*
G75*
G02*
X8432000Y-7112000I50000J0D01*
G01*
X8432000Y-7366000D02*
G75*
G02*
X8332000Y-7366000I-50000J0D01*
G01*
X8332000Y-7366000D02*
G75*
G02*
X8432000Y-7366000I50000J0D01*
G01*
X8432000Y-7620000D02*
G75*
G02*
X8332000Y-7620000I-50000J0D01*
G01*
X8332000Y-7620000D02*
G75*
G02*
X8432000Y-7620000I50000J0D01*
G01*
X9448000Y-6350000D02*
G75*
G02*
X9348000Y-6350000I-50000J0D01*
G01*
X9348000Y-6350000D02*
G75*
G02*
X9448000Y-6350000I50000J0D01*
G01*
X9448000Y-6604000D02*
G75*
G02*
X9348000Y-6604000I-50000J0D01*
G01*
X9348000Y-6604000D02*
G75*
G02*
X9448000Y-6604000I50000J0D01*
G01*
X9448000Y-6858000D02*
G75*
G02*
X9348000Y-6858000I-50000J0D01*
G01*
X9348000Y-6858000D02*
G75*
G02*
X9448000Y-6858000I50000J0D01*
G01*
X9448000Y-7112000D02*
G75*
G02*
X9348000Y-7112000I-50000J0D01*
G01*
X9348000Y-7112000D02*
G75*
G02*
X9448000Y-7112000I50000J0D01*
G01*
X9448000Y-7366000D02*
G75*
G02*
X9348000Y-7366000I-50000J0D01*
G01*
X9348000Y-7366000D02*
G75*
G02*
X9448000Y-7366000I50000J0D01*
G01*
X9448000Y-7620000D02*
G75*
G02*
X9348000Y-7620000I-50000J0D01*
G01*
X9348000Y-7620000D02*
G75*
G02*
X9448000Y-7620000I50000J0D01*
G01*
D11*
X8417377Y-8144804D02*
X8417377Y-7944804D01*
X8417377Y-7944804D02*
X8464996Y-7944804D01*
X8464996Y-7944804D02*
X8493567Y-7954328D01*
X8493567Y-7954328D02*
X8512615Y-7973375D01*
X8512615Y-7973375D02*
X8522139Y-7992423D01*
X8522139Y-7992423D02*
X8531663Y-8030518D01*
X8531663Y-8030518D02*
X8531663Y-8059089D01*
X8531663Y-8059089D02*
X8522139Y-8097185D01*
X8522139Y-8097185D02*
X8512615Y-8116232D01*
X8512615Y-8116232D02*
X8493567Y-8135280D01*
X8493567Y-8135280D02*
X8464996Y-8144804D01*
X8464996Y-8144804D02*
X8417377Y-8144804D01*
X8617377Y-8144804D02*
X8617377Y-8011470D01*
X8617377Y-8049566D02*
X8626901Y-8030518D01*
X8626901Y-8030518D02*
X8636424Y-8020994D01*
X8636424Y-8020994D02*
X8655472Y-8011470D01*
X8655472Y-8011470D02*
X8674520Y-8011470D01*
X8741186Y-8144804D02*
X8741186Y-8011470D01*
X8741186Y-7944804D02*
X8731663Y-7954328D01*
X8731663Y-7954328D02*
X8741186Y-7963851D01*
X8741186Y-7963851D02*
X8750710Y-7954328D01*
X8750710Y-7954328D02*
X8741186Y-7944804D01*
X8741186Y-7944804D02*
X8741186Y-7963851D01*
X8864996Y-8144804D02*
X8845948Y-8135280D01*
X8845948Y-8135280D02*
X8836424Y-8116232D01*
X8836424Y-8116232D02*
X8836424Y-7944804D01*
X8969758Y-8144804D02*
X8950710Y-8135280D01*
X8950710Y-8135280D02*
X8941186Y-8116232D01*
X8941186Y-8116232D02*
X8941186Y-7944804D01*
X9198329Y-8144804D02*
X9198329Y-7944804D01*
X9198329Y-7944804D02*
X9264996Y-8087661D01*
X9264996Y-8087661D02*
X9331663Y-7944804D01*
X9331663Y-7944804D02*
X9331663Y-8144804D01*
X9512615Y-8144804D02*
X9512615Y-8040042D01*
X9512615Y-8040042D02*
X9503091Y-8020994D01*
X9503091Y-8020994D02*
X9484044Y-8011470D01*
X9484044Y-8011470D02*
X9445948Y-8011470D01*
X9445948Y-8011470D02*
X9426901Y-8020994D01*
X9512615Y-8135280D02*
X9493567Y-8144804D01*
X9493567Y-8144804D02*
X9445948Y-8144804D01*
X9445948Y-8144804D02*
X9426901Y-8135280D01*
X9426901Y-8135280D02*
X9417377Y-8116232D01*
X9417377Y-8116232D02*
X9417377Y-8097185D01*
X9417377Y-8097185D02*
X9426901Y-8078137D01*
X9426901Y-8078137D02*
X9445948Y-8068613D01*
X9445948Y-8068613D02*
X9493567Y-8068613D01*
X9493567Y-8068613D02*
X9512615Y-8059089D01*
X9607853Y-8011470D02*
X9607853Y-8211470D01*
X9607853Y-8020994D02*
X9626901Y-8011470D01*
X9626901Y-8011470D02*
X9664996Y-8011470D01*
X9664996Y-8011470D02*
X9684044Y-8020994D01*
X9684044Y-8020994D02*
X9693567Y-8030518D01*
X9693567Y-8030518D02*
X9703091Y-8049566D01*
X9703091Y-8049566D02*
X9703091Y-8106708D01*
X9703091Y-8106708D02*
X9693567Y-8125756D01*
X9693567Y-8125756D02*
X9684044Y-8135280D01*
X9684044Y-8135280D02*
X9664996Y-8144804D01*
X9664996Y-8144804D02*
X9626901Y-8144804D01*
X9626901Y-8144804D02*
X9607853Y-8135280D01*
X9788805Y-8125756D02*
X9798329Y-8135280D01*
X9798329Y-8135280D02*
X9788805Y-8144804D01*
X9788805Y-8144804D02*
X9779282Y-8135280D01*
X9779282Y-8135280D02*
X9788805Y-8125756D01*
X9788805Y-8125756D02*
X9788805Y-8144804D01*
X9788805Y-8020994D02*
X9798329Y-8030518D01*
X9798329Y-8030518D02*
X9788805Y-8040042D01*
X9788805Y-8040042D02*
X9779282Y-8030518D01*
X9779282Y-8030518D02*
X9788805Y-8020994D01*
X9788805Y-8020994D02*
X9788805Y-8040042D01*
D12*
X8136600Y-8463320D02*
X8156600Y-8483320D01*
X8156600Y-8463320D02*
X8136600Y-8483320D01*
D11*
X8455472Y-8364804D02*
X8474520Y-8364804D01*
X8474520Y-8364804D02*
X8493567Y-8374328D01*
X8493567Y-8374328D02*
X8503091Y-8383851D01*
X8503091Y-8383851D02*
X8512615Y-8402899D01*
X8512615Y-8402899D02*
X8522139Y-8440994D01*
X8522139Y-8440994D02*
X8522139Y-8488613D01*
X8522139Y-8488613D02*
X8512615Y-8526709D01*
X8512615Y-8526709D02*
X8503091Y-8545756D01*
X8503091Y-8545756D02*
X8493567Y-8555280D01*
X8493567Y-8555280D02*
X8474520Y-8564804D01*
X8474520Y-8564804D02*
X8455472Y-8564804D01*
X8455472Y-8564804D02*
X8436424Y-8555280D01*
X8436424Y-8555280D02*
X8426901Y-8545756D01*
X8426901Y-8545756D02*
X8417377Y-8526709D01*
X8417377Y-8526709D02*
X8407853Y-8488613D01*
X8407853Y-8488613D02*
X8407853Y-8440994D01*
X8407853Y-8440994D02*
X8417377Y-8402899D01*
X8417377Y-8402899D02*
X8426901Y-8383851D01*
X8426901Y-8383851D02*
X8436424Y-8374328D01*
X8436424Y-8374328D02*
X8455472Y-8364804D01*
X8607853Y-8545756D02*
X8617377Y-8555280D01*
X8617377Y-8555280D02*
X8607853Y-8564804D01*
X8607853Y-8564804D02*
X8598329Y-8555280D01*
X8598329Y-8555280D02*
X8607853Y-8545756D01*
X8607853Y-8545756D02*
X8607853Y-8564804D01*
X8693567Y-8383851D02*
X8703091Y-8374328D01*
X8703091Y-8374328D02*
X8722139Y-8364804D01*
X8722139Y-8364804D02*
X8769758Y-8364804D01*
X8769758Y-8364804D02*
X8788805Y-8374328D01*
X8788805Y-8374328D02*
X8798329Y-8383851D01*
X8798329Y-8383851D02*
X8807853Y-8402899D01*
X8807853Y-8402899D02*
X8807853Y-8421947D01*
X8807853Y-8421947D02*
X8798329Y-8450518D01*
X8798329Y-8450518D02*
X8684044Y-8564804D01*
X8684044Y-8564804D02*
X8807853Y-8564804D01*
X8931663Y-8364804D02*
X8950710Y-8364804D01*
X8950710Y-8364804D02*
X8969758Y-8374328D01*
X8969758Y-8374328D02*
X8979282Y-8383851D01*
X8979282Y-8383851D02*
X8988805Y-8402899D01*
X8988805Y-8402899D02*
X8998329Y-8440994D01*
X8998329Y-8440994D02*
X8998329Y-8488613D01*
X8998329Y-8488613D02*
X8988805Y-8526709D01*
X8988805Y-8526709D02*
X8979282Y-8545756D01*
X8979282Y-8545756D02*
X8969758Y-8555280D01*
X8969758Y-8555280D02*
X8950710Y-8564804D01*
X8950710Y-8564804D02*
X8931663Y-8564804D01*
X8931663Y-8564804D02*
X8912615Y-8555280D01*
X8912615Y-8555280D02*
X8903091Y-8545756D01*
X8903091Y-8545756D02*
X8893567Y-8526709D01*
X8893567Y-8526709D02*
X8884044Y-8488613D01*
X8884044Y-8488613D02*
X8884044Y-8440994D01*
X8884044Y-8440994D02*
X8893567Y-8402899D01*
X8893567Y-8402899D02*
X8903091Y-8383851D01*
X8903091Y-8383851D02*
X8912615Y-8374328D01*
X8912615Y-8374328D02*
X8931663Y-8364804D01*
X9122139Y-8364804D02*
X9141186Y-8364804D01*
X9141186Y-8364804D02*
X9160234Y-8374328D01*
X9160234Y-8374328D02*
X9169758Y-8383851D01*
X9169758Y-8383851D02*
X9179282Y-8402899D01*
X9179282Y-8402899D02*
X9188805Y-8440994D01*
X9188805Y-8440994D02*
X9188805Y-8488613D01*
X9188805Y-8488613D02*
X9179282Y-8526709D01*
X9179282Y-8526709D02*
X9169758Y-8545756D01*
X9169758Y-8545756D02*
X9160234Y-8555280D01*
X9160234Y-8555280D02*
X9141186Y-8564804D01*
X9141186Y-8564804D02*
X9122139Y-8564804D01*
X9122139Y-8564804D02*
X9103091Y-8555280D01*
X9103091Y-8555280D02*
X9093567Y-8545756D01*
X9093567Y-8545756D02*
X9084044Y-8526709D01*
X9084044Y-8526709D02*
X9074520Y-8488613D01*
X9074520Y-8488613D02*
X9074520Y-8440994D01*
X9074520Y-8440994D02*
X9084044Y-8402899D01*
X9084044Y-8402899D02*
X9093567Y-8383851D01*
X9093567Y-8383851D02*
X9103091Y-8374328D01*
X9103091Y-8374328D02*
X9122139Y-8364804D01*
X9274520Y-8564804D02*
X9274520Y-8431470D01*
X9274520Y-8450518D02*
X9284044Y-8440994D01*
X9284044Y-8440994D02*
X9303091Y-8431470D01*
X9303091Y-8431470D02*
X9331663Y-8431470D01*
X9331663Y-8431470D02*
X9350710Y-8440994D01*
X9350710Y-8440994D02*
X9360234Y-8460042D01*
X9360234Y-8460042D02*
X9360234Y-8564804D01*
X9360234Y-8460042D02*
X9369758Y-8440994D01*
X9369758Y-8440994D02*
X9388805Y-8431470D01*
X9388805Y-8431470D02*
X9417377Y-8431470D01*
X9417377Y-8431470D02*
X9436425Y-8440994D01*
X9436425Y-8440994D02*
X9445948Y-8460042D01*
X9445948Y-8460042D02*
X9445948Y-8564804D01*
X9541186Y-8564804D02*
X9541186Y-8431470D01*
X9541186Y-8450518D02*
X9550710Y-8440994D01*
X9550710Y-8440994D02*
X9569758Y-8431470D01*
X9569758Y-8431470D02*
X9598329Y-8431470D01*
X9598329Y-8431470D02*
X9617377Y-8440994D01*
X9617377Y-8440994D02*
X9626901Y-8460042D01*
X9626901Y-8460042D02*
X9626901Y-8564804D01*
X9626901Y-8460042D02*
X9636425Y-8440994D01*
X9636425Y-8440994D02*
X9655472Y-8431470D01*
X9655472Y-8431470D02*
X9684044Y-8431470D01*
X9684044Y-8431470D02*
X9703091Y-8440994D01*
X9703091Y-8440994D02*
X9712615Y-8460042D01*
X9712615Y-8460042D02*
X9712615Y-8564804D01*
X10103091Y-8355280D02*
X9931663Y-8612423D01*
X10360234Y-8364804D02*
X10379282Y-8364804D01*
X10379282Y-8364804D02*
X10398329Y-8374328D01*
X10398329Y-8374328D02*
X10407853Y-8383851D01*
X10407853Y-8383851D02*
X10417377Y-8402899D01*
X10417377Y-8402899D02*
X10426901Y-8440994D01*
X10426901Y-8440994D02*
X10426901Y-8488613D01*
X10426901Y-8488613D02*
X10417377Y-8526709D01*
X10417377Y-8526709D02*
X10407853Y-8545756D01*
X10407853Y-8545756D02*
X10398329Y-8555280D01*
X10398329Y-8555280D02*
X10379282Y-8564804D01*
X10379282Y-8564804D02*
X10360234Y-8564804D01*
X10360234Y-8564804D02*
X10341187Y-8555280D01*
X10341187Y-8555280D02*
X10331663Y-8545756D01*
X10331663Y-8545756D02*
X10322139Y-8526709D01*
X10322139Y-8526709D02*
X10312615Y-8488613D01*
X10312615Y-8488613D02*
X10312615Y-8440994D01*
X10312615Y-8440994D02*
X10322139Y-8402899D01*
X10322139Y-8402899D02*
X10331663Y-8383851D01*
X10331663Y-8383851D02*
X10341187Y-8374328D01*
X10341187Y-8374328D02*
X10360234Y-8364804D01*
X10512615Y-8545756D02*
X10522139Y-8555280D01*
X10522139Y-8555280D02*
X10512615Y-8564804D01*
X10512615Y-8564804D02*
X10503091Y-8555280D01*
X10503091Y-8555280D02*
X10512615Y-8545756D01*
X10512615Y-8545756D02*
X10512615Y-8564804D01*
X10645948Y-8364804D02*
X10664996Y-8364804D01*
X10664996Y-8364804D02*
X10684044Y-8374328D01*
X10684044Y-8374328D02*
X10693568Y-8383851D01*
X10693568Y-8383851D02*
X10703091Y-8402899D01*
X10703091Y-8402899D02*
X10712615Y-8440994D01*
X10712615Y-8440994D02*
X10712615Y-8488613D01*
X10712615Y-8488613D02*
X10703091Y-8526709D01*
X10703091Y-8526709D02*
X10693568Y-8545756D01*
X10693568Y-8545756D02*
X10684044Y-8555280D01*
X10684044Y-8555280D02*
X10664996Y-8564804D01*
X10664996Y-8564804D02*
X10645948Y-8564804D01*
X10645948Y-8564804D02*
X10626901Y-8555280D01*
X10626901Y-8555280D02*
X10617377Y-8545756D01*
X10617377Y-8545756D02*
X10607853Y-8526709D01*
X10607853Y-8526709D02*
X10598329Y-8488613D01*
X10598329Y-8488613D02*
X10598329Y-8440994D01*
X10598329Y-8440994D02*
X10607853Y-8402899D01*
X10607853Y-8402899D02*
X10617377Y-8383851D01*
X10617377Y-8383851D02*
X10626901Y-8374328D01*
X10626901Y-8374328D02*
X10645948Y-8364804D01*
X10836425Y-8364804D02*
X10855472Y-8364804D01*
X10855472Y-8364804D02*
X10874520Y-8374328D01*
X10874520Y-8374328D02*
X10884044Y-8383851D01*
X10884044Y-8383851D02*
X10893568Y-8402899D01*
X10893568Y-8402899D02*
X10903091Y-8440994D01*
X10903091Y-8440994D02*
X10903091Y-8488613D01*
X10903091Y-8488613D02*
X10893568Y-8526709D01*
X10893568Y-8526709D02*
X10884044Y-8545756D01*
X10884044Y-8545756D02*
X10874520Y-8555280D01*
X10874520Y-8555280D02*
X10855472Y-8564804D01*
X10855472Y-8564804D02*
X10836425Y-8564804D01*
X10836425Y-8564804D02*
X10817377Y-8555280D01*
X10817377Y-8555280D02*
X10807853Y-8545756D01*
X10807853Y-8545756D02*
X10798329Y-8526709D01*
X10798329Y-8526709D02*
X10788806Y-8488613D01*
X10788806Y-8488613D02*
X10788806Y-8440994D01*
X10788806Y-8440994D02*
X10798329Y-8402899D01*
X10798329Y-8402899D02*
X10807853Y-8383851D01*
X10807853Y-8383851D02*
X10817377Y-8374328D01*
X10817377Y-8374328D02*
X10836425Y-8364804D01*
X10969758Y-8364804D02*
X11103091Y-8364804D01*
X11103091Y-8364804D02*
X11017377Y-8564804D01*
X11188806Y-8564804D02*
X11226901Y-8564804D01*
X11226901Y-8564804D02*
X11245948Y-8555280D01*
X11245948Y-8555280D02*
X11255472Y-8545756D01*
X11255472Y-8545756D02*
X11274520Y-8517185D01*
X11274520Y-8517185D02*
X11284044Y-8479090D01*
X11284044Y-8479090D02*
X11284044Y-8402899D01*
X11284044Y-8402899D02*
X11274520Y-8383851D01*
X11274520Y-8383851D02*
X11264996Y-8374328D01*
X11264996Y-8374328D02*
X11245948Y-8364804D01*
X11245948Y-8364804D02*
X11207853Y-8364804D01*
X11207853Y-8364804D02*
X11188806Y-8374328D01*
X11188806Y-8374328D02*
X11179282Y-8383851D01*
X11179282Y-8383851D02*
X11169758Y-8402899D01*
X11169758Y-8402899D02*
X11169758Y-8450518D01*
X11169758Y-8450518D02*
X11179282Y-8469566D01*
X11179282Y-8469566D02*
X11188806Y-8479090D01*
X11188806Y-8479090D02*
X11207853Y-8488613D01*
X11207853Y-8488613D02*
X11245948Y-8488613D01*
X11245948Y-8488613D02*
X11264996Y-8479090D01*
X11264996Y-8479090D02*
X11274520Y-8469566D01*
X11274520Y-8469566D02*
X11284044Y-8450518D01*
X11360234Y-8364804D02*
X11360234Y-8402899D01*
X11436425Y-8364804D02*
X11436425Y-8402899D01*
X11731663Y-8640994D02*
X11722139Y-8631470D01*
X11722139Y-8631470D02*
X11703091Y-8602899D01*
X11703091Y-8602899D02*
X11693568Y-8583851D01*
X11693568Y-8583851D02*
X11684044Y-8555280D01*
X11684044Y-8555280D02*
X11674520Y-8507661D01*
X11674520Y-8507661D02*
X11674520Y-8469566D01*
X11674520Y-8469566D02*
X11684044Y-8421947D01*
X11684044Y-8421947D02*
X11693568Y-8393375D01*
X11693568Y-8393375D02*
X11703091Y-8374328D01*
X11703091Y-8374328D02*
X11722139Y-8345756D01*
X11722139Y-8345756D02*
X11731663Y-8336232D01*
X11817377Y-8564804D02*
X11855472Y-8564804D01*
X11855472Y-8564804D02*
X11874520Y-8555280D01*
X11874520Y-8555280D02*
X11884044Y-8545756D01*
X11884044Y-8545756D02*
X11903091Y-8517185D01*
X11903091Y-8517185D02*
X11912615Y-8479090D01*
X11912615Y-8479090D02*
X11912615Y-8402899D01*
X11912615Y-8402899D02*
X11903091Y-8383851D01*
X11903091Y-8383851D02*
X11893568Y-8374328D01*
X11893568Y-8374328D02*
X11874520Y-8364804D01*
X11874520Y-8364804D02*
X11836425Y-8364804D01*
X11836425Y-8364804D02*
X11817377Y-8374328D01*
X11817377Y-8374328D02*
X11807853Y-8383851D01*
X11807853Y-8383851D02*
X11798329Y-8402899D01*
X11798329Y-8402899D02*
X11798329Y-8450518D01*
X11798329Y-8450518D02*
X11807853Y-8469566D01*
X11807853Y-8469566D02*
X11817377Y-8479090D01*
X11817377Y-8479090D02*
X11836425Y-8488613D01*
X11836425Y-8488613D02*
X11874520Y-8488613D01*
X11874520Y-8488613D02*
X11893568Y-8479090D01*
X11893568Y-8479090D02*
X11903091Y-8469566D01*
X11903091Y-8469566D02*
X11912615Y-8450518D01*
X12036425Y-8364804D02*
X12055472Y-8364804D01*
X12055472Y-8364804D02*
X12074520Y-8374328D01*
X12074520Y-8374328D02*
X12084044Y-8383851D01*
X12084044Y-8383851D02*
X12093568Y-8402899D01*
X12093568Y-8402899D02*
X12103091Y-8440994D01*
X12103091Y-8440994D02*
X12103091Y-8488613D01*
X12103091Y-8488613D02*
X12093568Y-8526709D01*
X12093568Y-8526709D02*
X12084044Y-8545756D01*
X12084044Y-8545756D02*
X12074520Y-8555280D01*
X12074520Y-8555280D02*
X12055472Y-8564804D01*
X12055472Y-8564804D02*
X12036425Y-8564804D01*
X12036425Y-8564804D02*
X12017377Y-8555280D01*
X12017377Y-8555280D02*
X12007853Y-8545756D01*
X12007853Y-8545756D02*
X11998329Y-8526709D01*
X11998329Y-8526709D02*
X11988806Y-8488613D01*
X11988806Y-8488613D02*
X11988806Y-8440994D01*
X11988806Y-8440994D02*
X11998329Y-8402899D01*
X11998329Y-8402899D02*
X12007853Y-8383851D01*
X12007853Y-8383851D02*
X12017377Y-8374328D01*
X12017377Y-8374328D02*
X12036425Y-8364804D01*
X12341187Y-8564804D02*
X12341187Y-8364804D01*
X12426901Y-8564804D02*
X12426901Y-8460042D01*
X12426901Y-8460042D02*
X12417377Y-8440994D01*
X12417377Y-8440994D02*
X12398330Y-8431470D01*
X12398330Y-8431470D02*
X12369758Y-8431470D01*
X12369758Y-8431470D02*
X12350710Y-8440994D01*
X12350710Y-8440994D02*
X12341187Y-8450518D01*
X12550710Y-8564804D02*
X12531663Y-8555280D01*
X12531663Y-8555280D02*
X12522139Y-8545756D01*
X12522139Y-8545756D02*
X12512615Y-8526709D01*
X12512615Y-8526709D02*
X12512615Y-8469566D01*
X12512615Y-8469566D02*
X12522139Y-8450518D01*
X12522139Y-8450518D02*
X12531663Y-8440994D01*
X12531663Y-8440994D02*
X12550710Y-8431470D01*
X12550710Y-8431470D02*
X12579282Y-8431470D01*
X12579282Y-8431470D02*
X12598330Y-8440994D01*
X12598330Y-8440994D02*
X12607853Y-8450518D01*
X12607853Y-8450518D02*
X12617377Y-8469566D01*
X12617377Y-8469566D02*
X12617377Y-8526709D01*
X12617377Y-8526709D02*
X12607853Y-8545756D01*
X12607853Y-8545756D02*
X12598330Y-8555280D01*
X12598330Y-8555280D02*
X12579282Y-8564804D01*
X12579282Y-8564804D02*
X12550710Y-8564804D01*
X12731663Y-8564804D02*
X12712615Y-8555280D01*
X12712615Y-8555280D02*
X12703091Y-8536232D01*
X12703091Y-8536232D02*
X12703091Y-8364804D01*
X12884044Y-8555280D02*
X12864996Y-8564804D01*
X12864996Y-8564804D02*
X12826901Y-8564804D01*
X12826901Y-8564804D02*
X12807853Y-8555280D01*
X12807853Y-8555280D02*
X12798330Y-8536232D01*
X12798330Y-8536232D02*
X12798330Y-8460042D01*
X12798330Y-8460042D02*
X12807853Y-8440994D01*
X12807853Y-8440994D02*
X12826901Y-8431470D01*
X12826901Y-8431470D02*
X12864996Y-8431470D01*
X12864996Y-8431470D02*
X12884044Y-8440994D01*
X12884044Y-8440994D02*
X12893568Y-8460042D01*
X12893568Y-8460042D02*
X12893568Y-8479090D01*
X12893568Y-8479090D02*
X12798330Y-8498137D01*
X12969758Y-8555280D02*
X12988806Y-8564804D01*
X12988806Y-8564804D02*
X13026901Y-8564804D01*
X13026901Y-8564804D02*
X13045949Y-8555280D01*
X13045949Y-8555280D02*
X13055472Y-8536232D01*
X13055472Y-8536232D02*
X13055472Y-8526709D01*
X13055472Y-8526709D02*
X13045949Y-8507661D01*
X13045949Y-8507661D02*
X13026901Y-8498137D01*
X13026901Y-8498137D02*
X12998330Y-8498137D01*
X12998330Y-8498137D02*
X12979282Y-8488613D01*
X12979282Y-8488613D02*
X12969758Y-8469566D01*
X12969758Y-8469566D02*
X12969758Y-8460042D01*
X12969758Y-8460042D02*
X12979282Y-8440994D01*
X12979282Y-8440994D02*
X12998330Y-8431470D01*
X12998330Y-8431470D02*
X13026901Y-8431470D01*
X13026901Y-8431470D02*
X13045949Y-8440994D01*
X13122139Y-8640994D02*
X13131663Y-8631470D01*
X13131663Y-8631470D02*
X13150711Y-8602899D01*
X13150711Y-8602899D02*
X13160234Y-8583851D01*
X13160234Y-8583851D02*
X13169758Y-8555280D01*
X13169758Y-8555280D02*
X13179282Y-8507661D01*
X13179282Y-8507661D02*
X13179282Y-8469566D01*
X13179282Y-8469566D02*
X13169758Y-8421947D01*
X13169758Y-8421947D02*
X13160234Y-8393375D01*
X13160234Y-8393375D02*
X13150711Y-8374328D01*
X13150711Y-8374328D02*
X13131663Y-8345756D01*
X13131663Y-8345756D02*
X13122139Y-8336232D01*
D12*
X8156600Y-8737320D02*
G75*
G02*
X8056600Y-8737320I-50000J0D01*
G01*
X8056600Y-8737320D02*
G75*
G02*
X8156600Y-8737320I50000J0D01*
G01*
D11*
X8522139Y-8828804D02*
X8407853Y-8828804D01*
X8464996Y-8828804D02*
X8464996Y-8628804D01*
X8464996Y-8628804D02*
X8445948Y-8657375D01*
X8445948Y-8657375D02*
X8426901Y-8676423D01*
X8426901Y-8676423D02*
X8407853Y-8685947D01*
X8607853Y-8809756D02*
X8617377Y-8819280D01*
X8617377Y-8819280D02*
X8607853Y-8828804D01*
X8607853Y-8828804D02*
X8598329Y-8819280D01*
X8598329Y-8819280D02*
X8607853Y-8809756D01*
X8607853Y-8809756D02*
X8607853Y-8828804D01*
X8741186Y-8628804D02*
X8760234Y-8628804D01*
X8760234Y-8628804D02*
X8779282Y-8638328D01*
X8779282Y-8638328D02*
X8788805Y-8647851D01*
X8788805Y-8647851D02*
X8798329Y-8666899D01*
X8798329Y-8666899D02*
X8807853Y-8704994D01*
X8807853Y-8704994D02*
X8807853Y-8752613D01*
X8807853Y-8752613D02*
X8798329Y-8790709D01*
X8798329Y-8790709D02*
X8788805Y-8809756D01*
X8788805Y-8809756D02*
X8779282Y-8819280D01*
X8779282Y-8819280D02*
X8760234Y-8828804D01*
X8760234Y-8828804D02*
X8741186Y-8828804D01*
X8741186Y-8828804D02*
X8722139Y-8819280D01*
X8722139Y-8819280D02*
X8712615Y-8809756D01*
X8712615Y-8809756D02*
X8703091Y-8790709D01*
X8703091Y-8790709D02*
X8693567Y-8752613D01*
X8693567Y-8752613D02*
X8693567Y-8704994D01*
X8693567Y-8704994D02*
X8703091Y-8666899D01*
X8703091Y-8666899D02*
X8712615Y-8647851D01*
X8712615Y-8647851D02*
X8722139Y-8638328D01*
X8722139Y-8638328D02*
X8741186Y-8628804D01*
X8931663Y-8628804D02*
X8950710Y-8628804D01*
X8950710Y-8628804D02*
X8969758Y-8638328D01*
X8969758Y-8638328D02*
X8979282Y-8647851D01*
X8979282Y-8647851D02*
X8988805Y-8666899D01*
X8988805Y-8666899D02*
X8998329Y-8704994D01*
X8998329Y-8704994D02*
X8998329Y-8752613D01*
X8998329Y-8752613D02*
X8988805Y-8790709D01*
X8988805Y-8790709D02*
X8979282Y-8809756D01*
X8979282Y-8809756D02*
X8969758Y-8819280D01*
X8969758Y-8819280D02*
X8950710Y-8828804D01*
X8950710Y-8828804D02*
X8931663Y-8828804D01*
X8931663Y-8828804D02*
X8912615Y-8819280D01*
X8912615Y-8819280D02*
X8903091Y-8809756D01*
X8903091Y-8809756D02*
X8893567Y-8790709D01*
X8893567Y-8790709D02*
X8884044Y-8752613D01*
X8884044Y-8752613D02*
X8884044Y-8704994D01*
X8884044Y-8704994D02*
X8893567Y-8666899D01*
X8893567Y-8666899D02*
X8903091Y-8647851D01*
X8903091Y-8647851D02*
X8912615Y-8638328D01*
X8912615Y-8638328D02*
X8931663Y-8628804D01*
X9122139Y-8628804D02*
X9141186Y-8628804D01*
X9141186Y-8628804D02*
X9160234Y-8638328D01*
X9160234Y-8638328D02*
X9169758Y-8647851D01*
X9169758Y-8647851D02*
X9179282Y-8666899D01*
X9179282Y-8666899D02*
X9188805Y-8704994D01*
X9188805Y-8704994D02*
X9188805Y-8752613D01*
X9188805Y-8752613D02*
X9179282Y-8790709D01*
X9179282Y-8790709D02*
X9169758Y-8809756D01*
X9169758Y-8809756D02*
X9160234Y-8819280D01*
X9160234Y-8819280D02*
X9141186Y-8828804D01*
X9141186Y-8828804D02*
X9122139Y-8828804D01*
X9122139Y-8828804D02*
X9103091Y-8819280D01*
X9103091Y-8819280D02*
X9093567Y-8809756D01*
X9093567Y-8809756D02*
X9084044Y-8790709D01*
X9084044Y-8790709D02*
X9074520Y-8752613D01*
X9074520Y-8752613D02*
X9074520Y-8704994D01*
X9074520Y-8704994D02*
X9084044Y-8666899D01*
X9084044Y-8666899D02*
X9093567Y-8647851D01*
X9093567Y-8647851D02*
X9103091Y-8638328D01*
X9103091Y-8638328D02*
X9122139Y-8628804D01*
X9274520Y-8828804D02*
X9274520Y-8695470D01*
X9274520Y-8714518D02*
X9284044Y-8704994D01*
X9284044Y-8704994D02*
X9303091Y-8695470D01*
X9303091Y-8695470D02*
X9331663Y-8695470D01*
X9331663Y-8695470D02*
X9350710Y-8704994D01*
X9350710Y-8704994D02*
X9360234Y-8724042D01*
X9360234Y-8724042D02*
X9360234Y-8828804D01*
X9360234Y-8724042D02*
X9369758Y-8704994D01*
X9369758Y-8704994D02*
X9388805Y-8695470D01*
X9388805Y-8695470D02*
X9417377Y-8695470D01*
X9417377Y-8695470D02*
X9436425Y-8704994D01*
X9436425Y-8704994D02*
X9445948Y-8724042D01*
X9445948Y-8724042D02*
X9445948Y-8828804D01*
X9541186Y-8828804D02*
X9541186Y-8695470D01*
X9541186Y-8714518D02*
X9550710Y-8704994D01*
X9550710Y-8704994D02*
X9569758Y-8695470D01*
X9569758Y-8695470D02*
X9598329Y-8695470D01*
X9598329Y-8695470D02*
X9617377Y-8704994D01*
X9617377Y-8704994D02*
X9626901Y-8724042D01*
X9626901Y-8724042D02*
X9626901Y-8828804D01*
X9626901Y-8724042D02*
X9636425Y-8704994D01*
X9636425Y-8704994D02*
X9655472Y-8695470D01*
X9655472Y-8695470D02*
X9684044Y-8695470D01*
X9684044Y-8695470D02*
X9703091Y-8704994D01*
X9703091Y-8704994D02*
X9712615Y-8724042D01*
X9712615Y-8724042D02*
X9712615Y-8828804D01*
X10103091Y-8619280D02*
X9931663Y-8876423D01*
X10360234Y-8628804D02*
X10379282Y-8628804D01*
X10379282Y-8628804D02*
X10398329Y-8638328D01*
X10398329Y-8638328D02*
X10407853Y-8647851D01*
X10407853Y-8647851D02*
X10417377Y-8666899D01*
X10417377Y-8666899D02*
X10426901Y-8704994D01*
X10426901Y-8704994D02*
X10426901Y-8752613D01*
X10426901Y-8752613D02*
X10417377Y-8790709D01*
X10417377Y-8790709D02*
X10407853Y-8809756D01*
X10407853Y-8809756D02*
X10398329Y-8819280D01*
X10398329Y-8819280D02*
X10379282Y-8828804D01*
X10379282Y-8828804D02*
X10360234Y-8828804D01*
X10360234Y-8828804D02*
X10341187Y-8819280D01*
X10341187Y-8819280D02*
X10331663Y-8809756D01*
X10331663Y-8809756D02*
X10322139Y-8790709D01*
X10322139Y-8790709D02*
X10312615Y-8752613D01*
X10312615Y-8752613D02*
X10312615Y-8704994D01*
X10312615Y-8704994D02*
X10322139Y-8666899D01*
X10322139Y-8666899D02*
X10331663Y-8647851D01*
X10331663Y-8647851D02*
X10341187Y-8638328D01*
X10341187Y-8638328D02*
X10360234Y-8628804D01*
X10512615Y-8809756D02*
X10522139Y-8819280D01*
X10522139Y-8819280D02*
X10512615Y-8828804D01*
X10512615Y-8828804D02*
X10503091Y-8819280D01*
X10503091Y-8819280D02*
X10512615Y-8809756D01*
X10512615Y-8809756D02*
X10512615Y-8828804D01*
X10645948Y-8628804D02*
X10664996Y-8628804D01*
X10664996Y-8628804D02*
X10684044Y-8638328D01*
X10684044Y-8638328D02*
X10693568Y-8647851D01*
X10693568Y-8647851D02*
X10703091Y-8666899D01*
X10703091Y-8666899D02*
X10712615Y-8704994D01*
X10712615Y-8704994D02*
X10712615Y-8752613D01*
X10712615Y-8752613D02*
X10703091Y-8790709D01*
X10703091Y-8790709D02*
X10693568Y-8809756D01*
X10693568Y-8809756D02*
X10684044Y-8819280D01*
X10684044Y-8819280D02*
X10664996Y-8828804D01*
X10664996Y-8828804D02*
X10645948Y-8828804D01*
X10645948Y-8828804D02*
X10626901Y-8819280D01*
X10626901Y-8819280D02*
X10617377Y-8809756D01*
X10617377Y-8809756D02*
X10607853Y-8790709D01*
X10607853Y-8790709D02*
X10598329Y-8752613D01*
X10598329Y-8752613D02*
X10598329Y-8704994D01*
X10598329Y-8704994D02*
X10607853Y-8666899D01*
X10607853Y-8666899D02*
X10617377Y-8647851D01*
X10617377Y-8647851D02*
X10626901Y-8638328D01*
X10626901Y-8638328D02*
X10645948Y-8628804D01*
X10779282Y-8628804D02*
X10903091Y-8628804D01*
X10903091Y-8628804D02*
X10836425Y-8704994D01*
X10836425Y-8704994D02*
X10864996Y-8704994D01*
X10864996Y-8704994D02*
X10884044Y-8714518D01*
X10884044Y-8714518D02*
X10893568Y-8724042D01*
X10893568Y-8724042D02*
X10903091Y-8743090D01*
X10903091Y-8743090D02*
X10903091Y-8790709D01*
X10903091Y-8790709D02*
X10893568Y-8809756D01*
X10893568Y-8809756D02*
X10884044Y-8819280D01*
X10884044Y-8819280D02*
X10864996Y-8828804D01*
X10864996Y-8828804D02*
X10807853Y-8828804D01*
X10807853Y-8828804D02*
X10788806Y-8819280D01*
X10788806Y-8819280D02*
X10779282Y-8809756D01*
X10998329Y-8828804D02*
X11036425Y-8828804D01*
X11036425Y-8828804D02*
X11055472Y-8819280D01*
X11055472Y-8819280D02*
X11064996Y-8809756D01*
X11064996Y-8809756D02*
X11084044Y-8781185D01*
X11084044Y-8781185D02*
X11093568Y-8743090D01*
X11093568Y-8743090D02*
X11093568Y-8666899D01*
X11093568Y-8666899D02*
X11084044Y-8647851D01*
X11084044Y-8647851D02*
X11074520Y-8638328D01*
X11074520Y-8638328D02*
X11055472Y-8628804D01*
X11055472Y-8628804D02*
X11017377Y-8628804D01*
X11017377Y-8628804D02*
X10998329Y-8638328D01*
X10998329Y-8638328D02*
X10988806Y-8647851D01*
X10988806Y-8647851D02*
X10979282Y-8666899D01*
X10979282Y-8666899D02*
X10979282Y-8714518D01*
X10979282Y-8714518D02*
X10988806Y-8733566D01*
X10988806Y-8733566D02*
X10998329Y-8743090D01*
X10998329Y-8743090D02*
X11017377Y-8752613D01*
X11017377Y-8752613D02*
X11055472Y-8752613D01*
X11055472Y-8752613D02*
X11074520Y-8743090D01*
X11074520Y-8743090D02*
X11084044Y-8733566D01*
X11084044Y-8733566D02*
X11093568Y-8714518D01*
X11264996Y-8695470D02*
X11264996Y-8828804D01*
X11217377Y-8619280D02*
X11169758Y-8762137D01*
X11169758Y-8762137D02*
X11293567Y-8762137D01*
X11360234Y-8628804D02*
X11360234Y-8666899D01*
X11436425Y-8628804D02*
X11436425Y-8666899D01*
X11731663Y-8904994D02*
X11722139Y-8895470D01*
X11722139Y-8895470D02*
X11703091Y-8866899D01*
X11703091Y-8866899D02*
X11693568Y-8847851D01*
X11693568Y-8847851D02*
X11684044Y-8819280D01*
X11684044Y-8819280D02*
X11674520Y-8771661D01*
X11674520Y-8771661D02*
X11674520Y-8733566D01*
X11674520Y-8733566D02*
X11684044Y-8685947D01*
X11684044Y-8685947D02*
X11693568Y-8657375D01*
X11693568Y-8657375D02*
X11703091Y-8638328D01*
X11703091Y-8638328D02*
X11722139Y-8609756D01*
X11722139Y-8609756D02*
X11731663Y-8600232D01*
X11912615Y-8828804D02*
X11798329Y-8828804D01*
X11855472Y-8828804D02*
X11855472Y-8628804D01*
X11855472Y-8628804D02*
X11836425Y-8657375D01*
X11836425Y-8657375D02*
X11817377Y-8676423D01*
X11817377Y-8676423D02*
X11798329Y-8685947D01*
X11988806Y-8647851D02*
X11998329Y-8638328D01*
X11998329Y-8638328D02*
X12017377Y-8628804D01*
X12017377Y-8628804D02*
X12064996Y-8628804D01*
X12064996Y-8628804D02*
X12084044Y-8638328D01*
X12084044Y-8638328D02*
X12093568Y-8647851D01*
X12093568Y-8647851D02*
X12103091Y-8666899D01*
X12103091Y-8666899D02*
X12103091Y-8685947D01*
X12103091Y-8685947D02*
X12093568Y-8714518D01*
X12093568Y-8714518D02*
X11979282Y-8828804D01*
X11979282Y-8828804D02*
X12103091Y-8828804D01*
X12341187Y-8828804D02*
X12341187Y-8628804D01*
X12426901Y-8828804D02*
X12426901Y-8724042D01*
X12426901Y-8724042D02*
X12417377Y-8704994D01*
X12417377Y-8704994D02*
X12398330Y-8695470D01*
X12398330Y-8695470D02*
X12369758Y-8695470D01*
X12369758Y-8695470D02*
X12350710Y-8704994D01*
X12350710Y-8704994D02*
X12341187Y-8714518D01*
X12550710Y-8828804D02*
X12531663Y-8819280D01*
X12531663Y-8819280D02*
X12522139Y-8809756D01*
X12522139Y-8809756D02*
X12512615Y-8790709D01*
X12512615Y-8790709D02*
X12512615Y-8733566D01*
X12512615Y-8733566D02*
X12522139Y-8714518D01*
X12522139Y-8714518D02*
X12531663Y-8704994D01*
X12531663Y-8704994D02*
X12550710Y-8695470D01*
X12550710Y-8695470D02*
X12579282Y-8695470D01*
X12579282Y-8695470D02*
X12598330Y-8704994D01*
X12598330Y-8704994D02*
X12607853Y-8714518D01*
X12607853Y-8714518D02*
X12617377Y-8733566D01*
X12617377Y-8733566D02*
X12617377Y-8790709D01*
X12617377Y-8790709D02*
X12607853Y-8809756D01*
X12607853Y-8809756D02*
X12598330Y-8819280D01*
X12598330Y-8819280D02*
X12579282Y-8828804D01*
X12579282Y-8828804D02*
X12550710Y-8828804D01*
X12731663Y-8828804D02*
X12712615Y-8819280D01*
X12712615Y-8819280D02*
X12703091Y-8800232D01*
X12703091Y-8800232D02*
X12703091Y-8628804D01*
X12884044Y-8819280D02*
X12864996Y-8828804D01*
X12864996Y-8828804D02*
X12826901Y-8828804D01*
X12826901Y-8828804D02*
X12807853Y-8819280D01*
X12807853Y-8819280D02*
X12798330Y-8800232D01*
X12798330Y-8800232D02*
X12798330Y-8724042D01*
X12798330Y-8724042D02*
X12807853Y-8704994D01*
X12807853Y-8704994D02*
X12826901Y-8695470D01*
X12826901Y-8695470D02*
X12864996Y-8695470D01*
X12864996Y-8695470D02*
X12884044Y-8704994D01*
X12884044Y-8704994D02*
X12893568Y-8724042D01*
X12893568Y-8724042D02*
X12893568Y-8743090D01*
X12893568Y-8743090D02*
X12798330Y-8762137D01*
X12969758Y-8819280D02*
X12988806Y-8828804D01*
X12988806Y-8828804D02*
X13026901Y-8828804D01*
X13026901Y-8828804D02*
X13045949Y-8819280D01*
X13045949Y-8819280D02*
X13055472Y-8800232D01*
X13055472Y-8800232D02*
X13055472Y-8790709D01*
X13055472Y-8790709D02*
X13045949Y-8771661D01*
X13045949Y-8771661D02*
X13026901Y-8762137D01*
X13026901Y-8762137D02*
X12998330Y-8762137D01*
X12998330Y-8762137D02*
X12979282Y-8752613D01*
X12979282Y-8752613D02*
X12969758Y-8733566D01*
X12969758Y-8733566D02*
X12969758Y-8724042D01*
X12969758Y-8724042D02*
X12979282Y-8704994D01*
X12979282Y-8704994D02*
X12998330Y-8695470D01*
X12998330Y-8695470D02*
X13026901Y-8695470D01*
X13026901Y-8695470D02*
X13045949Y-8704994D01*
X13122139Y-8904994D02*
X13131663Y-8895470D01*
X13131663Y-8895470D02*
X13150711Y-8866899D01*
X13150711Y-8866899D02*
X13160234Y-8847851D01*
X13160234Y-8847851D02*
X13169758Y-8819280D01*
X13169758Y-8819280D02*
X13179282Y-8771661D01*
X13179282Y-8771661D02*
X13179282Y-8733566D01*
X13179282Y-8733566D02*
X13169758Y-8685947D01*
X13169758Y-8685947D02*
X13160234Y-8657375D01*
X13160234Y-8657375D02*
X13150711Y-8638328D01*
X13150711Y-8638328D02*
X13131663Y-8609756D01*
X13131663Y-8609756D02*
X13122139Y-8600232D01*
M02*
