G04 DipTrace 3.3.1.1*
G04 Bottom.gbr*
%MOIN*%
G04 #@! TF.FileFunction,Copper,L2,Bot*
G04 #@! TF.Part,Single*
G04 #@! TA.AperFunction,Conductor*
%ADD14C,0.03937*%
G04 #@! TA.AperFunction,ComponentPad*
%ADD16C,0.065*%
%ADD17C,0.17*%
%ADD18R,0.074803X0.074803*%
%ADD19C,0.074803*%
%ADD20C,0.064961*%
%ADD21C,0.059055*%
%ADD22R,0.059055X0.059055*%
%ADD23C,0.059055*%
%ADD25C,0.1*%
%FSLAX26Y26*%
G04*
G70*
G90*
G75*
G01*
G04 Bottom*
%LPD*%
X585920Y895936D2*
D14*
X685920D1*
X905827D1*
Y905827D1*
X1037562D1*
X1145130Y798259D1*
Y805769D1*
X1535912D1*
X1702846Y2025772D2*
X2010480D1*
Y1275899D1*
X1540350Y805769D1*
X1535912D1*
X685920Y1095936D2*
X585920D1*
X488542D1*
Y895936D1*
X585920D1*
Y1295936D2*
X481676D1*
Y1095936D1*
X488542D1*
X685920Y1295936D2*
X585920D1*
X2010480Y2025772D2*
X2484374D1*
X2559322Y1950824D1*
Y1939223D1*
Y1926440D1*
X2972753D1*
X2559322Y1939223D2*
X2394333Y1774235D1*
Y956512D1*
X2543110Y807735D1*
X2553552D1*
X603990Y1986190D2*
X584290D1*
X481676Y1883576D1*
Y1295936D1*
X1702846Y1925772D2*
X1589608D1*
X1535912Y1872076D1*
Y1005769D1*
X585920Y995936D2*
X685920D1*
X750777D1*
X842182Y1087341D1*
X905827D1*
Y1102677D1*
X585920Y1195936D2*
X685920D1*
X780402D1*
X899331Y1314865D1*
Y1338898D1*
X905827D1*
X2972753Y2026440D2*
X3081226D1*
Y1378167D1*
X2710794Y1007735D1*
X2553552D1*
X585920Y1395936D2*
X685920D1*
X773567D1*
X874009Y1496378D1*
X905827D1*
X1063307Y2398740D2*
Y2278673D1*
X1236741Y2105239D1*
X1246823D1*
D16*
X585920Y1495936D3*
Y1395936D3*
Y1295936D3*
Y1195936D3*
Y1095936D3*
Y995936D3*
Y895936D3*
X685920D3*
Y995936D3*
Y1095936D3*
Y1195936D3*
Y1295936D3*
Y1395936D3*
Y1495936D3*
Y1595936D3*
X585920D3*
D17*
X2854024Y2426440D3*
Y1426440D3*
D18*
X1702846Y2025772D3*
D19*
Y1925772D3*
Y1825772D3*
D18*
X2972753Y1826440D3*
D19*
Y1926440D3*
Y2026440D3*
D17*
X1804874Y2425772D3*
Y1425772D3*
D20*
X1246823Y1905239D3*
Y2105239D3*
X2553552Y807735D3*
Y1007735D3*
X1535912Y805769D3*
Y1005769D3*
D21*
X905827Y905827D3*
Y1102677D3*
Y1338898D3*
Y1496378D3*
D18*
X1063307Y2598740D3*
D19*
Y2498740D3*
Y2398740D3*
D22*
X1338898Y2362520D3*
D23*
Y2638110D3*
D25*
X603990Y1986190D3*
Y2186190D3*
M02*
