M48
INCH
T01C0.0354
T02C0.0394
T03C0.0433
T04C0.055
T05C0.11
T06C0.1575
%
T01
X+005859Y+014959
X+005859Y+013959
X+005859Y+012959
X+005859Y+011959
X+005859Y+010959
X+005859Y+009959
X+005859Y+008959
X+006859Y+008959
X+006859Y+009959
X+006859Y+010959
X+006859Y+011959
X+006859Y+012959
X+006859Y+013959
X+006859Y+014959
X+006859Y+015959
X+005859Y+015959
X+009058Y+014964
X+009058Y+013389
X+009058Y+011027
X+009058Y+009058
X+013389Y+023625
X+013389Y+026381
T02
X+012468Y+019052
X+012468Y+021052
X+015359Y+010058
X+015359Y+008058
X+025536Y+008077
X+025536Y+010077
T03
X+017028Y+020258
X+017028Y+019258
X+017028Y+018258
X+010633Y+023987
X+010633Y+024987
X+010633Y+025987
X+029728Y+020264
X+029728Y+019264
X+029728Y+018264
T04
X+006040Y+019862
X+006040Y+021862
T05
X+028540Y+024264
X+028540Y+014264
X+018049Y+014258
X+018049Y+024258
T06
X+005301Y+005331
X+030169Y+005331
T00
M30
