G04 DipTrace 3.3.1.1*
G04 TopMask.gbr*
%MOIN*%
G04 #@! TF.FileFunction,Soldermask,Top*
G04 #@! TF.Part,Single*
%ADD27C,0.15748*%
%ADD33R,0.071024X0.078898*%
%ADD35C,0.108031*%
%ADD37R,0.078898X0.071024*%
%ADD39C,0.067087*%
%ADD41R,0.067087X0.067087*%
%ADD43C,0.067087*%
%ADD45C,0.072992*%
%ADD47C,0.082835*%
%ADD49R,0.082835X0.082835*%
%ADD51C,0.178031*%
%ADD53C,0.073031*%
%FSLAX26Y26*%
G04*
G70*
G90*
G75*
G01*
G04 TopMask*
%LPD*%
D53*
X585920Y1495936D3*
Y1395936D3*
Y1295936D3*
Y1195936D3*
Y1095936D3*
Y995936D3*
Y895936D3*
X685920D3*
Y995936D3*
Y1095936D3*
Y1195936D3*
Y1295936D3*
Y1395936D3*
Y1495936D3*
Y1595936D3*
X585920D3*
D27*
X530068Y533130D3*
X3016929D3*
D51*
X2854024Y2426440D3*
Y1426440D3*
D49*
X1702846Y2025772D3*
D47*
Y1925772D3*
Y1825772D3*
D49*
X2972753Y1826440D3*
D47*
Y1926440D3*
Y2026440D3*
D51*
X1804874Y2425772D3*
Y1425772D3*
D45*
X1246823Y1905239D3*
Y2105239D3*
X2553552Y807735D3*
Y1007735D3*
X1535912Y805769D3*
Y1005769D3*
D43*
X905827Y905827D3*
Y1102677D3*
Y1338898D3*
Y1496378D3*
D49*
X1063307Y2598740D3*
D47*
Y2498740D3*
Y2398740D3*
D41*
X1338898Y2362520D3*
D39*
Y2638110D3*
D37*
X658079Y2446337D3*
Y2556573D3*
D35*
X603990Y1986190D3*
Y2186190D3*
D37*
X1889265Y853766D3*
Y964003D3*
X2215875Y830194D3*
Y940430D3*
D33*
X1157354Y1683322D3*
X1267591D3*
M02*
