G04 DipTrace 3.3.1.1*
G04 TopDimension.gbr*
%MOIN*%
G04 #@! TF.FileFunction,Drawing,Top*
G04 #@! TF.Part,Single*
%ADD13C,0.001378*%
%ADD58C,0.006176*%
%FSLAX26Y26*%
G04*
G70*
G90*
G75*
G01*
G04 TopDimension*
%LPD*%
X394016Y2756220D2*
D13*
Y2894016D1*
X3149921Y2756220D2*
Y2894016D1*
X1771969Y2874331D2*
X433386D1*
G36*
X394016D2*
X433386Y2882205D1*
Y2866457D1*
X394016Y2874331D1*
G37*
X1771969D2*
D13*
X3110551D1*
G36*
X3149921D2*
X3110551Y2866457D1*
Y2882205D1*
X3149921Y2874331D1*
G37*
X394016Y2756220D2*
D13*
X215598D1*
X394016Y394016D2*
X215598D1*
X235283Y1575118D2*
Y2716850D1*
G36*
Y2756220D2*
X243157Y2716850D1*
X227409D1*
X235283Y2756220D1*
G37*
Y1575118D2*
D13*
Y433386D1*
G36*
Y394016D2*
X227409Y433386D1*
X243157D1*
X235283Y394016D1*
G37*
X1749735Y2886541D2*
D58*
X1768881Y2926689D1*
X1742086D1*
X1792728D2*
X1786980Y2924788D1*
X1783133Y2919040D1*
X1781232Y2909489D1*
Y2903741D1*
X1783133Y2894191D1*
X1786980Y2888443D1*
X1792728Y2886541D1*
X1796531D1*
X1802279Y2888443D1*
X1806081Y2894191D1*
X1808027Y2903741D1*
Y2909489D1*
X1806081Y2919040D1*
X1802279Y2924788D1*
X1796531Y2926689D1*
X1792728D1*
X1806081Y2919040D2*
X1783133Y2894191D1*
X188628Y1569156D2*
X184825Y1567255D1*
X182924Y1561507D1*
Y1557704D1*
X184825Y1551956D1*
X190573Y1548110D1*
X200124Y1546208D1*
X209675D1*
X217324Y1548110D1*
X221171Y1551956D1*
X223072Y1557704D1*
Y1559606D1*
X221171Y1565309D1*
X217324Y1569156D1*
X211576Y1571058D1*
X209675D1*
X203927Y1569156D1*
X200124Y1565309D1*
X198223Y1559606D1*
Y1557704D1*
X200124Y1551956D1*
X203927Y1548110D1*
X209675Y1546208D1*
X182924Y1594905D2*
X184825Y1589157D1*
X190573Y1585310D1*
X200124Y1583409D1*
X205872D1*
X215423Y1585310D1*
X221171Y1589157D1*
X223072Y1594905D1*
Y1598708D1*
X221171Y1604456D1*
X215423Y1608258D1*
X205872Y1610204D1*
X200124D1*
X190573Y1608258D1*
X184825Y1604456D1*
X182924Y1598708D1*
Y1594905D1*
X190573Y1608258D2*
X215423Y1585310D1*
M02*
