%TF.GenerationSoftware,KiCad,Pcbnew,10.0.1*%
%TF.CreationDate,2026-07-07T01:25:30-05:00*%
%TF.ProjectId,T41-Single-PE4312-Attenuator-daughterboard,5434312d-5369-46e6-976c-652d50453433,rev?*%
%TF.SameCoordinates,Original*%
%TF.FileFunction,Legend,Bot*%
%TF.FilePolarity,Positive*%
%FSLAX46Y46*%
G04 Gerber Fmt 4.6, Leading zero omitted, Abs format (unit mm)*
G04 Created by KiCad (PCBNEW 10.0.1) date 2026-07-07 01:25:30*
%MOMM*%
%LPD*%
G01*
G04 APERTURE LIST*
%ADD10C,0.200000*%
%ADD11C,0.100000*%
G04 APERTURE END LIST*
D10*
X87657275Y-62876816D02*
X87657275Y-63448244D01*
X88657275Y-63162530D02*
X87657275Y-63162530D01*
X87990608Y-64210149D02*
X88657275Y-64210149D01*
X87609656Y-63972054D02*
X88323941Y-63733959D01*
X88323941Y-63733959D02*
X88323941Y-64353006D01*
X88657275Y-65257768D02*
X88657275Y-64686340D01*
X88657275Y-64972054D02*
X87657275Y-64972054D01*
X87657275Y-64972054D02*
X87800132Y-64876816D01*
X87800132Y-64876816D02*
X87895370Y-64781578D01*
X87895370Y-64781578D02*
X87942989Y-64686340D01*
X88371560Y-66400626D02*
X88371560Y-66876816D01*
X88657275Y-66305388D02*
X87657275Y-66638721D01*
X87657275Y-66638721D02*
X88657275Y-66972054D01*
X87990608Y-67162531D02*
X87990608Y-67543483D01*
X87657275Y-67305388D02*
X88514417Y-67305388D01*
X88514417Y-67305388D02*
X88609656Y-67353007D01*
X88609656Y-67353007D02*
X88657275Y-67448245D01*
X88657275Y-67448245D02*
X88657275Y-67543483D01*
X87990608Y-67733960D02*
X87990608Y-68114912D01*
X87657275Y-67876817D02*
X88514417Y-67876817D01*
X88514417Y-67876817D02*
X88609656Y-67924436D01*
X88609656Y-67924436D02*
X88657275Y-68019674D01*
X88657275Y-68019674D02*
X88657275Y-68114912D01*
X88609656Y-68829198D02*
X88657275Y-68733960D01*
X88657275Y-68733960D02*
X88657275Y-68543484D01*
X88657275Y-68543484D02*
X88609656Y-68448246D01*
X88609656Y-68448246D02*
X88514417Y-68400627D01*
X88514417Y-68400627D02*
X88133465Y-68400627D01*
X88133465Y-68400627D02*
X88038227Y-68448246D01*
X88038227Y-68448246D02*
X87990608Y-68543484D01*
X87990608Y-68543484D02*
X87990608Y-68733960D01*
X87990608Y-68733960D02*
X88038227Y-68829198D01*
X88038227Y-68829198D02*
X88133465Y-68876817D01*
X88133465Y-68876817D02*
X88228703Y-68876817D01*
X88228703Y-68876817D02*
X88323941Y-68400627D01*
X87990608Y-69305389D02*
X88657275Y-69305389D01*
X88085846Y-69305389D02*
X88038227Y-69353008D01*
X88038227Y-69353008D02*
X87990608Y-69448246D01*
X87990608Y-69448246D02*
X87990608Y-69591103D01*
X87990608Y-69591103D02*
X88038227Y-69686341D01*
X88038227Y-69686341D02*
X88133465Y-69733960D01*
X88133465Y-69733960D02*
X88657275Y-69733960D01*
X87990608Y-70638722D02*
X88657275Y-70638722D01*
X87990608Y-70210151D02*
X88514417Y-70210151D01*
X88514417Y-70210151D02*
X88609656Y-70257770D01*
X88609656Y-70257770D02*
X88657275Y-70353008D01*
X88657275Y-70353008D02*
X88657275Y-70495865D01*
X88657275Y-70495865D02*
X88609656Y-70591103D01*
X88609656Y-70591103D02*
X88562036Y-70638722D01*
X88657275Y-71543484D02*
X88133465Y-71543484D01*
X88133465Y-71543484D02*
X88038227Y-71495865D01*
X88038227Y-71495865D02*
X87990608Y-71400627D01*
X87990608Y-71400627D02*
X87990608Y-71210151D01*
X87990608Y-71210151D02*
X88038227Y-71114913D01*
X88609656Y-71543484D02*
X88657275Y-71448246D01*
X88657275Y-71448246D02*
X88657275Y-71210151D01*
X88657275Y-71210151D02*
X88609656Y-71114913D01*
X88609656Y-71114913D02*
X88514417Y-71067294D01*
X88514417Y-71067294D02*
X88419179Y-71067294D01*
X88419179Y-71067294D02*
X88323941Y-71114913D01*
X88323941Y-71114913D02*
X88276322Y-71210151D01*
X88276322Y-71210151D02*
X88276322Y-71448246D01*
X88276322Y-71448246D02*
X88228703Y-71543484D01*
X87990608Y-71876818D02*
X87990608Y-72257770D01*
X87657275Y-72019675D02*
X88514417Y-72019675D01*
X88514417Y-72019675D02*
X88609656Y-72067294D01*
X88609656Y-72067294D02*
X88657275Y-72162532D01*
X88657275Y-72162532D02*
X88657275Y-72257770D01*
X88657275Y-72733961D02*
X88609656Y-72638723D01*
X88609656Y-72638723D02*
X88562036Y-72591104D01*
X88562036Y-72591104D02*
X88466798Y-72543485D01*
X88466798Y-72543485D02*
X88181084Y-72543485D01*
X88181084Y-72543485D02*
X88085846Y-72591104D01*
X88085846Y-72591104D02*
X88038227Y-72638723D01*
X88038227Y-72638723D02*
X87990608Y-72733961D01*
X87990608Y-72733961D02*
X87990608Y-72876818D01*
X87990608Y-72876818D02*
X88038227Y-72972056D01*
X88038227Y-72972056D02*
X88085846Y-73019675D01*
X88085846Y-73019675D02*
X88181084Y-73067294D01*
X88181084Y-73067294D02*
X88466798Y-73067294D01*
X88466798Y-73067294D02*
X88562036Y-73019675D01*
X88562036Y-73019675D02*
X88609656Y-72972056D01*
X88609656Y-72972056D02*
X88657275Y-72876818D01*
X88657275Y-72876818D02*
X88657275Y-72733961D01*
X88657275Y-73495866D02*
X87990608Y-73495866D01*
X88181084Y-73495866D02*
X88085846Y-73543485D01*
X88085846Y-73543485D02*
X88038227Y-73591104D01*
X88038227Y-73591104D02*
X87990608Y-73686342D01*
X87990608Y-73686342D02*
X87990608Y-73781580D01*
X88133465Y-75210152D02*
X88181084Y-75353009D01*
X88181084Y-75353009D02*
X88228703Y-75400628D01*
X88228703Y-75400628D02*
X88323941Y-75448247D01*
X88323941Y-75448247D02*
X88466798Y-75448247D01*
X88466798Y-75448247D02*
X88562036Y-75400628D01*
X88562036Y-75400628D02*
X88609656Y-75353009D01*
X88609656Y-75353009D02*
X88657275Y-75257771D01*
X88657275Y-75257771D02*
X88657275Y-74876819D01*
X88657275Y-74876819D02*
X87657275Y-74876819D01*
X87657275Y-74876819D02*
X87657275Y-75210152D01*
X87657275Y-75210152D02*
X87704894Y-75305390D01*
X87704894Y-75305390D02*
X87752513Y-75353009D01*
X87752513Y-75353009D02*
X87847751Y-75400628D01*
X87847751Y-75400628D02*
X87942989Y-75400628D01*
X87942989Y-75400628D02*
X88038227Y-75353009D01*
X88038227Y-75353009D02*
X88085846Y-75305390D01*
X88085846Y-75305390D02*
X88133465Y-75210152D01*
X88133465Y-75210152D02*
X88133465Y-74876819D01*
X88657275Y-75876819D02*
X87990608Y-75876819D01*
X88181084Y-75876819D02*
X88085846Y-75924438D01*
X88085846Y-75924438D02*
X88038227Y-75972057D01*
X88038227Y-75972057D02*
X87990608Y-76067295D01*
X87990608Y-76067295D02*
X87990608Y-76162533D01*
X88657275Y-76924438D02*
X87657275Y-76924438D01*
X88609656Y-76924438D02*
X88657275Y-76829200D01*
X88657275Y-76829200D02*
X88657275Y-76638724D01*
X88657275Y-76638724D02*
X88609656Y-76543486D01*
X88609656Y-76543486D02*
X88562036Y-76495867D01*
X88562036Y-76495867D02*
X88466798Y-76448248D01*
X88466798Y-76448248D02*
X88181084Y-76448248D01*
X88181084Y-76448248D02*
X88085846Y-76495867D01*
X88085846Y-76495867D02*
X88038227Y-76543486D01*
X88038227Y-76543486D02*
X87990608Y-76638724D01*
X87990608Y-76638724D02*
X87990608Y-76829200D01*
X87990608Y-76829200D02*
X88038227Y-76924438D01*
X89267219Y-62876816D02*
X90267219Y-63210149D01*
X90267219Y-63210149D02*
X89267219Y-63543482D01*
X89362457Y-63829197D02*
X89314838Y-63876816D01*
X89314838Y-63876816D02*
X89267219Y-63972054D01*
X89267219Y-63972054D02*
X89267219Y-64210149D01*
X89267219Y-64210149D02*
X89314838Y-64305387D01*
X89314838Y-64305387D02*
X89362457Y-64353006D01*
X89362457Y-64353006D02*
X89457695Y-64400625D01*
X89457695Y-64400625D02*
X89552933Y-64400625D01*
X89552933Y-64400625D02*
X89695790Y-64353006D01*
X89695790Y-64353006D02*
X90267219Y-63781578D01*
X90267219Y-63781578D02*
X90267219Y-64400625D01*
X89267219Y-65781578D02*
X89267219Y-65876816D01*
X89267219Y-65876816D02*
X89314838Y-65972054D01*
X89314838Y-65972054D02*
X89362457Y-66019673D01*
X89362457Y-66019673D02*
X89457695Y-66067292D01*
X89457695Y-66067292D02*
X89648171Y-66114911D01*
X89648171Y-66114911D02*
X89886266Y-66114911D01*
X89886266Y-66114911D02*
X90076742Y-66067292D01*
X90076742Y-66067292D02*
X90171980Y-66019673D01*
X90171980Y-66019673D02*
X90219600Y-65972054D01*
X90219600Y-65972054D02*
X90267219Y-65876816D01*
X90267219Y-65876816D02*
X90267219Y-65781578D01*
X90267219Y-65781578D02*
X90219600Y-65686340D01*
X90219600Y-65686340D02*
X90171980Y-65638721D01*
X90171980Y-65638721D02*
X90076742Y-65591102D01*
X90076742Y-65591102D02*
X89886266Y-65543483D01*
X89886266Y-65543483D02*
X89648171Y-65543483D01*
X89648171Y-65543483D02*
X89457695Y-65591102D01*
X89457695Y-65591102D02*
X89362457Y-65638721D01*
X89362457Y-65638721D02*
X89314838Y-65686340D01*
X89314838Y-65686340D02*
X89267219Y-65781578D01*
X89267219Y-66972054D02*
X89267219Y-66781578D01*
X89267219Y-66781578D02*
X89314838Y-66686340D01*
X89314838Y-66686340D02*
X89362457Y-66638721D01*
X89362457Y-66638721D02*
X89505314Y-66543483D01*
X89505314Y-66543483D02*
X89695790Y-66495864D01*
X89695790Y-66495864D02*
X90076742Y-66495864D01*
X90076742Y-66495864D02*
X90171980Y-66543483D01*
X90171980Y-66543483D02*
X90219600Y-66591102D01*
X90219600Y-66591102D02*
X90267219Y-66686340D01*
X90267219Y-66686340D02*
X90267219Y-66876816D01*
X90267219Y-66876816D02*
X90219600Y-66972054D01*
X90219600Y-66972054D02*
X90171980Y-67019673D01*
X90171980Y-67019673D02*
X90076742Y-67067292D01*
X90076742Y-67067292D02*
X89838647Y-67067292D01*
X89838647Y-67067292D02*
X89743409Y-67019673D01*
X89743409Y-67019673D02*
X89695790Y-66972054D01*
X89695790Y-66972054D02*
X89648171Y-66876816D01*
X89648171Y-66876816D02*
X89648171Y-66686340D01*
X89648171Y-66686340D02*
X89695790Y-66591102D01*
X89695790Y-66591102D02*
X89743409Y-66543483D01*
X89743409Y-66543483D02*
X89838647Y-66495864D01*
X89267219Y-67781578D02*
X89981504Y-67781578D01*
X89981504Y-67781578D02*
X90124361Y-67733959D01*
X90124361Y-67733959D02*
X90219600Y-67638721D01*
X90219600Y-67638721D02*
X90267219Y-67495864D01*
X90267219Y-67495864D02*
X90267219Y-67400626D01*
X89267219Y-68257769D02*
X90076742Y-68257769D01*
X90076742Y-68257769D02*
X90171980Y-68305388D01*
X90171980Y-68305388D02*
X90219600Y-68353007D01*
X90219600Y-68353007D02*
X90267219Y-68448245D01*
X90267219Y-68448245D02*
X90267219Y-68638721D01*
X90267219Y-68638721D02*
X90219600Y-68733959D01*
X90219600Y-68733959D02*
X90171980Y-68781578D01*
X90171980Y-68781578D02*
X90076742Y-68829197D01*
X90076742Y-68829197D02*
X89267219Y-68829197D01*
X90267219Y-69781578D02*
X90267219Y-69305388D01*
X90267219Y-69305388D02*
X89267219Y-69305388D01*
X89362457Y-70067293D02*
X89314838Y-70114912D01*
X89314838Y-70114912D02*
X89267219Y-70210150D01*
X89267219Y-70210150D02*
X89267219Y-70448245D01*
X89267219Y-70448245D02*
X89314838Y-70543483D01*
X89314838Y-70543483D02*
X89362457Y-70591102D01*
X89362457Y-70591102D02*
X89457695Y-70638721D01*
X89457695Y-70638721D02*
X89552933Y-70638721D01*
X89552933Y-70638721D02*
X89695790Y-70591102D01*
X89695790Y-70591102D02*
X90267219Y-70019674D01*
X90267219Y-70019674D02*
X90267219Y-70638721D01*
X89267219Y-71495864D02*
X89267219Y-71305388D01*
X89267219Y-71305388D02*
X89314838Y-71210150D01*
X89314838Y-71210150D02*
X89362457Y-71162531D01*
X89362457Y-71162531D02*
X89505314Y-71067293D01*
X89505314Y-71067293D02*
X89695790Y-71019674D01*
X89695790Y-71019674D02*
X90076742Y-71019674D01*
X90076742Y-71019674D02*
X90171980Y-71067293D01*
X90171980Y-71067293D02*
X90219600Y-71114912D01*
X90219600Y-71114912D02*
X90267219Y-71210150D01*
X90267219Y-71210150D02*
X90267219Y-71400626D01*
X90267219Y-71400626D02*
X90219600Y-71495864D01*
X90219600Y-71495864D02*
X90171980Y-71543483D01*
X90171980Y-71543483D02*
X90076742Y-71591102D01*
X90076742Y-71591102D02*
X89838647Y-71591102D01*
X89838647Y-71591102D02*
X89743409Y-71543483D01*
X89743409Y-71543483D02*
X89695790Y-71495864D01*
X89695790Y-71495864D02*
X89648171Y-71400626D01*
X89648171Y-71400626D02*
X89648171Y-71210150D01*
X89648171Y-71210150D02*
X89695790Y-71114912D01*
X89695790Y-71114912D02*
X89743409Y-71067293D01*
X89743409Y-71067293D02*
X89838647Y-71019674D01*
D11*
X91967544Y-73959133D02*
X92200877Y-73625800D01*
X92367544Y-73959133D02*
X92367544Y-73259133D01*
X92367544Y-73259133D02*
X92100877Y-73259133D01*
X92100877Y-73259133D02*
X92034211Y-73292466D01*
X92034211Y-73292466D02*
X92000877Y-73325800D01*
X92000877Y-73325800D02*
X91967544Y-73392466D01*
X91967544Y-73392466D02*
X91967544Y-73492466D01*
X91967544Y-73492466D02*
X92000877Y-73559133D01*
X92000877Y-73559133D02*
X92034211Y-73592466D01*
X92034211Y-73592466D02*
X92100877Y-73625800D01*
X92100877Y-73625800D02*
X92367544Y-73625800D01*
X91434211Y-73592466D02*
X91667544Y-73592466D01*
X91667544Y-73959133D02*
X91667544Y-73259133D01*
X91667544Y-73259133D02*
X91334211Y-73259133D01*
X90934211Y-73259133D02*
X90800877Y-73259133D01*
X90800877Y-73259133D02*
X90734211Y-73292466D01*
X90734211Y-73292466D02*
X90667544Y-73359133D01*
X90667544Y-73359133D02*
X90634211Y-73492466D01*
X90634211Y-73492466D02*
X90634211Y-73725800D01*
X90634211Y-73725800D02*
X90667544Y-73859133D01*
X90667544Y-73859133D02*
X90734211Y-73925800D01*
X90734211Y-73925800D02*
X90800877Y-73959133D01*
X90800877Y-73959133D02*
X90934211Y-73959133D01*
X90934211Y-73959133D02*
X91000877Y-73925800D01*
X91000877Y-73925800D02*
X91067544Y-73859133D01*
X91067544Y-73859133D02*
X91100877Y-73725800D01*
X91100877Y-73725800D02*
X91100877Y-73492466D01*
X91100877Y-73492466D02*
X91067544Y-73359133D01*
X91067544Y-73359133D02*
X91000877Y-73292466D01*
X91000877Y-73292466D02*
X90934211Y-73259133D01*
X90334211Y-73259133D02*
X90334211Y-73825800D01*
X90334211Y-73825800D02*
X90300878Y-73892466D01*
X90300878Y-73892466D02*
X90267544Y-73925800D01*
X90267544Y-73925800D02*
X90200878Y-73959133D01*
X90200878Y-73959133D02*
X90067544Y-73959133D01*
X90067544Y-73959133D02*
X90000878Y-73925800D01*
X90000878Y-73925800D02*
X89967544Y-73892466D01*
X89967544Y-73892466D02*
X89934211Y-73825800D01*
X89934211Y-73825800D02*
X89934211Y-73259133D01*
X89700878Y-73259133D02*
X89300878Y-73259133D01*
X89500878Y-73959133D02*
X89500878Y-73259133D01*
X86850877Y-68242466D02*
X86917544Y-68209133D01*
X86917544Y-68209133D02*
X87017544Y-68209133D01*
X87017544Y-68209133D02*
X87117544Y-68242466D01*
X87117544Y-68242466D02*
X87184211Y-68309133D01*
X87184211Y-68309133D02*
X87217544Y-68375800D01*
X87217544Y-68375800D02*
X87250877Y-68509133D01*
X87250877Y-68509133D02*
X87250877Y-68609133D01*
X87250877Y-68609133D02*
X87217544Y-68742466D01*
X87217544Y-68742466D02*
X87184211Y-68809133D01*
X87184211Y-68809133D02*
X87117544Y-68875800D01*
X87117544Y-68875800D02*
X87017544Y-68909133D01*
X87017544Y-68909133D02*
X86950877Y-68909133D01*
X86950877Y-68909133D02*
X86850877Y-68875800D01*
X86850877Y-68875800D02*
X86817544Y-68842466D01*
X86817544Y-68842466D02*
X86817544Y-68609133D01*
X86817544Y-68609133D02*
X86950877Y-68609133D01*
X86517544Y-68909133D02*
X86517544Y-68209133D01*
X86517544Y-68209133D02*
X86117544Y-68909133D01*
X86117544Y-68909133D02*
X86117544Y-68209133D01*
X85784211Y-68909133D02*
X85784211Y-68209133D01*
X85784211Y-68209133D02*
X85617544Y-68209133D01*
X85617544Y-68209133D02*
X85517544Y-68242466D01*
X85517544Y-68242466D02*
X85450878Y-68309133D01*
X85450878Y-68309133D02*
X85417544Y-68375800D01*
X85417544Y-68375800D02*
X85384211Y-68509133D01*
X85384211Y-68509133D02*
X85384211Y-68609133D01*
X85384211Y-68609133D02*
X85417544Y-68742466D01*
X85417544Y-68742466D02*
X85450878Y-68809133D01*
X85450878Y-68809133D02*
X85517544Y-68875800D01*
X85517544Y-68875800D02*
X85617544Y-68909133D01*
X85617544Y-68909133D02*
X85784211Y-68909133D01*
X92050877Y-76042466D02*
X92117544Y-76009133D01*
X92117544Y-76009133D02*
X92217544Y-76009133D01*
X92217544Y-76009133D02*
X92317544Y-76042466D01*
X92317544Y-76042466D02*
X92384211Y-76109133D01*
X92384211Y-76109133D02*
X92417544Y-76175800D01*
X92417544Y-76175800D02*
X92450877Y-76309133D01*
X92450877Y-76309133D02*
X92450877Y-76409133D01*
X92450877Y-76409133D02*
X92417544Y-76542466D01*
X92417544Y-76542466D02*
X92384211Y-76609133D01*
X92384211Y-76609133D02*
X92317544Y-76675800D01*
X92317544Y-76675800D02*
X92217544Y-76709133D01*
X92217544Y-76709133D02*
X92150877Y-76709133D01*
X92150877Y-76709133D02*
X92050877Y-76675800D01*
X92050877Y-76675800D02*
X92017544Y-76642466D01*
X92017544Y-76642466D02*
X92017544Y-76409133D01*
X92017544Y-76409133D02*
X92150877Y-76409133D01*
X91717544Y-76709133D02*
X91717544Y-76009133D01*
X91717544Y-76009133D02*
X91317544Y-76709133D01*
X91317544Y-76709133D02*
X91317544Y-76009133D01*
X90984211Y-76709133D02*
X90984211Y-76009133D01*
X90984211Y-76009133D02*
X90817544Y-76009133D01*
X90817544Y-76009133D02*
X90717544Y-76042466D01*
X90717544Y-76042466D02*
X90650878Y-76109133D01*
X90650878Y-76109133D02*
X90617544Y-76175800D01*
X90617544Y-76175800D02*
X90584211Y-76309133D01*
X90584211Y-76309133D02*
X90584211Y-76409133D01*
X90584211Y-76409133D02*
X90617544Y-76542466D01*
X90617544Y-76542466D02*
X90650878Y-76609133D01*
X90650878Y-76609133D02*
X90717544Y-76675800D01*
X90717544Y-76675800D02*
X90817544Y-76709133D01*
X90817544Y-76709133D02*
X90984211Y-76709133D01*
X91923544Y-68530466D02*
X91923544Y-68997133D01*
X92090211Y-68263800D02*
X92256877Y-68763800D01*
X92256877Y-68763800D02*
X91823544Y-68763800D01*
X92256877Y-65823800D02*
X92223544Y-65790466D01*
X92223544Y-65790466D02*
X92156877Y-65757133D01*
X92156877Y-65757133D02*
X91990211Y-65757133D01*
X91990211Y-65757133D02*
X91923544Y-65790466D01*
X91923544Y-65790466D02*
X91890211Y-65823800D01*
X91890211Y-65823800D02*
X91856877Y-65890466D01*
X91856877Y-65890466D02*
X91856877Y-65957133D01*
X91856877Y-65957133D02*
X91890211Y-66057133D01*
X91890211Y-66057133D02*
X92290211Y-66457133D01*
X92290211Y-66457133D02*
X91856877Y-66457133D01*
X87034211Y-70859133D02*
X86600877Y-70859133D01*
X86600877Y-70859133D02*
X86834211Y-71125800D01*
X86834211Y-71125800D02*
X86734211Y-71125800D01*
X86734211Y-71125800D02*
X86667544Y-71159133D01*
X86667544Y-71159133D02*
X86634211Y-71192466D01*
X86634211Y-71192466D02*
X86600877Y-71259133D01*
X86600877Y-71259133D02*
X86600877Y-71425800D01*
X86600877Y-71425800D02*
X86634211Y-71492466D01*
X86634211Y-71492466D02*
X86667544Y-71525800D01*
X86667544Y-71525800D02*
X86734211Y-71559133D01*
X86734211Y-71559133D02*
X86934211Y-71559133D01*
X86934211Y-71559133D02*
X87000877Y-71525800D01*
X87000877Y-71525800D02*
X87034211Y-71492466D01*
X86400877Y-70859133D02*
X86167544Y-71559133D01*
X86167544Y-71559133D02*
X85934210Y-70859133D01*
X85767544Y-70859133D02*
X85334210Y-70859133D01*
X85334210Y-70859133D02*
X85567544Y-71125800D01*
X85567544Y-71125800D02*
X85467544Y-71125800D01*
X85467544Y-71125800D02*
X85400877Y-71159133D01*
X85400877Y-71159133D02*
X85367544Y-71192466D01*
X85367544Y-71192466D02*
X85334210Y-71259133D01*
X85334210Y-71259133D02*
X85334210Y-71425800D01*
X85334210Y-71425800D02*
X85367544Y-71492466D01*
X85367544Y-71492466D02*
X85400877Y-71525800D01*
X85400877Y-71525800D02*
X85467544Y-71559133D01*
X85467544Y-71559133D02*
X85667544Y-71559133D01*
X85667544Y-71559133D02*
X85734210Y-71525800D01*
X85734210Y-71525800D02*
X85767544Y-71492466D01*
X92123544Y-71137133D02*
X92190211Y-71103800D01*
X92190211Y-71103800D02*
X92223544Y-71070466D01*
X92223544Y-71070466D02*
X92256877Y-71003800D01*
X92256877Y-71003800D02*
X92256877Y-70970466D01*
X92256877Y-70970466D02*
X92223544Y-70903800D01*
X92223544Y-70903800D02*
X92190211Y-70870466D01*
X92190211Y-70870466D02*
X92123544Y-70837133D01*
X92123544Y-70837133D02*
X91990211Y-70837133D01*
X91990211Y-70837133D02*
X91923544Y-70870466D01*
X91923544Y-70870466D02*
X91890211Y-70903800D01*
X91890211Y-70903800D02*
X91856877Y-70970466D01*
X91856877Y-70970466D02*
X91856877Y-71003800D01*
X91856877Y-71003800D02*
X91890211Y-71070466D01*
X91890211Y-71070466D02*
X91923544Y-71103800D01*
X91923544Y-71103800D02*
X91990211Y-71137133D01*
X91990211Y-71137133D02*
X92123544Y-71137133D01*
X92123544Y-71137133D02*
X92190211Y-71170466D01*
X92190211Y-71170466D02*
X92223544Y-71203800D01*
X92223544Y-71203800D02*
X92256877Y-71270466D01*
X92256877Y-71270466D02*
X92256877Y-71403800D01*
X92256877Y-71403800D02*
X92223544Y-71470466D01*
X92223544Y-71470466D02*
X92190211Y-71503800D01*
X92190211Y-71503800D02*
X92123544Y-71537133D01*
X92123544Y-71537133D02*
X91990211Y-71537133D01*
X91990211Y-71537133D02*
X91923544Y-71503800D01*
X91923544Y-71503800D02*
X91890211Y-71470466D01*
X91890211Y-71470466D02*
X91856877Y-71403800D01*
X91856877Y-71403800D02*
X91856877Y-71270466D01*
X91856877Y-71270466D02*
X91890211Y-71203800D01*
X91890211Y-71203800D02*
X91923544Y-71170466D01*
X91923544Y-71170466D02*
X91990211Y-71137133D01*
X87067544Y-66359133D02*
X87300877Y-66025800D01*
X87467544Y-66359133D02*
X87467544Y-65659133D01*
X87467544Y-65659133D02*
X87200877Y-65659133D01*
X87200877Y-65659133D02*
X87134211Y-65692466D01*
X87134211Y-65692466D02*
X87100877Y-65725800D01*
X87100877Y-65725800D02*
X87067544Y-65792466D01*
X87067544Y-65792466D02*
X87067544Y-65892466D01*
X87067544Y-65892466D02*
X87100877Y-65959133D01*
X87100877Y-65959133D02*
X87134211Y-65992466D01*
X87134211Y-65992466D02*
X87200877Y-66025800D01*
X87200877Y-66025800D02*
X87467544Y-66025800D01*
X86534211Y-65992466D02*
X86767544Y-65992466D01*
X86767544Y-66359133D02*
X86767544Y-65659133D01*
X86767544Y-65659133D02*
X86434211Y-65659133D01*
X86167544Y-66359133D02*
X86167544Y-65659133D01*
X85834211Y-66359133D02*
X85834211Y-65659133D01*
X85834211Y-65659133D02*
X85434211Y-66359133D01*
X85434211Y-66359133D02*
X85434211Y-65659133D01*
X86200877Y-76509133D02*
X86600877Y-76509133D01*
X86400877Y-76509133D02*
X86400877Y-75809133D01*
X86400877Y-75809133D02*
X86467544Y-75909133D01*
X86467544Y-75909133D02*
X86534211Y-75975800D01*
X86534211Y-75975800D02*
X86600877Y-76009133D01*
X85600877Y-75809133D02*
X85734210Y-75809133D01*
X85734210Y-75809133D02*
X85800877Y-75842466D01*
X85800877Y-75842466D02*
X85834210Y-75875800D01*
X85834210Y-75875800D02*
X85900877Y-75975800D01*
X85900877Y-75975800D02*
X85934210Y-76109133D01*
X85934210Y-76109133D02*
X85934210Y-76375800D01*
X85934210Y-76375800D02*
X85900877Y-76442466D01*
X85900877Y-76442466D02*
X85867544Y-76475800D01*
X85867544Y-76475800D02*
X85800877Y-76509133D01*
X85800877Y-76509133D02*
X85667544Y-76509133D01*
X85667544Y-76509133D02*
X85600877Y-76475800D01*
X85600877Y-76475800D02*
X85567544Y-76442466D01*
X85567544Y-76442466D02*
X85534210Y-76375800D01*
X85534210Y-76375800D02*
X85534210Y-76209133D01*
X85534210Y-76209133D02*
X85567544Y-76142466D01*
X85567544Y-76142466D02*
X85600877Y-76109133D01*
X85600877Y-76109133D02*
X85667544Y-76075800D01*
X85667544Y-76075800D02*
X85800877Y-76075800D01*
X85800877Y-76075800D02*
X85867544Y-76109133D01*
X85867544Y-76109133D02*
X85900877Y-76142466D01*
X85900877Y-76142466D02*
X85934210Y-76209133D01*
X86684211Y-63209133D02*
X86617544Y-63209133D01*
X86617544Y-63209133D02*
X86550877Y-63242466D01*
X86550877Y-63242466D02*
X86517544Y-63275800D01*
X86517544Y-63275800D02*
X86484211Y-63342466D01*
X86484211Y-63342466D02*
X86450877Y-63475800D01*
X86450877Y-63475800D02*
X86450877Y-63642466D01*
X86450877Y-63642466D02*
X86484211Y-63775800D01*
X86484211Y-63775800D02*
X86517544Y-63842466D01*
X86517544Y-63842466D02*
X86550877Y-63875800D01*
X86550877Y-63875800D02*
X86617544Y-63909133D01*
X86617544Y-63909133D02*
X86684211Y-63909133D01*
X86684211Y-63909133D02*
X86750877Y-63875800D01*
X86750877Y-63875800D02*
X86784211Y-63842466D01*
X86784211Y-63842466D02*
X86817544Y-63775800D01*
X86817544Y-63775800D02*
X86850877Y-63642466D01*
X86850877Y-63642466D02*
X86850877Y-63475800D01*
X86850877Y-63475800D02*
X86817544Y-63342466D01*
X86817544Y-63342466D02*
X86784211Y-63275800D01*
X86784211Y-63275800D02*
X86750877Y-63242466D01*
X86750877Y-63242466D02*
X86684211Y-63209133D01*
X86150877Y-63842466D02*
X86117544Y-63875800D01*
X86117544Y-63875800D02*
X86150877Y-63909133D01*
X86150877Y-63909133D02*
X86184210Y-63875800D01*
X86184210Y-63875800D02*
X86150877Y-63842466D01*
X86150877Y-63842466D02*
X86150877Y-63909133D01*
X85484211Y-63209133D02*
X85817544Y-63209133D01*
X85817544Y-63209133D02*
X85850877Y-63542466D01*
X85850877Y-63542466D02*
X85817544Y-63509133D01*
X85817544Y-63509133D02*
X85750877Y-63475800D01*
X85750877Y-63475800D02*
X85584211Y-63475800D01*
X85584211Y-63475800D02*
X85517544Y-63509133D01*
X85517544Y-63509133D02*
X85484211Y-63542466D01*
X85484211Y-63542466D02*
X85450877Y-63609133D01*
X85450877Y-63609133D02*
X85450877Y-63775800D01*
X85450877Y-63775800D02*
X85484211Y-63842466D01*
X85484211Y-63842466D02*
X85517544Y-63875800D01*
X85517544Y-63875800D02*
X85584211Y-63909133D01*
X85584211Y-63909133D02*
X85750877Y-63909133D01*
X85750877Y-63909133D02*
X85817544Y-63875800D01*
X85817544Y-63875800D02*
X85850877Y-63842466D01*
X91856877Y-63917133D02*
X92256877Y-63917133D01*
X92056877Y-63917133D02*
X92056877Y-63217133D01*
X92056877Y-63217133D02*
X92123544Y-63317133D01*
X92123544Y-63317133D02*
X92190211Y-63383800D01*
X92190211Y-63383800D02*
X92256877Y-63417133D01*
X86800877Y-73292466D02*
X86867544Y-73259133D01*
X86867544Y-73259133D02*
X86967544Y-73259133D01*
X86967544Y-73259133D02*
X87067544Y-73292466D01*
X87067544Y-73292466D02*
X87134211Y-73359133D01*
X87134211Y-73359133D02*
X87167544Y-73425800D01*
X87167544Y-73425800D02*
X87200877Y-73559133D01*
X87200877Y-73559133D02*
X87200877Y-73659133D01*
X87200877Y-73659133D02*
X87167544Y-73792466D01*
X87167544Y-73792466D02*
X87134211Y-73859133D01*
X87134211Y-73859133D02*
X87067544Y-73925800D01*
X87067544Y-73925800D02*
X86967544Y-73959133D01*
X86967544Y-73959133D02*
X86900877Y-73959133D01*
X86900877Y-73959133D02*
X86800877Y-73925800D01*
X86800877Y-73925800D02*
X86767544Y-73892466D01*
X86767544Y-73892466D02*
X86767544Y-73659133D01*
X86767544Y-73659133D02*
X86900877Y-73659133D01*
X86467544Y-73959133D02*
X86467544Y-73259133D01*
X86467544Y-73259133D02*
X86067544Y-73959133D01*
X86067544Y-73959133D02*
X86067544Y-73259133D01*
X85734211Y-73959133D02*
X85734211Y-73259133D01*
X85734211Y-73259133D02*
X85567544Y-73259133D01*
X85567544Y-73259133D02*
X85467544Y-73292466D01*
X85467544Y-73292466D02*
X85400878Y-73359133D01*
X85400878Y-73359133D02*
X85367544Y-73425800D01*
X85367544Y-73425800D02*
X85334211Y-73559133D01*
X85334211Y-73559133D02*
X85334211Y-73659133D01*
X85334211Y-73659133D02*
X85367544Y-73792466D01*
X85367544Y-73792466D02*
X85400878Y-73859133D01*
X85400878Y-73859133D02*
X85467544Y-73925800D01*
X85467544Y-73925800D02*
X85567544Y-73959133D01*
X85567544Y-73959133D02*
X85734211Y-73959133D01*
M02*
