M48
; DRILL file KiCad 10.0.1 date 2026-07-07T01:25:36
; FORMAT={-:-/ absolute / metric / decimal}
; #@! TF.CreationDate,2026-07-07T01:25:36-05:00
; #@! TF.GenerationSoftware,Kicad,Pcbnew,10.0.1
; #@! TF.FileFunction,Plated,1,2,PTH
FMAT,2
METRIC
; #@! TA.AperFunction,Plated,PTH,ViaDrill
T1C0.300
; #@! TA.AperFunction,Plated,PTH,ComponentDrill
T2C1.000
%
G90
G05
T1
X82.398Y-62.128
X82.398Y-75.133
X85.471Y-77.064
X85.649Y-62.281
X86.36Y-64.1
X86.665Y-68.986
X88.637Y-69.253
X89.036Y-63.023
X89.789Y-72.517
X89.916Y-76.962
X90.932Y-64.008
X90.932Y-68.58
X91.186Y-75.235
X91.846Y-72.085
X95.301Y-62.128
X95.301Y-72.441
X95.352Y-67.259
T2
X83.82Y-63.5
X83.82Y-66.04
X83.82Y-68.58
X83.82Y-71.12
X83.82Y-73.66
X83.82Y-76.2
X93.98Y-63.5
X93.98Y-66.04
X93.98Y-68.58
X93.98Y-71.12
X93.98Y-73.66
X93.98Y-76.2
M30
