G04 DipTrace 3.3.1.1*
G04 BottomSilk.gbr*
%MOIN*%
G04 #@! TF.FileFunction,Legend,Bot*
G04 #@! TF.Part,Single*
%ADD19C,0.01*%
%ADD79C,0.004632*%
%FSLAX26Y26*%
G04*
G70*
G90*
G75*
G01*
G04 BotSilk*
%LPD*%
X1775898Y2291769D2*
D19*
X2375898D1*
Y1941769D1*
X1775898D1*
Y2291769D1*
G36*
X2038496Y2291488D2*
X2119738D1*
Y2247743D1*
X2038496D1*
Y2291488D1*
G37*
X1752253Y2156388D2*
D79*
Y2134866D1*
X1750827Y2130555D1*
X1747942Y2127703D1*
X1743631Y2126244D1*
X1740779D1*
X1736468Y2127703D1*
X1733583Y2130555D1*
X1732157Y2134866D1*
Y2156388D1*
X1702797Y2152077D2*
X1705649Y2154962D1*
X1709960Y2156388D1*
X1715697D1*
X1720008Y2154962D1*
X1722893Y2152077D1*
Y2149225D1*
X1721434Y2146340D1*
X1720008Y2144914D1*
X1717156Y2143488D1*
X1708534Y2140603D1*
X1705649Y2139177D1*
X1704223Y2137718D1*
X1702797Y2134866D1*
Y2130555D1*
X1705649Y2127703D1*
X1709960Y2126244D1*
X1715697D1*
X1720008Y2127703D1*
X1722893Y2130555D1*
X1693534Y2156388D2*
Y2126244D1*
X1680600D1*
X1676289Y2127703D1*
X1674863Y2129129D1*
X1673438Y2131981D1*
Y2136292D1*
X1674863Y2139177D1*
X1676289Y2140603D1*
X1680600Y2142029D1*
X1676289Y2143488D1*
X1674863Y2144914D1*
X1673438Y2147766D1*
Y2150651D1*
X1674863Y2153503D1*
X1676289Y2154962D1*
X1680600Y2156388D1*
X1693534D1*
Y2142029D2*
X1680600D1*
X1635013Y2156388D2*
Y2126244D1*
X1614917Y2156388D2*
Y2126244D1*
X1635013Y2142029D2*
X1614917D1*
X1598491Y2146340D2*
X1601343Y2144914D1*
X1604228Y2142029D1*
X1605654Y2137718D1*
Y2134866D1*
X1604228Y2130555D1*
X1601343Y2127703D1*
X1598491Y2126244D1*
X1594180D1*
X1591295Y2127703D1*
X1588443Y2130555D1*
X1586984Y2134866D1*
Y2137718D1*
X1588443Y2142029D1*
X1591295Y2144914D1*
X1594180Y2146340D1*
X1598491D1*
X1561935Y2142029D2*
X1563361Y2144914D1*
X1567672Y2146340D1*
X1571983D1*
X1576294Y2144914D1*
X1577720Y2142029D1*
X1576294Y2139177D1*
X1573409Y2137718D1*
X1566246Y2136292D1*
X1563361Y2134866D1*
X1561935Y2131981D1*
Y2130555D1*
X1563361Y2127703D1*
X1567672Y2126244D1*
X1571983D1*
X1576294Y2127703D1*
X1577720Y2130555D1*
X1548361Y2156388D2*
Y2131981D1*
X1546935Y2127703D1*
X1544050Y2126244D1*
X1541198D1*
X1552672Y2146340D2*
X1542624D1*
X1708944Y3895936D2*
X1710370Y3898788D1*
X1713255Y3901673D1*
X1716107Y3903099D1*
X1721844D1*
X1724729Y3901673D1*
X1727581Y3898788D1*
X1729040Y3895936D1*
X1730466Y3891625D1*
Y3884429D1*
X1729040Y3880151D1*
X1727581Y3877266D1*
X1724729Y3874414D1*
X1721844Y3872955D1*
X1716107D1*
X1713255Y3874414D1*
X1710370Y3877266D1*
X1708944Y3880151D1*
X1699681Y3903099D2*
Y3872955D1*
X1682470D1*
X1673206Y3903099D2*
Y3872955D1*
X1653110Y3903099D2*
X1673206Y3883003D1*
X1666043Y3890199D2*
X1653110Y3872955D1*
X1613227Y3895903D2*
Y3897329D1*
X1611801Y3900214D1*
X1610375Y3901640D1*
X1607490Y3903066D1*
X1601753D1*
X1598901Y3901640D1*
X1597475Y3900214D1*
X1596016Y3897329D1*
Y3894477D1*
X1597475Y3891592D1*
X1600327Y3887314D1*
X1614686Y3872955D1*
X1594590D1*
X1193163Y3924209D2*
X1194588Y3927061D1*
X1197474Y3929946D1*
X1200325Y3931372D1*
X1206062D1*
X1208948Y3929946D1*
X1211799Y3927061D1*
X1213259Y3924209D1*
X1214684Y3919898D1*
Y3912702D1*
X1213259Y3908424D1*
X1211799Y3905539D1*
X1208948Y3902687D1*
X1206062Y3901228D1*
X1200325D1*
X1197474Y3902687D1*
X1194588Y3905539D1*
X1193163Y3908424D1*
X1183899Y3931372D2*
Y3901228D1*
X1166688D1*
X1157424Y3931372D2*
Y3901228D1*
X1137328Y3931372D2*
X1157424Y3911276D1*
X1150262Y3918472D2*
X1137328Y3901228D1*
X1098904Y3925602D2*
X1096019Y3927061D1*
X1091708Y3931339D1*
Y3901228D1*
X3025874Y2501773D2*
X3023022Y2503199D1*
X3020137Y2506084D1*
X3018711Y2508936D1*
Y2514673D1*
X3020137Y2517558D1*
X3023022Y2520410D1*
X3025874Y2521869D1*
X3030185Y2523295D1*
X3037381D1*
X3041659Y2521869D1*
X3044544Y2520410D1*
X3047396Y2517558D1*
X3048855Y2514673D1*
Y2508936D1*
X3047396Y2506084D1*
X3044544Y2503199D1*
X3041659Y2501773D1*
X3037381D1*
Y2508936D1*
X3028759Y2492510D2*
X3048855D1*
X3034496D2*
X3030185Y2488199D1*
X3028759Y2485314D1*
Y2481036D1*
X3030185Y2478151D1*
X3034496Y2476725D1*
X3048855D1*
X3018711Y2450250D2*
X3048855D1*
X3033070D2*
X3030185Y2453102D1*
X3028759Y2455987D1*
Y2460298D1*
X3030185Y2463150D1*
X3033070Y2466035D1*
X3037381Y2467461D1*
X3040233D1*
X3044544Y2466035D1*
X3047396Y2463150D1*
X3048855Y2460298D1*
Y2455987D1*
X3047396Y2453102D1*
X3044544Y2450250D1*
X1653447Y2491686D2*
X1641973Y2461542D1*
X1630499Y2491686D1*
X1621235D2*
X1619809Y2490260D1*
X1618350Y2491686D1*
X1619809Y2493145D1*
X1621235Y2491686D1*
X1619809Y2481638D2*
Y2461542D1*
X1609086Y2481638D2*
Y2461542D1*
Y2475901D2*
X1604775Y2480212D1*
X1601890Y2481638D1*
X1597612D1*
X1594727Y2480212D1*
X1593301Y2475901D1*
Y2461542D1*
X1718252Y2484523D2*
X1719678Y2487375D1*
X1722563Y2490260D1*
X1725415Y2491686D1*
X1731151D1*
X1734037Y2490260D1*
X1736888Y2487375D1*
X1738348Y2484523D1*
X1739774Y2480212D1*
Y2473016D1*
X1738348Y2468738D1*
X1736888Y2465853D1*
X1734037Y2463001D1*
X1731151Y2461542D1*
X1725415D1*
X1722563Y2463001D1*
X1719678Y2465853D1*
X1718252Y2468738D1*
Y2473016D1*
X1725415D1*
X1826838Y2528992D2*
Y2513241D1*
X1838312Y2521829D1*
Y2517518D1*
X1839738Y2514667D1*
X1841164Y2513241D1*
X1845475Y2511781D1*
X1848327D1*
X1852638Y2513241D1*
X1855523Y2516093D1*
X1856949Y2520404D1*
Y2524715D1*
X1855523Y2528992D1*
X1854064Y2530418D1*
X1851212Y2531877D1*
X1854064Y2501092D2*
X1855523Y2502518D1*
X1856949Y2501092D1*
X1855523Y2499633D1*
X1854064Y2501092D1*
X1826838Y2487484D2*
Y2471733D1*
X1838312Y2480321D1*
Y2476010D1*
X1839738Y2473158D1*
X1841164Y2471732D1*
X1845475Y2470273D1*
X1848327D1*
X1852638Y2471732D1*
X1855523Y2474584D1*
X1856949Y2478895D1*
Y2483206D1*
X1855523Y2487484D1*
X1854064Y2488910D1*
X1851212Y2490369D1*
X1836853Y2461010D2*
X1856949Y2452388D1*
X1836853Y2443799D1*
X1966412Y2471997D2*
Y2473423D1*
X1964986Y2476308D1*
X1963560Y2477734D1*
X1960675Y2479160D1*
X1954938D1*
X1952086Y2477734D1*
X1950660Y2476308D1*
X1949201Y2473423D1*
Y2470572D1*
X1950660Y2467686D1*
X1953512Y2463409D1*
X1967871Y2449050D1*
X1947775D1*
X1935627Y2479160D2*
X1919875D1*
X1928464Y2467686D1*
X1924153D1*
X1921301Y2466260D1*
X1919875Y2464835D1*
X1918416Y2460524D1*
Y2457672D1*
X1919875Y2453361D1*
X1922727Y2450476D1*
X1927038Y2449050D1*
X1931349D1*
X1935627Y2450476D1*
X1937053Y2451935D1*
X1938512Y2454787D1*
X2066373Y2471997D2*
Y2473423D1*
X2064947Y2476308D1*
X2063521Y2477734D1*
X2060636Y2479160D1*
X2054899D1*
X2052047Y2477734D1*
X2050621Y2476308D1*
X2049162Y2473423D1*
Y2470572D1*
X2050621Y2467686D1*
X2053473Y2463409D1*
X2067832Y2449050D1*
X2047736D1*
X2037013Y2471997D2*
Y2473423D1*
X2035587Y2476308D1*
X2034161Y2477734D1*
X2031276Y2479160D1*
X2025539D1*
X2022687Y2477734D1*
X2021261Y2476308D1*
X2019802Y2473423D1*
Y2470572D1*
X2021261Y2467686D1*
X2024113Y2463409D1*
X2038472Y2449050D1*
X2018376D1*
X2153432Y2471997D2*
Y2473423D1*
X2152006Y2476308D1*
X2150580Y2477734D1*
X2147695Y2479160D1*
X2141958D1*
X2139106Y2477734D1*
X2137680Y2476308D1*
X2136221Y2473423D1*
Y2470572D1*
X2137680Y2467686D1*
X2140532Y2463409D1*
X2154891Y2449050D1*
X2134795D1*
X2125532Y2473423D2*
X2122647Y2474883D1*
X2118336Y2479160D1*
Y2449050D1*
X2253798Y2471997D2*
Y2473423D1*
X2252372Y2476308D1*
X2250946Y2477734D1*
X2248061Y2479160D1*
X2242324D1*
X2239472Y2477734D1*
X2238046Y2476308D1*
X2236587Y2473423D1*
Y2470572D1*
X2238046Y2467686D1*
X2240898Y2463409D1*
X2255257Y2449050D1*
X2235161D1*
X2217275Y2479160D2*
X2221586Y2477734D1*
X2224471Y2473423D1*
X2225897Y2466260D1*
Y2461949D1*
X2224471Y2454787D1*
X2221586Y2450476D1*
X2217275Y2449050D1*
X2214423D1*
X2210112Y2450476D1*
X2207261Y2454787D1*
X2205801Y2461949D1*
Y2466260D1*
X2207261Y2473423D1*
X2210112Y2477734D1*
X2214423Y2479160D1*
X2217275D1*
X2207261Y2473423D2*
X2224471Y2454787D1*
X2340890Y2473423D2*
X2338005Y2474883D1*
X2333694Y2479160D1*
Y2449050D1*
X2305761Y2469146D2*
X2307220Y2464835D1*
X2310072Y2461949D1*
X2314383Y2460524D1*
X2315809D1*
X2320120Y2461949D1*
X2322972Y2464835D1*
X2324431Y2469146D1*
Y2470572D1*
X2322972Y2474883D1*
X2320120Y2477734D1*
X2315809Y2479160D1*
X2314383D1*
X2310072Y2477734D1*
X2307220Y2474883D1*
X2305761Y2469146D1*
Y2461949D1*
X2307220Y2454787D1*
X2310072Y2450476D1*
X2314383Y2449050D1*
X2317235D1*
X2321546Y2450476D1*
X2322972Y2453361D1*
X2442244Y2473423D2*
X2439359Y2474883D1*
X2435048Y2479160D1*
Y2449050D1*
X2418621Y2479160D2*
X2422899Y2477734D1*
X2424358Y2474883D1*
Y2471997D1*
X2422899Y2469146D1*
X2420047Y2467686D1*
X2414310Y2466260D1*
X2409999Y2464835D1*
X2407147Y2461949D1*
X2405721Y2459098D1*
Y2454787D1*
X2407147Y2451935D1*
X2408573Y2450476D1*
X2412884Y2449050D1*
X2418621D1*
X2422899Y2450476D1*
X2424358Y2451935D1*
X2425784Y2454787D1*
Y2459098D1*
X2424358Y2461949D1*
X2421473Y2464835D1*
X2417195Y2466260D1*
X2411458Y2467686D1*
X2408573Y2469146D1*
X2407147Y2471997D1*
Y2474883D1*
X2408573Y2477734D1*
X2412884Y2479160D1*
X2418621D1*
X2542482Y2473423D2*
X2539597Y2474883D1*
X2535286Y2479160D1*
Y2449050D1*
X2520285D2*
X2505926Y2479160D1*
X2526022D1*
X2640983Y2473423D2*
X2638098Y2474883D1*
X2633787Y2479160D1*
Y2449050D1*
X2607313Y2474883D2*
X2608739Y2477734D1*
X2613050Y2479160D1*
X2615902D1*
X2620213Y2477734D1*
X2623098Y2473423D1*
X2624524Y2466260D1*
Y2459098D1*
X2623098Y2453361D1*
X2620213Y2450476D1*
X2615902Y2449050D1*
X2614476D1*
X2610198Y2450476D1*
X2607313Y2453361D1*
X2605887Y2457672D1*
Y2459098D1*
X2607313Y2463409D1*
X2610198Y2466260D1*
X2614476Y2467686D1*
X2615902D1*
X2620213Y2466260D1*
X2623098Y2463409D1*
X2624524Y2459098D1*
X2742402Y2473423D2*
X2739517Y2474883D1*
X2735206Y2479160D1*
Y2449050D1*
X2708731Y2479160D2*
X2723057D1*
X2724483Y2466260D1*
X2723057Y2467686D1*
X2718746Y2469146D1*
X2714468D1*
X2710157Y2467686D1*
X2707272Y2464835D1*
X2705846Y2460524D1*
Y2457672D1*
X2707272Y2453361D1*
X2710157Y2450476D1*
X2714468Y2449050D1*
X2718746D1*
X2723057Y2450476D1*
X2724483Y2451935D1*
X2725942Y2454787D1*
X2856283Y2473423D2*
X2853398Y2474883D1*
X2849087Y2479160D1*
Y2449050D1*
X2825464D2*
Y2479160D1*
X2839823Y2459098D1*
X2818301D1*
X2954816Y2473423D2*
X2951931Y2474883D1*
X2947620Y2479160D1*
Y2449050D1*
X2935472Y2479160D2*
X2919720D1*
X2928309Y2467686D1*
X2923998D1*
X2921146Y2466260D1*
X2919720Y2464835D1*
X2918261Y2460524D1*
Y2457672D1*
X2919720Y2453361D1*
X2922572Y2450476D1*
X2926883Y2449050D1*
X2931194D1*
X2935472Y2450476D1*
X2936898Y2451935D1*
X2938357Y2454787D1*
X3866387Y2479160D2*
X3850635D1*
X3859224Y2467686D1*
X3854913D1*
X3852061Y2466260D1*
X3850635Y2464835D1*
X3849176Y2460524D1*
Y2457672D1*
X3850635Y2453361D1*
X3853487Y2450476D1*
X3857798Y2449050D1*
X3862109D1*
X3866387Y2450476D1*
X3867813Y2451935D1*
X3869272Y2454787D1*
X3825554Y2449050D2*
Y2479160D1*
X3839913Y2459098D1*
X3818391D1*
X3765002Y2479160D2*
X3749250D1*
X3757839Y2467686D1*
X3753528D1*
X3750676Y2466260D1*
X3749250Y2464835D1*
X3747791Y2460524D1*
Y2457672D1*
X3749250Y2453361D1*
X3752102Y2450476D1*
X3756413Y2449050D1*
X3760724D1*
X3765002Y2450476D1*
X3766428Y2451935D1*
X3767887Y2454787D1*
X3721316Y2479160D2*
X3735642D1*
X3737068Y2466260D1*
X3735642Y2467686D1*
X3731331Y2469146D1*
X3727053D1*
X3722742Y2467686D1*
X3719857Y2464835D1*
X3718431Y2460524D1*
Y2457672D1*
X3719857Y2453361D1*
X3722742Y2450476D1*
X3727053Y2449050D1*
X3731331D1*
X3735642Y2450476D1*
X3737068Y2451935D1*
X3738527Y2454787D1*
X3663338Y2479160D2*
X3647586D1*
X3656175Y2467686D1*
X3651864D1*
X3649012Y2466260D1*
X3647586Y2464835D1*
X3646127Y2460524D1*
Y2457672D1*
X3647586Y2453361D1*
X3650438Y2450476D1*
X3654749Y2449050D1*
X3659060D1*
X3663338Y2450476D1*
X3664764Y2451935D1*
X3666223Y2454787D1*
X3619653Y2474883D2*
X3621079Y2477734D1*
X3625390Y2479160D1*
X3628241D1*
X3632553Y2477734D1*
X3635438Y2473423D1*
X3636864Y2466260D1*
Y2459098D1*
X3635438Y2453361D1*
X3632553Y2450476D1*
X3628241Y2449050D1*
X3626816D1*
X3622538Y2450476D1*
X3619653Y2453361D1*
X3618227Y2457672D1*
Y2459098D1*
X3619653Y2463409D1*
X3622538Y2466260D1*
X3626816Y2467686D1*
X3628241D1*
X3632553Y2466260D1*
X3635438Y2463409D1*
X3636864Y2459098D1*
X3564837Y2479160D2*
X3549085D1*
X3557674Y2467686D1*
X3553363D1*
X3550511Y2466260D1*
X3549085Y2464835D1*
X3547626Y2460524D1*
Y2457672D1*
X3549085Y2453361D1*
X3551937Y2450476D1*
X3556248Y2449050D1*
X3560559D1*
X3564837Y2450476D1*
X3566262Y2451935D1*
X3567722Y2454787D1*
X3532625Y2449050D2*
X3518266Y2479160D1*
X3538362D1*
X3464844D2*
X3449092D1*
X3457681Y2467686D1*
X3453370D1*
X3450518Y2466260D1*
X3449092Y2464835D1*
X3447633Y2460524D1*
Y2457672D1*
X3449092Y2453361D1*
X3451944Y2450476D1*
X3456255Y2449050D1*
X3460566D1*
X3464844Y2450476D1*
X3466270Y2451935D1*
X3467729Y2454787D1*
X3431207Y2479160D2*
X3435484Y2477734D1*
X3436944Y2474883D1*
Y2471997D1*
X3435484Y2469146D1*
X3432633Y2467686D1*
X3426896Y2466260D1*
X3422585Y2464835D1*
X3419733Y2461949D1*
X3418307Y2459098D1*
Y2454787D1*
X3419733Y2451935D1*
X3421159Y2450476D1*
X3425470Y2449050D1*
X3431207D1*
X3435484Y2450476D1*
X3436944Y2451935D1*
X3438370Y2454787D1*
Y2459098D1*
X3436944Y2461949D1*
X3434059Y2464835D1*
X3429781Y2466260D1*
X3424044Y2467686D1*
X3421159Y2469146D1*
X3419733Y2471997D1*
Y2474883D1*
X3421159Y2477734D1*
X3425470Y2479160D1*
X3431207D1*
X3363491D2*
X3347739D1*
X3356328Y2467686D1*
X3352017D1*
X3349165Y2466260D1*
X3347739Y2464835D1*
X3346280Y2460524D1*
Y2457672D1*
X3347739Y2453361D1*
X3350591Y2450476D1*
X3354902Y2449050D1*
X3359213D1*
X3363491Y2450476D1*
X3364917Y2451935D1*
X3366376Y2454787D1*
X3318346Y2469146D2*
X3319805Y2464835D1*
X3322657Y2461949D1*
X3326968Y2460524D1*
X3328394D1*
X3332705Y2461949D1*
X3335557Y2464835D1*
X3337016Y2469146D1*
Y2470572D1*
X3335557Y2474883D1*
X3332705Y2477734D1*
X3328394Y2479160D1*
X3326968D1*
X3322657Y2477734D1*
X3319805Y2474883D1*
X3318346Y2469146D1*
Y2461949D1*
X3319805Y2454787D1*
X3322657Y2450476D1*
X3326968Y2449050D1*
X3329820D1*
X3334131Y2450476D1*
X3335557Y2453361D1*
X3147364Y2470046D2*
X3117253D1*
X3137316Y2484405D1*
Y2462883D1*
X3122990Y2453620D2*
X3121531Y2450735D1*
X3117253Y2446424D1*
X3147364D1*
X3247325Y2482946D2*
X3217214D1*
X3237277Y2497305D1*
Y2475783D1*
X3217214Y2457898D2*
X3218640Y2462209D1*
X3222951Y2465094D1*
X3230114Y2466520D1*
X3234425D1*
X3241588Y2465094D1*
X3245899Y2462209D1*
X3247325Y2457898D1*
Y2455046D1*
X3245899Y2450735D1*
X3241588Y2447883D1*
X3234425Y2446424D1*
X3230114D1*
X3222951Y2447883D1*
X3218640Y2450735D1*
X3217214Y2455046D1*
Y2457898D1*
X3222951Y2447883D2*
X3241588Y2465094D1*
X3955709Y2491146D2*
X3939957D1*
X3948546Y2479672D1*
X3944235D1*
X3941383Y2478246D1*
X3939957Y2476820D1*
X3938498Y2472509D1*
Y2469657D1*
X3939957Y2465346D1*
X3942809Y2462461D1*
X3947120Y2461035D1*
X3951431D1*
X3955709Y2462461D1*
X3957135Y2463920D1*
X3958594Y2466772D1*
X3926350Y2491146D2*
X3910598D1*
X3919187Y2479672D1*
X3914876D1*
X3912024Y2478246D1*
X3910598Y2476820D1*
X3909139Y2472509D1*
Y2469657D1*
X3910598Y2465346D1*
X3913450Y2462461D1*
X3917761Y2461035D1*
X3922072D1*
X3926350Y2462461D1*
X3927776Y2463920D1*
X3929235Y2466772D1*
X1713404Y1713907D2*
X1717715Y1712481D1*
X1720600Y1708170D1*
X1722026Y1701007D1*
Y1696696D1*
X1720600Y1689533D1*
X1717715Y1685222D1*
X1713404Y1683796D1*
X1710552D1*
X1706241Y1685222D1*
X1703389Y1689533D1*
X1701930Y1696696D1*
Y1701007D1*
X1703389Y1708170D1*
X1706241Y1712481D1*
X1710552Y1713907D1*
X1713404D1*
X1703389Y1708170D2*
X1720600Y1689533D1*
X1809085Y1708170D2*
X1806200Y1709629D1*
X1801889Y1713907D1*
Y1683796D1*
X2019266Y1713907D2*
X2003514D1*
X2012103Y1702433D1*
X2007792D1*
X2004940Y1701007D1*
X2003514Y1699581D1*
X2002055Y1695270D1*
Y1692418D1*
X2003514Y1688107D1*
X2006366Y1685222D1*
X2010677Y1683796D1*
X2014988D1*
X2019266Y1685222D1*
X2020692Y1686681D1*
X2022151Y1689533D1*
X2121673Y1683796D2*
Y1713907D1*
X2136032Y1693844D1*
X2114510D1*
X1920731Y1706744D2*
Y1708170D1*
X1919305Y1711055D1*
X1917879Y1712481D1*
X1914994Y1713907D1*
X1909257D1*
X1906405Y1712481D1*
X1904979Y1711055D1*
X1903520Y1708170D1*
Y1705318D1*
X1904979Y1702433D1*
X1907831Y1698155D1*
X1922190Y1683796D1*
X1902094D1*
X2217354Y1713907D2*
X2231680D1*
X2233106Y1701007D1*
X2231680Y1702433D1*
X2227369Y1703892D1*
X2223091D1*
X2218780Y1702433D1*
X2215895Y1699581D1*
X2214469Y1695270D1*
Y1692418D1*
X2215895Y1688107D1*
X2218780Y1685222D1*
X2223091Y1683796D1*
X2227369D1*
X2231680Y1685222D1*
X2233106Y1686681D1*
X2234565Y1689533D1*
X2315856Y1709629D2*
X2317282Y1712481D1*
X2321593Y1713907D1*
X2324445D1*
X2328756Y1712481D1*
X2331641Y1708170D1*
X2333067Y1701007D1*
Y1693844D1*
X2331641Y1688107D1*
X2328756Y1685222D1*
X2324445Y1683796D1*
X2323019D1*
X2318741Y1685222D1*
X2315856Y1688107D1*
X2314430Y1692418D1*
Y1693844D1*
X2315856Y1698155D1*
X2318741Y1701007D1*
X2323019Y1702433D1*
X2324445D1*
X2328756Y1701007D1*
X2331641Y1698155D1*
X2333067Y1693844D1*
X2428748Y1683796D2*
X2414389Y1713907D1*
X2434485D1*
X2527494D2*
X2531772Y1712481D1*
X2533231Y1709629D1*
Y1706744D1*
X2531772Y1703892D1*
X2528920Y1702433D1*
X2523183Y1701007D1*
X2518872Y1699581D1*
X2516020Y1696696D1*
X2514594Y1693844D1*
Y1689533D1*
X2516020Y1686681D1*
X2517446Y1685222D1*
X2521757Y1683796D1*
X2527494D1*
X2531772Y1685222D1*
X2533231Y1686681D1*
X2534657Y1689533D1*
Y1693844D1*
X2533231Y1696696D1*
X2530346Y1699581D1*
X2526068Y1701007D1*
X2520331Y1702433D1*
X2517446Y1703892D1*
X2516020Y1706744D1*
Y1709629D1*
X2517446Y1712481D1*
X2521757Y1713907D1*
X2527494D1*
X2614555Y1703892D2*
X2616014Y1699581D1*
X2618866Y1696696D1*
X2623177Y1695270D1*
X2624603D1*
X2628914Y1696696D1*
X2631766Y1699581D1*
X2633225Y1703892D1*
Y1705318D1*
X2631766Y1709629D1*
X2628914Y1712481D1*
X2624603Y1713907D1*
X2623177D1*
X2618866Y1712481D1*
X2616014Y1709629D1*
X2614555Y1703892D1*
Y1696696D1*
X2616014Y1689533D1*
X2618866Y1685222D1*
X2623177Y1683796D1*
X2626029D1*
X2630340Y1685222D1*
X2631766Y1688107D1*
X2738575Y1708170D2*
X2735690Y1709629D1*
X2731379Y1713907D1*
Y1683796D1*
X2713493Y1713907D2*
X2717804Y1712481D1*
X2720689Y1708170D1*
X2722115Y1701007D1*
Y1696696D1*
X2720689Y1689533D1*
X2717804Y1685222D1*
X2713493Y1683796D1*
X2710641D1*
X2706330Y1685222D1*
X2703478Y1689533D1*
X2702019Y1696696D1*
Y1701007D1*
X2703478Y1708170D1*
X2706330Y1712481D1*
X2710641Y1713907D1*
X2713493D1*
X2703478Y1708170D2*
X2720689Y1689533D1*
X2825636Y1708170D2*
X2822751Y1709629D1*
X2818440Y1713907D1*
Y1683796D1*
X2809176Y1708170D2*
X2806291Y1709629D1*
X2801980Y1713907D1*
Y1683796D1*
X2938495Y1708170D2*
X2935610Y1709629D1*
X2931299Y1713907D1*
Y1683796D1*
X2920576Y1706744D2*
Y1708170D1*
X2919150Y1711055D1*
X2917724Y1712481D1*
X2914839Y1713907D1*
X2909102D1*
X2906250Y1712481D1*
X2904824Y1711055D1*
X2903365Y1708170D1*
Y1705318D1*
X2904824Y1702433D1*
X2907676Y1698155D1*
X2922035Y1683796D1*
X2901939D1*
X3010527Y1713769D2*
Y1698018D1*
X3022001Y1706606D1*
Y1702295D1*
X3023427Y1699443D1*
X3024853Y1698018D1*
X3029164Y1696558D1*
X3032016D1*
X3036327Y1698018D1*
X3039212Y1700869D1*
X3040638Y1705180D1*
Y1709491D1*
X3039212Y1713769D1*
X3037753Y1715195D1*
X3034901Y1716654D1*
X3037753Y1685869D2*
X3039212Y1687295D1*
X3040638Y1685869D1*
X3039212Y1684410D1*
X3037753Y1685869D1*
X3010527Y1672261D2*
Y1656509D1*
X3022001Y1665098D1*
Y1660787D1*
X3023427Y1657935D1*
X3024853Y1656509D1*
X3029164Y1655050D1*
X3032016D1*
X3036327Y1656509D1*
X3039212Y1659361D1*
X3040638Y1663672D1*
Y1667983D1*
X3039212Y1672261D1*
X3037753Y1673687D1*
X3034901Y1675146D1*
X3020542Y1645787D2*
X3040638Y1637165D1*
X3020542Y1628576D1*
X3151527Y1706744D2*
Y1708170D1*
X3150101Y1711055D1*
X3148675Y1712481D1*
X3145790Y1713907D1*
X3140053D1*
X3137201Y1712481D1*
X3135775Y1711055D1*
X3134316Y1708170D1*
Y1705318D1*
X3135775Y1702433D1*
X3138627Y1698155D1*
X3152986Y1683796D1*
X3132890D1*
X3109268D2*
Y1713907D1*
X3123627Y1693844D1*
X3102105D1*
X3250062Y1706744D2*
Y1708170D1*
X3248636Y1711055D1*
X3247210Y1712481D1*
X3244325Y1713907D1*
X3238588D1*
X3235736Y1712481D1*
X3234310Y1711055D1*
X3232851Y1708170D1*
Y1705318D1*
X3234310Y1702433D1*
X3237162Y1698155D1*
X3251521Y1683796D1*
X3231425D1*
X3204950Y1713907D2*
X3219276D1*
X3220702Y1701007D1*
X3219276Y1702433D1*
X3214965Y1703892D1*
X3210687D1*
X3206376Y1702433D1*
X3203491Y1699581D1*
X3202065Y1695270D1*
Y1692418D1*
X3203491Y1688107D1*
X3206376Y1685222D1*
X3210687Y1683796D1*
X3214965D1*
X3219276Y1685222D1*
X3220702Y1686681D1*
X3222161Y1689533D1*
X3348562Y1706744D2*
Y1708170D1*
X3347136Y1711055D1*
X3345710Y1712481D1*
X3342825Y1713907D1*
X3337088D1*
X3334236Y1712481D1*
X3332810Y1711055D1*
X3331351Y1708170D1*
Y1705318D1*
X3332810Y1702433D1*
X3335662Y1698155D1*
X3350021Y1683796D1*
X3329925D1*
X3303451Y1709629D2*
X3304876Y1712481D1*
X3309187Y1713907D1*
X3312039D1*
X3316350Y1712481D1*
X3319235Y1708170D1*
X3320661Y1701007D1*
Y1693844D1*
X3319235Y1688107D1*
X3316350Y1685222D1*
X3312039Y1683796D1*
X3310613D1*
X3306336Y1685222D1*
X3303451Y1688107D1*
X3302025Y1692418D1*
Y1693844D1*
X3303451Y1698155D1*
X3306336Y1701007D1*
X3310613Y1702433D1*
X3312039D1*
X3316350Y1701007D1*
X3319235Y1698155D1*
X3320661Y1693844D1*
X3449982Y1706744D2*
Y1708170D1*
X3448556Y1711055D1*
X3447130Y1712481D1*
X3444245Y1713907D1*
X3438508D1*
X3435656Y1712481D1*
X3434230Y1711055D1*
X3432771Y1708170D1*
Y1705318D1*
X3434230Y1702433D1*
X3437082Y1698155D1*
X3451441Y1683796D1*
X3431345D1*
X3416344D2*
X3401985Y1713907D1*
X3422081D1*
X3549908Y1706744D2*
Y1708170D1*
X3548482Y1711055D1*
X3547056Y1712481D1*
X3544171Y1713907D1*
X3538434D1*
X3535582Y1712481D1*
X3534156Y1711055D1*
X3532697Y1708170D1*
Y1705318D1*
X3534156Y1702433D1*
X3537008Y1698155D1*
X3551367Y1683796D1*
X3531271D1*
X3514844Y1713907D2*
X3519122Y1712481D1*
X3520581Y1709629D1*
Y1706744D1*
X3519122Y1703892D1*
X3516270Y1702433D1*
X3510533Y1701007D1*
X3506222Y1699581D1*
X3503370Y1696696D1*
X3501944Y1693844D1*
Y1689533D1*
X3503370Y1686681D1*
X3504796Y1685222D1*
X3509107Y1683796D1*
X3514844D1*
X3519122Y1685222D1*
X3520581Y1686681D1*
X3522007Y1689533D1*
Y1693844D1*
X3520581Y1696696D1*
X3517696Y1699581D1*
X3513418Y1701007D1*
X3507681Y1702433D1*
X3504796Y1703892D1*
X3503370Y1706744D1*
Y1709629D1*
X3504796Y1712481D1*
X3509107Y1713907D1*
X3514844D1*
X3648476Y1706744D2*
Y1708170D1*
X3647050Y1711055D1*
X3645624Y1712481D1*
X3642739Y1713907D1*
X3637002D1*
X3634150Y1712481D1*
X3632724Y1711055D1*
X3631265Y1708170D1*
Y1705318D1*
X3632724Y1702433D1*
X3635576Y1698155D1*
X3649935Y1683796D1*
X3629839D1*
X3601905Y1703892D2*
X3603364Y1699581D1*
X3606216Y1696696D1*
X3610527Y1695270D1*
X3611953D1*
X3616264Y1696696D1*
X3619116Y1699581D1*
X3620575Y1703892D1*
Y1705318D1*
X3619116Y1709629D1*
X3616264Y1712481D1*
X3611953Y1713907D1*
X3610527D1*
X3606216Y1712481D1*
X3603364Y1709629D1*
X3601905Y1703892D1*
Y1696696D1*
X3603364Y1689533D1*
X3606216Y1685222D1*
X3610527Y1683796D1*
X3613379D1*
X3617690Y1685222D1*
X3619116Y1688107D1*
X3748680Y1713907D2*
X3732929D1*
X3741517Y1702433D1*
X3737206D1*
X3734354Y1701007D1*
X3732929Y1699581D1*
X3731469Y1695270D1*
Y1692418D1*
X3732929Y1688107D1*
X3735780Y1685222D1*
X3740091Y1683796D1*
X3744402D1*
X3748680Y1685222D1*
X3750106Y1686681D1*
X3751565Y1689533D1*
X3713584Y1713907D2*
X3717895Y1712481D1*
X3720780Y1708170D1*
X3722206Y1701007D1*
Y1696696D1*
X3720780Y1689533D1*
X3717895Y1685222D1*
X3713584Y1683796D1*
X3710732D1*
X3706421Y1685222D1*
X3703569Y1689533D1*
X3702110Y1696696D1*
Y1701007D1*
X3703569Y1708170D1*
X3706421Y1712481D1*
X3710732Y1713907D1*
X3713584D1*
X3703569Y1708170D2*
X3720780Y1689533D1*
X3835740Y1713907D2*
X3819988D1*
X3828577Y1702433D1*
X3824266D1*
X3821414Y1701007D1*
X3819988Y1699581D1*
X3818529Y1695270D1*
Y1692418D1*
X3819988Y1688107D1*
X3822840Y1685222D1*
X3827151Y1683796D1*
X3831462D1*
X3835740Y1685222D1*
X3837166Y1686681D1*
X3838625Y1689533D1*
X3809265Y1708170D2*
X3806380Y1709629D1*
X3802069Y1713907D1*
Y1683796D1*
X3948600Y1713907D2*
X3932848D1*
X3941437Y1702433D1*
X3937126D1*
X3934274Y1701007D1*
X3932848Y1699581D1*
X3931389Y1695270D1*
Y1692418D1*
X3932848Y1688107D1*
X3935700Y1685222D1*
X3940011Y1683796D1*
X3944322D1*
X3948600Y1685222D1*
X3950026Y1686681D1*
X3951485Y1689533D1*
X3920667Y1706744D2*
Y1708170D1*
X3919241Y1711055D1*
X3917815Y1712481D1*
X3914930Y1713907D1*
X3909193D1*
X3906341Y1712481D1*
X3904915Y1711055D1*
X3903456Y1708170D1*
Y1705318D1*
X3904915Y1702433D1*
X3907767Y1698155D1*
X3922126Y1683796D1*
X3902030D1*
X1628503Y1706777D2*
X1629929Y1709629D1*
X1632814Y1712514D1*
X1635666Y1713940D1*
X1641403D1*
X1644288Y1712514D1*
X1647140Y1709629D1*
X1648599Y1706777D1*
X1650025Y1702466D1*
Y1695270D1*
X1648599Y1690992D1*
X1647140Y1688107D1*
X1644288Y1685255D1*
X1641403Y1683796D1*
X1635666D1*
X1632814Y1685255D1*
X1629929Y1688107D1*
X1628503Y1690992D1*
Y1695270D1*
X1635666D1*
X1619239Y1703892D2*
Y1683796D1*
Y1698155D2*
X1614928Y1702466D1*
X1612043Y1703892D1*
X1607765D1*
X1604880Y1702466D1*
X1603454Y1698155D1*
Y1683796D1*
X1576980Y1713940D2*
Y1683796D1*
Y1699581D2*
X1579832Y1702466D1*
X1582717Y1703892D1*
X1587028D1*
X1589880Y1702466D1*
X1592765Y1699581D1*
X1594191Y1695270D1*
Y1692418D1*
X1592765Y1688107D1*
X1589880Y1685255D1*
X1587028Y1683796D1*
X1582717D1*
X1579832Y1685255D1*
X1576980Y1688107D1*
X3163269Y3474249D2*
X3181939D1*
Y3444105D1*
Y3459890D2*
X3170465D1*
X3154006Y3474249D2*
Y3444105D1*
X3136795D1*
X3117483Y3474249D2*
Y3444105D1*
X3127531Y3474249D2*
X3107435D1*
X3217003Y3374249D2*
Y3344105D1*
X3206955D1*
X3202644Y3345564D1*
X3199759Y3348416D1*
X3198333Y3351301D1*
X3196907Y3355579D1*
Y3362775D1*
X3198333Y3367086D1*
X3199759Y3369938D1*
X3202644Y3372823D1*
X3206955Y3374249D1*
X3217003D1*
X3169006D2*
X3187643D1*
Y3344105D1*
X3169006D1*
X3187643Y3359890D2*
X3176169D1*
X3136795Y3344105D2*
Y3374249D1*
X3148269Y3344105D1*
X3159743Y3374249D1*
Y3344105D1*
X3127531Y3358464D2*
X3114598D1*
X3110320Y3359890D1*
X3108861Y3361349D1*
X3107435Y3364201D1*
Y3368512D1*
X3108861Y3371364D1*
X3110320Y3372823D1*
X3114598Y3374249D1*
X3127531D1*
Y3344105D1*
X3218462Y3274249D2*
X3198366Y3244105D1*
Y3274249D2*
X3218462Y3244105D1*
X3169006Y3269938D2*
X3171858Y3272823D1*
X3176169Y3274249D1*
X3181906D1*
X3186217Y3272823D1*
X3189102Y3269938D1*
Y3267086D1*
X3187643Y3264201D1*
X3186217Y3262775D1*
X3183365Y3261349D1*
X3174743Y3258464D1*
X3171858Y3257038D1*
X3170432Y3255579D1*
X3169006Y3252727D1*
Y3248416D1*
X3171858Y3245564D1*
X3176169Y3244105D1*
X3181906D1*
X3186217Y3245564D1*
X3189102Y3248416D1*
X3136795Y3244105D2*
Y3274249D1*
X3148269Y3244105D1*
X3159743Y3274249D1*
Y3244105D1*
X3117483Y3274249D2*
Y3244105D1*
X3127531Y3274249D2*
X3107435D1*
X3169006Y3174249D2*
X3187676D1*
Y3144105D1*
Y3159890D2*
X3176202D1*
X3136795Y3144105D2*
Y3174249D1*
X3148269Y3144105D1*
X3159743Y3174249D1*
Y3144105D1*
X3117483Y3174249D2*
Y3144105D1*
X3127531Y3174249D2*
X3107435D1*
X3192629Y3044105D2*
X3204136Y3074249D1*
X3215610Y3044105D1*
X3211299Y3054153D2*
X3196940D1*
X3180480Y3074216D2*
X3164728D1*
X3173317Y3062742D1*
X3169006D1*
X3166154Y3061316D1*
X3164728Y3059890D1*
X3163269Y3055579D1*
Y3052727D1*
X3164728Y3048416D1*
X3167580Y3045531D1*
X3171891Y3044105D1*
X3176202D1*
X3180480Y3045531D1*
X3181906Y3046990D1*
X3183365Y3049842D1*
X3154006Y3064201D2*
X3145384Y3044105D1*
X3136795Y3064201D1*
X3124646Y3074216D2*
X3108894D1*
X3117483Y3062742D1*
X3113172D1*
X3110320Y3061316D1*
X3108894Y3059890D1*
X3107435Y3055579D1*
Y3052727D1*
X3108894Y3048416D1*
X3111746Y3045531D1*
X3116057Y3044105D1*
X3120368D1*
X3124646Y3045531D1*
X3126072Y3046990D1*
X3127531Y3049842D1*
X3196940Y2944105D2*
X3208447Y2974249D1*
X3219921Y2944105D1*
X3215610Y2954153D2*
X3201251D1*
X3166154Y2967086D2*
X3167580Y2969938D1*
X3170465Y2972823D1*
X3173317Y2974249D1*
X3179054D1*
X3181939Y2972823D1*
X3184791Y2969938D1*
X3186250Y2967086D1*
X3187676Y2962775D1*
Y2955579D1*
X3186250Y2951301D1*
X3184791Y2948416D1*
X3181939Y2945564D1*
X3179054Y2944105D1*
X3173317D1*
X3170465Y2945564D1*
X3167580Y2948416D1*
X3166154Y2951301D1*
Y2955579D1*
X3173317D1*
X3136795Y2974249D2*
Y2944105D1*
X3156891Y2974249D1*
Y2944105D1*
X3127531Y2974249D2*
Y2944105D1*
X3117483D1*
X3113172Y2945564D1*
X3110287Y2948416D1*
X3108861Y2951301D1*
X3107435Y2955579D1*
Y2962775D1*
X3108861Y2967086D1*
X3110287Y2969938D1*
X3113172Y2972823D1*
X3117483Y2974249D1*
X3127531D1*
X3196940Y2744105D2*
X3208447Y2774249D1*
X3219921Y2744105D1*
X3215610Y2754153D2*
X3201251D1*
X3166154Y2767086D2*
X3167580Y2769938D1*
X3170465Y2772823D1*
X3173317Y2774249D1*
X3179054D1*
X3181939Y2772823D1*
X3184791Y2769938D1*
X3186250Y2767086D1*
X3187676Y2762775D1*
Y2755579D1*
X3186250Y2751301D1*
X3184791Y2748416D1*
X3181939Y2745564D1*
X3179054Y2744105D1*
X3173317D1*
X3170465Y2745564D1*
X3167580Y2748416D1*
X3166154Y2751301D1*
Y2755579D1*
X3173317D1*
X3136795Y2774249D2*
Y2744105D1*
X3156891Y2774249D1*
Y2744105D1*
X3127531Y2774249D2*
Y2744105D1*
X3117483D1*
X3113172Y2745564D1*
X3110287Y2748416D1*
X3108861Y2751301D1*
X3107435Y2755579D1*
Y2762775D1*
X3108861Y2767086D1*
X3110287Y2769938D1*
X3113172Y2772823D1*
X3117483Y2774249D1*
X3127531D1*
X3244936Y2674249D2*
Y2644105D1*
X3227725D1*
X3218462Y2659890D2*
X3205562D1*
X3201251Y2661349D1*
X3199792Y2662775D1*
X3198366Y2665627D1*
Y2668512D1*
X3199792Y2671364D1*
X3201251Y2672823D1*
X3205562Y2674249D1*
X3218462D1*
Y2644105D1*
X3208414Y2659890D2*
X3198366Y2644105D1*
X3180480Y2674249D2*
X3183365Y2672823D1*
X3186217Y2669938D1*
X3187676Y2667086D1*
X3189102Y2662775D1*
Y2655579D1*
X3187676Y2651301D1*
X3186217Y2648416D1*
X3183365Y2645564D1*
X3180480Y2644105D1*
X3174743D1*
X3171891Y2645564D1*
X3169006Y2648416D1*
X3167580Y2651301D1*
X3166154Y2655579D1*
Y2662775D1*
X3167580Y2667086D1*
X3169006Y2669938D1*
X3171891Y2672823D1*
X3174743Y2674249D1*
X3180480D1*
X3156891D2*
Y2652727D1*
X3155465Y2648416D1*
X3152580Y2645564D1*
X3148269Y2644105D1*
X3145417D1*
X3141106Y2645564D1*
X3138221Y2648416D1*
X3136795Y2652727D1*
Y2674249D1*
X3117483D2*
Y2644105D1*
X3127531Y2674249D2*
X3107435D1*
X1388080Y1973871D2*
X1375180D1*
X1370869Y1975330D1*
X1369410Y1976756D1*
X1367984Y1979608D1*
Y1982493D1*
X1369410Y1985345D1*
X1370869Y1986804D1*
X1375180Y1988230D1*
X1388080D1*
Y1958086D1*
X1378032Y1973871D2*
X1367984Y1958086D1*
X1358720Y1988230D2*
X1338624Y1958086D1*
Y1988230D2*
X1358720Y1958086D1*
X1329361D2*
X1309265Y1988197D1*
X1289953Y1988230D2*
Y1958086D1*
X1300001Y1988230D2*
X1279905D1*
X1270642Y1978182D2*
X1254857Y1958086D1*
Y1978182D2*
X1270642Y1958086D1*
X2765372Y3627568D2*
X2795516Y3616094D1*
X2765372Y3604620D1*
Y3595357D2*
X2795516D1*
X2765372Y3565997D2*
X2795516D1*
X2765372Y3586093D1*
X2795516D1*
X2873095Y3606046D2*
X2870244Y3607471D1*
X2867358Y3610357D1*
X2865932Y3613208D1*
Y3618945D1*
X2867358Y3621830D1*
X2870244Y3624682D1*
X2873095Y3626142D1*
X2877406Y3627567D1*
X2884603D1*
X2888880Y3626141D1*
X2891765Y3624682D1*
X2894617Y3621830D1*
X2896076Y3618945D1*
Y3613208D1*
X2894617Y3610357D1*
X2891765Y3607471D1*
X2888880Y3606045D1*
X2884603Y3606046D1*
Y3613208D1*
X2865932Y3576686D2*
X2896076D1*
X2865932Y3596782D1*
X2896076D1*
X2865932Y3567422D2*
X2896076D1*
X2896077Y3557374D1*
X2894617Y3553063D1*
X2891765Y3550178D1*
X2888880Y3548752D1*
X2884602Y3547327D1*
X2877406D1*
X2873095Y3548752D1*
X2870243Y3550178D1*
X2867358Y3553063D1*
X2865932Y3557375D1*
Y3567422D1*
X2966493Y3627568D2*
X2996637D1*
Y3610357D1*
X2980852Y3601094D2*
Y3588194D1*
X2979393Y3583883D1*
X2977967Y3582424D1*
X2975115Y3580998D1*
X2972230D1*
X2969378Y3582424D1*
X2967919Y3583883D1*
X2966493Y3588194D1*
Y3601094D1*
X2996637D1*
X2980852Y3591046D2*
X2996637Y3580998D1*
X2973656Y3550212D2*
X2970804Y3551638D1*
X2967919Y3554523D1*
X2966493Y3557375D1*
Y3563112D1*
X2967919Y3565997D1*
X2970804Y3568849D1*
X2973656Y3570308D1*
X2977967Y3571734D1*
X2985163D1*
X2989441Y3570308D1*
X2992326Y3568849D1*
X2995178Y3565997D1*
X2996637Y3563112D1*
Y3557375D1*
X2995178Y3554523D1*
X2992326Y3551638D1*
X2989441Y3550212D1*
X2966493Y3540949D2*
X2996637D1*
X2966493Y3520853D2*
X2986589Y3540949D1*
X2979393Y3533786D2*
X2996637Y3520853D1*
X3067053Y3627568D2*
X3097197D1*
Y3617520D1*
X3095738Y3613209D1*
X3092886Y3610324D1*
X3090001Y3608898D1*
X3085723Y3607472D1*
X3078527D1*
X3074216Y3608898D1*
X3071364Y3610324D1*
X3068479Y3613209D1*
X3067053Y3617520D1*
Y3627568D1*
Y3598208D2*
X3097197D1*
X3067053Y3568849D2*
X3097197D1*
X3067053Y3588945D1*
X3097197D1*
X3167614Y3649088D2*
X3197758D1*
Y3636155D1*
X3196298Y3631844D1*
X3194872Y3630418D1*
X3192021Y3628992D1*
X3187710D1*
X3184825Y3630418D1*
X3183399Y3631844D1*
X3181973Y3636155D1*
X3180513Y3631844D1*
X3179088Y3630418D1*
X3176236Y3628992D1*
X3173351D1*
X3170499Y3630418D1*
X3169040Y3631844D1*
X3167614Y3636155D1*
Y3649088D1*
X3181973D2*
Y3636155D1*
X3174777Y3598207D2*
X3171925Y3599633D1*
X3169040Y3602518D1*
X3167614Y3605370D1*
Y3611107D1*
X3169040Y3613992D1*
X3171925Y3616844D1*
X3174777Y3618303D1*
X3179088Y3619729D1*
X3186284D1*
X3190561Y3618303D1*
X3193447Y3616844D1*
X3196298Y3613992D1*
X3197758Y3611107D1*
Y3605370D1*
X3196298Y3602518D1*
X3193447Y3599633D1*
X3190562Y3598207D1*
X3167614Y3588943D2*
X3197758D1*
X3167614Y3568848D2*
X3187710Y3588943D1*
X3180513Y3581781D2*
X3197758Y3568848D1*
X3272485Y3607471D2*
X3269600Y3610323D1*
X3268174Y3614634D1*
Y3620371D1*
X3269600Y3624682D1*
X3272485Y3627567D1*
X3275337D1*
X3278222Y3626108D1*
X3279648Y3624682D1*
X3281074Y3621830D1*
X3283959Y3613208D1*
X3285385Y3610323D1*
X3286844Y3608897D1*
X3289696Y3607471D1*
X3294007D1*
X3296859Y3610323D1*
X3298318Y3614634D1*
Y3620371D1*
X3296859Y3624682D1*
X3294007Y3627567D1*
X3275337Y3576686D2*
X3272485Y3578112D1*
X3269600Y3580997D1*
X3268174Y3583849D1*
Y3589586D1*
X3269600Y3592471D1*
X3272485Y3595323D1*
X3275337Y3596782D1*
X3279648Y3598208D1*
X3286844D1*
X3291122Y3596782D1*
X3294007Y3595323D1*
X3296859Y3592471D1*
X3298318Y3589586D1*
Y3583849D1*
X3296859Y3580997D1*
X3294007Y3578112D1*
X3291122Y3576686D1*
X3268174Y3567422D2*
X3298318D1*
X3268174Y3547327D2*
X3288270Y3567422D1*
X3281074Y3560260D2*
X3298318Y3547327D1*
X1724177Y2785807D2*
Y2804477D1*
X1754321D1*
X1738536D2*
Y2793003D1*
X1754321Y2753596D2*
X1724177D1*
X1754321Y2765070D1*
X1724177Y2776544D1*
X1754321D1*
X1724177Y2744332D2*
X1738536Y2732858D1*
X1754321D1*
X1724177Y2721384D2*
X1738536Y2732858D1*
X1854321Y2767203D2*
X1824177D1*
X1854321Y2778677D1*
X1824177Y2790151D1*
X1854321D1*
X1824177Y2757940D2*
X1854321D1*
Y2747892D1*
X1852861Y2743581D1*
X1850010Y2740696D1*
X1847125Y2739270D1*
X1842847Y2737844D1*
X1835651D1*
X1831340Y2739270D1*
X1828488Y2740696D1*
X1825603Y2743581D1*
X1824177Y2747892D1*
Y2757940D1*
X1829947Y2728580D2*
X1828488Y2725695D1*
X1824210Y2721384D1*
X1854321D1*
X1954321Y2780103D2*
X1924177D1*
X1954321Y2791577D1*
X1924177Y2803051D1*
X1954321D1*
X1924177Y2770840D2*
X1954321D1*
Y2760792D1*
X1952861Y2756481D1*
X1950010Y2753596D1*
X1947124Y2752170D1*
X1942847Y2750744D1*
X1935651D1*
X1931340Y2752170D1*
X1928488Y2753596D1*
X1925603Y2756481D1*
X1924177Y2760792D1*
Y2770840D1*
X1924210Y2732858D2*
X1925636Y2737169D1*
X1929947Y2740054D1*
X1937110Y2741480D1*
X1941421D1*
X1948584Y2740054D1*
X1952895Y2737169D1*
X1954321Y2732858D1*
Y2730006D1*
X1952895Y2725695D1*
X1948584Y2722843D1*
X1941421Y2721384D1*
X1937110D1*
X1929947Y2722843D1*
X1925636Y2725695D1*
X1924210Y2730006D1*
Y2732858D1*
X1929947Y2722843D2*
X1948584Y2740054D1*
X2031340Y2780103D2*
X2028488Y2781529D1*
X2025603Y2784414D1*
X2024177Y2787266D1*
Y2793003D1*
X2025603Y2795888D1*
X2028488Y2798740D1*
X2031340Y2800199D1*
X2035651Y2801625D1*
X2042847D1*
X2047124Y2800199D1*
X2050010Y2798740D1*
X2052861Y2795888D1*
X2054321Y2793003D1*
Y2787266D1*
X2052861Y2784414D1*
X2050010Y2781529D1*
X2047124Y2780103D1*
X2042847D1*
Y2787266D1*
X2024177Y2750744D2*
X2054321D1*
X2024177Y2770840D1*
X2054321D1*
X2024177Y2741480D2*
X2054321D1*
Y2731432D1*
X2052861Y2727121D1*
X2050010Y2724236D1*
X2047124Y2722810D1*
X2042847Y2721384D1*
X2035650D1*
X2031339Y2722810D1*
X2028488Y2724236D1*
X2025602Y2727121D1*
X2024177Y2731432D1*
Y2741480D1*
X2124210Y2780103D2*
Y2764351D1*
X2135684Y2772940D1*
Y2768629D1*
X2137110Y2765777D1*
X2138536Y2764351D1*
X2142847Y2762892D1*
X2145699D1*
X2150010Y2764351D1*
X2152895Y2767203D1*
X2154321Y2771514D1*
Y2775825D1*
X2152895Y2780103D1*
X2151435Y2781529D1*
X2148584Y2782988D1*
X2151436Y2752203D2*
X2152895Y2753629D1*
X2154321Y2752203D1*
X2152895Y2750744D1*
X2151436Y2752203D1*
X2124210Y2738595D2*
Y2722843D1*
X2135684Y2731432D1*
Y2727121D1*
X2137110Y2724269D1*
X2138536Y2722843D1*
X2142847Y2721384D1*
X2145698D1*
X2150010Y2722843D1*
X2152895Y2725695D1*
X2154321Y2730006D1*
Y2734317D1*
X2152895Y2738595D1*
X2151436Y2740021D1*
X2148584Y2741480D1*
X2224210Y2756481D2*
Y2770807D1*
X2237110Y2772233D1*
X2235684Y2770807D1*
X2234225Y2766496D1*
Y2762218D1*
X2235684Y2757907D1*
X2238536Y2755022D1*
X2242847Y2753596D1*
X2245699D1*
X2250010Y2755022D1*
X2252895Y2757907D1*
X2254321Y2762218D1*
Y2766496D1*
X2252895Y2770807D1*
X2251435Y2772232D1*
X2248584Y2773692D1*
X2224177Y2744332D2*
X2254321Y2732858D1*
X2224177Y2721384D1*
X1699314Y3565724D2*
X1729458D1*
Y3552791D1*
X1727999Y3548480D1*
X1726573Y3547054D1*
X1723721Y3545628D1*
X1719410D1*
X1716525Y3547054D1*
X1715099Y3548480D1*
X1713673Y3552791D1*
X1712214Y3548480D1*
X1710788Y3547054D1*
X1707936Y3545628D1*
X1705051D1*
X1702199Y3547054D1*
X1700740Y3548480D1*
X1699314Y3552791D1*
Y3565724D1*
X1713673D2*
Y3552791D1*
X1706477Y3514842D2*
X1703625Y3516268D1*
X1700740Y3519153D1*
X1699314Y3522005D1*
Y3527742D1*
X1700740Y3530627D1*
X1703625Y3533479D1*
X1706477Y3534938D1*
X1710788Y3536364D1*
X1717984D1*
X1722262Y3534938D1*
X1725147Y3533479D1*
X1727999Y3530627D1*
X1729458Y3527742D1*
Y3522005D1*
X1727999Y3519153D1*
X1725147Y3516268D1*
X1722262Y3514842D1*
X1699314Y3505579D2*
X1729458D1*
X1699314Y3485483D2*
X1719410Y3505579D1*
X1712214Y3498416D2*
X1729458Y3485483D1*
X1799314Y3557101D2*
X1800740Y3559986D1*
X1803625Y3562838D1*
X1806477Y3564297D1*
X1810788Y3565723D1*
X1817984D1*
X1822262Y3564297D1*
X1825147Y3562838D1*
X1827999Y3559986D1*
X1829458Y3557101D1*
Y3551364D1*
X1827999Y3548512D1*
X1825147Y3545627D1*
X1822262Y3544201D1*
X1817984Y3542775D1*
X1810788D1*
X1806477Y3544201D1*
X1803625Y3545627D1*
X1800740Y3548512D1*
X1799314Y3551364D1*
Y3557101D1*
Y3533512D2*
X1820836D1*
X1825147Y3532086D1*
X1827999Y3529201D1*
X1829458Y3524890D1*
Y3522038D1*
X1827999Y3517727D1*
X1825147Y3514842D1*
X1820836Y3513416D1*
X1799314D1*
Y3494104D2*
X1829458D1*
X1799314Y3504152D2*
Y3484056D1*
X1899314Y3565723D2*
X1929458D1*
Y3548512D1*
X1913673Y3539249D2*
Y3526349D1*
X1912214Y3522038D1*
X1910788Y3520579D1*
X1907936Y3519153D1*
X1905051D1*
X1902199Y3520579D1*
X1900740Y3522038D1*
X1899314Y3526349D1*
Y3539249D1*
X1929458D1*
X1913673Y3529201D2*
X1929458Y3519153D1*
X1906477Y3488367D2*
X1903625Y3489793D1*
X1900740Y3492678D1*
X1899314Y3495530D1*
Y3501267D1*
X1900740Y3504152D1*
X1903625Y3507004D1*
X1906477Y3508463D1*
X1910788Y3509889D1*
X1917984D1*
X1922262Y3508463D1*
X1925147Y3507004D1*
X1927999Y3504152D1*
X1929458Y3501267D1*
Y3495530D1*
X1927999Y3492678D1*
X1925147Y3489793D1*
X1922262Y3488367D1*
X2003625Y3563141D2*
X2000740Y3565993D1*
X1999314Y3570304D1*
Y3576041D1*
X2000740Y3580352D1*
X2003625Y3583237D1*
X2006477D1*
X2009362Y3581778D1*
X2010788Y3580352D1*
X2012214Y3577500D1*
X2015099Y3568878D1*
X2016525Y3565993D1*
X2017984Y3564567D1*
X2020836Y3563141D1*
X2025147D1*
X2027999Y3565993D1*
X2029458Y3570304D1*
Y3576041D1*
X2027999Y3580352D1*
X2025147Y3583237D1*
X2006477Y3532355D2*
X2003625Y3533781D1*
X2000740Y3536666D1*
X1999314Y3539518D1*
Y3545255D1*
X2000740Y3548140D1*
X2003625Y3550992D1*
X2006477Y3552451D1*
X2010788Y3553877D1*
X2017984D1*
X2022262Y3552451D1*
X2025147Y3550992D1*
X2027999Y3548140D1*
X2029458Y3545255D1*
Y3539518D1*
X2027999Y3536666D1*
X2025147Y3533781D1*
X2022262Y3532355D1*
X1999314Y3523092D2*
X2029458D1*
X1999314Y3502996D2*
X2019410Y3523092D1*
X2012214Y3515929D2*
X2029458Y3502996D1*
X2110855Y3563905D2*
X2108003Y3565331D1*
X2105118Y3568216D1*
X2103692Y3571068D1*
Y3576805D1*
X2105118Y3579690D1*
X2108003Y3582542D1*
X2110855Y3584001D1*
X2115166Y3585427D1*
X2122362D1*
X2126640Y3584001D1*
X2129525Y3582542D1*
X2132377Y3579690D1*
X2133836Y3576805D1*
Y3571068D1*
X2132377Y3568216D1*
X2129525Y3565331D1*
X2126640Y3563905D1*
X2122362D1*
Y3571068D1*
X2103692Y3534546D2*
X2133836D1*
X2103692Y3554642D1*
X2133836D1*
X2103692Y3525282D2*
X2133836D1*
Y3515234D1*
X2132377Y3510923D1*
X2129525Y3508038D1*
X2126640Y3506612D1*
X2122362Y3505186D1*
X2115166D1*
X2110855Y3506612D1*
X2108003Y3508038D1*
X2105118Y3510923D1*
X2103692Y3515234D1*
Y3525282D1*
X2199348Y3562838D2*
Y3547086D1*
X2210821Y3555675D1*
Y3551364D1*
X2212247Y3548512D1*
X2213673Y3547086D1*
X2217984Y3545627D1*
X2220836D1*
X2225147Y3547086D1*
X2228032Y3549938D1*
X2229458Y3554249D1*
Y3558560D1*
X2228032Y3562838D1*
X2226573Y3564264D1*
X2223721Y3565723D1*
X2226573Y3534938D2*
X2228032Y3536364D1*
X2229458Y3534938D1*
X2228032Y3533479D1*
X2226573Y3534938D1*
X2199348Y3521330D2*
X2199347Y3505578D1*
X2210821Y3514167D1*
Y3509856D1*
X2212247Y3507004D1*
X2213673Y3505578D1*
X2217984Y3504119D1*
X2220836D1*
X2225147Y3505578D1*
X2228032Y3508430D1*
X2229458Y3512741D1*
Y3517052D1*
X2228032Y3521330D1*
X2226573Y3522756D1*
X2223721Y3524215D1*
X1365481Y2833130D2*
Y2863274D1*
X1376955Y2833130D1*
X1388429Y2863274D1*
Y2833130D1*
X1356217Y2863274D2*
X1354791Y2861848D1*
X1353332Y2863274D1*
X1354791Y2864733D1*
X1356217Y2863274D1*
X1354791Y2853226D2*
Y2833130D1*
X1326824Y2848915D2*
X1329709Y2851800D1*
X1332594Y2853226D1*
X1336872D1*
X1339757Y2851800D1*
X1342609Y2848915D1*
X1344068Y2844604D1*
Y2841752D1*
X1342609Y2837441D1*
X1339757Y2834589D1*
X1336872Y2833130D1*
X1332594D1*
X1329709Y2834589D1*
X1326824Y2837441D1*
X1266878Y2856111D2*
X1268304Y2858963D1*
X1271189Y2861848D1*
X1274041Y2863274D1*
X1279778D1*
X1282663Y2861848D1*
X1285515Y2858963D1*
X1286974Y2856111D1*
X1288400Y2851800D1*
Y2844604D1*
X1286974Y2840326D1*
X1285515Y2837441D1*
X1282663Y2834589D1*
X1279778Y2833130D1*
X1274041D1*
X1271189Y2834589D1*
X1268304Y2837441D1*
X1266878Y2840326D1*
Y2844604D1*
X1274041D1*
X1257615Y2853226D2*
Y2833130D1*
Y2847489D2*
X1253304Y2851800D1*
X1250419Y2853226D1*
X1246141D1*
X1243256Y2851800D1*
X1241830Y2847489D1*
Y2833130D1*
X1215355Y2863274D2*
Y2833130D1*
Y2848915D2*
X1218207Y2851800D1*
X1221092Y2853226D1*
X1225403D1*
X1228255Y2851800D1*
X1231140Y2848915D1*
X1232566Y2844604D1*
Y2841752D1*
X1231140Y2837441D1*
X1228255Y2834589D1*
X1225403Y2833130D1*
X1221092D1*
X1218207Y2834589D1*
X1215355Y2837441D1*
X1258870Y2730164D2*
Y2760308D1*
X1270344Y2730164D1*
X1281818Y2760308D1*
Y2730164D1*
X1249606Y2760308D2*
X1248180Y2758882D1*
X1246721Y2760308D1*
X1248180Y2761767D1*
X1249606Y2760308D1*
X1248180Y2750260D2*
Y2730164D1*
X1220214Y2745949D2*
X1223099Y2748834D1*
X1225984Y2750260D1*
X1230262D1*
X1233147Y2748834D1*
X1235999Y2745949D1*
X1237458Y2741638D1*
Y2738786D1*
X1235999Y2734475D1*
X1233147Y2731623D1*
X1230262Y2730164D1*
X1225984D1*
X1223099Y2731623D1*
X1220214Y2734475D1*
X1345569Y2945221D2*
Y2915077D1*
X1328358D1*
X1319095Y2910103D2*
X1291836D1*
X1273950Y2945221D2*
X1276835Y2943795D1*
X1279687Y2940910D1*
X1281146Y2938058D1*
X1282572Y2933747D1*
Y2926551D1*
X1281146Y2922273D1*
X1279687Y2919388D1*
X1276835Y2916536D1*
X1273950Y2915077D1*
X1268213D1*
X1265361Y2916536D1*
X1262476Y2919388D1*
X1261050Y2922273D1*
X1259624Y2926551D1*
Y2933747D1*
X1261050Y2938058D1*
X1262476Y2940910D1*
X1265361Y2943795D1*
X1268213Y2945221D1*
X1273950D1*
X1250361Y2935173D2*
Y2920814D1*
X1248935Y2916536D1*
X1246050Y2915077D1*
X1241739D1*
X1238887Y2916536D1*
X1234576Y2920814D1*
Y2935173D2*
Y2915077D1*
X1221001Y2945221D2*
Y2920814D1*
X1219575Y2916536D1*
X1216690Y2915077D1*
X1213838D1*
X1225312Y2935173D2*
X1215264D1*
X1219084Y3195827D2*
X1206184D1*
X1201873Y3197286D1*
X1200414Y3198712D1*
X1198988Y3201564D1*
Y3204449D1*
X1200414Y3207301D1*
X1201873Y3208760D1*
X1206184Y3210186D1*
X1219084D1*
Y3180042D1*
X1209036Y3195827D2*
X1198988Y3180042D1*
X1189725Y3175067D2*
X1162466D1*
X1144580Y3210186D2*
X1147465Y3208760D1*
X1150317Y3205875D1*
X1151776Y3203023D1*
X1153202Y3198712D1*
Y3191516D1*
X1151776Y3187238D1*
X1150317Y3184353D1*
X1147465Y3181501D1*
X1144580Y3180042D1*
X1138843D1*
X1135991Y3181501D1*
X1133106Y3184353D1*
X1131680Y3187238D1*
X1130254Y3191516D1*
Y3198712D1*
X1131680Y3203023D1*
X1133106Y3205875D1*
X1135991Y3208760D1*
X1138843Y3210186D1*
X1144580D1*
X1120991Y3200138D2*
Y3185779D1*
X1119565Y3181501D1*
X1116680Y3180042D1*
X1112369D1*
X1109517Y3181501D1*
X1105206Y3185779D1*
Y3200138D2*
Y3180042D1*
X1091631Y3210186D2*
Y3185779D1*
X1090205Y3181501D1*
X1087320Y3180042D1*
X1084468D1*
X1095942Y3200138D2*
X1085894D1*
X1250000Y3033476D2*
X1251426Y3036327D1*
X1254311Y3039212D1*
X1257163Y3040638D1*
X1262900D1*
X1265785Y3039212D1*
X1268637Y3036327D1*
X1270096Y3033476D1*
X1271522Y3029164D1*
Y3021968D1*
X1270096Y3017691D1*
X1268637Y3014805D1*
X1265785Y3011954D1*
X1262900Y3010494D1*
X1257163D1*
X1254311Y3011954D1*
X1251426Y3014805D1*
X1250000Y3017691D1*
Y3021968D1*
X1257163D1*
X1240737Y3030590D2*
Y3010494D1*
Y3024853D2*
X1236426Y3029164D1*
X1233541Y3030590D1*
X1229263D1*
X1226378Y3029164D1*
X1224952Y3024853D1*
Y3010494D1*
X1198477Y3040638D2*
Y3010494D1*
Y3026279D2*
X1201329Y3029164D1*
X1204214Y3030590D1*
X1208525D1*
X1211377Y3029164D1*
X1214262Y3026279D1*
X1215688Y3021968D1*
Y3019116D1*
X1214262Y3014805D1*
X1211377Y3011954D1*
X1208525Y3010494D1*
X1204214D1*
X1201329Y3011954D1*
X1198477Y3014805D1*
X1529661Y3081370D2*
X1516761D1*
X1512450Y3082829D1*
X1510991Y3084255D1*
X1509565Y3087107D1*
Y3089992D1*
X1510991Y3092844D1*
X1512450Y3094303D1*
X1516761Y3095729D1*
X1529661D1*
Y3065585D1*
X1519613Y3081370D2*
X1509565Y3065585D1*
X1500302Y3060611D2*
X1473043D1*
X1463779Y3095729D2*
Y3065585D1*
X1434420Y3095729D2*
Y3065585D1*
X1454516Y3095729D1*
Y3065585D1*
X1499043Y3168934D2*
X1500469Y3171785D1*
X1503354Y3174670D1*
X1506206Y3176096D1*
X1511943D1*
X1514828Y3174670D1*
X1517680Y3171785D1*
X1519139Y3168934D1*
X1520565Y3164622D1*
Y3157426D1*
X1519139Y3153149D1*
X1517680Y3150263D1*
X1514828Y3147412D1*
X1511943Y3145952D1*
X1506206D1*
X1503354Y3147412D1*
X1500469Y3150263D1*
X1499043Y3153149D1*
Y3157426D1*
X1506206D1*
X1469683Y3176096D2*
Y3145952D1*
X1489779Y3176096D1*
Y3145952D1*
X1460420Y3176096D2*
Y3145952D1*
X1450372D1*
X1446061Y3147412D1*
X1443176Y3150263D1*
X1441750Y3153149D1*
X1440324Y3157426D1*
Y3164622D1*
X1441750Y3168934D1*
X1443176Y3171785D1*
X1446061Y3174670D1*
X1450372Y3176096D1*
X1460420D1*
X1529893Y3287541D2*
Y3257397D1*
X1512682D1*
X1503418Y3252423D2*
X1476159D1*
X1466896Y3287541D2*
Y3257397D1*
X1437536Y3287541D2*
Y3257397D1*
X1457632Y3287541D1*
Y3257397D1*
M02*
