G04 DipTrace 3.3.1.1*
G04 TopMask.gbr*
%MOIN*%
G04 #@! TF.FileFunction,Soldermask,Top*
G04 #@! TF.Part,Single*
%AMOUTLINE1*
4,1,8,
-0.023685,-0.031184,
-0.011499,-0.04337,
0.011499,-0.04337,
0.023685,-0.031184,
0.023685,0.031184,
0.011499,0.04337,
-0.011499,0.04337,
-0.023685,0.031184,
-0.023685,-0.031184,
0*%
%ADD44C,0.125*%
%ADD50R,0.102488X0.094614*%
%ADD52R,0.063118X0.019811*%
%ADD54R,0.031622X0.08674*%
%ADD56R,0.033591X0.049339*%
%ADD58O,0.04737X0.08674*%
%ADD60C,0.067055*%
%ADD62C,0.128*%
%ADD64C,0.073*%
%ADD66O,0.145795X0.070992*%
%ADD68O,0.070992X0.145795*%
%ADD70R,0.132016X0.070992*%
%ADD72R,0.070992X0.078866*%
%ADD74R,0.078866X0.070992*%
%ADD76R,0.070992X0.132016*%
%ADD84OUTLINE1*%
%FSLAX26Y26*%
G04*
G70*
G90*
G75*
G01*
G04 TopMask*
%LPD*%
D76*
X1022320Y1489035D3*
Y1296122D3*
D74*
X1325904Y915542D3*
Y1025778D3*
D76*
X1025257Y1130060D3*
Y937147D3*
D74*
X1378378Y1826217D3*
Y1715980D3*
X3942112Y3028181D3*
Y2917945D3*
D72*
X1607974Y1134652D3*
X1497738D3*
D74*
X1269907Y538886D3*
Y649122D3*
D76*
X1022320Y744648D3*
Y551735D3*
D74*
X3802690Y3516362D3*
Y3626598D3*
D70*
X3918626Y1226358D3*
X4111539D3*
X3666719Y765634D3*
X3859633D3*
D72*
X3703689Y564051D3*
X3813925D3*
D70*
X3198865Y1392497D3*
X3005951D3*
X3296509Y890203D3*
X3103596D3*
D72*
X1988214Y3799562D3*
X1877978D3*
D74*
X1800407Y4174504D3*
Y4064268D3*
D72*
X2246176Y4208795D3*
X2356412D3*
D76*
X2330110Y1115955D3*
Y1308869D3*
D74*
X2567619Y1285580D3*
Y1175344D3*
D76*
X1957932Y1204891D3*
Y1397804D3*
D72*
X2653545Y683798D3*
X2763781D3*
D68*
X463280Y2667535D3*
D66*
X760756Y2861680D3*
X728273Y2775626D3*
X630899Y2482958D3*
D68*
X898913Y2517848D3*
D44*
X4205188Y518483D3*
X555010Y543539D3*
D72*
X3276971Y591807D3*
X3166735D3*
D74*
X2128398Y1156373D3*
Y1046136D3*
D68*
X461705Y2130306D3*
D66*
X759181Y2324450D3*
X726698Y2238396D3*
X629324Y1945728D3*
D68*
X897339Y1980618D3*
D64*
X3332766Y2385961D3*
X3913896Y4122675D3*
X1632766Y2385961D3*
X1732766D3*
X2876535Y599720D3*
X3713898Y4222675D3*
X1832766Y2385961D3*
X3713898Y4122675D3*
X1932766Y2385961D3*
X2178583Y2063003D3*
D62*
X1634197Y4216571D3*
D64*
X3913896Y4222675D3*
X2178583Y2163003D3*
X2863898Y4222675D3*
X2078583Y2063003D3*
Y2163003D3*
X3167507Y2508657D3*
X2863898Y4122675D3*
X1978583Y2063003D3*
Y2163003D3*
X3271782Y2507526D3*
X2032766Y2385961D3*
X2963896Y4222675D3*
X2132766Y2385961D3*
X2733493Y1276421D3*
X2232766Y2385961D3*
X1412655Y506047D3*
X2332766Y2385961D3*
X1270495Y764453D3*
X2432766Y2385961D3*
X1424091Y986971D3*
X2532766Y2385961D3*
X1024537Y1636870D3*
X3063896Y4122675D3*
X2632766Y2385961D3*
X3263896Y4122675D3*
X2732766Y2385961D3*
X3163898Y4222675D3*
X2832766Y2385961D3*
X2963896Y4122675D3*
X2932766Y2385961D3*
X3063896Y4222675D3*
X3032766Y2385961D3*
X3163898Y4122675D3*
X3132766Y2385961D3*
X3263896Y4222675D3*
X3232766Y2385961D3*
X3432766D3*
X3319000Y3456008D3*
X3532766Y2385961D3*
X3319000Y3356008D3*
X3632766Y2385961D3*
X3319000Y3256008D3*
X3732766Y2385961D3*
X3319000Y3156008D3*
X3832766Y2385961D3*
X3319000Y3056008D3*
X3932766Y2385961D3*
X3319000Y2956008D3*
X1632766Y1785961D3*
X3319000Y2856008D3*
X1732766Y1785961D3*
X3319000Y2756008D3*
X1832766Y1785961D3*
X2794000Y3699793D3*
X1932766Y1785961D3*
X2894000Y3699793D3*
X2032766Y1785961D3*
X2994000Y3699793D3*
X2132766Y1785961D3*
X3094000Y3699793D3*
X2232766Y1785961D3*
X3194000Y3699793D3*
X2332766Y1785961D3*
X3294000Y3699793D3*
X2432766Y1785961D3*
X2224291Y3663570D3*
X2532766Y1785961D3*
X1724291Y3663570D3*
X2632766Y1785961D3*
X1824291Y3663570D3*
X2732766Y1785961D3*
X1924291Y3663570D3*
X2832766Y1785961D3*
D62*
X1634197Y4016571D3*
D64*
X2932766Y1785961D3*
X2024291Y3663570D3*
X3032766Y1785961D3*
X2124291Y3663570D3*
X3132766Y1785961D3*
X2224291Y2663570D3*
X3232766Y1785961D3*
X1724291Y2663570D3*
X3332766Y1785961D3*
X1824291Y2663570D3*
X3432766Y1785961D3*
X1924291Y2663570D3*
X3813896Y4222675D3*
X3532766Y1785961D3*
X3632766D3*
X2024291Y2663570D3*
X4113896Y4122675D3*
X3732766Y1785961D3*
X4013898Y4222675D3*
X3832766Y1785961D3*
X3932766D3*
X2124291Y2663570D3*
X3230010Y1631039D3*
D62*
X1434197Y4016571D3*
D64*
X3330010Y1631039D3*
X3430010D3*
X1882766Y1885961D3*
X1306500Y3031008D3*
X2282766Y1885961D3*
X1306500Y3131008D3*
X1982766Y1885961D3*
D62*
X1434197Y4216571D3*
D64*
X2082766Y1885961D3*
D62*
X1534197Y4116571D3*
X1247892Y4223017D3*
D64*
X2182766Y1885961D3*
D62*
X1247892Y4023017D3*
X1047892D3*
D64*
X4216182Y3712315D3*
Y3612315D3*
Y3512315D3*
Y3412315D3*
Y3312315D3*
X3813896Y4122675D3*
X3319000Y2656008D3*
X4013898Y4122675D3*
X4113896Y4222675D3*
X4116182Y3712315D3*
Y3612315D3*
Y3412315D3*
Y3512315D3*
Y3312315D3*
X1306500Y3231008D3*
X4194000Y2981008D3*
X4094000D3*
D62*
X1047892Y4223017D3*
X1147892Y4123017D3*
D64*
X1094000Y2931008D3*
Y3131008D3*
Y3031008D3*
X3130010Y1631039D3*
X508419Y3683147D3*
X608419D3*
X3839545Y2546232D3*
X3940192Y2543001D3*
X529978Y1491374D3*
Y1391374D3*
X508419Y3783146D3*
X529978Y1291374D3*
X608419Y3883146D3*
X529978Y1191374D3*
X608419Y4083146D3*
X529978Y1091374D3*
X508419Y3983147D3*
X529978Y991374D3*
Y891374D3*
X1094000Y2831008D3*
X629978Y891374D3*
X608419Y3783146D3*
X629978Y991374D3*
X508419Y3883146D3*
X629978Y1091374D3*
X608419Y3983147D3*
X629978Y1191374D3*
X508419Y4083146D3*
X629978Y1291374D3*
X1232768Y2198168D3*
X629978Y1391374D3*
X1094000Y2731008D3*
X629978Y1491374D3*
Y1591374D3*
X529978D3*
D60*
X1149581Y3844320D3*
X1529415Y3831521D3*
X1094000Y2031008D3*
X1161891Y2337310D3*
X3773984Y1317278D3*
X1094000Y1931008D3*
X1544000Y881008D3*
Y781008D3*
D64*
X4026841Y772941D3*
D84*
X1487542Y1382894D3*
D58*
X1537542D3*
X1587542D3*
D56*
X3715459Y1100018D3*
X3640656D3*
X3678058Y1009467D3*
X3470585Y1094387D3*
X3395782D3*
X3433184Y1003836D3*
D72*
X1499593Y1237192D3*
X1609829D3*
D74*
X1325236Y1255890D3*
Y1145654D3*
X1316718Y1507097D3*
Y1396861D3*
X3699198Y3516327D3*
Y3626563D3*
X1834013Y3341189D3*
Y3451425D3*
X1972693Y3338500D3*
Y3448736D3*
X2120432Y3343837D3*
Y3454073D3*
D72*
X4015438Y964336D3*
X3905202D3*
X4113157Y966386D3*
X4223394D3*
X3120499Y1145115D3*
X3230735D3*
X2899210Y1142329D3*
X3009446D3*
X3397623Y1231416D3*
X3507860D3*
D74*
X3430530Y668629D3*
Y778865D3*
X1970585Y4208795D3*
Y4098559D3*
X2088696Y4208795D3*
Y4098559D3*
X1766852Y1330978D3*
Y1220741D3*
X1762021Y1132535D3*
Y1022299D3*
D64*
X2744837Y838732D3*
X2844837D3*
X2944837D3*
D68*
X462563Y3186919D3*
D66*
X760039Y3381063D3*
X727556Y3295009D3*
X630182Y3002341D3*
D68*
X898197Y3037231D3*
D64*
X1736944Y623127D3*
X1786944Y823127D3*
X1836944Y623127D3*
X1886944Y823127D3*
X1936944Y623127D3*
X1986944Y823127D3*
X2036944Y623127D3*
X2086944Y823127D3*
X2136944Y623127D3*
X2186944Y823127D3*
X2236944Y623127D3*
X2286944Y823127D3*
X2336944Y623127D3*
X2386944Y823127D3*
X2436944Y623127D3*
D54*
X3522465Y3169911D3*
X3572465D3*
X3622465D3*
X3672465D3*
X3722465D3*
X3772465D3*
X3822465D3*
Y3382509D3*
X3772465D3*
X3722465D3*
X3672465D3*
X3622465D3*
X3572465D3*
X3522465D3*
D52*
X2075454Y3895689D3*
Y3915374D3*
Y3935059D3*
Y3954744D3*
Y3974429D3*
X1902226D3*
Y3954744D3*
Y3935059D3*
Y3915374D3*
Y3895689D3*
D50*
X2364286Y4090685D3*
Y3842654D3*
M02*
