G04 DipTrace 3.3.1.1*
G04 TopPaste.gbr*
%MOIN*%
G04 #@! TF.FileFunction,Paste,Top*
G04 #@! TF.Part,Single*
%ADD51R,0.086488X0.078614*%
%ADD53R,0.047118X0.003811*%
%ADD55R,0.015622X0.07074*%
%ADD57R,0.017591X0.033339*%
%ADD71R,0.116016X0.054992*%
%ADD73R,0.054992X0.062866*%
%ADD75R,0.062866X0.054992*%
%ADD77R,0.054992X0.116016*%
%FSLAX26Y26*%
G04*
G70*
G90*
G75*
G01*
G04 TopPaste*
%LPD*%
D77*
X1022320Y1489035D3*
Y1296122D3*
D75*
X1325904Y915542D3*
Y1025778D3*
D77*
X1025257Y1130060D3*
Y937147D3*
D75*
X1378378Y1826217D3*
Y1715980D3*
X3942112Y3028181D3*
Y2917945D3*
D73*
X1607974Y1134652D3*
X1497738D3*
D75*
X1269907Y538886D3*
Y649122D3*
D77*
X1022320Y744648D3*
Y551735D3*
D75*
X3802690Y3516362D3*
Y3626598D3*
D71*
X3918626Y1226358D3*
X4111539D3*
X3666719Y765634D3*
X3859633D3*
D73*
X3703689Y564051D3*
X3813925D3*
D71*
X3198865Y1392497D3*
X3005951D3*
X3296509Y890203D3*
X3103596D3*
D73*
X1988214Y3799562D3*
X1877978D3*
D75*
X1800407Y4174504D3*
Y4064268D3*
D73*
X2246176Y4208795D3*
X2356412D3*
D77*
X2330110Y1115955D3*
Y1308869D3*
D75*
X2567619Y1285580D3*
Y1175344D3*
D77*
X1957932Y1204891D3*
Y1397804D3*
D73*
X2653545Y683798D3*
X2763781D3*
X3276971Y591807D3*
X3166735D3*
D75*
X2128398Y1156373D3*
Y1046136D3*
D57*
X3715459Y1100018D3*
X3640656D3*
X3678058Y1009467D3*
X3470585Y1094387D3*
X3395782D3*
X3433184Y1003836D3*
D73*
X1499593Y1237192D3*
X1609829D3*
D75*
X1325236Y1255890D3*
Y1145654D3*
X1316718Y1507097D3*
Y1396861D3*
X3699198Y3516327D3*
Y3626563D3*
X1834013Y3341189D3*
Y3451425D3*
X1972693Y3338500D3*
Y3448736D3*
X2120432Y3343837D3*
Y3454073D3*
D73*
X4015438Y964336D3*
X3905202D3*
X4113157Y966386D3*
X4223394D3*
X3120499Y1145115D3*
X3230735D3*
X2899210Y1142329D3*
X3009446D3*
X3397623Y1231416D3*
X3507860D3*
D75*
X3430530Y668629D3*
Y778865D3*
X1970585Y4208795D3*
Y4098559D3*
X2088696Y4208795D3*
Y4098559D3*
X1766852Y1330978D3*
Y1220741D3*
X1762021Y1132535D3*
Y1022299D3*
D55*
X3522465Y3169911D3*
X3572465D3*
X3622465D3*
X3672465D3*
X3722465D3*
X3772465D3*
X3822465D3*
Y3382509D3*
X3772465D3*
X3722465D3*
X3672465D3*
X3622465D3*
X3572465D3*
X3522465D3*
D53*
X2075454Y3895689D3*
Y3915374D3*
Y3935059D3*
Y3954744D3*
Y3974429D3*
X1902226D3*
Y3954744D3*
Y3935059D3*
Y3915374D3*
Y3895689D3*
D51*
X2364286Y4090685D3*
Y3842654D3*
M02*
