G04 DipTrace 3.3.1.1*
G04 TopSilk.gbr*
%MOIN*%
G04 #@! TF.FileFunction,Legend,Top*
G04 #@! TF.Part,Single*
%ADD10C,0.009843*%
%ADD12C,0.003*%
%ADD16C,0.011811*%
%ADD19C,0.01*%
%ADD23C,0.001312*%
%ADD24C,0.02362*%
%ADD28C,0.023606*%
%ADD36C,0.015404*%
%ADD41C,0.015475*%
%ADD78C,0.006176*%
%ADD79C,0.004632*%
%ADD80C,0.012351*%
%ADD81C,0.009264*%
%ADD82C,0.003088*%
%FSLAX26Y26*%
G04*
G70*
G90*
G75*
G01*
G04 TopSilk*
%LPD*%
X1152241Y1262675D2*
D10*
X1071534Y1262643D1*
X1152241Y1262675D2*
Y1479180D1*
X1108926Y1522475D2*
X1152241Y1479180D1*
X1108926Y1522475D2*
X1071534D1*
X973106Y1262643D2*
X892399Y1262675D1*
Y1479180D1*
X935715Y1522475D2*
X892399Y1479180D1*
X973106Y1522475D2*
X935715D1*
D24*
X1079395Y1546130D3*
X1357369Y966329D2*
D10*
X1294440D1*
X1357369Y958881D2*
X1294440D1*
X1357369D2*
Y982440D1*
X1294440Y958881D2*
Y982440D1*
X1155178Y903700D2*
X1074471Y903668D1*
X1155178Y903700D2*
Y1120205D1*
X1111863Y1163500D2*
X1155178Y1120205D1*
X1111863Y1163500D2*
X1074471D1*
X976043Y903668D2*
X895336Y903700D1*
Y1120205D1*
X938652Y1163500D2*
X895336Y1120205D1*
X976043Y1163500D2*
X938652D1*
D24*
X1082332Y1187155D3*
X1346913Y1775429D2*
D10*
X1409843D1*
X1346913Y1782878D2*
X1409843D1*
X1346913D2*
Y1759319D1*
X1409843Y1782878D2*
Y1759319D1*
X3910647Y2977394D2*
X3973576D1*
X3910647Y2984843D2*
X3973576D1*
X3910647D2*
Y2961283D1*
X3973576Y2984843D2*
Y2961283D1*
X1557186Y1166117D2*
Y1103188D1*
X1564635Y1166117D2*
Y1103188D1*
Y1166117D2*
X1541076D1*
X1564635Y1103188D2*
X1541076D1*
X1301371Y589673D2*
X1238442D1*
X1301371Y582224D2*
X1238442D1*
X1301371D2*
Y605783D1*
X1238442Y582224D2*
Y605783D1*
X1152241Y518288D2*
X1071534Y518255D1*
X1152241Y518288D2*
Y734793D1*
X1108926Y778088D2*
X1152241Y734793D1*
X1108926Y778088D2*
X1071534D1*
X973106Y518255D2*
X892399Y518288D1*
Y734793D1*
X935715Y778088D2*
X892399Y734793D1*
X973106Y778088D2*
X935715D1*
D24*
X1079395Y801743D3*
X3834155Y3567150D2*
D10*
X3771226D1*
X3834155Y3559701D2*
X3771226D1*
X3834155D2*
Y3583260D1*
X3771226Y3559701D2*
Y3583260D1*
X4144986Y1356280D2*
X4145019Y1275572D1*
X4144986Y1356280D2*
X3928481D1*
X3885187Y1312964D2*
X3928481Y1356280D1*
X3885187Y1312964D2*
Y1275572D1*
X4145019Y1177144D2*
X4144986Y1096437D1*
X3928481D1*
X3885187Y1139753D2*
X3928481Y1096437D1*
X3885187Y1177144D2*
Y1139753D1*
D28*
X3861532Y1283433D3*
X3893080Y895555D2*
D10*
X3893112Y814848D1*
X3893080Y895555D2*
X3676574D1*
X3633280Y852239D2*
X3676574Y895555D1*
X3633280Y852239D2*
Y814848D1*
X3893112Y716420D2*
X3893080Y635713D1*
X3676574D1*
X3633280Y679028D2*
X3676574Y635713D1*
X3633280Y716420D2*
Y679028D1*
D28*
X3609625Y822708D3*
X3754476Y532587D2*
D10*
Y595516D1*
X3747028Y532587D2*
Y595516D1*
Y532587D2*
X3770587D1*
X3747028Y595516D2*
X3770587D1*
X2972504Y1262576D2*
X2972472Y1343283D1*
X2972504Y1262576D2*
X3189010D1*
X3232304Y1305892D2*
X3189010Y1262576D1*
X3232304Y1305892D2*
Y1343283D1*
X2972472Y1441712D2*
X2972504Y1522419D1*
X3189010D1*
X3232304Y1479103D2*
X3189010Y1522419D1*
X3232304Y1441712D2*
Y1479103D1*
D28*
X3255959Y1335423D3*
X3070149Y760282D2*
D10*
X3070116Y840989D1*
X3070149Y760282D2*
X3286654D1*
X3329949Y803598D2*
X3286654Y760282D1*
X3329949Y803598D2*
Y840989D1*
X3070116Y939418D2*
X3070149Y1020125D1*
X3286654D1*
X3329949Y976809D2*
X3286654Y1020125D1*
X3329949Y939418D2*
Y976809D1*
D28*
X3353604Y833129D3*
X1937427Y3831026D2*
D10*
Y3768097D1*
X1944875Y3831026D2*
Y3768097D1*
Y3831026D2*
X1921316D1*
X1944875Y3768097D2*
X1921316D1*
X1768942Y4123717D2*
X1831871D1*
X1768942Y4131165D2*
X1831871D1*
X1768942D2*
Y4107606D1*
X1831871Y4131165D2*
Y4107606D1*
X2296963Y4177331D2*
Y4240260D1*
X2289514Y4177331D2*
Y4240260D1*
Y4177331D2*
X2313073D1*
X2289514Y4240260D2*
X2313073D1*
X2200189Y1342316D2*
X2280896Y1342348D1*
X2200189Y1342316D2*
Y1125810D1*
X2243505Y1082516D2*
X2200189Y1125810D1*
X2243505Y1082516D2*
X2280896D1*
X2379324Y1342348D2*
X2460031Y1342316D1*
Y1125810D1*
X2416716Y1082516D2*
X2460031Y1125810D1*
X2379324Y1082516D2*
X2416716D1*
D24*
X2273036Y1058861D3*
X2536155Y1234793D2*
D10*
X2599084D1*
X2536155Y1242241D2*
X2599084D1*
X2536155D2*
Y1218682D1*
X2599084Y1242241D2*
Y1218682D1*
X1828010Y1431252D2*
X1908718Y1431284D1*
X1828010Y1431252D2*
Y1214746D1*
X1871326Y1171452D2*
X1828010Y1214746D1*
X1871326Y1171452D2*
X1908718D1*
X2007146Y1431284D2*
X2087853Y1431252D1*
Y1214746D1*
X2044537Y1171452D2*
X2087853Y1214746D1*
X2007146Y1171452D2*
X2044537D1*
D24*
X1900857Y1147797D3*
X2704332Y652333D2*
D10*
Y715262D1*
X2696883Y652333D2*
Y715262D1*
Y652333D2*
X2720442D1*
X2696883Y715262D2*
X2720442D1*
X406736Y2583104D2*
X433197Y2581298D1*
X405421Y2760989D2*
Y2584401D1*
X952108Y2441944D2*
X436100Y2442917D1*
X433964Y2899879D2*
X435278Y2772660D1*
X951725Y2905066D2*
X435278Y2903770D1*
X436593Y2445510D2*
X435278Y2574027D1*
X953259Y2899879D2*
X952108Y2445834D1*
X405421Y2764879D2*
X435278Y2763582D1*
X3233633Y623272D2*
X3210073D1*
X3233633Y560343D2*
X3210073D1*
X2096933Y1113034D2*
Y1089475D1*
X2159862Y1113034D2*
Y1089475D1*
X405161Y2045874D2*
X431622Y2044068D1*
X403846Y2223759D2*
Y2047171D1*
X950533Y1904715D2*
X434525Y1905687D1*
X432389Y2362650D2*
X433704Y2235430D1*
X950150Y2367837D2*
X433704Y2366540D1*
X435018Y1908281D2*
X433704Y2036797D1*
X951684Y2362650D2*
X950533Y1908605D1*
X403846Y2227650D2*
X433704Y2226353D1*
X1461922Y1329751D2*
G02X1613162Y1329751I75620J66569D01*
G01*
X1461922D1*
D36*
X3746308Y1114732D3*
X3737108Y1064588D2*
D10*
X3619003D1*
Y1044892D1*
X3737108D1*
Y1064588D1*
D36*
X3501434Y1109100D3*
X3492233Y1058957D2*
D10*
X3374129D1*
Y1039261D1*
X3492233D1*
Y1058957D1*
X1542932Y1205727D2*
X1566491D1*
X1542932Y1268656D2*
X1566491D1*
X1293772Y1212551D2*
Y1188992D1*
X1356701Y1212551D2*
Y1188992D1*
X1285253Y1463759D2*
Y1440199D1*
X1348182Y1463759D2*
Y1440199D1*
X3730663Y3559665D2*
Y3583224D1*
X3667734Y3559665D2*
Y3583224D1*
X1865478Y3384528D2*
Y3408087D1*
X1802549Y3384528D2*
Y3408087D1*
X2004157Y3381839D2*
Y3405398D1*
X1941228Y3381839D2*
Y3405398D1*
X2151896Y3387176D2*
Y3410735D1*
X2088967Y3387176D2*
Y3410735D1*
X3972100Y995801D2*
X3948541D1*
X3972100Y932871D2*
X3948541D1*
X4156496Y934921D2*
X4180055D1*
X4156496Y997850D2*
X4180055D1*
X3163837Y1113651D2*
X3187396D1*
X3163837Y1176580D2*
X3187396D1*
X2942549Y1110865D2*
X2966108D1*
X2942549Y1173794D2*
X2966108D1*
X3440962Y1199951D2*
X3464521D1*
X3440962Y1262881D2*
X3464521D1*
X3461995Y711967D2*
Y735526D1*
X3399066Y711967D2*
Y735526D1*
X1939121Y4165457D2*
Y4141898D1*
X2002050Y4165457D2*
Y4141898D1*
X2057231Y4165457D2*
Y4141898D1*
X2120160Y4165457D2*
Y4141898D1*
X1735387Y1287639D2*
Y1264080D1*
X1798316Y1287639D2*
Y1264080D1*
X1730556Y1089197D2*
Y1065638D1*
X1793486Y1089197D2*
Y1065638D1*
X2719887Y903732D2*
Y973732D1*
X2669837Y788732D2*
Y988732D1*
X3019837D2*
X2669837D1*
X3019837Y788732D2*
Y988732D1*
Y788732D2*
X2669837D1*
X2684887Y938732D2*
G02X2684887Y938732I35000J0D01*
G01*
X406020Y3102487D2*
X432480Y3100681D1*
X404705Y3280372D2*
Y3103784D1*
X951392Y2961327D2*
X435384Y2962300D1*
X433247Y3419263D2*
X434562Y3292043D1*
X951008Y3424449D2*
X434562Y3423153D1*
X435877Y2964893D2*
X434562Y3093410D1*
X952542Y3419263D2*
X951392Y2965218D1*
X404705Y3284262D2*
X434562Y3282966D1*
X1643193Y923127D2*
X2543193D1*
Y523127D1*
X1643193D1*
Y923127D1*
X3503168Y3225022D2*
X3841761D1*
X3503168Y3327398D2*
X3841761D1*
Y3225022D2*
Y3327398D1*
X3503168Y3225022D2*
Y3256515D1*
Y3295904D2*
Y3327398D1*
Y3256515D2*
G03X3503168Y3295904I12J19694D01*
G01*
X2032157Y3876001D2*
Y3994117D1*
X1945523D2*
Y3876001D1*
Y3994117D2*
X2032157D1*
Y3876001D2*
X2004596D1*
X1973084D2*
X1945523D1*
X2004596D2*
G03X1973084Y3876001I-15756J-11D01*
G01*
D41*
X2433179Y4139387D3*
X2464680Y4114262D2*
D10*
Y3819098D1*
X2431122D2*
X2464680D1*
X2431122Y4114262D2*
X2464680D1*
X2263973D2*
Y3819098D1*
X2297311D1*
X2263973Y4114262D2*
X2297311D1*
X4028583Y2905571D2*
D23*
X4328417D1*
Y1330768D1*
X4028583D1*
Y2905571D1*
X3520266Y2346024D2*
D12*
X3557766Y2383524D1*
X3689017Y2508509D2*
X3964017D1*
X1532766Y2435948D2*
D10*
X3982766D1*
Y1735936D1*
X1532766D1*
Y2435948D1*
G36*
X4272437Y3550097D2*
X4309933D1*
Y3475105D1*
X4272437D1*
Y3550097D1*
G37*
X2551127Y1387957D2*
D12*
G02X2551127Y1387957I46869J0D01*
G01*
X3991182Y3907277D2*
D19*
X4316182D1*
Y3107277D1*
X3991182D1*
Y3907277D1*
G36*
X4272434Y3537315D2*
X4297434D1*
Y3487314D1*
X4272434D1*
Y3537315D1*
G37*
X3512685Y4322675D2*
D19*
X4312684D1*
Y3997675D1*
X3512685D1*
Y4322675D1*
G36*
X4266188Y3562596D2*
X4309933D1*
Y3475105D1*
X4266188D1*
Y3562596D1*
G37*
G36*
X3876252Y4322675D2*
X3951245D1*
Y4272680D1*
X3876252D1*
Y4322675D1*
G37*
X2732900Y3764659D2*
D23*
X3402192D1*
Y2622927D1*
X2732900D1*
Y3764659D1*
X1224291Y3715932D2*
X2523504D1*
Y2613570D1*
X1224291D1*
Y3715932D1*
X1778583Y2288003D2*
D19*
X2378583D1*
Y1938003D1*
X1778583D1*
Y2288003D1*
G36*
X2041181Y2287722D2*
X2122423D1*
Y2243976D1*
X2041181D1*
Y2287722D1*
G37*
X2662685Y4322675D2*
D19*
X3462684D1*
Y3997675D1*
X2662685D1*
Y4322675D1*
G36*
X3026252D2*
X3101245D1*
Y4272680D1*
X3026252D1*
Y4322675D1*
G37*
X408419Y4281933D2*
D19*
X733419D1*
Y3481934D1*
X408419D1*
Y4281933D1*
G36*
Y3920495D2*
X458413D1*
Y3845501D1*
X408419D1*
Y3920495D1*
G37*
X529928Y1766073D2*
D10*
Y1791374D1*
X630028Y1766073D2*
X529928D1*
X630028D2*
Y1791374D1*
X529928Y691374D2*
Y716675D1*
X630028D2*
X529928D1*
X630028Y691374D2*
Y716675D1*
X754978Y691374D2*
X404978D1*
X754978Y1791374D2*
X404978D1*
X754978Y691374D2*
Y1791374D1*
X435077Y1321675D2*
X404978D1*
X435077Y1161073D2*
Y1321675D1*
Y1161073D2*
X404978D1*
Y691374D2*
Y1161073D1*
Y1321675D2*
Y1791374D1*
X1480929Y928954D2*
D16*
X1604507D1*
Y734601D1*
X1480929D1*
Y928954D1*
X843371Y1399399D2*
D78*
X839569Y1397497D1*
X835722Y1393651D1*
X833821Y1389848D1*
Y1382199D1*
X835722Y1378352D1*
X839569Y1374549D1*
X843371Y1372604D1*
X849119Y1370703D1*
X858714D1*
X864418Y1372604D1*
X868264Y1374549D1*
X872067Y1378352D1*
X874013Y1382199D1*
Y1389848D1*
X872067Y1393651D1*
X868265Y1397497D1*
X864418Y1399399D1*
X841514Y1411750D2*
X839569Y1415597D1*
X833865Y1421345D1*
X874013D1*
X1241443Y965435D2*
X1237641Y963534D1*
X1233794Y959687D1*
X1231893Y955885D1*
Y948235D1*
X1233794Y944389D1*
X1237641Y940586D1*
X1241443Y938641D1*
X1247191Y936739D1*
X1256786D1*
X1262490Y938641D1*
X1266337Y940586D1*
X1270139Y944389D1*
X1272085Y948235D1*
Y955885D1*
X1270139Y959687D1*
X1266337Y963534D1*
X1262490Y965435D1*
X1241488Y979732D2*
X1239586D1*
X1235739Y981633D1*
X1233838Y983535D1*
X1231937Y987381D1*
Y995031D1*
X1233838Y998833D1*
X1235739Y1000734D1*
X1239586Y1002680D1*
X1243389D1*
X1247236Y1000734D1*
X1252939Y996932D1*
X1272085Y977786D1*
Y1004581D1*
X846308Y1031824D2*
X842506Y1029922D1*
X838659Y1026076D1*
X836758Y1022273D1*
Y1014624D1*
X838659Y1010777D1*
X842506Y1006974D1*
X846308Y1005029D1*
X852056Y1003128D1*
X861651D1*
X867355Y1005029D1*
X871201Y1006974D1*
X875004Y1010777D1*
X876950Y1014624D1*
Y1022273D1*
X875004Y1026076D1*
X871202Y1029922D1*
X867355Y1031824D1*
X836802Y1048022D2*
Y1069024D1*
X852100Y1057572D1*
Y1063320D1*
X854002Y1067123D1*
X855903Y1069024D1*
X861651Y1070970D1*
X865453D1*
X871202Y1069024D1*
X875048Y1065222D1*
X876950Y1059474D1*
Y1053725D1*
X875048Y1048022D1*
X873103Y1046120D1*
X869300Y1044175D1*
X1293917Y1764923D2*
X1290115Y1763022D1*
X1286268Y1759175D1*
X1284366Y1755372D1*
Y1747723D1*
X1286268Y1743876D1*
X1290114Y1740074D1*
X1293917Y1738128D1*
X1299665Y1736227D1*
X1309260D1*
X1314964Y1738128D1*
X1318810Y1740074D1*
X1322613Y1743876D1*
X1324558Y1747723D1*
Y1755372D1*
X1322613Y1759175D1*
X1318810Y1763022D1*
X1314964Y1764923D1*
X1324558Y1796419D2*
X1284411Y1796420D1*
X1311161Y1777274D1*
Y1805970D1*
X3857651Y2967838D2*
X3853848Y2965937D1*
X3850001Y2962090D1*
X3848100Y2958287D1*
Y2950638D1*
X3850001Y2946791D1*
X3853848Y2942989D1*
X3857651Y2941043D1*
X3863399Y2939142D1*
X3872993D1*
X3878697Y2941043D1*
X3882544Y2942989D1*
X3886347Y2946791D1*
X3888292Y2950638D1*
Y2958287D1*
X3886347Y2962090D1*
X3882544Y2965937D1*
X3878697Y2967838D1*
X3848144Y3003137D2*
Y2984036D1*
X3865344Y2982135D1*
X3863443Y2984036D1*
X3861497Y2989784D1*
Y2995488D1*
X3863443Y3001236D1*
X3867245Y3005083D1*
X3872993Y3006984D1*
X3876796D1*
X3882544Y3005083D1*
X3886391Y3001236D1*
X3888292Y2995488D1*
Y2989784D1*
X3886391Y2984036D1*
X3884445Y2982135D1*
X3880643Y2980189D1*
X1548603Y1076102D2*
X1546702Y1079904D1*
X1542855Y1083751D1*
X1539053Y1085652D1*
X1531403D1*
X1527557Y1083751D1*
X1523754Y1079904D1*
X1521809Y1076102D1*
X1519907Y1070354D1*
Y1060759D1*
X1521809Y1055055D1*
X1523754Y1051208D1*
X1527557Y1047406D1*
X1531403Y1045460D1*
X1539053D1*
X1542855Y1047406D1*
X1546702Y1051208D1*
X1548603Y1055055D1*
X1583903Y1079904D2*
X1582001Y1083707D1*
X1576253Y1085608D1*
X1572451D1*
X1566703Y1083707D1*
X1562856Y1077959D1*
X1560955Y1068408D1*
Y1058858D1*
X1562856Y1051208D1*
X1566703Y1047361D1*
X1572451Y1045460D1*
X1574352D1*
X1580056Y1047361D1*
X1583903Y1051208D1*
X1585804Y1056956D1*
Y1058858D1*
X1583903Y1064606D1*
X1580056Y1068408D1*
X1574352Y1070309D1*
X1572451D1*
X1566703Y1068408D1*
X1562856Y1064606D1*
X1560955Y1058858D1*
X1185446Y588801D2*
X1181643Y586900D1*
X1177797Y583053D1*
X1175895Y579251D1*
Y571601D1*
X1177797Y567754D1*
X1181643Y563952D1*
X1185446Y562006D1*
X1191194Y560105D1*
X1200789D1*
X1206493Y562006D1*
X1210339Y563952D1*
X1214142Y567754D1*
X1216087Y571601D1*
Y579250D1*
X1214142Y583053D1*
X1210339Y586900D1*
X1206493Y588801D1*
X1175940Y610703D2*
X1177841Y604999D1*
X1181643Y603054D1*
X1185490D1*
X1189293Y604999D1*
X1191238Y608802D1*
X1193139Y616451D1*
X1195041Y622199D1*
X1198887Y626002D1*
X1202690Y627903D1*
X1208438D1*
X1212241Y626002D1*
X1214186Y624100D1*
X1216087Y618352D1*
Y610703D1*
X1214186Y604999D1*
X1212241Y603054D1*
X1208438Y601152D1*
X1202690D1*
X1198887Y603054D1*
X1195041Y606900D1*
X1193139Y612604D1*
X1191238Y620254D1*
X1189293Y624100D1*
X1185490Y626002D1*
X1181643D1*
X1177841Y624100D1*
X1175940Y618352D1*
Y610703D1*
X843371Y647362D2*
X839569Y645461D1*
X835722Y641614D1*
X833821Y637812D1*
Y630162D1*
X835722Y626316D1*
X839569Y622513D1*
X843371Y620568D1*
X849119Y618666D1*
X858714D1*
X864418Y620568D1*
X868264Y622513D1*
X872067Y626316D1*
X874013Y630162D1*
Y637812D1*
X872067Y641614D1*
X868265Y645461D1*
X864418Y647362D1*
X847218Y684607D2*
X852966Y682661D1*
X856813Y678859D1*
X858714Y673111D1*
Y671210D1*
X856813Y665462D1*
X852966Y661659D1*
X847218Y659714D1*
X845317D1*
X839569Y661659D1*
X835766Y665462D1*
X833865Y671210D1*
Y673111D1*
X835766Y678859D1*
X839569Y682661D1*
X847218Y684607D1*
X856813D1*
X866363Y682661D1*
X872111Y678859D1*
X874013Y673111D1*
Y669308D1*
X872111Y663560D1*
X868265Y661659D1*
X3786492Y3707122D2*
X3784591Y3710925D1*
X3780744Y3714772D1*
X3776942Y3716673D1*
X3769292D1*
X3765445Y3714772D1*
X3761643Y3710925D1*
X3759697Y3707122D1*
X3757796Y3701374D1*
Y3691780D1*
X3759697Y3686076D1*
X3761643Y3682229D1*
X3765445Y3678426D1*
X3769292Y3676481D1*
X3776942D1*
X3780744Y3678426D1*
X3784591Y3682229D1*
X3786492Y3686076D1*
X3798844Y3708979D2*
X3802690Y3710925D1*
X3808438Y3716629D1*
Y3676481D1*
X3832286Y3716629D2*
X3826538Y3714727D1*
X3822691Y3708979D1*
X3820790Y3699429D1*
Y3693681D1*
X3822691Y3684130D1*
X3826538Y3678382D1*
X3832286Y3676481D1*
X3836088D1*
X3841836Y3678382D1*
X3845639Y3684130D1*
X3847584Y3693681D1*
Y3699429D1*
X3845639Y3708979D1*
X3841836Y3714727D1*
X3836088Y3716629D1*
X3832286D1*
X3845639Y3708979D2*
X3822691Y3684130D1*
X3975867Y1405307D2*
X3973965Y1409110D1*
X3970119Y1412957D1*
X3966316Y1414858D1*
X3958667D1*
X3954820Y1412957D1*
X3951017Y1409110D1*
X3949072Y1405307D1*
X3947171Y1399559D1*
Y1389965D1*
X3949072Y1384261D1*
X3951017Y1380414D1*
X3954820Y1376611D1*
X3958667Y1374666D1*
X3966316D1*
X3970119Y1376611D1*
X3973965Y1380414D1*
X3975867Y1384261D1*
X3988218Y1407164D2*
X3992065Y1409110D1*
X3997813Y1414814D1*
Y1374666D1*
X4021660Y1414814D2*
X4015912Y1412913D1*
X4012065Y1407164D1*
X4010164Y1397614D1*
Y1391866D1*
X4012065Y1382315D1*
X4015912Y1376567D1*
X4021660Y1374666D1*
X4025463D1*
X4031211Y1376567D1*
X4035013Y1382315D1*
X4036959Y1391866D1*
Y1397614D1*
X4035013Y1407164D1*
X4031211Y1412913D1*
X4025463Y1414814D1*
X4021660D1*
X4035013Y1407164D2*
X4012065Y1382315D1*
X4060806Y1414814D2*
X4055058Y1412913D1*
X4051212Y1407164D1*
X4049310Y1397614D1*
Y1391866D1*
X4051212Y1382315D1*
X4055058Y1376567D1*
X4060806Y1374666D1*
X4064609D1*
X4070357Y1376567D1*
X4074159Y1382315D1*
X4076105Y1391866D1*
Y1397614D1*
X4074159Y1407164D1*
X4070357Y1412913D1*
X4064609Y1414814D1*
X4060806D1*
X4074159Y1407164D2*
X4051212Y1382315D1*
X3723960Y944583D2*
X3722059Y948386D1*
X3718212Y952232D1*
X3714409Y954134D1*
X3706760D1*
X3702913Y952232D1*
X3699111Y948386D1*
X3697165Y944583D1*
X3695264Y938835D1*
Y929240D1*
X3697165Y923536D1*
X3699111Y919690D1*
X3702913Y915887D1*
X3706760Y913942D1*
X3714409D1*
X3718212Y915887D1*
X3722059Y919690D1*
X3723960Y923536D1*
X3736311Y946440D2*
X3740158Y948386D1*
X3745906Y954089D1*
Y913942D1*
X3769753Y954089D2*
X3764005Y952188D1*
X3760159Y946440D1*
X3758257Y936889D1*
Y931141D1*
X3760159Y921591D1*
X3764005Y915843D1*
X3769753Y913942D1*
X3773556D1*
X3779304Y915843D1*
X3783107Y921591D1*
X3785052Y931141D1*
Y936889D1*
X3783107Y946440D1*
X3779304Y952188D1*
X3773556Y954089D1*
X3769753D1*
X3783107Y946440D2*
X3760159Y921591D1*
X3799349Y944539D2*
Y946440D1*
X3801250Y950287D1*
X3803151Y952188D1*
X3806998Y954089D1*
X3814648D1*
X3818450Y952188D1*
X3820351Y950287D1*
X3822297Y946440D1*
Y942638D1*
X3820351Y938791D1*
X3816549Y933087D1*
X3797403Y913942D1*
X3824198D1*
X3723036Y505501D2*
X3721135Y509303D1*
X3717288Y513150D1*
X3713485Y515051D1*
X3705836D1*
X3701989Y513150D1*
X3698187Y509303D1*
X3696241Y505501D1*
X3694340Y499753D1*
Y490158D1*
X3696241Y484454D1*
X3698187Y480607D1*
X3701989Y476805D1*
X3705836Y474859D1*
X3713485D1*
X3717288Y476805D1*
X3721135Y480607D1*
X3723036Y484454D1*
X3735387Y507358D2*
X3739234Y509303D1*
X3744982Y515007D1*
Y474859D1*
X3768830Y515007D2*
X3763082Y513106D1*
X3759235Y507358D1*
X3757333Y497807D1*
Y492059D1*
X3759235Y482508D1*
X3763082Y476760D1*
X3768830Y474859D1*
X3772632D1*
X3778380Y476760D1*
X3782183Y482508D1*
X3784128Y492059D1*
Y497807D1*
X3782183Y507358D1*
X3778380Y513106D1*
X3772632Y515007D1*
X3768830D1*
X3782183Y507358D2*
X3759235Y482508D1*
X3800326Y515007D2*
X3821329D1*
X3809877Y499708D1*
X3815625D1*
X3819427Y497807D1*
X3821329Y495906D1*
X3823274Y490158D1*
Y486355D1*
X3821329Y480607D1*
X3817526Y476760D1*
X3811778Y474859D1*
X3806030D1*
X3800326Y476760D1*
X3798425Y478706D1*
X3796480Y482508D1*
X3070082Y1571447D2*
X3068181Y1575249D1*
X3064334Y1579096D1*
X3060531Y1580997D1*
X3052882D1*
X3049035Y1579096D1*
X3045233Y1575249D1*
X3043287Y1571447D1*
X3041386Y1565698D1*
Y1556104D1*
X3043287Y1550400D1*
X3045233Y1546553D1*
X3049035Y1542751D1*
X3052882Y1540805D1*
X3060531D1*
X3064334Y1542751D1*
X3068181Y1546553D1*
X3070082Y1550400D1*
X3082433Y1573304D2*
X3086280Y1575249D1*
X3092028Y1580953D1*
Y1540805D1*
X3115875Y1580953D2*
X3110127Y1579052D1*
X3106281Y1573304D1*
X3104379Y1563753D1*
Y1558005D1*
X3106281Y1548454D1*
X3110127Y1542706D1*
X3115875Y1540805D1*
X3119678D1*
X3125426Y1542706D1*
X3129229Y1548454D1*
X3131174Y1558005D1*
Y1563753D1*
X3129229Y1573304D1*
X3125426Y1579052D1*
X3119678Y1580953D1*
X3115875D1*
X3129229Y1573304D2*
X3106281Y1548454D1*
X3166473Y1580953D2*
X3147372D1*
X3145471Y1563753D1*
X3147372Y1565654D1*
X3153120Y1567600D1*
X3158824D1*
X3164572Y1565654D1*
X3168419Y1561852D1*
X3170320Y1556104D1*
Y1552301D1*
X3168419Y1546553D1*
X3164572Y1542706D1*
X3158824Y1540805D1*
X3153120D1*
X3147372Y1542706D1*
X3145471Y1544652D1*
X3143525Y1548454D1*
X3168699Y1069153D2*
X3166798Y1072955D1*
X3162951Y1076802D1*
X3159148Y1078703D1*
X3151499D1*
X3147652Y1076802D1*
X3143850Y1072955D1*
X3141904Y1069153D1*
X3140003Y1063405D1*
Y1053810D1*
X3141904Y1048106D1*
X3143850Y1044259D1*
X3147652Y1040457D1*
X3151499Y1038511D1*
X3159148D1*
X3162951Y1040457D1*
X3166798Y1044259D1*
X3168699Y1048106D1*
X3181050Y1071010D2*
X3184897Y1072955D1*
X3190645Y1078659D1*
Y1038511D1*
X3214493Y1078659D2*
X3208745Y1076758D1*
X3204898Y1071010D1*
X3202997Y1061459D1*
Y1055711D1*
X3204898Y1046160D1*
X3208745Y1040412D1*
X3214493Y1038511D1*
X3218295D1*
X3224043Y1040412D1*
X3227846Y1046160D1*
X3229791Y1055711D1*
Y1061459D1*
X3227846Y1071010D1*
X3224043Y1076758D1*
X3218295Y1078659D1*
X3214493D1*
X3227846Y1071010D2*
X3204898Y1046160D1*
X3265090Y1072955D2*
X3263189Y1076758D1*
X3257441Y1078659D1*
X3253639D1*
X3247891Y1076758D1*
X3244044Y1071010D1*
X3242143Y1061459D1*
Y1051908D1*
X3244044Y1044259D1*
X3247891Y1040412D1*
X3253639Y1038511D1*
X3255540D1*
X3261244Y1040412D1*
X3265090Y1044259D1*
X3266992Y1050007D1*
Y1051908D1*
X3265090Y1057656D1*
X3261244Y1061459D1*
X3255540Y1063360D1*
X3253639D1*
X3247891Y1061459D1*
X3244044Y1057656D1*
X3242143Y1051908D1*
X2042828Y3763791D2*
X2039025Y3761889D1*
X2035178Y3758043D1*
X2033277Y3754240D1*
Y3746591D1*
X2035178Y3742744D1*
X2039025Y3738941D1*
X2042828Y3736996D1*
X2048576Y3735095D1*
X2058170D1*
X2063874Y3736996D1*
X2067721Y3738941D1*
X2071523Y3742744D1*
X2073469Y3746591D1*
Y3754240D1*
X2071524Y3758043D1*
X2067721Y3761889D1*
X2063874Y3763791D1*
X2042872Y3778087D2*
X2040971D1*
X2037124Y3779989D1*
X2035222Y3781890D1*
X2033321Y3785737D1*
Y3793386D1*
X2035222Y3797189D1*
X2037124Y3799090D1*
X2040971Y3801035D1*
X2044773D1*
X2048620Y3799090D1*
X2054324Y3795287D1*
X2073469Y3776142D1*
Y3802937D1*
X2033321Y3826784D2*
X2035222Y3821036D1*
X2040971Y3817189D1*
X2050521Y3815288D1*
X2056269D1*
X2065820Y3817189D1*
X2071568Y3821036D1*
X2073469Y3826784D1*
Y3830587D1*
X2071568Y3836335D1*
X2065820Y3840137D1*
X2056269Y3842083D1*
X2050521D1*
X2040970Y3840137D1*
X2035222Y3836335D1*
X2033321Y3830587D1*
Y3826784D1*
X2040970Y3840137D2*
X2065820Y3817189D1*
X2040970Y3854434D2*
X2039025Y3858281D1*
X2033321Y3864029D1*
X2073469D1*
X1756036Y4255028D2*
X1754134Y4258830D1*
X1750288Y4262677D1*
X1746485Y4264578D1*
X1738836D1*
X1734989Y4262677D1*
X1731187Y4258830D1*
X1729241Y4255028D1*
X1727340Y4249280D1*
Y4239685D1*
X1729241Y4233981D1*
X1731187Y4230134D1*
X1734989Y4226332D1*
X1738836Y4224386D1*
X1746485D1*
X1750288Y4226332D1*
X1754134Y4230134D1*
X1756036Y4233981D1*
X1770333Y4254984D2*
Y4256885D1*
X1772234Y4260732D1*
X1774135Y4262633D1*
X1777982Y4264534D1*
X1785631D1*
X1789434Y4262633D1*
X1791335Y4260732D1*
X1793280Y4256885D1*
Y4253082D1*
X1791335Y4249236D1*
X1787532Y4243532D1*
X1768387Y4224386D1*
X1795182D1*
X1819029Y4264534D2*
X1813281Y4262633D1*
X1809434Y4256885D1*
X1807533Y4247334D1*
Y4241586D1*
X1809434Y4232036D1*
X1813281Y4226288D1*
X1819029Y4224386D1*
X1822832D1*
X1828580Y4226288D1*
X1832382Y4232036D1*
X1834328Y4241586D1*
Y4247334D1*
X1832382Y4256885D1*
X1828580Y4262633D1*
X1822832Y4264534D1*
X1819029D1*
X1832382Y4256885D2*
X1809434Y4232036D1*
X1848625Y4254984D2*
Y4256885D1*
X1850526Y4260732D1*
X1852427Y4262633D1*
X1856274Y4264534D1*
X1863923D1*
X1867726Y4262633D1*
X1869627Y4260732D1*
X1871573Y4256885D1*
Y4253082D1*
X1869627Y4249236D1*
X1865825Y4243532D1*
X1846679Y4224386D1*
X1873474D1*
X2411026Y4164424D2*
X2407223Y4162523D1*
X2403376Y4158676D1*
X2401475Y4154874D1*
Y4147224D1*
X2403376Y4143378D1*
X2407223Y4139575D1*
X2411026Y4137630D1*
X2416774Y4135728D1*
X2426368D1*
X2432072Y4137630D1*
X2435919Y4139575D1*
X2439722Y4143378D1*
X2441667Y4147224D1*
Y4154874D1*
X2439722Y4158676D1*
X2435919Y4162523D1*
X2432072Y4164424D1*
X2411070Y4178721D2*
X2409169D1*
X2405322Y4180622D1*
X2403421Y4182524D1*
X2401519Y4186370D1*
Y4194020D1*
X2403421Y4197822D1*
X2405322Y4199724D1*
X2409169Y4201669D1*
X2412971D1*
X2416818Y4199723D1*
X2422522Y4195921D1*
X2441667Y4176776D1*
Y4203570D1*
X2401519Y4227418D2*
X2403421Y4221670D1*
X2409169Y4217823D1*
X2418719Y4215922D1*
X2424467D1*
X2434018Y4217823D1*
X2439766Y4221670D1*
X2441667Y4227418D1*
Y4231220D1*
X2439766Y4236968D1*
X2434018Y4240771D1*
X2424467Y4242716D1*
X2418719D1*
X2409169Y4240771D1*
X2403421Y4236968D1*
X2401519Y4231220D1*
Y4227418D1*
X2409169Y4240771D2*
X2434018Y4217823D1*
X2441667Y4262717D2*
X2401519Y4281862D1*
Y4255068D1*
X2483149Y1173196D2*
X2479347Y1171295D1*
X2475500Y1167448D1*
X2473598Y1163646D1*
Y1155996D1*
X2475500Y1152149D1*
X2479346Y1148347D1*
X2483149Y1146401D1*
X2488897Y1144500D1*
X2498492D1*
X2504196Y1146401D1*
X2508042Y1148347D1*
X2511845Y1152149D1*
X2513791Y1155996D1*
Y1163645D1*
X2511845Y1167448D1*
X2508042Y1171295D1*
X2504196Y1173196D1*
X2473643Y1189394D2*
Y1210397D1*
X2488941Y1198945D1*
Y1204693D1*
X2490843Y1208495D1*
X2492744Y1210397D1*
X2498492Y1212342D1*
X2502294D1*
X2508042Y1210397D1*
X2511889Y1206594D1*
X2513790Y1200846D1*
Y1195098D1*
X2511889Y1189394D1*
X2509944Y1187493D1*
X2506141Y1185547D1*
X2473643Y1236190D2*
X2475544Y1230442D1*
X2481292Y1226595D1*
X2490843Y1224693D1*
X2496591D1*
X2506141Y1226595D1*
X2511889Y1230442D1*
X2513790Y1236190D1*
Y1239992D1*
X2511889Y1245740D1*
X2506141Y1249543D1*
X2496591Y1251488D1*
X2490843D1*
X2481292Y1249543D1*
X2475544Y1245740D1*
X2473643Y1239992D1*
Y1236190D1*
X2481292Y1249543D2*
X2506141Y1226595D1*
X2481292Y1263840D2*
X2479347Y1267686D1*
X2473643Y1273434D1*
X2513790D1*
X2626170Y1186091D2*
X2622368Y1184190D1*
X2618521Y1180343D1*
X2616619Y1176540D1*
Y1168891D1*
X2618521Y1165044D1*
X2622367Y1161242D1*
X2626170Y1159296D1*
X2631918Y1157395D1*
X2641513D1*
X2647217Y1159296D1*
X2651063Y1161242D1*
X2654866Y1165044D1*
X2656812Y1168891D1*
Y1176540D1*
X2654866Y1180343D1*
X2651063Y1184190D1*
X2647217Y1186091D1*
X2616664Y1202289D2*
Y1223291D1*
X2631962Y1211840D1*
Y1217588D1*
X2633864Y1221390D1*
X2635765Y1223291D1*
X2641513Y1225237D1*
X2645315D1*
X2651063Y1223291D1*
X2654910Y1219489D1*
X2656811Y1213741D1*
Y1207993D1*
X2654910Y1202289D1*
X2652965Y1200388D1*
X2649162Y1198442D1*
X2616664Y1249084D2*
X2618565Y1243336D1*
X2624313Y1239490D1*
X2633864Y1237588D1*
X2639612D1*
X2649162Y1239490D1*
X2654910Y1243336D1*
X2656811Y1249084D1*
Y1252887D1*
X2654910Y1258635D1*
X2649162Y1262437D1*
X2639612Y1264383D1*
X2633864D1*
X2624313Y1262437D1*
X2618565Y1258635D1*
X2616664Y1252887D1*
Y1249084D1*
X2624313Y1262437D2*
X2649162Y1239490D1*
X2626214Y1278680D2*
X2624313D1*
X2620466Y1280581D1*
X2618565Y1282482D1*
X2616664Y1286329D1*
Y1293978D1*
X2618565Y1297781D1*
X2620466Y1299682D1*
X2624313Y1301628D1*
X2628116D1*
X2631962Y1299682D1*
X2637666Y1295880D1*
X2656811Y1276734D1*
Y1303529D1*
X2110971Y1253532D2*
X2107168Y1251631D1*
X2103321Y1247784D1*
X2101420Y1243981D1*
Y1236332D1*
X2103321Y1232485D1*
X2107168Y1228683D1*
X2110971Y1226737D1*
X2116719Y1224836D1*
X2126313D1*
X2132017Y1226737D1*
X2135864Y1228683D1*
X2139667Y1232485D1*
X2141612Y1236332D1*
Y1243981D1*
X2139667Y1247784D1*
X2135864Y1251631D1*
X2132017Y1253532D1*
X2101464Y1269730D2*
Y1290732D1*
X2116763Y1279281D1*
Y1285029D1*
X2118664Y1288831D1*
X2120565Y1290732D1*
X2126313Y1292678D1*
X2130116D1*
X2135864Y1290732D1*
X2139711Y1286930D1*
X2141612Y1281182D1*
Y1275434D1*
X2139711Y1269730D1*
X2137765Y1267829D1*
X2133963Y1265883D1*
X2101464Y1316525D2*
X2103366Y1310777D1*
X2109114Y1306931D1*
X2118664Y1305029D1*
X2124412D1*
X2133963Y1306931D1*
X2139711Y1310777D1*
X2141612Y1316525D1*
Y1320328D1*
X2139711Y1326076D1*
X2133963Y1329878D1*
X2124412Y1331824D1*
X2118664D1*
X2109114Y1329878D1*
X2103366Y1326076D1*
X2101464Y1320328D1*
Y1316525D1*
X2109114Y1329878D2*
X2133963Y1306931D1*
X2101464Y1348022D2*
Y1369024D1*
X2116763Y1357573D1*
Y1363321D1*
X2118664Y1367123D1*
X2120565Y1369024D1*
X2126313Y1370970D1*
X2130116D1*
X2135864Y1369024D1*
X2139711Y1365222D1*
X2141612Y1359474D1*
Y1353726D1*
X2139711Y1348022D1*
X2137765Y1346121D1*
X2133963Y1344175D1*
X2664292Y768259D2*
X2662390Y772061D1*
X2658544Y775908D1*
X2654741Y777809D1*
X2647092D1*
X2643245Y775908D1*
X2639442Y772061D1*
X2637497Y768259D1*
X2635596Y762511D1*
Y752916D1*
X2637497Y747212D1*
X2639442Y743365D1*
X2643245Y739563D1*
X2647092Y737617D1*
X2654741D1*
X2658544Y739563D1*
X2662390Y743365D1*
X2664292Y747212D1*
X2680490Y777765D2*
X2701492D1*
X2690040Y762467D1*
X2695788D1*
X2699591Y760565D1*
X2701492Y758664D1*
X2703438Y752916D1*
Y749113D1*
X2701492Y743365D1*
X2697690Y739519D1*
X2691942Y737617D1*
X2686194D1*
X2680490Y739519D1*
X2678588Y741464D1*
X2676643Y745267D1*
X2727285Y777765D2*
X2721537Y775864D1*
X2717690Y770116D1*
X2715789Y760565D1*
Y754817D1*
X2717690Y745267D1*
X2721537Y739519D1*
X2727285Y737617D1*
X2731088D1*
X2736836Y739519D1*
X2740638Y745267D1*
X2742584Y754817D1*
Y760565D1*
X2740638Y770116D1*
X2736836Y775864D1*
X2731088Y777765D1*
X2727285D1*
X2740638Y770116D2*
X2717690Y745267D1*
X2777883Y777765D2*
X2758782D1*
X2756881Y760565D1*
X2758782Y762467D1*
X2764530Y764412D1*
X2770234D1*
X2775982Y762467D1*
X2779829Y758664D1*
X2781730Y752916D1*
Y749113D1*
X2779829Y743365D1*
X2775982Y739519D1*
X2770234Y737617D1*
X2764530D1*
X2758782Y739519D1*
X2756881Y741464D1*
X2754935Y745267D1*
X617820Y2963645D2*
X592971D1*
Y2923453D1*
X617820D1*
X592971Y2944499D2*
X608269D1*
X630171Y2950247D2*
X651218Y2923453D1*
Y2950247D2*
X630171Y2923453D1*
X686562Y2944499D2*
X682715Y2948346D1*
X678868Y2950247D1*
X673164D1*
X669317Y2948346D1*
X665515Y2944499D1*
X663569Y2938751D1*
Y2934949D1*
X665515Y2929201D1*
X669317Y2925398D1*
X673164Y2923453D1*
X678868D1*
X682715Y2925398D1*
X686562Y2929201D1*
X698913Y2963645D2*
X700814Y2961743D1*
X702760Y2963645D1*
X700814Y2965590D1*
X698913Y2963645D1*
X700814Y2950247D2*
Y2923453D1*
X720859Y2963645D2*
Y2931102D1*
X722760Y2925398D1*
X726607Y2923453D1*
X730410D1*
X715111Y2950247D2*
X728508D1*
X742761Y2938751D2*
X765709D1*
Y2942598D1*
X763808Y2946445D1*
X761906Y2948346D1*
X758060Y2950247D1*
X752312D1*
X748509Y2948346D1*
X744662Y2944499D1*
X742761Y2938751D1*
Y2934949D1*
X744662Y2929201D1*
X748509Y2925398D1*
X752312Y2923453D1*
X758060D1*
X761906Y2925398D1*
X765709Y2929201D1*
X3160260Y685819D2*
Y645627D1*
X3183208D1*
X3195559Y678125D2*
X3199406Y680071D1*
X3205154Y685774D1*
Y645627D1*
X3229001Y685774D2*
X3223253Y683873D1*
X3219407Y678125D1*
X3217505Y668575D1*
Y662826D1*
X3219407Y653276D1*
X3223253Y647528D1*
X3229001Y645627D1*
X3232804D1*
X3238552Y647528D1*
X3242355Y653276D1*
X3244300Y662826D1*
Y668575D1*
X3242355Y678125D1*
X3238552Y683873D1*
X3232804Y685774D1*
X3229001D1*
X3242355Y678125D2*
X3219407Y653276D1*
X3268148Y685774D2*
X3262399Y683873D1*
X3258553Y678125D1*
X3256651Y668575D1*
Y662826D1*
X3258553Y653276D1*
X3262399Y647528D1*
X3268148Y645627D1*
X3271950D1*
X3277698Y647528D1*
X3281501Y653276D1*
X3283446Y662826D1*
Y668575D1*
X3281501Y678125D1*
X3277698Y683873D1*
X3271950Y685774D1*
X3268148D1*
X3281501Y678125D2*
X3258553Y653276D1*
X2034386Y1039662D2*
X2074578D1*
Y1062609D1*
X2034430Y1078808D2*
Y1099810D1*
X2049729Y1088358D1*
Y1094106D1*
X2051630Y1097909D1*
X2053532Y1099810D1*
X2059280Y1101755D1*
X2063082D1*
X2068830Y1099810D1*
X2072677Y1096007D1*
X2074578Y1090259D1*
Y1084511D1*
X2072677Y1078808D1*
X2070731Y1076906D1*
X2066929Y1074961D1*
X2034430Y1125603D2*
X2036332Y1119855D1*
X2042080Y1116008D1*
X2051630Y1114107D1*
X2057378D1*
X2066929Y1116008D1*
X2072677Y1119855D1*
X2074578Y1125603D1*
Y1129405D1*
X2072677Y1135153D1*
X2066929Y1138956D1*
X2057378Y1140902D1*
X2051630D1*
X2042080Y1138956D1*
X2036332Y1135154D1*
X2034430Y1129405D1*
Y1125603D1*
X2042080Y1138956D2*
X2066929Y1116008D1*
X2042080Y1153253D2*
X2040134Y1157100D1*
X2034430Y1162848D1*
X2074578D1*
X667293Y2386223D2*
Y2426415D1*
X651994Y2386223D1*
X636696Y2426415D1*
Y2386223D1*
X679644Y2426415D2*
X681546Y2424514D1*
X683491Y2426415D1*
X681546Y2428361D1*
X679644Y2426415D1*
X681546Y2413018D2*
Y2386223D1*
X718835Y2407270D2*
X714988Y2411116D1*
X711141Y2413018D1*
X705437D1*
X701590Y2411116D1*
X697788Y2407270D1*
X695842Y2401522D1*
Y2397719D1*
X697788Y2391971D1*
X701590Y2388169D1*
X705437Y2386223D1*
X711141D1*
X714988Y2388169D1*
X718835Y2391971D1*
X1522744Y1555646D2*
X1518942Y1553789D1*
X1515095Y1549942D1*
X1513194Y1546095D1*
X1511248Y1540347D1*
Y1530797D1*
X1513194Y1525049D1*
X1515095Y1521246D1*
X1518942Y1517400D1*
X1522744Y1515498D1*
X1530394D1*
X1534240Y1517400D1*
X1538043Y1521246D1*
X1539944Y1525049D1*
X1541890Y1530797D1*
Y1540347D1*
X1539944Y1546095D1*
X1538043Y1549942D1*
X1534240Y1553789D1*
X1530394Y1555646D1*
X1522744D1*
X1528492Y1523148D2*
X1539944Y1511651D1*
X1554241Y1547953D2*
X1558088Y1549898D1*
X1563836Y1555602D1*
Y1515454D1*
X3767577Y1010057D2*
X3769435Y1006254D1*
X3773281Y1002407D1*
X3777128Y1000506D1*
X3782876Y998560D1*
X3792427D1*
X3798175Y1000506D1*
X3801977Y1002407D1*
X3805824Y1006254D1*
X3807725Y1010056D1*
Y1017706D1*
X3805824Y1021552D1*
X3801977Y1025355D1*
X3798175Y1027256D1*
X3792427Y1029202D1*
X3782876D1*
X3777128Y1027256D1*
X3773281Y1025355D1*
X3769435Y1021553D1*
X3767577Y1017706D1*
Y1010057D1*
X3800076Y1015805D2*
X3811572Y1027256D1*
X3775271Y1041553D2*
X3773326Y1045400D1*
X3767622Y1051148D1*
X3807769D1*
X3767622Y1074995D2*
X3769523Y1069247D1*
X3775271Y1065401D1*
X3784822Y1063499D1*
X3790570D1*
X3800120Y1065401D1*
X3805868Y1069247D1*
X3807769Y1074995D1*
Y1078798D1*
X3805868Y1084546D1*
X3800120Y1088349D1*
X3790570Y1090294D1*
X3784822D1*
X3775271Y1088349D1*
X3769523Y1084546D1*
X3767622Y1078798D1*
Y1074995D1*
X3775271Y1088349D2*
X3800120Y1065401D1*
X3775271Y1102645D2*
X3773326Y1106492D1*
X3767622Y1112240D1*
X3807769D1*
X3315550Y995825D2*
X3317407Y992023D1*
X3321254Y988176D1*
X3325101Y986275D1*
X3330849Y984329D1*
X3340399D1*
X3346147Y986275D1*
X3349950Y988176D1*
X3353797Y992023D1*
X3355698Y995825D1*
Y1003475D1*
X3353797Y1007321D1*
X3349950Y1011124D1*
X3346147Y1013025D1*
X3340399Y1014971D1*
X3330849D1*
X3325101Y1013025D1*
X3321254Y1011124D1*
X3317407Y1007321D1*
X3315550Y1003475D1*
Y995825D1*
X3348049Y1001573D2*
X3359545Y1013025D1*
X3323244Y1027322D2*
X3321298Y1031169D1*
X3315594Y1036917D1*
X3355742D1*
X3315594Y1060764D2*
X3317496Y1055016D1*
X3323244Y1051169D1*
X3332794Y1049268D1*
X3338542D1*
X3348093Y1051169D1*
X3353841Y1055016D1*
X3355742Y1060764D1*
Y1064567D1*
X3353841Y1070315D1*
X3348093Y1074117D1*
X3338542Y1076063D1*
X3332794D1*
X3323244Y1074117D1*
X3317496Y1070315D1*
X3315594Y1064567D1*
Y1060764D1*
X3323244Y1074117D2*
X3348093Y1051169D1*
X3325145Y1090360D2*
X3323244D1*
X3319397Y1092261D1*
X3317496Y1094162D1*
X3315594Y1098009D1*
Y1105658D1*
X3317496Y1109461D1*
X3319397Y1111362D1*
X3323244Y1113308D1*
X3327046D1*
X3330893Y1111362D1*
X3336597Y1107560D1*
X3355742Y1088414D1*
Y1115209D1*
X1530341Y1312058D2*
X1547541D1*
X1553289Y1314003D1*
X1555234Y1315905D1*
X1557136Y1319707D1*
Y1323554D1*
X1555234Y1327356D1*
X1553289Y1329302D1*
X1547541Y1331203D1*
X1530341D1*
Y1291011D1*
X1543738Y1312058D2*
X1557136Y1291011D1*
X1569487Y1323510D2*
X1573334Y1325455D1*
X1579082Y1331159D1*
Y1291011D1*
X1292266Y1326819D2*
X1309466D1*
X1315214Y1328764D1*
X1317159Y1330666D1*
X1319061Y1334468D1*
Y1338315D1*
X1317159Y1342118D1*
X1315214Y1344063D1*
X1309466Y1345964D1*
X1292266D1*
Y1305772D1*
X1305663Y1326819D2*
X1319061Y1305772D1*
X1333357Y1336369D2*
Y1338271D1*
X1335259Y1342118D1*
X1337160Y1344019D1*
X1341007Y1345920D1*
X1348656D1*
X1352459Y1344019D1*
X1354360Y1342118D1*
X1356305Y1338271D1*
Y1334468D1*
X1354360Y1330621D1*
X1350557Y1324918D1*
X1331412Y1305772D1*
X1358207D1*
X1283747Y1578026D2*
X1300947D1*
X1306695Y1579972D1*
X1308641Y1581873D1*
X1310542Y1585676D1*
Y1589522D1*
X1308641Y1593325D1*
X1306695Y1595270D1*
X1300947Y1597172D1*
X1283747D1*
Y1556980D1*
X1297145Y1578026D2*
X1310542Y1556980D1*
X1326740Y1597127D2*
X1347743D1*
X1336291Y1581829D1*
X1342039D1*
X1345841Y1579928D1*
X1347743Y1578026D1*
X1349688Y1572278D1*
Y1568476D1*
X1347743Y1562728D1*
X1343940Y1558881D1*
X1338192Y1556980D1*
X1332444D1*
X1326740Y1558881D1*
X1324839Y1560826D1*
X1322894Y1564629D1*
X3624332Y3538475D2*
Y3555674D1*
X3622387Y3561423D1*
X3620485Y3563368D1*
X3616683Y3565269D1*
X3612836D1*
X3609033Y3563368D1*
X3607088Y3561423D1*
X3605187Y3555675D1*
Y3538475D1*
X3645379D1*
X3624332Y3551872D2*
X3645379Y3565269D1*
Y3585270D2*
X3605231Y3604415D1*
Y3577621D1*
X1759147Y3363359D2*
Y3380559D1*
X1757202Y3386307D1*
X1755300Y3388252D1*
X1751498Y3390154D1*
X1747651D1*
X1743848Y3388252D1*
X1741903Y3386307D1*
X1740002Y3380559D1*
Y3363359D1*
X1780194D1*
X1759147Y3376756D2*
X1780194Y3390154D1*
X1740046Y3412056D2*
X1741947Y3406352D1*
X1745750Y3404406D1*
X1749596D1*
X1753399Y3406352D1*
X1755344Y3410154D1*
X1757246Y3417804D1*
X1759147Y3423552D1*
X1762994Y3427354D1*
X1766796Y3429255D1*
X1772544D1*
X1776347Y3427354D1*
X1778292Y3425453D1*
X1780194Y3419705D1*
Y3412055D1*
X1778292Y3406352D1*
X1776347Y3404406D1*
X1772544Y3402505D1*
X1766796D1*
X1762994Y3404406D1*
X1759147Y3408253D1*
X1757246Y3413957D1*
X1755344Y3421606D1*
X1753399Y3425453D1*
X1749596Y3427354D1*
X1745750D1*
X1741947Y3425453D1*
X1740046Y3419705D1*
Y3412056D1*
X1897827Y3361599D2*
Y3378798D1*
X1895881Y3384546D1*
X1893980Y3386492D1*
X1890178Y3388393D1*
X1886331D1*
X1882528Y3386492D1*
X1880583Y3384546D1*
X1878681Y3378798D1*
Y3361599D1*
X1918873D1*
X1897827Y3374996D2*
X1918873Y3388393D1*
X1892079Y3425638D2*
X1897827Y3423692D1*
X1901674Y3419890D1*
X1903575Y3414142D1*
Y3412241D1*
X1901674Y3406493D1*
X1897827Y3402690D1*
X1892079Y3400745D1*
X1890178D1*
X1884429Y3402690D1*
X1880627Y3406493D1*
X1878726Y3412241D1*
Y3414142D1*
X1880627Y3419890D1*
X1884429Y3423692D1*
X1892079Y3425638D1*
X1901674D1*
X1911224Y3423692D1*
X1916972Y3419890D1*
X1918873Y3414142D1*
Y3410339D1*
X1916972Y3404591D1*
X1913125Y3402690D1*
X2045566Y3355012D2*
Y3372212D1*
X2043620Y3377960D1*
X2041719Y3379905D1*
X2037916Y3381807D1*
X2034070D1*
X2030267Y3379905D1*
X2028322Y3377960D1*
X2026420Y3372212D1*
Y3355012D1*
X2066612D1*
X2045566Y3368409D2*
X2066612Y3381807D1*
X2034114Y3394158D2*
X2032168Y3398005D1*
X2026465Y3403753D1*
X2066612D1*
X2026465Y3427600D2*
X2028366Y3421852D1*
X2034114Y3418005D1*
X2043664Y3416104D1*
X2049412D1*
X2058963Y3418005D1*
X2064711Y3421852D1*
X2066612Y3427600D1*
Y3431403D1*
X2064711Y3437151D1*
X2058963Y3440953D1*
X2049412Y3442899D1*
X2043664D1*
X2034114Y3440953D1*
X2028366Y3437151D1*
X2026465Y3431403D1*
Y3427600D1*
X2034114Y3440953D2*
X2058963Y3418005D1*
X3896804Y1039202D2*
X3914004D1*
X3919752Y1041148D1*
X3921697Y1043049D1*
X3923598Y1046851D1*
Y1050698D1*
X3921697Y1054501D1*
X3919752Y1056446D1*
X3914004Y1058347D1*
X3896804D1*
Y1018155D1*
X3910201Y1039202D2*
X3923598Y1018155D1*
X3935950Y1050654D2*
X3939797Y1052599D1*
X3945545Y1058303D1*
Y1018155D1*
X3969392Y1058303D2*
X3963644Y1056402D1*
X3959797Y1050654D1*
X3957896Y1041103D1*
Y1035355D1*
X3959797Y1025805D1*
X3963644Y1020057D1*
X3969392Y1018155D1*
X3973195D1*
X3978943Y1020057D1*
X3982745Y1025805D1*
X3984691Y1035355D1*
Y1041103D1*
X3982745Y1050654D1*
X3978943Y1056402D1*
X3973195Y1058303D1*
X3969392D1*
X3982745Y1050654D2*
X3959797Y1025805D1*
X4008538Y1058303D2*
X4002790Y1056402D1*
X3998943Y1050654D1*
X3997042Y1041103D1*
Y1035355D1*
X3998943Y1025805D1*
X4002790Y1020057D1*
X4008538Y1018155D1*
X4012341D1*
X4018089Y1020057D1*
X4021891Y1025805D1*
X4023837Y1035355D1*
Y1041103D1*
X4021891Y1050654D1*
X4018089Y1056402D1*
X4012341Y1058303D1*
X4008538D1*
X4021891Y1050654D2*
X3998943Y1025805D1*
X4113359Y1041252D2*
X4130559D1*
X4136307Y1043197D1*
X4138252Y1045099D1*
X4140154Y1048901D1*
Y1052748D1*
X4138252Y1056551D1*
X4136307Y1058496D1*
X4130559Y1060397D1*
X4113359D1*
Y1020205D1*
X4126756Y1041252D2*
X4140154Y1020205D1*
X4152505Y1052704D2*
X4156352Y1054649D1*
X4162100Y1060353D1*
Y1020205D1*
X4185947Y1060353D2*
X4180199Y1058452D1*
X4176353Y1052704D1*
X4174451Y1043153D1*
Y1037405D1*
X4176353Y1027855D1*
X4180199Y1022107D1*
X4185947Y1020205D1*
X4189750D1*
X4195498Y1022107D1*
X4199300Y1027855D1*
X4201246Y1037405D1*
Y1043153D1*
X4199300Y1052704D1*
X4195498Y1058452D1*
X4189750Y1060353D1*
X4185947D1*
X4199300Y1052704D2*
X4176353Y1027855D1*
X4213597Y1052704D2*
X4217444Y1054649D1*
X4223192Y1060353D1*
Y1020205D1*
X3111150Y1219982D2*
X3128350D1*
X3134098Y1221927D1*
X3136043Y1223828D1*
X3137944Y1227631D1*
Y1231478D1*
X3136043Y1235280D1*
X3134098Y1237226D1*
X3128350Y1239127D1*
X3111150D1*
Y1198935D1*
X3124547Y1219982D2*
X3137944Y1198935D1*
X3150296Y1231433D2*
X3154142Y1233379D1*
X3159891Y1239083D1*
Y1198935D1*
X3183738Y1239083D2*
X3177990Y1237182D1*
X3174143Y1231433D1*
X3172242Y1221883D1*
Y1216135D1*
X3174143Y1206584D1*
X3177990Y1200836D1*
X3183738Y1198935D1*
X3187541D1*
X3193289Y1200836D1*
X3197091Y1206584D1*
X3199037Y1216135D1*
Y1221883D1*
X3197091Y1231433D1*
X3193289Y1237182D1*
X3187541Y1239083D1*
X3183738D1*
X3197091Y1231433D2*
X3174143Y1206584D1*
X3230533Y1198935D2*
Y1239083D1*
X3211388Y1212332D1*
X3240084D1*
X2890812Y1217196D2*
X2908011D1*
X2913759Y1219141D1*
X2915705Y1221042D1*
X2917606Y1224845D1*
Y1228692D1*
X2915705Y1232494D1*
X2913759Y1234440D1*
X2908011Y1236341D1*
X2890812D1*
Y1196149D1*
X2904209Y1217196D2*
X2917606Y1196149D1*
X2929958Y1228647D2*
X2933804Y1230593D1*
X2939552Y1236297D1*
Y1196149D1*
X2963400Y1236297D2*
X2957652Y1234395D1*
X2953805Y1228647D1*
X2951904Y1219097D1*
Y1213349D1*
X2953805Y1203798D1*
X2957652Y1198050D1*
X2963400Y1196149D1*
X2967202D1*
X2972950Y1198050D1*
X2976753Y1203798D1*
X2978699Y1213349D1*
Y1219097D1*
X2976753Y1228647D1*
X2972950Y1234395D1*
X2967202Y1236297D1*
X2963400D1*
X2976753Y1228647D2*
X2953805Y1203798D1*
X3013998Y1236297D2*
X2994897D1*
X2992995Y1219097D1*
X2994897Y1220998D1*
X3000645Y1222944D1*
X3006349D1*
X3012097Y1220998D1*
X3015943Y1217196D1*
X3017845Y1211448D1*
Y1207645D1*
X3015943Y1201897D1*
X3012097Y1198050D1*
X3006349Y1196149D1*
X3000645D1*
X2994897Y1198050D1*
X2992995Y1199996D1*
X2991050Y1203798D1*
X3389247Y1306282D2*
X3406447D1*
X3412195Y1308228D1*
X3414140Y1310129D1*
X3416042Y1313931D1*
Y1317778D1*
X3414140Y1321581D1*
X3412195Y1323526D1*
X3406447Y1325428D1*
X3389247D1*
Y1285236D1*
X3402644Y1306282D2*
X3416042Y1285236D1*
X3428393Y1317734D2*
X3432240Y1319680D1*
X3437988Y1325383D1*
Y1285236D1*
X3461835Y1325383D2*
X3456087Y1323482D1*
X3452241Y1317734D1*
X3450339Y1308183D1*
Y1302435D1*
X3452241Y1292885D1*
X3456087Y1287137D1*
X3461835Y1285236D1*
X3465638D1*
X3471386Y1287137D1*
X3475189Y1292885D1*
X3477134Y1302435D1*
Y1308183D1*
X3475189Y1317734D1*
X3471386Y1323482D1*
X3465638Y1325383D1*
X3461835D1*
X3475189Y1317734D2*
X3452241Y1292885D1*
X3499036Y1325383D2*
X3493332Y1323482D1*
X3491387Y1319680D1*
Y1315833D1*
X3493332Y1312030D1*
X3497135Y1310085D1*
X3504784Y1308183D1*
X3510532Y1306282D1*
X3514335Y1302435D1*
X3516236Y1298633D1*
Y1292885D1*
X3514335Y1289082D1*
X3512433Y1287137D1*
X3506685Y1285236D1*
X3499036D1*
X3493332Y1287137D1*
X3491387Y1289082D1*
X3489485Y1292885D1*
Y1298633D1*
X3491387Y1302435D1*
X3495233Y1306282D1*
X3500937Y1308183D1*
X3508587Y1310085D1*
X3512433Y1312030D1*
X3514335Y1315833D1*
Y1319680D1*
X3512433Y1323482D1*
X3506685Y1325383D1*
X3499036D1*
X3375614Y849794D2*
X3392814D1*
X3398562Y851739D1*
X3400507Y853641D1*
X3402408Y857443D1*
Y861290D1*
X3400507Y865093D1*
X3398562Y867038D1*
X3392814Y868939D1*
X3375614D1*
Y828747D1*
X3389011Y849794D2*
X3402408Y828747D1*
X3414760Y861246D2*
X3418606Y863191D1*
X3424354Y868895D1*
Y828747D1*
X3436706Y861246D2*
X3440553Y863191D1*
X3446301Y868895D1*
Y828747D1*
X3470148Y868895D2*
X3464400Y866994D1*
X3460553Y861246D1*
X3458652Y851695D1*
Y845947D1*
X3460553Y836397D1*
X3464400Y830649D1*
X3470148Y828747D1*
X3473951D1*
X3479699Y830649D1*
X3483501Y836397D1*
X3485447Y845947D1*
Y851695D1*
X3483501Y861246D1*
X3479699Y866994D1*
X3473951Y868895D1*
X3470148D1*
X3483501Y861246D2*
X3460553Y836397D1*
X1895719Y4090161D2*
Y4107361D1*
X1893774Y4113109D1*
X1891872Y4115054D1*
X1888070Y4116955D1*
X1884223D1*
X1880421Y4115054D1*
X1878475Y4113109D1*
X1876574Y4107361D1*
Y4090161D1*
X1916766D1*
X1895719Y4103558D2*
X1916766Y4116955D1*
X1886169Y4131252D2*
X1884267D1*
X1880421Y4133154D1*
X1878519Y4135055D1*
X1876618Y4138902D1*
Y4146551D1*
X1878519Y4150353D1*
X1880421Y4152255D1*
X1884267Y4154200D1*
X1888070D1*
X1891917Y4152255D1*
X1897620Y4148452D1*
X1916766Y4129307D1*
Y4156101D1*
X1876618Y4179949D2*
X1878519Y4174201D1*
X1884267Y4170354D1*
X1893818Y4168453D1*
X1899566D1*
X1909117Y4170354D1*
X1914865Y4174201D1*
X1916766Y4179949D1*
Y4183751D1*
X1914865Y4189499D1*
X1909116Y4193302D1*
X1899566Y4195247D1*
X1893818D1*
X1884267Y4193302D1*
X1878519Y4189499D1*
X1876618Y4183751D1*
Y4179949D1*
X1884267Y4193302D2*
X1909117Y4170354D1*
X1884267Y4207599D2*
X1882322Y4211446D1*
X1876618Y4217194D1*
X1916766D1*
X2156841Y4081561D2*
Y4098761D1*
X2154895Y4104509D1*
X2152994Y4106454D1*
X2149192Y4108355D1*
X2145345D1*
X2141542Y4106454D1*
X2139597Y4104509D1*
X2137696Y4098761D1*
Y4081561D1*
X2177888D1*
X2156841Y4094958D2*
X2177888Y4108355D1*
X2147290Y4122652D2*
X2145389D1*
X2141542Y4124554D1*
X2139641Y4126455D1*
X2137740Y4130302D1*
Y4137951D1*
X2139641Y4141753D1*
X2141542Y4143655D1*
X2145389Y4145600D1*
X2149192D1*
X2153038Y4143655D1*
X2158742Y4139852D1*
X2177888Y4120707D1*
Y4147501D1*
X2137740Y4171349D2*
X2139641Y4165601D1*
X2145389Y4161754D1*
X2154940Y4159853D1*
X2160688D1*
X2170238Y4161754D1*
X2175986Y4165601D1*
X2177888Y4171349D1*
Y4175151D1*
X2175986Y4180900D1*
X2170238Y4184702D1*
X2160688Y4186648D1*
X2154940D1*
X2145389Y4184702D1*
X2139641Y4180900D1*
X2137740Y4175152D1*
Y4171349D1*
X2145389Y4184702D2*
X2170238Y4161754D1*
X2147290Y4200944D2*
X2145389D1*
X2141542Y4202846D1*
X2139641Y4204747D1*
X2137740Y4208594D1*
Y4216243D1*
X2139641Y4220046D1*
X2141542Y4221947D1*
X2145389Y4223892D1*
X2149192D1*
X2153038Y4221947D1*
X2158742Y4218144D1*
X2177888Y4198999D1*
Y4225794D1*
X1703335Y1401907D2*
X1720535D1*
X1726283Y1403852D1*
X1728229Y1405754D1*
X1730130Y1409556D1*
Y1413403D1*
X1728229Y1417205D1*
X1726283Y1419151D1*
X1720535Y1421052D1*
X1703335D1*
Y1380860D1*
X1716733Y1401907D2*
X1730130Y1380860D1*
X1746328Y1421008D2*
X1767330D1*
X1755879Y1405709D1*
X1761627D1*
X1765429Y1403808D1*
X1767330Y1401907D1*
X1769276Y1396159D1*
Y1392356D1*
X1767330Y1386608D1*
X1763528Y1382761D1*
X1757780Y1380860D1*
X1752032D1*
X1746328Y1382761D1*
X1744427Y1384707D1*
X1742481Y1388510D1*
X1793123Y1421008D2*
X1787375Y1419107D1*
X1783529Y1413359D1*
X1781627Y1403808D1*
Y1398060D1*
X1783529Y1388510D1*
X1787375Y1382761D1*
X1793123Y1380860D1*
X1796926D1*
X1802674Y1382761D1*
X1806477Y1388510D1*
X1808422Y1398060D1*
Y1403808D1*
X1806477Y1413359D1*
X1802674Y1419107D1*
X1796926Y1421008D1*
X1793123D1*
X1806477Y1413359D2*
X1783529Y1388510D1*
X1820773Y1413359D2*
X1824620Y1415304D1*
X1830368Y1421008D1*
Y1380860D1*
X1830166Y1005301D2*
Y1022501D1*
X1828221Y1028249D1*
X1826320Y1030194D1*
X1822517Y1032096D1*
X1818670D1*
X1814868Y1030194D1*
X1812922Y1028249D1*
X1811021Y1022501D1*
Y1005301D1*
X1851213D1*
X1830166Y1018698D2*
X1851213Y1032096D1*
X1811065Y1048294D2*
Y1069296D1*
X1826364Y1057844D1*
Y1063592D1*
X1828265Y1067395D1*
X1830166Y1069296D1*
X1835914Y1071242D1*
X1839717D1*
X1845465Y1069296D1*
X1849312Y1065494D1*
X1851213Y1059746D1*
Y1053998D1*
X1849312Y1048294D1*
X1847366Y1046392D1*
X1843564Y1044447D1*
X1811065Y1095089D2*
X1812967Y1089341D1*
X1818715Y1085494D1*
X1828265Y1083593D1*
X1834013D1*
X1843564Y1085494D1*
X1849312Y1089341D1*
X1851213Y1095089D1*
Y1098892D1*
X1849312Y1104640D1*
X1843564Y1108442D1*
X1834013Y1110388D1*
X1828265D1*
X1818715Y1108442D1*
X1812967Y1104640D1*
X1811065Y1098892D1*
Y1095089D1*
X1818715Y1108442D2*
X1843564Y1085494D1*
X1820616Y1124685D2*
X1818715D1*
X1814868Y1126586D1*
X1812967Y1128487D1*
X1811065Y1132334D1*
Y1139983D1*
X1812967Y1143786D1*
X1814868Y1145687D1*
X1818715Y1147632D1*
X1822517D1*
X1826364Y1145687D1*
X1832068Y1141884D1*
X1851213Y1122739D1*
Y1149534D1*
X2772721Y1028165D2*
X2789921D1*
X2795669Y1030111D1*
X2797614Y1032012D1*
X2799516Y1035815D1*
Y1039661D1*
X2797614Y1043464D1*
X2795669Y1045409D1*
X2789921Y1047311D1*
X2772721D1*
Y1007119D1*
X2786118Y1028165D2*
X2799516Y1007119D1*
X2815714Y1047267D2*
X2836716D1*
X2825264Y1031968D1*
X2831012D1*
X2834815Y1030067D1*
X2836716Y1028165D1*
X2838662Y1022417D1*
Y1018615D1*
X2836716Y1012867D1*
X2832914Y1009020D1*
X2827166Y1007119D1*
X2821417D1*
X2815714Y1009020D1*
X2813812Y1010965D1*
X2811867Y1014768D1*
X2862509Y1047267D2*
X2856761Y1045365D1*
X2852914Y1039617D1*
X2851013Y1030067D1*
Y1024319D1*
X2852914Y1014768D1*
X2856761Y1009020D1*
X2862509Y1007119D1*
X2866312D1*
X2872060Y1009020D1*
X2875862Y1014768D1*
X2877808Y1024319D1*
Y1030067D1*
X2875862Y1039617D1*
X2872060Y1045365D1*
X2866312Y1047267D1*
X2862509D1*
X2875862Y1039617D2*
X2852914Y1014768D1*
X2894006Y1047267D2*
X2915008D1*
X2903556Y1031968D1*
X2909304D1*
X2913107Y1030067D1*
X2915008Y1028165D1*
X2916954Y1022417D1*
Y1018615D1*
X2915008Y1012867D1*
X2911206Y1009020D1*
X2905458Y1007119D1*
X2899710D1*
X2894006Y1009020D1*
X2892105Y1010965D1*
X2890159Y1014768D1*
X568857Y3463883D2*
X586056D1*
X591804Y3465828D1*
X593750Y3467729D1*
X595651Y3471532D1*
Y3475379D1*
X593750Y3479181D1*
X591804Y3481127D1*
X586056Y3483028D1*
X568857D1*
Y3442836D1*
X582254Y3463883D2*
X595651Y3442836D1*
X608003Y3458135D2*
X630951D1*
Y3461981D1*
X629049Y3465828D1*
X627148Y3467729D1*
X623301Y3469631D1*
X617553D1*
X613751Y3467729D1*
X609904Y3463883D1*
X608003Y3458135D1*
Y3454332D1*
X609904Y3448584D1*
X613751Y3444781D1*
X617553Y3442836D1*
X623301D1*
X627148Y3444781D1*
X630951Y3448584D1*
X666294Y3463883D2*
X662447Y3467729D1*
X658601Y3469631D1*
X652897D1*
X649050Y3467729D1*
X645247Y3463883D1*
X643302Y3458135D1*
Y3454332D1*
X645247Y3448584D1*
X649050Y3444781D1*
X652897Y3442836D1*
X658601D1*
X662447Y3444781D1*
X666294Y3448584D1*
X678645Y3458135D2*
X701593D1*
Y3461981D1*
X699692Y3465828D1*
X697791Y3467729D1*
X693944Y3469631D1*
X688196D1*
X684393Y3467729D1*
X680547Y3463883D1*
X678645Y3458135D1*
Y3454332D1*
X680547Y3448584D1*
X684393Y3444781D1*
X688196Y3442836D1*
X693944D1*
X697791Y3444781D1*
X701593Y3448584D1*
X713945Y3483028D2*
X715846Y3481127D1*
X717792Y3483028D1*
X715846Y3484973D1*
X713945Y3483028D1*
X715846Y3469631D2*
Y3442836D1*
X730143Y3469631D2*
X741639Y3442836D1*
X753091Y3469631D1*
X765442Y3458135D2*
X788390D1*
Y3461981D1*
X786489Y3465828D1*
X784588Y3467729D1*
X780741Y3469631D1*
X774993D1*
X771190Y3467729D1*
X767344Y3463883D1*
X765442Y3458135D1*
Y3454332D1*
X767344Y3448584D1*
X771190Y3444781D1*
X774993Y3442836D1*
X780741D1*
X784588Y3444781D1*
X788390Y3448584D1*
X2059272Y981706D2*
Y953010D1*
X2061173Y947262D1*
X2065020Y943459D1*
X2070768Y941514D1*
X2074571D1*
X2080319Y943459D1*
X2084165Y947262D1*
X2086067Y953010D1*
Y981706D1*
X2117563Y941514D2*
Y981662D1*
X2098418Y954911D1*
X2127114D1*
X3444590Y3243240D2*
X3473285D1*
X3479034Y3245141D1*
X3482836Y3248988D1*
X3484782Y3254736D1*
Y3258538D1*
X3482836Y3264286D1*
X3479034Y3268133D1*
X3473286Y3270034D1*
X3444590D1*
X3444634Y3305334D2*
Y3286233D1*
X3461834Y3284331D1*
X3459932Y3286232D1*
X3457987Y3291981D1*
Y3297684D1*
X3459932Y3303432D1*
X3463735Y3307279D1*
X3469483Y3309180D1*
X3473286D1*
X3479034Y3307279D1*
X3482880Y3303432D1*
X3484782Y3297684D1*
Y3291980D1*
X3482880Y3286232D1*
X3480935Y3284331D1*
X3477132Y3282386D1*
X3555977Y3076782D2*
X3575122Y3116930D1*
X3548328D1*
X3606619Y3076782D2*
Y3116930D1*
X3587474Y3090179D1*
X3616170D1*
X3628521Y3116974D2*
Y3076782D1*
X3655316Y3116974D2*
Y3076782D1*
X3628521Y3097828D2*
X3655316D1*
X3696363Y3107423D2*
X3694462Y3111226D1*
X3690615Y3115072D1*
X3686813Y3116974D1*
X3679163D1*
X3675316Y3115072D1*
X3671514Y3111226D1*
X3669568Y3107423D1*
X3667667Y3101675D1*
Y3092080D1*
X3669568Y3086377D1*
X3671514Y3082530D1*
X3675316Y3078727D1*
X3679163Y3076782D1*
X3686813D1*
X3690615Y3078727D1*
X3694462Y3082530D1*
X3696363Y3086377D1*
X3708715Y3109280D2*
X3712561Y3111226D1*
X3718309Y3116930D1*
Y3076782D1*
X3732606Y3107379D2*
Y3109280D1*
X3734507Y3113127D1*
X3736409Y3115028D1*
X3740255Y3116930D1*
X3747905D1*
X3751707Y3115028D1*
X3753609Y3113127D1*
X3755554Y3109280D1*
Y3105478D1*
X3753609Y3101631D1*
X3749806Y3095927D1*
X3730661Y3076782D1*
X3757455D1*
X3792755Y3116930D2*
X3773654D1*
X3771752Y3099730D1*
X3773654Y3101631D1*
X3779402Y3103576D1*
X3785105D1*
X3790853Y3101631D1*
X3794700Y3097828D1*
X3796601Y3092080D1*
Y3088278D1*
X3794700Y3082530D1*
X3790853Y3078683D1*
X3785105Y3076782D1*
X3779402D1*
X3773654Y3078683D1*
X3771752Y3080628D1*
X3769807Y3084431D1*
X2116580Y3903062D2*
X2145276D1*
X2151024Y3904963D1*
X2154827Y3908810D1*
X2156772Y3914558D1*
Y3918360D1*
X2154827Y3924108D1*
X2151024Y3927955D1*
X2145276Y3929856D1*
X2116580D1*
X2122328Y3965155D2*
X2118526Y3963254D1*
X2116624Y3957506D1*
Y3953704D1*
X2118526Y3947956D1*
X2124274Y3944109D1*
X2133824Y3942208D1*
X2143375D1*
X2151024Y3944109D1*
X2154871Y3947956D1*
X2156772Y3953704D1*
Y3955605D1*
X2154871Y3961309D1*
X2151024Y3965155D1*
X2145276Y3967057D1*
X2143375D1*
X2137627Y3965155D1*
X2133824Y3961309D1*
X2131923Y3955605D1*
Y3953704D1*
X2133824Y3947956D1*
X2137627Y3944109D1*
X2143375Y3942208D1*
X2478247Y3946946D2*
X2497393Y3962245D1*
X2518439D1*
X2478247Y3977543D2*
X2497393Y3962245D1*
X2485941Y3989895D2*
X2483995Y3993742D1*
X2478292Y3999490D1*
X2518439D1*
X3942003Y3951750D2*
D79*
X3930496Y3981894D1*
X3919022Y3951750D1*
X3923333Y3961798D2*
X3937692D1*
X3951267Y3976124D2*
X3954152Y3977583D1*
X3958463Y3981861D1*
Y3951750D1*
X3954503Y3908001D2*
X3942996Y3938145D1*
X3931522Y3908001D1*
X3935833Y3918049D2*
X3950192D1*
X3965226Y3930949D2*
Y3932375D1*
X3966652Y3935260D1*
X3968078Y3936686D1*
X3970963Y3938112D1*
X3976700D1*
X3979552Y3936686D1*
X3980977Y3935260D1*
X3982437Y3932375D1*
Y3929523D1*
X3980977Y3926638D1*
X3978126Y3922360D1*
X3963767Y3908001D1*
X3983863D1*
X3537780Y4063144D2*
X3549254Y4033000D1*
X3560728Y4063144D1*
X3577155Y4053096D2*
X3574303Y4051670D1*
X3571418Y4048785D1*
X3569992Y4044474D1*
Y4041622D1*
X3571418Y4037311D1*
X3574303Y4034459D1*
X3577155Y4033000D1*
X3581466D1*
X3584351Y4034459D1*
X3587203Y4037311D1*
X3588662Y4041622D1*
Y4044474D1*
X3587203Y4048785D1*
X3584351Y4051670D1*
X3581466Y4053096D1*
X3577155D1*
X3597926Y4063144D2*
Y4033000D1*
X3607189D2*
X3627285Y4063111D1*
X3655219Y4063144D2*
X3636549D1*
Y4033000D1*
Y4048785D2*
X3648023D1*
X3681693Y4053096D2*
Y4033000D1*
Y4048785D2*
X3678841Y4051670D1*
X3675956Y4053096D1*
X3671678D1*
X3668793Y4051670D1*
X3665941Y4048785D1*
X3664482Y4044474D1*
Y4041622D1*
X3665941Y4037311D1*
X3668793Y4034459D1*
X3671678Y4033000D1*
X3675956D1*
X3678841Y4034459D1*
X3681693Y4037311D1*
X3706742Y4048785D2*
X3705316Y4051670D1*
X3701005Y4053096D1*
X3696694D1*
X3692383Y4051670D1*
X3690957Y4048785D1*
X3692383Y4045933D1*
X3695268Y4044474D1*
X3702431Y4043048D1*
X3705316Y4041622D1*
X3706742Y4038737D1*
Y4037311D1*
X3705316Y4034459D1*
X3701005Y4033000D1*
X3696694D1*
X3692383Y4034459D1*
X3690957Y4037311D1*
X3720316Y4063144D2*
Y4038737D1*
X3721742Y4034459D1*
X3724627Y4033000D1*
X3727479D1*
X3716005Y4053096D2*
X3726053D1*
X4153044Y3968483D2*
X4151618Y3971335D1*
X4148733Y3974220D1*
X4145881Y3975646D1*
X4140144D1*
X4137259Y3974220D1*
X4134407Y3971335D1*
X4132948Y3968483D1*
X4131522Y3964172D1*
Y3956976D1*
X4132948Y3952698D1*
X4134407Y3949813D1*
X4137259Y3946961D1*
X4140144Y3945502D1*
X4145881D1*
X4148733Y3946961D1*
X4151618Y3949813D1*
X4153044Y3952698D1*
Y3956976D1*
X4145881D1*
X3947076Y3710656D2*
X3949928Y3712081D1*
X3952813Y3714967D1*
X3954239Y3717818D1*
Y3723555D1*
X3952814Y3726440D1*
X3949928Y3729292D1*
X3947077Y3730751D1*
X3942766Y3732177D1*
X3935569D1*
X3931292Y3730751D1*
X3928406Y3729292D1*
X3925555Y3726440D1*
X3924095Y3723555D1*
Y3717818D1*
X3925555Y3714967D1*
X3928406Y3712081D1*
X3931292Y3710656D1*
X3935569D1*
Y3717818D1*
X3954205Y3654292D2*
Y3638541D1*
X3942731Y3647129D1*
Y3642818D1*
X3941305Y3639967D1*
X3939879Y3638541D1*
X3935568Y3637081D1*
X3932716D1*
X3928405Y3638541D1*
X3925520Y3641393D1*
X3924094Y3645704D1*
Y3650015D1*
X3925520Y3654292D1*
X3926979Y3655718D1*
X3929831Y3657177D1*
X3926979Y3626392D2*
X3925520Y3627818D1*
X3924094Y3626392D1*
X3925520Y3624933D1*
X3926979Y3626392D1*
X3954205Y3612784D2*
Y3597032D1*
X3942731Y3605621D1*
Y3601310D1*
X3941305Y3598458D1*
X3939879Y3597032D1*
X3935568Y3595573D1*
X3932716D1*
X3928405Y3597032D1*
X3925520Y3599884D1*
X3924094Y3604195D1*
Y3608506D1*
X3925520Y3612784D1*
X3926979Y3614210D1*
X3929831Y3615669D1*
X3864400Y3399584D2*
X3894544D1*
X3864400Y3411058D1*
X3894544Y3422532D1*
X3864400D1*
X3894544Y3381698D2*
X3893118Y3384583D1*
X3890233Y3387435D1*
X3887381Y3388894D1*
X3883070Y3390320D1*
X3875874D1*
X3871596Y3388894D1*
X3868711Y3387435D1*
X3865859Y3384583D1*
X3864400Y3381698D1*
Y3375961D1*
X3865859Y3373109D1*
X3868711Y3370224D1*
X3871596Y3368798D1*
X3875874Y3367372D1*
X3883070D1*
X3887381Y3368798D1*
X3890233Y3370224D1*
X3893118Y3373109D1*
X3894544Y3375961D1*
Y3381698D1*
X3890233Y3338013D2*
X3893118Y3340865D1*
X3894544Y3345176D1*
Y3350913D1*
X3893118Y3355224D1*
X3890233Y3358109D1*
X3887381D1*
X3884496Y3356650D1*
X3883070Y3355224D1*
X3881644Y3352372D1*
X3878759Y3343750D1*
X3877333Y3340865D1*
X3875874Y3339439D1*
X3873022Y3338013D1*
X3868711D1*
X3865859Y3340865D1*
X3864400Y3345176D1*
Y3350913D1*
X3865859Y3355224D1*
X3868711Y3358109D1*
X3894544Y3328749D2*
X3864400D1*
X3924487Y3530835D2*
X3954631D1*
X3924486Y3542309D1*
X3954631Y3553782D1*
X3924487D1*
X3954630Y3521571D2*
X3924487D1*
X3950319Y3492211D2*
X3953205Y3495063D1*
X3954630Y3499374D1*
Y3505111D1*
X3953205Y3509422D1*
X3950319Y3512307D1*
X3947468D1*
X3944582Y3510848D1*
X3943157Y3509422D1*
X3941731Y3506571D1*
X3938846Y3497948D1*
X3937420Y3495063D1*
X3935960Y3493637D1*
X3933109Y3492212D1*
X3928798D1*
X3925946Y3495063D1*
X3924487Y3499374D1*
Y3505111D1*
X3925946Y3509422D1*
X3928798Y3512308D1*
X3954631Y3474326D2*
X3953205Y3477211D1*
X3950319Y3480063D1*
X3947468Y3481522D1*
X3943157Y3482948D1*
X3935960D1*
X3931683Y3481522D1*
X3928798Y3480063D1*
X3925946Y3477211D1*
X3924487Y3474326D1*
Y3468589D1*
X3925946Y3465737D1*
X3928798Y3462852D1*
X3931683Y3461426D1*
X3935960Y3460000D1*
X3943157D1*
X3947468Y3461426D1*
X3950319Y3462852D1*
X3953205Y3465737D1*
X3954631Y3468589D1*
Y3474326D1*
X3882527Y3514264D2*
X3885379Y3515690D1*
X3888264Y3518575D1*
X3889690Y3521427D1*
Y3527164D1*
X3888264Y3530049D1*
X3885379Y3532901D1*
X3882527Y3534360D1*
X3878216Y3535786D1*
X3871020D1*
X3866742Y3534360D1*
X3863857Y3532901D1*
X3861005Y3530049D1*
X3859546Y3527164D1*
Y3521427D1*
X3861005Y3518575D1*
X3863857Y3515690D1*
X3866742Y3514264D1*
X3885379Y3484905D2*
X3888264Y3487757D1*
X3889690Y3492068D1*
Y3497805D1*
X3888264Y3502116D1*
X3885379Y3505001D1*
X3882527D1*
X3879642Y3503542D1*
X3878216Y3502116D1*
X3876790Y3499264D1*
X3873905Y3490642D1*
X3872479Y3487757D1*
X3871020Y3486331D1*
X3868168Y3484905D1*
X3863857D1*
X3861005Y3487757D1*
X3859546Y3492068D1*
Y3497805D1*
X3861005Y3502116D1*
X3863857Y3505001D1*
X3950319Y3401916D2*
X3953205Y3404768D1*
X3954631Y3409079D1*
Y3414816D1*
X3953205Y3419127D1*
X3950320Y3422012D1*
X3947468D1*
X3944583Y3420553D1*
X3943157Y3419127D1*
X3941731Y3416275D1*
X3938846Y3407653D1*
X3937420Y3404768D1*
X3935960Y3403342D1*
X3933109Y3401916D1*
X3928798D1*
X3925946Y3404768D1*
X3924486Y3409079D1*
Y3414816D1*
X3925946Y3419127D1*
X3928798Y3422012D1*
X3947468Y3371131D2*
X3950319Y3372557D1*
X3953205Y3375442D1*
X3954630Y3378294D1*
Y3384031D1*
X3953205Y3386916D1*
X3950319Y3389768D1*
X3947468Y3391227D1*
X3943157Y3392653D1*
X3935960D1*
X3931683Y3391227D1*
X3928798Y3389768D1*
X3925946Y3386916D1*
X3924487Y3384031D1*
Y3378294D1*
X3925946Y3375442D1*
X3928798Y3372557D1*
X3931683Y3371131D1*
X3954630Y3361867D2*
X3924487D1*
X3954631Y3341771D2*
X3934535Y3361867D1*
X3941731Y3354704D2*
X3924487Y3341771D1*
X768973Y1617851D2*
Y1587707D1*
X758925Y1617851D2*
X779021D1*
X788284Y1607803D2*
X804069Y1587707D1*
Y1607803D2*
X788284Y1587707D1*
X813333Y1603492D2*
X826233D1*
X830544Y1604951D1*
X832003Y1606377D1*
X833429Y1609229D1*
Y1612114D1*
X832003Y1614966D1*
X830544Y1616425D1*
X826233Y1617851D1*
X813333D1*
Y1587707D1*
X823381Y1603492D2*
X833429Y1587707D1*
X842692Y1607803D2*
X858477Y1587707D1*
Y1607803D2*
X842692Y1587707D1*
X792266Y1508599D2*
X789414Y1511484D1*
X785103Y1512910D1*
X779366D1*
X775055Y1511484D1*
X772170Y1508599D1*
Y1505747D1*
X773629Y1502862D1*
X775055Y1501436D1*
X777907Y1500010D1*
X786529Y1497125D1*
X789414Y1495699D1*
X790840Y1494240D1*
X792266Y1491388D1*
Y1487077D1*
X789414Y1484225D1*
X785103Y1482766D1*
X779366D1*
X775055Y1484225D1*
X772170Y1487077D1*
X801530Y1502862D2*
Y1472718D1*
Y1498551D2*
X804415Y1501403D1*
X807267Y1502862D1*
X811578D1*
X814463Y1501403D1*
X817315Y1498551D1*
X818774Y1494240D1*
Y1491355D1*
X817315Y1487077D1*
X814463Y1484192D1*
X811578Y1482766D1*
X807267D1*
X804415Y1484192D1*
X801530Y1487077D1*
X828037Y1494240D2*
X845248D1*
Y1497125D1*
X843822Y1500010D1*
X842396Y1501436D1*
X839511Y1502862D1*
X835200D1*
X832348Y1501436D1*
X829463Y1498551D1*
X828037Y1494240D1*
Y1491388D1*
X829463Y1487077D1*
X832348Y1484225D1*
X835200Y1482766D1*
X839511D1*
X842396Y1484225D1*
X845248Y1487077D1*
X871723Y1502862D2*
Y1482766D1*
Y1498551D2*
X868871Y1501436D1*
X865986Y1502862D1*
X861708D1*
X858823Y1501436D1*
X855971Y1498551D1*
X854512Y1494240D1*
Y1491388D1*
X855971Y1487077D1*
X858823Y1484225D1*
X861708Y1482766D1*
X865986D1*
X868871Y1484225D1*
X871723Y1487077D1*
X880986Y1512910D2*
Y1482766D1*
X895345Y1502862D2*
X880986Y1488503D1*
X886723Y1494240D2*
X896771Y1482766D1*
X906035Y1494240D2*
X923246D1*
Y1497125D1*
X921820Y1500010D1*
X920394Y1501436D1*
X917509Y1502862D1*
X913198D1*
X910346Y1501436D1*
X907461Y1498551D1*
X906035Y1494240D1*
Y1491388D1*
X907461Y1487077D1*
X910346Y1484225D1*
X913198Y1482766D1*
X917509D1*
X920394Y1484225D1*
X923246Y1487077D1*
X932509Y1502862D2*
Y1482766D1*
Y1494240D2*
X933968Y1498551D1*
X936820Y1501436D1*
X939705Y1502862D1*
X944016D1*
X786956Y4159612D2*
X768286D1*
Y4129468D1*
Y4145253D2*
X779760D1*
X796219Y4159612D2*
X797645Y4158186D1*
X799104Y4159612D1*
X797645Y4161071D1*
X796219Y4159612D1*
X797645Y4149564D2*
Y4129468D1*
X808368Y4159612D2*
Y4129468D1*
X821942Y4159612D2*
Y4135205D1*
X823368Y4130927D1*
X826254Y4129468D1*
X829105D1*
X817631Y4149564D2*
X827679D1*
X838369Y4140942D2*
X855580D1*
Y4143827D1*
X854154Y4146712D1*
X852728Y4148138D1*
X849843Y4149564D1*
X845532D1*
X842680Y4148138D1*
X839795Y4145253D1*
X838369Y4140942D1*
Y4138090D1*
X839795Y4133779D1*
X842680Y4130927D1*
X845532Y4129468D1*
X849843D1*
X852728Y4130927D1*
X855580Y4133779D1*
X864843Y4149564D2*
Y4129468D1*
Y4140942D2*
X866303Y4145253D1*
X869154Y4148138D1*
X872040Y4149564D1*
X876351D1*
X901399Y4145253D2*
X899973Y4148138D1*
X895662Y4149564D1*
X891351D1*
X887040Y4148138D1*
X885614Y4145253D1*
X887040Y4142401D1*
X889925Y4140942D1*
X897088Y4139516D1*
X899973Y4138090D1*
X901399Y4135205D1*
Y4133779D1*
X899973Y4130927D1*
X895662Y4129468D1*
X891351D1*
X887040Y4130927D1*
X885614Y4133779D1*
X1513424Y3903469D2*
X1511999Y3906321D1*
X1509113Y3909206D1*
X1506262Y3910632D1*
X1500525D1*
X1497639Y3909206D1*
X1494788Y3906321D1*
X1493328Y3903469D1*
X1491903Y3899158D1*
Y3891962D1*
X1493328Y3887684D1*
X1494788Y3884799D1*
X1497639Y3881947D1*
X1500525Y3880488D1*
X1506262D1*
X1509113Y3881947D1*
X1511999Y3884799D1*
X1513424Y3887684D1*
X1522688Y3910632D2*
Y3880488D1*
X1539899D1*
X1549162Y3910632D2*
Y3880488D1*
X1569258Y3910632D2*
X1549162Y3890536D1*
X1556325Y3897732D2*
X1569258Y3880488D1*
X1609142Y3903436D2*
Y3904862D1*
X1610568Y3907747D1*
X1611994Y3909173D1*
X1614879Y3910599D1*
X1620616D1*
X1623468Y3909173D1*
X1624894Y3907747D1*
X1626353Y3904862D1*
Y3902010D1*
X1624894Y3899125D1*
X1622042Y3894847D1*
X1607683Y3880488D1*
X1627779D1*
X1194965Y3912485D2*
X1193539Y3915337D1*
X1190654Y3918222D1*
X1187802Y3919648D1*
X1182065D1*
X1179180Y3918222D1*
X1176328Y3915337D1*
X1174869Y3912485D1*
X1173443Y3908174D1*
Y3900978D1*
X1174869Y3896700D1*
X1176328Y3893815D1*
X1179180Y3890963D1*
X1182065Y3889504D1*
X1187802D1*
X1190654Y3890963D1*
X1193539Y3893815D1*
X1194965Y3896700D1*
X1204229Y3919648D2*
Y3889504D1*
X1221440D1*
X1230703Y3919648D2*
Y3889504D1*
X1250799Y3919648D2*
X1230703Y3899552D1*
X1237866Y3906748D2*
X1250799Y3889504D1*
X1289223Y3913877D2*
X1292108Y3915337D1*
X1296419Y3919614D1*
Y3889504D1*
X4019087Y3975612D2*
X4034839D1*
X4026250Y3964138D1*
X4030561D1*
X4033413Y3962712D1*
X4034839Y3961286D1*
X4036298Y3956975D1*
Y3954123D1*
X4034839Y3949812D1*
X4031987Y3946927D1*
X4027676Y3945501D1*
X4023365D1*
X4019087Y3946927D1*
X4017661Y3948386D1*
X4016202Y3951238D1*
X4046987Y3948386D2*
X4045561Y3946927D1*
X4046987Y3945501D1*
X4048446Y3946927D1*
X4046987Y3948386D1*
X4060595Y3975612D2*
X4076347D1*
X4067758Y3964138D1*
X4072069D1*
X4074921Y3962712D1*
X4076347Y3961286D1*
X4077806Y3956975D1*
Y3954123D1*
X4076347Y3949812D1*
X4073495Y3946927D1*
X4069184Y3945501D1*
X4064873D1*
X4060595Y3946927D1*
X4059169Y3948386D1*
X4057710Y3951238D1*
X4206280Y3967416D2*
X4204854Y3970268D1*
X4201969Y3973153D1*
X4199117Y3974579D1*
X4193380D1*
X4190495Y3973153D1*
X4187643Y3970268D1*
X4186184Y3967416D1*
X4184758Y3963105D1*
Y3955909D1*
X4186184Y3951631D1*
X4187643Y3948746D1*
X4190495Y3945894D1*
X4193380Y3944435D1*
X4199117D1*
X4201969Y3945894D1*
X4204854Y3948746D1*
X4206280Y3951631D1*
Y3955909D1*
X4199117D1*
X1718635Y1725727D2*
X1714324Y1724301D1*
X1711439Y1719990D1*
X1710013Y1712827D1*
Y1708516D1*
X1711439Y1701353D1*
X1714324Y1697042D1*
X1718635Y1695616D1*
X1721487D1*
X1725798Y1697042D1*
X1728650Y1701353D1*
X1730109Y1708516D1*
Y1712827D1*
X1728650Y1719990D1*
X1725798Y1724301D1*
X1721487Y1725727D1*
X1718635D1*
X1728650Y1719990D2*
X1711439Y1701353D1*
X2585938Y939863D2*
D78*
Y922619D1*
X2587839Y916916D1*
X2589784Y914970D1*
X2593587Y913069D1*
X2599335D1*
X2603137Y914970D1*
X2605083Y916916D1*
X2606984Y922619D1*
Y939863D1*
X2566792D1*
X2593587Y891167D2*
X2591686Y894969D1*
X2587839Y898816D1*
X2582091Y900717D1*
X2578288D1*
X2572540Y898816D1*
X2568738Y894969D1*
X2566792Y891167D1*
Y885419D1*
X2568738Y881572D1*
X2572540Y877770D1*
X2578288Y875824D1*
X2582091D1*
X2587839Y877770D1*
X2591686Y881572D1*
X2593587Y885419D1*
Y891167D1*
Y863473D2*
X2566792Y855823D1*
X2593587Y848174D1*
X2566792Y840525D1*
X2593587Y832876D1*
X2582091Y820524D2*
Y797576D1*
X2585938D1*
X2589784Y799477D1*
X2591686Y801379D1*
X2593587Y805226D1*
Y810974D1*
X2591686Y814776D1*
X2587839Y818623D1*
X2582091Y820524D1*
X2578288D1*
X2572540Y818623D1*
X2568738Y814776D1*
X2566792Y810974D1*
Y805226D1*
X2568738Y801379D1*
X2572540Y797576D1*
X2593587Y785225D2*
X2566792D1*
X2582091D2*
X2587839Y783279D1*
X2591686Y779477D1*
X2593587Y775630D1*
Y769882D1*
X2566792Y688008D2*
X2606984Y703351D1*
X2566792Y718650D1*
X2580190Y712902D2*
Y693756D1*
X2593587Y675657D2*
X2566792D1*
X2585938D2*
X2591686Y669909D1*
X2593587Y666062D1*
Y660358D1*
X2591686Y656512D1*
X2585938Y654610D1*
X2566792D1*
X2585938D2*
X2591686Y648862D1*
X2593587Y645016D1*
Y639312D1*
X2591686Y635465D1*
X2585938Y633519D1*
X2566792Y633520D1*
X2593587Y621168D2*
X2553395D1*
X2587839D2*
X2591641Y617321D1*
X2593587Y613519D1*
Y607771D1*
X2591641Y603924D1*
X2587839Y600121D1*
X2582091Y598176D1*
X2578244D1*
X2572540Y600121D1*
X2568693Y603924D1*
X2566792Y607771D1*
Y613519D1*
X2568693Y617321D1*
X2572540Y621168D1*
X3378528Y1541366D2*
D80*
Y1460982D1*
X3351733Y1541366D2*
X3405323D1*
X3468316Y1460982D2*
Y1541278D1*
X3430026Y1487777D1*
X3487417D1*
X3512120Y1525979D2*
X3519814Y1529870D1*
X3531310Y1541278D1*
Y1460982D1*
X3694969D2*
Y1541366D1*
X3664371Y1460982D1*
X3633774Y1541366D1*
Y1460982D1*
X3765567Y1514571D2*
Y1460982D1*
Y1503075D2*
X3757962Y1510769D1*
X3750269Y1514571D1*
X3738861D1*
X3731167Y1510769D1*
X3723562Y1503075D1*
X3719671Y1491579D1*
Y1483974D1*
X3723562Y1472478D1*
X3731167Y1464873D1*
X3738861Y1460982D1*
X3750269D1*
X3757962Y1464873D1*
X3765567Y1472478D1*
X3790270Y1541366D2*
X3794073Y1537564D1*
X3797964Y1541366D1*
X3794073Y1545257D1*
X3790270Y1541366D1*
X3794073Y1514571D2*
Y1460982D1*
X3822666Y1514571D2*
Y1460982D1*
Y1499273D2*
X3834162Y1510769D1*
X3841856Y1514571D1*
X3853264D1*
X3860957Y1510769D1*
X3864760Y1499273D1*
Y1460982D1*
X3392626Y1426120D2*
D78*
X3386878Y1424219D1*
X3383031Y1418470D1*
X3381130Y1408920D1*
Y1403172D1*
X3383031Y1393621D1*
X3386878Y1387873D1*
X3392626Y1385972D1*
X3396428D1*
X3402176Y1387873D1*
X3405979Y1393621D1*
X3407925Y1403172D1*
Y1408920D1*
X3405979Y1418470D1*
X3402176Y1424219D1*
X3396428Y1426120D1*
X3392626D1*
X3405979Y1418470D2*
X3383031Y1393621D1*
X3427925Y1385972D2*
X3447071Y1426120D1*
X3420276D1*
X3459422Y1406046D2*
X3481530D1*
X3493881Y1418470D2*
X3497728Y1420416D1*
X3503476Y1426120D1*
Y1385972D1*
X3517773Y1416569D2*
Y1418470D1*
X3519674Y1422317D1*
X3521575Y1424219D1*
X3525422Y1426120D1*
X3533071D1*
X3536874Y1424219D1*
X3538775Y1422317D1*
X3540721Y1418470D1*
Y1414668D1*
X3538775Y1410821D1*
X3534973Y1405117D1*
X3515827Y1385972D1*
X3542622D1*
X3554973Y1406046D2*
X3577081D1*
X3591378Y1416569D2*
Y1418470D1*
X3593279Y1422317D1*
X3595181Y1424219D1*
X3599027Y1426120D1*
X3606677D1*
X3610479Y1424219D1*
X3612381Y1422317D1*
X3614326Y1418470D1*
Y1414668D1*
X3612381Y1410821D1*
X3608578Y1405117D1*
X3589433Y1385972D1*
X3616227D1*
X3630524Y1416569D2*
Y1418470D1*
X3632425Y1422317D1*
X3634327Y1424219D1*
X3638174Y1426120D1*
X3645823D1*
X3649625Y1424219D1*
X3651527Y1422317D1*
X3653472Y1418470D1*
Y1414668D1*
X3651527Y1410821D1*
X3647724Y1405117D1*
X3628579Y1385972D1*
X3655373D1*
X2395361Y1465388D2*
X2380018Y1505580D1*
X2364719Y1465388D1*
X2370467Y1478785D2*
X2389612D1*
X2436408Y1496029D2*
X2434507Y1499832D1*
X2430660Y1503679D1*
X2426857Y1505580D1*
X2419208D1*
X2415361Y1503679D1*
X2411559Y1499832D1*
X2409613Y1496029D1*
X2407712Y1490281D1*
Y1480687D1*
X2409613Y1474983D1*
X2411559Y1471136D1*
X2415361Y1467334D1*
X2419208Y1465388D1*
X2426857D1*
X2430660Y1467334D1*
X2434507Y1471136D1*
X2436408Y1474983D1*
X2458310Y1505536D2*
X2452606Y1503635D1*
X2450661Y1499832D1*
Y1495985D1*
X2452606Y1492183D1*
X2456409Y1490237D1*
X2464058Y1488336D1*
X2469806Y1486435D1*
X2473608Y1482588D1*
X2475510Y1478785D1*
Y1473037D1*
X2473608Y1469235D1*
X2471707Y1467289D1*
X2465959Y1465388D1*
X2458310D1*
X2452606Y1467289D1*
X2450661Y1469235D1*
X2448759Y1473037D1*
Y1478785D1*
X2450661Y1482588D1*
X2454507Y1486435D1*
X2460211Y1488336D1*
X2467860Y1490237D1*
X2471707Y1492183D1*
X2473608Y1495985D1*
Y1499832D1*
X2471707Y1503635D1*
X2465959Y1505536D1*
X2458310D1*
X2516557Y1496029D2*
X2514656Y1499832D1*
X2510809Y1503679D1*
X2507006Y1505580D1*
X2499357D1*
X2495510Y1503679D1*
X2491708Y1499832D1*
X2489762Y1496029D1*
X2487861Y1490281D1*
Y1480687D1*
X2489762Y1474983D1*
X2491708Y1471136D1*
X2495510Y1467334D1*
X2499357Y1465388D1*
X2507006D1*
X2510809Y1467334D1*
X2514656Y1471136D1*
X2516557Y1474983D1*
Y1480687D1*
X2507006D1*
X2528908Y1505580D2*
X2544207Y1486435D1*
Y1465388D1*
X2559506Y1505580D2*
X2544207Y1486435D1*
X2611840Y1411409D2*
X2609939Y1415211D1*
X2606092Y1419058D1*
X2602290Y1420959D1*
X2594640D1*
X2590794Y1419058D1*
X2586991Y1415211D1*
X2585046Y1411409D1*
X2583144Y1405661D1*
Y1396066D1*
X2585046Y1390362D1*
X2586991Y1386515D1*
X2590794Y1382713D1*
X2594640Y1380767D1*
X2602290D1*
X2606092Y1382713D1*
X2609939Y1386515D1*
X2611840Y1390362D1*
X2703899Y1411365D2*
Y1413266D1*
X2705800Y1417113D1*
X2707701Y1419014D1*
X2711548Y1420915D1*
X2719197D1*
X2723000Y1419014D1*
X2724901Y1417113D1*
X2726847Y1413266D1*
Y1409463D1*
X2724901Y1405616D1*
X2721099Y1399913D1*
X2701953Y1380767D1*
X2728748D1*
X2752595Y1420915D2*
X2746847Y1419014D1*
X2743001Y1413266D1*
X2741099Y1403715D1*
Y1397967D1*
X2743001Y1388417D1*
X2746847Y1382669D1*
X2752595Y1380767D1*
X2756398D1*
X2762146Y1382669D1*
X2765948Y1388417D1*
X2767894Y1397967D1*
Y1403715D1*
X2765948Y1413266D1*
X2762146Y1419014D1*
X2756398Y1420915D1*
X2752595D1*
X2765948Y1413266D2*
X2743001Y1388417D1*
X2782191Y1411365D2*
Y1413266D1*
X2784092Y1417113D1*
X2785993Y1419014D1*
X2789840Y1420915D1*
X2797489D1*
X2801292Y1419014D1*
X2803193Y1417113D1*
X2805139Y1413266D1*
Y1409463D1*
X2803193Y1405616D1*
X2799391Y1399913D1*
X2780245Y1380767D1*
X2807040D1*
X2821337Y1411365D2*
Y1413266D1*
X2823238Y1417113D1*
X2825139Y1419014D1*
X2828986Y1420915D1*
X2836635D1*
X2840438Y1419014D1*
X2842339Y1417113D1*
X2844285Y1413266D1*
Y1409463D1*
X2842339Y1405616D1*
X2838537Y1399913D1*
X2819391Y1380767D1*
X2846186D1*
X1809972Y1719990D2*
D79*
X1812857Y1721449D1*
X1817168Y1725727D1*
Y1695616D1*
X2013022Y1725727D2*
X2028774D1*
X2020185Y1714253D1*
X2024496D1*
X2027348Y1712827D1*
X2028774Y1711401D1*
X2030233Y1707090D1*
Y1704239D1*
X2028774Y1699928D1*
X2025922Y1697042D1*
X2021611Y1695616D1*
X2017300D1*
X2013022Y1697042D1*
X2011597Y1698502D1*
X2010137Y1701353D1*
X4086544Y3198969D2*
Y3168825D1*
X4096592D1*
X4100903Y3170284D1*
X4103788Y3173136D1*
X4105214Y3176021D1*
X4106640Y3180299D1*
Y3187495D1*
X4105214Y3191806D1*
X4103788Y3194658D1*
X4100903Y3197543D1*
X4096592Y3198969D1*
X4086544D1*
X4115904D2*
X4117330Y3197543D1*
X4118789Y3198969D1*
X4117330Y3200428D1*
X4115904Y3198969D1*
X4117330Y3188921D2*
Y3168825D1*
X4143837Y3184610D2*
X4142411Y3187495D1*
X4138100Y3188921D1*
X4133789D1*
X4129478Y3187495D1*
X4128052Y3184610D1*
X4129478Y3181758D1*
X4132363Y3180299D1*
X4139526Y3178873D1*
X4142411Y3177447D1*
X4143837Y3174562D1*
Y3173136D1*
X4142411Y3170284D1*
X4138100Y3168825D1*
X4133789D1*
X4129478Y3170284D1*
X4128052Y3173136D1*
X4153101Y3188921D2*
Y3158777D1*
Y3184610D2*
X4155986Y3187462D1*
X4158838Y3188921D1*
X4163149D1*
X4166034Y3187462D1*
X4168886Y3184610D1*
X4170345Y3180299D1*
Y3177414D1*
X4168886Y3173136D1*
X4166034Y3170251D1*
X4163149Y3168825D1*
X4158838D1*
X4155986Y3170251D1*
X4153101Y3173136D1*
X4179609Y3198969D2*
Y3168825D1*
X4206083Y3188921D2*
Y3168825D1*
Y3184610D2*
X4203231Y3187495D1*
X4200346Y3188921D1*
X4196068D1*
X4193183Y3187495D1*
X4190331Y3184610D1*
X4188872Y3180299D1*
Y3177447D1*
X4190331Y3173136D1*
X4193183Y3170284D1*
X4196068Y3168825D1*
X4200346D1*
X4203231Y3170284D1*
X4206083Y3173136D1*
X4216806Y3188921D2*
X4225395Y3168825D1*
X4222543Y3163088D1*
X4219658Y3160203D1*
X4216806Y3158777D1*
X4215347D1*
X4234017Y3188921D2*
X4225395Y3168825D1*
X2136952Y1695616D2*
Y1725727D1*
X2122593Y1705664D1*
X2144115D1*
X1911636Y1718564D2*
Y1719990D1*
X1913062Y1722875D1*
X1914488Y1724301D1*
X1917373Y1725727D1*
X1923110D1*
X1925962Y1724301D1*
X1927388Y1722875D1*
X1928847Y1719990D1*
Y1717138D1*
X1927388Y1714253D1*
X1924536Y1709976D1*
X1910177Y1695616D1*
X1930273D1*
X787704Y1108498D2*
X786278Y1111350D1*
X783393Y1114235D1*
X780541Y1115661D1*
X774804D1*
X771919Y1114235D1*
X769067Y1111350D1*
X767608Y1108498D1*
X766182Y1104187D1*
Y1096991D1*
X767608Y1092713D1*
X769067Y1089828D1*
X771919Y1086976D1*
X774804Y1085517D1*
X780541D1*
X783393Y1086976D1*
X786278Y1089828D1*
X787704Y1092713D1*
Y1096991D1*
X780541D1*
X796968Y1105613D2*
Y1085517D1*
Y1099876D2*
X801279Y1104187D1*
X804164Y1105613D1*
X808441D1*
X811327Y1104187D1*
X812753Y1099876D1*
Y1085517D1*
X839227Y1115661D2*
Y1085517D1*
Y1101302D2*
X836375Y1104187D1*
X833490Y1105613D1*
X829179D1*
X826327Y1104187D1*
X823442Y1101302D1*
X822016Y1096991D1*
Y1094139D1*
X823442Y1089828D1*
X826327Y1086976D1*
X829179Y1085517D1*
X833490D1*
X836375Y1086976D1*
X839227Y1089828D1*
X789638Y1186775D2*
Y1160942D1*
X776738Y1173842D2*
X802571D1*
X829046Y1188914D2*
X814720D1*
X813294Y1176014D1*
X814720Y1177440D1*
X819031Y1178899D1*
X823309D1*
X827620Y1177440D1*
X830505Y1174588D1*
X831931Y1170277D1*
Y1167425D1*
X830505Y1163114D1*
X827620Y1160229D1*
X823309Y1158803D1*
X819031D1*
X814720Y1160229D1*
X813294Y1161688D1*
X811835Y1164540D1*
X2239763Y1725727D2*
X2225437D1*
X2224011Y1712827D1*
X2225437Y1714253D1*
X2229748Y1715712D1*
X2234026D1*
X2238337Y1714253D1*
X2241222Y1711401D1*
X2242648Y1707090D1*
Y1704239D1*
X2241222Y1699928D1*
X2238337Y1697042D1*
X2234026Y1695616D1*
X2229748D1*
X2225437Y1697042D1*
X2224011Y1698502D1*
X2222552Y1701353D1*
X2339724Y1721449D2*
X2338298Y1724301D1*
X2333987Y1725727D1*
X2331135D1*
X2326824Y1724301D1*
X2323939Y1719990D1*
X2322513Y1712827D1*
Y1705664D1*
X2323939Y1699928D1*
X2326824Y1697042D1*
X2331135Y1695616D1*
X2332561D1*
X2336839Y1697042D1*
X2339724Y1699928D1*
X2341150Y1704239D1*
Y1705664D1*
X2339724Y1709976D1*
X2336839Y1712827D1*
X2332561Y1714253D1*
X2331135D1*
X2326824Y1712827D1*
X2323939Y1709976D1*
X2322513Y1705664D1*
X2428209Y1695616D2*
X2442568Y1725727D1*
X2422472D1*
X4232133Y3076115D2*
X4230707Y3078967D1*
X4227822Y3081852D1*
X4224970Y3083278D1*
X4219233D1*
X4216348Y3081852D1*
X4213496Y3078967D1*
X4212037Y3076115D1*
X4210611Y3071804D1*
Y3064607D1*
X4212037Y3060330D1*
X4213496Y3057445D1*
X4216348Y3054593D1*
X4219233Y3053134D1*
X4224970D1*
X4227822Y3054593D1*
X4230707Y3057445D1*
X4232133Y3060330D1*
Y3064607D1*
X4224970D1*
X4241397Y3073230D2*
Y3053134D1*
Y3067493D2*
X4245708Y3071804D1*
X4248593Y3073230D1*
X4252871D1*
X4255756Y3071804D1*
X4257182Y3067493D1*
Y3053134D1*
X4283656Y3083278D2*
Y3053134D1*
Y3068919D2*
X4280804Y3071804D1*
X4277919Y3073230D1*
X4273608D1*
X4270756Y3071804D1*
X4267871Y3068919D1*
X4266445Y3064607D1*
Y3061756D1*
X4267871Y3057445D1*
X4270756Y3054593D1*
X4273608Y3053134D1*
X4277919D1*
X4280804Y3054593D1*
X4283656Y3057445D1*
X2529840Y1725727D2*
X2525562Y1724301D1*
X2524103Y1721449D1*
Y1718564D1*
X2525562Y1715712D1*
X2528414Y1714253D1*
X2534151Y1712827D1*
X2538462Y1711401D1*
X2541314Y1708516D1*
X2542740Y1705664D1*
Y1701353D1*
X2541314Y1698502D1*
X2539888Y1697042D1*
X2535577Y1695616D1*
X2529840D1*
X2525562Y1697042D1*
X2524103Y1698502D1*
X2522677Y1701353D1*
Y1705664D1*
X2524103Y1708516D1*
X2526988Y1711401D1*
X2531266Y1712827D1*
X2537003Y1714253D1*
X2539888Y1715712D1*
X2541314Y1718564D1*
Y1721449D1*
X2539888Y1724301D1*
X2535577Y1725727D1*
X2529840D1*
X2641307Y1715712D2*
X2639848Y1711401D1*
X2636996Y1708516D1*
X2632685Y1707090D1*
X2631259D1*
X2626948Y1708516D1*
X2624097Y1711401D1*
X2622637Y1715712D1*
Y1717138D1*
X2624097Y1721449D1*
X2626948Y1724301D1*
X2631259Y1725727D1*
X2632685D1*
X2636996Y1724301D1*
X2639848Y1721449D1*
X2641307Y1715712D1*
Y1708516D1*
X2639848Y1701353D1*
X2636996Y1697042D1*
X2632685Y1695616D1*
X2629834D1*
X2625522Y1697042D1*
X2624097Y1699928D1*
X2710102Y1719990D2*
X2712987Y1721449D1*
X2717298Y1725727D1*
Y1695616D1*
X2735184Y1725727D2*
X2730873Y1724301D1*
X2727988Y1719990D1*
X2726562Y1712827D1*
Y1708516D1*
X2727988Y1701353D1*
X2730873Y1697042D1*
X2735184Y1695616D1*
X2738036D1*
X2742347Y1697042D1*
X2745199Y1701353D1*
X2746658Y1708516D1*
Y1712827D1*
X2745199Y1719990D1*
X2742347Y1724301D1*
X2738036Y1725727D1*
X2735184D1*
X2745199Y1719990D2*
X2727988Y1701353D1*
X2810063Y1719990D2*
X2812948Y1721449D1*
X2817259Y1725727D1*
Y1695616D1*
X2826522Y1719990D2*
X2829407Y1721449D1*
X2833718Y1725727D1*
Y1695616D1*
X2910022Y1719990D2*
X2912907Y1721449D1*
X2917218Y1725727D1*
Y1695616D1*
X2927941Y1718564D2*
Y1719990D1*
X2929367Y1722875D1*
X2930793Y1724301D1*
X2933678Y1725727D1*
X2939415D1*
X2942267Y1724301D1*
X2943692Y1722875D1*
X2945152Y1719990D1*
Y1717138D1*
X2943692Y1714253D1*
X2940841Y1709976D1*
X2926482Y1695616D1*
X2946578D1*
X3018610Y1643281D2*
Y1659033D1*
X3030084Y1650444D1*
Y1654755D1*
X3031510Y1657607D1*
X3032936Y1659033D1*
X3037247Y1660492D1*
X3040099D1*
X3044410Y1659033D1*
X3047295Y1656181D1*
X3048721Y1651870D1*
Y1647559D1*
X3047295Y1643281D1*
X3045836Y1641855D1*
X3042984Y1640396D1*
X3045836Y1671181D2*
X3047295Y1669756D1*
X3048721Y1671181D1*
X3047295Y1672641D1*
X3045836Y1671181D1*
X3018610Y1684789D2*
Y1700541D1*
X3030084Y1691952D1*
Y1696263D1*
X3031510Y1699115D1*
X3032936Y1700541D1*
X3037247Y1702000D1*
X3040099D1*
X3044410Y1700541D1*
X3047295Y1697689D1*
X3048721Y1693378D1*
Y1689067D1*
X3047295Y1684789D1*
X3045836Y1683363D1*
X3042984Y1681904D1*
X3028625Y1711264D2*
X3048721Y1719886D1*
X3028625Y1728475D1*
X3111646Y1718564D2*
Y1719990D1*
X3113072Y1722875D1*
X3114498Y1724301D1*
X3117383Y1725727D1*
X3123120D1*
X3125972Y1724301D1*
X3127398Y1722875D1*
X3128857Y1719990D1*
Y1717138D1*
X3127398Y1714253D1*
X3124546Y1709976D1*
X3110187Y1695616D1*
X3130283D1*
X3153906D2*
Y1725727D1*
X3139547Y1705664D1*
X3161069D1*
X3211607Y1718564D2*
Y1719990D1*
X3213033Y1722875D1*
X3214459Y1724301D1*
X3217344Y1725727D1*
X3223081D1*
X3225933Y1724301D1*
X3227359Y1722875D1*
X3228818Y1719990D1*
Y1717138D1*
X3227359Y1714253D1*
X3224507Y1709976D1*
X3210148Y1695616D1*
X3230244D1*
X3256718Y1725727D2*
X3242393D1*
X3240967Y1712827D1*
X3242393Y1714253D1*
X3246704Y1715712D1*
X3250981D1*
X3255292Y1714253D1*
X3258178Y1711401D1*
X3259603Y1707090D1*
Y1704239D1*
X3258178Y1699928D1*
X3255292Y1697042D1*
X3250981Y1695616D1*
X3246704D1*
X3242393Y1697042D1*
X3240967Y1698502D1*
X3239507Y1701353D1*
X3311566Y1718564D2*
Y1719990D1*
X3312992Y1722875D1*
X3314418Y1724301D1*
X3317303Y1725727D1*
X3323040D1*
X3325892Y1724301D1*
X3327318Y1722875D1*
X3328777Y1719990D1*
Y1717138D1*
X3327318Y1714253D1*
X3324466Y1709976D1*
X3310107Y1695616D1*
X3330203D1*
X3356678Y1721449D2*
X3355252Y1724301D1*
X3350941Y1725727D1*
X3348089D1*
X3343778Y1724301D1*
X3340893Y1719990D1*
X3339467Y1712827D1*
Y1705664D1*
X3340893Y1699928D1*
X3343778Y1697042D1*
X3348089Y1695616D1*
X3349515D1*
X3353793Y1697042D1*
X3356678Y1699928D1*
X3358104Y1704239D1*
Y1705664D1*
X3356678Y1709976D1*
X3353793Y1712827D1*
X3349515Y1714253D1*
X3348089D1*
X3343778Y1712827D1*
X3340893Y1709976D1*
X3339467Y1705664D1*
X3411527Y1718564D2*
Y1719990D1*
X3412953Y1722875D1*
X3414379Y1724301D1*
X3417264Y1725727D1*
X3423001D1*
X3425853Y1724301D1*
X3427279Y1722875D1*
X3428738Y1719990D1*
Y1717138D1*
X3427279Y1714253D1*
X3424427Y1709976D1*
X3410068Y1695616D1*
X3430164D1*
X3445164D2*
X3459523Y1725727D1*
X3439427D1*
X3511486Y1718564D2*
Y1719990D1*
X3512912Y1722875D1*
X3514338Y1724301D1*
X3517223Y1725727D1*
X3522960D1*
X3525812Y1724301D1*
X3527238Y1722875D1*
X3528697Y1719990D1*
Y1717138D1*
X3527238Y1714253D1*
X3524386Y1709976D1*
X3510027Y1695616D1*
X3530123D1*
X3546550Y1725727D2*
X3542272Y1724301D1*
X3540813Y1721449D1*
Y1718564D1*
X3542272Y1715712D1*
X3545124Y1714253D1*
X3550861Y1712827D1*
X3555172Y1711401D1*
X3558024Y1708516D1*
X3559450Y1705664D1*
Y1701353D1*
X3558024Y1698502D1*
X3556598Y1697042D1*
X3552287Y1695616D1*
X3546550D1*
X3542272Y1697042D1*
X3540813Y1698502D1*
X3539387Y1701353D1*
Y1705664D1*
X3540813Y1708516D1*
X3543698Y1711401D1*
X3547976Y1712827D1*
X3553713Y1714253D1*
X3556598Y1715712D1*
X3558024Y1718564D1*
Y1721449D1*
X3556598Y1724301D1*
X3552287Y1725727D1*
X3546550D1*
X3611447Y1718564D2*
Y1719990D1*
X3612873Y1722875D1*
X3614299Y1724301D1*
X3617184Y1725727D1*
X3622921D1*
X3625773Y1724301D1*
X3627199Y1722875D1*
X3628658Y1719990D1*
Y1717138D1*
X3627199Y1714253D1*
X3624347Y1709976D1*
X3609988Y1695616D1*
X3630084D1*
X3658017Y1715712D2*
X3656558Y1711401D1*
X3653706Y1708516D1*
X3649395Y1707090D1*
X3647969D1*
X3643658Y1708516D1*
X3640806Y1711401D1*
X3639347Y1715712D1*
Y1717138D1*
X3640806Y1721449D1*
X3643658Y1724301D1*
X3647969Y1725727D1*
X3649395D1*
X3653706Y1724301D1*
X3656558Y1721449D1*
X3658017Y1715712D1*
Y1708516D1*
X3656558Y1701353D1*
X3653706Y1697042D1*
X3649395Y1695616D1*
X3646543D1*
X3642232Y1697042D1*
X3640806Y1699928D1*
X3713078Y1725727D2*
X3728829D1*
X3720241Y1714253D1*
X3724552D1*
X3727403Y1712827D1*
X3728829Y1711401D1*
X3730289Y1707090D1*
Y1704239D1*
X3728829Y1699928D1*
X3725978Y1697042D1*
X3721666Y1695616D1*
X3717355D1*
X3713078Y1697042D1*
X3711652Y1698502D1*
X3710193Y1701353D1*
X3748174Y1725727D2*
X3743863Y1724301D1*
X3740978Y1719990D1*
X3739552Y1712827D1*
Y1708516D1*
X3740978Y1701353D1*
X3743863Y1697042D1*
X3748174Y1695616D1*
X3751026D1*
X3755337Y1697042D1*
X3758189Y1701353D1*
X3759648Y1708516D1*
Y1712827D1*
X3758189Y1719990D1*
X3755337Y1724301D1*
X3751026Y1725727D1*
X3748174D1*
X3758189Y1719990D2*
X3740978Y1701353D1*
X3813037Y1725727D2*
X3828789D1*
X3820200Y1714253D1*
X3824511D1*
X3827363Y1712827D1*
X3828789Y1711401D1*
X3830248Y1707090D1*
Y1704239D1*
X3828789Y1699928D1*
X3825937Y1697042D1*
X3821626Y1695616D1*
X3817315D1*
X3813037Y1697042D1*
X3811611Y1698502D1*
X3810152Y1701353D1*
X3839511Y1719990D2*
X3842396Y1721449D1*
X3846707Y1725727D1*
Y1695616D1*
X3912998Y1725727D2*
X3928749D1*
X3920160Y1714253D1*
X3924471D1*
X3927323Y1712827D1*
X3928749Y1711401D1*
X3930208Y1707090D1*
Y1704239D1*
X3928749Y1699928D1*
X3925897Y1697042D1*
X3921586Y1695616D1*
X3917275D1*
X3912998Y1697042D1*
X3911572Y1698502D1*
X3910112Y1701353D1*
X3940931Y1718564D2*
Y1719990D1*
X3942357Y1722875D1*
X3943783Y1724301D1*
X3946668Y1725727D1*
X3952405D1*
X3955257Y1724301D1*
X3956683Y1722875D1*
X3958142Y1719990D1*
Y1717138D1*
X3956683Y1714253D1*
X3953831Y1709976D1*
X3939472Y1695616D1*
X3959568D1*
X1606585Y1718598D2*
X1605159Y1721449D1*
X1602274Y1724335D1*
X1599422Y1725760D1*
X1593685D1*
X1590800Y1724335D1*
X1587948Y1721449D1*
X1586489Y1718598D1*
X1585063Y1714287D1*
Y1707090D1*
X1586489Y1702813D1*
X1587948Y1699928D1*
X1590800Y1697076D1*
X1593685Y1695616D1*
X1599422D1*
X1602274Y1697076D1*
X1605159Y1699928D1*
X1606585Y1702813D1*
Y1707090D1*
X1599422D1*
X1615848Y1715712D2*
Y1695616D1*
Y1709976D2*
X1620159Y1714287D1*
X1623044Y1715712D1*
X1627322D1*
X1630207Y1714287D1*
X1631633Y1709976D1*
Y1695616D1*
X1658108Y1725760D2*
Y1695616D1*
Y1711401D2*
X1655256Y1714287D1*
X1652371Y1715712D1*
X1648060D1*
X1645208Y1714287D1*
X1642323Y1711401D1*
X1640897Y1707090D1*
Y1704239D1*
X1642323Y1699928D1*
X1645208Y1697076D1*
X1648060Y1695616D1*
X1652371D1*
X1655256Y1697076D1*
X1658108Y1699928D1*
X3912998Y2488290D2*
X3928749D1*
X3920160Y2476816D1*
X3924471D1*
X3927323Y2475390D1*
X3928749Y2473964D1*
X3930208Y2469653D1*
Y2466802D1*
X3928749Y2462490D1*
X3925897Y2459605D1*
X3921586Y2458179D1*
X3917275D1*
X3912998Y2459605D1*
X3911572Y2461065D1*
X3910112Y2463916D1*
X3942357Y2488290D2*
X3958109D1*
X3949520Y2476816D1*
X3953831D1*
X3956683Y2475390D1*
X3958109Y2473964D1*
X3959568Y2469653D1*
Y2466802D1*
X3958109Y2462490D1*
X3955257Y2459605D1*
X3950946Y2458179D1*
X3946635D1*
X3942357Y2459605D1*
X3940931Y2461065D1*
X3939472Y2463916D1*
X3017635Y2480902D2*
X3014783Y2479476D1*
X3011898Y2476591D1*
X3010472Y2473739D1*
Y2468002D1*
X3011898Y2465117D1*
X3014783Y2462265D1*
X3017635Y2460806D1*
X3021946Y2459380D1*
X3029142D1*
X3033420Y2460806D1*
X3036305Y2462265D1*
X3039157Y2465117D1*
X3040616Y2468002D1*
Y2473739D1*
X3039157Y2476591D1*
X3036305Y2479476D1*
X3033420Y2480902D1*
X3029142D1*
Y2473739D1*
X3020520Y2490166D2*
X3040616D1*
X3026257D2*
X3021946Y2494477D1*
X3020520Y2497362D1*
Y2501640D1*
X3021946Y2504525D1*
X3026257Y2505951D1*
X3040616D1*
X3010472Y2532425D2*
X3040616D1*
X3024831D2*
X3021946Y2529573D1*
X3020520Y2526688D1*
Y2522377D1*
X3021946Y2519525D1*
X3024831Y2516640D1*
X3029142Y2515214D1*
X3031994D1*
X3036305Y2516640D1*
X3039157Y2519525D1*
X3040616Y2522377D1*
Y2526688D1*
X3039157Y2529573D1*
X3036305Y2532425D1*
X1585063Y2500816D2*
X1596537Y2470672D1*
X1608011Y2500816D1*
X1617274D2*
X1618700Y2499390D1*
X1620159Y2500816D1*
X1618700Y2502275D1*
X1617274Y2500816D1*
X1618700Y2490768D2*
Y2470672D1*
X1629423Y2490768D2*
Y2470672D1*
Y2485031D2*
X1633734Y2489342D1*
X1636619Y2490768D1*
X1640897D1*
X1643782Y2489342D1*
X1645208Y2485031D1*
Y2470672D1*
X1731535Y2493653D2*
X1730109Y2496505D1*
X1727224Y2499390D1*
X1724372Y2500816D1*
X1718635D1*
X1715750Y2499390D1*
X1712898Y2496505D1*
X1711439Y2493653D1*
X1710013Y2489342D1*
Y2482146D1*
X1711439Y2477868D1*
X1712898Y2474983D1*
X1715750Y2472131D1*
X1718635Y2470672D1*
X1724372D1*
X1727224Y2472131D1*
X1730109Y2474983D1*
X1731535Y2477868D1*
Y2482146D1*
X1724372D1*
X1818599Y2455814D2*
X1818600Y2471566D1*
X1830073Y2462977D1*
Y2467288D1*
X1831499Y2470140D1*
X1832925Y2471566D1*
X1837236Y2473025D1*
X1840088D1*
X1844399Y2471566D1*
X1847284Y2468714D1*
X1848710Y2464403D1*
Y2460092D1*
X1847284Y2455814D1*
X1845825Y2454388D1*
X1842973Y2452929D1*
X1845825Y2483714D2*
X1847284Y2482288D1*
X1848710Y2483714D1*
X1847284Y2485173D1*
X1845825Y2483714D1*
X1818600Y2497322D2*
Y2513074D1*
X1830073Y2504485D1*
Y2508796D1*
X1831499Y2511648D1*
X1832925Y2513074D1*
X1837236Y2514533D1*
X1840088D1*
X1844399Y2513074D1*
X1847284Y2510222D1*
X1848710Y2505911D1*
Y2501600D1*
X1847284Y2497322D1*
X1845825Y2495896D1*
X1842973Y2494437D1*
X1828614Y2523796D2*
X1848710Y2532419D1*
X1828614Y2541007D1*
X1911636Y2481127D2*
Y2482553D1*
X1913062Y2485438D1*
X1914488Y2486864D1*
X1917373Y2488290D1*
X1923110D1*
X1925962Y2486864D1*
X1927388Y2485438D1*
X1928847Y2482553D1*
Y2479701D1*
X1927388Y2476816D1*
X1924536Y2472538D1*
X1910177Y2458179D1*
X1930273D1*
X1942421Y2488290D2*
X1958173D1*
X1949584Y2476816D1*
X1953895D1*
X1956747Y2475390D1*
X1958173Y2473964D1*
X1959632Y2469653D1*
Y2466802D1*
X1958173Y2462490D1*
X1955321Y2459605D1*
X1951010Y2458179D1*
X1946699D1*
X1942421Y2459605D1*
X1940995Y2461065D1*
X1939536Y2463916D1*
X2011597Y2481127D2*
Y2482553D1*
X2013022Y2485438D1*
X2014448Y2486864D1*
X2017334Y2488290D1*
X2023070D1*
X2025922Y2486864D1*
X2027348Y2485438D1*
X2028807Y2482553D1*
Y2479701D1*
X2027348Y2476816D1*
X2024496Y2472538D1*
X2010137Y2458179D1*
X2030233D1*
X2040956Y2481127D2*
Y2482553D1*
X2042382Y2485438D1*
X2043808Y2486864D1*
X2046693Y2488290D1*
X2052430D1*
X2055282Y2486864D1*
X2056708Y2485438D1*
X2058167Y2482553D1*
Y2479701D1*
X2056708Y2476816D1*
X2053856Y2472538D1*
X2039497Y2458179D1*
X2059593D1*
X2111556Y2481127D2*
Y2482553D1*
X2112982Y2485438D1*
X2114408Y2486864D1*
X2117293Y2488290D1*
X2123030D1*
X2125882Y2486864D1*
X2127308Y2485438D1*
X2128767Y2482553D1*
Y2479701D1*
X2127308Y2476816D1*
X2124456Y2472538D1*
X2110097Y2458179D1*
X2130193D1*
X2139456Y2482553D2*
X2142341Y2484012D1*
X2146652Y2488290D1*
Y2458179D1*
X2199022Y2481127D2*
Y2482553D1*
X2200448Y2485438D1*
X2201874Y2486864D1*
X2204759Y2488290D1*
X2210496D1*
X2213348Y2486864D1*
X2214774Y2485438D1*
X2216233Y2482553D1*
Y2479701D1*
X2214774Y2476816D1*
X2211922Y2472538D1*
X2197563Y2458179D1*
X2217659D1*
X2235544Y2488290D2*
X2231233Y2486864D1*
X2228348Y2482553D1*
X2226922Y2475390D1*
Y2471079D1*
X2228348Y2463916D1*
X2231233Y2459605D1*
X2235544Y2458179D1*
X2238396D1*
X2242707Y2459605D1*
X2245559Y2463916D1*
X2247018Y2471079D1*
Y2475390D1*
X2245559Y2482553D1*
X2242707Y2486864D1*
X2238396Y2488290D1*
X2235544D1*
X2245559Y2482553D2*
X2228348Y2463916D1*
X2297522Y2482553D2*
X2300407Y2484012D1*
X2304718Y2488290D1*
Y2458179D1*
X2332652Y2478275D2*
X2331192Y2473964D1*
X2328341Y2471079D1*
X2324030Y2469653D1*
X2322604D1*
X2318293Y2471079D1*
X2315441Y2473964D1*
X2313982Y2478275D1*
Y2479701D1*
X2315441Y2484012D1*
X2318293Y2486864D1*
X2322604Y2488290D1*
X2324030D1*
X2328341Y2486864D1*
X2331192Y2484012D1*
X2332652Y2478275D1*
Y2471079D1*
X2331192Y2463916D1*
X2328341Y2459605D1*
X2324030Y2458179D1*
X2321178D1*
X2316867Y2459605D1*
X2315441Y2462490D1*
X2397483Y2482553D2*
X2400368Y2484012D1*
X2404679Y2488290D1*
Y2458179D1*
X2421105Y2488290D2*
X2416827Y2486864D1*
X2415368Y2484012D1*
Y2481127D1*
X2416827Y2478275D1*
X2419679Y2476816D1*
X2425416Y2475390D1*
X2429727Y2473964D1*
X2432579Y2471079D1*
X2434005Y2468227D1*
Y2463916D1*
X2432579Y2461065D1*
X2431153Y2459605D1*
X2426842Y2458179D1*
X2421105D1*
X2416827Y2459605D1*
X2415368Y2461065D1*
X2413942Y2463916D1*
Y2468227D1*
X2415368Y2471079D1*
X2418253Y2473964D1*
X2422531Y2475390D1*
X2428268Y2476816D1*
X2431153Y2478275D1*
X2432579Y2481127D1*
Y2484012D1*
X2431153Y2486864D1*
X2426842Y2488290D1*
X2421105D1*
X2497687Y2482553D2*
X2500572Y2484012D1*
X2504883Y2488290D1*
Y2458179D1*
X2519884D2*
X2534243Y2488290D1*
X2514147D1*
X2597648Y2482553D2*
X2600533Y2484012D1*
X2604844Y2488290D1*
Y2458179D1*
X2631318Y2484012D2*
X2629893Y2486864D1*
X2625582Y2488290D1*
X2622730D1*
X2618419Y2486864D1*
X2615534Y2482553D1*
X2614108Y2475390D1*
Y2468227D1*
X2615534Y2462490D1*
X2618419Y2459605D1*
X2622730Y2458179D1*
X2624156D1*
X2628433Y2459605D1*
X2631318Y2462490D1*
X2632744Y2466802D1*
Y2468227D1*
X2631318Y2472538D1*
X2628433Y2475390D1*
X2624156Y2476816D1*
X2622730D1*
X2618419Y2475390D1*
X2615534Y2472538D1*
X2614108Y2468227D1*
X2697607Y2482553D2*
X2700492Y2484012D1*
X2704803Y2488290D1*
Y2458179D1*
X2731278Y2488290D2*
X2716952D1*
X2715526Y2475390D1*
X2716952Y2476816D1*
X2721263Y2478275D1*
X2725541D1*
X2729852Y2476816D1*
X2732737Y2473964D1*
X2734163Y2469653D1*
Y2466802D1*
X2732737Y2462490D1*
X2729852Y2459605D1*
X2725541Y2458179D1*
X2721263D1*
X2716952Y2459605D1*
X2715526Y2461065D1*
X2714067Y2463916D1*
X2810063Y2482553D2*
X2812948Y2484012D1*
X2817259Y2488290D1*
Y2458179D1*
X2840881D2*
Y2488290D1*
X2826522Y2468227D1*
X2848044D1*
X2910022Y2482553D2*
X2912907Y2484012D1*
X2917218Y2488290D1*
Y2458179D1*
X2929367Y2488290D2*
X2945118D1*
X2936530Y2476816D1*
X2940841D1*
X2943692Y2475390D1*
X2945118Y2473964D1*
X2946578Y2469653D1*
Y2466802D1*
X2945118Y2462490D1*
X2942267Y2459605D1*
X2937956Y2458179D1*
X2933644D1*
X2929367Y2459605D1*
X2927941Y2461065D1*
X2926482Y2463916D1*
X3813037Y2488290D2*
X3828789D1*
X3820200Y2476816D1*
X3824511D1*
X3827363Y2475390D1*
X3828789Y2473964D1*
X3830248Y2469653D1*
Y2466802D1*
X3828789Y2462490D1*
X3825937Y2459605D1*
X3821626Y2458179D1*
X3817315D1*
X3813037Y2459605D1*
X3811611Y2461065D1*
X3810152Y2463916D1*
X3853870Y2458179D2*
Y2488290D1*
X3839511Y2468227D1*
X3861033D1*
X3713078Y2488290D2*
X3728829D1*
X3720241Y2476816D1*
X3724552D1*
X3727403Y2475390D1*
X3728829Y2473964D1*
X3730289Y2469653D1*
Y2466802D1*
X3728829Y2462490D1*
X3725978Y2459605D1*
X3721666Y2458179D1*
X3717355D1*
X3713078Y2459605D1*
X3711652Y2461065D1*
X3710193Y2463916D1*
X3756763Y2488290D2*
X3742437D1*
X3741011Y2475390D1*
X3742437Y2476816D1*
X3746748Y2478275D1*
X3751026D1*
X3755337Y2476816D1*
X3758222Y2473964D1*
X3759648Y2469653D1*
Y2466802D1*
X3758222Y2462490D1*
X3755337Y2459605D1*
X3751026Y2458179D1*
X3746748D1*
X3742437Y2459605D1*
X3741011Y2461065D1*
X3739552Y2463916D1*
X3612873Y2488290D2*
X3628625D1*
X3620036Y2476816D1*
X3624347D1*
X3627199Y2475390D1*
X3628625Y2473964D1*
X3630084Y2469653D1*
Y2466802D1*
X3628625Y2462490D1*
X3625773Y2459605D1*
X3621462Y2458179D1*
X3617151D1*
X3612873Y2459605D1*
X3611447Y2461065D1*
X3609988Y2463916D1*
X3656558Y2484012D2*
X3655132Y2486864D1*
X3650821Y2488290D1*
X3647969D1*
X3643658Y2486864D1*
X3640773Y2482553D1*
X3639347Y2475390D1*
Y2468227D1*
X3640773Y2462490D1*
X3643658Y2459605D1*
X3647969Y2458179D1*
X3649395D1*
X3653673Y2459605D1*
X3656558Y2462490D1*
X3657984Y2466802D1*
Y2468227D1*
X3656558Y2472538D1*
X3653673Y2475390D1*
X3649395Y2476816D1*
X3647969D1*
X3643658Y2475390D1*
X3640773Y2472538D1*
X3639347Y2468227D1*
X3512912Y2488290D2*
X3528664D1*
X3520075Y2476816D1*
X3524386D1*
X3527238Y2475390D1*
X3528664Y2473964D1*
X3530123Y2469653D1*
Y2466802D1*
X3528664Y2462490D1*
X3525812Y2459605D1*
X3521501Y2458179D1*
X3517190D1*
X3512912Y2459605D1*
X3511486Y2461065D1*
X3510027Y2463916D1*
X3545124Y2458179D2*
X3559483Y2488290D1*
X3539387D1*
X3412953D2*
X3428705D1*
X3420116Y2476816D1*
X3424427D1*
X3427279Y2475390D1*
X3428705Y2473964D1*
X3430164Y2469653D1*
Y2466802D1*
X3428705Y2462490D1*
X3425853Y2459605D1*
X3421542Y2458179D1*
X3417231D1*
X3412953Y2459605D1*
X3411527Y2461065D1*
X3410068Y2463916D1*
X3446590Y2488290D2*
X3442312Y2486864D1*
X3440853Y2484012D1*
Y2481127D1*
X3442312Y2478275D1*
X3445164Y2476816D1*
X3450901Y2475390D1*
X3455212Y2473964D1*
X3458064Y2471079D1*
X3459490Y2468227D1*
Y2463916D1*
X3458064Y2461065D1*
X3456638Y2459605D1*
X3452327Y2458179D1*
X3446590D1*
X3442312Y2459605D1*
X3440853Y2461065D1*
X3439427Y2463916D1*
Y2468227D1*
X3440853Y2471079D1*
X3443738Y2473964D1*
X3448016Y2475390D1*
X3453753Y2476816D1*
X3456638Y2478275D1*
X3458064Y2481127D1*
Y2484012D1*
X3456638Y2486864D1*
X3452327Y2488290D1*
X3446590D1*
X3312992D2*
X3328744D1*
X3320155Y2476816D1*
X3324466D1*
X3327318Y2475390D1*
X3328744Y2473964D1*
X3330203Y2469653D1*
Y2466802D1*
X3328744Y2462490D1*
X3325892Y2459605D1*
X3321581Y2458179D1*
X3317270D1*
X3312992Y2459605D1*
X3311566Y2461065D1*
X3310107Y2463916D1*
X3358137Y2478275D2*
X3356678Y2473964D1*
X3353826Y2471079D1*
X3349515Y2469653D1*
X3348089D1*
X3343778Y2471079D1*
X3340926Y2473964D1*
X3339467Y2478275D1*
Y2479701D1*
X3340926Y2484012D1*
X3343778Y2486864D1*
X3348089Y2488290D1*
X3349515D1*
X3353826Y2486864D1*
X3356678Y2484012D1*
X3358137Y2478275D1*
Y2471079D1*
X3356678Y2463916D1*
X3353826Y2459605D1*
X3349515Y2458179D1*
X3346663D1*
X3342352Y2459605D1*
X3340926Y2462490D1*
X3139125Y2469912D2*
X3109014Y2469913D1*
X3129077Y2455554D1*
Y2477075D1*
X3114751Y2486339D2*
X3113292Y2489224D1*
X3109014Y2493535D1*
X3139125D1*
X3239086Y2469912D2*
X3208975Y2469913D1*
X3229038Y2455554D1*
Y2477075D1*
X3208975Y2494961D2*
X3210401Y2490650D1*
X3214712Y2487765D1*
X3221875Y2486339D1*
X3226186D1*
X3233349Y2487765D1*
X3237660Y2490650D1*
X3239086Y2494961D1*
Y2497813D1*
X3237660Y2502124D1*
X3233349Y2504976D1*
X3226186Y2506435D1*
X3221875D1*
X3214712Y2504976D1*
X3210401Y2502124D1*
X3208975Y2497813D1*
Y2494961D1*
X3214712Y2504976D2*
X3233349Y2487765D1*
X1864913Y1975751D2*
X1850587D1*
X1849161Y1962851D1*
X1850587Y1964277D1*
X1854898Y1965736D1*
X1859176D1*
X1863487Y1964277D1*
X1866372Y1961425D1*
X1867798Y1957114D1*
Y1954262D1*
X1866372Y1949951D1*
X1863487Y1947066D1*
X1859176Y1945640D1*
X1854898D1*
X1850587Y1947066D1*
X1849161Y1948525D1*
X1847702Y1951377D1*
X1877061Y1975784D2*
X1888535Y1945640D1*
X1900009Y1975784D1*
X1947662D2*
Y1945640D1*
X1957710D1*
X1962021Y1947099D1*
X1964906Y1949951D1*
X1966332Y1952836D1*
X1967758Y1957114D1*
Y1964310D1*
X1966332Y1968621D1*
X1964906Y1971473D1*
X1962021Y1974358D1*
X1957710Y1975784D1*
X1947662D1*
X1999970Y1945640D2*
Y1975784D1*
X1988496Y1945640D1*
X1977022Y1975784D1*
Y1945640D1*
X2047622Y1975784D2*
Y1945640D1*
X2057670D1*
X2061981Y1947099D1*
X2064866Y1949951D1*
X2066292Y1952836D1*
X2067718Y1957114D1*
Y1964310D1*
X2066292Y1968621D1*
X2064866Y1971473D1*
X2061981Y1974358D1*
X2057670Y1975784D1*
X2047622D1*
X2076981Y1959999D2*
X2089914D1*
X2094192Y1961425D1*
X2095651Y1962884D1*
X2097077Y1965736D1*
Y1970047D1*
X2095651Y1972899D1*
X2094192Y1974358D1*
X2089914Y1975784D1*
X2076981D1*
Y1945640D1*
X2169104Y1968621D2*
X2167678Y1971473D1*
X2164793Y1974358D1*
X2161941Y1975784D1*
X2156204D1*
X2153319Y1974358D1*
X2150467Y1971473D1*
X2149008Y1968621D1*
X2147582Y1964310D1*
Y1957114D1*
X2149008Y1952836D1*
X2150467Y1949951D1*
X2153319Y1947099D1*
X2156204Y1945640D1*
X2161941D1*
X2164793Y1947099D1*
X2167678Y1949951D1*
X2169104Y1952836D1*
Y1957114D1*
X2161941D1*
X2198464Y1975784D2*
Y1945640D1*
X2178368Y1975784D1*
Y1945640D1*
X2207727Y1975784D2*
Y1945640D1*
X2217775D1*
X2222086Y1947099D1*
X2224971Y1949951D1*
X2226397Y1952836D1*
X2227823Y1957114D1*
Y1964310D1*
X2226397Y1968621D1*
X2224971Y1971473D1*
X2222086Y1974358D1*
X2217775Y1975784D1*
X2207727D1*
X2281560Y1968621D2*
X2280134Y1971473D1*
X2277249Y1974358D1*
X2274397Y1975784D1*
X2268660D1*
X2265775Y1974358D1*
X2262923Y1971473D1*
X2261464Y1968621D1*
X2260038Y1964310D1*
Y1957114D1*
X2261464Y1952836D1*
X2262923Y1949951D1*
X2265775Y1947099D1*
X2268660Y1945640D1*
X2274397D1*
X2277249Y1947099D1*
X2280134Y1949951D1*
X2281560Y1952836D1*
Y1957114D1*
X2274397D1*
X2310919Y1975784D2*
Y1945640D1*
X2290823Y1975784D1*
Y1945640D1*
X2320183Y1975784D2*
Y1945640D1*
X2330231D1*
X2334542Y1947099D1*
X2337427Y1949951D1*
X2338853Y1952836D1*
X2340279Y1957114D1*
Y1964310D1*
X2338853Y1968621D1*
X2337427Y1971473D1*
X2334542Y1974358D1*
X2330231Y1975784D1*
X2320183D1*
X2733111Y2070461D2*
D80*
Y1990077D1*
X2706316Y2070461D2*
X2759905D1*
X2784608Y2020674D2*
X2830504D1*
Y2028367D1*
X2826702Y2036061D1*
X2822899Y2039863D1*
X2815205Y2043666D1*
X2803709D1*
X2796104Y2039863D1*
X2788411Y2032170D1*
X2784608Y2020674D1*
Y2013069D1*
X2788411Y2001573D1*
X2796104Y1993968D1*
X2803709Y1990077D1*
X2815205D1*
X2822899Y1993968D1*
X2830504Y2001573D1*
X2855207Y2020674D2*
X2901103D1*
Y2028367D1*
X2897300Y2036061D1*
X2893498Y2039863D1*
X2885804Y2043666D1*
X2874308D1*
X2866703Y2039863D1*
X2859009Y2032170D1*
X2855207Y2020674D1*
Y2013069D1*
X2859009Y2001573D1*
X2866703Y1993968D1*
X2874308Y1990077D1*
X2885804D1*
X2893498Y1993968D1*
X2901103Y2001573D1*
X2925805Y2043666D2*
Y1990077D1*
Y2028367D2*
X2937302Y2039863D1*
X2944995Y2043666D1*
X2956403D1*
X2964096Y2039863D1*
X2967899Y2028367D1*
Y1990077D1*
X3034695Y2032170D2*
X3030892Y2039863D1*
X3019396Y2043666D1*
X3007900D1*
X2996404Y2039863D1*
X2992602Y2032170D1*
X2996404Y2024565D1*
X3004098Y2020674D1*
X3023199Y2016871D1*
X3030892Y2013069D1*
X3034695Y2005375D1*
Y2001573D1*
X3030892Y1993968D1*
X3019396Y1990077D1*
X3007900D1*
X2996404Y1993968D1*
X2992602Y2001573D1*
X3063289Y2043666D2*
X3086192Y1990077D1*
X3078587Y1974778D1*
X3070894Y1967084D1*
X3063289Y1963282D1*
X3059398D1*
X3109184Y2043666D2*
X3086192Y1990077D1*
X3249939D2*
Y2070372D1*
X3211649Y2016871D1*
X3269041D1*
X3297546Y1997770D2*
X3293743Y1993879D1*
X3297546Y1990077D1*
X3301437Y1993879D1*
X3297546Y1997770D1*
X3326140Y2055074D2*
X3333833Y2058965D1*
X3345329Y2070372D1*
Y1990077D1*
X4158980Y2841891D2*
D81*
X4121640D1*
Y2781603D1*
Y2813173D2*
X4144588D1*
X4223469Y2781603D2*
X4200455Y2841891D1*
X4177507Y2781603D1*
X4186129Y2801699D2*
X4214847D1*
X4282188Y2841891D2*
Y2781603D1*
X4241996Y2841891D1*
Y2781603D1*
X785928Y1275398D2*
D79*
X784502Y1278250D1*
X781617Y1281135D1*
X778765Y1282561D1*
X773028D1*
X770143Y1281135D1*
X767292Y1278250D1*
X765832Y1275398D1*
X764406Y1271087D1*
Y1263891D1*
X765832Y1259613D1*
X767292Y1256728D1*
X770143Y1253876D1*
X773028Y1252417D1*
X778765D1*
X781617Y1253876D1*
X784502Y1256728D1*
X785928Y1259613D1*
Y1263891D1*
X778765D1*
X795192Y1272513D2*
Y1252417D1*
Y1266776D2*
X799503Y1271087D1*
X802388Y1272513D1*
X806666D1*
X809551Y1271087D1*
X810977Y1266776D1*
Y1252417D1*
X837451Y1282561D2*
Y1252417D1*
Y1268202D2*
X834599Y1271087D1*
X831714Y1272513D1*
X827403D1*
X824551Y1271087D1*
X821666Y1268202D1*
X820240Y1263891D1*
Y1261039D1*
X821666Y1256728D1*
X824551Y1253876D1*
X827403Y1252417D1*
X831714D1*
X834599Y1253876D1*
X837451Y1256728D1*
X790394Y870393D2*
X788968Y873245D1*
X786083Y876130D1*
X783231Y877556D1*
X777494D1*
X774609Y876130D1*
X771757Y873245D1*
X770298Y870393D1*
X768872Y866082D1*
Y858886D1*
X770298Y854608D1*
X771757Y851723D1*
X774609Y848871D1*
X777494Y847412D1*
X783231D1*
X786083Y848871D1*
X788968Y851723D1*
X790394Y854608D1*
Y858886D1*
X783231D1*
X799658Y867508D2*
Y847412D1*
Y861771D2*
X803969Y866082D1*
X806854Y867508D1*
X811132D1*
X814017Y866082D1*
X815443Y861771D1*
Y847412D1*
X841917Y877556D2*
Y847412D1*
Y863197D2*
X839065Y866082D1*
X836180Y867508D1*
X831869D1*
X829017Y866082D1*
X826132Y863197D1*
X824706Y858886D1*
Y856034D1*
X826132Y851723D1*
X829017Y848871D1*
X831869Y847412D1*
X836180D1*
X839065Y848871D1*
X841917Y851723D1*
X771825Y967763D2*
Y941930D1*
X758925Y954830D2*
X784758D1*
X796906Y969902D2*
X812658D1*
X804069Y958428D1*
X808380D1*
X811232Y957002D1*
X812658Y955576D1*
X814117Y951265D1*
Y948413D1*
X812658Y944102D1*
X809806Y941217D1*
X805495Y939791D1*
X801184D1*
X796906Y941217D1*
X795480Y942676D1*
X794021Y945528D1*
X824807Y942676D2*
X823381Y941217D1*
X824807Y939791D1*
X826266Y941217D1*
X824807Y942676D1*
X838415Y969902D2*
X854166D1*
X845578Y958428D1*
X849889D1*
X852740Y957002D1*
X854166Y955576D1*
X855626Y951265D1*
Y948413D1*
X854166Y944102D1*
X851314Y941217D1*
X847003Y939791D1*
X842692D1*
X838415Y941217D1*
X836989Y942676D1*
X835530Y945528D1*
X775935Y1377415D2*
Y1351582D1*
X763035Y1364482D2*
X788868D1*
X798132Y1373817D2*
X801017Y1375276D1*
X805328Y1379554D1*
Y1349443D1*
X816050Y1372391D2*
Y1373817D1*
X817476Y1376702D1*
X818902Y1378128D1*
X821787Y1379554D1*
X827524D1*
X830376Y1378128D1*
X831802Y1376702D1*
X833261Y1373817D1*
Y1370965D1*
X831802Y1368080D1*
X828950Y1363802D1*
X814591Y1349443D1*
X834687D1*
X2792777Y2865724D2*
D81*
X2853065D1*
Y2885820D1*
X2850147Y2894442D1*
X2844443Y2900212D1*
X2838673Y2903064D1*
X2830117Y2905916D1*
X2815725D1*
X2807103Y2903064D1*
X2801399Y2900212D1*
X2795629Y2894442D1*
X2792777Y2885820D1*
Y2865724D1*
X2853065Y2970405D2*
X2792777Y2947391D1*
X2853065Y2924443D1*
X2832969Y2933065D2*
Y2961783D1*
X2807103Y3031976D2*
X2801399Y3029124D1*
X2795629Y3023354D1*
X2792777Y3017650D1*
Y3006176D1*
X2795629Y3000406D1*
X2801399Y2994702D1*
X2807103Y2991784D1*
X2815725Y2988932D1*
X2830117D1*
X2838673Y2991784D1*
X2844443Y2994702D1*
X2850147Y3000406D1*
X2853065Y3006176D1*
Y3017650D1*
X2850147Y3023354D1*
X2844443Y3029124D1*
X2838673Y3031976D1*
X2807169Y3111742D2*
X2804317D1*
X2798547Y3114594D1*
X2795695Y3117446D1*
X2792843Y3123216D1*
Y3134690D1*
X2795695Y3140394D1*
X2798547Y3143246D1*
X2804317Y3146164D1*
X2810021D1*
X2815791Y3143246D1*
X2824347Y3137542D1*
X2853065Y3108824D1*
Y3149016D1*
X3140566Y3488926D2*
D79*
X3121896D1*
Y3458782D1*
Y3474567D2*
X3133370D1*
X3149830Y3488926D2*
Y3458782D1*
X3167040D1*
X3186352Y3488926D2*
Y3458782D1*
X3176304Y3488926D2*
X3196400D1*
X3121896Y3388926D2*
Y3358782D1*
X3131944D1*
X3136255Y3360241D1*
X3139140Y3363093D1*
X3140566Y3365978D1*
X3141992Y3370256D1*
Y3377452D1*
X3140566Y3381763D1*
X3139140Y3384615D1*
X3136255Y3387500D1*
X3131944Y3388926D1*
X3121896D1*
X3169892D2*
X3151255D1*
Y3358782D1*
X3169892D1*
X3151255Y3374567D2*
X3162729D1*
X3202104Y3358782D2*
Y3388926D1*
X3190630Y3358782D1*
X3179156Y3388926D1*
Y3358782D1*
X3211367Y3373141D2*
X3224300D1*
X3228578Y3374567D1*
X3230037Y3376026D1*
X3231463Y3378878D1*
Y3383189D1*
X3230037Y3386041D1*
X3228578Y3387500D1*
X3224300Y3388926D1*
X3211367D1*
Y3358782D1*
X3121896Y3288926D2*
X3141992Y3258782D1*
Y3288926D2*
X3121896Y3258782D1*
X3171351Y3284615D2*
X3168500Y3287500D1*
X3164189Y3288926D1*
X3158452D1*
X3154141Y3287500D1*
X3151255Y3284615D1*
Y3281763D1*
X3152715Y3278878D1*
X3154141Y3277452D1*
X3156992Y3276026D1*
X3165615Y3273141D1*
X3168500Y3271715D1*
X3169926Y3270256D1*
X3171351Y3267404D1*
Y3263093D1*
X3168500Y3260241D1*
X3164189Y3258782D1*
X3158452D1*
X3154141Y3260241D1*
X3151255Y3263093D1*
X3203563Y3258782D2*
Y3288926D1*
X3192089Y3258782D1*
X3180615Y3288926D1*
Y3258782D1*
X3222874Y3288926D2*
Y3258782D1*
X3212826Y3288926D2*
X3232923D1*
X3140566Y3188926D2*
X3121896D1*
Y3158782D1*
Y3174567D2*
X3133370D1*
X3172777Y3158782D2*
Y3188926D1*
X3161303Y3158782D1*
X3149830Y3188926D1*
Y3158782D1*
X3192089Y3188926D2*
Y3158782D1*
X3182041Y3188926D2*
X3202137D1*
X3144877Y3058782D2*
X3133370Y3088926D1*
X3121896Y3058782D1*
X3126207Y3068830D2*
X3140566D1*
X3157026Y3088893D2*
X3172777D1*
X3164189Y3077419D1*
X3168500D1*
X3171351Y3075993D1*
X3172777Y3074567D1*
X3174237Y3070256D1*
Y3067404D1*
X3172777Y3063093D1*
X3169926Y3060208D1*
X3165615Y3058782D1*
X3161303D1*
X3157026Y3060208D1*
X3155600Y3061667D1*
X3154141Y3064519D1*
X3183500Y3078878D2*
X3192122Y3058782D1*
X3200711Y3078878D1*
X3212860Y3088893D2*
X3228611D1*
X3220023Y3077419D1*
X3224334D1*
X3227186Y3075993D1*
X3228611Y3074567D1*
X3230071Y3070256D1*
Y3067404D1*
X3228611Y3063093D1*
X3225760Y3060208D1*
X3221449Y3058782D1*
X3217138D1*
X3212860Y3060208D1*
X3211434Y3061667D1*
X3209975Y3064519D1*
X3144877Y2958782D2*
X3133370Y2988926D1*
X3121896Y2958782D1*
X3126207Y2968830D2*
X3140566D1*
X3175663Y2981763D2*
X3174237Y2984615D1*
X3171351Y2987500D1*
X3168500Y2988926D1*
X3162763D1*
X3159878Y2987500D1*
X3157026Y2984615D1*
X3155567Y2981763D1*
X3154141Y2977452D1*
Y2970256D1*
X3155567Y2965978D1*
X3157026Y2963093D1*
X3159878Y2960241D1*
X3162763Y2958782D1*
X3168500D1*
X3171351Y2960241D1*
X3174237Y2963093D1*
X3175663Y2965978D1*
Y2970256D1*
X3168500D1*
X3205022Y2988926D2*
Y2958782D1*
X3184926Y2988926D1*
Y2958782D1*
X3214286Y2988926D2*
Y2958782D1*
X3224334D1*
X3228645Y2960241D1*
X3231530Y2963093D1*
X3232956Y2965978D1*
X3234382Y2970256D1*
Y2977452D1*
X3232956Y2981763D1*
X3231530Y2984615D1*
X3228645Y2987500D1*
X3224334Y2988926D1*
X3214286D1*
X3121896Y2874567D2*
X3134796D1*
X3139107Y2876026D1*
X3140566Y2877452D1*
X3141992Y2880304D1*
Y2883189D1*
X3140566Y2886041D1*
X3139107Y2887500D1*
X3134796Y2888926D1*
X3121896D1*
Y2858782D1*
X3131944Y2874567D2*
X3141992Y2858782D1*
X3159878Y2888926D2*
X3156992Y2887500D1*
X3154141Y2884615D1*
X3152681Y2881763D1*
X3151255Y2877452D1*
Y2870256D1*
X3152681Y2865978D1*
X3154141Y2863093D1*
X3156992Y2860241D1*
X3159878Y2858782D1*
X3165615D1*
X3168466Y2860241D1*
X3171351Y2863093D1*
X3172777Y2865978D1*
X3174203Y2870256D1*
Y2877452D1*
X3172777Y2881763D1*
X3171351Y2884615D1*
X3168466Y2887500D1*
X3165615Y2888926D1*
X3159878D1*
X3183467D2*
Y2867404D1*
X3184893Y2863093D1*
X3187778Y2860241D1*
X3192089Y2858782D1*
X3194941D1*
X3199252Y2860241D1*
X3202137Y2863093D1*
X3203563Y2867404D1*
Y2888926D1*
X3222874D2*
Y2858782D1*
X3212826Y2888926D2*
X3232923D1*
X3144877Y2758782D2*
X3133370Y2788926D1*
X3121896Y2758782D1*
X3126207Y2768830D2*
X3140566D1*
X3175663Y2781763D2*
X3174237Y2784615D1*
X3171351Y2787500D1*
X3168500Y2788926D1*
X3162763D1*
X3159878Y2787500D1*
X3157026Y2784615D1*
X3155567Y2781763D1*
X3154141Y2777452D1*
Y2770256D1*
X3155567Y2765978D1*
X3157026Y2763093D1*
X3159878Y2760241D1*
X3162763Y2758782D1*
X3168500D1*
X3171351Y2760241D1*
X3174237Y2763093D1*
X3175663Y2765978D1*
Y2770256D1*
X3168500D1*
X3205022Y2788926D2*
Y2758782D1*
X3184926Y2788926D1*
Y2758782D1*
X3214286Y2788926D2*
Y2758782D1*
X3224334D1*
X3228645Y2760241D1*
X3231530Y2763093D1*
X3232956Y2765978D1*
X3234382Y2770256D1*
Y2777452D1*
X3232956Y2781763D1*
X3231530Y2784615D1*
X3228645Y2787500D1*
X3224334Y2788926D1*
X3214286D1*
X3121896Y2688926D2*
Y2658782D1*
X3139107D1*
X3148370Y2674567D2*
X3161270D1*
X3165581Y2676026D1*
X3167040Y2677452D1*
X3168466Y2680304D1*
Y2683189D1*
X3167040Y2686041D1*
X3165581Y2687500D1*
X3161270Y2688926D1*
X3148370D1*
Y2658782D1*
X3158418Y2674567D2*
X3168466Y2658782D1*
X3186352Y2688926D2*
X3183467Y2687500D1*
X3180615Y2684615D1*
X3179156Y2681763D1*
X3177730Y2677452D1*
Y2670256D1*
X3179156Y2665978D1*
X3180615Y2663093D1*
X3183467Y2660241D1*
X3186352Y2658782D1*
X3192089D1*
X3194941Y2660241D1*
X3197826Y2663093D1*
X3199252Y2665978D1*
X3200678Y2670256D1*
Y2677452D1*
X3199252Y2681763D1*
X3197826Y2684615D1*
X3194941Y2687500D1*
X3192089Y2688926D1*
X3186352D1*
X3209941D2*
Y2667404D1*
X3211367Y2663093D1*
X3214252Y2660241D1*
X3218563Y2658782D1*
X3221415D1*
X3225726Y2660241D1*
X3228611Y2663093D1*
X3230037Y2667404D1*
Y2688926D1*
X3249349D2*
Y2658782D1*
X3239301Y2688926D2*
X3259397D1*
X2779833Y3551536D2*
X2809977Y3563010D1*
X2779833Y3574484D1*
Y3583748D2*
X2809977D1*
X2779833Y3613107D2*
X2809977D1*
X2779833Y3593011D1*
X2809977D1*
X2887556Y3554388D2*
X2884704Y3552962D1*
X2881819Y3550077D1*
X2880393Y3547225D1*
Y3541488D1*
X2881819Y3538603D1*
X2884704Y3535751D1*
X2887556Y3534292D1*
X2891867Y3532866D1*
X2899063D1*
X2903341Y3534292D1*
X2906226Y3535751D1*
X2909078Y3538603D1*
X2910537Y3541488D1*
Y3547225D1*
X2909078Y3550077D1*
X2906226Y3552962D1*
X2903341Y3554388D1*
X2899063D1*
Y3547225D1*
X2880393Y3583747D2*
X2910537D1*
X2880393Y3563651D1*
X2910537D1*
X2880393Y3593011D2*
X2910537D1*
Y3603059D1*
X2909078Y3607370D1*
X2906226Y3610255D1*
X2903341Y3611681D1*
X2899063Y3613107D1*
X2891867D1*
X2887556Y3611681D1*
X2884704Y3610255D1*
X2881819Y3607370D1*
X2880393Y3603059D1*
Y3593011D1*
X2980953Y3506392D2*
X3011097D1*
Y3523603D1*
X2995313Y3532867D2*
Y3545766D1*
X2993853Y3550077D1*
X2992427Y3551537D1*
X2989576Y3552963D1*
X2986690D1*
X2983839Y3551537D1*
X2982379Y3550077D1*
X2980953Y3545766D1*
Y3532867D1*
X3011097D1*
X2995313Y3542915D2*
X3011097Y3552962D1*
X2988116Y3583748D2*
X2985265Y3582322D1*
X2982379Y3579437D1*
X2980953Y3576585D1*
Y3570848D1*
X2982379Y3567963D1*
X2985265Y3565111D1*
X2988116Y3563652D1*
X2992427Y3562226D1*
X2999624D1*
X3003901Y3563652D1*
X3006786Y3565111D1*
X3009638Y3567963D1*
X3011097Y3570848D1*
Y3576585D1*
X3009638Y3579437D1*
X3006786Y3582322D1*
X3003901Y3583748D1*
X2980953Y3593012D2*
X3011097D1*
X2980953Y3613108D2*
X3001049Y3593012D1*
X2993853Y3600174D2*
X3011097Y3613108D1*
X3081514Y3554388D2*
X3111658D1*
Y3564436D1*
X3110199Y3568747D1*
X3107347Y3571632D1*
X3104462Y3573058D1*
X3100184Y3574484D1*
X3092988D1*
X3088677Y3573058D1*
X3085825Y3571632D1*
X3082940Y3568747D1*
X3081514Y3564436D1*
Y3554388D1*
Y3583748D2*
X3111658D1*
X3081514Y3613107D2*
X3111658D1*
X3081514Y3593011D1*
X3111658D1*
X3182074Y3554387D2*
X3212218D1*
Y3567320D1*
X3210759Y3571631D1*
X3209333Y3573057D1*
X3206481Y3574483D1*
X3202170D1*
X3199285Y3573057D1*
X3197859Y3571631D1*
X3196433Y3567320D1*
X3194974Y3571631D1*
X3193548Y3573057D1*
X3190696Y3574483D1*
X3187811D1*
X3184959Y3573057D1*
X3183500Y3571631D1*
X3182074Y3567320D1*
Y3554387D1*
X3196433D2*
Y3567320D1*
X3189237Y3605268D2*
X3186385Y3603842D1*
X3183500Y3600957D1*
X3182074Y3598105D1*
Y3592368D1*
X3183500Y3589483D1*
X3186385Y3586631D1*
X3189237Y3585172D1*
X3193548Y3583746D1*
X3200744D1*
X3205022Y3585172D1*
X3207907Y3586631D1*
X3210759Y3589483D1*
X3212218Y3592368D1*
Y3598105D1*
X3210759Y3600957D1*
X3207907Y3603842D1*
X3205022Y3605268D1*
X3182074Y3614532D2*
X3212218D1*
X3182074Y3634628D2*
X3202170Y3614532D1*
X3194974Y3621695D2*
X3212218Y3634628D1*
X3286946Y3552962D2*
X3284061Y3550110D1*
X3282635Y3545799D1*
Y3540062D1*
X3284060Y3535751D1*
X3286946Y3532866D1*
X3289797D1*
X3292683Y3534325D1*
X3294108Y3535751D1*
X3295534Y3538603D1*
X3298420Y3547225D1*
X3299846Y3550110D1*
X3301305Y3551536D1*
X3304157Y3552962D1*
X3308468D1*
X3311319Y3550110D1*
X3312779Y3545799D1*
Y3540062D1*
X3311319Y3535751D1*
X3308468Y3532866D1*
X3289798Y3583747D2*
X3286946Y3582321D1*
X3284061Y3579436D1*
X3282635Y3576584D1*
Y3570847D1*
X3284061Y3567962D1*
X3286946Y3565110D1*
X3289798Y3563651D1*
X3294109Y3562225D1*
X3301305D1*
X3305583Y3563651D1*
X3308468Y3565110D1*
X3311319Y3567962D1*
X3312779Y3570847D1*
Y3576584D1*
X3311319Y3579436D1*
X3308468Y3582321D1*
X3305582Y3583747D1*
X3282635Y3593011D2*
X3312779D1*
X3282635Y3613107D2*
X3302731Y3593011D1*
X3295534Y3600174D2*
X3312779Y3613107D1*
X1713775Y3500160D2*
X1743919D1*
Y3513093D1*
X1742460Y3517404D1*
X1741034Y3518830D1*
X1738182Y3520256D1*
X1733871D1*
X1730986Y3518830D1*
X1729560Y3517404D1*
X1728134Y3513093D1*
X1726675Y3517404D1*
X1725249Y3518830D1*
X1722397Y3520256D1*
X1719512D1*
X1716660Y3518830D1*
X1715201Y3517404D1*
X1713775Y3513093D1*
Y3500160D1*
X1728134D2*
Y3513093D1*
X1720938Y3551041D2*
X1718086Y3549615D1*
X1715201Y3546730D1*
X1713775Y3543878D1*
Y3538141D1*
X1715201Y3535256D1*
X1718086Y3532404D1*
X1720938Y3530945D1*
X1725249Y3529519D1*
X1732445D1*
X1736723Y3530945D1*
X1739608Y3532404D1*
X1742460Y3535256D1*
X1743919Y3538141D1*
Y3543878D1*
X1742460Y3546730D1*
X1739608Y3549615D1*
X1736723Y3551041D1*
X1713775Y3560305D2*
X1743919D1*
X1713775Y3580401D2*
X1733871Y3560305D1*
X1726675Y3567468D2*
X1743919Y3580401D1*
X1813775Y3507355D2*
X1815201Y3504470D1*
X1818086Y3501618D1*
X1820938Y3500159D1*
X1825249Y3498733D1*
X1832445D1*
X1836723Y3500159D1*
X1839608Y3501618D1*
X1842460Y3504470D1*
X1843919Y3507355D1*
Y3513092D1*
X1842460Y3515944D1*
X1839608Y3518829D1*
X1836723Y3520255D1*
X1832445Y3521681D1*
X1825249D1*
X1820938Y3520255D1*
X1818086Y3518829D1*
X1815201Y3515944D1*
X1813775Y3513092D1*
Y3507355D1*
Y3530945D2*
X1835297D1*
X1839608Y3532371D1*
X1842460Y3535256D1*
X1843919Y3539567D1*
Y3542419D1*
X1842460Y3546730D1*
X1839608Y3549615D1*
X1835297Y3551041D1*
X1813775D1*
Y3570352D2*
X1843919D1*
X1813775Y3560304D2*
Y3580400D1*
X1913775Y3503044D2*
X1943919D1*
Y3520255D1*
X1928134Y3529519D2*
Y3542419D1*
X1926675Y3546730D1*
X1925249Y3548189D1*
X1922397Y3549615D1*
X1919512D1*
X1916660Y3548189D1*
X1915201Y3546730D1*
X1913775Y3542419D1*
Y3529519D1*
X1943919D1*
X1928134Y3539567D2*
X1943919Y3549615D1*
X1920938Y3580400D2*
X1918086Y3578974D1*
X1915201Y3576089D1*
X1913775Y3573237D1*
Y3567500D1*
X1915201Y3564615D1*
X1918086Y3561763D1*
X1920938Y3560304D1*
X1925249Y3558878D1*
X1932445D1*
X1936723Y3560304D1*
X1939608Y3561763D1*
X1942460Y3564615D1*
X1943919Y3567500D1*
Y3573237D1*
X1942460Y3576089D1*
X1939608Y3578974D1*
X1936723Y3580400D1*
X2018086Y3537769D2*
X2015201Y3534917D1*
X2013775Y3530606D1*
Y3524869D1*
X2015201Y3520558D1*
X2018086Y3517673D1*
X2020938D1*
X2023823Y3519132D1*
X2025249Y3520558D1*
X2026675Y3523410D1*
X2029560Y3532032D1*
X2030986Y3534917D1*
X2032445Y3536343D1*
X2035297Y3537769D1*
X2039608D1*
X2042460Y3534917D1*
X2043919Y3530606D1*
Y3524869D1*
X2042460Y3520558D1*
X2039608Y3517673D1*
X2020938Y3568554D2*
X2018086Y3567128D1*
X2015201Y3564243D1*
X2013775Y3561391D1*
Y3555655D1*
X2015201Y3552769D1*
X2018086Y3549918D1*
X2020938Y3548458D1*
X2025249Y3547032D1*
X2032445D1*
X2036723Y3548458D1*
X2039608Y3549917D1*
X2042460Y3552769D1*
X2043919Y3555654D1*
Y3561391D1*
X2042460Y3564243D1*
X2039608Y3567128D1*
X2036723Y3568554D1*
X2013775Y3577818D2*
X2043919D1*
X2013775Y3597914D2*
X2033871Y3577818D1*
X2026675Y3584981D2*
X2043919Y3597914D1*
X2125316Y3541385D2*
X2122464Y3539959D1*
X2119579Y3537074D1*
X2118153Y3534222D1*
Y3528485D1*
X2119579Y3525600D1*
X2122464Y3522748D1*
X2125316Y3521289D1*
X2129627Y3519863D1*
X2136823D1*
X2141101Y3521289D1*
X2143986Y3522748D1*
X2146838Y3525600D1*
X2148297Y3528485D1*
Y3534222D1*
X2146838Y3537074D1*
X2143986Y3539959D1*
X2141101Y3541385D1*
X2136823D1*
Y3534222D1*
X2118153Y3570745D2*
X2148297D1*
X2118153Y3550649D1*
X2148297D1*
X2118153Y3580008D2*
X2148297D1*
Y3590056D1*
X2146838Y3594367D1*
X2143986Y3597252D1*
X2141101Y3598678D1*
X2136823Y3600104D1*
X2129627D1*
X2125316Y3598678D1*
X2122464Y3597252D1*
X2119579Y3594367D1*
X2118153Y3590056D1*
Y3580008D1*
X2213808Y3521681D2*
Y3537433D1*
X2225282Y3528844D1*
Y3533155D1*
X2226708Y3536007D1*
X2228134Y3537433D1*
X2232445Y3538892D1*
X2235297D1*
X2239608Y3537433D1*
X2242493Y3534581D1*
X2243919Y3530270D1*
Y3525959D1*
X2242493Y3521681D1*
X2241034Y3520255D1*
X2238182Y3518796D1*
X2241034Y3549582D2*
X2242493Y3548156D1*
X2243919Y3549582D1*
X2242493Y3551041D1*
X2241034Y3549582D1*
X2213808Y3563190D2*
Y3578941D1*
X2225282Y3570352D1*
Y3574663D1*
X2226708Y3577515D1*
X2228134Y3578941D1*
X2232445Y3580400D1*
X2235297D1*
X2239608Y3578941D1*
X2242493Y3576089D1*
X2243919Y3571778D1*
Y3567467D1*
X2242493Y3563189D1*
X2241034Y3561763D1*
X2238182Y3560304D1*
X1709499Y2754731D2*
Y2736061D1*
X1739643D1*
X1723858D2*
Y2747535D1*
X1739643Y2786943D2*
X1709499D1*
X1739643Y2775469D1*
X1709499Y2763995D1*
X1739643D1*
X1709499Y2796206D2*
X1723858Y2807680D1*
X1739643D1*
X1709499Y2819154D2*
X1723858Y2807680D1*
X1839643Y2759009D2*
X1809499D1*
X1839643Y2747535D1*
X1809499Y2736061D1*
X1839643D1*
X1809499Y2768273D2*
X1839643D1*
Y2778321D1*
X1838184Y2782632D1*
X1835332Y2785517D1*
X1832447Y2786943D1*
X1828169Y2788369D1*
X1820973D1*
X1816662Y2786943D1*
X1813810Y2785517D1*
X1810925Y2782632D1*
X1809499Y2778321D1*
Y2768273D1*
X1815270Y2797632D2*
X1813810Y2800517D1*
X1809533Y2804828D1*
X1839643D1*
X1939643Y2759009D2*
X1909499D1*
X1939643Y2747535D1*
X1909499Y2736061D1*
X1939643D1*
X1909499Y2768273D2*
X1939643D1*
Y2778321D1*
X1938184Y2782632D1*
X1935332Y2785517D1*
X1932447Y2786943D1*
X1928169Y2788369D1*
X1920973D1*
X1916662Y2786943D1*
X1913810Y2785517D1*
X1910925Y2782632D1*
X1909499Y2778321D1*
Y2768273D1*
X1909533Y2806254D2*
X1910959Y2801943D1*
X1915270Y2799058D1*
X1922432Y2797632D1*
X1926744D1*
X1933906Y2799058D1*
X1938217Y2801943D1*
X1939643Y2806254D1*
Y2809106D1*
X1938217Y2813417D1*
X1933906Y2816269D1*
X1926743Y2817728D1*
X1922432D1*
X1915270Y2816269D1*
X1910959Y2813417D1*
X1909533Y2809106D1*
Y2806254D1*
X1915270Y2816269D2*
X1933906Y2799058D1*
X2016662Y2757583D2*
X2013810Y2756157D1*
X2010925Y2753272D1*
X2009499Y2750420D1*
Y2744683D1*
X2010925Y2741798D1*
X2013810Y2738946D1*
X2016662Y2737487D1*
X2020973Y2736061D1*
X2028169D1*
X2032447Y2737487D1*
X2035332Y2738946D1*
X2038184Y2741798D1*
X2039643Y2744683D1*
Y2750420D1*
X2038184Y2753272D1*
X2035332Y2756157D1*
X2032447Y2757583D1*
X2028169D1*
Y2750420D1*
X2009499Y2786943D2*
X2039643D1*
X2009499Y2766847D1*
X2039643D1*
X2009499Y2796206D2*
X2039643D1*
Y2806254D1*
X2038184Y2810565D1*
X2035332Y2813450D1*
X2032447Y2814876D1*
X2028169Y2816302D1*
X2020973D1*
X2016662Y2814876D1*
X2013810Y2813450D1*
X2010925Y2810565D1*
X2009499Y2806254D1*
Y2796206D1*
X2109533Y2738946D2*
Y2754698D1*
X2121007Y2746109D1*
Y2750420D1*
X2122432Y2753272D1*
X2123858Y2754698D1*
X2128169Y2756157D1*
X2131021D1*
X2135332Y2754698D1*
X2138217Y2751846D1*
X2139643Y2747535D1*
Y2743224D1*
X2138217Y2738946D1*
X2136758Y2737521D1*
X2133906Y2736061D1*
X2136758Y2766847D2*
X2138217Y2765421D1*
X2139643Y2766847D1*
X2138217Y2768306D1*
X2136758Y2766847D1*
X2109533Y2780455D2*
Y2796206D1*
X2121007Y2787617D1*
Y2791929D1*
X2122432Y2794780D1*
X2123858Y2796206D1*
X2128169Y2797665D1*
X2131021D1*
X2135332Y2796206D1*
X2138217Y2793354D1*
X2139643Y2789043D1*
Y2784732D1*
X2138217Y2780455D1*
X2136758Y2779029D1*
X2133906Y2777569D1*
X2209533Y2753272D2*
Y2738946D1*
X2222432Y2737521D1*
X2221006Y2738946D1*
X2219547Y2743258D1*
Y2747535D1*
X2221007Y2751846D1*
X2223858Y2754731D1*
X2228169Y2756157D1*
X2231021D1*
X2235332Y2754731D1*
X2238217Y2751846D1*
X2239643Y2747535D1*
Y2743257D1*
X2238217Y2738946D1*
X2236758Y2737521D1*
X2233906Y2736061D1*
X2209499Y2765421D2*
X2239643Y2776895D1*
X2209499Y2788369D1*
X1408960Y3071571D2*
X1421860D1*
X1426171Y3073030D1*
X1427630Y3074456D1*
X1429056Y3077308D1*
Y3080193D1*
X1427630Y3083045D1*
X1426171Y3084504D1*
X1421860Y3085930D1*
X1408960D1*
Y3055786D1*
X1419008Y3071571D2*
X1429056Y3055786D1*
X1438320Y3050812D2*
X1465579D1*
X1474842Y3085930D2*
Y3055786D1*
X1504202Y3085930D2*
Y3055786D1*
X1484106Y3085930D1*
Y3055786D1*
X1436386Y3159134D2*
X1434960Y3161986D1*
X1432075Y3164871D1*
X1429223Y3166297D1*
X1423486D1*
X1420601Y3164871D1*
X1417750Y3161986D1*
X1416290Y3159134D1*
X1414864Y3154823D1*
Y3147627D1*
X1416290Y3143349D1*
X1417750Y3140464D1*
X1420601Y3137612D1*
X1423486Y3136153D1*
X1429223D1*
X1432075Y3137612D1*
X1434960Y3140464D1*
X1436386Y3143349D1*
Y3147627D1*
X1429223D1*
X1465746Y3166297D2*
Y3136153D1*
X1445650Y3166297D1*
Y3136153D1*
X1475009Y3166297D2*
Y3136153D1*
X1485057D1*
X1489369Y3137612D1*
X1492254Y3140464D1*
X1493680Y3143349D1*
X1495106Y3147627D1*
Y3154823D1*
X1493680Y3159134D1*
X1492254Y3161986D1*
X1489369Y3164871D1*
X1485057Y3166297D1*
X1475009D1*
X1412077Y3277742D2*
Y3247598D1*
X1429288D1*
X1438552Y3242624D2*
X1465810D1*
X1475074Y3277742D2*
Y3247598D1*
X1504434Y3277742D2*
Y3247598D1*
X1484338Y3277742D1*
Y3247598D1*
X2937083Y2862452D2*
D81*
Y2888318D1*
X2934231Y2896874D1*
X2931313Y2899792D1*
X2925609Y2902644D1*
X2916987D1*
X2911283Y2899792D1*
X2908365Y2896874D1*
X2905513Y2888318D1*
Y2862452D1*
X2965801D1*
X2919839Y2964215D2*
X2914135Y2961363D1*
X2908365Y2955593D1*
X2905513Y2949889D1*
Y2938415D1*
X2908365Y2932645D1*
X2914135Y2926941D1*
X2919839Y2924023D1*
X2928461Y2921171D1*
X2942853D1*
X2951409Y2924023D1*
X2957179Y2926941D1*
X2962883Y2932645D1*
X2965801Y2938415D1*
Y2949889D1*
X2962883Y2955593D1*
X2957179Y2961363D1*
X2951409Y2964215D1*
X2965801Y3028638D2*
X2905513D1*
X2965801Y3005690D1*
X2905513Y2982742D1*
X2965801D1*
X2905580Y3081587D2*
Y3052935D1*
X2931379Y3050083D1*
X2928527Y3052935D1*
X2925609Y3061557D1*
Y3070113D1*
X2928527Y3078735D1*
X2934231Y3084505D1*
X2942853Y3087357D1*
X2948557D1*
X2957179Y3084505D1*
X2962949Y3078735D1*
X2965801Y3070113D1*
Y3061557D1*
X2962949Y3052935D1*
X2960031Y3050083D1*
X2954327Y3047165D1*
X2917053Y3105884D2*
X2914135Y3111654D1*
X2905580Y3120276D1*
X2965801D1*
X2905580Y3156047D2*
X2908431Y3147425D1*
X2917053Y3141655D1*
X2931379Y3138803D1*
X2940001D1*
X2954327Y3141655D1*
X2962949Y3147425D1*
X2965801Y3156047D1*
Y3161751D1*
X2962949Y3170373D1*
X2954327Y3176077D1*
X2940001Y3178995D1*
X2931379D1*
X2917053Y3176077D1*
X2908431Y3170373D1*
X2905580Y3161751D1*
Y3156047D1*
X2917053Y3176077D2*
X2954327Y3141655D1*
X2919905Y3200441D2*
X2917053D1*
X2911283Y3203293D1*
X2908431Y3206145D1*
X2905580Y3211915D1*
Y3223389D1*
X2908431Y3229092D1*
X2911283Y3231944D1*
X2917053Y3234863D1*
X2922757D1*
X2928527Y3231944D1*
X2937083Y3226241D1*
X2965801Y3197522D1*
Y3237714D1*
X1756810Y3198527D2*
X1782676D1*
X1791232Y3201379D1*
X1794150Y3204297D1*
X1797002Y3210001D1*
Y3218623D1*
X1794150Y3224327D1*
X1791232Y3227245D1*
X1782676Y3230097D1*
X1756810D1*
Y3169809D1*
X1858573Y3215771D2*
X1855721Y3221475D1*
X1849951Y3227245D1*
X1844247Y3230097D1*
X1832773D1*
X1827003Y3227245D1*
X1821299Y3221475D1*
X1818381Y3215771D1*
X1815529Y3207149D1*
Y3192757D1*
X1818381Y3184201D1*
X1821299Y3178431D1*
X1827003Y3172727D1*
X1832773Y3169809D1*
X1844247D1*
X1849951Y3172727D1*
X1855721Y3178431D1*
X1858573Y3184201D1*
X1922996Y3169809D2*
Y3230097D1*
X1900048Y3169809D1*
X1877100Y3230097D1*
Y3169809D1*
X1941523Y3218557D2*
X1947293Y3221475D1*
X1955915Y3230031D1*
Y3169809D1*
X1988768Y3230031D2*
X1980213Y3227179D1*
X1977294Y3221475D1*
Y3215705D1*
X1980213Y3210001D1*
X1985917Y3207083D1*
X1997390Y3204231D1*
X2006013Y3201379D1*
X2011716Y3195609D1*
X2014568Y3189905D1*
Y3181283D1*
X2011716Y3175579D1*
X2008864Y3172661D1*
X2000242Y3169809D1*
X1988768D1*
X1980213Y3172661D1*
X1977294Y3175579D1*
X1974443Y3181283D1*
Y3189905D1*
X1977294Y3195609D1*
X1983065Y3201379D1*
X1991620Y3204231D1*
X2003094Y3207083D1*
X2008864Y3210001D1*
X2011716Y3215705D1*
Y3221475D1*
X2008864Y3227179D1*
X2000242Y3230031D1*
X1988768D1*
X2050339D2*
X2041717Y3227179D1*
X2035947Y3218557D1*
X2033095Y3204231D1*
Y3195609D1*
X2035947Y3181283D1*
X2041717Y3172661D1*
X2050339Y3169809D1*
X2056043D1*
X2064665Y3172661D1*
X2070369Y3181283D1*
X2073287Y3195609D1*
Y3204231D1*
X2070369Y3218557D1*
X2064665Y3227179D1*
X2056043Y3230031D1*
X2050339D1*
X2070369Y3218557D2*
X2035947Y3181283D1*
X2106140Y3230031D2*
X2097585Y3227179D1*
X2094666Y3221475D1*
Y3215705D1*
X2097585Y3210001D1*
X2103288Y3207083D1*
X2114762Y3204231D1*
X2123384Y3201379D1*
X2129088Y3195609D1*
X2131940Y3189905D1*
Y3181283D1*
X2129088Y3175579D1*
X2126236Y3172661D1*
X2117614Y3169809D1*
X2106140D1*
X2097585Y3172661D1*
X2094666Y3175579D1*
X2091814Y3181283D1*
Y3189905D1*
X2094666Y3195609D1*
X2100436Y3201379D1*
X2108992Y3204231D1*
X2120466Y3207083D1*
X2126236Y3210001D1*
X2129088Y3215705D1*
Y3221475D1*
X2126236Y3227179D1*
X2117614Y3230031D1*
X2106140D1*
X1860896Y3052033D2*
X1837882Y3112321D1*
X1814934Y3052033D1*
X1823556Y3072129D2*
X1852274D1*
X1922467Y3097996D2*
X1919615Y3103699D1*
X1913845Y3109470D1*
X1908141Y3112321D1*
X1896667D1*
X1890897Y3109470D1*
X1885193Y3103699D1*
X1882275Y3097996D1*
X1879423Y3089374D1*
Y3074981D1*
X1882275Y3066426D1*
X1885193Y3060656D1*
X1890897Y3054952D1*
X1896667Y3052033D1*
X1908141D1*
X1913845Y3054952D1*
X1919615Y3060656D1*
X1922467Y3066426D1*
X1940994Y3112321D2*
Y3052033D1*
X1961090D1*
X1969712Y3054952D1*
X1975482Y3060656D1*
X1978334Y3066426D1*
X1981186Y3074981D1*
Y3089374D1*
X1978334Y3097996D1*
X1975482Y3103699D1*
X1969712Y3109470D1*
X1961090Y3112321D1*
X1940994D1*
X2060952Y3097929D2*
Y3100781D1*
X2063804Y3106551D1*
X2066656Y3109403D1*
X2072426Y3112255D1*
X2083900D1*
X2089604Y3109403D1*
X2092456Y3106551D1*
X2095374Y3100781D1*
Y3095077D1*
X2092456Y3089307D1*
X2086752Y3080752D1*
X2058034Y3052033D1*
X2098226D1*
X657783Y3209937D2*
D79*
X670683D1*
X674994Y3211396D1*
X676453Y3212822D1*
X677879Y3215674D1*
Y3218559D1*
X676453Y3221411D1*
X674994Y3222870D1*
X670683Y3224296D1*
X657783D1*
Y3194152D1*
X667831Y3209937D2*
X677879Y3194152D1*
X687143Y3205626D2*
X704354D1*
Y3208511D1*
X702928Y3211396D1*
X701502Y3212822D1*
X698617Y3214248D1*
X694306D1*
X691454Y3212822D1*
X688569Y3209937D1*
X687143Y3205626D1*
Y3202774D1*
X688569Y3198463D1*
X691454Y3195611D1*
X694306Y3194152D1*
X698617D1*
X701502Y3195611D1*
X704354Y3198463D1*
X730861Y3209937D2*
X727976Y3212822D1*
X725091Y3214248D1*
X720813D1*
X717928Y3212822D1*
X715076Y3209937D1*
X713617Y3205626D1*
Y3202774D1*
X715076Y3198463D1*
X717928Y3195611D1*
X720813Y3194152D1*
X725091D1*
X727976Y3195611D1*
X730861Y3198463D1*
X769285Y3224296D2*
Y3194152D1*
X834968Y3214248D2*
X833509D1*
X832083Y3212789D1*
X830657Y3209937D1*
X827772Y3202774D1*
X824920Y3198463D1*
X822068Y3195578D1*
X819183Y3194152D1*
X813446D1*
X810595Y3195578D1*
X809135Y3197037D1*
X807709Y3199889D1*
Y3202774D1*
X809135Y3205626D1*
X810595Y3207052D1*
X820609Y3212789D1*
X822068Y3214248D1*
X823494Y3217100D1*
Y3219985D1*
X822068Y3222837D1*
X819183Y3224263D1*
X816332Y3222837D1*
X814872Y3219985D1*
Y3217100D1*
X816332Y3212789D1*
X819183Y3208511D1*
X826346Y3198463D1*
X829231Y3195578D1*
X832083Y3194152D1*
X834968D1*
X882015Y3224296D2*
X879163Y3222903D1*
X876278Y3220018D1*
X874852Y3217133D1*
X873393Y3212822D1*
Y3205659D1*
X874852Y3201348D1*
X876278Y3198496D1*
X879163Y3195611D1*
X882015Y3194185D1*
X887752D1*
X890637Y3195611D1*
X893489Y3198496D1*
X894914Y3201348D1*
X896374Y3205659D1*
Y3212822D1*
X894914Y3217133D1*
X893489Y3220018D1*
X890637Y3222903D1*
X887752Y3224296D1*
X882015D1*
X886326Y3199922D2*
X894914Y3191300D1*
X803812Y3679981D2*
X802386Y3682833D1*
X799501Y3685718D1*
X796649Y3687144D1*
X790912D1*
X788027Y3685718D1*
X785175Y3682833D1*
X783716Y3679981D1*
X782290Y3675670D1*
Y3668474D1*
X783716Y3664196D1*
X785175Y3661311D1*
X788027Y3658459D1*
X790912Y3657000D1*
X796649D1*
X799501Y3658459D1*
X802386Y3661311D1*
X803812Y3664196D1*
Y3668474D1*
X796649D1*
X813075Y3677096D2*
Y3657000D1*
Y3671359D2*
X817386Y3675670D1*
X820271Y3677096D1*
X824549D1*
X827434Y3675670D1*
X828860Y3671359D1*
Y3657000D1*
X855335Y3687144D2*
Y3657000D1*
Y3672785D2*
X852483Y3675670D1*
X849598Y3677096D1*
X845287D1*
X842435Y3675670D1*
X839550Y3672785D1*
X838124Y3668474D1*
Y3665622D1*
X839550Y3661311D1*
X842435Y3658459D1*
X845287Y3657000D1*
X849598D1*
X852483Y3658459D1*
X855335Y3661311D1*
X656304Y2703072D2*
X637668D1*
Y2672928D1*
X656304D1*
X637668Y2688712D2*
X649142D1*
X665568Y2693024D2*
X681353Y2672928D1*
Y2693024D2*
X665568Y2672928D1*
X707861Y2688712D2*
X704976Y2691598D1*
X702091Y2693024D1*
X697813D1*
X694928Y2691598D1*
X692076Y2688712D1*
X690617Y2684401D1*
Y2681550D1*
X692076Y2677239D1*
X694928Y2674387D1*
X697813Y2672928D1*
X702091D1*
X704976Y2674387D1*
X707861Y2677239D1*
X717124Y2703072D2*
X718550Y2701646D1*
X720009Y2703072D1*
X718550Y2704531D1*
X717124Y2703072D1*
X718550Y2693024D2*
Y2672928D1*
X733584Y2703072D2*
Y2678664D1*
X735010Y2674387D1*
X737895Y2672928D1*
X740747D1*
X729273Y2693024D2*
X739321D1*
X750010Y2684401D2*
X767221D1*
Y2687287D1*
X765795Y2690172D1*
X764369Y2691598D1*
X761484Y2693024D1*
X757173D1*
X754321Y2691598D1*
X751436Y2688712D1*
X750010Y2684401D1*
Y2681550D1*
X751436Y2677239D1*
X754321Y2674387D1*
X757173Y2672928D1*
X761484D1*
X764369Y2674387D1*
X767221Y2677239D1*
X805645Y2703072D2*
Y2672928D1*
X871328Y2693024D2*
X869869D1*
X868443Y2691564D1*
X867017Y2688712D1*
X864132Y2681550D1*
X861280Y2677239D1*
X858429Y2674353D1*
X855543Y2672928D1*
X849806D1*
X846955Y2674353D1*
X845495Y2675813D1*
X844070Y2678664D1*
Y2681550D1*
X845495Y2684401D1*
X846955Y2685827D1*
X856969Y2691564D1*
X858429Y2693024D1*
X859854Y2695875D1*
Y2698760D1*
X858429Y2701612D1*
X855543Y2703038D1*
X852692Y2701612D1*
X851232Y2698760D1*
Y2695875D1*
X852692Y2691564D1*
X855543Y2687287D1*
X862706Y2677239D1*
X865591Y2674353D1*
X868443Y2672928D1*
X871328D1*
X918375Y2703072D2*
X915523Y2701679D1*
X912638Y2698794D1*
X911212Y2695909D1*
X909753Y2691598D1*
Y2684435D1*
X911212Y2680124D1*
X912638Y2677272D1*
X915523Y2674387D1*
X918375Y2672961D1*
X924112D1*
X926997Y2674387D1*
X929849Y2677272D1*
X931275Y2680124D1*
X932734Y2684435D1*
Y2691598D1*
X931275Y2695909D1*
X929849Y2698794D1*
X926997Y2701679D1*
X924112Y2703072D1*
X918375D1*
X922686Y2678698D2*
X931275Y2670076D1*
X1212844Y2823330D2*
Y2853474D1*
X1201370Y2823330D1*
X1189896Y2853474D1*
Y2823330D1*
X1222107Y2853474D2*
X1223533Y2852048D1*
X1224992Y2853474D1*
X1223533Y2854934D1*
X1222107Y2853474D1*
X1223533Y2843426D2*
Y2823330D1*
X1251500Y2839115D2*
X1248615Y2842000D1*
X1245730Y2843426D1*
X1241452D1*
X1238567Y2842000D1*
X1235715Y2839115D1*
X1234256Y2834804D1*
Y2831952D1*
X1235715Y2827641D1*
X1238567Y2824790D1*
X1241452Y2823330D1*
X1245730D1*
X1248615Y2824790D1*
X1251500Y2827641D1*
X1311446Y2846311D2*
X1310020Y2849163D1*
X1307135Y2852048D1*
X1304283Y2853474D1*
X1298546D1*
X1295661Y2852048D1*
X1292809Y2849163D1*
X1291350Y2846311D1*
X1289924Y2842000D1*
Y2834804D1*
X1291350Y2830526D1*
X1292809Y2827641D1*
X1295661Y2824790D1*
X1298546Y2823330D1*
X1304283D1*
X1307135Y2824790D1*
X1310020Y2827641D1*
X1311446Y2830526D1*
Y2834804D1*
X1304283D1*
X1320710Y2843426D2*
Y2823330D1*
Y2837689D2*
X1325021Y2842000D1*
X1327906Y2843426D1*
X1332184D1*
X1335069Y2842000D1*
X1336495Y2837689D1*
Y2823330D1*
X1362969Y2853474D2*
Y2823330D1*
Y2839115D2*
X1360117Y2842000D1*
X1357232Y2843426D1*
X1352921D1*
X1350069Y2842000D1*
X1347184Y2839115D1*
X1345758Y2834804D1*
Y2831952D1*
X1347184Y2827641D1*
X1350069Y2824790D1*
X1352921Y2823330D1*
X1357232D1*
X1360117Y2824790D1*
X1362969Y2827641D1*
X773749Y3892402D2*
Y3862258D1*
X793845Y3892402D2*
X773749Y3872306D1*
X780912Y3879502D2*
X793845Y3862258D1*
X803109Y3873732D2*
X820319D1*
Y3876617D1*
X818893Y3879502D1*
X817468Y3880928D1*
X814582Y3882354D1*
X810271D1*
X807420Y3880928D1*
X804534Y3878043D1*
X803109Y3873732D1*
Y3870880D1*
X804534Y3866569D1*
X807420Y3863717D1*
X810271Y3862258D1*
X814582D1*
X817468Y3863717D1*
X820319Y3866569D1*
X831042Y3882354D2*
X839631Y3862258D1*
X836779Y3856521D1*
X833894Y3853636D1*
X831042Y3852210D1*
X829583D1*
X848253Y3882354D2*
X839631Y3862258D1*
X873302Y3878043D2*
X871876Y3880928D1*
X867565Y3882354D1*
X863254D1*
X858943Y3880928D1*
X857517Y3878043D1*
X858943Y3875191D1*
X861828Y3873732D1*
X868991Y3872306D1*
X871876Y3870880D1*
X873302Y3867995D1*
Y3866569D1*
X871876Y3863717D1*
X867565Y3862258D1*
X863254D1*
X858943Y3863717D1*
X857517Y3866569D1*
X771681Y3778710D2*
X784614D1*
X788892Y3780136D1*
X790351Y3781595D1*
X791777Y3784447D1*
Y3788758D1*
X790351Y3791610D1*
X788892Y3793069D1*
X784614Y3794495D1*
X771681D1*
Y3764351D1*
X811088Y3794495D2*
Y3764351D1*
X801040Y3794495D2*
X821136D1*
X840448D2*
Y3764351D1*
X830400Y3794495D2*
X850496D1*
X927174Y3799082D2*
Y3768938D1*
X907078Y3799082D1*
Y3768938D1*
X936438D2*
X956534Y3799049D1*
X987319Y3791919D2*
X985893Y3794771D1*
X983008Y3797656D1*
X980156Y3799082D1*
X974420D1*
X971534Y3797656D1*
X968683Y3794771D1*
X967223Y3791919D1*
X965797Y3787608D1*
Y3780412D1*
X967223Y3776134D1*
X968683Y3773249D1*
X971534Y3770397D1*
X974420Y3768938D1*
X980156D1*
X983008Y3770397D1*
X985893Y3773249D1*
X987319Y3776134D1*
X4038533Y3081105D2*
Y3055272D1*
X4025633Y3068172D2*
X4051466D1*
X4060730Y3077507D2*
X4063615Y3078967D1*
X4067926Y3083244D1*
Y3053134D1*
X4078649Y3076081D2*
Y3077507D1*
X4080075Y3080392D1*
X4081501Y3081818D1*
X4084386Y3083244D1*
X4090123D1*
X4092975Y3081818D1*
X4094401Y3080392D1*
X4095860Y3077507D1*
Y3074655D1*
X4094401Y3071770D1*
X4091549Y3067493D1*
X4077190Y3053134D1*
X4097286D1*
X2756522Y3976124D2*
X2759407Y3977583D1*
X2763718Y3981861D1*
Y3951750D1*
X2790192Y3977583D2*
X2788767Y3980435D1*
X2784456Y3981861D1*
X2781604D1*
X2777293Y3980435D1*
X2774408Y3976124D1*
X2772982Y3968961D1*
Y3961798D1*
X2774408Y3956061D1*
X2777293Y3953176D1*
X2781604Y3951750D1*
X2783030D1*
X2787307Y3953176D1*
X2790192Y3956061D1*
X2791618Y3960372D1*
Y3961798D1*
X2790192Y3966109D1*
X2787307Y3968961D1*
X2783030Y3970387D1*
X2781604D1*
X2777293Y3968961D1*
X2774408Y3966109D1*
X2772982Y3961798D1*
X2800882Y3946776D2*
X2828141D1*
X2857500Y3977583D2*
X2854649Y3980468D1*
X2850338Y3981894D1*
X2844601D1*
X2840290Y3980468D1*
X2837404Y3977583D1*
Y3974731D1*
X2838864Y3971846D1*
X2840290Y3970420D1*
X2843141Y3968994D1*
X2851764Y3966109D1*
X2854649Y3964683D1*
X2856075Y3963224D1*
X2857500Y3960372D1*
Y3956061D1*
X2854649Y3953209D1*
X2850338Y3951750D1*
X2844601D1*
X2840290Y3953209D1*
X2837404Y3956061D1*
X2866764Y3971846D2*
X2872501Y3951750D1*
X2878238Y3971846D1*
X2883975Y3951750D1*
X2889712Y3971846D1*
X3069318Y3895501D2*
X3057811Y3925645D1*
X3046337Y3895501D1*
X3050648Y3905549D2*
X3065007D1*
X3092941Y3895501D2*
Y3925612D1*
X3078582Y3905549D1*
X3100103D1*
X2697828Y4063144D2*
Y4033000D1*
X2687780Y4063144D2*
X2707876D1*
X2717140Y4053096D2*
Y4038737D1*
X2718566Y4034459D1*
X2721451Y4033000D1*
X2725762D1*
X2728614Y4034459D1*
X2732925Y4038737D1*
Y4053096D2*
Y4033000D1*
X2742189Y4053096D2*
Y4033000D1*
Y4047359D2*
X2746500Y4051670D1*
X2749385Y4053096D1*
X2753662D1*
X2756548Y4051670D1*
X2757974Y4047359D1*
Y4033000D1*
X2767237Y4044474D2*
X2784448D1*
Y4047359D1*
X2783022Y4050244D1*
X2781596Y4051670D1*
X2778711Y4053096D1*
X2774400D1*
X2771548Y4051670D1*
X2768663Y4048785D1*
X2767237Y4044474D1*
Y4041622D1*
X2768663Y4037311D1*
X2771548Y4034459D1*
X2774400Y4033000D1*
X2778711D1*
X2781596Y4034459D1*
X2784448Y4037311D1*
X2793712Y4033000D2*
X2813808Y4063111D1*
X2841741Y4063144D2*
X2823071D1*
Y4033000D1*
Y4048785D2*
X2834545D1*
X2851005Y4063144D2*
X2852431Y4061718D1*
X2853890Y4063144D1*
X2852431Y4064603D1*
X2851005Y4063144D1*
X2852431Y4053096D2*
Y4033000D1*
X2863153Y4063144D2*
Y4033000D1*
X2876728Y4063144D2*
Y4038737D1*
X2878154Y4034459D1*
X2881039Y4033000D1*
X2883891D1*
X2872417Y4053096D2*
X2882465D1*
X2893154Y4044474D2*
X2910365D1*
Y4047359D1*
X2908939Y4050244D1*
X2907513Y4051670D1*
X2904628Y4053096D1*
X2900317D1*
X2897465Y4051670D1*
X2894580Y4048785D1*
X2893154Y4044474D1*
Y4041622D1*
X2894580Y4037311D1*
X2897465Y4034459D1*
X2900317Y4033000D1*
X2904628D1*
X2907513Y4034459D1*
X2910365Y4037311D1*
X2919629Y4053096D2*
Y4033000D1*
Y4044474D2*
X2921088Y4048785D1*
X2923940Y4051670D1*
X2926825Y4053096D1*
X2931136D1*
X3290544Y3918483D2*
X3289118Y3921335D1*
X3286233Y3924220D1*
X3283381Y3925646D1*
X3277644D1*
X3274759Y3924220D1*
X3271907Y3921335D1*
X3270448Y3918483D1*
X3269022Y3914172D1*
Y3906976D1*
X3270448Y3902698D1*
X3271907Y3899813D1*
X3274759Y3896961D1*
X3277644Y3895502D1*
X3283381D1*
X3286233Y3896961D1*
X3289118Y3899813D1*
X3290544Y3902698D1*
Y3906976D1*
X3283381D1*
X3156587Y3975612D2*
X3172339D1*
X3163750Y3964138D1*
X3168061D1*
X3170913Y3962712D1*
X3172339Y3961286D1*
X3173798Y3956975D1*
Y3954123D1*
X3172339Y3949812D1*
X3169487Y3946927D1*
X3165176Y3945501D1*
X3160865D1*
X3156587Y3946927D1*
X3155161Y3948386D1*
X3153702Y3951238D1*
X3184487Y3948386D2*
X3183061Y3946927D1*
X3184487Y3945501D1*
X3185946Y3946927D1*
X3184487Y3948386D1*
X3198095Y3975612D2*
X3213847D1*
X3205258Y3964138D1*
X3209569D1*
X3212421Y3962712D1*
X3213847Y3961286D1*
X3215306Y3956975D1*
Y3954123D1*
X3213847Y3949812D1*
X3210995Y3946927D1*
X3206684Y3945501D1*
X3202373D1*
X3198095Y3946927D1*
X3196669Y3948386D1*
X3195210Y3951238D1*
X3153158Y3925612D2*
X3168909D1*
X3160321Y3914138D1*
X3164632D1*
X3167484Y3912712D1*
X3168909Y3911286D1*
X3170369Y3906975D1*
Y3904123D1*
X3168909Y3899812D1*
X3166058Y3896927D1*
X3161747Y3895501D1*
X3157436D1*
X3153158Y3896927D1*
X3151732Y3898386D1*
X3150273Y3901238D1*
X3181058Y3898386D2*
X3179632Y3896927D1*
X3181058Y3895501D1*
X3182517Y3896927D1*
X3181058Y3898386D1*
X3194666Y3925612D2*
X3210418D1*
X3201829Y3914138D1*
X3206140D1*
X3208992Y3912712D1*
X3210418Y3911286D1*
X3211877Y3906975D1*
Y3904123D1*
X3210418Y3899812D1*
X3207566Y3896927D1*
X3203255Y3895501D1*
X3198944D1*
X3194666Y3896927D1*
X3193240Y3898386D1*
X3191781Y3901238D1*
X3296795Y3980982D2*
X3295369Y3983834D1*
X3292484Y3986719D1*
X3289632Y3988145D1*
X3283895D1*
X3281010Y3986719D1*
X3278158Y3983834D1*
X3276699Y3980982D1*
X3275273Y3976671D1*
Y3969475D1*
X3276699Y3965197D1*
X3278158Y3962312D1*
X3281010Y3959460D1*
X3283895Y3958001D1*
X3289632D1*
X3292484Y3959460D1*
X3295369Y3962312D1*
X3296795Y3965197D1*
Y3969475D1*
X3289632D1*
X3069318Y3945501D2*
X3057811Y3975645D1*
X3046337Y3945501D1*
X3050648Y3955549D2*
X3065007D1*
X3081467Y3975612D2*
X3097218D1*
X3088630Y3964138D1*
X3092941D1*
X3095792Y3962712D1*
X3097218Y3961286D1*
X3098678Y3956975D1*
Y3954123D1*
X3097218Y3949812D1*
X3094366Y3946927D1*
X3090055Y3945501D1*
X3085744D1*
X3081467Y3946927D1*
X3080041Y3948386D1*
X3078582Y3951238D1*
X2946337Y3925645D2*
Y3895501D1*
X2959270D1*
X2963581Y3896960D1*
X2965007Y3898386D1*
X2966433Y3901238D1*
Y3905549D1*
X2965007Y3908434D1*
X2963581Y3909860D1*
X2959270Y3911286D1*
X2963581Y3912745D1*
X2965007Y3914171D1*
X2966433Y3917023D1*
Y3919908D1*
X2965007Y3922760D1*
X2963581Y3924219D1*
X2959270Y3925645D1*
X2946337D1*
Y3911286D2*
X2959270D1*
X2990055Y3895501D2*
Y3925612D1*
X2975696Y3905549D1*
X2997218D1*
X2946337Y3975645D2*
Y3945501D1*
X2959270D1*
X2963581Y3946960D1*
X2965007Y3948386D1*
X2966433Y3951238D1*
Y3955549D1*
X2965007Y3958434D1*
X2963581Y3959860D1*
X2959270Y3961286D1*
X2963581Y3962745D1*
X2965007Y3964171D1*
X2966433Y3967023D1*
Y3969908D1*
X2965007Y3972760D1*
X2963581Y3974219D1*
X2959270Y3975645D1*
X2946337D1*
Y3961286D2*
X2959270D1*
X2978582Y3975612D2*
X2994333D1*
X2985744Y3964138D1*
X2990055D1*
X2992907Y3962712D1*
X2994333Y3961286D1*
X2995792Y3956975D1*
Y3954123D1*
X2994333Y3949812D1*
X2991481Y3946927D1*
X2987170Y3945501D1*
X2982859D1*
X2978582Y3946927D1*
X2977156Y3948386D1*
X2975696Y3951238D1*
X3819022Y3981894D2*
Y3951750D1*
X3831955D1*
X3836266Y3953209D1*
X3837692Y3954635D1*
X3839118Y3957487D1*
Y3961798D1*
X3837692Y3964683D1*
X3836266Y3966109D1*
X3831955Y3967535D1*
X3836266Y3968994D1*
X3837692Y3970420D1*
X3839118Y3973272D1*
Y3976157D1*
X3837692Y3979009D1*
X3836266Y3980468D1*
X3831955Y3981894D1*
X3819022D1*
Y3967535D2*
X3831955D1*
X3848381Y3976124D2*
X3851267Y3977583D1*
X3855578Y3981861D1*
Y3951750D1*
X3831522Y3938145D2*
Y3908001D1*
X3844455D1*
X3848766Y3909460D1*
X3850192Y3910886D1*
X3851618Y3913738D1*
Y3918049D1*
X3850192Y3920934D1*
X3848766Y3922360D1*
X3844455Y3923786D1*
X3848766Y3925245D1*
X3850192Y3926671D1*
X3851618Y3929523D1*
Y3932408D1*
X3850192Y3935260D1*
X3848766Y3936719D1*
X3844455Y3938145D1*
X3831522D1*
Y3923786D2*
X3844455D1*
X3862341Y3930949D2*
Y3932375D1*
X3863767Y3935260D1*
X3865192Y3936686D1*
X3868078Y3938112D1*
X3873815D1*
X3876666Y3936686D1*
X3878092Y3935260D1*
X3879552Y3932375D1*
Y3929523D1*
X3878092Y3926638D1*
X3875240Y3922360D1*
X3860881Y3908001D1*
X3880977D1*
X914140Y3676976D2*
X927040D1*
X931351Y3678435D1*
X932810Y3679861D1*
X934236Y3682713D1*
Y3685598D1*
X932810Y3688450D1*
X931351Y3689909D1*
X927040Y3691335D1*
X914140D1*
Y3661191D1*
X924188Y3676976D2*
X934236Y3661191D1*
X943500Y3691335D2*
X963596Y3661191D1*
Y3691335D2*
X943500Y3661191D1*
X972859D2*
X992955Y3691302D1*
X1012267Y3691335D2*
Y3661191D1*
X1002219Y3691335D2*
X1022315D1*
X1031578Y3681287D2*
X1047363Y3661191D1*
Y3681287D2*
X1031578Y3661191D1*
X1217702Y2720365D2*
Y2750509D1*
X1206228Y2720365D1*
X1194754Y2750509D1*
Y2720365D1*
X1226966Y2750509D2*
X1228392Y2749083D1*
X1229851Y2750509D1*
X1228392Y2751968D1*
X1226966Y2750509D1*
X1228392Y2740461D2*
Y2720365D1*
X1256358Y2736149D2*
X1253473Y2739035D1*
X1250588Y2740461D1*
X1246310D1*
X1243425Y2739035D1*
X1240573Y2736149D1*
X1239114Y2731838D1*
Y2728987D1*
X1240573Y2724676D1*
X1243425Y2721824D1*
X1246310Y2720365D1*
X1250588D1*
X1253473Y2721824D1*
X1256358Y2724676D1*
X1188379Y2935422D2*
Y2905278D1*
X1205590D1*
X1214853Y2900304D2*
X1242112D1*
X1259998Y2935422D2*
X1257113Y2933996D1*
X1254261Y2931111D1*
X1252802Y2928259D1*
X1251376Y2923948D1*
Y2916752D1*
X1252802Y2912474D1*
X1254261Y2909589D1*
X1257113Y2906737D1*
X1259998Y2905278D1*
X1265735D1*
X1268587Y2906737D1*
X1271472Y2909589D1*
X1272898Y2912474D1*
X1274324Y2916752D1*
Y2923948D1*
X1272898Y2928259D1*
X1271472Y2931111D1*
X1268587Y2933996D1*
X1265735Y2935422D1*
X1259998D1*
X1283587Y2925374D2*
Y2911015D1*
X1285013Y2906737D1*
X1287898Y2905278D1*
X1292209D1*
X1295061Y2906737D1*
X1299372Y2911015D1*
Y2925374D2*
Y2905278D1*
X1312947Y2935422D2*
Y2911015D1*
X1314373Y2906737D1*
X1317258Y2905278D1*
X1320110D1*
X1308636Y2925374D2*
X1318684D1*
X1059009Y3186027D2*
X1071909D1*
X1076220Y3187487D1*
X1077679Y3188913D1*
X1079105Y3191764D1*
Y3194649D1*
X1077679Y3197501D1*
X1076220Y3198961D1*
X1071909Y3200386D1*
X1059009D1*
Y3170242D1*
X1069057Y3186027D2*
X1079105Y3170242D1*
X1088368Y3165268D2*
X1115627D1*
X1133513Y3200386D2*
X1130628Y3198961D1*
X1127776Y3196075D1*
X1126317Y3193224D1*
X1124891Y3188913D1*
Y3181716D1*
X1126317Y3177439D1*
X1127776Y3174553D1*
X1130628Y3171702D1*
X1133513Y3170242D1*
X1139250D1*
X1142102Y3171702D1*
X1144987Y3174553D1*
X1146413Y3177439D1*
X1147839Y3181716D1*
Y3188913D1*
X1146413Y3193224D1*
X1144987Y3196075D1*
X1142102Y3198961D1*
X1139250Y3200386D1*
X1133513D1*
X1157102Y3190338D2*
Y3175979D1*
X1158528Y3171702D1*
X1161413Y3170242D1*
X1165724D1*
X1168576Y3171702D1*
X1172887Y3175979D1*
Y3190338D2*
Y3170242D1*
X1186462Y3200386D2*
Y3175979D1*
X1187888Y3171702D1*
X1190773Y3170242D1*
X1193625D1*
X1182151Y3190338D2*
X1192199D1*
X1194540Y3023676D2*
X1193114Y3026528D1*
X1190229Y3029413D1*
X1187377Y3030839D1*
X1181640D1*
X1178755Y3029413D1*
X1175903Y3026528D1*
X1174444Y3023676D1*
X1173018Y3019365D1*
Y3012169D1*
X1174444Y3007891D1*
X1175903Y3005006D1*
X1178755Y3002154D1*
X1181640Y3000695D1*
X1187377D1*
X1190229Y3002154D1*
X1193114Y3005006D1*
X1194540Y3007891D1*
Y3012169D1*
X1187377D1*
X1203803Y3020791D2*
Y3000695D1*
Y3015054D2*
X1208115Y3019365D1*
X1211000Y3020791D1*
X1215277D1*
X1218163Y3019365D1*
X1219588Y3015054D1*
Y3000695D1*
X1246063Y3030839D2*
Y3000695D1*
Y3016480D2*
X1243211Y3019365D1*
X1240326Y3020791D1*
X1236015D1*
X1233163Y3019365D1*
X1230278Y3016480D1*
X1228852Y3012169D1*
Y3009317D1*
X1230278Y3005006D1*
X1233163Y3002154D1*
X1236015Y3000695D1*
X1240326D1*
X1243211Y3002154D1*
X1246063Y3005006D1*
X773459Y4096836D2*
X769181Y4095410D1*
X767722Y4092558D1*
Y4089673D1*
X769181Y4086821D1*
X772033Y4085362D1*
X777770Y4083936D1*
X782081Y4082510D1*
X784933Y4079625D1*
X786359Y4076773D1*
Y4072462D1*
X784933Y4069610D1*
X783507Y4068151D1*
X779196Y4066725D1*
X773459D1*
X769181Y4068151D1*
X767722Y4069610D1*
X766296Y4072462D1*
Y4076773D1*
X767722Y4079625D1*
X770607Y4082510D1*
X774885Y4083936D1*
X780622Y4085362D1*
X783507Y4086821D1*
X784933Y4089673D1*
Y4092558D1*
X783507Y4095410D1*
X779196Y4096836D1*
X773459D1*
X804245D2*
X799934Y4095410D1*
X797049Y4091099D1*
X795623Y4083936D1*
Y4079625D1*
X797049Y4072462D1*
X799934Y4068151D1*
X804245Y4066725D1*
X807097D1*
X811408Y4068151D1*
X814259Y4072462D1*
X815719Y4079625D1*
Y4083936D1*
X814259Y4091099D1*
X811408Y4095410D1*
X807097Y4096836D1*
X804245D1*
X814259Y4091099D2*
X797049Y4072462D1*
X827867Y4068151D2*
X826408Y4066725D1*
X824982Y4068151D1*
X826408Y4069610D1*
X827867Y4068151D1*
Y4065299D1*
X826408Y4062414D1*
X824982Y4060988D1*
X880650Y4066725D2*
Y4096836D1*
X866291Y4076773D1*
X887813D1*
X905699Y4096836D2*
X901388Y4095410D1*
X898503Y4091099D1*
X897077Y4083936D1*
Y4079625D1*
X898503Y4072462D1*
X901388Y4068151D1*
X905699Y4066725D1*
X908551D1*
X912862Y4068151D1*
X915714Y4072462D1*
X917173Y4079625D1*
Y4083936D1*
X915714Y4091099D1*
X912862Y4095410D1*
X908551Y4096836D1*
X905699D1*
X915714Y4091099D2*
X898503Y4072462D1*
X769099Y3990437D2*
Y3991863D1*
X770525Y3994748D1*
X771951Y3996174D1*
X774836Y3997600D1*
X780573D1*
X783425Y3996174D1*
X784851Y3994748D1*
X786310Y3991863D1*
Y3989011D1*
X784851Y3986126D1*
X781999Y3981848D1*
X767640Y3967489D1*
X787736D1*
X805622Y3997600D2*
X801311Y3996174D1*
X798426Y3991863D1*
X797000Y3984700D1*
Y3980389D1*
X798426Y3973226D1*
X801311Y3968915D1*
X805622Y3967489D1*
X808474D1*
X812785Y3968915D1*
X815636Y3973226D1*
X817096Y3980389D1*
Y3984700D1*
X815636Y3991863D1*
X812785Y3996174D1*
X808474Y3997600D1*
X805622D1*
X815636Y3991863D2*
X798426Y3973226D1*
X829244Y3968915D2*
X827785Y3967489D1*
X826359Y3968915D1*
X827785Y3970374D1*
X829244Y3968915D1*
Y3966063D1*
X827785Y3963178D1*
X826359Y3961752D1*
X867668Y3991863D2*
X870553Y3993322D1*
X874864Y3997600D1*
Y3967489D1*
X901339Y3997600D2*
X887013D1*
X885587Y3984700D1*
X887013Y3986126D1*
X891324Y3987585D1*
X895602D1*
X899913Y3986126D1*
X902798Y3983274D1*
X904224Y3978963D1*
Y3976111D1*
X902798Y3971800D1*
X899913Y3968915D1*
X895602Y3967489D1*
X891324D1*
X887013Y3968915D1*
X885587Y3970374D1*
X884128Y3973226D1*
X1636298Y493988D2*
X1639183Y495447D1*
X1643494Y499725D1*
Y469614D1*
X1739172Y499725D2*
X1754924D1*
X1746335Y488251D1*
X1750646D1*
X1753498Y486825D1*
X1754924Y485399D1*
X1756383Y481088D1*
Y478236D1*
X1754924Y473925D1*
X1752072Y471040D1*
X1747761Y469614D1*
X1743450D1*
X1739172Y471040D1*
X1737746Y472499D1*
X1736287Y475351D1*
X1853489Y499725D2*
X1839163D1*
X1837737Y486825D1*
X1839163Y488251D1*
X1843474Y489710D1*
X1847752D1*
X1852063Y488251D1*
X1854948Y485399D1*
X1856374Y481088D1*
Y478236D1*
X1854948Y473925D1*
X1852063Y471040D1*
X1847752Y469614D1*
X1843474D1*
X1839163Y471040D1*
X1837737Y472499D1*
X1836278Y475351D1*
X1942004Y469614D2*
X1956363Y499725D1*
X1936267D1*
X2054927Y489710D2*
X2053468Y485399D1*
X2050616Y482514D1*
X2046305Y481088D1*
X2044879D1*
X2040568Y482514D1*
X2037716Y485399D1*
X2036257Y489710D1*
Y491136D1*
X2037716Y495447D1*
X2040568Y498299D1*
X2044879Y499725D1*
X2046305D1*
X2050616Y498299D1*
X2053468Y495447D1*
X2054927Y489710D1*
Y482514D1*
X2053468Y475351D1*
X2050616Y471040D1*
X2046305Y469614D1*
X2043453D1*
X2039142Y471040D1*
X2037716Y473925D1*
X2130038Y493988D2*
X2132923Y495447D1*
X2137234Y499725D1*
Y469614D1*
X2146497Y493988D2*
X2149382Y495447D1*
X2153693Y499725D1*
Y469614D1*
X2223817Y493988D2*
X2226702Y495447D1*
X2231013Y499725D1*
Y469614D1*
X2243162Y499725D2*
X2258914D1*
X2250325Y488251D1*
X2254636D1*
X2257488Y486825D1*
X2258914Y485399D1*
X2260373Y481088D1*
Y478236D1*
X2258914Y473925D1*
X2256062Y471040D1*
X2251751Y469614D1*
X2247440D1*
X2243162Y471040D1*
X2241736Y472499D1*
X2240277Y475351D1*
X2323807Y493988D2*
X2326692Y495447D1*
X2331003Y499725D1*
Y469614D1*
X2357477Y499725D2*
X2343151D1*
X2341725Y486825D1*
X2343151Y488251D1*
X2347462Y489710D1*
X2351740D1*
X2356051Y488251D1*
X2358936Y485399D1*
X2360362Y481088D1*
Y478236D1*
X2358936Y473925D1*
X2356051Y471040D1*
X2351740Y469614D1*
X2347462D1*
X2343151Y471040D1*
X2341725Y472499D1*
X2340266Y475351D1*
X1675099Y983785D2*
Y985211D1*
X1676525Y988096D1*
X1677951Y989522D1*
X1680836Y990948D1*
X1686573D1*
X1689425Y989522D1*
X1690851Y988096D1*
X1692310Y985211D1*
Y982359D1*
X1690851Y979474D1*
X1687999Y975196D1*
X1673640Y960837D1*
X1693736D1*
X1787989D2*
Y990948D1*
X1773630Y970885D1*
X1795151D1*
X1890921Y986670D2*
X1889495Y989522D1*
X1885184Y990948D1*
X1882332D1*
X1878021Y989522D1*
X1875136Y985211D1*
X1873710Y978048D1*
Y970885D1*
X1875136Y965148D1*
X1878021Y962263D1*
X1882332Y960837D1*
X1883758D1*
X1888035Y962263D1*
X1890921Y965148D1*
X1892346Y969459D1*
Y970885D1*
X1890921Y975196D1*
X1888035Y978048D1*
X1883758Y979474D1*
X1882332D1*
X1878021Y978048D1*
X1875136Y975196D1*
X1873710Y970885D1*
X1980862Y990948D2*
X1976584Y989522D1*
X1975125Y986670D1*
Y983785D1*
X1976584Y980933D1*
X1979436Y979474D1*
X1985173Y978048D1*
X1989484Y976622D1*
X1992336Y973737D1*
X1993762Y970885D1*
Y966574D1*
X1992336Y963722D1*
X1990910Y962263D1*
X1986599Y960837D1*
X1980862D1*
X1976584Y962263D1*
X1975125Y963722D1*
X1973699Y966574D1*
Y970885D1*
X1975125Y973737D1*
X1978010Y976622D1*
X1982288Y978048D1*
X1988025Y979474D1*
X1990910Y980933D1*
X1992336Y983785D1*
Y986670D1*
X1990910Y989522D1*
X1986599Y990948D1*
X1980862D1*
X2061179Y985211D2*
X2064064Y986670D1*
X2068375Y990948D1*
Y960837D1*
X2086261Y990948D2*
X2081950Y989522D1*
X2079065Y985211D1*
X2077639Y978048D1*
Y973737D1*
X2079065Y966574D1*
X2081950Y962263D1*
X2086261Y960837D1*
X2089113D1*
X2093424Y962263D1*
X2096276Y966574D1*
X2097735Y973737D1*
Y978048D1*
X2096276Y985211D1*
X2093424Y989522D1*
X2089113Y990948D1*
X2086261D1*
X2096276Y985211D2*
X2079065Y966574D1*
X2161170Y985211D2*
X2164055Y986670D1*
X2168366Y990948D1*
Y960837D1*
X2179089Y983785D2*
Y985211D1*
X2180515Y988096D1*
X2181941Y989522D1*
X2184826Y990948D1*
X2190563D1*
X2193415Y989522D1*
X2194841Y988096D1*
X2196300Y985211D1*
Y982359D1*
X2194841Y979474D1*
X2191989Y975196D1*
X2177630Y960837D1*
X2197726D1*
X2261160Y985211D2*
X2264045Y986670D1*
X2268356Y990948D1*
Y960837D1*
X2291978D2*
Y990948D1*
X2277619Y970885D1*
X2299141D1*
X3750870Y1254248D2*
D78*
Y1214056D1*
X3737472Y1254248D2*
X3764267D1*
X3776618Y1233201D2*
X3793863D1*
X3799566Y1235103D1*
X3801512Y1237048D1*
X3803413Y1240851D1*
Y1246599D1*
X3801512Y1250401D1*
X3799566Y1252347D1*
X3793863Y1254248D1*
X3776618D1*
Y1214056D1*
X3815764Y1246554D2*
X3819611Y1248500D1*
X3825359Y1254204D1*
Y1214056D1*
X2749277Y556453D2*
Y516261D1*
X2735879Y556453D2*
X2762674D1*
X2775025Y535406D2*
X2792269D1*
X2797973Y537307D1*
X2799919Y539253D1*
X2801820Y543055D1*
Y548803D1*
X2799919Y552606D1*
X2797973Y554551D1*
X2792269Y556453D1*
X2775025D1*
Y516261D1*
X2816117Y546858D2*
Y548759D1*
X2818018Y552606D1*
X2819919Y554507D1*
X2823766Y556409D1*
X2831415D1*
X2835218Y554507D1*
X2837119Y552606D1*
X2839065Y548759D1*
Y544957D1*
X2837119Y541110D1*
X2833317Y535406D1*
X2814171Y516261D1*
X2840966D1*
X1344807Y774458D2*
Y734266D1*
X1331409Y774458D2*
X1358204D1*
X1370555Y753411D2*
X1387800D1*
X1393503Y755313D1*
X1395449Y757258D1*
X1397350Y761061D1*
Y766809D1*
X1395449Y770611D1*
X1393503Y772557D1*
X1387800Y774458D1*
X1370555D1*
Y734266D1*
X1432649Y768710D2*
X1430748Y772512D1*
X1425000Y774414D1*
X1421198D1*
X1415450Y772512D1*
X1411603Y766764D1*
X1409702Y757214D1*
Y747663D1*
X1411603Y740014D1*
X1415450Y736167D1*
X1421198Y734266D1*
X1423099D1*
X1428803Y736167D1*
X1432649Y740014D1*
X1434551Y745762D1*
Y747663D1*
X1432649Y753411D1*
X1428803Y757214D1*
X1423099Y759115D1*
X1421198D1*
X1415450Y757214D1*
X1411603Y753411D1*
X1409702Y747663D1*
X1403725Y1048119D2*
Y1007927D1*
X1390328Y1048119D2*
X1417123D1*
X1429474Y1027073D2*
X1446718D1*
X1452422Y1028974D1*
X1454367Y1030920D1*
X1456269Y1034722D1*
Y1040470D1*
X1454367Y1044273D1*
X1452422Y1046218D1*
X1446718Y1048119D1*
X1429474D1*
Y1007927D1*
X1476269D2*
X1495415Y1048075D1*
X1468620D1*
X1127543Y1676218D2*
Y1636026D1*
X1114146Y1676218D2*
X1140940D1*
X1153292Y1655171D2*
X1170536D1*
X1176240Y1657072D1*
X1178185Y1659018D1*
X1180086Y1662820D1*
Y1668569D1*
X1178185Y1672371D1*
X1176240Y1674317D1*
X1170536Y1676218D1*
X1153292D1*
Y1636026D1*
X1201988Y1676174D2*
X1196284Y1674272D1*
X1194339Y1670470D1*
Y1666623D1*
X1196284Y1662820D1*
X1200087Y1660875D1*
X1207736Y1658974D1*
X1213484Y1657072D1*
X1217287Y1653226D1*
X1219188Y1649423D1*
Y1643675D1*
X1217287Y1639873D1*
X1215386Y1637927D1*
X1209638Y1636026D1*
X1201988D1*
X1196284Y1637927D1*
X1194339Y1639873D1*
X1192438Y1643675D1*
Y1649423D1*
X1194339Y1653226D1*
X1198186Y1657072D1*
X1203890Y1658974D1*
X1211539Y1660875D1*
X1215386Y1662820D1*
X1217287Y1666623D1*
Y1670470D1*
X1215386Y1674272D1*
X1209638Y1676174D1*
X1201988D1*
X2730441Y1197340D2*
X2728540Y1201143D1*
X2724693Y1204990D1*
X2720891Y1206891D1*
X2713241D1*
X2709395Y1204990D1*
X2705592Y1201143D1*
X2703647Y1197340D1*
X2701745Y1191592D1*
Y1181998D1*
X2703647Y1176294D1*
X2705592Y1172447D1*
X2709395Y1168645D1*
X2713241Y1166699D1*
X2720891D1*
X2724693Y1168645D1*
X2728540Y1172447D1*
X2730441Y1176294D1*
Y1181998D1*
X2720891D1*
X2742793Y1193494D2*
Y1166699D1*
Y1185844D2*
X2748541Y1191592D1*
X2752387Y1193494D1*
X2758091D1*
X2761938Y1191592D1*
X2763839Y1185844D1*
Y1166699D1*
X2799139Y1206891D2*
Y1166699D1*
Y1187746D2*
X2795336Y1191592D1*
X2791489Y1193494D1*
X2785741D1*
X2781939Y1191592D1*
X2778092Y1187746D1*
X2776191Y1181998D1*
Y1178195D1*
X2778092Y1172447D1*
X2781939Y1168645D1*
X2785741Y1166699D1*
X2791489D1*
X2795336Y1168645D1*
X2799139Y1172447D1*
X1294090Y478922D2*
X1292188Y482724D1*
X1288342Y486571D1*
X1284539Y488472D1*
X1276890D1*
X1273043Y486571D1*
X1269240Y482724D1*
X1267295Y478922D1*
X1265394Y473174D1*
Y463579D1*
X1267295Y457875D1*
X1269240Y454028D1*
X1273043Y450226D1*
X1276890Y448280D1*
X1284539D1*
X1288342Y450226D1*
X1292188Y454028D1*
X1294090Y457875D1*
Y463579D1*
X1284539D1*
X1306441Y475075D2*
Y448280D1*
Y467426D2*
X1312189Y473174D1*
X1316036Y475075D1*
X1321740D1*
X1325586Y473174D1*
X1327488Y467426D1*
Y448280D1*
X1362787Y488472D2*
Y448280D1*
Y469327D2*
X1358984Y473174D1*
X1355138Y475075D1*
X1349390D1*
X1345587Y473174D1*
X1341740Y469327D1*
X1339839Y463579D1*
Y459776D1*
X1341740Y454028D1*
X1345587Y450226D1*
X1349390Y448280D1*
X1355138D1*
X1358984Y450226D1*
X1362787Y454028D1*
X1091629Y2211129D2*
X1089728Y2214932D1*
X1085881Y2218778D1*
X1082078Y2220680D1*
X1074429D1*
X1070582Y2218778D1*
X1066780Y2214932D1*
X1064834Y2211129D1*
X1062933Y2205381D1*
Y2195786D1*
X1064834Y2190083D1*
X1066780Y2186236D1*
X1070582Y2182433D1*
X1074429Y2180488D1*
X1082078D1*
X1085881Y2182433D1*
X1089728Y2186236D1*
X1091629Y2190083D1*
Y2195786D1*
X1082078D1*
X1103980Y2207282D2*
Y2180488D1*
Y2199633D2*
X1109728Y2205381D1*
X1113575Y2207282D1*
X1119279D1*
X1123126Y2205381D1*
X1125027Y2199633D1*
Y2180488D1*
X1160326Y2220680D2*
Y2180488D1*
Y2201534D2*
X1156524Y2205381D1*
X1152677Y2207282D1*
X1146929D1*
X1143126Y2205381D1*
X1139280Y2201534D1*
X1137378Y2195786D1*
Y2191984D1*
X1139280Y2186236D1*
X1143126Y2182433D1*
X1146929Y2180488D1*
X1152677D1*
X1156524Y2182433D1*
X1160326Y2186236D1*
X3721606Y1419946D2*
X3736905Y1379754D1*
X3752203Y1419946D1*
X3776051Y1419902D2*
X3770303Y1418001D1*
X3766456Y1412253D1*
X3764555Y1402702D1*
Y1396954D1*
X3766456Y1387403D1*
X3770303Y1381655D1*
X3776051Y1379754D1*
X3779853D1*
X3785601Y1381655D1*
X3789404Y1387403D1*
X3791350Y1396954D1*
Y1402702D1*
X3789404Y1412253D1*
X3785601Y1418001D1*
X3779853Y1419902D1*
X3776051D1*
X3789404Y1412253D2*
X3766456Y1387403D1*
X3803701Y1412253D2*
X3807548Y1414198D1*
X3813296Y1419902D1*
Y1379754D1*
X3825647Y1412253D2*
X3829494Y1414198D1*
X3835242Y1419902D1*
Y1379754D1*
X3982935Y705952D2*
X3981033Y709755D1*
X3977187Y713601D1*
X3973384Y715503D1*
X3965735D1*
X3961888Y713601D1*
X3958086Y709755D1*
X3956140Y705952D1*
X3954239Y700204D1*
Y690609D1*
X3956140Y684905D1*
X3958086Y681059D1*
X3961888Y677256D1*
X3965735Y675311D1*
X3973384D1*
X3977187Y677256D1*
X3981033Y681059D1*
X3982935Y684905D1*
Y690609D1*
X3973384D1*
X3995286Y702105D2*
Y675311D1*
Y694456D2*
X4001034Y700204D1*
X4004881Y702105D1*
X4010585D1*
X4014431Y700204D1*
X4016333Y694456D1*
Y675311D1*
X4051632Y715503D2*
Y675311D1*
Y696357D2*
X4047830Y700204D1*
X4043983Y702105D1*
X4038235D1*
X4034432Y700204D1*
X4030585Y696357D1*
X4028684Y690609D1*
Y686807D1*
X4030585Y681059D1*
X4034432Y677256D1*
X4038235Y675311D1*
X4043983D1*
X4047830Y677256D1*
X4051632Y681059D1*
X586322Y2196077D2*
Y2236269D1*
X571023Y2196077D1*
X555724Y2236269D1*
Y2196077D1*
X598673Y2236269D2*
X600574Y2234368D1*
X602520Y2236269D1*
X600574Y2238214D1*
X598673Y2236269D1*
X600574Y2222872D2*
Y2196077D1*
X637863Y2217124D2*
X634016Y2220970D1*
X630170Y2222872D1*
X624466D1*
X620619Y2220970D1*
X616817Y2217124D1*
X614871Y2211376D1*
Y2207573D1*
X616817Y2201825D1*
X620619Y2198022D1*
X624466Y2196077D1*
X630170D1*
X634016Y2198022D1*
X637863Y2201825D1*
X1225296Y3857916D2*
Y3817724D1*
X1211899Y3857916D2*
X1238694D1*
X1251045Y3836869D2*
X1268289D1*
X1273993Y3838771D1*
X1275938Y3840716D1*
X1277840Y3844519D1*
Y3850267D1*
X1275938Y3854069D1*
X1273993Y3856015D1*
X1268289Y3857916D1*
X1251045D1*
Y3817724D1*
X1294038Y3857872D2*
X1315040D1*
X1303588Y3842573D1*
X1309336D1*
X1313139Y3840672D1*
X1315040Y3838771D1*
X1316986Y3833023D1*
Y3829220D1*
X1315040Y3823472D1*
X1311238Y3819625D1*
X1305490Y3817724D1*
X1299742D1*
X1294038Y3819625D1*
X1292136Y3821571D1*
X1290191Y3825373D1*
X1625295Y3842022D2*
Y3801830D1*
X1611898Y3842022D2*
X1638692D1*
X1651044Y3820976D2*
X1668288D1*
X1673992Y3822877D1*
X1675937Y3824822D1*
X1677838Y3828625D1*
Y3834373D1*
X1675937Y3838176D1*
X1673992Y3840121D1*
X1668288Y3842022D1*
X1651044D1*
Y3801830D1*
X1709335D2*
Y3841978D1*
X1690190Y3815228D1*
X1718886D1*
X1175220Y2443812D2*
Y2403620D1*
X1161823Y2443812D2*
X1188617D1*
X1200969Y2422766D2*
X1218213D1*
X1223917Y2424667D1*
X1225862Y2426612D1*
X1227763Y2430415D1*
Y2436163D1*
X1225862Y2439966D1*
X1223917Y2441911D1*
X1218213Y2443812D1*
X1200969D1*
Y2403620D1*
X1263063Y2443768D2*
X1243962D1*
X1242060Y2426568D1*
X1243962Y2428469D1*
X1249710Y2430415D1*
X1255413D1*
X1261162Y2428469D1*
X1265008Y2424667D1*
X1266910Y2418919D1*
Y2415116D1*
X1265008Y2409368D1*
X1261162Y2405522D1*
X1255413Y2403620D1*
X1249710D1*
X1243962Y2405522D1*
X1242060Y2407467D1*
X1240115Y2411270D1*
X1178853Y1992167D2*
D79*
X1191753D1*
X1196064Y1993626D1*
X1197523Y1995052D1*
X1198949Y1997904D1*
Y2000789D1*
X1197523Y2003641D1*
X1196064Y2005100D1*
X1191753Y2006526D1*
X1178853D1*
Y1976382D1*
X1188901Y1992167D2*
X1198949Y1976382D1*
X1208212Y2006526D2*
X1228308Y1976382D1*
Y2006526D2*
X1208212Y1976382D1*
X1237572D2*
X1257668Y2006492D1*
X1276979Y2006526D2*
Y1976382D1*
X1266931Y2006526D2*
X1287027D1*
X1296291Y1996478D2*
X1312076Y1976382D1*
Y1996478D2*
X1296291Y1976382D1*
X1392424Y1398009D2*
D78*
Y1357817D1*
X1405821D1*
X1411569Y1359763D1*
X1415416Y1363565D1*
X1417317Y1367412D1*
X1419218Y1373116D1*
Y1382711D1*
X1417317Y1388459D1*
X1415416Y1392261D1*
X1411569Y1396108D1*
X1405821Y1398009D1*
X1392424D1*
X1546382Y1474159D2*
X1544481Y1477962D1*
X1540634Y1481809D1*
X1536832Y1483710D1*
X1529182D1*
X1525336Y1481809D1*
X1521533Y1477962D1*
X1519588Y1474159D1*
X1517686Y1468411D1*
Y1458817D1*
X1519588Y1453113D1*
X1521533Y1449266D1*
X1525336Y1445463D1*
X1529182Y1443518D1*
X1536832D1*
X1540634Y1445463D1*
X1544481Y1449266D1*
X1546382Y1453113D1*
Y1458817D1*
X1536832D1*
X1669743Y1464152D2*
X1665941Y1467999D1*
X1660193Y1469900D1*
X1652544D1*
X1646796Y1467999D1*
X1642949Y1464152D1*
Y1460350D1*
X1644894Y1456503D1*
X1646796Y1454602D1*
X1650598Y1452700D1*
X1662094Y1448854D1*
X1665941Y1446952D1*
X1667842Y1445007D1*
X1669743Y1441204D1*
Y1435456D1*
X1665941Y1431654D1*
X1660193Y1429708D1*
X1652544D1*
X1646796Y1431654D1*
X1642949Y1435456D1*
X443990Y1660314D2*
D81*
X449760Y1663232D1*
X458382Y1671788D1*
Y1611566D1*
X1064110Y2144167D2*
D78*
Y2113569D1*
X1062209Y2107821D1*
X1060263Y2105920D1*
X1056461Y2103975D1*
X1052614D1*
X1048811Y2105920D1*
X1046910Y2107821D1*
X1044964Y2113569D1*
Y2117372D1*
X1078407Y2134572D2*
Y2136473D1*
X1080308Y2140320D1*
X1082209Y2142221D1*
X1086056Y2144122D1*
X1093705D1*
X1097508Y2142221D1*
X1099409Y2140320D1*
X1101355Y2136473D1*
Y2132671D1*
X1099409Y2128824D1*
X1095607Y2123120D1*
X1076461Y2103975D1*
X1103256D1*
X1489438Y701625D2*
X1485635Y705471D1*
X1479887Y707373D1*
X1472238D1*
X1466490Y705471D1*
X1462643Y701625D1*
Y697822D1*
X1464588Y693975D1*
X1466490Y692074D1*
X1470292Y690173D1*
X1481788Y686326D1*
X1485635Y684425D1*
X1487536Y682479D1*
X1489438Y678677D1*
Y672929D1*
X1485635Y669126D1*
X1479887Y667181D1*
X1472238D1*
X1466490Y669126D1*
X1462643Y672929D1*
X1501789Y686326D2*
X1519033D1*
X1524737Y688227D1*
X1526682Y690173D1*
X1528584Y693975D1*
Y699723D1*
X1526682Y703526D1*
X1524737Y705471D1*
X1519033Y707373D1*
X1501789D1*
Y667181D1*
X1540935Y707373D2*
Y667181D1*
X1567730Y707373D2*
X1540935Y680578D1*
X1550486Y690173D2*
X1567730Y667181D1*
X1580081Y688227D2*
X1597281D1*
X1603029Y690173D1*
X1604975Y692074D1*
X1606876Y695877D1*
Y699723D1*
X1604975Y703526D1*
X1603029Y705471D1*
X1597281Y707373D1*
X1580081D1*
Y667181D1*
X1593479Y688227D2*
X1606876Y667181D1*
X1211735Y2560799D2*
Y2520607D1*
X1198337Y2560799D2*
X1225132D1*
X1237483Y2539753D2*
X1254727D1*
X1260431Y2541654D1*
X1262377Y2543599D1*
X1264278Y2547402D1*
Y2553150D1*
X1262377Y2556952D1*
X1260431Y2558898D1*
X1254727Y2560799D1*
X1237483D1*
Y2520607D1*
X1299577Y2555051D2*
X1297676Y2558854D1*
X1291928Y2560755D1*
X1288125D1*
X1282377Y2558854D1*
X1278531Y2553106D1*
X1276629Y2543555D1*
Y2534005D1*
X1278531Y2526355D1*
X1282377Y2522508D1*
X1288125Y2520607D1*
X1290027D1*
X1295730Y2522508D1*
X1299577Y2526355D1*
X1301479Y2532103D1*
Y2534005D1*
X1299577Y2539753D1*
X1295730Y2543555D1*
X1290027Y2545456D1*
X1288125D1*
X1282377Y2543555D1*
X1278531Y2539753D1*
X1276629Y2534005D1*
X535704Y2673534D2*
D79*
X534278Y2676386D1*
X531393Y2679271D1*
X528541Y2680697D1*
X522804D1*
X519919Y2679271D1*
X517067Y2676386D1*
X515608Y2673534D1*
X514182Y2669223D1*
Y2662027D1*
X515608Y2657749D1*
X517067Y2654864D1*
X519919Y2652012D1*
X522804Y2650553D1*
X528541D1*
X531393Y2652012D1*
X534278Y2654864D1*
X535704Y2657749D1*
X552130Y2670649D2*
X549278Y2669223D1*
X546393Y2666338D1*
X544967Y2662027D1*
Y2659175D1*
X546393Y2654864D1*
X549278Y2652012D1*
X552130Y2650553D1*
X556441D1*
X559326Y2652012D1*
X562178Y2654864D1*
X563637Y2659175D1*
Y2662027D1*
X562178Y2666338D1*
X559326Y2669223D1*
X556441Y2670649D1*
X552130D1*
X572901D2*
Y2650553D1*
Y2664912D2*
X577212Y2669223D1*
X580097Y2670649D1*
X584375D1*
X587260Y2669223D1*
X588686Y2664912D1*
Y2650553D1*
Y2664912D2*
X592997Y2669223D1*
X595882Y2670649D1*
X600160D1*
X603045Y2669223D1*
X604504Y2664912D1*
Y2650553D1*
X610021Y2565056D2*
Y2534912D1*
X599973Y2565056D2*
X620069D1*
X629333D2*
X630759Y2563630D1*
X632218Y2565056D1*
X630759Y2566515D1*
X629333Y2565056D1*
X630759Y2555008D2*
Y2534912D1*
X641481Y2555008D2*
Y2524864D1*
Y2550697D2*
X644366Y2553548D1*
X647218Y2555008D1*
X651529D1*
X654414Y2553548D1*
X657266Y2550697D1*
X658726Y2546385D1*
Y2543500D1*
X657266Y2539223D1*
X654414Y2536337D1*
X651529Y2534912D1*
X647218D1*
X644366Y2536337D1*
X641481Y2539223D1*
X585729Y2879143D2*
X598629D1*
X602940Y2880602D1*
X604400Y2882028D1*
X605825Y2884880D1*
Y2887765D1*
X604400Y2890617D1*
X602940Y2892076D1*
X598629Y2893502D1*
X585729D1*
Y2863358D1*
X595777Y2879143D2*
X605825Y2863358D1*
X615089Y2893502D2*
X616515Y2892076D1*
X617974Y2893502D1*
X616515Y2894961D1*
X615089Y2893502D1*
X616515Y2883454D2*
Y2863358D1*
X627238Y2883454D2*
Y2863358D1*
Y2877717D2*
X631549Y2882028D1*
X634434Y2883454D1*
X638712D1*
X641597Y2882028D1*
X643023Y2877717D1*
Y2863358D1*
X669497Y2882028D2*
Y2859047D1*
X668071Y2854769D1*
X666645Y2853310D1*
X663760Y2851884D1*
X659449D1*
X656597Y2853310D1*
X669497Y2877717D2*
X666645Y2880569D1*
X663760Y2882028D1*
X659449D1*
X656597Y2880569D1*
X653712Y2877717D1*
X652286Y2873406D1*
Y2870521D1*
X653712Y2866243D1*
X656597Y2863358D1*
X659449Y2861932D1*
X663760D1*
X666645Y2863358D1*
X669497Y2866243D1*
X866760Y2636002D2*
X863908Y2638887D1*
X859597Y2640313D1*
X853860D1*
X849549Y2638887D1*
X846664Y2636002D1*
Y2633150D1*
X848123Y2630265D1*
X849549Y2628839D1*
X852401Y2627413D1*
X861023Y2624528D1*
X863908Y2623102D1*
X865334Y2621643D1*
X866760Y2618791D1*
Y2614480D1*
X863908Y2611628D1*
X859597Y2610169D1*
X853860D1*
X849549Y2611628D1*
X846664Y2614480D1*
X876024Y2630265D2*
X881761Y2610169D1*
X887498Y2630265D1*
X893235Y2610169D1*
X898972Y2630265D1*
X838273Y2786517D2*
X835421Y2789402D1*
X831110Y2790828D1*
X825373D1*
X821062Y2789402D1*
X818177Y2786517D1*
Y2783665D1*
X819636Y2780780D1*
X821062Y2779354D1*
X823914Y2777928D1*
X832536Y2775043D1*
X835421Y2773617D1*
X836847Y2772157D1*
X838273Y2769306D1*
Y2764995D1*
X835421Y2762143D1*
X831110Y2760684D1*
X825373D1*
X821062Y2762143D1*
X818177Y2764995D1*
X847536Y2780780D2*
X853273Y2760684D1*
X859010Y2780780D1*
X864747Y2760684D1*
X870484Y2780780D1*
X534129Y2136305D2*
X532703Y2139156D1*
X529818Y2142041D1*
X526966Y2143467D1*
X521229D1*
X518344Y2142041D1*
X515492Y2139156D1*
X514033Y2136305D1*
X512607Y2131993D1*
Y2124797D1*
X514033Y2120520D1*
X515492Y2117634D1*
X518344Y2114783D1*
X521229Y2113323D1*
X526966D1*
X529818Y2114783D1*
X532703Y2117634D1*
X534129Y2120520D1*
X550556Y2133419D2*
X547704Y2131993D1*
X544819Y2129108D1*
X543393Y2124797D1*
Y2121945D1*
X544819Y2117634D1*
X547704Y2114783D1*
X550556Y2113323D1*
X554867D1*
X557752Y2114783D1*
X560604Y2117634D1*
X562063Y2121945D1*
Y2124797D1*
X560604Y2129108D1*
X557752Y2131993D1*
X554867Y2133419D1*
X550556D1*
X571326D2*
Y2113323D1*
Y2127682D2*
X575637Y2131993D1*
X578522Y2133419D1*
X582800D1*
X585685Y2131993D1*
X587111Y2127682D1*
Y2113323D1*
Y2127682D2*
X591422Y2131993D1*
X594307Y2133419D1*
X598585D1*
X601470Y2131993D1*
X602929Y2127682D1*
Y2113323D1*
X608446Y2027826D2*
Y1997682D1*
X598398Y2027826D2*
X618494D1*
X627758D2*
X629184Y2026400D1*
X630643Y2027826D1*
X629184Y2029285D1*
X627758Y2027826D1*
X629184Y2017778D2*
Y1997682D1*
X639907Y2017778D2*
Y1987634D1*
Y2013467D2*
X642792Y2016319D1*
X645644Y2017778D1*
X649955D1*
X652840Y2016319D1*
X655692Y2013467D1*
X657151Y2009156D1*
Y2006271D1*
X655692Y2001993D1*
X652840Y1999108D1*
X649955Y1997682D1*
X645644D1*
X642792Y1999108D1*
X639907Y2001993D1*
X584155Y2341913D2*
X597055D1*
X601366Y2343372D1*
X602825Y2344798D1*
X604251Y2347650D1*
Y2350535D1*
X602825Y2353387D1*
X601366Y2354846D1*
X597055Y2356272D1*
X584155D1*
Y2326128D1*
X594203Y2341913D2*
X604251Y2326128D1*
X613514Y2356272D2*
X614940Y2354846D1*
X616399Y2356272D1*
X614940Y2357731D1*
X613514Y2356272D1*
X614940Y2346224D2*
Y2326128D1*
X625663Y2346224D2*
Y2326128D1*
Y2340487D2*
X629974Y2344798D1*
X632859Y2346224D1*
X637137D1*
X640022Y2344798D1*
X641448Y2340487D1*
Y2326128D1*
X667922Y2344798D2*
Y2321817D1*
X666496Y2317539D1*
X665070Y2316080D1*
X662185Y2314654D1*
X657874D1*
X655022Y2316080D1*
X667922Y2340487D2*
X665070Y2343339D1*
X662185Y2344798D1*
X657874D1*
X655022Y2343339D1*
X652137Y2340487D1*
X650711Y2336176D1*
Y2333291D1*
X652137Y2329013D1*
X655022Y2326128D1*
X657874Y2324702D1*
X662185D1*
X665070Y2326128D1*
X667922Y2329013D1*
X865186Y2098772D2*
X862334Y2101657D1*
X858023Y2103083D1*
X852286D1*
X847975Y2101657D1*
X845090Y2098772D1*
Y2095920D1*
X846549Y2093035D1*
X847975Y2091609D1*
X850827Y2090183D1*
X859449Y2087298D1*
X862334Y2085872D1*
X863760Y2084413D1*
X865186Y2081561D1*
Y2077250D1*
X862334Y2074398D1*
X858023Y2072939D1*
X852286D1*
X847975Y2074398D1*
X845090Y2077250D1*
X874449Y2093035D2*
X880186Y2072939D1*
X885923Y2093035D1*
X891660Y2072939D1*
X897397Y2093035D1*
X836698Y2249287D2*
X833846Y2252172D1*
X829535Y2253598D1*
X823798D1*
X819487Y2252172D1*
X816602Y2249287D1*
Y2246435D1*
X818061Y2243550D1*
X819487Y2242124D1*
X822339Y2240698D1*
X830961Y2237813D1*
X833846Y2236387D1*
X835272Y2234928D1*
X836698Y2232076D1*
Y2227765D1*
X833846Y2224913D1*
X829535Y2223454D1*
X823798D1*
X819487Y2224913D1*
X816602Y2227765D1*
X845962Y2243550D2*
X851699Y2223454D1*
X857436Y2243550D1*
X863173Y2223454D1*
X868909Y2243550D1*
X3727529Y1140699D2*
D82*
X3707433D1*
Y1132077D1*
X3708406Y1129203D1*
X3709357Y1128253D1*
X3711258Y1127302D1*
X3714132D1*
X3716055Y1128253D1*
X3717006Y1129203D1*
X3717957Y1132077D1*
X3718929Y1129203D1*
X3719880Y1128253D1*
X3721781Y1127302D1*
X3723705D1*
X3725606Y1128253D1*
X3726579Y1129203D1*
X3727529Y1132077D1*
Y1140699D1*
X3717957D2*
Y1132077D1*
X3652519Y1128275D2*
Y1140699D1*
X3632423D1*
Y1128275D1*
X3642946Y1140699D2*
Y1133050D1*
X3685249Y970103D2*
X3687150Y971054D1*
X3689074Y972977D1*
X3690024Y974878D1*
Y978703D1*
X3689074Y980626D1*
X3687150Y982528D1*
X3685249Y983501D1*
X3682375Y984451D1*
X3677577D1*
X3674726Y983501D1*
X3672802Y982528D1*
X3670901Y980627D1*
X3669928Y978703D1*
Y974879D1*
X3670901Y972977D1*
X3672802Y971054D1*
X3674726Y970103D1*
X3482655Y1135068D2*
X3462559D1*
Y1126446D1*
X3463532Y1123572D1*
X3464483Y1122622D1*
X3466384Y1121671D1*
X3469258D1*
X3471181Y1122621D1*
X3472132Y1123572D1*
X3473083Y1126446D1*
X3474055Y1123572D1*
X3475006Y1122621D1*
X3476907Y1121671D1*
X3478831D1*
X3480732Y1122621D1*
X3481705Y1123572D1*
X3482655Y1126446D1*
Y1135068D1*
X3473083D2*
Y1126446D1*
X3407645Y1122644D2*
Y1135068D1*
X3387549D1*
Y1122644D1*
X3398072Y1135068D2*
Y1127419D1*
X3440375Y964472D2*
X3442276Y965423D1*
X3444199Y967346D1*
X3445150Y969247D1*
Y973072D1*
X3444200Y974995D1*
X3442276Y976897D1*
X3440375Y977869D1*
X3437501Y978820D1*
X3432703D1*
X3429852Y977869D1*
X3427928Y976897D1*
X3426027Y974995D1*
X3425054Y973072D1*
Y969247D1*
X3426027Y967346D1*
X3427928Y965423D1*
X3429851Y964472D1*
X534987Y3192917D2*
D79*
X533561Y3195769D1*
X530676Y3198654D1*
X527824Y3200080D1*
X522087D1*
X519202Y3198654D1*
X516350Y3195769D1*
X514891Y3192917D1*
X513465Y3188606D1*
Y3181410D1*
X514891Y3177132D1*
X516350Y3174247D1*
X519202Y3171395D1*
X522087Y3169936D1*
X527824D1*
X530676Y3171395D1*
X533561Y3174247D1*
X534987Y3177132D1*
X551414Y3190032D2*
X548562Y3188606D1*
X545677Y3185721D1*
X544251Y3181410D1*
Y3178558D1*
X545677Y3174247D1*
X548562Y3171395D1*
X551414Y3169936D1*
X555725D1*
X558610Y3171395D1*
X561462Y3174247D1*
X562921Y3178558D1*
Y3181410D1*
X561462Y3185721D1*
X558610Y3188606D1*
X555725Y3190032D1*
X551414D1*
X572184D2*
Y3169936D1*
Y3184295D2*
X576496Y3188606D1*
X579381Y3190032D1*
X583658D1*
X586544Y3188606D1*
X587969Y3184295D1*
Y3169936D1*
Y3184295D2*
X592280Y3188606D1*
X595166Y3190032D1*
X599443D1*
X602328Y3188606D1*
X603788Y3184295D1*
Y3169936D1*
X609305Y3084439D2*
Y3054295D1*
X599257Y3084439D2*
X619353D1*
X628616D2*
X630042Y3083013D1*
X631501Y3084439D1*
X630042Y3085898D1*
X628616Y3084439D1*
X630042Y3074391D2*
Y3054295D1*
X640765Y3074391D2*
Y3044247D1*
Y3070080D2*
X643650Y3072932D1*
X646502Y3074391D1*
X650813D1*
X653698Y3072932D1*
X656550Y3070080D1*
X658009Y3065769D1*
Y3062884D1*
X656550Y3058606D1*
X653698Y3055721D1*
X650813Y3054295D1*
X646502D1*
X643650Y3055721D1*
X640765Y3058606D1*
X585013Y3398526D2*
X597913D1*
X602224Y3399985D1*
X603683Y3401411D1*
X605109Y3404263D1*
Y3407148D1*
X603683Y3410000D1*
X602224Y3411459D1*
X597913Y3412885D1*
X585013D1*
Y3382741D1*
X595061Y3398526D2*
X605109Y3382741D1*
X614372Y3412885D2*
X615798Y3411459D1*
X617258Y3412885D1*
X615798Y3414344D1*
X614372Y3412885D1*
X615798Y3402837D2*
Y3382741D1*
X626521Y3402837D2*
Y3382741D1*
Y3397100D2*
X630832Y3401411D1*
X633717Y3402837D1*
X637995D1*
X640880Y3401411D1*
X642306Y3397100D1*
Y3382741D1*
X668781Y3401411D2*
Y3378430D1*
X667355Y3374152D1*
X665929Y3372693D1*
X663044Y3371267D1*
X658733D1*
X655881Y3372693D1*
X668781Y3397100D2*
X665929Y3399952D1*
X663044Y3401411D1*
X658733D1*
X655881Y3399952D1*
X652996Y3397100D1*
X651570Y3392789D1*
Y3389904D1*
X652996Y3385626D1*
X655881Y3382741D1*
X658733Y3381315D1*
X663044D1*
X665929Y3382741D1*
X668781Y3385626D1*
X866044Y3155385D2*
X863192Y3158270D1*
X858881Y3159696D1*
X853144D1*
X848833Y3158270D1*
X845948Y3155385D1*
Y3152533D1*
X847407Y3149648D1*
X848833Y3148222D1*
X851685Y3146796D1*
X860307Y3143911D1*
X863192Y3142485D1*
X864618Y3141026D1*
X866044Y3138174D1*
Y3133863D1*
X863192Y3131011D1*
X858881Y3129552D1*
X853144D1*
X848833Y3131011D1*
X845948Y3133863D1*
X875307Y3149648D2*
X881044Y3129552D1*
X886781Y3149648D1*
X892518Y3129552D1*
X898255Y3149648D1*
X837556Y3305900D2*
X834704Y3308785D1*
X830393Y3310211D1*
X824656D1*
X820345Y3308785D1*
X817460Y3305900D1*
Y3303048D1*
X818919Y3300163D1*
X820345Y3298737D1*
X823197Y3297311D1*
X831819Y3294426D1*
X834704Y3293000D1*
X836130Y3291541D1*
X837556Y3288689D1*
Y3284378D1*
X834704Y3281526D1*
X830393Y3280067D1*
X824656D1*
X820345Y3281526D1*
X817460Y3284378D1*
X846820Y3300163D2*
X852557Y3280067D1*
X858294Y3300163D1*
X864031Y3280067D1*
X869768Y3300163D1*
X1880411Y759017D2*
D81*
Y698729D1*
X1860315Y759017D2*
X1900507D1*
X1919034D2*
Y698729D1*
X1939130D1*
X1947752Y701647D1*
X1953522Y707351D1*
X1956374Y713121D1*
X1959226Y721677D1*
Y736069D1*
X1956374Y744691D1*
X1953522Y750395D1*
X1947752Y756165D1*
X1939130Y759017D1*
X1919034D1*
X2023715Y698729D2*
X2000701Y759017D1*
X1977753Y698729D1*
X1986375Y718825D2*
X2015093D1*
X2053716Y698729D2*
X2082434Y758951D1*
X2042242D1*
X2103879Y744625D2*
Y747477D1*
X2106731Y753247D1*
X2109583Y756099D1*
X2115353Y758951D1*
X2126827D1*
X2132531Y756099D1*
X2135383Y753247D1*
X2138301Y747477D1*
Y741773D1*
X2135383Y736003D1*
X2129679Y727447D1*
X2100961Y698729D1*
X2141153D1*
X2194102Y750395D2*
X2191250Y756099D1*
X2182628Y758951D1*
X2176924D1*
X2168302Y756099D1*
X2162532Y747477D1*
X2159680Y733151D1*
Y718825D1*
X2162532Y707351D1*
X2168302Y701581D1*
X2176924Y698729D1*
X2179776D1*
X2188332Y701581D1*
X2194102Y707351D1*
X2196954Y715973D1*
Y718825D1*
X2194102Y727447D1*
X2188332Y733151D1*
X2179776Y736003D1*
X2176924D1*
X2168302Y733151D1*
X2162532Y727447D1*
X2159680Y718825D1*
X2249903Y750395D2*
X2247051Y756099D1*
X2238429Y758951D1*
X2232725D1*
X2224103Y756099D1*
X2218333Y747477D1*
X2215481Y733151D1*
Y718825D1*
X2218333Y707351D1*
X2224103Y701581D1*
X2232725Y698729D1*
X2235577D1*
X2244133Y701581D1*
X2249903Y707351D1*
X2252755Y715973D1*
Y718825D1*
X2249903Y727447D1*
X2244133Y733151D1*
X2235577Y736003D1*
X2232725D1*
X2224103Y733151D1*
X2218333Y727447D1*
X2215481Y718825D1*
X2317178Y698729D2*
Y759017D1*
X2294230Y698729D1*
X2271282Y759017D1*
Y698729D1*
M02*
