G04 DipTrace 3.3.1.1*
G04 Bottom.gbr*
%MOIN*%
G04 #@! TF.FileFunction,Copper,L2,Bot*
G04 #@! TF.Part,Single*
G04 #@! TA.AperFunction,Conductor*
%ADD14C,0.027559*%
%ADD15C,0.011811*%
G04 #@! TA.AperFunction,CopperBalancing*
%ADD17C,0.04*%
%ADD18C,0.012992*%
G04 #@! TA.AperFunction,ComponentPad*
%ADD20C,0.062992*%
%ADD21R,0.062992X0.062992*%
%ADD23C,0.06*%
%ADD24O,0.062992X0.137795*%
%ADD25O,0.137795X0.062992*%
%ADD26R,0.059055X0.059055*%
%ADD27C,0.059055*%
%ADD29C,0.12*%
%ADD30C,0.059055*%
%ADD34R,0.07X0.07*%
%ADD35C,0.07*%
%FSLAX26Y26*%
G04*
G70*
G90*
G75*
G01*
G04 Bottom*
%LPD*%
X2913701Y1571415D2*
D14*
X2957923Y1615636D1*
Y2096563D1*
X3182867D1*
Y2538850D1*
X3239054Y2595037D1*
X3307402D1*
X2548227Y1559364D2*
X2913701D1*
Y1571415D1*
X3844625Y3047474D2*
Y2847474D1*
X4044625D2*
Y3047474D1*
X1474877Y2071140D2*
Y2305077D1*
Y2590714D1*
X1473306D1*
X523056Y1702283D2*
X496529D1*
X454950Y1660705D1*
Y1502283D1*
X523056D1*
X454950D2*
Y1348472D1*
X501139Y1302283D1*
X523056D1*
X3072751Y1614883D2*
X3078088Y1620220D1*
Y1835518D1*
X3787545Y1075293D2*
X3622025Y1240812D1*
Y1407987D1*
X3637623D1*
Y1508717D1*
X4218808Y1068297D2*
Y868297D1*
X4018808Y1068297D2*
Y868297D1*
X3157385Y1506210D2*
Y1407987D1*
X3322346D1*
X3622025D1*
X3322346Y1418999D2*
Y1407987D1*
X519448Y2383307D2*
D15*
X485358D1*
X441593Y2339542D1*
Y1660705D1*
X454950D1*
X1972554Y2968046D2*
Y2721335D1*
X1970634D1*
X3707050Y1373278D2*
Y1260436D1*
X1619399Y1598427D2*
Y2417742D1*
X1670078Y2468422D1*
X4043178Y1906416D2*
Y1815220D1*
X3962711Y1734753D1*
X3923349D1*
Y1729845D1*
X4039484Y2496215D2*
Y2314029D1*
X4039437D1*
X3420467Y1749592D2*
Y1646933D1*
X3486967Y1580433D1*
X3710007D1*
Y1590409D1*
X3019252Y2041207D2*
X3050634D1*
X3075409Y2016432D1*
X3157287D1*
X3228661Y1945058D1*
Y1839171D1*
X3318240Y1749592D1*
X3420467D1*
X3432219Y1556798D2*
Y1582717D1*
X3191685Y1823251D1*
Y1922682D1*
X3150832Y1963535D1*
X3043318D1*
X3019597Y1987256D1*
Y1985593D1*
X3844209Y1556850D2*
X3508699D1*
X3508647Y1556798D1*
X3432219D1*
X3661732Y2514268D2*
Y2398186D1*
X3689854Y1686274D2*
X3627660Y1624080D1*
X2434598Y1439378D2*
Y1525581D1*
X2667685Y1758668D1*
X2757378D1*
X2754849Y1756139D1*
X3144278D2*
Y1882438D1*
X3311710Y1978192D2*
Y1982102D1*
X3589094D1*
X1721263Y2583473D2*
X1778930Y2641140D1*
Y2821492D1*
X3448505Y1309688D2*
Y1105522D1*
X3428182Y1085199D1*
X3387545D1*
Y1075293D1*
X1980001Y1765281D2*
Y1604769D1*
X1978416D1*
X623056Y2002283D2*
X642686D1*
X727108Y1917861D1*
Y1738201D1*
X989551Y1475758D1*
X961126Y2016208D2*
X1276519Y1700814D1*
Y1690484D1*
X523056Y1802283D2*
X623056D1*
D17*
X2548227Y1559364D3*
X3707050Y1373278D3*
Y1260436D3*
X4043178Y1906416D3*
X3844209Y1556850D3*
X3661732Y2514268D3*
Y2398186D3*
X3689854Y1686274D3*
X3627660Y1624080D3*
X2754849Y1756139D3*
X3144278D3*
X3311710Y1978192D3*
X3589094Y1982102D3*
X2390392Y2355323D3*
X2795591Y2752517D3*
X2312198Y2633168D3*
X3225412Y2698152D3*
X1968819Y1886375D3*
X2207487Y1478472D3*
X2205039Y1965115D3*
X3307402Y2437556D3*
X2753975Y2184954D3*
X2992441Y2319446D3*
X3425512Y2083226D3*
X3897953Y2122596D3*
X3110551Y1335194D3*
X2953071Y1098974D3*
X2205039Y980864D3*
X1328608Y1100474D3*
X1850709Y1256454D3*
X3637944Y1019794D3*
X3474219Y706924D3*
X4134173Y1492675D3*
Y1965115D3*
Y2319446D3*
Y2122596D3*
X3509130Y2848550D3*
X3943864Y2744249D3*
X1418299Y2703041D3*
X1067587Y2713600D3*
X1227534Y2256841D3*
X1063307Y2083226D3*
X791873Y1899122D3*
X713631Y2250982D3*
X1127080Y2506601D3*
X4134173Y1807635D3*
X3897953Y2358816D3*
X3307402Y2122596D3*
X3819213Y2004486D3*
X3464882Y2476927D3*
X3543622Y2398186D3*
X4134173Y1650155D3*
X2029126Y2550772D3*
X2244399Y2204416D3*
X2220568Y2494280D3*
X2223630Y2353471D3*
X2540234Y2339203D3*
X2676665Y2286127D3*
X2848085Y2093281D3*
X2834961Y1847005D3*
X2716850D3*
X2541574Y2199760D3*
X2391988Y2208943D3*
X2236809Y3072844D3*
X2410354Y3014659D3*
X2429707Y3090022D3*
X2687600Y2877110D3*
X2756220Y2555667D3*
X2874331Y2437556D3*
X3110551Y2634407D3*
Y2791887D3*
X3092970Y2993232D3*
X3110551Y2437556D3*
Y2201336D3*
X2834961Y1965115D3*
X3307402Y2280076D3*
X3229214Y2890121D3*
X3227314Y3006062D3*
X3358459Y2743769D3*
X3506713Y2734265D3*
X3679675Y2736165D3*
X3810820Y2734265D3*
X4073114Y2719060D3*
X3225412Y2789385D3*
X3386142Y2437556D3*
X3681575Y2040518D3*
X3937323Y2004486D3*
X3966676Y1603364D3*
X3970478Y1481720D3*
X3976180Y1375282D3*
X3877344Y1213726D3*
X3715786Y1187115D3*
X3571336Y1190917D3*
X3556760Y1087572D3*
X3563732Y922923D3*
X3539918Y828383D3*
X3366366Y703070D3*
X3228661Y705273D3*
X3071181D3*
X2911401Y594882D3*
X2698869Y791376D3*
X2829559Y989331D3*
X2953071Y1020234D3*
X3071181D3*
X3110551Y1177714D3*
X2953071D3*
X2831972Y1059770D3*
X2702727Y983744D3*
X2520000Y980864D3*
Y823383D3*
Y665903D3*
Y508423D3*
X3228661Y547793D3*
X4008491Y495270D3*
X3903954Y902014D3*
X3886848Y774669D3*
X3807020Y630218D3*
X3637860Y573198D3*
X4124432Y780371D3*
X3149386Y1610966D3*
X3322346Y1418999D3*
X3242518Y1356276D3*
X2992441Y1335194D3*
Y1532045D3*
X2839576Y1476018D3*
X2831972Y1293554D3*
X2687521Y1151003D3*
X2649508Y1318262D3*
X2765449Y1398091D3*
X2113933Y1477266D3*
X2323150Y1610785D3*
X2401890Y1492675D3*
X2323150Y1413934D3*
X2244409Y1335194D3*
X2126299Y1177714D3*
X1850709D3*
X1653858D3*
X1535748Y1295824D3*
X1417638Y1413934D3*
X1279121Y1517833D3*
X1278524Y1605009D3*
X1189790Y1677490D3*
X1092523Y1990842D3*
X1216399Y1901769D3*
X1311433Y1993003D3*
X1507202Y1994903D3*
X1549017Y1896067D3*
X1376056Y1897969D3*
X1994433Y1486508D3*
X1860728Y1487423D3*
X1678264Y1489323D3*
X1573726Y1485522D3*
X2362520Y1965115D3*
X2520000D3*
X2476573Y1906147D3*
X2460686Y1797902D3*
X2086819Y1924439D3*
X2008189Y2004486D3*
X2076810Y1816648D3*
X1850709Y1925745D3*
X1700121Y2209678D3*
X1847310Y2211979D3*
X2017496D3*
X1693228Y2122596D3*
X1535748Y2201336D3*
X2121218Y2208069D3*
X1233259Y2660443D3*
X1352849Y2527054D3*
X1334450Y2317770D3*
X1182663Y2119986D3*
X1063307Y2240706D3*
X1056403Y2447250D3*
X1058472Y2584549D3*
X811034Y1146496D3*
X501479Y2257791D3*
X827087Y2083226D3*
X1474877Y2305077D3*
X3072751Y1614883D3*
X1473306Y2590714D3*
X2750307Y1964777D3*
X1474877Y2071140D3*
X1970634Y2721335D3*
X1972554Y2968046D3*
X1670078Y2468422D3*
X1619399Y1598427D3*
X3307402Y2595037D3*
X2913701Y1571415D3*
X2434598Y1439378D3*
X3637623Y1508717D3*
X3157385Y1506210D3*
X1778930Y2821492D3*
X1721263Y2583473D3*
X1978416Y1604769D3*
X1980001Y1765281D3*
X989551Y1475758D3*
X1276519Y1690484D3*
X4039484Y2496215D3*
X961126Y2016208D3*
X3078088Y1835518D3*
X3019252Y2041207D3*
X3710007Y1590409D3*
X3420467Y1749592D3*
X3432219Y1556798D3*
X3019597Y1985593D3*
X3923349Y1729845D3*
X3144278Y1882438D3*
X3448505Y1309688D3*
X3256268Y3048879D2*
X3729044D1*
X4160226D2*
X4271469D1*
X3256124Y3009010D2*
X3556154D1*
X3702775D2*
X3735862D1*
X4153372D2*
X4271469D1*
X3255981Y2969142D2*
X3544384D1*
X3714581D2*
X3761125D1*
X4128110D2*
X4271469D1*
X3255837Y2929273D2*
X3553570D1*
X3705394D2*
X3764713D1*
X4124557D2*
X4271469D1*
X3255694Y2889404D2*
X3601225D1*
X3657704D2*
X3737190D1*
X4152045D2*
X4271469D1*
X3255586Y2849535D2*
X3729044D1*
X4160190D2*
X4271469D1*
X3255442Y2809667D2*
X3735611D1*
X4153624D2*
X4271469D1*
X3255299Y2769798D2*
X3744654D1*
X3928773D2*
X3960497D1*
X4128756D2*
X4271469D1*
X3255155Y2729929D2*
X3735360D1*
X3886286D2*
X3998355D1*
X4147882D2*
X4271469D1*
X3255012Y2690060D2*
X3750503D1*
X3871143D2*
X4003666D1*
X4142571D2*
X4271469D1*
X3357066Y2650192D2*
X4049526D1*
X4096711D2*
X4271469D1*
X3381360Y2610323D2*
X4271469D1*
X3378633Y2570454D2*
X3613353D1*
X3710131D2*
X4271469D1*
X3342605Y2530585D2*
X3588019D1*
X3735465D2*
X3972662D1*
X4106292D2*
X4271469D1*
X3254330Y2490717D2*
X3590101D1*
X3733348D2*
X3964086D1*
X4114869D2*
X4271469D1*
X3254186Y2450848D2*
X3600220D1*
X3723229D2*
X3977973D1*
X4100982D2*
X4271469D1*
X3254079Y2410979D2*
X3587302D1*
X3808741D2*
X3977973D1*
X4100982D2*
X4271469D1*
X3253935Y2371110D2*
X3591464D1*
X3823453D2*
X3873657D1*
X3895939D2*
X3977793D1*
X4101089D2*
X4271469D1*
X3253792Y2331241D2*
X3632336D1*
X4122727D2*
X4271469D1*
X3253648Y2291373D2*
X3698327D1*
X3779029D2*
X3799664D1*
X4121328D2*
X4271469D1*
X3253505Y2251504D2*
X3809532D1*
X3960064D2*
X3983750D1*
X4095132D2*
X4271469D1*
X3253361Y2211635D2*
X3860954D1*
X3908642D2*
X4271469D1*
X3253254Y2171766D2*
X4271469D1*
X3253110Y2131898D2*
X4271469D1*
X3252966Y2092029D2*
X4271469D1*
X3252823Y2052160D2*
X3570328D1*
X3607861D2*
X4271469D1*
X3658027Y2012291D2*
X3994336D1*
X3664020Y1972423D2*
X3992901D1*
X3644786Y1932554D2*
X3972518D1*
X3370774Y1892685D2*
X3968894D1*
X3370774Y1852816D2*
X3981669D1*
X3457829Y1812948D2*
X3955581D1*
X3492099Y1773079D2*
X3862282D1*
X3494180Y1733210D2*
X3631798D1*
X3747917D2*
X3847821D1*
X4156210Y3045637D2*
X4155484Y3034641D1*
X4153679Y3023771D1*
X4150809Y3013132D1*
X4146905Y3002828D1*
X4142004Y2992959D1*
X4136153Y2983621D1*
X4129410Y2974906D1*
X4121840Y2966899D1*
X4113518Y2959677D1*
X4104523Y2953311D1*
X4094945Y2947863D1*
X4094167Y2947477D1*
X4103505Y2942277D1*
X4112567Y2936009D1*
X4120967Y2928877D1*
X4128622Y2920951D1*
X4135459Y2912310D1*
X4141410Y2903036D1*
X4146418Y2893220D1*
X4150433Y2882958D1*
X4153417Y2872351D1*
X4155340Y2861501D1*
X4156183Y2850514D1*
X4155983Y2840130D1*
X4154716Y2829184D1*
X4152375Y2818416D1*
X4148985Y2807932D1*
X4144576Y2797833D1*
X4139194Y2788218D1*
X4132889Y2779180D1*
X4125724Y2770809D1*
X4124203Y2769235D1*
X4131040Y2761146D1*
X4136910Y2751566D1*
X4141210Y2741186D1*
X4143833Y2730261D1*
X4144714Y2719060D1*
X4143833Y2707860D1*
X4141210Y2696935D1*
X4136910Y2686555D1*
X4131040Y2676975D1*
X4123743Y2668432D1*
X4115200Y2661135D1*
X4105620Y2655264D1*
X4095240Y2650965D1*
X4084315Y2648342D1*
X4073114Y2647460D1*
X4061913Y2648342D1*
X4050989Y2650965D1*
X4040608Y2655264D1*
X4031029Y2661135D1*
X4022485Y2668432D1*
X4015189Y2676975D1*
X4009318Y2686555D1*
X4005019Y2696935D1*
X4002396Y2707860D1*
X4001514Y2719060D1*
X4002396Y2730261D1*
X4005019Y2741186D1*
X4005649Y2742896D1*
X3995666Y2747186D1*
X3986014Y2752503D1*
X3976934Y2758746D1*
X3968514Y2765854D1*
X3960836Y2773758D1*
X3953975Y2782380D1*
X3947997Y2791637D1*
X3944576Y2797833D1*
X3939194Y2788218D1*
X3932889Y2779180D1*
X3925724Y2770809D1*
X3917768Y2763185D1*
X3909099Y2756383D1*
X3899802Y2750468D1*
X3889966Y2745500D1*
X3881962Y2742308D1*
X3882420Y2734265D1*
X3881539Y2723064D1*
X3878916Y2712139D1*
X3874616Y2701759D1*
X3868746Y2692180D1*
X3861449Y2683636D1*
X3852906Y2676339D1*
X3843326Y2670469D1*
X3832946Y2666169D1*
X3822021Y2663547D1*
X3810820Y2662665D1*
X3799620Y2663547D1*
X3788695Y2666169D1*
X3778314Y2670469D1*
X3768735Y2676339D1*
X3760191Y2683636D1*
X3752895Y2692180D1*
X3747024Y2701759D1*
X3742725Y2712139D1*
X3740102Y2723064D1*
X3739220Y2734265D1*
X3740102Y2745466D1*
X3742725Y2756391D1*
X3747024Y2766771D1*
X3752895Y2776351D1*
X3755763Y2779989D1*
X3749888Y2788487D1*
X3744532Y2798117D1*
X3740153Y2808228D1*
X3736792Y2818722D1*
X3734482Y2829497D1*
X3733246Y2840446D1*
X3733096Y2851464D1*
X3734033Y2862444D1*
X3736049Y2873277D1*
X3739123Y2883859D1*
X3743225Y2894086D1*
X3748316Y2903858D1*
X3754346Y2913081D1*
X3761256Y2921664D1*
X3768979Y2929524D1*
X3777439Y2936584D1*
X3786555Y2942775D1*
X3795083Y2947471D1*
X3786014Y2952503D1*
X3776934Y2958746D1*
X3768514Y2965854D1*
X3760836Y2973758D1*
X3753975Y2982380D1*
X3747997Y2991637D1*
X3742962Y3001439D1*
X3738918Y3011689D1*
X3735904Y3022288D1*
X3733950Y3033132D1*
X3733075Y3044117D1*
X3733288Y3055134D1*
X3734586Y3066076D1*
X3736957Y3076837D1*
X3740377Y3087312D1*
X3740940Y3088749D1*
X3252410Y3088748D1*
X3250920Y2660381D1*
X3278203Y2660416D1*
X3285276Y2663132D1*
X3296201Y2665755D1*
X3307402Y2666637D1*
X3318602Y2665755D1*
X3329527Y2663132D1*
X3339907Y2658833D1*
X3349487Y2652962D1*
X3358030Y2645666D1*
X3365327Y2637122D1*
X3371198Y2627542D1*
X3375497Y2617162D1*
X3378120Y2606237D1*
X3379002Y2595037D1*
X3378120Y2583836D1*
X3375497Y2572911D1*
X3371198Y2562531D1*
X3365327Y2552951D1*
X3358030Y2544408D1*
X3349487Y2537111D1*
X3339907Y2531241D1*
X3329527Y2526941D1*
X3318602Y2524318D1*
X3307402Y2523437D1*
X3296201Y2524318D1*
X3285276Y2526941D1*
X3278346Y2529650D1*
X3266171Y2529657D1*
X3250395Y2513917D1*
X3248731Y2024517D1*
X3257265Y2024692D1*
X3265209Y2032637D1*
X3274299Y2039241D1*
X3284310Y2044341D1*
X3294995Y2047813D1*
X3306092Y2049571D1*
X3317328D1*
X3328425Y2047813D1*
X3339110Y2044341D1*
X3348450Y2039616D1*
X3546428Y2039608D1*
X3551684Y2043151D1*
X3561694Y2048252D1*
X3572380Y2051724D1*
X3583477Y2053482D1*
X3594712D1*
X3605809Y2051724D1*
X3616495Y2048252D1*
X3626505Y2043151D1*
X3635595Y2036547D1*
X3643540Y2028603D1*
X3650144Y2019513D1*
X3655244Y2009502D1*
X3658716Y1998817D1*
X3660474Y1987720D1*
Y1976485D1*
X3658716Y1965388D1*
X3655244Y1954702D1*
X3650144Y1944691D1*
X3643540Y1935602D1*
X3635595Y1927657D1*
X3626505Y1921053D1*
X3616495Y1915953D1*
X3605809Y1912481D1*
X3594712Y1910723D1*
X3583477D1*
X3572380Y1912481D1*
X3561694Y1915953D1*
X3551684Y1921053D1*
X3546474Y1924598D1*
X3366792Y1924597D1*
X3366772Y1807087D1*
X3377844Y1807097D1*
X3383056Y1810641D1*
X3393067Y1815742D1*
X3403753Y1819214D1*
X3414850Y1820971D1*
X3426085D1*
X3437182Y1819214D1*
X3447867Y1815742D1*
X3457878Y1810641D1*
X3466968Y1804037D1*
X3474912Y1796092D1*
X3481516Y1787003D1*
X3486617Y1776992D1*
X3490089Y1766307D1*
X3491846Y1755210D1*
Y1743974D1*
X3490089Y1732877D1*
X3486617Y1722192D1*
X3481516Y1712181D1*
X3479747Y1709533D1*
X3622111Y1709525D1*
X3626058Y1718780D1*
X3631929Y1728360D1*
X3639225Y1736903D1*
X3647769Y1744200D1*
X3657349Y1750070D1*
X3667729Y1754370D1*
X3678654Y1756993D1*
X3689854Y1757874D1*
X3701055Y1756993D1*
X3711980Y1754370D1*
X3722360Y1750070D1*
X3731940Y1744200D1*
X3740483Y1736903D1*
X3747780Y1728360D1*
X3753650Y1718780D1*
X3757532Y1709533D1*
X3854712Y1709525D1*
X3852631Y1718644D1*
X3851749Y1729845D1*
X3852631Y1741046D1*
X3855253Y1751971D1*
X3859553Y1762351D1*
X3865423Y1771931D1*
X3872720Y1780474D1*
X3881264Y1787771D1*
X3890843Y1793641D1*
X3901223Y1797941D1*
X3912148Y1800564D1*
X3923349Y1801445D1*
X3934550Y1800564D1*
X3944777Y1798138D1*
X3985661Y1839028D1*
X3985673Y1863772D1*
X3982129Y1869005D1*
X3977029Y1879016D1*
X3973557Y1889701D1*
X3971799Y1900798D1*
Y1912034D1*
X3973557Y1923131D1*
X3977029Y1933816D1*
X3982129Y1943827D1*
X3988733Y1952916D1*
X3996678Y1960861D1*
X3996871Y1965173D1*
X3997054Y2006734D1*
X3997985Y2011342D1*
X3999966Y2015606D1*
X4002888Y2019290D1*
X4006588Y2022190D1*
X4010864Y2024146D1*
X4015484Y2025049D1*
X4275439Y2026294D1*
X4275455Y3088761D1*
X4148294Y3088748D1*
X4151544Y3079456D1*
X4154177Y3068756D1*
X4155741Y3057849D1*
X4156225Y3047474D1*
X4156210Y3045637D1*
X3819540Y2357536D2*
X3818791Y2351210D1*
X3817549Y2344963D1*
X3815820Y2338832D1*
X3813615Y2332855D1*
X3810948Y2327070D1*
X3807835Y2321513D1*
X3804296Y2316216D1*
X3800353Y2311213D1*
X3796029Y2306536D1*
X3791351Y2302212D1*
X3786348Y2298268D1*
X3781052Y2294729D1*
X3775494Y2291616D1*
X3769709Y2288949D1*
X3763733Y2286745D1*
X3757602Y2285016D1*
X3751354Y2283773D1*
X3745028Y2283024D1*
X3738663Y2282774D1*
X3732298Y2283024D1*
X3725972Y2283773D1*
X3719724Y2285016D1*
X3713593Y2286745D1*
X3707617Y2288949D1*
X3701832Y2291616D1*
X3696274Y2294729D1*
X3690977Y2298268D1*
X3685975Y2302212D1*
X3681297Y2306536D1*
X3676973Y2311213D1*
X3673029Y2316216D1*
X3669490Y2321513D1*
X3666560Y2326745D1*
X3656115Y2326807D1*
X3645018Y2328565D1*
X3634332Y2332037D1*
X3624321Y2337137D1*
X3615232Y2343741D1*
X3607287Y2351686D1*
X3600683Y2360775D1*
X3595583Y2370786D1*
X3592111Y2381472D1*
X3590353Y2392569D1*
Y2403804D1*
X3592111Y2414901D1*
X3595583Y2425586D1*
X3600683Y2435597D1*
X3604228Y2440806D1*
X3604227Y2471641D1*
X3600683Y2476857D1*
X3595583Y2486868D1*
X3592111Y2497553D1*
X3590353Y2508650D1*
Y2519885D1*
X3592111Y2530982D1*
X3595583Y2541668D1*
X3600683Y2551679D1*
X3607287Y2560768D1*
X3615232Y2568713D1*
X3624321Y2575317D1*
X3634332Y2580417D1*
X3645018Y2583889D1*
X3656115Y2585647D1*
X3667350D1*
X3678447Y2583889D1*
X3689132Y2580417D1*
X3699143Y2575317D1*
X3708233Y2568713D1*
X3716177Y2560768D1*
X3722781Y2551679D1*
X3727882Y2541668D1*
X3731354Y2530982D1*
X3733112Y2519885D1*
Y2508650D1*
X3731354Y2497553D1*
X3727882Y2486868D1*
X3722781Y2476857D1*
X3719236Y2471648D1*
X3719238Y2442679D1*
X3725972Y2444030D1*
X3732298Y2444779D1*
X3738663Y2445029D1*
X3745028Y2444779D1*
X3751354Y2444030D1*
X3757602Y2442788D1*
X3763733Y2441058D1*
X3769709Y2438854D1*
X3775494Y2436187D1*
X3781052Y2433074D1*
X3786348Y2429535D1*
X3791351Y2425591D1*
X3796029Y2421267D1*
X3800353Y2416590D1*
X3804296Y2411587D1*
X3807835Y2406291D1*
X3810948Y2400733D1*
X3813615Y2394948D1*
X3815820Y2388971D1*
X3817549Y2382840D1*
X3818791Y2376593D1*
X3819540Y2370267D1*
X3819790Y2363902D1*
X3819540Y2357536D1*
X4120314Y2307664D2*
X4119566Y2301338D1*
X4118323Y2295090D1*
X4116594Y2288959D1*
X4114389Y2282983D1*
X4111722Y2277198D1*
X4108610Y2271640D1*
X4105071Y2266343D1*
X4101127Y2261341D1*
X4096803Y2256663D1*
X4092125Y2252339D1*
X4087123Y2248395D1*
X4081826Y2244856D1*
X4076268Y2241744D1*
X4070483Y2239077D1*
X4064507Y2236872D1*
X4058376Y2235143D1*
X4052128Y2233900D1*
X4045802Y2233151D1*
X4039437Y2232901D1*
X4033072Y2233151D1*
X4026746Y2233900D1*
X4020498Y2235143D1*
X4014367Y2236872D1*
X4008391Y2239077D1*
X4002606Y2241744D1*
X3997048Y2244856D1*
X3991751Y2248395D1*
X3986749Y2252339D1*
X3982071Y2256663D1*
X3977747Y2261341D1*
X3973803Y2266343D1*
X3970264Y2271640D1*
X3965391Y2281017D1*
X3963853Y2272082D1*
X3961288Y2263266D1*
X3957744Y2254796D1*
X3953265Y2246781D1*
X3947910Y2239323D1*
X3941746Y2232518D1*
X3934853Y2226454D1*
X3927318Y2221207D1*
X3919239Y2216845D1*
X3910719Y2213423D1*
X3901867Y2210987D1*
X3892796Y2209566D1*
X3883623Y2209179D1*
X3874464Y2209831D1*
X3865438Y2211514D1*
X3856660Y2214206D1*
X3848243Y2217872D1*
X3840293Y2222466D1*
X3832914Y2227929D1*
X3826199Y2234191D1*
X3820235Y2241171D1*
X3815097Y2248781D1*
X3810853Y2256922D1*
X3807555Y2265491D1*
X3805247Y2274377D1*
X3803957Y2283468D1*
X3803703Y2292646D1*
X3804488Y2301794D1*
X3806301Y2310794D1*
X3809119Y2319532D1*
X3812907Y2327896D1*
X3817616Y2335778D1*
X3823185Y2343078D1*
X3829543Y2349701D1*
X3836609Y2355564D1*
X3844292Y2360591D1*
X3852494Y2364717D1*
X3861110Y2367891D1*
X3870029Y2370070D1*
X3879137Y2371228D1*
X3888318Y2371349D1*
X3897453Y2370432D1*
X3906427Y2368489D1*
X3915123Y2365544D1*
X3923431Y2361636D1*
X3931244Y2356813D1*
X3938462Y2351139D1*
X3944993Y2344686D1*
X3950753Y2337536D1*
X3955668Y2329781D1*
X3958857Y2323410D1*
X3960551Y2332968D1*
X3962280Y2339099D1*
X3964485Y2345075D1*
X3967152Y2350860D1*
X3970264Y2356418D1*
X3973803Y2361714D1*
X3977747Y2366717D1*
X3981987Y2371303D1*
X3981979Y2453582D1*
X3978435Y2458804D1*
X3973334Y2468815D1*
X3969863Y2479501D1*
X3968105Y2490598D1*
Y2501833D1*
X3969863Y2512930D1*
X3973334Y2523615D1*
X3978435Y2533626D1*
X3985039Y2542716D1*
X3992984Y2550660D1*
X4002073Y2557264D1*
X4012084Y2562365D1*
X4022770Y2565837D1*
X4033867Y2567595D1*
X4045102D1*
X4056199Y2565837D1*
X4066884Y2562365D1*
X4076895Y2557264D1*
X4085985Y2550660D1*
X4093929Y2542716D1*
X4100533Y2533626D1*
X4105634Y2523615D1*
X4109106Y2512930D1*
X4110864Y2501833D1*
Y2490598D1*
X4109106Y2479501D1*
X4105634Y2468815D1*
X4100533Y2458804D1*
X4096988Y2453595D1*
X4096990Y2371231D1*
X4101127Y2366717D1*
X4105071Y2361714D1*
X4108610Y2356418D1*
X4111722Y2350860D1*
X4114389Y2345075D1*
X4116594Y2339099D1*
X4118323Y2332968D1*
X4119566Y2326720D1*
X4120314Y2320394D1*
X4120565Y2314029D1*
X4120314Y2307664D1*
X3710577Y2964991D2*
X3709850Y2955838D1*
X3708093Y2946826D1*
X3705330Y2938071D1*
X3701594Y2929683D1*
X3696935Y2921772D1*
X3691412Y2914437D1*
X3685096Y2907774D1*
X3678067Y2901867D1*
X3670416Y2896792D1*
X3662240Y2892614D1*
X3653645Y2889386D1*
X3644740Y2887151D1*
X3635639Y2885935D1*
X3626459Y2885756D1*
X3617318Y2886616D1*
X3608333Y2888503D1*
X3599618Y2891392D1*
X3591285Y2895249D1*
X3583442Y2900021D1*
X3576188Y2905650D1*
X3569617Y2912062D1*
X3563812Y2919176D1*
X3558848Y2926900D1*
X3554789Y2935135D1*
X3551686Y2943776D1*
X3549580Y2952713D1*
X3548496Y2961830D1*
X3548450Y2971012D1*
X3549442Y2980139D1*
X3551458Y2989097D1*
X3554474Y2997769D1*
X3558450Y3006044D1*
X3563336Y3013818D1*
X3569069Y3020989D1*
X3575576Y3027467D1*
X3582773Y3033169D1*
X3590568Y3038020D1*
X3598861Y3041960D1*
X3607546Y3044937D1*
X3616512Y3046914D1*
X3625644Y3047865D1*
X3634825Y3047779D1*
X3643938Y3046655D1*
X3652865Y3044509D1*
X3661492Y3041368D1*
X3669710Y3037273D1*
X3677412Y3032275D1*
X3684500Y3026439D1*
X3690883Y3019839D1*
X3696479Y3012560D1*
X3701217Y3004696D1*
X3705037Y2996347D1*
X3707888Y2987619D1*
X3709735Y2978625D1*
X3710554Y2969480D1*
X3710577Y2964991D1*
X4044625Y3047474D2*
D18*
X4156189D1*
X4044625Y2847474D2*
X4156189D1*
X3733061D2*
X3844625D1*
X3733061Y3047474D2*
X3844625D1*
X3629470Y3047920D2*
Y2885736D1*
X3548378Y2966828D2*
X3710561D1*
X3884797Y2371390D2*
Y2209206D1*
X3803705Y2290298D2*
X3965888D1*
X2189687Y3046979D2*
D17*
X2617285D1*
X2747327D2*
X3165309D1*
X2346537Y3007110D2*
X2598339D1*
X2766310D2*
X3165309D1*
X2366919Y2967241D2*
X2601568D1*
X2763045D2*
X3165309D1*
X2365197Y2927373D2*
X2631352D1*
X2733261D2*
X3165309D1*
X2339360Y2887504D2*
X3165309D1*
X2189687Y2847635D2*
X2296624D1*
X2528829D2*
X3165309D1*
X2189687Y2807766D2*
X2296624D1*
X2564246D2*
X3165309D1*
X2189687Y2767898D2*
X2296624D1*
X2570454D2*
X3165309D1*
X2189687Y2728029D2*
X2296624D1*
X2555957D2*
X3165309D1*
X2189687Y2688160D2*
X2852686D1*
X2990766D2*
X3165309D1*
X2189687Y2648291D2*
X2837076D1*
X3006411D2*
X3165309D1*
X2189687Y2608423D2*
X2842853D1*
X3000598D2*
X3155979D1*
X2189687Y2568554D2*
X2878666D1*
X2964786D2*
X3120633D1*
X2189687Y2528685D2*
X2540852D1*
X2613659D2*
X3113492D1*
X2189687Y2488816D2*
X2499801D1*
X2654675D2*
X3113492D1*
X2189687Y2448948D2*
X2492301D1*
X2662174D2*
X3113492D1*
X2189687Y2409079D2*
X2505901D1*
X2648574D2*
X3113492D1*
X2189687Y2369210D2*
X3113492D1*
X2189687Y2329341D2*
X3113492D1*
X2189687Y2289472D2*
X3113492D1*
X2189687Y2249604D2*
X3113492D1*
X2189687Y2209735D2*
X3113492D1*
X2189687Y2169866D2*
X3113492D1*
X2346896Y2129997D2*
X2629271D1*
X2705666D2*
X2897756D1*
X2379084Y2090129D2*
X2589655D1*
X2745246D2*
X2888534D1*
X2383964Y2050260D2*
X2582549D1*
X2752351D2*
X2888534D1*
X2367816Y2010391D2*
X2596652D1*
X2738249D2*
X2888534D1*
X2189687Y1970522D2*
X2583052D1*
X2731790D2*
X2888534D1*
X2189687Y1930654D2*
X2572287D1*
X2742555D2*
X2888534D1*
X4114551D2*
X4267671D1*
X2331896Y1890785D2*
X2582514D1*
X2732364D2*
X2888534D1*
X3027296D2*
X3069175D1*
X4117063D2*
X4267671D1*
X2378510Y1850916D2*
X2481787D1*
X2678789D2*
X2888534D1*
X3027296D2*
X3075993D1*
X4104683D2*
X4267671D1*
X2388091Y1811047D2*
X2467110D1*
X2804814D2*
X2888534D1*
X3027296D2*
X3082775D1*
X4104539D2*
X4267671D1*
X2377254Y1771178D2*
X2473713D1*
X2828856D2*
X2888534D1*
X3027296D2*
X3070287D1*
X4084444D2*
X4267671D1*
X2324145Y1731310D2*
X2511750D1*
X2826022D2*
X2888534D1*
X3027296D2*
X3073122D1*
X4062842D2*
X4267671D1*
X2685786Y1691441D2*
X2720165D1*
X2789527D2*
X2888534D1*
X3027296D2*
X3109616D1*
X3178942D2*
X3238154D1*
X4025773D2*
X4267671D1*
X2645919Y1651572D2*
X2888534D1*
X3027296D2*
X3086399D1*
X3212351D2*
X3278021D1*
X4023620D2*
X4267671D1*
X3027188Y1611703D2*
X3073804D1*
X3224982D2*
X3317924D1*
X4041778D2*
X4267671D1*
X3010466Y1571835D2*
X3085430D1*
X3213355D2*
X3357791D1*
X4034960D2*
X4267671D1*
X2977453Y1531966D2*
X3361057D1*
X4025486D2*
X4267671D1*
X2576770Y1492097D2*
X3397551D1*
X3466877D2*
X3809645D1*
X4045330D2*
X4267671D1*
X2509021Y1452228D2*
X3901222D1*
X4039732D2*
X4267671D1*
X2504894Y1412360D2*
X3194016D1*
X3291045D2*
X3340711D1*
X3463145D2*
X3643071D1*
X3771032D2*
X3910910D1*
X4041419D2*
X4267671D1*
X2504643Y1372491D2*
X3168789D1*
X3486901D2*
X3631444D1*
X3782658D2*
X3900647D1*
X4051718D2*
X4143404D1*
X2504643Y1332622D2*
X3170942D1*
X3520345D2*
X3644111D1*
X3827980D2*
X3914678D1*
X4037687D2*
X4121945D1*
X2504643Y1292753D2*
X3205463D1*
X3279562D2*
X3345698D1*
X3522067D2*
X3639159D1*
X3873804D2*
X4123452D1*
X2504643Y1252885D2*
X3387001D1*
X3510010D2*
X3531471D1*
X3611203D2*
X3631839D1*
X3882560D2*
X4149863D1*
X2504643Y1213016D2*
X3387001D1*
X3870323D2*
X4267671D1*
X2504643Y1173147D2*
X3387001D1*
X3644683D2*
X3976578D1*
X4061048D2*
X4176597D1*
X2504643Y1133278D2*
X3319216D1*
X3617806D2*
X3719217D1*
X3855862D2*
X3924080D1*
X2504643Y1093409D2*
X3298870D1*
X3508718D2*
X3698871D1*
X3876244D2*
X3906066D1*
X2504643Y1053541D2*
X3299731D1*
X3481841D2*
X3699732D1*
X3875383D2*
X3904200D1*
X2504643Y1013672D2*
X3305903D1*
X3469174D2*
X3722698D1*
X3852381D2*
X3917477D1*
X2504643Y973803D2*
X2787879D1*
X2962058D2*
X3296968D1*
X3478145D2*
X3955443D1*
X2504643Y933934D2*
X2555816D1*
X2641649D2*
X2787879D1*
X2962058D2*
X3296932D1*
X3478145D2*
X3719827D1*
X3855252D2*
X3924546D1*
X2677569Y894066D2*
X2787879D1*
X2962058D2*
X3296932D1*
X3478145D2*
X3699014D1*
X3876100D2*
X3906209D1*
X2683418Y854197D2*
X2787879D1*
X2962058D2*
X3296932D1*
X3478145D2*
X3699552D1*
X3875526D2*
X3904092D1*
X2504643Y814328D2*
X2529656D1*
X2667844D2*
X2787879D1*
X2962058D2*
X3296932D1*
X3478145D2*
X3722052D1*
X3853063D2*
X3917118D1*
X2504643Y774459D2*
X2790104D1*
X2959834D2*
X3715413D1*
X3861173D2*
X3954402D1*
X4083224D2*
X4154384D1*
X2504643Y734591D2*
X2812495D1*
X2937478D2*
X3583072D1*
X3653870D2*
X3703213D1*
X3873373D2*
X4267671D1*
X2504643Y694722D2*
X3541231D1*
X3864582D2*
X4267671D1*
X2504643Y654853D2*
X3533480D1*
X3703462D2*
X3757972D1*
X3818650D2*
X4110570D1*
X2504643Y614984D2*
X3546829D1*
X3690113D2*
X4071671D1*
X2504643Y575115D2*
X4054268D1*
X2504643Y535247D2*
X4049926D1*
X2504643Y495378D2*
X4057354D1*
X2504643Y455509D2*
X4078956D1*
X2364304Y2944232D2*
X2363537Y2937753D1*
X2362264Y2931354D1*
X2360493Y2925074D1*
X2358235Y2918952D1*
X2355503Y2913027D1*
X2352315Y2907334D1*
X2348690Y2901909D1*
X2344651Y2896785D1*
X2340222Y2891994D1*
X2335431Y2887565D1*
X2330307Y2883526D1*
X2324882Y2879901D1*
X2319189Y2876713D1*
X2313263Y2873981D1*
X2307142Y2871723D1*
X2300862Y2869952D1*
X2294463Y2868679D1*
X2287984Y2867912D1*
X2281464Y2867656D1*
X2274944Y2867912D1*
X2264540Y2869460D1*
X2264560Y2867656D1*
X2185651D1*
X2185669Y2143537D1*
X2280571Y2143508D1*
Y2141750D1*
X2290955Y2143252D1*
X2297475Y2143508D1*
X2303994Y2143252D1*
X2310474Y2142485D1*
X2316873Y2141212D1*
X2323153Y2139441D1*
X2329274Y2137183D1*
X2335200Y2134451D1*
X2340892Y2131263D1*
X2346317Y2127638D1*
X2351441Y2123599D1*
X2356232Y2119170D1*
X2360661Y2114379D1*
X2364701Y2109255D1*
X2368326Y2103830D1*
X2371514Y2098137D1*
X2374245Y2092212D1*
X2376504Y2086090D1*
X2378275Y2079810D1*
X2379548Y2073411D1*
X2380315Y2066932D1*
X2380571Y2060412D1*
X2380315Y2053892D1*
X2379548Y2047413D1*
X2378275Y2041014D1*
X2376504Y2034734D1*
X2374245Y2028613D1*
X2371514Y2022687D1*
X2368326Y2016994D1*
X2364701Y2011569D1*
X2360661Y2006445D1*
X2356232Y2001654D1*
X2351441Y1997225D1*
X2346317Y1993186D1*
X2340892Y1989561D1*
X2335200Y1986373D1*
X2329274Y1983641D1*
X2323153Y1981383D1*
X2316873Y1979612D1*
X2310474Y1978339D1*
X2303994Y1977572D1*
X2297475Y1977316D1*
X2290955Y1977572D1*
X2280551Y1979120D1*
X2280571Y1977316D1*
X2185657D1*
X2185669Y1895290D1*
X2284083Y1895262D1*
Y1893504D1*
X2294467Y1895006D1*
X2300987Y1895262D1*
X2307507Y1895006D1*
X2313986Y1894239D1*
X2320385Y1892966D1*
X2326665Y1891195D1*
X2332787Y1888937D1*
X2338712Y1886205D1*
X2344405Y1883017D1*
X2349830Y1879392D1*
X2354954Y1875353D1*
X2359745Y1870924D1*
X2364174Y1866133D1*
X2368213Y1861009D1*
X2371838Y1855584D1*
X2375026Y1849891D1*
X2377758Y1843966D1*
X2380016Y1837844D1*
X2381787Y1831565D1*
X2383060Y1825165D1*
X2383827Y1818686D1*
X2384083Y1812166D1*
X2383827Y1805647D1*
X2383060Y1799167D1*
X2381787Y1792768D1*
X2380016Y1786488D1*
X2377758Y1780367D1*
X2375026Y1774441D1*
X2371838Y1768749D1*
X2368213Y1763324D1*
X2364174Y1758200D1*
X2359745Y1753408D1*
X2354954Y1748979D1*
X2349830Y1744940D1*
X2344405Y1741315D1*
X2338712Y1738127D1*
X2332787Y1735395D1*
X2326665Y1733137D1*
X2320385Y1731366D1*
X2313986Y1730093D1*
X2307507Y1729326D1*
X2300987Y1729070D1*
X2294467Y1729326D1*
X2284063Y1730874D1*
X2284083Y1729070D1*
X2185669Y1728895D1*
Y1709553D1*
X2482199Y1709463D1*
X2486810Y1708546D1*
X2491080Y1706578D1*
X2494772Y1703667D1*
X2497683Y1699975D1*
X2499651Y1695705D1*
X2500568Y1691094D1*
X2500630Y1672911D1*
X2550519Y1722827D1*
X2539230Y1723804D1*
X2532982Y1725047D1*
X2526851Y1726776D1*
X2520875Y1728981D1*
X2515090Y1731648D1*
X2509532Y1734760D1*
X2504236Y1738299D1*
X2499233Y1742243D1*
X2494555Y1746567D1*
X2490231Y1751245D1*
X2486288Y1756247D1*
X2482749Y1761544D1*
X2479636Y1767102D1*
X2476969Y1772887D1*
X2474764Y1778863D1*
X2473035Y1784994D1*
X2471793Y1791242D1*
X2471044Y1797568D1*
X2470794Y1803933D1*
X2471044Y1810298D1*
X2471793Y1816624D1*
X2473035Y1822872D1*
X2474764Y1829003D1*
X2476969Y1834979D1*
X2479636Y1840764D1*
X2482749Y1846322D1*
X2486288Y1851619D1*
X2490231Y1856621D1*
X2494555Y1861299D1*
X2499233Y1865623D1*
X2504236Y1869567D1*
X2509532Y1873106D1*
X2515090Y1876218D1*
X2520875Y1878885D1*
X2526851Y1881090D1*
X2532982Y1882819D1*
X2539230Y1884062D1*
X2545556Y1884811D1*
X2551921Y1885061D1*
X2558286Y1884811D1*
X2564612Y1884062D1*
X2570860Y1882819D1*
X2576991Y1881090D1*
X2582967Y1878885D1*
X2588752Y1876218D1*
X2594310Y1873106D1*
X2599607Y1869567D1*
X2604609Y1865623D1*
X2609287Y1861299D1*
X2613611Y1856621D1*
X2617555Y1851619D1*
X2621094Y1846322D1*
X2624206Y1840764D1*
X2626873Y1834979D1*
X2629078Y1829003D1*
X2630807Y1822872D1*
X2632050Y1816624D1*
X2632799Y1810298D1*
X2633024Y1804555D1*
X2637638Y1807700D1*
X2645679Y1811796D1*
X2654261Y1814585D1*
X2663173Y1815996D1*
X2686058Y1816174D1*
X2715806D1*
X2722343Y1819935D1*
X2732723Y1824235D1*
X2743648Y1826858D1*
X2754849Y1827739D1*
X2766050Y1826858D1*
X2776975Y1824235D1*
X2787355Y1819935D1*
X2796935Y1814065D1*
X2805478Y1806768D1*
X2812775Y1798225D1*
X2818645Y1788645D1*
X2822945Y1778265D1*
X2825568Y1767340D1*
X2826449Y1756139D1*
X2825568Y1744938D1*
X2822945Y1734013D1*
X2818645Y1723633D1*
X2812775Y1714054D1*
X2805478Y1705510D1*
X2796935Y1698213D1*
X2787355Y1692343D1*
X2776975Y1688043D1*
X2766050Y1685421D1*
X2754849Y1684539D1*
X2743648Y1685421D1*
X2732723Y1688043D1*
X2722343Y1692343D1*
X2712764Y1698213D1*
X2709021Y1701164D1*
X2691530Y1701162D1*
X2615098Y1624756D1*
X2865910Y1624743D1*
X2871615Y1629340D1*
X2881195Y1635211D1*
X2888011Y1638195D1*
X2892543Y1643196D1*
X2892745Y2101693D1*
X2894349Y2111826D1*
X2897520Y2121583D1*
X2902177Y2130724D1*
X2908208Y2139024D1*
X2915462Y2146278D1*
X2923762Y2152308D1*
X2932903Y2156966D1*
X2942660Y2160136D1*
X2952793Y2161741D1*
X2976295Y2161943D1*
X3117500D1*
X3117488Y2538850D1*
X3118293Y2549078D1*
X3120688Y2559054D1*
X3124614Y2568532D1*
X3129974Y2577280D1*
X3136637Y2585081D1*
X3169293Y2617737D1*
X3169291Y3086819D1*
X2185647Y3086848D1*
X2185669Y3033823D1*
X2264560Y3033848D1*
Y3032090D1*
X2274944Y3033592D1*
X2281464Y3033848D1*
X2287984Y3033592D1*
X2294463Y3032825D1*
X2300862Y3031552D1*
X2307142Y3029781D1*
X2313263Y3027523D1*
X2319189Y3024791D1*
X2324882Y3021603D1*
X2330307Y3017978D1*
X2335431Y3013939D1*
X2340222Y3009510D1*
X2344651Y3004719D1*
X2348690Y2999595D1*
X2352315Y2994170D1*
X2355503Y2988477D1*
X2358235Y2982551D1*
X2360493Y2976430D1*
X2362264Y2970150D1*
X2363537Y2963751D1*
X2364304Y2957272D1*
X2364560Y2950752D1*
X2364304Y2944232D1*
X2566549Y2768915D2*
X2565782Y2762436D1*
X2564510Y2756036D1*
X2562738Y2749757D1*
X2560480Y2743635D1*
X2557749Y2737710D1*
X2554560Y2732017D1*
X2550936Y2726592D1*
X2546896Y2721468D1*
X2542467Y2716677D1*
X2537676Y2712248D1*
X2532552Y2708209D1*
X2527127Y2704584D1*
X2521434Y2701396D1*
X2515509Y2698664D1*
X2509388Y2696406D1*
X2503108Y2694635D1*
X2496709Y2693362D1*
X2490229Y2692595D1*
X2483709Y2692339D1*
X2477190Y2692595D1*
X2466786Y2694143D1*
X2466806Y2692339D1*
X2300613D1*
Y2858531D1*
X2466806D1*
Y2856773D1*
X2477190Y2858275D1*
X2483709Y2858531D1*
X2490229Y2858275D1*
X2496709Y2857508D1*
X2503108Y2856235D1*
X2509388Y2854464D1*
X2515509Y2852206D1*
X2521434Y2849474D1*
X2527127Y2846286D1*
X2532552Y2842661D1*
X2537676Y2838622D1*
X2542467Y2834193D1*
X2546896Y2829401D1*
X2550936Y2824278D1*
X2554560Y2818852D1*
X2557749Y2813160D1*
X2560480Y2807234D1*
X2562738Y2801113D1*
X2564510Y2794833D1*
X2565782Y2788434D1*
X2566549Y2781955D1*
X2566806Y2775435D1*
X2566549Y2768915D1*
X2958054Y791778D2*
X2957344Y782623D1*
X2955628Y773603D1*
X2952928Y764828D1*
X2949276Y756403D1*
X2944717Y748434D1*
X2939307Y741015D1*
X2933111Y734239D1*
X2926206Y728188D1*
X2918675Y722936D1*
X2910610Y718546D1*
X2902111Y715073D1*
X2893280Y712559D1*
X2884226Y711035D1*
X2875059Y710519D1*
X2865890Y711017D1*
X2856833Y712524D1*
X2847998Y715021D1*
X2839491Y718477D1*
X2831418Y722851D1*
X2823877Y728088D1*
X2816960Y734126D1*
X2810751Y740890D1*
X2805326Y748298D1*
X2800752Y756259D1*
X2797084Y764676D1*
X2794366Y773447D1*
X2792633Y782463D1*
X2791906Y791616D1*
X2792192Y800793D1*
X2793490Y809883D1*
X2793625Y810522D1*
X2791882Y810519D1*
Y976711D1*
X2958074D1*
Y810519D1*
X2956370Y810358D1*
X2957720Y801276D1*
X2958054Y791778D1*
X4087860Y449658D2*
X4079266Y460463D1*
X4074208Y468129D1*
X4069670Y476115D1*
X4065672Y484384D1*
X4062233Y492900D1*
X4059366Y501626D1*
X4057085Y510523D1*
X4055400Y519552D1*
X4054319Y528672D1*
X4053845Y537845D1*
X4053981Y547028D1*
X4054727Y556183D1*
X4056079Y565267D1*
X4058032Y574242D1*
X4060576Y583067D1*
X4063700Y591704D1*
X4067391Y600115D1*
X4071633Y608261D1*
X4076406Y616108D1*
X4081689Y623621D1*
X4087460Y630767D1*
X4093692Y637513D1*
X4100359Y643831D1*
X4107431Y649692D1*
X4114876Y655070D1*
X4122662Y659943D1*
X4130754Y664287D1*
X4139116Y668085D1*
X4147713Y671319D1*
X4156505Y673975D1*
X4165454Y676041D1*
X4174521Y677508D1*
X4183665Y678371D1*
X4192846Y678624D1*
X4202024Y678267D1*
X4211158Y677301D1*
X4220207Y675731D1*
X4229133Y673563D1*
X4237894Y670808D1*
X4246453Y667477D1*
X4254773Y663584D1*
X4262815Y659148D1*
X4271670Y653356D1*
X4271653Y769972D1*
X4262465Y765590D1*
X4252124Y761785D1*
X4241457Y759019D1*
X4230570Y757318D1*
X4219569Y756699D1*
X4208559Y757168D1*
X4197650Y758721D1*
X4186947Y761341D1*
X4176555Y765005D1*
X4166574Y769675D1*
X4157103Y775307D1*
X4148234Y781846D1*
X4140052Y789227D1*
X4132638Y797379D1*
X4126065Y806223D1*
X4120395Y815671D1*
X4118760Y818656D1*
X4113377Y809041D1*
X4107073Y800003D1*
X4099908Y791632D1*
X4091952Y784008D1*
X4083283Y777205D1*
X4073985Y771291D1*
X4064150Y766323D1*
X4053873Y762348D1*
X4043253Y759407D1*
X4032396Y757527D1*
X4021406Y756727D1*
X4010390Y757015D1*
X3999457Y758387D1*
X3988712Y760831D1*
X3978261Y764323D1*
X3968205Y768829D1*
X3958642Y774304D1*
X3949666Y780695D1*
X3941365Y787941D1*
X3933818Y795970D1*
X3927099Y804704D1*
X3921275Y814058D1*
X3916402Y823941D1*
X3912527Y834257D1*
X3909688Y844904D1*
X3907913Y855779D1*
X3907219Y866776D1*
X3907613Y877788D1*
X3909091Y888708D1*
X3911639Y899428D1*
X3915231Y909846D1*
X3919833Y919858D1*
X3925401Y929367D1*
X3931879Y938281D1*
X3939204Y946512D1*
X3947306Y953982D1*
X3956104Y960615D1*
X3965514Y966349D1*
X3969267Y968294D1*
X3960198Y973326D1*
X3951118Y979569D1*
X3942698Y986677D1*
X3935020Y994581D1*
X3928159Y1003203D1*
X3922181Y1012460D1*
X3917146Y1022261D1*
X3913101Y1032512D1*
X3910088Y1043111D1*
X3908134Y1053955D1*
X3907259Y1064939D1*
X3907472Y1075957D1*
X3908770Y1086899D1*
X3911141Y1097660D1*
X3914561Y1108135D1*
X3918998Y1118221D1*
X3924408Y1127821D1*
X3930738Y1136840D1*
X3937927Y1145191D1*
X3945905Y1152793D1*
X3954593Y1159570D1*
X3963907Y1165458D1*
X3973757Y1170399D1*
X3984045Y1174344D1*
X3994673Y1177255D1*
X4005536Y1179105D1*
X4016528Y1179873D1*
X4027543Y1179554D1*
X4038472Y1178151D1*
X4049210Y1175676D1*
X4059651Y1172154D1*
X4069694Y1167620D1*
X4079241Y1162118D1*
X4088199Y1155701D1*
X4096480Y1148432D1*
X4104004Y1140381D1*
X4110698Y1131628D1*
X4116495Y1122258D1*
X4118806Y1117838D1*
X4123441Y1126259D1*
X4129622Y1135381D1*
X4136672Y1143849D1*
X4144524Y1151581D1*
X4153099Y1158501D1*
X4162315Y1164541D1*
X4172082Y1169643D1*
X4182304Y1173757D1*
X4192882Y1176843D1*
X4203713Y1178871D1*
X4214691Y1179821D1*
X4225710Y1179683D1*
X4236661Y1178459D1*
X4247438Y1176162D1*
X4257936Y1172813D1*
X4268052Y1168445D1*
X4271656Y1166588D1*
X4271653Y1268978D1*
X4266020Y1261859D1*
X4259554Y1255340D1*
X4252393Y1249594D1*
X4244629Y1244693D1*
X4236361Y1240702D1*
X4227695Y1237670D1*
X4218741Y1235636D1*
X4209615Y1234627D1*
X4200434Y1234656D1*
X4191314Y1235723D1*
X4182374Y1237812D1*
X4173727Y1240899D1*
X4165484Y1244943D1*
X4157751Y1249892D1*
X4150626Y1255683D1*
X4144202Y1262243D1*
X4138560Y1269486D1*
X4133772Y1277320D1*
X4129900Y1285645D1*
X4126994Y1294355D1*
X4125090Y1303337D1*
X4124214Y1312476D1*
X4124375Y1321656D1*
X4125573Y1330759D1*
X4127792Y1339668D1*
X4131004Y1348270D1*
X4135166Y1356454D1*
X4140227Y1364114D1*
X4146121Y1371154D1*
X4152773Y1377483D1*
X4160097Y1383020D1*
X4167999Y1387694D1*
X4176380Y1391445D1*
X4185130Y1394225D1*
X4194139Y1395998D1*
X4203290Y1396742D1*
X4212467Y1396448D1*
X4221551Y1395118D1*
X4230428Y1392770D1*
X4238982Y1389435D1*
X4247104Y1385154D1*
X4254691Y1379983D1*
X4261645Y1373988D1*
X4267877Y1367246D1*
X4271651Y1362283D1*
X4271653Y1945179D1*
X4103190Y1945452D1*
X4106975Y1938922D1*
X4111274Y1928542D1*
X4113897Y1917617D1*
X4114778Y1906416D1*
X4113897Y1895215D1*
X4111274Y1884290D1*
X4106975Y1873910D1*
X4101104Y1864331D1*
X4100683Y1863796D1*
X4100507Y1810709D1*
X4099095Y1801796D1*
X4096307Y1793214D1*
X4092210Y1785174D1*
X4086906Y1777874D1*
X4067120Y1757836D1*
X4066850Y1744921D1*
X4065574Y1740396D1*
X4063276Y1736294D1*
X4042973Y1714249D1*
X3999182Y1667160D1*
X4008761Y1661289D1*
X4017305Y1653992D1*
X4024601Y1645449D1*
X4030472Y1635869D1*
X4034771Y1625489D1*
X4037394Y1614564D1*
X4038276Y1603364D1*
X4037394Y1592163D1*
X4034771Y1581238D1*
X4030472Y1570858D1*
X4024601Y1561278D1*
X4017305Y1552735D1*
X4008761Y1545438D1*
X4006223Y1543742D1*
X4012563Y1539646D1*
X4021107Y1532349D1*
X4028403Y1523806D1*
X4034274Y1514226D1*
X4038573Y1503846D1*
X4041196Y1492921D1*
X4042078Y1481720D1*
X4041196Y1470520D1*
X4038573Y1459595D1*
X4034274Y1449215D1*
X4028403Y1439635D1*
X4021058Y1431047D1*
X4026809Y1425911D1*
X4034105Y1417368D1*
X4039976Y1407788D1*
X4044275Y1397408D1*
X4046898Y1386483D1*
X4047780Y1375282D1*
X4046898Y1364081D1*
X4044275Y1353157D1*
X4039976Y1342776D1*
X4034105Y1333197D1*
X4026809Y1324653D1*
X4018265Y1317357D1*
X4008686Y1311486D1*
X3998305Y1307187D1*
X3987380Y1304564D1*
X3976180Y1303682D1*
X3964979Y1304564D1*
X3954054Y1307187D1*
X3943674Y1311486D1*
X3934094Y1317357D1*
X3925551Y1324653D1*
X3918254Y1333197D1*
X3912384Y1342776D1*
X3908084Y1353157D1*
X3905461Y1364081D1*
X3904580Y1375282D1*
X3905461Y1386483D1*
X3908084Y1397408D1*
X3912384Y1407788D1*
X3918254Y1417368D1*
X3925599Y1425956D1*
X3919849Y1431092D1*
X3912552Y1439635D1*
X3906682Y1449215D1*
X3902382Y1459595D1*
X3899759Y1470520D1*
X3898878Y1481720D1*
X3899759Y1492921D1*
X3902382Y1503846D1*
X3906682Y1514226D1*
X3912552Y1523806D1*
X3919849Y1532349D1*
X3928392Y1539646D1*
X3930930Y1541342D1*
X3924590Y1545438D1*
X3916047Y1552735D1*
X3915704Y1553106D1*
X3914927Y1545650D1*
X3912304Y1534725D1*
X3908005Y1524345D1*
X3902134Y1514765D1*
X3894838Y1506222D1*
X3886294Y1498925D1*
X3876714Y1493054D1*
X3866334Y1488755D1*
X3855409Y1486132D1*
X3844209Y1485250D1*
X3833008Y1486132D1*
X3822083Y1488755D1*
X3811703Y1493054D1*
X3802123Y1498925D1*
X3801589Y1499346D1*
X3474880Y1499292D1*
X3469630Y1495749D1*
X3459619Y1490648D1*
X3448934Y1487176D1*
X3437837Y1485419D1*
X3426601D1*
X3415504Y1487176D1*
X3404819Y1490648D1*
X3394808Y1495749D1*
X3385719Y1502353D1*
X3377774Y1510297D1*
X3371170Y1519387D1*
X3366069Y1529398D1*
X3362597Y1540083D1*
X3360840Y1551180D1*
Y1562416D1*
X3362182Y1571423D1*
X3302743Y1630705D1*
X3298332Y1632330D1*
X3294421Y1634939D1*
X3291228Y1638390D1*
X3288928Y1642491D1*
X3287625Y1645986D1*
X3208686Y1724924D1*
X3205327Y1718728D1*
X3198723Y1709639D1*
X3190779Y1701694D1*
X3181689Y1695090D1*
X3171678Y1689989D1*
X3160993Y1686517D1*
X3149896Y1684760D1*
X3138661D1*
X3127564Y1686517D1*
X3116878Y1689989D1*
X3106867Y1695090D1*
X3097778Y1701694D1*
X3089833Y1709639D1*
X3083229Y1718728D1*
X3078128Y1728739D1*
X3074657Y1739424D1*
X3072899Y1750521D1*
Y1761757D1*
X3074657Y1772854D1*
X3078128Y1783539D1*
X3083229Y1793550D1*
X3086774Y1798759D1*
X3086773Y1839785D1*
X3083229Y1845027D1*
X3078128Y1855038D1*
X3074657Y1865724D1*
X3072899Y1876821D1*
Y1888056D1*
X3074657Y1899153D1*
X3076722Y1906027D1*
X3038806Y1906207D1*
X3029893Y1907619D1*
X3025531Y1908850D1*
X3023302Y1903650D1*
X3023101Y1610507D1*
X3021496Y1600374D1*
X3018325Y1590617D1*
X3013668Y1581476D1*
X3007638Y1573176D1*
X2991161Y1556415D1*
X2980581Y1545834D1*
X2977497Y1538909D1*
X2972249Y1530261D1*
X2969446Y1525203D1*
X2963416Y1516903D1*
X2956161Y1509648D1*
X2947862Y1503618D1*
X2938720Y1498961D1*
X2928963Y1495790D1*
X2918830Y1494185D1*
X2895328Y1493984D1*
X2577430D1*
X2570353Y1491268D1*
X2559428Y1488645D1*
X2548227Y1487764D1*
X2537026Y1488645D1*
X2526101Y1491268D1*
X2515721Y1495567D1*
X2506142Y1501438D1*
X2500630Y1505798D1*
X2500748Y1466778D1*
X2504220Y1456093D1*
X2505978Y1444996D1*
Y1433760D1*
X2504220Y1422663D1*
X2500748Y1411978D1*
X2500630Y1386375D1*
Y449690D1*
X4087703Y449682D1*
X2763187Y2987168D2*
X2762439Y2980842D1*
X2761196Y2974594D1*
X2759467Y2968463D1*
X2757262Y2962487D1*
X2754595Y2956702D1*
X2751482Y2951144D1*
X2747943Y2945847D1*
X2744000Y2940845D1*
X2739676Y2936167D1*
X2734998Y2931843D1*
X2729995Y2927899D1*
X2724699Y2924360D1*
X2719141Y2921248D1*
X2713356Y2918581D1*
X2707380Y2916376D1*
X2701249Y2914647D1*
X2695001Y2913404D1*
X2688675Y2912656D1*
X2682310Y2912405D1*
X2675945Y2912656D1*
X2669619Y2913404D1*
X2663371Y2914647D1*
X2657240Y2916376D1*
X2651264Y2918581D1*
X2645479Y2921248D1*
X2639921Y2924360D1*
X2634624Y2927899D1*
X2629622Y2931843D1*
X2624944Y2936167D1*
X2620620Y2940845D1*
X2616676Y2945847D1*
X2613137Y2951144D1*
X2610025Y2956702D1*
X2607358Y2962487D1*
X2605153Y2968463D1*
X2603424Y2974594D1*
X2602181Y2980842D1*
X2601432Y2987168D1*
X2601182Y2993533D1*
X2601432Y2999898D1*
X2602181Y3006224D1*
X2603424Y3012472D1*
X2605153Y3018603D1*
X2607358Y3024579D1*
X2610025Y3030364D1*
X2613137Y3035922D1*
X2616676Y3041219D1*
X2620620Y3046221D1*
X2624944Y3050899D1*
X2629622Y3055223D1*
X2634624Y3059167D1*
X2639921Y3062706D1*
X2645479Y3065818D1*
X2651264Y3068485D1*
X2657240Y3070690D1*
X2663371Y3072419D1*
X2669619Y3073662D1*
X2675945Y3074410D1*
X2682310Y3074661D1*
X2688675Y3074410D1*
X2695001Y3073662D1*
X2701249Y3072419D1*
X2707380Y3070690D1*
X2713356Y3068485D1*
X2719141Y3065818D1*
X2724699Y3062706D1*
X2729995Y3059167D1*
X2734998Y3055223D1*
X2739676Y3050899D1*
X2744000Y3046221D1*
X2747943Y3041219D1*
X2751482Y3035922D1*
X2754595Y3030364D1*
X2757262Y3024579D1*
X2759467Y3018603D1*
X2761196Y3012472D1*
X2762439Y3006224D1*
X2763187Y2999898D1*
X2763437Y2993533D1*
X2763187Y2987168D1*
X2658119Y2447944D2*
X2657370Y2441618D1*
X2656127Y2435371D1*
X2654398Y2429240D1*
X2652193Y2423263D1*
X2649526Y2417478D1*
X2646414Y2411920D1*
X2642875Y2406624D1*
X2638931Y2401621D1*
X2634607Y2396944D1*
X2629929Y2392620D1*
X2624927Y2388676D1*
X2619630Y2385137D1*
X2614072Y2382024D1*
X2608287Y2379357D1*
X2602311Y2377153D1*
X2596180Y2375423D1*
X2589932Y2374181D1*
X2583606Y2373432D1*
X2577241Y2373182D1*
X2570876Y2373432D1*
X2564550Y2374181D1*
X2558302Y2375423D1*
X2552171Y2377153D1*
X2546195Y2379357D1*
X2540410Y2382024D1*
X2534852Y2385137D1*
X2529556Y2388676D1*
X2524553Y2392620D1*
X2519875Y2396944D1*
X2515551Y2401621D1*
X2511608Y2406624D1*
X2508069Y2411920D1*
X2504956Y2417478D1*
X2502289Y2423263D1*
X2500084Y2429240D1*
X2498355Y2435371D1*
X2497113Y2441618D1*
X2496364Y2447944D1*
X2496114Y2454309D1*
X2496364Y2460675D1*
X2497113Y2467001D1*
X2498355Y2473248D1*
X2500084Y2479379D1*
X2502289Y2485356D1*
X2504956Y2491141D1*
X2508069Y2496699D1*
X2511608Y2501995D1*
X2515551Y2506998D1*
X2519875Y2511675D1*
X2524553Y2515999D1*
X2529556Y2519943D1*
X2534852Y2523482D1*
X2540410Y2526595D1*
X2546195Y2529262D1*
X2552171Y2531466D1*
X2558302Y2533195D1*
X2564550Y2534438D1*
X2570876Y2535187D1*
X2577241Y2535437D1*
X2583606Y2535187D1*
X2589932Y2534438D1*
X2596180Y2533195D1*
X2602311Y2531466D1*
X2608287Y2529262D1*
X2614072Y2526595D1*
X2619630Y2523482D1*
X2624927Y2519943D1*
X2629929Y2515999D1*
X2634607Y2511675D1*
X2638931Y2506998D1*
X2642875Y2501995D1*
X2646414Y2496699D1*
X2649526Y2491141D1*
X2652193Y2485356D1*
X2654398Y2479379D1*
X2656127Y2473248D1*
X2657370Y2467001D1*
X2658119Y2460675D1*
X2658369Y2454309D1*
X2658119Y2447944D1*
X2748333Y2050064D2*
X2747584Y2043738D1*
X2746341Y2037490D1*
X2744612Y2031359D1*
X2742408Y2025383D1*
X2739741Y2019598D1*
X2736628Y2014040D1*
X2733089Y2008743D1*
X2729145Y2003741D1*
X2724821Y1999063D1*
X2720144Y1994739D1*
X2712927Y1989316D1*
X2718842Y1983172D1*
X2724438Y1975894D1*
X2729177Y1968029D1*
X2732996Y1959680D1*
X2735847Y1950952D1*
X2737694Y1941959D1*
X2738513Y1932814D1*
X2738370Y1924654D1*
X2737229Y1915544D1*
X2735066Y1906620D1*
X2731909Y1897999D1*
X2727798Y1889789D1*
X2722786Y1882097D1*
X2716936Y1875020D1*
X2710324Y1868649D1*
X2703035Y1863066D1*
X2695162Y1858343D1*
X2686806Y1854539D1*
X2678073Y1851704D1*
X2669076Y1849874D1*
X2659929Y1849072D1*
X2650751Y1849309D1*
X2641658Y1850582D1*
X2632767Y1852873D1*
X2624192Y1856155D1*
X2616043Y1860384D1*
X2608424Y1865507D1*
X2601432Y1871459D1*
X2595158Y1878162D1*
X2589681Y1885531D1*
X2585072Y1893472D1*
X2581390Y1901882D1*
X2578681Y1910655D1*
X2576982Y1919678D1*
X2576312Y1928835D1*
X2576682Y1938009D1*
X2578086Y1947083D1*
X2580506Y1955939D1*
X2583911Y1964466D1*
X2588258Y1972553D1*
X2593491Y1980097D1*
X2599543Y1987002D1*
X2606336Y1993179D1*
X2611897Y1997303D1*
X2605766Y2003741D1*
X2601822Y2008743D1*
X2598283Y2014040D1*
X2595170Y2019598D1*
X2592503Y2025383D1*
X2590299Y2031359D1*
X2588569Y2037490D1*
X2587327Y2043738D1*
X2586578Y2050064D1*
X2586328Y2056429D1*
X2586578Y2062794D1*
X2587327Y2069120D1*
X2588569Y2075368D1*
X2590299Y2081499D1*
X2592503Y2087475D1*
X2595170Y2093260D1*
X2598283Y2098818D1*
X2601822Y2104114D1*
X2605766Y2109117D1*
X2610090Y2113795D1*
X2614767Y2118119D1*
X2619770Y2122062D1*
X2625066Y2125601D1*
X2630624Y2128714D1*
X2636409Y2131381D1*
X2642386Y2133586D1*
X2648517Y2135315D1*
X2654764Y2136557D1*
X2661090Y2137306D1*
X2667455Y2137556D1*
X2673821Y2137306D1*
X2680147Y2136557D1*
X2686394Y2135315D1*
X2692525Y2133586D1*
X2698502Y2131381D1*
X2704287Y2128714D1*
X2709845Y2125601D1*
X2715141Y2122062D1*
X2720144Y2118119D1*
X2724821Y2113795D1*
X2729145Y2109117D1*
X2733089Y2104114D1*
X2736628Y2098818D1*
X2739741Y2093260D1*
X2742408Y2087475D1*
X2744612Y2081499D1*
X2746341Y2075368D1*
X2747584Y2069120D1*
X2748333Y2062794D1*
X2748583Y2056429D1*
X2748333Y2050064D1*
X3869178Y725220D2*
X3868429Y718894D1*
X3867187Y712646D1*
X3865457Y706516D1*
X3863253Y700539D1*
X3860586Y694754D1*
X3857473Y689196D1*
X3853934Y683900D1*
X3849990Y678897D1*
X3845666Y674219D1*
X3840989Y669895D1*
X3835986Y665952D1*
X3830690Y662413D1*
X3825132Y659300D1*
X3819347Y656633D1*
X3813370Y654428D1*
X3807239Y652699D1*
X3800992Y651457D1*
X3794666Y650708D1*
X3788301Y650458D1*
X3781935Y650708D1*
X3775609Y651457D1*
X3769362Y652699D1*
X3763231Y654428D1*
X3757254Y656633D1*
X3751469Y659300D1*
X3745911Y662413D1*
X3740615Y665952D1*
X3735612Y669895D1*
X3730935Y674219D1*
X3726611Y678897D1*
X3722667Y683900D1*
X3719128Y689196D1*
X3716015Y694754D1*
X3713348Y700539D1*
X3711144Y706516D1*
X3709415Y712646D1*
X3708172Y718894D1*
X3707423Y725220D1*
X3707173Y731585D1*
X3707423Y737950D1*
X3708172Y744276D1*
X3709415Y750524D1*
X3711144Y756655D1*
X3713348Y762631D1*
X3716015Y768416D1*
X3719128Y773974D1*
X3722667Y779271D1*
X3726611Y784273D1*
X3730935Y788951D1*
X3735612Y793275D1*
X3744774Y799998D1*
X3736642Y805232D1*
X3731302Y809441D1*
X3726309Y814057D1*
X3721693Y819050D1*
X3717484Y824390D1*
X3713706Y830044D1*
X3710383Y835977D1*
X3707537Y842152D1*
X3705183Y848532D1*
X3703337Y855076D1*
X3702011Y861745D1*
X3701212Y868498D1*
X3700945Y875293D1*
X3701212Y882087D1*
X3702011Y888840D1*
X3703337Y895509D1*
X3705183Y902054D1*
X3707537Y908433D1*
X3710383Y914608D1*
X3713706Y920541D1*
X3717484Y926195D1*
X3721693Y931535D1*
X3726309Y936528D1*
X3731302Y941144D1*
X3736642Y945354D1*
X3742296Y949131D1*
X3748229Y952454D1*
X3754404Y955301D1*
X3760784Y957654D1*
X3767328Y959500D1*
X3773997Y960826D1*
X3780750Y961626D1*
X3787545Y961893D1*
X3794339Y961626D1*
X3801092Y960826D1*
X3807761Y959500D1*
X3814305Y957654D1*
X3820685Y955301D1*
X3826860Y952454D1*
X3832793Y949131D1*
X3838447Y945354D1*
X3843787Y941144D1*
X3848780Y936528D1*
X3853396Y931535D1*
X3857605Y926195D1*
X3861383Y920541D1*
X3864706Y914608D1*
X3867553Y908433D1*
X3869906Y902054D1*
X3871752Y895509D1*
X3873078Y888840D1*
X3873878Y882087D1*
X3874145Y875293D1*
X3873878Y868498D1*
X3873078Y861745D1*
X3871752Y855076D1*
X3869906Y848532D1*
X3867553Y842152D1*
X3864706Y835977D1*
X3861383Y830044D1*
X3857605Y824390D1*
X3853396Y819050D1*
X3848780Y814057D1*
X3843787Y809441D1*
X3838447Y805232D1*
X3831101Y800507D1*
X3835986Y797219D1*
X3840989Y793275D1*
X3845666Y788951D1*
X3849990Y784273D1*
X3853934Y779271D1*
X3857473Y773974D1*
X3860586Y768416D1*
X3863253Y762631D1*
X3865457Y756655D1*
X3867187Y750524D1*
X3868429Y744276D1*
X3869178Y737950D1*
X3869428Y731585D1*
X3869178Y725220D1*
X3385652Y1275421D2*
X3376861Y1277679D1*
X3370884Y1279884D1*
X3365099Y1282551D1*
X3359541Y1285663D1*
X3354245Y1289202D1*
X3349242Y1293146D1*
X3344565Y1297470D1*
X3340241Y1302148D1*
X3336297Y1307150D1*
X3332758Y1312447D1*
X3329645Y1318005D1*
X3326978Y1323790D1*
X3324774Y1329766D1*
X3323044Y1335897D1*
X3321802Y1342145D1*
X3321053Y1348471D1*
X3320803Y1354836D1*
X3321053Y1361201D1*
X3321802Y1367527D1*
X3323044Y1373775D1*
X3324774Y1379906D1*
X3326978Y1385882D1*
X3329645Y1391667D1*
X3332758Y1397225D1*
X3336297Y1402522D1*
X3340241Y1407524D1*
X3344565Y1412202D1*
X3349242Y1416526D1*
X3354245Y1420470D1*
X3359541Y1424009D1*
X3365099Y1427121D1*
X3370884Y1429788D1*
X3376861Y1431993D1*
X3382992Y1433722D1*
X3389239Y1434965D1*
X3395565Y1435713D1*
X3401930Y1435964D1*
X3408296Y1435713D1*
X3414622Y1434965D1*
X3420869Y1433722D1*
X3427000Y1431993D1*
X3432977Y1429788D1*
X3438762Y1427121D1*
X3444319Y1424009D1*
X3449616Y1420470D1*
X3454619Y1416526D1*
X3459296Y1412202D1*
X3463620Y1407524D1*
X3467564Y1402522D1*
X3471103Y1397225D1*
X3474216Y1391667D1*
X3476883Y1385882D1*
X3479087Y1379906D1*
X3481011Y1373484D1*
X3490591Y1367613D1*
X3499134Y1360317D1*
X3506431Y1351773D1*
X3512301Y1342193D1*
X3516601Y1331813D1*
X3519224Y1320888D1*
X3520105Y1309688D1*
X3519224Y1298487D1*
X3516601Y1287562D1*
X3512301Y1277182D1*
X3506431Y1267602D1*
X3506009Y1267068D1*
X3506011Y1220228D1*
X3510287Y1228328D1*
X3516891Y1237418D1*
X3524835Y1245362D1*
X3533925Y1251966D1*
X3543936Y1257067D1*
X3554621Y1260539D1*
X3565718Y1262297D1*
X3576954D1*
X3588051Y1260539D1*
X3598736Y1257067D1*
X3608747Y1251966D1*
X3617836Y1245362D1*
X3625781Y1237418D1*
X3632385Y1228328D1*
X3637486Y1218317D1*
X3640958Y1207632D1*
X3642715Y1196535D1*
Y1185300D1*
X3640958Y1174203D1*
X3637486Y1163517D1*
X3632385Y1153506D1*
X3625781Y1144417D1*
X3617836Y1136472D1*
X3608747Y1129868D1*
X3598736Y1124768D1*
X3588051Y1121296D1*
X3576954Y1119538D1*
X3565718D1*
X3554621Y1121296D1*
X3543936Y1124768D1*
X3533925Y1129868D1*
X3524835Y1136472D1*
X3516891Y1144417D1*
X3510287Y1153506D1*
X3506004Y1161742D1*
X3505834Y1101010D1*
X3504422Y1092098D1*
X3501633Y1083516D1*
X3497537Y1075476D1*
X3492233Y1068175D1*
X3476176Y1051868D1*
X3468832Y1044525D1*
X3464706Y1035977D1*
X3461383Y1030044D1*
X3458240Y1025340D1*
X3464706Y1014608D1*
X3467553Y1008433D1*
X3469906Y1002054D1*
X3471752Y995509D1*
X3473078Y988840D1*
X3473878Y982087D1*
X3474145Y975293D1*
X3473878Y968498D1*
X3473094Y961877D1*
X3474145Y961893D1*
Y788693D1*
X3300945D1*
Y961893D1*
X3301985D1*
X3301212Y968498D1*
X3300945Y975293D1*
X3301212Y982087D1*
X3302011Y988840D1*
X3303337Y995509D1*
X3305183Y1002054D1*
X3307537Y1008433D1*
X3310383Y1014608D1*
X3313706Y1020541D1*
X3316849Y1025245D1*
X3310383Y1035977D1*
X3307537Y1042152D1*
X3305183Y1048532D1*
X3303337Y1055076D1*
X3302011Y1061745D1*
X3301212Y1068498D1*
X3300945Y1075293D1*
X3301212Y1082087D1*
X3302011Y1088840D1*
X3303337Y1095509D1*
X3305183Y1102054D1*
X3307537Y1108433D1*
X3310383Y1114608D1*
X3313706Y1120541D1*
X3317484Y1126195D1*
X3321693Y1131535D1*
X3326309Y1136528D1*
X3331302Y1141144D1*
X3336642Y1145354D1*
X3342296Y1149131D1*
X3348229Y1152454D1*
X3354404Y1155301D1*
X3360784Y1157654D1*
X3367328Y1159500D1*
X3373997Y1160826D1*
X3380750Y1161626D1*
X3391022Y1161756D1*
X3391000Y1267037D1*
X3385750Y1275323D1*
X3878376Y1249578D2*
X3877627Y1243252D1*
X3876385Y1237005D1*
X3874656Y1230874D1*
X3872451Y1224897D1*
X3869784Y1219112D1*
X3866671Y1213555D1*
X3863132Y1208258D1*
X3859189Y1203255D1*
X3854865Y1198578D1*
X3850187Y1194254D1*
X3845184Y1190310D1*
X3839888Y1186771D1*
X3834330Y1183658D1*
X3828545Y1180991D1*
X3822568Y1178787D1*
X3816438Y1177058D1*
X3810190Y1175815D1*
X3803864Y1175066D1*
X3797499Y1174816D1*
X3791133Y1175066D1*
X3784808Y1175815D1*
X3778560Y1177058D1*
X3772429Y1178787D1*
X3766453Y1180991D1*
X3760668Y1183658D1*
X3755110Y1186771D1*
X3749813Y1190310D1*
X3741247Y1197547D1*
X3734450Y1194286D1*
X3723765Y1190814D1*
X3712668Y1189056D1*
X3701432D1*
X3690335Y1190814D1*
X3679650Y1194286D1*
X3669639Y1199387D1*
X3660549Y1205991D1*
X3652605Y1213935D1*
X3646001Y1223025D1*
X3640900Y1233036D1*
X3637428Y1243721D1*
X3635671Y1254818D1*
Y1266053D1*
X3637428Y1277150D1*
X3640900Y1287836D1*
X3646001Y1297847D1*
X3649546Y1303056D1*
X3649544Y1330589D1*
X3646001Y1335867D1*
X3640900Y1345878D1*
X3637428Y1356564D1*
X3635671Y1367661D1*
Y1378896D1*
X3637428Y1389993D1*
X3640900Y1400678D1*
X3646001Y1410689D1*
X3652605Y1419779D1*
X3660549Y1427723D1*
X3669639Y1434327D1*
X3679650Y1439428D1*
X3690335Y1442900D1*
X3701432Y1444657D1*
X3712668D1*
X3723765Y1442900D1*
X3734450Y1439428D1*
X3744461Y1434327D1*
X3753550Y1427723D1*
X3761495Y1419779D1*
X3768099Y1410689D1*
X3773200Y1400678D1*
X3776672Y1389993D1*
X3778429Y1378896D1*
Y1367661D1*
X3776672Y1356564D1*
X3773200Y1345878D1*
X3768099Y1335867D1*
X3764554Y1330658D1*
X3766453Y1330896D1*
X3772429Y1333100D1*
X3778560Y1334830D1*
X3784808Y1336072D1*
X3791133Y1336821D1*
X3797499Y1337071D1*
X3803864Y1336821D1*
X3810190Y1336072D1*
X3816438Y1334830D1*
X3822568Y1333100D1*
X3828545Y1330896D1*
X3834330Y1328229D1*
X3839888Y1325116D1*
X3845184Y1321577D1*
X3850187Y1317633D1*
X3854865Y1313309D1*
X3859189Y1308632D1*
X3863132Y1303629D1*
X3866671Y1298333D1*
X3869784Y1292775D1*
X3872451Y1286990D1*
X3874656Y1281013D1*
X3876385Y1274882D1*
X3877627Y1268635D1*
X3878376Y1262309D1*
X3878626Y1255944D1*
X3878376Y1249578D1*
X3002834Y2637830D2*
X3002107Y2628678D1*
X3000351Y2619666D1*
X2997587Y2610910D1*
X2993852Y2602523D1*
X2989193Y2594611D1*
X2983670Y2587277D1*
X2977354Y2580613D1*
X2970325Y2574706D1*
X2962673Y2569631D1*
X2954498Y2565453D1*
X2945902Y2562226D1*
X2936997Y2559990D1*
X2927896Y2558775D1*
X2918717Y2558596D1*
X2909576Y2559455D1*
X2900590Y2561342D1*
X2891875Y2564232D1*
X2883543Y2568088D1*
X2875700Y2572861D1*
X2868446Y2578490D1*
X2861874Y2584902D1*
X2856070Y2592015D1*
X2851106Y2599739D1*
X2847046Y2607975D1*
X2843944Y2616616D1*
X2841837Y2625552D1*
X2840754Y2634670D1*
X2840708Y2643851D1*
X2841699Y2652979D1*
X2843716Y2661936D1*
X2846732Y2670608D1*
X2850708Y2678884D1*
X2855594Y2686657D1*
X2861327Y2693829D1*
X2867833Y2700307D1*
X2875030Y2706008D1*
X2882825Y2710860D1*
X2891119Y2714799D1*
X2899804Y2717777D1*
X2908770Y2719754D1*
X2917902Y2720705D1*
X2927083Y2720618D1*
X2936195Y2719495D1*
X2945123Y2717349D1*
X2953750Y2714208D1*
X2961967Y2710112D1*
X2969669Y2705114D1*
X2976757Y2699278D1*
X2983140Y2692678D1*
X2988737Y2685400D1*
X2993475Y2677535D1*
X2997294Y2669186D1*
X3000146Y2660459D1*
X3001993Y2651465D1*
X3002812Y2642320D1*
X3002834Y2637830D1*
X2679847Y860916D2*
X2679120Y851764D1*
X2677363Y842752D1*
X2674600Y833996D1*
X2670865Y825609D1*
X2666206Y817697D1*
X2660683Y810363D1*
X2654366Y803699D1*
X2647338Y797792D1*
X2639686Y792717D1*
X2631510Y788539D1*
X2622915Y785311D1*
X2614010Y783076D1*
X2604909Y781861D1*
X2595730Y781682D1*
X2586588Y782541D1*
X2577603Y784428D1*
X2568888Y787318D1*
X2560556Y791174D1*
X2552712Y795947D1*
X2545459Y801575D1*
X2538887Y807987D1*
X2533082Y815101D1*
X2528119Y822825D1*
X2524059Y831060D1*
X2520956Y839702D1*
X2518850Y848638D1*
X2517767Y857755D1*
X2517721Y866937D1*
X2518712Y876065D1*
X2520729Y885022D1*
X2523744Y893694D1*
X2527721Y901970D1*
X2532607Y909743D1*
X2538340Y916915D1*
X2544846Y923393D1*
X2552043Y929094D1*
X2559838Y933945D1*
X2568131Y937885D1*
X2576817Y940862D1*
X2585783Y942839D1*
X2594915Y943791D1*
X2604096Y943704D1*
X2613208Y942580D1*
X2622135Y940434D1*
X2630763Y937293D1*
X2638980Y933198D1*
X2646682Y928200D1*
X2653770Y922364D1*
X2660153Y915764D1*
X2665749Y908485D1*
X2670488Y900621D1*
X2674307Y892272D1*
X2677158Y883544D1*
X2679005Y874551D1*
X2679824Y865406D1*
X2679847Y860916D1*
X3699577Y657954D2*
X3698850Y648802D1*
X3697093Y639790D1*
X3694330Y631034D1*
X3690594Y622647D1*
X3685935Y614735D1*
X3680412Y607401D1*
X3674096Y600737D1*
X3667067Y594830D1*
X3659416Y589755D1*
X3651240Y585577D1*
X3642645Y582349D1*
X3633740Y580114D1*
X3624639Y578899D1*
X3615459Y578720D1*
X3606318Y579579D1*
X3597333Y581466D1*
X3588618Y584356D1*
X3580285Y588212D1*
X3572442Y592985D1*
X3565188Y598613D1*
X3558617Y605025D1*
X3552812Y612139D1*
X3547848Y619863D1*
X3543789Y628098D1*
X3540686Y636740D1*
X3538580Y645676D1*
X3537496Y654794D1*
X3537450Y663975D1*
X3538442Y673103D1*
X3540458Y682060D1*
X3543474Y690732D1*
X3547450Y699008D1*
X3552336Y706781D1*
X3558069Y713953D1*
X3564576Y720431D1*
X3571773Y726132D1*
X3579568Y730983D1*
X3587861Y734923D1*
X3596546Y737900D1*
X3605512Y739877D1*
X3614644Y740829D1*
X3623825Y740742D1*
X3632938Y739618D1*
X3641865Y737472D1*
X3650492Y734331D1*
X3658710Y730236D1*
X3666412Y725238D1*
X3673500Y719402D1*
X3679883Y712802D1*
X3685479Y705524D1*
X3690217Y697659D1*
X3694037Y689310D1*
X3696888Y680582D1*
X3698735Y671589D1*
X3699554Y662444D1*
X3699577Y657954D1*
X3220765Y1605348D2*
X3219008Y1594251D1*
X3215536Y1583566D1*
X3210435Y1573555D1*
X3203831Y1564465D1*
X3195886Y1556521D1*
X3186797Y1549917D1*
X3176786Y1544816D1*
X3166101Y1541344D1*
X3155003Y1539587D1*
X3143768D1*
X3132671Y1541344D1*
X3121986Y1544816D1*
X3111975Y1549917D1*
X3102885Y1556521D1*
X3094941Y1564465D1*
X3088337Y1573555D1*
X3083236Y1583566D1*
X3079764Y1594251D1*
X3078007Y1605348D1*
Y1616584D1*
X3079764Y1627681D1*
X3083236Y1638366D1*
X3088337Y1648377D1*
X3094941Y1657466D1*
X3102885Y1665411D1*
X3111975Y1672015D1*
X3121986Y1677116D1*
X3132671Y1680588D1*
X3143768Y1682345D1*
X3155003D1*
X3166101Y1680588D1*
X3176786Y1677116D1*
X3186797Y1672015D1*
X3195886Y1665411D1*
X3203831Y1657466D1*
X3210435Y1648377D1*
X3215536Y1638366D1*
X3219008Y1627681D1*
X3220765Y1616584D1*
Y1605348D1*
X3313898Y1350658D2*
X3312140Y1339561D1*
X3308668Y1328875D1*
X3303567Y1318865D1*
X3296963Y1309775D1*
X3289019Y1301831D1*
X3279929Y1295227D1*
X3269919Y1290126D1*
X3259233Y1286654D1*
X3248136Y1284896D1*
X3236901D1*
X3225804Y1286654D1*
X3215118Y1290126D1*
X3205107Y1295227D1*
X3196018Y1301831D1*
X3188073Y1309775D1*
X3181469Y1318865D1*
X3176369Y1328875D1*
X3172897Y1339561D1*
X3171139Y1350658D1*
Y1361893D1*
X3172897Y1372990D1*
X3176369Y1383676D1*
X3181469Y1393686D1*
X3188073Y1402776D1*
X3196018Y1410721D1*
X3205107Y1417325D1*
X3215118Y1422425D1*
X3225804Y1425897D1*
X3236901Y1427655D1*
X3248136D1*
X3259233Y1425897D1*
X3269919Y1422425D1*
X3279929Y1417325D1*
X3289019Y1410721D1*
X3296963Y1402776D1*
X3303567Y1393686D1*
X3308668Y1383676D1*
X3312140Y1372990D1*
X3313898Y1361893D1*
Y1350658D1*
X3874125Y1073456D2*
X3873444Y1064299D1*
X3871797Y1055266D1*
X3869203Y1046458D1*
X3865691Y1037974D1*
X3861300Y1029909D1*
X3856081Y1022355D1*
X3850091Y1015396D1*
X3843397Y1009111D1*
X3836076Y1003569D1*
X3828209Y998834D1*
X3819885Y994958D1*
X3811198Y991985D1*
X3802244Y989949D1*
X3793126Y988873D1*
X3783944Y988768D1*
X3774803Y989635D1*
X3765805Y991466D1*
X3757052Y994239D1*
X3748642Y997923D1*
X3740668Y1002477D1*
X3733222Y1007849D1*
X3726387Y1013980D1*
X3720239Y1020800D1*
X3714847Y1028232D1*
X3710273Y1036194D1*
X3706568Y1044595D1*
X3703773Y1053342D1*
X3701920Y1062335D1*
X3701029Y1071473D1*
X3701111Y1080655D1*
X3702164Y1089777D1*
X3704178Y1098735D1*
X3707129Y1107430D1*
X3710983Y1115764D1*
X3715699Y1123643D1*
X3721222Y1130978D1*
X3727490Y1137687D1*
X3734434Y1143695D1*
X3741975Y1148934D1*
X3750028Y1153344D1*
X3758503Y1156878D1*
X3767305Y1159494D1*
X3776334Y1161164D1*
X3785489Y1161868D1*
X3794667Y1161599D1*
X3803765Y1160360D1*
X3812681Y1158165D1*
X3821314Y1155037D1*
X3829567Y1151014D1*
X3837348Y1146139D1*
X3844569Y1140467D1*
X3851149Y1134063D1*
X3857015Y1126998D1*
X3862099Y1119352D1*
X3866345Y1111211D1*
X3869705Y1102666D1*
X3872141Y1093813D1*
X3873626Y1084752D1*
X3874145Y1075293D1*
X3874125Y1073456D1*
X2874978Y793615D2*
D18*
Y710554D1*
X2791918Y793615D2*
X2958038D1*
X4218808Y868297D2*
Y756732D1*
X4018808Y868297D2*
Y756732D1*
X3907244Y868297D2*
X4018808D1*
Y1179861D2*
Y1068297D1*
X3907244D2*
X4018808D1*
X4218808Y1179861D2*
Y1068297D1*
X4205280Y1396731D2*
Y1234547D1*
X4124188Y1315639D2*
X4205280D1*
X2921727Y2720759D2*
Y2558576D1*
X2840636Y2639668D2*
X3002819D1*
X2657429Y1930161D2*
Y1849070D1*
X2576337Y1930161D2*
X2738521D1*
X2598740Y943845D2*
Y781662D1*
X2517648Y862753D2*
X2679832D1*
X3618470Y740883D2*
Y578700D1*
X3537378Y659791D2*
X3699561D1*
X3787545Y1161857D2*
Y988729D1*
X3700981Y1075293D2*
X3874109D1*
X457404Y3046979D2*
D17*
X618669D1*
X874486D2*
X1156322D1*
X1632683D2*
X2102301D1*
X457404Y3007110D2*
X601086D1*
X848218D2*
X1156215D1*
X1616355D2*
X1908562D1*
X2036559D2*
X2094371D1*
X534591Y2967241D2*
X604818D1*
X844486D2*
X1156215D1*
X1330394D2*
X1896972D1*
X2048150D2*
X2094371D1*
X546684Y2927373D2*
X634494D1*
X814810D2*
X1156215D1*
X1330394D2*
X1909639D1*
X2035483D2*
X2094371D1*
X546755Y2887504D2*
X1156215D1*
X1330394D2*
X1747191D1*
X1810668D2*
X1911038D1*
X2034047D2*
X2094371D1*
X546755Y2847635D2*
X852240D1*
X938360D2*
X1708257D1*
X1849603D2*
X1911038D1*
X2034047D2*
X2102301D1*
X535703Y2807766D2*
X815243D1*
X975356D2*
X1704668D1*
X1853191D2*
X1911038D1*
X2034047D2*
X2102301D1*
X480944Y2767898D2*
X535239D1*
X719287D2*
X808210D1*
X982389D2*
X1717407D1*
X1840452D2*
X1911038D1*
X2034047D2*
X2102301D1*
X457404Y2728029D2*
X506962D1*
X747599D2*
X808210D1*
X982389D2*
X1717407D1*
X1840452D2*
X1895357D1*
X2045925D2*
X2102301D1*
X457404Y2688160D2*
X503948D1*
X750613D2*
X808963D1*
X981600D2*
X1717407D1*
X1840452D2*
X1903180D1*
X2038102D2*
X2102301D1*
X457404Y2648291D2*
X522464D1*
X732097D2*
X825829D1*
X964734D2*
X1686834D1*
X1840452D2*
X2102301D1*
X457404Y2608423D2*
X1650160D1*
X1830225D2*
X2102301D1*
X457404Y2568554D2*
X1647218D1*
X1795310D2*
X2102301D1*
X569721Y2528685D2*
X673788D1*
X793674D2*
X1627410D1*
X1771375D2*
X2102301D1*
X600043Y2488816D2*
X650822D1*
X816640D2*
X1597447D1*
X1844543D2*
X2102301D1*
X604565Y2448948D2*
X651360D1*
X816102D2*
X1567089D1*
X1844543D2*
X2102301D1*
X604565Y2409079D2*
X676084D1*
X1049385D2*
X1099338D1*
X1243626D2*
X1557902D1*
X1844543D2*
X2102301D1*
X604565Y2369210D2*
X775268D1*
X1049385D2*
X1086456D1*
X1256509D2*
X1557902D1*
X1844543D2*
X2102301D1*
X604565Y2329341D2*
X783414D1*
X1049385D2*
X1094637D1*
X1248327D2*
X1557902D1*
X1844543D2*
X2102301D1*
X457404Y2289472D2*
X824537D1*
X1049385D2*
X1137950D1*
X1204979D2*
X1557902D1*
X1842246D2*
X2102301D1*
X457404Y2249604D2*
X1557902D1*
X1819711D2*
X2102301D1*
X457404Y2209735D2*
X1557902D1*
X1680911D2*
X2102301D1*
X457404Y2169866D2*
X1557902D1*
X1680911D2*
X2102301D1*
X457404Y2129997D2*
X1557902D1*
X1680911D2*
X2102301D1*
X457404Y2090129D2*
X1557902D1*
X1680911D2*
X2102301D1*
X693055Y2050260D2*
X894152D1*
X1028106D2*
X1557902D1*
X1680911D2*
X2102301D1*
X719897Y2010391D2*
X885755D1*
X1052256D2*
X1557902D1*
X1680911D2*
X2102301D1*
X759764Y1970522D2*
X831822D1*
X1092123D2*
X1557902D1*
X1680911D2*
X2102301D1*
X1131991Y1930654D2*
X1557902D1*
X1680911D2*
X2102301D1*
X955189Y1890785D2*
X1001231D1*
X1171858D2*
X1557902D1*
X1680911D2*
X2102301D1*
X975500Y1850916D2*
X1041098D1*
X1211725D2*
X1557902D1*
X1680911D2*
X2102301D1*
X788615Y1811047D2*
X839393D1*
X1002592D2*
X1080965D1*
X1251628D2*
X1557902D1*
X1680911D2*
X1920942D1*
X2039071D2*
X2102301D1*
X788615Y1771178D2*
X837491D1*
X1291496D2*
X1557902D1*
X1680911D2*
X1904651D1*
X2055362D2*
X2102301D1*
X819332Y1731310D2*
X858412D1*
X983574D2*
X1012211D1*
X1339329D2*
X1557902D1*
X1680911D2*
X1912976D1*
X2047037D2*
X2102301D1*
X859199Y1691441D2*
X1012211D1*
X1352104D2*
X1557902D1*
X1680911D2*
X1918502D1*
X2041511D2*
X2102301D1*
X692086Y1651572D2*
X728403D1*
X899066D2*
X1012211D1*
X1186391D2*
X1212409D1*
X1340621D2*
X1557902D1*
X1680911D2*
X1918502D1*
X2041511D2*
X2102301D1*
X708127Y1611703D2*
X768271D1*
X938934D2*
X1012211D1*
X1186391D2*
X1545056D1*
X1693758D2*
X1903144D1*
X2053676D2*
X2417257D1*
X702780Y1571835D2*
X808138D1*
X978801D2*
X1022761D1*
X1175841D2*
X1548931D1*
X1689882D2*
X1910823D1*
X2045997D2*
X2395511D1*
X703067Y1531966D2*
X848005D1*
X1037902D2*
X1074363D1*
X1124275D2*
X1588763D1*
X1650051D2*
X2373442D1*
X708019Y1492097D2*
X887873D1*
X1063272D2*
X2373083D1*
X691584Y1452228D2*
X917944D1*
X1187145D2*
X2360165D1*
X708019Y1412360D2*
X952285D1*
X1187145D2*
X2364292D1*
X703031Y1372491D2*
X1012965D1*
X1187145D2*
X2405056D1*
X702816Y1332622D2*
X1012965D1*
X1187145D2*
X2417257D1*
X708091Y1292753D2*
X1012965D1*
X1187145D2*
X2417257D1*
X692015Y1252885D2*
X1015584D1*
X1184489D2*
X1260494D1*
X1363659D2*
X2417257D1*
X457404Y1213016D2*
X1039268D1*
X1160841D2*
X1231177D1*
X1392976D2*
X2417257D1*
X457404Y1173147D2*
X1228198D1*
X1395991D2*
X2417257D1*
X457404Y1133278D2*
X1247468D1*
X1376721D2*
X2417257D1*
X457404Y1093409D2*
X1116670D1*
X1172145D2*
X2417257D1*
X457404Y1053541D2*
X1068585D1*
X1220266D2*
X2417257D1*
X457404Y1013672D2*
X1059327D1*
X1229524D2*
X2417257D1*
X457404Y973803D2*
X1071026D1*
X1217826D2*
X2417257D1*
X457404Y933934D2*
X2417257D1*
X457404Y894066D2*
X2417257D1*
X457404Y854197D2*
X2417257D1*
X457404Y814328D2*
X2417257D1*
X457404Y774459D2*
X2417257D1*
X457404Y734591D2*
X2417257D1*
X457404Y694722D2*
X2417257D1*
X623512Y654853D2*
X2417257D1*
X665711Y614984D2*
X2417257D1*
X684587Y575115D2*
X2417257D1*
X690041Y535247D2*
X2417257D1*
X683725Y495378D2*
X2417257D1*
X663702Y455509D2*
X2417257D1*
X1182384Y1610537D2*
X1181674Y1601383D1*
X1179959Y1592363D1*
X1177259Y1583587D1*
X1173607Y1575163D1*
X1169048Y1567193D1*
X1163638Y1559775D1*
X1157442Y1552999D1*
X1150536Y1546948D1*
X1143005Y1541695D1*
X1134941Y1537306D1*
X1126441Y1533833D1*
X1117611Y1531319D1*
X1108556Y1529794D1*
X1099389Y1529278D1*
X1090221Y1529777D1*
X1081164Y1531283D1*
X1072328Y1533780D1*
X1063822Y1537237D1*
X1055749Y1541610D1*
X1048208Y1546848D1*
X1041290Y1552886D1*
X1035081Y1559650D1*
X1029657Y1567058D1*
X1025082Y1575019D1*
X1021414Y1583436D1*
X1018697Y1592206D1*
X1016964Y1601223D1*
X1016236Y1610376D1*
X1016523Y1619553D1*
X1017820Y1628642D1*
X1017955Y1629281D1*
X1016212Y1629278D1*
Y1795470D1*
X1100504D1*
X950628Y1945380D1*
X944411Y1946586D1*
X933725Y1950058D1*
X930513Y1951476D1*
X936273Y1944326D1*
X941188Y1936571D1*
X945195Y1928310D1*
X948244Y1919650D1*
X950294Y1910700D1*
X951320Y1901576D1*
X951361Y1893415D1*
X950427Y1884281D1*
X948466Y1875311D1*
X945505Y1866621D1*
X944816Y1864972D1*
X952039Y1862379D1*
X957823Y1859712D1*
X963381Y1856599D1*
X968678Y1853060D1*
X973680Y1849117D1*
X978358Y1844792D1*
X982682Y1840115D1*
X986626Y1835112D1*
X990165Y1829816D1*
X993278Y1824258D1*
X995944Y1818473D1*
X998149Y1812496D1*
X999878Y1806365D1*
X1001121Y1800118D1*
X1001870Y1793792D1*
X1002120Y1787427D1*
X1001870Y1781061D1*
X1001121Y1774735D1*
X999878Y1768488D1*
X998149Y1762357D1*
X995944Y1756380D1*
X993278Y1750595D1*
X990165Y1745038D1*
X986626Y1739741D1*
X982682Y1734738D1*
X978358Y1730061D1*
X973680Y1725737D1*
X968678Y1721793D1*
X963381Y1718254D1*
X957823Y1715141D1*
X952039Y1712475D1*
X946062Y1710270D1*
X939931Y1708541D1*
X933683Y1707298D1*
X927358Y1706549D1*
X920992Y1706299D1*
X914627Y1706549D1*
X908301Y1707298D1*
X902053Y1708541D1*
X895923Y1710270D1*
X889946Y1712475D1*
X884161Y1715141D1*
X878603Y1718254D1*
X873307Y1721793D1*
X868304Y1725737D1*
X863627Y1730061D1*
X859302Y1734738D1*
X855359Y1739741D1*
X851820Y1745038D1*
X848707Y1750595D1*
X846040Y1756380D1*
X843835Y1762357D1*
X842106Y1768488D1*
X840864Y1774735D1*
X840115Y1781061D1*
X839865Y1787427D1*
X840115Y1793792D1*
X840864Y1800118D1*
X842106Y1806365D1*
X843835Y1812496D1*
X846530Y1819535D1*
X838764Y1822348D1*
X830521Y1826392D1*
X822787Y1831341D1*
X815663Y1837133D1*
X809239Y1843692D1*
X803596Y1850935D1*
X798809Y1858769D1*
X794937Y1867095D1*
X792031Y1875804D1*
X790127Y1884786D1*
X789250Y1893925D1*
X789412Y1903105D1*
X790610Y1912208D1*
X792829Y1921118D1*
X796040Y1929719D1*
X800203Y1937903D1*
X805264Y1945564D1*
X811158Y1952604D1*
X817809Y1958932D1*
X825133Y1964469D1*
X833036Y1969143D1*
X841417Y1972894D1*
X850167Y1975674D1*
X859176Y1977447D1*
X868327Y1978191D1*
X877504Y1977897D1*
X886588Y1976567D1*
X895464Y1974220D1*
X904019Y1970884D1*
X906681Y1969707D1*
X900077Y1978797D1*
X894976Y1988808D1*
X891504Y1999493D1*
X889746Y2010590D1*
Y2021825D1*
X891504Y2032922D1*
X894976Y2043608D1*
X900077Y2053619D1*
X906681Y2062708D1*
X914625Y2070653D1*
X923715Y2077257D1*
X933725Y2082358D1*
X944411Y2085829D1*
X955508Y2087587D1*
X966743D1*
X977840Y2085829D1*
X988526Y2082358D1*
X998536Y2077257D1*
X1007626Y2070653D1*
X1015571Y2062708D1*
X1022175Y2053619D1*
X1027275Y2043608D1*
X1030747Y2032922D1*
X1031924Y2026732D1*
X1300820Y1757838D1*
X1309025Y1754280D1*
X1318605Y1748409D1*
X1327148Y1741112D1*
X1334445Y1732569D1*
X1340315Y1722989D1*
X1344615Y1712609D1*
X1347238Y1701684D1*
X1348119Y1690484D1*
X1347238Y1679283D1*
X1344615Y1668358D1*
X1340315Y1657978D1*
X1334445Y1648398D1*
X1327148Y1639855D1*
X1318605Y1632558D1*
X1309025Y1626688D1*
X1298645Y1622388D1*
X1287720Y1619765D1*
X1276519Y1618884D1*
X1265319Y1619765D1*
X1254394Y1622388D1*
X1244014Y1626688D1*
X1234434Y1632558D1*
X1225891Y1639855D1*
X1218594Y1648398D1*
X1212723Y1657978D1*
X1208424Y1668358D1*
X1205801Y1679283D1*
X1204919Y1690484D1*
X1204943Y1691076D1*
X1182394Y1713614D1*
X1182404Y1629278D1*
X1180700Y1629118D1*
X1182050Y1620036D1*
X1182384Y1610537D1*
X2106275Y2867656D2*
X2098368D1*
Y3033848D1*
X2106298D1*
X2106299Y3086850D1*
X1623454Y3086848D1*
X1626066Y3079229D1*
X1628117Y3070280D1*
X1629142Y3061156D1*
X1629183Y3052995D1*
X1628249Y3043861D1*
X1626289Y3034891D1*
X1623328Y3026200D1*
X1619404Y3017900D1*
X1614567Y3010096D1*
X1608880Y3002888D1*
X1602414Y2996369D1*
X1595253Y2990623D1*
X1587489Y2985722D1*
X1579220Y2981730D1*
X1570554Y2978698D1*
X1561601Y2976665D1*
X1552475Y2975656D1*
X1543293Y2975685D1*
X1534174Y2976751D1*
X1525234Y2978841D1*
X1516587Y2981928D1*
X1508344Y2985971D1*
X1500610Y2990921D1*
X1493486Y2996712D1*
X1487061Y3003272D1*
X1481419Y3010515D1*
X1476631Y3018349D1*
X1476177Y3019221D1*
X1470722Y3008655D1*
X1467183Y3003358D1*
X1463239Y2998355D1*
X1458915Y2993678D1*
X1454237Y2989354D1*
X1449235Y2985410D1*
X1443938Y2981871D1*
X1438380Y2978758D1*
X1432595Y2976091D1*
X1426619Y2973887D1*
X1420488Y2972158D1*
X1414240Y2970915D1*
X1407914Y2970166D1*
X1401549Y2969916D1*
X1395184Y2970166D1*
X1388858Y2970915D1*
X1382610Y2972158D1*
X1376479Y2973887D1*
X1370503Y2976091D1*
X1364718Y2978758D1*
X1359160Y2981871D1*
X1353864Y2985410D1*
X1348861Y2989354D1*
X1344183Y2993678D1*
X1339859Y2998355D1*
X1335916Y3003358D1*
X1332377Y3008655D1*
X1329264Y3014212D1*
X1326399Y3020534D1*
X1326402Y2859410D1*
X1160210D1*
Y3025602D1*
X1161968D1*
X1160466Y3035987D1*
X1160210Y3042506D1*
X1160466Y3049026D1*
X1161233Y3055505D1*
X1162506Y3061905D1*
X1164277Y3068184D1*
X1166535Y3074306D1*
X1169266Y3080231D1*
X1173063Y3086835D1*
X877422Y3086848D1*
X877633Y3080722D1*
X877377Y3074202D1*
X876610Y3067723D1*
X875337Y3061323D1*
X873566Y3055044D1*
X871307Y3048922D1*
X868576Y3042997D1*
X865388Y3037304D1*
X861763Y3031879D1*
X857723Y3026755D1*
X853295Y3021964D1*
X848503Y3017535D1*
X843062Y3013283D1*
X844894Y3001188D1*
X845150Y2994668D1*
X844894Y2988148D1*
X844127Y2981669D1*
X842854Y2975270D1*
X841083Y2968990D1*
X838825Y2962868D1*
X836093Y2956943D1*
X832905Y2951250D1*
X829280Y2945825D1*
X825241Y2940701D1*
X820812Y2935910D1*
X816020Y2931481D1*
X810896Y2927442D1*
X805471Y2923817D1*
X799779Y2920629D1*
X793853Y2917897D1*
X787732Y2915639D1*
X781452Y2913868D1*
X775053Y2912595D1*
X768573Y2911828D1*
X752868Y2911572D1*
X687251D1*
X680731Y2911828D1*
X674252Y2912595D1*
X667852Y2913868D1*
X661573Y2915639D1*
X655451Y2917897D1*
X649526Y2920629D1*
X643833Y2923817D1*
X638408Y2927442D1*
X633284Y2931481D1*
X628493Y2935910D1*
X624064Y2940701D1*
X620025Y2945825D1*
X616400Y2951250D1*
X613212Y2956943D1*
X610480Y2962868D1*
X608222Y2968990D1*
X606451Y2975270D1*
X605178Y2981669D1*
X604411Y2988148D1*
X604155Y2994668D1*
X604411Y3001188D1*
X605178Y3007667D1*
X606451Y3014066D1*
X608222Y3020346D1*
X610480Y3026467D1*
X613212Y3032393D1*
X616400Y3038086D1*
X620025Y3043511D1*
X624064Y3048635D1*
X628493Y3053426D1*
X633284Y3057855D1*
X638726Y3062107D1*
X636894Y3074202D1*
X636638Y3080722D1*
X636879Y3086859D1*
X453414Y3086848D1*
X453386Y3006839D1*
X461254Y3007060D1*
X470410Y3006377D1*
X479435Y3004688D1*
X488218Y3002013D1*
X496653Y2998386D1*
X504636Y2993850D1*
X512070Y2988461D1*
X518864Y2982285D1*
X524936Y2975398D1*
X530210Y2967882D1*
X534623Y2959830D1*
X538121Y2951341D1*
X540661Y2942518D1*
X542211Y2933468D1*
X542755Y2923979D1*
X542572Y2843668D1*
X541458Y2834554D1*
X539346Y2825619D1*
X536260Y2816971D1*
X532240Y2808717D1*
X527333Y2800956D1*
X521600Y2793784D1*
X515111Y2787289D1*
X507944Y2781549D1*
X500189Y2776634D1*
X491938Y2772606D1*
X483293Y2769512D1*
X474360Y2767391D1*
X465247Y2766268D1*
X456066Y2766157D1*
X453380Y2766322D1*
X453386Y2509125D1*
X457758Y2514735D1*
X462082Y2519413D1*
X466759Y2523737D1*
X471762Y2527681D1*
X477058Y2531220D1*
X482616Y2534332D1*
X488401Y2536999D1*
X494378Y2539204D1*
X500509Y2540933D1*
X506756Y2542176D1*
X513082Y2542925D1*
X519448Y2543175D1*
X525813Y2542925D1*
X532139Y2542176D1*
X538386Y2540933D1*
X544517Y2539204D1*
X550494Y2536999D1*
X556279Y2534332D1*
X561837Y2531220D1*
X567133Y2527681D1*
X572136Y2523737D1*
X576813Y2519413D1*
X581137Y2514735D1*
X585081Y2509733D1*
X588620Y2504436D1*
X591733Y2498878D1*
X594400Y2493093D1*
X596604Y2487117D1*
X598334Y2480986D1*
X599576Y2474738D1*
X600480Y2464459D1*
X600575Y2455248D1*
Y2302179D1*
X453385D1*
X453481Y2044919D1*
X457041Y2050247D1*
X461007Y2055278D1*
X465357Y2059983D1*
X470061Y2064333D1*
X475093Y2068299D1*
X480421Y2071859D1*
X486011Y2074990D1*
X491829Y2077672D1*
X497841Y2079890D1*
X504007Y2081629D1*
X510291Y2082879D1*
X516654Y2083632D1*
X523056Y2083883D1*
X529459Y2083632D1*
X535821Y2082879D1*
X542106Y2081629D1*
X548272Y2079890D1*
X554283Y2077672D1*
X560102Y2074990D1*
X565692Y2071859D1*
X573005Y2066734D1*
X580421Y2071859D1*
X586011Y2074990D1*
X591829Y2077672D1*
X597841Y2079890D1*
X604007Y2081629D1*
X610291Y2082879D1*
X616654Y2083632D1*
X623056Y2083883D1*
X629459Y2083632D1*
X635821Y2082879D1*
X642106Y2081629D1*
X648272Y2079890D1*
X654283Y2077672D1*
X660102Y2074990D1*
X665692Y2071859D1*
X671020Y2068299D1*
X676051Y2064333D1*
X680756Y2059983D1*
X685106Y2055278D1*
X689072Y2050247D1*
X692632Y2044919D1*
X695763Y2039329D1*
X698445Y2033510D1*
X701390Y2024922D1*
X770836Y1955208D1*
X776140Y1947908D1*
X780237Y1939868D1*
X783025Y1931286D1*
X784437Y1922373D1*
X784614Y1899489D1*
Y1762016D1*
X1000070Y1546565D1*
X1006265Y1545380D1*
X1016951Y1541908D1*
X1026962Y1536807D1*
X1036051Y1530203D1*
X1043996Y1522259D1*
X1050600Y1513169D1*
X1055700Y1503158D1*
X1059172Y1492473D1*
X1060930Y1481376D1*
Y1470141D1*
X1059172Y1459044D1*
X1058535Y1456782D1*
X1183148Y1456764D1*
Y1290572D1*
X1181444Y1290411D1*
X1182794Y1281329D1*
X1183128Y1271831D1*
X1182418Y1262677D1*
X1180703Y1253657D1*
X1178002Y1244881D1*
X1174351Y1236457D1*
X1169792Y1228487D1*
X1164381Y1221068D1*
X1158186Y1214292D1*
X1151280Y1208241D1*
X1143749Y1202989D1*
X1135685Y1198599D1*
X1127185Y1195126D1*
X1118354Y1192612D1*
X1109300Y1191088D1*
X1100133Y1190572D1*
X1090965Y1191070D1*
X1081907Y1192577D1*
X1073072Y1195074D1*
X1064566Y1198530D1*
X1056493Y1202904D1*
X1048951Y1208142D1*
X1042034Y1214179D1*
X1035825Y1220943D1*
X1030400Y1228351D1*
X1025826Y1236312D1*
X1022158Y1244729D1*
X1019441Y1253500D1*
X1017708Y1262516D1*
X1016980Y1271669D1*
X1017267Y1280846D1*
X1018564Y1289936D1*
X1018699Y1290575D1*
X1016956Y1290572D1*
X1016951Y1409609D1*
X1006265Y1406137D1*
X995168Y1404379D1*
X983933D1*
X972836Y1406137D1*
X962151Y1409609D1*
X952140Y1414709D1*
X943050Y1421313D1*
X935106Y1429258D1*
X928502Y1438347D1*
X923401Y1448358D1*
X919929Y1459044D1*
X918752Y1465234D1*
X702076Y1681908D1*
X699418Y1673519D1*
X695704Y1665122D1*
X691069Y1657196D1*
X687539Y1652285D1*
X692632Y1644919D1*
X695763Y1639329D1*
X698445Y1633510D1*
X700663Y1627499D1*
X702402Y1621333D1*
X703652Y1615049D1*
X704405Y1608686D1*
X704656Y1602283D1*
X704405Y1595881D1*
X703652Y1589518D1*
X702402Y1583234D1*
X700663Y1577068D1*
X698445Y1571056D1*
X695763Y1565238D1*
X692632Y1559648D1*
X687507Y1552335D1*
X692973Y1544357D1*
X697257Y1536236D1*
X700602Y1527685D1*
X702965Y1518813D1*
X704316Y1509732D1*
X704636Y1500446D1*
X703913Y1491293D1*
X702166Y1482279D1*
X699418Y1473519D1*
X695704Y1465122D1*
X691069Y1457196D1*
X687539Y1452285D1*
X692632Y1444919D1*
X695763Y1439329D1*
X698445Y1433510D1*
X700663Y1427499D1*
X702402Y1421333D1*
X703652Y1415049D1*
X704405Y1408686D1*
X704656Y1402283D1*
X704405Y1395881D1*
X703652Y1389518D1*
X702402Y1383234D1*
X700663Y1377068D1*
X698445Y1371056D1*
X695763Y1365238D1*
X692632Y1359648D1*
X687507Y1352335D1*
X692973Y1344357D1*
X697257Y1336236D1*
X700602Y1327685D1*
X702965Y1318813D1*
X704316Y1309732D1*
X704636Y1300446D1*
X703913Y1291293D1*
X702166Y1282279D1*
X699418Y1273519D1*
X695704Y1265122D1*
X691069Y1257196D1*
X685573Y1249841D1*
X679286Y1243150D1*
X672287Y1237208D1*
X664665Y1232089D1*
X656516Y1227859D1*
X647943Y1224571D1*
X639056Y1222267D1*
X629965Y1220976D1*
X620788Y1220715D1*
X611638Y1221486D1*
X602634Y1223280D1*
X593888Y1226075D1*
X585511Y1229834D1*
X577610Y1234510D1*
X573055Y1237799D1*
X566235Y1233043D1*
X558183Y1228631D1*
X549687Y1225151D1*
X540853Y1222648D1*
X531794Y1221153D1*
X522624Y1220685D1*
X513460Y1221250D1*
X504418Y1222841D1*
X495611Y1225437D1*
X487152Y1229007D1*
X479147Y1233504D1*
X471699Y1238873D1*
X464900Y1245044D1*
X458838Y1251939D1*
X453589Y1259472D1*
X453386Y1251205D1*
Y637693D1*
X463160Y645988D1*
X470605Y651367D1*
X478391Y656239D1*
X486483Y660584D1*
X494846Y664381D1*
X503443Y667615D1*
X512235Y670271D1*
X521184Y672338D1*
X530251Y673805D1*
X539395Y674667D1*
X548576Y674920D1*
X557754Y674563D1*
X566888Y673597D1*
X575937Y672027D1*
X584862Y669860D1*
X593624Y667104D1*
X602183Y663773D1*
X610502Y659881D1*
X618545Y655445D1*
X626275Y650485D1*
X633658Y645022D1*
X640663Y639081D1*
X647258Y632688D1*
X653413Y625872D1*
X659103Y618662D1*
X664301Y611089D1*
X668984Y603189D1*
X673133Y594994D1*
X676729Y586543D1*
X679755Y577871D1*
X682199Y569017D1*
X684050Y560021D1*
X685299Y550922D1*
X686034Y536681D1*
X685729Y527502D1*
X684815Y518362D1*
X683296Y509304D1*
X681179Y500367D1*
X678473Y491590D1*
X675191Y483012D1*
X671346Y474671D1*
X666956Y466603D1*
X662039Y458845D1*
X655166Y449699D1*
X2421262Y449682D1*
X2421260Y1369023D1*
X2412473Y1371282D1*
X2402093Y1375582D1*
X2392513Y1381452D1*
X2383970Y1388749D1*
X2376673Y1397293D1*
X2370802Y1406872D1*
X2366503Y1417252D1*
X2363880Y1428177D1*
X2362998Y1439378D1*
X2363880Y1450579D1*
X2366503Y1461504D1*
X2370802Y1471884D1*
X2376673Y1481463D1*
X2377094Y1481998D1*
X2377270Y1530093D1*
X2378682Y1539006D1*
X2381470Y1547588D1*
X2385567Y1555628D1*
X2390871Y1562928D1*
X2406927Y1579235D1*
X2421264Y1593572D1*
X2421260Y1630188D1*
X2124730Y1630216D1*
X2120119Y1631134D1*
X2115849Y1633102D1*
X2112157Y1636013D1*
X2109246Y1639705D1*
X2107278Y1643975D1*
X2106361Y1648586D1*
X2106299Y1916559D1*
Y2867669D1*
X879196Y2284122D2*
X868792Y2282574D1*
X862273Y2282318D1*
X855753Y2282574D1*
X849273Y2283341D1*
X842874Y2284614D1*
X836594Y2286385D1*
X830473Y2288643D1*
X824548Y2291375D1*
X818855Y2294563D1*
X813430Y2298188D1*
X808306Y2302227D1*
X803515Y2306656D1*
X799086Y2311448D1*
X795046Y2316572D1*
X791422Y2321997D1*
X788233Y2327689D1*
X785502Y2333615D1*
X783244Y2339736D1*
X781472Y2346016D1*
X780200Y2352415D1*
X779433Y2358895D1*
X779177Y2365414D1*
X779433Y2371934D1*
X780200Y2378413D1*
X781472Y2384813D1*
X783244Y2391092D1*
X785502Y2397214D1*
X788233Y2403139D1*
X791422Y2408832D1*
X795046Y2414257D1*
X799086Y2419381D1*
X803515Y2424172D1*
X808306Y2428601D1*
X813430Y2432640D1*
X818855Y2436265D1*
X824548Y2439453D1*
X830473Y2442185D1*
X836594Y2444443D1*
X842874Y2446214D1*
X849273Y2447487D1*
X855753Y2448254D1*
X862273Y2448510D1*
X868792Y2448254D1*
X879196Y2446707D1*
X879177Y2448510D1*
X1045369D1*
Y2282318D1*
X879177D1*
Y2284076D1*
X1840532Y2307012D2*
X1839823Y2297858D1*
X1838107Y2288838D1*
X1835407Y2280062D1*
X1831755Y2271638D1*
X1827196Y2263668D1*
X1821786Y2256250D1*
X1815590Y2249474D1*
X1808685Y2243422D1*
X1801154Y2238170D1*
X1793089Y2233781D1*
X1784590Y2230308D1*
X1775759Y2227794D1*
X1766705Y2226269D1*
X1757537Y2225753D1*
X1748369Y2226251D1*
X1739312Y2227758D1*
X1730476Y2230255D1*
X1721970Y2233711D1*
X1713897Y2238085D1*
X1706356Y2243323D1*
X1699439Y2249361D1*
X1693230Y2256125D1*
X1687805Y2263532D1*
X1683231Y2271493D1*
X1679562Y2279911D1*
X1676905Y2288452D1*
Y1641101D1*
X1680448Y1635837D1*
X1685549Y1625827D1*
X1689021Y1615141D1*
X1690778Y1604044D1*
Y1592809D1*
X1689021Y1581712D1*
X1685549Y1571026D1*
X1680448Y1561016D1*
X1673844Y1551926D1*
X1665899Y1543981D1*
X1656810Y1537377D1*
X1646799Y1532277D1*
X1636114Y1528805D1*
X1625017Y1527047D1*
X1613781D1*
X1602684Y1528805D1*
X1591999Y1532277D1*
X1581988Y1537377D1*
X1572898Y1543981D1*
X1564954Y1551926D1*
X1558350Y1561016D1*
X1553249Y1571026D1*
X1549777Y1581712D1*
X1548020Y1592809D1*
Y1604044D1*
X1549777Y1615141D1*
X1553249Y1625827D1*
X1558350Y1635837D1*
X1561895Y1641047D1*
X1562071Y2422254D1*
X1563482Y2431166D1*
X1566271Y2439748D1*
X1570367Y2447789D1*
X1575671Y2455089D1*
X1591728Y2471396D1*
X1599264Y2478932D1*
X1600457Y2485136D1*
X1603929Y2495822D1*
X1609029Y2505832D1*
X1615633Y2514922D1*
X1623578Y2522867D1*
X1632668Y2529471D1*
X1642678Y2534571D1*
X1653364Y2538043D1*
X1664527Y2539803D1*
X1660214Y2546062D1*
X1655114Y2556073D1*
X1651642Y2566758D1*
X1649884Y2577855D1*
Y2589091D1*
X1651642Y2600188D1*
X1655114Y2610873D1*
X1660214Y2620884D1*
X1666818Y2629973D1*
X1674763Y2637918D1*
X1683853Y2644522D1*
X1693863Y2649623D1*
X1704549Y2653095D1*
X1710739Y2654271D1*
X1721428Y2664962D1*
X1721425Y2778827D1*
X1717881Y2784081D1*
X1712781Y2794092D1*
X1709309Y2804777D1*
X1707551Y2815874D1*
Y2827110D1*
X1709309Y2838207D1*
X1712781Y2848892D1*
X1717881Y2858903D1*
X1724485Y2867993D1*
X1732430Y2875937D1*
X1741520Y2882541D1*
X1751530Y2887642D1*
X1762216Y2891114D1*
X1773313Y2892871D1*
X1784548D1*
X1795645Y2891114D1*
X1806331Y2887642D1*
X1816341Y2882541D1*
X1825431Y2875937D1*
X1833376Y2867993D1*
X1839979Y2858903D1*
X1845080Y2848892D1*
X1848552Y2838207D1*
X1850310Y2827110D1*
Y2815874D1*
X1848552Y2804777D1*
X1845080Y2794092D1*
X1839979Y2784081D1*
X1836435Y2778872D1*
X1836259Y2636628D1*
X1834847Y2627715D1*
X1832059Y2619133D1*
X1827962Y2611093D1*
X1822658Y2603793D1*
X1806602Y2587486D1*
X1792113Y2572997D1*
X1790885Y2566758D1*
X1787413Y2556073D1*
X1782312Y2546062D1*
X1775709Y2536972D1*
X1767764Y2529028D1*
X1758674Y2522424D1*
X1748664Y2517323D1*
X1737978Y2513851D1*
X1726815Y2512091D1*
X1731128Y2505832D1*
X1736228Y2495822D1*
X1737665Y2491928D1*
X1840553Y2491945D1*
Y2325753D1*
X1838848Y2325592D1*
X1840199Y2316510D1*
X1840532Y2307012D1*
X589902Y2618905D2*
X583357Y2619160D1*
X576878Y2619927D1*
X570478Y2621200D1*
X564199Y2622971D1*
X558077Y2625229D1*
X552152Y2627961D1*
X546459Y2631149D1*
X541034Y2634774D1*
X535910Y2638813D1*
X531119Y2643242D1*
X526690Y2648033D1*
X522651Y2653157D1*
X519026Y2658582D1*
X515838Y2664275D1*
X513106Y2670201D1*
X510848Y2676322D1*
X509077Y2682602D1*
X507804Y2689001D1*
X507037Y2695480D1*
X506781Y2702000D1*
X507037Y2708520D1*
X507804Y2714999D1*
X509077Y2721398D1*
X510848Y2727678D1*
X513106Y2733799D1*
X515838Y2739725D1*
X519026Y2745418D1*
X522651Y2750843D1*
X526690Y2755967D1*
X531119Y2760758D1*
X535910Y2765187D1*
X541034Y2769226D1*
X546459Y2772851D1*
X552152Y2776039D1*
X558077Y2778771D1*
X564199Y2781029D1*
X570478Y2782800D1*
X576878Y2784073D1*
X583357Y2784840D1*
X599063Y2785096D1*
X664680D1*
X671199Y2784840D1*
X677679Y2784073D1*
X684078Y2782800D1*
X690358Y2781029D1*
X696479Y2778771D1*
X702405Y2776039D1*
X708097Y2772851D1*
X713522Y2769226D1*
X718646Y2765187D1*
X723438Y2760758D1*
X727867Y2755967D1*
X731906Y2750843D1*
X735531Y2745418D1*
X738719Y2739725D1*
X741451Y2733799D1*
X743709Y2727678D1*
X745480Y2721398D1*
X746753Y2714999D1*
X747520Y2708520D1*
X747776Y2702000D1*
X747520Y2695480D1*
X746753Y2689001D1*
X745480Y2682602D1*
X743709Y2676322D1*
X741451Y2670201D1*
X738719Y2664275D1*
X735531Y2658582D1*
X731906Y2653157D1*
X727867Y2648033D1*
X723438Y2643242D1*
X718646Y2638813D1*
X713522Y2634774D1*
X708097Y2631149D1*
X702405Y2627961D1*
X696479Y2625229D1*
X690358Y2622971D1*
X684078Y2621200D1*
X677679Y2619927D1*
X671199Y2619160D1*
X655494Y2618904D1*
X589877Y2618940D1*
X812198Y2774266D2*
X812453Y2780811D1*
X813220Y2787290D1*
X814493Y2793690D1*
X816264Y2799969D1*
X818522Y2806091D1*
X821254Y2812016D1*
X824442Y2817709D1*
X828067Y2823134D1*
X832106Y2828258D1*
X836535Y2833049D1*
X841326Y2837478D1*
X846450Y2841517D1*
X851875Y2845142D1*
X857568Y2848330D1*
X863493Y2851062D1*
X869615Y2853320D1*
X875894Y2855091D1*
X882294Y2856364D1*
X888773Y2857131D1*
X895293Y2857387D1*
X901812Y2857131D1*
X908292Y2856364D1*
X914691Y2855091D1*
X920971Y2853320D1*
X927092Y2851062D1*
X933017Y2848330D1*
X938710Y2845142D1*
X944135Y2841517D1*
X949259Y2837478D1*
X954050Y2833049D1*
X958479Y2828258D1*
X962519Y2823134D1*
X966144Y2817709D1*
X969332Y2812016D1*
X972063Y2806091D1*
X974322Y2799969D1*
X976093Y2793690D1*
X977366Y2787290D1*
X978133Y2780811D1*
X978389Y2765105D1*
X978353Y2699488D1*
X978133Y2692969D1*
X977366Y2686489D1*
X976093Y2680090D1*
X974322Y2673810D1*
X972063Y2667689D1*
X969332Y2661763D1*
X966144Y2656071D1*
X962519Y2650646D1*
X958479Y2645522D1*
X954050Y2640730D1*
X949259Y2636301D1*
X944135Y2632262D1*
X938710Y2628637D1*
X933017Y2625449D1*
X927092Y2622717D1*
X920971Y2620459D1*
X914691Y2618688D1*
X908292Y2617415D1*
X901812Y2616648D1*
X895293Y2616392D1*
X888773Y2616648D1*
X882294Y2617415D1*
X875894Y2618688D1*
X869615Y2620459D1*
X863493Y2622717D1*
X857568Y2625449D1*
X851875Y2628637D1*
X846450Y2632262D1*
X841326Y2636301D1*
X836535Y2640730D1*
X832106Y2645522D1*
X828067Y2650646D1*
X824442Y2656071D1*
X821254Y2661763D1*
X818522Y2667689D1*
X816264Y2673810D1*
X814493Y2680090D1*
X813220Y2686489D1*
X812453Y2692969D1*
X812197Y2708674D1*
Y2774060D1*
X814607Y2463560D2*
X813858Y2457234D1*
X812616Y2450986D1*
X810887Y2444855D1*
X808682Y2438879D1*
X806015Y2433094D1*
X802902Y2427536D1*
X799363Y2422239D1*
X795420Y2417237D1*
X791095Y2412559D1*
X786418Y2408235D1*
X781415Y2404291D1*
X776119Y2400752D1*
X770561Y2397640D1*
X764776Y2394973D1*
X758799Y2392768D1*
X752669Y2391039D1*
X746421Y2389796D1*
X740095Y2389048D1*
X733730Y2388797D1*
X727364Y2389048D1*
X721039Y2389796D1*
X714791Y2391039D1*
X708660Y2392768D1*
X702683Y2394973D1*
X696899Y2397640D1*
X691341Y2400752D1*
X686044Y2404291D1*
X681042Y2408235D1*
X676364Y2412559D1*
X672040Y2417237D1*
X668096Y2422239D1*
X664557Y2427536D1*
X661444Y2433094D1*
X658778Y2438879D1*
X656573Y2444855D1*
X654844Y2450986D1*
X653601Y2457234D1*
X652852Y2463560D1*
X652602Y2469925D1*
X652852Y2476290D1*
X653601Y2482616D1*
X654844Y2488864D1*
X656573Y2494995D1*
X658778Y2500971D1*
X661444Y2506756D1*
X664557Y2512314D1*
X668096Y2517611D1*
X672040Y2522613D1*
X676364Y2527291D1*
X681042Y2531615D1*
X686044Y2535559D1*
X691341Y2539098D1*
X696899Y2542210D1*
X702683Y2544877D1*
X708660Y2547082D1*
X714791Y2548811D1*
X721039Y2550054D1*
X727364Y2550803D1*
X733730Y2551053D1*
X740095Y2550803D1*
X746421Y2550054D1*
X752669Y2548811D1*
X758799Y2547082D1*
X764776Y2544877D1*
X770561Y2542210D1*
X776119Y2539098D1*
X781415Y2535559D1*
X786418Y2531615D1*
X791095Y2527291D1*
X795420Y2522613D1*
X799363Y2517611D1*
X802902Y2512314D1*
X806015Y2506756D1*
X808682Y2500971D1*
X810887Y2494995D1*
X812616Y2488864D1*
X813858Y2482616D1*
X814607Y2476290D1*
X814857Y2469925D1*
X814607Y2463560D1*
X1392965Y1180814D2*
X1392216Y1174488D1*
X1390973Y1168240D1*
X1389244Y1162109D1*
X1387039Y1156133D1*
X1384372Y1150348D1*
X1381260Y1144790D1*
X1377721Y1139493D1*
X1373777Y1134491D1*
X1369453Y1129813D1*
X1364775Y1125489D1*
X1359773Y1121545D1*
X1354476Y1118006D1*
X1348918Y1114894D1*
X1343133Y1112227D1*
X1337157Y1110022D1*
X1331026Y1108293D1*
X1324778Y1107050D1*
X1318452Y1106302D1*
X1312087Y1106051D1*
X1305722Y1106302D1*
X1299396Y1107050D1*
X1293148Y1108293D1*
X1287017Y1110022D1*
X1281041Y1112227D1*
X1275256Y1114894D1*
X1269698Y1118006D1*
X1264402Y1121545D1*
X1259399Y1125489D1*
X1254721Y1129813D1*
X1250397Y1134491D1*
X1246454Y1139493D1*
X1242915Y1144790D1*
X1239802Y1150348D1*
X1237135Y1156133D1*
X1234930Y1162109D1*
X1233201Y1168240D1*
X1231958Y1174488D1*
X1231210Y1180814D1*
X1230960Y1187179D1*
X1231210Y1193544D1*
X1231958Y1199870D1*
X1233201Y1206118D1*
X1234930Y1212249D1*
X1237135Y1218225D1*
X1239802Y1224010D1*
X1242915Y1229568D1*
X1246454Y1234865D1*
X1250397Y1239867D1*
X1254721Y1244545D1*
X1259399Y1248869D1*
X1264402Y1252813D1*
X1269698Y1256352D1*
X1275256Y1259464D1*
X1281041Y1262131D1*
X1287017Y1264336D1*
X1293148Y1266065D1*
X1299396Y1267308D1*
X1305722Y1268056D1*
X1312087Y1268307D1*
X1318452Y1268056D1*
X1324778Y1267308D1*
X1331026Y1266065D1*
X1337157Y1264336D1*
X1343133Y1262131D1*
X1348918Y1259464D1*
X1354476Y1256352D1*
X1359773Y1252813D1*
X1364775Y1248869D1*
X1369453Y1244545D1*
X1373777Y1239867D1*
X1377721Y1234865D1*
X1381260Y1229568D1*
X1384372Y1224010D1*
X1387039Y1218225D1*
X1389244Y1212249D1*
X1390973Y1206118D1*
X1392216Y1199870D1*
X1392965Y1193544D1*
X1393215Y1187179D1*
X1392965Y1180814D1*
X1252581Y2363205D2*
X1251854Y2354052D1*
X1250097Y2345040D1*
X1247333Y2336285D1*
X1243598Y2327897D1*
X1238939Y2319986D1*
X1233416Y2312651D1*
X1227100Y2305988D1*
X1220071Y2300081D1*
X1212420Y2295006D1*
X1204244Y2290828D1*
X1195649Y2287600D1*
X1186744Y2285364D1*
X1177643Y2284149D1*
X1168463Y2283970D1*
X1159322Y2284830D1*
X1150336Y2286716D1*
X1141622Y2289606D1*
X1133289Y2293462D1*
X1125446Y2298235D1*
X1118192Y2303864D1*
X1111621Y2310276D1*
X1105816Y2317390D1*
X1100852Y2325114D1*
X1096793Y2333349D1*
X1093690Y2341990D1*
X1091584Y2350927D1*
X1090500Y2360044D1*
X1090454Y2369226D1*
X1091446Y2378353D1*
X1093462Y2387311D1*
X1096478Y2395983D1*
X1100454Y2404258D1*
X1105340Y2412032D1*
X1111073Y2419203D1*
X1117580Y2425681D1*
X1124777Y2431382D1*
X1132572Y2436234D1*
X1140865Y2440174D1*
X1149550Y2443151D1*
X1158516Y2445128D1*
X1167648Y2446079D1*
X1176829Y2445993D1*
X1185942Y2444869D1*
X1194869Y2442723D1*
X1203496Y2439582D1*
X1211714Y2435487D1*
X1219416Y2430489D1*
X1226504Y2424652D1*
X1232887Y2418053D1*
X1238483Y2410774D1*
X1243221Y2402910D1*
X1247041Y2394560D1*
X1249892Y2385833D1*
X1251739Y2376839D1*
X1252558Y2367694D1*
X1252581Y2363205D1*
X1225524Y1013994D2*
X1224797Y1004841D1*
X1223041Y995829D1*
X1220277Y987073D1*
X1216542Y978686D1*
X1211883Y970774D1*
X1206360Y963440D1*
X1200044Y956776D1*
X1193015Y950869D1*
X1185363Y945794D1*
X1177188Y941616D1*
X1168592Y938389D1*
X1159687Y936153D1*
X1150586Y934938D1*
X1141407Y934759D1*
X1132266Y935618D1*
X1123280Y937505D1*
X1114565Y940395D1*
X1106233Y944251D1*
X1098390Y949024D1*
X1091136Y954653D1*
X1084564Y961065D1*
X1078760Y968178D1*
X1073796Y975902D1*
X1069736Y984138D1*
X1066634Y992779D1*
X1064527Y1001716D1*
X1063444Y1010833D1*
X1063398Y1020014D1*
X1064389Y1029142D1*
X1066406Y1038099D1*
X1069422Y1046771D1*
X1073398Y1055047D1*
X1078284Y1062820D1*
X1084017Y1069992D1*
X1090523Y1076470D1*
X1097720Y1082171D1*
X1105515Y1087023D1*
X1113808Y1090962D1*
X1122494Y1093940D1*
X1131460Y1095917D1*
X1140592Y1096868D1*
X1149773Y1096781D1*
X1158885Y1095658D1*
X1167812Y1093512D1*
X1176440Y1090371D1*
X1184657Y1086275D1*
X1192359Y1081277D1*
X1199447Y1075441D1*
X1205830Y1068842D1*
X1211427Y1061563D1*
X1216165Y1053699D1*
X1219984Y1045349D1*
X1222836Y1036622D1*
X1224683Y1027628D1*
X1225502Y1018483D1*
X1225524Y1013994D1*
X2042013Y2715717D2*
X2040256Y2704620D1*
X2036784Y2693935D1*
X2031683Y2683924D1*
X2025079Y2674834D1*
X2017134Y2666890D1*
X2008045Y2660286D1*
X1998034Y2655185D1*
X1987349Y2651713D1*
X1976252Y2649955D1*
X1965016D1*
X1953919Y2651713D1*
X1943234Y2655185D1*
X1933223Y2660286D1*
X1924133Y2666890D1*
X1916189Y2674834D1*
X1909585Y2683924D1*
X1904484Y2693935D1*
X1901012Y2704620D1*
X1899255Y2715717D1*
Y2726952D1*
X1901012Y2738049D1*
X1904484Y2748735D1*
X1909585Y2758746D1*
X1915060Y2766404D1*
X1915048Y2925408D1*
X1911505Y2930635D1*
X1906404Y2940646D1*
X1902932Y2951331D1*
X1901175Y2962428D1*
Y2973664D1*
X1902932Y2984761D1*
X1906404Y2995446D1*
X1911505Y3005457D1*
X1918109Y3014546D1*
X1926053Y3022491D1*
X1935143Y3029095D1*
X1945154Y3034196D1*
X1955839Y3037668D1*
X1966936Y3039425D1*
X1978171D1*
X1989268Y3037668D1*
X1999954Y3034196D1*
X2009965Y3029095D1*
X2019054Y3022491D1*
X2026999Y3014546D1*
X2033603Y3005457D1*
X2038704Y2995446D1*
X2042175Y2984761D1*
X2043933Y2973664D1*
Y2962428D1*
X2042175Y2951331D1*
X2038704Y2940646D1*
X2033603Y2930635D1*
X2030058Y2925426D1*
X2030059Y2761245D1*
X2034430Y2753840D1*
X2038730Y2743460D1*
X2041352Y2732535D1*
X2042234Y2721335D1*
X2042013Y2715717D1*
X2049795Y1599151D2*
X2048038Y1588054D1*
X2044566Y1577369D1*
X2039465Y1567358D1*
X2032861Y1558269D1*
X2024916Y1550324D1*
X2015827Y1543720D1*
X2005816Y1538619D1*
X1995131Y1535147D1*
X1984034Y1533390D1*
X1972798D1*
X1961701Y1535147D1*
X1951016Y1538619D1*
X1941005Y1543720D1*
X1931916Y1550324D1*
X1923971Y1558269D1*
X1917367Y1567358D1*
X1912266Y1577369D1*
X1908794Y1588054D1*
X1907037Y1599151D1*
Y1610387D1*
X1908794Y1621484D1*
X1912266Y1632169D1*
X1917367Y1642180D1*
X1922489Y1649390D1*
X1922496Y1722649D1*
X1918952Y1727870D1*
X1913852Y1737881D1*
X1910380Y1748566D1*
X1908622Y1759663D1*
Y1770899D1*
X1910380Y1781996D1*
X1913852Y1792681D1*
X1918952Y1802692D1*
X1925556Y1811781D1*
X1933501Y1819726D1*
X1942590Y1826330D1*
X1952601Y1831431D1*
X1963287Y1834903D1*
X1974384Y1836660D1*
X1985619D1*
X1996716Y1834903D1*
X2007401Y1831431D1*
X2017412Y1826330D1*
X2026502Y1819726D1*
X2034446Y1811781D1*
X2041050Y1802692D1*
X2046151Y1792681D1*
X2049623Y1781996D1*
X2051381Y1770899D1*
Y1759663D1*
X2049623Y1748566D1*
X2046151Y1737881D1*
X2041050Y1727870D1*
X2037505Y1722661D1*
X2037507Y1645176D1*
X2042212Y1637275D1*
X2046512Y1626895D1*
X2049134Y1615970D1*
X2050016Y1604769D1*
X2049795Y1599151D1*
X1099308Y1612374D2*
D18*
Y1529314D1*
X1016248Y1612374D2*
X1182369D1*
X1757457Y2308849D2*
Y2225789D1*
Y2308849D2*
X1840517D1*
X1100052Y1273668D2*
Y1190608D1*
X1016992Y1273668D2*
X1183112D1*
X523056Y1302283D2*
Y1220719D1*
X623056Y1302283D2*
Y1220719D1*
Y1302283D2*
X704621D1*
X623056Y1502283D2*
X704621D1*
X459659Y3007039D2*
Y2766116D1*
Y2886577D2*
X542719D1*
X519448Y2383307D2*
Y2302215D1*
Y2383307D2*
X600539D1*
X1171474Y2446134D2*
Y2283950D1*
X1090382Y2365042D2*
X1252565D1*
X1144417Y1096922D2*
Y934739D1*
X1063326Y1015831D2*
X1225509D1*
X870316Y1978180D2*
Y1897088D1*
X789225D2*
X951408D1*
X1548139Y3056668D2*
Y2975576D1*
Y3056668D2*
X1629231D1*
D20*
X1099308Y1612374D3*
D21*
Y1712374D3*
D20*
X2281464Y2950752D3*
D21*
X2181464D3*
D20*
X1243306Y3042506D3*
D21*
Y2942506D3*
D20*
X2483709Y2775435D3*
D21*
X2383709D3*
D20*
X2297475Y2060412D3*
D21*
X2197475D3*
D20*
X862273Y2365414D3*
D21*
X962273D3*
D20*
X2300987Y1812166D3*
D21*
X2200987D3*
D20*
X2874978Y793615D3*
D21*
Y893615D3*
D20*
X1757457Y2308849D3*
D21*
Y2408849D3*
D20*
X1100052Y1273668D3*
D21*
Y1373668D3*
D23*
X523056Y1902283D3*
Y1802283D3*
Y1702283D3*
Y1602283D3*
Y1502283D3*
Y1402283D3*
Y1302283D3*
X623056D3*
Y1402283D3*
Y1502283D3*
Y1602283D3*
Y1702283D3*
Y1802283D3*
Y1902283D3*
Y2002283D3*
X523056D3*
D24*
X459659Y2886577D3*
D25*
X757135Y3080722D3*
X724652Y2994668D3*
X627278Y2702000D3*
D24*
X895293Y2736890D3*
D26*
X519448Y2383307D3*
D27*
Y2462047D3*
D29*
X4218808Y868297D3*
X4018808D3*
Y1068297D3*
X4218808D3*
X4118808Y968297D3*
D30*
X2682310Y2993533D3*
X2577241Y2454309D3*
D29*
X4044625Y3047474D3*
Y2847474D3*
D30*
X2667455Y2056429D3*
X2551921Y1803933D3*
X1401549Y3051044D3*
X733730Y2469925D3*
X920992Y1787427D3*
X1312087Y1187179D3*
X3738663Y2363902D3*
X4039437Y2314029D3*
X3788301Y731585D3*
X3401930Y1354836D3*
X3797499Y1255944D3*
X4205280Y1315639D3*
X1171474Y2365042D3*
X2921727Y2639668D3*
D29*
X3844625Y2847474D3*
D30*
X2657429Y1930161D3*
D29*
X3844625Y3047474D3*
D30*
X2598740Y862753D3*
X1144417Y1015831D3*
X870316Y1897088D3*
X1548139Y3056668D3*
X3618470Y659791D3*
X3629470Y2966828D3*
X3884797Y2290298D3*
D29*
X3944625Y2947474D3*
D34*
X3387545Y875293D3*
D35*
Y975293D3*
Y1075293D3*
X3787545D3*
Y875293D3*
M02*
