G04 DipTrace 4.2.0.1*
G04 2 - Bottom.gbr*
%MOIN*%
G04 #@! TF.FileFunction,Copper,L2,Bot*
G04 #@! TF.Part,Single*
G04 #@! TA.AperFunction,Conductor*
%ADD15C,0.02*%
%ADD16C,0.01*%
G04 #@! TA.AperFunction,CopperBalancing*
%ADD17C,0.05*%
G04 #@! TA.AperFunction,ViaPad*
%ADD18C,0.04*%
G04 #@! TA.AperFunction,CopperBalancing*
%ADD19C,0.013*%
G04 #@! TA.AperFunction,ComponentPad*
%ADD20R,0.059055X0.059055*%
%ADD21C,0.059055*%
%ADD22C,0.065*%
%ADD24C,0.079134*%
%ADD25R,0.079134X0.079134*%
%ADD26C,0.082677*%
%ADD30C,0.075*%
%ADD31R,0.066929X0.066929*%
%ADD32C,0.066929*%
%FSLAX26Y26*%
G04*
G70*
G90*
G75*
G01*
G04 Bottom*
%LPD*%
X2301204Y1477196D2*
D16*
X2828620D1*
Y1205779D1*
Y1168322D1*
X2532372Y1124504D2*
X2782966D1*
Y1205779D1*
X2828620D1*
X3373564Y728301D2*
X3463451D1*
Y1131735D1*
X3054394D1*
X3029775D1*
Y1168322D1*
X2828620D1*
X3054394D1*
Y1131735D1*
X3065032Y1117633D2*
X3029775D1*
Y1131735D1*
X1785441Y652561D2*
D18*
X1770640D1*
X1693700Y729501D1*
Y734842D1*
X1563985D1*
Y719581D1*
X2150008Y762728D2*
X2161665D1*
Y893854D1*
X1797426D1*
Y803523D1*
X1770640D1*
Y652561D1*
X957451Y608600D2*
D15*
Y602347D1*
X1058759Y501039D1*
X1366745D1*
X1457451Y591745D1*
Y608600D1*
Y597710D1*
X1554123Y501039D1*
X3073275D1*
Y519389D1*
X1107451Y808600D2*
X1270927Y972077D1*
X2528485D1*
X2694196Y806365D1*
X2697804D1*
X2332372Y1124504D2*
X2341998D1*
Y1101302D1*
X2391535Y1051766D1*
X2607163D1*
X2822793Y836137D1*
Y777859D1*
X2630133Y585200D1*
X1997100D1*
D18*
X1785441Y652561D3*
X2301204Y1477196D3*
X2286634Y1386865D3*
X2828620Y1168322D3*
X1042396Y1206204D3*
X2560541Y445674D3*
X3446368Y474813D3*
X3478422Y1025541D3*
X2907296Y871104D3*
X2895640Y702098D3*
X2414846Y1337329D3*
X1563985Y719581D3*
X462528Y1200376D3*
X453787Y445674D3*
X2150008Y762728D3*
X2253695Y1468831D2*
D17*
X2842943D1*
X3155070D2*
X3518696D1*
X2253695Y1418962D2*
X2843894D1*
X3154119D2*
X3518696D1*
X2253695Y1369094D2*
X2883851D1*
X2982431D2*
X3015582D1*
X3114144D2*
X3518696D1*
X2253695Y1319225D2*
X3518696D1*
X2253695Y1269356D2*
X3518696D1*
X2253695Y1219487D2*
X3518696D1*
X425360Y1169619D2*
X2256165D1*
X2621670D2*
X3518696D1*
X425252Y1119750D2*
X2243210D1*
X2621670D2*
X3518696D1*
X425145Y1069881D2*
X2263162D1*
X2680070D2*
X3518696D1*
X425037Y1020012D2*
X1228477D1*
X2729949D2*
X2846137D1*
X3214405D2*
X3518696D1*
X424930Y970144D2*
X1177970D1*
X2779810D2*
X2846137D1*
X3224200D2*
X3518696D1*
X749860Y920275D2*
X1128091D1*
X2829690D2*
X2846137D1*
X3200338D2*
X3518696D1*
X749860Y870406D2*
X846562D1*
X1568343D2*
X1598300D1*
X1789103D2*
X1826721D1*
X1954385D2*
X2539129D1*
X2878062D2*
X3295532D1*
X3451599D2*
X3518696D1*
X749860Y820537D2*
X819972D1*
X1983989D2*
X2588990D1*
X2888629D2*
X3284624D1*
X3462507D2*
X3518696D1*
X749860Y770669D2*
X828243D1*
X1980436D2*
X2612010D1*
X2888199D2*
X3284264D1*
X3462867D2*
X3518696D1*
X424409Y720800D2*
X446220D1*
X732780D2*
X1554772D1*
X1971035D2*
X2670860D1*
X2856764D2*
X3284264D1*
X3462867D2*
X3518696D1*
X424301Y670931D2*
X797132D1*
X1987667D2*
X2624839D1*
X2806903D2*
X3284264D1*
X3462867D2*
X3518696D1*
X424193Y621062D2*
X770057D1*
X1786842D2*
X1806176D1*
X2757024D2*
X3518696D1*
X424086Y571193D2*
X777987D1*
X1784043D2*
X1909955D1*
X2707163D2*
X2996725D1*
X3149831D2*
X3518696D1*
X423978Y521325D2*
X947451D1*
X3166588D2*
X3518696D1*
X423871Y471456D2*
X997312D1*
X1428197D2*
X1492675D1*
X3152468D2*
X3518696D1*
X423763Y421587D2*
X3518696D1*
X587208Y950692D2*
X744868D1*
Y789970D1*
X742431D1*
X742781Y788527D1*
X744344Y779486D1*
X744868Y770331D1*
X744343Y761165D1*
X742779Y752124D1*
X740192Y743321D1*
X736620Y734869D1*
X732108Y726880D1*
X726714Y719457D1*
X720510Y712697D1*
X713574Y706690D1*
X706001Y701511D1*
X697885Y697230D1*
X689334Y693902D1*
X680460Y691570D1*
X671378Y690264D1*
X662207Y690003D1*
X653065Y690789D1*
X644073Y692612D1*
X635346Y695448D1*
X627001Y699260D1*
X619144Y703999D1*
X611877Y709603D1*
X605298Y715998D1*
X599490Y723102D1*
X594531Y730821D1*
X590482Y739054D1*
X589565Y741629D1*
X586620Y734869D1*
X582108Y726880D1*
X576714Y719457D1*
X570510Y712697D1*
X563574Y706690D1*
X556001Y701511D1*
X547885Y697230D1*
X539334Y693902D1*
X530460Y691570D1*
X521378Y690264D1*
X512207Y690003D1*
X503065Y690789D1*
X494073Y692612D1*
X485346Y695448D1*
X477001Y699260D1*
X469144Y703999D1*
X461877Y709603D1*
X455298Y715998D1*
X449490Y723102D1*
X444531Y730821D1*
X440482Y739054D1*
X437399Y747696D1*
X435322Y756634D1*
X434277Y765750D1*
Y774924D1*
X435325Y784040D1*
X436703Y789966D1*
X434146Y789970D1*
Y950692D1*
X587208D1*
X2865788Y879174D2*
X2650179Y1094781D1*
X2644651Y1099675D1*
X2637018Y1104770D1*
X2628704Y1108658D1*
X2619901Y1111251D1*
X2616670Y1111852D1*
Y1208802D1*
X2448074D1*
Y1207239D1*
X2446064Y1207683D1*
X2436990Y1208676D1*
X2427863Y1208682D1*
X2418788Y1207700D1*
X2409872Y1205745D1*
X2401221Y1202835D1*
X2392934Y1199008D1*
X2385109Y1194308D1*
X2382270Y1192308D1*
X2379724Y1194246D1*
X2371906Y1198957D1*
X2363624Y1202794D1*
X2354977Y1205716D1*
X2346064Y1207683D1*
X2336990Y1208676D1*
X2327863Y1208682D1*
X2318788Y1207700D1*
X2309872Y1205745D1*
X2301221Y1202835D1*
X2292934Y1199008D1*
X2285109Y1194308D1*
X2277840Y1188788D1*
X2271209Y1182515D1*
X2265296Y1175562D1*
X2260169Y1168011D1*
X2255888Y1159949D1*
X2252504Y1151473D1*
X2250057Y1142679D1*
X2248574Y1133672D1*
X2248074Y1124558D1*
X2248562Y1115444D1*
X2250033Y1106436D1*
X2252469Y1097640D1*
X2255843Y1089158D1*
X2260112Y1081091D1*
X2265230Y1073533D1*
X2271134Y1066573D1*
X2277758Y1060291D1*
X2285020Y1054763D1*
X2292838Y1050052D1*
X2301120Y1046214D1*
X2309767Y1043293D1*
X2315322Y1041947D1*
X2324351Y1032910D1*
X1280040D1*
X1269081Y1032882D1*
X1259955Y1031913D1*
X1251078Y1029581D1*
X1242653Y1025940D1*
X1234872Y1021074D1*
X1227911Y1015092D1*
X1104575Y891759D1*
X1100570Y891649D1*
X1091476Y890388D1*
X1082575Y888134D1*
X1073977Y884915D1*
X1065784Y880770D1*
X1058098Y875747D1*
X1057343Y875193D1*
X1053029Y878364D1*
X1045079Y882955D1*
X1036671Y886642D1*
X1027909Y889384D1*
X1018897Y891144D1*
X1009747Y891902D1*
X1000570Y891649D1*
X991476Y890388D1*
X982575Y888134D1*
X973977Y884915D1*
X965784Y880770D1*
X958098Y875747D1*
X957343Y875193D1*
X953029Y878364D1*
X945079Y882955D1*
X936671Y886642D1*
X927909Y889384D1*
X918897Y891144D1*
X909747Y891902D1*
X900570Y891649D1*
X891476Y890388D1*
X882575Y888134D1*
X873977Y884915D1*
X865784Y880770D1*
X858098Y875747D1*
X851011Y869911D1*
X844608Y863330D1*
X838969Y856085D1*
X834162Y848263D1*
X830243Y839960D1*
X827262Y831276D1*
X825254Y822317D1*
X824243Y813191D1*
Y804010D1*
X825254Y794885D1*
X827262Y785926D1*
X830243Y777242D1*
X834161Y768939D1*
X838969Y761116D1*
X844608Y753871D1*
X851010Y747291D1*
X858098Y741453D1*
X865784Y736432D1*
X873976Y732287D1*
X882574Y729066D1*
X891474Y726813D1*
X900569Y725552D1*
X909746Y725298D1*
X918897Y726057D1*
X927907Y727817D1*
X936670Y730557D1*
X945078Y734246D1*
X953029Y738836D1*
X957481Y741961D1*
X958098Y741453D1*
X965784Y736432D1*
X973976Y732287D1*
X982574Y729066D1*
X991474Y726813D1*
X1000569Y725552D1*
X1009746Y725298D1*
X1018897Y726057D1*
X1027907Y727817D1*
X1036670Y730557D1*
X1045078Y734246D1*
X1053029Y738836D1*
X1057481Y741961D1*
X1058098Y741453D1*
X1065784Y736432D1*
X1073976Y732287D1*
X1082574Y729066D1*
X1091474Y726813D1*
X1100569Y725552D1*
X1109746Y725298D1*
X1118897Y726057D1*
X1127907Y727817D1*
X1136670Y730557D1*
X1145078Y734246D1*
X1153029Y738836D1*
X1157459Y741941D1*
X1158098Y741453D1*
X1160598Y739686D1*
X1163161Y738011D1*
X1165784Y736431D1*
X1168464Y734949D1*
X1171195Y733567D1*
X1173976Y732285D1*
X1176802Y731108D1*
X1179670Y730035D1*
X1182574Y729066D1*
X1185512Y728207D1*
X1188481Y727455D1*
X1191474Y726813D1*
X1194490Y726281D1*
X1197523Y725860D1*
X1200569Y725552D1*
X1203624Y725355D1*
X1206686Y725271D1*
X1209747Y725298D1*
X1212805Y725439D1*
X1215856Y725692D1*
X1218897Y726057D1*
X1221922Y726533D1*
X1224926Y727120D1*
X1227907Y727817D1*
X1230861Y728623D1*
X1233784Y729537D1*
X1236670Y730557D1*
X1239518Y731684D1*
X1242322Y732914D1*
X1245078Y734246D1*
X1247784Y735678D1*
X1250436Y737209D1*
X1253029Y738836D1*
X1255562Y740558D1*
X1257481Y741961D1*
X1258098Y741453D1*
X1265784Y736432D1*
X1273976Y732287D1*
X1282574Y729066D1*
X1291474Y726813D1*
X1300569Y725552D1*
X1309746Y725298D1*
X1318897Y726057D1*
X1327907Y727817D1*
X1336670Y730557D1*
X1345078Y734246D1*
X1353029Y738836D1*
X1357481Y741961D1*
X1358098Y741453D1*
X1365784Y736432D1*
X1373976Y732287D1*
X1382574Y729066D1*
X1391474Y726813D1*
X1400569Y725552D1*
X1409746Y725298D1*
X1418897Y726057D1*
X1427907Y727817D1*
X1436670Y730557D1*
X1445078Y734246D1*
X1453029Y738836D1*
X1457481Y741961D1*
X1458098Y741453D1*
X1465784Y736432D1*
X1473976Y732287D1*
X1482574Y729066D1*
X1491474Y726813D1*
X1500569Y725552D1*
X1509746Y725298D1*
X1518897Y726057D1*
X1527907Y727817D1*
X1536670Y730557D1*
X1545078Y734246D1*
X1553029Y738836D1*
X1559775Y743741D1*
X1559773Y691899D1*
X1550570Y691649D1*
X1541476Y690388D1*
X1532575Y688134D1*
X1523977Y684915D1*
X1515784Y680770D1*
X1508098Y675747D1*
X1507346Y675192D1*
X1503032Y678363D1*
X1495081Y682953D1*
X1486674Y686642D1*
X1477910Y689382D1*
X1468899Y691144D1*
X1459750Y691902D1*
X1450571Y691649D1*
X1441478Y690389D1*
X1432577Y688134D1*
X1423978Y684915D1*
X1415787Y680771D1*
X1408100Y675749D1*
X1407343Y675193D1*
X1403029Y678364D1*
X1395079Y682955D1*
X1386671Y686642D1*
X1377909Y689384D1*
X1368897Y691144D1*
X1359747Y691902D1*
X1350570Y691649D1*
X1341476Y690388D1*
X1332575Y688134D1*
X1323977Y684915D1*
X1315784Y680770D1*
X1308098Y675747D1*
X1307444Y675259D1*
X1305562Y676642D1*
X1303029Y678364D1*
X1300436Y679991D1*
X1297784Y681523D1*
X1295078Y682955D1*
X1292322Y684287D1*
X1289518Y685516D1*
X1286671Y686642D1*
X1283784Y687663D1*
X1280861Y688578D1*
X1277907Y689384D1*
X1274927Y690081D1*
X1271922Y690667D1*
X1268897Y691144D1*
X1265857Y691508D1*
X1262805Y691762D1*
X1259747Y691902D1*
X1256686Y691930D1*
X1253625Y691846D1*
X1250569Y691649D1*
X1247523Y691340D1*
X1244490Y690919D1*
X1241474Y690388D1*
X1238481Y689746D1*
X1235514Y688994D1*
X1232574Y688134D1*
X1229670Y687166D1*
X1226802Y686092D1*
X1223976Y684915D1*
X1221195Y683633D1*
X1218464Y682251D1*
X1215784Y680770D1*
X1213161Y679190D1*
X1210598Y677515D1*
X1207343Y675193D1*
X1203029Y678364D1*
X1195079Y682955D1*
X1186671Y686642D1*
X1177909Y689384D1*
X1168897Y691144D1*
X1159747Y691902D1*
X1150570Y691649D1*
X1141476Y690388D1*
X1132575Y688134D1*
X1123977Y684915D1*
X1115784Y680770D1*
X1108098Y675747D1*
X1107343Y675193D1*
X1103029Y678364D1*
X1095079Y682955D1*
X1086671Y686642D1*
X1077909Y689384D1*
X1068897Y691144D1*
X1059747Y691902D1*
X1050570Y691649D1*
X1041476Y690388D1*
X1032575Y688134D1*
X1023977Y684915D1*
X1015784Y680770D1*
X1008098Y675747D1*
X1007343Y675193D1*
X1003029Y678364D1*
X995079Y682955D1*
X986671Y686642D1*
X977909Y689384D1*
X968897Y691144D1*
X959747Y691902D1*
X950570Y691649D1*
X941476Y690388D1*
X932575Y688134D1*
X923977Y684915D1*
X915784Y680770D1*
X908098Y675747D1*
X907343Y675193D1*
X903029Y678364D1*
X895079Y682955D1*
X886671Y686642D1*
X877909Y689384D1*
X868897Y691144D1*
X859747Y691902D1*
X850570Y691649D1*
X841476Y690388D1*
X832575Y688134D1*
X823977Y684915D1*
X815784Y680770D1*
X808098Y675747D1*
X801011Y669911D1*
X794608Y663330D1*
X788969Y656085D1*
X784162Y648263D1*
X780243Y639960D1*
X777262Y631276D1*
X775254Y622317D1*
X774243Y613191D1*
Y604010D1*
X775254Y594885D1*
X777262Y585926D1*
X780243Y577242D1*
X784161Y568939D1*
X788969Y561116D1*
X794608Y553871D1*
X801010Y547291D1*
X808098Y541453D1*
X815784Y536432D1*
X823976Y532287D1*
X832574Y529066D1*
X841474Y526813D1*
X850569Y525552D1*
X859746Y525298D1*
X868897Y526057D1*
X877907Y527817D1*
X886670Y530557D1*
X895078Y534246D1*
X903029Y538836D1*
X907343Y542006D1*
X907481Y541961D1*
X908098Y541453D1*
X915784Y536432D1*
X923976Y532287D1*
X932574Y529066D1*
X941474Y526813D1*
X947842Y525930D1*
X1009411Y464355D1*
X1017069Y456737D1*
X1024208Y450969D1*
X1032133Y446342D1*
X1040665Y442959D1*
X1049608Y440897D1*
X1058759Y440205D1*
X1357687D1*
X1368591Y440233D1*
X1377717Y441203D1*
X1386594Y443535D1*
X1395019Y447175D1*
X1402800Y452041D1*
X1409760Y458023D1*
X1460439Y508691D1*
X1505065Y464065D1*
X1512432Y456737D1*
X1519571Y450969D1*
X1527497Y446342D1*
X1536028Y442959D1*
X1544972Y440897D1*
X1554123Y440205D1*
X3034386Y440201D1*
X3037405Y438666D1*
X3046039Y435359D1*
X3054972Y432973D1*
X3064106Y431533D1*
X3073339Y431056D1*
X3082571Y431546D1*
X3091703Y432999D1*
X3100632Y435398D1*
X3109262Y438718D1*
X3117497Y442922D1*
X3125247Y447964D1*
X3132428Y453788D1*
X3138962Y460330D1*
X3144776Y467520D1*
X3149805Y475277D1*
X3153998Y483519D1*
X3157305Y492153D1*
X3159691Y501086D1*
X3161130Y510220D1*
X3161608Y519453D1*
X3161117Y528686D1*
X3159665Y537817D1*
X3157266Y546746D1*
X3153945Y555376D1*
X3149742Y563611D1*
X3144700Y571361D1*
X3138876Y578543D1*
X3132334Y585077D1*
X3125144Y590890D1*
X3117386Y595919D1*
X3109145Y600112D1*
X3100511Y603419D1*
X3091578Y605805D1*
X3082444Y607245D1*
X3073210Y607722D1*
X3063978Y607231D1*
X3054847Y605779D1*
X3045918Y603380D1*
X3037288Y600060D1*
X3029053Y595856D1*
X3021302Y590814D1*
X3014121Y584990D1*
X3007587Y578448D1*
X3001773Y571258D1*
X2996745Y563501D1*
X2995913Y561867D1*
X2867735Y561872D1*
X2692838Y561873D1*
X2865809Y734843D1*
X2870703Y740371D1*
X2875797Y748004D1*
X2879684Y756317D1*
X2882277Y765121D1*
X2883518Y774224D1*
X2883627Y777888D1*
Y836137D1*
X2883179Y843506D1*
X2881382Y852506D1*
X2878254Y861133D1*
X2873863Y869192D1*
X2868302Y876504D1*
X2865788Y879174D1*
X1595314Y837993D2*
X1586842Y834451D1*
X1586642Y834338D1*
X1586268Y835658D1*
X1582814Y844165D1*
X1578444Y852239D1*
X1573213Y859784D1*
X1567183Y866708D1*
X1560428Y872927D1*
X1553029Y878364D1*
X1545079Y882955D1*
X1536671Y886642D1*
X1527909Y889384D1*
X1518897Y891144D1*
X1509747Y891902D1*
X1500570Y891649D1*
X1491476Y890388D1*
X1482575Y888134D1*
X1473977Y884915D1*
X1465784Y880770D1*
X1458098Y875747D1*
X1457343Y875193D1*
X1453029Y878364D1*
X1445079Y882955D1*
X1436671Y886642D1*
X1427909Y889384D1*
X1418897Y891144D1*
X1409747Y891902D1*
X1400570Y891649D1*
X1391476Y890388D1*
X1382575Y888134D1*
X1373977Y884915D1*
X1365784Y880770D1*
X1358098Y875747D1*
X1357384Y875222D1*
X1356064Y876285D1*
X1348323Y881222D1*
X1340086Y885277D1*
X1331453Y888402D1*
X1322528Y890558D1*
X1313420Y891720D1*
X1304241Y891872D1*
X1295099Y891014D1*
X1286108Y889154D1*
X1284338Y888665D1*
X1282578Y888136D1*
X1280831Y887567D1*
X1279096Y886961D1*
X1277376Y886317D1*
X1275670Y885636D1*
X1273980Y884917D1*
X1272305Y884159D1*
X1270648Y883367D1*
X1269008Y882537D1*
X1267388Y881671D1*
X1265465Y880583D1*
X1296125Y911243D1*
X1603300Y911242D1*
Y839814D1*
X1595314Y837993D1*
X1980485Y792600D2*
X1979095Y783549D1*
X1976797Y774684D1*
X1973615Y766098D1*
X1969579Y757877D1*
X1964733Y750108D1*
X1959127Y742868D1*
X1952815Y736233D1*
X1952619Y736064D1*
X1954903Y733899D1*
X1961154Y727165D1*
X1966703Y719840D1*
X1971495Y711999D1*
X1975482Y703721D1*
X1978625Y695087D1*
X1980893Y686182D1*
X1982264Y677096D1*
X1982722Y667913D1*
X1982691Y667276D1*
X1990220Y668249D1*
X1999397Y668502D1*
X2008546Y667743D1*
X2017558Y665983D1*
X2026321Y663242D1*
X2034729Y659554D1*
X2042679Y654964D1*
X2050078Y649527D1*
X2053871Y646035D1*
X2604934Y646033D1*
X2678968Y720065D1*
X2670567Y722335D1*
X2661934Y725642D1*
X2653692Y729835D1*
X2645935Y734864D1*
X2638745Y740678D1*
X2632203Y747212D1*
X2626378Y754393D1*
X2621336Y762144D1*
X2617133Y770378D1*
X2613813Y779008D1*
X2611414Y787938D1*
X2609961Y797069D1*
X2609540Y804994D1*
X2503291Y911241D1*
X1784096Y911243D1*
X1784100Y837713D1*
X1785940Y837062D1*
X1794193Y833056D1*
X1801598Y827625D1*
X1804304Y828857D1*
X1807486Y837444D1*
X1811522Y845665D1*
X1816368Y853434D1*
X1821974Y860674D1*
X1828285Y867309D1*
X1835235Y873272D1*
X1842754Y878502D1*
X1850762Y882944D1*
X1859178Y886553D1*
X1867915Y889292D1*
X1876886Y891133D1*
X1885997Y892057D1*
X1895154Y892054D1*
X1904264Y891125D1*
X1913234Y889279D1*
X1921970Y886535D1*
X1930385Y882922D1*
X1938390Y878476D1*
X1945905Y873242D1*
X1952851Y867275D1*
X1959158Y860636D1*
X1964762Y853393D1*
X1969604Y845620D1*
X1973634Y837398D1*
X1976813Y828809D1*
X1979106Y819944D1*
X1980490Y810892D1*
X1980951Y801771D1*
X1980485Y792600D1*
X1777773Y633935D2*
X1779962Y628022D1*
X1782255Y619157D1*
X1783640Y610104D1*
X1784100Y600983D1*
X1783634Y591813D1*
X1782245Y582762D1*
X1779947Y573897D1*
X1776764Y565310D1*
X1775074Y561867D1*
X1917102Y561872D1*
X1916911Y562525D1*
X1914903Y571485D1*
X1914094Y578801D1*
X1914007Y578842D1*
X1906562Y577142D1*
X1897444Y575999D1*
X1888259Y575770D1*
X1879095Y576455D1*
X1870046Y578050D1*
X1861201Y580539D1*
X1852648Y583894D1*
X1844470Y588086D1*
X1836751Y593071D1*
X1829566Y598800D1*
X1822987Y605216D1*
X1817081Y612254D1*
X1811905Y619846D1*
X1807510Y627915D1*
X1803939Y636382D1*
X1802085Y642393D1*
X1801469Y641981D1*
X1793356Y637699D1*
X1784596Y634944D1*
X1777773Y633935D1*
X2860325Y1063892D2*
X3019734D1*
Y1062411D1*
X3021852Y1062789D1*
X3030927Y1063771D1*
X3040054Y1063766D1*
X3049128Y1062772D1*
X3058041Y1060805D1*
X3066688Y1057884D1*
X3074970Y1054046D1*
X3082788Y1049335D1*
X3085334Y1047397D1*
X3088174Y1049397D1*
X3095998Y1054098D1*
X3104285Y1057924D1*
X3112936Y1060834D1*
X3121852Y1062789D1*
X3130927Y1063771D1*
X3140054Y1063766D1*
X3149128Y1062772D1*
X3158041Y1060805D1*
X3166688Y1057884D1*
X3174970Y1054046D1*
X3182788Y1049335D1*
X3190050Y1043808D1*
X3196674Y1037525D1*
X3202578Y1030565D1*
X3207696Y1023007D1*
X3211965Y1014940D1*
X3215339Y1006459D1*
X3217775Y997662D1*
X3219246Y988654D1*
X3219734Y979594D1*
X3219234Y970426D1*
X3217751Y961419D1*
X3215304Y952625D1*
X3211920Y944149D1*
X3207640Y936087D1*
X3202512Y928536D1*
X3196599Y921583D1*
X3189968Y915310D1*
X3182699Y909791D1*
X3174875Y905090D1*
X3166587Y901263D1*
X3157936Y898354D1*
X3149020Y896398D1*
X3139945Y895417D1*
X3130818Y895422D1*
X3121745Y896415D1*
X3112831Y898382D1*
X3104184Y901304D1*
X3095902Y905141D1*
X3088085Y909852D1*
X3085539Y911791D1*
X3082699Y909791D1*
X3074875Y905090D1*
X3066587Y901263D1*
X3057936Y898354D1*
X3049020Y896398D1*
X3039945Y895417D1*
X3030818Y895422D1*
X3021745Y896415D1*
X3019734Y896859D1*
Y895296D1*
X2851138D1*
Y1063892D1*
X2860325D1*
X3456388Y812599D2*
X3457861D1*
Y644003D1*
X3289266D1*
Y812599D1*
X3290739D1*
X3289754Y819241D1*
X3289266Y828355D1*
X3289766Y837469D1*
X3291249Y846476D1*
X3293696Y855270D1*
X3297079Y863746D1*
X3301360Y871808D1*
X3306487Y879359D1*
X3312401Y886312D1*
X3319032Y892585D1*
X3326301Y898104D1*
X3334125Y902805D1*
X3342413Y906632D1*
X3351064Y909541D1*
X3359980Y911497D1*
X3369054Y912478D1*
X3378182Y912473D1*
X3387255Y911480D1*
X3396169Y909512D1*
X3404815Y906591D1*
X3413098Y902754D1*
X3420915Y898043D1*
X3428178Y892515D1*
X3434801Y886233D1*
X3440705Y879272D1*
X3445823Y871714D1*
X3450092Y863648D1*
X3453466Y855166D1*
X3455902Y846369D1*
X3457373Y837361D1*
X3457861Y828301D1*
X3457361Y819133D1*
X3456285Y812598D1*
X2248700Y1243718D2*
Y1518700D1*
X2883854Y1518697D1*
X2881167Y1516949D1*
X2873986Y1511125D1*
X2867452Y1504583D1*
X2861638Y1497393D1*
X2856609Y1489636D1*
X2852417Y1481394D1*
X2849109Y1472760D1*
X2846724Y1463827D1*
X2845284Y1454693D1*
X2844806Y1445460D1*
X2845297Y1436228D1*
X2846750Y1427096D1*
X2849149Y1418167D1*
X2852469Y1409537D1*
X2856672Y1401302D1*
X2861714Y1393552D1*
X2867539Y1386371D1*
X2874081Y1379836D1*
X2881271Y1374023D1*
X2889028Y1368994D1*
X2897270Y1364801D1*
X2905903Y1361494D1*
X2914836Y1359108D1*
X2923970Y1357669D1*
X2933204Y1357191D1*
X2942436Y1357682D1*
X2951567Y1359134D1*
X2960497Y1361533D1*
X2969127Y1364854D1*
X2977361Y1369057D1*
X2985112Y1374099D1*
X2992293Y1379923D1*
X2998827Y1386465D1*
X2999019Y1386671D1*
X2999264Y1386371D1*
X3005806Y1379836D1*
X3012997Y1374023D1*
X3020754Y1368994D1*
X3028995Y1364801D1*
X3037629Y1361494D1*
X3046562Y1359108D1*
X3055696Y1357669D1*
X3064930Y1357191D1*
X3074162Y1357682D1*
X3083293Y1359134D1*
X3092222Y1361533D1*
X3100852Y1364854D1*
X3109087Y1369057D1*
X3116838Y1374099D1*
X3124019Y1379923D1*
X3130553Y1386465D1*
X3136367Y1393655D1*
X3141396Y1401413D1*
X3145588Y1409654D1*
X3148896Y1418288D1*
X3151281Y1427221D1*
X3152721Y1436355D1*
X3153199Y1445588D1*
X3152708Y1454821D1*
X3151255Y1463952D1*
X3148856Y1472881D1*
X3145536Y1481511D1*
X3141333Y1489746D1*
X3136291Y1497497D1*
X3130466Y1504678D1*
X3123924Y1511212D1*
X3116734Y1517025D1*
X3114151Y1518700D1*
X3523700Y1518709D1*
X3523692Y418700D1*
X418754Y418697D1*
X420459Y1213330D1*
X2223775Y1218700D1*
X2228788Y1219224D1*
X2237242Y1222684D1*
X2243886Y1228952D1*
X2247838Y1237197D1*
X2248700Y1243718D1*
X664507Y950657D2*
D19*
Y870331D1*
X744833D1*
X1207451Y808600D2*
Y725302D1*
X1257451Y691898D2*
Y608600D1*
X514507Y950657D2*
Y870331D1*
X434182D2*
X514507D1*
X2532372Y1124504D2*
Y1208767D1*
X2616634Y1124504D2*
X2532372D1*
X3289301Y728301D2*
X3457826D1*
X3373564Y644039D2*
Y728301D1*
D20*
X664507Y870331D3*
D21*
Y770331D3*
D22*
X857451Y608600D3*
X907451Y808600D3*
X957451Y608600D3*
X1007451Y808600D3*
X1057451Y608600D3*
X1107451Y808600D3*
X1157451Y608600D3*
X1207451Y808600D3*
X1257451Y608600D3*
X1307451Y808600D3*
X1357451Y608600D3*
X1407451Y808600D3*
X1457451Y608600D3*
X1507451Y808600D3*
X1557451Y608600D3*
D20*
X514507Y870331D3*
D21*
Y770331D3*
D24*
X1890550Y801771D3*
D25*
X1693700Y868700D3*
D26*
X1890550Y667913D3*
D24*
X1693700Y734842D3*
Y600983D3*
D30*
X3073275Y519389D3*
X2697804Y806365D3*
D31*
X2935436Y979594D3*
D32*
X3035436D3*
X3135436D3*
D31*
X2532372Y1124504D3*
D32*
X2432372D3*
X2332372D3*
D31*
X3373564Y728301D3*
D32*
Y828301D3*
D22*
X1997100Y585200D3*
D30*
X2933140Y1445524D3*
X3064865D3*
M02*
