M48
INCH
T01C0.0191
T02C0.0354
T03C0.0433
T04C0.0528
T05C0.0551
%
T01
X+017854Y+006526
X+015640Y+007196
X+021500Y+007627
X+025605Y+004457
X+028956Y+007021
X+029073Y+008711
X+028286Y+011683
X+024148Y+013373
X+022866Y+013869
X+023012Y+014772
X+034784Y+010255
X+034464Y+004748
X+010424Y+012062
X+004625Y+012004
X+004538Y+004457
T02
X+006645Y+008703
X+006645Y+007703
X+005145Y+007703
X+005145Y+008703
X+009075Y+008086
X+010075Y+008086
X+011075Y+008086
X+012075Y+008086
X+013075Y+008086
X+014075Y+008086
X+015075Y+008086
X+014575Y+006086
X+013575Y+006086
X+012575Y+006086
X+011575Y+006086
X+010575Y+006086
X+009575Y+006086
X+008575Y+006086
X+015575Y+006086
X+019971Y+005852
X+026978Y+008064
X+030733Y+005194
X+030649Y+014455
X+029331Y+014455
T03
X+029354Y+009796
X+030354Y+009796
X+031354Y+009796
X+033736Y+008283
X+033736Y+007283
X+025324Y+011245
X+024324Y+011245
X+023324Y+011245
T04
X+018906Y+008018
X+016937Y+008687
X+016937Y+007348
X+016937Y+006010
T05
X+018906Y+006679
T00
M30
