G04 DipTrace 4.2.0.1*
G04 TopAssembly.gbr*
%MOIN*%
G04 #@! TF.FileFunction,Drawing,Top*
G04 #@! TF.Part,Single*
%ADD13C,0.004724*%
%ADD23C,0.005*%
%ADD68C,0.006176*%
%ADD71C,0.003088*%
%FSLAX26Y26*%
G04*
G70*
G90*
G75*
G01*
G04 TopAssy*
%LPD*%
X2049999Y939566D2*
D23*
Y530117D1*
X1861023D1*
Y600983D1*
Y734842D1*
Y868700D1*
Y939566D1*
X2049999D1*
X1861023Y868700D2*
X1693700D1*
X1861023Y734842D2*
X1693700D1*
X1861023Y600983D2*
X1693700D1*
X2525590Y946456D2*
X2261810D1*
X2190944Y875590D1*
Y540944D1*
X2596456D1*
Y875590D1*
X2525590Y946456D1*
G36*
X2476377Y995669D2*
X2476891Y995635D1*
X2477396Y995534D1*
X2477884Y995369D1*
X2478346Y995141D1*
X2478774Y994855D1*
X2479161Y994515D1*
X2479501Y994128D1*
X2479787Y993700D1*
X2480014Y993238D1*
X2480180Y992750D1*
X2480280Y992245D1*
X2480314Y991731D1*
X2480280Y991218D1*
X2480180Y990713D1*
X2480014Y990225D1*
X2479787Y989763D1*
X2479501Y989335D1*
X2479161Y988948D1*
X2478774Y988608D1*
X2478346Y988322D1*
X2477884Y988094D1*
X2477396Y987929D1*
X2476891Y987828D1*
X2476377Y987794D1*
D1*
X2475863Y987828D1*
X2475358Y987929D1*
X2474871Y988094D1*
X2474409Y988322D1*
X2473980Y988608D1*
X2473593Y988948D1*
X2473254Y989335D1*
X2472968Y989763D1*
X2472740Y990225D1*
X2472574Y990713D1*
X2472474Y991218D1*
X2472440Y991731D1*
X2472474Y992245D1*
X2472574Y992750D1*
X2472740Y993238D1*
X2472968Y993700D1*
X2473254Y994128D1*
X2473593Y994515D1*
X2473980Y994855D1*
X2474409Y995141D1*
X2474871Y995369D1*
X2475358Y995534D1*
X2475863Y995635D1*
X2476377Y995669D1*
D1*
G37*
X1617025Y943507D2*
D23*
Y1152169D1*
X1557970Y1211224D1*
X1290254D1*
Y884452D1*
X1557970D1*
X1617025Y943507D1*
G36*
X1642616Y973035D2*
X1643130Y973001D1*
X1643635Y972900D1*
X1644123Y972735D1*
X1644585Y972507D1*
X1645013Y972221D1*
X1645400Y971882D1*
X1645739Y971494D1*
X1646026Y971066D1*
X1646253Y970604D1*
X1646419Y970117D1*
X1646519Y969612D1*
X1646553Y969098D1*
X1646519Y968584D1*
X1646419Y968079D1*
X1646253Y967591D1*
X1646026Y967129D1*
X1645739Y966701D1*
X1645400Y966314D1*
X1645013Y965974D1*
X1644585Y965688D1*
X1644123Y965460D1*
X1643635Y965295D1*
X1643130Y965194D1*
X1642616Y965161D1*
D1*
X1642102Y965194D1*
X1641597Y965295D1*
X1641109Y965460D1*
X1640648Y965688D1*
X1640219Y965974D1*
X1639832Y966314D1*
X1639493Y966701D1*
X1639206Y967129D1*
X1638979Y967591D1*
X1638813Y968079D1*
X1638713Y968584D1*
X1638679Y969098D1*
X1638713Y969612D1*
X1638813Y970117D1*
X1638979Y970604D1*
X1639206Y971066D1*
X1639493Y971494D1*
X1639832Y971882D1*
X1640219Y972221D1*
X1640647Y972507D1*
X1641109Y972735D1*
X1641597Y972900D1*
X1642102Y973001D1*
X1642616Y973035D1*
D1*
G37*
X3092523Y773473D2*
D23*
X2978350D1*
Y824654D1*
X3092523D1*
Y773473D1*
G36*
X2999413Y712449D2*
X2998899Y712483D1*
X2998394Y712583D1*
X2997906Y712749D1*
X2997444Y712977D1*
X2997016Y713263D1*
X2996629Y713602D1*
X2996289Y713990D1*
X2996003Y714418D1*
X2995775Y714880D1*
X2995610Y715367D1*
X2995509Y715872D1*
X2995476Y716386D1*
X2995509Y716900D1*
X2995610Y717405D1*
X2995775Y717893D1*
X2996003Y718355D1*
X2996289Y718783D1*
X2996629Y719170D1*
X2997016Y719510D1*
X2997444Y719796D1*
X2997906Y720024D1*
X2998394Y720189D1*
X2998899Y720290D1*
X2999413Y720323D1*
D1*
X2999926Y720290D1*
X3000432Y720189D1*
X3000919Y720024D1*
X3001381Y719796D1*
X3001809Y719510D1*
X3002196Y719170D1*
X3002536Y718783D1*
X3002822Y718355D1*
X3003050Y717893D1*
X3003215Y717405D1*
X3003316Y716900D1*
X3003350Y716386D1*
X3003316Y715872D1*
X3003215Y715367D1*
X3003050Y714880D1*
X3002822Y714418D1*
X3002536Y713990D1*
X3002196Y713602D1*
X3001809Y713263D1*
X3001381Y712977D1*
X3000919Y712749D1*
X3000432Y712583D1*
X2999926Y712483D1*
X2999413Y712449D1*
D1*
G37*
X2656522Y1377638D2*
D13*
X2853372D1*
Y1220158D1*
X2695892D1*
X2656522Y1259528D1*
Y1377638D1*
X2448742Y1435944D2*
D23*
Y1498936D1*
X2322758D1*
Y1435944D1*
X2448742D1*
X2473724Y1235906D2*
X2536716D1*
Y1361890D1*
X2473724D1*
Y1235906D1*
X2846066Y1039439D2*
D13*
X3224806D1*
X2621742Y1064659D2*
X2243002D1*
X3313718Y638931D2*
Y917671D1*
X3455875Y1487634D2*
D23*
X3192095D1*
X3121229Y1416768D1*
Y1082123D1*
X3526741D1*
Y1416768D1*
X3455875Y1487634D1*
G36*
X3406662Y1536847D2*
X3407176Y1536813D1*
X3407681Y1536713D1*
X3408169Y1536547D1*
X3408630Y1536320D1*
X3409059Y1536033D1*
X3409446Y1535694D1*
X3409785Y1535307D1*
X3410071Y1534878D1*
X3410299Y1534417D1*
X3410465Y1533929D1*
X3410565Y1533424D1*
X3410599Y1532910D1*
X3410565Y1532396D1*
X3410465Y1531891D1*
X3410299Y1531403D1*
X3410071Y1530941D1*
X3409785Y1530513D1*
X3409446Y1530126D1*
X3409059Y1529787D1*
X3408630Y1529500D1*
X3408169Y1529273D1*
X3407681Y1529107D1*
X3407176Y1529007D1*
X3406662Y1528973D1*
D1*
X3406148Y1529007D1*
X3405643Y1529107D1*
X3405155Y1529273D1*
X3404693Y1529500D1*
X3404265Y1529787D1*
X3403878Y1530126D1*
X3403539Y1530513D1*
X3403252Y1530941D1*
X3403025Y1531403D1*
X3402859Y1531891D1*
X3402759Y1532396D1*
X3402725Y1532910D1*
X3402759Y1533424D1*
X3402859Y1533929D1*
X3403025Y1534417D1*
X3403252Y1534878D1*
X3403539Y1535307D1*
X3403878Y1535694D1*
X3404265Y1536033D1*
X3404693Y1536320D1*
X3405155Y1536547D1*
X3405643Y1536713D1*
X3406148Y1536813D1*
X3406662Y1536847D1*
D1*
G37*
X568702Y944754D2*
D68*
X566800Y948557D1*
X562954Y952404D1*
X559151Y954305D1*
X551502D1*
X547655Y952404D1*
X543852Y948557D1*
X541907Y944754D1*
X540006Y939006D1*
Y929412D1*
X541907Y923708D1*
X543852Y919861D1*
X547655Y916058D1*
X551502Y914113D1*
X559151D1*
X562954Y916058D1*
X566800Y919861D1*
X568702Y923708D1*
Y929412D1*
X559151D1*
X607848Y954305D2*
Y914113D1*
X581053Y954305D1*
Y914113D1*
X620199Y954305D2*
Y914113D1*
X633596D1*
X639344Y916058D1*
X643191Y919861D1*
X645093Y923708D1*
X646994Y929412D1*
Y939006D1*
X645093Y944754D1*
X643191Y948557D1*
X639344Y952404D1*
X633596Y954305D1*
X620199D1*
X536895Y727489D2*
X533092Y731335D1*
X527344Y733237D1*
X519695D1*
X513947Y731335D1*
X510100Y727489D1*
Y723686D1*
X512046Y719839D1*
X513947Y717938D1*
X517749Y716037D1*
X529246Y712190D1*
X533092Y710289D1*
X534994Y708343D1*
X536895Y704541D1*
Y698793D1*
X533092Y694990D1*
X527344Y693045D1*
X519695D1*
X513947Y694990D1*
X510100Y698793D1*
X549246Y712190D2*
X566490D1*
X572194Y714091D1*
X574140Y716037D1*
X576041Y719839D1*
Y725587D1*
X574140Y729390D1*
X572194Y731335D1*
X566490Y733237D1*
X549246D1*
Y693045D1*
X588392Y733237D2*
Y693045D1*
X615187Y733237D2*
X588392Y706442D1*
X597943Y716037D2*
X615187Y693045D1*
X627538Y714091D2*
X644738D1*
X650486Y716037D1*
X652432Y717938D1*
X654333Y721741D1*
Y725587D1*
X652432Y729390D1*
X650486Y731335D1*
X644738Y733237D1*
X627538D1*
Y693045D1*
X640936Y714091D2*
X654333Y693045D1*
X1138015Y498583D2*
X1134168Y494780D1*
X1132267Y489032D1*
Y481383D1*
X1134168Y475635D1*
X1138015Y471788D1*
X1141818D1*
X1145664Y473733D1*
X1147566Y475635D1*
X1149467Y479437D1*
X1153314Y490933D1*
X1155215Y494780D1*
X1157160Y496681D1*
X1160963Y498583D1*
X1166711D1*
X1170513Y494780D1*
X1172459Y489032D1*
Y481383D1*
X1170513Y475635D1*
X1166711Y471788D1*
X1132267Y510934D2*
X1172459D1*
Y528178D1*
X1170513Y533926D1*
X1168612Y535827D1*
X1164810Y537729D1*
X1159062D1*
X1155215Y535827D1*
X1153314Y533926D1*
X1151412Y528178D1*
X1149467Y533926D1*
X1147566Y535827D1*
X1143763Y537729D1*
X1139916D1*
X1136114Y535827D1*
X1134168Y533926D1*
X1132267Y528178D1*
Y510934D1*
X1151412D2*
Y528178D1*
X1132267Y550080D2*
X1151412Y565379D1*
X1172459D1*
X1132267Y580677D2*
X1151412Y565379D1*
X1122459Y677385D2*
X1082267D1*
X1122459Y662086D1*
X1082267Y646788D1*
X1122459D1*
X1082267Y689736D2*
X1110963D1*
X1116711Y691638D1*
X1120513Y695484D1*
X1122459Y701233D1*
Y705035D1*
X1120513Y710783D1*
X1116711Y714630D1*
X1110963Y716531D1*
X1082267D1*
Y742280D2*
X1122459D1*
X1082267Y728883D2*
Y755677D1*
Y792878D2*
Y768029D1*
X1122459D1*
Y792878D1*
X1101412Y768029D2*
Y783327D1*
X2936993Y1072810D2*
D71*
Y1052714D1*
X2945615D1*
X2948489Y1053687D1*
X2949440Y1054638D1*
X2950391Y1056539D1*
Y1059413D1*
X2949440Y1061336D1*
X2948489Y1062287D1*
X2945615Y1063238D1*
X2948489Y1064210D1*
X2949440Y1065161D1*
X2950391Y1067062D1*
Y1068986D1*
X2949440Y1070887D1*
X2948489Y1071860D1*
X2945615Y1072810D1*
X2936993D1*
Y1063238D2*
X2945615D1*
X2962314Y1072810D2*
X2960391Y1071860D1*
X2958490Y1069936D1*
X2957517Y1068035D1*
X2956566Y1065161D1*
Y1060364D1*
X2957517Y1057512D1*
X2958490Y1055588D1*
X2960391Y1053687D1*
X2962314Y1052714D1*
X2966139D1*
X2968040Y1053687D1*
X2969964Y1055588D1*
X2970914Y1057512D1*
X2971865Y1060364D1*
Y1065161D1*
X2970914Y1068035D1*
X2969964Y1069936D1*
X2968040Y1071860D1*
X2966139Y1072810D1*
X2962314D1*
X2993361Y1052714D2*
X2985690Y1072810D1*
X2978041Y1052714D1*
X2980915Y1059413D2*
X2990487D1*
X2999537Y1063238D2*
X3008137D1*
X3011011Y1064210D1*
X3011984Y1065161D1*
X3012934Y1067062D1*
Y1068986D1*
X3011984Y1070887D1*
X3011011Y1071860D1*
X3008137Y1072810D1*
X2999537D1*
Y1052714D1*
X3006236Y1063238D2*
X3012934Y1052714D1*
X3019110Y1072810D2*
Y1052714D1*
X3025809D1*
X3028683Y1053687D1*
X3030606Y1055588D1*
X3031557Y1057512D1*
X3032507Y1060364D1*
Y1065161D1*
X3031557Y1068035D1*
X3030606Y1069936D1*
X3028683Y1071860D1*
X3025809Y1072810D1*
X3019110D1*
X3070548D2*
X3058123D1*
Y1052714D1*
X3070548D1*
X3058123Y1063238D2*
X3065773D1*
X3076724Y1072810D2*
Y1052714D1*
X3083422D1*
X3086296Y1053687D1*
X3088220Y1055588D1*
X3089170Y1057512D1*
X3090121Y1060364D1*
Y1065161D1*
X3089170Y1068035D1*
X3088220Y1069936D1*
X3086296Y1071860D1*
X3083422Y1072810D1*
X3076724D1*
X3110645Y1068035D2*
X3109694Y1069936D1*
X3107771Y1071860D1*
X3105869Y1072810D1*
X3102045D1*
X3100121Y1071860D1*
X3098220Y1069936D1*
X3097247Y1068035D1*
X3096297Y1065161D1*
Y1060364D1*
X3097247Y1057512D1*
X3098220Y1055588D1*
X3100121Y1053687D1*
X3102045Y1052714D1*
X3105869D1*
X3107771Y1053687D1*
X3109694Y1055588D1*
X3110645Y1057512D1*
Y1060364D1*
X3105869D1*
X3129245Y1072810D2*
X3116820D1*
Y1052714D1*
X3129245D1*
X3116820Y1063238D2*
X3124470D1*
X2530815Y1031288D2*
Y1051384D1*
X2522193D1*
X2519319Y1050411D1*
X2518368Y1049461D1*
X2517418Y1047559D1*
Y1044685D1*
X2518368Y1042762D1*
X2519319Y1041811D1*
X2522193Y1040861D1*
X2519319Y1039888D1*
X2518368Y1038937D1*
X2517418Y1037036D1*
Y1035113D1*
X2518368Y1033211D1*
X2519319Y1032239D1*
X2522193Y1031288D1*
X2530815D1*
Y1040861D2*
X2522193D1*
X2505494Y1031288D2*
X2507417Y1032239D1*
X2509318Y1034162D1*
X2510291Y1036063D1*
X2511242Y1038937D1*
Y1043735D1*
X2510291Y1046587D1*
X2509318Y1048510D1*
X2507417Y1050411D1*
X2505494Y1051384D1*
X2501669D1*
X2499768Y1050411D1*
X2497844Y1048510D1*
X2496894Y1046587D1*
X2495943Y1043735D1*
Y1038937D1*
X2496894Y1036063D1*
X2497844Y1034162D1*
X2499768Y1032239D1*
X2501669Y1031288D1*
X2505494D1*
X2474447Y1051384D2*
X2482118Y1031288D1*
X2489768Y1051384D1*
X2486894Y1044685D2*
X2477321D1*
X2468271Y1040861D2*
X2459671D1*
X2456797Y1039888D1*
X2455824Y1038937D1*
X2454874Y1037036D1*
Y1035113D1*
X2455824Y1033211D1*
X2456797Y1032239D1*
X2459671Y1031288D1*
X2468271D1*
Y1051384D1*
X2461572Y1040861D2*
X2454874Y1051384D1*
X2448698Y1031288D2*
Y1051384D1*
X2441999D1*
X2439125Y1050411D1*
X2437202Y1048510D1*
X2436251Y1046587D1*
X2435301Y1043735D1*
Y1038937D1*
X2436251Y1036063D1*
X2437202Y1034162D1*
X2439125Y1032239D1*
X2441999Y1031288D1*
X2448698D1*
X2397260D2*
X2409685D1*
Y1051384D1*
X2397260D1*
X2409685Y1040861D2*
X2402035D1*
X2391084Y1031288D2*
Y1051384D1*
X2384386D1*
X2381512Y1050411D1*
X2379588Y1048510D1*
X2378638Y1046587D1*
X2377687Y1043735D1*
Y1038937D1*
X2378638Y1036063D1*
X2379588Y1034162D1*
X2381512Y1032239D1*
X2384386Y1031288D1*
X2391084D1*
X2357163Y1036063D2*
X2358114Y1034162D1*
X2360037Y1032239D1*
X2361939Y1031288D1*
X2365763D1*
X2367687Y1032239D1*
X2369588Y1034162D1*
X2370561Y1036063D1*
X2371511Y1038937D1*
Y1043735D1*
X2370561Y1046587D1*
X2369588Y1048510D1*
X2367687Y1050411D1*
X2365763Y1051384D1*
X2361939D1*
X2360037Y1050411D1*
X2358114Y1048510D1*
X2357163Y1046587D1*
Y1043735D1*
X2361939D1*
X2338563Y1031288D2*
X2350988D1*
Y1051384D1*
X2338563D1*
X2350988Y1040861D2*
X2343338D1*
X3280347Y679833D2*
X3300443D1*
Y688455D1*
X3299470Y691329D1*
X3298520Y692280D1*
X3296618Y693230D1*
X3293744D1*
X3291821Y692280D1*
X3290870Y691329D1*
X3289920Y688455D1*
X3288947Y691329D1*
X3287996Y692280D1*
X3286095Y693230D1*
X3284172D1*
X3282270Y692280D1*
X3281298Y691329D1*
X3280347Y688455D1*
Y679833D1*
X3289920D2*
Y688455D1*
X3280347Y705154D2*
X3281298Y703231D1*
X3283221Y701330D1*
X3285122Y700357D1*
X3287996Y699406D1*
X3292794D1*
X3295646Y700357D1*
X3297569Y701330D1*
X3299470Y703231D1*
X3300443Y705154D1*
Y708979D1*
X3299470Y710880D1*
X3297569Y712804D1*
X3295646Y713754D1*
X3292794Y714705D1*
X3287996D1*
X3285122Y713754D1*
X3283221Y712804D1*
X3281298Y710880D1*
X3280347Y708979D1*
Y705154D1*
X3300443Y736201D2*
X3280347Y728530D1*
X3300443Y720881D1*
X3293744Y723755D2*
Y733327D1*
X3289920Y742377D2*
Y750977D1*
X3288947Y753851D1*
X3287996Y754824D1*
X3286095Y755774D1*
X3284172D1*
X3282270Y754824D1*
X3281298Y753851D1*
X3280347Y750977D1*
Y742377D1*
X3300443D1*
X3289920Y749076D2*
X3300443Y755774D1*
X3280347Y761950D2*
X3300443D1*
Y768649D1*
X3299470Y771523D1*
X3297569Y773446D1*
X3295646Y774397D1*
X3292794Y775347D1*
X3287996D1*
X3285122Y774397D1*
X3283221Y773446D1*
X3281298Y771523D1*
X3280347Y768649D1*
Y761950D1*
Y813388D2*
Y800963D1*
X3300443D1*
Y813388D1*
X3289920Y800963D2*
Y808613D1*
X3280347Y819564D2*
X3300443D1*
Y826262D1*
X3299470Y829136D1*
X3297569Y831060D1*
X3295646Y832010D1*
X3292794Y832961D1*
X3287996D1*
X3285122Y832010D1*
X3283221Y831060D1*
X3281298Y829136D1*
X3280347Y826262D1*
Y819564D1*
X3285122Y853485D2*
X3283221Y852534D1*
X3281298Y850611D1*
X3280347Y848709D1*
Y844885D1*
X3281298Y842961D1*
X3283221Y841060D1*
X3285122Y840087D1*
X3287996Y839137D1*
X3292794D1*
X3295646Y840087D1*
X3297569Y841060D1*
X3299470Y842961D1*
X3300443Y844885D1*
Y848709D1*
X3299470Y850611D1*
X3297569Y852534D1*
X3295646Y853485D1*
X3292794D1*
Y848709D1*
X3280347Y872085D2*
Y859660D1*
X3300443D1*
Y872085D1*
X3289920Y859660D2*
Y867310D1*
M02*
