G04 DipTrace 3.3.1.1*
G04 TopDimension.gbr*
%MOIN*%
G04 #@! TF.FileFunction,Drawing,Top*
G04 #@! TF.Part,Single*
%ADD13C,0.001378*%
%ADD39C,0.006176*%
%FSLAX26Y26*%
G04*
G70*
G90*
G75*
G01*
G04 TopDimension*
%LPD*%
X394000Y4331008D2*
D13*
X216835D1*
X394000Y394000D2*
X216835D1*
X236520Y2362504D2*
Y4291638D1*
G36*
Y4331008D2*
X244394Y4291638D1*
X228646D1*
X236520Y4331008D1*
G37*
Y2362504D2*
D13*
Y433370D1*
G36*
Y394000D2*
X228646Y433370D1*
X244394D1*
X236520Y394000D1*
G37*
X1122346Y1279827D2*
D13*
X649906D1*
X748331Y571814D2*
X649906D1*
X669591Y925820D2*
Y1240457D1*
G36*
Y1279827D2*
X677465Y1240457D1*
X661717D1*
X669591Y1279827D1*
G37*
Y925820D2*
D13*
Y611184D1*
G36*
Y571814D2*
X661717Y611184D1*
X677465D1*
X669591Y571814D1*
G37*
X394000Y4331008D2*
D13*
Y4516100D1*
X3012110Y4331008D2*
Y4516100D1*
X1703055Y4496415D2*
X433370D1*
G36*
X394000D2*
X433370Y4504289D1*
Y4488541D1*
X394000Y4496415D1*
G37*
X1703055D2*
D13*
X2972740D1*
G36*
X3012110D2*
X2972740Y4488541D1*
Y4504289D1*
X3012110Y4496415D1*
G37*
X184161Y2290174D2*
D39*
Y2311176D1*
X199460Y2299724D1*
Y2305472D1*
X201361Y2309275D1*
X203262Y2311176D1*
X209010Y2313122D1*
X212813D1*
X218561Y2311176D1*
X222408Y2307374D1*
X224309Y2301626D1*
Y2295877D1*
X222408Y2290174D1*
X220462Y2288272D1*
X216660Y2286327D1*
X220462Y2327374D2*
X222408Y2325473D1*
X224309Y2327374D1*
X222408Y2329320D1*
X220462Y2327374D1*
X197514Y2366565D2*
X203262Y2364619D1*
X207109Y2360816D1*
X209010Y2355068D1*
Y2353167D1*
X207109Y2347419D1*
X203262Y2343617D1*
X197514Y2341671D1*
X195613D1*
X189865Y2343617D1*
X186062Y2347419D1*
X184161Y2353167D1*
Y2355068D1*
X186062Y2360816D1*
X189865Y2364619D1*
X197514Y2366565D1*
X207109D1*
X216660Y2364619D1*
X222408Y2360816D1*
X224309Y2355068D1*
Y2351266D1*
X222408Y2345518D1*
X218561Y2343617D1*
X184161Y2382763D2*
Y2403765D1*
X199460Y2392313D1*
Y2398061D1*
X201361Y2401864D1*
X203262Y2403765D1*
X209010Y2405711D1*
X212813D1*
X218561Y2403765D1*
X222408Y2399963D1*
X224309Y2394215D1*
Y2388467D1*
X222408Y2382763D1*
X220462Y2380861D1*
X216660Y2378916D1*
X224309Y2425711D2*
X184161Y2444857D1*
Y2418062D1*
X617232Y860211D2*
X619133Y854463D1*
X624881Y850616D1*
X634432Y848715D1*
X640180D1*
X649730Y850616D1*
X655479Y854463D1*
X657380Y860211D1*
Y864013D1*
X655479Y869761D1*
X649730Y873564D1*
X640180Y875509D1*
X634432D1*
X624881Y873564D1*
X619133Y869761D1*
X617232Y864013D1*
Y860211D1*
X624881Y873564D2*
X649730Y850616D1*
X653533Y889762D2*
X655479Y887861D1*
X657380Y889762D1*
X655479Y891707D1*
X653533Y889762D1*
X657380Y911708D2*
X617232Y930854D1*
Y904059D1*
Y954701D2*
X619133Y948953D1*
X624881Y945106D1*
X634432Y943205D1*
X640180D1*
X649730Y945106D1*
X655479Y948953D1*
X657380Y954701D1*
Y958504D1*
X655479Y964252D1*
X649730Y968054D1*
X640180Y970000D1*
X634432D1*
X624881Y968054D1*
X619133Y964252D1*
X617232Y958504D1*
Y954701D1*
X624881Y968054D2*
X649730Y945106D1*
X617232Y991902D2*
X619133Y986198D1*
X622936Y984252D1*
X626783D1*
X630585Y986198D1*
X632531Y990000D1*
X634432Y997650D1*
X636333Y1003398D1*
X640180Y1007200D1*
X643982Y1009101D1*
X649730D1*
X653533Y1007200D1*
X655479Y1005299D1*
X657380Y999551D1*
Y991902D1*
X655479Y986198D1*
X653533Y984252D1*
X649730Y982351D1*
X643982D1*
X640180Y984252D1*
X636333Y988099D1*
X634432Y993803D1*
X632531Y1001452D1*
X630585Y1005299D1*
X626783Y1007200D1*
X622936D1*
X619133Y1005299D1*
X617232Y999551D1*
Y991902D1*
X1637468Y4539223D2*
Y4541124D1*
X1639369Y4544971D1*
X1641270Y4546872D1*
X1645117Y4548773D1*
X1652766D1*
X1656569Y4546872D1*
X1658470Y4544971D1*
X1660416Y4541124D1*
Y4537321D1*
X1658470Y4533475D1*
X1654668Y4527771D1*
X1635522Y4508625D1*
X1662317D1*
X1676570Y4512472D2*
X1674668Y4510527D1*
X1676570Y4508625D1*
X1678515Y4510527D1*
X1676570Y4512472D1*
X1713814Y4543069D2*
X1711913Y4546872D1*
X1706165Y4548773D1*
X1702363D1*
X1696614Y4546872D1*
X1692768Y4541124D1*
X1690866Y4531573D1*
Y4522023D1*
X1692768Y4514373D1*
X1696614Y4510527D1*
X1702363Y4508625D1*
X1704264D1*
X1709968Y4510527D1*
X1713814Y4514373D1*
X1715716Y4520122D1*
Y4522023D1*
X1713814Y4527771D1*
X1709968Y4531573D1*
X1704264Y4533475D1*
X1702363D1*
X1696614Y4531573D1*
X1692768Y4527771D1*
X1690866Y4522023D1*
X1728067Y4541124D2*
X1731914Y4543069D1*
X1737662Y4548773D1*
Y4508625D1*
X1759564Y4548773D2*
X1753860Y4546872D1*
X1751915Y4543069D1*
Y4539223D1*
X1753860Y4535420D1*
X1757663Y4533475D1*
X1765312Y4531573D1*
X1771060Y4529672D1*
X1774862Y4525825D1*
X1776764Y4522023D1*
Y4516275D1*
X1774862Y4512472D1*
X1772961Y4510527D1*
X1767213Y4508625D1*
X1759564D1*
X1753860Y4510527D1*
X1751915Y4512472D1*
X1750013Y4516275D1*
Y4522023D1*
X1751915Y4525825D1*
X1755761Y4529672D1*
X1761465Y4531573D1*
X1769114Y4533475D1*
X1772961Y4535420D1*
X1774862Y4539223D1*
Y4543069D1*
X1772961Y4546872D1*
X1767213Y4548773D1*
X1759564D1*
M02*
