G04 DipTrace 3.3.1.1*
G04 TopMask.gbr*
%MOIN*%
G04 #@! TF.FileFunction,Soldermask,Top*
G04 #@! TF.Part,Single*
%ADD20C,0.137795*%
%ADD24C,0.074961*%
%ADD26R,0.074961X0.074961*%
%ADD28C,0.108031*%
%ADD30R,0.078898X0.071024*%
%FSLAX26Y26*%
G04*
G70*
G90*
G75*
G01*
G04 TopMask*
%LPD*%
D30*
X630236Y1309370D3*
Y1199134D3*
D20*
X748346Y571829D3*
X743503Y4114542D3*
X2913701Y570966D3*
X2907129Y4114084D3*
D28*
X472756Y1348740D3*
Y866457D3*
Y1102677D3*
D30*
X574190Y3851568D3*
Y3741332D3*
X737076D3*
Y3851568D3*
X584142Y3499167D3*
Y3609403D3*
X738504Y3504252D3*
Y3394016D3*
X575646Y3294287D3*
Y3184051D3*
X741566Y3187503D3*
Y3077266D3*
X577457Y3033945D3*
Y2923709D3*
X577303Y2673290D3*
Y2783526D3*
X581651Y2445394D3*
Y2555630D3*
X746436Y2325965D3*
Y2436201D3*
X577930Y2326696D3*
Y2216459D3*
X747705Y2136202D3*
Y2025966D3*
X592890Y2023760D3*
Y1913524D3*
X742385Y1920886D3*
Y1810650D3*
X835122Y1749261D3*
Y1639025D3*
X846772Y1250315D3*
Y1140079D3*
X551920Y1673497D3*
Y1563261D3*
D26*
X994409Y4203071D3*
D24*
Y4025906D3*
X1250315D3*
Y4203071D3*
D26*
X1703071D3*
D24*
Y4025906D3*
X1958976D3*
Y4203071D3*
D26*
X2411732D3*
D24*
Y4025906D3*
X2667638D3*
Y4203071D3*
D26*
X994409Y3494409D3*
D24*
Y3317244D3*
X1250315D3*
Y3494409D3*
D26*
X1703071D3*
D24*
Y3317244D3*
X1958976D3*
Y3494409D3*
D26*
X2411732D3*
D24*
Y3317244D3*
X2667638D3*
Y3494409D3*
D26*
X955039Y2785748D3*
D24*
Y2608583D3*
X1210945D3*
Y2785748D3*
D26*
X1683386D3*
D24*
Y2608583D3*
X1939291D3*
Y2785748D3*
D26*
X2411732D3*
D24*
Y2608583D3*
X2667638D3*
Y2785748D3*
D26*
X994409Y2077087D3*
D24*
Y1899921D3*
X1250315D3*
Y2077087D3*
D26*
X1703071D3*
D24*
Y1899921D3*
X1958976D3*
Y2077087D3*
D26*
X2411732D3*
D24*
Y1899921D3*
X2667638D3*
Y2077087D3*
D26*
X1703071Y1368425D3*
D24*
Y1191260D3*
X1958976D3*
Y1368425D3*
D26*
X2411732D3*
D24*
Y1191260D3*
X2667638D3*
Y1368425D3*
D26*
X979723Y659764D3*
D24*
Y482598D3*
X1235629D3*
Y659764D3*
D26*
X1695728D3*
D24*
Y482598D3*
X1951634D3*
Y659764D3*
D26*
X2411732D3*
D24*
Y482598D3*
X2667638D3*
Y659764D3*
D26*
X974724Y1368425D3*
D24*
Y1191260D3*
X1230630D3*
Y1368425D3*
D30*
X846772Y827087D3*
Y937323D3*
M02*
